<?xml version="1.0" encoding="utf-8" standalone="no"?>
<!DOCTYPE svg PUBLIC "-//W3C//DTD SVG 1.1//EN"
  "http://www.w3.org/Graphics/SVG/1.1/DTD/svg11.dtd">
<!-- Created with matplotlib (http://matplotlib.org/) -->
<svg height="341pt" version="1.1" viewBox="0 0 392 341" width="392pt" xmlns="http://www.w3.org/2000/svg" xmlns:xlink="http://www.w3.org/1999/xlink">
 <defs>
  <style type="text/css">
*{stroke-linecap:butt;stroke-linejoin:round;stroke-miterlimit:100000;}
  </style>
 </defs>
 <g id="figure_1">
  <g id="patch_1">
   <path d="M 0 341.34375 
L 392.992494 341.34375 
L 392.992494 0 
L 0 0 
z
" style="fill:#ffffff;"/>
  </g>
  <g id="axes_1">
   <g id="patch_2">
    <path d="M 26.47 306.91625 
L 383.59 306.91625 
L 383.59 30.43625 
L 26.47 30.43625 
z
" style="fill:#ffffff;"/>
   </g>
   <g id="line2d_1">
    <path clip-path="url(#p8d35668528)" d="M 38.159282 183.617972 
L 83.143838 181.556202 
L 139.817676 181.209423 
L 216.719282 178.52724 
L 293.620888 166.478509 
L 370.522494 179.441677 
" style="fill:none;stroke:#f5deb3;stroke-linecap:square;stroke-width:10.0;"/>
    <defs>
     <path d="M -0 17.67767 
L 10.606602 0 
L 0 -17.67767 
L -10.606602 -0 
z
" id="m6272e7ef13" style="stroke:#000000;stroke-linejoin:miter;stroke-width:0.5;"/>
    </defs>
    <g clip-path="url(#p8d35668528)">
     <use style="fill:#f5deb3;stroke:#000000;stroke-linejoin:miter;stroke-width:0.5;" x="38.1592820348" xlink:href="#m6272e7ef13" y="183.617972177"/>
     <use style="fill:#f5deb3;stroke:#000000;stroke-linejoin:miter;stroke-width:0.5;" x="83.1438379126" xlink:href="#m6272e7ef13" y="181.556201861"/>
     <use style="fill:#f5deb3;stroke:#000000;stroke-linejoin:miter;stroke-width:0.5;" x="139.817675825" xlink:href="#m6272e7ef13" y="181.209422571"/>
     <use style="fill:#f5deb3;stroke:#000000;stroke-linejoin:miter;stroke-width:0.5;" x="216.719282035" xlink:href="#m6272e7ef13" y="178.527239833"/>
     <use style="fill:#f5deb3;stroke:#000000;stroke-linejoin:miter;stroke-width:0.5;" x="293.620888244" xlink:href="#m6272e7ef13" y="166.478509078"/>
     <use style="fill:#f5deb3;stroke:#000000;stroke-linejoin:miter;stroke-width:0.5;" x="370.522494454" xlink:href="#m6272e7ef13" y="179.441676647"/>
    </g>
   </g>
   <g id="line2d_2">
    <defs>
     <path d="M -15 0 
L 15 0 
M 0 15 
L 0 -15 
" id="mebfa412517" style="stroke:#008000;stroke-width:5.0;"/>
    </defs>
    <g clip-path="url(#p8d35668528)">
     <use style="fill:#008000;stroke:#008000;stroke-width:5.0;" x="38.1592820348" xlink:href="#mebfa412517" y="223.926320748"/>
    </g>
   </g>
   <g id="line2d_3">
    <g clip-path="url(#p8d35668528)">
     <use style="fill:#008000;stroke:#008000;stroke-width:5.0;" x="83.1438379126" xlink:href="#mebfa412517" y="191.301377333"/>
    </g>
   </g>
   <g id="line2d_4">
    <defs>
     <path d="M -15 0 
L 15 0 
M 0 15 
L 0 -15 
" id="m3b8b009fcc" style="stroke:#00bfbf;stroke-width:5.0;"/>
    </defs>
    <g clip-path="url(#p8d35668528)">
     <use style="fill:#00bfbf;stroke:#00bfbf;stroke-width:5.0;" x="139.817675825" xlink:href="#m3b8b009fcc" y="163.052762125"/>
    </g>
   </g>
   <g id="line2d_5">
    <path clip-path="url(#p8d35668528)" d="M 35.515722 293.750537 
L 37.366214 228.645783 
L 35.515722 204.738303 
L 40.802842 204.738303 
L 38.95235 228.645783 
L 40.802842 293.750537 
L 35.515722 293.750537 
" style="fill:none;stroke:#00bfbf;stroke-linecap:square;"/>
   </g>
   <g id="line2d_6">
    <path clip-path="url(#p8d35668528)" d="M 35.515722 293.750537 
L 40.802842 293.750537 
L 40.802842 204.738303 
L 35.515722 204.738303 
L 35.515722 293.750537 
" style="fill:none;"/>
    <defs>
     <path d="M -0 3 
L 3 -3 
L -3 -3 
z
" id="mc852d53187" style="stroke:#00bfbf;stroke-linejoin:miter;stroke-width:2.0;"/>
    </defs>
    <g clip-path="url(#p8d35668528)">
     <use style="fill:#00bfbf;stroke:#00bfbf;stroke-linejoin:miter;stroke-width:2.0;" x="35.5157215758" xlink:href="#mc852d53187" y="293.750537076"/>
     <use style="fill:#00bfbf;stroke:#00bfbf;stroke-linejoin:miter;stroke-width:2.0;" x="40.8028424937" xlink:href="#mc852d53187" y="293.750537076"/>
     <use style="fill:#00bfbf;stroke:#00bfbf;stroke-linejoin:miter;stroke-width:2.0;" x="40.8028424937" xlink:href="#mc852d53187" y="204.738302802"/>
     <use style="fill:#00bfbf;stroke:#00bfbf;stroke-linejoin:miter;stroke-width:2.0;" x="35.5157215758" xlink:href="#mc852d53187" y="204.738302802"/>
     <use style="fill:#00bfbf;stroke:#00bfbf;stroke-linejoin:miter;stroke-width:2.0;" x="35.5157215758" xlink:href="#mc852d53187" y="293.750537076"/>
    </g>
   </g>
   <g id="line2d_7">
    <path clip-path="url(#p8d35668528)" d="M 35.515722 228.645783 
L 40.802842 228.645783 
" style="fill:none;stroke:#00bfbf;stroke-linecap:square;stroke-width:2.0;"/>
   </g>
   <g id="line2d_8">
    <path clip-path="url(#p8d35668528)" d="M 80.500277 152.270528 
L 82.35077 110.093247 
L 80.500277 99.585721 
L 85.787398 99.585721 
L 83.936906 110.093247 
L 85.787398 152.270528 
L 80.500277 152.270528 
" style="fill:none;stroke:#00bfbf;stroke-linecap:square;"/>
   </g>
   <g id="line2d_9">
    <path clip-path="url(#p8d35668528)" d="M 80.500277 152.270528 
L 85.787398 152.270528 
L 85.787398 99.585721 
L 80.500277 99.585721 
L 80.500277 152.270528 
" style="fill:none;"/>
    <g clip-path="url(#p8d35668528)">
     <use style="fill:#00bfbf;stroke:#00bfbf;stroke-linejoin:miter;stroke-width:2.0;" x="80.5002774536" xlink:href="#mc852d53187" y="152.270527832"/>
     <use style="fill:#00bfbf;stroke:#00bfbf;stroke-linejoin:miter;stroke-width:2.0;" x="85.7873983715" xlink:href="#mc852d53187" y="152.270527832"/>
     <use style="fill:#00bfbf;stroke:#00bfbf;stroke-linejoin:miter;stroke-width:2.0;" x="85.7873983715" xlink:href="#mc852d53187" y="99.5857209493"/>
     <use style="fill:#00bfbf;stroke:#00bfbf;stroke-linejoin:miter;stroke-width:2.0;" x="80.5002774536" xlink:href="#mc852d53187" y="99.5857209493"/>
     <use style="fill:#00bfbf;stroke:#00bfbf;stroke-linejoin:miter;stroke-width:2.0;" x="80.5002774536" xlink:href="#mc852d53187" y="152.270527832"/>
    </g>
   </g>
   <g id="line2d_10">
    <path clip-path="url(#p8d35668528)" d="M 80.500277 110.093247 
L 85.787398 110.093247 
" style="fill:none;stroke:#00bfbf;stroke-linecap:square;stroke-width:2.0;"/>
   </g>
   <g id="line2d_11">
    <path clip-path="url(#p8d35668528)" d="M 137.174115 119.554488 
L 139.024608 104.738232 
L 137.174115 76.857344 
L 142.461236 76.857344 
L 140.610744 104.738232 
L 142.461236 119.554488 
L 137.174115 119.554488 
" style="fill:none;stroke:#00bfbf;stroke-linecap:square;"/>
   </g>
   <g id="line2d_12">
    <path clip-path="url(#p8d35668528)" d="M 137.174115 119.554488 
L 142.461236 119.554488 
L 142.461236 76.857344 
L 137.174115 76.857344 
L 137.174115 119.554488 
" style="fill:none;"/>
    <g clip-path="url(#p8d35668528)">
     <use style="fill:#00bfbf;stroke:#00bfbf;stroke-linejoin:miter;stroke-width:2.0;" x="137.174115366" xlink:href="#mc852d53187" y="119.554488273"/>
     <use style="fill:#00bfbf;stroke:#00bfbf;stroke-linejoin:miter;stroke-width:2.0;" x="142.461236284" xlink:href="#mc852d53187" y="119.554488273"/>
     <use style="fill:#00bfbf;stroke:#00bfbf;stroke-linejoin:miter;stroke-width:2.0;" x="142.461236284" xlink:href="#mc852d53187" y="76.8573441589"/>
     <use style="fill:#00bfbf;stroke:#00bfbf;stroke-linejoin:miter;stroke-width:2.0;" x="137.174115366" xlink:href="#mc852d53187" y="76.8573441589"/>
     <use style="fill:#00bfbf;stroke:#00bfbf;stroke-linejoin:miter;stroke-width:2.0;" x="137.174115366" xlink:href="#mc852d53187" y="119.554488273"/>
    </g>
   </g>
   <g id="line2d_13">
    <path clip-path="url(#p8d35668528)" d="M 137.174115 104.738232 
L 142.461236 104.738232 
" style="fill:none;stroke:#00bfbf;stroke-linecap:square;stroke-width:2.0;"/>
   </g>
   <g id="line2d_14">
    <path clip-path="url(#p8d35668528)" d="M 38.159282 201.685341 
L 83.143838 121.080932 
" style="fill:none;stroke:#00bfbf;stroke-linecap:square;stroke-width:4.0;"/>
   </g>
   <g id="line2d_15">
    <path clip-path="url(#p8d35668528)" d="M 83.143838 121.080932 
L 139.817676 100.540172 
" style="fill:none;stroke:#00bfbf;stroke-linecap:square;stroke-width:4.0;"/>
   </g>
   <g id="line2d_16">
    <path clip-path="url(#p8d35668528)" d="M 38.159282 201.685341 
L 83.143838 121.080932 
L 139.817676 100.540172 
" style="fill:none;"/>
    <defs>
     <path d="M -0 10 
L 10 -10 
L -10 -10 
z
" id="m60a874116d" style="stroke:#000000;stroke-linejoin:miter;stroke-width:2.0;"/>
    </defs>
    <g clip-path="url(#p8d35668528)">
     <use style="fill:#00bfbf;stroke:#000000;stroke-linejoin:miter;stroke-width:2.0;" x="38.1592820348" xlink:href="#m60a874116d" y="201.685340619"/>
     <use style="fill:#00bfbf;stroke:#000000;stroke-linejoin:miter;stroke-width:2.0;" x="83.1438379126" xlink:href="#m60a874116d" y="121.080932093"/>
     <use style="fill:#00bfbf;stroke:#000000;stroke-linejoin:miter;stroke-width:2.0;" x="139.817675825" xlink:href="#m60a874116d" y="100.540172209"/>
    </g>
   </g>
   <g id="line2d_17">
    <path clip-path="url(#p8d35668528)" d="M 34.634535 216.330138 
L 37.101858 188.468469 
L 34.634535 176.936632 
L 41.684029 176.936632 
L 39.216706 188.468469 
L 41.684029 216.330138 
L 34.634535 216.330138 
" style="fill:none;stroke:#bf00bf;stroke-linecap:square;"/>
   </g>
   <g id="line2d_18">
    <path clip-path="url(#p8d35668528)" d="M 34.634535 216.330138 
L 41.684029 216.330138 
L 41.684029 176.936632 
L 34.634535 176.936632 
L 34.634535 216.330138 
" style="fill:none;"/>
    <defs>
     <path d="M 0 1.5 
C 0.397805 1.5 0.77937 1.341951 1.06066 1.06066 
C 1.341951 0.77937 1.5 0.397805 1.5 0 
C 1.5 -0.397805 1.341951 -0.77937 1.06066 -1.06066 
C 0.77937 -1.341951 0.397805 -1.5 0 -1.5 
C -0.397805 -1.5 -0.77937 -1.341951 -1.06066 -1.06066 
C -1.341951 -0.77937 -1.5 -0.397805 -1.5 0 
C -1.5 0.397805 -1.341951 0.77937 -1.06066 1.06066 
C -0.77937 1.341951 -0.397805 1.5 0 1.5 
z
" id="m05aefd12f3" style="stroke:#bf00bf;stroke-width:0.5;"/>
    </defs>
    <g clip-path="url(#p8d35668528)">
     <use style="fill:#bf00bf;stroke:#bf00bf;stroke-width:0.5;" x="34.6345347561" xlink:href="#m05aefd12f3" y="216.330137628"/>
     <use style="fill:#bf00bf;stroke:#bf00bf;stroke-width:0.5;" x="41.6840293134" xlink:href="#m05aefd12f3" y="216.330137628"/>
     <use style="fill:#bf00bf;stroke:#bf00bf;stroke-width:0.5;" x="41.6840293134" xlink:href="#m05aefd12f3" y="176.936632325"/>
     <use style="fill:#bf00bf;stroke:#bf00bf;stroke-width:0.5;" x="34.6345347561" xlink:href="#m05aefd12f3" y="176.936632325"/>
     <use style="fill:#bf00bf;stroke:#bf00bf;stroke-width:0.5;" x="34.6345347561" xlink:href="#m05aefd12f3" y="216.330137628"/>
    </g>
   </g>
   <g id="line2d_19">
    <path clip-path="url(#p8d35668528)" d="M 34.634535 188.468469 
L 41.684029 188.468469 
" style="fill:none;stroke:#bf00bf;stroke-linecap:square;stroke-width:2.0;"/>
   </g>
   <g id="line2d_20">
    <path clip-path="url(#p8d35668528)" d="M 79.619091 154.156199 
L 82.086414 133.574084 
L 79.619091 93.748702 
L 86.668585 93.748702 
L 84.201262 133.574084 
L 86.668585 154.156199 
L 79.619091 154.156199 
" style="fill:none;stroke:#bf00bf;stroke-linecap:square;"/>
   </g>
   <g id="line2d_21">
    <path clip-path="url(#p8d35668528)" d="M 79.619091 154.156199 
L 86.668585 154.156199 
L 86.668585 93.748702 
L 79.619091 93.748702 
L 79.619091 154.156199 
" style="fill:none;"/>
    <g clip-path="url(#p8d35668528)">
     <use style="fill:#bf00bf;stroke:#bf00bf;stroke-width:0.5;" x="79.619090634" xlink:href="#m05aefd12f3" y="154.15619901"/>
     <use style="fill:#bf00bf;stroke:#bf00bf;stroke-width:0.5;" x="86.6685851912" xlink:href="#m05aefd12f3" y="154.15619901"/>
     <use style="fill:#bf00bf;stroke:#bf00bf;stroke-width:0.5;" x="86.6685851912" xlink:href="#m05aefd12f3" y="93.7487017908"/>
     <use style="fill:#bf00bf;stroke:#bf00bf;stroke-width:0.5;" x="79.619090634" xlink:href="#m05aefd12f3" y="93.7487017908"/>
     <use style="fill:#bf00bf;stroke:#bf00bf;stroke-width:0.5;" x="79.619090634" xlink:href="#m05aefd12f3" y="154.15619901"/>
    </g>
   </g>
   <g id="line2d_22">
    <path clip-path="url(#p8d35668528)" d="M 79.619091 133.574084 
L 86.668585 133.574084 
" style="fill:none;stroke:#bf00bf;stroke-linecap:square;stroke-width:2.0;"/>
   </g>
   <g id="line2d_23">
    <path clip-path="url(#p8d35668528)" d="M 38.159282 183.577535 
L 83.143838 108.354141 
" style="fill:none;stroke:#bf00bf;stroke-linecap:square;stroke-width:4.0;"/>
   </g>
   <g id="line2d_24">
    <path clip-path="url(#p8d35668528)" d="M 38.159282 183.577535 
L 83.143838 108.354141 
" style="fill:none;"/>
    <defs>
     <path d="M 0 5 
C 1.326016 5 2.597899 4.473168 3.535534 3.535534 
C 4.473168 2.597899 5 1.326016 5 0 
C 5 -1.326016 4.473168 -2.597899 3.535534 -3.535534 
C 2.597899 -4.473168 1.326016 -5 0 -5 
C -1.326016 -5 -2.597899 -4.473168 -3.535534 -3.535534 
C -4.473168 -2.597899 -5 -1.326016 -5 0 
C -5 1.326016 -4.473168 2.597899 -3.535534 3.535534 
C -2.597899 4.473168 -1.326016 5 0 5 
z
" id="m8084a27ef0" style="stroke:#bf00bf;stroke-width:0.5;"/>
    </defs>
    <g clip-path="url(#p8d35668528)">
     <use style="fill:#bf00bf;stroke:#bf00bf;stroke-width:0.5;" x="38.1592820348" xlink:href="#m8084a27ef0" y="183.577535138"/>
     <use style="fill:#bf00bf;stroke:#bf00bf;stroke-width:0.5;" x="83.1438379126" xlink:href="#m8084a27ef0" y="108.354141044"/>
    </g>
   </g>
   <g id="line2d_25">
    <path clip-path="url(#p8d35668528)" d="M 33.753348 232.568223 
L 36.837502 156.525873 
L 33.753348 151.079148 
L 42.565216 151.079148 
L 39.481062 156.525873 
L 42.565216 232.568223 
L 33.753348 232.568223 
" style="fill:none;stroke:#ff0000;stroke-linecap:square;"/>
   </g>
   <g id="line2d_26">
    <path clip-path="url(#p8d35668528)" d="M 33.753348 232.568223 
L 42.565216 232.568223 
L 42.565216 151.079148 
L 33.753348 151.079148 
L 33.753348 232.568223 
" style="fill:none;"/>
    <defs>
     <path d="M 0 3 
C 0.795609 3 1.55874 2.683901 2.12132 2.12132 
C 2.683901 1.55874 3 0.795609 3 0 
C 3 -0.795609 2.683901 -1.55874 2.12132 -2.12132 
C 1.55874 -2.683901 0.795609 -3 0 -3 
C -0.795609 -3 -1.55874 -2.683901 -2.12132 -2.12132 
C -2.683901 -1.55874 -3 -0.795609 -3 0 
C -3 0.795609 -2.683901 1.55874 -2.12132 2.12132 
C -1.55874 2.683901 -0.795609 3 0 3 
z
" id="m834dccba7c" style="stroke:#ff0000;stroke-width:2.0;"/>
    </defs>
    <g clip-path="url(#p8d35668528)">
     <use style="fill:#ff0000;stroke:#ff0000;stroke-width:2.0;" x="33.7533479365" xlink:href="#m834dccba7c" y="232.568223264"/>
     <use style="fill:#ff0000;stroke:#ff0000;stroke-width:2.0;" x="42.565216133" xlink:href="#m834dccba7c" y="232.568223264"/>
     <use style="fill:#ff0000;stroke:#ff0000;stroke-width:2.0;" x="42.565216133" xlink:href="#m834dccba7c" y="151.07914785"/>
     <use style="fill:#ff0000;stroke:#ff0000;stroke-width:2.0;" x="33.7533479365" xlink:href="#m834dccba7c" y="151.07914785"/>
     <use style="fill:#ff0000;stroke:#ff0000;stroke-width:2.0;" x="33.7533479365" xlink:href="#m834dccba7c" y="232.568223264"/>
    </g>
   </g>
   <g id="line2d_27">
    <path clip-path="url(#p8d35668528)" d="M 33.753348 156.525873 
L 42.565216 156.525873 
" style="fill:none;stroke:#ff0000;stroke-linecap:square;stroke-width:2.0;"/>
   </g>
   <g id="line2d_28">
    <path clip-path="url(#p8d35668528)" d="M 78.737904 115.180701 
L 81.822058 102.501702 
L 78.737904 77.08445 
L 87.549772 77.08445 
L 84.465618 102.501702 
L 87.549772 115.180701 
L 78.737904 115.180701 
" style="fill:none;stroke:#ff0000;stroke-linecap:square;"/>
   </g>
   <g id="line2d_29">
    <path clip-path="url(#p8d35668528)" d="M 78.737904 115.180701 
L 87.549772 115.180701 
L 87.549772 77.08445 
L 78.737904 77.08445 
L 78.737904 115.180701 
" style="fill:none;"/>
    <g clip-path="url(#p8d35668528)">
     <use style="fill:#ff0000;stroke:#ff0000;stroke-width:2.0;" x="78.7379038143" xlink:href="#m834dccba7c" y="115.180700896"/>
     <use style="fill:#ff0000;stroke:#ff0000;stroke-width:2.0;" x="87.5497720109" xlink:href="#m834dccba7c" y="115.180700896"/>
     <use style="fill:#ff0000;stroke:#ff0000;stroke-width:2.0;" x="87.5497720109" xlink:href="#m834dccba7c" y="77.0844500099"/>
     <use style="fill:#ff0000;stroke:#ff0000;stroke-width:2.0;" x="78.7379038143" xlink:href="#m834dccba7c" y="77.0844500099"/>
     <use style="fill:#ff0000;stroke:#ff0000;stroke-width:2.0;" x="78.7379038143" xlink:href="#m834dccba7c" y="115.180700896"/>
    </g>
   </g>
   <g id="line2d_30">
    <path clip-path="url(#p8d35668528)" d="M 78.737904 102.501702 
L 87.549772 102.501702 
" style="fill:none;stroke:#ff0000;stroke-linecap:square;stroke-width:2.0;"/>
   </g>
   <g id="line2d_31">
    <path clip-path="url(#p8d35668528)" d="M 38.159282 171.704231 
L 83.143838 87.056804 
" style="fill:none;stroke:#ff0000;stroke-linecap:square;stroke-width:4.0;"/>
   </g>
   <g id="line2d_32">
    <path clip-path="url(#p8d35668528)" d="M 38.159282 171.704231 
L 83.143838 87.056804 
" style="fill:none;"/>
    <defs>
     <path d="M 0 10 
C 2.652031 10 5.195799 8.946337 7.071068 7.071068 
C 8.946337 5.195799 10 2.652031 10 0 
C 10 -2.652031 8.946337 -5.195799 7.071068 -7.071068 
C 5.195799 -8.946337 2.652031 -10 0 -10 
C -2.652031 -10 -5.195799 -8.946337 -7.071068 -7.071068 
C -8.946337 -5.195799 -10 -2.652031 -10 0 
C -10 2.652031 -8.946337 5.195799 -7.071068 7.071068 
C -5.195799 8.946337 -2.652031 10 0 10 
z
" id="mb12f444707" style="stroke:#000000;stroke-width:2.0;"/>
    </defs>
    <g clip-path="url(#p8d35668528)">
     <use style="fill:#ff0000;stroke:#000000;stroke-width:2.0;" x="38.1592820348" xlink:href="#mb12f444707" y="171.704231264"/>
     <use style="fill:#ff0000;stroke:#000000;stroke-width:2.0;" x="83.1438379126" xlink:href="#mb12f444707" y="87.0568037323"/>
    </g>
   </g>
   <g id="line2d_33">
    <path clip-path="url(#p8d35668528)" d="M 32.872161 156.291536 
L 36.573146 114.822818 
L 32.872161 82.428686 
L 43.446403 82.428686 
L 39.745418 114.822818 
L 43.446403 156.291536 
L 32.872161 156.291536 
" style="fill:none;stroke:#008000;stroke-linecap:square;"/>
   </g>
   <g id="line2d_34">
    <path clip-path="url(#p8d35668528)" d="M 32.872161 156.291536 
L 43.446403 156.291536 
L 43.446403 82.428686 
L 32.872161 82.428686 
L 32.872161 156.291536 
" style="fill:none;"/>
    <defs>
     <path d="M 0 1.5 
C 0.397805 1.5 0.77937 1.341951 1.06066 1.06066 
C 1.341951 0.77937 1.5 0.397805 1.5 0 
C 1.5 -0.397805 1.341951 -0.77937 1.06066 -1.06066 
C 0.77937 -1.341951 0.397805 -1.5 0 -1.5 
C -0.397805 -1.5 -0.77937 -1.341951 -1.06066 -1.06066 
C -1.341951 -0.77937 -1.5 -0.397805 -1.5 0 
C -1.5 0.397805 -1.341951 0.77937 -1.06066 1.06066 
C -0.77937 1.341951 -0.397805 1.5 0 1.5 
z
" id="madb693222d" style="stroke:#008000;stroke-width:0.5;"/>
    </defs>
    <g clip-path="url(#p8d35668528)">
     <use style="fill:#008000;stroke:#008000;stroke-width:0.5;" x="32.8721611168" xlink:href="#madb693222d" y="156.291535622"/>
     <use style="fill:#008000;stroke:#008000;stroke-width:0.5;" x="43.4464029527" xlink:href="#madb693222d" y="156.291535622"/>
     <use style="fill:#008000;stroke:#008000;stroke-width:0.5;" x="43.4464029527" xlink:href="#madb693222d" y="82.428685744"/>
     <use style="fill:#008000;stroke:#008000;stroke-width:0.5;" x="32.8721611168" xlink:href="#madb693222d" y="82.428685744"/>
     <use style="fill:#008000;stroke:#008000;stroke-width:0.5;" x="32.8721611168" xlink:href="#madb693222d" y="156.291535622"/>
    </g>
   </g>
   <g id="line2d_35">
    <path clip-path="url(#p8d35668528)" d="M 32.872161 114.822818 
L 43.446403 114.822818 
" style="fill:none;stroke:#008000;stroke-linecap:square;stroke-width:2.0;"/>
   </g>
   <g id="line2d_36">
    <path clip-path="url(#p8d35668528)" d="M 77.856717 154.156199 
L 81.557702 93.748702 
L 77.856717 81.637996 
L 88.430959 81.637996 
L 84.729974 93.748702 
L 88.430959 154.156199 
L 77.856717 154.156199 
" style="fill:none;stroke:#008000;stroke-linecap:square;"/>
   </g>
   <g id="line2d_37">
    <path clip-path="url(#p8d35668528)" d="M 77.856717 154.156199 
L 88.430959 154.156199 
L 88.430959 81.637996 
L 77.856717 81.637996 
L 77.856717 154.156199 
" style="fill:none;"/>
    <g clip-path="url(#p8d35668528)">
     <use style="fill:#008000;stroke:#008000;stroke-width:0.5;" x="77.8567169947" xlink:href="#madb693222d" y="154.15619901"/>
     <use style="fill:#008000;stroke:#008000;stroke-width:0.5;" x="88.4309588305" xlink:href="#madb693222d" y="154.15619901"/>
     <use style="fill:#008000;stroke:#008000;stroke-width:0.5;" x="88.4309588305" xlink:href="#madb693222d" y="81.637996418"/>
     <use style="fill:#008000;stroke:#008000;stroke-width:0.5;" x="77.8567169947" xlink:href="#madb693222d" y="81.637996418"/>
     <use style="fill:#008000;stroke:#008000;stroke-width:0.5;" x="77.8567169947" xlink:href="#madb693222d" y="154.15619901"/>
    </g>
   </g>
   <g id="line2d_38">
    <path clip-path="url(#p8d35668528)" d="M 77.856717 93.748702 
L 88.430959 93.748702 
" style="fill:none;stroke:#008000;stroke-linecap:square;stroke-width:2.0;"/>
   </g>
   <g id="line2d_39">
    <path clip-path="url(#p8d35668528)" d="M 38.159282 108.079106 
L 83.143838 87.056804 
" style="fill:none;stroke:#008000;stroke-linecap:square;stroke-width:4.0;"/>
   </g>
   <g id="line2d_40">
    <path clip-path="url(#p8d35668528)" d="M 38.159282 108.079106 
L 83.143838 87.056804 
" style="fill:none;"/>
    <defs>
     <path d="M 0 5 
C 1.326016 5 2.597899 4.473168 3.535534 3.535534 
C 4.473168 2.597899 5 1.326016 5 0 
C 5 -1.326016 4.473168 -2.597899 3.535534 -3.535534 
C 2.597899 -4.473168 1.326016 -5 0 -5 
C -1.326016 -5 -2.597899 -4.473168 -3.535534 -3.535534 
C -4.473168 -2.597899 -5 -1.326016 -5 0 
C -5 1.326016 -4.473168 2.597899 -3.535534 3.535534 
C -2.597899 4.473168 -1.326016 5 0 5 
z
" id="m88674e25d9" style="stroke:#008000;stroke-width:0.5;"/>
    </defs>
    <g clip-path="url(#p8d35668528)">
     <use style="fill:#008000;stroke:#008000;stroke-width:0.5;" x="38.1592820348" xlink:href="#m88674e25d9" y="108.079105675"/>
     <use style="fill:#008000;stroke:#008000;stroke-width:0.5;" x="83.1438379126" xlink:href="#m88674e25d9" y="87.0568037323"/>
    </g>
   </g>
   <g id="line2d_41"/>
   <g id="line2d_42"/>
   <g id="line2d_43"/>
   <g id="line2d_44"/>
   <g id="line2d_45"/>
   <g id="line2d_46">
    <defs>
     <path d="M -10 10 
L 10 -10 
M -10 -10 
L 10 10 
" id="m1b997b11b7" style="stroke:#bfbf00;stroke-width:0.5;"/>
    </defs>
    <g clip-path="url(#p8d35668528)">
     <use style="fill:#bfbf00;stroke:#bfbf00;stroke-width:0.5;" x="38.1592820348" xlink:href="#m1b997b11b7" y="162.093407832"/>
     <use style="fill:#bfbf00;stroke:#bfbf00;stroke-width:0.5;" x="83.1438379126" xlink:href="#m1b997b11b7" y="163.260467114"/>
     <use style="fill:#bfbf00;stroke:#bfbf00;stroke-width:0.5;" x="139.817675825" xlink:href="#m1b997b11b7" y="157.458594903"/>
     <use style="fill:#bfbf00;stroke:#bfbf00;stroke-width:0.5;" x="216.719282035" xlink:href="#m1b997b11b7" y="169.050429729"/>
     <use style="fill:#bfbf00;stroke:#bfbf00;stroke-width:0.5;" x="293.620888244" xlink:href="#m1b997b11b7" y="177.274967426"/>
     <use style="fill:#bfbf00;stroke:#bfbf00;stroke-width:0.5;" x="370.522494454" xlink:href="#m1b997b11b7" y="179.762534148"/>
    </g>
   </g>
   <g id="line2d_47">
    <path clip-path="url(#p8d35668528)" d="M -1 181.90978 
L 393.992494 181.90978 
" style="fill:none;stroke:#000000;stroke-dasharray:1.000000,3.000000;stroke-dashoffset:0.0;stroke-width:0.2;"/>
   </g>
   <g id="line2d_48">
    <path clip-path="url(#p8d35668528)" d="M -1 181.90978 
L 393.992494 181.90978 
" style="fill:none;stroke:#bfbf00;stroke-linecap:square;stroke-width:0.2;"/>
   </g>
   <g id="line2d_49">
    <path clip-path="url(#p8d35668528)" d="M -1 227.921972 
L 393.992494 227.921972 
" style="fill:none;stroke:#000000;stroke-dasharray:1.000000,3.000000;stroke-dashoffset:0.0;stroke-width:0.2;"/>
   </g>
   <g id="line2d_50">
    <path clip-path="url(#p8d35668528)" d="M -1 262.34233 
L 393.992494 262.34233 
" style="fill:none;stroke:#000000;stroke-dasharray:1.000000,3.000000;stroke-dashoffset:0.0;stroke-width:0.2;"/>
   </g>
   <g id="line2d_51">
    <path clip-path="url(#p8d35668528)" d="M -1 262.34233 
L 393.992494 262.34233 
" style="fill:none;stroke:#ff0000;stroke-linecap:square;stroke-width:0.2;"/>
   </g>
   <g id="line2d_52">
    <path clip-path="url(#p8d35668528)" d="M -1 288.538149 
L 393.992494 288.538149 
" style="fill:none;stroke:#000000;stroke-dasharray:1.000000,3.000000;stroke-dashoffset:0.0;stroke-width:0.2;"/>
   </g>
   <g id="line2d_53">
    <path clip-path="url(#p8d35668528)" d="M -1 313.56691 
L 393.992494 313.56691 
" style="fill:none;stroke:#000000;stroke-dasharray:1.000000,3.000000;stroke-dashoffset:0.0;stroke-width:0.2;"/>
   </g>
   <g id="line2d_54">
    <path clip-path="url(#p8d35668528)" d="M -1 313.56691 
L 393.992494 313.56691 
" style="fill:none;stroke:#00bfbf;stroke-linecap:square;stroke-width:0.2;"/>
   </g>
   <g id="line2d_55">
    <path clip-path="url(#p8d35668528)" d="M 105.044693 342.34375 
L 393.992494 267.886303 
" style="fill:none;stroke:#000000;stroke-dasharray:1.000000,3.000000;stroke-dashoffset:0.0;stroke-width:0.5;"/>
   </g>
   <g id="line2d_56">
    <path clip-path="url(#p8d35668528)" d="M -1 303.841288 
L 393.992494 202.057738 
" style="fill:none;stroke:#000000;stroke-dasharray:1.000000,3.000000;stroke-dashoffset:0.0;stroke-width:0.5;"/>
   </g>
   <g id="line2d_57">
    <path clip-path="url(#p8d35668528)" d="M -1 238.012723 
L 393.992494 136.229174 
" style="fill:none;stroke:#000000;stroke-dasharray:1.000000,3.000000;stroke-dashoffset:0.0;stroke-width:0.5;"/>
   </g>
   <g id="line2d_58">
    <path clip-path="url(#p8d35668528)" d="M -1 172.184158 
L 393.992494 70.400609 
" style="fill:none;stroke:#000000;stroke-dasharray:1.000000,3.000000;stroke-dashoffset:0.0;stroke-width:0.5;"/>
   </g>
   <g id="line2d_59">
    <path clip-path="url(#p8d35668528)" d="M -1 106.355594 
L 393.992494 4.572045 
" style="fill:none;stroke:#000000;stroke-dasharray:1.000000,3.000000;stroke-dashoffset:0.0;stroke-width:0.5;"/>
   </g>
   <g id="line2d_60">
    <path clip-path="url(#p8d35668528)" d="M -1 40.527029 
L 160.15438 -1 
" style="fill:none;stroke:#000000;stroke-dasharray:1.000000,3.000000;stroke-dashoffset:0.0;stroke-width:0.5;"/>
   </g>
   <g id="line2d_61">
    <path clip-path="url(#p8d35668528)" style="fill:none;stroke:#000000;stroke-dasharray:1.000000,3.000000;stroke-dashoffset:0.0;stroke-width:0.5;"/>
   </g>
   <g id="line2d_62">
    <path clip-path="url(#p8d35668528)" style="fill:none;stroke:#000000;stroke-dasharray:1.000000,3.000000;stroke-dashoffset:0.0;stroke-width:0.5;"/>
   </g>
   <g id="line2d_63">
    <path clip-path="url(#p8d35668528)" style="fill:none;stroke:#000000;stroke-dasharray:1.000000,3.000000;stroke-dashoffset:0.0;stroke-width:0.5;"/>
   </g>
   <g id="patch_3">
    <path d="M 26.47 30.43625 
L 383.59 30.43625 
" style="fill:none;stroke:#000000;stroke-linecap:square;stroke-linejoin:miter;"/>
   </g>
   <g id="patch_4">
    <path d="M 383.59 306.91625 
L 383.59 30.43625 
" style="fill:none;stroke:#000000;stroke-linecap:square;stroke-linejoin:miter;"/>
   </g>
   <g id="patch_5">
    <path d="M 26.47 306.91625 
L 383.59 306.91625 
" style="fill:none;stroke:#000000;stroke-linecap:square;stroke-linejoin:miter;"/>
   </g>
   <g id="patch_6">
    <path d="M 26.47 306.91625 
L 26.47 30.43625 
" style="fill:none;stroke:#000000;stroke-linecap:square;stroke-linejoin:miter;"/>
   </g>
   <g id="matplotlib.axis_1">
    <g id="xtick_1">
     <g id="line2d_64">
      <defs>
       <path d="M 0 0 
L 0 -4 
" id="m188e047bce" style="stroke:#000000;stroke-width:0.5;"/>
      </defs>
      <g>
       <use style="stroke:#000000;stroke-width:0.5;" x="38.1592820348" xlink:href="#m188e047bce" y="306.91625"/>
      </g>
     </g>
     <g id="line2d_65">
      <defs>
       <path d="M 0 0 
L 0 4 
" id="m79fddbf0e0" style="stroke:#000000;stroke-width:0.5;"/>
      </defs>
      <g>
       <use style="stroke:#000000;stroke-width:0.5;" x="38.1592820348" xlink:href="#m79fddbf0e0" y="30.43625"/>
      </g>
     </g>
     <g id="text_1">
      <!-- 2 -->
      <defs>
       <path d="M 19.1875 8.296875 
L 53.609375 8.296875 
L 53.609375 0 
L 7.328125 0 
L 7.328125 8.296875 
Q 12.9375 14.109375 22.625 23.890625 
Q 32.328125 33.6875 34.8125 36.53125 
Q 39.546875 41.84375 41.421875 45.53125 
Q 43.3125 49.21875 43.3125 52.78125 
Q 43.3125 58.59375 39.234375 62.25 
Q 35.15625 65.921875 28.609375 65.921875 
Q 23.96875 65.921875 18.8125 64.3125 
Q 13.671875 62.703125 7.8125 59.421875 
L 7.8125 69.390625 
Q 13.765625 71.78125 18.9375 73 
Q 24.125 74.21875 28.421875 74.21875 
Q 39.75 74.21875 46.484375 68.546875 
Q 53.21875 62.890625 53.21875 53.421875 
Q 53.21875 48.921875 51.53125 44.890625 
Q 49.859375 40.875 45.40625 35.40625 
Q 44.1875 33.984375 37.640625 27.21875 
Q 31.109375 20.453125 19.1875 8.296875 
" id="BitstreamVeraSans-Roman-32"/>
      </defs>
      <g transform="translate(30.5242820348 329.1525)scale(0.24 -0.24)">
       <use xlink:href="#BitstreamVeraSans-Roman-32"/>
      </g>
     </g>
    </g>
    <g id="xtick_2">
     <g id="line2d_66">
      <g>
       <use style="stroke:#000000;stroke-width:0.5;" x="83.1438379126" xlink:href="#m188e047bce" y="306.91625"/>
      </g>
     </g>
     <g id="line2d_67">
      <g>
       <use style="stroke:#000000;stroke-width:0.5;" x="83.1438379126" xlink:href="#m79fddbf0e0" y="30.43625"/>
      </g>
     </g>
     <g id="text_2">
      <!-- 3 -->
      <defs>
       <path d="M 40.578125 39.3125 
Q 47.65625 37.796875 51.625 33 
Q 55.609375 28.21875 55.609375 21.1875 
Q 55.609375 10.40625 48.1875 4.484375 
Q 40.765625 -1.421875 27.09375 -1.421875 
Q 22.515625 -1.421875 17.65625 -0.515625 
Q 12.796875 0.390625 7.625 2.203125 
L 7.625 11.71875 
Q 11.71875 9.328125 16.59375 8.109375 
Q 21.484375 6.890625 26.8125 6.890625 
Q 36.078125 6.890625 40.9375 10.546875 
Q 45.796875 14.203125 45.796875 21.1875 
Q 45.796875 27.640625 41.28125 31.265625 
Q 36.765625 34.90625 28.71875 34.90625 
L 20.21875 34.90625 
L 20.21875 43.015625 
L 29.109375 43.015625 
Q 36.375 43.015625 40.234375 45.921875 
Q 44.09375 48.828125 44.09375 54.296875 
Q 44.09375 59.90625 40.109375 62.90625 
Q 36.140625 65.921875 28.71875 65.921875 
Q 24.65625 65.921875 20.015625 65.03125 
Q 15.375 64.15625 9.8125 62.3125 
L 9.8125 71.09375 
Q 15.4375 72.65625 20.34375 73.4375 
Q 25.25 74.21875 29.59375 74.21875 
Q 40.828125 74.21875 47.359375 69.109375 
Q 53.90625 64.015625 53.90625 55.328125 
Q 53.90625 49.265625 50.4375 45.09375 
Q 46.96875 40.921875 40.578125 39.3125 
" id="BitstreamVeraSans-Roman-33"/>
      </defs>
      <g transform="translate(75.5088379126 329.1525)scale(0.24 -0.24)">
       <use xlink:href="#BitstreamVeraSans-Roman-33"/>
      </g>
     </g>
    </g>
    <g id="xtick_3">
     <g id="line2d_68">
      <g>
       <use style="stroke:#000000;stroke-width:0.5;" x="139.817675825" xlink:href="#m188e047bce" y="306.91625"/>
      </g>
     </g>
     <g id="line2d_69">
      <g>
       <use style="stroke:#000000;stroke-width:0.5;" x="139.817675825" xlink:href="#m79fddbf0e0" y="30.43625"/>
      </g>
     </g>
     <g id="text_3">
      <!-- 5 -->
      <defs>
       <path d="M 10.796875 72.90625 
L 49.515625 72.90625 
L 49.515625 64.59375 
L 19.828125 64.59375 
L 19.828125 46.734375 
Q 21.96875 47.46875 24.109375 47.828125 
Q 26.265625 48.1875 28.421875 48.1875 
Q 40.625 48.1875 47.75 41.5 
Q 54.890625 34.8125 54.890625 23.390625 
Q 54.890625 11.625 47.5625 5.09375 
Q 40.234375 -1.421875 26.90625 -1.421875 
Q 22.3125 -1.421875 17.546875 -0.640625 
Q 12.796875 0.140625 7.71875 1.703125 
L 7.71875 11.625 
Q 12.109375 9.234375 16.796875 8.0625 
Q 21.484375 6.890625 26.703125 6.890625 
Q 35.15625 6.890625 40.078125 11.328125 
Q 45.015625 15.765625 45.015625 23.390625 
Q 45.015625 31 40.078125 35.4375 
Q 35.15625 39.890625 26.703125 39.890625 
Q 22.75 39.890625 18.8125 39.015625 
Q 14.890625 38.140625 10.796875 36.28125 
z
" id="BitstreamVeraSans-Roman-35"/>
      </defs>
      <g transform="translate(132.182675825 329.1525)scale(0.24 -0.24)">
       <use xlink:href="#BitstreamVeraSans-Roman-35"/>
      </g>
     </g>
    </g>
    <g id="xtick_4">
     <g id="line2d_70">
      <g>
       <use style="stroke:#000000;stroke-width:0.5;" x="216.719282035" xlink:href="#m188e047bce" y="306.91625"/>
      </g>
     </g>
     <g id="line2d_71">
      <g>
       <use style="stroke:#000000;stroke-width:0.5;" x="216.719282035" xlink:href="#m79fddbf0e0" y="30.43625"/>
      </g>
     </g>
     <g id="text_4">
      <!-- 10 -->
      <defs>
       <path d="M 31.78125 66.40625 
Q 24.171875 66.40625 20.328125 58.90625 
Q 16.5 51.421875 16.5 36.375 
Q 16.5 21.390625 20.328125 13.890625 
Q 24.171875 6.390625 31.78125 6.390625 
Q 39.453125 6.390625 43.28125 13.890625 
Q 47.125 21.390625 47.125 36.375 
Q 47.125 51.421875 43.28125 58.90625 
Q 39.453125 66.40625 31.78125 66.40625 
M 31.78125 74.21875 
Q 44.046875 74.21875 50.515625 64.515625 
Q 56.984375 54.828125 56.984375 36.375 
Q 56.984375 17.96875 50.515625 8.265625 
Q 44.046875 -1.421875 31.78125 -1.421875 
Q 19.53125 -1.421875 13.0625 8.265625 
Q 6.59375 17.96875 6.59375 36.375 
Q 6.59375 54.828125 13.0625 64.515625 
Q 19.53125 74.21875 31.78125 74.21875 
" id="BitstreamVeraSans-Roman-30"/>
       <path d="M 12.40625 8.296875 
L 28.515625 8.296875 
L 28.515625 63.921875 
L 10.984375 60.40625 
L 10.984375 69.390625 
L 28.421875 72.90625 
L 38.28125 72.90625 
L 38.28125 8.296875 
L 54.390625 8.296875 
L 54.390625 0 
L 12.40625 0 
z
" id="BitstreamVeraSans-Roman-31"/>
      </defs>
      <g transform="translate(201.449282035 329.1525)scale(0.24 -0.24)">
       <use xlink:href="#BitstreamVeraSans-Roman-31"/>
       <use x="63.623046875" xlink:href="#BitstreamVeraSans-Roman-30"/>
      </g>
     </g>
    </g>
    <g id="xtick_5">
     <g id="line2d_72">
      <g>
       <use style="stroke:#000000;stroke-width:0.5;" x="293.620888244" xlink:href="#m188e047bce" y="306.91625"/>
      </g>
     </g>
     <g id="line2d_73">
      <g>
       <use style="stroke:#000000;stroke-width:0.5;" x="293.620888244" xlink:href="#m79fddbf0e0" y="30.43625"/>
      </g>
     </g>
     <g id="text_5">
      <!-- 20 -->
      <g transform="translate(278.350888244 329.1525)scale(0.24 -0.24)">
       <use xlink:href="#BitstreamVeraSans-Roman-32"/>
       <use x="63.623046875" xlink:href="#BitstreamVeraSans-Roman-30"/>
      </g>
     </g>
    </g>
    <g id="xtick_6">
     <g id="line2d_74">
      <g>
       <use style="stroke:#000000;stroke-width:0.5;" x="370.522494454" xlink:href="#m188e047bce" y="306.91625"/>
      </g>
     </g>
     <g id="line2d_75">
      <g>
       <use style="stroke:#000000;stroke-width:0.5;" x="370.522494454" xlink:href="#m79fddbf0e0" y="30.43625"/>
      </g>
     </g>
     <g id="text_6">
      <!-- 40 -->
      <defs>
       <path d="M 37.796875 64.3125 
L 12.890625 25.390625 
L 37.796875 25.390625 
z
M 35.203125 72.90625 
L 47.609375 72.90625 
L 47.609375 25.390625 
L 58.015625 25.390625 
L 58.015625 17.1875 
L 47.609375 17.1875 
L 47.609375 0 
L 37.796875 0 
L 37.796875 17.1875 
L 4.890625 17.1875 
L 4.890625 26.703125 
z
" id="BitstreamVeraSans-Roman-34"/>
      </defs>
      <g transform="translate(355.252494454 329.1525)scale(0.24 -0.24)">
       <use xlink:href="#BitstreamVeraSans-Roman-34"/>
       <use x="63.623046875" xlink:href="#BitstreamVeraSans-Roman-30"/>
      </g>
     </g>
    </g>
    <g id="xtick_7">
     <g id="line2d_76">
      <defs>
       <path d="M 0 0 
L 0 -2 
" id="m1d4890f717" style="stroke:#000000;stroke-width:0.5;"/>
      </defs>
      <g>
       <use style="stroke:#000000;stroke-width:0.5;" x="38.1592820348" xlink:href="#m1d4890f717" y="306.91625"/>
      </g>
     </g>
     <g id="line2d_77">
      <defs>
       <path d="M 0 0 
L 0 2 
" id="mb4ec745aae" style="stroke:#000000;stroke-width:0.5;"/>
      </defs>
      <g>
       <use style="stroke:#000000;stroke-width:0.5;" x="38.1592820348" xlink:href="#mb4ec745aae" y="30.43625"/>
      </g>
     </g>
    </g>
    <g id="xtick_8">
     <g id="line2d_78">
      <g>
       <use style="stroke:#000000;stroke-width:0.5;" x="83.1438379126" xlink:href="#m1d4890f717" y="306.91625"/>
      </g>
     </g>
     <g id="line2d_79">
      <g>
       <use style="stroke:#000000;stroke-width:0.5;" x="83.1438379126" xlink:href="#mb4ec745aae" y="30.43625"/>
      </g>
     </g>
    </g>
    <g id="xtick_9">
     <g id="line2d_80">
      <g>
       <use style="stroke:#000000;stroke-width:0.5;" x="115.060888244" xlink:href="#m1d4890f717" y="306.91625"/>
      </g>
     </g>
     <g id="line2d_81">
      <g>
       <use style="stroke:#000000;stroke-width:0.5;" x="115.060888244" xlink:href="#mb4ec745aae" y="30.43625"/>
      </g>
     </g>
    </g>
    <g id="xtick_10">
     <g id="line2d_82">
      <g>
       <use style="stroke:#000000;stroke-width:0.5;" x="139.817675825" xlink:href="#m1d4890f717" y="306.91625"/>
      </g>
     </g>
     <g id="line2d_83">
      <g>
       <use style="stroke:#000000;stroke-width:0.5;" x="139.817675825" xlink:href="#mb4ec745aae" y="30.43625"/>
      </g>
     </g>
    </g>
    <g id="xtick_11">
     <g id="line2d_84">
      <g>
       <use style="stroke:#000000;stroke-width:0.5;" x="160.045444122" xlink:href="#m1d4890f717" y="306.91625"/>
      </g>
     </g>
     <g id="line2d_85">
      <g>
       <use style="stroke:#000000;stroke-width:0.5;" x="160.045444122" xlink:href="#mb4ec745aae" y="30.43625"/>
      </g>
     </g>
    </g>
    <g id="xtick_12">
     <g id="line2d_86">
      <g>
       <use style="stroke:#000000;stroke-width:0.5;" x="177.147778532" xlink:href="#m1d4890f717" y="306.91625"/>
      </g>
     </g>
     <g id="line2d_87">
      <g>
       <use style="stroke:#000000;stroke-width:0.5;" x="177.147778532" xlink:href="#mb4ec745aae" y="30.43625"/>
      </g>
     </g>
    </g>
    <g id="xtick_13">
     <g id="line2d_88">
      <g>
       <use style="stroke:#000000;stroke-width:0.5;" x="191.962494454" xlink:href="#m1d4890f717" y="306.91625"/>
      </g>
     </g>
     <g id="line2d_89">
      <g>
       <use style="stroke:#000000;stroke-width:0.5;" x="191.962494454" xlink:href="#mb4ec745aae" y="30.43625"/>
      </g>
     </g>
    </g>
    <g id="xtick_14">
     <g id="line2d_90">
      <g>
       <use style="stroke:#000000;stroke-width:0.5;" x="205.03" xlink:href="#m1d4890f717" y="306.91625"/>
      </g>
     </g>
     <g id="line2d_91">
      <g>
       <use style="stroke:#000000;stroke-width:0.5;" x="205.03" xlink:href="#mb4ec745aae" y="30.43625"/>
      </g>
     </g>
    </g>
    <g id="xtick_15">
     <g id="line2d_92">
      <g>
       <use style="stroke:#000000;stroke-width:0.5;" x="293.620888244" xlink:href="#m1d4890f717" y="306.91625"/>
      </g>
     </g>
     <g id="line2d_93">
      <g>
       <use style="stroke:#000000;stroke-width:0.5;" x="293.620888244" xlink:href="#mb4ec745aae" y="30.43625"/>
      </g>
     </g>
    </g>
    <g id="xtick_16">
     <g id="line2d_94">
      <g>
       <use style="stroke:#000000;stroke-width:0.5;" x="338.605444122" xlink:href="#m1d4890f717" y="306.91625"/>
      </g>
     </g>
     <g id="line2d_95">
      <g>
       <use style="stroke:#000000;stroke-width:0.5;" x="338.605444122" xlink:href="#mb4ec745aae" y="30.43625"/>
      </g>
     </g>
    </g>
    <g id="xtick_17">
     <g id="line2d_96">
      <g>
       <use style="stroke:#000000;stroke-width:0.5;" x="370.522494454" xlink:href="#m1d4890f717" y="306.91625"/>
      </g>
     </g>
     <g id="line2d_97">
      <g>
       <use style="stroke:#000000;stroke-width:0.5;" x="370.522494454" xlink:href="#mb4ec745aae" y="30.43625"/>
      </g>
     </g>
    </g>
   </g>
   <g id="matplotlib.axis_2">
    <g id="ytick_1">
     <g id="line2d_98">
      <defs>
       <path d="M 0 0 
L 4 0 
" id="mc0c485a37b" style="stroke:#000000;stroke-width:0.5;"/>
      </defs>
      <g>
       <use style="stroke:#000000;stroke-width:0.5;" x="26.47" xlink:href="#mc0c485a37b" y="293.750537076"/>
      </g>
     </g>
     <g id="line2d_99">
      <defs>
       <path d="M 0 0 
L -4 0 
" id="m9c512e61d7" style="stroke:#000000;stroke-width:0.5;"/>
      </defs>
      <g>
       <use style="stroke:#000000;stroke-width:0.5;" x="383.59" xlink:href="#m9c512e61d7" y="293.750537076"/>
      </g>
     </g>
     <g id="text_7">
      <!-- 0 -->
      <g transform="translate(7.2 300.373037076)scale(0.24 -0.24)">
       <use xlink:href="#BitstreamVeraSans-Roman-30"/>
      </g>
     </g>
    </g>
    <g id="ytick_2">
     <g id="line2d_100">
      <g>
       <use style="stroke:#000000;stroke-width:0.5;" x="26.47" xlink:href="#mc0c485a37b" y="227.921972454"/>
      </g>
     </g>
     <g id="line2d_101">
      <g>
       <use style="stroke:#000000;stroke-width:0.5;" x="383.59" xlink:href="#m9c512e61d7" y="227.921972454"/>
      </g>
     </g>
     <g id="text_8">
      <!-- 1 -->
      <g transform="translate(7.2 234.544472454)scale(0.24 -0.24)">
       <use xlink:href="#BitstreamVeraSans-Roman-31"/>
      </g>
     </g>
    </g>
    <g id="ytick_3">
     <g id="line2d_102">
      <g>
       <use style="stroke:#000000;stroke-width:0.5;" x="26.47" xlink:href="#mc0c485a37b" y="162.093407832"/>
      </g>
     </g>
     <g id="line2d_103">
      <g>
       <use style="stroke:#000000;stroke-width:0.5;" x="383.59" xlink:href="#m9c512e61d7" y="162.093407832"/>
      </g>
     </g>
     <g id="text_9">
      <!-- 2 -->
      <g transform="translate(7.2 168.715907832)scale(0.24 -0.24)">
       <use xlink:href="#BitstreamVeraSans-Roman-32"/>
      </g>
     </g>
    </g>
    <g id="ytick_4">
     <g id="line2d_104">
      <g>
       <use style="stroke:#000000;stroke-width:0.5;" x="26.47" xlink:href="#mc0c485a37b" y="96.2648432106"/>
      </g>
     </g>
     <g id="line2d_105">
      <g>
       <use style="stroke:#000000;stroke-width:0.5;" x="383.59" xlink:href="#m9c512e61d7" y="96.2648432106"/>
      </g>
     </g>
     <g id="text_10">
      <!-- 3 -->
      <g transform="translate(7.2 102.887343211)scale(0.24 -0.24)">
       <use xlink:href="#BitstreamVeraSans-Roman-33"/>
      </g>
     </g>
    </g>
    <g id="ytick_5">
     <g id="line2d_106">
      <g>
       <use style="stroke:#000000;stroke-width:0.5;" x="26.47" xlink:href="#mc0c485a37b" y="30.436278589"/>
      </g>
     </g>
     <g id="line2d_107">
      <g>
       <use style="stroke:#000000;stroke-width:0.5;" x="383.59" xlink:href="#m9c512e61d7" y="30.436278589"/>
      </g>
     </g>
     <g id="text_11">
      <!-- 4 -->
      <g transform="translate(7.2 37.058778589)scale(0.24 -0.24)">
       <use xlink:href="#BitstreamVeraSans-Roman-34"/>
      </g>
     </g>
    </g>
    <g id="ytick_6">
     <g id="line2d_108">
      <defs>
       <path d="M 0 0 
L 2 0 
" id="maf21dcb316" style="stroke:#000000;stroke-width:0.5;"/>
      </defs>
      <g>
       <use style="stroke:#000000;stroke-width:0.5;" x="26.47" xlink:href="#maf21dcb316" y="303.947510759"/>
      </g>
     </g>
     <g id="line2d_109">
      <defs>
       <path d="M 0 0 
L -2 0 
" id="m036961d6dc" style="stroke:#000000;stroke-width:0.5;"/>
      </defs>
      <g>
       <use style="stroke:#000000;stroke-width:0.5;" x="383.59" xlink:href="#m036961d6dc" y="303.947510759"/>
      </g>
     </g>
    </g>
    <g id="ytick_7">
     <g id="line2d_110">
      <g>
       <use style="stroke:#000000;stroke-width:0.5;" x="26.47" xlink:href="#maf21dcb316" y="300.129984129"/>
      </g>
     </g>
     <g id="line2d_111">
      <g>
       <use style="stroke:#000000;stroke-width:0.5;" x="383.59" xlink:href="#m036961d6dc" y="300.129984129"/>
      </g>
     </g>
    </g>
    <g id="ytick_8">
     <g id="line2d_112">
      <g>
       <use style="stroke:#000000;stroke-width:0.5;" x="26.47" xlink:href="#maf21dcb316" y="296.762687"/>
      </g>
     </g>
     <g id="line2d_113">
      <g>
       <use style="stroke:#000000;stroke-width:0.5;" x="383.59" xlink:href="#m036961d6dc" y="296.762687"/>
      </g>
     </g>
    </g>
    <g id="ytick_9">
     <g id="line2d_114">
      <g>
       <use style="stroke:#000000;stroke-width:0.5;" x="26.47" xlink:href="#maf21dcb316" y="273.934164553"/>
      </g>
     </g>
     <g id="line2d_115">
      <g>
       <use style="stroke:#000000;stroke-width:0.5;" x="383.59" xlink:href="#m036961d6dc" y="273.934164553"/>
      </g>
     </g>
    </g>
    <g id="ytick_10">
     <g id="line2d_116">
      <g>
       <use style="stroke:#000000;stroke-width:0.5;" x="26.47" xlink:href="#maf21dcb316" y="262.342329727"/>
      </g>
     </g>
     <g id="line2d_117">
      <g>
       <use style="stroke:#000000;stroke-width:0.5;" x="383.59" xlink:href="#m036961d6dc" y="262.342329727"/>
      </g>
     </g>
    </g>
    <g id="ytick_11">
     <g id="line2d_118">
      <g>
       <use style="stroke:#000000;stroke-width:0.5;" x="26.47" xlink:href="#maf21dcb316" y="254.11779203"/>
      </g>
     </g>
     <g id="line2d_119">
      <g>
       <use style="stroke:#000000;stroke-width:0.5;" x="383.59" xlink:href="#m036961d6dc" y="254.11779203"/>
      </g>
     </g>
    </g>
    <g id="ytick_12">
     <g id="line2d_120">
      <g>
       <use style="stroke:#000000;stroke-width:0.5;" x="26.47" xlink:href="#maf21dcb316" y="247.738344977"/>
      </g>
     </g>
     <g id="line2d_121">
      <g>
       <use style="stroke:#000000;stroke-width:0.5;" x="383.59" xlink:href="#m036961d6dc" y="247.738344977"/>
      </g>
     </g>
    </g>
    <g id="ytick_13">
     <g id="line2d_122">
      <g>
       <use style="stroke:#000000;stroke-width:0.5;" x="26.47" xlink:href="#maf21dcb316" y="242.525957204"/>
      </g>
     </g>
     <g id="line2d_123">
      <g>
       <use style="stroke:#000000;stroke-width:0.5;" x="383.59" xlink:href="#m036961d6dc" y="242.525957204"/>
      </g>
     </g>
    </g>
    <g id="ytick_14">
     <g id="line2d_124">
      <g>
       <use style="stroke:#000000;stroke-width:0.5;" x="26.47" xlink:href="#maf21dcb316" y="238.118946137"/>
      </g>
     </g>
     <g id="line2d_125">
      <g>
       <use style="stroke:#000000;stroke-width:0.5;" x="383.59" xlink:href="#m036961d6dc" y="238.118946137"/>
      </g>
     </g>
    </g>
    <g id="ytick_15">
     <g id="line2d_126">
      <g>
       <use style="stroke:#000000;stroke-width:0.5;" x="26.47" xlink:href="#maf21dcb316" y="234.301419508"/>
      </g>
     </g>
     <g id="line2d_127">
      <g>
       <use style="stroke:#000000;stroke-width:0.5;" x="383.59" xlink:href="#m036961d6dc" y="234.301419508"/>
      </g>
     </g>
    </g>
    <g id="ytick_16">
     <g id="line2d_128">
      <g>
       <use style="stroke:#000000;stroke-width:0.5;" x="26.47" xlink:href="#maf21dcb316" y="230.934122378"/>
      </g>
     </g>
     <g id="line2d_129">
      <g>
       <use style="stroke:#000000;stroke-width:0.5;" x="383.59" xlink:href="#m036961d6dc" y="230.934122378"/>
      </g>
     </g>
    </g>
    <g id="ytick_17">
     <g id="line2d_130">
      <g>
       <use style="stroke:#000000;stroke-width:0.5;" x="26.47" xlink:href="#maf21dcb316" y="208.105599931"/>
      </g>
     </g>
     <g id="line2d_131">
      <g>
       <use style="stroke:#000000;stroke-width:0.5;" x="383.59" xlink:href="#m036961d6dc" y="208.105599931"/>
      </g>
     </g>
    </g>
    <g id="ytick_18">
     <g id="line2d_132">
      <g>
       <use style="stroke:#000000;stroke-width:0.5;" x="26.47" xlink:href="#maf21dcb316" y="196.513765105"/>
      </g>
     </g>
     <g id="line2d_133">
      <g>
       <use style="stroke:#000000;stroke-width:0.5;" x="383.59" xlink:href="#m036961d6dc" y="196.513765105"/>
      </g>
     </g>
    </g>
    <g id="ytick_19">
     <g id="line2d_134">
      <g>
       <use style="stroke:#000000;stroke-width:0.5;" x="26.47" xlink:href="#maf21dcb316" y="188.289227409"/>
      </g>
     </g>
     <g id="line2d_135">
      <g>
       <use style="stroke:#000000;stroke-width:0.5;" x="383.59" xlink:href="#m036961d6dc" y="188.289227409"/>
      </g>
     </g>
    </g>
    <g id="ytick_20">
     <g id="line2d_136">
      <g>
       <use style="stroke:#000000;stroke-width:0.5;" x="26.47" xlink:href="#maf21dcb316" y="181.909780355"/>
      </g>
     </g>
     <g id="line2d_137">
      <g>
       <use style="stroke:#000000;stroke-width:0.5;" x="383.59" xlink:href="#m036961d6dc" y="181.909780355"/>
      </g>
     </g>
    </g>
    <g id="ytick_21">
     <g id="line2d_138">
      <g>
       <use style="stroke:#000000;stroke-width:0.5;" x="26.47" xlink:href="#maf21dcb316" y="176.697392583"/>
      </g>
     </g>
     <g id="line2d_139">
      <g>
       <use style="stroke:#000000;stroke-width:0.5;" x="383.59" xlink:href="#m036961d6dc" y="176.697392583"/>
      </g>
     </g>
    </g>
    <g id="ytick_22">
     <g id="line2d_140">
      <g>
       <use style="stroke:#000000;stroke-width:0.5;" x="26.47" xlink:href="#maf21dcb316" y="172.290381515"/>
      </g>
     </g>
     <g id="line2d_141">
      <g>
       <use style="stroke:#000000;stroke-width:0.5;" x="383.59" xlink:href="#m036961d6dc" y="172.290381515"/>
      </g>
     </g>
    </g>
    <g id="ytick_23">
     <g id="line2d_142">
      <g>
       <use style="stroke:#000000;stroke-width:0.5;" x="26.47" xlink:href="#maf21dcb316" y="168.472854886"/>
      </g>
     </g>
     <g id="line2d_143">
      <g>
       <use style="stroke:#000000;stroke-width:0.5;" x="383.59" xlink:href="#m036961d6dc" y="168.472854886"/>
      </g>
     </g>
    </g>
    <g id="ytick_24">
     <g id="line2d_144">
      <g>
       <use style="stroke:#000000;stroke-width:0.5;" x="26.47" xlink:href="#maf21dcb316" y="165.105557757"/>
      </g>
     </g>
     <g id="line2d_145">
      <g>
       <use style="stroke:#000000;stroke-width:0.5;" x="383.59" xlink:href="#m036961d6dc" y="165.105557757"/>
      </g>
     </g>
    </g>
    <g id="ytick_25">
     <g id="line2d_146">
      <g>
       <use style="stroke:#000000;stroke-width:0.5;" x="26.47" xlink:href="#maf21dcb316" y="142.27703531"/>
      </g>
     </g>
     <g id="line2d_147">
      <g>
       <use style="stroke:#000000;stroke-width:0.5;" x="383.59" xlink:href="#m036961d6dc" y="142.27703531"/>
      </g>
     </g>
    </g>
    <g id="ytick_26">
     <g id="line2d_148">
      <g>
       <use style="stroke:#000000;stroke-width:0.5;" x="26.47" xlink:href="#maf21dcb316" y="130.685200484"/>
      </g>
     </g>
     <g id="line2d_149">
      <g>
       <use style="stroke:#000000;stroke-width:0.5;" x="383.59" xlink:href="#m036961d6dc" y="130.685200484"/>
      </g>
     </g>
    </g>
    <g id="ytick_27">
     <g id="line2d_150">
      <g>
       <use style="stroke:#000000;stroke-width:0.5;" x="26.47" xlink:href="#maf21dcb316" y="122.460662787"/>
      </g>
     </g>
     <g id="line2d_151">
      <g>
       <use style="stroke:#000000;stroke-width:0.5;" x="383.59" xlink:href="#m036961d6dc" y="122.460662787"/>
      </g>
     </g>
    </g>
    <g id="ytick_28">
     <g id="line2d_152">
      <g>
       <use style="stroke:#000000;stroke-width:0.5;" x="26.47" xlink:href="#maf21dcb316" y="116.081215733"/>
      </g>
     </g>
     <g id="line2d_153">
      <g>
       <use style="stroke:#000000;stroke-width:0.5;" x="383.59" xlink:href="#m036961d6dc" y="116.081215733"/>
      </g>
     </g>
    </g>
    <g id="ytick_29">
     <g id="line2d_154">
      <g>
       <use style="stroke:#000000;stroke-width:0.5;" x="26.47" xlink:href="#maf21dcb316" y="110.868827961"/>
      </g>
     </g>
     <g id="line2d_155">
      <g>
       <use style="stroke:#000000;stroke-width:0.5;" x="383.59" xlink:href="#m036961d6dc" y="110.868827961"/>
      </g>
     </g>
    </g>
    <g id="ytick_30">
     <g id="line2d_156">
      <g>
       <use style="stroke:#000000;stroke-width:0.5;" x="26.47" xlink:href="#maf21dcb316" y="106.461816894"/>
      </g>
     </g>
     <g id="line2d_157">
      <g>
       <use style="stroke:#000000;stroke-width:0.5;" x="383.59" xlink:href="#m036961d6dc" y="106.461816894"/>
      </g>
     </g>
    </g>
    <g id="ytick_31">
     <g id="line2d_158">
      <g>
       <use style="stroke:#000000;stroke-width:0.5;" x="26.47" xlink:href="#maf21dcb316" y="102.644290264"/>
      </g>
     </g>
     <g id="line2d_159">
      <g>
       <use style="stroke:#000000;stroke-width:0.5;" x="383.59" xlink:href="#m036961d6dc" y="102.644290264"/>
      </g>
     </g>
    </g>
    <g id="ytick_32">
     <g id="line2d_160">
      <g>
       <use style="stroke:#000000;stroke-width:0.5;" x="26.47" xlink:href="#maf21dcb316" y="99.2769931349"/>
      </g>
     </g>
     <g id="line2d_161">
      <g>
       <use style="stroke:#000000;stroke-width:0.5;" x="383.59" xlink:href="#m036961d6dc" y="99.2769931349"/>
      </g>
     </g>
    </g>
    <g id="ytick_33">
     <g id="line2d_162">
      <g>
       <use style="stroke:#000000;stroke-width:0.5;" x="26.47" xlink:href="#maf21dcb316" y="76.448470688"/>
      </g>
     </g>
     <g id="line2d_163">
      <g>
       <use style="stroke:#000000;stroke-width:0.5;" x="383.59" xlink:href="#m036961d6dc" y="76.448470688"/>
      </g>
     </g>
    </g>
    <g id="ytick_34">
     <g id="line2d_164">
      <g>
       <use style="stroke:#000000;stroke-width:0.5;" x="26.47" xlink:href="#maf21dcb316" y="64.856635862"/>
      </g>
     </g>
     <g id="line2d_165">
      <g>
       <use style="stroke:#000000;stroke-width:0.5;" x="383.59" xlink:href="#m036961d6dc" y="64.856635862"/>
      </g>
     </g>
    </g>
    <g id="ytick_35">
     <g id="line2d_166">
      <g>
       <use style="stroke:#000000;stroke-width:0.5;" x="26.47" xlink:href="#maf21dcb316" y="56.6320981654"/>
      </g>
     </g>
     <g id="line2d_167">
      <g>
       <use style="stroke:#000000;stroke-width:0.5;" x="383.59" xlink:href="#m036961d6dc" y="56.6320981654"/>
      </g>
     </g>
    </g>
    <g id="ytick_36">
     <g id="line2d_168">
      <g>
       <use style="stroke:#000000;stroke-width:0.5;" x="26.47" xlink:href="#maf21dcb316" y="50.2526511116"/>
      </g>
     </g>
     <g id="line2d_169">
      <g>
       <use style="stroke:#000000;stroke-width:0.5;" x="383.59" xlink:href="#m036961d6dc" y="50.2526511116"/>
      </g>
     </g>
    </g>
    <g id="ytick_37">
     <g id="line2d_170">
      <g>
       <use style="stroke:#000000;stroke-width:0.5;" x="26.47" xlink:href="#maf21dcb316" y="45.0402633393"/>
      </g>
     </g>
     <g id="line2d_171">
      <g>
       <use style="stroke:#000000;stroke-width:0.5;" x="383.59" xlink:href="#m036961d6dc" y="45.0402633393"/>
      </g>
     </g>
    </g>
    <g id="ytick_38">
     <g id="line2d_172">
      <g>
       <use style="stroke:#000000;stroke-width:0.5;" x="26.47" xlink:href="#maf21dcb316" y="40.6332522719"/>
      </g>
     </g>
     <g id="line2d_173">
      <g>
       <use style="stroke:#000000;stroke-width:0.5;" x="383.59" xlink:href="#m036961d6dc" y="40.6332522719"/>
      </g>
     </g>
    </g>
    <g id="ytick_39">
     <g id="line2d_174">
      <g>
       <use style="stroke:#000000;stroke-width:0.5;" x="26.47" xlink:href="#maf21dcb316" y="36.8157256428"/>
      </g>
     </g>
     <g id="line2d_175">
      <g>
       <use style="stroke:#000000;stroke-width:0.5;" x="383.59" xlink:href="#m036961d6dc" y="36.8157256428"/>
      </g>
     </g>
    </g>
    <g id="ytick_40">
     <g id="line2d_176">
      <g>
       <use style="stroke:#000000;stroke-width:0.5;" x="26.47" xlink:href="#maf21dcb316" y="33.4484285133"/>
      </g>
     </g>
     <g id="line2d_177">
      <g>
       <use style="stroke:#000000;stroke-width:0.5;" x="383.59" xlink:href="#m036961d6dc" y="33.4484285133"/>
      </g>
     </g>
    </g>
   </g>
   <g id="text_12">
    <!-- 2 -->
    <g transform="translate(31.6695320348 92.2447083487)scale(0.204 -0.204)">
     <use xlink:href="#BitstreamVeraSans-Roman-32"/>
    </g>
   </g>
   <g id="text_13">
    <!-- 1 -->
    <g transform="translate(76.6540879126 71.2224064062)scale(0.204 -0.204)">
     <use xlink:href="#BitstreamVeraSans-Roman-31"/>
    </g>
   </g>
   <g id="text_14">
    <!-- 2 -->
    <g transform="translate(133.327925825 84.7057748828)scale(0.204 -0.204)">
     <use xlink:href="#BitstreamVeraSans-Roman-32"/>
    </g>
   </g>
   <g id="text_15">
    <!-- reference budgets from bestGECCO2009 -->
    <defs>
     <path id="BitstreamVeraSans-Roman-20"/>
     <path d="M 10.984375 1.515625 
L 10.984375 10.5 
Q 14.703125 8.734375 18.5 7.8125 
Q 22.3125 6.890625 25.984375 6.890625 
Q 35.75 6.890625 40.890625 13.453125 
Q 46.046875 20.015625 46.78125 33.40625 
Q 43.953125 29.203125 39.59375 26.953125 
Q 35.25 24.703125 29.984375 24.703125 
Q 19.046875 24.703125 12.671875 31.3125 
Q 6.296875 37.9375 6.296875 49.421875 
Q 6.296875 60.640625 12.9375 67.421875 
Q 19.578125 74.21875 30.609375 74.21875 
Q 43.265625 74.21875 49.921875 64.515625 
Q 56.59375 54.828125 56.59375 36.375 
Q 56.59375 19.140625 48.40625 8.859375 
Q 40.234375 -1.421875 26.421875 -1.421875 
Q 22.703125 -1.421875 18.890625 -0.6875 
Q 15.09375 0.046875 10.984375 1.515625 
M 30.609375 32.421875 
Q 37.25 32.421875 41.125 36.953125 
Q 45.015625 41.5 45.015625 49.421875 
Q 45.015625 57.28125 41.125 61.84375 
Q 37.25 66.40625 30.609375 66.40625 
Q 23.96875 66.40625 20.09375 61.84375 
Q 16.21875 57.28125 16.21875 49.421875 
Q 16.21875 41.5 20.09375 36.953125 
Q 23.96875 32.421875 30.609375 32.421875 
" id="BitstreamVeraSans-Roman-39"/>
     <path d="M 8.5 21.578125 
L 8.5 54.6875 
L 17.484375 54.6875 
L 17.484375 21.921875 
Q 17.484375 14.15625 20.5 10.265625 
Q 23.53125 6.390625 29.59375 6.390625 
Q 36.859375 6.390625 41.078125 11.03125 
Q 45.3125 15.671875 45.3125 23.6875 
L 45.3125 54.6875 
L 54.296875 54.6875 
L 54.296875 0 
L 45.3125 0 
L 45.3125 8.40625 
Q 42.046875 3.421875 37.71875 1 
Q 33.40625 -1.421875 27.6875 -1.421875 
Q 18.265625 -1.421875 13.375 4.4375 
Q 8.5 10.296875 8.5 21.578125 
" id="BitstreamVeraSans-Roman-75"/>
     <path d="M 39.40625 66.21875 
Q 28.65625 66.21875 22.328125 58.203125 
Q 16.015625 50.203125 16.015625 36.375 
Q 16.015625 22.609375 22.328125 14.59375 
Q 28.65625 6.59375 39.40625 6.59375 
Q 50.140625 6.59375 56.421875 14.59375 
Q 62.703125 22.609375 62.703125 36.375 
Q 62.703125 50.203125 56.421875 58.203125 
Q 50.140625 66.21875 39.40625 66.21875 
M 39.40625 74.21875 
Q 54.734375 74.21875 63.90625 63.9375 
Q 73.09375 53.65625 73.09375 36.375 
Q 73.09375 19.140625 63.90625 8.859375 
Q 54.734375 -1.421875 39.40625 -1.421875 
Q 24.03125 -1.421875 14.8125 8.828125 
Q 5.609375 19.09375 5.609375 36.375 
Q 5.609375 53.65625 14.8125 63.9375 
Q 24.03125 74.21875 39.40625 74.21875 
" id="BitstreamVeraSans-Roman-4f"/>
     <path d="M 54.890625 33.015625 
L 54.890625 0 
L 45.90625 0 
L 45.90625 32.71875 
Q 45.90625 40.484375 42.875 44.328125 
Q 39.84375 48.1875 33.796875 48.1875 
Q 26.515625 48.1875 22.3125 43.546875 
Q 18.109375 38.921875 18.109375 30.90625 
L 18.109375 0 
L 9.078125 0 
L 9.078125 54.6875 
L 18.109375 54.6875 
L 18.109375 46.1875 
Q 21.34375 51.125 25.703125 53.5625 
Q 30.078125 56 35.796875 56 
Q 45.21875 56 50.046875 50.171875 
Q 54.890625 44.34375 54.890625 33.015625 
" id="BitstreamVeraSans-Roman-6e"/>
     <path d="M 52 44.1875 
Q 55.375 50.25 60.0625 53.125 
Q 64.75 56 71.09375 56 
Q 79.640625 56 84.28125 50.015625 
Q 88.921875 44.046875 88.921875 33.015625 
L 88.921875 0 
L 79.890625 0 
L 79.890625 32.71875 
Q 79.890625 40.578125 77.09375 44.375 
Q 74.3125 48.1875 68.609375 48.1875 
Q 61.625 48.1875 57.5625 43.546875 
Q 53.515625 38.921875 53.515625 30.90625 
L 53.515625 0 
L 44.484375 0 
L 44.484375 32.71875 
Q 44.484375 40.625 41.703125 44.40625 
Q 38.921875 48.1875 33.109375 48.1875 
Q 26.21875 48.1875 22.15625 43.53125 
Q 18.109375 38.875 18.109375 30.90625 
L 18.109375 0 
L 9.078125 0 
L 9.078125 54.6875 
L 18.109375 54.6875 
L 18.109375 46.1875 
Q 21.1875 51.21875 25.484375 53.609375 
Q 29.78125 56 35.6875 56 
Q 41.65625 56 45.828125 52.96875 
Q 50 49.953125 52 44.1875 
" id="BitstreamVeraSans-Roman-6d"/>
     <path d="M 30.609375 48.390625 
Q 23.390625 48.390625 19.1875 42.75 
Q 14.984375 37.109375 14.984375 27.296875 
Q 14.984375 17.484375 19.15625 11.84375 
Q 23.34375 6.203125 30.609375 6.203125 
Q 37.796875 6.203125 41.984375 11.859375 
Q 46.1875 17.53125 46.1875 27.296875 
Q 46.1875 37.015625 41.984375 42.703125 
Q 37.796875 48.390625 30.609375 48.390625 
M 30.609375 56 
Q 42.328125 56 49.015625 48.375 
Q 55.71875 40.765625 55.71875 27.296875 
Q 55.71875 13.875 49.015625 6.21875 
Q 42.328125 -1.421875 30.609375 -1.421875 
Q 18.84375 -1.421875 12.171875 6.21875 
Q 5.515625 13.875 5.515625 27.296875 
Q 5.515625 40.765625 12.171875 48.375 
Q 18.84375 56 30.609375 56 
" id="BitstreamVeraSans-Roman-6f"/>
     <path d="M 44.28125 53.078125 
L 44.28125 44.578125 
Q 40.484375 46.53125 36.375 47.5 
Q 32.28125 48.484375 27.875 48.484375 
Q 21.1875 48.484375 17.84375 46.4375 
Q 14.5 44.390625 14.5 40.28125 
Q 14.5 37.15625 16.890625 35.375 
Q 19.28125 33.59375 26.515625 31.984375 
L 29.59375 31.296875 
Q 39.15625 29.25 43.1875 25.515625 
Q 47.21875 21.78125 47.21875 15.09375 
Q 47.21875 7.46875 41.1875 3.015625 
Q 35.15625 -1.421875 24.609375 -1.421875 
Q 20.21875 -1.421875 15.453125 -0.5625 
Q 10.6875 0.296875 5.421875 2 
L 5.421875 11.28125 
Q 10.40625 8.6875 15.234375 7.390625 
Q 20.0625 6.109375 24.8125 6.109375 
Q 31.15625 6.109375 34.5625 8.28125 
Q 37.984375 10.453125 37.984375 14.40625 
Q 37.984375 18.0625 35.515625 20.015625 
Q 33.0625 21.96875 24.703125 23.78125 
L 21.578125 24.515625 
Q 13.234375 26.265625 9.515625 29.90625 
Q 5.8125 33.546875 5.8125 39.890625 
Q 5.8125 47.609375 11.28125 51.796875 
Q 16.75 56 26.8125 56 
Q 31.78125 56 36.171875 55.265625 
Q 40.578125 54.546875 44.28125 53.078125 
" id="BitstreamVeraSans-Roman-73"/>
     <path d="M 59.515625 10.40625 
L 59.515625 29.984375 
L 43.40625 29.984375 
L 43.40625 38.09375 
L 69.28125 38.09375 
L 69.28125 6.78125 
Q 63.578125 2.734375 56.6875 0.65625 
Q 49.8125 -1.421875 42 -1.421875 
Q 24.90625 -1.421875 15.25 8.5625 
Q 5.609375 18.5625 5.609375 36.375 
Q 5.609375 54.25 15.25 64.234375 
Q 24.90625 74.21875 42 74.21875 
Q 49.125 74.21875 55.546875 72.453125 
Q 61.96875 70.703125 67.390625 67.28125 
L 67.390625 56.78125 
Q 61.921875 61.421875 55.765625 63.765625 
Q 49.609375 66.109375 42.828125 66.109375 
Q 29.4375 66.109375 22.71875 58.640625 
Q 16.015625 51.171875 16.015625 36.375 
Q 16.015625 21.625 22.71875 14.15625 
Q 29.4375 6.6875 42.828125 6.6875 
Q 48.046875 6.6875 52.140625 7.59375 
Q 56.25 8.5 59.515625 10.40625 
" id="BitstreamVeraSans-Roman-47"/>
     <path d="M 9.8125 72.90625 
L 55.90625 72.90625 
L 55.90625 64.59375 
L 19.671875 64.59375 
L 19.671875 43.015625 
L 54.390625 43.015625 
L 54.390625 34.71875 
L 19.671875 34.71875 
L 19.671875 8.296875 
L 56.78125 8.296875 
L 56.78125 0 
L 9.8125 0 
z
" id="BitstreamVeraSans-Roman-45"/>
     <path d="M 64.40625 67.28125 
L 64.40625 56.890625 
Q 59.421875 61.53125 53.78125 63.8125 
Q 48.140625 66.109375 41.796875 66.109375 
Q 29.296875 66.109375 22.65625 58.46875 
Q 16.015625 50.828125 16.015625 36.375 
Q 16.015625 21.96875 22.65625 14.328125 
Q 29.296875 6.6875 41.796875 6.6875 
Q 48.140625 6.6875 53.78125 8.984375 
Q 59.421875 11.28125 64.40625 15.921875 
L 64.40625 5.609375 
Q 59.234375 2.09375 53.4375 0.328125 
Q 47.65625 -1.421875 41.21875 -1.421875 
Q 24.65625 -1.421875 15.125 8.703125 
Q 5.609375 18.84375 5.609375 36.375 
Q 5.609375 53.953125 15.125 64.078125 
Q 24.65625 74.21875 41.21875 74.21875 
Q 47.75 74.21875 53.53125 72.484375 
Q 59.328125 70.75 64.40625 67.28125 
" id="BitstreamVeraSans-Roman-43"/>
     <path d="M 56.203125 29.59375 
L 56.203125 25.203125 
L 14.890625 25.203125 
Q 15.484375 15.921875 20.484375 11.0625 
Q 25.484375 6.203125 34.421875 6.203125 
Q 39.59375 6.203125 44.453125 7.46875 
Q 49.3125 8.734375 54.109375 11.28125 
L 54.109375 2.78125 
Q 49.265625 0.734375 44.1875 -0.34375 
Q 39.109375 -1.421875 33.890625 -1.421875 
Q 20.796875 -1.421875 13.15625 6.1875 
Q 5.515625 13.8125 5.515625 26.8125 
Q 5.515625 40.234375 12.765625 48.109375 
Q 20.015625 56 32.328125 56 
Q 43.359375 56 49.78125 48.890625 
Q 56.203125 41.796875 56.203125 29.59375 
M 47.21875 32.234375 
Q 47.125 39.59375 43.09375 43.984375 
Q 39.0625 48.390625 32.421875 48.390625 
Q 24.90625 48.390625 20.390625 44.140625 
Q 15.875 39.890625 15.1875 32.171875 
z
" id="BitstreamVeraSans-Roman-65"/>
     <path d="M 45.40625 46.390625 
L 45.40625 75.984375 
L 54.390625 75.984375 
L 54.390625 0 
L 45.40625 0 
L 45.40625 8.203125 
Q 42.578125 3.328125 38.25 0.953125 
Q 33.9375 -1.421875 27.875 -1.421875 
Q 17.96875 -1.421875 11.734375 6.484375 
Q 5.515625 14.40625 5.515625 27.296875 
Q 5.515625 40.1875 11.734375 48.09375 
Q 17.96875 56 27.875 56 
Q 33.9375 56 38.25 53.625 
Q 42.578125 51.265625 45.40625 46.390625 
M 14.796875 27.296875 
Q 14.796875 17.390625 18.875 11.75 
Q 22.953125 6.109375 30.078125 6.109375 
Q 37.203125 6.109375 41.296875 11.75 
Q 45.40625 17.390625 45.40625 27.296875 
Q 45.40625 37.203125 41.296875 42.84375 
Q 37.203125 48.484375 30.078125 48.484375 
Q 22.953125 48.484375 18.875 42.84375 
Q 14.796875 37.203125 14.796875 27.296875 
" id="BitstreamVeraSans-Roman-64"/>
     <path d="M 45.40625 27.984375 
Q 45.40625 37.75 41.375 43.109375 
Q 37.359375 48.484375 30.078125 48.484375 
Q 22.859375 48.484375 18.828125 43.109375 
Q 14.796875 37.75 14.796875 27.984375 
Q 14.796875 18.265625 18.828125 12.890625 
Q 22.859375 7.515625 30.078125 7.515625 
Q 37.359375 7.515625 41.375 12.890625 
Q 45.40625 18.265625 45.40625 27.984375 
M 54.390625 6.78125 
Q 54.390625 -7.171875 48.1875 -13.984375 
Q 42 -20.796875 29.203125 -20.796875 
Q 24.46875 -20.796875 20.265625 -20.09375 
Q 16.0625 -19.390625 12.109375 -17.921875 
L 12.109375 -9.1875 
Q 16.0625 -11.328125 19.921875 -12.34375 
Q 23.78125 -13.375 27.78125 -13.375 
Q 36.625 -13.375 41.015625 -8.765625 
Q 45.40625 -4.15625 45.40625 5.171875 
L 45.40625 9.625 
Q 42.625 4.78125 38.28125 2.390625 
Q 33.9375 0 27.875 0 
Q 17.828125 0 11.671875 7.65625 
Q 5.515625 15.328125 5.515625 27.984375 
Q 5.515625 40.671875 11.671875 48.328125 
Q 17.828125 56 27.875 56 
Q 33.9375 56 38.28125 53.609375 
Q 42.625 51.21875 45.40625 46.390625 
L 45.40625 54.6875 
L 54.390625 54.6875 
z
" id="BitstreamVeraSans-Roman-67"/>
     <path d="M 37.109375 75.984375 
L 37.109375 68.5 
L 28.515625 68.5 
Q 23.6875 68.5 21.796875 66.546875 
Q 19.921875 64.59375 19.921875 59.515625 
L 19.921875 54.6875 
L 34.71875 54.6875 
L 34.71875 47.703125 
L 19.921875 47.703125 
L 19.921875 0 
L 10.890625 0 
L 10.890625 47.703125 
L 2.296875 47.703125 
L 2.296875 54.6875 
L 10.890625 54.6875 
L 10.890625 58.5 
Q 10.890625 67.625 15.140625 71.796875 
Q 19.390625 75.984375 28.609375 75.984375 
z
" id="BitstreamVeraSans-Roman-66"/>
     <path d="M 41.109375 46.296875 
Q 39.59375 47.171875 37.8125 47.578125 
Q 36.03125 48 33.890625 48 
Q 26.265625 48 22.1875 43.046875 
Q 18.109375 38.09375 18.109375 28.8125 
L 18.109375 0 
L 9.078125 0 
L 9.078125 54.6875 
L 18.109375 54.6875 
L 18.109375 46.1875 
Q 20.953125 51.171875 25.484375 53.578125 
Q 30.03125 56 36.53125 56 
Q 37.453125 56 38.578125 55.875 
Q 39.703125 55.765625 41.0625 55.515625 
z
" id="BitstreamVeraSans-Roman-72"/>
     <path d="M 18.3125 70.21875 
L 18.3125 54.6875 
L 36.8125 54.6875 
L 36.8125 47.703125 
L 18.3125 47.703125 
L 18.3125 18.015625 
Q 18.3125 11.328125 20.140625 9.421875 
Q 21.96875 7.515625 27.59375 7.515625 
L 36.8125 7.515625 
L 36.8125 0 
L 27.59375 0 
Q 17.1875 0 13.234375 3.875 
Q 9.28125 7.765625 9.28125 18.015625 
L 9.28125 47.703125 
L 2.6875 47.703125 
L 2.6875 54.6875 
L 9.28125 54.6875 
L 9.28125 70.21875 
z
" id="BitstreamVeraSans-Roman-74"/>
     <path d="M 48.78125 52.59375 
L 48.78125 44.1875 
Q 44.96875 46.296875 41.140625 47.34375 
Q 37.3125 48.390625 33.40625 48.390625 
Q 24.65625 48.390625 19.8125 42.84375 
Q 14.984375 37.3125 14.984375 27.296875 
Q 14.984375 17.28125 19.8125 11.734375 
Q 24.65625 6.203125 33.40625 6.203125 
Q 37.3125 6.203125 41.140625 7.25 
Q 44.96875 8.296875 48.78125 10.40625 
L 48.78125 2.09375 
Q 45.015625 0.34375 40.984375 -0.53125 
Q 36.96875 -1.421875 32.421875 -1.421875 
Q 20.0625 -1.421875 12.78125 6.34375 
Q 5.515625 14.109375 5.515625 27.296875 
Q 5.515625 40.671875 12.859375 48.328125 
Q 20.21875 56 33.015625 56 
Q 37.15625 56 41.109375 55.140625 
Q 45.0625 54.296875 48.78125 52.59375 
" id="BitstreamVeraSans-Roman-63"/>
     <path d="M 48.6875 27.296875 
Q 48.6875 37.203125 44.609375 42.84375 
Q 40.53125 48.484375 33.40625 48.484375 
Q 26.265625 48.484375 22.1875 42.84375 
Q 18.109375 37.203125 18.109375 27.296875 
Q 18.109375 17.390625 22.1875 11.75 
Q 26.265625 6.109375 33.40625 6.109375 
Q 40.53125 6.109375 44.609375 11.75 
Q 48.6875 17.390625 48.6875 27.296875 
M 18.109375 46.390625 
Q 20.953125 51.265625 25.265625 53.625 
Q 29.59375 56 35.59375 56 
Q 45.5625 56 51.78125 48.09375 
Q 58.015625 40.1875 58.015625 27.296875 
Q 58.015625 14.40625 51.78125 6.484375 
Q 45.5625 -1.421875 35.59375 -1.421875 
Q 29.59375 -1.421875 25.265625 0.953125 
Q 20.953125 3.328125 18.109375 8.203125 
L 18.109375 0 
L 9.078125 0 
L 9.078125 75.984375 
L 18.109375 75.984375 
z
" id="BitstreamVeraSans-Roman-62"/>
    </defs>
    <g transform="translate(26.47 306.91625)scale(0.14 -0.14)">
     <use xlink:href="#BitstreamVeraSans-Roman-72"/>
     <use x="41.08203125" xlink:href="#BitstreamVeraSans-Roman-65"/>
     <use x="102.60546875" xlink:href="#BitstreamVeraSans-Roman-66"/>
     <use x="137.810546875" xlink:href="#BitstreamVeraSans-Roman-65"/>
     <use x="199.333984375" xlink:href="#BitstreamVeraSans-Roman-72"/>
     <use x="240.416015625" xlink:href="#BitstreamVeraSans-Roman-65"/>
     <use x="301.939453125" xlink:href="#BitstreamVeraSans-Roman-6e"/>
     <use x="365.318359375" xlink:href="#BitstreamVeraSans-Roman-63"/>
     <use x="420.298828125" xlink:href="#BitstreamVeraSans-Roman-65"/>
     <use x="481.822265625" xlink:href="#BitstreamVeraSans-Roman-20"/>
     <use x="513.609375" xlink:href="#BitstreamVeraSans-Roman-62"/>
     <use x="577.0859375" xlink:href="#BitstreamVeraSans-Roman-75"/>
     <use x="640.46484375" xlink:href="#BitstreamVeraSans-Roman-64"/>
     <use x="703.94140625" xlink:href="#BitstreamVeraSans-Roman-67"/>
     <use x="767.41796875" xlink:href="#BitstreamVeraSans-Roman-65"/>
     <use x="828.94140625" xlink:href="#BitstreamVeraSans-Roman-74"/>
     <use x="868.150390625" xlink:href="#BitstreamVeraSans-Roman-73"/>
     <use x="920.25" xlink:href="#BitstreamVeraSans-Roman-20"/>
     <use x="952.037109375" xlink:href="#BitstreamVeraSans-Roman-66"/>
     <use x="987.2421875" xlink:href="#BitstreamVeraSans-Roman-72"/>
     <use x="1028.32421875" xlink:href="#BitstreamVeraSans-Roman-6f"/>
     <use x="1089.50585938" xlink:href="#BitstreamVeraSans-Roman-6d"/>
     <use x="1186.91796875" xlink:href="#BitstreamVeraSans-Roman-20"/>
     <use x="1218.70507812" xlink:href="#BitstreamVeraSans-Roman-62"/>
     <use x="1282.18164062" xlink:href="#BitstreamVeraSans-Roman-65"/>
     <use x="1343.70507812" xlink:href="#BitstreamVeraSans-Roman-73"/>
     <use x="1395.8046875" xlink:href="#BitstreamVeraSans-Roman-74"/>
     <use x="1435.01367188" xlink:href="#BitstreamVeraSans-Roman-47"/>
     <use x="1512.50390625" xlink:href="#BitstreamVeraSans-Roman-45"/>
     <use x="1575.6875" xlink:href="#BitstreamVeraSans-Roman-43"/>
     <use x="1645.51171875" xlink:href="#BitstreamVeraSans-Roman-43"/>
     <use x="1715.3359375" xlink:href="#BitstreamVeraSans-Roman-4f"/>
     <use x="1794.046875" xlink:href="#BitstreamVeraSans-Roman-32"/>
     <use x="1857.66992188" xlink:href="#BitstreamVeraSans-Roman-30"/>
     <use x="1921.29296875" xlink:href="#BitstreamVeraSans-Roman-30"/>
     <use x="1984.91601562" xlink:href="#BitstreamVeraSans-Roman-39"/>
    </g>
   </g>
   <g id="text_16">
    <!-- 9 Rosenbrock rotated -->
    <defs>
     <path d="M 44.390625 34.1875 
Q 47.5625 33.109375 50.5625 29.59375 
Q 53.5625 26.078125 56.59375 19.921875 
L 66.609375 0 
L 56 0 
L 46.6875 18.703125 
Q 43.0625 26.03125 39.671875 28.421875 
Q 36.28125 30.8125 30.421875 30.8125 
L 19.671875 30.8125 
L 19.671875 0 
L 9.8125 0 
L 9.8125 72.90625 
L 32.078125 72.90625 
Q 44.578125 72.90625 50.734375 67.671875 
Q 56.890625 62.453125 56.890625 51.90625 
Q 56.890625 45.015625 53.6875 40.46875 
Q 50.484375 35.9375 44.390625 34.1875 
M 19.671875 64.796875 
L 19.671875 38.921875 
L 32.078125 38.921875 
Q 39.203125 38.921875 42.84375 42.21875 
Q 46.484375 45.515625 46.484375 51.90625 
Q 46.484375 58.296875 42.84375 61.546875 
Q 39.203125 64.796875 32.078125 64.796875 
z
" id="BitstreamVeraSans-Roman-52"/>
     <path d="M 34.28125 27.484375 
Q 23.390625 27.484375 19.1875 25 
Q 14.984375 22.515625 14.984375 16.5 
Q 14.984375 11.71875 18.140625 8.90625 
Q 21.296875 6.109375 26.703125 6.109375 
Q 34.1875 6.109375 38.703125 11.40625 
Q 43.21875 16.703125 43.21875 25.484375 
L 43.21875 27.484375 
z
M 52.203125 31.203125 
L 52.203125 0 
L 43.21875 0 
L 43.21875 8.296875 
Q 40.140625 3.328125 35.546875 0.953125 
Q 30.953125 -1.421875 24.3125 -1.421875 
Q 15.921875 -1.421875 10.953125 3.296875 
Q 6 8.015625 6 15.921875 
Q 6 25.140625 12.171875 29.828125 
Q 18.359375 34.515625 30.609375 34.515625 
L 43.21875 34.515625 
L 43.21875 35.40625 
Q 43.21875 41.609375 39.140625 45 
Q 35.0625 48.390625 27.6875 48.390625 
Q 23 48.390625 18.546875 47.265625 
Q 14.109375 46.140625 10.015625 43.890625 
L 10.015625 52.203125 
Q 14.9375 54.109375 19.578125 55.046875 
Q 24.21875 56 28.609375 56 
Q 40.484375 56 46.34375 49.84375 
Q 52.203125 43.703125 52.203125 31.203125 
" id="BitstreamVeraSans-Roman-61"/>
     <path d="M 9.078125 75.984375 
L 18.109375 75.984375 
L 18.109375 31.109375 
L 44.921875 54.6875 
L 56.390625 54.6875 
L 27.390625 29.109375 
L 57.625 0 
L 45.90625 0 
L 18.109375 26.703125 
L 18.109375 0 
L 9.078125 0 
z
" id="BitstreamVeraSans-Roman-6b"/>
    </defs>
    <g transform="translate(75.38125 25.43625)scale(0.24 -0.24)">
     <use xlink:href="#BitstreamVeraSans-Roman-39"/>
     <use x="63.623046875" xlink:href="#BitstreamVeraSans-Roman-20"/>
     <use x="95.41015625" xlink:href="#BitstreamVeraSans-Roman-52"/>
     <use x="164.830078125" xlink:href="#BitstreamVeraSans-Roman-6f"/>
     <use x="226.01171875" xlink:href="#BitstreamVeraSans-Roman-73"/>
     <use x="278.111328125" xlink:href="#BitstreamVeraSans-Roman-65"/>
     <use x="339.634765625" xlink:href="#BitstreamVeraSans-Roman-6e"/>
     <use x="403.013671875" xlink:href="#BitstreamVeraSans-Roman-62"/>
     <use x="466.490234375" xlink:href="#BitstreamVeraSans-Roman-72"/>
     <use x="507.572265625" xlink:href="#BitstreamVeraSans-Roman-6f"/>
     <use x="568.75390625" xlink:href="#BitstreamVeraSans-Roman-63"/>
     <use x="623.734375" xlink:href="#BitstreamVeraSans-Roman-6b"/>
     <use x="681.64453125" xlink:href="#BitstreamVeraSans-Roman-20"/>
     <use x="713.431640625" xlink:href="#BitstreamVeraSans-Roman-72"/>
     <use x="754.513671875" xlink:href="#BitstreamVeraSans-Roman-6f"/>
     <use x="815.6953125" xlink:href="#BitstreamVeraSans-Roman-74"/>
     <use x="854.904296875" xlink:href="#BitstreamVeraSans-Roman-61"/>
     <use x="916.18359375" xlink:href="#BitstreamVeraSans-Roman-74"/>
     <use x="955.392578125" xlink:href="#BitstreamVeraSans-Roman-65"/>
     <use x="1016.91601562" xlink:href="#BitstreamVeraSans-Roman-64"/>
    </g>
   </g>
  </g>
 </g>
 <defs>
  <clipPath id="p8d35668528">
   <rect height="276.48" width="357.12" x="26.47" y="30.43625"/>
  </clipPath>
 </defs>
</svg>
