<?xml version="1.0" encoding="utf-8" standalone="no"?>
<!DOCTYPE svg PUBLIC "-//W3C//DTD SVG 1.1//EN"
  "http://www.w3.org/Graphics/SVG/1.1/DTD/svg11.dtd">
<!-- Created with matplotlib (http://matplotlib.org/) -->
<svg height="338pt" version="1.1" viewBox="0 0 371 338" width="371pt" xmlns="http://www.w3.org/2000/svg" xmlns:xlink="http://www.w3.org/1999/xlink">
 <defs>
  <style type="text/css">
*{stroke-linecap:butt;stroke-linejoin:round;stroke-miterlimit:100000;}
  </style>
 </defs>
 <g id="figure_1">
  <g id="patch_1">
   <path d="M 0 338.5925 
L 371.52 338.5925 
L 371.52 0 
L 0 0 
z
" style="fill:#ffffff;"/>
  </g>
  <g id="axes_1">
   <g id="patch_2">
    <path d="M 7.2 283.68 
L 364.32 283.68 
L 364.32 7.2 
L 7.2 7.2 
z
" style="fill:#ffffff;"/>
   </g>
   <g id="line2d_1">
    <path clip-path="url(#pf77def304b)" d="M 154.244471 283.68 
L 154.244471 280.030099 
L 168.675402 280.030099 
L 168.675402 276.380198 
L 173.508617 276.380198 
L 173.508617 272.730297 
L 176.902037 272.730297 
L 176.902037 269.080396 
L 180.941106 269.080396 
L 180.941106 265.430495 
L 181.747574 265.430495 
L 181.747574 261.780594 
L 183.563809 261.780594 
L 183.599478 254.480792 
L 185.313171 254.480792 
L 185.41985 247.18099 
L 187.29129 247.18099 
L 187.29129 243.531089 
L 189.296241 243.531089 
L 189.296241 239.881188 
L 190.41583 239.881188 
L 190.41583 236.231287 
L 190.839518 236.231287 
L 190.839518 232.581386 
L 191.044977 232.581386 
L 191.044977 228.931485 
L 206.105492 228.931485 
L 206.105492 225.281584 
L 209.269192 225.281584 
L 209.269192 221.631683 
L 210.498391 221.631683 
L 210.498391 217.981782 
L 213.271124 217.981782 
L 213.30602 210.68198 
L 216.290587 210.68198 
L 216.290587 207.032079 
L 216.81374 207.032079 
L 216.81374 203.382178 
L 217.157642 203.382178 
L 217.157642 199.732277 
L 218.901558 199.732277 
L 218.901558 196.082376 
L 220.940192 196.082376 
L 220.940192 192.432475 
L 222.173889 192.432475 
L 222.173889 188.782574 
L 223.036844 188.782574 
L 223.036844 185.132673 
L 223.19096 185.132673 
L 223.19096 181.482772 
L 223.900373 181.482772 
L 223.900373 177.832871 
L 225.260802 177.832871 
L 225.328258 170.533069 
L 226.176046 170.533069 
L 226.176046 166.883168 
L 226.682832 166.883168 
L 226.682832 163.233267 
L 227.289044 163.233267 
L 227.325167 155.933465 
L 227.437571 155.933465 
L 227.437571 152.283564 
L 227.694839 152.283564 
L 227.766665 144.983762 
L 228.770126 144.983762 
L 228.801216 137.68396 
L 230.211415 137.68396 
L 230.211415 134.034059 
L 230.805522 134.034059 
L 230.805522 130.384158 
L 232.466885 130.384158 
L 232.466885 126.734257 
L 237.139044 126.734257 
L 237.139044 123.084356 
L 249.891847 123.084356 
L 249.891847 119.434455 
L 261.853467 119.434455 
L 261.853467 115.784554 
L 263.078701 115.784554 
L 263.078701 112.134653 
L 264.241474 112.134653 
L 264.241474 108.484752 
L 265.14324 108.484752 
L 265.14324 104.834851 
L 265.607428 104.834851 
L 265.607428 101.18495 
L 268.602077 101.18495 
L 268.602077 97.53505 
L 269.918412 97.53505 
L 269.918412 93.885149 
L 270.424625 93.885149 
L 270.424625 90.235248 
L 271.745322 90.235248 
L 271.745322 86.585347 
L 272.690655 86.585347 
L 272.690655 82.935446 
L 273.322271 82.935446 
L 273.322271 79.285545 
L 275.092639 79.285545 
L 275.161119 71.985743 
L 279.627584 71.985743 
L 279.627584 68.335842 
L 283.238964 68.335842 
L 283.238964 64.685941 
L 290.749345 64.685941 
L 290.749345 61.03604 
L 298.127103 61.03604 
L 298.127103 57.386139 
L 305.85115 57.386139 
L 305.85115 53.736238 
L 307.690538 53.736238 
L 307.690538 50.086337 
L 309.770711 50.086337 
L 309.770711 46.436436 
L 310.969251 46.436436 
L 310.969251 42.786535 
L 311.477273 42.786535 
L 311.477273 39.136634 
L 311.600334 39.136634 
L 311.600334 35.486733 
L 311.713966 35.486733 
L 311.713966 31.836832 
L 312.603008 31.836832 
L 312.603008 28.186931 
L 314.486903 28.186931 
L 314.486903 24.53703 
L 316.533353 24.53703 
L 316.533353 20.887129 
L 317.23879 20.887129 
L 317.23879 17.237228 
L 317.772264 17.237228 
L 317.772264 13.587327 
L 319.799181 13.587327 
L 319.799181 9.937426 
L 364.32 9.937426 
L 364.32 9.937426 
" style="fill:none;stroke:#ff0000;stroke-linecap:square;stroke-width:3.0;"/>
   </g>
   <g id="line2d_2">
    <path clip-path="url(#pf77def304b)" d="M 189.580606 283.68 
L 189.580606 280.030099 
L 194.969626 280.030099 
L 194.969626 276.380198 
L 199.980603 276.380198 
L 199.980603 272.730297 
L 201.611444 272.730297 
L 201.611444 269.080396 
L 202.194484 269.080396 
L 202.204109 261.780594 
L 205.001056 261.780594 
L 205.001056 258.130693 
L 205.581822 258.130693 
L 205.581822 254.480792 
L 206.809022 254.480792 
L 206.809022 250.830891 
L 207.055242 250.830891 
L 207.055242 247.18099 
L 208.976688 247.18099 
L 208.976688 243.531089 
L 214.944191 243.531089 
L 214.944191 239.881188 
L 215.559751 239.881188 
L 215.559751 236.231287 
L 216.939558 236.231287 
L 216.939558 232.581386 
L 217.652609 232.581386 
L 217.652609 228.931485 
L 231.210394 228.931485 
L 231.210394 225.281584 
L 233.761254 225.281584 
L 233.761254 221.631683 
L 236.103257 221.631683 
L 236.103257 217.981782 
L 237.240727 217.981782 
L 237.240727 214.331881 
L 238.210692 214.331881 
L 238.210692 210.68198 
L 238.744173 210.68198 
L 238.744173 207.032079 
L 239.942295 207.032079 
L 239.942295 203.382178 
L 240.282289 203.382178 
L 240.282289 199.732277 
L 241.349074 199.732277 
L 241.349074 196.082376 
L 241.947627 196.082376 
L 241.947627 192.432475 
L 242.638049 192.432475 
L 242.684652 185.132673 
L 242.969925 185.132673 
L 242.969925 181.482772 
L 243.800924 181.482772 
L 243.890484 174.18297 
L 263.366775 174.18297 
L 263.366775 170.533069 
L 265.941007 170.533069 
L 265.941007 166.883168 
L 276.453459 166.883168 
L 276.453459 163.233267 
L 282.343514 163.233267 
L 282.343514 159.583366 
L 294.350116 159.583366 
L 294.350116 155.933465 
L 295.642747 155.933465 
L 295.642747 152.283564 
L 301.364117 152.283564 
L 301.364117 148.633663 
L 302.912673 148.633663 
L 302.912673 144.983762 
L 308.87432 144.983762 
L 308.87432 141.333861 
L 311.695157 141.333861 
L 311.695157 137.68396 
L 312.399762 137.68396 
L 312.399762 134.034059 
L 315.516428 134.034059 
L 315.516428 130.384158 
L 316.10995 130.384158 
L 316.10995 126.734257 
L 316.355175 126.734257 
L 316.355175 123.084356 
L 317.772264 123.084356 
L 317.772264 119.434455 
L 319.450667 119.434455 
L 319.450667 115.784554 
L 320.268344 115.784554 
L 320.268344 112.134653 
L 320.543803 112.134653 
L 320.543803 108.484752 
L 321.105041 108.484752 
L 321.105041 104.834851 
L 321.549114 104.834851 
L 321.549114 101.18495 
L 321.738095 101.18495 
L 321.738095 97.53505 
L 323.194511 97.53505 
L 323.194511 93.885149 
L 323.998127 93.885149 
L 323.998127 90.235248 
L 324.353438 90.235248 
L 324.353438 86.585347 
L 325.384209 86.585347 
L 325.384209 82.935446 
L 325.900208 82.935446 
L 325.900208 79.285545 
L 327.368327 79.285545 
L 327.368327 75.635644 
L 328.059134 75.635644 
L 328.10997 68.335842 
L 330.359723 68.335842 
L 330.359723 64.685941 
L 330.674347 64.685941 
L 330.674347 61.03604 
L 330.963619 61.03604 
L 330.963619 57.386139 
L 332.091389 57.386139 
L 332.119252 50.086337 
L 332.306711 50.086337 
L 332.306711 46.436436 
L 333.664191 46.436436 
L 333.664191 42.786535 
L 333.77814 42.786535 
L 333.77814 39.136634 
L 333.965926 39.136634 
L 333.965926 35.486733 
L 337.995973 35.486733 
L 337.995973 31.836832 
L 340.332928 31.836832 
L 340.332928 28.186931 
L 342.755674 28.186931 
L 342.755674 24.53703 
L 342.881615 24.53703 
L 342.881615 20.887129 
L 345.933124 20.887129 
L 345.933124 17.237228 
L 346.115231 17.237228 
L 346.115231 13.587327 
L 349.165553 13.587327 
L 349.165553 9.937426 
L 364.32 9.937426 
L 364.32 9.937426 
" style="fill:none;stroke:#00bfbf;stroke-linecap:square;"/>
   </g>
   <g id="line2d_3">
    <path clip-path="url(#pf77def304b)" d="M 168.710969 283.68 
L 168.710969 280.030099 
L 189.580606 280.030099 
L 189.580606 276.380198 
L 194.969626 276.380198 
L 194.969626 272.730297 
L 196.025648 272.730297 
L 196.025648 269.080396 
L 197.792577 269.080396 
L 197.792577 265.430495 
L 198.936787 265.430495 
L 198.936787 261.780594 
L 199.980603 261.780594 
L 199.980603 258.130693 
L 201.151719 258.130693 
L 201.151719 254.480792 
L 201.611444 254.480792 
L 201.611444 250.830891 
L 202.194484 250.830891 
L 202.194484 247.18099 
L 203.991639 247.18099 
L 203.991639 243.531089 
L 205.581822 243.531089 
L 205.581822 239.881188 
L 208.323059 239.881188 
L 208.323059 236.231287 
L 208.976688 236.231287 
L 208.976688 232.581386 
L 216.939558 232.581386 
L 216.939558 228.931485 
L 231.210394 228.931485 
L 231.210394 225.281584 
L 232.487777 225.281584 
L 232.487777 221.631683 
L 233.761254 221.631683 
L 233.761254 217.981782 
L 235.971524 217.981782 
L 236.034734 210.68198 
L 236.325526 210.68198 
L 236.325526 207.032079 
L 237.58928 207.032079 
L 237.58928 203.382178 
L 237.928759 203.382178 
L 237.947945 196.082376 
L 238.210692 196.082376 
L 238.210692 192.432475 
L 238.744173 192.432475 
L 238.744173 188.782574 
L 238.906929 188.782574 
L 238.906929 185.132673 
L 239.38759 185.132673 
L 239.38759 181.482772 
L 239.942295 181.482772 
L 239.942295 177.832871 
L 241.309328 177.832871 
L 241.309328 174.18297 
L 263.366775 174.18297 
L 263.366775 170.533069 
L 265.941007 170.533069 
L 265.941007 166.883168 
L 275.950794 166.883168 
L 275.950794 163.233267 
L 276.453459 163.233267 
L 276.453459 159.583366 
L 282.229183 159.583366 
L 282.229183 155.933465 
L 282.343514 155.933465 
L 282.343514 152.283564 
L 289.997634 152.283564 
L 289.997634 148.633663 
L 290.233344 148.633663 
L 290.233344 144.983762 
L 291.325539 144.983762 
L 291.325539 141.333861 
L 294.350116 141.333861 
L 294.350116 137.68396 
L 295.642747 137.68396 
L 295.642747 134.034059 
L 296.2136 134.034059 
L 296.2136 130.384158 
L 299.966503 130.384158 
L 299.966503 126.734257 
L 300.132511 126.734257 
L 300.132511 123.084356 
L 301.364117 123.084356 
L 301.364117 119.434455 
L 302.841293 119.434455 
L 302.912673 112.134653 
L 304.501721 112.134653 
L 304.501721 108.484752 
L 306.553273 108.484752 
L 306.553273 104.834851 
L 308.87432 104.834851 
L 308.87432 101.18495 
L 311.840804 101.18495 
L 311.840804 97.53505 
L 312.029963 97.53505 
L 312.029963 93.885149 
L 312.938501 93.885149 
L 312.938501 90.235248 
L 313.676863 90.235248 
L 313.728097 82.935446 
L 315.516428 82.935446 
L 315.516428 79.285545 
L 316.285557 79.285545 
L 316.285557 75.635644 
L 317.772264 75.635644 
L 317.772264 71.985743 
L 318.353943 71.985743 
L 318.353943 68.335842 
L 319.450667 68.335842 
L 319.450667 64.685941 
L 319.669952 64.685941 
L 319.669952 61.03604 
L 319.979095 61.03604 
L 319.979095 57.386139 
L 321.105041 57.386139 
L 321.105041 53.736238 
L 324.353438 53.736238 
L 324.359672 46.436436 
L 325.155613 46.436436 
L 325.231491 39.136634 
L 325.593898 39.136634 
L 325.593898 35.486733 
L 327.796607 35.486733 
L 327.796607 31.836832 
L 332.306711 31.836832 
L 332.306711 28.186931 
L 333.382929 28.186931 
L 333.382929 24.53703 
L 333.676776 24.53703 
L 333.77814 17.237228 
L 333.965926 17.237228 
L 333.965926 13.587327 
L 338.760641 13.587327 
L 338.760641 9.937426 
L 364.32 9.937426 
L 364.32 9.937426 
" style="fill:none;stroke:#bf00bf;stroke-linecap:square;"/>
   </g>
   <g id="line2d_4">
    <path clip-path="url(#pf77def304b)" d="M 168.710969 283.68 
L 168.710969 280.030099 
L 189.10652 280.030099 
L 189.10652 276.380198 
L 189.442364 276.380198 
L 189.442364 272.730297 
L 189.580606 272.730297 
L 189.580606 269.080396 
L 190.487103 269.080396 
L 190.487103 265.430495 
L 190.655469 265.430495 
L 190.655469 261.780594 
L 192.924888 261.780594 
L 192.924888 258.130693 
L 194.969626 258.130693 
L 194.969626 254.480792 
L 196.025648 254.480792 
L 196.025648 250.830891 
L 196.991266 250.830891 
L 196.991266 247.18099 
L 197.792577 247.18099 
L 197.792577 243.531089 
L 199.524518 243.531089 
L 199.524518 239.881188 
L 199.637342 239.881188 
L 199.637342 236.231287 
L 202.954868 236.231287 
L 202.954868 232.581386 
L 205.005431 232.581386 
L 205.005431 228.931485 
L 209.269442 228.931485 
L 209.269442 225.281584 
L 230.299753 225.281584 
L 230.299753 221.631683 
L 231.210394 221.631683 
L 231.210394 217.981782 
L 232.487777 217.981782 
L 232.487777 214.331881 
L 233.761254 214.331881 
L 233.761254 210.68198 
L 234.441113 210.68198 
L 234.441113 207.032079 
L 234.850296 207.032079 
L 234.850296 203.382178 
L 235.821236 203.382178 
L 235.821236 199.732277 
L 236.034734 199.732277 
L 236.034734 196.082376 
L 236.57246 196.082376 
L 236.57246 192.432475 
L 236.980997 192.432475 
L 236.980997 188.782574 
L 237.346028 188.782574 
L 237.346028 185.132673 
L 237.58928 185.132673 
L 237.58928 181.482772 
L 237.851985 181.482772 
L 237.851985 177.832871 
L 238.210692 177.832871 
L 238.210692 174.18297 
L 240.83138 174.18297 
L 240.83138 170.533069 
L 261.617775 170.533069 
L 261.617775 166.883168 
L 263.12935 166.883168 
L 263.12935 163.233267 
L 263.366775 163.233267 
L 263.366775 159.583366 
L 272.711136 159.583366 
L 272.711136 155.933465 
L 276.096803 155.933465 
L 276.096803 152.283564 
L 276.453459 152.283564 
L 276.453459 148.633663 
L 282.229183 148.633663 
L 282.229183 144.983762 
L 282.720431 144.983762 
L 282.720431 141.333861 
L 283.742725 141.333861 
L 283.742725 137.68396 
L 285.846381 137.68396 
L 285.954237 130.384158 
L 287.282712 130.384158 
L 287.282712 126.734257 
L 287.545122 126.734257 
L 287.545122 123.084356 
L 288.142379 123.084356 
L 288.142379 119.434455 
L 289.997634 119.434455 
L 289.997634 115.784554 
L 290.233344 115.784554 
L 290.233344 112.134653 
L 291.72614 112.134653 
L 291.72614 108.484752 
L 293.59234 108.484752 
L 293.59234 104.834851 
L 295.251509 104.834851 
L 295.251509 101.18495 
L 297.383844 101.18495 
L 297.383844 97.53505 
L 298.119814 97.53505 
L 298.119814 93.885149 
L 298.842516 93.885149 
L 298.92018 86.585347 
L 299.110002 86.585347 
L 299.110002 82.935446 
L 300.719972 82.935446 
L 300.719972 79.285545 
L 301.364117 79.285545 
L 301.364117 75.635644 
L 304.745578 75.635644 
L 304.745578 71.985743 
L 311.300596 71.985743 
L 311.300596 68.335842 
L 313.895327 68.335842 
L 313.895327 64.685941 
L 315.693422 64.685941 
L 315.693422 61.03604 
L 317.772264 61.03604 
L 317.772264 57.386139 
L 319.450667 57.386139 
L 319.450667 53.736238 
L 319.663609 53.736238 
L 319.663609 50.086337 
L 321.105041 50.086337 
L 321.105041 46.436436 
L 322.156135 46.436436 
L 322.163172 39.136634 
L 324.353438 39.136634 
L 324.359672 31.836832 
L 325.155613 31.836832 
L 325.231491 24.53703 
L 325.593898 24.53703 
L 325.593898 20.887129 
L 327.390645 20.887129 
L 327.390645 17.237228 
L 327.695967 17.237228 
L 327.695967 13.587327 
L 328.093661 13.587327 
L 328.093661 9.937426 
L 364.32 9.937426 
L 364.32 9.937426 
" style="fill:none;stroke:#000000;stroke-linecap:square;"/>
   </g>
   <g id="line2d_5">
    <path clip-path="url(#pf77def304b)" d="M 168.710969 283.68 
L 168.710969 280.030099 
L 185.604071 280.030099 
L 185.604071 276.380198 
L 187.018391 276.380198 
L 187.018391 272.730297 
L 189.10652 272.730297 
L 189.10652 269.080396 
L 189.580606 269.080396 
L 189.580606 265.430495 
L 190.00096 265.430495 
L 190.07626 258.130693 
L 190.449468 258.130693 
L 190.487103 250.830891 
L 190.655469 250.830891 
L 190.655469 247.18099 
L 191.044977 247.18099 
L 191.044977 243.531089 
L 192.142077 243.531089 
L 192.142077 239.881188 
L 193.14864 239.881188 
L 193.14864 236.231287 
L 195.11337 236.231287 
L 195.11337 232.581386 
L 196.025742 232.581386 
L 196.025742 228.931485 
L 206.105492 228.931485 
L 206.105492 225.281584 
L 209.269442 225.281584 
L 209.269442 221.631683 
L 213.30602 221.631683 
L 213.30602 217.981782 
L 217.903249 217.981782 
L 217.903249 214.331881 
L 222.650916 214.331881 
L 222.650916 210.68198 
L 223.199471 210.68198 
L 223.199471 207.032079 
L 225.795152 207.032079 
L 225.795152 203.382178 
L 226.721972 203.382178 
L 226.721972 199.732277 
L 227.385625 199.732277 
L 227.385625 196.082376 
L 230.29414 196.082376 
L 230.299753 188.782574 
L 231.210394 188.782574 
L 231.21648 181.482772 
L 231.48258 181.482772 
L 231.48258 177.832871 
L 232.487777 177.832871 
L 232.487777 174.18297 
L 233.761254 174.18297 
L 233.761537 166.883168 
L 234.476986 166.883168 
L 234.476986 163.233267 
L 234.850296 163.233267 
L 234.850296 159.583366 
L 235.821236 159.583366 
L 235.821236 155.933465 
L 236.104115 155.933465 
L 236.104115 152.283564 
L 237.139044 152.283564 
L 237.139044 148.633663 
L 238.591967 148.633663 
L 238.591967 144.983762 
L 250.328803 144.983762 
L 250.328803 141.333861 
L 250.773928 141.333861 
L 250.773928 137.68396 
L 255.843297 137.68396 
L 255.843297 134.034059 
L 261.617775 134.034059 
L 261.617775 130.384158 
L 266.601771 130.384158 
L 266.601771 126.734257 
L 270.640523 126.734257 
L 270.640523 123.084356 
L 271.567569 123.084356 
L 271.567569 119.434455 
L 273.841539 119.434455 
L 273.904842 112.134653 
L 275.178104 112.134653 
L 275.239988 104.834851 
L 276.453459 104.834851 
L 276.453459 101.18495 
L 277.863013 101.18495 
L 277.863013 97.53505 
L 279.627584 97.53505 
L 279.627584 93.885149 
L 282.720431 93.885149 
L 282.720431 90.235248 
L 282.925021 90.235248 
L 282.925021 86.585347 
L 283.742725 86.585347 
L 283.742725 82.935446 
L 284.48479 82.935446 
L 284.48479 79.285545 
L 288.223647 79.285545 
L 288.223647 75.635644 
L 289.272237 75.635644 
L 289.272237 71.985743 
L 289.997634 71.985743 
L 289.997634 68.335842 
L 297.1836 68.335842 
L 297.1836 64.685941 
L 298.127103 64.685941 
L 298.127103 61.03604 
L 313.895327 61.03604 
L 313.895327 57.386139 
L 315.208488 57.386139 
L 315.208488 53.736238 
L 316.366704 53.736238 
L 316.366704 50.086337 
L 317.600958 50.086337 
L 317.625325 42.786535 
L 317.772264 42.786535 
L 317.772264 39.136634 
L 319.663609 39.136634 
L 319.754637 31.836832 
L 321.105041 31.836832 
L 321.105041 28.186931 
L 321.547039 28.186931 
L 321.547039 24.53703 
L 324.3613 24.53703 
L 324.3613 20.887129 
L 324.653185 20.887129 
L 324.653185 17.237228 
L 325.231491 17.237228 
L 325.231491 13.587327 
L 327.695967 13.587327 
L 327.695967 9.937426 
L 364.32 9.937426 
L 364.32 9.937426 
" style="fill:none;stroke:#00bfbf;stroke-linecap:square;"/>
   </g>
   <g id="line2d_6">
    <path clip-path="url(#pf77def304b)" d="M 154.244471 283.68 
L 154.244471 280.030099 
L 168.710968 280.030099 
L 168.710968 276.380198 
L 173.508617 276.380198 
L 173.508617 272.730297 
L 176.902037 272.730297 
L 176.902037 269.080396 
L 180.941106 269.080396 
L 180.941106 265.430495 
L 181.747574 265.430495 
L 181.747574 261.780594 
L 183.563809 261.780594 
L 183.599478 254.480792 
L 185.41985 254.480792 
L 185.41985 250.830891 
L 185.5733 250.830891 
L 185.5733 247.18099 
L 187.29129 247.18099 
L 187.29129 243.531089 
L 189.296241 243.531089 
L 189.296241 239.881188 
L 190.449468 239.881188 
L 190.449468 236.231287 
L 190.896496 236.231287 
L 190.896496 232.581386 
L 191.044977 232.581386 
L 191.044977 228.931485 
L 206.105492 228.931485 
L 206.105492 225.281584 
L 209.269442 225.281584 
L 209.269442 221.631683 
L 210.498391 221.631683 
L 210.498391 217.981782 
L 213.271124 217.981782 
L 213.30602 210.68198 
L 216.290587 210.68198 
L 216.290587 207.032079 
L 216.81374 207.032079 
L 216.81374 203.382178 
L 217.157642 203.382178 
L 217.157642 199.732277 
L 218.901558 199.732277 
L 218.901558 196.082376 
L 220.940192 196.082376 
L 220.940192 192.432475 
L 222.173889 192.432475 
L 222.173889 188.782574 
L 223.036844 188.782574 
L 223.036844 185.132673 
L 223.19096 185.132673 
L 223.19096 181.482772 
L 223.900373 181.482772 
L 223.900373 177.832871 
L 225.260802 177.832871 
L 225.260802 174.18297 
L 225.795128 174.18297 
L 225.795128 170.533069 
L 226.682832 170.533069 
L 226.682832 166.883168 
L 227.289044 166.883168 
L 227.385625 159.583366 
L 227.438021 159.583366 
L 227.438021 155.933465 
L 227.694839 155.933465 
L 227.766665 148.633663 
L 227.90843 148.633663 
L 227.90843 144.983762 
L 228.770126 144.983762 
L 228.801216 137.68396 
L 230.211415 137.68396 
L 230.211415 134.034059 
L 230.805522 134.034059 
L 230.805522 130.384158 
L 232.466885 130.384158 
L 232.466885 126.734257 
L 237.139044 126.734257 
L 237.139044 123.084356 
L 249.891847 123.084356 
L 249.891847 119.434455 
L 261.853467 119.434455 
L 261.853467 115.784554 
L 263.078701 115.784554 
L 263.078701 112.134653 
L 265.14324 112.134653 
L 265.14324 108.484752 
L 265.607428 108.484752 
L 265.607428 104.834851 
L 268.602077 104.834851 
L 268.602077 101.18495 
L 269.637129 101.18495 
L 269.637129 97.53505 
L 269.918412 97.53505 
L 269.918412 93.885149 
L 270.424625 93.885149 
L 270.424625 90.235248 
L 271.745322 90.235248 
L 271.745322 86.585347 
L 273.322294 86.585347 
L 273.322294 82.935446 
L 275.092639 82.935446 
L 275.161119 75.635644 
L 275.827807 75.635644 
L 275.827807 71.985743 
L 279.627584 71.985743 
L 279.627584 68.335842 
L 283.742725 68.335842 
L 283.742725 64.685941 
L 290.749345 64.685941 
L 290.749345 61.03604 
L 298.127103 61.03604 
L 298.127103 57.386139 
L 307.690538 57.386139 
L 307.690538 53.736238 
L 308.077509 53.736238 
L 308.077509 50.086337 
L 309.770711 50.086337 
L 309.770711 46.436436 
L 311.477273 46.436436 
L 311.477273 42.786535 
L 311.71398 42.786535 
L 311.71398 39.136634 
L 312.603008 39.136634 
L 312.603008 35.486733 
L 313.265602 35.486733 
L 313.265602 31.836832 
L 314.486903 31.836832 
L 314.486903 28.186931 
L 316.533353 28.186931 
L 316.533353 24.53703 
L 317.23879 24.53703 
L 317.23879 20.887129 
L 317.772264 20.887129 
L 317.772264 17.237228 
L 318.256616 17.237228 
L 318.256616 13.587327 
L 319.799731 13.587327 
L 319.799731 9.937426 
L 364.32 9.937426 
L 364.32 9.937426 
" style="fill:none;stroke:#bf00bf;stroke-linecap:square;"/>
   </g>
   <g id="patch_3">
    <path d="M 7.2 7.2 
L 364.32 7.2 
" style="fill:none;stroke:#000000;stroke-linecap:square;stroke-linejoin:miter;"/>
   </g>
   <g id="patch_4">
    <path d="M 364.32 283.68 
L 364.32 7.2 
" style="fill:none;stroke:#000000;stroke-linecap:square;stroke-linejoin:miter;"/>
   </g>
   <g id="patch_5">
    <path d="M 7.2 283.68 
L 364.32 283.68 
" style="fill:none;stroke:#000000;stroke-linecap:square;stroke-linejoin:miter;"/>
   </g>
   <g id="patch_6">
    <path d="M 7.2 283.68 
L 7.2 7.2 
" style="fill:none;stroke:#000000;stroke-linecap:square;stroke-linejoin:miter;"/>
   </g>
   <g id="matplotlib.axis_1">
    <g id="xtick_1">
     <g id="line2d_7">
      <path clip-path="url(#pf77def304b)" d="M 49.133998 283.68 
L 49.133998 7.2 
" style="fill:none;stroke:#000000;stroke-dasharray:1.000000,3.000000;stroke-dashoffset:0.0;stroke-width:0.5;"/>
     </g>
     <g id="line2d_8">
      <defs>
       <path d="M 0 0 
L 0 -4 
" id="m9b067e1803" style="stroke:#000000;stroke-width:0.5;"/>
      </defs>
      <g>
       <use style="stroke:#000000;stroke-width:0.5;" x="49.1339978514" xlink:href="#m9b067e1803" y="283.68"/>
      </g>
     </g>
     <g id="line2d_9">
      <defs>
       <path d="M 0 0 
L 0 4 
" id="m44e6210baa" style="stroke:#000000;stroke-width:0.5;"/>
      </defs>
      <g>
       <use style="stroke:#000000;stroke-width:0.5;" x="49.1339978514" xlink:href="#m44e6210baa" y="7.2"/>
      </g>
     </g>
     <g id="text_1">
      <!-- -6 -->
      <defs>
       <path d="M 33.015625 40.375 
Q 26.375 40.375 22.484375 35.828125 
Q 18.609375 31.296875 18.609375 23.390625 
Q 18.609375 15.53125 22.484375 10.953125 
Q 26.375 6.390625 33.015625 6.390625 
Q 39.65625 6.390625 43.53125 10.953125 
Q 47.40625 15.53125 47.40625 23.390625 
Q 47.40625 31.296875 43.53125 35.828125 
Q 39.65625 40.375 33.015625 40.375 
M 52.59375 71.296875 
L 52.59375 62.3125 
Q 48.875 64.0625 45.09375 64.984375 
Q 41.3125 65.921875 37.59375 65.921875 
Q 27.828125 65.921875 22.671875 59.328125 
Q 17.53125 52.734375 16.796875 39.40625 
Q 19.671875 43.65625 24.015625 45.921875 
Q 28.375 48.1875 33.59375 48.1875 
Q 44.578125 48.1875 50.953125 41.515625 
Q 57.328125 34.859375 57.328125 23.390625 
Q 57.328125 12.15625 50.6875 5.359375 
Q 44.046875 -1.421875 33.015625 -1.421875 
Q 20.359375 -1.421875 13.671875 8.265625 
Q 6.984375 17.96875 6.984375 36.375 
Q 6.984375 53.65625 15.1875 63.9375 
Q 23.390625 74.21875 37.203125 74.21875 
Q 40.921875 74.21875 44.703125 73.484375 
Q 48.484375 72.75 52.59375 71.296875 
" id="BitstreamVeraSans-Roman-36"/>
       <path d="M 4.890625 31.390625 
L 31.203125 31.390625 
L 31.203125 23.390625 
L 4.890625 23.390625 
z
" id="BitstreamVeraSans-Roman-2d"/>
      </defs>
      <g transform="translate(39.1636853514 302.876875)scale(0.2 -0.2)">
       <use xlink:href="#BitstreamVeraSans-Roman-2d"/>
       <use x="36.083984375" xlink:href="#BitstreamVeraSans-Roman-36"/>
      </g>
     </g>
    </g>
    <g id="xtick_2">
     <g id="line2d_10">
      <path clip-path="url(#pf77def304b)" d="M 91.158798 283.68 
L 91.158798 7.2 
" style="fill:none;stroke:#000000;stroke-dasharray:1.000000,3.000000;stroke-dashoffset:0.0;stroke-width:0.5;"/>
     </g>
     <g id="line2d_11">
      <g>
       <use style="stroke:#000000;stroke-width:0.5;" x="91.1587981379" xlink:href="#m9b067e1803" y="283.68"/>
      </g>
     </g>
     <g id="line2d_12">
      <g>
       <use style="stroke:#000000;stroke-width:0.5;" x="91.1587981379" xlink:href="#m44e6210baa" y="7.2"/>
      </g>
     </g>
     <g id="text_2">
      <!-- -4 -->
      <defs>
       <path d="M 37.796875 64.3125 
L 12.890625 25.390625 
L 37.796875 25.390625 
z
M 35.203125 72.90625 
L 47.609375 72.90625 
L 47.609375 25.390625 
L 58.015625 25.390625 
L 58.015625 17.1875 
L 47.609375 17.1875 
L 47.609375 0 
L 37.796875 0 
L 37.796875 17.1875 
L 4.890625 17.1875 
L 4.890625 26.703125 
z
" id="BitstreamVeraSans-Roman-34"/>
      </defs>
      <g transform="translate(81.1884856379 302.876875)scale(0.2 -0.2)">
       <use xlink:href="#BitstreamVeraSans-Roman-2d"/>
       <use x="36.083984375" xlink:href="#BitstreamVeraSans-Roman-34"/>
      </g>
     </g>
    </g>
    <g id="xtick_3">
     <g id="line2d_13">
      <path clip-path="url(#pf77def304b)" d="M 133.183598 283.68 
L 133.183598 7.2 
" style="fill:none;stroke:#000000;stroke-dasharray:1.000000,3.000000;stroke-dashoffset:0.0;stroke-width:0.5;"/>
     </g>
     <g id="line2d_14">
      <g>
       <use style="stroke:#000000;stroke-width:0.5;" x="133.183598424" xlink:href="#m9b067e1803" y="283.68"/>
      </g>
     </g>
     <g id="line2d_15">
      <g>
       <use style="stroke:#000000;stroke-width:0.5;" x="133.183598424" xlink:href="#m44e6210baa" y="7.2"/>
      </g>
     </g>
     <g id="text_3">
      <!-- -2 -->
      <defs>
       <path d="M 19.1875 8.296875 
L 53.609375 8.296875 
L 53.609375 0 
L 7.328125 0 
L 7.328125 8.296875 
Q 12.9375 14.109375 22.625 23.890625 
Q 32.328125 33.6875 34.8125 36.53125 
Q 39.546875 41.84375 41.421875 45.53125 
Q 43.3125 49.21875 43.3125 52.78125 
Q 43.3125 58.59375 39.234375 62.25 
Q 35.15625 65.921875 28.609375 65.921875 
Q 23.96875 65.921875 18.8125 64.3125 
Q 13.671875 62.703125 7.8125 59.421875 
L 7.8125 69.390625 
Q 13.765625 71.78125 18.9375 73 
Q 24.125 74.21875 28.421875 74.21875 
Q 39.75 74.21875 46.484375 68.546875 
Q 53.21875 62.890625 53.21875 53.421875 
Q 53.21875 48.921875 51.53125 44.890625 
Q 49.859375 40.875 45.40625 35.40625 
Q 44.1875 33.984375 37.640625 27.21875 
Q 31.109375 20.453125 19.1875 8.296875 
" id="BitstreamVeraSans-Roman-32"/>
      </defs>
      <g transform="translate(123.213285924 302.876875)scale(0.2 -0.2)">
       <use xlink:href="#BitstreamVeraSans-Roman-2d"/>
       <use x="36.083984375" xlink:href="#BitstreamVeraSans-Roman-32"/>
      </g>
     </g>
    </g>
    <g id="xtick_4">
     <g id="line2d_16">
      <path clip-path="url(#pf77def304b)" d="M 175.208399 283.68 
L 175.208399 7.2 
" style="fill:none;stroke:#000000;stroke-dasharray:1.000000,3.000000;stroke-dashoffset:0.0;stroke-width:0.5;"/>
     </g>
     <g id="line2d_17">
      <g>
       <use style="stroke:#000000;stroke-width:0.5;" x="175.208398711" xlink:href="#m9b067e1803" y="283.68"/>
      </g>
     </g>
     <g id="line2d_18">
      <g>
       <use style="stroke:#000000;stroke-width:0.5;" x="175.208398711" xlink:href="#m44e6210baa" y="7.2"/>
      </g>
     </g>
     <g id="text_4">
      <!-- 0 -->
      <defs>
       <path d="M 31.78125 66.40625 
Q 24.171875 66.40625 20.328125 58.90625 
Q 16.5 51.421875 16.5 36.375 
Q 16.5 21.390625 20.328125 13.890625 
Q 24.171875 6.390625 31.78125 6.390625 
Q 39.453125 6.390625 43.28125 13.890625 
Q 47.125 21.390625 47.125 36.375 
Q 47.125 51.421875 43.28125 58.90625 
Q 39.453125 66.40625 31.78125 66.40625 
M 31.78125 74.21875 
Q 44.046875 74.21875 50.515625 64.515625 
Q 56.984375 54.828125 56.984375 36.375 
Q 56.984375 17.96875 50.515625 8.265625 
Q 44.046875 -1.421875 31.78125 -1.421875 
Q 19.53125 -1.421875 13.0625 8.265625 
Q 6.59375 17.96875 6.59375 36.375 
Q 6.59375 54.828125 13.0625 64.515625 
Q 19.53125 74.21875 31.78125 74.21875 
" id="BitstreamVeraSans-Roman-30"/>
      </defs>
      <g transform="translate(168.845898711 302.876875)scale(0.2 -0.2)">
       <use xlink:href="#BitstreamVeraSans-Roman-30"/>
      </g>
     </g>
    </g>
    <g id="xtick_5">
     <g id="line2d_19">
      <path clip-path="url(#pf77def304b)" d="M 217.233199 283.68 
L 217.233199 7.2 
" style="fill:none;stroke:#000000;stroke-dasharray:1.000000,3.000000;stroke-dashoffset:0.0;stroke-width:0.5;"/>
     </g>
     <g id="line2d_20">
      <g>
       <use style="stroke:#000000;stroke-width:0.5;" x="217.233198997" xlink:href="#m9b067e1803" y="283.68"/>
      </g>
     </g>
     <g id="line2d_21">
      <g>
       <use style="stroke:#000000;stroke-width:0.5;" x="217.233198997" xlink:href="#m44e6210baa" y="7.2"/>
      </g>
     </g>
     <g id="text_5">
      <!-- 2 -->
      <g transform="translate(210.870698997 302.876875)scale(0.2 -0.2)">
       <use xlink:href="#BitstreamVeraSans-Roman-32"/>
      </g>
     </g>
    </g>
    <g id="xtick_6">
     <g id="line2d_22">
      <path clip-path="url(#pf77def304b)" d="M 259.257999 283.68 
L 259.257999 7.2 
" style="fill:none;stroke:#000000;stroke-dasharray:1.000000,3.000000;stroke-dashoffset:0.0;stroke-width:0.5;"/>
     </g>
     <g id="line2d_23">
      <g>
       <use style="stroke:#000000;stroke-width:0.5;" x="259.257999284" xlink:href="#m9b067e1803" y="283.68"/>
      </g>
     </g>
     <g id="line2d_24">
      <g>
       <use style="stroke:#000000;stroke-width:0.5;" x="259.257999284" xlink:href="#m44e6210baa" y="7.2"/>
      </g>
     </g>
     <g id="text_6">
      <!-- 4 -->
      <g transform="translate(252.895499284 302.876875)scale(0.2 -0.2)">
       <use xlink:href="#BitstreamVeraSans-Roman-34"/>
      </g>
     </g>
    </g>
    <g id="xtick_7">
     <g id="line2d_25">
      <path clip-path="url(#pf77def304b)" d="M 301.2828 283.68 
L 301.2828 7.2 
" style="fill:none;stroke:#000000;stroke-dasharray:1.000000,3.000000;stroke-dashoffset:0.0;stroke-width:0.5;"/>
     </g>
     <g id="line2d_26">
      <g>
       <use style="stroke:#000000;stroke-width:0.5;" x="301.28279957" xlink:href="#m9b067e1803" y="283.68"/>
      </g>
     </g>
     <g id="line2d_27">
      <g>
       <use style="stroke:#000000;stroke-width:0.5;" x="301.28279957" xlink:href="#m44e6210baa" y="7.2"/>
      </g>
     </g>
     <g id="text_7">
      <!-- 6 -->
      <g transform="translate(294.92029957 302.876875)scale(0.2 -0.2)">
       <use xlink:href="#BitstreamVeraSans-Roman-36"/>
      </g>
     </g>
    </g>
    <g id="xtick_8">
     <g id="line2d_28">
      <path clip-path="url(#pf77def304b)" d="M 343.3076 283.68 
L 343.3076 7.2 
" style="fill:none;stroke:#000000;stroke-dasharray:1.000000,3.000000;stroke-dashoffset:0.0;stroke-width:0.5;"/>
     </g>
     <g id="line2d_29">
      <g>
       <use style="stroke:#000000;stroke-width:0.5;" x="343.307599857" xlink:href="#m9b067e1803" y="283.68"/>
      </g>
     </g>
     <g id="line2d_30">
      <g>
       <use style="stroke:#000000;stroke-width:0.5;" x="343.307599857" xlink:href="#m44e6210baa" y="7.2"/>
      </g>
     </g>
     <g id="text_8">
      <!-- 8 -->
      <defs>
       <path d="M 31.78125 34.625 
Q 24.75 34.625 20.71875 30.859375 
Q 16.703125 27.09375 16.703125 20.515625 
Q 16.703125 13.921875 20.71875 10.15625 
Q 24.75 6.390625 31.78125 6.390625 
Q 38.8125 6.390625 42.859375 10.171875 
Q 46.921875 13.96875 46.921875 20.515625 
Q 46.921875 27.09375 42.890625 30.859375 
Q 38.875 34.625 31.78125 34.625 
M 21.921875 38.8125 
Q 15.578125 40.375 12.03125 44.71875 
Q 8.5 49.078125 8.5 55.328125 
Q 8.5 64.0625 14.71875 69.140625 
Q 20.953125 74.21875 31.78125 74.21875 
Q 42.671875 74.21875 48.875 69.140625 
Q 55.078125 64.0625 55.078125 55.328125 
Q 55.078125 49.078125 51.53125 44.71875 
Q 48 40.375 41.703125 38.8125 
Q 48.828125 37.15625 52.796875 32.3125 
Q 56.78125 27.484375 56.78125 20.515625 
Q 56.78125 9.90625 50.3125 4.234375 
Q 43.84375 -1.421875 31.78125 -1.421875 
Q 19.734375 -1.421875 13.25 4.234375 
Q 6.78125 9.90625 6.78125 20.515625 
Q 6.78125 27.484375 10.78125 32.3125 
Q 14.796875 37.15625 21.921875 38.8125 
M 18.3125 54.390625 
Q 18.3125 48.734375 21.84375 45.5625 
Q 25.390625 42.390625 31.78125 42.390625 
Q 38.140625 42.390625 41.71875 45.5625 
Q 45.3125 48.734375 45.3125 54.390625 
Q 45.3125 60.0625 41.71875 63.234375 
Q 38.140625 66.40625 31.78125 66.40625 
Q 25.390625 66.40625 21.84375 63.234375 
Q 18.3125 60.0625 18.3125 54.390625 
" id="BitstreamVeraSans-Roman-38"/>
      </defs>
      <g transform="translate(336.945099857 302.876875)scale(0.2 -0.2)">
       <use xlink:href="#BitstreamVeraSans-Roman-38"/>
      </g>
     </g>
    </g>
    <g id="xtick_9">
     <g id="line2d_31">
      <defs>
       <path d="M 0 0 
L 0 -2 
" id="m7327a36ec4" style="stroke:#000000;stroke-width:0.5;"/>
      </defs>
      <g>
       <use style="stroke:#000000;stroke-width:0.5;" x="49.1339978514" xlink:href="#m7327a36ec4" y="283.68"/>
      </g>
     </g>
     <g id="line2d_32">
      <defs>
       <path d="M 0 0 
L 0 2 
" id="m628cbaa304" style="stroke:#000000;stroke-width:0.5;"/>
      </defs>
      <g>
       <use style="stroke:#000000;stroke-width:0.5;" x="49.1339978514" xlink:href="#m628cbaa304" y="7.2"/>
      </g>
     </g>
    </g>
    <g id="xtick_10">
     <g id="line2d_33">
      <g>
       <use style="stroke:#000000;stroke-width:0.5;" x="91.1587981379" xlink:href="#m7327a36ec4" y="283.68"/>
      </g>
     </g>
     <g id="line2d_34">
      <g>
       <use style="stroke:#000000;stroke-width:0.5;" x="91.1587981379" xlink:href="#m628cbaa304" y="7.2"/>
      </g>
     </g>
    </g>
    <g id="xtick_11">
     <g id="line2d_35">
      <g>
       <use style="stroke:#000000;stroke-width:0.5;" x="133.183598424" xlink:href="#m7327a36ec4" y="283.68"/>
      </g>
     </g>
     <g id="line2d_36">
      <g>
       <use style="stroke:#000000;stroke-width:0.5;" x="133.183598424" xlink:href="#m628cbaa304" y="7.2"/>
      </g>
     </g>
    </g>
    <g id="xtick_12">
     <g id="line2d_37">
      <g>
       <use style="stroke:#000000;stroke-width:0.5;" x="175.208398711" xlink:href="#m7327a36ec4" y="283.68"/>
      </g>
     </g>
     <g id="line2d_38">
      <g>
       <use style="stroke:#000000;stroke-width:0.5;" x="175.208398711" xlink:href="#m628cbaa304" y="7.2"/>
      </g>
     </g>
    </g>
    <g id="xtick_13">
     <g id="line2d_39">
      <g>
       <use style="stroke:#000000;stroke-width:0.5;" x="217.233198997" xlink:href="#m7327a36ec4" y="283.68"/>
      </g>
     </g>
     <g id="line2d_40">
      <g>
       <use style="stroke:#000000;stroke-width:0.5;" x="217.233198997" xlink:href="#m628cbaa304" y="7.2"/>
      </g>
     </g>
    </g>
    <g id="xtick_14">
     <g id="line2d_41">
      <g>
       <use style="stroke:#000000;stroke-width:0.5;" x="259.257999284" xlink:href="#m7327a36ec4" y="283.68"/>
      </g>
     </g>
     <g id="line2d_42">
      <g>
       <use style="stroke:#000000;stroke-width:0.5;" x="259.257999284" xlink:href="#m628cbaa304" y="7.2"/>
      </g>
     </g>
    </g>
    <g id="xtick_15">
     <g id="line2d_43">
      <g>
       <use style="stroke:#000000;stroke-width:0.5;" x="301.28279957" xlink:href="#m7327a36ec4" y="283.68"/>
      </g>
     </g>
     <g id="line2d_44">
      <g>
       <use style="stroke:#000000;stroke-width:0.5;" x="301.28279957" xlink:href="#m628cbaa304" y="7.2"/>
      </g>
     </g>
    </g>
    <g id="xtick_16">
     <g id="line2d_45">
      <g>
       <use style="stroke:#000000;stroke-width:0.5;" x="343.307599857" xlink:href="#m7327a36ec4" y="283.68"/>
      </g>
     </g>
     <g id="line2d_46">
      <g>
       <use style="stroke:#000000;stroke-width:0.5;" x="343.307599857" xlink:href="#m628cbaa304" y="7.2"/>
      </g>
     </g>
    </g>
    <g id="text_9">
     <!-- log10 of Df -->
     <defs>
      <path id="BitstreamVeraSans-Roman-20"/>
      <path d="M 12.40625 8.296875 
L 28.515625 8.296875 
L 28.515625 63.921875 
L 10.984375 60.40625 
L 10.984375 69.390625 
L 28.421875 72.90625 
L 38.28125 72.90625 
L 38.28125 8.296875 
L 54.390625 8.296875 
L 54.390625 0 
L 12.40625 0 
z
" id="BitstreamVeraSans-Roman-31"/>
      <path d="M 30.609375 48.390625 
Q 23.390625 48.390625 19.1875 42.75 
Q 14.984375 37.109375 14.984375 27.296875 
Q 14.984375 17.484375 19.15625 11.84375 
Q 23.34375 6.203125 30.609375 6.203125 
Q 37.796875 6.203125 41.984375 11.859375 
Q 46.1875 17.53125 46.1875 27.296875 
Q 46.1875 37.015625 41.984375 42.703125 
Q 37.796875 48.390625 30.609375 48.390625 
M 30.609375 56 
Q 42.328125 56 49.015625 48.375 
Q 55.71875 40.765625 55.71875 27.296875 
Q 55.71875 13.875 49.015625 6.21875 
Q 42.328125 -1.421875 30.609375 -1.421875 
Q 18.84375 -1.421875 12.171875 6.21875 
Q 5.515625 13.875 5.515625 27.296875 
Q 5.515625 40.765625 12.171875 48.375 
Q 18.84375 56 30.609375 56 
" id="BitstreamVeraSans-Roman-6f"/>
      <path d="M 9.421875 75.984375 
L 18.40625 75.984375 
L 18.40625 0 
L 9.421875 0 
z
" id="BitstreamVeraSans-Roman-6c"/>
      <path d="M 19.671875 64.796875 
L 19.671875 8.109375 
L 31.59375 8.109375 
Q 46.6875 8.109375 53.6875 14.9375 
Q 60.6875 21.78125 60.6875 36.53125 
Q 60.6875 51.171875 53.6875 57.984375 
Q 46.6875 64.796875 31.59375 64.796875 
z
M 9.8125 72.90625 
L 30.078125 72.90625 
Q 51.265625 72.90625 61.171875 64.09375 
Q 71.09375 55.28125 71.09375 36.53125 
Q 71.09375 17.671875 61.125 8.828125 
Q 51.171875 0 30.078125 0 
L 9.8125 0 
z
" id="BitstreamVeraSans-Roman-44"/>
      <path d="M 45.40625 27.984375 
Q 45.40625 37.75 41.375 43.109375 
Q 37.359375 48.484375 30.078125 48.484375 
Q 22.859375 48.484375 18.828125 43.109375 
Q 14.796875 37.75 14.796875 27.984375 
Q 14.796875 18.265625 18.828125 12.890625 
Q 22.859375 7.515625 30.078125 7.515625 
Q 37.359375 7.515625 41.375 12.890625 
Q 45.40625 18.265625 45.40625 27.984375 
M 54.390625 6.78125 
Q 54.390625 -7.171875 48.1875 -13.984375 
Q 42 -20.796875 29.203125 -20.796875 
Q 24.46875 -20.796875 20.265625 -20.09375 
Q 16.0625 -19.390625 12.109375 -17.921875 
L 12.109375 -9.1875 
Q 16.0625 -11.328125 19.921875 -12.34375 
Q 23.78125 -13.375 27.78125 -13.375 
Q 36.625 -13.375 41.015625 -8.765625 
Q 45.40625 -4.15625 45.40625 5.171875 
L 45.40625 9.625 
Q 42.625 4.78125 38.28125 2.390625 
Q 33.9375 0 27.875 0 
Q 17.828125 0 11.671875 7.65625 
Q 5.515625 15.328125 5.515625 27.984375 
Q 5.515625 40.671875 11.671875 48.328125 
Q 17.828125 56 27.875 56 
Q 33.9375 56 38.28125 53.609375 
Q 42.625 51.21875 45.40625 46.390625 
L 45.40625 54.6875 
L 54.390625 54.6875 
z
" id="BitstreamVeraSans-Roman-67"/>
      <path d="M 37.109375 75.984375 
L 37.109375 68.5 
L 28.515625 68.5 
Q 23.6875 68.5 21.796875 66.546875 
Q 19.921875 64.59375 19.921875 59.515625 
L 19.921875 54.6875 
L 34.71875 54.6875 
L 34.71875 47.703125 
L 19.921875 47.703125 
L 19.921875 0 
L 10.890625 0 
L 10.890625 47.703125 
L 2.296875 47.703125 
L 2.296875 54.6875 
L 10.890625 54.6875 
L 10.890625 58.5 
Q 10.890625 67.625 15.140625 71.796875 
Q 19.390625 75.984375 28.609375 75.984375 
z
" id="BitstreamVeraSans-Roman-66"/>
     </defs>
     <g transform="translate(130.5740625 327.233125)scale(0.2 -0.2)">
      <use xlink:href="#BitstreamVeraSans-Roman-6c"/>
      <use x="27.783203125" xlink:href="#BitstreamVeraSans-Roman-6f"/>
      <use x="88.96484375" xlink:href="#BitstreamVeraSans-Roman-67"/>
      <use x="152.44140625" xlink:href="#BitstreamVeraSans-Roman-31"/>
      <use x="216.064453125" xlink:href="#BitstreamVeraSans-Roman-30"/>
      <use x="279.6875" xlink:href="#BitstreamVeraSans-Roman-20"/>
      <use x="311.474609375" xlink:href="#BitstreamVeraSans-Roman-6f"/>
      <use x="372.65625" xlink:href="#BitstreamVeraSans-Roman-66"/>
      <use x="407.861328125" xlink:href="#BitstreamVeraSans-Roman-20"/>
      <use x="439.6484375" xlink:href="#BitstreamVeraSans-Roman-44"/>
      <use x="516.650390625" xlink:href="#BitstreamVeraSans-Roman-66"/>
     </g>
    </g>
   </g>
   <g id="matplotlib.axis_2">
    <g id="ytick_1">
     <g id="line2d_47">
      <path clip-path="url(#pf77def304b)" d="M 7.2 283.68 
L 364.32 283.68 
" style="fill:none;stroke:#000000;stroke-dasharray:1.000000,3.000000;stroke-dashoffset:0.0;stroke-width:0.5;"/>
     </g>
     <g id="line2d_48">
      <defs>
       <path d="M 0 0 
L 4 0 
" id="mcd5ce08b10" style="stroke:#000000;stroke-width:0.5;"/>
      </defs>
      <g>
       <use style="stroke:#000000;stroke-width:0.5;" x="7.2" xlink:href="#mcd5ce08b10" y="283.68"/>
      </g>
     </g>
     <g id="line2d_49">
      <defs>
       <path d="M 0 0 
L -4 0 
" id="ma628bc5ce7" style="stroke:#000000;stroke-width:0.5;"/>
      </defs>
      <g>
       <use style="stroke:#000000;stroke-width:0.5;" x="364.32" xlink:href="#ma628bc5ce7" y="283.68"/>
      </g>
     </g>
    </g>
    <g id="ytick_2">
     <g id="line2d_50">
      <path clip-path="url(#pf77def304b)" d="M 7.2 228.931485 
L 364.32 228.931485 
" style="fill:none;stroke:#000000;stroke-dasharray:1.000000,3.000000;stroke-dashoffset:0.0;stroke-width:0.5;"/>
     </g>
     <g id="line2d_51">
      <g>
       <use style="stroke:#000000;stroke-width:0.5;" x="7.2" xlink:href="#mcd5ce08b10" y="228.931485149"/>
      </g>
     </g>
     <g id="line2d_52">
      <g>
       <use style="stroke:#000000;stroke-width:0.5;" x="364.32" xlink:href="#ma628bc5ce7" y="228.931485149"/>
      </g>
     </g>
    </g>
    <g id="ytick_3">
     <g id="line2d_53">
      <path clip-path="url(#pf77def304b)" d="M 7.2 174.18297 
L 364.32 174.18297 
" style="fill:none;stroke:#000000;stroke-dasharray:1.000000,3.000000;stroke-dashoffset:0.0;stroke-width:0.5;"/>
     </g>
     <g id="line2d_54">
      <g>
       <use style="stroke:#000000;stroke-width:0.5;" x="7.2" xlink:href="#mcd5ce08b10" y="174.182970297"/>
      </g>
     </g>
     <g id="line2d_55">
      <g>
       <use style="stroke:#000000;stroke-width:0.5;" x="364.32" xlink:href="#ma628bc5ce7" y="174.182970297"/>
      </g>
     </g>
    </g>
    <g id="ytick_4">
     <g id="line2d_56">
      <path clip-path="url(#pf77def304b)" d="M 7.2 119.434455 
L 364.32 119.434455 
" style="fill:none;stroke:#000000;stroke-dasharray:1.000000,3.000000;stroke-dashoffset:0.0;stroke-width:0.5;"/>
     </g>
     <g id="line2d_57">
      <g>
       <use style="stroke:#000000;stroke-width:0.5;" x="7.2" xlink:href="#mcd5ce08b10" y="119.434455446"/>
      </g>
     </g>
     <g id="line2d_58">
      <g>
       <use style="stroke:#000000;stroke-width:0.5;" x="364.32" xlink:href="#ma628bc5ce7" y="119.434455446"/>
      </g>
     </g>
    </g>
    <g id="ytick_5">
     <g id="line2d_59">
      <path clip-path="url(#pf77def304b)" d="M 7.2 64.685941 
L 364.32 64.685941 
" style="fill:none;stroke:#000000;stroke-dasharray:1.000000,3.000000;stroke-dashoffset:0.0;stroke-width:0.5;"/>
     </g>
     <g id="line2d_60">
      <g>
       <use style="stroke:#000000;stroke-width:0.5;" x="7.2" xlink:href="#mcd5ce08b10" y="64.6859405941"/>
      </g>
     </g>
     <g id="line2d_61">
      <g>
       <use style="stroke:#000000;stroke-width:0.5;" x="364.32" xlink:href="#ma628bc5ce7" y="64.6859405941"/>
      </g>
     </g>
    </g>
    <g id="ytick_6">
     <g id="line2d_62">
      <path clip-path="url(#pf77def304b)" d="M 7.2 9.937426 
L 364.32 9.937426 
" style="fill:none;stroke:#000000;stroke-dasharray:1.000000,3.000000;stroke-dashoffset:0.0;stroke-width:0.5;"/>
     </g>
     <g id="line2d_63">
      <g>
       <use style="stroke:#000000;stroke-width:0.5;" x="7.2" xlink:href="#mcd5ce08b10" y="9.93742574257"/>
      </g>
     </g>
     <g id="line2d_64">
      <g>
       <use style="stroke:#000000;stroke-width:0.5;" x="364.32" xlink:href="#ma628bc5ce7" y="9.93742574257"/>
      </g>
     </g>
    </g>
   </g>
   <g id="text_10">
    <!-- f10-14,5-D -->
    <defs>
     <path d="M 11.71875 12.40625 
L 22.015625 12.40625 
L 22.015625 4 
L 14.015625 -11.625 
L 7.71875 -11.625 
L 11.71875 4 
z
" id="BitstreamVeraSans-Roman-2c"/>
     <path d="M 10.796875 72.90625 
L 49.515625 72.90625 
L 49.515625 64.59375 
L 19.828125 64.59375 
L 19.828125 46.734375 
Q 21.96875 47.46875 24.109375 47.828125 
Q 26.265625 48.1875 28.421875 48.1875 
Q 40.625 48.1875 47.75 41.5 
Q 54.890625 34.8125 54.890625 23.390625 
Q 54.890625 11.625 47.5625 5.09375 
Q 40.234375 -1.421875 26.90625 -1.421875 
Q 22.3125 -1.421875 17.546875 -0.640625 
Q 12.796875 0.140625 7.71875 1.703125 
L 7.71875 11.625 
Q 12.109375 9.234375 16.796875 8.0625 
Q 21.484375 6.890625 26.703125 6.890625 
Q 35.15625 6.890625 40.078125 11.328125 
Q 45.015625 15.765625 45.015625 23.390625 
Q 45.015625 31 40.078125 35.4375 
Q 35.15625 39.890625 26.703125 39.890625 
Q 22.75 39.890625 18.8125 39.015625 
Q 14.890625 38.140625 10.796875 36.28125 
z
" id="BitstreamVeraSans-Roman-35"/>
    </defs>
    <g transform="translate(250.324475 278.1504)scale(0.2 -0.2)">
     <use xlink:href="#BitstreamVeraSans-Roman-66"/>
     <use x="35.205078125" xlink:href="#BitstreamVeraSans-Roman-31"/>
     <use x="98.828125" xlink:href="#BitstreamVeraSans-Roman-30"/>
     <use x="162.451171875" xlink:href="#BitstreamVeraSans-Roman-2d"/>
     <use x="198.53515625" xlink:href="#BitstreamVeraSans-Roman-31"/>
     <use x="262.158203125" xlink:href="#BitstreamVeraSans-Roman-34"/>
     <use x="325.78125" xlink:href="#BitstreamVeraSans-Roman-2c"/>
     <use x="357.568359375" xlink:href="#BitstreamVeraSans-Roman-35"/>
     <use x="421.19140625" xlink:href="#BitstreamVeraSans-Roman-2d"/>
     <use x="457.275390625" xlink:href="#BitstreamVeraSans-Roman-44"/>
    </g>
   </g>
  </g>
 </g>
 <defs>
  <clipPath id="pf77def304b">
   <rect height="276.48" width="357.12" x="7.2" y="7.2"/>
  </clipPath>
 </defs>
</svg>
