<?xml version="1.0" encoding="utf-8" standalone="no"?>
<!DOCTYPE svg PUBLIC "-//W3C//DTD SVG 1.1//EN"
  "http://www.w3.org/Graphics/SVG/1.1/DTD/svg11.dtd">
<!-- Created with matplotlib (http://matplotlib.org/) -->
<svg height="338pt" version="1.1" viewBox="0 0 371 338" width="371pt" xmlns="http://www.w3.org/2000/svg" xmlns:xlink="http://www.w3.org/1999/xlink">
 <defs>
  <style type="text/css">
*{stroke-linecap:butt;stroke-linejoin:round;stroke-miterlimit:100000;}
  </style>
 </defs>
 <g id="figure_1">
  <g id="patch_1">
   <path d="M 0 338.5925 
L 371.52 338.5925 
L 371.52 0 
L 0 0 
z
" style="fill:#ffffff;"/>
  </g>
  <g id="axes_1">
   <g id="patch_2">
    <path d="M 7.2 283.68 
L 364.32 283.68 
L 364.32 7.2 
L 7.2 7.2 
z
" style="fill:#ffffff;"/>
   </g>
   <g id="line2d_1">
    <path clip-path="url(#p256acdb6fb)" d="M 204.429027 283.68 
L 204.429027 280.030099 
L 204.557872 280.030099 
L 204.557872 276.380198 
L 205.14513 276.380198 
L 205.14513 272.730297 
L 205.281741 272.730297 
L 205.353239 265.430495 
L 205.492267 265.430495 
L 205.589249 254.480792 
L 205.744749 254.480792 
L 205.744749 250.830891 
L 205.980759 250.830891 
L 206.064788 243.531089 
L 206.110766 243.531089 
L 206.158717 236.231287 
L 206.385434 236.231287 
L 206.385434 232.581386 
L 207.565968 232.581386 
L 207.565968 228.931485 
L 209.661557 228.931485 
L 209.661557 225.281584 
L 209.983167 225.281584 
L 210.041309 217.981782 
L 211.323934 217.981782 
L 211.323934 214.331881 
L 211.501383 214.331881 
L 211.569864 203.382178 
L 211.677683 203.382178 
L 211.677683 199.732277 
L 211.856526 199.732277 
L 211.856526 196.082376 
L 212.347855 196.082376 
L 212.419011 188.782574 
L 212.688745 188.782574 
L 212.688745 185.132673 
L 212.868815 185.132673 
L 212.945281 177.832871 
L 213.182895 177.832871 
L 213.182895 174.18297 
L 219.251262 174.18297 
L 219.277571 166.883168 
L 219.799871 166.883168 
L 219.799871 163.233267 
L 220.028544 163.233267 
L 220.028544 159.583366 
L 220.461657 159.583366 
L 220.461657 155.933465 
L 220.61525 155.933465 
L 220.61525 152.283564 
L 220.775554 152.283564 
L 220.848004 144.983762 
L 220.921676 144.983762 
L 220.921676 141.333861 
L 221.189218 141.333861 
L 221.189218 137.68396 
L 221.324531 137.68396 
L 221.324531 134.034059 
L 221.559922 134.034059 
L 221.584239 126.734257 
L 221.968068 126.734257 
L 221.968068 123.084356 
L 222.244476 123.084356 
L 222.244476 119.434455 
L 222.740332 119.434455 
L 222.788735 108.484752 
L 223.134203 108.484752 
L 223.134203 104.834851 
L 223.267725 104.834851 
L 223.360737 93.885149 
L 223.512127 93.885149 
L 223.601741 86.585347 
L 223.833043 86.585347 
L 223.833043 82.935446 
L 224.30176 82.935446 
L 224.30176 79.285545 
L 224.445913 79.285545 
L 224.503216 71.985743 
L 224.817606 71.985743 
L 224.817606 68.335842 
L 225.013019 68.335842 
L 225.013019 64.685941 
L 285.060157 64.685941 
L 285.060157 61.03604 
L 285.984506 61.03604 
L 285.984506 57.386139 
L 286.13081 57.386139 
L 286.13081 53.736238 
L 286.612533 53.736238 
L 286.612533 50.086337 
L 286.99381 50.086337 
L 286.99381 46.436436 
L 287.186365 46.436436 
L 287.186365 42.786535 
L 287.361534 42.786535 
L 287.361534 39.136634 
L 287.822919 39.136634 
L 287.904457 31.836832 
L 289.338056 31.836832 
L 289.338056 28.186931 
L 291.936155 28.186931 
L 291.936155 24.53703 
L 292.227094 24.53703 
L 292.227094 20.887129 
L 292.94046 20.887129 
L 292.94046 17.237228 
L 295.89488 17.237228 
L 295.89488 13.587327 
L 296.799893 13.587327 
L 296.799893 9.937426 
L 364.32 9.937426 
L 364.32 9.937426 
" style="fill:none;stroke:#ff0000;stroke-linecap:square;stroke-width:3.0;"/>
   </g>
   <g id="line2d_2">
    <path clip-path="url(#p256acdb6fb)" d="M 207.571937 283.68 
L 207.571937 280.030099 
L 207.932811 280.030099 
L 207.932811 276.380198 
L 208.219597 276.380198 
L 208.219597 272.730297 
L 208.845443 272.730297 
L 208.845443 269.080396 
L 209.634928 269.080396 
L 209.652025 261.780594 
L 209.750129 261.780594 
L 209.838925 254.480792 
L 210.327525 254.480792 
L 210.327525 250.830891 
L 210.476377 250.830891 
L 210.476377 247.18099 
L 210.834043 247.18099 
L 210.894438 239.881188 
L 211.799439 239.881188 
L 211.799439 236.231287 
L 212.075274 236.231287 
L 212.075274 232.581386 
L 213.808787 232.581386 
L 213.860327 225.281584 
L 214.261061 225.281584 
L 214.348376 214.331881 
L 214.434153 214.331881 
L 214.434153 210.68198 
L 214.871343 210.68198 
L 214.920456 203.382178 
L 215.099111 203.382178 
L 215.099111 199.732277 
L 215.264199 199.732277 
L 215.264199 196.082376 
L 215.467326 196.082376 
L 215.467326 192.432475 
L 215.956216 192.432475 
L 215.956216 188.782574 
L 216.578875 188.782574 
L 216.645737 177.832871 
L 217.198479 177.832871 
L 217.198479 174.18297 
L 220.730803 174.18297 
L 220.730803 170.533069 
L 221.686083 170.533069 
L 221.686083 166.883168 
L 222.027685 166.883168 
L 222.116338 159.583366 
L 222.544712 159.583366 
L 222.544712 155.933465 
L 223.346643 155.933465 
L 223.346643 152.283564 
L 223.614123 152.283564 
L 223.614123 148.633663 
L 224.610594 148.633663 
L 224.610594 144.983762 
L 224.881576 144.983762 
L 224.881576 141.333861 
L 225.008176 141.333861 
L 225.008176 137.68396 
L 225.652034 137.68396 
L 225.652034 134.034059 
L 225.890572 134.034059 
L 225.890572 130.384158 
L 226.033055 130.384158 
L 226.128159 119.434455 
L 226.387611 119.434455 
L 226.388781 112.134653 
L 226.936812 112.134653 
L 227.01319 104.834851 
L 227.25437 104.834851 
L 227.25437 101.18495 
L 227.696205 101.18495 
L 227.805513 90.235248 
L 227.92322 90.235248 
L 227.92322 86.585347 
L 228.523689 86.585347 
L 228.523689 82.935446 
L 229.146386 82.935446 
L 229.146386 79.285545 
L 229.742069 79.285545 
L 229.742069 75.635644 
L 231.807551 75.635644 
L 231.807551 71.985743 
L 233.771597 71.985743 
L 233.771597 68.335842 
L 236.256895 68.335842 
L 236.256895 64.685941 
L 293.060028 64.685941 
L 293.060028 61.03604 
L 297.074913 61.03604 
L 297.11849 53.736238 
L 301.503819 53.736238 
L 301.503819 50.086337 
L 301.737663 50.086337 
L 301.737663 46.436436 
L 302.02912 46.436436 
L 302.124021 35.486733 
L 302.252156 35.486733 
L 302.331989 28.186931 
L 303.412354 28.186931 
L 303.493422 20.887129 
L 303.830595 20.887129 
L 303.886726 13.587327 
L 304.516309 13.587327 
L 304.516309 9.937426 
L 364.32 9.937426 
L 364.32 9.937426 
" style="fill:none;stroke:#00bfbf;stroke-linecap:square;"/>
   </g>
   <g id="line2d_3">
    <path clip-path="url(#p256acdb6fb)" d="M 206.787491 283.68 
L 206.787491 280.030099 
L 207.108793 280.030099 
L 207.108793 276.380198 
L 207.566168 276.380198 
L 207.653525 265.430495 
L 207.932811 265.430495 
L 207.932811 261.780594 
L 208.239085 261.780594 
L 208.239085 258.130693 
L 208.845443 258.130693 
L 208.845443 254.480792 
L 209.3738 254.480792 
L 209.3738 250.830891 
L 209.630326 250.830891 
L 209.668517 243.531089 
L 209.838925 243.531089 
L 209.838925 239.881188 
L 210.109653 239.881188 
L 210.109653 236.231287 
L 210.327525 236.231287 
L 210.327525 232.581386 
L 212.075274 232.581386 
L 212.075274 228.931485 
L 213.512378 228.931485 
L 213.512378 225.281584 
L 213.789191 225.281584 
L 213.808787 217.981782 
L 214.261061 217.981782 
L 214.348376 210.68198 
L 214.434153 210.68198 
L 214.434153 207.032079 
L 214.655256 207.032079 
L 214.655256 203.382178 
L 214.833533 203.382178 
L 214.87387 192.432475 
L 215.099111 192.432475 
L 215.099111 188.782574 
L 215.264199 188.782574 
L 215.264199 185.132673 
L 215.467326 185.132673 
L 215.542849 177.832871 
L 215.725477 177.832871 
L 215.725477 174.18297 
L 220.385153 174.18297 
L 220.385153 170.533069 
L 220.730803 170.533069 
L 220.730803 166.883168 
L 221.686083 166.883168 
L 221.686083 163.233267 
L 222.027685 163.233267 
L 222.116338 155.933465 
L 222.544712 155.933465 
L 222.544712 152.283564 
L 222.900785 152.283564 
L 222.900785 148.633663 
L 223.339969 148.633663 
L 223.339969 144.983762 
L 223.508883 144.983762 
L 223.614123 134.034059 
L 224.817629 134.034059 
L 224.881576 126.734257 
L 225.008176 126.734257 
L 225.008176 123.084356 
L 225.218691 123.084356 
L 225.298935 115.784554 
L 225.47572 115.784554 
L 225.584281 108.484752 
L 225.652034 108.484752 
L 225.652034 104.834851 
L 225.783399 104.834851 
L 225.783399 101.18495 
L 225.979317 101.18495 
L 225.979317 97.53505 
L 226.128159 97.53505 
L 226.128159 93.885149 
L 226.388781 93.885149 
L 226.388781 90.235248 
L 226.679663 90.235248 
L 226.711552 82.935446 
L 227.141183 82.935446 
L 227.141183 79.285545 
L 228.523689 79.285545 
L 228.523689 75.635644 
L 229.742069 75.635644 
L 229.77459 68.335842 
L 230.098921 68.335842 
L 230.098921 64.685941 
L 293.060028 64.685941 
L 293.060028 61.03604 
L 294.245357 61.03604 
L 294.245357 57.386139 
L 295.896029 57.386139 
L 295.896029 53.736238 
L 296.416267 53.736238 
L 296.416267 50.086337 
L 297.003908 50.086337 
L 297.074913 42.786535 
L 298.547508 42.786535 
L 298.547508 39.136634 
L 299.205868 39.136634 
L 299.205868 35.486733 
L 299.606419 35.486733 
L 299.711479 28.186931 
L 300.556741 28.186931 
L 300.556741 24.53703 
L 301.617187 24.53703 
L 301.617187 20.887129 
L 302.02912 20.887129 
L 302.096641 13.587327 
L 303.358684 13.587327 
L 303.358684 9.937426 
L 364.32 9.937426 
L 364.32 9.937426 
" style="fill:none;stroke:#bf00bf;stroke-linecap:square;"/>
   </g>
   <g id="line2d_4">
    <path clip-path="url(#p256acdb6fb)" d="M 206.787491 283.68 
L 206.787491 280.030099 
L 207.108793 280.030099 
L 207.108793 276.380198 
L 207.50537 276.380198 
L 207.571937 265.430495 
L 207.653525 265.430495 
L 207.66148 258.130693 
L 208.142272 258.130693 
L 208.239085 247.18099 
L 208.988336 247.18099 
L 208.988336 243.531089 
L 209.668517 243.531089 
L 209.668517 239.881188 
L 209.989487 239.881188 
L 209.989487 236.231287 
L 210.109653 236.231287 
L 210.109653 232.581386 
L 210.327525 232.581386 
L 210.327525 228.931485 
L 213.278558 228.931485 
L 213.278558 225.281584 
L 213.512378 225.281584 
L 213.620107 214.331881 
L 213.731161 214.331881 
L 213.808787 203.382178 
L 213.848543 203.382178 
L 213.848543 199.732277 
L 213.988741 199.732277 
L 213.988741 196.082376 
L 214.348376 196.082376 
L 214.348376 192.432475 
L 214.554632 192.432475 
L 214.655256 181.482772 
L 214.78684 181.482772 
L 214.833533 174.18297 
L 220.385153 174.18297 
L 220.385153 170.533069 
L 220.730803 170.533069 
L 220.730803 166.883168 
L 221.204955 166.883168 
L 221.280815 159.583366 
L 221.325548 159.583366 
L 221.325548 155.933465 
L 222.027685 155.933465 
L 222.116338 144.983762 
L 222.544712 144.983762 
L 222.549575 137.68396 
L 222.970396 137.68396 
L 222.970396 134.034059 
L 223.137839 134.034059 
L 223.137839 130.384158 
L 223.361124 130.384158 
L 223.361124 126.734257 
L 223.508883 126.734257 
L 223.614123 115.784554 
L 223.734072 115.784554 
L 223.833461 108.484752 
L 224.817629 108.484752 
L 224.923904 101.18495 
L 225.053901 101.18495 
L 225.053901 97.53505 
L 225.218691 97.53505 
L 225.218691 93.885149 
L 225.371687 93.885149 
L 225.371687 90.235248 
L 225.584281 90.235248 
L 225.652034 82.935446 
L 225.783399 82.935446 
L 225.848382 75.635644 
L 226.128159 75.635644 
L 226.128159 71.985743 
L 226.573792 71.985743 
L 226.573792 68.335842 
L 227.819557 68.335842 
L 227.819557 64.685941 
L 285.061092 64.685941 
L 285.061092 61.03604 
L 286.764484 61.03604 
L 286.764484 57.386139 
L 290.034443 57.386139 
L 290.034443 53.736238 
L 292.187695 53.736238 
L 292.252568 46.436436 
L 292.6773 46.436436 
L 292.760755 39.136634 
L 293.060028 39.136634 
L 293.060028 35.486733 
L 295.755617 35.486733 
L 295.755617 31.836832 
L 295.896029 31.836832 
L 295.896029 28.186931 
L 296.416267 28.186931 
L 296.416267 24.53703 
L 297.074913 24.53703 
L 297.074913 20.887129 
L 297.900654 20.887129 
L 297.900654 17.237228 
L 298.054248 17.237228 
L 298.106627 9.937426 
L 364.32 9.937426 
L 364.32 9.937426 
" style="fill:none;stroke:#000000;stroke-linecap:square;"/>
   </g>
   <g id="line2d_5">
    <path clip-path="url(#p256acdb6fb)" d="M 205.199226 283.68 
L 205.199226 280.030099 
L 205.397695 280.030099 
L 205.397695 276.380198 
L 205.609894 276.380198 
L 205.609894 272.730297 
L 205.766155 272.730297 
L 205.766155 269.080396 
L 205.943521 269.080396 
L 205.943521 265.430495 
L 206.145469 265.430495 
L 206.145469 261.780594 
L 206.315415 261.780594 
L 206.391949 254.480792 
L 206.486803 254.480792 
L 206.486803 250.830891 
L 206.613902 250.830891 
L 206.673665 243.531089 
L 207.108793 243.531089 
L 207.134986 236.231287 
L 207.350815 236.231287 
L 207.350815 232.581386 
L 207.566168 232.581386 
L 207.566168 228.931485 
L 211.381882 228.931485 
L 211.381882 225.281584 
L 211.970423 225.281584 
L 211.970423 221.631683 
L 212.329197 221.631683 
L 212.329197 217.981782 
L 212.613805 217.981782 
L 212.69232 210.68198 
L 212.809593 210.68198 
L 212.90403 203.382178 
L 213.113605 203.382178 
L 213.188886 192.432475 
L 213.278558 192.432475 
L 213.278558 188.782574 
L 213.583356 188.782574 
L 213.583356 185.132673 
L 213.848543 185.132673 
L 213.848543 181.482772 
L 213.988741 181.482772 
L 213.988741 177.832871 
L 214.173876 177.832871 
L 214.173876 174.18297 
L 220.385153 174.18297 
L 220.385153 170.533069 
L 220.570615 170.533069 
L 220.570615 166.883168 
L 221.204955 166.883168 
L 221.280815 159.583366 
L 221.325548 159.583366 
L 221.433936 152.283564 
L 221.517891 152.283564 
L 221.601825 141.333861 
L 221.716896 141.333861 
L 221.827177 134.034059 
L 222.027685 134.034059 
L 222.034413 126.734257 
L 222.245076 126.734257 
L 222.245076 123.084356 
L 222.970396 123.084356 
L 222.970396 119.434455 
L 223.137839 119.434455 
L 223.137839 115.784554 
L 223.269022 115.784554 
L 223.361124 108.484752 
L 223.512128 108.484752 
L 223.540623 101.18495 
L 223.625992 101.18495 
L 223.625992 97.53505 
L 223.833461 97.53505 
L 223.833461 93.885149 
L 224.53258 93.885149 
L 224.53258 90.235248 
L 224.772161 90.235248 
L 224.839869 79.285545 
L 224.919072 79.285545 
L 225.017668 71.985743 
L 225.783399 71.985743 
L 225.783399 68.335842 
L 226.128159 68.335842 
L 226.128159 64.685941 
L 285.061092 64.685941 
L 285.061092 61.03604 
L 286.130872 61.03604 
L 286.130872 57.386139 
L 286.764484 57.386139 
L 286.764484 53.736238 
L 287.904457 53.736238 
L 288.011009 46.436436 
L 288.179213 46.436436 
L 288.179213 42.786535 
L 289.541818 42.786535 
L 289.541818 39.136634 
L 290.68241 39.136634 
L 290.68241 35.486733 
L 291.650359 35.486733 
L 291.650359 31.836832 
L 291.986875 31.836832 
L 291.986875 28.186931 
L 292.187695 28.186931 
L 292.252568 20.887129 
L 293.060028 20.887129 
L 293.060028 17.237228 
L 295.896029 17.237228 
L 295.896029 13.587327 
L 297.900654 13.587327 
L 297.900654 9.937426 
L 364.32 9.937426 
L 364.32 9.937426 
" style="fill:none;stroke:#00bfbf;stroke-linecap:square;"/>
   </g>
   <g id="patch_3">
    <path d="M 7.2 7.2 
L 364.32 7.2 
" style="fill:none;stroke:#000000;stroke-linecap:square;stroke-linejoin:miter;"/>
   </g>
   <g id="patch_4">
    <path d="M 364.32 283.68 
L 364.32 7.2 
" style="fill:none;stroke:#000000;stroke-linecap:square;stroke-linejoin:miter;"/>
   </g>
   <g id="patch_5">
    <path d="M 7.2 283.68 
L 364.32 283.68 
" style="fill:none;stroke:#000000;stroke-linecap:square;stroke-linejoin:miter;"/>
   </g>
   <g id="patch_6">
    <path d="M 7.2 283.68 
L 7.2 7.2 
" style="fill:none;stroke:#000000;stroke-linecap:square;stroke-linejoin:miter;"/>
   </g>
   <g id="matplotlib.axis_1">
    <g id="xtick_1">
     <g id="line2d_6">
      <path clip-path="url(#p256acdb6fb)" d="M 46.803772 283.68 
L 46.803772 7.2 
" style="fill:none;stroke:#000000;stroke-dasharray:1.000000,3.000000;stroke-dashoffset:0.0;stroke-width:0.5;"/>
     </g>
     <g id="line2d_7">
      <defs>
       <path d="M 0 0 
L 0 -4 
" id="m1fe80bd174" style="stroke:#000000;stroke-width:0.5;"/>
      </defs>
      <g>
       <use style="stroke:#000000;stroke-width:0.5;" x="46.803771872" xlink:href="#m1fe80bd174" y="283.68"/>
      </g>
     </g>
     <g id="line2d_8">
      <defs>
       <path d="M 0 0 
L 0 4 
" id="m93d048e022" style="stroke:#000000;stroke-width:0.5;"/>
      </defs>
      <g>
       <use style="stroke:#000000;stroke-width:0.5;" x="46.803771872" xlink:href="#m93d048e022" y="7.2"/>
      </g>
     </g>
     <g id="text_1">
      <!-- -6 -->
      <defs>
       <path d="M 33.015625 40.375 
Q 26.375 40.375 22.484375 35.828125 
Q 18.609375 31.296875 18.609375 23.390625 
Q 18.609375 15.53125 22.484375 10.953125 
Q 26.375 6.390625 33.015625 6.390625 
Q 39.65625 6.390625 43.53125 10.953125 
Q 47.40625 15.53125 47.40625 23.390625 
Q 47.40625 31.296875 43.53125 35.828125 
Q 39.65625 40.375 33.015625 40.375 
M 52.59375 71.296875 
L 52.59375 62.3125 
Q 48.875 64.0625 45.09375 64.984375 
Q 41.3125 65.921875 37.59375 65.921875 
Q 27.828125 65.921875 22.671875 59.328125 
Q 17.53125 52.734375 16.796875 39.40625 
Q 19.671875 43.65625 24.015625 45.921875 
Q 28.375 48.1875 33.59375 48.1875 
Q 44.578125 48.1875 50.953125 41.515625 
Q 57.328125 34.859375 57.328125 23.390625 
Q 57.328125 12.15625 50.6875 5.359375 
Q 44.046875 -1.421875 33.015625 -1.421875 
Q 20.359375 -1.421875 13.671875 8.265625 
Q 6.984375 17.96875 6.984375 36.375 
Q 6.984375 53.65625 15.1875 63.9375 
Q 23.390625 74.21875 37.203125 74.21875 
Q 40.921875 74.21875 44.703125 73.484375 
Q 48.484375 72.75 52.59375 71.296875 
" id="BitstreamVeraSans-Roman-36"/>
       <path d="M 4.890625 31.390625 
L 31.203125 31.390625 
L 31.203125 23.390625 
L 4.890625 23.390625 
z
" id="BitstreamVeraSans-Roman-2d"/>
      </defs>
      <g transform="translate(36.833459372 302.876875)scale(0.2 -0.2)">
       <use xlink:href="#BitstreamVeraSans-Roman-2d"/>
       <use x="36.083984375" xlink:href="#BitstreamVeraSans-Roman-36"/>
      </g>
     </g>
    </g>
    <g id="xtick_2">
     <g id="line2d_9">
      <path clip-path="url(#p256acdb6fb)" d="M 86.4933 283.68 
L 86.4933 7.2 
" style="fill:none;stroke:#000000;stroke-dasharray:1.000000,3.000000;stroke-dashoffset:0.0;stroke-width:0.5;"/>
     </g>
     <g id="line2d_10">
      <g>
       <use style="stroke:#000000;stroke-width:0.5;" x="86.493300388" xlink:href="#m1fe80bd174" y="283.68"/>
      </g>
     </g>
     <g id="line2d_11">
      <g>
       <use style="stroke:#000000;stroke-width:0.5;" x="86.493300388" xlink:href="#m93d048e022" y="7.2"/>
      </g>
     </g>
     <g id="text_2">
      <!-- -4 -->
      <defs>
       <path d="M 37.796875 64.3125 
L 12.890625 25.390625 
L 37.796875 25.390625 
z
M 35.203125 72.90625 
L 47.609375 72.90625 
L 47.609375 25.390625 
L 58.015625 25.390625 
L 58.015625 17.1875 
L 47.609375 17.1875 
L 47.609375 0 
L 37.796875 0 
L 37.796875 17.1875 
L 4.890625 17.1875 
L 4.890625 26.703125 
z
" id="BitstreamVeraSans-Roman-34"/>
      </defs>
      <g transform="translate(76.522987888 302.876875)scale(0.2 -0.2)">
       <use xlink:href="#BitstreamVeraSans-Roman-2d"/>
       <use x="36.083984375" xlink:href="#BitstreamVeraSans-Roman-34"/>
      </g>
     </g>
    </g>
    <g id="xtick_3">
     <g id="line2d_12">
      <path clip-path="url(#p256acdb6fb)" d="M 126.182829 283.68 
L 126.182829 7.2 
" style="fill:none;stroke:#000000;stroke-dasharray:1.000000,3.000000;stroke-dashoffset:0.0;stroke-width:0.5;"/>
     </g>
     <g id="line2d_13">
      <g>
       <use style="stroke:#000000;stroke-width:0.5;" x="126.182828904" xlink:href="#m1fe80bd174" y="283.68"/>
      </g>
     </g>
     <g id="line2d_14">
      <g>
       <use style="stroke:#000000;stroke-width:0.5;" x="126.182828904" xlink:href="#m93d048e022" y="7.2"/>
      </g>
     </g>
     <g id="text_3">
      <!-- -2 -->
      <defs>
       <path d="M 19.1875 8.296875 
L 53.609375 8.296875 
L 53.609375 0 
L 7.328125 0 
L 7.328125 8.296875 
Q 12.9375 14.109375 22.625 23.890625 
Q 32.328125 33.6875 34.8125 36.53125 
Q 39.546875 41.84375 41.421875 45.53125 
Q 43.3125 49.21875 43.3125 52.78125 
Q 43.3125 58.59375 39.234375 62.25 
Q 35.15625 65.921875 28.609375 65.921875 
Q 23.96875 65.921875 18.8125 64.3125 
Q 13.671875 62.703125 7.8125 59.421875 
L 7.8125 69.390625 
Q 13.765625 71.78125 18.9375 73 
Q 24.125 74.21875 28.421875 74.21875 
Q 39.75 74.21875 46.484375 68.546875 
Q 53.21875 62.890625 53.21875 53.421875 
Q 53.21875 48.921875 51.53125 44.890625 
Q 49.859375 40.875 45.40625 35.40625 
Q 44.1875 33.984375 37.640625 27.21875 
Q 31.109375 20.453125 19.1875 8.296875 
" id="BitstreamVeraSans-Roman-32"/>
      </defs>
      <g transform="translate(116.212516404 302.876875)scale(0.2 -0.2)">
       <use xlink:href="#BitstreamVeraSans-Roman-2d"/>
       <use x="36.083984375" xlink:href="#BitstreamVeraSans-Roman-32"/>
      </g>
     </g>
    </g>
    <g id="xtick_4">
     <g id="line2d_15">
      <path clip-path="url(#p256acdb6fb)" d="M 165.872357 283.68 
L 165.872357 7.2 
" style="fill:none;stroke:#000000;stroke-dasharray:1.000000,3.000000;stroke-dashoffset:0.0;stroke-width:0.5;"/>
     </g>
     <g id="line2d_16">
      <g>
       <use style="stroke:#000000;stroke-width:0.5;" x="165.87235742" xlink:href="#m1fe80bd174" y="283.68"/>
      </g>
     </g>
     <g id="line2d_17">
      <g>
       <use style="stroke:#000000;stroke-width:0.5;" x="165.87235742" xlink:href="#m93d048e022" y="7.2"/>
      </g>
     </g>
     <g id="text_4">
      <!-- 0 -->
      <defs>
       <path d="M 31.78125 66.40625 
Q 24.171875 66.40625 20.328125 58.90625 
Q 16.5 51.421875 16.5 36.375 
Q 16.5 21.390625 20.328125 13.890625 
Q 24.171875 6.390625 31.78125 6.390625 
Q 39.453125 6.390625 43.28125 13.890625 
Q 47.125 21.390625 47.125 36.375 
Q 47.125 51.421875 43.28125 58.90625 
Q 39.453125 66.40625 31.78125 66.40625 
M 31.78125 74.21875 
Q 44.046875 74.21875 50.515625 64.515625 
Q 56.984375 54.828125 56.984375 36.375 
Q 56.984375 17.96875 50.515625 8.265625 
Q 44.046875 -1.421875 31.78125 -1.421875 
Q 19.53125 -1.421875 13.0625 8.265625 
Q 6.59375 17.96875 6.59375 36.375 
Q 6.59375 54.828125 13.0625 64.515625 
Q 19.53125 74.21875 31.78125 74.21875 
" id="BitstreamVeraSans-Roman-30"/>
      </defs>
      <g transform="translate(159.50985742 302.876875)scale(0.2 -0.2)">
       <use xlink:href="#BitstreamVeraSans-Roman-30"/>
      </g>
     </g>
    </g>
    <g id="xtick_5">
     <g id="line2d_18">
      <path clip-path="url(#p256acdb6fb)" d="M 205.561886 283.68 
L 205.561886 7.2 
" style="fill:none;stroke:#000000;stroke-dasharray:1.000000,3.000000;stroke-dashoffset:0.0;stroke-width:0.5;"/>
     </g>
     <g id="line2d_19">
      <g>
       <use style="stroke:#000000;stroke-width:0.5;" x="205.561885936" xlink:href="#m1fe80bd174" y="283.68"/>
      </g>
     </g>
     <g id="line2d_20">
      <g>
       <use style="stroke:#000000;stroke-width:0.5;" x="205.561885936" xlink:href="#m93d048e022" y="7.2"/>
      </g>
     </g>
     <g id="text_5">
      <!-- 2 -->
      <g transform="translate(199.199385936 302.876875)scale(0.2 -0.2)">
       <use xlink:href="#BitstreamVeraSans-Roman-32"/>
      </g>
     </g>
    </g>
    <g id="xtick_6">
     <g id="line2d_21">
      <path clip-path="url(#p256acdb6fb)" d="M 245.251414 283.68 
L 245.251414 7.2 
" style="fill:none;stroke:#000000;stroke-dasharray:1.000000,3.000000;stroke-dashoffset:0.0;stroke-width:0.5;"/>
     </g>
     <g id="line2d_22">
      <g>
       <use style="stroke:#000000;stroke-width:0.5;" x="245.251414452" xlink:href="#m1fe80bd174" y="283.68"/>
      </g>
     </g>
     <g id="line2d_23">
      <g>
       <use style="stroke:#000000;stroke-width:0.5;" x="245.251414452" xlink:href="#m93d048e022" y="7.2"/>
      </g>
     </g>
     <g id="text_6">
      <!-- 4 -->
      <g transform="translate(238.888914452 302.876875)scale(0.2 -0.2)">
       <use xlink:href="#BitstreamVeraSans-Roman-34"/>
      </g>
     </g>
    </g>
    <g id="xtick_7">
     <g id="line2d_24">
      <path clip-path="url(#p256acdb6fb)" d="M 284.940943 283.68 
L 284.940943 7.2 
" style="fill:none;stroke:#000000;stroke-dasharray:1.000000,3.000000;stroke-dashoffset:0.0;stroke-width:0.5;"/>
     </g>
     <g id="line2d_25">
      <g>
       <use style="stroke:#000000;stroke-width:0.5;" x="284.940942968" xlink:href="#m1fe80bd174" y="283.68"/>
      </g>
     </g>
     <g id="line2d_26">
      <g>
       <use style="stroke:#000000;stroke-width:0.5;" x="284.940942968" xlink:href="#m93d048e022" y="7.2"/>
      </g>
     </g>
     <g id="text_7">
      <!-- 6 -->
      <g transform="translate(278.578442968 302.876875)scale(0.2 -0.2)">
       <use xlink:href="#BitstreamVeraSans-Roman-36"/>
      </g>
     </g>
    </g>
    <g id="xtick_8">
     <g id="line2d_27">
      <path clip-path="url(#p256acdb6fb)" d="M 324.630471 283.68 
L 324.630471 7.2 
" style="fill:none;stroke:#000000;stroke-dasharray:1.000000,3.000000;stroke-dashoffset:0.0;stroke-width:0.5;"/>
     </g>
     <g id="line2d_28">
      <g>
       <use style="stroke:#000000;stroke-width:0.5;" x="324.630471484" xlink:href="#m1fe80bd174" y="283.68"/>
      </g>
     </g>
     <g id="line2d_29">
      <g>
       <use style="stroke:#000000;stroke-width:0.5;" x="324.630471484" xlink:href="#m93d048e022" y="7.2"/>
      </g>
     </g>
     <g id="text_8">
      <!-- 8 -->
      <defs>
       <path d="M 31.78125 34.625 
Q 24.75 34.625 20.71875 30.859375 
Q 16.703125 27.09375 16.703125 20.515625 
Q 16.703125 13.921875 20.71875 10.15625 
Q 24.75 6.390625 31.78125 6.390625 
Q 38.8125 6.390625 42.859375 10.171875 
Q 46.921875 13.96875 46.921875 20.515625 
Q 46.921875 27.09375 42.890625 30.859375 
Q 38.875 34.625 31.78125 34.625 
M 21.921875 38.8125 
Q 15.578125 40.375 12.03125 44.71875 
Q 8.5 49.078125 8.5 55.328125 
Q 8.5 64.0625 14.71875 69.140625 
Q 20.953125 74.21875 31.78125 74.21875 
Q 42.671875 74.21875 48.875 69.140625 
Q 55.078125 64.0625 55.078125 55.328125 
Q 55.078125 49.078125 51.53125 44.71875 
Q 48 40.375 41.703125 38.8125 
Q 48.828125 37.15625 52.796875 32.3125 
Q 56.78125 27.484375 56.78125 20.515625 
Q 56.78125 9.90625 50.3125 4.234375 
Q 43.84375 -1.421875 31.78125 -1.421875 
Q 19.734375 -1.421875 13.25 4.234375 
Q 6.78125 9.90625 6.78125 20.515625 
Q 6.78125 27.484375 10.78125 32.3125 
Q 14.796875 37.15625 21.921875 38.8125 
M 18.3125 54.390625 
Q 18.3125 48.734375 21.84375 45.5625 
Q 25.390625 42.390625 31.78125 42.390625 
Q 38.140625 42.390625 41.71875 45.5625 
Q 45.3125 48.734375 45.3125 54.390625 
Q 45.3125 60.0625 41.71875 63.234375 
Q 38.140625 66.40625 31.78125 66.40625 
Q 25.390625 66.40625 21.84375 63.234375 
Q 18.3125 60.0625 18.3125 54.390625 
" id="BitstreamVeraSans-Roman-38"/>
      </defs>
      <g transform="translate(318.267971484 302.876875)scale(0.2 -0.2)">
       <use xlink:href="#BitstreamVeraSans-Roman-38"/>
      </g>
     </g>
    </g>
    <g id="xtick_9">
     <g id="line2d_30">
      <path clip-path="url(#p256acdb6fb)" d="M 364.32 283.68 
L 364.32 7.2 
" style="fill:none;stroke:#000000;stroke-dasharray:1.000000,3.000000;stroke-dashoffset:0.0;stroke-width:0.5;"/>
     </g>
     <g id="line2d_31">
      <g>
       <use style="stroke:#000000;stroke-width:0.5;" x="364.32" xlink:href="#m1fe80bd174" y="283.68"/>
      </g>
     </g>
     <g id="line2d_32">
      <g>
       <use style="stroke:#000000;stroke-width:0.5;" x="364.32" xlink:href="#m93d048e022" y="7.2"/>
      </g>
     </g>
    </g>
    <g id="xtick_10">
     <g id="line2d_33">
      <defs>
       <path d="M 0 0 
L 0 -2 
" id="m27a52477ff" style="stroke:#000000;stroke-width:0.5;"/>
      </defs>
      <g>
       <use style="stroke:#000000;stroke-width:0.5;" x="46.803771872" xlink:href="#m27a52477ff" y="283.68"/>
      </g>
     </g>
     <g id="line2d_34">
      <defs>
       <path d="M 0 0 
L 0 2 
" id="m58742e3e6f" style="stroke:#000000;stroke-width:0.5;"/>
      </defs>
      <g>
       <use style="stroke:#000000;stroke-width:0.5;" x="46.803771872" xlink:href="#m58742e3e6f" y="7.2"/>
      </g>
     </g>
    </g>
    <g id="xtick_11">
     <g id="line2d_35">
      <g>
       <use style="stroke:#000000;stroke-width:0.5;" x="86.493300388" xlink:href="#m27a52477ff" y="283.68"/>
      </g>
     </g>
     <g id="line2d_36">
      <g>
       <use style="stroke:#000000;stroke-width:0.5;" x="86.493300388" xlink:href="#m58742e3e6f" y="7.2"/>
      </g>
     </g>
    </g>
    <g id="xtick_12">
     <g id="line2d_37">
      <g>
       <use style="stroke:#000000;stroke-width:0.5;" x="126.182828904" xlink:href="#m27a52477ff" y="283.68"/>
      </g>
     </g>
     <g id="line2d_38">
      <g>
       <use style="stroke:#000000;stroke-width:0.5;" x="126.182828904" xlink:href="#m58742e3e6f" y="7.2"/>
      </g>
     </g>
    </g>
    <g id="xtick_13">
     <g id="line2d_39">
      <g>
       <use style="stroke:#000000;stroke-width:0.5;" x="165.87235742" xlink:href="#m27a52477ff" y="283.68"/>
      </g>
     </g>
     <g id="line2d_40">
      <g>
       <use style="stroke:#000000;stroke-width:0.5;" x="165.87235742" xlink:href="#m58742e3e6f" y="7.2"/>
      </g>
     </g>
    </g>
    <g id="xtick_14">
     <g id="line2d_41">
      <g>
       <use style="stroke:#000000;stroke-width:0.5;" x="205.561885936" xlink:href="#m27a52477ff" y="283.68"/>
      </g>
     </g>
     <g id="line2d_42">
      <g>
       <use style="stroke:#000000;stroke-width:0.5;" x="205.561885936" xlink:href="#m58742e3e6f" y="7.2"/>
      </g>
     </g>
    </g>
    <g id="xtick_15">
     <g id="line2d_43">
      <g>
       <use style="stroke:#000000;stroke-width:0.5;" x="245.251414452" xlink:href="#m27a52477ff" y="283.68"/>
      </g>
     </g>
     <g id="line2d_44">
      <g>
       <use style="stroke:#000000;stroke-width:0.5;" x="245.251414452" xlink:href="#m58742e3e6f" y="7.2"/>
      </g>
     </g>
    </g>
    <g id="xtick_16">
     <g id="line2d_45">
      <g>
       <use style="stroke:#000000;stroke-width:0.5;" x="284.940942968" xlink:href="#m27a52477ff" y="283.68"/>
      </g>
     </g>
     <g id="line2d_46">
      <g>
       <use style="stroke:#000000;stroke-width:0.5;" x="284.940942968" xlink:href="#m58742e3e6f" y="7.2"/>
      </g>
     </g>
    </g>
    <g id="xtick_17">
     <g id="line2d_47">
      <g>
       <use style="stroke:#000000;stroke-width:0.5;" x="324.630471484" xlink:href="#m27a52477ff" y="283.68"/>
      </g>
     </g>
     <g id="line2d_48">
      <g>
       <use style="stroke:#000000;stroke-width:0.5;" x="324.630471484" xlink:href="#m58742e3e6f" y="7.2"/>
      </g>
     </g>
    </g>
    <g id="xtick_18">
     <g id="line2d_49">
      <g>
       <use style="stroke:#000000;stroke-width:0.5;" x="364.32" xlink:href="#m27a52477ff" y="283.68"/>
      </g>
     </g>
     <g id="line2d_50">
      <g>
       <use style="stroke:#000000;stroke-width:0.5;" x="364.32" xlink:href="#m58742e3e6f" y="7.2"/>
      </g>
     </g>
    </g>
    <g id="text_9">
     <!-- log10 of Df -->
     <defs>
      <path id="BitstreamVeraSans-Roman-20"/>
      <path d="M 12.40625 8.296875 
L 28.515625 8.296875 
L 28.515625 63.921875 
L 10.984375 60.40625 
L 10.984375 69.390625 
L 28.421875 72.90625 
L 38.28125 72.90625 
L 38.28125 8.296875 
L 54.390625 8.296875 
L 54.390625 0 
L 12.40625 0 
z
" id="BitstreamVeraSans-Roman-31"/>
      <path d="M 30.609375 48.390625 
Q 23.390625 48.390625 19.1875 42.75 
Q 14.984375 37.109375 14.984375 27.296875 
Q 14.984375 17.484375 19.15625 11.84375 
Q 23.34375 6.203125 30.609375 6.203125 
Q 37.796875 6.203125 41.984375 11.859375 
Q 46.1875 17.53125 46.1875 27.296875 
Q 46.1875 37.015625 41.984375 42.703125 
Q 37.796875 48.390625 30.609375 48.390625 
M 30.609375 56 
Q 42.328125 56 49.015625 48.375 
Q 55.71875 40.765625 55.71875 27.296875 
Q 55.71875 13.875 49.015625 6.21875 
Q 42.328125 -1.421875 30.609375 -1.421875 
Q 18.84375 -1.421875 12.171875 6.21875 
Q 5.515625 13.875 5.515625 27.296875 
Q 5.515625 40.765625 12.171875 48.375 
Q 18.84375 56 30.609375 56 
" id="BitstreamVeraSans-Roman-6f"/>
      <path d="M 9.421875 75.984375 
L 18.40625 75.984375 
L 18.40625 0 
L 9.421875 0 
z
" id="BitstreamVeraSans-Roman-6c"/>
      <path d="M 19.671875 64.796875 
L 19.671875 8.109375 
L 31.59375 8.109375 
Q 46.6875 8.109375 53.6875 14.9375 
Q 60.6875 21.78125 60.6875 36.53125 
Q 60.6875 51.171875 53.6875 57.984375 
Q 46.6875 64.796875 31.59375 64.796875 
z
M 9.8125 72.90625 
L 30.078125 72.90625 
Q 51.265625 72.90625 61.171875 64.09375 
Q 71.09375 55.28125 71.09375 36.53125 
Q 71.09375 17.671875 61.125 8.828125 
Q 51.171875 0 30.078125 0 
L 9.8125 0 
z
" id="BitstreamVeraSans-Roman-44"/>
      <path d="M 45.40625 27.984375 
Q 45.40625 37.75 41.375 43.109375 
Q 37.359375 48.484375 30.078125 48.484375 
Q 22.859375 48.484375 18.828125 43.109375 
Q 14.796875 37.75 14.796875 27.984375 
Q 14.796875 18.265625 18.828125 12.890625 
Q 22.859375 7.515625 30.078125 7.515625 
Q 37.359375 7.515625 41.375 12.890625 
Q 45.40625 18.265625 45.40625 27.984375 
M 54.390625 6.78125 
Q 54.390625 -7.171875 48.1875 -13.984375 
Q 42 -20.796875 29.203125 -20.796875 
Q 24.46875 -20.796875 20.265625 -20.09375 
Q 16.0625 -19.390625 12.109375 -17.921875 
L 12.109375 -9.1875 
Q 16.0625 -11.328125 19.921875 -12.34375 
Q 23.78125 -13.375 27.78125 -13.375 
Q 36.625 -13.375 41.015625 -8.765625 
Q 45.40625 -4.15625 45.40625 5.171875 
L 45.40625 9.625 
Q 42.625 4.78125 38.28125 2.390625 
Q 33.9375 0 27.875 0 
Q 17.828125 0 11.671875 7.65625 
Q 5.515625 15.328125 5.515625 27.984375 
Q 5.515625 40.671875 11.671875 48.328125 
Q 17.828125 56 27.875 56 
Q 33.9375 56 38.28125 53.609375 
Q 42.625 51.21875 45.40625 46.390625 
L 45.40625 54.6875 
L 54.390625 54.6875 
z
" id="BitstreamVeraSans-Roman-67"/>
      <path d="M 37.109375 75.984375 
L 37.109375 68.5 
L 28.515625 68.5 
Q 23.6875 68.5 21.796875 66.546875 
Q 19.921875 64.59375 19.921875 59.515625 
L 19.921875 54.6875 
L 34.71875 54.6875 
L 34.71875 47.703125 
L 19.921875 47.703125 
L 19.921875 0 
L 10.890625 0 
L 10.890625 47.703125 
L 2.296875 47.703125 
L 2.296875 54.6875 
L 10.890625 54.6875 
L 10.890625 58.5 
Q 10.890625 67.625 15.140625 71.796875 
Q 19.390625 75.984375 28.609375 75.984375 
z
" id="BitstreamVeraSans-Roman-66"/>
     </defs>
     <g transform="translate(130.5740625 327.233125)scale(0.2 -0.2)">
      <use xlink:href="#BitstreamVeraSans-Roman-6c"/>
      <use x="27.783203125" xlink:href="#BitstreamVeraSans-Roman-6f"/>
      <use x="88.96484375" xlink:href="#BitstreamVeraSans-Roman-67"/>
      <use x="152.44140625" xlink:href="#BitstreamVeraSans-Roman-31"/>
      <use x="216.064453125" xlink:href="#BitstreamVeraSans-Roman-30"/>
      <use x="279.6875" xlink:href="#BitstreamVeraSans-Roman-20"/>
      <use x="311.474609375" xlink:href="#BitstreamVeraSans-Roman-6f"/>
      <use x="372.65625" xlink:href="#BitstreamVeraSans-Roman-66"/>
      <use x="407.861328125" xlink:href="#BitstreamVeraSans-Roman-20"/>
      <use x="439.6484375" xlink:href="#BitstreamVeraSans-Roman-44"/>
      <use x="516.650390625" xlink:href="#BitstreamVeraSans-Roman-66"/>
     </g>
    </g>
   </g>
   <g id="matplotlib.axis_2">
    <g id="ytick_1">
     <g id="line2d_51">
      <path clip-path="url(#p256acdb6fb)" d="M 7.2 283.68 
L 364.32 283.68 
" style="fill:none;stroke:#000000;stroke-dasharray:1.000000,3.000000;stroke-dashoffset:0.0;stroke-width:0.5;"/>
     </g>
     <g id="line2d_52">
      <defs>
       <path d="M 0 0 
L 4 0 
" id="m026717c6b1" style="stroke:#000000;stroke-width:0.5;"/>
      </defs>
      <g>
       <use style="stroke:#000000;stroke-width:0.5;" x="7.2" xlink:href="#m026717c6b1" y="283.68"/>
      </g>
     </g>
     <g id="line2d_53">
      <defs>
       <path d="M 0 0 
L -4 0 
" id="mf6f431f14b" style="stroke:#000000;stroke-width:0.5;"/>
      </defs>
      <g>
       <use style="stroke:#000000;stroke-width:0.5;" x="364.32" xlink:href="#mf6f431f14b" y="283.68"/>
      </g>
     </g>
    </g>
    <g id="ytick_2">
     <g id="line2d_54">
      <path clip-path="url(#p256acdb6fb)" d="M 7.2 228.931485 
L 364.32 228.931485 
" style="fill:none;stroke:#000000;stroke-dasharray:1.000000,3.000000;stroke-dashoffset:0.0;stroke-width:0.5;"/>
     </g>
     <g id="line2d_55">
      <g>
       <use style="stroke:#000000;stroke-width:0.5;" x="7.2" xlink:href="#m026717c6b1" y="228.931485149"/>
      </g>
     </g>
     <g id="line2d_56">
      <g>
       <use style="stroke:#000000;stroke-width:0.5;" x="364.32" xlink:href="#mf6f431f14b" y="228.931485149"/>
      </g>
     </g>
    </g>
    <g id="ytick_3">
     <g id="line2d_57">
      <path clip-path="url(#p256acdb6fb)" d="M 7.2 174.18297 
L 364.32 174.18297 
" style="fill:none;stroke:#000000;stroke-dasharray:1.000000,3.000000;stroke-dashoffset:0.0;stroke-width:0.5;"/>
     </g>
     <g id="line2d_58">
      <g>
       <use style="stroke:#000000;stroke-width:0.5;" x="7.2" xlink:href="#m026717c6b1" y="174.182970297"/>
      </g>
     </g>
     <g id="line2d_59">
      <g>
       <use style="stroke:#000000;stroke-width:0.5;" x="364.32" xlink:href="#mf6f431f14b" y="174.182970297"/>
      </g>
     </g>
    </g>
    <g id="ytick_4">
     <g id="line2d_60">
      <path clip-path="url(#p256acdb6fb)" d="M 7.2 119.434455 
L 364.32 119.434455 
" style="fill:none;stroke:#000000;stroke-dasharray:1.000000,3.000000;stroke-dashoffset:0.0;stroke-width:0.5;"/>
     </g>
     <g id="line2d_61">
      <g>
       <use style="stroke:#000000;stroke-width:0.5;" x="7.2" xlink:href="#m026717c6b1" y="119.434455446"/>
      </g>
     </g>
     <g id="line2d_62">
      <g>
       <use style="stroke:#000000;stroke-width:0.5;" x="364.32" xlink:href="#mf6f431f14b" y="119.434455446"/>
      </g>
     </g>
    </g>
    <g id="ytick_5">
     <g id="line2d_63">
      <path clip-path="url(#p256acdb6fb)" d="M 7.2 64.685941 
L 364.32 64.685941 
" style="fill:none;stroke:#000000;stroke-dasharray:1.000000,3.000000;stroke-dashoffset:0.0;stroke-width:0.5;"/>
     </g>
     <g id="line2d_64">
      <g>
       <use style="stroke:#000000;stroke-width:0.5;" x="7.2" xlink:href="#m026717c6b1" y="64.6859405941"/>
      </g>
     </g>
     <g id="line2d_65">
      <g>
       <use style="stroke:#000000;stroke-width:0.5;" x="364.32" xlink:href="#mf6f431f14b" y="64.6859405941"/>
      </g>
     </g>
    </g>
    <g id="ytick_6">
     <g id="line2d_66">
      <path clip-path="url(#p256acdb6fb)" d="M 7.2 9.937426 
L 364.32 9.937426 
" style="fill:none;stroke:#000000;stroke-dasharray:1.000000,3.000000;stroke-dashoffset:0.0;stroke-width:0.5;"/>
     </g>
     <g id="line2d_67">
      <g>
       <use style="stroke:#000000;stroke-width:0.5;" x="7.2" xlink:href="#m026717c6b1" y="9.93742574257"/>
      </g>
     </g>
     <g id="line2d_68">
      <g>
       <use style="stroke:#000000;stroke-width:0.5;" x="364.32" xlink:href="#mf6f431f14b" y="9.93742574257"/>
      </g>
     </g>
    </g>
   </g>
   <g id="text_10">
    <!-- f1-5,20-D -->
    <defs>
     <path d="M 11.71875 12.40625 
L 22.015625 12.40625 
L 22.015625 4 
L 14.015625 -11.625 
L 7.71875 -11.625 
L 11.71875 4 
z
" id="BitstreamVeraSans-Roman-2c"/>
     <path d="M 10.796875 72.90625 
L 49.515625 72.90625 
L 49.515625 64.59375 
L 19.828125 64.59375 
L 19.828125 46.734375 
Q 21.96875 47.46875 24.109375 47.828125 
Q 26.265625 48.1875 28.421875 48.1875 
Q 40.625 48.1875 47.75 41.5 
Q 54.890625 34.8125 54.890625 23.390625 
Q 54.890625 11.625 47.5625 5.09375 
Q 40.234375 -1.421875 26.90625 -1.421875 
Q 22.3125 -1.421875 17.546875 -0.640625 
Q 12.796875 0.140625 7.71875 1.703125 
L 7.71875 11.625 
Q 12.109375 9.234375 16.796875 8.0625 
Q 21.484375 6.890625 26.703125 6.890625 
Q 35.15625 6.890625 40.078125 11.328125 
Q 45.015625 15.765625 45.015625 23.390625 
Q 45.015625 31 40.078125 35.4375 
Q 35.15625 39.890625 26.703125 39.890625 
Q 22.75 39.890625 18.8125 39.015625 
Q 14.890625 38.140625 10.796875 36.28125 
z
" id="BitstreamVeraSans-Roman-35"/>
    </defs>
    <g transform="translate(263.049475 278.1504)scale(0.2 -0.2)">
     <use xlink:href="#BitstreamVeraSans-Roman-66"/>
     <use x="35.205078125" xlink:href="#BitstreamVeraSans-Roman-31"/>
     <use x="98.828125" xlink:href="#BitstreamVeraSans-Roman-2d"/>
     <use x="134.912109375" xlink:href="#BitstreamVeraSans-Roman-35"/>
     <use x="198.53515625" xlink:href="#BitstreamVeraSans-Roman-2c"/>
     <use x="230.322265625" xlink:href="#BitstreamVeraSans-Roman-32"/>
     <use x="293.9453125" xlink:href="#BitstreamVeraSans-Roman-30"/>
     <use x="357.568359375" xlink:href="#BitstreamVeraSans-Roman-2d"/>
     <use x="393.65234375" xlink:href="#BitstreamVeraSans-Roman-44"/>
    </g>
   </g>
  </g>
 </g>
 <defs>
  <clipPath id="p256acdb6fb">
   <rect height="276.48" width="357.12" x="7.2" y="7.2"/>
  </clipPath>
 </defs>
</svg>
