<?xml version="1.0" encoding="utf-8" standalone="no"?>
<!DOCTYPE svg PUBLIC "-//W3C//DTD SVG 1.1//EN"
  "http://www.w3.org/Graphics/SVG/1.1/DTD/svg11.dtd">
<!-- Created with matplotlib (http://matplotlib.org/) -->
<svg height="338pt" version="1.1" viewBox="0 0 371 338" width="371pt" xmlns="http://www.w3.org/2000/svg" xmlns:xlink="http://www.w3.org/1999/xlink">
 <defs>
  <style type="text/css">
*{stroke-linecap:butt;stroke-linejoin:round;stroke-miterlimit:100000;}
  </style>
 </defs>
 <g id="figure_1">
  <g id="patch_1">
   <path d="M 0 338.5925 
L 371.52 338.5925 
L 371.52 0 
L 0 0 
z
" style="fill:#ffffff;"/>
  </g>
  <g id="axes_1">
   <g id="patch_2">
    <path d="M 7.2 283.68 
L 364.32 283.68 
L 364.32 7.2 
L 7.2 7.2 
z
" style="fill:#ffffff;"/>
   </g>
   <g id="line2d_1">
    <path clip-path="url(#p9ca6c33500)" d="M 162.571306 283.68 
L 162.571306 280.030099 
L 178.972889 280.030099 
L 178.972889 276.380198 
L 184.807614 276.380198 
L 184.807614 272.730297 
L 185.124013 272.730297 
L 185.190842 265.430495 
L 185.510276 265.430495 
L 185.55237 258.130693 
L 185.759615 258.130693 
L 185.759615 254.480792 
L 186.671035 254.480792 
L 186.671035 250.830891 
L 187.666477 250.830891 
L 187.666477 247.18099 
L 187.98811 247.18099 
L 188.085725 239.881188 
L 188.13098 239.881188 
L 188.13098 236.231287 
L 188.551605 236.231287 
L 188.574484 225.281584 
L 188.78976 225.281584 
L 188.78976 221.631683 
L 189.940753 221.631683 
L 189.940753 217.981782 
L 190.401283 217.981782 
L 190.401283 214.331881 
L 190.770852 214.331881 
L 190.855659 203.382178 
L 190.894028 203.382178 
L 190.894028 199.732277 
L 191.072546 199.732277 
L 191.181412 192.432475 
L 192.009221 192.432475 
L 192.093575 181.482772 
L 192.196889 181.482772 
L 192.306296 170.533069 
L 192.399631 170.533069 
L 192.399631 166.883168 
L 193.109353 166.883168 
L 193.109353 163.233267 
L 193.579718 163.233267 
L 193.579718 159.583366 
L 193.830223 159.583366 
L 193.830223 155.933465 
L 194.149684 155.933465 
L 194.149684 152.283564 
L 194.794375 152.283564 
L 194.794375 148.633663 
L 195.043475 148.633663 
L 195.043475 144.983762 
L 195.220829 144.983762 
L 195.220829 141.333861 
L 195.429524 141.333861 
L 195.429524 137.68396 
L 196.396567 137.68396 
L 196.396567 134.034059 
L 196.682507 134.034059 
L 196.705332 126.734257 
L 196.815093 126.734257 
L 196.815093 123.084356 
L 197.039841 123.084356 
L 197.039841 119.434455 
L 197.289203 119.434455 
L 197.289203 115.784554 
L 197.799614 115.784554 
L 197.799614 112.134653 
L 198.200236 112.134653 
L 198.200236 108.484752 
L 199.400958 108.484752 
L 199.493367 101.18495 
L 199.600739 101.18495 
L 199.696234 93.885149 
L 200.649696 93.885149 
L 200.649696 90.235248 
L 201.011692 90.235248 
L 201.011692 86.585347 
L 201.359054 86.585347 
L 201.359054 82.935446 
L 201.692817 82.935446 
L 201.692817 79.285545 
L 202.150657 79.285545 
L 202.150657 75.635644 
L 202.331361 75.635644 
L 202.356411 68.335842 
L 203.397909 68.335842 
L 203.397909 64.685941 
L 210.562151 64.685941 
L 210.562151 61.03604 
L 211.05678 61.03604 
L 211.148392 50.086337 
L 211.687062 50.086337 
L 211.687062 46.436436 
L 212.444893 46.436436 
L 212.473012 39.136634 
L 212.77652 39.136634 
L 212.77652 35.486733 
L 213.051723 35.486733 
L 213.116933 28.186931 
L 214.131894 28.186931 
L 214.131894 24.53703 
L 214.469287 24.53703 
L 214.469287 20.887129 
L 214.949355 20.887129 
L 214.949355 17.237228 
L 215.193321 17.237228 
L 215.193321 13.587327 
L 215.483518 13.587327 
L 215.483518 9.937426 
L 364.32 9.937426 
L 364.32 9.937426 
" style="fill:none;stroke:#ff0000;stroke-linecap:square;stroke-width:3.0;"/>
   </g>
   <g id="line2d_2">
    <path clip-path="url(#p9ca6c33500)" d="M 195.965 283.68 
L 195.965 280.030099 
L 196.548625 280.030099 
L 196.548625 276.380198 
L 197.237632 276.380198 
L 197.237632 272.730297 
L 199.972561 272.730297 
L 199.972561 269.080396 
L 200.268273 269.080396 
L 200.268273 265.430495 
L 200.517848 265.430495 
L 200.626484 258.130693 
L 201.206142 258.130693 
L 201.234066 250.830891 
L 201.359054 250.830891 
L 201.45572 243.531089 
L 201.972847 243.531089 
L 201.972847 239.881188 
L 202.192147 239.881188 
L 202.192147 236.231287 
L 202.877469 236.231287 
L 202.982269 228.931485 
L 203.089157 228.931485 
L 203.193471 221.631683 
L 203.222459 221.631683 
L 203.263701 214.331881 
L 204.086557 214.331881 
L 204.086557 210.68198 
L 204.516643 210.68198 
L 204.516643 207.032079 
L 204.781935 207.032079 
L 204.880154 199.732277 
L 205.078353 199.732277 
L 205.078353 196.082376 
L 205.709962 196.082376 
L 205.709962 192.432475 
L 207.883449 192.432475 
L 207.883449 188.782574 
L 208.015406 188.782574 
L 208.015406 185.132673 
L 208.674263 185.132673 
L 208.712432 177.832871 
L 208.983033 177.832871 
L 208.983033 174.18297 
L 210.00158 174.18297 
L 210.00158 170.533069 
L 211.281398 170.533069 
L 211.306906 163.233267 
L 211.496519 163.233267 
L 211.496519 159.583366 
L 212.339156 159.583366 
L 212.366945 152.283564 
L 212.695321 152.283564 
L 212.695321 148.633663 
L 213.612969 148.633663 
L 213.612969 144.983762 
L 213.965318 144.983762 
L 213.965318 141.333861 
L 214.087626 141.333861 
L 214.087626 137.68396 
L 214.538832 137.68396 
L 214.538832 134.034059 
L 215.262582 134.034059 
L 215.262582 130.384158 
L 215.377342 130.384158 
L 215.377342 126.734257 
L 216.324799 126.734257 
L 216.324799 123.084356 
L 216.498646 123.084356 
L 216.498646 119.434455 
L 216.737826 119.434455 
L 216.846163 112.134653 
L 216.934331 112.134653 
L 216.934331 108.484752 
L 217.281336 108.484752 
L 217.336824 101.18495 
L 217.402176 101.18495 
L 217.402176 97.53505 
L 217.576001 97.53505 
L 217.576001 93.885149 
L 217.697861 93.885149 
L 217.697861 90.235248 
L 218.832809 90.235248 
L 218.832809 86.585347 
L 219.002779 86.585347 
L 219.002779 82.935446 
L 219.391411 82.935446 
L 219.427594 75.635644 
L 220.85096 75.635644 
L 220.87575 68.335842 
L 221.131882 68.335842 
L 221.131882 64.685941 
L 221.763656 64.685941 
L 221.763656 61.03604 
L 221.960791 61.03604 
L 222.059201 53.736238 
L 222.592873 53.736238 
L 222.662127 46.436436 
L 224.623559 46.436436 
L 224.623559 42.786535 
L 225.140366 42.786535 
L 225.140366 39.136634 
L 227.469999 39.136634 
L 227.469999 35.486733 
L 227.60855 35.486733 
L 227.60855 31.836832 
L 228.59909 31.836832 
L 228.59909 28.186931 
L 229.067331 28.186931 
L 229.067331 24.53703 
L 230.254169 24.53703 
L 230.254169 20.887129 
L 235.313633 20.887129 
L 235.313633 17.237228 
L 237.130019 17.237228 
L 237.130019 13.587327 
L 245.562122 13.587327 
L 245.562122 9.937426 
L 364.32 9.937426 
L 364.32 9.937426 
" style="fill:none;stroke:#00bfbf;stroke-linecap:square;"/>
   </g>
   <g id="line2d_3">
    <path clip-path="url(#p9ca6c33500)" d="M 190.770923 283.68 
L 190.770923 280.030099 
L 193.576869 280.030099 
L 193.576869 276.380198 
L 193.995915 276.380198 
L 193.995915 272.730297 
L 195.465978 272.730297 
L 195.465978 269.080396 
L 195.965 269.080396 
L 195.965 265.430495 
L 196.221681 265.430495 
L 196.221681 261.780594 
L 196.604539 261.780594 
L 196.604539 258.130693 
L 197.016389 258.130693 
L 197.016389 254.480792 
L 197.237632 254.480792 
L 197.237632 250.830891 
L 197.680499 250.830891 
L 197.680499 247.18099 
L 197.977435 247.18099 
L 197.977435 243.531089 
L 198.684155 243.531089 
L 198.684155 239.881188 
L 199.048747 239.881188 
L 199.048747 236.231287 
L 199.631968 236.231287 
L 199.631968 232.581386 
L 199.972561 232.581386 
L 199.972561 228.931485 
L 200.100159 228.931485 
L 200.100159 225.281584 
L 200.268273 225.281584 
L 200.304993 217.981782 
L 200.51537 217.981782 
L 200.517848 210.68198 
L 200.626484 210.68198 
L 200.626484 207.032079 
L 201.024462 207.032079 
L 201.024462 203.382178 
L 201.206142 203.382178 
L 201.206142 199.732277 
L 201.359054 199.732277 
L 201.437938 188.782574 
L 201.555877 188.782574 
L 201.555877 185.132673 
L 202.192147 185.132673 
L 202.192147 181.482772 
L 203.025786 181.482772 
L 203.025786 177.832871 
L 203.263701 177.832871 
L 203.314125 170.533069 
L 204.420061 170.533069 
L 204.516643 163.233267 
L 205.078353 163.233267 
L 205.078353 159.583366 
L 206.229623 159.583366 
L 206.229623 155.933465 
L 207.295811 155.933465 
L 207.295811 152.283564 
L 207.883449 152.283564 
L 207.883449 148.633663 
L 208.015406 148.633663 
L 208.111919 137.68396 
L 208.375911 137.68396 
L 208.431756 130.384158 
L 208.629824 130.384158 
L 208.712432 119.434455 
L 209.361178 119.434455 
L 209.361178 115.784554 
L 210.460485 115.784554 
L 210.460485 112.134653 
L 210.680268 112.134653 
L 210.680268 108.484752 
L 211.166809 108.484752 
L 211.166809 104.834851 
L 211.281398 104.834851 
L 211.306906 97.53505 
L 211.402898 97.53505 
L 211.459424 90.235248 
L 212.702976 90.235248 
L 212.702976 86.585347 
L 213.547522 86.585347 
L 213.547522 82.935446 
L 215.02948 82.935446 
L 215.02948 79.285545 
L 216.207168 79.285545 
L 216.207168 75.635644 
L 216.737826 75.635644 
L 216.737826 71.985743 
L 217.431006 71.985743 
L 217.431006 68.335842 
L 217.576001 68.335842 
L 217.576001 64.685941 
L 218.038682 64.685941 
L 218.038682 61.03604 
L 218.751567 61.03604 
L 218.751567 57.386139 
L 218.957835 57.386139 
L 218.957835 53.736238 
L 219.984563 53.736238 
L 219.984563 50.086337 
L 220.740105 50.086337 
L 220.85096 42.786535 
L 221.739305 42.786535 
L 221.739305 39.136634 
L 221.960791 39.136634 
L 222.059201 31.836832 
L 222.997405 31.836832 
L 222.997405 28.186931 
L 223.183868 28.186931 
L 223.183868 24.53703 
L 224.40776 24.53703 
L 224.429207 17.237228 
L 225.902416 17.237228 
L 225.902416 13.587327 
L 227.60855 13.587327 
L 227.60855 9.937426 
L 364.32 9.937426 
L 364.32 9.937426 
" style="fill:none;stroke:#bf00bf;stroke-linecap:square;"/>
   </g>
   <g id="line2d_4">
    <path clip-path="url(#p9ca6c33500)" d="M 179.614175 283.68 
L 179.614175 280.030099 
L 186.292849 280.030099 
L 186.292849 276.380198 
L 190.770923 276.380198 
L 190.770923 272.730297 
L 191.216685 272.730297 
L 191.216685 269.080396 
L 193.380788 269.080396 
L 193.380788 265.430495 
L 193.990644 265.430495 
L 194.074827 254.480792 
L 194.186723 254.480792 
L 194.186723 250.830891 
L 194.72653 250.830891 
L 194.72653 247.18099 
L 195.087416 247.18099 
L 195.087416 243.531089 
L 195.465978 243.531089 
L 195.57016 232.581386 
L 195.650037 232.581386 
L 195.650037 228.931485 
L 196.438292 228.931485 
L 196.438292 225.281584 
L 196.604539 225.281584 
L 196.604539 221.631683 
L 197.016389 221.631683 
L 197.016389 217.981782 
L 197.680499 217.981782 
L 197.680499 214.331881 
L 197.977435 214.331881 
L 197.977435 210.68198 
L 198.684155 210.68198 
L 198.726054 199.732277 
L 199.144055 199.732277 
L 199.20056 192.432475 
L 199.631968 192.432475 
L 199.631968 188.782574 
L 199.786954 188.782574 
L 199.882544 181.482772 
L 200.025243 181.482772 
L 200.100159 174.18297 
L 200.39737 174.18297 
L 200.39737 170.533069 
L 200.626484 170.533069 
L 200.626484 166.883168 
L 200.831731 166.883168 
L 200.869939 159.583366 
L 201.011692 159.583366 
L 201.011692 155.933465 
L 201.359054 155.933465 
L 201.359054 152.283564 
L 201.555877 152.283564 
L 201.555877 148.633663 
L 203.025786 148.633663 
L 203.025786 144.983762 
L 203.337638 144.983762 
L 203.337638 141.333861 
L 203.849349 141.333861 
L 203.849349 137.68396 
L 203.997024 137.68396 
L 203.997024 134.034059 
L 204.162039 134.034059 
L 204.162039 130.384158 
L 204.420061 130.384158 
L 204.468324 123.084356 
L 204.848256 123.084356 
L 204.848256 119.434455 
L 205.011146 119.434455 
L 205.011146 115.784554 
L 205.302778 115.784554 
L 205.302778 112.134653 
L 205.787225 112.134653 
L 205.842368 104.834851 
L 206.229623 104.834851 
L 206.229623 101.18495 
L 207.032401 101.18495 
L 207.032401 97.53505 
L 207.312196 97.53505 
L 207.312196 93.885149 
L 207.452794 93.885149 
L 207.488065 82.935446 
L 208.111919 82.935446 
L 208.111919 79.285545 
L 208.629824 79.285545 
L 208.712432 71.985743 
L 211.38029 71.985743 
L 211.38029 68.335842 
L 211.675018 68.335842 
L 211.675018 64.685941 
L 215.434645 64.685941 
L 215.434645 61.03604 
L 215.673407 61.03604 
L 215.673407 57.386139 
L 215.796126 57.386139 
L 215.796126 53.736238 
L 216.737826 53.736238 
L 216.737826 50.086337 
L 217.146763 50.086337 
L 217.146763 46.436436 
L 217.566921 46.436436 
L 217.566921 42.786535 
L 218.038682 42.786535 
L 218.038682 39.136634 
L 218.284819 39.136634 
L 218.359707 31.836832 
L 218.612705 31.836832 
L 218.612705 28.186931 
L 218.751567 28.186931 
L 218.751567 24.53703 
L 218.957835 24.53703 
L 218.957835 20.887129 
L 220.477411 20.887129 
L 220.477411 17.237228 
L 222.059201 17.237228 
L 222.059201 13.587327 
L 222.70012 13.587327 
L 222.70012 9.937426 
L 364.32 9.937426 
L 364.32 9.937426 
" style="fill:none;stroke:#000000;stroke-linecap:square;"/>
   </g>
   <g id="line2d_5">
    <path clip-path="url(#p9ca6c33500)" d="M 179.614175 283.68 
L 179.614175 280.030099 
L 185.510276 280.030099 
L 185.510276 276.380198 
L 186.292849 276.380198 
L 186.292849 272.730297 
L 188.13098 272.730297 
L 188.13098 269.080396 
L 190.525073 269.080396 
L 190.525073 265.430495 
L 190.770923 265.430495 
L 190.850283 258.130693 
L 190.89418 258.130693 
L 190.89418 254.480792 
L 191.115129 254.480792 
L 191.115129 250.830891 
L 191.457091 250.830891 
L 191.457091 247.18099 
L 191.975902 247.18099 
L 191.975902 243.531089 
L 192.190976 243.531089 
L 192.190976 239.881188 
L 193.247896 239.881188 
L 193.247896 236.231287 
L 193.380788 236.231287 
L 193.458574 228.931485 
L 193.647884 228.931485 
L 193.647884 225.281584 
L 193.920406 225.281584 
L 193.995915 217.981782 
L 194.074827 217.981782 
L 194.177809 207.032079 
L 194.186723 207.032079 
L 194.186723 203.382178 
L 194.72653 203.382178 
L 194.72653 199.732277 
L 194.890161 199.732277 
L 194.890161 196.082376 
L 195.046057 196.082376 
L 195.056602 188.782574 
L 195.465978 188.782574 
L 195.57016 181.482772 
L 196.604539 181.482772 
L 196.604539 177.832871 
L 197.368624 177.832871 
L 197.426088 170.533069 
L 197.70407 170.533069 
L 197.799614 163.233267 
L 198.17179 163.233267 
L 198.17179 159.583366 
L 198.420274 159.583366 
L 198.420274 155.933465 
L 198.735057 155.933465 
L 198.735057 152.283564 
L 199.094393 152.283564 
L 199.094393 148.633663 
L 199.631968 148.633663 
L 199.701406 141.333861 
L 199.985351 141.333861 
L 199.985351 137.68396 
L 200.542243 137.68396 
L 200.542243 134.034059 
L 201.011692 134.034059 
L 201.094768 126.734257 
L 201.359054 126.734257 
L 201.359054 123.084356 
L 201.555877 123.084356 
L 201.555877 119.434455 
L 201.692817 119.434455 
L 201.692817 115.784554 
L 202.553958 115.784554 
L 202.553958 112.134653 
L 203.328248 112.134653 
L 203.358853 101.18495 
L 203.994093 101.18495 
L 203.994093 97.53505 
L 204.162039 97.53505 
L 204.162039 93.885149 
L 204.420061 93.885149 
L 204.420061 90.235248 
L 204.659002 90.235248 
L 204.659002 86.585347 
L 204.848256 86.585347 
L 204.848256 82.935446 
L 205.302778 82.935446 
L 205.302778 79.285545 
L 205.787225 79.285545 
L 205.787225 75.635644 
L 206.592981 75.635644 
L 206.592981 71.985743 
L 207.452794 71.985743 
L 207.452794 68.335842 
L 209.21127 68.335842 
L 209.21127 64.685941 
L 210.762837 64.685941 
L 210.762837 61.03604 
L 212.77652 61.03604 
L 212.77652 57.386139 
L 213.118282 57.386139 
L 213.118282 53.736238 
L 213.75908 53.736238 
L 213.75908 50.086337 
L 214.367044 50.086337 
L 214.367044 46.436436 
L 214.949358 46.436436 
L 214.949358 42.786535 
L 215.391095 42.786535 
L 215.391095 39.136634 
L 215.654619 39.136634 
L 215.673407 31.836832 
L 215.79886 31.836832 
L 215.878488 24.53703 
L 216.750421 24.53703 
L 216.750421 20.887129 
L 217.049768 20.887129 
L 217.049768 17.237228 
L 217.676417 17.237228 
L 217.676417 13.587327 
L 218.359707 13.587327 
L 218.359707 9.937426 
L 364.32 9.937426 
L 364.32 9.937426 
" style="fill:none;stroke:#00bfbf;stroke-linecap:square;"/>
   </g>
   <g id="line2d_6">
    <path clip-path="url(#p9ca6c33500)" d="M 162.571306 283.68 
L 162.571306 280.030099 
L 178.972889 280.030099 
L 178.972889 276.380198 
L 185.124013 276.380198 
L 185.190842 269.080396 
L 185.510276 269.080396 
L 185.552474 261.780594 
L 186.292849 261.780594 
L 186.292849 258.130693 
L 186.671036 258.130693 
L 186.671036 254.480792 
L 187.666477 254.480792 
L 187.666477 250.830891 
L 187.98811 250.830891 
L 188.085725 243.531089 
L 188.13098 243.531089 
L 188.13098 239.881188 
L 188.551605 239.881188 
L 188.574484 228.931485 
L 188.76533 228.931485 
L 188.78976 221.631683 
L 189.940753 221.631683 
L 189.940753 217.981782 
L 190.401283 217.981782 
L 190.401283 214.331881 
L 190.770852 214.331881 
L 190.855659 203.382178 
L 190.89418 203.382178 
L 190.89418 199.732277 
L 191.072546 199.732277 
L 191.181412 192.432475 
L 192.009221 192.432475 
L 192.06728 185.132673 
L 192.190976 185.132673 
L 192.264432 174.18297 
L 192.306296 174.18297 
L 192.399631 166.883168 
L 193.109353 166.883168 
L 193.109353 163.233267 
L 193.579718 163.233267 
L 193.579718 159.583366 
L 193.830223 159.583366 
L 193.830223 155.933465 
L 194.149684 155.933465 
L 194.149684 152.283564 
L 194.794375 152.283564 
L 194.794375 148.633663 
L 195.043475 148.633663 
L 195.043475 144.983762 
L 195.220829 144.983762 
L 195.220829 141.333861 
L 195.429524 141.333861 
L 195.429524 137.68396 
L 196.396567 137.68396 
L 196.396567 134.034059 
L 196.682507 134.034059 
L 196.705332 126.734257 
L 197.039841 126.734257 
L 197.103145 119.434455 
L 197.289203 119.434455 
L 197.289203 115.784554 
L 197.799614 115.784554 
L 197.799614 112.134653 
L 199.400958 112.134653 
L 199.493367 104.834851 
L 199.600739 104.834851 
L 199.701406 97.53505 
L 200.649696 97.53505 
L 200.649696 93.885149 
L 201.011692 93.885149 
L 201.011692 90.235248 
L 201.359054 90.235248 
L 201.359054 86.585347 
L 201.692817 86.585347 
L 201.692817 82.935446 
L 202.150657 82.935446 
L 202.150657 79.285545 
L 202.331361 79.285545 
L 202.331361 75.635644 
L 202.806862 75.635644 
L 202.806862 71.985743 
L 203.397909 71.985743 
L 203.48733 64.685941 
L 210.562151 64.685941 
L 210.562151 61.03604 
L 211.056943 61.03604 
L 211.13209 53.736238 
L 211.687062 53.736238 
L 211.687062 50.086337 
L 212.444893 50.086337 
L 212.444893 46.436436 
L 212.77652 46.436436 
L 212.77652 42.786535 
L 213.051723 42.786535 
L 213.116933 35.486733 
L 213.58158 35.486733 
L 213.672193 28.186931 
L 214.131894 28.186931 
L 214.131894 24.53703 
L 214.469287 24.53703 
L 214.469287 20.887129 
L 214.949355 20.887129 
L 214.949355 17.237228 
L 215.193321 17.237228 
L 215.193321 13.587327 
L 215.483518 13.587327 
L 215.483518 9.937426 
L 364.32 9.937426 
L 364.32 9.937426 
" style="fill:none;stroke:#bf00bf;stroke-linecap:square;"/>
   </g>
   <g id="patch_3">
    <path d="M 7.2 7.2 
L 364.32 7.2 
" style="fill:none;stroke:#000000;stroke-linecap:square;stroke-linejoin:miter;"/>
   </g>
   <g id="patch_4">
    <path d="M 364.32 283.68 
L 364.32 7.2 
" style="fill:none;stroke:#000000;stroke-linecap:square;stroke-linejoin:miter;"/>
   </g>
   <g id="patch_5">
    <path d="M 7.2 283.68 
L 364.32 283.68 
" style="fill:none;stroke:#000000;stroke-linecap:square;stroke-linejoin:miter;"/>
   </g>
   <g id="patch_6">
    <path d="M 7.2 283.68 
L 7.2 7.2 
" style="fill:none;stroke:#000000;stroke-linecap:square;stroke-linejoin:miter;"/>
   </g>
   <g id="matplotlib.axis_1">
    <g id="xtick_1">
     <g id="line2d_7">
      <path clip-path="url(#p9ca6c33500)" d="M 49.133998 283.68 
L 49.133998 7.2 
" style="fill:none;stroke:#000000;stroke-dasharray:1.000000,3.000000;stroke-dashoffset:0.0;stroke-width:0.5;"/>
     </g>
     <g id="line2d_8">
      <defs>
       <path d="M 0 0 
L 0 -4 
" id="m8928693861" style="stroke:#000000;stroke-width:0.5;"/>
      </defs>
      <g>
       <use style="stroke:#000000;stroke-width:0.5;" x="49.1339978514" xlink:href="#m8928693861" y="283.68"/>
      </g>
     </g>
     <g id="line2d_9">
      <defs>
       <path d="M 0 0 
L 0 4 
" id="m9052288328" style="stroke:#000000;stroke-width:0.5;"/>
      </defs>
      <g>
       <use style="stroke:#000000;stroke-width:0.5;" x="49.1339978514" xlink:href="#m9052288328" y="7.2"/>
      </g>
     </g>
     <g id="text_1">
      <!-- -6 -->
      <defs>
       <path d="M 33.015625 40.375 
Q 26.375 40.375 22.484375 35.828125 
Q 18.609375 31.296875 18.609375 23.390625 
Q 18.609375 15.53125 22.484375 10.953125 
Q 26.375 6.390625 33.015625 6.390625 
Q 39.65625 6.390625 43.53125 10.953125 
Q 47.40625 15.53125 47.40625 23.390625 
Q 47.40625 31.296875 43.53125 35.828125 
Q 39.65625 40.375 33.015625 40.375 
M 52.59375 71.296875 
L 52.59375 62.3125 
Q 48.875 64.0625 45.09375 64.984375 
Q 41.3125 65.921875 37.59375 65.921875 
Q 27.828125 65.921875 22.671875 59.328125 
Q 17.53125 52.734375 16.796875 39.40625 
Q 19.671875 43.65625 24.015625 45.921875 
Q 28.375 48.1875 33.59375 48.1875 
Q 44.578125 48.1875 50.953125 41.515625 
Q 57.328125 34.859375 57.328125 23.390625 
Q 57.328125 12.15625 50.6875 5.359375 
Q 44.046875 -1.421875 33.015625 -1.421875 
Q 20.359375 -1.421875 13.671875 8.265625 
Q 6.984375 17.96875 6.984375 36.375 
Q 6.984375 53.65625 15.1875 63.9375 
Q 23.390625 74.21875 37.203125 74.21875 
Q 40.921875 74.21875 44.703125 73.484375 
Q 48.484375 72.75 52.59375 71.296875 
" id="BitstreamVeraSans-Roman-36"/>
       <path d="M 4.890625 31.390625 
L 31.203125 31.390625 
L 31.203125 23.390625 
L 4.890625 23.390625 
z
" id="BitstreamVeraSans-Roman-2d"/>
      </defs>
      <g transform="translate(39.1636853514 302.876875)scale(0.2 -0.2)">
       <use xlink:href="#BitstreamVeraSans-Roman-2d"/>
       <use x="36.083984375" xlink:href="#BitstreamVeraSans-Roman-36"/>
      </g>
     </g>
    </g>
    <g id="xtick_2">
     <g id="line2d_10">
      <path clip-path="url(#p9ca6c33500)" d="M 91.158798 283.68 
L 91.158798 7.2 
" style="fill:none;stroke:#000000;stroke-dasharray:1.000000,3.000000;stroke-dashoffset:0.0;stroke-width:0.5;"/>
     </g>
     <g id="line2d_11">
      <g>
       <use style="stroke:#000000;stroke-width:0.5;" x="91.1587981379" xlink:href="#m8928693861" y="283.68"/>
      </g>
     </g>
     <g id="line2d_12">
      <g>
       <use style="stroke:#000000;stroke-width:0.5;" x="91.1587981379" xlink:href="#m9052288328" y="7.2"/>
      </g>
     </g>
     <g id="text_2">
      <!-- -4 -->
      <defs>
       <path d="M 37.796875 64.3125 
L 12.890625 25.390625 
L 37.796875 25.390625 
z
M 35.203125 72.90625 
L 47.609375 72.90625 
L 47.609375 25.390625 
L 58.015625 25.390625 
L 58.015625 17.1875 
L 47.609375 17.1875 
L 47.609375 0 
L 37.796875 0 
L 37.796875 17.1875 
L 4.890625 17.1875 
L 4.890625 26.703125 
z
" id="BitstreamVeraSans-Roman-34"/>
      </defs>
      <g transform="translate(81.1884856379 302.876875)scale(0.2 -0.2)">
       <use xlink:href="#BitstreamVeraSans-Roman-2d"/>
       <use x="36.083984375" xlink:href="#BitstreamVeraSans-Roman-34"/>
      </g>
     </g>
    </g>
    <g id="xtick_3">
     <g id="line2d_13">
      <path clip-path="url(#p9ca6c33500)" d="M 133.183598 283.68 
L 133.183598 7.2 
" style="fill:none;stroke:#000000;stroke-dasharray:1.000000,3.000000;stroke-dashoffset:0.0;stroke-width:0.5;"/>
     </g>
     <g id="line2d_14">
      <g>
       <use style="stroke:#000000;stroke-width:0.5;" x="133.183598424" xlink:href="#m8928693861" y="283.68"/>
      </g>
     </g>
     <g id="line2d_15">
      <g>
       <use style="stroke:#000000;stroke-width:0.5;" x="133.183598424" xlink:href="#m9052288328" y="7.2"/>
      </g>
     </g>
     <g id="text_3">
      <!-- -2 -->
      <defs>
       <path d="M 19.1875 8.296875 
L 53.609375 8.296875 
L 53.609375 0 
L 7.328125 0 
L 7.328125 8.296875 
Q 12.9375 14.109375 22.625 23.890625 
Q 32.328125 33.6875 34.8125 36.53125 
Q 39.546875 41.84375 41.421875 45.53125 
Q 43.3125 49.21875 43.3125 52.78125 
Q 43.3125 58.59375 39.234375 62.25 
Q 35.15625 65.921875 28.609375 65.921875 
Q 23.96875 65.921875 18.8125 64.3125 
Q 13.671875 62.703125 7.8125 59.421875 
L 7.8125 69.390625 
Q 13.765625 71.78125 18.9375 73 
Q 24.125 74.21875 28.421875 74.21875 
Q 39.75 74.21875 46.484375 68.546875 
Q 53.21875 62.890625 53.21875 53.421875 
Q 53.21875 48.921875 51.53125 44.890625 
Q 49.859375 40.875 45.40625 35.40625 
Q 44.1875 33.984375 37.640625 27.21875 
Q 31.109375 20.453125 19.1875 8.296875 
" id="BitstreamVeraSans-Roman-32"/>
      </defs>
      <g transform="translate(123.213285924 302.876875)scale(0.2 -0.2)">
       <use xlink:href="#BitstreamVeraSans-Roman-2d"/>
       <use x="36.083984375" xlink:href="#BitstreamVeraSans-Roman-32"/>
      </g>
     </g>
    </g>
    <g id="xtick_4">
     <g id="line2d_16">
      <path clip-path="url(#p9ca6c33500)" d="M 175.208399 283.68 
L 175.208399 7.2 
" style="fill:none;stroke:#000000;stroke-dasharray:1.000000,3.000000;stroke-dashoffset:0.0;stroke-width:0.5;"/>
     </g>
     <g id="line2d_17">
      <g>
       <use style="stroke:#000000;stroke-width:0.5;" x="175.208398711" xlink:href="#m8928693861" y="283.68"/>
      </g>
     </g>
     <g id="line2d_18">
      <g>
       <use style="stroke:#000000;stroke-width:0.5;" x="175.208398711" xlink:href="#m9052288328" y="7.2"/>
      </g>
     </g>
     <g id="text_4">
      <!-- 0 -->
      <defs>
       <path d="M 31.78125 66.40625 
Q 24.171875 66.40625 20.328125 58.90625 
Q 16.5 51.421875 16.5 36.375 
Q 16.5 21.390625 20.328125 13.890625 
Q 24.171875 6.390625 31.78125 6.390625 
Q 39.453125 6.390625 43.28125 13.890625 
Q 47.125 21.390625 47.125 36.375 
Q 47.125 51.421875 43.28125 58.90625 
Q 39.453125 66.40625 31.78125 66.40625 
M 31.78125 74.21875 
Q 44.046875 74.21875 50.515625 64.515625 
Q 56.984375 54.828125 56.984375 36.375 
Q 56.984375 17.96875 50.515625 8.265625 
Q 44.046875 -1.421875 31.78125 -1.421875 
Q 19.53125 -1.421875 13.0625 8.265625 
Q 6.59375 17.96875 6.59375 36.375 
Q 6.59375 54.828125 13.0625 64.515625 
Q 19.53125 74.21875 31.78125 74.21875 
" id="BitstreamVeraSans-Roman-30"/>
      </defs>
      <g transform="translate(168.845898711 302.876875)scale(0.2 -0.2)">
       <use xlink:href="#BitstreamVeraSans-Roman-30"/>
      </g>
     </g>
    </g>
    <g id="xtick_5">
     <g id="line2d_19">
      <path clip-path="url(#p9ca6c33500)" d="M 217.233199 283.68 
L 217.233199 7.2 
" style="fill:none;stroke:#000000;stroke-dasharray:1.000000,3.000000;stroke-dashoffset:0.0;stroke-width:0.5;"/>
     </g>
     <g id="line2d_20">
      <g>
       <use style="stroke:#000000;stroke-width:0.5;" x="217.233198997" xlink:href="#m8928693861" y="283.68"/>
      </g>
     </g>
     <g id="line2d_21">
      <g>
       <use style="stroke:#000000;stroke-width:0.5;" x="217.233198997" xlink:href="#m9052288328" y="7.2"/>
      </g>
     </g>
     <g id="text_5">
      <!-- 2 -->
      <g transform="translate(210.870698997 302.876875)scale(0.2 -0.2)">
       <use xlink:href="#BitstreamVeraSans-Roman-32"/>
      </g>
     </g>
    </g>
    <g id="xtick_6">
     <g id="line2d_22">
      <path clip-path="url(#p9ca6c33500)" d="M 259.257999 283.68 
L 259.257999 7.2 
" style="fill:none;stroke:#000000;stroke-dasharray:1.000000,3.000000;stroke-dashoffset:0.0;stroke-width:0.5;"/>
     </g>
     <g id="line2d_23">
      <g>
       <use style="stroke:#000000;stroke-width:0.5;" x="259.257999284" xlink:href="#m8928693861" y="283.68"/>
      </g>
     </g>
     <g id="line2d_24">
      <g>
       <use style="stroke:#000000;stroke-width:0.5;" x="259.257999284" xlink:href="#m9052288328" y="7.2"/>
      </g>
     </g>
     <g id="text_6">
      <!-- 4 -->
      <g transform="translate(252.895499284 302.876875)scale(0.2 -0.2)">
       <use xlink:href="#BitstreamVeraSans-Roman-34"/>
      </g>
     </g>
    </g>
    <g id="xtick_7">
     <g id="line2d_25">
      <path clip-path="url(#p9ca6c33500)" d="M 301.2828 283.68 
L 301.2828 7.2 
" style="fill:none;stroke:#000000;stroke-dasharray:1.000000,3.000000;stroke-dashoffset:0.0;stroke-width:0.5;"/>
     </g>
     <g id="line2d_26">
      <g>
       <use style="stroke:#000000;stroke-width:0.5;" x="301.28279957" xlink:href="#m8928693861" y="283.68"/>
      </g>
     </g>
     <g id="line2d_27">
      <g>
       <use style="stroke:#000000;stroke-width:0.5;" x="301.28279957" xlink:href="#m9052288328" y="7.2"/>
      </g>
     </g>
     <g id="text_7">
      <!-- 6 -->
      <g transform="translate(294.92029957 302.876875)scale(0.2 -0.2)">
       <use xlink:href="#BitstreamVeraSans-Roman-36"/>
      </g>
     </g>
    </g>
    <g id="xtick_8">
     <g id="line2d_28">
      <path clip-path="url(#p9ca6c33500)" d="M 343.3076 283.68 
L 343.3076 7.2 
" style="fill:none;stroke:#000000;stroke-dasharray:1.000000,3.000000;stroke-dashoffset:0.0;stroke-width:0.5;"/>
     </g>
     <g id="line2d_29">
      <g>
       <use style="stroke:#000000;stroke-width:0.5;" x="343.307599857" xlink:href="#m8928693861" y="283.68"/>
      </g>
     </g>
     <g id="line2d_30">
      <g>
       <use style="stroke:#000000;stroke-width:0.5;" x="343.307599857" xlink:href="#m9052288328" y="7.2"/>
      </g>
     </g>
     <g id="text_8">
      <!-- 8 -->
      <defs>
       <path d="M 31.78125 34.625 
Q 24.75 34.625 20.71875 30.859375 
Q 16.703125 27.09375 16.703125 20.515625 
Q 16.703125 13.921875 20.71875 10.15625 
Q 24.75 6.390625 31.78125 6.390625 
Q 38.8125 6.390625 42.859375 10.171875 
Q 46.921875 13.96875 46.921875 20.515625 
Q 46.921875 27.09375 42.890625 30.859375 
Q 38.875 34.625 31.78125 34.625 
M 21.921875 38.8125 
Q 15.578125 40.375 12.03125 44.71875 
Q 8.5 49.078125 8.5 55.328125 
Q 8.5 64.0625 14.71875 69.140625 
Q 20.953125 74.21875 31.78125 74.21875 
Q 42.671875 74.21875 48.875 69.140625 
Q 55.078125 64.0625 55.078125 55.328125 
Q 55.078125 49.078125 51.53125 44.71875 
Q 48 40.375 41.703125 38.8125 
Q 48.828125 37.15625 52.796875 32.3125 
Q 56.78125 27.484375 56.78125 20.515625 
Q 56.78125 9.90625 50.3125 4.234375 
Q 43.84375 -1.421875 31.78125 -1.421875 
Q 19.734375 -1.421875 13.25 4.234375 
Q 6.78125 9.90625 6.78125 20.515625 
Q 6.78125 27.484375 10.78125 32.3125 
Q 14.796875 37.15625 21.921875 38.8125 
M 18.3125 54.390625 
Q 18.3125 48.734375 21.84375 45.5625 
Q 25.390625 42.390625 31.78125 42.390625 
Q 38.140625 42.390625 41.71875 45.5625 
Q 45.3125 48.734375 45.3125 54.390625 
Q 45.3125 60.0625 41.71875 63.234375 
Q 38.140625 66.40625 31.78125 66.40625 
Q 25.390625 66.40625 21.84375 63.234375 
Q 18.3125 60.0625 18.3125 54.390625 
" id="BitstreamVeraSans-Roman-38"/>
      </defs>
      <g transform="translate(336.945099857 302.876875)scale(0.2 -0.2)">
       <use xlink:href="#BitstreamVeraSans-Roman-38"/>
      </g>
     </g>
    </g>
    <g id="xtick_9">
     <g id="line2d_31">
      <defs>
       <path d="M 0 0 
L 0 -2 
" id="mf3c108b243" style="stroke:#000000;stroke-width:0.5;"/>
      </defs>
      <g>
       <use style="stroke:#000000;stroke-width:0.5;" x="49.1339978514" xlink:href="#mf3c108b243" y="283.68"/>
      </g>
     </g>
     <g id="line2d_32">
      <defs>
       <path d="M 0 0 
L 0 2 
" id="m2d1fb7980b" style="stroke:#000000;stroke-width:0.5;"/>
      </defs>
      <g>
       <use style="stroke:#000000;stroke-width:0.5;" x="49.1339978514" xlink:href="#m2d1fb7980b" y="7.2"/>
      </g>
     </g>
    </g>
    <g id="xtick_10">
     <g id="line2d_33">
      <g>
       <use style="stroke:#000000;stroke-width:0.5;" x="91.1587981379" xlink:href="#mf3c108b243" y="283.68"/>
      </g>
     </g>
     <g id="line2d_34">
      <g>
       <use style="stroke:#000000;stroke-width:0.5;" x="91.1587981379" xlink:href="#m2d1fb7980b" y="7.2"/>
      </g>
     </g>
    </g>
    <g id="xtick_11">
     <g id="line2d_35">
      <g>
       <use style="stroke:#000000;stroke-width:0.5;" x="133.183598424" xlink:href="#mf3c108b243" y="283.68"/>
      </g>
     </g>
     <g id="line2d_36">
      <g>
       <use style="stroke:#000000;stroke-width:0.5;" x="133.183598424" xlink:href="#m2d1fb7980b" y="7.2"/>
      </g>
     </g>
    </g>
    <g id="xtick_12">
     <g id="line2d_37">
      <g>
       <use style="stroke:#000000;stroke-width:0.5;" x="175.208398711" xlink:href="#mf3c108b243" y="283.68"/>
      </g>
     </g>
     <g id="line2d_38">
      <g>
       <use style="stroke:#000000;stroke-width:0.5;" x="175.208398711" xlink:href="#m2d1fb7980b" y="7.2"/>
      </g>
     </g>
    </g>
    <g id="xtick_13">
     <g id="line2d_39">
      <g>
       <use style="stroke:#000000;stroke-width:0.5;" x="217.233198997" xlink:href="#mf3c108b243" y="283.68"/>
      </g>
     </g>
     <g id="line2d_40">
      <g>
       <use style="stroke:#000000;stroke-width:0.5;" x="217.233198997" xlink:href="#m2d1fb7980b" y="7.2"/>
      </g>
     </g>
    </g>
    <g id="xtick_14">
     <g id="line2d_41">
      <g>
       <use style="stroke:#000000;stroke-width:0.5;" x="259.257999284" xlink:href="#mf3c108b243" y="283.68"/>
      </g>
     </g>
     <g id="line2d_42">
      <g>
       <use style="stroke:#000000;stroke-width:0.5;" x="259.257999284" xlink:href="#m2d1fb7980b" y="7.2"/>
      </g>
     </g>
    </g>
    <g id="xtick_15">
     <g id="line2d_43">
      <g>
       <use style="stroke:#000000;stroke-width:0.5;" x="301.28279957" xlink:href="#mf3c108b243" y="283.68"/>
      </g>
     </g>
     <g id="line2d_44">
      <g>
       <use style="stroke:#000000;stroke-width:0.5;" x="301.28279957" xlink:href="#m2d1fb7980b" y="7.2"/>
      </g>
     </g>
    </g>
    <g id="xtick_16">
     <g id="line2d_45">
      <g>
       <use style="stroke:#000000;stroke-width:0.5;" x="343.307599857" xlink:href="#mf3c108b243" y="283.68"/>
      </g>
     </g>
     <g id="line2d_46">
      <g>
       <use style="stroke:#000000;stroke-width:0.5;" x="343.307599857" xlink:href="#m2d1fb7980b" y="7.2"/>
      </g>
     </g>
    </g>
    <g id="text_9">
     <!-- log10 of Df -->
     <defs>
      <path id="BitstreamVeraSans-Roman-20"/>
      <path d="M 12.40625 8.296875 
L 28.515625 8.296875 
L 28.515625 63.921875 
L 10.984375 60.40625 
L 10.984375 69.390625 
L 28.421875 72.90625 
L 38.28125 72.90625 
L 38.28125 8.296875 
L 54.390625 8.296875 
L 54.390625 0 
L 12.40625 0 
z
" id="BitstreamVeraSans-Roman-31"/>
      <path d="M 30.609375 48.390625 
Q 23.390625 48.390625 19.1875 42.75 
Q 14.984375 37.109375 14.984375 27.296875 
Q 14.984375 17.484375 19.15625 11.84375 
Q 23.34375 6.203125 30.609375 6.203125 
Q 37.796875 6.203125 41.984375 11.859375 
Q 46.1875 17.53125 46.1875 27.296875 
Q 46.1875 37.015625 41.984375 42.703125 
Q 37.796875 48.390625 30.609375 48.390625 
M 30.609375 56 
Q 42.328125 56 49.015625 48.375 
Q 55.71875 40.765625 55.71875 27.296875 
Q 55.71875 13.875 49.015625 6.21875 
Q 42.328125 -1.421875 30.609375 -1.421875 
Q 18.84375 -1.421875 12.171875 6.21875 
Q 5.515625 13.875 5.515625 27.296875 
Q 5.515625 40.765625 12.171875 48.375 
Q 18.84375 56 30.609375 56 
" id="BitstreamVeraSans-Roman-6f"/>
      <path d="M 9.421875 75.984375 
L 18.40625 75.984375 
L 18.40625 0 
L 9.421875 0 
z
" id="BitstreamVeraSans-Roman-6c"/>
      <path d="M 19.671875 64.796875 
L 19.671875 8.109375 
L 31.59375 8.109375 
Q 46.6875 8.109375 53.6875 14.9375 
Q 60.6875 21.78125 60.6875 36.53125 
Q 60.6875 51.171875 53.6875 57.984375 
Q 46.6875 64.796875 31.59375 64.796875 
z
M 9.8125 72.90625 
L 30.078125 72.90625 
Q 51.265625 72.90625 61.171875 64.09375 
Q 71.09375 55.28125 71.09375 36.53125 
Q 71.09375 17.671875 61.125 8.828125 
Q 51.171875 0 30.078125 0 
L 9.8125 0 
z
" id="BitstreamVeraSans-Roman-44"/>
      <path d="M 45.40625 27.984375 
Q 45.40625 37.75 41.375 43.109375 
Q 37.359375 48.484375 30.078125 48.484375 
Q 22.859375 48.484375 18.828125 43.109375 
Q 14.796875 37.75 14.796875 27.984375 
Q 14.796875 18.265625 18.828125 12.890625 
Q 22.859375 7.515625 30.078125 7.515625 
Q 37.359375 7.515625 41.375 12.890625 
Q 45.40625 18.265625 45.40625 27.984375 
M 54.390625 6.78125 
Q 54.390625 -7.171875 48.1875 -13.984375 
Q 42 -20.796875 29.203125 -20.796875 
Q 24.46875 -20.796875 20.265625 -20.09375 
Q 16.0625 -19.390625 12.109375 -17.921875 
L 12.109375 -9.1875 
Q 16.0625 -11.328125 19.921875 -12.34375 
Q 23.78125 -13.375 27.78125 -13.375 
Q 36.625 -13.375 41.015625 -8.765625 
Q 45.40625 -4.15625 45.40625 5.171875 
L 45.40625 9.625 
Q 42.625 4.78125 38.28125 2.390625 
Q 33.9375 0 27.875 0 
Q 17.828125 0 11.671875 7.65625 
Q 5.515625 15.328125 5.515625 27.984375 
Q 5.515625 40.671875 11.671875 48.328125 
Q 17.828125 56 27.875 56 
Q 33.9375 56 38.28125 53.609375 
Q 42.625 51.21875 45.40625 46.390625 
L 45.40625 54.6875 
L 54.390625 54.6875 
z
" id="BitstreamVeraSans-Roman-67"/>
      <path d="M 37.109375 75.984375 
L 37.109375 68.5 
L 28.515625 68.5 
Q 23.6875 68.5 21.796875 66.546875 
Q 19.921875 64.59375 19.921875 59.515625 
L 19.921875 54.6875 
L 34.71875 54.6875 
L 34.71875 47.703125 
L 19.921875 47.703125 
L 19.921875 0 
L 10.890625 0 
L 10.890625 47.703125 
L 2.296875 47.703125 
L 2.296875 54.6875 
L 10.890625 54.6875 
L 10.890625 58.5 
Q 10.890625 67.625 15.140625 71.796875 
Q 19.390625 75.984375 28.609375 75.984375 
z
" id="BitstreamVeraSans-Roman-66"/>
     </defs>
     <g transform="translate(130.5740625 327.233125)scale(0.2 -0.2)">
      <use xlink:href="#BitstreamVeraSans-Roman-6c"/>
      <use x="27.783203125" xlink:href="#BitstreamVeraSans-Roman-6f"/>
      <use x="88.96484375" xlink:href="#BitstreamVeraSans-Roman-67"/>
      <use x="152.44140625" xlink:href="#BitstreamVeraSans-Roman-31"/>
      <use x="216.064453125" xlink:href="#BitstreamVeraSans-Roman-30"/>
      <use x="279.6875" xlink:href="#BitstreamVeraSans-Roman-20"/>
      <use x="311.474609375" xlink:href="#BitstreamVeraSans-Roman-6f"/>
      <use x="372.65625" xlink:href="#BitstreamVeraSans-Roman-66"/>
      <use x="407.861328125" xlink:href="#BitstreamVeraSans-Roman-20"/>
      <use x="439.6484375" xlink:href="#BitstreamVeraSans-Roman-44"/>
      <use x="516.650390625" xlink:href="#BitstreamVeraSans-Roman-66"/>
     </g>
    </g>
   </g>
   <g id="matplotlib.axis_2">
    <g id="ytick_1">
     <g id="line2d_47">
      <path clip-path="url(#p9ca6c33500)" d="M 7.2 283.68 
L 364.32 283.68 
" style="fill:none;stroke:#000000;stroke-dasharray:1.000000,3.000000;stroke-dashoffset:0.0;stroke-width:0.5;"/>
     </g>
     <g id="line2d_48">
      <defs>
       <path d="M 0 0 
L 4 0 
" id="med537a1c26" style="stroke:#000000;stroke-width:0.5;"/>
      </defs>
      <g>
       <use style="stroke:#000000;stroke-width:0.5;" x="7.2" xlink:href="#med537a1c26" y="283.68"/>
      </g>
     </g>
     <g id="line2d_49">
      <defs>
       <path d="M 0 0 
L -4 0 
" id="m83341bc58b" style="stroke:#000000;stroke-width:0.5;"/>
      </defs>
      <g>
       <use style="stroke:#000000;stroke-width:0.5;" x="364.32" xlink:href="#m83341bc58b" y="283.68"/>
      </g>
     </g>
    </g>
    <g id="ytick_2">
     <g id="line2d_50">
      <path clip-path="url(#p9ca6c33500)" d="M 7.2 228.931485 
L 364.32 228.931485 
" style="fill:none;stroke:#000000;stroke-dasharray:1.000000,3.000000;stroke-dashoffset:0.0;stroke-width:0.5;"/>
     </g>
     <g id="line2d_51">
      <g>
       <use style="stroke:#000000;stroke-width:0.5;" x="7.2" xlink:href="#med537a1c26" y="228.931485149"/>
      </g>
     </g>
     <g id="line2d_52">
      <g>
       <use style="stroke:#000000;stroke-width:0.5;" x="364.32" xlink:href="#m83341bc58b" y="228.931485149"/>
      </g>
     </g>
    </g>
    <g id="ytick_3">
     <g id="line2d_53">
      <path clip-path="url(#p9ca6c33500)" d="M 7.2 174.18297 
L 364.32 174.18297 
" style="fill:none;stroke:#000000;stroke-dasharray:1.000000,3.000000;stroke-dashoffset:0.0;stroke-width:0.5;"/>
     </g>
     <g id="line2d_54">
      <g>
       <use style="stroke:#000000;stroke-width:0.5;" x="7.2" xlink:href="#med537a1c26" y="174.182970297"/>
      </g>
     </g>
     <g id="line2d_55">
      <g>
       <use style="stroke:#000000;stroke-width:0.5;" x="364.32" xlink:href="#m83341bc58b" y="174.182970297"/>
      </g>
     </g>
    </g>
    <g id="ytick_4">
     <g id="line2d_56">
      <path clip-path="url(#p9ca6c33500)" d="M 7.2 119.434455 
L 364.32 119.434455 
" style="fill:none;stroke:#000000;stroke-dasharray:1.000000,3.000000;stroke-dashoffset:0.0;stroke-width:0.5;"/>
     </g>
     <g id="line2d_57">
      <g>
       <use style="stroke:#000000;stroke-width:0.5;" x="7.2" xlink:href="#med537a1c26" y="119.434455446"/>
      </g>
     </g>
     <g id="line2d_58">
      <g>
       <use style="stroke:#000000;stroke-width:0.5;" x="364.32" xlink:href="#m83341bc58b" y="119.434455446"/>
      </g>
     </g>
    </g>
    <g id="ytick_5">
     <g id="line2d_59">
      <path clip-path="url(#p9ca6c33500)" d="M 7.2 64.685941 
L 364.32 64.685941 
" style="fill:none;stroke:#000000;stroke-dasharray:1.000000,3.000000;stroke-dashoffset:0.0;stroke-width:0.5;"/>
     </g>
     <g id="line2d_60">
      <g>
       <use style="stroke:#000000;stroke-width:0.5;" x="7.2" xlink:href="#med537a1c26" y="64.6859405941"/>
      </g>
     </g>
     <g id="line2d_61">
      <g>
       <use style="stroke:#000000;stroke-width:0.5;" x="364.32" xlink:href="#m83341bc58b" y="64.6859405941"/>
      </g>
     </g>
    </g>
    <g id="ytick_6">
     <g id="line2d_62">
      <path clip-path="url(#p9ca6c33500)" d="M 7.2 9.937426 
L 364.32 9.937426 
" style="fill:none;stroke:#000000;stroke-dasharray:1.000000,3.000000;stroke-dashoffset:0.0;stroke-width:0.5;"/>
     </g>
     <g id="line2d_63">
      <g>
       <use style="stroke:#000000;stroke-width:0.5;" x="7.2" xlink:href="#med537a1c26" y="9.93742574257"/>
      </g>
     </g>
     <g id="line2d_64">
      <g>
       <use style="stroke:#000000;stroke-width:0.5;" x="364.32" xlink:href="#m83341bc58b" y="9.93742574257"/>
      </g>
     </g>
    </g>
   </g>
   <g id="text_10">
    <!-- f15-19,5-D -->
    <defs>
     <path d="M 11.71875 12.40625 
L 22.015625 12.40625 
L 22.015625 4 
L 14.015625 -11.625 
L 7.71875 -11.625 
L 11.71875 4 
z
" id="BitstreamVeraSans-Roman-2c"/>
     <path d="M 10.984375 1.515625 
L 10.984375 10.5 
Q 14.703125 8.734375 18.5 7.8125 
Q 22.3125 6.890625 25.984375 6.890625 
Q 35.75 6.890625 40.890625 13.453125 
Q 46.046875 20.015625 46.78125 33.40625 
Q 43.953125 29.203125 39.59375 26.953125 
Q 35.25 24.703125 29.984375 24.703125 
Q 19.046875 24.703125 12.671875 31.3125 
Q 6.296875 37.9375 6.296875 49.421875 
Q 6.296875 60.640625 12.9375 67.421875 
Q 19.578125 74.21875 30.609375 74.21875 
Q 43.265625 74.21875 49.921875 64.515625 
Q 56.59375 54.828125 56.59375 36.375 
Q 56.59375 19.140625 48.40625 8.859375 
Q 40.234375 -1.421875 26.421875 -1.421875 
Q 22.703125 -1.421875 18.890625 -0.6875 
Q 15.09375 0.046875 10.984375 1.515625 
M 30.609375 32.421875 
Q 37.25 32.421875 41.125 36.953125 
Q 45.015625 41.5 45.015625 49.421875 
Q 45.015625 57.28125 41.125 61.84375 
Q 37.25 66.40625 30.609375 66.40625 
Q 23.96875 66.40625 20.09375 61.84375 
Q 16.21875 57.28125 16.21875 49.421875 
Q 16.21875 41.5 20.09375 36.953125 
Q 23.96875 32.421875 30.609375 32.421875 
" id="BitstreamVeraSans-Roman-39"/>
     <path d="M 10.796875 72.90625 
L 49.515625 72.90625 
L 49.515625 64.59375 
L 19.828125 64.59375 
L 19.828125 46.734375 
Q 21.96875 47.46875 24.109375 47.828125 
Q 26.265625 48.1875 28.421875 48.1875 
Q 40.625 48.1875 47.75 41.5 
Q 54.890625 34.8125 54.890625 23.390625 
Q 54.890625 11.625 47.5625 5.09375 
Q 40.234375 -1.421875 26.90625 -1.421875 
Q 22.3125 -1.421875 17.546875 -0.640625 
Q 12.796875 0.140625 7.71875 1.703125 
L 7.71875 11.625 
Q 12.109375 9.234375 16.796875 8.0625 
Q 21.484375 6.890625 26.703125 6.890625 
Q 35.15625 6.890625 40.078125 11.328125 
Q 45.015625 15.765625 45.015625 23.390625 
Q 45.015625 31 40.078125 35.4375 
Q 35.15625 39.890625 26.703125 39.890625 
Q 22.75 39.890625 18.8125 39.015625 
Q 14.890625 38.140625 10.796875 36.28125 
z
" id="BitstreamVeraSans-Roman-35"/>
    </defs>
    <g transform="translate(250.324475 278.1504)scale(0.2 -0.2)">
     <use xlink:href="#BitstreamVeraSans-Roman-66"/>
     <use x="35.205078125" xlink:href="#BitstreamVeraSans-Roman-31"/>
     <use x="98.828125" xlink:href="#BitstreamVeraSans-Roman-35"/>
     <use x="162.451171875" xlink:href="#BitstreamVeraSans-Roman-2d"/>
     <use x="198.53515625" xlink:href="#BitstreamVeraSans-Roman-31"/>
     <use x="262.158203125" xlink:href="#BitstreamVeraSans-Roman-39"/>
     <use x="325.78125" xlink:href="#BitstreamVeraSans-Roman-2c"/>
     <use x="357.568359375" xlink:href="#BitstreamVeraSans-Roman-35"/>
     <use x="421.19140625" xlink:href="#BitstreamVeraSans-Roman-2d"/>
     <use x="457.275390625" xlink:href="#BitstreamVeraSans-Roman-44"/>
    </g>
   </g>
  </g>
 </g>
 <defs>
  <clipPath id="p9ca6c33500">
   <rect height="276.48" width="357.12" x="7.2" y="7.2"/>
  </clipPath>
 </defs>
</svg>
