<?xml version="1.0" encoding="utf-8" standalone="no"?>
<!DOCTYPE svg PUBLIC "-//W3C//DTD SVG 1.1//EN"
  "http://www.w3.org/Graphics/SVG/1.1/DTD/svg11.dtd">
<!-- Created with matplotlib (http://matplotlib.org/) -->
<svg height="338pt" version="1.1" viewBox="0 0 371 338" width="371pt" xmlns="http://www.w3.org/2000/svg" xmlns:xlink="http://www.w3.org/1999/xlink">
 <defs>
  <style type="text/css">
*{stroke-linecap:butt;stroke-linejoin:round;stroke-miterlimit:100000;}
  </style>
 </defs>
 <g id="figure_1">
  <g id="patch_1">
   <path d="M 0 338.5925 
L 371.52 338.5925 
L 371.52 0 
L 0 0 
z
" style="fill:#ffffff;"/>
  </g>
  <g id="axes_1">
   <g id="patch_2">
    <path d="M 7.2 283.68 
L 364.32 283.68 
L 364.32 7.2 
L 7.2 7.2 
z
" style="fill:#ffffff;"/>
   </g>
   <g id="line2d_1">
    <path clip-path="url(#pe1db16a47d)" d="M 216.020546 283.68 
L 216.020546 279.117624 
L 216.156831 279.117624 
L 216.156831 274.555248 
L 216.303569 274.555248 
L 216.303569 269.992871 
L 216.769899 269.992871 
L 216.769899 265.430495 
L 216.802875 265.430495 
L 216.802875 260.868119 
L 218.854071 260.868119 
L 218.854071 256.305743 
L 219.346391 256.305743 
L 219.346391 251.743366 
L 219.656255 251.743366 
L 219.656255 247.18099 
L 219.952913 247.18099 
L 219.952913 242.618614 
L 220.075985 242.618614 
L 220.075985 238.056238 
L 220.988155 238.056238 
L 220.988155 233.493861 
L 221.081956 233.493861 
L 221.081956 228.931485 
L 221.117677 228.931485 
L 221.117677 224.369109 
L 221.124754 224.369109 
L 221.124754 219.806733 
L 221.91154 219.806733 
L 221.91154 215.244356 
L 253.956565 215.244356 
L 253.956565 210.68198 
L 254.610382 210.68198 
L 254.610382 206.119604 
L 255.876476 206.119604 
L 255.876476 201.557228 
L 256.045725 201.557228 
L 256.045725 196.994851 
L 257.684101 196.994851 
L 257.684101 192.432475 
L 259.821726 192.432475 
L 259.821726 187.870099 
L 259.87552 187.870099 
L 259.87552 183.307723 
L 260.579214 183.307723 
L 260.579214 178.745347 
L 260.780982 178.745347 
L 260.780982 174.18297 
L 260.904025 174.18297 
L 260.904025 169.620594 
L 261.027363 169.620594 
L 261.027363 165.058218 
L 261.23926 165.058218 
L 261.23926 160.495842 
L 261.253843 160.495842 
L 261.253843 155.933465 
L 261.742205 155.933465 
L 261.742205 151.371089 
L 262.293895 151.371089 
L 262.293895 146.808713 
L 262.467044 146.808713 
L 262.467044 142.246337 
L 262.920042 142.246337 
L 262.920042 137.68396 
L 262.941617 137.68396 
L 262.941617 133.121584 
L 263.195844 133.121584 
L 263.195844 128.559208 
L 263.706309 128.559208 
L 263.706309 123.996832 
L 264.37184 123.996832 
L 264.37184 119.434455 
L 265.468213 119.434455 
L 265.468213 114.872079 
L 265.533844 114.872079 
L 265.533844 110.309703 
L 265.534601 110.309703 
L 265.534601 105.747327 
L 265.838623 105.747327 
L 265.838623 101.18495 
L 266.150655 101.18495 
L 266.150655 96.622574 
L 266.290207 96.622574 
L 266.290207 92.060198 
L 266.497997 92.060198 
L 266.497997 87.497822 
L 267.061502 87.497822 
L 267.061502 82.935446 
L 267.148069 82.935446 
L 267.148069 78.373069 
L 267.614097 78.373069 
L 267.614097 73.810693 
L 267.699433 73.810693 
L 267.699433 69.248317 
L 268.325857 69.248317 
L 268.325857 64.685941 
L 268.36803 64.685941 
L 268.36803 60.123564 
L 269.42586 60.123564 
L 269.42586 55.561188 
L 269.474334 55.561188 
L 269.474334 50.998812 
L 269.70972 50.998812 
L 269.70972 46.436436 
L 270.798648 46.436436 
L 270.798648 41.874059 
L 270.82804 41.874059 
L 270.82804 37.311683 
L 271.408175 37.311683 
L 271.408175 32.749307 
L 273.568483 32.749307 
L 273.568483 28.186931 
L 276.164728 28.186931 
L 276.164728 23.624554 
L 276.99812 23.624554 
L 276.99812 19.062178 
L 279.273244 19.062178 
L 279.273244 14.499802 
L 279.685402 14.499802 
L 279.685402 9.937426 
L 279.685402 9.937426 
L 279.685402 9.937426 
L 364.32 9.937426 
" style="fill:none;stroke:#ff0000;stroke-linecap:square;stroke-width:3.0;"/>
   </g>
   <g id="line2d_2">
    <path clip-path="url(#pe1db16a47d)" d="M 222.590962 283.68 
L 222.590962 279.117624 
L 222.591223 279.117624 
L 222.591223 274.555248 
L 223.730989 274.555248 
L 223.730989 269.992871 
L 224.450839 269.992871 
L 224.450839 265.430495 
L 224.533168 265.430495 
L 224.533168 260.868119 
L 224.650901 260.868119 
L 224.650901 256.305743 
L 225.068163 256.305743 
L 225.068163 251.743366 
L 225.49493 251.743366 
L 225.49493 247.18099 
L 226.240603 247.18099 
L 226.240603 242.618614 
L 226.616868 242.618614 
L 226.616868 238.056238 
L 227.059173 238.056238 
L 227.059173 233.493861 
L 228.06878 233.493861 
L 228.06878 228.931485 
L 228.185382 228.931485 
L 228.185382 224.369109 
L 228.761592 224.369109 
L 228.761592 219.806733 
L 229.67646 219.806733 
L 229.67646 215.244356 
L 266.612107 215.244356 
L 266.612107 210.68198 
L 267.191829 210.68198 
L 267.191829 206.119604 
L 267.301422 206.119604 
L 267.301422 201.557228 
L 267.421191 201.557228 
L 267.421191 196.994851 
L 267.61573 196.994851 
L 267.61573 192.432475 
L 268.216688 192.432475 
L 268.216688 187.870099 
L 268.914014 187.870099 
L 268.914014 183.307723 
L 269.174117 183.307723 
L 269.174117 178.745347 
L 269.64544 178.745347 
L 269.64544 174.18297 
L 269.887849 174.18297 
L 269.887849 169.620594 
L 270.084923 169.620594 
L 270.084923 165.058218 
L 270.233046 165.058218 
L 270.233046 160.495842 
L 270.375977 160.495842 
L 270.375977 155.933465 
L 270.392374 155.933465 
L 270.392374 151.371089 
L 270.650766 151.371089 
L 270.650766 146.808713 
L 270.689143 146.808713 
L 270.689143 142.246337 
L 270.82804 142.246337 
L 270.82804 137.68396 
L 270.947137 137.68396 
L 270.947137 133.121584 
L 271.11262 133.121584 
L 271.11262 128.559208 
L 271.884155 128.559208 
L 271.884155 123.996832 
L 271.921518 123.996832 
L 271.921518 119.434455 
L 271.962259 119.434455 
L 271.962259 114.872079 
L 272.224501 114.872079 
L 272.224501 110.309703 
L 272.519155 110.309703 
L 272.519155 105.747327 
L 272.557062 105.747327 
L 272.557062 101.18495 
L 272.722677 101.18495 
L 272.722677 96.622574 
L 272.965786 96.622574 
L 272.965786 92.060198 
L 273.473101 92.060198 
L 273.473101 87.497822 
L 273.726048 87.497822 
L 273.726048 82.935446 
L 274.640579 82.935446 
L 274.640579 78.373069 
L 274.812592 78.373069 
L 274.812592 73.810693 
L 275.669341 73.810693 
L 275.669341 69.248317 
L 275.847506 69.248317 
L 275.847506 64.685941 
L 276.0362 64.685941 
L 276.0362 60.123564 
L 277.419679 60.123564 
L 277.419679 55.561188 
L 277.447833 55.561188 
L 277.447833 50.998812 
L 279.954903 50.998812 
L 279.954903 46.436436 
L 280.160351 46.436436 
L 280.160351 41.874059 
L 280.318331 41.874059 
L 280.318331 37.311683 
L 280.494737 37.311683 
L 280.494737 32.749307 
L 280.933262 32.749307 
L 280.933262 28.186931 
L 283.547485 28.186931 
L 283.547485 23.624554 
L 284.211602 23.624554 
L 284.211602 19.062178 
L 285.502595 19.062178 
L 285.502595 14.499802 
L 285.954792 14.499802 
L 285.954792 9.937426 
L 285.954792 9.937426 
L 285.954792 9.937426 
L 364.32 9.937426 
" style="fill:none;stroke:#00bfbf;stroke-linecap:square;"/>
   </g>
   <g id="line2d_3">
    <path clip-path="url(#pe1db16a47d)" d="M 222.07061 283.68 
L 222.07061 279.117624 
L 222.590962 279.117624 
L 222.590962 274.555248 
L 222.702759 274.555248 
L 222.702759 269.992871 
L 222.882863 269.992871 
L 222.882863 265.430495 
L 223.730989 265.430495 
L 223.730989 260.868119 
L 224.006647 260.868119 
L 224.006647 256.305743 
L 224.043981 256.305743 
L 224.043981 251.743366 
L 224.373816 251.743366 
L 224.373816 247.18099 
L 224.450839 247.18099 
L 224.450839 242.618614 
L 224.494356 242.618614 
L 224.494356 238.056238 
L 224.533168 238.056238 
L 224.533168 233.493861 
L 224.769218 233.493861 
L 224.769218 228.931485 
L 226.340915 228.931485 
L 226.340915 224.369109 
L 227.059173 224.369109 
L 227.059173 219.806733 
L 228.185382 219.806733 
L 228.185382 215.244356 
L 262.919508 215.244356 
L 262.919508 210.68198 
L 264.475891 210.68198 
L 264.475891 206.119604 
L 264.689248 206.119604 
L 264.689248 201.557228 
L 264.769373 201.557228 
L 264.769373 196.994851 
L 264.993915 196.994851 
L 264.993915 192.432475 
L 265.462113 192.432475 
L 265.462113 187.870099 
L 266.310611 187.870099 
L 266.310611 183.307723 
L 266.470388 183.307723 
L 266.470388 178.745347 
L 266.612107 178.745347 
L 266.612107 174.18297 
L 266.626418 174.18297 
L 266.626418 169.620594 
L 266.911674 169.620594 
L 266.911674 165.058218 
L 267.191829 165.058218 
L 267.191829 160.495842 
L 267.301422 160.495842 
L 267.301422 155.933465 
L 267.61573 155.933465 
L 267.61573 151.371089 
L 267.841475 151.371089 
L 267.841475 146.808713 
L 268.179387 146.808713 
L 268.179387 142.246337 
L 268.599038 142.246337 
L 268.599038 137.68396 
L 268.914014 137.68396 
L 268.914014 133.121584 
L 269.331892 133.121584 
L 269.331892 128.559208 
L 269.887849 128.559208 
L 269.887849 123.996832 
L 270.084923 123.996832 
L 270.084923 119.434455 
L 270.233046 119.434455 
L 270.233046 114.872079 
L 270.375977 114.872079 
L 270.375977 110.309703 
L 270.689143 110.309703 
L 270.689143 105.747327 
L 270.82804 105.747327 
L 270.82804 101.18495 
L 271.962259 101.18495 
L 271.962259 96.622574 
L 272.03509 96.622574 
L 272.03509 92.060198 
L 272.557062 92.060198 
L 272.557062 87.497822 
L 272.722677 87.497822 
L 272.722677 82.935446 
L 272.781436 82.935446 
L 272.781436 78.373069 
L 273.145089 78.373069 
L 273.145089 73.810693 
L 273.726048 73.810693 
L 273.726048 69.248317 
L 274.640579 69.248317 
L 274.640579 64.685941 
L 274.812592 64.685941 
L 274.812592 60.123564 
L 275.667222 60.123564 
L 275.667222 55.561188 
L 276.033033 55.561188 
L 276.033033 50.998812 
L 277.419679 50.998812 
L 277.419679 46.436436 
L 277.447833 46.436436 
L 277.447833 41.874059 
L 278.206864 41.874059 
L 278.206864 37.311683 
L 280.160351 37.311683 
L 280.160351 32.749307 
L 280.933262 32.749307 
L 280.933262 28.186931 
L 281.630203 28.186931 
L 281.630203 23.624554 
L 281.727166 23.624554 
L 281.727166 19.062178 
L 282.605148 19.062178 
L 282.605148 14.499802 
L 284.149193 14.499802 
L 284.149193 9.937426 
L 284.149193 9.937426 
L 284.149193 9.937426 
L 364.32 9.937426 
" style="fill:none;stroke:#bf00bf;stroke-linecap:square;"/>
   </g>
   <g id="line2d_4">
    <path clip-path="url(#pe1db16a47d)" d="M 216.965929 283.68 
L 216.965929 279.117624 
L 217.889462 279.117624 
L 217.889462 274.555248 
L 220.075985 274.555248 
L 220.075985 269.992871 
L 220.340079 269.992871 
L 220.340079 265.430495 
L 221.081956 265.430495 
L 221.081956 260.868119 
L 222.07061 260.868119 
L 222.07061 256.305743 
L 222.112692 256.305743 
L 222.112692 251.743366 
L 222.702759 251.743366 
L 222.702759 247.18099 
L 223.026466 247.18099 
L 223.026466 242.618614 
L 223.030251 242.618614 
L 223.030251 238.056238 
L 223.578454 238.056238 
L 223.578454 233.493861 
L 223.730989 233.493861 
L 223.730989 228.931485 
L 224.373816 228.931485 
L 224.373816 224.369109 
L 224.769218 224.369109 
L 224.769218 219.806733 
L 228.185382 219.806733 
L 228.185382 215.244356 
L 260.706565 215.244356 
L 260.706565 210.68198 
L 262.664485 210.68198 
L 262.664485 206.119604 
L 262.919508 206.119604 
L 262.919508 201.557228 
L 263.000946 201.557228 
L 263.000946 196.994851 
L 264.122362 196.994851 
L 264.122362 192.432475 
L 264.177572 192.432475 
L 264.177572 187.870099 
L 264.475891 187.870099 
L 264.475891 183.307723 
L 264.493181 183.307723 
L 264.493181 178.745347 
L 264.769373 178.745347 
L 264.769373 174.18297 
L 264.805787 174.18297 
L 264.805787 169.620594 
L 264.993915 169.620594 
L 264.993915 165.058218 
L 265.599968 165.058218 
L 265.599968 160.495842 
L 266.310611 160.495842 
L 266.310611 155.933465 
L 266.383092 155.933465 
L 266.383092 151.371089 
L 266.470388 151.371089 
L 266.470388 146.808713 
L 266.483781 146.808713 
L 266.483781 142.246337 
L 266.612107 142.246337 
L 266.612107 137.68396 
L 267.106902 137.68396 
L 267.106902 133.121584 
L 267.187893 133.121584 
L 267.187893 128.559208 
L 267.191829 128.559208 
L 267.191829 123.996832 
L 267.301422 123.996832 
L 267.301422 119.434455 
L 267.765132 119.434455 
L 267.765132 114.872079 
L 267.841475 114.872079 
L 267.841475 110.309703 
L 268.512559 110.309703 
L 268.512559 105.747327 
L 268.914014 105.747327 
L 268.914014 101.18495 
L 269.805233 101.18495 
L 269.805233 96.622574 
L 270.233046 96.622574 
L 270.233046 92.060198 
L 270.375977 92.060198 
L 270.375977 87.497822 
L 270.689143 87.497822 
L 270.689143 82.935446 
L 270.798648 82.935446 
L 270.798648 78.373069 
L 270.82804 78.373069 
L 270.82804 73.810693 
L 270.839287 73.810693 
L 270.839287 69.248317 
L 271.343557 69.248317 
L 271.343557 64.685941 
L 271.581436 64.685941 
L 271.581436 60.123564 
L 271.962259 60.123564 
L 271.962259 55.561188 
L 273.382639 55.561188 
L 273.382639 50.998812 
L 275.63656 50.998812 
L 275.63656 46.436436 
L 275.667222 46.436436 
L 275.667222 41.874059 
L 275.895617 41.874059 
L 275.895617 37.311683 
L 277.447833 37.311683 
L 277.447833 32.749307 
L 278.140578 32.749307 
L 278.140578 28.186931 
L 279.805997 28.186931 
L 279.805997 23.624554 
L 280.090129 23.624554 
L 280.090129 19.062178 
L 280.160351 19.062178 
L 280.160351 14.499802 
L 280.298389 14.499802 
L 280.298389 9.937426 
L 280.298389 9.937426 
L 280.298389 9.937426 
L 364.32 9.937426 
" style="fill:none;stroke:#000000;stroke-linecap:square;"/>
   </g>
   <g id="line2d_5">
    <path clip-path="url(#pe1db16a47d)" d="M 216.020546 283.68 
L 216.020546 279.117624 
L 216.965929 279.117624 
L 216.965929 274.555248 
L 217.889462 274.555248 
L 217.889462 269.992871 
L 219.177124 269.992871 
L 219.177124 265.430495 
L 219.346391 265.430495 
L 219.346391 260.868119 
L 219.785041 260.868119 
L 219.785041 256.305743 
L 219.952913 256.305743 
L 219.952913 251.743366 
L 220.006476 251.743366 
L 220.006476 247.18099 
L 220.075985 247.18099 
L 220.075985 242.618614 
L 220.649653 242.618614 
L 220.649653 238.056238 
L 221.081956 238.056238 
L 221.081956 233.493861 
L 221.117677 233.493861 
L 221.117677 228.931485 
L 221.91154 228.931485 
L 221.91154 224.369109 
L 223.922724 224.369109 
L 223.922724 219.806733 
L 226.926424 219.806733 
L 226.926424 215.244356 
L 253.957229 215.244356 
L 253.957229 210.68198 
L 254.610382 210.68198 
L 254.610382 206.119604 
L 256.192265 206.119604 
L 256.192265 201.557228 
L 260.49106 201.557228 
L 260.49106 196.994851 
L 260.706565 196.994851 
L 260.706565 192.432475 
L 260.961458 192.432475 
L 260.961458 187.870099 
L 261.108271 187.870099 
L 261.108271 183.307723 
L 261.265053 183.307723 
L 261.265053 178.745347 
L 262.296903 178.745347 
L 262.296903 174.18297 
L 262.365713 174.18297 
L 262.365713 169.620594 
L 262.450828 169.620594 
L 262.450828 165.058218 
L 262.467373 165.058218 
L 262.467373 160.495842 
L 262.919508 160.495842 
L 262.919508 155.933465 
L 263.182956 155.933465 
L 263.182956 151.371089 
L 263.261476 151.371089 
L 263.261476 146.808713 
L 264.177572 146.808713 
L 264.177572 142.246337 
L 264.475891 142.246337 
L 264.475891 137.68396 
L 264.493181 137.68396 
L 264.493181 133.121584 
L 265.125327 133.121584 
L 265.125327 128.559208 
L 265.468372 128.559208 
L 265.468372 123.996832 
L 266.021418 123.996832 
L 266.021418 119.434455 
L 266.298448 119.434455 
L 266.298448 114.872079 
L 266.310611 114.872079 
L 266.310611 110.309703 
L 266.612107 110.309703 
L 266.612107 105.747327 
L 267.106902 105.747327 
L 267.106902 101.18495 
L 267.187893 101.18495 
L 267.187893 96.622574 
L 267.191829 96.622574 
L 267.191829 92.060198 
L 267.765132 92.060198 
L 267.765132 87.497822 
L 268.512559 87.497822 
L 268.512559 82.935446 
L 268.914014 82.935446 
L 268.914014 78.373069 
L 269.709853 78.373069 
L 269.709853 73.810693 
L 269.710878 73.810693 
L 269.710878 69.248317 
L 269.75535 69.248317 
L 269.75535 64.685941 
L 270.798648 64.685941 
L 270.798648 60.123564 
L 270.82804 60.123564 
L 270.82804 55.561188 
L 270.839287 55.561188 
L 270.839287 50.998812 
L 271.096604 50.998812 
L 271.096604 46.436436 
L 271.412991 46.436436 
L 271.412991 41.874059 
L 273.854658 41.874059 
L 273.854658 37.311683 
L 274.005242 37.311683 
L 274.005242 32.749307 
L 275.343773 32.749307 
L 275.343773 28.186931 
L 276.16617 28.186931 
L 276.16617 23.624554 
L 279.273599 23.624554 
L 279.273599 19.062178 
L 279.805997 19.062178 
L 279.805997 14.499802 
L 280.160351 14.499802 
L 280.160351 9.937426 
L 280.160351 9.937426 
L 280.160351 9.937426 
L 364.32 9.937426 
" style="fill:none;stroke:#00bfbf;stroke-linecap:square;"/>
   </g>
   <g id="patch_3">
    <path d="M 7.2 7.2 
L 364.32 7.2 
" style="fill:none;stroke:#000000;stroke-linecap:square;stroke-linejoin:miter;"/>
   </g>
   <g id="patch_4">
    <path d="M 364.32 283.68 
L 364.32 7.2 
" style="fill:none;stroke:#000000;stroke-linecap:square;stroke-linejoin:miter;"/>
   </g>
   <g id="patch_5">
    <path d="M 7.2 283.68 
L 364.32 283.68 
" style="fill:none;stroke:#000000;stroke-linecap:square;stroke-linejoin:miter;"/>
   </g>
   <g id="patch_6">
    <path d="M 7.2 283.68 
L 7.2 7.2 
" style="fill:none;stroke:#000000;stroke-linecap:square;stroke-linejoin:miter;"/>
   </g>
   <g id="matplotlib.axis_1">
    <g id="xtick_1">
     <g id="line2d_6">
      <path clip-path="url(#pe1db16a47d)" d="M 46.803772 283.68 
L 46.803772 7.2 
" style="fill:none;stroke:#000000;stroke-dasharray:1.000000,3.000000;stroke-dashoffset:0.0;stroke-width:0.5;"/>
     </g>
     <g id="line2d_7">
      <defs>
       <path d="M 0 0 
L 0 -4 
" id="me838e29d0a" style="stroke:#000000;stroke-width:0.5;"/>
      </defs>
      <g>
       <use style="stroke:#000000;stroke-width:0.5;" x="46.803771872" xlink:href="#me838e29d0a" y="283.68"/>
      </g>
     </g>
     <g id="line2d_8">
      <defs>
       <path d="M 0 0 
L 0 4 
" id="m9a7b160e27" style="stroke:#000000;stroke-width:0.5;"/>
      </defs>
      <g>
       <use style="stroke:#000000;stroke-width:0.5;" x="46.803771872" xlink:href="#m9a7b160e27" y="7.2"/>
      </g>
     </g>
     <g id="text_1">
      <!-- -6 -->
      <defs>
       <path d="M 33.015625 40.375 
Q 26.375 40.375 22.484375 35.828125 
Q 18.609375 31.296875 18.609375 23.390625 
Q 18.609375 15.53125 22.484375 10.953125 
Q 26.375 6.390625 33.015625 6.390625 
Q 39.65625 6.390625 43.53125 10.953125 
Q 47.40625 15.53125 47.40625 23.390625 
Q 47.40625 31.296875 43.53125 35.828125 
Q 39.65625 40.375 33.015625 40.375 
M 52.59375 71.296875 
L 52.59375 62.3125 
Q 48.875 64.0625 45.09375 64.984375 
Q 41.3125 65.921875 37.59375 65.921875 
Q 27.828125 65.921875 22.671875 59.328125 
Q 17.53125 52.734375 16.796875 39.40625 
Q 19.671875 43.65625 24.015625 45.921875 
Q 28.375 48.1875 33.59375 48.1875 
Q 44.578125 48.1875 50.953125 41.515625 
Q 57.328125 34.859375 57.328125 23.390625 
Q 57.328125 12.15625 50.6875 5.359375 
Q 44.046875 -1.421875 33.015625 -1.421875 
Q 20.359375 -1.421875 13.671875 8.265625 
Q 6.984375 17.96875 6.984375 36.375 
Q 6.984375 53.65625 15.1875 63.9375 
Q 23.390625 74.21875 37.203125 74.21875 
Q 40.921875 74.21875 44.703125 73.484375 
Q 48.484375 72.75 52.59375 71.296875 
" id="BitstreamVeraSans-Roman-36"/>
       <path d="M 4.890625 31.390625 
L 31.203125 31.390625 
L 31.203125 23.390625 
L 4.890625 23.390625 
z
" id="BitstreamVeraSans-Roman-2d"/>
      </defs>
      <g transform="translate(36.833459372 302.876875)scale(0.2 -0.2)">
       <use xlink:href="#BitstreamVeraSans-Roman-2d"/>
       <use x="36.083984375" xlink:href="#BitstreamVeraSans-Roman-36"/>
      </g>
     </g>
    </g>
    <g id="xtick_2">
     <g id="line2d_9">
      <path clip-path="url(#pe1db16a47d)" d="M 86.4933 283.68 
L 86.4933 7.2 
" style="fill:none;stroke:#000000;stroke-dasharray:1.000000,3.000000;stroke-dashoffset:0.0;stroke-width:0.5;"/>
     </g>
     <g id="line2d_10">
      <g>
       <use style="stroke:#000000;stroke-width:0.5;" x="86.493300388" xlink:href="#me838e29d0a" y="283.68"/>
      </g>
     </g>
     <g id="line2d_11">
      <g>
       <use style="stroke:#000000;stroke-width:0.5;" x="86.493300388" xlink:href="#m9a7b160e27" y="7.2"/>
      </g>
     </g>
     <g id="text_2">
      <!-- -4 -->
      <defs>
       <path d="M 37.796875 64.3125 
L 12.890625 25.390625 
L 37.796875 25.390625 
z
M 35.203125 72.90625 
L 47.609375 72.90625 
L 47.609375 25.390625 
L 58.015625 25.390625 
L 58.015625 17.1875 
L 47.609375 17.1875 
L 47.609375 0 
L 37.796875 0 
L 37.796875 17.1875 
L 4.890625 17.1875 
L 4.890625 26.703125 
z
" id="BitstreamVeraSans-Roman-34"/>
      </defs>
      <g transform="translate(76.522987888 302.876875)scale(0.2 -0.2)">
       <use xlink:href="#BitstreamVeraSans-Roman-2d"/>
       <use x="36.083984375" xlink:href="#BitstreamVeraSans-Roman-34"/>
      </g>
     </g>
    </g>
    <g id="xtick_3">
     <g id="line2d_12">
      <path clip-path="url(#pe1db16a47d)" d="M 126.182829 283.68 
L 126.182829 7.2 
" style="fill:none;stroke:#000000;stroke-dasharray:1.000000,3.000000;stroke-dashoffset:0.0;stroke-width:0.5;"/>
     </g>
     <g id="line2d_13">
      <g>
       <use style="stroke:#000000;stroke-width:0.5;" x="126.182828904" xlink:href="#me838e29d0a" y="283.68"/>
      </g>
     </g>
     <g id="line2d_14">
      <g>
       <use style="stroke:#000000;stroke-width:0.5;" x="126.182828904" xlink:href="#m9a7b160e27" y="7.2"/>
      </g>
     </g>
     <g id="text_3">
      <!-- -2 -->
      <defs>
       <path d="M 19.1875 8.296875 
L 53.609375 8.296875 
L 53.609375 0 
L 7.328125 0 
L 7.328125 8.296875 
Q 12.9375 14.109375 22.625 23.890625 
Q 32.328125 33.6875 34.8125 36.53125 
Q 39.546875 41.84375 41.421875 45.53125 
Q 43.3125 49.21875 43.3125 52.78125 
Q 43.3125 58.59375 39.234375 62.25 
Q 35.15625 65.921875 28.609375 65.921875 
Q 23.96875 65.921875 18.8125 64.3125 
Q 13.671875 62.703125 7.8125 59.421875 
L 7.8125 69.390625 
Q 13.765625 71.78125 18.9375 73 
Q 24.125 74.21875 28.421875 74.21875 
Q 39.75 74.21875 46.484375 68.546875 
Q 53.21875 62.890625 53.21875 53.421875 
Q 53.21875 48.921875 51.53125 44.890625 
Q 49.859375 40.875 45.40625 35.40625 
Q 44.1875 33.984375 37.640625 27.21875 
Q 31.109375 20.453125 19.1875 8.296875 
" id="BitstreamVeraSans-Roman-32"/>
      </defs>
      <g transform="translate(116.212516404 302.876875)scale(0.2 -0.2)">
       <use xlink:href="#BitstreamVeraSans-Roman-2d"/>
       <use x="36.083984375" xlink:href="#BitstreamVeraSans-Roman-32"/>
      </g>
     </g>
    </g>
    <g id="xtick_4">
     <g id="line2d_15">
      <path clip-path="url(#pe1db16a47d)" d="M 165.872357 283.68 
L 165.872357 7.2 
" style="fill:none;stroke:#000000;stroke-dasharray:1.000000,3.000000;stroke-dashoffset:0.0;stroke-width:0.5;"/>
     </g>
     <g id="line2d_16">
      <g>
       <use style="stroke:#000000;stroke-width:0.5;" x="165.87235742" xlink:href="#me838e29d0a" y="283.68"/>
      </g>
     </g>
     <g id="line2d_17">
      <g>
       <use style="stroke:#000000;stroke-width:0.5;" x="165.87235742" xlink:href="#m9a7b160e27" y="7.2"/>
      </g>
     </g>
     <g id="text_4">
      <!-- 0 -->
      <defs>
       <path d="M 31.78125 66.40625 
Q 24.171875 66.40625 20.328125 58.90625 
Q 16.5 51.421875 16.5 36.375 
Q 16.5 21.390625 20.328125 13.890625 
Q 24.171875 6.390625 31.78125 6.390625 
Q 39.453125 6.390625 43.28125 13.890625 
Q 47.125 21.390625 47.125 36.375 
Q 47.125 51.421875 43.28125 58.90625 
Q 39.453125 66.40625 31.78125 66.40625 
M 31.78125 74.21875 
Q 44.046875 74.21875 50.515625 64.515625 
Q 56.984375 54.828125 56.984375 36.375 
Q 56.984375 17.96875 50.515625 8.265625 
Q 44.046875 -1.421875 31.78125 -1.421875 
Q 19.53125 -1.421875 13.0625 8.265625 
Q 6.59375 17.96875 6.59375 36.375 
Q 6.59375 54.828125 13.0625 64.515625 
Q 19.53125 74.21875 31.78125 74.21875 
" id="BitstreamVeraSans-Roman-30"/>
      </defs>
      <g transform="translate(159.50985742 302.876875)scale(0.2 -0.2)">
       <use xlink:href="#BitstreamVeraSans-Roman-30"/>
      </g>
     </g>
    </g>
    <g id="xtick_5">
     <g id="line2d_18">
      <path clip-path="url(#pe1db16a47d)" d="M 205.561886 283.68 
L 205.561886 7.2 
" style="fill:none;stroke:#000000;stroke-dasharray:1.000000,3.000000;stroke-dashoffset:0.0;stroke-width:0.5;"/>
     </g>
     <g id="line2d_19">
      <g>
       <use style="stroke:#000000;stroke-width:0.5;" x="205.561885936" xlink:href="#me838e29d0a" y="283.68"/>
      </g>
     </g>
     <g id="line2d_20">
      <g>
       <use style="stroke:#000000;stroke-width:0.5;" x="205.561885936" xlink:href="#m9a7b160e27" y="7.2"/>
      </g>
     </g>
     <g id="text_5">
      <!-- 2 -->
      <g transform="translate(199.199385936 302.876875)scale(0.2 -0.2)">
       <use xlink:href="#BitstreamVeraSans-Roman-32"/>
      </g>
     </g>
    </g>
    <g id="xtick_6">
     <g id="line2d_21">
      <path clip-path="url(#pe1db16a47d)" d="M 245.251414 283.68 
L 245.251414 7.2 
" style="fill:none;stroke:#000000;stroke-dasharray:1.000000,3.000000;stroke-dashoffset:0.0;stroke-width:0.5;"/>
     </g>
     <g id="line2d_22">
      <g>
       <use style="stroke:#000000;stroke-width:0.5;" x="245.251414452" xlink:href="#me838e29d0a" y="283.68"/>
      </g>
     </g>
     <g id="line2d_23">
      <g>
       <use style="stroke:#000000;stroke-width:0.5;" x="245.251414452" xlink:href="#m9a7b160e27" y="7.2"/>
      </g>
     </g>
     <g id="text_6">
      <!-- 4 -->
      <g transform="translate(238.888914452 302.876875)scale(0.2 -0.2)">
       <use xlink:href="#BitstreamVeraSans-Roman-34"/>
      </g>
     </g>
    </g>
    <g id="xtick_7">
     <g id="line2d_24">
      <path clip-path="url(#pe1db16a47d)" d="M 284.940943 283.68 
L 284.940943 7.2 
" style="fill:none;stroke:#000000;stroke-dasharray:1.000000,3.000000;stroke-dashoffset:0.0;stroke-width:0.5;"/>
     </g>
     <g id="line2d_25">
      <g>
       <use style="stroke:#000000;stroke-width:0.5;" x="284.940942968" xlink:href="#me838e29d0a" y="283.68"/>
      </g>
     </g>
     <g id="line2d_26">
      <g>
       <use style="stroke:#000000;stroke-width:0.5;" x="284.940942968" xlink:href="#m9a7b160e27" y="7.2"/>
      </g>
     </g>
     <g id="text_7">
      <!-- 6 -->
      <g transform="translate(278.578442968 302.876875)scale(0.2 -0.2)">
       <use xlink:href="#BitstreamVeraSans-Roman-36"/>
      </g>
     </g>
    </g>
    <g id="xtick_8">
     <g id="line2d_27">
      <path clip-path="url(#pe1db16a47d)" d="M 324.630471 283.68 
L 324.630471 7.2 
" style="fill:none;stroke:#000000;stroke-dasharray:1.000000,3.000000;stroke-dashoffset:0.0;stroke-width:0.5;"/>
     </g>
     <g id="line2d_28">
      <g>
       <use style="stroke:#000000;stroke-width:0.5;" x="324.630471484" xlink:href="#me838e29d0a" y="283.68"/>
      </g>
     </g>
     <g id="line2d_29">
      <g>
       <use style="stroke:#000000;stroke-width:0.5;" x="324.630471484" xlink:href="#m9a7b160e27" y="7.2"/>
      </g>
     </g>
     <g id="text_8">
      <!-- 8 -->
      <defs>
       <path d="M 31.78125 34.625 
Q 24.75 34.625 20.71875 30.859375 
Q 16.703125 27.09375 16.703125 20.515625 
Q 16.703125 13.921875 20.71875 10.15625 
Q 24.75 6.390625 31.78125 6.390625 
Q 38.8125 6.390625 42.859375 10.171875 
Q 46.921875 13.96875 46.921875 20.515625 
Q 46.921875 27.09375 42.890625 30.859375 
Q 38.875 34.625 31.78125 34.625 
M 21.921875 38.8125 
Q 15.578125 40.375 12.03125 44.71875 
Q 8.5 49.078125 8.5 55.328125 
Q 8.5 64.0625 14.71875 69.140625 
Q 20.953125 74.21875 31.78125 74.21875 
Q 42.671875 74.21875 48.875 69.140625 
Q 55.078125 64.0625 55.078125 55.328125 
Q 55.078125 49.078125 51.53125 44.71875 
Q 48 40.375 41.703125 38.8125 
Q 48.828125 37.15625 52.796875 32.3125 
Q 56.78125 27.484375 56.78125 20.515625 
Q 56.78125 9.90625 50.3125 4.234375 
Q 43.84375 -1.421875 31.78125 -1.421875 
Q 19.734375 -1.421875 13.25 4.234375 
Q 6.78125 9.90625 6.78125 20.515625 
Q 6.78125 27.484375 10.78125 32.3125 
Q 14.796875 37.15625 21.921875 38.8125 
M 18.3125 54.390625 
Q 18.3125 48.734375 21.84375 45.5625 
Q 25.390625 42.390625 31.78125 42.390625 
Q 38.140625 42.390625 41.71875 45.5625 
Q 45.3125 48.734375 45.3125 54.390625 
Q 45.3125 60.0625 41.71875 63.234375 
Q 38.140625 66.40625 31.78125 66.40625 
Q 25.390625 66.40625 21.84375 63.234375 
Q 18.3125 60.0625 18.3125 54.390625 
" id="BitstreamVeraSans-Roman-38"/>
      </defs>
      <g transform="translate(318.267971484 302.876875)scale(0.2 -0.2)">
       <use xlink:href="#BitstreamVeraSans-Roman-38"/>
      </g>
     </g>
    </g>
    <g id="xtick_9">
     <g id="line2d_30">
      <path clip-path="url(#pe1db16a47d)" d="M 364.32 283.68 
L 364.32 7.2 
" style="fill:none;stroke:#000000;stroke-dasharray:1.000000,3.000000;stroke-dashoffset:0.0;stroke-width:0.5;"/>
     </g>
     <g id="line2d_31">
      <g>
       <use style="stroke:#000000;stroke-width:0.5;" x="364.32" xlink:href="#me838e29d0a" y="283.68"/>
      </g>
     </g>
     <g id="line2d_32">
      <g>
       <use style="stroke:#000000;stroke-width:0.5;" x="364.32" xlink:href="#m9a7b160e27" y="7.2"/>
      </g>
     </g>
    </g>
    <g id="xtick_10">
     <g id="line2d_33">
      <defs>
       <path d="M 0 0 
L 0 -2 
" id="m0cc1f2d370" style="stroke:#000000;stroke-width:0.5;"/>
      </defs>
      <g>
       <use style="stroke:#000000;stroke-width:0.5;" x="46.803771872" xlink:href="#m0cc1f2d370" y="283.68"/>
      </g>
     </g>
     <g id="line2d_34">
      <defs>
       <path d="M 0 0 
L 0 2 
" id="m3eca897a33" style="stroke:#000000;stroke-width:0.5;"/>
      </defs>
      <g>
       <use style="stroke:#000000;stroke-width:0.5;" x="46.803771872" xlink:href="#m3eca897a33" y="7.2"/>
      </g>
     </g>
    </g>
    <g id="xtick_11">
     <g id="line2d_35">
      <g>
       <use style="stroke:#000000;stroke-width:0.5;" x="86.493300388" xlink:href="#m0cc1f2d370" y="283.68"/>
      </g>
     </g>
     <g id="line2d_36">
      <g>
       <use style="stroke:#000000;stroke-width:0.5;" x="86.493300388" xlink:href="#m3eca897a33" y="7.2"/>
      </g>
     </g>
    </g>
    <g id="xtick_12">
     <g id="line2d_37">
      <g>
       <use style="stroke:#000000;stroke-width:0.5;" x="126.182828904" xlink:href="#m0cc1f2d370" y="283.68"/>
      </g>
     </g>
     <g id="line2d_38">
      <g>
       <use style="stroke:#000000;stroke-width:0.5;" x="126.182828904" xlink:href="#m3eca897a33" y="7.2"/>
      </g>
     </g>
    </g>
    <g id="xtick_13">
     <g id="line2d_39">
      <g>
       <use style="stroke:#000000;stroke-width:0.5;" x="165.87235742" xlink:href="#m0cc1f2d370" y="283.68"/>
      </g>
     </g>
     <g id="line2d_40">
      <g>
       <use style="stroke:#000000;stroke-width:0.5;" x="165.87235742" xlink:href="#m3eca897a33" y="7.2"/>
      </g>
     </g>
    </g>
    <g id="xtick_14">
     <g id="line2d_41">
      <g>
       <use style="stroke:#000000;stroke-width:0.5;" x="205.561885936" xlink:href="#m0cc1f2d370" y="283.68"/>
      </g>
     </g>
     <g id="line2d_42">
      <g>
       <use style="stroke:#000000;stroke-width:0.5;" x="205.561885936" xlink:href="#m3eca897a33" y="7.2"/>
      </g>
     </g>
    </g>
    <g id="xtick_15">
     <g id="line2d_43">
      <g>
       <use style="stroke:#000000;stroke-width:0.5;" x="245.251414452" xlink:href="#m0cc1f2d370" y="283.68"/>
      </g>
     </g>
     <g id="line2d_44">
      <g>
       <use style="stroke:#000000;stroke-width:0.5;" x="245.251414452" xlink:href="#m3eca897a33" y="7.2"/>
      </g>
     </g>
    </g>
    <g id="xtick_16">
     <g id="line2d_45">
      <g>
       <use style="stroke:#000000;stroke-width:0.5;" x="284.940942968" xlink:href="#m0cc1f2d370" y="283.68"/>
      </g>
     </g>
     <g id="line2d_46">
      <g>
       <use style="stroke:#000000;stroke-width:0.5;" x="284.940942968" xlink:href="#m3eca897a33" y="7.2"/>
      </g>
     </g>
    </g>
    <g id="xtick_17">
     <g id="line2d_47">
      <g>
       <use style="stroke:#000000;stroke-width:0.5;" x="324.630471484" xlink:href="#m0cc1f2d370" y="283.68"/>
      </g>
     </g>
     <g id="line2d_48">
      <g>
       <use style="stroke:#000000;stroke-width:0.5;" x="324.630471484" xlink:href="#m3eca897a33" y="7.2"/>
      </g>
     </g>
    </g>
    <g id="xtick_18">
     <g id="line2d_49">
      <g>
       <use style="stroke:#000000;stroke-width:0.5;" x="364.32" xlink:href="#m0cc1f2d370" y="283.68"/>
      </g>
     </g>
     <g id="line2d_50">
      <g>
       <use style="stroke:#000000;stroke-width:0.5;" x="364.32" xlink:href="#m3eca897a33" y="7.2"/>
      </g>
     </g>
    </g>
    <g id="text_9">
     <!-- log10 of Df -->
     <defs>
      <path id="BitstreamVeraSans-Roman-20"/>
      <path d="M 12.40625 8.296875 
L 28.515625 8.296875 
L 28.515625 63.921875 
L 10.984375 60.40625 
L 10.984375 69.390625 
L 28.421875 72.90625 
L 38.28125 72.90625 
L 38.28125 8.296875 
L 54.390625 8.296875 
L 54.390625 0 
L 12.40625 0 
z
" id="BitstreamVeraSans-Roman-31"/>
      <path d="M 30.609375 48.390625 
Q 23.390625 48.390625 19.1875 42.75 
Q 14.984375 37.109375 14.984375 27.296875 
Q 14.984375 17.484375 19.15625 11.84375 
Q 23.34375 6.203125 30.609375 6.203125 
Q 37.796875 6.203125 41.984375 11.859375 
Q 46.1875 17.53125 46.1875 27.296875 
Q 46.1875 37.015625 41.984375 42.703125 
Q 37.796875 48.390625 30.609375 48.390625 
M 30.609375 56 
Q 42.328125 56 49.015625 48.375 
Q 55.71875 40.765625 55.71875 27.296875 
Q 55.71875 13.875 49.015625 6.21875 
Q 42.328125 -1.421875 30.609375 -1.421875 
Q 18.84375 -1.421875 12.171875 6.21875 
Q 5.515625 13.875 5.515625 27.296875 
Q 5.515625 40.765625 12.171875 48.375 
Q 18.84375 56 30.609375 56 
" id="BitstreamVeraSans-Roman-6f"/>
      <path d="M 9.421875 75.984375 
L 18.40625 75.984375 
L 18.40625 0 
L 9.421875 0 
z
" id="BitstreamVeraSans-Roman-6c"/>
      <path d="M 19.671875 64.796875 
L 19.671875 8.109375 
L 31.59375 8.109375 
Q 46.6875 8.109375 53.6875 14.9375 
Q 60.6875 21.78125 60.6875 36.53125 
Q 60.6875 51.171875 53.6875 57.984375 
Q 46.6875 64.796875 31.59375 64.796875 
z
M 9.8125 72.90625 
L 30.078125 72.90625 
Q 51.265625 72.90625 61.171875 64.09375 
Q 71.09375 55.28125 71.09375 36.53125 
Q 71.09375 17.671875 61.125 8.828125 
Q 51.171875 0 30.078125 0 
L 9.8125 0 
z
" id="BitstreamVeraSans-Roman-44"/>
      <path d="M 45.40625 27.984375 
Q 45.40625 37.75 41.375 43.109375 
Q 37.359375 48.484375 30.078125 48.484375 
Q 22.859375 48.484375 18.828125 43.109375 
Q 14.796875 37.75 14.796875 27.984375 
Q 14.796875 18.265625 18.828125 12.890625 
Q 22.859375 7.515625 30.078125 7.515625 
Q 37.359375 7.515625 41.375 12.890625 
Q 45.40625 18.265625 45.40625 27.984375 
M 54.390625 6.78125 
Q 54.390625 -7.171875 48.1875 -13.984375 
Q 42 -20.796875 29.203125 -20.796875 
Q 24.46875 -20.796875 20.265625 -20.09375 
Q 16.0625 -19.390625 12.109375 -17.921875 
L 12.109375 -9.1875 
Q 16.0625 -11.328125 19.921875 -12.34375 
Q 23.78125 -13.375 27.78125 -13.375 
Q 36.625 -13.375 41.015625 -8.765625 
Q 45.40625 -4.15625 45.40625 5.171875 
L 45.40625 9.625 
Q 42.625 4.78125 38.28125 2.390625 
Q 33.9375 0 27.875 0 
Q 17.828125 0 11.671875 7.65625 
Q 5.515625 15.328125 5.515625 27.984375 
Q 5.515625 40.671875 11.671875 48.328125 
Q 17.828125 56 27.875 56 
Q 33.9375 56 38.28125 53.609375 
Q 42.625 51.21875 45.40625 46.390625 
L 45.40625 54.6875 
L 54.390625 54.6875 
z
" id="BitstreamVeraSans-Roman-67"/>
      <path d="M 37.109375 75.984375 
L 37.109375 68.5 
L 28.515625 68.5 
Q 23.6875 68.5 21.796875 66.546875 
Q 19.921875 64.59375 19.921875 59.515625 
L 19.921875 54.6875 
L 34.71875 54.6875 
L 34.71875 47.703125 
L 19.921875 47.703125 
L 19.921875 0 
L 10.890625 0 
L 10.890625 47.703125 
L 2.296875 47.703125 
L 2.296875 54.6875 
L 10.890625 54.6875 
L 10.890625 58.5 
Q 10.890625 67.625 15.140625 71.796875 
Q 19.390625 75.984375 28.609375 75.984375 
z
" id="BitstreamVeraSans-Roman-66"/>
     </defs>
     <g transform="translate(130.5740625 327.233125)scale(0.2 -0.2)">
      <use xlink:href="#BitstreamVeraSans-Roman-6c"/>
      <use x="27.783203125" xlink:href="#BitstreamVeraSans-Roman-6f"/>
      <use x="88.96484375" xlink:href="#BitstreamVeraSans-Roman-67"/>
      <use x="152.44140625" xlink:href="#BitstreamVeraSans-Roman-31"/>
      <use x="216.064453125" xlink:href="#BitstreamVeraSans-Roman-30"/>
      <use x="279.6875" xlink:href="#BitstreamVeraSans-Roman-20"/>
      <use x="311.474609375" xlink:href="#BitstreamVeraSans-Roman-6f"/>
      <use x="372.65625" xlink:href="#BitstreamVeraSans-Roman-66"/>
      <use x="407.861328125" xlink:href="#BitstreamVeraSans-Roman-20"/>
      <use x="439.6484375" xlink:href="#BitstreamVeraSans-Roman-44"/>
      <use x="516.650390625" xlink:href="#BitstreamVeraSans-Roman-66"/>
     </g>
    </g>
   </g>
   <g id="matplotlib.axis_2">
    <g id="ytick_1">
     <g id="line2d_51">
      <path clip-path="url(#pe1db16a47d)" d="M 7.2 283.68 
L 364.32 283.68 
" style="fill:none;stroke:#000000;stroke-dasharray:1.000000,3.000000;stroke-dashoffset:0.0;stroke-width:0.5;"/>
     </g>
     <g id="line2d_52">
      <defs>
       <path d="M 0 0 
L 4 0 
" id="m845056c09f" style="stroke:#000000;stroke-width:0.5;"/>
      </defs>
      <g>
       <use style="stroke:#000000;stroke-width:0.5;" x="7.2" xlink:href="#m845056c09f" y="283.68"/>
      </g>
     </g>
     <g id="line2d_53">
      <defs>
       <path d="M 0 0 
L -4 0 
" id="mf125c95e78" style="stroke:#000000;stroke-width:0.5;"/>
      </defs>
      <g>
       <use style="stroke:#000000;stroke-width:0.5;" x="364.32" xlink:href="#mf125c95e78" y="283.68"/>
      </g>
     </g>
    </g>
    <g id="ytick_2">
     <g id="line2d_54">
      <path clip-path="url(#pe1db16a47d)" d="M 7.2 228.931485 
L 364.32 228.931485 
" style="fill:none;stroke:#000000;stroke-dasharray:1.000000,3.000000;stroke-dashoffset:0.0;stroke-width:0.5;"/>
     </g>
     <g id="line2d_55">
      <g>
       <use style="stroke:#000000;stroke-width:0.5;" x="7.2" xlink:href="#m845056c09f" y="228.931485149"/>
      </g>
     </g>
     <g id="line2d_56">
      <g>
       <use style="stroke:#000000;stroke-width:0.5;" x="364.32" xlink:href="#mf125c95e78" y="228.931485149"/>
      </g>
     </g>
    </g>
    <g id="ytick_3">
     <g id="line2d_57">
      <path clip-path="url(#pe1db16a47d)" d="M 7.2 174.18297 
L 364.32 174.18297 
" style="fill:none;stroke:#000000;stroke-dasharray:1.000000,3.000000;stroke-dashoffset:0.0;stroke-width:0.5;"/>
     </g>
     <g id="line2d_58">
      <g>
       <use style="stroke:#000000;stroke-width:0.5;" x="7.2" xlink:href="#m845056c09f" y="174.182970297"/>
      </g>
     </g>
     <g id="line2d_59">
      <g>
       <use style="stroke:#000000;stroke-width:0.5;" x="364.32" xlink:href="#mf125c95e78" y="174.182970297"/>
      </g>
     </g>
    </g>
    <g id="ytick_4">
     <g id="line2d_60">
      <path clip-path="url(#pe1db16a47d)" d="M 7.2 119.434455 
L 364.32 119.434455 
" style="fill:none;stroke:#000000;stroke-dasharray:1.000000,3.000000;stroke-dashoffset:0.0;stroke-width:0.5;"/>
     </g>
     <g id="line2d_61">
      <g>
       <use style="stroke:#000000;stroke-width:0.5;" x="7.2" xlink:href="#m845056c09f" y="119.434455446"/>
      </g>
     </g>
     <g id="line2d_62">
      <g>
       <use style="stroke:#000000;stroke-width:0.5;" x="364.32" xlink:href="#mf125c95e78" y="119.434455446"/>
      </g>
     </g>
    </g>
    <g id="ytick_5">
     <g id="line2d_63">
      <path clip-path="url(#pe1db16a47d)" d="M 7.2 64.685941 
L 364.32 64.685941 
" style="fill:none;stroke:#000000;stroke-dasharray:1.000000,3.000000;stroke-dashoffset:0.0;stroke-width:0.5;"/>
     </g>
     <g id="line2d_64">
      <g>
       <use style="stroke:#000000;stroke-width:0.5;" x="7.2" xlink:href="#m845056c09f" y="64.6859405941"/>
      </g>
     </g>
     <g id="line2d_65">
      <g>
       <use style="stroke:#000000;stroke-width:0.5;" x="364.32" xlink:href="#mf125c95e78" y="64.6859405941"/>
      </g>
     </g>
    </g>
    <g id="ytick_6">
     <g id="line2d_66">
      <path clip-path="url(#pe1db16a47d)" d="M 7.2 9.937426 
L 364.32 9.937426 
" style="fill:none;stroke:#000000;stroke-dasharray:1.000000,3.000000;stroke-dashoffset:0.0;stroke-width:0.5;"/>
     </g>
     <g id="line2d_67">
      <g>
       <use style="stroke:#000000;stroke-width:0.5;" x="7.2" xlink:href="#m845056c09f" y="9.93742574257"/>
      </g>
     </g>
     <g id="line2d_68">
      <g>
       <use style="stroke:#000000;stroke-width:0.5;" x="364.32" xlink:href="#mf125c95e78" y="9.93742574257"/>
      </g>
     </g>
    </g>
   </g>
   <g id="text_10">
    <!-- f6-9,20-D -->
    <defs>
     <path d="M 11.71875 12.40625 
L 22.015625 12.40625 
L 22.015625 4 
L 14.015625 -11.625 
L 7.71875 -11.625 
L 11.71875 4 
z
" id="BitstreamVeraSans-Roman-2c"/>
     <path d="M 10.984375 1.515625 
L 10.984375 10.5 
Q 14.703125 8.734375 18.5 7.8125 
Q 22.3125 6.890625 25.984375 6.890625 
Q 35.75 6.890625 40.890625 13.453125 
Q 46.046875 20.015625 46.78125 33.40625 
Q 43.953125 29.203125 39.59375 26.953125 
Q 35.25 24.703125 29.984375 24.703125 
Q 19.046875 24.703125 12.671875 31.3125 
Q 6.296875 37.9375 6.296875 49.421875 
Q 6.296875 60.640625 12.9375 67.421875 
Q 19.578125 74.21875 30.609375 74.21875 
Q 43.265625 74.21875 49.921875 64.515625 
Q 56.59375 54.828125 56.59375 36.375 
Q 56.59375 19.140625 48.40625 8.859375 
Q 40.234375 -1.421875 26.421875 -1.421875 
Q 22.703125 -1.421875 18.890625 -0.6875 
Q 15.09375 0.046875 10.984375 1.515625 
M 30.609375 32.421875 
Q 37.25 32.421875 41.125 36.953125 
Q 45.015625 41.5 45.015625 49.421875 
Q 45.015625 57.28125 41.125 61.84375 
Q 37.25 66.40625 30.609375 66.40625 
Q 23.96875 66.40625 20.09375 61.84375 
Q 16.21875 57.28125 16.21875 49.421875 
Q 16.21875 41.5 20.09375 36.953125 
Q 23.96875 32.421875 30.609375 32.421875 
" id="BitstreamVeraSans-Roman-39"/>
    </defs>
    <g transform="translate(263.049475 278.1504)scale(0.2 -0.2)">
     <use xlink:href="#BitstreamVeraSans-Roman-66"/>
     <use x="35.205078125" xlink:href="#BitstreamVeraSans-Roman-36"/>
     <use x="98.828125" xlink:href="#BitstreamVeraSans-Roman-2d"/>
     <use x="134.912109375" xlink:href="#BitstreamVeraSans-Roman-39"/>
     <use x="198.53515625" xlink:href="#BitstreamVeraSans-Roman-2c"/>
     <use x="230.322265625" xlink:href="#BitstreamVeraSans-Roman-32"/>
     <use x="293.9453125" xlink:href="#BitstreamVeraSans-Roman-30"/>
     <use x="357.568359375" xlink:href="#BitstreamVeraSans-Roman-2d"/>
     <use x="393.65234375" xlink:href="#BitstreamVeraSans-Roman-44"/>
    </g>
   </g>
  </g>
 </g>
 <defs>
  <clipPath id="pe1db16a47d">
   <rect height="276.48" width="357.12" x="7.2" y="7.2"/>
  </clipPath>
 </defs>
</svg>
