<?xml version="1.0" encoding="utf-8" standalone="no"?>
<!DOCTYPE svg PUBLIC "-//W3C//DTD SVG 1.1//EN"
  "http://www.w3.org/Graphics/SVG/1.1/DTD/svg11.dtd">
<!-- Created with matplotlib (http://matplotlib.org/) -->
<svg height="338pt" version="1.1" viewBox="0 0 371 338" width="371pt" xmlns="http://www.w3.org/2000/svg" xmlns:xlink="http://www.w3.org/1999/xlink">
 <defs>
  <style type="text/css">
*{stroke-linecap:butt;stroke-linejoin:round;stroke-miterlimit:100000;}
  </style>
 </defs>
 <g id="figure_1">
  <g id="patch_1">
   <path d="M 0 338.5925 
L 371.52 338.5925 
L 371.52 0 
L 0 0 
z
" style="fill:#ffffff;"/>
  </g>
  <g id="axes_1">
   <g id="patch_2">
    <path d="M 7.2 283.68 
L 364.32 283.68 
L 364.32 7.2 
L 7.2 7.2 
z
" style="fill:#ffffff;"/>
   </g>
   <g id="line2d_1">
    <path clip-path="url(#pdadcf1c1c5)" d="M 191.144054 283.68 
L 191.144054 280.030099 
L 193.752185 280.030099 
L 193.817986 272.730297 
L 194.490411 272.730297 
L 194.490411 269.080396 
L 195.088519 269.080396 
L 195.088519 265.430495 
L 195.334915 265.430495 
L 195.372857 258.130693 
L 195.587407 258.130693 
L 195.587407 254.480792 
L 196.112578 254.480792 
L 196.161123 247.18099 
L 196.8523 247.18099 
L 196.940503 236.231287 
L 197.291597 236.231287 
L 197.291597 232.581386 
L 197.933688 232.581386 
L 197.933688 228.931485 
L 209.627615 228.931485 
L 209.627615 225.281584 
L 210.239154 225.281584 
L 210.239154 221.631683 
L 212.357577 221.631683 
L 212.357577 217.981782 
L 213.465045 217.981782 
L 213.465045 214.331881 
L 215.206223 214.331881 
L 215.206223 210.68198 
L 215.32097 210.68198 
L 215.32097 207.032079 
L 215.669411 207.032079 
L 215.669411 203.382178 
L 216.403815 203.382178 
L 216.403815 199.732277 
L 216.888534 199.732277 
L 216.888534 196.082376 
L 217.515472 196.082376 
L 217.515472 192.432475 
L 218.795135 192.432475 
L 218.795135 188.782574 
L 220.374438 188.782574 
L 220.374438 185.132673 
L 220.9842 185.132673 
L 220.9842 181.482772 
L 226.593911 181.482772 
L 226.593911 177.832871 
L 230.087978 177.832871 
L 230.087978 174.18297 
L 230.2769 174.18297 
L 230.373535 166.883168 
L 230.769646 166.883168 
L 230.815385 152.283564 
L 230.902036 152.283564 
L 230.902036 148.633663 
L 231.020123 148.633663 
L 231.062594 137.68396 
L 231.136273 137.68396 
L 231.136273 134.034059 
L 231.649799 134.034059 
L 231.649799 130.384158 
L 232.290115 130.384158 
L 232.294749 123.084356 
L 232.667084 123.084356 
L 232.667084 119.434455 
L 282.487276 119.434455 
L 282.487276 115.784554 
L 284.067936 115.784554 
L 284.067936 112.134653 
L 285.816337 112.134653 
L 285.886388 104.834851 
L 286.115175 104.834851 
L 286.115175 101.18495 
L 287.770279 101.18495 
L 287.796795 93.885149 
L 289.030302 93.885149 
L 289.030302 90.235248 
L 289.840987 90.235248 
L 289.840987 86.585347 
L 290.594016 86.585347 
L 290.594016 82.935446 
L 291.320089 82.935446 
L 291.320089 79.285545 
L 292.113929 79.285545 
L 292.113929 75.635644 
L 292.512082 75.635644 
L 292.512082 71.985743 
L 292.923526 71.985743 
L 292.923526 68.335842 
L 294.891287 68.335842 
L 294.891287 64.685941 
L 319.439546 64.685941 
L 319.439546 61.03604 
L 323.890995 61.03604 
L 323.890995 57.386139 
L 324.2811 57.386139 
L 324.2811 53.736238 
L 325.948414 53.736238 
L 326.055594 46.436436 
L 326.630371 46.436436 
L 326.630371 42.786535 
L 327.107073 42.786535 
L 327.107073 39.136634 
L 327.253942 39.136634 
L 327.253942 35.486733 
L 327.956412 35.486733 
L 327.956412 31.836832 
L 328.449982 31.836832 
L 328.449982 28.186931 
L 329.515862 28.186931 
L 329.591818 20.887129 
L 329.885541 20.887129 
L 329.94829 13.587327 
L 330.072811 13.587327 
L 330.072811 9.937426 
L 364.32 9.937426 
L 364.32 9.937426 
" style="fill:none;stroke:#ff0000;stroke-linecap:square;stroke-width:3.0;"/>
   </g>
   <g id="line2d_2">
    <path clip-path="url(#pdadcf1c1c5)" d="M 198.907442 283.68 
L 198.907442 280.030099 
L 199.077315 280.030099 
L 199.077315 276.380198 
L 201.619435 276.380198 
L 201.619435 272.730297 
L 201.894561 272.730297 
L 201.898009 265.430495 
L 202.558099 265.430495 
L 202.558099 261.780594 
L 203.249457 261.780594 
L 203.249457 258.130693 
L 203.530162 258.130693 
L 203.530162 254.480792 
L 204.141983 254.480792 
L 204.141983 250.830891 
L 204.29902 250.830891 
L 204.29902 247.18099 
L 204.456196 247.18099 
L 204.456196 243.531089 
L 204.918956 243.531089 
L 204.98679 236.231287 
L 205.211778 236.231287 
L 205.211778 232.581386 
L 205.623858 232.581386 
L 205.623858 228.931485 
L 218.034973 228.931485 
L 218.034973 225.281584 
L 226.593912 225.281584 
L 226.593912 221.631683 
L 231.285628 221.631683 
L 231.285628 217.981782 
L 232.192811 217.981782 
L 232.192811 214.331881 
L 232.41856 214.331881 
L 232.41856 210.68198 
L 232.734326 210.68198 
L 232.820074 199.732277 
L 232.866403 199.732277 
L 232.866403 196.082376 
L 233.958193 196.082376 
L 233.958193 192.432475 
L 234.192208 192.432475 
L 234.192208 188.782574 
L 234.544904 188.782574 
L 234.544904 185.132673 
L 234.74524 185.132673 
L 234.835911 177.832871 
L 234.954958 177.832871 
L 235.043617 170.533069 
L 235.094314 170.533069 
L 235.094314 166.883168 
L 258.724772 166.883168 
L 258.724772 163.233267 
L 260.061593 163.233267 
L 260.061593 159.583366 
L 262.613241 159.583366 
L 262.613241 155.933465 
L 264.748699 155.933465 
L 264.748699 152.283564 
L 266.308979 152.283564 
L 266.308979 148.633663 
L 268.217158 148.633663 
L 268.217158 144.983762 
L 270.597831 144.983762 
L 270.597831 141.333861 
L 274.910178 141.333861 
L 274.910178 137.68396 
L 275.599043 137.68396 
L 275.599043 134.034059 
L 277.036821 134.034059 
L 277.036821 130.384158 
L 277.52999 130.384158 
L 277.52999 126.734257 
L 278.388715 126.734257 
L 278.388715 123.084356 
L 278.584243 123.084356 
L 278.584243 119.434455 
L 282.881373 119.434455 
L 282.881373 115.784554 
L 294.035469 115.784554 
L 294.035469 112.134653 
L 294.798812 112.134653 
L 294.798812 108.484752 
L 294.967891 108.484752 
L 294.967891 104.834851 
L 298.320645 104.834851 
L 298.320645 101.18495 
L 298.667252 101.18495 
L 298.717457 93.885149 
L 300.190694 93.885149 
L 300.267599 86.585347 
L 300.574778 86.585347 
L 300.574778 82.935446 
L 300.911969 82.935446 
L 300.911969 79.285545 
L 301.066918 79.285545 
L 301.066918 75.635644 
L 301.416646 75.635644 
L 301.416646 71.985743 
L 303.630785 71.985743 
L 303.630785 68.335842 
L 310.153826 68.335842 
L 310.153826 64.685941 
L 329.885541 64.685941 
L 329.933293 57.386139 
L 330.153404 57.386139 
L 330.153404 53.736238 
L 332.276111 53.736238 
L 332.276111 50.086337 
L 333.581537 50.086337 
L 333.603069 42.786535 
L 334.6276 42.786535 
L 334.628137 35.486733 
L 334.857964 35.486733 
L 334.857964 31.836832 
L 335.188455 31.836832 
L 335.229556 24.53703 
L 335.893491 24.53703 
L 335.893491 20.887129 
L 336.943246 20.887129 
L 336.943246 17.237228 
L 345.686414 17.237228 
L 345.686414 13.587327 
L 347.385885 13.587327 
L 347.385885 9.937426 
L 364.32 9.937426 
L 364.32 9.937426 
" style="fill:none;stroke:#00bfbf;stroke-linecap:square;"/>
   </g>
   <g id="line2d_3">
    <path clip-path="url(#pdadcf1c1c5)" d="M 191.185376 283.68 
L 191.185376 280.030099 
L 196.940549 280.030099 
L 196.940549 276.380198 
L 197.712351 276.380198 
L 197.712351 272.730297 
L 198.05015 272.730297 
L 198.05015 269.080396 
L 198.907442 269.080396 
L 198.907442 265.430495 
L 199.077315 265.430495 
L 199.077315 261.780594 
L 199.797634 261.780594 
L 199.797634 258.130693 
L 200.28194 258.130693 
L 200.28194 254.480792 
L 201.894561 254.480792 
L 201.894561 250.830891 
L 202.816842 250.830891 
L 202.816842 247.18099 
L 203.117934 247.18099 
L 203.117934 243.531089 
L 203.530162 243.531089 
L 203.530162 239.881188 
L 204.141983 239.881188 
L 204.141983 236.231287 
L 204.456196 236.231287 
L 204.456196 232.581386 
L 204.98679 232.581386 
L 204.98679 228.931485 
L 218.034973 228.931485 
L 218.034973 225.281584 
L 226.593912 225.281584 
L 226.593912 221.631683 
L 230.691493 221.631683 
L 230.691493 217.981782 
L 231.285628 217.981782 
L 231.285628 214.331881 
L 232.079196 214.331881 
L 232.079196 210.68198 
L 232.192811 210.68198 
L 232.291329 203.382178 
L 232.547157 203.382178 
L 232.547157 199.732277 
L 232.812575 199.732277 
L 232.866403 188.782574 
L 232.98897 188.782574 
L 232.98897 185.132673 
L 233.12443 185.132673 
L 233.12443 181.482772 
L 233.501445 181.482772 
L 233.501445 177.832871 
L 233.62317 177.832871 
L 233.62317 174.18297 
L 233.958193 174.18297 
L 233.958193 170.533069 
L 234.852855 170.533069 
L 234.852855 166.883168 
L 236.156734 166.883168 
L 236.156734 163.233267 
L 250.911855 163.233267 
L 250.911855 159.583366 
L 256.190582 159.583366 
L 256.190582 155.933465 
L 257.043082 155.933465 
L 257.043082 152.283564 
L 259.415231 152.283564 
L 259.415231 148.633663 
L 262.613241 148.633663 
L 262.613241 144.983762 
L 264.360633 144.983762 
L 264.360633 141.333861 
L 266.308979 141.333861 
L 266.308979 137.68396 
L 267.211444 137.68396 
L 267.211444 134.034059 
L 268.217158 134.034059 
L 268.217158 130.384158 
L 270.597831 130.384158 
L 270.597831 126.734257 
L 275.950377 126.734257 
L 275.950377 123.084356 
L 277.243294 123.084356 
L 277.243294 119.434455 
L 282.881373 119.434455 
L 282.881373 115.784554 
L 286.284642 115.784554 
L 286.284642 112.134653 
L 289.787457 112.134653 
L 289.787457 108.484752 
L 292.121801 108.484752 
L 292.121801 104.834851 
L 294.035469 104.834851 
L 294.035469 101.18495 
L 294.798812 101.18495 
L 294.798812 97.53505 
L 297.138903 97.53505 
L 297.24458 90.235248 
L 297.576834 90.235248 
L 297.576834 86.585347 
L 298.416803 86.585347 
L 298.416803 82.935446 
L 300.126811 82.935446 
L 300.190694 75.635644 
L 300.574778 75.635644 
L 300.574778 71.985743 
L 300.979675 71.985743 
L 300.979675 68.335842 
L 301.982137 68.335842 
L 301.982137 64.685941 
L 327.049109 64.685941 
L 327.049109 61.03604 
L 328.785146 61.03604 
L 328.785146 57.386139 
L 328.947449 57.386139 
L 328.947449 53.736238 
L 329.885541 53.736238 
L 329.885541 50.086337 
L 330.12949 50.086337 
L 330.12949 46.436436 
L 330.30629 46.436436 
L 330.30629 42.786535 
L 331.096949 42.786535 
L 331.096949 39.136634 
L 332.099742 39.136634 
L 332.099742 35.486733 
L 332.290495 35.486733 
L 332.290495 31.836832 
L 332.606206 31.836832 
L 332.695079 24.53703 
L 333.603069 24.53703 
L 333.603069 20.887129 
L 334.807294 20.887129 
L 334.807294 17.237228 
L 335.767487 17.237228 
L 335.767487 13.587327 
L 345.686414 13.587327 
L 345.686414 9.937426 
L 364.32 9.937426 
L 364.32 9.937426 
" style="fill:none;stroke:#bf00bf;stroke-linecap:square;"/>
   </g>
   <g id="line2d_4">
    <path clip-path="url(#pdadcf1c1c5)" d="M 191.185376 283.68 
L 191.185376 280.030099 
L 195.482594 280.030099 
L 195.482594 276.380198 
L 195.709271 276.380198 
L 195.709271 272.730297 
L 196.940549 272.730297 
L 196.940549 269.080396 
L 197.089174 269.080396 
L 197.089174 265.430495 
L 197.712351 265.430495 
L 197.712351 261.780594 
L 198.081118 261.780594 
L 198.081118 258.130693 
L 199.077315 258.130693 
L 199.077315 254.480792 
L 199.249063 254.480792 
L 199.249063 250.830891 
L 200.28194 250.830891 
L 200.28194 247.18099 
L 200.780162 247.18099 
L 200.780162 243.531089 
L 200.975809 243.531089 
L 200.975809 239.881188 
L 201.699226 239.881188 
L 201.699226 236.231287 
L 201.922717 236.231287 
L 201.922717 232.581386 
L 204.456196 232.581386 
L 204.456196 228.931485 
L 214.255766 228.931485 
L 214.255766 225.281584 
L 218.034973 225.281584 
L 218.034973 221.631683 
L 223.091331 221.631683 
L 223.091331 217.981782 
L 226.593912 217.981782 
L 226.593912 214.331881 
L 230.494961 214.331881 
L 230.494961 210.68198 
L 230.691493 210.68198 
L 230.691493 207.032079 
L 230.82678 207.032079 
L 230.82678 203.382178 
L 230.944898 203.382178 
L 230.944898 199.732277 
L 231.095992 199.732277 
L 231.095992 196.082376 
L 231.285628 196.082376 
L 231.285628 192.432475 
L 231.650596 192.432475 
L 231.650596 188.782574 
L 232.052021 188.782574 
L 232.079196 181.482772 
L 232.263907 181.482772 
L 232.263907 177.832871 
L 232.62819 177.832871 
L 232.62819 174.18297 
L 232.812575 174.18297 
L 232.812575 170.533069 
L 233.12443 170.533069 
L 233.157986 163.233267 
L 233.245758 163.233267 
L 233.245758 159.583366 
L 235.16289 159.583366 
L 235.16289 155.933465 
L 236.156734 155.933465 
L 236.156734 152.283564 
L 238.551096 152.283564 
L 238.551096 148.633663 
L 250.032885 148.633663 
L 250.032885 144.983762 
L 250.911855 144.983762 
L 250.911855 141.333861 
L 259.415231 141.333861 
L 259.415231 137.68396 
L 262.413732 137.68396 
L 262.413732 134.034059 
L 262.613241 134.034059 
L 262.613241 130.384158 
L 262.767954 130.384158 
L 262.767954 126.734257 
L 267.331048 126.734257 
L 267.331048 123.084356 
L 275.950377 123.084356 
L 275.950377 119.434455 
L 282.881373 119.434455 
L 282.881373 115.784554 
L 286.284642 115.784554 
L 286.284642 112.134653 
L 288.814461 112.134653 
L 288.814461 108.484752 
L 289.787457 108.484752 
L 289.787457 104.834851 
L 292.121801 104.834851 
L 292.121801 101.18495 
L 293.494937 101.18495 
L 293.494937 97.53505 
L 294.078935 97.53505 
L 294.078935 93.885149 
L 294.798812 93.885149 
L 294.798812 90.235248 
L 295.296894 90.235248 
L 295.296894 86.585347 
L 296.071475 86.585347 
L 296.158364 79.285545 
L 296.56195 79.285545 
L 296.56195 75.635644 
L 297.138903 75.635644 
L 297.138903 71.985743 
L 297.576834 71.985743 
L 297.576834 68.335842 
L 297.71053 68.335842 
L 297.71053 64.685941 
L 327.049109 64.685941 
L 327.049109 61.03604 
L 328.785146 61.03604 
L 328.785146 57.386139 
L 328.947449 57.386139 
L 328.947449 53.736238 
L 329.75356 53.736238 
L 329.75356 50.086337 
L 329.885541 50.086337 
L 329.885541 46.436436 
L 330.12949 46.436436 
L 330.12949 42.786535 
L 330.30629 42.786535 
L 330.30629 39.136634 
L 330.765794 39.136634 
L 330.765794 35.486733 
L 330.977236 35.486733 
L 330.977236 31.836832 
L 331.096949 31.836832 
L 331.096949 28.186931 
L 332.290495 28.186931 
L 332.290495 24.53703 
L 332.606206 24.53703 
L 332.606206 20.887129 
L 333.603069 20.887129 
L 333.603069 17.237228 
L 334.807294 17.237228 
L 334.807294 13.587327 
L 335.607896 13.587327 
L 335.607896 9.937426 
L 364.32 9.937426 
L 364.32 9.937426 
" style="fill:none;stroke:#000000;stroke-linecap:square;"/>
   </g>
   <g id="line2d_5">
    <path clip-path="url(#pdadcf1c1c5)" d="M 191.185376 283.68 
L 191.185376 280.030099 
L 194.207866 280.030099 
L 194.207866 276.380198 
L 194.495701 276.380198 
L 194.495701 272.730297 
L 195.334915 272.730297 
L 195.334915 269.080396 
L 195.482594 269.080396 
L 195.482594 265.430495 
L 195.709271 265.430495 
L 195.709271 261.780594 
L 196.652062 261.780594 
L 196.652062 258.130693 
L 196.914439 258.130693 
L 196.940549 250.830891 
L 197.180771 250.830891 
L 197.180771 247.18099 
L 197.511556 247.18099 
L 197.511556 243.531089 
L 197.933688 243.531089 
L 197.936725 236.231287 
L 199.019653 236.231287 
L 199.078943 228.931485 
L 209.660994 228.931485 
L 209.660994 225.281584 
L 214.255766 225.281584 
L 214.255766 221.631683 
L 215.934644 221.631683 
L 215.934644 217.981782 
L 217.515472 217.981782 
L 217.515472 214.331881 
L 219.107724 214.331881 
L 219.107724 210.68198 
L 219.905541 210.68198 
L 219.905541 207.032079 
L 220.374531 207.032079 
L 220.374531 203.382178 
L 225.036876 203.382178 
L 225.036876 199.732277 
L 226.593912 199.732277 
L 226.593912 196.082376 
L 230.088549 196.082376 
L 230.088549 192.432475 
L 230.32836 192.432475 
L 230.32836 188.782574 
L 230.691493 188.782574 
L 230.691493 185.132673 
L 230.82678 185.132673 
L 230.82678 181.482772 
L 230.944898 181.482772 
L 230.944898 177.832871 
L 231.073066 177.832871 
L 231.095992 170.533069 
L 231.213256 170.533069 
L 231.285628 163.233267 
L 231.650596 163.233267 
L 231.650596 159.583366 
L 231.767471 159.583366 
L 231.767471 155.933465 
L 231.902204 155.933465 
L 231.902204 152.283564 
L 232.362692 152.283564 
L 232.362692 148.633663 
L 232.660958 148.633663 
L 232.67046 141.333861 
L 233.40713 141.333861 
L 233.40713 137.68396 
L 233.804089 137.68396 
L 233.804089 134.034059 
L 235.820127 134.034059 
L 235.820127 130.384158 
L 236.934991 130.384158 
L 236.934991 126.734257 
L 240.315131 126.734257 
L 240.315131 123.084356 
L 243.3383 123.084356 
L 243.3383 119.434455 
L 282.881373 119.434455 
L 282.881373 115.784554 
L 286.284642 115.784554 
L 286.284642 112.134653 
L 287.253619 112.134653 
L 287.253619 108.484752 
L 288.270124 108.484752 
L 288.270124 104.834851 
L 288.814461 104.834851 
L 288.814461 101.18495 
L 289.476905 101.18495 
L 289.489719 93.885149 
L 289.962625 93.885149 
L 289.962625 90.235248 
L 292.123199 90.235248 
L 292.123199 86.585347 
L 292.512492 86.585347 
L 292.512492 82.935446 
L 293.494937 82.935446 
L 293.494937 79.285545 
L 294.891288 79.285545 
L 294.891288 75.635644 
L 295.296894 75.635644 
L 295.296894 71.985743 
L 296.158364 71.985743 
L 296.158364 68.335842 
L 296.56195 68.335842 
L 296.56195 64.685941 
L 323.892505 64.685941 
L 323.892505 61.03604 
L 325.590242 61.03604 
L 325.590242 57.386139 
L 325.955667 57.386139 
L 325.955667 53.736238 
L 327.049109 53.736238 
L 327.107074 46.436436 
L 327.647666 46.436436 
L 327.647666 42.786535 
L 328.754538 42.786535 
L 328.754538 39.136634 
L 329.515862 39.136634 
L 329.601041 28.186931 
L 329.885541 28.186931 
L 329.885541 24.53703 
L 330.12949 24.53703 
L 330.151246 17.237228 
L 330.312316 17.237228 
L 330.312316 13.587327 
L 335.398341 13.587327 
L 335.398341 9.937426 
L 364.32 9.937426 
L 364.32 9.937426 
" style="fill:none;stroke:#00bfbf;stroke-linecap:square;"/>
   </g>
   <g id="patch_3">
    <path d="M 7.2 7.2 
L 364.32 7.2 
" style="fill:none;stroke:#000000;stroke-linecap:square;stroke-linejoin:miter;"/>
   </g>
   <g id="patch_4">
    <path d="M 364.32 283.68 
L 364.32 7.2 
" style="fill:none;stroke:#000000;stroke-linecap:square;stroke-linejoin:miter;"/>
   </g>
   <g id="patch_5">
    <path d="M 7.2 283.68 
L 364.32 283.68 
" style="fill:none;stroke:#000000;stroke-linecap:square;stroke-linejoin:miter;"/>
   </g>
   <g id="patch_6">
    <path d="M 7.2 283.68 
L 7.2 7.2 
" style="fill:none;stroke:#000000;stroke-linecap:square;stroke-linejoin:miter;"/>
   </g>
   <g id="matplotlib.axis_1">
    <g id="xtick_1">
     <g id="line2d_6">
      <path clip-path="url(#pdadcf1c1c5)" d="M 46.803772 283.68 
L 46.803772 7.2 
" style="fill:none;stroke:#000000;stroke-dasharray:1.000000,3.000000;stroke-dashoffset:0.0;stroke-width:0.5;"/>
     </g>
     <g id="line2d_7">
      <defs>
       <path d="M 0 0 
L 0 -4 
" id="m1b7c5ca696" style="stroke:#000000;stroke-width:0.5;"/>
      </defs>
      <g>
       <use style="stroke:#000000;stroke-width:0.5;" x="46.803771872" xlink:href="#m1b7c5ca696" y="283.68"/>
      </g>
     </g>
     <g id="line2d_8">
      <defs>
       <path d="M 0 0 
L 0 4 
" id="md3a121d1b3" style="stroke:#000000;stroke-width:0.5;"/>
      </defs>
      <g>
       <use style="stroke:#000000;stroke-width:0.5;" x="46.803771872" xlink:href="#md3a121d1b3" y="7.2"/>
      </g>
     </g>
     <g id="text_1">
      <!-- -6 -->
      <defs>
       <path d="M 33.015625 40.375 
Q 26.375 40.375 22.484375 35.828125 
Q 18.609375 31.296875 18.609375 23.390625 
Q 18.609375 15.53125 22.484375 10.953125 
Q 26.375 6.390625 33.015625 6.390625 
Q 39.65625 6.390625 43.53125 10.953125 
Q 47.40625 15.53125 47.40625 23.390625 
Q 47.40625 31.296875 43.53125 35.828125 
Q 39.65625 40.375 33.015625 40.375 
M 52.59375 71.296875 
L 52.59375 62.3125 
Q 48.875 64.0625 45.09375 64.984375 
Q 41.3125 65.921875 37.59375 65.921875 
Q 27.828125 65.921875 22.671875 59.328125 
Q 17.53125 52.734375 16.796875 39.40625 
Q 19.671875 43.65625 24.015625 45.921875 
Q 28.375 48.1875 33.59375 48.1875 
Q 44.578125 48.1875 50.953125 41.515625 
Q 57.328125 34.859375 57.328125 23.390625 
Q 57.328125 12.15625 50.6875 5.359375 
Q 44.046875 -1.421875 33.015625 -1.421875 
Q 20.359375 -1.421875 13.671875 8.265625 
Q 6.984375 17.96875 6.984375 36.375 
Q 6.984375 53.65625 15.1875 63.9375 
Q 23.390625 74.21875 37.203125 74.21875 
Q 40.921875 74.21875 44.703125 73.484375 
Q 48.484375 72.75 52.59375 71.296875 
" id="BitstreamVeraSans-Roman-36"/>
       <path d="M 4.890625 31.390625 
L 31.203125 31.390625 
L 31.203125 23.390625 
L 4.890625 23.390625 
z
" id="BitstreamVeraSans-Roman-2d"/>
      </defs>
      <g transform="translate(36.833459372 302.876875)scale(0.2 -0.2)">
       <use xlink:href="#BitstreamVeraSans-Roman-2d"/>
       <use x="36.083984375" xlink:href="#BitstreamVeraSans-Roman-36"/>
      </g>
     </g>
    </g>
    <g id="xtick_2">
     <g id="line2d_9">
      <path clip-path="url(#pdadcf1c1c5)" d="M 86.4933 283.68 
L 86.4933 7.2 
" style="fill:none;stroke:#000000;stroke-dasharray:1.000000,3.000000;stroke-dashoffset:0.0;stroke-width:0.5;"/>
     </g>
     <g id="line2d_10">
      <g>
       <use style="stroke:#000000;stroke-width:0.5;" x="86.493300388" xlink:href="#m1b7c5ca696" y="283.68"/>
      </g>
     </g>
     <g id="line2d_11">
      <g>
       <use style="stroke:#000000;stroke-width:0.5;" x="86.493300388" xlink:href="#md3a121d1b3" y="7.2"/>
      </g>
     </g>
     <g id="text_2">
      <!-- -4 -->
      <defs>
       <path d="M 37.796875 64.3125 
L 12.890625 25.390625 
L 37.796875 25.390625 
z
M 35.203125 72.90625 
L 47.609375 72.90625 
L 47.609375 25.390625 
L 58.015625 25.390625 
L 58.015625 17.1875 
L 47.609375 17.1875 
L 47.609375 0 
L 37.796875 0 
L 37.796875 17.1875 
L 4.890625 17.1875 
L 4.890625 26.703125 
z
" id="BitstreamVeraSans-Roman-34"/>
      </defs>
      <g transform="translate(76.522987888 302.876875)scale(0.2 -0.2)">
       <use xlink:href="#BitstreamVeraSans-Roman-2d"/>
       <use x="36.083984375" xlink:href="#BitstreamVeraSans-Roman-34"/>
      </g>
     </g>
    </g>
    <g id="xtick_3">
     <g id="line2d_12">
      <path clip-path="url(#pdadcf1c1c5)" d="M 126.182829 283.68 
L 126.182829 7.2 
" style="fill:none;stroke:#000000;stroke-dasharray:1.000000,3.000000;stroke-dashoffset:0.0;stroke-width:0.5;"/>
     </g>
     <g id="line2d_13">
      <g>
       <use style="stroke:#000000;stroke-width:0.5;" x="126.182828904" xlink:href="#m1b7c5ca696" y="283.68"/>
      </g>
     </g>
     <g id="line2d_14">
      <g>
       <use style="stroke:#000000;stroke-width:0.5;" x="126.182828904" xlink:href="#md3a121d1b3" y="7.2"/>
      </g>
     </g>
     <g id="text_3">
      <!-- -2 -->
      <defs>
       <path d="M 19.1875 8.296875 
L 53.609375 8.296875 
L 53.609375 0 
L 7.328125 0 
L 7.328125 8.296875 
Q 12.9375 14.109375 22.625 23.890625 
Q 32.328125 33.6875 34.8125 36.53125 
Q 39.546875 41.84375 41.421875 45.53125 
Q 43.3125 49.21875 43.3125 52.78125 
Q 43.3125 58.59375 39.234375 62.25 
Q 35.15625 65.921875 28.609375 65.921875 
Q 23.96875 65.921875 18.8125 64.3125 
Q 13.671875 62.703125 7.8125 59.421875 
L 7.8125 69.390625 
Q 13.765625 71.78125 18.9375 73 
Q 24.125 74.21875 28.421875 74.21875 
Q 39.75 74.21875 46.484375 68.546875 
Q 53.21875 62.890625 53.21875 53.421875 
Q 53.21875 48.921875 51.53125 44.890625 
Q 49.859375 40.875 45.40625 35.40625 
Q 44.1875 33.984375 37.640625 27.21875 
Q 31.109375 20.453125 19.1875 8.296875 
" id="BitstreamVeraSans-Roman-32"/>
      </defs>
      <g transform="translate(116.212516404 302.876875)scale(0.2 -0.2)">
       <use xlink:href="#BitstreamVeraSans-Roman-2d"/>
       <use x="36.083984375" xlink:href="#BitstreamVeraSans-Roman-32"/>
      </g>
     </g>
    </g>
    <g id="xtick_4">
     <g id="line2d_15">
      <path clip-path="url(#pdadcf1c1c5)" d="M 165.872357 283.68 
L 165.872357 7.2 
" style="fill:none;stroke:#000000;stroke-dasharray:1.000000,3.000000;stroke-dashoffset:0.0;stroke-width:0.5;"/>
     </g>
     <g id="line2d_16">
      <g>
       <use style="stroke:#000000;stroke-width:0.5;" x="165.87235742" xlink:href="#m1b7c5ca696" y="283.68"/>
      </g>
     </g>
     <g id="line2d_17">
      <g>
       <use style="stroke:#000000;stroke-width:0.5;" x="165.87235742" xlink:href="#md3a121d1b3" y="7.2"/>
      </g>
     </g>
     <g id="text_4">
      <!-- 0 -->
      <defs>
       <path d="M 31.78125 66.40625 
Q 24.171875 66.40625 20.328125 58.90625 
Q 16.5 51.421875 16.5 36.375 
Q 16.5 21.390625 20.328125 13.890625 
Q 24.171875 6.390625 31.78125 6.390625 
Q 39.453125 6.390625 43.28125 13.890625 
Q 47.125 21.390625 47.125 36.375 
Q 47.125 51.421875 43.28125 58.90625 
Q 39.453125 66.40625 31.78125 66.40625 
M 31.78125 74.21875 
Q 44.046875 74.21875 50.515625 64.515625 
Q 56.984375 54.828125 56.984375 36.375 
Q 56.984375 17.96875 50.515625 8.265625 
Q 44.046875 -1.421875 31.78125 -1.421875 
Q 19.53125 -1.421875 13.0625 8.265625 
Q 6.59375 17.96875 6.59375 36.375 
Q 6.59375 54.828125 13.0625 64.515625 
Q 19.53125 74.21875 31.78125 74.21875 
" id="BitstreamVeraSans-Roman-30"/>
      </defs>
      <g transform="translate(159.50985742 302.876875)scale(0.2 -0.2)">
       <use xlink:href="#BitstreamVeraSans-Roman-30"/>
      </g>
     </g>
    </g>
    <g id="xtick_5">
     <g id="line2d_18">
      <path clip-path="url(#pdadcf1c1c5)" d="M 205.561886 283.68 
L 205.561886 7.2 
" style="fill:none;stroke:#000000;stroke-dasharray:1.000000,3.000000;stroke-dashoffset:0.0;stroke-width:0.5;"/>
     </g>
     <g id="line2d_19">
      <g>
       <use style="stroke:#000000;stroke-width:0.5;" x="205.561885936" xlink:href="#m1b7c5ca696" y="283.68"/>
      </g>
     </g>
     <g id="line2d_20">
      <g>
       <use style="stroke:#000000;stroke-width:0.5;" x="205.561885936" xlink:href="#md3a121d1b3" y="7.2"/>
      </g>
     </g>
     <g id="text_5">
      <!-- 2 -->
      <g transform="translate(199.199385936 302.876875)scale(0.2 -0.2)">
       <use xlink:href="#BitstreamVeraSans-Roman-32"/>
      </g>
     </g>
    </g>
    <g id="xtick_6">
     <g id="line2d_21">
      <path clip-path="url(#pdadcf1c1c5)" d="M 245.251414 283.68 
L 245.251414 7.2 
" style="fill:none;stroke:#000000;stroke-dasharray:1.000000,3.000000;stroke-dashoffset:0.0;stroke-width:0.5;"/>
     </g>
     <g id="line2d_22">
      <g>
       <use style="stroke:#000000;stroke-width:0.5;" x="245.251414452" xlink:href="#m1b7c5ca696" y="283.68"/>
      </g>
     </g>
     <g id="line2d_23">
      <g>
       <use style="stroke:#000000;stroke-width:0.5;" x="245.251414452" xlink:href="#md3a121d1b3" y="7.2"/>
      </g>
     </g>
     <g id="text_6">
      <!-- 4 -->
      <g transform="translate(238.888914452 302.876875)scale(0.2 -0.2)">
       <use xlink:href="#BitstreamVeraSans-Roman-34"/>
      </g>
     </g>
    </g>
    <g id="xtick_7">
     <g id="line2d_24">
      <path clip-path="url(#pdadcf1c1c5)" d="M 284.940943 283.68 
L 284.940943 7.2 
" style="fill:none;stroke:#000000;stroke-dasharray:1.000000,3.000000;stroke-dashoffset:0.0;stroke-width:0.5;"/>
     </g>
     <g id="line2d_25">
      <g>
       <use style="stroke:#000000;stroke-width:0.5;" x="284.940942968" xlink:href="#m1b7c5ca696" y="283.68"/>
      </g>
     </g>
     <g id="line2d_26">
      <g>
       <use style="stroke:#000000;stroke-width:0.5;" x="284.940942968" xlink:href="#md3a121d1b3" y="7.2"/>
      </g>
     </g>
     <g id="text_7">
      <!-- 6 -->
      <g transform="translate(278.578442968 302.876875)scale(0.2 -0.2)">
       <use xlink:href="#BitstreamVeraSans-Roman-36"/>
      </g>
     </g>
    </g>
    <g id="xtick_8">
     <g id="line2d_27">
      <path clip-path="url(#pdadcf1c1c5)" d="M 324.630471 283.68 
L 324.630471 7.2 
" style="fill:none;stroke:#000000;stroke-dasharray:1.000000,3.000000;stroke-dashoffset:0.0;stroke-width:0.5;"/>
     </g>
     <g id="line2d_28">
      <g>
       <use style="stroke:#000000;stroke-width:0.5;" x="324.630471484" xlink:href="#m1b7c5ca696" y="283.68"/>
      </g>
     </g>
     <g id="line2d_29">
      <g>
       <use style="stroke:#000000;stroke-width:0.5;" x="324.630471484" xlink:href="#md3a121d1b3" y="7.2"/>
      </g>
     </g>
     <g id="text_8">
      <!-- 8 -->
      <defs>
       <path d="M 31.78125 34.625 
Q 24.75 34.625 20.71875 30.859375 
Q 16.703125 27.09375 16.703125 20.515625 
Q 16.703125 13.921875 20.71875 10.15625 
Q 24.75 6.390625 31.78125 6.390625 
Q 38.8125 6.390625 42.859375 10.171875 
Q 46.921875 13.96875 46.921875 20.515625 
Q 46.921875 27.09375 42.890625 30.859375 
Q 38.875 34.625 31.78125 34.625 
M 21.921875 38.8125 
Q 15.578125 40.375 12.03125 44.71875 
Q 8.5 49.078125 8.5 55.328125 
Q 8.5 64.0625 14.71875 69.140625 
Q 20.953125 74.21875 31.78125 74.21875 
Q 42.671875 74.21875 48.875 69.140625 
Q 55.078125 64.0625 55.078125 55.328125 
Q 55.078125 49.078125 51.53125 44.71875 
Q 48 40.375 41.703125 38.8125 
Q 48.828125 37.15625 52.796875 32.3125 
Q 56.78125 27.484375 56.78125 20.515625 
Q 56.78125 9.90625 50.3125 4.234375 
Q 43.84375 -1.421875 31.78125 -1.421875 
Q 19.734375 -1.421875 13.25 4.234375 
Q 6.78125 9.90625 6.78125 20.515625 
Q 6.78125 27.484375 10.78125 32.3125 
Q 14.796875 37.15625 21.921875 38.8125 
M 18.3125 54.390625 
Q 18.3125 48.734375 21.84375 45.5625 
Q 25.390625 42.390625 31.78125 42.390625 
Q 38.140625 42.390625 41.71875 45.5625 
Q 45.3125 48.734375 45.3125 54.390625 
Q 45.3125 60.0625 41.71875 63.234375 
Q 38.140625 66.40625 31.78125 66.40625 
Q 25.390625 66.40625 21.84375 63.234375 
Q 18.3125 60.0625 18.3125 54.390625 
" id="BitstreamVeraSans-Roman-38"/>
      </defs>
      <g transform="translate(318.267971484 302.876875)scale(0.2 -0.2)">
       <use xlink:href="#BitstreamVeraSans-Roman-38"/>
      </g>
     </g>
    </g>
    <g id="xtick_9">
     <g id="line2d_30">
      <path clip-path="url(#pdadcf1c1c5)" d="M 364.32 283.68 
L 364.32 7.2 
" style="fill:none;stroke:#000000;stroke-dasharray:1.000000,3.000000;stroke-dashoffset:0.0;stroke-width:0.5;"/>
     </g>
     <g id="line2d_31">
      <g>
       <use style="stroke:#000000;stroke-width:0.5;" x="364.32" xlink:href="#m1b7c5ca696" y="283.68"/>
      </g>
     </g>
     <g id="line2d_32">
      <g>
       <use style="stroke:#000000;stroke-width:0.5;" x="364.32" xlink:href="#md3a121d1b3" y="7.2"/>
      </g>
     </g>
    </g>
    <g id="xtick_10">
     <g id="line2d_33">
      <defs>
       <path d="M 0 0 
L 0 -2 
" id="mbf01b98188" style="stroke:#000000;stroke-width:0.5;"/>
      </defs>
      <g>
       <use style="stroke:#000000;stroke-width:0.5;" x="46.803771872" xlink:href="#mbf01b98188" y="283.68"/>
      </g>
     </g>
     <g id="line2d_34">
      <defs>
       <path d="M 0 0 
L 0 2 
" id="mc5bb968cbf" style="stroke:#000000;stroke-width:0.5;"/>
      </defs>
      <g>
       <use style="stroke:#000000;stroke-width:0.5;" x="46.803771872" xlink:href="#mc5bb968cbf" y="7.2"/>
      </g>
     </g>
    </g>
    <g id="xtick_11">
     <g id="line2d_35">
      <g>
       <use style="stroke:#000000;stroke-width:0.5;" x="86.493300388" xlink:href="#mbf01b98188" y="283.68"/>
      </g>
     </g>
     <g id="line2d_36">
      <g>
       <use style="stroke:#000000;stroke-width:0.5;" x="86.493300388" xlink:href="#mc5bb968cbf" y="7.2"/>
      </g>
     </g>
    </g>
    <g id="xtick_12">
     <g id="line2d_37">
      <g>
       <use style="stroke:#000000;stroke-width:0.5;" x="126.182828904" xlink:href="#mbf01b98188" y="283.68"/>
      </g>
     </g>
     <g id="line2d_38">
      <g>
       <use style="stroke:#000000;stroke-width:0.5;" x="126.182828904" xlink:href="#mc5bb968cbf" y="7.2"/>
      </g>
     </g>
    </g>
    <g id="xtick_13">
     <g id="line2d_39">
      <g>
       <use style="stroke:#000000;stroke-width:0.5;" x="165.87235742" xlink:href="#mbf01b98188" y="283.68"/>
      </g>
     </g>
     <g id="line2d_40">
      <g>
       <use style="stroke:#000000;stroke-width:0.5;" x="165.87235742" xlink:href="#mc5bb968cbf" y="7.2"/>
      </g>
     </g>
    </g>
    <g id="xtick_14">
     <g id="line2d_41">
      <g>
       <use style="stroke:#000000;stroke-width:0.5;" x="205.561885936" xlink:href="#mbf01b98188" y="283.68"/>
      </g>
     </g>
     <g id="line2d_42">
      <g>
       <use style="stroke:#000000;stroke-width:0.5;" x="205.561885936" xlink:href="#mc5bb968cbf" y="7.2"/>
      </g>
     </g>
    </g>
    <g id="xtick_15">
     <g id="line2d_43">
      <g>
       <use style="stroke:#000000;stroke-width:0.5;" x="245.251414452" xlink:href="#mbf01b98188" y="283.68"/>
      </g>
     </g>
     <g id="line2d_44">
      <g>
       <use style="stroke:#000000;stroke-width:0.5;" x="245.251414452" xlink:href="#mc5bb968cbf" y="7.2"/>
      </g>
     </g>
    </g>
    <g id="xtick_16">
     <g id="line2d_45">
      <g>
       <use style="stroke:#000000;stroke-width:0.5;" x="284.940942968" xlink:href="#mbf01b98188" y="283.68"/>
      </g>
     </g>
     <g id="line2d_46">
      <g>
       <use style="stroke:#000000;stroke-width:0.5;" x="284.940942968" xlink:href="#mc5bb968cbf" y="7.2"/>
      </g>
     </g>
    </g>
    <g id="xtick_17">
     <g id="line2d_47">
      <g>
       <use style="stroke:#000000;stroke-width:0.5;" x="324.630471484" xlink:href="#mbf01b98188" y="283.68"/>
      </g>
     </g>
     <g id="line2d_48">
      <g>
       <use style="stroke:#000000;stroke-width:0.5;" x="324.630471484" xlink:href="#mc5bb968cbf" y="7.2"/>
      </g>
     </g>
    </g>
    <g id="xtick_18">
     <g id="line2d_49">
      <g>
       <use style="stroke:#000000;stroke-width:0.5;" x="364.32" xlink:href="#mbf01b98188" y="283.68"/>
      </g>
     </g>
     <g id="line2d_50">
      <g>
       <use style="stroke:#000000;stroke-width:0.5;" x="364.32" xlink:href="#mc5bb968cbf" y="7.2"/>
      </g>
     </g>
    </g>
    <g id="text_9">
     <!-- log10 of Df -->
     <defs>
      <path id="BitstreamVeraSans-Roman-20"/>
      <path d="M 12.40625 8.296875 
L 28.515625 8.296875 
L 28.515625 63.921875 
L 10.984375 60.40625 
L 10.984375 69.390625 
L 28.421875 72.90625 
L 38.28125 72.90625 
L 38.28125 8.296875 
L 54.390625 8.296875 
L 54.390625 0 
L 12.40625 0 
z
" id="BitstreamVeraSans-Roman-31"/>
      <path d="M 30.609375 48.390625 
Q 23.390625 48.390625 19.1875 42.75 
Q 14.984375 37.109375 14.984375 27.296875 
Q 14.984375 17.484375 19.15625 11.84375 
Q 23.34375 6.203125 30.609375 6.203125 
Q 37.796875 6.203125 41.984375 11.859375 
Q 46.1875 17.53125 46.1875 27.296875 
Q 46.1875 37.015625 41.984375 42.703125 
Q 37.796875 48.390625 30.609375 48.390625 
M 30.609375 56 
Q 42.328125 56 49.015625 48.375 
Q 55.71875 40.765625 55.71875 27.296875 
Q 55.71875 13.875 49.015625 6.21875 
Q 42.328125 -1.421875 30.609375 -1.421875 
Q 18.84375 -1.421875 12.171875 6.21875 
Q 5.515625 13.875 5.515625 27.296875 
Q 5.515625 40.765625 12.171875 48.375 
Q 18.84375 56 30.609375 56 
" id="BitstreamVeraSans-Roman-6f"/>
      <path d="M 9.421875 75.984375 
L 18.40625 75.984375 
L 18.40625 0 
L 9.421875 0 
z
" id="BitstreamVeraSans-Roman-6c"/>
      <path d="M 19.671875 64.796875 
L 19.671875 8.109375 
L 31.59375 8.109375 
Q 46.6875 8.109375 53.6875 14.9375 
Q 60.6875 21.78125 60.6875 36.53125 
Q 60.6875 51.171875 53.6875 57.984375 
Q 46.6875 64.796875 31.59375 64.796875 
z
M 9.8125 72.90625 
L 30.078125 72.90625 
Q 51.265625 72.90625 61.171875 64.09375 
Q 71.09375 55.28125 71.09375 36.53125 
Q 71.09375 17.671875 61.125 8.828125 
Q 51.171875 0 30.078125 0 
L 9.8125 0 
z
" id="BitstreamVeraSans-Roman-44"/>
      <path d="M 45.40625 27.984375 
Q 45.40625 37.75 41.375 43.109375 
Q 37.359375 48.484375 30.078125 48.484375 
Q 22.859375 48.484375 18.828125 43.109375 
Q 14.796875 37.75 14.796875 27.984375 
Q 14.796875 18.265625 18.828125 12.890625 
Q 22.859375 7.515625 30.078125 7.515625 
Q 37.359375 7.515625 41.375 12.890625 
Q 45.40625 18.265625 45.40625 27.984375 
M 54.390625 6.78125 
Q 54.390625 -7.171875 48.1875 -13.984375 
Q 42 -20.796875 29.203125 -20.796875 
Q 24.46875 -20.796875 20.265625 -20.09375 
Q 16.0625 -19.390625 12.109375 -17.921875 
L 12.109375 -9.1875 
Q 16.0625 -11.328125 19.921875 -12.34375 
Q 23.78125 -13.375 27.78125 -13.375 
Q 36.625 -13.375 41.015625 -8.765625 
Q 45.40625 -4.15625 45.40625 5.171875 
L 45.40625 9.625 
Q 42.625 4.78125 38.28125 2.390625 
Q 33.9375 0 27.875 0 
Q 17.828125 0 11.671875 7.65625 
Q 5.515625 15.328125 5.515625 27.984375 
Q 5.515625 40.671875 11.671875 48.328125 
Q 17.828125 56 27.875 56 
Q 33.9375 56 38.28125 53.609375 
Q 42.625 51.21875 45.40625 46.390625 
L 45.40625 54.6875 
L 54.390625 54.6875 
z
" id="BitstreamVeraSans-Roman-67"/>
      <path d="M 37.109375 75.984375 
L 37.109375 68.5 
L 28.515625 68.5 
Q 23.6875 68.5 21.796875 66.546875 
Q 19.921875 64.59375 19.921875 59.515625 
L 19.921875 54.6875 
L 34.71875 54.6875 
L 34.71875 47.703125 
L 19.921875 47.703125 
L 19.921875 0 
L 10.890625 0 
L 10.890625 47.703125 
L 2.296875 47.703125 
L 2.296875 54.6875 
L 10.890625 54.6875 
L 10.890625 58.5 
Q 10.890625 67.625 15.140625 71.796875 
Q 19.390625 75.984375 28.609375 75.984375 
z
" id="BitstreamVeraSans-Roman-66"/>
     </defs>
     <g transform="translate(130.5740625 327.233125)scale(0.2 -0.2)">
      <use xlink:href="#BitstreamVeraSans-Roman-6c"/>
      <use x="27.783203125" xlink:href="#BitstreamVeraSans-Roman-6f"/>
      <use x="88.96484375" xlink:href="#BitstreamVeraSans-Roman-67"/>
      <use x="152.44140625" xlink:href="#BitstreamVeraSans-Roman-31"/>
      <use x="216.064453125" xlink:href="#BitstreamVeraSans-Roman-30"/>
      <use x="279.6875" xlink:href="#BitstreamVeraSans-Roman-20"/>
      <use x="311.474609375" xlink:href="#BitstreamVeraSans-Roman-6f"/>
      <use x="372.65625" xlink:href="#BitstreamVeraSans-Roman-66"/>
      <use x="407.861328125" xlink:href="#BitstreamVeraSans-Roman-20"/>
      <use x="439.6484375" xlink:href="#BitstreamVeraSans-Roman-44"/>
      <use x="516.650390625" xlink:href="#BitstreamVeraSans-Roman-66"/>
     </g>
    </g>
   </g>
   <g id="matplotlib.axis_2">
    <g id="ytick_1">
     <g id="line2d_51">
      <path clip-path="url(#pdadcf1c1c5)" d="M 7.2 283.68 
L 364.32 283.68 
" style="fill:none;stroke:#000000;stroke-dasharray:1.000000,3.000000;stroke-dashoffset:0.0;stroke-width:0.5;"/>
     </g>
     <g id="line2d_52">
      <defs>
       <path d="M 0 0 
L 4 0 
" id="ma5d256b9ea" style="stroke:#000000;stroke-width:0.5;"/>
      </defs>
      <g>
       <use style="stroke:#000000;stroke-width:0.5;" x="7.2" xlink:href="#ma5d256b9ea" y="283.68"/>
      </g>
     </g>
     <g id="line2d_53">
      <defs>
       <path d="M 0 0 
L -4 0 
" id="md2e4cf724b" style="stroke:#000000;stroke-width:0.5;"/>
      </defs>
      <g>
       <use style="stroke:#000000;stroke-width:0.5;" x="364.32" xlink:href="#md2e4cf724b" y="283.68"/>
      </g>
     </g>
    </g>
    <g id="ytick_2">
     <g id="line2d_54">
      <path clip-path="url(#pdadcf1c1c5)" d="M 7.2 228.931485 
L 364.32 228.931485 
" style="fill:none;stroke:#000000;stroke-dasharray:1.000000,3.000000;stroke-dashoffset:0.0;stroke-width:0.5;"/>
     </g>
     <g id="line2d_55">
      <g>
       <use style="stroke:#000000;stroke-width:0.5;" x="7.2" xlink:href="#ma5d256b9ea" y="228.931485149"/>
      </g>
     </g>
     <g id="line2d_56">
      <g>
       <use style="stroke:#000000;stroke-width:0.5;" x="364.32" xlink:href="#md2e4cf724b" y="228.931485149"/>
      </g>
     </g>
    </g>
    <g id="ytick_3">
     <g id="line2d_57">
      <path clip-path="url(#pdadcf1c1c5)" d="M 7.2 174.18297 
L 364.32 174.18297 
" style="fill:none;stroke:#000000;stroke-dasharray:1.000000,3.000000;stroke-dashoffset:0.0;stroke-width:0.5;"/>
     </g>
     <g id="line2d_58">
      <g>
       <use style="stroke:#000000;stroke-width:0.5;" x="7.2" xlink:href="#ma5d256b9ea" y="174.182970297"/>
      </g>
     </g>
     <g id="line2d_59">
      <g>
       <use style="stroke:#000000;stroke-width:0.5;" x="364.32" xlink:href="#md2e4cf724b" y="174.182970297"/>
      </g>
     </g>
    </g>
    <g id="ytick_4">
     <g id="line2d_60">
      <path clip-path="url(#pdadcf1c1c5)" d="M 7.2 119.434455 
L 364.32 119.434455 
" style="fill:none;stroke:#000000;stroke-dasharray:1.000000,3.000000;stroke-dashoffset:0.0;stroke-width:0.5;"/>
     </g>
     <g id="line2d_61">
      <g>
       <use style="stroke:#000000;stroke-width:0.5;" x="7.2" xlink:href="#ma5d256b9ea" y="119.434455446"/>
      </g>
     </g>
     <g id="line2d_62">
      <g>
       <use style="stroke:#000000;stroke-width:0.5;" x="364.32" xlink:href="#md2e4cf724b" y="119.434455446"/>
      </g>
     </g>
    </g>
    <g id="ytick_5">
     <g id="line2d_63">
      <path clip-path="url(#pdadcf1c1c5)" d="M 7.2 64.685941 
L 364.32 64.685941 
" style="fill:none;stroke:#000000;stroke-dasharray:1.000000,3.000000;stroke-dashoffset:0.0;stroke-width:0.5;"/>
     </g>
     <g id="line2d_64">
      <g>
       <use style="stroke:#000000;stroke-width:0.5;" x="7.2" xlink:href="#ma5d256b9ea" y="64.6859405941"/>
      </g>
     </g>
     <g id="line2d_65">
      <g>
       <use style="stroke:#000000;stroke-width:0.5;" x="364.32" xlink:href="#md2e4cf724b" y="64.6859405941"/>
      </g>
     </g>
    </g>
    <g id="ytick_6">
     <g id="line2d_66">
      <path clip-path="url(#pdadcf1c1c5)" d="M 7.2 9.937426 
L 364.32 9.937426 
" style="fill:none;stroke:#000000;stroke-dasharray:1.000000,3.000000;stroke-dashoffset:0.0;stroke-width:0.5;"/>
     </g>
     <g id="line2d_67">
      <g>
       <use style="stroke:#000000;stroke-width:0.5;" x="7.2" xlink:href="#ma5d256b9ea" y="9.93742574257"/>
      </g>
     </g>
     <g id="line2d_68">
      <g>
       <use style="stroke:#000000;stroke-width:0.5;" x="364.32" xlink:href="#md2e4cf724b" y="9.93742574257"/>
      </g>
     </g>
    </g>
   </g>
   <g id="text_10">
    <!-- f10-14,20-D -->
    <defs>
     <path d="M 11.71875 12.40625 
L 22.015625 12.40625 
L 22.015625 4 
L 14.015625 -11.625 
L 7.71875 -11.625 
L 11.71875 4 
z
" id="BitstreamVeraSans-Roman-2c"/>
    </defs>
    <g transform="translate(237.599475 278.1504)scale(0.2 -0.2)">
     <use xlink:href="#BitstreamVeraSans-Roman-66"/>
     <use x="35.205078125" xlink:href="#BitstreamVeraSans-Roman-31"/>
     <use x="98.828125" xlink:href="#BitstreamVeraSans-Roman-30"/>
     <use x="162.451171875" xlink:href="#BitstreamVeraSans-Roman-2d"/>
     <use x="198.53515625" xlink:href="#BitstreamVeraSans-Roman-31"/>
     <use x="262.158203125" xlink:href="#BitstreamVeraSans-Roman-34"/>
     <use x="325.78125" xlink:href="#BitstreamVeraSans-Roman-2c"/>
     <use x="357.568359375" xlink:href="#BitstreamVeraSans-Roman-32"/>
     <use x="421.19140625" xlink:href="#BitstreamVeraSans-Roman-30"/>
     <use x="484.814453125" xlink:href="#BitstreamVeraSans-Roman-2d"/>
     <use x="520.8984375" xlink:href="#BitstreamVeraSans-Roman-44"/>
    </g>
   </g>
  </g>
 </g>
 <defs>
  <clipPath id="pdadcf1c1c5">
   <rect height="276.48" width="357.12" x="7.2" y="7.2"/>
  </clipPath>
 </defs>
</svg>
