<?xml version="1.0" encoding="utf-8" standalone="no"?>
<!DOCTYPE svg PUBLIC "-//W3C//DTD SVG 1.1//EN"
  "http://www.w3.org/Graphics/SVG/1.1/DTD/svg11.dtd">
<!-- Created with matplotlib (http://matplotlib.org/) -->
<svg height="338pt" version="1.1" viewBox="0 0 371 338" width="371pt" xmlns="http://www.w3.org/2000/svg" xmlns:xlink="http://www.w3.org/1999/xlink">
 <defs>
  <style type="text/css">
*{stroke-linecap:butt;stroke-linejoin:round;stroke-miterlimit:100000;}
  </style>
 </defs>
 <g id="figure_1">
  <g id="patch_1">
   <path d="M 0 338.5925 
L 371.52 338.5925 
L 371.52 0 
L 0 0 
z
" style="fill:#ffffff;"/>
  </g>
  <g id="axes_1">
   <g id="patch_2">
    <path d="M 7.2 283.68 
L 364.32 283.68 
L 364.32 7.2 
L 7.2 7.2 
z
" style="fill:#ffffff;"/>
   </g>
   <g id="line2d_1">
    <path clip-path="url(#pb24770ac17)" d="M 171.396147 283.68 
L 171.396147 280.030099 
L 173.637244 280.030099 
L 173.637244 276.380198 
L 174.725409 276.380198 
L 174.725409 272.730297 
L 175.49925 272.730297 
L 175.49925 269.080396 
L 175.64627 269.080396 
L 175.64627 265.430495 
L 176.249646 265.430495 
L 176.249646 261.780594 
L 176.599634 261.780594 
L 176.599634 258.130693 
L 176.969426 258.130693 
L 176.969426 254.480792 
L 177.910553 254.480792 
L 177.973788 247.18099 
L 178.152943 247.18099 
L 178.154537 239.881188 
L 178.567997 239.881188 
L 178.567997 236.231287 
L 179.613494 236.231287 
L 179.613494 232.581386 
L 180.436846 232.581386 
L 180.436846 228.931485 
L 201.053863 228.931485 
L 201.053863 225.281584 
L 202.089026 225.281584 
L 202.089026 221.631683 
L 202.354485 221.631683 
L 202.464601 210.68198 
L 202.477185 210.68198 
L 202.543038 199.732277 
L 202.833914 199.732277 
L 202.92868 185.132673 
L 202.983089 185.132673 
L 203.057326 174.18297 
L 203.108744 174.18297 
L 203.1779 163.233267 
L 203.25931 163.233267 
L 203.339037 148.633663 
L 203.407266 148.633663 
L 203.407266 144.983762 
L 203.535103 144.983762 
L 203.587668 134.034059 
L 203.654422 134.034059 
L 203.725125 123.084356 
L 203.838085 123.084356 
L 203.838085 119.434455 
L 216.456238 119.434455 
L 216.456238 115.784554 
L 216.866022 115.784554 
L 216.866022 112.134653 
L 217.22693 112.134653 
L 217.22693 108.484752 
L 217.395235 108.484752 
L 217.395235 104.834851 
L 217.691126 104.834851 
L 217.691126 101.18495 
L 217.956272 101.18495 
L 217.964618 93.885149 
L 218.12125 93.885149 
L 218.12125 90.235248 
L 218.440453 90.235248 
L 218.483286 82.935446 
L 218.580007 82.935446 
L 218.580007 79.285545 
L 218.692472 79.285545 
L 218.737633 68.335842 
L 218.973509 68.335842 
L 218.973509 64.685941 
L 248.104061 64.685941 
L 248.104061 61.03604 
L 250.917551 61.03604 
L 250.917551 57.386139 
L 251.989764 57.386139 
L 251.989764 53.736238 
L 252.407056 53.736238 
L 252.407056 50.086337 
L 253.324178 50.086337 
L 253.324178 46.436436 
L 254.387391 46.436436 
L 254.387391 42.786535 
L 255.106062 42.786535 
L 255.106062 39.136634 
L 255.252918 39.136634 
L 255.252918 35.486733 
L 256.194007 35.486733 
L 256.219224 24.53703 
L 256.696501 24.53703 
L 256.696501 20.887129 
L 256.939565 20.887129 
L 256.939565 17.237228 
L 258.021411 17.237228 
L 258.021411 13.587327 
L 258.217018 13.587327 
L 258.217018 9.937426 
L 364.32 9.937426 
L 364.32 9.937426 
" style="fill:none;stroke:#ff0000;stroke-linecap:square;stroke-width:3.0;"/>
   </g>
   <g id="line2d_2">
    <path clip-path="url(#pb24770ac17)" d="M 180.890853 283.68 
L 180.890853 280.030099 
L 181.456362 280.030099 
L 181.456362 276.380198 
L 181.913046 276.380198 
L 181.913046 272.730297 
L 182.09707 272.730297 
L 182.09707 269.080396 
L 182.619301 269.080396 
L 182.712651 261.780594 
L 182.819392 261.780594 
L 182.819392 258.130693 
L 183.005345 258.130693 
L 183.005345 254.480792 
L 183.716292 254.480792 
L 183.788797 247.18099 
L 184.558845 247.18099 
L 184.610726 239.881188 
L 184.781373 239.881188 
L 184.781373 236.231287 
L 185.577836 236.231287 
L 185.577836 232.581386 
L 186.310004 232.581386 
L 186.310004 228.931485 
L 203.284811 228.931485 
L 203.361492 217.981782 
L 203.479149 217.981782 
L 203.587899 203.382178 
L 203.628875 203.382178 
L 203.703492 196.082376 
L 203.865302 196.082376 
L 203.97356 170.533069 
L 203.9878 170.533069 
L 204.092655 137.68396 
L 204.130749 137.68396 
L 204.221274 123.084356 
L 204.263761 123.084356 
L 204.263761 119.434455 
L 219.471783 119.434455 
L 219.471783 115.784554 
L 219.693957 115.784554 
L 219.693957 112.134653 
L 219.925113 112.134653 
L 219.925113 108.484752 
L 220.169849 108.484752 
L 220.169849 104.834851 
L 220.32959 104.834851 
L 220.360318 97.53505 
L 220.669875 97.53505 
L 220.669875 93.885149 
L 220.949033 93.885149 
L 220.949033 90.235248 
L 221.108302 90.235248 
L 221.143024 82.935446 
L 221.227156 82.935446 
L 221.227156 79.285545 
L 221.504191 79.285545 
L 221.531649 71.985743 
L 221.978815 71.985743 
L 221.978815 68.335842 
L 222.207737 68.335842 
L 222.207737 64.685941 
L 258.34652 64.685941 
L 258.34652 61.03604 
L 259.34387 61.03604 
L 259.34387 57.386139 
L 260.107296 57.386139 
L 260.107296 53.736238 
L 262.017318 53.736238 
L 262.017318 50.086337 
L 262.711213 50.086337 
L 262.711213 46.436436 
L 263.355388 46.436436 
L 263.355388 42.786535 
L 264.401262 42.786535 
L 264.48564 35.486733 
L 264.689625 35.486733 
L 264.689625 31.836832 
L 264.822048 31.836832 
L 264.822048 28.186931 
L 265.116673 28.186931 
L 265.116673 24.53703 
L 265.399002 24.53703 
L 265.399002 20.887129 
L 266.019661 20.887129 
L 266.019661 17.237228 
L 266.624179 17.237228 
L 266.624179 13.587327 
L 268.332852 13.587327 
L 268.332852 9.937426 
L 364.32 9.937426 
L 364.32 9.937426 
" style="fill:none;stroke:#00bfbf;stroke-linecap:square;"/>
   </g>
   <g id="line2d_3">
    <path clip-path="url(#pb24770ac17)" d="M 173.815035 283.68 
L 173.815035 280.030099 
L 176.070182 280.030099 
L 176.070182 276.380198 
L 179.150924 276.380198 
L 179.150924 272.730297 
L 180.890853 272.730297 
L 180.890853 269.080396 
L 181.913046 269.080396 
L 181.913046 265.430495 
L 182.592406 265.430495 
L 182.592406 261.780594 
L 182.712651 261.780594 
L 182.819392 254.480792 
L 183.005345 254.480792 
L 183.005345 250.830891 
L 183.478325 250.830891 
L 183.478325 247.18099 
L 183.710547 247.18099 
L 183.788797 236.231287 
L 184.258875 236.231287 
L 184.258875 232.581386 
L 185.577836 232.581386 
L 185.577836 228.931485 
L 202.52295 228.931485 
L 202.52295 225.281584 
L 202.916618 225.281584 
L 202.989962 214.331881 
L 203.287291 214.331881 
L 203.287291 210.68198 
L 203.471556 210.68198 
L 203.565731 196.082376 
L 203.587899 196.082376 
L 203.672257 185.132673 
L 203.77419 185.132673 
L 203.879454 155.933465 
L 203.892998 155.933465 
L 203.996379 137.68396 
L 204.02062 137.68396 
L 204.065259 126.734257 
L 204.210382 126.734257 
L 204.215668 119.434455 
L 219.152255 119.434455 
L 219.152255 115.784554 
L 219.471783 115.784554 
L 219.471783 112.134653 
L 219.693957 112.134653 
L 219.762659 104.834851 
L 219.925113 104.834851 
L 219.925113 101.18495 
L 220.090676 101.18495 
L 220.090676 97.53505 
L 220.360318 97.53505 
L 220.360318 93.885149 
L 220.546858 93.885149 
L 220.546858 90.235248 
L 220.669875 90.235248 
L 220.739932 82.935446 
L 220.789162 82.935446 
L 220.789162 79.285545 
L 221.143024 79.285545 
L 221.227156 71.985743 
L 221.450892 71.985743 
L 221.450892 68.335842 
L 221.672606 68.335842 
L 221.672606 64.685941 
L 248.104063 64.685941 
L 248.104063 61.03604 
L 255.255277 61.03604 
L 255.255277 57.386139 
L 257.449938 57.386139 
L 257.449938 53.736238 
L 259.34387 53.736238 
L 259.34387 50.086337 
L 260.017444 50.086337 
L 260.107296 42.786535 
L 260.343643 42.786535 
L 260.343643 39.136634 
L 262.465135 39.136634 
L 262.540699 31.836832 
L 263.25364 31.836832 
L 263.316086 24.53703 
L 263.596559 24.53703 
L 263.596559 20.887129 
L 264.401262 20.887129 
L 264.401262 17.237228 
L 264.964444 17.237228 
L 264.964444 13.587327 
L 265.88198 13.587327 
L 265.88198 9.937426 
L 364.32 9.937426 
L 364.32 9.937426 
" style="fill:none;stroke:#bf00bf;stroke-linecap:square;"/>
   </g>
   <g id="line2d_4">
    <path clip-path="url(#pb24770ac17)" d="M 173.815035 283.68 
L 173.815035 280.030099 
L 174.725457 280.030099 
L 174.725457 276.380198 
L 176.070182 276.380198 
L 176.070182 272.730297 
L 179.150924 272.730297 
L 179.150924 269.080396 
L 179.771645 269.080396 
L 179.771645 265.430495 
L 180.371342 265.430495 
L 180.371342 261.780594 
L 180.789269 261.780594 
L 180.890853 254.480792 
L 181.501132 254.480792 
L 181.557386 247.18099 
L 182.112138 247.18099 
L 182.112138 243.531089 
L 182.592406 243.531089 
L 182.592406 239.881188 
L 183.366185 239.881188 
L 183.470016 228.931485 
L 201.212441 228.931485 
L 201.212441 225.281584 
L 202.52295 225.281584 
L 202.52295 221.631683 
L 202.916618 221.631683 
L 202.989962 210.68198 
L 203.116065 210.68198 
L 203.215401 199.732277 
L 203.360348 199.732277 
L 203.374473 192.432475 
L 203.514422 192.432475 
L 203.587899 177.832871 
L 203.628875 177.832871 
L 203.719619 155.933465 
L 203.791543 155.933465 
L 203.892998 123.084356 
L 203.996379 123.084356 
L 203.996379 119.434455 
L 218.530855 119.434455 
L 218.530855 115.784554 
L 219.152255 115.784554 
L 219.211845 108.484752 
L 219.40973 108.484752 
L 219.488145 101.18495 
L 219.693957 101.18495 
L 219.762659 93.885149 
L 219.83061 93.885149 
L 219.925113 86.585347 
L 220.071676 86.585347 
L 220.090676 79.285545 
L 220.706473 79.285545 
L 220.739932 71.985743 
L 221.227156 71.985743 
L 221.227156 68.335842 
L 221.629776 68.335842 
L 221.629776 64.685941 
L 248.104063 64.685941 
L 248.104063 61.03604 
L 252.43183 61.03604 
L 252.43183 57.386139 
L 255.255277 57.386139 
L 255.255277 53.736238 
L 256.207541 53.736238 
L 256.207541 50.086337 
L 256.752928 50.086337 
L 256.752928 46.436436 
L 257.146252 46.436436 
L 257.146252 42.786535 
L 258.087318 42.786535 
L 258.087318 39.136634 
L 258.692141 39.136634 
L 258.692141 35.486733 
L 259.34387 35.486733 
L 259.421938 28.186931 
L 259.51542 28.186931 
L 259.51542 24.53703 
L 259.653434 24.53703 
L 259.653434 20.887129 
L 260.358804 20.887129 
L 260.358804 17.237228 
L 262.713945 17.237228 
L 262.713945 13.587327 
L 262.941199 13.587327 
L 262.941199 9.937426 
L 364.32 9.937426 
L 364.32 9.937426 
" style="fill:none;stroke:#000000;stroke-linecap:square;"/>
   </g>
   <g id="line2d_5">
    <path clip-path="url(#pb24770ac17)" d="M 173.815035 283.68 
L 173.815035 280.030099 
L 174.725457 280.030099 
L 174.725457 276.380198 
L 176.070182 276.380198 
L 176.070182 272.730297 
L 176.603155 272.730297 
L 176.603155 269.080396 
L 177.589917 269.080396 
L 177.589917 265.430495 
L 178.204114 265.430495 
L 178.236477 258.130693 
L 178.439353 258.130693 
L 178.439353 254.480792 
L 178.590419 254.480792 
L 178.590419 250.830891 
L 179.150924 250.830891 
L 179.150924 247.18099 
L 179.613494 247.18099 
L 179.688989 239.881188 
L 179.771645 239.881188 
L 179.771645 236.231287 
L 179.998245 236.231287 
L 179.998245 232.581386 
L 181.662649 232.581386 
L 181.662649 228.931485 
L 201.212441 228.931485 
L 201.212441 225.281584 
L 202.360715 225.281584 
L 202.464603 214.331881 
L 202.52295 214.331881 
L 202.580274 207.032079 
L 202.838929 207.032079 
L 202.900512 196.082376 
L 202.985138 196.082376 
L 203.065766 188.782574 
L 203.116065 188.782574 
L 203.215401 181.482772 
L 203.27965 181.482772 
L 203.362171 163.233267 
L 203.42842 163.233267 
L 203.514422 148.633663 
L 203.549271 148.633663 
L 203.589537 134.034059 
L 203.675063 134.034059 
L 203.725125 126.734257 
L 203.815299 126.734257 
L 203.840065 119.434455 
L 217.571953 119.434455 
L 217.571953 115.784554 
L 217.694268 115.784554 
L 217.694268 112.134653 
L 218.083142 112.134653 
L 218.083142 108.484752 
L 218.212972 108.484752 
L 218.212972 104.834851 
L 218.530855 104.834851 
L 218.530855 101.18495 
L 218.684347 101.18495 
L 218.684347 97.53505 
L 218.990517 97.53505 
L 218.990517 93.885149 
L 219.20046 93.885149 
L 219.262228 82.935446 
L 219.40973 82.935446 
L 219.424308 75.635644 
L 219.762659 75.635644 
L 219.762659 71.985743 
L 220.071676 71.985743 
L 220.138069 64.685941 
L 248.104063 64.685941 
L 248.104063 61.03604 
L 252.43183 61.03604 
L 252.505516 53.736238 
L 253.43265 53.736238 
L 253.43265 50.086337 
L 255.255277 50.086337 
L 255.255277 46.436436 
L 255.768076 46.436436 
L 255.768076 42.786535 
L 256.207541 42.786535 
L 256.207541 39.136634 
L 256.419777 39.136634 
L 256.419777 35.486733 
L 256.824599 35.486733 
L 256.824599 31.836832 
L 257.146252 31.836832 
L 257.146252 28.186931 
L 257.576729 28.186931 
L 257.576729 24.53703 
L 257.951804 24.53703 
L 257.951804 20.887129 
L 258.241623 20.887129 
L 258.241623 17.237228 
L 258.43382 17.237228 
L 258.43382 13.587327 
L 258.717808 13.587327 
L 258.717808 9.937426 
L 364.32 9.937426 
L 364.32 9.937426 
" style="fill:none;stroke:#00bfbf;stroke-linecap:square;"/>
   </g>
   <g id="patch_3">
    <path d="M 7.2 7.2 
L 364.32 7.2 
" style="fill:none;stroke:#000000;stroke-linecap:square;stroke-linejoin:miter;"/>
   </g>
   <g id="patch_4">
    <path d="M 364.32 283.68 
L 364.32 7.2 
" style="fill:none;stroke:#000000;stroke-linecap:square;stroke-linejoin:miter;"/>
   </g>
   <g id="patch_5">
    <path d="M 7.2 283.68 
L 364.32 283.68 
" style="fill:none;stroke:#000000;stroke-linecap:square;stroke-linejoin:miter;"/>
   </g>
   <g id="patch_6">
    <path d="M 7.2 283.68 
L 7.2 7.2 
" style="fill:none;stroke:#000000;stroke-linecap:square;stroke-linejoin:miter;"/>
   </g>
   <g id="matplotlib.axis_1">
    <g id="xtick_1">
     <g id="line2d_6">
      <path clip-path="url(#pb24770ac17)" d="M 46.803772 283.68 
L 46.803772 7.2 
" style="fill:none;stroke:#000000;stroke-dasharray:1.000000,3.000000;stroke-dashoffset:0.0;stroke-width:0.5;"/>
     </g>
     <g id="line2d_7">
      <defs>
       <path d="M 0 0 
L 0 -4 
" id="m52066f456d" style="stroke:#000000;stroke-width:0.5;"/>
      </defs>
      <g>
       <use style="stroke:#000000;stroke-width:0.5;" x="46.803771872" xlink:href="#m52066f456d" y="283.68"/>
      </g>
     </g>
     <g id="line2d_8">
      <defs>
       <path d="M 0 0 
L 0 4 
" id="m3de9fcae3a" style="stroke:#000000;stroke-width:0.5;"/>
      </defs>
      <g>
       <use style="stroke:#000000;stroke-width:0.5;" x="46.803771872" xlink:href="#m3de9fcae3a" y="7.2"/>
      </g>
     </g>
     <g id="text_1">
      <!-- -6 -->
      <defs>
       <path d="M 33.015625 40.375 
Q 26.375 40.375 22.484375 35.828125 
Q 18.609375 31.296875 18.609375 23.390625 
Q 18.609375 15.53125 22.484375 10.953125 
Q 26.375 6.390625 33.015625 6.390625 
Q 39.65625 6.390625 43.53125 10.953125 
Q 47.40625 15.53125 47.40625 23.390625 
Q 47.40625 31.296875 43.53125 35.828125 
Q 39.65625 40.375 33.015625 40.375 
M 52.59375 71.296875 
L 52.59375 62.3125 
Q 48.875 64.0625 45.09375 64.984375 
Q 41.3125 65.921875 37.59375 65.921875 
Q 27.828125 65.921875 22.671875 59.328125 
Q 17.53125 52.734375 16.796875 39.40625 
Q 19.671875 43.65625 24.015625 45.921875 
Q 28.375 48.1875 33.59375 48.1875 
Q 44.578125 48.1875 50.953125 41.515625 
Q 57.328125 34.859375 57.328125 23.390625 
Q 57.328125 12.15625 50.6875 5.359375 
Q 44.046875 -1.421875 33.015625 -1.421875 
Q 20.359375 -1.421875 13.671875 8.265625 
Q 6.984375 17.96875 6.984375 36.375 
Q 6.984375 53.65625 15.1875 63.9375 
Q 23.390625 74.21875 37.203125 74.21875 
Q 40.921875 74.21875 44.703125 73.484375 
Q 48.484375 72.75 52.59375 71.296875 
" id="BitstreamVeraSans-Roman-36"/>
       <path d="M 4.890625 31.390625 
L 31.203125 31.390625 
L 31.203125 23.390625 
L 4.890625 23.390625 
z
" id="BitstreamVeraSans-Roman-2d"/>
      </defs>
      <g transform="translate(36.833459372 302.876875)scale(0.2 -0.2)">
       <use xlink:href="#BitstreamVeraSans-Roman-2d"/>
       <use x="36.083984375" xlink:href="#BitstreamVeraSans-Roman-36"/>
      </g>
     </g>
    </g>
    <g id="xtick_2">
     <g id="line2d_9">
      <path clip-path="url(#pb24770ac17)" d="M 86.4933 283.68 
L 86.4933 7.2 
" style="fill:none;stroke:#000000;stroke-dasharray:1.000000,3.000000;stroke-dashoffset:0.0;stroke-width:0.5;"/>
     </g>
     <g id="line2d_10">
      <g>
       <use style="stroke:#000000;stroke-width:0.5;" x="86.493300388" xlink:href="#m52066f456d" y="283.68"/>
      </g>
     </g>
     <g id="line2d_11">
      <g>
       <use style="stroke:#000000;stroke-width:0.5;" x="86.493300388" xlink:href="#m3de9fcae3a" y="7.2"/>
      </g>
     </g>
     <g id="text_2">
      <!-- -4 -->
      <defs>
       <path d="M 37.796875 64.3125 
L 12.890625 25.390625 
L 37.796875 25.390625 
z
M 35.203125 72.90625 
L 47.609375 72.90625 
L 47.609375 25.390625 
L 58.015625 25.390625 
L 58.015625 17.1875 
L 47.609375 17.1875 
L 47.609375 0 
L 37.796875 0 
L 37.796875 17.1875 
L 4.890625 17.1875 
L 4.890625 26.703125 
z
" id="BitstreamVeraSans-Roman-34"/>
      </defs>
      <g transform="translate(76.522987888 302.876875)scale(0.2 -0.2)">
       <use xlink:href="#BitstreamVeraSans-Roman-2d"/>
       <use x="36.083984375" xlink:href="#BitstreamVeraSans-Roman-34"/>
      </g>
     </g>
    </g>
    <g id="xtick_3">
     <g id="line2d_12">
      <path clip-path="url(#pb24770ac17)" d="M 126.182829 283.68 
L 126.182829 7.2 
" style="fill:none;stroke:#000000;stroke-dasharray:1.000000,3.000000;stroke-dashoffset:0.0;stroke-width:0.5;"/>
     </g>
     <g id="line2d_13">
      <g>
       <use style="stroke:#000000;stroke-width:0.5;" x="126.182828904" xlink:href="#m52066f456d" y="283.68"/>
      </g>
     </g>
     <g id="line2d_14">
      <g>
       <use style="stroke:#000000;stroke-width:0.5;" x="126.182828904" xlink:href="#m3de9fcae3a" y="7.2"/>
      </g>
     </g>
     <g id="text_3">
      <!-- -2 -->
      <defs>
       <path d="M 19.1875 8.296875 
L 53.609375 8.296875 
L 53.609375 0 
L 7.328125 0 
L 7.328125 8.296875 
Q 12.9375 14.109375 22.625 23.890625 
Q 32.328125 33.6875 34.8125 36.53125 
Q 39.546875 41.84375 41.421875 45.53125 
Q 43.3125 49.21875 43.3125 52.78125 
Q 43.3125 58.59375 39.234375 62.25 
Q 35.15625 65.921875 28.609375 65.921875 
Q 23.96875 65.921875 18.8125 64.3125 
Q 13.671875 62.703125 7.8125 59.421875 
L 7.8125 69.390625 
Q 13.765625 71.78125 18.9375 73 
Q 24.125 74.21875 28.421875 74.21875 
Q 39.75 74.21875 46.484375 68.546875 
Q 53.21875 62.890625 53.21875 53.421875 
Q 53.21875 48.921875 51.53125 44.890625 
Q 49.859375 40.875 45.40625 35.40625 
Q 44.1875 33.984375 37.640625 27.21875 
Q 31.109375 20.453125 19.1875 8.296875 
" id="BitstreamVeraSans-Roman-32"/>
      </defs>
      <g transform="translate(116.212516404 302.876875)scale(0.2 -0.2)">
       <use xlink:href="#BitstreamVeraSans-Roman-2d"/>
       <use x="36.083984375" xlink:href="#BitstreamVeraSans-Roman-32"/>
      </g>
     </g>
    </g>
    <g id="xtick_4">
     <g id="line2d_15">
      <path clip-path="url(#pb24770ac17)" d="M 165.872357 283.68 
L 165.872357 7.2 
" style="fill:none;stroke:#000000;stroke-dasharray:1.000000,3.000000;stroke-dashoffset:0.0;stroke-width:0.5;"/>
     </g>
     <g id="line2d_16">
      <g>
       <use style="stroke:#000000;stroke-width:0.5;" x="165.87235742" xlink:href="#m52066f456d" y="283.68"/>
      </g>
     </g>
     <g id="line2d_17">
      <g>
       <use style="stroke:#000000;stroke-width:0.5;" x="165.87235742" xlink:href="#m3de9fcae3a" y="7.2"/>
      </g>
     </g>
     <g id="text_4">
      <!-- 0 -->
      <defs>
       <path d="M 31.78125 66.40625 
Q 24.171875 66.40625 20.328125 58.90625 
Q 16.5 51.421875 16.5 36.375 
Q 16.5 21.390625 20.328125 13.890625 
Q 24.171875 6.390625 31.78125 6.390625 
Q 39.453125 6.390625 43.28125 13.890625 
Q 47.125 21.390625 47.125 36.375 
Q 47.125 51.421875 43.28125 58.90625 
Q 39.453125 66.40625 31.78125 66.40625 
M 31.78125 74.21875 
Q 44.046875 74.21875 50.515625 64.515625 
Q 56.984375 54.828125 56.984375 36.375 
Q 56.984375 17.96875 50.515625 8.265625 
Q 44.046875 -1.421875 31.78125 -1.421875 
Q 19.53125 -1.421875 13.0625 8.265625 
Q 6.59375 17.96875 6.59375 36.375 
Q 6.59375 54.828125 13.0625 64.515625 
Q 19.53125 74.21875 31.78125 74.21875 
" id="BitstreamVeraSans-Roman-30"/>
      </defs>
      <g transform="translate(159.50985742 302.876875)scale(0.2 -0.2)">
       <use xlink:href="#BitstreamVeraSans-Roman-30"/>
      </g>
     </g>
    </g>
    <g id="xtick_5">
     <g id="line2d_18">
      <path clip-path="url(#pb24770ac17)" d="M 205.561886 283.68 
L 205.561886 7.2 
" style="fill:none;stroke:#000000;stroke-dasharray:1.000000,3.000000;stroke-dashoffset:0.0;stroke-width:0.5;"/>
     </g>
     <g id="line2d_19">
      <g>
       <use style="stroke:#000000;stroke-width:0.5;" x="205.561885936" xlink:href="#m52066f456d" y="283.68"/>
      </g>
     </g>
     <g id="line2d_20">
      <g>
       <use style="stroke:#000000;stroke-width:0.5;" x="205.561885936" xlink:href="#m3de9fcae3a" y="7.2"/>
      </g>
     </g>
     <g id="text_5">
      <!-- 2 -->
      <g transform="translate(199.199385936 302.876875)scale(0.2 -0.2)">
       <use xlink:href="#BitstreamVeraSans-Roman-32"/>
      </g>
     </g>
    </g>
    <g id="xtick_6">
     <g id="line2d_21">
      <path clip-path="url(#pb24770ac17)" d="M 245.251414 283.68 
L 245.251414 7.2 
" style="fill:none;stroke:#000000;stroke-dasharray:1.000000,3.000000;stroke-dashoffset:0.0;stroke-width:0.5;"/>
     </g>
     <g id="line2d_22">
      <g>
       <use style="stroke:#000000;stroke-width:0.5;" x="245.251414452" xlink:href="#m52066f456d" y="283.68"/>
      </g>
     </g>
     <g id="line2d_23">
      <g>
       <use style="stroke:#000000;stroke-width:0.5;" x="245.251414452" xlink:href="#m3de9fcae3a" y="7.2"/>
      </g>
     </g>
     <g id="text_6">
      <!-- 4 -->
      <g transform="translate(238.888914452 302.876875)scale(0.2 -0.2)">
       <use xlink:href="#BitstreamVeraSans-Roman-34"/>
      </g>
     </g>
    </g>
    <g id="xtick_7">
     <g id="line2d_24">
      <path clip-path="url(#pb24770ac17)" d="M 284.940943 283.68 
L 284.940943 7.2 
" style="fill:none;stroke:#000000;stroke-dasharray:1.000000,3.000000;stroke-dashoffset:0.0;stroke-width:0.5;"/>
     </g>
     <g id="line2d_25">
      <g>
       <use style="stroke:#000000;stroke-width:0.5;" x="284.940942968" xlink:href="#m52066f456d" y="283.68"/>
      </g>
     </g>
     <g id="line2d_26">
      <g>
       <use style="stroke:#000000;stroke-width:0.5;" x="284.940942968" xlink:href="#m3de9fcae3a" y="7.2"/>
      </g>
     </g>
     <g id="text_7">
      <!-- 6 -->
      <g transform="translate(278.578442968 302.876875)scale(0.2 -0.2)">
       <use xlink:href="#BitstreamVeraSans-Roman-36"/>
      </g>
     </g>
    </g>
    <g id="xtick_8">
     <g id="line2d_27">
      <path clip-path="url(#pb24770ac17)" d="M 324.630471 283.68 
L 324.630471 7.2 
" style="fill:none;stroke:#000000;stroke-dasharray:1.000000,3.000000;stroke-dashoffset:0.0;stroke-width:0.5;"/>
     </g>
     <g id="line2d_28">
      <g>
       <use style="stroke:#000000;stroke-width:0.5;" x="324.630471484" xlink:href="#m52066f456d" y="283.68"/>
      </g>
     </g>
     <g id="line2d_29">
      <g>
       <use style="stroke:#000000;stroke-width:0.5;" x="324.630471484" xlink:href="#m3de9fcae3a" y="7.2"/>
      </g>
     </g>
     <g id="text_8">
      <!-- 8 -->
      <defs>
       <path d="M 31.78125 34.625 
Q 24.75 34.625 20.71875 30.859375 
Q 16.703125 27.09375 16.703125 20.515625 
Q 16.703125 13.921875 20.71875 10.15625 
Q 24.75 6.390625 31.78125 6.390625 
Q 38.8125 6.390625 42.859375 10.171875 
Q 46.921875 13.96875 46.921875 20.515625 
Q 46.921875 27.09375 42.890625 30.859375 
Q 38.875 34.625 31.78125 34.625 
M 21.921875 38.8125 
Q 15.578125 40.375 12.03125 44.71875 
Q 8.5 49.078125 8.5 55.328125 
Q 8.5 64.0625 14.71875 69.140625 
Q 20.953125 74.21875 31.78125 74.21875 
Q 42.671875 74.21875 48.875 69.140625 
Q 55.078125 64.0625 55.078125 55.328125 
Q 55.078125 49.078125 51.53125 44.71875 
Q 48 40.375 41.703125 38.8125 
Q 48.828125 37.15625 52.796875 32.3125 
Q 56.78125 27.484375 56.78125 20.515625 
Q 56.78125 9.90625 50.3125 4.234375 
Q 43.84375 -1.421875 31.78125 -1.421875 
Q 19.734375 -1.421875 13.25 4.234375 
Q 6.78125 9.90625 6.78125 20.515625 
Q 6.78125 27.484375 10.78125 32.3125 
Q 14.796875 37.15625 21.921875 38.8125 
M 18.3125 54.390625 
Q 18.3125 48.734375 21.84375 45.5625 
Q 25.390625 42.390625 31.78125 42.390625 
Q 38.140625 42.390625 41.71875 45.5625 
Q 45.3125 48.734375 45.3125 54.390625 
Q 45.3125 60.0625 41.71875 63.234375 
Q 38.140625 66.40625 31.78125 66.40625 
Q 25.390625 66.40625 21.84375 63.234375 
Q 18.3125 60.0625 18.3125 54.390625 
" id="BitstreamVeraSans-Roman-38"/>
      </defs>
      <g transform="translate(318.267971484 302.876875)scale(0.2 -0.2)">
       <use xlink:href="#BitstreamVeraSans-Roman-38"/>
      </g>
     </g>
    </g>
    <g id="xtick_9">
     <g id="line2d_30">
      <path clip-path="url(#pb24770ac17)" d="M 364.32 283.68 
L 364.32 7.2 
" style="fill:none;stroke:#000000;stroke-dasharray:1.000000,3.000000;stroke-dashoffset:0.0;stroke-width:0.5;"/>
     </g>
     <g id="line2d_31">
      <g>
       <use style="stroke:#000000;stroke-width:0.5;" x="364.32" xlink:href="#m52066f456d" y="283.68"/>
      </g>
     </g>
     <g id="line2d_32">
      <g>
       <use style="stroke:#000000;stroke-width:0.5;" x="364.32" xlink:href="#m3de9fcae3a" y="7.2"/>
      </g>
     </g>
    </g>
    <g id="xtick_10">
     <g id="line2d_33">
      <defs>
       <path d="M 0 0 
L 0 -2 
" id="mc5ed338a54" style="stroke:#000000;stroke-width:0.5;"/>
      </defs>
      <g>
       <use style="stroke:#000000;stroke-width:0.5;" x="46.803771872" xlink:href="#mc5ed338a54" y="283.68"/>
      </g>
     </g>
     <g id="line2d_34">
      <defs>
       <path d="M 0 0 
L 0 2 
" id="m9a2a3926b3" style="stroke:#000000;stroke-width:0.5;"/>
      </defs>
      <g>
       <use style="stroke:#000000;stroke-width:0.5;" x="46.803771872" xlink:href="#m9a2a3926b3" y="7.2"/>
      </g>
     </g>
    </g>
    <g id="xtick_11">
     <g id="line2d_35">
      <g>
       <use style="stroke:#000000;stroke-width:0.5;" x="86.493300388" xlink:href="#mc5ed338a54" y="283.68"/>
      </g>
     </g>
     <g id="line2d_36">
      <g>
       <use style="stroke:#000000;stroke-width:0.5;" x="86.493300388" xlink:href="#m9a2a3926b3" y="7.2"/>
      </g>
     </g>
    </g>
    <g id="xtick_12">
     <g id="line2d_37">
      <g>
       <use style="stroke:#000000;stroke-width:0.5;" x="126.182828904" xlink:href="#mc5ed338a54" y="283.68"/>
      </g>
     </g>
     <g id="line2d_38">
      <g>
       <use style="stroke:#000000;stroke-width:0.5;" x="126.182828904" xlink:href="#m9a2a3926b3" y="7.2"/>
      </g>
     </g>
    </g>
    <g id="xtick_13">
     <g id="line2d_39">
      <g>
       <use style="stroke:#000000;stroke-width:0.5;" x="165.87235742" xlink:href="#mc5ed338a54" y="283.68"/>
      </g>
     </g>
     <g id="line2d_40">
      <g>
       <use style="stroke:#000000;stroke-width:0.5;" x="165.87235742" xlink:href="#m9a2a3926b3" y="7.2"/>
      </g>
     </g>
    </g>
    <g id="xtick_14">
     <g id="line2d_41">
      <g>
       <use style="stroke:#000000;stroke-width:0.5;" x="205.561885936" xlink:href="#mc5ed338a54" y="283.68"/>
      </g>
     </g>
     <g id="line2d_42">
      <g>
       <use style="stroke:#000000;stroke-width:0.5;" x="205.561885936" xlink:href="#m9a2a3926b3" y="7.2"/>
      </g>
     </g>
    </g>
    <g id="xtick_15">
     <g id="line2d_43">
      <g>
       <use style="stroke:#000000;stroke-width:0.5;" x="245.251414452" xlink:href="#mc5ed338a54" y="283.68"/>
      </g>
     </g>
     <g id="line2d_44">
      <g>
       <use style="stroke:#000000;stroke-width:0.5;" x="245.251414452" xlink:href="#m9a2a3926b3" y="7.2"/>
      </g>
     </g>
    </g>
    <g id="xtick_16">
     <g id="line2d_45">
      <g>
       <use style="stroke:#000000;stroke-width:0.5;" x="284.940942968" xlink:href="#mc5ed338a54" y="283.68"/>
      </g>
     </g>
     <g id="line2d_46">
      <g>
       <use style="stroke:#000000;stroke-width:0.5;" x="284.940942968" xlink:href="#m9a2a3926b3" y="7.2"/>
      </g>
     </g>
    </g>
    <g id="xtick_17">
     <g id="line2d_47">
      <g>
       <use style="stroke:#000000;stroke-width:0.5;" x="324.630471484" xlink:href="#mc5ed338a54" y="283.68"/>
      </g>
     </g>
     <g id="line2d_48">
      <g>
       <use style="stroke:#000000;stroke-width:0.5;" x="324.630471484" xlink:href="#m9a2a3926b3" y="7.2"/>
      </g>
     </g>
    </g>
    <g id="xtick_18">
     <g id="line2d_49">
      <g>
       <use style="stroke:#000000;stroke-width:0.5;" x="364.32" xlink:href="#mc5ed338a54" y="283.68"/>
      </g>
     </g>
     <g id="line2d_50">
      <g>
       <use style="stroke:#000000;stroke-width:0.5;" x="364.32" xlink:href="#m9a2a3926b3" y="7.2"/>
      </g>
     </g>
    </g>
    <g id="text_9">
     <!-- log10 of Df -->
     <defs>
      <path id="BitstreamVeraSans-Roman-20"/>
      <path d="M 12.40625 8.296875 
L 28.515625 8.296875 
L 28.515625 63.921875 
L 10.984375 60.40625 
L 10.984375 69.390625 
L 28.421875 72.90625 
L 38.28125 72.90625 
L 38.28125 8.296875 
L 54.390625 8.296875 
L 54.390625 0 
L 12.40625 0 
z
" id="BitstreamVeraSans-Roman-31"/>
      <path d="M 30.609375 48.390625 
Q 23.390625 48.390625 19.1875 42.75 
Q 14.984375 37.109375 14.984375 27.296875 
Q 14.984375 17.484375 19.15625 11.84375 
Q 23.34375 6.203125 30.609375 6.203125 
Q 37.796875 6.203125 41.984375 11.859375 
Q 46.1875 17.53125 46.1875 27.296875 
Q 46.1875 37.015625 41.984375 42.703125 
Q 37.796875 48.390625 30.609375 48.390625 
M 30.609375 56 
Q 42.328125 56 49.015625 48.375 
Q 55.71875 40.765625 55.71875 27.296875 
Q 55.71875 13.875 49.015625 6.21875 
Q 42.328125 -1.421875 30.609375 -1.421875 
Q 18.84375 -1.421875 12.171875 6.21875 
Q 5.515625 13.875 5.515625 27.296875 
Q 5.515625 40.765625 12.171875 48.375 
Q 18.84375 56 30.609375 56 
" id="BitstreamVeraSans-Roman-6f"/>
      <path d="M 9.421875 75.984375 
L 18.40625 75.984375 
L 18.40625 0 
L 9.421875 0 
z
" id="BitstreamVeraSans-Roman-6c"/>
      <path d="M 19.671875 64.796875 
L 19.671875 8.109375 
L 31.59375 8.109375 
Q 46.6875 8.109375 53.6875 14.9375 
Q 60.6875 21.78125 60.6875 36.53125 
Q 60.6875 51.171875 53.6875 57.984375 
Q 46.6875 64.796875 31.59375 64.796875 
z
M 9.8125 72.90625 
L 30.078125 72.90625 
Q 51.265625 72.90625 61.171875 64.09375 
Q 71.09375 55.28125 71.09375 36.53125 
Q 71.09375 17.671875 61.125 8.828125 
Q 51.171875 0 30.078125 0 
L 9.8125 0 
z
" id="BitstreamVeraSans-Roman-44"/>
      <path d="M 45.40625 27.984375 
Q 45.40625 37.75 41.375 43.109375 
Q 37.359375 48.484375 30.078125 48.484375 
Q 22.859375 48.484375 18.828125 43.109375 
Q 14.796875 37.75 14.796875 27.984375 
Q 14.796875 18.265625 18.828125 12.890625 
Q 22.859375 7.515625 30.078125 7.515625 
Q 37.359375 7.515625 41.375 12.890625 
Q 45.40625 18.265625 45.40625 27.984375 
M 54.390625 6.78125 
Q 54.390625 -7.171875 48.1875 -13.984375 
Q 42 -20.796875 29.203125 -20.796875 
Q 24.46875 -20.796875 20.265625 -20.09375 
Q 16.0625 -19.390625 12.109375 -17.921875 
L 12.109375 -9.1875 
Q 16.0625 -11.328125 19.921875 -12.34375 
Q 23.78125 -13.375 27.78125 -13.375 
Q 36.625 -13.375 41.015625 -8.765625 
Q 45.40625 -4.15625 45.40625 5.171875 
L 45.40625 9.625 
Q 42.625 4.78125 38.28125 2.390625 
Q 33.9375 0 27.875 0 
Q 17.828125 0 11.671875 7.65625 
Q 5.515625 15.328125 5.515625 27.984375 
Q 5.515625 40.671875 11.671875 48.328125 
Q 17.828125 56 27.875 56 
Q 33.9375 56 38.28125 53.609375 
Q 42.625 51.21875 45.40625 46.390625 
L 45.40625 54.6875 
L 54.390625 54.6875 
z
" id="BitstreamVeraSans-Roman-67"/>
      <path d="M 37.109375 75.984375 
L 37.109375 68.5 
L 28.515625 68.5 
Q 23.6875 68.5 21.796875 66.546875 
Q 19.921875 64.59375 19.921875 59.515625 
L 19.921875 54.6875 
L 34.71875 54.6875 
L 34.71875 47.703125 
L 19.921875 47.703125 
L 19.921875 0 
L 10.890625 0 
L 10.890625 47.703125 
L 2.296875 47.703125 
L 2.296875 54.6875 
L 10.890625 54.6875 
L 10.890625 58.5 
Q 10.890625 67.625 15.140625 71.796875 
Q 19.390625 75.984375 28.609375 75.984375 
z
" id="BitstreamVeraSans-Roman-66"/>
     </defs>
     <g transform="translate(130.5740625 327.233125)scale(0.2 -0.2)">
      <use xlink:href="#BitstreamVeraSans-Roman-6c"/>
      <use x="27.783203125" xlink:href="#BitstreamVeraSans-Roman-6f"/>
      <use x="88.96484375" xlink:href="#BitstreamVeraSans-Roman-67"/>
      <use x="152.44140625" xlink:href="#BitstreamVeraSans-Roman-31"/>
      <use x="216.064453125" xlink:href="#BitstreamVeraSans-Roman-30"/>
      <use x="279.6875" xlink:href="#BitstreamVeraSans-Roman-20"/>
      <use x="311.474609375" xlink:href="#BitstreamVeraSans-Roman-6f"/>
      <use x="372.65625" xlink:href="#BitstreamVeraSans-Roman-66"/>
      <use x="407.861328125" xlink:href="#BitstreamVeraSans-Roman-20"/>
      <use x="439.6484375" xlink:href="#BitstreamVeraSans-Roman-44"/>
      <use x="516.650390625" xlink:href="#BitstreamVeraSans-Roman-66"/>
     </g>
    </g>
   </g>
   <g id="matplotlib.axis_2">
    <g id="ytick_1">
     <g id="line2d_51">
      <path clip-path="url(#pb24770ac17)" d="M 7.2 283.68 
L 364.32 283.68 
" style="fill:none;stroke:#000000;stroke-dasharray:1.000000,3.000000;stroke-dashoffset:0.0;stroke-width:0.5;"/>
     </g>
     <g id="line2d_52">
      <defs>
       <path d="M 0 0 
L 4 0 
" id="m1f19640aaf" style="stroke:#000000;stroke-width:0.5;"/>
      </defs>
      <g>
       <use style="stroke:#000000;stroke-width:0.5;" x="7.2" xlink:href="#m1f19640aaf" y="283.68"/>
      </g>
     </g>
     <g id="line2d_53">
      <defs>
       <path d="M 0 0 
L -4 0 
" id="m29ae314e7a" style="stroke:#000000;stroke-width:0.5;"/>
      </defs>
      <g>
       <use style="stroke:#000000;stroke-width:0.5;" x="364.32" xlink:href="#m29ae314e7a" y="283.68"/>
      </g>
     </g>
    </g>
    <g id="ytick_2">
     <g id="line2d_54">
      <path clip-path="url(#pb24770ac17)" d="M 7.2 228.931485 
L 364.32 228.931485 
" style="fill:none;stroke:#000000;stroke-dasharray:1.000000,3.000000;stroke-dashoffset:0.0;stroke-width:0.5;"/>
     </g>
     <g id="line2d_55">
      <g>
       <use style="stroke:#000000;stroke-width:0.5;" x="7.2" xlink:href="#m1f19640aaf" y="228.931485149"/>
      </g>
     </g>
     <g id="line2d_56">
      <g>
       <use style="stroke:#000000;stroke-width:0.5;" x="364.32" xlink:href="#m29ae314e7a" y="228.931485149"/>
      </g>
     </g>
    </g>
    <g id="ytick_3">
     <g id="line2d_57">
      <path clip-path="url(#pb24770ac17)" d="M 7.2 174.18297 
L 364.32 174.18297 
" style="fill:none;stroke:#000000;stroke-dasharray:1.000000,3.000000;stroke-dashoffset:0.0;stroke-width:0.5;"/>
     </g>
     <g id="line2d_58">
      <g>
       <use style="stroke:#000000;stroke-width:0.5;" x="7.2" xlink:href="#m1f19640aaf" y="174.182970297"/>
      </g>
     </g>
     <g id="line2d_59">
      <g>
       <use style="stroke:#000000;stroke-width:0.5;" x="364.32" xlink:href="#m29ae314e7a" y="174.182970297"/>
      </g>
     </g>
    </g>
    <g id="ytick_4">
     <g id="line2d_60">
      <path clip-path="url(#pb24770ac17)" d="M 7.2 119.434455 
L 364.32 119.434455 
" style="fill:none;stroke:#000000;stroke-dasharray:1.000000,3.000000;stroke-dashoffset:0.0;stroke-width:0.5;"/>
     </g>
     <g id="line2d_61">
      <g>
       <use style="stroke:#000000;stroke-width:0.5;" x="7.2" xlink:href="#m1f19640aaf" y="119.434455446"/>
      </g>
     </g>
     <g id="line2d_62">
      <g>
       <use style="stroke:#000000;stroke-width:0.5;" x="364.32" xlink:href="#m29ae314e7a" y="119.434455446"/>
      </g>
     </g>
    </g>
    <g id="ytick_5">
     <g id="line2d_63">
      <path clip-path="url(#pb24770ac17)" d="M 7.2 64.685941 
L 364.32 64.685941 
" style="fill:none;stroke:#000000;stroke-dasharray:1.000000,3.000000;stroke-dashoffset:0.0;stroke-width:0.5;"/>
     </g>
     <g id="line2d_64">
      <g>
       <use style="stroke:#000000;stroke-width:0.5;" x="7.2" xlink:href="#m1f19640aaf" y="64.6859405941"/>
      </g>
     </g>
     <g id="line2d_65">
      <g>
       <use style="stroke:#000000;stroke-width:0.5;" x="364.32" xlink:href="#m29ae314e7a" y="64.6859405941"/>
      </g>
     </g>
    </g>
    <g id="ytick_6">
     <g id="line2d_66">
      <path clip-path="url(#pb24770ac17)" d="M 7.2 9.937426 
L 364.32 9.937426 
" style="fill:none;stroke:#000000;stroke-dasharray:1.000000,3.000000;stroke-dashoffset:0.0;stroke-width:0.5;"/>
     </g>
     <g id="line2d_67">
      <g>
       <use style="stroke:#000000;stroke-width:0.5;" x="7.2" xlink:href="#m1f19640aaf" y="9.93742574257"/>
      </g>
     </g>
     <g id="line2d_68">
      <g>
       <use style="stroke:#000000;stroke-width:0.5;" x="364.32" xlink:href="#m29ae314e7a" y="9.93742574257"/>
      </g>
     </g>
    </g>
   </g>
   <g id="text_10">
    <!-- f20-24,20-D -->
    <defs>
     <path d="M 11.71875 12.40625 
L 22.015625 12.40625 
L 22.015625 4 
L 14.015625 -11.625 
L 7.71875 -11.625 
L 11.71875 4 
z
" id="BitstreamVeraSans-Roman-2c"/>
    </defs>
    <g transform="translate(237.599475 278.1504)scale(0.2 -0.2)">
     <use xlink:href="#BitstreamVeraSans-Roman-66"/>
     <use x="35.205078125" xlink:href="#BitstreamVeraSans-Roman-32"/>
     <use x="98.828125" xlink:href="#BitstreamVeraSans-Roman-30"/>
     <use x="162.451171875" xlink:href="#BitstreamVeraSans-Roman-2d"/>
     <use x="198.53515625" xlink:href="#BitstreamVeraSans-Roman-32"/>
     <use x="262.158203125" xlink:href="#BitstreamVeraSans-Roman-34"/>
     <use x="325.78125" xlink:href="#BitstreamVeraSans-Roman-2c"/>
     <use x="357.568359375" xlink:href="#BitstreamVeraSans-Roman-32"/>
     <use x="421.19140625" xlink:href="#BitstreamVeraSans-Roman-30"/>
     <use x="484.814453125" xlink:href="#BitstreamVeraSans-Roman-2d"/>
     <use x="520.8984375" xlink:href="#BitstreamVeraSans-Roman-44"/>
    </g>
   </g>
  </g>
 </g>
 <defs>
  <clipPath id="pb24770ac17">
   <rect height="276.48" width="357.12" x="7.2" y="7.2"/>
  </clipPath>
 </defs>
</svg>
