<?xml version="1.0" encoding="utf-8" standalone="no"?>
<!DOCTYPE svg PUBLIC "-//W3C//DTD SVG 1.1//EN"
  "http://www.w3.org/Graphics/SVG/1.1/DTD/svg11.dtd">
<!-- Created with matplotlib (http://matplotlib.org/) -->
<svg height="338pt" version="1.1" viewBox="0 0 371 338" width="371pt" xmlns="http://www.w3.org/2000/svg" xmlns:xlink="http://www.w3.org/1999/xlink">
 <defs>
  <style type="text/css">
*{stroke-linecap:butt;stroke-linejoin:round;stroke-miterlimit:100000;}
  </style>
 </defs>
 <g id="figure_1">
  <g id="patch_1">
   <path d="M 0 338.5925 
L 371.52 338.5925 
L 371.52 0 
L 0 0 
z
" style="fill:#ffffff;"/>
  </g>
  <g id="axes_1">
   <g id="patch_2">
    <path d="M 7.2 283.68 
L 364.32 283.68 
L 364.32 7.2 
L 7.2 7.2 
z
" style="fill:#ffffff;"/>
   </g>
   <g id="line2d_1">
    <path clip-path="url(#p00d15076c3)" d="M 194.066234 283.68 
L 194.066234 279.117624 
L 196.084842 279.117624 
L 196.084842 274.555248 
L 196.948957 274.555248 
L 196.948957 269.992871 
L 198.99896 269.992871 
L 198.99896 265.430495 
L 199.847306 265.430495 
L 199.847306 260.868119 
L 199.936277 260.868119 
L 199.936277 256.305743 
L 200.740769 256.305743 
L 200.740769 251.743366 
L 201.480833 251.743366 
L 201.480833 247.18099 
L 202.411688 247.18099 
L 202.411688 242.618614 
L 202.758807 242.618614 
L 202.758807 238.056238 
L 203.36844 238.056238 
L 203.36844 233.493861 
L 203.547761 233.493861 
L 203.547761 228.931485 
L 203.997921 228.931485 
L 203.997921 224.369109 
L 204.071174 224.369109 
L 204.071174 219.806733 
L 204.157034 219.806733 
L 204.157034 215.244356 
L 204.390469 215.244356 
L 204.390469 210.68198 
L 205.543168 210.68198 
L 205.543168 206.119604 
L 205.718103 206.119604 
L 205.718103 201.557228 
L 206.010024 201.557228 
L 206.010024 196.994851 
L 206.417599 196.994851 
L 206.417599 192.432475 
L 206.430382 192.432475 
L 206.430382 187.870099 
L 206.823826 187.870099 
L 206.823826 183.307723 
L 207.958755 183.307723 
L 207.958755 178.745347 
L 208.153785 178.745347 
L 208.153785 174.18297 
L 208.398378 174.18297 
L 208.398378 169.620594 
L 209.522602 169.620594 
L 209.522602 165.058218 
L 209.576298 165.058218 
L 209.576298 160.495842 
L 211.311012 160.495842 
L 211.311012 155.933465 
L 212.214712 155.933465 
L 212.214712 151.371089 
L 212.812017 151.371089 
L 212.812017 146.808713 
L 213.736919 146.808713 
L 213.736919 142.246337 
L 217.980802 142.246337 
L 217.980802 137.68396 
L 221.067211 137.68396 
L 221.067211 133.121584 
L 223.933845 133.121584 
L 223.933845 128.559208 
L 225.389141 128.559208 
L 225.389141 123.996832 
L 225.97602 123.996832 
L 225.97602 119.434455 
L 226.350085 119.434455 
L 226.350085 114.872079 
L 226.675045 114.872079 
L 226.675045 110.309703 
L 226.715478 110.309703 
L 226.715478 105.747327 
L 227.485152 105.747327 
L 227.485152 101.18495 
L 227.865072 101.18495 
L 227.865072 96.622574 
L 227.956607 96.622574 
L 227.956607 92.060198 
L 228.484833 92.060198 
L 228.484833 87.497822 
L 230.963358 87.497822 
L 230.963358 82.935446 
L 231.477638 82.935446 
L 231.477638 78.373069 
L 234.205879 78.373069 
L 234.205879 73.810693 
L 234.73778 73.810693 
L 234.73778 69.248317 
L 235.071243 69.248317 
L 235.071243 64.685941 
L 236.349427 64.685941 
L 236.349427 60.123564 
L 236.472381 60.123564 
L 236.472381 55.561188 
L 236.666278 55.561188 
L 236.666278 50.998812 
L 237.400718 50.998812 
L 237.400718 46.436436 
L 237.966029 46.436436 
L 237.966029 41.874059 
L 238.210788 41.874059 
L 238.210788 37.311683 
L 238.929586 37.311683 
L 238.929586 32.749307 
L 239.619284 32.749307 
L 239.619284 28.186931 
L 240.44454 28.186931 
L 240.44454 23.624554 
L 240.5594 23.624554 
L 240.5594 19.062178 
L 243.62144 19.062178 
L 243.62144 14.499802 
L 267.524059 14.499802 
L 267.524059 9.937426 
L 267.524059 9.937426 
L 267.524059 9.937426 
L 364.32 9.937426 
" style="fill:none;stroke:#ff0000;stroke-linecap:square;stroke-width:3.0;"/>
   </g>
   <g id="line2d_2">
    <path clip-path="url(#p00d15076c3)" d="M 194.066234 283.68 
L 194.066234 279.117624 
L 210.138288 279.117624 
L 210.138288 274.555248 
L 215.952613 274.555248 
L 215.952613 269.992871 
L 217.921118 269.992871 
L 217.921118 265.430495 
L 219.712932 265.430495 
L 219.712932 260.868119 
L 222.947997 260.868119 
L 222.947997 256.305743 
L 223.491234 256.305743 
L 223.491234 251.743366 
L 224.07932 251.743366 
L 224.07932 247.18099 
L 225.822427 247.18099 
L 225.822427 242.618614 
L 226.902193 242.618614 
L 226.902193 238.056238 
L 227.178526 238.056238 
L 227.178526 233.493861 
L 228.365124 233.493861 
L 228.365124 228.931485 
L 229.903346 228.931485 
L 229.903346 224.369109 
L 229.947451 224.369109 
L 229.947451 219.806733 
L 232.013022 219.806733 
L 232.013022 215.244356 
L 235.985661 215.244356 
L 235.985661 210.68198 
L 236.953556 210.68198 
L 236.953556 206.119604 
L 245.846227 206.119604 
L 245.846227 201.557228 
L 246.111909 201.557228 
L 246.111909 196.994851 
L 248.878042 196.994851 
L 248.878042 192.432475 
L 252.094369 192.432475 
L 252.094369 187.870099 
L 254.484648 187.870099 
L 254.484648 183.307723 
L 256.202779 183.307723 
L 256.202779 178.745347 
L 257.655313 178.745347 
L 257.655313 174.18297 
L 258.138385 174.18297 
L 258.138385 169.620594 
L 258.191569 169.620594 
L 258.191569 165.058218 
L 258.736964 165.058218 
L 258.736964 160.495842 
L 260.705842 160.495842 
L 260.705842 155.933465 
L 263.663594 155.933465 
L 263.663594 151.371089 
L 265.107985 151.371089 
L 265.107985 146.808713 
L 265.25178 146.808713 
L 265.25178 142.246337 
L 266.43425 142.246337 
L 266.43425 137.68396 
L 266.73095 137.68396 
L 266.73095 133.121584 
L 267.582378 133.121584 
L 267.582378 128.559208 
L 267.742044 128.559208 
L 267.742044 123.996832 
L 269.731884 123.996832 
L 269.731884 119.434455 
L 269.782379 119.434455 
L 269.782379 114.872079 
L 271.608428 114.872079 
L 271.608428 110.309703 
L 272.000834 110.309703 
L 272.000834 105.747327 
L 273.002337 105.747327 
L 273.002337 101.18495 
L 274.232593 101.18495 
L 274.232593 96.622574 
L 274.774828 96.622574 
L 274.774828 92.060198 
L 274.979387 92.060198 
L 274.979387 87.497822 
L 275.846663 87.497822 
L 275.846663 82.935446 
L 276.017359 82.935446 
L 276.017359 78.373069 
L 276.179629 78.373069 
L 276.179629 73.810693 
L 277.065159 73.810693 
L 277.065159 69.248317 
L 277.76163 69.248317 
L 277.76163 64.685941 
L 278.479454 64.685941 
L 278.479454 60.123564 
L 281.300163 60.123564 
L 281.300163 55.561188 
L 282.764209 55.561188 
L 282.764209 50.998812 
L 285.02443 50.998812 
L 285.02443 46.436436 
L 285.351114 46.436436 
L 285.351114 41.874059 
L 286.595821 41.874059 
L 286.595821 37.311683 
L 286.659431 37.311683 
L 286.659431 32.749307 
L 288.310501 32.749307 
L 288.310501 28.186931 
L 290.121584 28.186931 
L 290.121584 23.624554 
L 290.537489 23.624554 
L 290.537489 19.062178 
L 296.320603 19.062178 
L 296.320603 14.499802 
L 296.863473 14.499802 
L 296.863473 9.937426 
L 296.863473 9.937426 
L 296.863473 9.937426 
L 364.32 9.937426 
" style="fill:none;stroke:#00bfbf;stroke-linecap:square;"/>
   </g>
   <g id="line2d_3">
    <path clip-path="url(#p00d15076c3)" d="M 194.066234 283.68 
L 194.066234 279.117624 
L 210.138288 279.117624 
L 210.138288 274.555248 
L 210.696866 274.555248 
L 210.696866 269.992871 
L 213.465698 269.992871 
L 213.465698 265.430495 
L 214.71375 265.430495 
L 214.71375 260.868119 
L 215.952613 260.868119 
L 215.952613 256.305743 
L 217.921118 256.305743 
L 217.921118 251.743366 
L 217.929296 251.743366 
L 217.929296 247.18099 
L 218.167321 247.18099 
L 218.167321 242.618614 
L 222.665738 242.618614 
L 222.665738 238.056238 
L 222.947997 238.056238 
L 222.947997 233.493861 
L 223.46336 233.493861 
L 223.46336 228.931485 
L 223.695319 228.931485 
L 223.695319 224.369109 
L 224.110156 224.369109 
L 224.110156 219.806733 
L 224.802702 219.806733 
L 224.802702 215.244356 
L 228.094294 215.244356 
L 228.094294 210.68198 
L 228.929233 210.68198 
L 228.929233 206.119604 
L 232.013022 206.119604 
L 232.013022 201.557228 
L 239.662923 201.557228 
L 239.662923 196.994851 
L 245.676541 196.994851 
L 245.676541 192.432475 
L 245.846227 192.432475 
L 245.846227 187.870099 
L 246.111909 187.870099 
L 246.111909 183.307723 
L 246.69738 183.307723 
L 246.69738 178.745347 
L 248.878042 178.745347 
L 248.878042 174.18297 
L 251.34306 174.18297 
L 251.34306 169.620594 
L 252.094369 169.620594 
L 252.094369 165.058218 
L 253.164224 165.058218 
L 253.164224 160.495842 
L 253.217415 160.495842 
L 253.217415 155.933465 
L 254.454784 155.933465 
L 254.454784 151.371089 
L 255.504291 151.371089 
L 255.504291 146.808713 
L 255.633447 146.808713 
L 255.633447 142.246337 
L 256.964863 142.246337 
L 256.964863 137.68396 
L 257.22202 137.68396 
L 257.22202 133.121584 
L 257.932998 133.121584 
L 257.932998 128.559208 
L 258.138385 128.559208 
L 258.138385 123.996832 
L 258.191569 123.996832 
L 258.191569 119.434455 
L 258.736964 119.434455 
L 258.736964 114.872079 
L 258.782791 114.872079 
L 258.782791 110.309703 
L 260.705842 110.309703 
L 260.705842 105.747327 
L 261.012923 105.747327 
L 261.012923 101.18495 
L 261.955828 101.18495 
L 261.955828 96.622574 
L 262.89643 96.622574 
L 262.89643 92.060198 
L 264.395343 92.060198 
L 264.395343 87.497822 
L 266.108812 87.497822 
L 266.108812 82.935446 
L 266.170003 82.935446 
L 266.170003 78.373069 
L 267.582378 78.373069 
L 267.582378 73.810693 
L 267.742044 73.810693 
L 267.742044 69.248317 
L 269.370513 69.248317 
L 269.370513 64.685941 
L 269.782379 64.685941 
L 269.782379 60.123564 
L 269.826799 60.123564 
L 269.826799 55.561188 
L 270.244665 55.561188 
L 270.244665 50.998812 
L 270.628956 50.998812 
L 270.628956 46.436436 
L 270.979887 46.436436 
L 270.979887 41.874059 
L 274.296955 41.874059 
L 274.296955 37.311683 
L 276.550332 37.311683 
L 276.550332 32.749307 
L 276.88678 32.749307 
L 276.88678 28.186931 
L 277.065159 28.186931 
L 277.065159 23.624554 
L 282.5795 23.624554 
L 282.5795 19.062178 
L 285.351114 19.062178 
L 285.351114 14.499802 
L 286.595821 14.499802 
L 286.595821 9.937426 
L 286.595821 9.937426 
L 286.595821 9.937426 
L 364.32 9.937426 
" style="fill:none;stroke:#bf00bf;stroke-linecap:square;"/>
   </g>
   <g id="line2d_4">
    <path clip-path="url(#p00d15076c3)" d="M 194.066234 283.68 
L 194.066234 279.117624 
L 204.186733 279.117624 
L 204.186733 274.555248 
L 207.411016 274.555248 
L 207.411016 269.992871 
L 207.991272 269.992871 
L 207.991272 265.430495 
L 210.138288 265.430495 
L 210.138288 260.868119 
L 212.262791 260.868119 
L 212.262791 256.305743 
L 212.455007 256.305743 
L 212.455007 251.743366 
L 212.51828 251.743366 
L 212.51828 247.18099 
L 213.465698 247.18099 
L 213.465698 242.618614 
L 214.71375 242.618614 
L 214.71375 238.056238 
L 215.952613 238.056238 
L 215.952613 233.493861 
L 217.921118 233.493861 
L 217.921118 228.931485 
L 217.929296 228.931485 
L 217.929296 224.369109 
L 218.167321 224.369109 
L 218.167321 219.806733 
L 218.197301 219.806733 
L 218.197301 215.244356 
L 221.232155 215.244356 
L 221.232155 210.68198 
L 223.502651 210.68198 
L 223.502651 206.119604 
L 223.695319 206.119604 
L 223.695319 201.557228 
L 224.110156 201.557228 
L 224.110156 196.994851 
L 228.094294 196.994851 
L 228.094294 192.432475 
L 232.013022 192.432475 
L 232.013022 187.870099 
L 233.269818 187.870099 
L 233.269818 183.307723 
L 239.662923 183.307723 
L 239.662923 178.745347 
L 239.988679 178.745347 
L 239.988679 174.18297 
L 240.446753 174.18297 
L 240.446753 169.620594 
L 243.852001 169.620594 
L 243.852001 165.058218 
L 244.25751 165.058218 
L 244.25751 160.495842 
L 245.676541 160.495842 
L 245.676541 155.933465 
L 245.846227 155.933465 
L 245.846227 151.371089 
L 246.69738 151.371089 
L 246.69738 146.808713 
L 246.854007 146.808713 
L 246.854007 142.246337 
L 247.884207 142.246337 
L 247.884207 137.68396 
L 248.404349 137.68396 
L 248.404349 133.121584 
L 248.759377 133.121584 
L 248.759377 128.559208 
L 248.878042 128.559208 
L 248.878042 123.996832 
L 249.097908 123.996832 
L 249.097908 119.434455 
L 250.188028 119.434455 
L 250.188028 114.872079 
L 250.192411 114.872079 
L 250.192411 110.309703 
L 251.168858 110.309703 
L 251.168858 105.747327 
L 252.094369 105.747327 
L 252.094369 101.18495 
L 253.164224 101.18495 
L 253.164224 96.622574 
L 253.217415 96.622574 
L 253.217415 92.060198 
L 255.504291 92.060198 
L 255.504291 87.497822 
L 256.640878 87.497822 
L 256.640878 82.935446 
L 258.138385 82.935446 
L 258.138385 78.373069 
L 258.191569 78.373069 
L 258.191569 73.810693 
L 258.211875 73.810693 
L 258.211875 69.248317 
L 259.779544 69.248317 
L 259.779544 64.685941 
L 260.705842 64.685941 
L 260.705842 60.123564 
L 260.969596 60.123564 
L 260.969596 55.561188 
L 261.317865 55.561188 
L 261.317865 50.998812 
L 262.777661 50.998812 
L 262.777661 46.436436 
L 262.888409 46.436436 
L 262.888409 41.874059 
L 264.395343 41.874059 
L 264.395343 37.311683 
L 264.766758 37.311683 
L 264.766758 32.749307 
L 265.637469 32.749307 
L 265.637469 28.186931 
L 265.799874 28.186931 
L 265.799874 23.624554 
L 270.244665 23.624554 
L 270.244665 19.062178 
L 276.88678 19.062178 
L 276.88678 14.499802 
L 286.595821 14.499802 
L 286.595821 9.937426 
L 286.595821 9.937426 
L 286.595821 9.937426 
L 364.32 9.937426 
" style="fill:none;stroke:#000000;stroke-linecap:square;"/>
   </g>
   <g id="line2d_5">
    <path clip-path="url(#p00d15076c3)" d="M 194.066234 283.68 
L 194.066234 279.117624 
L 203.34421 279.117624 
L 203.34421 274.555248 
L 203.368453 274.555248 
L 203.368453 269.992871 
L 204.186733 269.992871 
L 204.186733 265.430495 
L 205.718103 265.430495 
L 205.718103 260.868119 
L 207.392334 260.868119 
L 207.392334 256.305743 
L 207.411016 256.305743 
L 207.411016 251.743366 
L 208.547258 251.743366 
L 208.547258 247.18099 
L 208.971141 247.18099 
L 208.971141 242.618614 
L 209.80187 242.618614 
L 209.80187 238.056238 
L 210.138288 238.056238 
L 210.138288 233.493861 
L 210.919737 233.493861 
L 210.919737 228.931485 
L 211.296062 228.931485 
L 211.296062 224.369109 
L 212.431277 224.369109 
L 212.431277 219.806733 
L 212.455007 219.806733 
L 212.455007 215.244356 
L 212.51828 215.244356 
L 212.51828 210.68198 
L 213.113037 210.68198 
L 213.113037 206.119604 
L 216.665229 206.119604 
L 216.665229 201.557228 
L 217.917963 201.557228 
L 217.917963 196.994851 
L 217.981207 196.994851 
L 217.981207 192.432475 
L 218.183898 192.432475 
L 218.183898 187.870099 
L 219.421054 187.870099 
L 219.421054 183.307723 
L 225.389141 183.307723 
L 225.389141 178.745347 
L 226.350085 178.745347 
L 226.350085 174.18297 
L 228.094294 174.18297 
L 228.094294 169.620594 
L 230.920799 169.620594 
L 230.920799 165.058218 
L 232.013022 165.058218 
L 232.013022 160.495842 
L 233.269818 160.495842 
L 233.269818 155.933465 
L 236.472383 155.933465 
L 236.472383 151.371089 
L 237.987284 151.371089 
L 237.987284 146.808713 
L 239.282468 146.808713 
L 239.282468 142.246337 
L 239.662923 142.246337 
L 239.662923 137.68396 
L 239.988679 137.68396 
L 239.988679 133.121584 
L 240.446753 133.121584 
L 240.446753 128.559208 
L 241.639138 128.559208 
L 241.639138 123.996832 
L 241.840996 123.996832 
L 241.840996 119.434455 
L 244.25751 119.434455 
L 244.25751 114.872079 
L 244.61284 114.872079 
L 244.61284 110.309703 
L 245.275311 110.309703 
L 245.275311 105.747327 
L 245.676541 105.747327 
L 245.676541 101.18495 
L 246.351861 101.18495 
L 246.351861 96.622574 
L 247.384179 96.622574 
L 247.384179 92.060198 
L 248.284021 92.060198 
L 248.284021 87.497822 
L 248.404349 87.497822 
L 248.404349 82.935446 
L 248.44518 82.935446 
L 248.44518 78.373069 
L 248.684757 78.373069 
L 248.684757 73.810693 
L 248.759377 73.810693 
L 248.759377 69.248317 
L 249.097908 69.248317 
L 249.097908 64.685941 
L 249.224283 64.685941 
L 249.224283 60.123564 
L 250.192411 60.123564 
L 250.192411 55.561188 
L 250.974301 55.561188 
L 250.974301 50.998812 
L 251.161441 50.998812 
L 251.161441 46.436436 
L 251.870177 46.436436 
L 251.870177 41.874059 
L 253.339368 41.874059 
L 253.339368 37.311683 
L 253.460774 37.311683 
L 253.460774 32.749307 
L 258.191569 32.749307 
L 258.191569 28.186931 
L 259.938618 28.186931 
L 259.938618 23.624554 
L 270.244665 23.624554 
L 270.244665 19.062178 
L 276.88678 19.062178 
L 276.88678 14.499802 
L 283.298376 14.499802 
L 283.298376 9.937426 
L 283.298376 9.937426 
L 283.298376 9.937426 
L 364.32 9.937426 
" style="fill:none;stroke:#00bfbf;stroke-linecap:square;"/>
   </g>
   <g id="line2d_6">
    <path clip-path="url(#p00d15076c3)" d="M 194.066234 283.68 
L 194.066234 279.117624 
L 196.084842 279.117624 
L 196.084842 274.555248 
L 196.948957 274.555248 
L 196.948957 269.992871 
L 198.99896 269.992871 
L 198.99896 265.430495 
L 199.847306 265.430495 
L 199.847306 260.868119 
L 199.936277 260.868119 
L 199.936277 256.305743 
L 200.740769 256.305743 
L 200.740769 251.743366 
L 201.480833 251.743366 
L 201.480833 247.18099 
L 202.411688 247.18099 
L 202.411688 242.618614 
L 202.758807 242.618614 
L 202.758807 238.056238 
L 203.36844 238.056238 
L 203.36844 233.493861 
L 203.997921 233.493861 
L 203.997921 228.931485 
L 204.075317 228.931485 
L 204.075317 224.369109 
L 204.157034 224.369109 
L 204.157034 219.806733 
L 204.390469 219.806733 
L 204.390469 215.244356 
L 205.543168 215.244356 
L 205.543168 210.68198 
L 205.718103 210.68198 
L 205.718103 206.119604 
L 206.417599 206.119604 
L 206.417599 201.557228 
L 206.430382 201.557228 
L 206.430382 196.994851 
L 206.823826 196.994851 
L 206.823826 192.432475 
L 207.958755 192.432475 
L 207.958755 187.870099 
L 208.153785 187.870099 
L 208.153785 183.307723 
L 208.398378 183.307723 
L 208.398378 178.745347 
L 208.824057 178.745347 
L 208.824057 174.18297 
L 209.522602 174.18297 
L 209.522602 169.620594 
L 209.580065 169.620594 
L 209.580065 165.058218 
L 211.311012 165.058218 
L 211.311012 160.495842 
L 212.214712 160.495842 
L 212.214712 155.933465 
L 212.812017 155.933465 
L 212.812017 151.371089 
L 213.736919 151.371089 
L 213.736919 146.808713 
L 217.980802 146.808713 
L 217.980802 142.246337 
L 222.77392 142.246337 
L 222.77392 137.68396 
L 223.933845 137.68396 
L 223.933845 133.121584 
L 225.389141 133.121584 
L 225.389141 128.559208 
L 225.97602 128.559208 
L 225.97602 123.996832 
L 226.350085 123.996832 
L 226.350085 119.434455 
L 226.675045 119.434455 
L 226.675045 114.872079 
L 226.715478 114.872079 
L 226.715478 110.309703 
L 227.485152 110.309703 
L 227.485152 105.747327 
L 227.865072 105.747327 
L 227.865072 101.18495 
L 227.956607 101.18495 
L 227.956607 96.622574 
L 228.484833 96.622574 
L 228.484833 92.060198 
L 230.963358 92.060198 
L 230.963358 87.497822 
L 231.477638 87.497822 
L 231.477638 82.935446 
L 234.205879 82.935446 
L 234.205879 78.373069 
L 234.73778 78.373069 
L 234.73778 73.810693 
L 235.071243 73.810693 
L 235.071243 69.248317 
L 236.349427 69.248317 
L 236.349427 64.685941 
L 236.472383 64.685941 
L 236.472383 60.123564 
L 236.666278 60.123564 
L 236.666278 55.561188 
L 237.400718 55.561188 
L 237.400718 50.998812 
L 237.966029 50.998812 
L 237.966029 46.436436 
L 238.210788 46.436436 
L 238.210788 41.874059 
L 238.929595 41.874059 
L 238.929595 37.311683 
L 239.619284 37.311683 
L 239.619284 32.749307 
L 240.446753 32.749307 
L 240.446753 28.186931 
L 240.5594 28.186931 
L 240.5594 23.624554 
L 243.373181 23.624554 
L 243.373181 19.062178 
L 243.62144 19.062178 
L 243.62144 14.499802 
L 267.524059 14.499802 
L 267.524059 9.937426 
L 267.524059 9.937426 
L 267.524059 9.937426 
L 364.32 9.937426 
" style="fill:none;stroke:#bf00bf;stroke-linecap:square;"/>
   </g>
   <g id="patch_3">
    <path d="M 7.2 7.2 
L 364.32 7.2 
" style="fill:none;stroke:#000000;stroke-linecap:square;stroke-linejoin:miter;"/>
   </g>
   <g id="patch_4">
    <path d="M 364.32 283.68 
L 364.32 7.2 
" style="fill:none;stroke:#000000;stroke-linecap:square;stroke-linejoin:miter;"/>
   </g>
   <g id="patch_5">
    <path d="M 7.2 283.68 
L 364.32 283.68 
" style="fill:none;stroke:#000000;stroke-linecap:square;stroke-linejoin:miter;"/>
   </g>
   <g id="patch_6">
    <path d="M 7.2 283.68 
L 7.2 7.2 
" style="fill:none;stroke:#000000;stroke-linecap:square;stroke-linejoin:miter;"/>
   </g>
   <g id="matplotlib.axis_1">
    <g id="xtick_1">
     <g id="line2d_7">
      <path clip-path="url(#p00d15076c3)" d="M 49.133998 283.68 
L 49.133998 7.2 
" style="fill:none;stroke:#000000;stroke-dasharray:1.000000,3.000000;stroke-dashoffset:0.0;stroke-width:0.5;"/>
     </g>
     <g id="line2d_8">
      <defs>
       <path d="M 0 0 
L 0 -4 
" id="m53d247e095" style="stroke:#000000;stroke-width:0.5;"/>
      </defs>
      <g>
       <use style="stroke:#000000;stroke-width:0.5;" x="49.1339978514" xlink:href="#m53d247e095" y="283.68"/>
      </g>
     </g>
     <g id="line2d_9">
      <defs>
       <path d="M 0 0 
L 0 4 
" id="m828d3662d0" style="stroke:#000000;stroke-width:0.5;"/>
      </defs>
      <g>
       <use style="stroke:#000000;stroke-width:0.5;" x="49.1339978514" xlink:href="#m828d3662d0" y="7.2"/>
      </g>
     </g>
     <g id="text_1">
      <!-- -6 -->
      <defs>
       <path d="M 33.015625 40.375 
Q 26.375 40.375 22.484375 35.828125 
Q 18.609375 31.296875 18.609375 23.390625 
Q 18.609375 15.53125 22.484375 10.953125 
Q 26.375 6.390625 33.015625 6.390625 
Q 39.65625 6.390625 43.53125 10.953125 
Q 47.40625 15.53125 47.40625 23.390625 
Q 47.40625 31.296875 43.53125 35.828125 
Q 39.65625 40.375 33.015625 40.375 
M 52.59375 71.296875 
L 52.59375 62.3125 
Q 48.875 64.0625 45.09375 64.984375 
Q 41.3125 65.921875 37.59375 65.921875 
Q 27.828125 65.921875 22.671875 59.328125 
Q 17.53125 52.734375 16.796875 39.40625 
Q 19.671875 43.65625 24.015625 45.921875 
Q 28.375 48.1875 33.59375 48.1875 
Q 44.578125 48.1875 50.953125 41.515625 
Q 57.328125 34.859375 57.328125 23.390625 
Q 57.328125 12.15625 50.6875 5.359375 
Q 44.046875 -1.421875 33.015625 -1.421875 
Q 20.359375 -1.421875 13.671875 8.265625 
Q 6.984375 17.96875 6.984375 36.375 
Q 6.984375 53.65625 15.1875 63.9375 
Q 23.390625 74.21875 37.203125 74.21875 
Q 40.921875 74.21875 44.703125 73.484375 
Q 48.484375 72.75 52.59375 71.296875 
" id="BitstreamVeraSans-Roman-36"/>
       <path d="M 4.890625 31.390625 
L 31.203125 31.390625 
L 31.203125 23.390625 
L 4.890625 23.390625 
z
" id="BitstreamVeraSans-Roman-2d"/>
      </defs>
      <g transform="translate(39.1636853514 302.876875)scale(0.2 -0.2)">
       <use xlink:href="#BitstreamVeraSans-Roman-2d"/>
       <use x="36.083984375" xlink:href="#BitstreamVeraSans-Roman-36"/>
      </g>
     </g>
    </g>
    <g id="xtick_2">
     <g id="line2d_10">
      <path clip-path="url(#p00d15076c3)" d="M 91.158798 283.68 
L 91.158798 7.2 
" style="fill:none;stroke:#000000;stroke-dasharray:1.000000,3.000000;stroke-dashoffset:0.0;stroke-width:0.5;"/>
     </g>
     <g id="line2d_11">
      <g>
       <use style="stroke:#000000;stroke-width:0.5;" x="91.1587981379" xlink:href="#m53d247e095" y="283.68"/>
      </g>
     </g>
     <g id="line2d_12">
      <g>
       <use style="stroke:#000000;stroke-width:0.5;" x="91.1587981379" xlink:href="#m828d3662d0" y="7.2"/>
      </g>
     </g>
     <g id="text_2">
      <!-- -4 -->
      <defs>
       <path d="M 37.796875 64.3125 
L 12.890625 25.390625 
L 37.796875 25.390625 
z
M 35.203125 72.90625 
L 47.609375 72.90625 
L 47.609375 25.390625 
L 58.015625 25.390625 
L 58.015625 17.1875 
L 47.609375 17.1875 
L 47.609375 0 
L 37.796875 0 
L 37.796875 17.1875 
L 4.890625 17.1875 
L 4.890625 26.703125 
z
" id="BitstreamVeraSans-Roman-34"/>
      </defs>
      <g transform="translate(81.1884856379 302.876875)scale(0.2 -0.2)">
       <use xlink:href="#BitstreamVeraSans-Roman-2d"/>
       <use x="36.083984375" xlink:href="#BitstreamVeraSans-Roman-34"/>
      </g>
     </g>
    </g>
    <g id="xtick_3">
     <g id="line2d_13">
      <path clip-path="url(#p00d15076c3)" d="M 133.183598 283.68 
L 133.183598 7.2 
" style="fill:none;stroke:#000000;stroke-dasharray:1.000000,3.000000;stroke-dashoffset:0.0;stroke-width:0.5;"/>
     </g>
     <g id="line2d_14">
      <g>
       <use style="stroke:#000000;stroke-width:0.5;" x="133.183598424" xlink:href="#m53d247e095" y="283.68"/>
      </g>
     </g>
     <g id="line2d_15">
      <g>
       <use style="stroke:#000000;stroke-width:0.5;" x="133.183598424" xlink:href="#m828d3662d0" y="7.2"/>
      </g>
     </g>
     <g id="text_3">
      <!-- -2 -->
      <defs>
       <path d="M 19.1875 8.296875 
L 53.609375 8.296875 
L 53.609375 0 
L 7.328125 0 
L 7.328125 8.296875 
Q 12.9375 14.109375 22.625 23.890625 
Q 32.328125 33.6875 34.8125 36.53125 
Q 39.546875 41.84375 41.421875 45.53125 
Q 43.3125 49.21875 43.3125 52.78125 
Q 43.3125 58.59375 39.234375 62.25 
Q 35.15625 65.921875 28.609375 65.921875 
Q 23.96875 65.921875 18.8125 64.3125 
Q 13.671875 62.703125 7.8125 59.421875 
L 7.8125 69.390625 
Q 13.765625 71.78125 18.9375 73 
Q 24.125 74.21875 28.421875 74.21875 
Q 39.75 74.21875 46.484375 68.546875 
Q 53.21875 62.890625 53.21875 53.421875 
Q 53.21875 48.921875 51.53125 44.890625 
Q 49.859375 40.875 45.40625 35.40625 
Q 44.1875 33.984375 37.640625 27.21875 
Q 31.109375 20.453125 19.1875 8.296875 
" id="BitstreamVeraSans-Roman-32"/>
      </defs>
      <g transform="translate(123.213285924 302.876875)scale(0.2 -0.2)">
       <use xlink:href="#BitstreamVeraSans-Roman-2d"/>
       <use x="36.083984375" xlink:href="#BitstreamVeraSans-Roman-32"/>
      </g>
     </g>
    </g>
    <g id="xtick_4">
     <g id="line2d_16">
      <path clip-path="url(#p00d15076c3)" d="M 175.208399 283.68 
L 175.208399 7.2 
" style="fill:none;stroke:#000000;stroke-dasharray:1.000000,3.000000;stroke-dashoffset:0.0;stroke-width:0.5;"/>
     </g>
     <g id="line2d_17">
      <g>
       <use style="stroke:#000000;stroke-width:0.5;" x="175.208398711" xlink:href="#m53d247e095" y="283.68"/>
      </g>
     </g>
     <g id="line2d_18">
      <g>
       <use style="stroke:#000000;stroke-width:0.5;" x="175.208398711" xlink:href="#m828d3662d0" y="7.2"/>
      </g>
     </g>
     <g id="text_4">
      <!-- 0 -->
      <defs>
       <path d="M 31.78125 66.40625 
Q 24.171875 66.40625 20.328125 58.90625 
Q 16.5 51.421875 16.5 36.375 
Q 16.5 21.390625 20.328125 13.890625 
Q 24.171875 6.390625 31.78125 6.390625 
Q 39.453125 6.390625 43.28125 13.890625 
Q 47.125 21.390625 47.125 36.375 
Q 47.125 51.421875 43.28125 58.90625 
Q 39.453125 66.40625 31.78125 66.40625 
M 31.78125 74.21875 
Q 44.046875 74.21875 50.515625 64.515625 
Q 56.984375 54.828125 56.984375 36.375 
Q 56.984375 17.96875 50.515625 8.265625 
Q 44.046875 -1.421875 31.78125 -1.421875 
Q 19.53125 -1.421875 13.0625 8.265625 
Q 6.59375 17.96875 6.59375 36.375 
Q 6.59375 54.828125 13.0625 64.515625 
Q 19.53125 74.21875 31.78125 74.21875 
" id="BitstreamVeraSans-Roman-30"/>
      </defs>
      <g transform="translate(168.845898711 302.876875)scale(0.2 -0.2)">
       <use xlink:href="#BitstreamVeraSans-Roman-30"/>
      </g>
     </g>
    </g>
    <g id="xtick_5">
     <g id="line2d_19">
      <path clip-path="url(#p00d15076c3)" d="M 217.233199 283.68 
L 217.233199 7.2 
" style="fill:none;stroke:#000000;stroke-dasharray:1.000000,3.000000;stroke-dashoffset:0.0;stroke-width:0.5;"/>
     </g>
     <g id="line2d_20">
      <g>
       <use style="stroke:#000000;stroke-width:0.5;" x="217.233198997" xlink:href="#m53d247e095" y="283.68"/>
      </g>
     </g>
     <g id="line2d_21">
      <g>
       <use style="stroke:#000000;stroke-width:0.5;" x="217.233198997" xlink:href="#m828d3662d0" y="7.2"/>
      </g>
     </g>
     <g id="text_5">
      <!-- 2 -->
      <g transform="translate(210.870698997 302.876875)scale(0.2 -0.2)">
       <use xlink:href="#BitstreamVeraSans-Roman-32"/>
      </g>
     </g>
    </g>
    <g id="xtick_6">
     <g id="line2d_22">
      <path clip-path="url(#p00d15076c3)" d="M 259.257999 283.68 
L 259.257999 7.2 
" style="fill:none;stroke:#000000;stroke-dasharray:1.000000,3.000000;stroke-dashoffset:0.0;stroke-width:0.5;"/>
     </g>
     <g id="line2d_23">
      <g>
       <use style="stroke:#000000;stroke-width:0.5;" x="259.257999284" xlink:href="#m53d247e095" y="283.68"/>
      </g>
     </g>
     <g id="line2d_24">
      <g>
       <use style="stroke:#000000;stroke-width:0.5;" x="259.257999284" xlink:href="#m828d3662d0" y="7.2"/>
      </g>
     </g>
     <g id="text_6">
      <!-- 4 -->
      <g transform="translate(252.895499284 302.876875)scale(0.2 -0.2)">
       <use xlink:href="#BitstreamVeraSans-Roman-34"/>
      </g>
     </g>
    </g>
    <g id="xtick_7">
     <g id="line2d_25">
      <path clip-path="url(#p00d15076c3)" d="M 301.2828 283.68 
L 301.2828 7.2 
" style="fill:none;stroke:#000000;stroke-dasharray:1.000000,3.000000;stroke-dashoffset:0.0;stroke-width:0.5;"/>
     </g>
     <g id="line2d_26">
      <g>
       <use style="stroke:#000000;stroke-width:0.5;" x="301.28279957" xlink:href="#m53d247e095" y="283.68"/>
      </g>
     </g>
     <g id="line2d_27">
      <g>
       <use style="stroke:#000000;stroke-width:0.5;" x="301.28279957" xlink:href="#m828d3662d0" y="7.2"/>
      </g>
     </g>
     <g id="text_7">
      <!-- 6 -->
      <g transform="translate(294.92029957 302.876875)scale(0.2 -0.2)">
       <use xlink:href="#BitstreamVeraSans-Roman-36"/>
      </g>
     </g>
    </g>
    <g id="xtick_8">
     <g id="line2d_28">
      <path clip-path="url(#p00d15076c3)" d="M 343.3076 283.68 
L 343.3076 7.2 
" style="fill:none;stroke:#000000;stroke-dasharray:1.000000,3.000000;stroke-dashoffset:0.0;stroke-width:0.5;"/>
     </g>
     <g id="line2d_29">
      <g>
       <use style="stroke:#000000;stroke-width:0.5;" x="343.307599857" xlink:href="#m53d247e095" y="283.68"/>
      </g>
     </g>
     <g id="line2d_30">
      <g>
       <use style="stroke:#000000;stroke-width:0.5;" x="343.307599857" xlink:href="#m828d3662d0" y="7.2"/>
      </g>
     </g>
     <g id="text_8">
      <!-- 8 -->
      <defs>
       <path d="M 31.78125 34.625 
Q 24.75 34.625 20.71875 30.859375 
Q 16.703125 27.09375 16.703125 20.515625 
Q 16.703125 13.921875 20.71875 10.15625 
Q 24.75 6.390625 31.78125 6.390625 
Q 38.8125 6.390625 42.859375 10.171875 
Q 46.921875 13.96875 46.921875 20.515625 
Q 46.921875 27.09375 42.890625 30.859375 
Q 38.875 34.625 31.78125 34.625 
M 21.921875 38.8125 
Q 15.578125 40.375 12.03125 44.71875 
Q 8.5 49.078125 8.5 55.328125 
Q 8.5 64.0625 14.71875 69.140625 
Q 20.953125 74.21875 31.78125 74.21875 
Q 42.671875 74.21875 48.875 69.140625 
Q 55.078125 64.0625 55.078125 55.328125 
Q 55.078125 49.078125 51.53125 44.71875 
Q 48 40.375 41.703125 38.8125 
Q 48.828125 37.15625 52.796875 32.3125 
Q 56.78125 27.484375 56.78125 20.515625 
Q 56.78125 9.90625 50.3125 4.234375 
Q 43.84375 -1.421875 31.78125 -1.421875 
Q 19.734375 -1.421875 13.25 4.234375 
Q 6.78125 9.90625 6.78125 20.515625 
Q 6.78125 27.484375 10.78125 32.3125 
Q 14.796875 37.15625 21.921875 38.8125 
M 18.3125 54.390625 
Q 18.3125 48.734375 21.84375 45.5625 
Q 25.390625 42.390625 31.78125 42.390625 
Q 38.140625 42.390625 41.71875 45.5625 
Q 45.3125 48.734375 45.3125 54.390625 
Q 45.3125 60.0625 41.71875 63.234375 
Q 38.140625 66.40625 31.78125 66.40625 
Q 25.390625 66.40625 21.84375 63.234375 
Q 18.3125 60.0625 18.3125 54.390625 
" id="BitstreamVeraSans-Roman-38"/>
      </defs>
      <g transform="translate(336.945099857 302.876875)scale(0.2 -0.2)">
       <use xlink:href="#BitstreamVeraSans-Roman-38"/>
      </g>
     </g>
    </g>
    <g id="xtick_9">
     <g id="line2d_31">
      <defs>
       <path d="M 0 0 
L 0 -2 
" id="m284272355c" style="stroke:#000000;stroke-width:0.5;"/>
      </defs>
      <g>
       <use style="stroke:#000000;stroke-width:0.5;" x="49.1339978514" xlink:href="#m284272355c" y="283.68"/>
      </g>
     </g>
     <g id="line2d_32">
      <defs>
       <path d="M 0 0 
L 0 2 
" id="m972990aa7b" style="stroke:#000000;stroke-width:0.5;"/>
      </defs>
      <g>
       <use style="stroke:#000000;stroke-width:0.5;" x="49.1339978514" xlink:href="#m972990aa7b" y="7.2"/>
      </g>
     </g>
    </g>
    <g id="xtick_10">
     <g id="line2d_33">
      <g>
       <use style="stroke:#000000;stroke-width:0.5;" x="91.1587981379" xlink:href="#m284272355c" y="283.68"/>
      </g>
     </g>
     <g id="line2d_34">
      <g>
       <use style="stroke:#000000;stroke-width:0.5;" x="91.1587981379" xlink:href="#m972990aa7b" y="7.2"/>
      </g>
     </g>
    </g>
    <g id="xtick_11">
     <g id="line2d_35">
      <g>
       <use style="stroke:#000000;stroke-width:0.5;" x="133.183598424" xlink:href="#m284272355c" y="283.68"/>
      </g>
     </g>
     <g id="line2d_36">
      <g>
       <use style="stroke:#000000;stroke-width:0.5;" x="133.183598424" xlink:href="#m972990aa7b" y="7.2"/>
      </g>
     </g>
    </g>
    <g id="xtick_12">
     <g id="line2d_37">
      <g>
       <use style="stroke:#000000;stroke-width:0.5;" x="175.208398711" xlink:href="#m284272355c" y="283.68"/>
      </g>
     </g>
     <g id="line2d_38">
      <g>
       <use style="stroke:#000000;stroke-width:0.5;" x="175.208398711" xlink:href="#m972990aa7b" y="7.2"/>
      </g>
     </g>
    </g>
    <g id="xtick_13">
     <g id="line2d_39">
      <g>
       <use style="stroke:#000000;stroke-width:0.5;" x="217.233198997" xlink:href="#m284272355c" y="283.68"/>
      </g>
     </g>
     <g id="line2d_40">
      <g>
       <use style="stroke:#000000;stroke-width:0.5;" x="217.233198997" xlink:href="#m972990aa7b" y="7.2"/>
      </g>
     </g>
    </g>
    <g id="xtick_14">
     <g id="line2d_41">
      <g>
       <use style="stroke:#000000;stroke-width:0.5;" x="259.257999284" xlink:href="#m284272355c" y="283.68"/>
      </g>
     </g>
     <g id="line2d_42">
      <g>
       <use style="stroke:#000000;stroke-width:0.5;" x="259.257999284" xlink:href="#m972990aa7b" y="7.2"/>
      </g>
     </g>
    </g>
    <g id="xtick_15">
     <g id="line2d_43">
      <g>
       <use style="stroke:#000000;stroke-width:0.5;" x="301.28279957" xlink:href="#m284272355c" y="283.68"/>
      </g>
     </g>
     <g id="line2d_44">
      <g>
       <use style="stroke:#000000;stroke-width:0.5;" x="301.28279957" xlink:href="#m972990aa7b" y="7.2"/>
      </g>
     </g>
    </g>
    <g id="xtick_16">
     <g id="line2d_45">
      <g>
       <use style="stroke:#000000;stroke-width:0.5;" x="343.307599857" xlink:href="#m284272355c" y="283.68"/>
      </g>
     </g>
     <g id="line2d_46">
      <g>
       <use style="stroke:#000000;stroke-width:0.5;" x="343.307599857" xlink:href="#m972990aa7b" y="7.2"/>
      </g>
     </g>
    </g>
    <g id="text_9">
     <!-- log10 of Df -->
     <defs>
      <path id="BitstreamVeraSans-Roman-20"/>
      <path d="M 12.40625 8.296875 
L 28.515625 8.296875 
L 28.515625 63.921875 
L 10.984375 60.40625 
L 10.984375 69.390625 
L 28.421875 72.90625 
L 38.28125 72.90625 
L 38.28125 8.296875 
L 54.390625 8.296875 
L 54.390625 0 
L 12.40625 0 
z
" id="BitstreamVeraSans-Roman-31"/>
      <path d="M 30.609375 48.390625 
Q 23.390625 48.390625 19.1875 42.75 
Q 14.984375 37.109375 14.984375 27.296875 
Q 14.984375 17.484375 19.15625 11.84375 
Q 23.34375 6.203125 30.609375 6.203125 
Q 37.796875 6.203125 41.984375 11.859375 
Q 46.1875 17.53125 46.1875 27.296875 
Q 46.1875 37.015625 41.984375 42.703125 
Q 37.796875 48.390625 30.609375 48.390625 
M 30.609375 56 
Q 42.328125 56 49.015625 48.375 
Q 55.71875 40.765625 55.71875 27.296875 
Q 55.71875 13.875 49.015625 6.21875 
Q 42.328125 -1.421875 30.609375 -1.421875 
Q 18.84375 -1.421875 12.171875 6.21875 
Q 5.515625 13.875 5.515625 27.296875 
Q 5.515625 40.765625 12.171875 48.375 
Q 18.84375 56 30.609375 56 
" id="BitstreamVeraSans-Roman-6f"/>
      <path d="M 9.421875 75.984375 
L 18.40625 75.984375 
L 18.40625 0 
L 9.421875 0 
z
" id="BitstreamVeraSans-Roman-6c"/>
      <path d="M 19.671875 64.796875 
L 19.671875 8.109375 
L 31.59375 8.109375 
Q 46.6875 8.109375 53.6875 14.9375 
Q 60.6875 21.78125 60.6875 36.53125 
Q 60.6875 51.171875 53.6875 57.984375 
Q 46.6875 64.796875 31.59375 64.796875 
z
M 9.8125 72.90625 
L 30.078125 72.90625 
Q 51.265625 72.90625 61.171875 64.09375 
Q 71.09375 55.28125 71.09375 36.53125 
Q 71.09375 17.671875 61.125 8.828125 
Q 51.171875 0 30.078125 0 
L 9.8125 0 
z
" id="BitstreamVeraSans-Roman-44"/>
      <path d="M 45.40625 27.984375 
Q 45.40625 37.75 41.375 43.109375 
Q 37.359375 48.484375 30.078125 48.484375 
Q 22.859375 48.484375 18.828125 43.109375 
Q 14.796875 37.75 14.796875 27.984375 
Q 14.796875 18.265625 18.828125 12.890625 
Q 22.859375 7.515625 30.078125 7.515625 
Q 37.359375 7.515625 41.375 12.890625 
Q 45.40625 18.265625 45.40625 27.984375 
M 54.390625 6.78125 
Q 54.390625 -7.171875 48.1875 -13.984375 
Q 42 -20.796875 29.203125 -20.796875 
Q 24.46875 -20.796875 20.265625 -20.09375 
Q 16.0625 -19.390625 12.109375 -17.921875 
L 12.109375 -9.1875 
Q 16.0625 -11.328125 19.921875 -12.34375 
Q 23.78125 -13.375 27.78125 -13.375 
Q 36.625 -13.375 41.015625 -8.765625 
Q 45.40625 -4.15625 45.40625 5.171875 
L 45.40625 9.625 
Q 42.625 4.78125 38.28125 2.390625 
Q 33.9375 0 27.875 0 
Q 17.828125 0 11.671875 7.65625 
Q 5.515625 15.328125 5.515625 27.984375 
Q 5.515625 40.671875 11.671875 48.328125 
Q 17.828125 56 27.875 56 
Q 33.9375 56 38.28125 53.609375 
Q 42.625 51.21875 45.40625 46.390625 
L 45.40625 54.6875 
L 54.390625 54.6875 
z
" id="BitstreamVeraSans-Roman-67"/>
      <path d="M 37.109375 75.984375 
L 37.109375 68.5 
L 28.515625 68.5 
Q 23.6875 68.5 21.796875 66.546875 
Q 19.921875 64.59375 19.921875 59.515625 
L 19.921875 54.6875 
L 34.71875 54.6875 
L 34.71875 47.703125 
L 19.921875 47.703125 
L 19.921875 0 
L 10.890625 0 
L 10.890625 47.703125 
L 2.296875 47.703125 
L 2.296875 54.6875 
L 10.890625 54.6875 
L 10.890625 58.5 
Q 10.890625 67.625 15.140625 71.796875 
Q 19.390625 75.984375 28.609375 75.984375 
z
" id="BitstreamVeraSans-Roman-66"/>
     </defs>
     <g transform="translate(130.5740625 327.233125)scale(0.2 -0.2)">
      <use xlink:href="#BitstreamVeraSans-Roman-6c"/>
      <use x="27.783203125" xlink:href="#BitstreamVeraSans-Roman-6f"/>
      <use x="88.96484375" xlink:href="#BitstreamVeraSans-Roman-67"/>
      <use x="152.44140625" xlink:href="#BitstreamVeraSans-Roman-31"/>
      <use x="216.064453125" xlink:href="#BitstreamVeraSans-Roman-30"/>
      <use x="279.6875" xlink:href="#BitstreamVeraSans-Roman-20"/>
      <use x="311.474609375" xlink:href="#BitstreamVeraSans-Roman-6f"/>
      <use x="372.65625" xlink:href="#BitstreamVeraSans-Roman-66"/>
      <use x="407.861328125" xlink:href="#BitstreamVeraSans-Roman-20"/>
      <use x="439.6484375" xlink:href="#BitstreamVeraSans-Roman-44"/>
      <use x="516.650390625" xlink:href="#BitstreamVeraSans-Roman-66"/>
     </g>
    </g>
   </g>
   <g id="matplotlib.axis_2">
    <g id="ytick_1">
     <g id="line2d_47">
      <path clip-path="url(#p00d15076c3)" d="M 7.2 283.68 
L 364.32 283.68 
" style="fill:none;stroke:#000000;stroke-dasharray:1.000000,3.000000;stroke-dashoffset:0.0;stroke-width:0.5;"/>
     </g>
     <g id="line2d_48">
      <defs>
       <path d="M 0 0 
L 4 0 
" id="m8dcbacc726" style="stroke:#000000;stroke-width:0.5;"/>
      </defs>
      <g>
       <use style="stroke:#000000;stroke-width:0.5;" x="7.2" xlink:href="#m8dcbacc726" y="283.68"/>
      </g>
     </g>
     <g id="line2d_49">
      <defs>
       <path d="M 0 0 
L -4 0 
" id="m9d70cf4264" style="stroke:#000000;stroke-width:0.5;"/>
      </defs>
      <g>
       <use style="stroke:#000000;stroke-width:0.5;" x="364.32" xlink:href="#m9d70cf4264" y="283.68"/>
      </g>
     </g>
    </g>
    <g id="ytick_2">
     <g id="line2d_50">
      <path clip-path="url(#p00d15076c3)" d="M 7.2 228.931485 
L 364.32 228.931485 
" style="fill:none;stroke:#000000;stroke-dasharray:1.000000,3.000000;stroke-dashoffset:0.0;stroke-width:0.5;"/>
     </g>
     <g id="line2d_51">
      <g>
       <use style="stroke:#000000;stroke-width:0.5;" x="7.2" xlink:href="#m8dcbacc726" y="228.931485149"/>
      </g>
     </g>
     <g id="line2d_52">
      <g>
       <use style="stroke:#000000;stroke-width:0.5;" x="364.32" xlink:href="#m9d70cf4264" y="228.931485149"/>
      </g>
     </g>
    </g>
    <g id="ytick_3">
     <g id="line2d_53">
      <path clip-path="url(#p00d15076c3)" d="M 7.2 174.18297 
L 364.32 174.18297 
" style="fill:none;stroke:#000000;stroke-dasharray:1.000000,3.000000;stroke-dashoffset:0.0;stroke-width:0.5;"/>
     </g>
     <g id="line2d_54">
      <g>
       <use style="stroke:#000000;stroke-width:0.5;" x="7.2" xlink:href="#m8dcbacc726" y="174.182970297"/>
      </g>
     </g>
     <g id="line2d_55">
      <g>
       <use style="stroke:#000000;stroke-width:0.5;" x="364.32" xlink:href="#m9d70cf4264" y="174.182970297"/>
      </g>
     </g>
    </g>
    <g id="ytick_4">
     <g id="line2d_56">
      <path clip-path="url(#p00d15076c3)" d="M 7.2 119.434455 
L 364.32 119.434455 
" style="fill:none;stroke:#000000;stroke-dasharray:1.000000,3.000000;stroke-dashoffset:0.0;stroke-width:0.5;"/>
     </g>
     <g id="line2d_57">
      <g>
       <use style="stroke:#000000;stroke-width:0.5;" x="7.2" xlink:href="#m8dcbacc726" y="119.434455446"/>
      </g>
     </g>
     <g id="line2d_58">
      <g>
       <use style="stroke:#000000;stroke-width:0.5;" x="364.32" xlink:href="#m9d70cf4264" y="119.434455446"/>
      </g>
     </g>
    </g>
    <g id="ytick_5">
     <g id="line2d_59">
      <path clip-path="url(#p00d15076c3)" d="M 7.2 64.685941 
L 364.32 64.685941 
" style="fill:none;stroke:#000000;stroke-dasharray:1.000000,3.000000;stroke-dashoffset:0.0;stroke-width:0.5;"/>
     </g>
     <g id="line2d_60">
      <g>
       <use style="stroke:#000000;stroke-width:0.5;" x="7.2" xlink:href="#m8dcbacc726" y="64.6859405941"/>
      </g>
     </g>
     <g id="line2d_61">
      <g>
       <use style="stroke:#000000;stroke-width:0.5;" x="364.32" xlink:href="#m9d70cf4264" y="64.6859405941"/>
      </g>
     </g>
    </g>
    <g id="ytick_6">
     <g id="line2d_62">
      <path clip-path="url(#p00d15076c3)" d="M 7.2 9.937426 
L 364.32 9.937426 
" style="fill:none;stroke:#000000;stroke-dasharray:1.000000,3.000000;stroke-dashoffset:0.0;stroke-width:0.5;"/>
     </g>
     <g id="line2d_63">
      <g>
       <use style="stroke:#000000;stroke-width:0.5;" x="7.2" xlink:href="#m8dcbacc726" y="9.93742574257"/>
      </g>
     </g>
     <g id="line2d_64">
      <g>
       <use style="stroke:#000000;stroke-width:0.5;" x="364.32" xlink:href="#m9d70cf4264" y="9.93742574257"/>
      </g>
     </g>
    </g>
   </g>
   <g id="text_10">
    <!-- f6-9,5-D -->
    <defs>
     <path d="M 11.71875 12.40625 
L 22.015625 12.40625 
L 22.015625 4 
L 14.015625 -11.625 
L 7.71875 -11.625 
L 11.71875 4 
z
" id="BitstreamVeraSans-Roman-2c"/>
     <path d="M 10.984375 1.515625 
L 10.984375 10.5 
Q 14.703125 8.734375 18.5 7.8125 
Q 22.3125 6.890625 25.984375 6.890625 
Q 35.75 6.890625 40.890625 13.453125 
Q 46.046875 20.015625 46.78125 33.40625 
Q 43.953125 29.203125 39.59375 26.953125 
Q 35.25 24.703125 29.984375 24.703125 
Q 19.046875 24.703125 12.671875 31.3125 
Q 6.296875 37.9375 6.296875 49.421875 
Q 6.296875 60.640625 12.9375 67.421875 
Q 19.578125 74.21875 30.609375 74.21875 
Q 43.265625 74.21875 49.921875 64.515625 
Q 56.59375 54.828125 56.59375 36.375 
Q 56.59375 19.140625 48.40625 8.859375 
Q 40.234375 -1.421875 26.421875 -1.421875 
Q 22.703125 -1.421875 18.890625 -0.6875 
Q 15.09375 0.046875 10.984375 1.515625 
M 30.609375 32.421875 
Q 37.25 32.421875 41.125 36.953125 
Q 45.015625 41.5 45.015625 49.421875 
Q 45.015625 57.28125 41.125 61.84375 
Q 37.25 66.40625 30.609375 66.40625 
Q 23.96875 66.40625 20.09375 61.84375 
Q 16.21875 57.28125 16.21875 49.421875 
Q 16.21875 41.5 20.09375 36.953125 
Q 23.96875 32.421875 30.609375 32.421875 
" id="BitstreamVeraSans-Roman-39"/>
     <path d="M 10.796875 72.90625 
L 49.515625 72.90625 
L 49.515625 64.59375 
L 19.828125 64.59375 
L 19.828125 46.734375 
Q 21.96875 47.46875 24.109375 47.828125 
Q 26.265625 48.1875 28.421875 48.1875 
Q 40.625 48.1875 47.75 41.5 
Q 54.890625 34.8125 54.890625 23.390625 
Q 54.890625 11.625 47.5625 5.09375 
Q 40.234375 -1.421875 26.90625 -1.421875 
Q 22.3125 -1.421875 17.546875 -0.640625 
Q 12.796875 0.140625 7.71875 1.703125 
L 7.71875 11.625 
Q 12.109375 9.234375 16.796875 8.0625 
Q 21.484375 6.890625 26.703125 6.890625 
Q 35.15625 6.890625 40.078125 11.328125 
Q 45.015625 15.765625 45.015625 23.390625 
Q 45.015625 31 40.078125 35.4375 
Q 35.15625 39.890625 26.703125 39.890625 
Q 22.75 39.890625 18.8125 39.015625 
Q 14.890625 38.140625 10.796875 36.28125 
z
" id="BitstreamVeraSans-Roman-35"/>
    </defs>
    <g transform="translate(275.774475 278.1504)scale(0.2 -0.2)">
     <use xlink:href="#BitstreamVeraSans-Roman-66"/>
     <use x="35.205078125" xlink:href="#BitstreamVeraSans-Roman-36"/>
     <use x="98.828125" xlink:href="#BitstreamVeraSans-Roman-2d"/>
     <use x="134.912109375" xlink:href="#BitstreamVeraSans-Roman-39"/>
     <use x="198.53515625" xlink:href="#BitstreamVeraSans-Roman-2c"/>
     <use x="230.322265625" xlink:href="#BitstreamVeraSans-Roman-35"/>
     <use x="293.9453125" xlink:href="#BitstreamVeraSans-Roman-2d"/>
     <use x="330.029296875" xlink:href="#BitstreamVeraSans-Roman-44"/>
    </g>
   </g>
  </g>
 </g>
 <defs>
  <clipPath id="p00d15076c3">
   <rect height="276.48" width="357.12" x="7.2" y="7.2"/>
  </clipPath>
 </defs>
</svg>
