<?xml version="1.0" encoding="utf-8" standalone="no"?>
<!DOCTYPE svg PUBLIC "-//W3C//DTD SVG 1.1//EN"
  "http://www.w3.org/Graphics/SVG/1.1/DTD/svg11.dtd">
<!-- Created with matplotlib (http://matplotlib.org/) -->
<svg height="338pt" version="1.1" viewBox="0 0 371 338" width="371pt" xmlns="http://www.w3.org/2000/svg" xmlns:xlink="http://www.w3.org/1999/xlink">
 <defs>
  <style type="text/css">
*{stroke-linecap:butt;stroke-linejoin:round;stroke-miterlimit:100000;}
  </style>
 </defs>
 <g id="figure_1">
  <g id="patch_1">
   <path d="M 0 338.5925 
L 371.52 338.5925 
L 371.52 0 
L 0 0 
z
" style="fill:#ffffff;"/>
  </g>
  <g id="axes_1">
   <g id="patch_2">
    <path d="M 7.2 283.68 
L 364.32 283.68 
L 364.32 7.2 
L 7.2 7.2 
z
" style="fill:#ffffff;"/>
   </g>
   <g id="line2d_1">
    <path clip-path="url(#pbed24c31f7)" d="M 184.066265 283.68 
L 184.066265 280.030099 
L 185.073601 280.030099 
L 185.073601 276.380198 
L 185.3964 276.380198 
L 185.409557 269.080396 
L 185.759612 269.080396 
L 185.759612 265.430495 
L 186.651591 265.430495 
L 186.651591 261.780594 
L 187.023536 261.780594 
L 187.023536 258.130693 
L 187.322849 258.130693 
L 187.322849 254.480792 
L 187.59072 254.480792 
L 187.59072 250.830891 
L 187.936297 250.830891 
L 187.936297 247.18099 
L 188.319864 247.18099 
L 188.319864 243.531089 
L 188.643663 243.531089 
L 188.643663 239.881188 
L 188.820401 239.881188 
L 188.902341 232.581386 
L 188.988608 232.581386 
L 189.070509 225.281584 
L 189.245345 225.281584 
L 189.245345 221.631683 
L 189.525171 221.631683 
L 189.613323 214.331881 
L 190.522038 214.331881 
L 190.522038 210.68198 
L 190.895592 210.68198 
L 191.005664 199.732277 
L 191.126368 199.732277 
L 191.126368 196.082376 
L 191.497254 196.082376 
L 191.558551 188.782574 
L 191.797098 188.782574 
L 191.797098 185.132673 
L 192.118646 185.132673 
L 192.118646 181.482772 
L 192.787741 181.482772 
L 192.850541 174.18297 
L 192.925026 174.18297 
L 192.925026 170.533069 
L 194.307445 170.533069 
L 194.307445 166.883168 
L 194.450223 166.883168 
L 194.543467 159.583366 
L 194.898365 159.583366 
L 194.898365 155.933465 
L 195.173273 155.933465 
L 195.214335 144.983762 
L 195.302441 144.983762 
L 195.302441 141.333861 
L 195.64436 141.333861 
L 195.651033 134.034059 
L 195.780074 134.034059 
L 195.780074 130.384158 
L 196.101598 130.384158 
L 196.101598 126.734257 
L 196.748413 126.734257 
L 196.748413 123.084356 
L 196.923574 123.084356 
L 196.923574 119.434455 
L 197.263497 119.434455 
L 197.263497 115.784554 
L 197.954255 115.784554 
L 197.954255 112.134653 
L 198.066193 112.134653 
L 198.066193 108.484752 
L 198.404137 108.484752 
L 198.417298 101.18495 
L 198.814454 101.18495 
L 198.924077 93.885149 
L 198.978245 93.885149 
L 198.978245 90.235248 
L 199.275786 90.235248 
L 199.275786 86.585347 
L 199.525231 86.585347 
L 199.525231 82.935446 
L 200.491053 82.935446 
L 200.534034 75.635644 
L 200.858105 75.635644 
L 200.858105 71.985743 
L 201.123323 71.985743 
L 201.123323 68.335842 
L 201.692932 68.335842 
L 201.692932 64.685941 
L 218.828362 64.685941 
L 218.828362 61.03604 
L 219.049297 61.03604 
L 219.049297 57.386139 
L 220.178453 57.386139 
L 220.178453 53.736238 
L 220.31256 53.736238 
L 220.31256 50.086337 
L 221.120972 50.086337 
L 221.120972 46.436436 
L 221.301859 46.436436 
L 221.301859 42.786535 
L 221.522924 42.786535 
L 221.556308 35.486733 
L 221.664444 35.486733 
L 221.751144 28.186931 
L 221.926947 28.186931 
L 222.037565 20.887129 
L 222.142532 20.887129 
L 222.142532 17.237228 
L 222.379884 17.237228 
L 222.379884 13.587327 
L 223.590612 13.587327 
L 223.590612 9.937426 
L 364.32 9.937426 
L 364.32 9.937426 
" style="fill:none;stroke:#ff0000;stroke-linecap:square;stroke-width:3.0;"/>
   </g>
   <g id="line2d_2">
    <path clip-path="url(#pbed24c31f7)" d="M 189.265624 283.68 
L 189.265624 280.030099 
L 189.265624 280.030099 
L 189.265624 280.030099 
L 189.361504 280.030099 
L 189.361504 276.380198 
L 189.61731 276.380198 
L 189.61731 272.730297 
L 190.736446 272.730297 
L 190.736446 269.080396 
L 190.990822 269.080396 
L 190.990822 265.430495 
L 191.485451 265.430495 
L 191.485451 261.780594 
L 191.890152 261.780594 
L 191.890152 258.130693 
L 192.077629 258.130693 
L 192.077629 254.480792 
L 192.248993 254.480792 
L 192.248993 250.830891 
L 192.780036 250.830891 
L 192.822345 243.531089 
L 192.938127 243.531089 
L 193.04084 232.581386 
L 193.254601 232.581386 
L 193.254601 228.931485 
L 193.384592 228.931485 
L 193.384592 225.281584 
L 193.658601 225.281584 
L 193.658601 221.631683 
L 194.071783 221.631683 
L 194.071783 217.981782 
L 194.508822 217.981782 
L 194.59784 207.032079 
L 194.957708 207.032079 
L 194.957708 203.382178 
L 195.1383 203.382178 
L 195.205885 192.432475 
L 195.316935 192.432475 
L 195.316935 188.782574 
L 195.933197 188.782574 
L 195.933197 185.132673 
L 196.051985 185.132673 
L 196.147765 177.832871 
L 196.309826 177.832871 
L 196.309826 174.18297 
L 196.697295 174.18297 
L 196.697295 170.533069 
L 197.13571 170.533069 
L 197.13571 166.883168 
L 197.852297 166.883168 
L 197.86896 159.583366 
L 198.078815 159.583366 
L 198.126519 152.283564 
L 198.744068 152.283564 
L 198.784939 144.983762 
L 199.180331 144.983762 
L 199.180331 141.333861 
L 199.518532 141.333861 
L 199.518532 137.68396 
L 199.660583 137.68396 
L 199.660583 134.034059 
L 199.847665 134.034059 
L 199.847665 130.384158 
L 200.554878 130.384158 
L 200.625548 115.784554 
L 201.025393 115.784554 
L 201.118535 108.484752 
L 202.010985 108.484752 
L 202.05056 101.18495 
L 203.108432 101.18495 
L 203.108432 97.53505 
L 203.296781 97.53505 
L 203.296781 93.885149 
L 203.655702 93.885149 
L 203.655702 90.235248 
L 204.939121 90.235248 
L 204.939121 86.585347 
L 205.712333 86.585347 
L 205.712333 82.935446 
L 205.825675 82.935446 
L 205.825675 79.285545 
L 207.33963 79.285545 
L 207.33963 75.635644 
L 208.75104 75.635644 
L 208.75104 71.985743 
L 209.218196 71.985743 
L 209.218196 68.335842 
L 209.335701 68.335842 
L 209.335701 64.685941 
L 222.905023 64.685941 
L 222.905023 61.03604 
L 224.111218 61.03604 
L 224.111218 57.386139 
L 224.925057 57.386139 
L 224.934564 50.086337 
L 225.189274 50.086337 
L 225.189274 46.436436 
L 225.455501 46.436436 
L 225.455501 42.786535 
L 225.586183 42.786535 
L 225.586183 39.136634 
L 226.005745 39.136634 
L 226.005745 35.486733 
L 226.800137 35.486733 
L 226.800137 31.836832 
L 227.32343 31.836832 
L 227.364196 24.53703 
L 227.475474 24.53703 
L 227.475474 20.887129 
L 228.06142 20.887129 
L 228.06142 17.237228 
L 228.392526 17.237228 
L 228.465295 9.937426 
L 364.32 9.937426 
L 364.32 9.937426 
" style="fill:none;stroke:#00bfbf;stroke-linecap:square;"/>
   </g>
   <g id="line2d_3">
    <path clip-path="url(#pbed24c31f7)" d="M 185.856544 283.68 
L 185.856544 280.030099 
L 187.811422 280.030099 
L 187.811422 276.380198 
L 188.643663 276.380198 
L 188.643663 272.730297 
L 189.265624 272.730297 
L 189.265624 269.080396 
L 190.085565 269.080396 
L 190.085565 265.430495 
L 190.230275 265.430495 
L 190.230275 261.780594 
L 190.410052 261.780594 
L 190.410052 258.130693 
L 190.728213 258.130693 
L 190.728213 254.480792 
L 191.430185 254.480792 
L 191.485451 243.531089 
L 191.890152 243.531089 
L 191.987846 236.231287 
L 192.367936 236.231287 
L 192.473765 225.281584 
L 192.599625 225.281584 
L 192.634352 217.981782 
L 192.938127 217.981782 
L 193.04084 210.68198 
L 193.592889 210.68198 
L 193.658601 199.732277 
L 194.071783 199.732277 
L 194.071783 196.082376 
L 194.185508 196.082376 
L 194.185508 192.432475 
L 194.459799 192.432475 
L 194.543507 185.132673 
L 195.192613 185.132673 
L 195.192613 181.482772 
L 195.316935 181.482772 
L 195.316935 177.832871 
L 195.933197 177.832871 
L 195.933197 174.18297 
L 196.051985 174.18297 
L 196.147765 166.883168 
L 196.309826 166.883168 
L 196.309826 163.233267 
L 197.852297 163.233267 
L 197.86896 155.933465 
L 198.126519 155.933465 
L 198.126519 152.283564 
L 198.550494 152.283564 
L 198.550494 148.633663 
L 198.689649 148.633663 
L 198.784939 137.68396 
L 198.922821 137.68396 
L 198.922821 134.034059 
L 199.163233 134.034059 
L 199.163233 130.384158 
L 199.518532 130.384158 
L 199.518532 126.734257 
L 199.670691 126.734257 
L 199.670691 123.084356 
L 200.554878 123.084356 
L 200.625548 112.134653 
L 200.973174 112.134653 
L 201.025393 104.834851 
L 201.358974 104.834851 
L 201.358974 101.18495 
L 202.010985 101.18495 
L 202.074645 90.235248 
L 202.157929 90.235248 
L 202.157929 86.585347 
L 202.742006 86.585347 
L 202.742006 82.935446 
L 203.296781 82.935446 
L 203.333318 75.635644 
L 204.121843 75.635644 
L 204.121843 71.985743 
L 206.068003 71.985743 
L 206.068003 68.335842 
L 207.33963 68.335842 
L 207.33963 64.685941 
L 221.751654 64.685941 
L 221.751654 61.03604 
L 222.128816 61.03604 
L 222.128816 57.386139 
L 222.754973 57.386139 
L 222.754973 53.736238 
L 223.500254 53.736238 
L 223.500254 50.086337 
L 223.796421 50.086337 
L 223.796421 46.436436 
L 224.111218 46.436436 
L 224.140854 39.136634 
L 224.48604 39.136634 
L 224.48604 35.486733 
L 224.925057 35.486733 
L 224.925057 31.836832 
L 225.189274 31.836832 
L 225.189274 28.186931 
L 225.455501 28.186931 
L 225.463864 20.887129 
L 225.636418 20.887129 
L 225.636418 17.237228 
L 226.005745 17.237228 
L 226.005745 13.587327 
L 227.550412 13.587327 
L 227.550412 9.937426 
L 364.32 9.937426 
L 364.32 9.937426 
" style="fill:none;stroke:#bf00bf;stroke-linecap:square;"/>
   </g>
   <g id="line2d_4">
    <path clip-path="url(#pbed24c31f7)" d="M 185.856544 283.68 
L 185.856544 280.030099 
L 187.256028 280.030099 
L 187.256028 276.380198 
L 188.147012 276.380198 
L 188.150756 269.080396 
L 188.323759 269.080396 
L 188.323759 265.430495 
L 188.643663 265.430495 
L 188.643663 261.780594 
L 188.830208 261.780594 
L 188.830208 258.130693 
L 189.173688 258.130693 
L 189.265624 250.830891 
L 189.732796 250.830891 
L 189.819924 243.531089 
L 190.421822 243.531089 
L 190.421822 239.881188 
L 191.039072 239.881188 
L 191.039072 236.231287 
L 191.430185 236.231287 
L 191.485451 228.931485 
L 191.544052 228.931485 
L 191.544052 225.281584 
L 191.726801 225.281584 
L 191.726801 221.631683 
L 191.87463 221.631683 
L 191.87463 217.981782 
L 192.071492 217.981782 
L 192.071492 214.331881 
L 192.25551 214.331881 
L 192.25551 210.68198 
L 192.367936 210.68198 
L 192.367936 207.032079 
L 192.938127 207.032079 
L 192.938127 203.382178 
L 193.343747 203.382178 
L 193.343747 199.732277 
L 193.592889 199.732277 
L 193.592889 196.082376 
L 194.071783 196.082376 
L 194.071783 192.432475 
L 194.185508 192.432475 
L 194.185508 188.782574 
L 194.459799 188.782574 
L 194.543507 181.482772 
L 194.612745 181.482772 
L 194.612745 177.832871 
L 194.856697 177.832871 
L 194.926229 170.533069 
L 195.46135 170.533069 
L 195.46135 166.883168 
L 196.051985 166.883168 
L 196.147765 159.583366 
L 196.553389 159.583366 
L 196.553389 155.933465 
L 197.530908 155.933465 
L 197.530908 152.283564 
L 197.852297 152.283564 
L 197.86896 144.983762 
L 198.126519 144.983762 
L 198.126519 141.333861 
L 198.529954 141.333861 
L 198.529954 137.68396 
L 198.744068 137.68396 
L 198.784939 130.384158 
L 199.095117 130.384158 
L 199.096328 123.084356 
L 199.63293 123.084356 
L 199.63293 119.434455 
L 200.382189 119.434455 
L 200.382189 115.784554 
L 200.593521 115.784554 
L 200.614725 108.484752 
L 200.973174 108.484752 
L 201.025393 101.18495 
L 201.358974 101.18495 
L 201.358974 97.53505 
L 201.857806 97.53505 
L 201.857806 93.885149 
L 201.975362 93.885149 
L 202.010985 86.585347 
L 202.157929 86.585347 
L 202.157929 82.935446 
L 202.365607 82.935446 
L 202.365607 79.285545 
L 202.724261 79.285545 
L 202.724261 75.635644 
L 203.333318 75.635644 
L 203.333318 71.985743 
L 204.121843 71.985743 
L 204.121843 68.335842 
L 207.33963 68.335842 
L 207.33963 64.685941 
L 221.522924 64.685941 
L 221.522924 61.03604 
L 221.751654 61.03604 
L 221.751654 57.386139 
L 221.926962 57.386139 
L 222.037772 50.086337 
L 222.128816 50.086337 
L 222.220625 39.136634 
L 223.480467 39.136634 
L 223.500254 31.836832 
L 223.796421 31.836832 
L 223.853174 24.53703 
L 224.482073 24.53703 
L 224.482073 20.887129 
L 225.162868 20.887129 
L 225.162868 17.237228 
L 225.455501 17.237228 
L 225.455501 13.587327 
L 226.005745 13.587327 
L 226.005745 9.937426 
L 364.32 9.937426 
L 364.32 9.937426 
" style="fill:none;stroke:#000000;stroke-linecap:square;"/>
   </g>
   <g id="line2d_5">
    <path clip-path="url(#pbed24c31f7)" d="M 184.461615 283.68 
L 184.461615 280.030099 
L 185.073603 280.030099 
L 185.073603 276.380198 
L 185.856544 276.380198 
L 185.856544 272.730297 
L 186.410487 272.730297 
L 186.410487 269.080396 
L 186.726653 269.080396 
L 186.726653 265.430495 
L 187.023536 265.430495 
L 187.023536 261.780594 
L 187.39587 261.780594 
L 187.39587 258.130693 
L 188.320556 258.130693 
L 188.320556 254.480792 
L 188.643663 254.480792 
L 188.643663 250.830891 
L 188.830208 250.830891 
L 188.933628 239.881188 
L 189.065702 239.881188 
L 189.173688 232.581386 
L 189.262063 232.581386 
L 189.262063 228.931485 
L 189.819924 228.931485 
L 189.819924 225.281584 
L 190.786202 225.281584 
L 190.786202 221.631683 
L 191.485451 221.631683 
L 191.485451 217.981782 
L 191.638815 217.981782 
L 191.656096 210.68198 
L 191.87463 210.68198 
L 191.87463 207.032079 
L 192.071492 207.032079 
L 192.071492 203.382178 
L 192.482069 203.382178 
L 192.566336 196.082376 
L 192.653427 196.082376 
L 192.653427 192.432475 
L 192.850905 192.432475 
L 192.938127 185.132673 
L 193.333634 185.132673 
L 193.343747 177.832871 
L 193.642867 177.832871 
L 193.642867 174.18297 
L 194.543507 174.18297 
L 194.543507 170.533069 
L 195.002571 170.533069 
L 195.002571 166.883168 
L 195.214343 166.883168 
L 195.311181 155.933465 
L 195.46135 155.933465 
L 195.46135 152.283564 
L 195.624372 152.283564 
L 195.624372 148.633663 
L 195.770312 148.633663 
L 195.770312 144.983762 
L 196.243834 144.983762 
L 196.327837 137.68396 
L 196.553389 137.68396 
L 196.573698 130.384158 
L 196.939246 130.384158 
L 196.939246 126.734257 
L 197.723528 126.734257 
L 197.723528 123.084356 
L 198.190915 123.084356 
L 198.190915 119.434455 
L 198.686857 119.434455 
L 198.700809 112.134653 
L 198.875465 112.134653 
L 198.901564 104.834851 
L 199.505203 104.834851 
L 199.505203 101.18495 
L 199.98393 101.18495 
L 199.98393 97.53505 
L 200.399464 97.53505 
L 200.399464 93.885149 
L 200.701605 93.885149 
L 200.701605 90.235248 
L 200.868303 90.235248 
L 200.868303 86.585347 
L 201.025393 86.585347 
L 201.025393 82.935446 
L 201.185887 82.935446 
L 201.185887 79.285545 
L 201.385622 79.285545 
L 201.385622 75.635644 
L 201.786384 75.635644 
L 201.786384 71.985743 
L 202.157929 71.985743 
L 202.157929 68.335842 
L 202.880832 68.335842 
L 202.880832 64.685941 
L 219.253253 64.685941 
L 219.253253 61.03604 
L 221.138595 61.03604 
L 221.219715 53.736238 
L 221.302718 53.736238 
L 221.302718 50.086337 
L 221.522924 50.086337 
L 221.522924 46.436436 
L 221.644031 46.436436 
L 221.751654 39.136634 
L 221.781202 39.136634 
L 221.794989 31.836832 
L 221.926962 31.836832 
L 222.037772 24.53703 
L 222.192548 24.53703 
L 222.192548 20.887129 
L 222.501635 20.887129 
L 222.501635 17.237228 
L 223.571456 17.237228 
L 223.637576 9.937426 
L 364.32 9.937426 
L 364.32 9.937426 
" style="fill:none;stroke:#00bfbf;stroke-linecap:square;"/>
   </g>
   <g id="patch_3">
    <path d="M 7.2 7.2 
L 364.32 7.2 
" style="fill:none;stroke:#000000;stroke-linecap:square;stroke-linejoin:miter;"/>
   </g>
   <g id="patch_4">
    <path d="M 364.32 283.68 
L 364.32 7.2 
" style="fill:none;stroke:#000000;stroke-linecap:square;stroke-linejoin:miter;"/>
   </g>
   <g id="patch_5">
    <path d="M 7.2 283.68 
L 364.32 283.68 
" style="fill:none;stroke:#000000;stroke-linecap:square;stroke-linejoin:miter;"/>
   </g>
   <g id="patch_6">
    <path d="M 7.2 283.68 
L 7.2 7.2 
" style="fill:none;stroke:#000000;stroke-linecap:square;stroke-linejoin:miter;"/>
   </g>
   <g id="matplotlib.axis_1">
    <g id="xtick_1">
     <g id="line2d_6">
      <path clip-path="url(#pbed24c31f7)" d="M 46.803772 283.68 
L 46.803772 7.2 
" style="fill:none;stroke:#000000;stroke-dasharray:1.000000,3.000000;stroke-dashoffset:0.0;stroke-width:0.5;"/>
     </g>
     <g id="line2d_7">
      <defs>
       <path d="M 0 0 
L 0 -4 
" id="m8dce4e5a27" style="stroke:#000000;stroke-width:0.5;"/>
      </defs>
      <g>
       <use style="stroke:#000000;stroke-width:0.5;" x="46.803771872" xlink:href="#m8dce4e5a27" y="283.68"/>
      </g>
     </g>
     <g id="line2d_8">
      <defs>
       <path d="M 0 0 
L 0 4 
" id="m82487c6631" style="stroke:#000000;stroke-width:0.5;"/>
      </defs>
      <g>
       <use style="stroke:#000000;stroke-width:0.5;" x="46.803771872" xlink:href="#m82487c6631" y="7.2"/>
      </g>
     </g>
     <g id="text_1">
      <!-- -6 -->
      <defs>
       <path d="M 33.015625 40.375 
Q 26.375 40.375 22.484375 35.828125 
Q 18.609375 31.296875 18.609375 23.390625 
Q 18.609375 15.53125 22.484375 10.953125 
Q 26.375 6.390625 33.015625 6.390625 
Q 39.65625 6.390625 43.53125 10.953125 
Q 47.40625 15.53125 47.40625 23.390625 
Q 47.40625 31.296875 43.53125 35.828125 
Q 39.65625 40.375 33.015625 40.375 
M 52.59375 71.296875 
L 52.59375 62.3125 
Q 48.875 64.0625 45.09375 64.984375 
Q 41.3125 65.921875 37.59375 65.921875 
Q 27.828125 65.921875 22.671875 59.328125 
Q 17.53125 52.734375 16.796875 39.40625 
Q 19.671875 43.65625 24.015625 45.921875 
Q 28.375 48.1875 33.59375 48.1875 
Q 44.578125 48.1875 50.953125 41.515625 
Q 57.328125 34.859375 57.328125 23.390625 
Q 57.328125 12.15625 50.6875 5.359375 
Q 44.046875 -1.421875 33.015625 -1.421875 
Q 20.359375 -1.421875 13.671875 8.265625 
Q 6.984375 17.96875 6.984375 36.375 
Q 6.984375 53.65625 15.1875 63.9375 
Q 23.390625 74.21875 37.203125 74.21875 
Q 40.921875 74.21875 44.703125 73.484375 
Q 48.484375 72.75 52.59375 71.296875 
" id="BitstreamVeraSans-Roman-36"/>
       <path d="M 4.890625 31.390625 
L 31.203125 31.390625 
L 31.203125 23.390625 
L 4.890625 23.390625 
z
" id="BitstreamVeraSans-Roman-2d"/>
      </defs>
      <g transform="translate(36.833459372 302.876875)scale(0.2 -0.2)">
       <use xlink:href="#BitstreamVeraSans-Roman-2d"/>
       <use x="36.083984375" xlink:href="#BitstreamVeraSans-Roman-36"/>
      </g>
     </g>
    </g>
    <g id="xtick_2">
     <g id="line2d_9">
      <path clip-path="url(#pbed24c31f7)" d="M 86.4933 283.68 
L 86.4933 7.2 
" style="fill:none;stroke:#000000;stroke-dasharray:1.000000,3.000000;stroke-dashoffset:0.0;stroke-width:0.5;"/>
     </g>
     <g id="line2d_10">
      <g>
       <use style="stroke:#000000;stroke-width:0.5;" x="86.493300388" xlink:href="#m8dce4e5a27" y="283.68"/>
      </g>
     </g>
     <g id="line2d_11">
      <g>
       <use style="stroke:#000000;stroke-width:0.5;" x="86.493300388" xlink:href="#m82487c6631" y="7.2"/>
      </g>
     </g>
     <g id="text_2">
      <!-- -4 -->
      <defs>
       <path d="M 37.796875 64.3125 
L 12.890625 25.390625 
L 37.796875 25.390625 
z
M 35.203125 72.90625 
L 47.609375 72.90625 
L 47.609375 25.390625 
L 58.015625 25.390625 
L 58.015625 17.1875 
L 47.609375 17.1875 
L 47.609375 0 
L 37.796875 0 
L 37.796875 17.1875 
L 4.890625 17.1875 
L 4.890625 26.703125 
z
" id="BitstreamVeraSans-Roman-34"/>
      </defs>
      <g transform="translate(76.522987888 302.876875)scale(0.2 -0.2)">
       <use xlink:href="#BitstreamVeraSans-Roman-2d"/>
       <use x="36.083984375" xlink:href="#BitstreamVeraSans-Roman-34"/>
      </g>
     </g>
    </g>
    <g id="xtick_3">
     <g id="line2d_12">
      <path clip-path="url(#pbed24c31f7)" d="M 126.182829 283.68 
L 126.182829 7.2 
" style="fill:none;stroke:#000000;stroke-dasharray:1.000000,3.000000;stroke-dashoffset:0.0;stroke-width:0.5;"/>
     </g>
     <g id="line2d_13">
      <g>
       <use style="stroke:#000000;stroke-width:0.5;" x="126.182828904" xlink:href="#m8dce4e5a27" y="283.68"/>
      </g>
     </g>
     <g id="line2d_14">
      <g>
       <use style="stroke:#000000;stroke-width:0.5;" x="126.182828904" xlink:href="#m82487c6631" y="7.2"/>
      </g>
     </g>
     <g id="text_3">
      <!-- -2 -->
      <defs>
       <path d="M 19.1875 8.296875 
L 53.609375 8.296875 
L 53.609375 0 
L 7.328125 0 
L 7.328125 8.296875 
Q 12.9375 14.109375 22.625 23.890625 
Q 32.328125 33.6875 34.8125 36.53125 
Q 39.546875 41.84375 41.421875 45.53125 
Q 43.3125 49.21875 43.3125 52.78125 
Q 43.3125 58.59375 39.234375 62.25 
Q 35.15625 65.921875 28.609375 65.921875 
Q 23.96875 65.921875 18.8125 64.3125 
Q 13.671875 62.703125 7.8125 59.421875 
L 7.8125 69.390625 
Q 13.765625 71.78125 18.9375 73 
Q 24.125 74.21875 28.421875 74.21875 
Q 39.75 74.21875 46.484375 68.546875 
Q 53.21875 62.890625 53.21875 53.421875 
Q 53.21875 48.921875 51.53125 44.890625 
Q 49.859375 40.875 45.40625 35.40625 
Q 44.1875 33.984375 37.640625 27.21875 
Q 31.109375 20.453125 19.1875 8.296875 
" id="BitstreamVeraSans-Roman-32"/>
      </defs>
      <g transform="translate(116.212516404 302.876875)scale(0.2 -0.2)">
       <use xlink:href="#BitstreamVeraSans-Roman-2d"/>
       <use x="36.083984375" xlink:href="#BitstreamVeraSans-Roman-32"/>
      </g>
     </g>
    </g>
    <g id="xtick_4">
     <g id="line2d_15">
      <path clip-path="url(#pbed24c31f7)" d="M 165.872357 283.68 
L 165.872357 7.2 
" style="fill:none;stroke:#000000;stroke-dasharray:1.000000,3.000000;stroke-dashoffset:0.0;stroke-width:0.5;"/>
     </g>
     <g id="line2d_16">
      <g>
       <use style="stroke:#000000;stroke-width:0.5;" x="165.87235742" xlink:href="#m8dce4e5a27" y="283.68"/>
      </g>
     </g>
     <g id="line2d_17">
      <g>
       <use style="stroke:#000000;stroke-width:0.5;" x="165.87235742" xlink:href="#m82487c6631" y="7.2"/>
      </g>
     </g>
     <g id="text_4">
      <!-- 0 -->
      <defs>
       <path d="M 31.78125 66.40625 
Q 24.171875 66.40625 20.328125 58.90625 
Q 16.5 51.421875 16.5 36.375 
Q 16.5 21.390625 20.328125 13.890625 
Q 24.171875 6.390625 31.78125 6.390625 
Q 39.453125 6.390625 43.28125 13.890625 
Q 47.125 21.390625 47.125 36.375 
Q 47.125 51.421875 43.28125 58.90625 
Q 39.453125 66.40625 31.78125 66.40625 
M 31.78125 74.21875 
Q 44.046875 74.21875 50.515625 64.515625 
Q 56.984375 54.828125 56.984375 36.375 
Q 56.984375 17.96875 50.515625 8.265625 
Q 44.046875 -1.421875 31.78125 -1.421875 
Q 19.53125 -1.421875 13.0625 8.265625 
Q 6.59375 17.96875 6.59375 36.375 
Q 6.59375 54.828125 13.0625 64.515625 
Q 19.53125 74.21875 31.78125 74.21875 
" id="BitstreamVeraSans-Roman-30"/>
      </defs>
      <g transform="translate(159.50985742 302.876875)scale(0.2 -0.2)">
       <use xlink:href="#BitstreamVeraSans-Roman-30"/>
      </g>
     </g>
    </g>
    <g id="xtick_5">
     <g id="line2d_18">
      <path clip-path="url(#pbed24c31f7)" d="M 205.561886 283.68 
L 205.561886 7.2 
" style="fill:none;stroke:#000000;stroke-dasharray:1.000000,3.000000;stroke-dashoffset:0.0;stroke-width:0.5;"/>
     </g>
     <g id="line2d_19">
      <g>
       <use style="stroke:#000000;stroke-width:0.5;" x="205.561885936" xlink:href="#m8dce4e5a27" y="283.68"/>
      </g>
     </g>
     <g id="line2d_20">
      <g>
       <use style="stroke:#000000;stroke-width:0.5;" x="205.561885936" xlink:href="#m82487c6631" y="7.2"/>
      </g>
     </g>
     <g id="text_5">
      <!-- 2 -->
      <g transform="translate(199.199385936 302.876875)scale(0.2 -0.2)">
       <use xlink:href="#BitstreamVeraSans-Roman-32"/>
      </g>
     </g>
    </g>
    <g id="xtick_6">
     <g id="line2d_21">
      <path clip-path="url(#pbed24c31f7)" d="M 245.251414 283.68 
L 245.251414 7.2 
" style="fill:none;stroke:#000000;stroke-dasharray:1.000000,3.000000;stroke-dashoffset:0.0;stroke-width:0.5;"/>
     </g>
     <g id="line2d_22">
      <g>
       <use style="stroke:#000000;stroke-width:0.5;" x="245.251414452" xlink:href="#m8dce4e5a27" y="283.68"/>
      </g>
     </g>
     <g id="line2d_23">
      <g>
       <use style="stroke:#000000;stroke-width:0.5;" x="245.251414452" xlink:href="#m82487c6631" y="7.2"/>
      </g>
     </g>
     <g id="text_6">
      <!-- 4 -->
      <g transform="translate(238.888914452 302.876875)scale(0.2 -0.2)">
       <use xlink:href="#BitstreamVeraSans-Roman-34"/>
      </g>
     </g>
    </g>
    <g id="xtick_7">
     <g id="line2d_24">
      <path clip-path="url(#pbed24c31f7)" d="M 284.940943 283.68 
L 284.940943 7.2 
" style="fill:none;stroke:#000000;stroke-dasharray:1.000000,3.000000;stroke-dashoffset:0.0;stroke-width:0.5;"/>
     </g>
     <g id="line2d_25">
      <g>
       <use style="stroke:#000000;stroke-width:0.5;" x="284.940942968" xlink:href="#m8dce4e5a27" y="283.68"/>
      </g>
     </g>
     <g id="line2d_26">
      <g>
       <use style="stroke:#000000;stroke-width:0.5;" x="284.940942968" xlink:href="#m82487c6631" y="7.2"/>
      </g>
     </g>
     <g id="text_7">
      <!-- 6 -->
      <g transform="translate(278.578442968 302.876875)scale(0.2 -0.2)">
       <use xlink:href="#BitstreamVeraSans-Roman-36"/>
      </g>
     </g>
    </g>
    <g id="xtick_8">
     <g id="line2d_27">
      <path clip-path="url(#pbed24c31f7)" d="M 324.630471 283.68 
L 324.630471 7.2 
" style="fill:none;stroke:#000000;stroke-dasharray:1.000000,3.000000;stroke-dashoffset:0.0;stroke-width:0.5;"/>
     </g>
     <g id="line2d_28">
      <g>
       <use style="stroke:#000000;stroke-width:0.5;" x="324.630471484" xlink:href="#m8dce4e5a27" y="283.68"/>
      </g>
     </g>
     <g id="line2d_29">
      <g>
       <use style="stroke:#000000;stroke-width:0.5;" x="324.630471484" xlink:href="#m82487c6631" y="7.2"/>
      </g>
     </g>
     <g id="text_8">
      <!-- 8 -->
      <defs>
       <path d="M 31.78125 34.625 
Q 24.75 34.625 20.71875 30.859375 
Q 16.703125 27.09375 16.703125 20.515625 
Q 16.703125 13.921875 20.71875 10.15625 
Q 24.75 6.390625 31.78125 6.390625 
Q 38.8125 6.390625 42.859375 10.171875 
Q 46.921875 13.96875 46.921875 20.515625 
Q 46.921875 27.09375 42.890625 30.859375 
Q 38.875 34.625 31.78125 34.625 
M 21.921875 38.8125 
Q 15.578125 40.375 12.03125 44.71875 
Q 8.5 49.078125 8.5 55.328125 
Q 8.5 64.0625 14.71875 69.140625 
Q 20.953125 74.21875 31.78125 74.21875 
Q 42.671875 74.21875 48.875 69.140625 
Q 55.078125 64.0625 55.078125 55.328125 
Q 55.078125 49.078125 51.53125 44.71875 
Q 48 40.375 41.703125 38.8125 
Q 48.828125 37.15625 52.796875 32.3125 
Q 56.78125 27.484375 56.78125 20.515625 
Q 56.78125 9.90625 50.3125 4.234375 
Q 43.84375 -1.421875 31.78125 -1.421875 
Q 19.734375 -1.421875 13.25 4.234375 
Q 6.78125 9.90625 6.78125 20.515625 
Q 6.78125 27.484375 10.78125 32.3125 
Q 14.796875 37.15625 21.921875 38.8125 
M 18.3125 54.390625 
Q 18.3125 48.734375 21.84375 45.5625 
Q 25.390625 42.390625 31.78125 42.390625 
Q 38.140625 42.390625 41.71875 45.5625 
Q 45.3125 48.734375 45.3125 54.390625 
Q 45.3125 60.0625 41.71875 63.234375 
Q 38.140625 66.40625 31.78125 66.40625 
Q 25.390625 66.40625 21.84375 63.234375 
Q 18.3125 60.0625 18.3125 54.390625 
" id="BitstreamVeraSans-Roman-38"/>
      </defs>
      <g transform="translate(318.267971484 302.876875)scale(0.2 -0.2)">
       <use xlink:href="#BitstreamVeraSans-Roman-38"/>
      </g>
     </g>
    </g>
    <g id="xtick_9">
     <g id="line2d_30">
      <path clip-path="url(#pbed24c31f7)" d="M 364.32 283.68 
L 364.32 7.2 
" style="fill:none;stroke:#000000;stroke-dasharray:1.000000,3.000000;stroke-dashoffset:0.0;stroke-width:0.5;"/>
     </g>
     <g id="line2d_31">
      <g>
       <use style="stroke:#000000;stroke-width:0.5;" x="364.32" xlink:href="#m8dce4e5a27" y="283.68"/>
      </g>
     </g>
     <g id="line2d_32">
      <g>
       <use style="stroke:#000000;stroke-width:0.5;" x="364.32" xlink:href="#m82487c6631" y="7.2"/>
      </g>
     </g>
    </g>
    <g id="xtick_10">
     <g id="line2d_33">
      <defs>
       <path d="M 0 0 
L 0 -2 
" id="m2f82744cdf" style="stroke:#000000;stroke-width:0.5;"/>
      </defs>
      <g>
       <use style="stroke:#000000;stroke-width:0.5;" x="46.803771872" xlink:href="#m2f82744cdf" y="283.68"/>
      </g>
     </g>
     <g id="line2d_34">
      <defs>
       <path d="M 0 0 
L 0 2 
" id="mfc518dee02" style="stroke:#000000;stroke-width:0.5;"/>
      </defs>
      <g>
       <use style="stroke:#000000;stroke-width:0.5;" x="46.803771872" xlink:href="#mfc518dee02" y="7.2"/>
      </g>
     </g>
    </g>
    <g id="xtick_11">
     <g id="line2d_35">
      <g>
       <use style="stroke:#000000;stroke-width:0.5;" x="86.493300388" xlink:href="#m2f82744cdf" y="283.68"/>
      </g>
     </g>
     <g id="line2d_36">
      <g>
       <use style="stroke:#000000;stroke-width:0.5;" x="86.493300388" xlink:href="#mfc518dee02" y="7.2"/>
      </g>
     </g>
    </g>
    <g id="xtick_12">
     <g id="line2d_37">
      <g>
       <use style="stroke:#000000;stroke-width:0.5;" x="126.182828904" xlink:href="#m2f82744cdf" y="283.68"/>
      </g>
     </g>
     <g id="line2d_38">
      <g>
       <use style="stroke:#000000;stroke-width:0.5;" x="126.182828904" xlink:href="#mfc518dee02" y="7.2"/>
      </g>
     </g>
    </g>
    <g id="xtick_13">
     <g id="line2d_39">
      <g>
       <use style="stroke:#000000;stroke-width:0.5;" x="165.87235742" xlink:href="#m2f82744cdf" y="283.68"/>
      </g>
     </g>
     <g id="line2d_40">
      <g>
       <use style="stroke:#000000;stroke-width:0.5;" x="165.87235742" xlink:href="#mfc518dee02" y="7.2"/>
      </g>
     </g>
    </g>
    <g id="xtick_14">
     <g id="line2d_41">
      <g>
       <use style="stroke:#000000;stroke-width:0.5;" x="205.561885936" xlink:href="#m2f82744cdf" y="283.68"/>
      </g>
     </g>
     <g id="line2d_42">
      <g>
       <use style="stroke:#000000;stroke-width:0.5;" x="205.561885936" xlink:href="#mfc518dee02" y="7.2"/>
      </g>
     </g>
    </g>
    <g id="xtick_15">
     <g id="line2d_43">
      <g>
       <use style="stroke:#000000;stroke-width:0.5;" x="245.251414452" xlink:href="#m2f82744cdf" y="283.68"/>
      </g>
     </g>
     <g id="line2d_44">
      <g>
       <use style="stroke:#000000;stroke-width:0.5;" x="245.251414452" xlink:href="#mfc518dee02" y="7.2"/>
      </g>
     </g>
    </g>
    <g id="xtick_16">
     <g id="line2d_45">
      <g>
       <use style="stroke:#000000;stroke-width:0.5;" x="284.940942968" xlink:href="#m2f82744cdf" y="283.68"/>
      </g>
     </g>
     <g id="line2d_46">
      <g>
       <use style="stroke:#000000;stroke-width:0.5;" x="284.940942968" xlink:href="#mfc518dee02" y="7.2"/>
      </g>
     </g>
    </g>
    <g id="xtick_17">
     <g id="line2d_47">
      <g>
       <use style="stroke:#000000;stroke-width:0.5;" x="324.630471484" xlink:href="#m2f82744cdf" y="283.68"/>
      </g>
     </g>
     <g id="line2d_48">
      <g>
       <use style="stroke:#000000;stroke-width:0.5;" x="324.630471484" xlink:href="#mfc518dee02" y="7.2"/>
      </g>
     </g>
    </g>
    <g id="xtick_18">
     <g id="line2d_49">
      <g>
       <use style="stroke:#000000;stroke-width:0.5;" x="364.32" xlink:href="#m2f82744cdf" y="283.68"/>
      </g>
     </g>
     <g id="line2d_50">
      <g>
       <use style="stroke:#000000;stroke-width:0.5;" x="364.32" xlink:href="#mfc518dee02" y="7.2"/>
      </g>
     </g>
    </g>
    <g id="text_9">
     <!-- log10 of Df -->
     <defs>
      <path id="BitstreamVeraSans-Roman-20"/>
      <path d="M 12.40625 8.296875 
L 28.515625 8.296875 
L 28.515625 63.921875 
L 10.984375 60.40625 
L 10.984375 69.390625 
L 28.421875 72.90625 
L 38.28125 72.90625 
L 38.28125 8.296875 
L 54.390625 8.296875 
L 54.390625 0 
L 12.40625 0 
z
" id="BitstreamVeraSans-Roman-31"/>
      <path d="M 30.609375 48.390625 
Q 23.390625 48.390625 19.1875 42.75 
Q 14.984375 37.109375 14.984375 27.296875 
Q 14.984375 17.484375 19.15625 11.84375 
Q 23.34375 6.203125 30.609375 6.203125 
Q 37.796875 6.203125 41.984375 11.859375 
Q 46.1875 17.53125 46.1875 27.296875 
Q 46.1875 37.015625 41.984375 42.703125 
Q 37.796875 48.390625 30.609375 48.390625 
M 30.609375 56 
Q 42.328125 56 49.015625 48.375 
Q 55.71875 40.765625 55.71875 27.296875 
Q 55.71875 13.875 49.015625 6.21875 
Q 42.328125 -1.421875 30.609375 -1.421875 
Q 18.84375 -1.421875 12.171875 6.21875 
Q 5.515625 13.875 5.515625 27.296875 
Q 5.515625 40.765625 12.171875 48.375 
Q 18.84375 56 30.609375 56 
" id="BitstreamVeraSans-Roman-6f"/>
      <path d="M 9.421875 75.984375 
L 18.40625 75.984375 
L 18.40625 0 
L 9.421875 0 
z
" id="BitstreamVeraSans-Roman-6c"/>
      <path d="M 19.671875 64.796875 
L 19.671875 8.109375 
L 31.59375 8.109375 
Q 46.6875 8.109375 53.6875 14.9375 
Q 60.6875 21.78125 60.6875 36.53125 
Q 60.6875 51.171875 53.6875 57.984375 
Q 46.6875 64.796875 31.59375 64.796875 
z
M 9.8125 72.90625 
L 30.078125 72.90625 
Q 51.265625 72.90625 61.171875 64.09375 
Q 71.09375 55.28125 71.09375 36.53125 
Q 71.09375 17.671875 61.125 8.828125 
Q 51.171875 0 30.078125 0 
L 9.8125 0 
z
" id="BitstreamVeraSans-Roman-44"/>
      <path d="M 45.40625 27.984375 
Q 45.40625 37.75 41.375 43.109375 
Q 37.359375 48.484375 30.078125 48.484375 
Q 22.859375 48.484375 18.828125 43.109375 
Q 14.796875 37.75 14.796875 27.984375 
Q 14.796875 18.265625 18.828125 12.890625 
Q 22.859375 7.515625 30.078125 7.515625 
Q 37.359375 7.515625 41.375 12.890625 
Q 45.40625 18.265625 45.40625 27.984375 
M 54.390625 6.78125 
Q 54.390625 -7.171875 48.1875 -13.984375 
Q 42 -20.796875 29.203125 -20.796875 
Q 24.46875 -20.796875 20.265625 -20.09375 
Q 16.0625 -19.390625 12.109375 -17.921875 
L 12.109375 -9.1875 
Q 16.0625 -11.328125 19.921875 -12.34375 
Q 23.78125 -13.375 27.78125 -13.375 
Q 36.625 -13.375 41.015625 -8.765625 
Q 45.40625 -4.15625 45.40625 5.171875 
L 45.40625 9.625 
Q 42.625 4.78125 38.28125 2.390625 
Q 33.9375 0 27.875 0 
Q 17.828125 0 11.671875 7.65625 
Q 5.515625 15.328125 5.515625 27.984375 
Q 5.515625 40.671875 11.671875 48.328125 
Q 17.828125 56 27.875 56 
Q 33.9375 56 38.28125 53.609375 
Q 42.625 51.21875 45.40625 46.390625 
L 45.40625 54.6875 
L 54.390625 54.6875 
z
" id="BitstreamVeraSans-Roman-67"/>
      <path d="M 37.109375 75.984375 
L 37.109375 68.5 
L 28.515625 68.5 
Q 23.6875 68.5 21.796875 66.546875 
Q 19.921875 64.59375 19.921875 59.515625 
L 19.921875 54.6875 
L 34.71875 54.6875 
L 34.71875 47.703125 
L 19.921875 47.703125 
L 19.921875 0 
L 10.890625 0 
L 10.890625 47.703125 
L 2.296875 47.703125 
L 2.296875 54.6875 
L 10.890625 54.6875 
L 10.890625 58.5 
Q 10.890625 67.625 15.140625 71.796875 
Q 19.390625 75.984375 28.609375 75.984375 
z
" id="BitstreamVeraSans-Roman-66"/>
     </defs>
     <g transform="translate(130.5740625 327.233125)scale(0.2 -0.2)">
      <use xlink:href="#BitstreamVeraSans-Roman-6c"/>
      <use x="27.783203125" xlink:href="#BitstreamVeraSans-Roman-6f"/>
      <use x="88.96484375" xlink:href="#BitstreamVeraSans-Roman-67"/>
      <use x="152.44140625" xlink:href="#BitstreamVeraSans-Roman-31"/>
      <use x="216.064453125" xlink:href="#BitstreamVeraSans-Roman-30"/>
      <use x="279.6875" xlink:href="#BitstreamVeraSans-Roman-20"/>
      <use x="311.474609375" xlink:href="#BitstreamVeraSans-Roman-6f"/>
      <use x="372.65625" xlink:href="#BitstreamVeraSans-Roman-66"/>
      <use x="407.861328125" xlink:href="#BitstreamVeraSans-Roman-20"/>
      <use x="439.6484375" xlink:href="#BitstreamVeraSans-Roman-44"/>
      <use x="516.650390625" xlink:href="#BitstreamVeraSans-Roman-66"/>
     </g>
    </g>
   </g>
   <g id="matplotlib.axis_2">
    <g id="ytick_1">
     <g id="line2d_51">
      <path clip-path="url(#pbed24c31f7)" d="M 7.2 283.68 
L 364.32 283.68 
" style="fill:none;stroke:#000000;stroke-dasharray:1.000000,3.000000;stroke-dashoffset:0.0;stroke-width:0.5;"/>
     </g>
     <g id="line2d_52">
      <defs>
       <path d="M 0 0 
L 4 0 
" id="m5cd6b0c4a9" style="stroke:#000000;stroke-width:0.5;"/>
      </defs>
      <g>
       <use style="stroke:#000000;stroke-width:0.5;" x="7.2" xlink:href="#m5cd6b0c4a9" y="283.68"/>
      </g>
     </g>
     <g id="line2d_53">
      <defs>
       <path d="M 0 0 
L -4 0 
" id="m76100fac6c" style="stroke:#000000;stroke-width:0.5;"/>
      </defs>
      <g>
       <use style="stroke:#000000;stroke-width:0.5;" x="364.32" xlink:href="#m76100fac6c" y="283.68"/>
      </g>
     </g>
    </g>
    <g id="ytick_2">
     <g id="line2d_54">
      <path clip-path="url(#pbed24c31f7)" d="M 7.2 228.931485 
L 364.32 228.931485 
" style="fill:none;stroke:#000000;stroke-dasharray:1.000000,3.000000;stroke-dashoffset:0.0;stroke-width:0.5;"/>
     </g>
     <g id="line2d_55">
      <g>
       <use style="stroke:#000000;stroke-width:0.5;" x="7.2" xlink:href="#m5cd6b0c4a9" y="228.931485149"/>
      </g>
     </g>
     <g id="line2d_56">
      <g>
       <use style="stroke:#000000;stroke-width:0.5;" x="364.32" xlink:href="#m76100fac6c" y="228.931485149"/>
      </g>
     </g>
    </g>
    <g id="ytick_3">
     <g id="line2d_57">
      <path clip-path="url(#pbed24c31f7)" d="M 7.2 174.18297 
L 364.32 174.18297 
" style="fill:none;stroke:#000000;stroke-dasharray:1.000000,3.000000;stroke-dashoffset:0.0;stroke-width:0.5;"/>
     </g>
     <g id="line2d_58">
      <g>
       <use style="stroke:#000000;stroke-width:0.5;" x="7.2" xlink:href="#m5cd6b0c4a9" y="174.182970297"/>
      </g>
     </g>
     <g id="line2d_59">
      <g>
       <use style="stroke:#000000;stroke-width:0.5;" x="364.32" xlink:href="#m76100fac6c" y="174.182970297"/>
      </g>
     </g>
    </g>
    <g id="ytick_4">
     <g id="line2d_60">
      <path clip-path="url(#pbed24c31f7)" d="M 7.2 119.434455 
L 364.32 119.434455 
" style="fill:none;stroke:#000000;stroke-dasharray:1.000000,3.000000;stroke-dashoffset:0.0;stroke-width:0.5;"/>
     </g>
     <g id="line2d_61">
      <g>
       <use style="stroke:#000000;stroke-width:0.5;" x="7.2" xlink:href="#m5cd6b0c4a9" y="119.434455446"/>
      </g>
     </g>
     <g id="line2d_62">
      <g>
       <use style="stroke:#000000;stroke-width:0.5;" x="364.32" xlink:href="#m76100fac6c" y="119.434455446"/>
      </g>
     </g>
    </g>
    <g id="ytick_5">
     <g id="line2d_63">
      <path clip-path="url(#pbed24c31f7)" d="M 7.2 64.685941 
L 364.32 64.685941 
" style="fill:none;stroke:#000000;stroke-dasharray:1.000000,3.000000;stroke-dashoffset:0.0;stroke-width:0.5;"/>
     </g>
     <g id="line2d_64">
      <g>
       <use style="stroke:#000000;stroke-width:0.5;" x="7.2" xlink:href="#m5cd6b0c4a9" y="64.6859405941"/>
      </g>
     </g>
     <g id="line2d_65">
      <g>
       <use style="stroke:#000000;stroke-width:0.5;" x="364.32" xlink:href="#m76100fac6c" y="64.6859405941"/>
      </g>
     </g>
    </g>
    <g id="ytick_6">
     <g id="line2d_66">
      <path clip-path="url(#pbed24c31f7)" d="M 7.2 9.937426 
L 364.32 9.937426 
" style="fill:none;stroke:#000000;stroke-dasharray:1.000000,3.000000;stroke-dashoffset:0.0;stroke-width:0.5;"/>
     </g>
     <g id="line2d_67">
      <g>
       <use style="stroke:#000000;stroke-width:0.5;" x="7.2" xlink:href="#m5cd6b0c4a9" y="9.93742574257"/>
      </g>
     </g>
     <g id="line2d_68">
      <g>
       <use style="stroke:#000000;stroke-width:0.5;" x="364.32" xlink:href="#m76100fac6c" y="9.93742574257"/>
      </g>
     </g>
    </g>
   </g>
   <g id="text_10">
    <!-- f15-19,20-D -->
    <defs>
     <path d="M 11.71875 12.40625 
L 22.015625 12.40625 
L 22.015625 4 
L 14.015625 -11.625 
L 7.71875 -11.625 
L 11.71875 4 
z
" id="BitstreamVeraSans-Roman-2c"/>
     <path d="M 10.984375 1.515625 
L 10.984375 10.5 
Q 14.703125 8.734375 18.5 7.8125 
Q 22.3125 6.890625 25.984375 6.890625 
Q 35.75 6.890625 40.890625 13.453125 
Q 46.046875 20.015625 46.78125 33.40625 
Q 43.953125 29.203125 39.59375 26.953125 
Q 35.25 24.703125 29.984375 24.703125 
Q 19.046875 24.703125 12.671875 31.3125 
Q 6.296875 37.9375 6.296875 49.421875 
Q 6.296875 60.640625 12.9375 67.421875 
Q 19.578125 74.21875 30.609375 74.21875 
Q 43.265625 74.21875 49.921875 64.515625 
Q 56.59375 54.828125 56.59375 36.375 
Q 56.59375 19.140625 48.40625 8.859375 
Q 40.234375 -1.421875 26.421875 -1.421875 
Q 22.703125 -1.421875 18.890625 -0.6875 
Q 15.09375 0.046875 10.984375 1.515625 
M 30.609375 32.421875 
Q 37.25 32.421875 41.125 36.953125 
Q 45.015625 41.5 45.015625 49.421875 
Q 45.015625 57.28125 41.125 61.84375 
Q 37.25 66.40625 30.609375 66.40625 
Q 23.96875 66.40625 20.09375 61.84375 
Q 16.21875 57.28125 16.21875 49.421875 
Q 16.21875 41.5 20.09375 36.953125 
Q 23.96875 32.421875 30.609375 32.421875 
" id="BitstreamVeraSans-Roman-39"/>
     <path d="M 10.796875 72.90625 
L 49.515625 72.90625 
L 49.515625 64.59375 
L 19.828125 64.59375 
L 19.828125 46.734375 
Q 21.96875 47.46875 24.109375 47.828125 
Q 26.265625 48.1875 28.421875 48.1875 
Q 40.625 48.1875 47.75 41.5 
Q 54.890625 34.8125 54.890625 23.390625 
Q 54.890625 11.625 47.5625 5.09375 
Q 40.234375 -1.421875 26.90625 -1.421875 
Q 22.3125 -1.421875 17.546875 -0.640625 
Q 12.796875 0.140625 7.71875 1.703125 
L 7.71875 11.625 
Q 12.109375 9.234375 16.796875 8.0625 
Q 21.484375 6.890625 26.703125 6.890625 
Q 35.15625 6.890625 40.078125 11.328125 
Q 45.015625 15.765625 45.015625 23.390625 
Q 45.015625 31 40.078125 35.4375 
Q 35.15625 39.890625 26.703125 39.890625 
Q 22.75 39.890625 18.8125 39.015625 
Q 14.890625 38.140625 10.796875 36.28125 
z
" id="BitstreamVeraSans-Roman-35"/>
    </defs>
    <g transform="translate(237.599475 278.1504)scale(0.2 -0.2)">
     <use xlink:href="#BitstreamVeraSans-Roman-66"/>
     <use x="35.205078125" xlink:href="#BitstreamVeraSans-Roman-31"/>
     <use x="98.828125" xlink:href="#BitstreamVeraSans-Roman-35"/>
     <use x="162.451171875" xlink:href="#BitstreamVeraSans-Roman-2d"/>
     <use x="198.53515625" xlink:href="#BitstreamVeraSans-Roman-31"/>
     <use x="262.158203125" xlink:href="#BitstreamVeraSans-Roman-39"/>
     <use x="325.78125" xlink:href="#BitstreamVeraSans-Roman-2c"/>
     <use x="357.568359375" xlink:href="#BitstreamVeraSans-Roman-32"/>
     <use x="421.19140625" xlink:href="#BitstreamVeraSans-Roman-30"/>
     <use x="484.814453125" xlink:href="#BitstreamVeraSans-Roman-2d"/>
     <use x="520.8984375" xlink:href="#BitstreamVeraSans-Roman-44"/>
    </g>
   </g>
  </g>
 </g>
 <defs>
  <clipPath id="pbed24c31f7">
   <rect height="276.48" width="357.12" x="7.2" y="7.2"/>
  </clipPath>
 </defs>
</svg>
