<?xml version="1.0" encoding="utf-8" standalone="no"?>
<!DOCTYPE svg PUBLIC "-//W3C//DTD SVG 1.1//EN"
  "http://www.w3.org/Graphics/SVG/1.1/DTD/svg11.dtd">
<!-- Created with matplotlib (http://matplotlib.org/) -->
<svg height="345pt" version="1.1" viewBox="0 0 431 345" width="431pt" xmlns="http://www.w3.org/2000/svg" xmlns:xlink="http://www.w3.org/1999/xlink">
 <defs>
  <style type="text/css">
*{stroke-linecap:butt;stroke-linejoin:round;stroke-miterlimit:100000;}
  </style>
 </defs>
 <g id="figure_1">
  <g id="patch_1">
   <path d="M 0 345.533199 
L 431.6825 345.533199 
L 431.6825 0 
L 0 0 
z
" style="fill:#ffffff;"/>
  </g>
  <g id="axes_1">
   <g id="patch_2">
    <path d="M 67.3625 290.620699 
L 424.4825 290.620699 
L 424.4825 14.140699 
L 67.3625 14.140699 
z
" style="fill:#ffffff;"/>
   </g>
   <g id="line2d_1">
    <path clip-path="url(#pc3eabfed38)" d="M 236.721224 290.620699 
L 236.721224 286.970798 
L 281.83423 286.970798 
L 281.83423 283.320897 
L 399.693545 283.320897 
L 399.693545 279.670996 
L 432.6825 279.670996 
" style="fill:none;stroke:#f5deb3;stroke-linecap:square;"/>
   </g>
   <g id="line2d_2">
    <path clip-path="url(#pc3eabfed38)" d="M 393.158744 290.620699 
L 393.158744 286.970798 
L 395.746479 286.970798 
L 395.818544 279.670996 
L 396.728687 279.670996 
L 396.728687 276.021095 
L 397.466373 276.021095 
L 397.466373 272.371194 
L 397.65785 272.371194 
L 397.65785 268.721293 
L 400.653425 268.721293 
L 400.653425 265.071392 
L 401.434552 265.071392 
L 401.434552 261.421491 
L 402.624033 261.421491 
L 402.624033 257.77159 
L 403.686357 257.77159 
L 403.686357 254.121689 
L 404.491861 254.121689 
L 404.491861 250.471788 
L 404.871069 250.471788 
L 404.871069 246.821887 
L 405.658469 246.821887 
L 405.658469 243.171986 
L 406.850274 243.171986 
L 406.937473 235.872184 
L 407.075238 235.872184 
L 407.075238 232.222283 
L 407.543783 232.222283 
L 407.543783 228.572382 
L 409.955164 228.572382 
L 409.955164 224.922481 
L 411.14674 224.922481 
L 411.14674 221.27258 
L 413.991831 221.27258 
L 413.991831 217.622679 
L 415.299112 217.622679 
L 415.299112 213.972778 
L 416.34466 213.972778 
L 416.362816 206.672976 
L 417.428796 206.672976 
L 417.428796 203.023075 
L 418.111838 203.023075 
L 418.111838 199.373175 
L 418.380222 199.373175 
L 418.380222 195.723274 
L 419.616478 195.723274 
L 419.616478 192.073373 
L 421.359508 192.073373 
L 421.359508 188.423472 
L 422.014566 188.423472 
L 422.047102 181.12367 
L 424.420403 181.12367 
L 424.420403 177.473769 
L 424.642572 177.473769 
L 424.642572 173.823868 
L 424.776445 173.823868 
L 424.776445 170.173967 
L 426.226621 170.173967 
L 426.286588 162.874165 
L 426.744036 162.874165 
L 426.744036 159.224264 
L 429.505522 159.224264 
L 429.505522 155.574363 
L 432.6825 155.574363 
L 432.6825 155.574363 
" style="fill:none;stroke:#f5deb3;stroke-linecap:square;"/>
   </g>
   <g id="line2d_3">
    <path clip-path="url(#pc3eabfed38)" style="fill:none;stroke:#f5deb3;stroke-linecap:square;"/>
   </g>
   <g id="line2d_4">
    <path clip-path="url(#pc3eabfed38)" d="M 329.611345 290.620699 
L 329.611345 279.670996 
L 350.978308 279.670996 
L 350.978308 268.721293 
L 352.456617 268.721293 
L 352.456617 257.77159 
L 356.538432 257.77159 
L 356.538432 246.821887 
L 404.976751 246.821887 
L 404.976751 235.872184 
L 413.737822 235.872184 
L 413.737822 224.922481 
L 432.6825 224.922481 
" style="fill:none;stroke:#f5deb3;stroke-linecap:square;"/>
   </g>
   <g id="line2d_5">
    <path clip-path="url(#pc3eabfed38)" d="M 290.661527 290.620699 
L 290.661527 286.970798 
L 291.072518 286.970798 
L 291.072518 283.320897 
L 291.817623 283.320897 
L 291.817623 279.670996 
L 293.014195 279.670996 
L 293.014195 276.021095 
L 295.327353 276.021095 
L 295.327353 272.371194 
L 298.790563 272.371194 
L 298.790563 268.721293 
L 299.606844 268.721293 
L 299.606844 265.071392 
L 299.722411 265.071392 
L 299.722411 261.421491 
L 299.722411 261.421491 
L 299.722411 257.77159 
L 301.257804 257.77159 
L 301.257804 254.121689 
L 301.257804 254.121689 
L 301.257804 250.471788 
L 304.567466 250.471788 
L 304.567466 246.821887 
L 305.710986 246.821887 
L 305.710986 243.171986 
L 306.018516 243.171986 
L 306.018516 239.522085 
L 308.415061 239.522085 
L 308.415061 235.872184 
L 308.658431 235.872184 
L 308.658431 232.222283 
L 309.477428 232.222283 
L 309.477428 228.572382 
L 309.62062 228.572382 
L 309.62062 224.922481 
L 310.142292 224.922481 
L 310.142292 221.27258 
L 310.330693 221.27258 
L 310.330693 217.622679 
L 312.313812 217.622679 
L 312.313812 213.972778 
L 312.764304 213.972778 
L 312.764304 210.322877 
L 315.217013 210.322877 
L 315.217013 206.672976 
L 317.721917 206.672976 
L 317.721917 203.023075 
L 319.5634 203.023075 
L 319.5634 199.373175 
L 320.421455 199.373175 
L 320.421455 195.723274 
L 320.883554 195.723274 
L 320.883554 192.073373 
L 322.133438 192.073373 
L 322.133438 188.423472 
L 322.802671 188.423472 
L 322.802671 184.773571 
L 323.134068 184.773571 
L 323.134068 181.12367 
L 323.134068 181.12367 
L 323.134068 177.473769 
L 324.581782 177.473769 
L 324.581782 173.823868 
L 324.581782 173.823868 
L 324.581782 170.173967 
L 325.396226 170.173967 
L 325.396226 166.524066 
L 325.746371 166.524066 
L 325.746371 162.874165 
L 327.49614 162.874165 
L 327.49614 159.224264 
L 327.76532 159.224264 
L 327.76532 155.574363 
L 328.233041 155.574363 
L 328.233041 151.924462 
L 328.630604 151.924462 
L 328.630604 148.274561 
L 333.056189 148.274561 
L 333.056189 144.62466 
L 333.056189 144.62466 
L 333.056189 140.974759 
L 334.254069 140.974759 
L 334.254069 137.324858 
L 338.295562 137.324858 
L 338.295562 133.674957 
L 338.623053 133.674957 
L 338.623053 130.025056 
L 338.840234 130.025056 
L 338.840234 126.375155 
L 342.094887 126.375155 
L 342.094887 122.725254 
L 342.247293 122.725254 
L 342.247293 119.075353 
L 343.747142 119.075353 
L 343.747142 115.425452 
L 344.602378 115.425452 
L 344.602378 111.775551 
L 346.692204 111.775551 
L 346.692204 108.12565 
L 352.28979 108.12565 
L 352.28979 104.475749 
L 352.435793 104.475749 
L 352.435793 100.825848 
L 352.871344 100.825848 
L 352.871344 97.175947 
L 354.317332 97.175947 
L 354.317332 93.526046 
L 367.474774 93.526046 
L 367.474774 89.876145 
L 393.262887 89.876145 
L 393.262887 86.226244 
L 432.6825 86.226244 
" style="fill:none;stroke:#f5deb3;stroke-linecap:square;"/>
   </g>
   <g id="line2d_6"/>
   <g id="line2d_7">
    <path clip-path="url(#pc3eabfed38)" d="M 280.929071 290.620699 
L 280.929071 286.970798 
L 281.012016 286.970798 
L 281.012016 283.320897 
L 284.225233 283.320897 
L 284.225233 279.670996 
L 287.470346 279.670996 
L 287.470346 276.021095 
L 291.884831 276.021095 
L 291.884831 272.371194 
L 292.352854 272.371194 
L 292.352854 268.721293 
L 298.790563 268.721293 
L 298.790563 265.071392 
L 312.087086 265.071392 
L 312.087086 261.421491 
L 342.977652 261.421491 
L 342.977652 257.77159 
L 432.6825 257.77159 
" style="fill:none;stroke:#f5deb3;stroke-linecap:square;"/>
   </g>
   <g id="line2d_8">
    <path clip-path="url(#pc3eabfed38)" style="fill:none;stroke:#f5deb3;stroke-linecap:square;"/>
   </g>
   <g id="line2d_9">
    <path clip-path="url(#pc3eabfed38)" style="fill:none;stroke:#f5deb3;stroke-linecap:square;"/>
   </g>
   <g id="line2d_10"/>
   <g id="line2d_11">
    <path clip-path="url(#pc3eabfed38)" d="M 214.066114 290.620699 
L 214.066114 286.970798 
L 214.667472 286.970798 
L 214.667472 283.320897 
L 219.242048 283.320897 
L 219.242048 279.670996 
L 227.797183 279.670996 
L 227.797183 276.021095 
L 229.843364 276.021095 
L 229.843364 272.371194 
L 235.33677 272.371194 
L 235.33677 268.721293 
L 263.759926 268.721293 
L 263.759926 265.071392 
L 265.801619 265.071392 
L 265.801619 261.421491 
L 287.029581 261.421491 
L 287.029581 257.77159 
L 432.6825 257.77159 
" style="fill:none;stroke:#f5deb3;stroke-linecap:square;"/>
   </g>
   <g id="line2d_12">
    <path clip-path="url(#pc3eabfed38)" d="M 286.659385 290.620699 
L 286.659385 286.970798 
L 292.94844 286.970798 
L 292.94844 283.320897 
L 294.24791 283.320897 
L 294.24791 279.670996 
L 294.885602 279.670996 
L 294.885602 276.021095 
L 297.901438 276.021095 
L 297.901438 272.371194 
L 298.318266 272.371194 
L 298.318266 268.721293 
L 298.554954 268.721293 
L 298.554954 265.071392 
L 299.895279 265.071392 
L 299.895279 261.421491 
L 300.637766 261.421491 
L 300.637766 257.77159 
L 300.751054 257.77159 
L 300.751054 254.121689 
L 302.476014 254.121689 
L 302.476014 250.471788 
L 302.803332 250.471788 
L 302.803332 246.821887 
L 303.612679 246.821887 
L 303.612679 243.171986 
L 303.773039 243.171986 
L 303.773039 239.522085 
L 305.090384 239.522085 
L 305.090384 235.872184 
L 305.608068 235.872184 
L 305.608068 232.222283 
L 306.729053 232.222283 
L 306.729053 228.572382 
L 307.727466 228.572382 
L 307.727466 224.922481 
L 309.572934 224.922481 
L 309.572934 221.27258 
L 311.031149 221.27258 
L 311.031149 217.622679 
L 311.216346 217.622679 
L 311.216346 213.972778 
L 313.87366 213.972778 
L 313.87366 210.322877 
L 320.537368 210.322877 
L 320.575947 203.023075 
L 320.768416 203.023075 
L 320.768416 199.373175 
L 322.058541 199.373175 
L 322.058541 195.723274 
L 324.546078 195.723274 
L 324.546078 192.073373 
L 329.578951 192.073373 
L 329.578951 188.423472 
L 329.740716 188.423472 
L 329.740716 184.773571 
L 329.934169 184.773571 
L 329.934169 181.12367 
L 330.637366 181.12367 
L 330.637366 177.473769 
L 331.39374 177.473769 
L 331.487514 170.173967 
L 331.984789 170.173967 
L 331.984789 166.524066 
L 332.477327 166.524066 
L 332.538566 159.224264 
L 333.83796 159.224264 
L 333.83796 155.574363 
L 335.16371 155.574363 
L 335.16371 151.924462 
L 336.569673 151.924462 
L 336.569673 148.274561 
L 336.682776 148.274561 
L 336.682776 144.62466 
L 337.910849 144.62466 
L 337.910849 140.974759 
L 341.890979 140.974759 
L 341.890979 137.324858 
L 342.777202 137.324858 
L 342.777202 133.674957 
L 343.574384 133.674957 
L 343.574384 130.025056 
L 345.300442 130.025056 
L 345.300442 126.375155 
L 345.538986 126.375155 
L 345.538986 122.725254 
L 346.130575 122.725254 
L 346.130575 119.075353 
L 346.785219 119.075353 
L 346.785219 115.425452 
L 346.901253 115.425452 
L 346.901253 111.775551 
L 347.546273 111.775551 
L 347.546273 108.12565 
L 348.251143 108.12565 
L 348.251143 104.475749 
L 349.852116 104.475749 
L 349.852116 100.825848 
L 350.331578 100.825848 
L 350.331578 97.175947 
L 351.595885 97.175947 
L 351.595885 93.526046 
L 355.938537 93.526046 
L 355.938537 89.876145 
L 357.112425 89.876145 
L 357.112425 86.226244 
L 358.278863 86.226244 
L 358.278863 82.576343 
L 360.285738 82.576343 
L 360.285738 78.926442 
L 363.089422 78.926442 
L 363.089422 75.276541 
L 368.400782 75.276541 
L 368.400782 71.62664 
L 432.6825 71.62664 
L 432.6825 71.62664 
" style="fill:none;stroke:#f5deb3;stroke-linecap:square;"/>
   </g>
   <g id="line2d_13">
    <path clip-path="url(#pc3eabfed38)" style="fill:none;stroke:#f5deb3;stroke-linecap:square;"/>
   </g>
   <g id="line2d_14">
    <path clip-path="url(#pc3eabfed38)" d="M 298.731761 290.620699 
L 298.731761 286.970798 
L 327.428625 286.970798 
L 327.428625 283.320897 
L 330.030624 283.320897 
L 330.030624 279.670996 
L 335.569329 279.670996 
L 335.569329 276.021095 
L 336.964455 276.021095 
L 336.964455 272.371194 
L 340.3618 272.371194 
L 340.3618 268.721293 
L 352.83002 268.721293 
L 352.83002 265.071392 
L 354.417654 265.071392 
L 354.417654 261.421491 
L 359.655594 261.421491 
L 359.655594 257.77159 
L 360.748925 257.77159 
L 360.748925 254.121689 
L 369.774326 254.121689 
L 369.774326 250.471788 
L 370.440304 250.471788 
L 370.440304 246.821887 
L 370.850404 246.821887 
L 370.850404 243.171986 
L 371.199347 243.171986 
L 371.199347 239.522085 
L 372.95164 239.522085 
L 372.95164 235.872184 
L 373.564332 235.872184 
L 373.564332 232.222283 
L 374.361037 232.222283 
L 374.361037 228.572382 
L 374.754835 228.572382 
L 374.754835 224.922481 
L 375.078483 224.922481 
L 375.078483 221.27258 
L 376.6018 221.27258 
L 376.6018 217.622679 
L 379.557089 217.622679 
L 379.557089 213.972778 
L 379.925614 213.972778 
L 379.925614 210.322877 
L 381.72985 210.322877 
L 381.72985 206.672976 
L 382.35259 206.672976 
L 382.35259 203.023075 
L 382.469251 203.023075 
L 382.469251 199.373175 
L 382.97946 199.373175 
L 382.97946 195.723274 
L 383.140749 195.723274 
L 383.140749 192.073373 
L 383.814994 192.073373 
L 383.814994 188.423472 
L 383.973703 188.423472 
L 383.973703 184.773571 
L 384.626068 184.773571 
L 384.626068 181.12367 
L 384.681923 181.12367 
L 384.681923 177.473769 
L 384.860255 177.473769 
L 384.860255 173.823868 
L 386.900154 173.823868 
L 386.900154 170.173967 
L 387.958863 170.173967 
L 387.958863 166.524066 
L 390.733498 166.524066 
L 390.733498 162.874165 
L 393.479964 162.874165 
L 393.479964 159.224264 
L 394.283664 159.224264 
L 394.283664 155.574363 
L 395.466271 155.574363 
L 395.466271 151.924462 
L 397.352893 151.924462 
L 397.352893 148.274561 
L 400.841648 148.274561 
L 400.841648 144.62466 
L 400.972182 144.62466 
L 400.972182 140.974759 
L 401.828751 140.974759 
L 401.828751 137.324858 
L 407.558132 137.324858 
L 407.558132 133.674957 
L 409.279577 133.674957 
L 409.279577 130.025056 
L 409.355849 130.025056 
L 409.355849 126.375155 
L 409.879771 126.375155 
L 409.879771 122.725254 
L 410.71661 122.725254 
L 410.71661 119.075353 
L 413.142383 119.075353 
L 413.142383 115.425452 
L 415.931415 115.425452 
L 415.931415 111.775551 
L 416.211324 111.775551 
L 416.211324 108.12565 
L 425.774642 108.12565 
L 425.774642 104.475749 
L 432.6825 104.475749 
" style="fill:none;stroke:#f5deb3;stroke-linecap:square;"/>
   </g>
   <g id="line2d_15">
    <path clip-path="url(#pc3eabfed38)" d="M 375.733042 290.620699 
L 375.733042 286.970798 
L 382.504199 286.970798 
L 382.504199 283.320897 
L 390.374703 283.320897 
L 390.374703 279.670996 
L 395.321052 279.670996 
L 395.321052 276.021095 
L 400.126041 276.021095 
L 400.126041 272.371194 
L 403.438354 272.371194 
L 403.438354 268.721293 
L 409.473504 268.721293 
L 409.473504 265.071392 
L 411.652917 265.071392 
L 411.652917 261.421491 
L 411.752237 261.421491 
L 411.752237 257.77159 
L 413.21317 257.77159 
L 413.21317 254.121689 
L 416.30833 254.121689 
L 416.30833 250.471788 
L 417.458424 250.471788 
L 417.458424 246.821887 
L 417.877324 246.821887 
L 417.877324 243.171986 
L 430.408031 243.171986 
L 430.408031 239.522085 
L 431.69696 239.522085 
L 431.69696 235.872184 
L 432.6825 235.872184 
" style="fill:none;stroke:#f5deb3;stroke-linecap:square;"/>
   </g>
   <g id="line2d_16">
    <path clip-path="url(#pc3eabfed38)" d="M 275.599995 290.620699 
L 275.599995 286.970798 
L 293.341721 286.970798 
L 293.341721 283.320897 
L 294.312034 283.320897 
L 294.312034 279.670996 
L 295.264476 279.670996 
L 295.264476 276.021095 
L 297.178965 276.021095 
L 297.178965 272.371194 
L 299.374933 272.371194 
L 299.374933 268.721293 
L 302.14661 268.721293 
L 302.14661 265.071392 
L 328.233041 265.071392 
L 328.233041 261.421491 
L 387.569662 261.421491 
L 387.569662 257.77159 
L 387.832957 257.77159 
L 387.832957 254.121689 
L 396.34695 254.121689 
L 396.34695 250.471788 
L 398.96176 250.471788 
L 398.96176 246.821887 
L 405.99229 246.821887 
L 405.99229 243.171986 
L 427.192566 243.171986 
L 427.192566 239.522085 
L 430.311093 239.522085 
L 430.311093 235.872184 
L 432.6825 235.872184 
" style="fill:none;stroke:#f5deb3;stroke-linecap:square;"/>
   </g>
   <g id="line2d_17">
    <path clip-path="url(#pc3eabfed38)" d="M 407.6871 290.620699 
L 407.6871 286.970798 
L 409.797399 286.970798 
L 409.797399 283.320897 
L 421.649849 283.320897 
L 421.649849 279.670996 
L 422.773805 279.670996 
L 422.773805 276.021095 
L 423.590505 276.021095 
L 423.590505 272.371194 
L 425.1811 272.371194 
L 425.1811 268.721293 
L 432.6825 268.721293 
" style="fill:none;stroke:#f5deb3;stroke-linecap:square;"/>
   </g>
   <g id="line2d_18">
    <path clip-path="url(#pc3eabfed38)" d="M 226.386654 290.620699 
L 226.386654 286.970798 
L 228.258937 286.970798 
L 228.258937 283.320897 
L 235.934652 283.320897 
L 235.934652 279.670996 
L 236.329433 279.670996 
L 236.329433 276.021095 
L 249.3046 276.021095 
L 249.3046 272.371194 
L 252.565725 272.371194 
L 252.565725 268.721293 
L 253.561666 268.721293 
L 253.561666 265.071392 
L 255.90341 265.071392 
L 255.90341 261.421491 
L 259.793678 261.421491 
L 259.793678 257.77159 
L 260.290952 257.77159 
L 260.290952 254.121689 
L 262.352597 254.121689 
L 262.352597 250.471788 
L 262.825975 250.471788 
L 262.825975 246.821887 
L 264.563523 246.821887 
L 264.563523 243.171986 
L 264.904136 243.171986 
L 264.904136 239.522085 
L 267.872723 239.522085 
L 267.872723 235.872184 
L 279.923214 235.872184 
L 279.923214 232.222283 
L 413.572044 232.222283 
L 413.572044 228.572382 
L 429.762991 228.572382 
L 429.762991 224.922481 
L 432.6825 224.922481 
" style="fill:none;stroke:#f5deb3;stroke-linecap:square;"/>
   </g>
   <g id="line2d_19">
    <path clip-path="url(#pc3eabfed38)" style="fill:none;stroke:#f5deb3;stroke-linecap:square;"/>
   </g>
   <g id="line2d_20">
    <path clip-path="url(#pc3eabfed38)" d="M 371.2428 290.620699 
L 371.2428 286.970798 
L 380.763387 286.970798 
L 380.763387 283.320897 
L 386.868055 283.320897 
L 386.868055 279.670996 
L 387.039018 279.670996 
L 387.039018 276.021095 
L 391.217893 276.021095 
L 391.217893 272.371194 
L 392.711394 272.371194 
L 392.711394 268.721293 
L 396.061027 268.721293 
L 396.061027 265.071392 
L 400.183986 265.071392 
L 400.183986 261.421491 
L 400.25013 261.421491 
L 400.25013 257.77159 
L 402.734403 257.77159 
L 402.734403 254.121689 
L 405.292507 254.121689 
L 405.292507 250.471788 
L 405.427243 250.471788 
L 405.427243 246.821887 
L 407.92271 246.821887 
L 407.92271 243.171986 
L 408.150159 243.171986 
L 408.150159 239.522085 
L 410.32369 239.522085 
L 410.32369 235.872184 
L 412.806437 235.872184 
L 412.806437 232.222283 
L 413.013431 232.222283 
L 413.013431 228.572382 
L 413.476161 228.572382 
L 413.476161 224.922481 
L 416.994278 224.922481 
L 416.994278 221.27258 
L 420.72386 221.27258 
L 420.72386 217.622679 
L 422.128353 217.622679 
L 422.128353 213.972778 
L 422.295868 213.972778 
L 422.295868 210.322877 
L 424.129629 210.322877 
L 424.129629 206.672976 
L 425.03804 206.672976 
L 425.03804 203.023075 
L 425.920711 203.023075 
L 425.920711 199.373175 
L 426.176596 199.373175 
L 426.176596 195.723274 
L 427.826649 195.723274 
L 427.826649 192.073373 
L 431.755404 192.073373 
L 431.755404 188.423472 
L 432.6825 188.423472 
" style="fill:none;stroke:#f5deb3;stroke-linecap:square;"/>
   </g>
   <g id="line2d_21">
    <path clip-path="url(#pc3eabfed38)" d="M 325.641576 290.620699 
L 325.641576 286.970798 
L 333.35827 286.970798 
L 333.35827 283.320897 
L 366.81656 283.320897 
L 366.81656 279.670996 
L 415.26822 279.670996 
L 415.26822 276.021095 
L 432.6825 276.021095 
" style="fill:none;stroke:#f5deb3;stroke-linecap:square;"/>
   </g>
   <g id="line2d_22">
    <path clip-path="url(#pc3eabfed38)" style="fill:none;stroke:#f5deb3;stroke-linecap:square;"/>
   </g>
   <g id="line2d_23">
    <path clip-path="url(#pc3eabfed38)" style="fill:none;stroke:#f5deb3;stroke-linecap:square;"/>
   </g>
   <g id="line2d_24">
    <path clip-path="url(#pc3eabfed38)" style="fill:none;stroke:#f5deb3;stroke-linecap:square;"/>
   </g>
   <g id="line2d_25">
    <path clip-path="url(#pc3eabfed38)" d="M 298.849298 290.620699 
L 298.849298 286.970798 
L 300.864095 286.970798 
L 300.864095 283.320897 
L 303.773039 283.320897 
L 303.773039 279.670996 
L 304.145291 279.670996 
L 304.145291 276.021095 
L 305.608068 276.021095 
L 305.608068 272.371194 
L 305.864979 272.371194 
L 305.864979 268.721293 
L 306.779434 268.721293 
L 306.779434 265.071392 
L 307.974086 265.071392 
L 307.974086 261.421491 
L 308.366249 261.421491 
L 308.366249 257.77159 
L 309.381746 257.77159 
L 309.381746 254.121689 
L 311.170109 254.121689 
L 311.170109 250.471788 
L 311.722244 250.471788 
L 311.722244 246.821887 
L 311.76799 246.821887 
L 311.76799 243.171986 
L 312.539549 243.171986 
L 312.539549 239.522085 
L 313.521248 239.522085 
L 313.521248 235.872184 
L 313.697754 235.872184 
L 313.697754 232.222283 
L 314.354337 232.222283 
L 314.354337 228.572382 
L 314.528028 228.572382 
L 314.528028 224.922481 
L 316.149624 224.922481 
L 316.149624 221.27258 
L 316.317398 221.27258 
L 316.317398 217.622679 
L 316.817478 217.622679 
L 316.817478 213.972778 
L 317.681148 213.972778 
L 317.681148 210.322877 
L 323.060608 210.322877 
L 323.060608 206.672976 
L 324.43882 206.672976 
L 324.43882 203.023075 
L 324.546078 203.023075 
L 324.546078 199.373175 
L 325.220261 199.373175 
L 325.220261 195.723274 
L 327.899387 195.723274 
L 327.899387 192.073373 
L 328.795358 192.073373 
L 328.795358 188.423472 
L 328.959589 188.423472 
L 328.959589 184.773571 
L 334.105843 184.773571 
L 334.105843 181.12367 
L 336.314284 181.12367 
L 336.314284 177.473769 
L 336.427946 177.473769 
L 336.427946 173.823868 
L 337.188699 173.823868 
L 337.188699 170.173967 
L 338.921442 170.173967 
L 338.921442 166.524066 
L 339.352413 166.524066 
L 339.352413 162.874165 
L 341.454986 162.874165 
L 341.454986 159.224264 
L 342.777202 159.224264 
L 342.777202 155.574363 
L 345.515181 155.574363 
L 345.515181 151.924462 
L 346.5757 151.924462 
L 346.5757 148.274561 
L 346.645634 148.274561 
L 346.645634 144.62466 
L 347.477548 144.62466 
L 347.477548 140.974759 
L 348.835005 140.974759 
L 348.835005 137.324858 
L 351.277369 137.324858 
L 351.277369 133.674957 
L 351.38376 133.674957 
L 351.38376 130.025056 
L 353.772202 130.025056 
L 353.772202 126.375155 
L 356.30704 126.375155 
L 356.30704 122.725254 
L 356.653742 122.725254 
L 356.653742 119.075353 
L 357.302348 119.075353 
L 357.302348 115.425452 
L 357.736544 115.425452 
L 357.736544 111.775551 
L 358.446019 111.775551 
L 358.446019 108.12565 
L 359.109292 108.12565 
L 359.109292 104.475749 
L 362.698082 104.475749 
L 362.698082 100.825848 
L 365.668327 100.825848 
L 365.668327 97.175947 
L 366.642777 97.175947 
L 366.642777 93.526046 
L 369.535452 93.526046 
L 369.535452 89.876145 
L 370.86499 89.876145 
L 370.86499 86.226244 
L 382.887068 86.226244 
L 382.887068 82.576343 
L 384.525377 82.576343 
L 384.525377 78.926442 
L 389.761003 78.926442 
L 389.761003 75.276541 
L 432.6825 75.276541 
" style="fill:none;stroke:#f5deb3;stroke-linecap:square;"/>
   </g>
   <g id="line2d_26">
    <path clip-path="url(#pc3eabfed38)" style="fill:none;stroke:#f5deb3;stroke-linecap:square;"/>
   </g>
   <g id="line2d_27">
    <path clip-path="url(#pc3eabfed38)" d="M 345.634096 290.620699 
L 345.634096 286.970798 
L 347.224769 286.970798 
L 347.224769 283.320897 
L 352.435793 283.320897 
L 352.435793 279.670996 
L 353.568835 279.670996 
L 353.568835 276.021095 
L 353.650278 276.021095 
L 353.650278 272.371194 
L 353.873587 272.371194 
L 353.873587 268.721293 
L 355.469276 268.721293 
L 355.469276 265.071392 
L 355.508544 265.071392 
L 355.508544 261.421491 
L 355.56739 261.421491 
L 355.56739 257.77159 
L 356.016335 257.77159 
L 356.016335 254.121689 
L 356.05519 254.121689 
L 356.05519 250.471788 
L 359.017678 250.471788 
L 359.017678 246.821887 
L 359.292035 246.821887 
L 359.292035 243.171986 
L 359.474134 243.171986 
L 359.474134 239.522085 
L 359.655594 239.522085 
L 359.655594 235.872184 
L 361.225575 235.872184 
L 361.225575 232.222283 
L 362.079543 232.222283 
L 362.079543 228.572382 
L 362.406916 228.572382 
L 362.406916 224.922481 
L 362.800457 224.922481 
L 362.800457 221.27258 
L 363.69607 221.27258 
L 363.69607 217.622679 
L 363.996747 217.622679 
L 363.996747 213.972778 
L 365.409665 213.972778 
L 365.409665 210.322877 
L 366.229681 210.322877 
L 366.229681 206.672976 
L 366.59528 206.672976 
L 366.59528 203.023075 
L 367.08399 203.023075 
L 367.08399 199.373175 
L 367.318815 199.373175 
L 367.318815 195.723274 
L 368.354874 195.723274 
L 368.354874 192.073373 
L 368.599251 192.073373 
L 368.599251 188.423472 
L 369.265393 188.423472 
L 369.265393 184.773571 
L 369.655027 184.773571 
L 369.655027 181.12367 
L 370.850404 181.12367 
L 370.850404 177.473769 
L 376.588745 177.473769 
L 376.588745 173.823868 
L 379.371837 173.823868 
L 379.371837 170.173967 
L 381.777111 170.173967 
L 381.777111 166.524066 
L 383.255648 166.524066 
L 383.255648 162.874165 
L 384.949191 162.874165 
L 384.949191 159.224264 
L 385.589442 159.224264 
L 385.589442 155.574363 
L 385.600412 155.574363 
L 385.600412 151.924462 
L 386.124235 151.924462 
L 386.124235 148.274561 
L 386.438159 148.274561 
L 386.438159 144.62466 
L 386.77164 144.62466 
L 386.77164 140.974759 
L 386.964291 140.974759 
L 386.964291 137.324858 
L 388.000764 137.324858 
L 388.000764 133.674957 
L 389.750881 133.674957 
L 389.750881 130.025056 
L 389.86211 130.025056 
L 389.86211 126.375155 
L 390.114016 126.375155 
L 390.114016 122.725254 
L 390.703693 122.725254 
L 390.703693 119.075353 
L 391.139117 119.075353 
L 391.139117 115.425452 
L 391.316194 115.425452 
L 391.316194 111.775551 
L 391.688043 111.775551 
L 391.688043 108.12565 
L 391.853535 108.12565 
L 391.853535 104.475749 
L 393.32905 104.475749 
L 393.32905 100.825848 
L 393.93008 100.825848 
L 393.93008 97.175947 
L 394.19085 97.175947 
L 394.19085 93.526046 
L 394.588776 93.526046 
L 394.588776 89.876145 
L 394.882932 89.876145 
L 394.882932 86.226244 
L 395.211869 86.226244 
L 395.211869 82.576343 
L 395.755492 82.576343 
L 395.755492 78.926442 
L 397.735977 78.926442 
L 397.735977 75.276541 
L 398.927864 75.276541 
L 398.927864 71.62664 
L 398.927864 71.62664 
L 398.927864 71.62664 
L 424.4825 71.62664 
" style="fill:none;stroke:#f5deb3;stroke-linecap:square;"/>
   </g>
   <g id="line2d_28">
    <path clip-path="url(#pc3eabfed38)" style="fill:none;stroke:#f5deb3;stroke-linecap:square;"/>
   </g>
   <g id="line2d_29">
    <path clip-path="url(#pc3eabfed38)" d="M 229.619968 290.620699 
L 229.619968 286.970798 
L 229.619968 286.970798 
L 229.619968 283.320897 
L 229.619968 283.320897 
L 229.619968 279.670996 
L 350.892543 279.670996 
L 350.892543 276.021095 
L 350.892543 276.021095 
L 350.892543 272.371194 
L 350.892543 272.371194 
L 350.892543 268.721293 
L 430.329571 268.721293 
L 430.329571 265.071392 
L 430.329571 265.071392 
L 430.329571 261.421491 
L 430.329571 261.421491 
L 430.329571 257.77159 
L 431.579873 257.77159 
L 431.579873 254.121689 
L 431.579873 254.121689 
L 431.579873 250.471788 
L 431.579873 250.471788 
L 431.579873 246.821887 
L 432.6825 246.821887 
" style="fill:none;stroke:#f5deb3;stroke-linecap:square;"/>
   </g>
   <g id="line2d_30">
    <path clip-path="url(#pc3eabfed38)" d="M 4.974984 290.620699 
L 4.974984 286.970798 
L 4.974984 286.970798 
L 4.974984 283.320897 
L 19.852799 283.320897 
L 19.852799 279.670996 
L 55.699717 279.670996 
L 55.699717 276.021095 
L 61.791005 276.021095 
L 61.791005 272.371194 
L 67.239847 272.371194 
L 67.239847 268.721293 
L 97.637923 268.721293 
L 97.637923 265.071392 
L 112.515738 265.071392 
L 112.515738 261.421491 
L 114.626895 261.421491 
L 114.626895 257.77159 
L 120.487821 257.77159 
L 120.487821 254.121689 
L 128.984946 254.121689 
L 128.984946 250.471788 
L 128.984946 250.471788 
L 128.984946 246.821887 
L 136.280991 246.821887 
L 136.280991 243.171986 
L 145.024971 243.171986 
L 145.024971 239.522085 
L 159.033586 239.522085 
L 159.033586 235.872184 
L 166.375745 235.872184 
L 166.375745 232.222283 
L 170.748729 232.222283 
L 170.748729 228.572382 
L 177.915875 228.572382 
L 177.915875 224.922481 
L 184.745498 224.922481 
L 184.745498 221.27258 
L 184.745498 221.27258 
L 184.745498 217.622679 
L 186.320731 217.622679 
L 186.320731 213.972778 
L 186.835324 213.972778 
L 186.835324 210.322877 
L 187.344848 210.322877 
L 187.344848 206.672976 
L 188.843972 206.672976 
L 188.843972 203.023075 
L 190.300862 203.023075 
L 190.300862 199.373175 
L 190.777512 199.373175 
L 190.777512 195.723274 
L 194.880504 195.723274 
L 194.880504 192.073373 
L 205.536576 192.073373 
L 205.536576 188.423472 
L 217.573639 188.423472 
L 217.573639 184.773571 
L 220.325148 184.773571 
L 220.325148 181.12367 
L 249.151367 181.12367 
L 249.151367 177.473769 
L 275.230592 177.473769 
L 275.230592 173.823868 
L 280.512339 173.823868 
L 280.512339 170.173967 
L 298.258925 170.173967 
L 298.258925 166.524066 
L 301.648537 166.524066 
L 301.648537 162.874165 
L 306.729053 162.874165 
L 306.729053 159.224264 
L 306.729053 159.224264 
L 306.729053 159.224264 
L 424.4825 159.224264 
" style="fill:none;stroke:#000000;stroke-linecap:square;"/>
   </g>
   <g id="line2d_31"/>
   <g id="line2d_32">
    <path clip-path="url(#pc3eabfed38)" d="M 164.042289 290.620699 
L 164.042289 286.970798 
L 187.344848 286.970798 
L 187.344848 283.320897 
L 224.195995 283.320897 
L 224.195995 279.670996 
L 290.108407 279.670996 
L 290.108407 276.021095 
L 301.5372 276.021095 
L 301.5372 272.371194 
L 301.5372 272.371194 
L 301.5372 272.371194 
L 424.4825 272.371194 
" style="fill:none;stroke:#00bfbf;stroke-linecap:square;"/>
   </g>
   <g id="line2d_33"/>
   <g id="line2d_34"/>
   <g id="line2d_35"/>
   <g id="line2d_36">
    <path clip-path="url(#pc3eabfed38)" d="M 313.785782 290.620699 
L 313.785782 14.140699 
" style="fill:none;stroke:#000000;stroke-linecap:square;"/>
   </g>
   <g id="patch_3">
    <path d="M 67.3625 14.140699 
L 424.4825 14.140699 
" style="fill:none;stroke:#000000;stroke-linecap:square;stroke-linejoin:miter;"/>
   </g>
   <g id="patch_4">
    <path d="M 424.4825 290.620699 
L 424.4825 14.140699 
" style="fill:none;stroke:#000000;stroke-linecap:square;stroke-linejoin:miter;"/>
   </g>
   <g id="patch_5">
    <path d="M 67.3625 290.620699 
L 424.4825 290.620699 
" style="fill:none;stroke:#000000;stroke-linecap:square;stroke-linejoin:miter;"/>
   </g>
   <g id="patch_6">
    <path d="M 67.3625 290.620699 
L 67.3625 14.140699 
" style="fill:none;stroke:#000000;stroke-linecap:square;stroke-linejoin:miter;"/>
   </g>
   <g id="matplotlib.axis_1">
    <g id="xtick_1">
     <g id="line2d_37">
      <path clip-path="url(#pc3eabfed38)" d="M 103.086765 290.620699 
L 103.086765 14.140699 
" style="fill:none;stroke:#000000;stroke-dasharray:1.000000,3.000000;stroke-dashoffset:0.0;stroke-width:0.5;"/>
     </g>
     <g id="line2d_38">
      <defs>
       <path d="M 0 0 
L 0 -4 
" id="m842ad2bb8c" style="stroke:#000000;stroke-width:0.5;"/>
      </defs>
      <g>
       <use style="stroke:#000000;stroke-width:0.5;" x="103.086765279" xlink:href="#m842ad2bb8c" y="290.620699257"/>
      </g>
     </g>
     <g id="line2d_39">
      <defs>
       <path d="M 0 0 
L 0 4 
" id="m811764a088" style="stroke:#000000;stroke-width:0.5;"/>
      </defs>
      <g>
       <use style="stroke:#000000;stroke-width:0.5;" x="103.086765279" xlink:href="#m811764a088" y="14.1406992574"/>
      </g>
     </g>
     <g id="text_1">
      <!-- 0 -->
      <defs>
       <path d="M 31.78125 66.40625 
Q 24.171875 66.40625 20.328125 58.90625 
Q 16.5 51.421875 16.5 36.375 
Q 16.5 21.390625 20.328125 13.890625 
Q 24.171875 6.390625 31.78125 6.390625 
Q 39.453125 6.390625 43.28125 13.890625 
Q 47.125 21.390625 47.125 36.375 
Q 47.125 51.421875 43.28125 58.90625 
Q 39.453125 66.40625 31.78125 66.40625 
M 31.78125 74.21875 
Q 44.046875 74.21875 50.515625 64.515625 
Q 56.984375 54.828125 56.984375 36.375 
Q 56.984375 17.96875 50.515625 8.265625 
Q 44.046875 -1.421875 31.78125 -1.421875 
Q 19.53125 -1.421875 13.0625 8.265625 
Q 6.59375 17.96875 6.59375 36.375 
Q 6.59375 54.828125 13.0625 64.515625 
Q 19.53125 74.21875 31.78125 74.21875 
" id="BitstreamVeraSans-Roman-30"/>
      </defs>
      <g transform="translate(96.7242652794 309.817574257)scale(0.2 -0.2)">
       <use xlink:href="#BitstreamVeraSans-Roman-30"/>
      </g>
     </g>
    </g>
    <g id="xtick_2">
     <g id="line2d_40">
      <path clip-path="url(#pc3eabfed38)" d="M 222.16765 290.620699 
L 222.16765 14.140699 
" style="fill:none;stroke:#000000;stroke-dasharray:1.000000,3.000000;stroke-dashoffset:0.0;stroke-width:0.5;"/>
     </g>
     <g id="line2d_41">
      <g>
       <use style="stroke:#000000;stroke-width:0.5;" x="222.167649544" xlink:href="#m842ad2bb8c" y="290.620699257"/>
      </g>
     </g>
     <g id="line2d_42">
      <g>
       <use style="stroke:#000000;stroke-width:0.5;" x="222.167649544" xlink:href="#m811764a088" y="14.1406992574"/>
      </g>
     </g>
     <g id="text_2">
      <!-- 1 -->
      <defs>
       <path d="M 12.40625 8.296875 
L 28.515625 8.296875 
L 28.515625 63.921875 
L 10.984375 60.40625 
L 10.984375 69.390625 
L 28.421875 72.90625 
L 38.28125 72.90625 
L 38.28125 8.296875 
L 54.390625 8.296875 
L 54.390625 0 
L 12.40625 0 
z
" id="BitstreamVeraSans-Roman-31"/>
      </defs>
      <g transform="translate(215.805149544 309.817574257)scale(0.2 -0.2)">
       <use xlink:href="#BitstreamVeraSans-Roman-31"/>
      </g>
     </g>
    </g>
    <g id="xtick_3">
     <g id="line2d_43">
      <path clip-path="url(#pc3eabfed38)" d="M 341.248534 290.620699 
L 341.248534 14.140699 
" style="fill:none;stroke:#000000;stroke-dasharray:1.000000,3.000000;stroke-dashoffset:0.0;stroke-width:0.5;"/>
     </g>
     <g id="line2d_44">
      <g>
       <use style="stroke:#000000;stroke-width:0.5;" x="341.248533809" xlink:href="#m842ad2bb8c" y="290.620699257"/>
      </g>
     </g>
     <g id="line2d_45">
      <g>
       <use style="stroke:#000000;stroke-width:0.5;" x="341.248533809" xlink:href="#m811764a088" y="14.1406992574"/>
      </g>
     </g>
     <g id="text_3">
      <!-- 2 -->
      <defs>
       <path d="M 19.1875 8.296875 
L 53.609375 8.296875 
L 53.609375 0 
L 7.328125 0 
L 7.328125 8.296875 
Q 12.9375 14.109375 22.625 23.890625 
Q 32.328125 33.6875 34.8125 36.53125 
Q 39.546875 41.84375 41.421875 45.53125 
Q 43.3125 49.21875 43.3125 52.78125 
Q 43.3125 58.59375 39.234375 62.25 
Q 35.15625 65.921875 28.609375 65.921875 
Q 23.96875 65.921875 18.8125 64.3125 
Q 13.671875 62.703125 7.8125 59.421875 
L 7.8125 69.390625 
Q 13.765625 71.78125 18.9375 73 
Q 24.125 74.21875 28.421875 74.21875 
Q 39.75 74.21875 46.484375 68.546875 
Q 53.21875 62.890625 53.21875 53.421875 
Q 53.21875 48.921875 51.53125 44.890625 
Q 49.859375 40.875 45.40625 35.40625 
Q 44.1875 33.984375 37.640625 27.21875 
Q 31.109375 20.453125 19.1875 8.296875 
" id="BitstreamVeraSans-Roman-32"/>
      </defs>
      <g transform="translate(334.886033809 309.817574257)scale(0.2 -0.2)">
       <use xlink:href="#BitstreamVeraSans-Roman-32"/>
      </g>
     </g>
    </g>
    <g id="xtick_4">
     <g id="line2d_46">
      <defs>
       <path d="M 0 0 
L 0 -2 
" id="m8e1584c9bd" style="stroke:#000000;stroke-width:0.5;"/>
      </defs>
      <g>
       <use style="stroke:#000000;stroke-width:0.5;" x="76.6688200021" xlink:href="#m8e1584c9bd" y="290.620699257"/>
      </g>
     </g>
     <g id="line2d_47">
      <defs>
       <path d="M 0 0 
L 0 2 
" id="mc3aa42ee81" style="stroke:#000000;stroke-width:0.5;"/>
      </defs>
      <g>
       <use style="stroke:#000000;stroke-width:0.5;" x="76.6688200021" xlink:href="#mc3aa42ee81" y="14.1406992574"/>
      </g>
     </g>
    </g>
    <g id="xtick_5">
     <g id="line2d_48">
      <g>
       <use style="stroke:#000000;stroke-width:0.5;" x="84.64090291" xlink:href="#m8e1584c9bd" y="290.620699257"/>
      </g>
     </g>
     <g id="line2d_49">
      <g>
       <use style="stroke:#000000;stroke-width:0.5;" x="84.64090291" xlink:href="#mc3aa42ee81" y="14.1406992574"/>
      </g>
     </g>
    </g>
    <g id="xtick_6">
     <g id="line2d_50">
      <g>
       <use style="stroke:#000000;stroke-width:0.5;" x="91.5466352363" xlink:href="#m8e1584c9bd" y="290.620699257"/>
      </g>
     </g>
     <g id="line2d_51">
      <g>
       <use style="stroke:#000000;stroke-width:0.5;" x="91.5466352363" xlink:href="#mc3aa42ee81" y="14.1406992574"/>
      </g>
     </g>
    </g>
    <g id="xtick_7">
     <g id="line2d_52">
      <g>
       <use style="stroke:#000000;stroke-width:0.5;" x="97.6379228417" xlink:href="#m8e1584c9bd" y="290.620699257"/>
      </g>
     </g>
     <g id="line2d_53">
      <g>
       <use style="stroke:#000000;stroke-width:0.5;" x="97.6379228417" xlink:href="#mc3aa42ee81" y="14.1406992574"/>
      </g>
     </g>
    </g>
    <g id="xtick_8">
     <g id="line2d_54">
      <g>
       <use style="stroke:#000000;stroke-width:0.5;" x="138.933683353" xlink:href="#m8e1584c9bd" y="290.620699257"/>
      </g>
     </g>
     <g id="line2d_55">
      <g>
       <use style="stroke:#000000;stroke-width:0.5;" x="138.933683353" xlink:href="#mc3aa42ee81" y="14.1406992574"/>
      </g>
     </g>
    </g>
    <g id="xtick_9">
     <g id="line2d_56">
      <g>
       <use style="stroke:#000000;stroke-width:0.5;" x="159.902786193" xlink:href="#m8e1584c9bd" y="290.620699257"/>
      </g>
     </g>
     <g id="line2d_57">
      <g>
       <use style="stroke:#000000;stroke-width:0.5;" x="159.902786193" xlink:href="#mc3aa42ee81" y="14.1406992574"/>
      </g>
     </g>
    </g>
    <g id="xtick_10">
     <g id="line2d_58">
      <g>
       <use style="stroke:#000000;stroke-width:0.5;" x="174.780601427" xlink:href="#m8e1584c9bd" y="290.620699257"/>
      </g>
     </g>
     <g id="line2d_59">
      <g>
       <use style="stroke:#000000;stroke-width:0.5;" x="174.780601427" xlink:href="#mc3aa42ee81" y="14.1406992574"/>
      </g>
     </g>
    </g>
    <g id="xtick_11">
     <g id="line2d_60">
      <g>
       <use style="stroke:#000000;stroke-width:0.5;" x="186.32073147" xlink:href="#m8e1584c9bd" y="290.620699257"/>
      </g>
     </g>
     <g id="line2d_61">
      <g>
       <use style="stroke:#000000;stroke-width:0.5;" x="186.32073147" xlink:href="#mc3aa42ee81" y="14.1406992574"/>
      </g>
     </g>
    </g>
    <g id="xtick_12">
     <g id="line2d_62">
      <g>
       <use style="stroke:#000000;stroke-width:0.5;" x="195.749704267" xlink:href="#m8e1584c9bd" y="290.620699257"/>
      </g>
     </g>
     <g id="line2d_63">
      <g>
       <use style="stroke:#000000;stroke-width:0.5;" x="195.749704267" xlink:href="#mc3aa42ee81" y="14.1406992574"/>
      </g>
     </g>
    </g>
    <g id="xtick_13">
     <g id="line2d_64">
      <g>
       <use style="stroke:#000000;stroke-width:0.5;" x="203.721787175" xlink:href="#m8e1584c9bd" y="290.620699257"/>
      </g>
     </g>
     <g id="line2d_65">
      <g>
       <use style="stroke:#000000;stroke-width:0.5;" x="203.721787175" xlink:href="#mc3aa42ee81" y="14.1406992574"/>
      </g>
     </g>
    </g>
    <g id="xtick_14">
     <g id="line2d_66">
      <g>
       <use style="stroke:#000000;stroke-width:0.5;" x="210.627519501" xlink:href="#m8e1584c9bd" y="290.620699257"/>
      </g>
     </g>
     <g id="line2d_67">
      <g>
       <use style="stroke:#000000;stroke-width:0.5;" x="210.627519501" xlink:href="#mc3aa42ee81" y="14.1406992574"/>
      </g>
     </g>
    </g>
    <g id="xtick_15">
     <g id="line2d_68">
      <g>
       <use style="stroke:#000000;stroke-width:0.5;" x="216.718807107" xlink:href="#m8e1584c9bd" y="290.620699257"/>
      </g>
     </g>
     <g id="line2d_69">
      <g>
       <use style="stroke:#000000;stroke-width:0.5;" x="216.718807107" xlink:href="#mc3aa42ee81" y="14.1406992574"/>
      </g>
     </g>
    </g>
    <g id="xtick_16">
     <g id="line2d_70">
      <g>
       <use style="stroke:#000000;stroke-width:0.5;" x="258.014567618" xlink:href="#m8e1584c9bd" y="290.620699257"/>
      </g>
     </g>
     <g id="line2d_71">
      <g>
       <use style="stroke:#000000;stroke-width:0.5;" x="258.014567618" xlink:href="#mc3aa42ee81" y="14.1406992574"/>
      </g>
     </g>
    </g>
    <g id="xtick_17">
     <g id="line2d_72">
      <g>
       <use style="stroke:#000000;stroke-width:0.5;" x="278.983670458" xlink:href="#m8e1584c9bd" y="290.620699257"/>
      </g>
     </g>
     <g id="line2d_73">
      <g>
       <use style="stroke:#000000;stroke-width:0.5;" x="278.983670458" xlink:href="#mc3aa42ee81" y="14.1406992574"/>
      </g>
     </g>
    </g>
    <g id="xtick_18">
     <g id="line2d_74">
      <g>
       <use style="stroke:#000000;stroke-width:0.5;" x="293.861485692" xlink:href="#m8e1584c9bd" y="290.620699257"/>
      </g>
     </g>
     <g id="line2d_75">
      <g>
       <use style="stroke:#000000;stroke-width:0.5;" x="293.861485692" xlink:href="#mc3aa42ee81" y="14.1406992574"/>
      </g>
     </g>
    </g>
    <g id="xtick_19">
     <g id="line2d_76">
      <g>
       <use style="stroke:#000000;stroke-width:0.5;" x="305.401615735" xlink:href="#m8e1584c9bd" y="290.620699257"/>
      </g>
     </g>
     <g id="line2d_77">
      <g>
       <use style="stroke:#000000;stroke-width:0.5;" x="305.401615735" xlink:href="#mc3aa42ee81" y="14.1406992574"/>
      </g>
     </g>
    </g>
    <g id="xtick_20">
     <g id="line2d_78">
      <g>
       <use style="stroke:#000000;stroke-width:0.5;" x="314.830588532" xlink:href="#m8e1584c9bd" y="290.620699257"/>
      </g>
     </g>
     <g id="line2d_79">
      <g>
       <use style="stroke:#000000;stroke-width:0.5;" x="314.830588532" xlink:href="#mc3aa42ee81" y="14.1406992574"/>
      </g>
     </g>
    </g>
    <g id="xtick_21">
     <g id="line2d_80">
      <g>
       <use style="stroke:#000000;stroke-width:0.5;" x="322.80267144" xlink:href="#m8e1584c9bd" y="290.620699257"/>
      </g>
     </g>
     <g id="line2d_81">
      <g>
       <use style="stroke:#000000;stroke-width:0.5;" x="322.80267144" xlink:href="#mc3aa42ee81" y="14.1406992574"/>
      </g>
     </g>
    </g>
    <g id="xtick_22">
     <g id="line2d_82">
      <g>
       <use style="stroke:#000000;stroke-width:0.5;" x="329.708403766" xlink:href="#m8e1584c9bd" y="290.620699257"/>
      </g>
     </g>
     <g id="line2d_83">
      <g>
       <use style="stroke:#000000;stroke-width:0.5;" x="329.708403766" xlink:href="#mc3aa42ee81" y="14.1406992574"/>
      </g>
     </g>
    </g>
    <g id="xtick_23">
     <g id="line2d_84">
      <g>
       <use style="stroke:#000000;stroke-width:0.5;" x="335.799691371" xlink:href="#m8e1584c9bd" y="290.620699257"/>
      </g>
     </g>
     <g id="line2d_85">
      <g>
       <use style="stroke:#000000;stroke-width:0.5;" x="335.799691371" xlink:href="#mc3aa42ee81" y="14.1406992574"/>
      </g>
     </g>
    </g>
    <g id="xtick_24">
     <g id="line2d_86">
      <g>
       <use style="stroke:#000000;stroke-width:0.5;" x="377.095451883" xlink:href="#m8e1584c9bd" y="290.620699257"/>
      </g>
     </g>
     <g id="line2d_87">
      <g>
       <use style="stroke:#000000;stroke-width:0.5;" x="377.095451883" xlink:href="#mc3aa42ee81" y="14.1406992574"/>
      </g>
     </g>
    </g>
    <g id="xtick_25">
     <g id="line2d_88">
      <g>
       <use style="stroke:#000000;stroke-width:0.5;" x="398.064554723" xlink:href="#m8e1584c9bd" y="290.620699257"/>
      </g>
     </g>
     <g id="line2d_89">
      <g>
       <use style="stroke:#000000;stroke-width:0.5;" x="398.064554723" xlink:href="#mc3aa42ee81" y="14.1406992574"/>
      </g>
     </g>
    </g>
    <g id="xtick_26">
     <g id="line2d_90">
      <g>
       <use style="stroke:#000000;stroke-width:0.5;" x="412.942369957" xlink:href="#m8e1584c9bd" y="290.620699257"/>
      </g>
     </g>
     <g id="line2d_91">
      <g>
       <use style="stroke:#000000;stroke-width:0.5;" x="412.942369957" xlink:href="#mc3aa42ee81" y="14.1406992574"/>
      </g>
     </g>
    </g>
    <g id="xtick_27">
     <g id="line2d_92">
      <g>
       <use style="stroke:#000000;stroke-width:0.5;" x="424.4825" xlink:href="#m8e1584c9bd" y="290.620699257"/>
      </g>
     </g>
     <g id="line2d_93">
      <g>
       <use style="stroke:#000000;stroke-width:0.5;" x="424.4825" xlink:href="#mc3aa42ee81" y="14.1406992574"/>
      </g>
     </g>
    </g>
    <g id="text_4">
     <!-- log10 of FEvals / DIM -->
     <defs>
      <path id="BitstreamVeraSans-Roman-20"/>
      <path d="M 9.8125 72.90625 
L 24.515625 72.90625 
L 43.109375 23.296875 
L 61.8125 72.90625 
L 76.515625 72.90625 
L 76.515625 0 
L 66.890625 0 
L 66.890625 64.015625 
L 48.09375 14.015625 
L 38.1875 14.015625 
L 19.390625 64.015625 
L 19.390625 0 
L 9.8125 0 
z
" id="BitstreamVeraSans-Roman-4d"/>
      <path d="M 30.609375 48.390625 
Q 23.390625 48.390625 19.1875 42.75 
Q 14.984375 37.109375 14.984375 27.296875 
Q 14.984375 17.484375 19.15625 11.84375 
Q 23.34375 6.203125 30.609375 6.203125 
Q 37.796875 6.203125 41.984375 11.859375 
Q 46.1875 17.53125 46.1875 27.296875 
Q 46.1875 37.015625 41.984375 42.703125 
Q 37.796875 48.390625 30.609375 48.390625 
M 30.609375 56 
Q 42.328125 56 49.015625 48.375 
Q 55.71875 40.765625 55.71875 27.296875 
Q 55.71875 13.875 49.015625 6.21875 
Q 42.328125 -1.421875 30.609375 -1.421875 
Q 18.84375 -1.421875 12.171875 6.21875 
Q 5.515625 13.875 5.515625 27.296875 
Q 5.515625 40.765625 12.171875 48.375 
Q 18.84375 56 30.609375 56 
" id="BitstreamVeraSans-Roman-6f"/>
      <path d="M 9.421875 75.984375 
L 18.40625 75.984375 
L 18.40625 0 
L 9.421875 0 
z
" id="BitstreamVeraSans-Roman-6c"/>
      <path d="M 9.8125 72.90625 
L 51.703125 72.90625 
L 51.703125 64.59375 
L 19.671875 64.59375 
L 19.671875 43.109375 
L 48.578125 43.109375 
L 48.578125 34.8125 
L 19.671875 34.8125 
L 19.671875 0 
L 9.8125 0 
z
" id="BitstreamVeraSans-Roman-46"/>
      <path d="M 9.8125 72.90625 
L 55.90625 72.90625 
L 55.90625 64.59375 
L 19.671875 64.59375 
L 19.671875 43.015625 
L 54.390625 43.015625 
L 54.390625 34.71875 
L 19.671875 34.71875 
L 19.671875 8.296875 
L 56.78125 8.296875 
L 56.78125 0 
L 9.8125 0 
z
" id="BitstreamVeraSans-Roman-45"/>
      <path d="M 19.671875 64.796875 
L 19.671875 8.109375 
L 31.59375 8.109375 
Q 46.6875 8.109375 53.6875 14.9375 
Q 60.6875 21.78125 60.6875 36.53125 
Q 60.6875 51.171875 53.6875 57.984375 
Q 46.6875 64.796875 31.59375 64.796875 
z
M 9.8125 72.90625 
L 30.078125 72.90625 
Q 51.265625 72.90625 61.171875 64.09375 
Q 71.09375 55.28125 71.09375 36.53125 
Q 71.09375 17.671875 61.125 8.828125 
Q 51.171875 0 30.078125 0 
L 9.8125 0 
z
" id="BitstreamVeraSans-Roman-44"/>
      <path d="M 25.390625 72.90625 
L 33.6875 72.90625 
L 8.296875 -9.28125 
L 0 -9.28125 
z
" id="BitstreamVeraSans-Roman-2f"/>
      <path d="M 2.984375 54.6875 
L 12.5 54.6875 
L 29.59375 8.796875 
L 46.6875 54.6875 
L 56.203125 54.6875 
L 35.6875 0 
L 23.484375 0 
z
" id="BitstreamVeraSans-Roman-76"/>
      <path d="M 45.40625 27.984375 
Q 45.40625 37.75 41.375 43.109375 
Q 37.359375 48.484375 30.078125 48.484375 
Q 22.859375 48.484375 18.828125 43.109375 
Q 14.796875 37.75 14.796875 27.984375 
Q 14.796875 18.265625 18.828125 12.890625 
Q 22.859375 7.515625 30.078125 7.515625 
Q 37.359375 7.515625 41.375 12.890625 
Q 45.40625 18.265625 45.40625 27.984375 
M 54.390625 6.78125 
Q 54.390625 -7.171875 48.1875 -13.984375 
Q 42 -20.796875 29.203125 -20.796875 
Q 24.46875 -20.796875 20.265625 -20.09375 
Q 16.0625 -19.390625 12.109375 -17.921875 
L 12.109375 -9.1875 
Q 16.0625 -11.328125 19.921875 -12.34375 
Q 23.78125 -13.375 27.78125 -13.375 
Q 36.625 -13.375 41.015625 -8.765625 
Q 45.40625 -4.15625 45.40625 5.171875 
L 45.40625 9.625 
Q 42.625 4.78125 38.28125 2.390625 
Q 33.9375 0 27.875 0 
Q 17.828125 0 11.671875 7.65625 
Q 5.515625 15.328125 5.515625 27.984375 
Q 5.515625 40.671875 11.671875 48.328125 
Q 17.828125 56 27.875 56 
Q 33.9375 56 38.28125 53.609375 
Q 42.625 51.21875 45.40625 46.390625 
L 45.40625 54.6875 
L 54.390625 54.6875 
z
" id="BitstreamVeraSans-Roman-67"/>
      <path d="M 37.109375 75.984375 
L 37.109375 68.5 
L 28.515625 68.5 
Q 23.6875 68.5 21.796875 66.546875 
Q 19.921875 64.59375 19.921875 59.515625 
L 19.921875 54.6875 
L 34.71875 54.6875 
L 34.71875 47.703125 
L 19.921875 47.703125 
L 19.921875 0 
L 10.890625 0 
L 10.890625 47.703125 
L 2.296875 47.703125 
L 2.296875 54.6875 
L 10.890625 54.6875 
L 10.890625 58.5 
Q 10.890625 67.625 15.140625 71.796875 
Q 19.390625 75.984375 28.609375 75.984375 
z
" id="BitstreamVeraSans-Roman-66"/>
      <path d="M 34.28125 27.484375 
Q 23.390625 27.484375 19.1875 25 
Q 14.984375 22.515625 14.984375 16.5 
Q 14.984375 11.71875 18.140625 8.90625 
Q 21.296875 6.109375 26.703125 6.109375 
Q 34.1875 6.109375 38.703125 11.40625 
Q 43.21875 16.703125 43.21875 25.484375 
L 43.21875 27.484375 
z
M 52.203125 31.203125 
L 52.203125 0 
L 43.21875 0 
L 43.21875 8.296875 
Q 40.140625 3.328125 35.546875 0.953125 
Q 30.953125 -1.421875 24.3125 -1.421875 
Q 15.921875 -1.421875 10.953125 3.296875 
Q 6 8.015625 6 15.921875 
Q 6 25.140625 12.171875 29.828125 
Q 18.359375 34.515625 30.609375 34.515625 
L 43.21875 34.515625 
L 43.21875 35.40625 
Q 43.21875 41.609375 39.140625 45 
Q 35.0625 48.390625 27.6875 48.390625 
Q 23 48.390625 18.546875 47.265625 
Q 14.109375 46.140625 10.015625 43.890625 
L 10.015625 52.203125 
Q 14.9375 54.109375 19.578125 55.046875 
Q 24.21875 56 28.609375 56 
Q 40.484375 56 46.34375 49.84375 
Q 52.203125 43.703125 52.203125 31.203125 
" id="BitstreamVeraSans-Roman-61"/>
      <path d="M 44.28125 53.078125 
L 44.28125 44.578125 
Q 40.484375 46.53125 36.375 47.5 
Q 32.28125 48.484375 27.875 48.484375 
Q 21.1875 48.484375 17.84375 46.4375 
Q 14.5 44.390625 14.5 40.28125 
Q 14.5 37.15625 16.890625 35.375 
Q 19.28125 33.59375 26.515625 31.984375 
L 29.59375 31.296875 
Q 39.15625 29.25 43.1875 25.515625 
Q 47.21875 21.78125 47.21875 15.09375 
Q 47.21875 7.46875 41.1875 3.015625 
Q 35.15625 -1.421875 24.609375 -1.421875 
Q 20.21875 -1.421875 15.453125 -0.5625 
Q 10.6875 0.296875 5.421875 2 
L 5.421875 11.28125 
Q 10.40625 8.6875 15.234375 7.390625 
Q 20.0625 6.109375 24.8125 6.109375 
Q 31.15625 6.109375 34.5625 8.28125 
Q 37.984375 10.453125 37.984375 14.40625 
Q 37.984375 18.0625 35.515625 20.015625 
Q 33.0625 21.96875 24.703125 23.78125 
L 21.578125 24.515625 
Q 13.234375 26.265625 9.515625 29.90625 
Q 5.8125 33.546875 5.8125 39.890625 
Q 5.8125 47.609375 11.28125 51.796875 
Q 16.75 56 26.8125 56 
Q 31.78125 56 36.171875 55.265625 
Q 40.578125 54.546875 44.28125 53.078125 
" id="BitstreamVeraSans-Roman-73"/>
      <path d="M 9.8125 72.90625 
L 19.671875 72.90625 
L 19.671875 0 
L 9.8125 0 
z
" id="BitstreamVeraSans-Roman-49"/>
     </defs>
     <g transform="translate(140.8490625 334.173824257)scale(0.2 -0.2)">
      <use xlink:href="#BitstreamVeraSans-Roman-6c"/>
      <use x="27.783203125" xlink:href="#BitstreamVeraSans-Roman-6f"/>
      <use x="88.96484375" xlink:href="#BitstreamVeraSans-Roman-67"/>
      <use x="152.44140625" xlink:href="#BitstreamVeraSans-Roman-31"/>
      <use x="216.064453125" xlink:href="#BitstreamVeraSans-Roman-30"/>
      <use x="279.6875" xlink:href="#BitstreamVeraSans-Roman-20"/>
      <use x="311.474609375" xlink:href="#BitstreamVeraSans-Roman-6f"/>
      <use x="372.65625" xlink:href="#BitstreamVeraSans-Roman-66"/>
      <use x="407.861328125" xlink:href="#BitstreamVeraSans-Roman-20"/>
      <use x="439.6484375" xlink:href="#BitstreamVeraSans-Roman-46"/>
      <use x="497.16796875" xlink:href="#BitstreamVeraSans-Roman-45"/>
      <use x="560.3515625" xlink:href="#BitstreamVeraSans-Roman-76"/>
      <use x="619.53125" xlink:href="#BitstreamVeraSans-Roman-61"/>
      <use x="680.810546875" xlink:href="#BitstreamVeraSans-Roman-6c"/>
      <use x="708.59375" xlink:href="#BitstreamVeraSans-Roman-73"/>
      <use x="760.693359375" xlink:href="#BitstreamVeraSans-Roman-20"/>
      <use x="792.48046875" xlink:href="#BitstreamVeraSans-Roman-2f"/>
      <use x="826.171875" xlink:href="#BitstreamVeraSans-Roman-20"/>
      <use x="857.958984375" xlink:href="#BitstreamVeraSans-Roman-44"/>
      <use x="934.9609375" xlink:href="#BitstreamVeraSans-Roman-49"/>
      <use x="964.453125" xlink:href="#BitstreamVeraSans-Roman-4d"/>
     </g>
    </g>
   </g>
   <g id="matplotlib.axis_2">
    <g id="ytick_1">
     <g id="line2d_94">
      <path clip-path="url(#pc3eabfed38)" d="M 67.3625 290.620699 
L 424.4825 290.620699 
" style="fill:none;stroke:#000000;stroke-dasharray:1.000000,3.000000;stroke-dashoffset:0.0;stroke-width:0.5;"/>
     </g>
     <g id="line2d_95">
      <defs>
       <path d="M 0 0 
L 4 0 
" id="m09ddbcb418" style="stroke:#000000;stroke-width:0.5;"/>
      </defs>
      <g>
       <use style="stroke:#000000;stroke-width:0.5;" x="67.3625" xlink:href="#m09ddbcb418" y="290.620699257"/>
      </g>
     </g>
     <g id="line2d_96">
      <defs>
       <path d="M 0 0 
L -4 0 
" id="m372b406878" style="stroke:#000000;stroke-width:0.5;"/>
      </defs>
      <g>
       <use style="stroke:#000000;stroke-width:0.5;" x="424.4825" xlink:href="#m372b406878" y="290.620699257"/>
      </g>
     </g>
     <g id="text_5">
      <!-- 0.0 -->
      <defs>
       <path d="M 10.6875 12.40625 
L 21 12.40625 
L 21 0 
L 10.6875 0 
z
" id="BitstreamVeraSans-Roman-2e"/>
      </defs>
      <g transform="translate(31.55625 296.139449257)scale(0.2 -0.2)">
       <use xlink:href="#BitstreamVeraSans-Roman-30"/>
       <use x="63.623046875" xlink:href="#BitstreamVeraSans-Roman-2e"/>
       <use x="95.41015625" xlink:href="#BitstreamVeraSans-Roman-30"/>
      </g>
     </g>
    </g>
    <g id="ytick_2">
     <g id="line2d_97">
      <path clip-path="url(#pc3eabfed38)" d="M 67.3625 235.872184 
L 424.4825 235.872184 
" style="fill:none;stroke:#000000;stroke-dasharray:1.000000,3.000000;stroke-dashoffset:0.0;stroke-width:0.5;"/>
     </g>
     <g id="line2d_98">
      <g>
       <use style="stroke:#000000;stroke-width:0.5;" x="67.3625" xlink:href="#m09ddbcb418" y="235.872184406"/>
      </g>
     </g>
     <g id="line2d_99">
      <g>
       <use style="stroke:#000000;stroke-width:0.5;" x="424.4825" xlink:href="#m372b406878" y="235.872184406"/>
      </g>
     </g>
     <g id="text_6">
      <!-- 0.2 -->
      <g transform="translate(31.55625 241.390934406)scale(0.2 -0.2)">
       <use xlink:href="#BitstreamVeraSans-Roman-30"/>
       <use x="63.623046875" xlink:href="#BitstreamVeraSans-Roman-2e"/>
       <use x="95.41015625" xlink:href="#BitstreamVeraSans-Roman-32"/>
      </g>
     </g>
    </g>
    <g id="ytick_3">
     <g id="line2d_100">
      <path clip-path="url(#pc3eabfed38)" d="M 67.3625 181.12367 
L 424.4825 181.12367 
" style="fill:none;stroke:#000000;stroke-dasharray:1.000000,3.000000;stroke-dashoffset:0.0;stroke-width:0.5;"/>
     </g>
     <g id="line2d_101">
      <g>
       <use style="stroke:#000000;stroke-width:0.5;" x="67.3625" xlink:href="#m09ddbcb418" y="181.123669554"/>
      </g>
     </g>
     <g id="line2d_102">
      <g>
       <use style="stroke:#000000;stroke-width:0.5;" x="424.4825" xlink:href="#m372b406878" y="181.123669554"/>
      </g>
     </g>
     <g id="text_7">
      <!-- 0.4 -->
      <defs>
       <path d="M 37.796875 64.3125 
L 12.890625 25.390625 
L 37.796875 25.390625 
z
M 35.203125 72.90625 
L 47.609375 72.90625 
L 47.609375 25.390625 
L 58.015625 25.390625 
L 58.015625 17.1875 
L 47.609375 17.1875 
L 47.609375 0 
L 37.796875 0 
L 37.796875 17.1875 
L 4.890625 17.1875 
L 4.890625 26.703125 
z
" id="BitstreamVeraSans-Roman-34"/>
      </defs>
      <g transform="translate(31.55625 186.642419554)scale(0.2 -0.2)">
       <use xlink:href="#BitstreamVeraSans-Roman-30"/>
       <use x="63.623046875" xlink:href="#BitstreamVeraSans-Roman-2e"/>
       <use x="95.41015625" xlink:href="#BitstreamVeraSans-Roman-34"/>
      </g>
     </g>
    </g>
    <g id="ytick_4">
     <g id="line2d_103">
      <path clip-path="url(#pc3eabfed38)" d="M 67.3625 126.375155 
L 424.4825 126.375155 
" style="fill:none;stroke:#000000;stroke-dasharray:1.000000,3.000000;stroke-dashoffset:0.0;stroke-width:0.5;"/>
     </g>
     <g id="line2d_104">
      <g>
       <use style="stroke:#000000;stroke-width:0.5;" x="67.3625" xlink:href="#m09ddbcb418" y="126.375154703"/>
      </g>
     </g>
     <g id="line2d_105">
      <g>
       <use style="stroke:#000000;stroke-width:0.5;" x="424.4825" xlink:href="#m372b406878" y="126.375154703"/>
      </g>
     </g>
     <g id="text_8">
      <!-- 0.6 -->
      <defs>
       <path d="M 33.015625 40.375 
Q 26.375 40.375 22.484375 35.828125 
Q 18.609375 31.296875 18.609375 23.390625 
Q 18.609375 15.53125 22.484375 10.953125 
Q 26.375 6.390625 33.015625 6.390625 
Q 39.65625 6.390625 43.53125 10.953125 
Q 47.40625 15.53125 47.40625 23.390625 
Q 47.40625 31.296875 43.53125 35.828125 
Q 39.65625 40.375 33.015625 40.375 
M 52.59375 71.296875 
L 52.59375 62.3125 
Q 48.875 64.0625 45.09375 64.984375 
Q 41.3125 65.921875 37.59375 65.921875 
Q 27.828125 65.921875 22.671875 59.328125 
Q 17.53125 52.734375 16.796875 39.40625 
Q 19.671875 43.65625 24.015625 45.921875 
Q 28.375 48.1875 33.59375 48.1875 
Q 44.578125 48.1875 50.953125 41.515625 
Q 57.328125 34.859375 57.328125 23.390625 
Q 57.328125 12.15625 50.6875 5.359375 
Q 44.046875 -1.421875 33.015625 -1.421875 
Q 20.359375 -1.421875 13.671875 8.265625 
Q 6.984375 17.96875 6.984375 36.375 
Q 6.984375 53.65625 15.1875 63.9375 
Q 23.390625 74.21875 37.203125 74.21875 
Q 40.921875 74.21875 44.703125 73.484375 
Q 48.484375 72.75 52.59375 71.296875 
" id="BitstreamVeraSans-Roman-36"/>
      </defs>
      <g transform="translate(31.55625 131.893904703)scale(0.2 -0.2)">
       <use xlink:href="#BitstreamVeraSans-Roman-30"/>
       <use x="63.623046875" xlink:href="#BitstreamVeraSans-Roman-2e"/>
       <use x="95.41015625" xlink:href="#BitstreamVeraSans-Roman-36"/>
      </g>
     </g>
    </g>
    <g id="ytick_5">
     <g id="line2d_106">
      <path clip-path="url(#pc3eabfed38)" d="M 67.3625 71.62664 
L 424.4825 71.62664 
" style="fill:none;stroke:#000000;stroke-dasharray:1.000000,3.000000;stroke-dashoffset:0.0;stroke-width:0.5;"/>
     </g>
     <g id="line2d_107">
      <g>
       <use style="stroke:#000000;stroke-width:0.5;" x="67.3625" xlink:href="#m09ddbcb418" y="71.6266398515"/>
      </g>
     </g>
     <g id="line2d_108">
      <g>
       <use style="stroke:#000000;stroke-width:0.5;" x="424.4825" xlink:href="#m372b406878" y="71.6266398515"/>
      </g>
     </g>
     <g id="text_9">
      <!-- 0.8 -->
      <defs>
       <path d="M 31.78125 34.625 
Q 24.75 34.625 20.71875 30.859375 
Q 16.703125 27.09375 16.703125 20.515625 
Q 16.703125 13.921875 20.71875 10.15625 
Q 24.75 6.390625 31.78125 6.390625 
Q 38.8125 6.390625 42.859375 10.171875 
Q 46.921875 13.96875 46.921875 20.515625 
Q 46.921875 27.09375 42.890625 30.859375 
Q 38.875 34.625 31.78125 34.625 
M 21.921875 38.8125 
Q 15.578125 40.375 12.03125 44.71875 
Q 8.5 49.078125 8.5 55.328125 
Q 8.5 64.0625 14.71875 69.140625 
Q 20.953125 74.21875 31.78125 74.21875 
Q 42.671875 74.21875 48.875 69.140625 
Q 55.078125 64.0625 55.078125 55.328125 
Q 55.078125 49.078125 51.53125 44.71875 
Q 48 40.375 41.703125 38.8125 
Q 48.828125 37.15625 52.796875 32.3125 
Q 56.78125 27.484375 56.78125 20.515625 
Q 56.78125 9.90625 50.3125 4.234375 
Q 43.84375 -1.421875 31.78125 -1.421875 
Q 19.734375 -1.421875 13.25 4.234375 
Q 6.78125 9.90625 6.78125 20.515625 
Q 6.78125 27.484375 10.78125 32.3125 
Q 14.796875 37.15625 21.921875 38.8125 
M 18.3125 54.390625 
Q 18.3125 48.734375 21.84375 45.5625 
Q 25.390625 42.390625 31.78125 42.390625 
Q 38.140625 42.390625 41.71875 45.5625 
Q 45.3125 48.734375 45.3125 54.390625 
Q 45.3125 60.0625 41.71875 63.234375 
Q 38.140625 66.40625 31.78125 66.40625 
Q 25.390625 66.40625 21.84375 63.234375 
Q 18.3125 60.0625 18.3125 54.390625 
" id="BitstreamVeraSans-Roman-38"/>
      </defs>
      <g transform="translate(31.55625 77.1453898515)scale(0.2 -0.2)">
       <use xlink:href="#BitstreamVeraSans-Roman-30"/>
       <use x="63.623046875" xlink:href="#BitstreamVeraSans-Roman-2e"/>
       <use x="95.41015625" xlink:href="#BitstreamVeraSans-Roman-38"/>
      </g>
     </g>
    </g>
    <g id="ytick_6">
     <g id="line2d_109">
      <path clip-path="url(#pc3eabfed38)" d="M 67.3625 16.878125 
L 424.4825 16.878125 
" style="fill:none;stroke:#000000;stroke-dasharray:1.000000,3.000000;stroke-dashoffset:0.0;stroke-width:0.5;"/>
     </g>
     <g id="line2d_110">
      <g>
       <use style="stroke:#000000;stroke-width:0.5;" x="67.3625" xlink:href="#m09ddbcb418" y="16.878125"/>
      </g>
     </g>
     <g id="line2d_111">
      <g>
       <use style="stroke:#000000;stroke-width:0.5;" x="424.4825" xlink:href="#m372b406878" y="16.878125"/>
      </g>
     </g>
     <g id="text_10">
      <!-- 1.0 -->
      <g transform="translate(31.55625 22.396875)scale(0.2 -0.2)">
       <use xlink:href="#BitstreamVeraSans-Roman-31"/>
       <use x="63.623046875" xlink:href="#BitstreamVeraSans-Roman-2e"/>
       <use x="95.41015625" xlink:href="#BitstreamVeraSans-Roman-30"/>
      </g>
     </g>
    </g>
    <g id="text_11">
     <!-- proportion of trials -->
     <defs>
      <path d="M 54.890625 33.015625 
L 54.890625 0 
L 45.90625 0 
L 45.90625 32.71875 
Q 45.90625 40.484375 42.875 44.328125 
Q 39.84375 48.1875 33.796875 48.1875 
Q 26.515625 48.1875 22.3125 43.546875 
Q 18.109375 38.921875 18.109375 30.90625 
L 18.109375 0 
L 9.078125 0 
L 9.078125 54.6875 
L 18.109375 54.6875 
L 18.109375 46.1875 
Q 21.34375 51.125 25.703125 53.5625 
Q 30.078125 56 35.796875 56 
Q 45.21875 56 50.046875 50.171875 
Q 54.890625 44.34375 54.890625 33.015625 
" id="BitstreamVeraSans-Roman-6e"/>
      <path d="M 9.421875 54.6875 
L 18.40625 54.6875 
L 18.40625 0 
L 9.421875 0 
z
M 9.421875 75.984375 
L 18.40625 75.984375 
L 18.40625 64.59375 
L 9.421875 64.59375 
z
" id="BitstreamVeraSans-Roman-69"/>
      <path d="M 18.3125 70.21875 
L 18.3125 54.6875 
L 36.8125 54.6875 
L 36.8125 47.703125 
L 18.3125 47.703125 
L 18.3125 18.015625 
Q 18.3125 11.328125 20.140625 9.421875 
Q 21.96875 7.515625 27.59375 7.515625 
L 36.8125 7.515625 
L 36.8125 0 
L 27.59375 0 
Q 17.1875 0 13.234375 3.875 
Q 9.28125 7.765625 9.28125 18.015625 
L 9.28125 47.703125 
L 2.6875 47.703125 
L 2.6875 54.6875 
L 9.28125 54.6875 
L 9.28125 70.21875 
z
" id="BitstreamVeraSans-Roman-74"/>
      <path d="M 41.109375 46.296875 
Q 39.59375 47.171875 37.8125 47.578125 
Q 36.03125 48 33.890625 48 
Q 26.265625 48 22.1875 43.046875 
Q 18.109375 38.09375 18.109375 28.8125 
L 18.109375 0 
L 9.078125 0 
L 9.078125 54.6875 
L 18.109375 54.6875 
L 18.109375 46.1875 
Q 20.953125 51.171875 25.484375 53.578125 
Q 30.03125 56 36.53125 56 
Q 37.453125 56 38.578125 55.875 
Q 39.703125 55.765625 41.0625 55.515625 
z
" id="BitstreamVeraSans-Roman-72"/>
      <path d="M 18.109375 8.203125 
L 18.109375 -20.796875 
L 9.078125 -20.796875 
L 9.078125 54.6875 
L 18.109375 54.6875 
L 18.109375 46.390625 
Q 20.953125 51.265625 25.265625 53.625 
Q 29.59375 56 35.59375 56 
Q 45.5625 56 51.78125 48.09375 
Q 58.015625 40.1875 58.015625 27.296875 
Q 58.015625 14.40625 51.78125 6.484375 
Q 45.5625 -1.421875 35.59375 -1.421875 
Q 29.59375 -1.421875 25.265625 0.953125 
Q 20.953125 3.328125 18.109375 8.203125 
M 48.6875 27.296875 
Q 48.6875 37.203125 44.609375 42.84375 
Q 40.53125 48.484375 33.40625 48.484375 
Q 26.265625 48.484375 22.1875 42.84375 
Q 18.109375 37.203125 18.109375 27.296875 
Q 18.109375 17.390625 22.1875 11.75 
Q 26.265625 6.109375 33.40625 6.109375 
Q 40.53125 6.109375 44.609375 11.75 
Q 48.6875 17.390625 48.6875 27.296875 
" id="BitstreamVeraSans-Roman-70"/>
     </defs>
     <g transform="translate(22.396875 245.608824257)rotate(-90.0)scale(0.2 -0.2)">
      <use xlink:href="#BitstreamVeraSans-Roman-70"/>
      <use x="63.4765625" xlink:href="#BitstreamVeraSans-Roman-72"/>
      <use x="104.55859375" xlink:href="#BitstreamVeraSans-Roman-6f"/>
      <use x="165.740234375" xlink:href="#BitstreamVeraSans-Roman-70"/>
      <use x="229.216796875" xlink:href="#BitstreamVeraSans-Roman-6f"/>
      <use x="290.3984375" xlink:href="#BitstreamVeraSans-Roman-72"/>
      <use x="331.51171875" xlink:href="#BitstreamVeraSans-Roman-74"/>
      <use x="370.720703125" xlink:href="#BitstreamVeraSans-Roman-69"/>
      <use x="398.50390625" xlink:href="#BitstreamVeraSans-Roman-6f"/>
      <use x="459.685546875" xlink:href="#BitstreamVeraSans-Roman-6e"/>
      <use x="523.064453125" xlink:href="#BitstreamVeraSans-Roman-20"/>
      <use x="554.8515625" xlink:href="#BitstreamVeraSans-Roman-6f"/>
      <use x="616.033203125" xlink:href="#BitstreamVeraSans-Roman-66"/>
      <use x="651.23828125" xlink:href="#BitstreamVeraSans-Roman-20"/>
      <use x="683.025390625" xlink:href="#BitstreamVeraSans-Roman-74"/>
      <use x="722.234375" xlink:href="#BitstreamVeraSans-Roman-72"/>
      <use x="763.34765625" xlink:href="#BitstreamVeraSans-Roman-69"/>
      <use x="791.130859375" xlink:href="#BitstreamVeraSans-Roman-61"/>
      <use x="852.41015625" xlink:href="#BitstreamVeraSans-Roman-6c"/>
      <use x="880.193359375" xlink:href="#BitstreamVeraSans-Roman-73"/>
     </g>
    </g>
   </g>
   <g id="text_12">
    <!-- f15-19,20-D -->
    <defs>
     <path d="M 11.71875 12.40625 
L 22.015625 12.40625 
L 22.015625 4 
L 14.015625 -11.625 
L 7.71875 -11.625 
L 11.71875 4 
z
" id="BitstreamVeraSans-Roman-2c"/>
     <path d="M 10.984375 1.515625 
L 10.984375 10.5 
Q 14.703125 8.734375 18.5 7.8125 
Q 22.3125 6.890625 25.984375 6.890625 
Q 35.75 6.890625 40.890625 13.453125 
Q 46.046875 20.015625 46.78125 33.40625 
Q 43.953125 29.203125 39.59375 26.953125 
Q 35.25 24.703125 29.984375 24.703125 
Q 19.046875 24.703125 12.671875 31.3125 
Q 6.296875 37.9375 6.296875 49.421875 
Q 6.296875 60.640625 12.9375 67.421875 
Q 19.578125 74.21875 30.609375 74.21875 
Q 43.265625 74.21875 49.921875 64.515625 
Q 56.59375 54.828125 56.59375 36.375 
Q 56.59375 19.140625 48.40625 8.859375 
Q 40.234375 -1.421875 26.421875 -1.421875 
Q 22.703125 -1.421875 18.890625 -0.6875 
Q 15.09375 0.046875 10.984375 1.515625 
M 30.609375 32.421875 
Q 37.25 32.421875 41.125 36.953125 
Q 45.015625 41.5 45.015625 49.421875 
Q 45.015625 57.28125 41.125 61.84375 
Q 37.25 66.40625 30.609375 66.40625 
Q 23.96875 66.40625 20.09375 61.84375 
Q 16.21875 57.28125 16.21875 49.421875 
Q 16.21875 41.5 20.09375 36.953125 
Q 23.96875 32.421875 30.609375 32.421875 
" id="BitstreamVeraSans-Roman-39"/>
     <path d="M 4.890625 31.390625 
L 31.203125 31.390625 
L 31.203125 23.390625 
L 4.890625 23.390625 
z
" id="BitstreamVeraSans-Roman-2d"/>
     <path d="M 10.796875 72.90625 
L 49.515625 72.90625 
L 49.515625 64.59375 
L 19.828125 64.59375 
L 19.828125 46.734375 
Q 21.96875 47.46875 24.109375 47.828125 
Q 26.265625 48.1875 28.421875 48.1875 
Q 40.625 48.1875 47.75 41.5 
Q 54.890625 34.8125 54.890625 23.390625 
Q 54.890625 11.625 47.5625 5.09375 
Q 40.234375 -1.421875 26.90625 -1.421875 
Q 22.3125 -1.421875 17.546875 -0.640625 
Q 12.796875 0.140625 7.71875 1.703125 
L 7.71875 11.625 
Q 12.109375 9.234375 16.796875 8.0625 
Q 21.484375 6.890625 26.703125 6.890625 
Q 35.15625 6.890625 40.078125 11.328125 
Q 45.015625 15.765625 45.015625 23.390625 
Q 45.015625 31 40.078125 35.4375 
Q 35.15625 39.890625 26.703125 39.890625 
Q 22.75 39.890625 18.8125 39.015625 
Q 14.890625 38.140625 10.796875 36.28125 
z
" id="BitstreamVeraSans-Roman-35"/>
    </defs>
    <g transform="translate(186.1334375 34.8671742574)scale(0.2 -0.2)">
     <use xlink:href="#BitstreamVeraSans-Roman-66"/>
     <use x="35.205078125" xlink:href="#BitstreamVeraSans-Roman-31"/>
     <use x="98.828125" xlink:href="#BitstreamVeraSans-Roman-35"/>
     <use x="162.451171875" xlink:href="#BitstreamVeraSans-Roman-2d"/>
     <use x="198.53515625" xlink:href="#BitstreamVeraSans-Roman-31"/>
     <use x="262.158203125" xlink:href="#BitstreamVeraSans-Roman-39"/>
     <use x="325.78125" xlink:href="#BitstreamVeraSans-Roman-2c"/>
     <use x="357.568359375" xlink:href="#BitstreamVeraSans-Roman-32"/>
     <use x="421.19140625" xlink:href="#BitstreamVeraSans-Roman-30"/>
     <use x="484.814453125" xlink:href="#BitstreamVeraSans-Roman-2d"/>
     <use x="520.8984375" xlink:href="#BitstreamVeraSans-Roman-44"/>
    </g>
   </g>
   <g id="text_13">
    <!-- reference budgets from bestGECCO2009 -->
    <defs>
     <path d="M 39.40625 66.21875 
Q 28.65625 66.21875 22.328125 58.203125 
Q 16.015625 50.203125 16.015625 36.375 
Q 16.015625 22.609375 22.328125 14.59375 
Q 28.65625 6.59375 39.40625 6.59375 
Q 50.140625 6.59375 56.421875 14.59375 
Q 62.703125 22.609375 62.703125 36.375 
Q 62.703125 50.203125 56.421875 58.203125 
Q 50.140625 66.21875 39.40625 66.21875 
M 39.40625 74.21875 
Q 54.734375 74.21875 63.90625 63.9375 
Q 73.09375 53.65625 73.09375 36.375 
Q 73.09375 19.140625 63.90625 8.859375 
Q 54.734375 -1.421875 39.40625 -1.421875 
Q 24.03125 -1.421875 14.8125 8.828125 
Q 5.609375 19.09375 5.609375 36.375 
Q 5.609375 53.65625 14.8125 63.9375 
Q 24.03125 74.21875 39.40625 74.21875 
" id="BitstreamVeraSans-Roman-4f"/>
     <path d="M 52 44.1875 
Q 55.375 50.25 60.0625 53.125 
Q 64.75 56 71.09375 56 
Q 79.640625 56 84.28125 50.015625 
Q 88.921875 44.046875 88.921875 33.015625 
L 88.921875 0 
L 79.890625 0 
L 79.890625 32.71875 
Q 79.890625 40.578125 77.09375 44.375 
Q 74.3125 48.1875 68.609375 48.1875 
Q 61.625 48.1875 57.5625 43.546875 
Q 53.515625 38.921875 53.515625 30.90625 
L 53.515625 0 
L 44.484375 0 
L 44.484375 32.71875 
Q 44.484375 40.625 41.703125 44.40625 
Q 38.921875 48.1875 33.109375 48.1875 
Q 26.21875 48.1875 22.15625 43.53125 
Q 18.109375 38.875 18.109375 30.90625 
L 18.109375 0 
L 9.078125 0 
L 9.078125 54.6875 
L 18.109375 54.6875 
L 18.109375 46.1875 
Q 21.1875 51.21875 25.484375 53.609375 
Q 29.78125 56 35.6875 56 
Q 41.65625 56 45.828125 52.96875 
Q 50 49.953125 52 44.1875 
" id="BitstreamVeraSans-Roman-6d"/>
     <path d="M 59.515625 10.40625 
L 59.515625 29.984375 
L 43.40625 29.984375 
L 43.40625 38.09375 
L 69.28125 38.09375 
L 69.28125 6.78125 
Q 63.578125 2.734375 56.6875 0.65625 
Q 49.8125 -1.421875 42 -1.421875 
Q 24.90625 -1.421875 15.25 8.5625 
Q 5.609375 18.5625 5.609375 36.375 
Q 5.609375 54.25 15.25 64.234375 
Q 24.90625 74.21875 42 74.21875 
Q 49.125 74.21875 55.546875 72.453125 
Q 61.96875 70.703125 67.390625 67.28125 
L 67.390625 56.78125 
Q 61.921875 61.421875 55.765625 63.765625 
Q 49.609375 66.109375 42.828125 66.109375 
Q 29.4375 66.109375 22.71875 58.640625 
Q 16.015625 51.171875 16.015625 36.375 
Q 16.015625 21.625 22.71875 14.15625 
Q 29.4375 6.6875 42.828125 6.6875 
Q 48.046875 6.6875 52.140625 7.59375 
Q 56.25 8.5 59.515625 10.40625 
" id="BitstreamVeraSans-Roman-47"/>
     <path d="M 64.40625 67.28125 
L 64.40625 56.890625 
Q 59.421875 61.53125 53.78125 63.8125 
Q 48.140625 66.109375 41.796875 66.109375 
Q 29.296875 66.109375 22.65625 58.46875 
Q 16.015625 50.828125 16.015625 36.375 
Q 16.015625 21.96875 22.65625 14.328125 
Q 29.296875 6.6875 41.796875 6.6875 
Q 48.140625 6.6875 53.78125 8.984375 
Q 59.421875 11.28125 64.40625 15.921875 
L 64.40625 5.609375 
Q 59.234375 2.09375 53.4375 0.328125 
Q 47.65625 -1.421875 41.21875 -1.421875 
Q 24.65625 -1.421875 15.125 8.703125 
Q 5.609375 18.84375 5.609375 36.375 
Q 5.609375 53.953125 15.125 64.078125 
Q 24.65625 74.21875 41.21875 74.21875 
Q 47.75 74.21875 53.53125 72.484375 
Q 59.328125 70.75 64.40625 67.28125 
" id="BitstreamVeraSans-Roman-43"/>
     <path d="M 56.203125 29.59375 
L 56.203125 25.203125 
L 14.890625 25.203125 
Q 15.484375 15.921875 20.484375 11.0625 
Q 25.484375 6.203125 34.421875 6.203125 
Q 39.59375 6.203125 44.453125 7.46875 
Q 49.3125 8.734375 54.109375 11.28125 
L 54.109375 2.78125 
Q 49.265625 0.734375 44.1875 -0.34375 
Q 39.109375 -1.421875 33.890625 -1.421875 
Q 20.796875 -1.421875 13.15625 6.1875 
Q 5.515625 13.8125 5.515625 26.8125 
Q 5.515625 40.234375 12.765625 48.109375 
Q 20.015625 56 32.328125 56 
Q 43.359375 56 49.78125 48.890625 
Q 56.203125 41.796875 56.203125 29.59375 
M 47.21875 32.234375 
Q 47.125 39.59375 43.09375 43.984375 
Q 39.0625 48.390625 32.421875 48.390625 
Q 24.90625 48.390625 20.390625 44.140625 
Q 15.875 39.890625 15.1875 32.171875 
z
" id="BitstreamVeraSans-Roman-65"/>
     <path d="M 45.40625 46.390625 
L 45.40625 75.984375 
L 54.390625 75.984375 
L 54.390625 0 
L 45.40625 0 
L 45.40625 8.203125 
Q 42.578125 3.328125 38.25 0.953125 
Q 33.9375 -1.421875 27.875 -1.421875 
Q 17.96875 -1.421875 11.734375 6.484375 
Q 5.515625 14.40625 5.515625 27.296875 
Q 5.515625 40.1875 11.734375 48.09375 
Q 17.96875 56 27.875 56 
Q 33.9375 56 38.25 53.625 
Q 42.578125 51.265625 45.40625 46.390625 
M 14.796875 27.296875 
Q 14.796875 17.390625 18.875 11.75 
Q 22.953125 6.109375 30.078125 6.109375 
Q 37.203125 6.109375 41.296875 11.75 
Q 45.40625 17.390625 45.40625 27.296875 
Q 45.40625 37.203125 41.296875 42.84375 
Q 37.203125 48.484375 30.078125 48.484375 
Q 22.953125 48.484375 18.875 42.84375 
Q 14.796875 37.203125 14.796875 27.296875 
" id="BitstreamVeraSans-Roman-64"/>
     <path d="M 8.5 21.578125 
L 8.5 54.6875 
L 17.484375 54.6875 
L 17.484375 21.921875 
Q 17.484375 14.15625 20.5 10.265625 
Q 23.53125 6.390625 29.59375 6.390625 
Q 36.859375 6.390625 41.078125 11.03125 
Q 45.3125 15.671875 45.3125 23.6875 
L 45.3125 54.6875 
L 54.296875 54.6875 
L 54.296875 0 
L 45.3125 0 
L 45.3125 8.40625 
Q 42.046875 3.421875 37.71875 1 
Q 33.40625 -1.421875 27.6875 -1.421875 
Q 18.265625 -1.421875 13.375 4.4375 
Q 8.5 10.296875 8.5 21.578125 
" id="BitstreamVeraSans-Roman-75"/>
     <path d="M 48.78125 52.59375 
L 48.78125 44.1875 
Q 44.96875 46.296875 41.140625 47.34375 
Q 37.3125 48.390625 33.40625 48.390625 
Q 24.65625 48.390625 19.8125 42.84375 
Q 14.984375 37.3125 14.984375 27.296875 
Q 14.984375 17.28125 19.8125 11.734375 
Q 24.65625 6.203125 33.40625 6.203125 
Q 37.3125 6.203125 41.140625 7.25 
Q 44.96875 8.296875 48.78125 10.40625 
L 48.78125 2.09375 
Q 45.015625 0.34375 40.984375 -0.53125 
Q 36.96875 -1.421875 32.421875 -1.421875 
Q 20.0625 -1.421875 12.78125 6.34375 
Q 5.515625 14.109375 5.515625 27.296875 
Q 5.515625 40.671875 12.859375 48.328125 
Q 20.21875 56 33.015625 56 
Q 37.15625 56 41.109375 55.140625 
Q 45.0625 54.296875 48.78125 52.59375 
" id="BitstreamVeraSans-Roman-63"/>
     <path d="M 48.6875 27.296875 
Q 48.6875 37.203125 44.609375 42.84375 
Q 40.53125 48.484375 33.40625 48.484375 
Q 26.265625 48.484375 22.1875 42.84375 
Q 18.109375 37.203125 18.109375 27.296875 
Q 18.109375 17.390625 22.1875 11.75 
Q 26.265625 6.109375 33.40625 6.109375 
Q 40.53125 6.109375 44.609375 11.75 
Q 48.6875 17.390625 48.6875 27.296875 
M 18.109375 46.390625 
Q 20.953125 51.265625 25.265625 53.625 
Q 29.59375 56 35.59375 56 
Q 45.5625 56 51.78125 48.09375 
Q 58.015625 40.1875 58.015625 27.296875 
Q 58.015625 14.40625 51.78125 6.484375 
Q 45.5625 -1.421875 35.59375 -1.421875 
Q 29.59375 -1.421875 25.265625 0.953125 
Q 20.953125 3.328125 18.109375 8.203125 
L 18.109375 0 
L 9.078125 0 
L 9.078125 75.984375 
L 18.109375 75.984375 
z
" id="BitstreamVeraSans-Roman-62"/>
    </defs>
    <g transform="translate(67.3625 290.620699257)scale(0.14 -0.14)">
     <use xlink:href="#BitstreamVeraSans-Roman-72"/>
     <use x="41.08203125" xlink:href="#BitstreamVeraSans-Roman-65"/>
     <use x="102.60546875" xlink:href="#BitstreamVeraSans-Roman-66"/>
     <use x="137.810546875" xlink:href="#BitstreamVeraSans-Roman-65"/>
     <use x="199.333984375" xlink:href="#BitstreamVeraSans-Roman-72"/>
     <use x="240.416015625" xlink:href="#BitstreamVeraSans-Roman-65"/>
     <use x="301.939453125" xlink:href="#BitstreamVeraSans-Roman-6e"/>
     <use x="365.318359375" xlink:href="#BitstreamVeraSans-Roman-63"/>
     <use x="420.298828125" xlink:href="#BitstreamVeraSans-Roman-65"/>
     <use x="481.822265625" xlink:href="#BitstreamVeraSans-Roman-20"/>
     <use x="513.609375" xlink:href="#BitstreamVeraSans-Roman-62"/>
     <use x="577.0859375" xlink:href="#BitstreamVeraSans-Roman-75"/>
     <use x="640.46484375" xlink:href="#BitstreamVeraSans-Roman-64"/>
     <use x="703.94140625" xlink:href="#BitstreamVeraSans-Roman-67"/>
     <use x="767.41796875" xlink:href="#BitstreamVeraSans-Roman-65"/>
     <use x="828.94140625" xlink:href="#BitstreamVeraSans-Roman-74"/>
     <use x="868.150390625" xlink:href="#BitstreamVeraSans-Roman-73"/>
     <use x="920.25" xlink:href="#BitstreamVeraSans-Roman-20"/>
     <use x="952.037109375" xlink:href="#BitstreamVeraSans-Roman-66"/>
     <use x="987.2421875" xlink:href="#BitstreamVeraSans-Roman-72"/>
     <use x="1028.32421875" xlink:href="#BitstreamVeraSans-Roman-6f"/>
     <use x="1089.50585938" xlink:href="#BitstreamVeraSans-Roman-6d"/>
     <use x="1186.91796875" xlink:href="#BitstreamVeraSans-Roman-20"/>
     <use x="1218.70507812" xlink:href="#BitstreamVeraSans-Roman-62"/>
     <use x="1282.18164062" xlink:href="#BitstreamVeraSans-Roman-65"/>
     <use x="1343.70507812" xlink:href="#BitstreamVeraSans-Roman-73"/>
     <use x="1395.8046875" xlink:href="#BitstreamVeraSans-Roman-74"/>
     <use x="1435.01367188" xlink:href="#BitstreamVeraSans-Roman-47"/>
     <use x="1512.50390625" xlink:href="#BitstreamVeraSans-Roman-45"/>
     <use x="1575.6875" xlink:href="#BitstreamVeraSans-Roman-43"/>
     <use x="1645.51171875" xlink:href="#BitstreamVeraSans-Roman-43"/>
     <use x="1715.3359375" xlink:href="#BitstreamVeraSans-Roman-4f"/>
     <use x="1794.046875" xlink:href="#BitstreamVeraSans-Roman-32"/>
     <use x="1857.66992188" xlink:href="#BitstreamVeraSans-Roman-30"/>
     <use x="1921.29296875" xlink:href="#BitstreamVeraSans-Roman-30"/>
     <use x="1984.91601562" xlink:href="#BitstreamVeraSans-Roman-39"/>
    </g>
   </g>
   <g id="legend_1">
    <g id="patch_7">
     <path d="M 77.3625 147.565699 
L 226.45 147.565699 
L 226.45 24.140699 
L 77.3625 24.140699 
z
" style="fill:#ffffff;stroke:#000000;stroke-linejoin:miter;"/>
    </g>
    <g id="line2d_112">
     <path d="M 91.3625 40.337574 
L 119.3625 40.337574 
" style="fill:none;stroke:#000000;stroke-linecap:square;"/>
    </g>
    <g id="line2d_113"/>
    <g id="text_14">
     <!-- 0.5: 4/5 -->
     <defs>
      <path d="M 11.71875 12.40625 
L 22.015625 12.40625 
L 22.015625 0 
L 11.71875 0 
z
M 11.71875 51.703125 
L 22.015625 51.703125 
L 22.015625 39.3125 
L 11.71875 39.3125 
z
" id="BitstreamVeraSans-Roman-3a"/>
     </defs>
     <g transform="translate(141.3625 47.3375742574)scale(0.2 -0.2)">
      <use xlink:href="#BitstreamVeraSans-Roman-30"/>
      <use x="63.623046875" xlink:href="#BitstreamVeraSans-Roman-2e"/>
      <use x="95.41015625" xlink:href="#BitstreamVeraSans-Roman-35"/>
      <use x="159.033203125" xlink:href="#BitstreamVeraSans-Roman-3a"/>
      <use x="192.724609375" xlink:href="#BitstreamVeraSans-Roman-20"/>
      <use x="224.51171875" xlink:href="#BitstreamVeraSans-Roman-34"/>
      <use x="288.134765625" xlink:href="#BitstreamVeraSans-Roman-2f"/>
      <use x="321.826171875" xlink:href="#BitstreamVeraSans-Roman-35"/>
     </g>
    </g>
    <g id="line2d_114">
     <path d="M 91.3625 69.693824 
L 119.3625 69.693824 
" style="fill:none;stroke:#00bfbf;stroke-linecap:square;"/>
    </g>
    <g id="line2d_115"/>
    <g id="text_15">
     <!-- 2: 2/5 -->
     <g transform="translate(141.3625 76.6938242574)scale(0.2 -0.2)">
      <use xlink:href="#BitstreamVeraSans-Roman-32"/>
      <use x="63.623046875" xlink:href="#BitstreamVeraSans-Roman-3a"/>
      <use x="97.314453125" xlink:href="#BitstreamVeraSans-Roman-20"/>
      <use x="129.1015625" xlink:href="#BitstreamVeraSans-Roman-32"/>
      <use x="192.724609375" xlink:href="#BitstreamVeraSans-Roman-2f"/>
      <use x="226.416015625" xlink:href="#BitstreamVeraSans-Roman-35"/>
     </g>
    </g>
    <g id="line2d_116">
     <path d="M 91.3625 99.050074 
L 119.3625 99.050074 
" style="fill:none;stroke:#bf00bf;stroke-linecap:square;"/>
    </g>
    <g id="line2d_117"/>
    <g id="text_16">
     <!-- 10: 0/5 -->
     <g transform="translate(141.3625 106.050074257)scale(0.2 -0.2)">
      <use xlink:href="#BitstreamVeraSans-Roman-31"/>
      <use x="63.623046875" xlink:href="#BitstreamVeraSans-Roman-30"/>
      <use x="127.24609375" xlink:href="#BitstreamVeraSans-Roman-3a"/>
      <use x="160.9375" xlink:href="#BitstreamVeraSans-Roman-20"/>
      <use x="192.724609375" xlink:href="#BitstreamVeraSans-Roman-30"/>
      <use x="256.34765625" xlink:href="#BitstreamVeraSans-Roman-2f"/>
      <use x="290.0390625" xlink:href="#BitstreamVeraSans-Roman-35"/>
     </g>
    </g>
    <g id="line2d_118">
     <path d="M 91.3625 128.406324 
L 119.3625 128.406324 
" style="fill:none;stroke:#ff0000;stroke-linecap:square;stroke-width:3.0;"/>
    </g>
    <g id="line2d_119"/>
    <g id="text_17">
     <!-- 50: 0/5 -->
     <g transform="translate(141.3625 135.406324257)scale(0.2 -0.2)">
      <use xlink:href="#BitstreamVeraSans-Roman-35"/>
      <use x="63.623046875" xlink:href="#BitstreamVeraSans-Roman-30"/>
      <use x="127.24609375" xlink:href="#BitstreamVeraSans-Roman-3a"/>
      <use x="160.9375" xlink:href="#BitstreamVeraSans-Roman-20"/>
      <use x="192.724609375" xlink:href="#BitstreamVeraSans-Roman-30"/>
      <use x="256.34765625" xlink:href="#BitstreamVeraSans-Roman-2f"/>
      <use x="290.0390625" xlink:href="#BitstreamVeraSans-Roman-35"/>
     </g>
    </g>
   </g>
  </g>
 </g>
 <defs>
  <clipPath id="pc3eabfed38">
   <rect height="276.48" width="357.12" x="67.3625" y="14.1406992574"/>
  </clipPath>
 </defs>
</svg>
