<?xml version="1.0" encoding="utf-8" standalone="no"?>
<!DOCTYPE svg PUBLIC "-//W3C//DTD SVG 1.1//EN"
  "http://www.w3.org/Graphics/SVG/1.1/DTD/svg11.dtd">
<!-- Created with matplotlib (http://matplotlib.org/) -->
<svg height="338pt" version="1.1" viewBox="0 0 371 338" width="371pt" xmlns="http://www.w3.org/2000/svg" xmlns:xlink="http://www.w3.org/1999/xlink">
 <defs>
  <style type="text/css">
*{stroke-linecap:butt;stroke-linejoin:round;stroke-miterlimit:100000;}
  </style>
 </defs>
 <g id="figure_1">
  <g id="patch_1">
   <path d="M 0 338.5925 
L 371.52 338.5925 
L 371.52 0 
L 0 0 
z
" style="fill:#ffffff;"/>
  </g>
  <g id="axes_1">
   <g id="patch_2">
    <path d="M 7.2 283.68 
L 364.32 283.68 
L 364.32 7.2 
L 7.2 7.2 
z
" style="fill:#ffffff;"/>
   </g>
   <g id="line2d_1">
    <path clip-path="url(#peefa623a35)" d="M 176.549715 283.68 
L 176.549715 279.117624 
L 177.603671 279.117624 
L 177.603671 274.555248 
L 178.086048 274.555248 
L 178.086048 269.992871 
L 182.99394 269.992871 
L 182.99394 265.430495 
L 183.524655 265.430495 
L 183.524655 260.868119 
L 185.194606 260.868119 
L 185.194606 256.305743 
L 186.160957 256.305743 
L 186.160957 251.743366 
L 187.440452 251.743366 
L 187.440452 247.18099 
L 189.302036 247.18099 
L 189.302036 242.618614 
L 189.304242 242.618614 
L 189.304242 238.056238 
L 189.305198 238.056238 
L 189.305198 233.493861 
L 190.621216 233.493861 
L 190.621216 228.931485 
L 190.87509 228.931485 
L 190.87509 224.369109 
L 191.614089 224.369109 
L 191.614089 219.806733 
L 192.575519 219.806733 
L 192.575519 215.244356 
L 192.765721 215.244356 
L 192.765721 210.68198 
L 193.229659 210.68198 
L 193.229659 206.119604 
L 194.195344 206.119604 
L 194.195344 201.557228 
L 194.801012 201.557228 
L 194.801012 196.994851 
L 195.190044 196.994851 
L 195.190044 192.432475 
L 197.378113 192.432475 
L 197.378113 187.870099 
L 197.884037 187.870099 
L 197.884037 183.307723 
L 197.927799 183.307723 
L 197.927799 178.745347 
L 198.855163 178.745347 
L 198.855163 174.18297 
L 199.563035 174.18297 
L 199.563035 169.620594 
L 200.762919 169.620594 
L 200.762919 165.058218 
L 202.50923 165.058218 
L 202.50923 160.495842 
L 202.61695 160.495842 
L 202.61695 155.933465 
L 203.046643 155.933465 
L 203.046643 151.371089 
L 207.255697 151.371089 
L 207.255697 146.808713 
L 210.221393 146.808713 
L 210.221393 142.246337 
L 210.48116 142.246337 
L 210.48116 137.68396 
L 212.73649 137.68396 
L 212.73649 133.121584 
L 213.077949 133.121584 
L 213.077949 128.559208 
L 214.168089 128.559208 
L 214.168089 123.996832 
L 217.075873 123.996832 
L 217.075873 119.434455 
L 217.966678 119.434455 
L 217.966678 114.872079 
L 218.040283 114.872079 
L 218.040283 110.309703 
L 218.890787 110.309703 
L 218.890787 105.747327 
L 219.189425 105.747327 
L 219.189425 101.18495 
L 219.197867 101.18495 
L 219.197867 96.622574 
L 220.581282 96.622574 
L 220.581282 92.060198 
L 220.685965 92.060198 
L 220.685965 87.497822 
L 221.205774 87.497822 
L 221.205774 82.935446 
L 221.607499 82.935446 
L 221.607499 78.373069 
L 221.85109 78.373069 
L 221.85109 73.810693 
L 221.887213 73.810693 
L 221.887213 69.248317 
L 221.933335 69.248317 
L 221.933335 64.685941 
L 222.36438 64.685941 
L 222.36438 60.123564 
L 223.038625 60.123564 
L 223.038625 55.561188 
L 223.221023 55.561188 
L 223.221023 50.998812 
L 224.196819 50.998812 
L 224.196819 46.436436 
L 224.546498 46.436436 
L 224.546498 41.874059 
L 225.928904 41.874059 
L 225.928904 37.311683 
L 226.55749 37.311683 
L 226.55749 32.749307 
L 227.527755 32.749307 
L 227.527755 28.186931 
L 230.617267 28.186931 
L 230.617267 23.624554 
L 231.772573 23.624554 
L 231.772573 19.062178 
L 232.346581 19.062178 
L 232.346581 14.499802 
L 259.661204 14.499802 
L 259.661204 9.937426 
L 259.661204 9.937426 
L 259.661204 9.937426 
L 364.32 9.937426 
" style="fill:none;stroke:#ff0000;stroke-linecap:square;stroke-width:3.0;"/>
   </g>
   <g id="line2d_2">
    <path clip-path="url(#peefa623a35)" d="M 204.689851 283.68 
L 204.689851 279.117624 
L 205.217844 279.117624 
L 205.217844 274.555248 
L 205.362127 274.555248 
L 205.362127 269.992871 
L 208.84849 269.992871 
L 208.84849 265.430495 
L 209.409501 265.430495 
L 209.409501 260.868119 
L 209.533051 260.868119 
L 209.533051 256.305743 
L 209.656073 256.305743 
L 209.656073 251.743366 
L 212.137786 251.743366 
L 212.137786 247.18099 
L 212.161285 247.18099 
L 212.161285 242.618614 
L 214.4494 242.618614 
L 214.4494 238.056238 
L 215.204821 238.056238 
L 215.204821 233.493861 
L 216.623628 233.493861 
L 216.623628 228.931485 
L 217.529819 228.931485 
L 217.529819 224.369109 
L 220.697767 224.369109 
L 220.697767 219.806733 
L 224.580451 219.806733 
L 224.580451 215.244356 
L 227.723569 215.244356 
L 227.723569 210.68198 
L 228.284184 210.68198 
L 228.284184 206.119604 
L 233.7636 206.119604 
L 233.7636 201.557228 
L 239.45 201.557228 
L 239.45 196.994851 
L 248.730796 196.994851 
L 248.730796 192.432475 
L 249.208794 192.432475 
L 249.208794 187.870099 
L 249.67914 187.870099 
L 249.67914 183.307723 
L 249.982831 183.307723 
L 249.982831 178.745347 
L 250.351832 178.745347 
L 250.351832 174.18297 
L 250.803826 174.18297 
L 250.803826 169.620594 
L 252.018311 169.620594 
L 252.018311 165.058218 
L 252.848017 165.058218 
L 252.848017 160.495842 
L 254.252843 160.495842 
L 254.252843 155.933465 
L 254.440538 155.933465 
L 254.440538 151.371089 
L 254.651889 151.371089 
L 254.651889 146.808713 
L 255.672467 146.808713 
L 255.672467 142.246337 
L 255.974126 142.246337 
L 255.974126 137.68396 
L 255.995297 137.68396 
L 255.995297 133.121584 
L 256.02227 133.121584 
L 256.02227 128.559208 
L 257.457468 128.559208 
L 257.457468 123.996832 
L 257.838899 123.996832 
L 257.838899 119.434455 
L 259.209694 119.434455 
L 259.209694 114.872079 
L 259.96285 114.872079 
L 259.96285 110.309703 
L 260.94484 110.309703 
L 260.94484 105.747327 
L 261.007565 105.747327 
L 261.007565 101.18495 
L 261.43438 101.18495 
L 261.43438 96.622574 
L 262.029831 96.622574 
L 262.029831 92.060198 
L 262.052526 92.060198 
L 262.052526 87.497822 
L 264.481357 87.497822 
L 264.481357 82.935446 
L 266.846052 82.935446 
L 266.846052 78.373069 
L 266.964697 78.373069 
L 266.964697 73.810693 
L 267.007652 73.810693 
L 267.007652 69.248317 
L 267.845493 69.248317 
L 267.845493 64.685941 
L 268.410336 64.685941 
L 268.410336 60.123564 
L 269.034547 60.123564 
L 269.034547 55.561188 
L 269.315417 55.561188 
L 269.315417 50.998812 
L 269.535453 50.998812 
L 269.535453 46.436436 
L 271.147703 46.436436 
L 271.147703 41.874059 
L 272.075916 41.874059 
L 272.075916 37.311683 
L 273.076401 37.311683 
L 273.076401 32.749307 
L 273.714732 32.749307 
L 273.714732 28.186931 
L 273.824929 28.186931 
L 273.824929 23.624554 
L 273.97661 23.624554 
L 273.97661 19.062178 
L 274.839954 19.062178 
L 274.839954 14.499802 
L 276.213275 14.499802 
L 276.213275 9.937426 
L 276.213275 9.937426 
L 276.213275 9.937426 
L 364.32 9.937426 
" style="fill:none;stroke:#00bfbf;stroke-linecap:square;"/>
   </g>
   <g id="line2d_3">
    <path clip-path="url(#peefa623a35)" d="M 198.855163 283.68 
L 198.855163 279.117624 
L 203.046643 279.117624 
L 203.046643 274.555248 
L 203.961874 274.555248 
L 203.961874 269.992871 
L 204.689851 269.992871 
L 204.689851 265.430495 
L 205.217844 265.430495 
L 205.217844 260.868119 
L 205.362127 260.868119 
L 205.362127 256.305743 
L 205.579429 256.305743 
L 205.579429 251.743366 
L 205.938186 251.743366 
L 205.938186 247.18099 
L 206.677522 247.18099 
L 206.677522 242.618614 
L 206.922099 242.618614 
L 206.922099 238.056238 
L 207.569558 238.056238 
L 207.569558 233.493861 
L 208.336799 233.493861 
L 208.336799 228.931485 
L 209.656073 228.931485 
L 209.656073 224.369109 
L 211.412811 224.369109 
L 211.412811 219.806733 
L 212.011525 219.806733 
L 212.011525 215.244356 
L 212.202408 215.244356 
L 212.202408 210.68198 
L 214.4494 210.68198 
L 214.4494 206.119604 
L 214.515421 206.119604 
L 214.515421 201.557228 
L 228.284184 201.557228 
L 228.284184 196.994851 
L 233.7636 196.994851 
L 233.7636 192.432475 
L 233.932826 192.432475 
L 233.932826 187.870099 
L 234.714551 187.870099 
L 234.714551 183.307723 
L 238.10719 183.307723 
L 238.10719 178.745347 
L 238.677529 178.745347 
L 238.677529 174.18297 
L 239.45 174.18297 
L 239.45 169.620594 
L 240.757721 169.620594 
L 240.757721 165.058218 
L 243.244696 165.058218 
L 243.244696 160.495842 
L 243.371478 160.495842 
L 243.371478 155.933465 
L 243.522388 155.933465 
L 243.522388 151.371089 
L 245.25552 151.371089 
L 245.25552 146.808713 
L 245.940754 146.808713 
L 245.940754 142.246337 
L 245.976571 142.246337 
L 245.976571 137.68396 
L 247.411219 137.68396 
L 247.411219 133.121584 
L 247.712023 133.121584 
L 247.712023 128.559208 
L 248.730796 128.559208 
L 248.730796 123.996832 
L 248.825834 123.996832 
L 248.825834 119.434455 
L 249.67914 119.434455 
L 249.67914 114.872079 
L 250.416986 114.872079 
L 250.416986 110.309703 
L 250.681192 110.309703 
L 250.681192 105.747327 
L 251.265826 105.747327 
L 251.265826 101.18495 
L 251.762869 101.18495 
L 251.762869 96.622574 
L 252.848017 96.622574 
L 252.848017 92.060198 
L 253.121551 92.060198 
L 253.121551 87.497822 
L 254.252843 87.497822 
L 254.252843 82.935446 
L 254.651889 82.935446 
L 254.651889 78.373069 
L 255.974126 78.373069 
L 255.974126 73.810693 
L 256.02227 73.810693 
L 256.02227 69.248317 
L 256.926235 69.248317 
L 256.926235 64.685941 
L 257.099118 64.685941 
L 257.099118 60.123564 
L 258.035534 60.123564 
L 258.035534 55.561188 
L 259.278208 55.561188 
L 259.278208 50.998812 
L 263.014756 50.998812 
L 263.014756 46.436436 
L 263.510683 46.436436 
L 263.510683 41.874059 
L 267.404852 41.874059 
L 267.404852 37.311683 
L 268.410336 37.311683 
L 268.410336 32.749307 
L 269.315417 32.749307 
L 269.315417 28.186931 
L 269.535453 28.186931 
L 269.535453 23.624554 
L 269.968359 23.624554 
L 269.968359 19.062178 
L 273.076401 19.062178 
L 273.076401 14.499802 
L 274.839954 14.499802 
L 274.839954 9.937426 
L 274.839954 9.937426 
L 274.839954 9.937426 
L 364.32 9.937426 
" style="fill:none;stroke:#bf00bf;stroke-linecap:square;"/>
   </g>
   <g id="line2d_4">
    <path clip-path="url(#peefa623a35)" d="M 192.575519 283.68 
L 192.575519 279.117624 
L 197.576258 279.117624 
L 197.576258 274.555248 
L 198.855163 274.555248 
L 198.855163 269.992871 
L 201.040341 269.992871 
L 201.040341 265.430495 
L 201.274686 265.430495 
L 201.274686 260.868119 
L 201.557533 260.868119 
L 201.557533 256.305743 
L 203.046643 256.305743 
L 203.046643 251.743366 
L 203.961874 251.743366 
L 203.961874 247.18099 
L 204.689851 247.18099 
L 204.689851 242.618614 
L 205.217844 242.618614 
L 205.217844 238.056238 
L 205.386648 238.056238 
L 205.386648 233.493861 
L 206.674001 233.493861 
L 206.674001 228.931485 
L 206.797253 228.931485 
L 206.797253 224.369109 
L 206.922099 224.369109 
L 206.922099 219.806733 
L 207.557446 219.806733 
L 207.557446 215.244356 
L 207.569558 215.244356 
L 207.569558 210.68198 
L 211.412811 210.68198 
L 211.412811 206.119604 
L 211.422613 206.119604 
L 211.422613 201.557228 
L 212.011525 201.557228 
L 212.011525 196.994851 
L 219.189425 196.994851 
L 219.189425 192.432475 
L 225.309625 192.432475 
L 225.309625 187.870099 
L 228.284184 187.870099 
L 228.284184 183.307723 
L 230.200604 183.307723 
L 230.200604 178.745347 
L 232.346581 178.745347 
L 232.346581 174.18297 
L 232.397088 174.18297 
L 232.397088 169.620594 
L 232.909666 169.620594 
L 232.909666 165.058218 
L 233.54646 165.058218 
L 233.54646 160.495842 
L 233.7636 160.495842 
L 233.7636 155.933465 
L 233.932826 155.933465 
L 233.932826 151.371089 
L 235.533114 151.371089 
L 235.533114 146.808713 
L 236.707969 146.808713 
L 236.707969 142.246337 
L 238.5821 142.246337 
L 238.5821 137.68396 
L 238.677529 137.68396 
L 238.677529 133.121584 
L 239.45 133.121584 
L 239.45 128.559208 
L 239.659565 128.559208 
L 239.659565 123.996832 
L 240.757721 123.996832 
L 240.757721 119.434455 
L 240.849234 119.434455 
L 240.849234 114.872079 
L 240.960465 114.872079 
L 240.960465 110.309703 
L 243.053647 110.309703 
L 243.053647 105.747327 
L 243.371478 105.747327 
L 243.371478 101.18495 
L 243.522388 101.18495 
L 243.522388 96.622574 
L 245.25552 96.622574 
L 245.25552 92.060198 
L 245.405436 92.060198 
L 245.405436 87.497822 
L 245.569976 87.497822 
L 245.569976 82.935446 
L 246.04003 82.935446 
L 246.04003 78.373069 
L 247.411219 78.373069 
L 247.411219 73.810693 
L 247.526119 73.810693 
L 247.526119 69.248317 
L 247.79253 69.248317 
L 247.79253 64.685941 
L 247.841578 64.685941 
L 247.841578 60.123564 
L 247.990148 60.123564 
L 247.990148 55.561188 
L 248.730796 55.561188 
L 248.730796 50.998812 
L 250.416986 50.998812 
L 250.416986 46.436436 
L 255.974126 46.436436 
L 255.974126 41.874059 
L 255.984159 41.874059 
L 255.984159 37.311683 
L 263.014756 37.311683 
L 263.014756 32.749307 
L 263.314212 32.749307 
L 263.314212 28.186931 
L 266.491594 28.186931 
L 266.491594 23.624554 
L 269.315417 23.624554 
L 269.315417 19.062178 
L 269.968359 19.062178 
L 269.968359 14.499802 
L 274.839954 14.499802 
L 274.839954 9.937426 
L 274.839954 9.937426 
L 274.839954 9.937426 
L 364.32 9.937426 
" style="fill:none;stroke:#000000;stroke-linecap:square;"/>
   </g>
   <g id="line2d_5">
    <path clip-path="url(#peefa623a35)" d="M 178.086048 283.68 
L 178.086048 279.117624 
L 182.99394 279.117624 
L 182.99394 274.555248 
L 185.194606 274.555248 
L 185.194606 269.992871 
L 187.440452 269.992871 
L 187.440452 265.430495 
L 191.614089 265.430495 
L 191.614089 260.868119 
L 192.575519 260.868119 
L 192.575519 256.305743 
L 195.552414 256.305743 
L 195.552414 251.743366 
L 195.710541 251.743366 
L 195.710541 247.18099 
L 196.293357 247.18099 
L 196.293357 242.618614 
L 198.32556 242.618614 
L 198.32556 238.056238 
L 198.819599 238.056238 
L 198.819599 233.493861 
L 198.855163 233.493861 
L 198.855163 228.931485 
L 201.11469 228.931485 
L 201.11469 224.369109 
L 201.274686 224.369109 
L 201.274686 219.806733 
L 203.046643 219.806733 
L 203.046643 215.244356 
L 203.961874 215.244356 
L 203.961874 210.68198 
L 204.689851 210.68198 
L 204.689851 206.119604 
L 205.526295 206.119604 
L 205.526295 201.557228 
L 206.593457 201.557228 
L 206.593457 196.994851 
L 206.671107 196.994851 
L 206.671107 192.432475 
L 206.797253 192.432475 
L 206.797253 187.870099 
L 206.922099 187.870099 
L 206.922099 183.307723 
L 207.862394 183.307723 
L 207.862394 178.745347 
L 214.168089 178.745347 
L 214.168089 174.18297 
L 215.671302 174.18297 
L 215.671302 169.620594 
L 217.820443 169.620594 
L 217.820443 165.058218 
L 218.148818 165.058218 
L 218.148818 160.495842 
L 219.189425 160.495842 
L 219.189425 155.933465 
L 221.607499 155.933465 
L 221.607499 151.371089 
L 222.415148 151.371089 
L 222.415148 146.808713 
L 225.309625 146.808713 
L 225.309625 142.246337 
L 226.02855 142.246337 
L 226.02855 137.68396 
L 228.284184 137.68396 
L 228.284184 133.121584 
L 228.787883 133.121584 
L 228.787883 128.559208 
L 230.200604 128.559208 
L 230.200604 123.996832 
L 231.772573 123.996832 
L 231.772573 119.434455 
L 231.920885 119.434455 
L 231.920885 114.872079 
L 232.139681 114.872079 
L 232.139681 110.309703 
L 232.346581 110.309703 
L 232.346581 105.747327 
L 232.528987 105.747327 
L 232.528987 101.18495 
L 232.909666 101.18495 
L 232.909666 96.622574 
L 233.54646 96.622574 
L 233.54646 92.060198 
L 233.581247 92.060198 
L 233.581247 87.497822 
L 233.7636 87.497822 
L 233.7636 82.935446 
L 233.932826 82.935446 
L 233.932826 78.373069 
L 235.02919 78.373069 
L 235.02919 73.810693 
L 235.533114 73.810693 
L 235.533114 69.248317 
L 235.615517 69.248317 
L 235.615517 64.685941 
L 237.742412 64.685941 
L 237.742412 60.123564 
L 238.815936 60.123564 
L 238.815936 55.561188 
L 239.45 55.561188 
L 239.45 50.998812 
L 240.883008 50.998812 
L 240.883008 46.436436 
L 243.371478 46.436436 
L 243.371478 41.874059 
L 243.97866 41.874059 
L 243.97866 37.311683 
L 244.308955 37.311683 
L 244.308955 32.749307 
L 247.411219 32.749307 
L 247.411219 28.186931 
L 247.79253 28.186931 
L 247.79253 23.624554 
L 251.54853 23.624554 
L 251.54853 19.062178 
L 256.944108 19.062178 
L 256.944108 14.499802 
L 259.661204 14.499802 
L 259.661204 9.937426 
L 259.661204 9.937426 
L 259.661204 9.937426 
L 364.32 9.937426 
" style="fill:none;stroke:#00bfbf;stroke-linecap:square;"/>
   </g>
   <g id="line2d_6">
    <path clip-path="url(#peefa623a35)" d="M 170.576045 283.68 
L 170.576045 279.117624 
L 177.603671 279.117624 
L 177.603671 274.555248 
L 178.086048 274.555248 
L 178.086048 269.992871 
L 181.418117 269.992871 
L 181.418117 265.430495 
L 182.669317 265.430495 
L 182.669317 260.868119 
L 183.524655 260.868119 
L 183.524655 256.305743 
L 185.194606 256.305743 
L 185.194606 251.743366 
L 186.018063 251.743366 
L 186.018063 247.18099 
L 189.304242 247.18099 
L 189.304242 242.618614 
L 189.885059 242.618614 
L 189.885059 238.056238 
L 190.87509 238.056238 
L 190.87509 233.493861 
L 191.565134 233.493861 
L 191.565134 228.931485 
L 192.575519 228.931485 
L 192.575519 224.369109 
L 192.751884 224.369109 
L 192.751884 219.806733 
L 192.765721 219.806733 
L 192.765721 215.244356 
L 193.229659 215.244356 
L 193.229659 210.68198 
L 193.638787 210.68198 
L 193.638787 206.119604 
L 193.98983 206.119604 
L 193.98983 201.557228 
L 194.195344 201.557228 
L 194.195344 196.994851 
L 194.799631 196.994851 
L 194.799631 192.432475 
L 195.188436 192.432475 
L 195.188436 187.870099 
L 195.810345 187.870099 
L 195.810345 183.307723 
L 197.378113 183.307723 
L 197.378113 178.745347 
L 197.884037 178.745347 
L 197.884037 174.18297 
L 198.854305 174.18297 
L 198.854305 169.620594 
L 199.563035 169.620594 
L 199.563035 165.058218 
L 200.762919 165.058218 
L 200.762919 160.495842 
L 200.773588 160.495842 
L 200.773588 155.933465 
L 201.219453 155.933465 
L 201.219453 151.371089 
L 202.50923 151.371089 
L 202.50923 146.808713 
L 203.043312 146.808713 
L 203.043312 142.246337 
L 207.255697 142.246337 
L 207.255697 137.68396 
L 210.479829 137.68396 
L 210.479829 133.121584 
L 210.652682 133.121584 
L 210.652682 128.559208 
L 212.735448 128.559208 
L 212.735448 123.996832 
L 214.168089 123.996832 
L 214.168089 119.434455 
L 215.699009 119.434455 
L 215.699009 114.872079 
L 216.32398 114.872079 
L 216.32398 110.309703 
L 216.887151 110.309703 
L 216.887151 105.747327 
L 217.075873 105.747327 
L 217.075873 101.18495 
L 217.819235 101.18495 
L 217.819235 96.622574 
L 218.866209 96.622574 
L 218.866209 92.060198 
L 219.189425 92.060198 
L 219.189425 87.497822 
L 220.009152 87.497822 
L 220.009152 82.935446 
L 220.685965 82.935446 
L 220.685965 78.373069 
L 220.756939 78.373069 
L 220.756939 73.810693 
L 221.506838 73.810693 
L 221.506838 69.248317 
L 221.85109 69.248317 
L 221.85109 64.685941 
L 221.933335 64.685941 
L 221.933335 60.123564 
L 222.321801 60.123564 
L 222.321801 55.561188 
L 224.54649 55.561188 
L 224.54649 50.998812 
L 224.773761 50.998812 
L 224.773761 46.436436 
L 226.02855 46.436436 
L 226.02855 41.874059 
L 226.55749 41.874059 
L 226.55749 37.311683 
L 226.803184 37.311683 
L 226.803184 32.749307 
L 228.467129 32.749307 
L 228.467129 28.186931 
L 231.654637 28.186931 
L 231.654637 23.624554 
L 231.817892 23.624554 
L 231.817892 19.062178 
L 233.474818 19.062178 
L 233.474818 14.499802 
L 252.710126 14.499802 
L 252.710126 9.937426 
L 252.710126 9.937426 
L 252.710126 9.937426 
L 364.32 9.937426 
" style="fill:none;stroke:#bf00bf;stroke-linecap:square;"/>
   </g>
   <g id="patch_3">
    <path d="M 7.2 7.2 
L 364.32 7.2 
" style="fill:none;stroke:#000000;stroke-linecap:square;stroke-linejoin:miter;"/>
   </g>
   <g id="patch_4">
    <path d="M 364.32 283.68 
L 364.32 7.2 
" style="fill:none;stroke:#000000;stroke-linecap:square;stroke-linejoin:miter;"/>
   </g>
   <g id="patch_5">
    <path d="M 7.2 283.68 
L 364.32 283.68 
" style="fill:none;stroke:#000000;stroke-linecap:square;stroke-linejoin:miter;"/>
   </g>
   <g id="patch_6">
    <path d="M 7.2 283.68 
L 7.2 7.2 
" style="fill:none;stroke:#000000;stroke-linecap:square;stroke-linejoin:miter;"/>
   </g>
   <g id="matplotlib.axis_1">
    <g id="xtick_1">
     <g id="line2d_7">
      <path clip-path="url(#peefa623a35)" d="M 46.803772 283.68 
L 46.803772 7.2 
" style="fill:none;stroke:#000000;stroke-dasharray:1.000000,3.000000;stroke-dashoffset:0.0;stroke-width:0.5;"/>
     </g>
     <g id="line2d_8">
      <defs>
       <path d="M 0 0 
L 0 -4 
" id="m17dc1a643a" style="stroke:#000000;stroke-width:0.5;"/>
      </defs>
      <g>
       <use style="stroke:#000000;stroke-width:0.5;" x="46.803771872" xlink:href="#m17dc1a643a" y="283.68"/>
      </g>
     </g>
     <g id="line2d_9">
      <defs>
       <path d="M 0 0 
L 0 4 
" id="m2e00558a83" style="stroke:#000000;stroke-width:0.5;"/>
      </defs>
      <g>
       <use style="stroke:#000000;stroke-width:0.5;" x="46.803771872" xlink:href="#m2e00558a83" y="7.2"/>
      </g>
     </g>
     <g id="text_1">
      <!-- -6 -->
      <defs>
       <path d="M 33.015625 40.375 
Q 26.375 40.375 22.484375 35.828125 
Q 18.609375 31.296875 18.609375 23.390625 
Q 18.609375 15.53125 22.484375 10.953125 
Q 26.375 6.390625 33.015625 6.390625 
Q 39.65625 6.390625 43.53125 10.953125 
Q 47.40625 15.53125 47.40625 23.390625 
Q 47.40625 31.296875 43.53125 35.828125 
Q 39.65625 40.375 33.015625 40.375 
M 52.59375 71.296875 
L 52.59375 62.3125 
Q 48.875 64.0625 45.09375 64.984375 
Q 41.3125 65.921875 37.59375 65.921875 
Q 27.828125 65.921875 22.671875 59.328125 
Q 17.53125 52.734375 16.796875 39.40625 
Q 19.671875 43.65625 24.015625 45.921875 
Q 28.375 48.1875 33.59375 48.1875 
Q 44.578125 48.1875 50.953125 41.515625 
Q 57.328125 34.859375 57.328125 23.390625 
Q 57.328125 12.15625 50.6875 5.359375 
Q 44.046875 -1.421875 33.015625 -1.421875 
Q 20.359375 -1.421875 13.671875 8.265625 
Q 6.984375 17.96875 6.984375 36.375 
Q 6.984375 53.65625 15.1875 63.9375 
Q 23.390625 74.21875 37.203125 74.21875 
Q 40.921875 74.21875 44.703125 73.484375 
Q 48.484375 72.75 52.59375 71.296875 
" id="BitstreamVeraSans-Roman-36"/>
       <path d="M 4.890625 31.390625 
L 31.203125 31.390625 
L 31.203125 23.390625 
L 4.890625 23.390625 
z
" id="BitstreamVeraSans-Roman-2d"/>
      </defs>
      <g transform="translate(36.833459372 302.876875)scale(0.2 -0.2)">
       <use xlink:href="#BitstreamVeraSans-Roman-2d"/>
       <use x="36.083984375" xlink:href="#BitstreamVeraSans-Roman-36"/>
      </g>
     </g>
    </g>
    <g id="xtick_2">
     <g id="line2d_10">
      <path clip-path="url(#peefa623a35)" d="M 86.4933 283.68 
L 86.4933 7.2 
" style="fill:none;stroke:#000000;stroke-dasharray:1.000000,3.000000;stroke-dashoffset:0.0;stroke-width:0.5;"/>
     </g>
     <g id="line2d_11">
      <g>
       <use style="stroke:#000000;stroke-width:0.5;" x="86.493300388" xlink:href="#m17dc1a643a" y="283.68"/>
      </g>
     </g>
     <g id="line2d_12">
      <g>
       <use style="stroke:#000000;stroke-width:0.5;" x="86.493300388" xlink:href="#m2e00558a83" y="7.2"/>
      </g>
     </g>
     <g id="text_2">
      <!-- -4 -->
      <defs>
       <path d="M 37.796875 64.3125 
L 12.890625 25.390625 
L 37.796875 25.390625 
z
M 35.203125 72.90625 
L 47.609375 72.90625 
L 47.609375 25.390625 
L 58.015625 25.390625 
L 58.015625 17.1875 
L 47.609375 17.1875 
L 47.609375 0 
L 37.796875 0 
L 37.796875 17.1875 
L 4.890625 17.1875 
L 4.890625 26.703125 
z
" id="BitstreamVeraSans-Roman-34"/>
      </defs>
      <g transform="translate(76.522987888 302.876875)scale(0.2 -0.2)">
       <use xlink:href="#BitstreamVeraSans-Roman-2d"/>
       <use x="36.083984375" xlink:href="#BitstreamVeraSans-Roman-34"/>
      </g>
     </g>
    </g>
    <g id="xtick_3">
     <g id="line2d_13">
      <path clip-path="url(#peefa623a35)" d="M 126.182829 283.68 
L 126.182829 7.2 
" style="fill:none;stroke:#000000;stroke-dasharray:1.000000,3.000000;stroke-dashoffset:0.0;stroke-width:0.5;"/>
     </g>
     <g id="line2d_14">
      <g>
       <use style="stroke:#000000;stroke-width:0.5;" x="126.182828904" xlink:href="#m17dc1a643a" y="283.68"/>
      </g>
     </g>
     <g id="line2d_15">
      <g>
       <use style="stroke:#000000;stroke-width:0.5;" x="126.182828904" xlink:href="#m2e00558a83" y="7.2"/>
      </g>
     </g>
     <g id="text_3">
      <!-- -2 -->
      <defs>
       <path d="M 19.1875 8.296875 
L 53.609375 8.296875 
L 53.609375 0 
L 7.328125 0 
L 7.328125 8.296875 
Q 12.9375 14.109375 22.625 23.890625 
Q 32.328125 33.6875 34.8125 36.53125 
Q 39.546875 41.84375 41.421875 45.53125 
Q 43.3125 49.21875 43.3125 52.78125 
Q 43.3125 58.59375 39.234375 62.25 
Q 35.15625 65.921875 28.609375 65.921875 
Q 23.96875 65.921875 18.8125 64.3125 
Q 13.671875 62.703125 7.8125 59.421875 
L 7.8125 69.390625 
Q 13.765625 71.78125 18.9375 73 
Q 24.125 74.21875 28.421875 74.21875 
Q 39.75 74.21875 46.484375 68.546875 
Q 53.21875 62.890625 53.21875 53.421875 
Q 53.21875 48.921875 51.53125 44.890625 
Q 49.859375 40.875 45.40625 35.40625 
Q 44.1875 33.984375 37.640625 27.21875 
Q 31.109375 20.453125 19.1875 8.296875 
" id="BitstreamVeraSans-Roman-32"/>
      </defs>
      <g transform="translate(116.212516404 302.876875)scale(0.2 -0.2)">
       <use xlink:href="#BitstreamVeraSans-Roman-2d"/>
       <use x="36.083984375" xlink:href="#BitstreamVeraSans-Roman-32"/>
      </g>
     </g>
    </g>
    <g id="xtick_4">
     <g id="line2d_16">
      <path clip-path="url(#peefa623a35)" d="M 165.872357 283.68 
L 165.872357 7.2 
" style="fill:none;stroke:#000000;stroke-dasharray:1.000000,3.000000;stroke-dashoffset:0.0;stroke-width:0.5;"/>
     </g>
     <g id="line2d_17">
      <g>
       <use style="stroke:#000000;stroke-width:0.5;" x="165.87235742" xlink:href="#m17dc1a643a" y="283.68"/>
      </g>
     </g>
     <g id="line2d_18">
      <g>
       <use style="stroke:#000000;stroke-width:0.5;" x="165.87235742" xlink:href="#m2e00558a83" y="7.2"/>
      </g>
     </g>
     <g id="text_4">
      <!-- 0 -->
      <defs>
       <path d="M 31.78125 66.40625 
Q 24.171875 66.40625 20.328125 58.90625 
Q 16.5 51.421875 16.5 36.375 
Q 16.5 21.390625 20.328125 13.890625 
Q 24.171875 6.390625 31.78125 6.390625 
Q 39.453125 6.390625 43.28125 13.890625 
Q 47.125 21.390625 47.125 36.375 
Q 47.125 51.421875 43.28125 58.90625 
Q 39.453125 66.40625 31.78125 66.40625 
M 31.78125 74.21875 
Q 44.046875 74.21875 50.515625 64.515625 
Q 56.984375 54.828125 56.984375 36.375 
Q 56.984375 17.96875 50.515625 8.265625 
Q 44.046875 -1.421875 31.78125 -1.421875 
Q 19.53125 -1.421875 13.0625 8.265625 
Q 6.59375 17.96875 6.59375 36.375 
Q 6.59375 54.828125 13.0625 64.515625 
Q 19.53125 74.21875 31.78125 74.21875 
" id="BitstreamVeraSans-Roman-30"/>
      </defs>
      <g transform="translate(159.50985742 302.876875)scale(0.2 -0.2)">
       <use xlink:href="#BitstreamVeraSans-Roman-30"/>
      </g>
     </g>
    </g>
    <g id="xtick_5">
     <g id="line2d_19">
      <path clip-path="url(#peefa623a35)" d="M 205.561886 283.68 
L 205.561886 7.2 
" style="fill:none;stroke:#000000;stroke-dasharray:1.000000,3.000000;stroke-dashoffset:0.0;stroke-width:0.5;"/>
     </g>
     <g id="line2d_20">
      <g>
       <use style="stroke:#000000;stroke-width:0.5;" x="205.561885936" xlink:href="#m17dc1a643a" y="283.68"/>
      </g>
     </g>
     <g id="line2d_21">
      <g>
       <use style="stroke:#000000;stroke-width:0.5;" x="205.561885936" xlink:href="#m2e00558a83" y="7.2"/>
      </g>
     </g>
     <g id="text_5">
      <!-- 2 -->
      <g transform="translate(199.199385936 302.876875)scale(0.2 -0.2)">
       <use xlink:href="#BitstreamVeraSans-Roman-32"/>
      </g>
     </g>
    </g>
    <g id="xtick_6">
     <g id="line2d_22">
      <path clip-path="url(#peefa623a35)" d="M 245.251414 283.68 
L 245.251414 7.2 
" style="fill:none;stroke:#000000;stroke-dasharray:1.000000,3.000000;stroke-dashoffset:0.0;stroke-width:0.5;"/>
     </g>
     <g id="line2d_23">
      <g>
       <use style="stroke:#000000;stroke-width:0.5;" x="245.251414452" xlink:href="#m17dc1a643a" y="283.68"/>
      </g>
     </g>
     <g id="line2d_24">
      <g>
       <use style="stroke:#000000;stroke-width:0.5;" x="245.251414452" xlink:href="#m2e00558a83" y="7.2"/>
      </g>
     </g>
     <g id="text_6">
      <!-- 4 -->
      <g transform="translate(238.888914452 302.876875)scale(0.2 -0.2)">
       <use xlink:href="#BitstreamVeraSans-Roman-34"/>
      </g>
     </g>
    </g>
    <g id="xtick_7">
     <g id="line2d_25">
      <path clip-path="url(#peefa623a35)" d="M 284.940943 283.68 
L 284.940943 7.2 
" style="fill:none;stroke:#000000;stroke-dasharray:1.000000,3.000000;stroke-dashoffset:0.0;stroke-width:0.5;"/>
     </g>
     <g id="line2d_26">
      <g>
       <use style="stroke:#000000;stroke-width:0.5;" x="284.940942968" xlink:href="#m17dc1a643a" y="283.68"/>
      </g>
     </g>
     <g id="line2d_27">
      <g>
       <use style="stroke:#000000;stroke-width:0.5;" x="284.940942968" xlink:href="#m2e00558a83" y="7.2"/>
      </g>
     </g>
     <g id="text_7">
      <!-- 6 -->
      <g transform="translate(278.578442968 302.876875)scale(0.2 -0.2)">
       <use xlink:href="#BitstreamVeraSans-Roman-36"/>
      </g>
     </g>
    </g>
    <g id="xtick_8">
     <g id="line2d_28">
      <path clip-path="url(#peefa623a35)" d="M 324.630471 283.68 
L 324.630471 7.2 
" style="fill:none;stroke:#000000;stroke-dasharray:1.000000,3.000000;stroke-dashoffset:0.0;stroke-width:0.5;"/>
     </g>
     <g id="line2d_29">
      <g>
       <use style="stroke:#000000;stroke-width:0.5;" x="324.630471484" xlink:href="#m17dc1a643a" y="283.68"/>
      </g>
     </g>
     <g id="line2d_30">
      <g>
       <use style="stroke:#000000;stroke-width:0.5;" x="324.630471484" xlink:href="#m2e00558a83" y="7.2"/>
      </g>
     </g>
     <g id="text_8">
      <!-- 8 -->
      <defs>
       <path d="M 31.78125 34.625 
Q 24.75 34.625 20.71875 30.859375 
Q 16.703125 27.09375 16.703125 20.515625 
Q 16.703125 13.921875 20.71875 10.15625 
Q 24.75 6.390625 31.78125 6.390625 
Q 38.8125 6.390625 42.859375 10.171875 
Q 46.921875 13.96875 46.921875 20.515625 
Q 46.921875 27.09375 42.890625 30.859375 
Q 38.875 34.625 31.78125 34.625 
M 21.921875 38.8125 
Q 15.578125 40.375 12.03125 44.71875 
Q 8.5 49.078125 8.5 55.328125 
Q 8.5 64.0625 14.71875 69.140625 
Q 20.953125 74.21875 31.78125 74.21875 
Q 42.671875 74.21875 48.875 69.140625 
Q 55.078125 64.0625 55.078125 55.328125 
Q 55.078125 49.078125 51.53125 44.71875 
Q 48 40.375 41.703125 38.8125 
Q 48.828125 37.15625 52.796875 32.3125 
Q 56.78125 27.484375 56.78125 20.515625 
Q 56.78125 9.90625 50.3125 4.234375 
Q 43.84375 -1.421875 31.78125 -1.421875 
Q 19.734375 -1.421875 13.25 4.234375 
Q 6.78125 9.90625 6.78125 20.515625 
Q 6.78125 27.484375 10.78125 32.3125 
Q 14.796875 37.15625 21.921875 38.8125 
M 18.3125 54.390625 
Q 18.3125 48.734375 21.84375 45.5625 
Q 25.390625 42.390625 31.78125 42.390625 
Q 38.140625 42.390625 41.71875 45.5625 
Q 45.3125 48.734375 45.3125 54.390625 
Q 45.3125 60.0625 41.71875 63.234375 
Q 38.140625 66.40625 31.78125 66.40625 
Q 25.390625 66.40625 21.84375 63.234375 
Q 18.3125 60.0625 18.3125 54.390625 
" id="BitstreamVeraSans-Roman-38"/>
      </defs>
      <g transform="translate(318.267971484 302.876875)scale(0.2 -0.2)">
       <use xlink:href="#BitstreamVeraSans-Roman-38"/>
      </g>
     </g>
    </g>
    <g id="xtick_9">
     <g id="line2d_31">
      <path clip-path="url(#peefa623a35)" d="M 364.32 283.68 
L 364.32 7.2 
" style="fill:none;stroke:#000000;stroke-dasharray:1.000000,3.000000;stroke-dashoffset:0.0;stroke-width:0.5;"/>
     </g>
     <g id="line2d_32">
      <g>
       <use style="stroke:#000000;stroke-width:0.5;" x="364.32" xlink:href="#m17dc1a643a" y="283.68"/>
      </g>
     </g>
     <g id="line2d_33">
      <g>
       <use style="stroke:#000000;stroke-width:0.5;" x="364.32" xlink:href="#m2e00558a83" y="7.2"/>
      </g>
     </g>
    </g>
    <g id="xtick_10">
     <g id="line2d_34">
      <defs>
       <path d="M 0 0 
L 0 -2 
" id="m94aa3f1604" style="stroke:#000000;stroke-width:0.5;"/>
      </defs>
      <g>
       <use style="stroke:#000000;stroke-width:0.5;" x="46.803771872" xlink:href="#m94aa3f1604" y="283.68"/>
      </g>
     </g>
     <g id="line2d_35">
      <defs>
       <path d="M 0 0 
L 0 2 
" id="mdac2951de6" style="stroke:#000000;stroke-width:0.5;"/>
      </defs>
      <g>
       <use style="stroke:#000000;stroke-width:0.5;" x="46.803771872" xlink:href="#mdac2951de6" y="7.2"/>
      </g>
     </g>
    </g>
    <g id="xtick_11">
     <g id="line2d_36">
      <g>
       <use style="stroke:#000000;stroke-width:0.5;" x="86.493300388" xlink:href="#m94aa3f1604" y="283.68"/>
      </g>
     </g>
     <g id="line2d_37">
      <g>
       <use style="stroke:#000000;stroke-width:0.5;" x="86.493300388" xlink:href="#mdac2951de6" y="7.2"/>
      </g>
     </g>
    </g>
    <g id="xtick_12">
     <g id="line2d_38">
      <g>
       <use style="stroke:#000000;stroke-width:0.5;" x="126.182828904" xlink:href="#m94aa3f1604" y="283.68"/>
      </g>
     </g>
     <g id="line2d_39">
      <g>
       <use style="stroke:#000000;stroke-width:0.5;" x="126.182828904" xlink:href="#mdac2951de6" y="7.2"/>
      </g>
     </g>
    </g>
    <g id="xtick_13">
     <g id="line2d_40">
      <g>
       <use style="stroke:#000000;stroke-width:0.5;" x="165.87235742" xlink:href="#m94aa3f1604" y="283.68"/>
      </g>
     </g>
     <g id="line2d_41">
      <g>
       <use style="stroke:#000000;stroke-width:0.5;" x="165.87235742" xlink:href="#mdac2951de6" y="7.2"/>
      </g>
     </g>
    </g>
    <g id="xtick_14">
     <g id="line2d_42">
      <g>
       <use style="stroke:#000000;stroke-width:0.5;" x="205.561885936" xlink:href="#m94aa3f1604" y="283.68"/>
      </g>
     </g>
     <g id="line2d_43">
      <g>
       <use style="stroke:#000000;stroke-width:0.5;" x="205.561885936" xlink:href="#mdac2951de6" y="7.2"/>
      </g>
     </g>
    </g>
    <g id="xtick_15">
     <g id="line2d_44">
      <g>
       <use style="stroke:#000000;stroke-width:0.5;" x="245.251414452" xlink:href="#m94aa3f1604" y="283.68"/>
      </g>
     </g>
     <g id="line2d_45">
      <g>
       <use style="stroke:#000000;stroke-width:0.5;" x="245.251414452" xlink:href="#mdac2951de6" y="7.2"/>
      </g>
     </g>
    </g>
    <g id="xtick_16">
     <g id="line2d_46">
      <g>
       <use style="stroke:#000000;stroke-width:0.5;" x="284.940942968" xlink:href="#m94aa3f1604" y="283.68"/>
      </g>
     </g>
     <g id="line2d_47">
      <g>
       <use style="stroke:#000000;stroke-width:0.5;" x="284.940942968" xlink:href="#mdac2951de6" y="7.2"/>
      </g>
     </g>
    </g>
    <g id="xtick_17">
     <g id="line2d_48">
      <g>
       <use style="stroke:#000000;stroke-width:0.5;" x="324.630471484" xlink:href="#m94aa3f1604" y="283.68"/>
      </g>
     </g>
     <g id="line2d_49">
      <g>
       <use style="stroke:#000000;stroke-width:0.5;" x="324.630471484" xlink:href="#mdac2951de6" y="7.2"/>
      </g>
     </g>
    </g>
    <g id="xtick_18">
     <g id="line2d_50">
      <g>
       <use style="stroke:#000000;stroke-width:0.5;" x="364.32" xlink:href="#m94aa3f1604" y="283.68"/>
      </g>
     </g>
     <g id="line2d_51">
      <g>
       <use style="stroke:#000000;stroke-width:0.5;" x="364.32" xlink:href="#mdac2951de6" y="7.2"/>
      </g>
     </g>
    </g>
    <g id="text_9">
     <!-- log10 of Df -->
     <defs>
      <path id="BitstreamVeraSans-Roman-20"/>
      <path d="M 12.40625 8.296875 
L 28.515625 8.296875 
L 28.515625 63.921875 
L 10.984375 60.40625 
L 10.984375 69.390625 
L 28.421875 72.90625 
L 38.28125 72.90625 
L 38.28125 8.296875 
L 54.390625 8.296875 
L 54.390625 0 
L 12.40625 0 
z
" id="BitstreamVeraSans-Roman-31"/>
      <path d="M 30.609375 48.390625 
Q 23.390625 48.390625 19.1875 42.75 
Q 14.984375 37.109375 14.984375 27.296875 
Q 14.984375 17.484375 19.15625 11.84375 
Q 23.34375 6.203125 30.609375 6.203125 
Q 37.796875 6.203125 41.984375 11.859375 
Q 46.1875 17.53125 46.1875 27.296875 
Q 46.1875 37.015625 41.984375 42.703125 
Q 37.796875 48.390625 30.609375 48.390625 
M 30.609375 56 
Q 42.328125 56 49.015625 48.375 
Q 55.71875 40.765625 55.71875 27.296875 
Q 55.71875 13.875 49.015625 6.21875 
Q 42.328125 -1.421875 30.609375 -1.421875 
Q 18.84375 -1.421875 12.171875 6.21875 
Q 5.515625 13.875 5.515625 27.296875 
Q 5.515625 40.765625 12.171875 48.375 
Q 18.84375 56 30.609375 56 
" id="BitstreamVeraSans-Roman-6f"/>
      <path d="M 9.421875 75.984375 
L 18.40625 75.984375 
L 18.40625 0 
L 9.421875 0 
z
" id="BitstreamVeraSans-Roman-6c"/>
      <path d="M 19.671875 64.796875 
L 19.671875 8.109375 
L 31.59375 8.109375 
Q 46.6875 8.109375 53.6875 14.9375 
Q 60.6875 21.78125 60.6875 36.53125 
Q 60.6875 51.171875 53.6875 57.984375 
Q 46.6875 64.796875 31.59375 64.796875 
z
M 9.8125 72.90625 
L 30.078125 72.90625 
Q 51.265625 72.90625 61.171875 64.09375 
Q 71.09375 55.28125 71.09375 36.53125 
Q 71.09375 17.671875 61.125 8.828125 
Q 51.171875 0 30.078125 0 
L 9.8125 0 
z
" id="BitstreamVeraSans-Roman-44"/>
      <path d="M 45.40625 27.984375 
Q 45.40625 37.75 41.375 43.109375 
Q 37.359375 48.484375 30.078125 48.484375 
Q 22.859375 48.484375 18.828125 43.109375 
Q 14.796875 37.75 14.796875 27.984375 
Q 14.796875 18.265625 18.828125 12.890625 
Q 22.859375 7.515625 30.078125 7.515625 
Q 37.359375 7.515625 41.375 12.890625 
Q 45.40625 18.265625 45.40625 27.984375 
M 54.390625 6.78125 
Q 54.390625 -7.171875 48.1875 -13.984375 
Q 42 -20.796875 29.203125 -20.796875 
Q 24.46875 -20.796875 20.265625 -20.09375 
Q 16.0625 -19.390625 12.109375 -17.921875 
L 12.109375 -9.1875 
Q 16.0625 -11.328125 19.921875 -12.34375 
Q 23.78125 -13.375 27.78125 -13.375 
Q 36.625 -13.375 41.015625 -8.765625 
Q 45.40625 -4.15625 45.40625 5.171875 
L 45.40625 9.625 
Q 42.625 4.78125 38.28125 2.390625 
Q 33.9375 0 27.875 0 
Q 17.828125 0 11.671875 7.65625 
Q 5.515625 15.328125 5.515625 27.984375 
Q 5.515625 40.671875 11.671875 48.328125 
Q 17.828125 56 27.875 56 
Q 33.9375 56 38.28125 53.609375 
Q 42.625 51.21875 45.40625 46.390625 
L 45.40625 54.6875 
L 54.390625 54.6875 
z
" id="BitstreamVeraSans-Roman-67"/>
      <path d="M 37.109375 75.984375 
L 37.109375 68.5 
L 28.515625 68.5 
Q 23.6875 68.5 21.796875 66.546875 
Q 19.921875 64.59375 19.921875 59.515625 
L 19.921875 54.6875 
L 34.71875 54.6875 
L 34.71875 47.703125 
L 19.921875 47.703125 
L 19.921875 0 
L 10.890625 0 
L 10.890625 47.703125 
L 2.296875 47.703125 
L 2.296875 54.6875 
L 10.890625 54.6875 
L 10.890625 58.5 
Q 10.890625 67.625 15.140625 71.796875 
Q 19.390625 75.984375 28.609375 75.984375 
z
" id="BitstreamVeraSans-Roman-66"/>
     </defs>
     <g transform="translate(130.5740625 327.233125)scale(0.2 -0.2)">
      <use xlink:href="#BitstreamVeraSans-Roman-6c"/>
      <use x="27.783203125" xlink:href="#BitstreamVeraSans-Roman-6f"/>
      <use x="88.96484375" xlink:href="#BitstreamVeraSans-Roman-67"/>
      <use x="152.44140625" xlink:href="#BitstreamVeraSans-Roman-31"/>
      <use x="216.064453125" xlink:href="#BitstreamVeraSans-Roman-30"/>
      <use x="279.6875" xlink:href="#BitstreamVeraSans-Roman-20"/>
      <use x="311.474609375" xlink:href="#BitstreamVeraSans-Roman-6f"/>
      <use x="372.65625" xlink:href="#BitstreamVeraSans-Roman-66"/>
      <use x="407.861328125" xlink:href="#BitstreamVeraSans-Roman-20"/>
      <use x="439.6484375" xlink:href="#BitstreamVeraSans-Roman-44"/>
      <use x="516.650390625" xlink:href="#BitstreamVeraSans-Roman-66"/>
     </g>
    </g>
   </g>
   <g id="matplotlib.axis_2">
    <g id="ytick_1">
     <g id="line2d_52">
      <path clip-path="url(#peefa623a35)" d="M 7.2 283.68 
L 364.32 283.68 
" style="fill:none;stroke:#000000;stroke-dasharray:1.000000,3.000000;stroke-dashoffset:0.0;stroke-width:0.5;"/>
     </g>
     <g id="line2d_53">
      <defs>
       <path d="M 0 0 
L 4 0 
" id="mfdf1aa9dec" style="stroke:#000000;stroke-width:0.5;"/>
      </defs>
      <g>
       <use style="stroke:#000000;stroke-width:0.5;" x="7.2" xlink:href="#mfdf1aa9dec" y="283.68"/>
      </g>
     </g>
     <g id="line2d_54">
      <defs>
       <path d="M 0 0 
L -4 0 
" id="m7ad6fd6b3b" style="stroke:#000000;stroke-width:0.5;"/>
      </defs>
      <g>
       <use style="stroke:#000000;stroke-width:0.5;" x="364.32" xlink:href="#m7ad6fd6b3b" y="283.68"/>
      </g>
     </g>
    </g>
    <g id="ytick_2">
     <g id="line2d_55">
      <path clip-path="url(#peefa623a35)" d="M 7.2 228.931485 
L 364.32 228.931485 
" style="fill:none;stroke:#000000;stroke-dasharray:1.000000,3.000000;stroke-dashoffset:0.0;stroke-width:0.5;"/>
     </g>
     <g id="line2d_56">
      <g>
       <use style="stroke:#000000;stroke-width:0.5;" x="7.2" xlink:href="#mfdf1aa9dec" y="228.931485149"/>
      </g>
     </g>
     <g id="line2d_57">
      <g>
       <use style="stroke:#000000;stroke-width:0.5;" x="364.32" xlink:href="#m7ad6fd6b3b" y="228.931485149"/>
      </g>
     </g>
    </g>
    <g id="ytick_3">
     <g id="line2d_58">
      <path clip-path="url(#peefa623a35)" d="M 7.2 174.18297 
L 364.32 174.18297 
" style="fill:none;stroke:#000000;stroke-dasharray:1.000000,3.000000;stroke-dashoffset:0.0;stroke-width:0.5;"/>
     </g>
     <g id="line2d_59">
      <g>
       <use style="stroke:#000000;stroke-width:0.5;" x="7.2" xlink:href="#mfdf1aa9dec" y="174.182970297"/>
      </g>
     </g>
     <g id="line2d_60">
      <g>
       <use style="stroke:#000000;stroke-width:0.5;" x="364.32" xlink:href="#m7ad6fd6b3b" y="174.182970297"/>
      </g>
     </g>
    </g>
    <g id="ytick_4">
     <g id="line2d_61">
      <path clip-path="url(#peefa623a35)" d="M 7.2 119.434455 
L 364.32 119.434455 
" style="fill:none;stroke:#000000;stroke-dasharray:1.000000,3.000000;stroke-dashoffset:0.0;stroke-width:0.5;"/>
     </g>
     <g id="line2d_62">
      <g>
       <use style="stroke:#000000;stroke-width:0.5;" x="7.2" xlink:href="#mfdf1aa9dec" y="119.434455446"/>
      </g>
     </g>
     <g id="line2d_63">
      <g>
       <use style="stroke:#000000;stroke-width:0.5;" x="364.32" xlink:href="#m7ad6fd6b3b" y="119.434455446"/>
      </g>
     </g>
    </g>
    <g id="ytick_5">
     <g id="line2d_64">
      <path clip-path="url(#peefa623a35)" d="M 7.2 64.685941 
L 364.32 64.685941 
" style="fill:none;stroke:#000000;stroke-dasharray:1.000000,3.000000;stroke-dashoffset:0.0;stroke-width:0.5;"/>
     </g>
     <g id="line2d_65">
      <g>
       <use style="stroke:#000000;stroke-width:0.5;" x="7.2" xlink:href="#mfdf1aa9dec" y="64.6859405941"/>
      </g>
     </g>
     <g id="line2d_66">
      <g>
       <use style="stroke:#000000;stroke-width:0.5;" x="364.32" xlink:href="#m7ad6fd6b3b" y="64.6859405941"/>
      </g>
     </g>
    </g>
    <g id="ytick_6">
     <g id="line2d_67">
      <path clip-path="url(#peefa623a35)" d="M 7.2 9.937426 
L 364.32 9.937426 
" style="fill:none;stroke:#000000;stroke-dasharray:1.000000,3.000000;stroke-dashoffset:0.0;stroke-width:0.5;"/>
     </g>
     <g id="line2d_68">
      <g>
       <use style="stroke:#000000;stroke-width:0.5;" x="7.2" xlink:href="#mfdf1aa9dec" y="9.93742574257"/>
      </g>
     </g>
     <g id="line2d_69">
      <g>
       <use style="stroke:#000000;stroke-width:0.5;" x="364.32" xlink:href="#m7ad6fd6b3b" y="9.93742574257"/>
      </g>
     </g>
    </g>
   </g>
   <g id="text_10">
    <!-- f6-9,5-D -->
    <defs>
     <path d="M 11.71875 12.40625 
L 22.015625 12.40625 
L 22.015625 4 
L 14.015625 -11.625 
L 7.71875 -11.625 
L 11.71875 4 
z
" id="BitstreamVeraSans-Roman-2c"/>
     <path d="M 10.984375 1.515625 
L 10.984375 10.5 
Q 14.703125 8.734375 18.5 7.8125 
Q 22.3125 6.890625 25.984375 6.890625 
Q 35.75 6.890625 40.890625 13.453125 
Q 46.046875 20.015625 46.78125 33.40625 
Q 43.953125 29.203125 39.59375 26.953125 
Q 35.25 24.703125 29.984375 24.703125 
Q 19.046875 24.703125 12.671875 31.3125 
Q 6.296875 37.9375 6.296875 49.421875 
Q 6.296875 60.640625 12.9375 67.421875 
Q 19.578125 74.21875 30.609375 74.21875 
Q 43.265625 74.21875 49.921875 64.515625 
Q 56.59375 54.828125 56.59375 36.375 
Q 56.59375 19.140625 48.40625 8.859375 
Q 40.234375 -1.421875 26.421875 -1.421875 
Q 22.703125 -1.421875 18.890625 -0.6875 
Q 15.09375 0.046875 10.984375 1.515625 
M 30.609375 32.421875 
Q 37.25 32.421875 41.125 36.953125 
Q 45.015625 41.5 45.015625 49.421875 
Q 45.015625 57.28125 41.125 61.84375 
Q 37.25 66.40625 30.609375 66.40625 
Q 23.96875 66.40625 20.09375 61.84375 
Q 16.21875 57.28125 16.21875 49.421875 
Q 16.21875 41.5 20.09375 36.953125 
Q 23.96875 32.421875 30.609375 32.421875 
" id="BitstreamVeraSans-Roman-39"/>
     <path d="M 10.796875 72.90625 
L 49.515625 72.90625 
L 49.515625 64.59375 
L 19.828125 64.59375 
L 19.828125 46.734375 
Q 21.96875 47.46875 24.109375 47.828125 
Q 26.265625 48.1875 28.421875 48.1875 
Q 40.625 48.1875 47.75 41.5 
Q 54.890625 34.8125 54.890625 23.390625 
Q 54.890625 11.625 47.5625 5.09375 
Q 40.234375 -1.421875 26.90625 -1.421875 
Q 22.3125 -1.421875 17.546875 -0.640625 
Q 12.796875 0.140625 7.71875 1.703125 
L 7.71875 11.625 
Q 12.109375 9.234375 16.796875 8.0625 
Q 21.484375 6.890625 26.703125 6.890625 
Q 35.15625 6.890625 40.078125 11.328125 
Q 45.015625 15.765625 45.015625 23.390625 
Q 45.015625 31 40.078125 35.4375 
Q 35.15625 39.890625 26.703125 39.890625 
Q 22.75 39.890625 18.8125 39.015625 
Q 14.890625 38.140625 10.796875 36.28125 
z
" id="BitstreamVeraSans-Roman-35"/>
    </defs>
    <g transform="translate(275.774475 278.1504)scale(0.2 -0.2)">
     <use xlink:href="#BitstreamVeraSans-Roman-66"/>
     <use x="35.205078125" xlink:href="#BitstreamVeraSans-Roman-36"/>
     <use x="98.828125" xlink:href="#BitstreamVeraSans-Roman-2d"/>
     <use x="134.912109375" xlink:href="#BitstreamVeraSans-Roman-39"/>
     <use x="198.53515625" xlink:href="#BitstreamVeraSans-Roman-2c"/>
     <use x="230.322265625" xlink:href="#BitstreamVeraSans-Roman-35"/>
     <use x="293.9453125" xlink:href="#BitstreamVeraSans-Roman-2d"/>
     <use x="330.029296875" xlink:href="#BitstreamVeraSans-Roman-44"/>
    </g>
   </g>
  </g>
 </g>
 <defs>
  <clipPath id="peefa623a35">
   <rect height="276.48" width="357.12" x="7.2" y="7.2"/>
  </clipPath>
 </defs>
</svg>
