<?xml version="1.0" encoding="utf-8" standalone="no"?>
<!DOCTYPE svg PUBLIC "-//W3C//DTD SVG 1.1//EN"
  "http://www.w3.org/Graphics/SVG/1.1/DTD/svg11.dtd">
<!-- Created with matplotlib (http://matplotlib.org/) -->
<svg height="338pt" version="1.1" viewBox="0 0 371 338" width="371pt" xmlns="http://www.w3.org/2000/svg" xmlns:xlink="http://www.w3.org/1999/xlink">
 <defs>
  <style type="text/css">
*{stroke-linecap:butt;stroke-linejoin:round;stroke-miterlimit:100000;}
  </style>
 </defs>
 <g id="figure_1">
  <g id="patch_1">
   <path d="M 0 338.5925 
L 371.52 338.5925 
L 371.52 0 
L 0 0 
z
" style="fill:#ffffff;"/>
  </g>
  <g id="axes_1">
   <g id="patch_2">
    <path d="M 7.2 283.68 
L 364.32 283.68 
L 364.32 7.2 
L 7.2 7.2 
z
" style="fill:#ffffff;"/>
   </g>
   <g id="line2d_1">
    <path clip-path="url(#pbbabb6c863)" d="M 212.379778 283.68 
L 212.379778 280.030099 
L 213.257728 280.030099 
L 213.257728 276.380198 
L 214.40981 276.380198 
L 214.40981 272.730297 
L 215.225198 272.730297 
L 215.225198 269.080396 
L 215.602464 269.080396 
L 215.631512 261.780594 
L 215.746604 261.780594 
L 215.746604 258.130693 
L 216.085205 258.130693 
L 216.085205 254.480792 
L 216.288888 254.480792 
L 216.288888 250.830891 
L 216.644765 250.830891 
L 216.644765 247.18099 
L 217.034704 247.18099 
L 217.034704 243.531089 
L 217.569737 243.531089 
L 217.620734 236.231287 
L 217.972743 236.231287 
L 217.972743 232.581386 
L 218.578991 232.581386 
L 218.578991 228.931485 
L 222.497502 228.931485 
L 222.497502 225.281584 
L 223.138258 225.281584 
L 223.173157 217.981782 
L 223.683126 217.981782 
L 223.757466 199.732277 
L 224.005396 199.732277 
L 224.110709 192.432475 
L 224.179044 192.432475 
L 224.230399 181.482772 
L 224.579238 181.482772 
L 224.579238 177.832871 
L 225.131287 177.832871 
L 225.131287 174.18297 
L 231.155426 174.18297 
L 231.155426 170.533069 
L 231.633643 170.533069 
L 231.673617 163.233267 
L 231.836512 163.233267 
L 231.836512 159.583366 
L 232.03507 159.583366 
L 232.03507 155.933465 
L 232.33328 155.933465 
L 232.33328 152.283564 
L 232.444526 152.283564 
L 232.457845 144.983762 
L 232.556015 144.983762 
L 232.556015 141.333861 
L 232.682776 141.333861 
L 232.682776 137.68396 
L 233.067198 137.68396 
L 233.154486 130.384158 
L 233.313509 130.384158 
L 233.395111 123.084356 
L 233.514649 123.084356 
L 233.514649 119.434455 
L 233.876664 119.434455 
L 233.955499 108.484752 
L 234.028654 108.484752 
L 234.078578 101.18495 
L 234.359544 101.18495 
L 234.378663 93.885149 
L 234.490211 93.885149 
L 234.490211 90.235248 
L 234.652938 90.235248 
L 234.652938 86.585347 
L 235.068451 86.585347 
L 235.068451 82.935446 
L 235.526765 82.935446 
L 235.526765 79.285545 
L 235.67788 79.285545 
L 235.713409 68.335842 
L 235.793096 68.335842 
L 235.793096 64.685941 
L 294.812616 64.685941 
L 294.812616 61.03604 
L 296.158473 61.03604 
L 296.158473 57.386139 
L 299.274381 57.386139 
L 299.274381 53.736238 
L 300.415636 53.736238 
L 300.415694 46.436436 
L 300.624137 46.436436 
L 300.624137 42.786535 
L 302.115779 42.786535 
L 302.115779 39.136634 
L 302.257078 39.136634 
L 302.257078 35.486733 
L 302.821625 35.486733 
L 302.821625 31.836832 
L 303.090686 31.836832 
L 303.090686 28.186931 
L 303.476304 28.186931 
L 303.49997 20.887129 
L 304.019186 20.887129 
L 304.019186 17.237228 
L 305.233484 17.237228 
L 305.233484 13.587327 
L 305.753114 13.587327 
L 305.753114 9.937426 
L 364.32 9.937426 
L 364.32 9.937426 
" style="fill:none;stroke:#ff0000;stroke-linecap:square;stroke-width:3.0;"/>
   </g>
   <g id="line2d_2">
    <path clip-path="url(#pbbabb6c863)" d="M 215.225198 283.68 
L 215.225198 280.030099 
L 216.778993 280.030099 
L 216.778993 276.380198 
L 216.915572 276.380198 
L 216.915572 272.730297 
L 219.579193 272.730297 
L 219.579193 269.080396 
L 219.801765 269.080396 
L 219.854473 261.780594 
L 221.796095 261.780594 
L 221.796095 258.130693 
L 222.394475 258.130693 
L 222.394475 254.480792 
L 222.730193 254.480792 
L 222.730193 250.830891 
L 222.972819 250.830891 
L 223.02359 236.231287 
L 223.960289 236.231287 
L 223.960289 232.581386 
L 224.126657 232.581386 
L 224.126657 228.931485 
L 224.579238 228.931485 
L 224.579238 225.281584 
L 225.734444 225.281584 
L 225.743947 217.981782 
L 225.884795 217.981782 
L 225.884795 214.331881 
L 226.332044 214.331881 
L 226.332044 210.68198 
L 226.602948 210.68198 
L 226.602948 207.032079 
L 227.029785 207.032079 
L 227.108704 199.732277 
L 227.166284 199.732277 
L 227.232918 192.432475 
L 227.662197 192.432475 
L 227.682824 185.132673 
L 227.88213 185.132673 
L 227.982205 177.832871 
L 228.166769 177.832871 
L 228.166769 174.18297 
L 233.499043 174.18297 
L 233.499043 170.533069 
L 234.110125 170.533069 
L 234.110125 166.883168 
L 235.136301 166.883168 
L 235.136301 163.233267 
L 236.889684 163.233267 
L 236.889684 159.583366 
L 237.456428 159.583366 
L 237.456428 155.933465 
L 237.601614 155.933465 
L 237.601614 152.283564 
L 237.713 152.283564 
L 237.752492 144.983762 
L 238.026985 144.983762 
L 238.026985 141.333861 
L 238.276178 141.333861 
L 238.276178 137.68396 
L 238.648645 137.68396 
L 238.648645 134.034059 
L 238.772058 134.034059 
L 238.772058 130.384158 
L 238.936401 130.384158 
L 238.936401 126.734257 
L 239.421177 126.734257 
L 239.421177 123.084356 
L 239.580649 123.084356 
L 239.580649 119.434455 
L 239.700663 119.434455 
L 239.700663 115.784554 
L 239.935448 115.784554 
L 239.990625 108.484752 
L 240.25263 108.484752 
L 240.25263 104.834851 
L 240.531657 104.834851 
L 240.55373 93.885149 
L 240.993006 93.885149 
L 240.993006 90.235248 
L 241.240942 90.235248 
L 241.240942 86.585347 
L 241.465474 86.585347 
L 241.465474 82.935446 
L 242.459209 82.935446 
L 242.459209 79.285545 
L 242.586178 79.285545 
L 242.586178 75.635644 
L 242.886971 75.635644 
L 242.886971 71.985743 
L 243.003001 71.985743 
L 243.003001 68.335842 
L 244.127499 68.335842 
L 244.127499 64.685941 
L 302.115779 64.685941 
L 302.115779 61.03604 
L 306.005243 61.03604 
L 306.005243 57.386139 
L 309.007611 57.386139 
L 309.007611 53.736238 
L 309.230626 53.736238 
L 309.230626 50.086337 
L 316.570003 50.086337 
L 316.680585 42.786535 
L 317.006467 42.786535 
L 317.006467 39.136634 
L 319.430952 39.136634 
L 319.430952 35.486733 
L 321.204972 35.486733 
L 321.204972 31.836832 
L 321.766332 31.836832 
L 321.766332 28.186931 
L 322.072135 28.186931 
L 322.072135 24.53703 
L 322.295685 24.53703 
L 322.386631 17.237228 
L 324.113108 17.237228 
L 324.113108 13.587327 
L 326.817128 13.587327 
L 326.817128 9.937426 
L 364.32 9.937426 
L 364.32 9.937426 
" style="fill:none;stroke:#00bfbf;stroke-linecap:square;"/>
   </g>
   <g id="line2d_3">
    <path clip-path="url(#pbbabb6c863)" d="M 215.225198 283.68 
L 215.225198 280.030099 
L 216.778993 280.030099 
L 216.778993 276.380198 
L 216.915572 276.380198 
L 216.915572 272.730297 
L 219.008195 272.730297 
L 219.008195 269.080396 
L 219.265594 269.080396 
L 219.351226 261.780594 
L 219.579193 261.780594 
L 219.579193 258.130693 
L 219.854473 258.130693 
L 219.854473 254.480792 
L 220.675452 254.480792 
L 220.675452 250.830891 
L 221.335677 250.830891 
L 221.335677 247.18099 
L 222.09106 247.18099 
L 222.09106 243.531089 
L 222.394475 243.531089 
L 222.394475 239.881188 
L 222.972819 239.881188 
L 223.02359 228.931485 
L 224.579238 228.931485 
L 224.579238 225.281584 
L 225.734444 225.281584 
L 225.743947 217.981782 
L 225.884795 217.981782 
L 225.884795 214.331881 
L 226.121635 214.331881 
L 226.121635 210.68198 
L 226.602948 210.68198 
L 226.602948 207.032079 
L 226.753739 207.032079 
L 226.753739 203.382178 
L 226.925954 203.382178 
L 227.029785 196.082376 
L 227.108704 196.082376 
L 227.166284 188.782574 
L 227.470194 188.782574 
L 227.573942 181.482772 
L 227.677251 181.482772 
L 227.682824 174.18297 
L 233.499043 174.18297 
L 233.499043 170.533069 
L 234.110125 170.533069 
L 234.110125 166.883168 
L 235.136301 166.883168 
L 235.136301 163.233267 
L 236.345645 163.233267 
L 236.345645 159.583366 
L 236.503604 159.583366 
L 236.503604 155.933465 
L 236.889684 155.933465 
L 236.950468 148.633663 
L 237.148604 148.633663 
L 237.148604 144.983762 
L 237.381435 144.983762 
L 237.456428 137.68396 
L 237.601614 137.68396 
L 237.601614 134.034059 
L 237.713 134.034059 
L 237.752492 126.734257 
L 237.987495 126.734257 
L 237.987495 123.084356 
L 238.276178 123.084356 
L 238.276178 119.434455 
L 238.567101 119.434455 
L 238.567101 115.784554 
L 238.772058 115.784554 
L 238.772058 112.134653 
L 238.936401 112.134653 
L 238.957692 104.834851 
L 239.580649 104.834851 
L 239.580649 101.18495 
L 239.935448 101.18495 
L 240.027354 93.885149 
L 240.25263 93.885149 
L 240.25263 90.235248 
L 240.531657 90.235248 
L 240.553104 79.285545 
L 240.993006 79.285545 
L 241.07016 71.985743 
L 241.465474 71.985743 
L 241.465474 68.335842 
L 241.935805 68.335842 
L 241.935805 64.685941 
L 300.624137 64.685941 
L 300.624137 61.03604 
L 302.115779 61.03604 
L 302.115779 57.386139 
L 306.005243 57.386139 
L 306.005243 53.736238 
L 309.007611 53.736238 
L 309.007611 50.086337 
L 309.230626 50.086337 
L 309.340562 42.786535 
L 311.245552 42.786535 
L 311.245552 39.136634 
L 311.793879 39.136634 
L 311.861103 31.836832 
L 311.925268 31.836832 
L 311.925268 28.186931 
L 313.877796 28.186931 
L 313.877796 24.53703 
L 314.513534 24.53703 
L 314.513534 20.887129 
L 316.570003 20.887129 
L 316.570003 17.237228 
L 319.430952 17.237228 
L 319.539543 9.937426 
L 364.32 9.937426 
L 364.32 9.937426 
" style="fill:none;stroke:#bf00bf;stroke-linecap:square;"/>
   </g>
   <g id="line2d_4">
    <path clip-path="url(#pbbabb6c863)" d="M 215.225198 283.68 
L 215.225198 280.030099 
L 216.778993 280.030099 
L 216.778993 276.380198 
L 216.915572 276.380198 
L 216.915572 272.730297 
L 217.675801 272.730297 
L 217.675801 269.080396 
L 218.497749 269.080396 
L 218.497749 265.430495 
L 219.008195 265.430495 
L 219.008195 261.780594 
L 219.24579 261.780594 
L 219.351226 247.18099 
L 219.42691 247.18099 
L 219.42691 243.531089 
L 219.854473 243.531089 
L 219.854473 239.881188 
L 222.096227 239.881188 
L 222.096227 236.231287 
L 222.972819 236.231287 
L 223.012365 228.931485 
L 224.5255 228.931485 
L 224.579238 221.631683 
L 225.100463 221.631683 
L 225.131287 214.331881 
L 225.223352 214.331881 
L 225.228162 207.032079 
L 225.485573 207.032079 
L 225.485573 203.382178 
L 225.600432 203.382178 
L 225.600432 199.732277 
L 225.726965 199.732277 
L 225.804911 188.782574 
L 226.304929 188.782574 
L 226.304929 185.132673 
L 226.643741 185.132673 
L 226.703726 177.832871 
L 227.588753 177.832871 
L 227.588753 174.18297 
L 232.004607 174.18297 
L 232.004607 170.533069 
L 233.499043 170.533069 
L 233.499043 166.883168 
L 234.110125 166.883168 
L 234.110125 163.233267 
L 235.0309 163.233267 
L 235.136301 155.933465 
L 235.279961 155.933465 
L 235.279961 152.283564 
L 236.078056 152.283564 
L 236.078056 148.633663 
L 236.319763 148.633663 
L 236.326798 141.333861 
L 236.503604 141.333861 
L 236.560099 134.034059 
L 236.889684 134.034059 
L 236.950468 126.734257 
L 237.148604 126.734257 
L 237.148604 123.084356 
L 237.456428 123.084356 
L 237.456428 119.434455 
L 237.601614 119.434455 
L 237.673407 112.134653 
L 237.713 112.134653 
L 237.782041 97.53505 
L 237.987495 97.53505 
L 237.987495 93.885149 
L 238.644827 93.885149 
L 238.644827 90.235248 
L 238.936401 90.235248 
L 238.957692 82.935446 
L 239.060884 82.935446 
L 239.060884 79.285545 
L 239.935448 79.285545 
L 239.935448 75.635644 
L 240.553104 75.635644 
L 240.553104 71.985743 
L 240.855502 71.985743 
L 240.855502 68.335842 
L 241.465474 68.335842 
L 241.465474 64.685941 
L 300.624137 64.685941 
L 300.624137 61.03604 
L 302.115779 61.03604 
L 302.115779 57.386139 
L 305.011631 57.386139 
L 305.011631 53.736238 
L 305.364713 53.736238 
L 305.364713 50.086337 
L 305.753114 50.086337 
L 305.753114 46.436436 
L 305.910414 46.436436 
L 306.005243 39.136634 
L 307.045578 39.136634 
L 307.057531 31.836832 
L 307.863624 31.836832 
L 307.863624 28.186931 
L 309.007611 28.186931 
L 309.007611 24.53703 
L 309.230626 24.53703 
L 309.230626 20.887129 
L 311.925268 20.887129 
L 311.925268 17.237228 
L 314.513534 17.237228 
L 314.513534 13.587327 
L 316.570003 13.587327 
L 316.570003 9.937426 
L 364.32 9.937426 
L 364.32 9.937426 
" style="fill:none;stroke:#000000;stroke-linecap:square;"/>
   </g>
   <g id="line2d_5">
    <path clip-path="url(#pbbabb6c863)" d="M 215.225198 283.68 
L 215.225198 280.030099 
L 216.662874 280.030099 
L 216.662874 276.380198 
L 216.778993 276.380198 
L 216.778993 272.730297 
L 216.915572 272.730297 
L 216.915572 269.080396 
L 217.561272 269.080396 
L 217.60862 261.780594 
L 217.675801 261.780594 
L 217.691251 254.480792 
L 218.086326 254.480792 
L 218.086326 250.830891 
L 219.008195 250.830891 
L 219.102898 243.531089 
L 219.221661 243.531089 
L 219.221661 239.881188 
L 220.18801 239.881188 
L 220.228812 232.581386 
L 220.787609 232.581386 
L 220.787609 228.931485 
L 223.733823 228.931485 
L 223.733823 225.281584 
L 224.272195 225.281584 
L 224.272195 221.631683 
L 224.5255 221.631683 
L 224.579238 214.331881 
L 225.066653 214.331881 
L 225.131287 203.382178 
L 225.223352 203.382178 
L 225.274253 192.432475 
L 225.427557 192.432475 
L 225.485573 185.132673 
L 225.726965 185.132673 
L 225.829947 174.18297 
L 231.673617 174.18297 
L 231.673617 170.533069 
L 232.004607 170.533069 
L 232.004607 166.883168 
L 232.444526 166.883168 
L 232.444526 163.233267 
L 233.499043 163.233267 
L 233.514649 155.933465 
L 234.080338 155.933465 
L 234.152167 141.333861 
L 234.561246 141.333861 
L 234.561246 137.68396 
L 235.0309 137.68396 
L 235.136301 126.734257 
L 235.318346 126.734257 
L 235.318346 123.084356 
L 235.796044 123.084356 
L 235.896274 115.784554 
L 236.078056 115.784554 
L 236.158241 104.834851 
L 236.426515 104.834851 
L 236.503604 97.53505 
L 236.816628 97.53505 
L 236.816628 93.885149 
L 236.956447 93.885149 
L 236.956447 90.235248 
L 237.083609 90.235248 
L 237.083609 86.585347 
L 237.386116 86.585347 
L 237.386116 82.935446 
L 237.601614 82.935446 
L 237.673407 75.635644 
L 237.978828 75.635644 
L 237.978828 71.985743 
L 239.571414 71.985743 
L 239.571414 68.335842 
L 240.553104 68.335842 
L 240.553104 64.685941 
L 296.158473 64.685941 
L 296.158473 61.03604 
L 300.624137 61.03604 
L 300.624137 57.386139 
L 302.115779 57.386139 
L 302.115779 53.736238 
L 302.257078 53.736238 
L 302.257078 50.086337 
L 303.40289 50.086337 
L 303.40289 46.436436 
L 304.838995 46.436436 
L 304.838995 42.786535 
L 305.011631 42.786535 
L 305.084999 35.486733 
L 305.753114 35.486733 
L 305.812946 28.186931 
L 305.910414 28.186931 
L 306.005243 20.887129 
L 308.835866 20.887129 
L 308.835866 17.237228 
L 309.007611 17.237228 
L 309.007611 13.587327 
L 309.560773 13.587327 
L 309.560773 9.937426 
L 364.32 9.937426 
L 364.32 9.937426 
" style="fill:none;stroke:#00bfbf;stroke-linecap:square;"/>
   </g>
   <g id="patch_3">
    <path d="M 7.2 7.2 
L 364.32 7.2 
" style="fill:none;stroke:#000000;stroke-linecap:square;stroke-linejoin:miter;"/>
   </g>
   <g id="patch_4">
    <path d="M 364.32 283.68 
L 364.32 7.2 
" style="fill:none;stroke:#000000;stroke-linecap:square;stroke-linejoin:miter;"/>
   </g>
   <g id="patch_5">
    <path d="M 7.2 283.68 
L 364.32 283.68 
" style="fill:none;stroke:#000000;stroke-linecap:square;stroke-linejoin:miter;"/>
   </g>
   <g id="patch_6">
    <path d="M 7.2 283.68 
L 7.2 7.2 
" style="fill:none;stroke:#000000;stroke-linecap:square;stroke-linejoin:miter;"/>
   </g>
   <g id="matplotlib.axis_1">
    <g id="xtick_1">
     <g id="line2d_6">
      <path clip-path="url(#pbbabb6c863)" d="M 49.133998 283.68 
L 49.133998 7.2 
" style="fill:none;stroke:#000000;stroke-dasharray:1.000000,3.000000;stroke-dashoffset:0.0;stroke-width:0.5;"/>
     </g>
     <g id="line2d_7">
      <defs>
       <path d="M 0 0 
L 0 -4 
" id="mb8afd7966c" style="stroke:#000000;stroke-width:0.5;"/>
      </defs>
      <g>
       <use style="stroke:#000000;stroke-width:0.5;" x="49.1339978514" xlink:href="#mb8afd7966c" y="283.68"/>
      </g>
     </g>
     <g id="line2d_8">
      <defs>
       <path d="M 0 0 
L 0 4 
" id="md094453107" style="stroke:#000000;stroke-width:0.5;"/>
      </defs>
      <g>
       <use style="stroke:#000000;stroke-width:0.5;" x="49.1339978514" xlink:href="#md094453107" y="7.2"/>
      </g>
     </g>
     <g id="text_1">
      <!-- -6 -->
      <defs>
       <path d="M 33.015625 40.375 
Q 26.375 40.375 22.484375 35.828125 
Q 18.609375 31.296875 18.609375 23.390625 
Q 18.609375 15.53125 22.484375 10.953125 
Q 26.375 6.390625 33.015625 6.390625 
Q 39.65625 6.390625 43.53125 10.953125 
Q 47.40625 15.53125 47.40625 23.390625 
Q 47.40625 31.296875 43.53125 35.828125 
Q 39.65625 40.375 33.015625 40.375 
M 52.59375 71.296875 
L 52.59375 62.3125 
Q 48.875 64.0625 45.09375 64.984375 
Q 41.3125 65.921875 37.59375 65.921875 
Q 27.828125 65.921875 22.671875 59.328125 
Q 17.53125 52.734375 16.796875 39.40625 
Q 19.671875 43.65625 24.015625 45.921875 
Q 28.375 48.1875 33.59375 48.1875 
Q 44.578125 48.1875 50.953125 41.515625 
Q 57.328125 34.859375 57.328125 23.390625 
Q 57.328125 12.15625 50.6875 5.359375 
Q 44.046875 -1.421875 33.015625 -1.421875 
Q 20.359375 -1.421875 13.671875 8.265625 
Q 6.984375 17.96875 6.984375 36.375 
Q 6.984375 53.65625 15.1875 63.9375 
Q 23.390625 74.21875 37.203125 74.21875 
Q 40.921875 74.21875 44.703125 73.484375 
Q 48.484375 72.75 52.59375 71.296875 
" id="BitstreamVeraSans-Roman-36"/>
       <path d="M 4.890625 31.390625 
L 31.203125 31.390625 
L 31.203125 23.390625 
L 4.890625 23.390625 
z
" id="BitstreamVeraSans-Roman-2d"/>
      </defs>
      <g transform="translate(39.1636853514 302.876875)scale(0.2 -0.2)">
       <use xlink:href="#BitstreamVeraSans-Roman-2d"/>
       <use x="36.083984375" xlink:href="#BitstreamVeraSans-Roman-36"/>
      </g>
     </g>
    </g>
    <g id="xtick_2">
     <g id="line2d_9">
      <path clip-path="url(#pbbabb6c863)" d="M 91.158798 283.68 
L 91.158798 7.2 
" style="fill:none;stroke:#000000;stroke-dasharray:1.000000,3.000000;stroke-dashoffset:0.0;stroke-width:0.5;"/>
     </g>
     <g id="line2d_10">
      <g>
       <use style="stroke:#000000;stroke-width:0.5;" x="91.1587981379" xlink:href="#mb8afd7966c" y="283.68"/>
      </g>
     </g>
     <g id="line2d_11">
      <g>
       <use style="stroke:#000000;stroke-width:0.5;" x="91.1587981379" xlink:href="#md094453107" y="7.2"/>
      </g>
     </g>
     <g id="text_2">
      <!-- -4 -->
      <defs>
       <path d="M 37.796875 64.3125 
L 12.890625 25.390625 
L 37.796875 25.390625 
z
M 35.203125 72.90625 
L 47.609375 72.90625 
L 47.609375 25.390625 
L 58.015625 25.390625 
L 58.015625 17.1875 
L 47.609375 17.1875 
L 47.609375 0 
L 37.796875 0 
L 37.796875 17.1875 
L 4.890625 17.1875 
L 4.890625 26.703125 
z
" id="BitstreamVeraSans-Roman-34"/>
      </defs>
      <g transform="translate(81.1884856379 302.876875)scale(0.2 -0.2)">
       <use xlink:href="#BitstreamVeraSans-Roman-2d"/>
       <use x="36.083984375" xlink:href="#BitstreamVeraSans-Roman-34"/>
      </g>
     </g>
    </g>
    <g id="xtick_3">
     <g id="line2d_12">
      <path clip-path="url(#pbbabb6c863)" d="M 133.183598 283.68 
L 133.183598 7.2 
" style="fill:none;stroke:#000000;stroke-dasharray:1.000000,3.000000;stroke-dashoffset:0.0;stroke-width:0.5;"/>
     </g>
     <g id="line2d_13">
      <g>
       <use style="stroke:#000000;stroke-width:0.5;" x="133.183598424" xlink:href="#mb8afd7966c" y="283.68"/>
      </g>
     </g>
     <g id="line2d_14">
      <g>
       <use style="stroke:#000000;stroke-width:0.5;" x="133.183598424" xlink:href="#md094453107" y="7.2"/>
      </g>
     </g>
     <g id="text_3">
      <!-- -2 -->
      <defs>
       <path d="M 19.1875 8.296875 
L 53.609375 8.296875 
L 53.609375 0 
L 7.328125 0 
L 7.328125 8.296875 
Q 12.9375 14.109375 22.625 23.890625 
Q 32.328125 33.6875 34.8125 36.53125 
Q 39.546875 41.84375 41.421875 45.53125 
Q 43.3125 49.21875 43.3125 52.78125 
Q 43.3125 58.59375 39.234375 62.25 
Q 35.15625 65.921875 28.609375 65.921875 
Q 23.96875 65.921875 18.8125 64.3125 
Q 13.671875 62.703125 7.8125 59.421875 
L 7.8125 69.390625 
Q 13.765625 71.78125 18.9375 73 
Q 24.125 74.21875 28.421875 74.21875 
Q 39.75 74.21875 46.484375 68.546875 
Q 53.21875 62.890625 53.21875 53.421875 
Q 53.21875 48.921875 51.53125 44.890625 
Q 49.859375 40.875 45.40625 35.40625 
Q 44.1875 33.984375 37.640625 27.21875 
Q 31.109375 20.453125 19.1875 8.296875 
" id="BitstreamVeraSans-Roman-32"/>
      </defs>
      <g transform="translate(123.213285924 302.876875)scale(0.2 -0.2)">
       <use xlink:href="#BitstreamVeraSans-Roman-2d"/>
       <use x="36.083984375" xlink:href="#BitstreamVeraSans-Roman-32"/>
      </g>
     </g>
    </g>
    <g id="xtick_4">
     <g id="line2d_15">
      <path clip-path="url(#pbbabb6c863)" d="M 175.208399 283.68 
L 175.208399 7.2 
" style="fill:none;stroke:#000000;stroke-dasharray:1.000000,3.000000;stroke-dashoffset:0.0;stroke-width:0.5;"/>
     </g>
     <g id="line2d_16">
      <g>
       <use style="stroke:#000000;stroke-width:0.5;" x="175.208398711" xlink:href="#mb8afd7966c" y="283.68"/>
      </g>
     </g>
     <g id="line2d_17">
      <g>
       <use style="stroke:#000000;stroke-width:0.5;" x="175.208398711" xlink:href="#md094453107" y="7.2"/>
      </g>
     </g>
     <g id="text_4">
      <!-- 0 -->
      <defs>
       <path d="M 31.78125 66.40625 
Q 24.171875 66.40625 20.328125 58.90625 
Q 16.5 51.421875 16.5 36.375 
Q 16.5 21.390625 20.328125 13.890625 
Q 24.171875 6.390625 31.78125 6.390625 
Q 39.453125 6.390625 43.28125 13.890625 
Q 47.125 21.390625 47.125 36.375 
Q 47.125 51.421875 43.28125 58.90625 
Q 39.453125 66.40625 31.78125 66.40625 
M 31.78125 74.21875 
Q 44.046875 74.21875 50.515625 64.515625 
Q 56.984375 54.828125 56.984375 36.375 
Q 56.984375 17.96875 50.515625 8.265625 
Q 44.046875 -1.421875 31.78125 -1.421875 
Q 19.53125 -1.421875 13.0625 8.265625 
Q 6.59375 17.96875 6.59375 36.375 
Q 6.59375 54.828125 13.0625 64.515625 
Q 19.53125 74.21875 31.78125 74.21875 
" id="BitstreamVeraSans-Roman-30"/>
      </defs>
      <g transform="translate(168.845898711 302.876875)scale(0.2 -0.2)">
       <use xlink:href="#BitstreamVeraSans-Roman-30"/>
      </g>
     </g>
    </g>
    <g id="xtick_5">
     <g id="line2d_18">
      <path clip-path="url(#pbbabb6c863)" d="M 217.233199 283.68 
L 217.233199 7.2 
" style="fill:none;stroke:#000000;stroke-dasharray:1.000000,3.000000;stroke-dashoffset:0.0;stroke-width:0.5;"/>
     </g>
     <g id="line2d_19">
      <g>
       <use style="stroke:#000000;stroke-width:0.5;" x="217.233198997" xlink:href="#mb8afd7966c" y="283.68"/>
      </g>
     </g>
     <g id="line2d_20">
      <g>
       <use style="stroke:#000000;stroke-width:0.5;" x="217.233198997" xlink:href="#md094453107" y="7.2"/>
      </g>
     </g>
     <g id="text_5">
      <!-- 2 -->
      <g transform="translate(210.870698997 302.876875)scale(0.2 -0.2)">
       <use xlink:href="#BitstreamVeraSans-Roman-32"/>
      </g>
     </g>
    </g>
    <g id="xtick_6">
     <g id="line2d_21">
      <path clip-path="url(#pbbabb6c863)" d="M 259.257999 283.68 
L 259.257999 7.2 
" style="fill:none;stroke:#000000;stroke-dasharray:1.000000,3.000000;stroke-dashoffset:0.0;stroke-width:0.5;"/>
     </g>
     <g id="line2d_22">
      <g>
       <use style="stroke:#000000;stroke-width:0.5;" x="259.257999284" xlink:href="#mb8afd7966c" y="283.68"/>
      </g>
     </g>
     <g id="line2d_23">
      <g>
       <use style="stroke:#000000;stroke-width:0.5;" x="259.257999284" xlink:href="#md094453107" y="7.2"/>
      </g>
     </g>
     <g id="text_6">
      <!-- 4 -->
      <g transform="translate(252.895499284 302.876875)scale(0.2 -0.2)">
       <use xlink:href="#BitstreamVeraSans-Roman-34"/>
      </g>
     </g>
    </g>
    <g id="xtick_7">
     <g id="line2d_24">
      <path clip-path="url(#pbbabb6c863)" d="M 301.2828 283.68 
L 301.2828 7.2 
" style="fill:none;stroke:#000000;stroke-dasharray:1.000000,3.000000;stroke-dashoffset:0.0;stroke-width:0.5;"/>
     </g>
     <g id="line2d_25">
      <g>
       <use style="stroke:#000000;stroke-width:0.5;" x="301.28279957" xlink:href="#mb8afd7966c" y="283.68"/>
      </g>
     </g>
     <g id="line2d_26">
      <g>
       <use style="stroke:#000000;stroke-width:0.5;" x="301.28279957" xlink:href="#md094453107" y="7.2"/>
      </g>
     </g>
     <g id="text_7">
      <!-- 6 -->
      <g transform="translate(294.92029957 302.876875)scale(0.2 -0.2)">
       <use xlink:href="#BitstreamVeraSans-Roman-36"/>
      </g>
     </g>
    </g>
    <g id="xtick_8">
     <g id="line2d_27">
      <path clip-path="url(#pbbabb6c863)" d="M 343.3076 283.68 
L 343.3076 7.2 
" style="fill:none;stroke:#000000;stroke-dasharray:1.000000,3.000000;stroke-dashoffset:0.0;stroke-width:0.5;"/>
     </g>
     <g id="line2d_28">
      <g>
       <use style="stroke:#000000;stroke-width:0.5;" x="343.307599857" xlink:href="#mb8afd7966c" y="283.68"/>
      </g>
     </g>
     <g id="line2d_29">
      <g>
       <use style="stroke:#000000;stroke-width:0.5;" x="343.307599857" xlink:href="#md094453107" y="7.2"/>
      </g>
     </g>
     <g id="text_8">
      <!-- 8 -->
      <defs>
       <path d="M 31.78125 34.625 
Q 24.75 34.625 20.71875 30.859375 
Q 16.703125 27.09375 16.703125 20.515625 
Q 16.703125 13.921875 20.71875 10.15625 
Q 24.75 6.390625 31.78125 6.390625 
Q 38.8125 6.390625 42.859375 10.171875 
Q 46.921875 13.96875 46.921875 20.515625 
Q 46.921875 27.09375 42.890625 30.859375 
Q 38.875 34.625 31.78125 34.625 
M 21.921875 38.8125 
Q 15.578125 40.375 12.03125 44.71875 
Q 8.5 49.078125 8.5 55.328125 
Q 8.5 64.0625 14.71875 69.140625 
Q 20.953125 74.21875 31.78125 74.21875 
Q 42.671875 74.21875 48.875 69.140625 
Q 55.078125 64.0625 55.078125 55.328125 
Q 55.078125 49.078125 51.53125 44.71875 
Q 48 40.375 41.703125 38.8125 
Q 48.828125 37.15625 52.796875 32.3125 
Q 56.78125 27.484375 56.78125 20.515625 
Q 56.78125 9.90625 50.3125 4.234375 
Q 43.84375 -1.421875 31.78125 -1.421875 
Q 19.734375 -1.421875 13.25 4.234375 
Q 6.78125 9.90625 6.78125 20.515625 
Q 6.78125 27.484375 10.78125 32.3125 
Q 14.796875 37.15625 21.921875 38.8125 
M 18.3125 54.390625 
Q 18.3125 48.734375 21.84375 45.5625 
Q 25.390625 42.390625 31.78125 42.390625 
Q 38.140625 42.390625 41.71875 45.5625 
Q 45.3125 48.734375 45.3125 54.390625 
Q 45.3125 60.0625 41.71875 63.234375 
Q 38.140625 66.40625 31.78125 66.40625 
Q 25.390625 66.40625 21.84375 63.234375 
Q 18.3125 60.0625 18.3125 54.390625 
" id="BitstreamVeraSans-Roman-38"/>
      </defs>
      <g transform="translate(336.945099857 302.876875)scale(0.2 -0.2)">
       <use xlink:href="#BitstreamVeraSans-Roman-38"/>
      </g>
     </g>
    </g>
    <g id="xtick_9">
     <g id="line2d_30">
      <defs>
       <path d="M 0 0 
L 0 -2 
" id="mb66633e352" style="stroke:#000000;stroke-width:0.5;"/>
      </defs>
      <g>
       <use style="stroke:#000000;stroke-width:0.5;" x="49.1339978514" xlink:href="#mb66633e352" y="283.68"/>
      </g>
     </g>
     <g id="line2d_31">
      <defs>
       <path d="M 0 0 
L 0 2 
" id="m55dffc101a" style="stroke:#000000;stroke-width:0.5;"/>
      </defs>
      <g>
       <use style="stroke:#000000;stroke-width:0.5;" x="49.1339978514" xlink:href="#m55dffc101a" y="7.2"/>
      </g>
     </g>
    </g>
    <g id="xtick_10">
     <g id="line2d_32">
      <g>
       <use style="stroke:#000000;stroke-width:0.5;" x="91.1587981379" xlink:href="#mb66633e352" y="283.68"/>
      </g>
     </g>
     <g id="line2d_33">
      <g>
       <use style="stroke:#000000;stroke-width:0.5;" x="91.1587981379" xlink:href="#m55dffc101a" y="7.2"/>
      </g>
     </g>
    </g>
    <g id="xtick_11">
     <g id="line2d_34">
      <g>
       <use style="stroke:#000000;stroke-width:0.5;" x="133.183598424" xlink:href="#mb66633e352" y="283.68"/>
      </g>
     </g>
     <g id="line2d_35">
      <g>
       <use style="stroke:#000000;stroke-width:0.5;" x="133.183598424" xlink:href="#m55dffc101a" y="7.2"/>
      </g>
     </g>
    </g>
    <g id="xtick_12">
     <g id="line2d_36">
      <g>
       <use style="stroke:#000000;stroke-width:0.5;" x="175.208398711" xlink:href="#mb66633e352" y="283.68"/>
      </g>
     </g>
     <g id="line2d_37">
      <g>
       <use style="stroke:#000000;stroke-width:0.5;" x="175.208398711" xlink:href="#m55dffc101a" y="7.2"/>
      </g>
     </g>
    </g>
    <g id="xtick_13">
     <g id="line2d_38">
      <g>
       <use style="stroke:#000000;stroke-width:0.5;" x="217.233198997" xlink:href="#mb66633e352" y="283.68"/>
      </g>
     </g>
     <g id="line2d_39">
      <g>
       <use style="stroke:#000000;stroke-width:0.5;" x="217.233198997" xlink:href="#m55dffc101a" y="7.2"/>
      </g>
     </g>
    </g>
    <g id="xtick_14">
     <g id="line2d_40">
      <g>
       <use style="stroke:#000000;stroke-width:0.5;" x="259.257999284" xlink:href="#mb66633e352" y="283.68"/>
      </g>
     </g>
     <g id="line2d_41">
      <g>
       <use style="stroke:#000000;stroke-width:0.5;" x="259.257999284" xlink:href="#m55dffc101a" y="7.2"/>
      </g>
     </g>
    </g>
    <g id="xtick_15">
     <g id="line2d_42">
      <g>
       <use style="stroke:#000000;stroke-width:0.5;" x="301.28279957" xlink:href="#mb66633e352" y="283.68"/>
      </g>
     </g>
     <g id="line2d_43">
      <g>
       <use style="stroke:#000000;stroke-width:0.5;" x="301.28279957" xlink:href="#m55dffc101a" y="7.2"/>
      </g>
     </g>
    </g>
    <g id="xtick_16">
     <g id="line2d_44">
      <g>
       <use style="stroke:#000000;stroke-width:0.5;" x="343.307599857" xlink:href="#mb66633e352" y="283.68"/>
      </g>
     </g>
     <g id="line2d_45">
      <g>
       <use style="stroke:#000000;stroke-width:0.5;" x="343.307599857" xlink:href="#m55dffc101a" y="7.2"/>
      </g>
     </g>
    </g>
    <g id="text_9">
     <!-- log10 of Df -->
     <defs>
      <path id="BitstreamVeraSans-Roman-20"/>
      <path d="M 12.40625 8.296875 
L 28.515625 8.296875 
L 28.515625 63.921875 
L 10.984375 60.40625 
L 10.984375 69.390625 
L 28.421875 72.90625 
L 38.28125 72.90625 
L 38.28125 8.296875 
L 54.390625 8.296875 
L 54.390625 0 
L 12.40625 0 
z
" id="BitstreamVeraSans-Roman-31"/>
      <path d="M 30.609375 48.390625 
Q 23.390625 48.390625 19.1875 42.75 
Q 14.984375 37.109375 14.984375 27.296875 
Q 14.984375 17.484375 19.15625 11.84375 
Q 23.34375 6.203125 30.609375 6.203125 
Q 37.796875 6.203125 41.984375 11.859375 
Q 46.1875 17.53125 46.1875 27.296875 
Q 46.1875 37.015625 41.984375 42.703125 
Q 37.796875 48.390625 30.609375 48.390625 
M 30.609375 56 
Q 42.328125 56 49.015625 48.375 
Q 55.71875 40.765625 55.71875 27.296875 
Q 55.71875 13.875 49.015625 6.21875 
Q 42.328125 -1.421875 30.609375 -1.421875 
Q 18.84375 -1.421875 12.171875 6.21875 
Q 5.515625 13.875 5.515625 27.296875 
Q 5.515625 40.765625 12.171875 48.375 
Q 18.84375 56 30.609375 56 
" id="BitstreamVeraSans-Roman-6f"/>
      <path d="M 9.421875 75.984375 
L 18.40625 75.984375 
L 18.40625 0 
L 9.421875 0 
z
" id="BitstreamVeraSans-Roman-6c"/>
      <path d="M 19.671875 64.796875 
L 19.671875 8.109375 
L 31.59375 8.109375 
Q 46.6875 8.109375 53.6875 14.9375 
Q 60.6875 21.78125 60.6875 36.53125 
Q 60.6875 51.171875 53.6875 57.984375 
Q 46.6875 64.796875 31.59375 64.796875 
z
M 9.8125 72.90625 
L 30.078125 72.90625 
Q 51.265625 72.90625 61.171875 64.09375 
Q 71.09375 55.28125 71.09375 36.53125 
Q 71.09375 17.671875 61.125 8.828125 
Q 51.171875 0 30.078125 0 
L 9.8125 0 
z
" id="BitstreamVeraSans-Roman-44"/>
      <path d="M 45.40625 27.984375 
Q 45.40625 37.75 41.375 43.109375 
Q 37.359375 48.484375 30.078125 48.484375 
Q 22.859375 48.484375 18.828125 43.109375 
Q 14.796875 37.75 14.796875 27.984375 
Q 14.796875 18.265625 18.828125 12.890625 
Q 22.859375 7.515625 30.078125 7.515625 
Q 37.359375 7.515625 41.375 12.890625 
Q 45.40625 18.265625 45.40625 27.984375 
M 54.390625 6.78125 
Q 54.390625 -7.171875 48.1875 -13.984375 
Q 42 -20.796875 29.203125 -20.796875 
Q 24.46875 -20.796875 20.265625 -20.09375 
Q 16.0625 -19.390625 12.109375 -17.921875 
L 12.109375 -9.1875 
Q 16.0625 -11.328125 19.921875 -12.34375 
Q 23.78125 -13.375 27.78125 -13.375 
Q 36.625 -13.375 41.015625 -8.765625 
Q 45.40625 -4.15625 45.40625 5.171875 
L 45.40625 9.625 
Q 42.625 4.78125 38.28125 2.390625 
Q 33.9375 0 27.875 0 
Q 17.828125 0 11.671875 7.65625 
Q 5.515625 15.328125 5.515625 27.984375 
Q 5.515625 40.671875 11.671875 48.328125 
Q 17.828125 56 27.875 56 
Q 33.9375 56 38.28125 53.609375 
Q 42.625 51.21875 45.40625 46.390625 
L 45.40625 54.6875 
L 54.390625 54.6875 
z
" id="BitstreamVeraSans-Roman-67"/>
      <path d="M 37.109375 75.984375 
L 37.109375 68.5 
L 28.515625 68.5 
Q 23.6875 68.5 21.796875 66.546875 
Q 19.921875 64.59375 19.921875 59.515625 
L 19.921875 54.6875 
L 34.71875 54.6875 
L 34.71875 47.703125 
L 19.921875 47.703125 
L 19.921875 0 
L 10.890625 0 
L 10.890625 47.703125 
L 2.296875 47.703125 
L 2.296875 54.6875 
L 10.890625 54.6875 
L 10.890625 58.5 
Q 10.890625 67.625 15.140625 71.796875 
Q 19.390625 75.984375 28.609375 75.984375 
z
" id="BitstreamVeraSans-Roman-66"/>
     </defs>
     <g transform="translate(130.5740625 327.233125)scale(0.2 -0.2)">
      <use xlink:href="#BitstreamVeraSans-Roman-6c"/>
      <use x="27.783203125" xlink:href="#BitstreamVeraSans-Roman-6f"/>
      <use x="88.96484375" xlink:href="#BitstreamVeraSans-Roman-67"/>
      <use x="152.44140625" xlink:href="#BitstreamVeraSans-Roman-31"/>
      <use x="216.064453125" xlink:href="#BitstreamVeraSans-Roman-30"/>
      <use x="279.6875" xlink:href="#BitstreamVeraSans-Roman-20"/>
      <use x="311.474609375" xlink:href="#BitstreamVeraSans-Roman-6f"/>
      <use x="372.65625" xlink:href="#BitstreamVeraSans-Roman-66"/>
      <use x="407.861328125" xlink:href="#BitstreamVeraSans-Roman-20"/>
      <use x="439.6484375" xlink:href="#BitstreamVeraSans-Roman-44"/>
      <use x="516.650390625" xlink:href="#BitstreamVeraSans-Roman-66"/>
     </g>
    </g>
   </g>
   <g id="matplotlib.axis_2">
    <g id="ytick_1">
     <g id="line2d_46">
      <path clip-path="url(#pbbabb6c863)" d="M 7.2 283.68 
L 364.32 283.68 
" style="fill:none;stroke:#000000;stroke-dasharray:1.000000,3.000000;stroke-dashoffset:0.0;stroke-width:0.5;"/>
     </g>
     <g id="line2d_47">
      <defs>
       <path d="M 0 0 
L 4 0 
" id="mb2b55f350c" style="stroke:#000000;stroke-width:0.5;"/>
      </defs>
      <g>
       <use style="stroke:#000000;stroke-width:0.5;" x="7.2" xlink:href="#mb2b55f350c" y="283.68"/>
      </g>
     </g>
     <g id="line2d_48">
      <defs>
       <path d="M 0 0 
L -4 0 
" id="m2f06c7d055" style="stroke:#000000;stroke-width:0.5;"/>
      </defs>
      <g>
       <use style="stroke:#000000;stroke-width:0.5;" x="364.32" xlink:href="#m2f06c7d055" y="283.68"/>
      </g>
     </g>
    </g>
    <g id="ytick_2">
     <g id="line2d_49">
      <path clip-path="url(#pbbabb6c863)" d="M 7.2 228.931485 
L 364.32 228.931485 
" style="fill:none;stroke:#000000;stroke-dasharray:1.000000,3.000000;stroke-dashoffset:0.0;stroke-width:0.5;"/>
     </g>
     <g id="line2d_50">
      <g>
       <use style="stroke:#000000;stroke-width:0.5;" x="7.2" xlink:href="#mb2b55f350c" y="228.931485149"/>
      </g>
     </g>
     <g id="line2d_51">
      <g>
       <use style="stroke:#000000;stroke-width:0.5;" x="364.32" xlink:href="#m2f06c7d055" y="228.931485149"/>
      </g>
     </g>
    </g>
    <g id="ytick_3">
     <g id="line2d_52">
      <path clip-path="url(#pbbabb6c863)" d="M 7.2 174.18297 
L 364.32 174.18297 
" style="fill:none;stroke:#000000;stroke-dasharray:1.000000,3.000000;stroke-dashoffset:0.0;stroke-width:0.5;"/>
     </g>
     <g id="line2d_53">
      <g>
       <use style="stroke:#000000;stroke-width:0.5;" x="7.2" xlink:href="#mb2b55f350c" y="174.182970297"/>
      </g>
     </g>
     <g id="line2d_54">
      <g>
       <use style="stroke:#000000;stroke-width:0.5;" x="364.32" xlink:href="#m2f06c7d055" y="174.182970297"/>
      </g>
     </g>
    </g>
    <g id="ytick_4">
     <g id="line2d_55">
      <path clip-path="url(#pbbabb6c863)" d="M 7.2 119.434455 
L 364.32 119.434455 
" style="fill:none;stroke:#000000;stroke-dasharray:1.000000,3.000000;stroke-dashoffset:0.0;stroke-width:0.5;"/>
     </g>
     <g id="line2d_56">
      <g>
       <use style="stroke:#000000;stroke-width:0.5;" x="7.2" xlink:href="#mb2b55f350c" y="119.434455446"/>
      </g>
     </g>
     <g id="line2d_57">
      <g>
       <use style="stroke:#000000;stroke-width:0.5;" x="364.32" xlink:href="#m2f06c7d055" y="119.434455446"/>
      </g>
     </g>
    </g>
    <g id="ytick_5">
     <g id="line2d_58">
      <path clip-path="url(#pbbabb6c863)" d="M 7.2 64.685941 
L 364.32 64.685941 
" style="fill:none;stroke:#000000;stroke-dasharray:1.000000,3.000000;stroke-dashoffset:0.0;stroke-width:0.5;"/>
     </g>
     <g id="line2d_59">
      <g>
       <use style="stroke:#000000;stroke-width:0.5;" x="7.2" xlink:href="#mb2b55f350c" y="64.6859405941"/>
      </g>
     </g>
     <g id="line2d_60">
      <g>
       <use style="stroke:#000000;stroke-width:0.5;" x="364.32" xlink:href="#m2f06c7d055" y="64.6859405941"/>
      </g>
     </g>
    </g>
    <g id="ytick_6">
     <g id="line2d_61">
      <path clip-path="url(#pbbabb6c863)" d="M 7.2 9.937426 
L 364.32 9.937426 
" style="fill:none;stroke:#000000;stroke-dasharray:1.000000,3.000000;stroke-dashoffset:0.0;stroke-width:0.5;"/>
     </g>
     <g id="line2d_62">
      <g>
       <use style="stroke:#000000;stroke-width:0.5;" x="7.2" xlink:href="#mb2b55f350c" y="9.93742574257"/>
      </g>
     </g>
     <g id="line2d_63">
      <g>
       <use style="stroke:#000000;stroke-width:0.5;" x="364.32" xlink:href="#m2f06c7d055" y="9.93742574257"/>
      </g>
     </g>
    </g>
   </g>
   <g id="text_10">
    <!-- f1-5,20-D -->
    <defs>
     <path d="M 11.71875 12.40625 
L 22.015625 12.40625 
L 22.015625 4 
L 14.015625 -11.625 
L 7.71875 -11.625 
L 11.71875 4 
z
" id="BitstreamVeraSans-Roman-2c"/>
     <path d="M 10.796875 72.90625 
L 49.515625 72.90625 
L 49.515625 64.59375 
L 19.828125 64.59375 
L 19.828125 46.734375 
Q 21.96875 47.46875 24.109375 47.828125 
Q 26.265625 48.1875 28.421875 48.1875 
Q 40.625 48.1875 47.75 41.5 
Q 54.890625 34.8125 54.890625 23.390625 
Q 54.890625 11.625 47.5625 5.09375 
Q 40.234375 -1.421875 26.90625 -1.421875 
Q 22.3125 -1.421875 17.546875 -0.640625 
Q 12.796875 0.140625 7.71875 1.703125 
L 7.71875 11.625 
Q 12.109375 9.234375 16.796875 8.0625 
Q 21.484375 6.890625 26.703125 6.890625 
Q 35.15625 6.890625 40.078125 11.328125 
Q 45.015625 15.765625 45.015625 23.390625 
Q 45.015625 31 40.078125 35.4375 
Q 35.15625 39.890625 26.703125 39.890625 
Q 22.75 39.890625 18.8125 39.015625 
Q 14.890625 38.140625 10.796875 36.28125 
z
" id="BitstreamVeraSans-Roman-35"/>
    </defs>
    <g transform="translate(263.049475 278.1504)scale(0.2 -0.2)">
     <use xlink:href="#BitstreamVeraSans-Roman-66"/>
     <use x="35.205078125" xlink:href="#BitstreamVeraSans-Roman-31"/>
     <use x="98.828125" xlink:href="#BitstreamVeraSans-Roman-2d"/>
     <use x="134.912109375" xlink:href="#BitstreamVeraSans-Roman-35"/>
     <use x="198.53515625" xlink:href="#BitstreamVeraSans-Roman-2c"/>
     <use x="230.322265625" xlink:href="#BitstreamVeraSans-Roman-32"/>
     <use x="293.9453125" xlink:href="#BitstreamVeraSans-Roman-30"/>
     <use x="357.568359375" xlink:href="#BitstreamVeraSans-Roman-2d"/>
     <use x="393.65234375" xlink:href="#BitstreamVeraSans-Roman-44"/>
    </g>
   </g>
  </g>
 </g>
 <defs>
  <clipPath id="pbbabb6c863">
   <rect height="276.48" width="357.12" x="7.2" y="7.2"/>
  </clipPath>
 </defs>
</svg>
