<?xml version="1.0" encoding="utf-8" standalone="no"?>
<!DOCTYPE svg PUBLIC "-//W3C//DTD SVG 1.1//EN"
  "http://www.w3.org/Graphics/SVG/1.1/DTD/svg11.dtd">
<!-- Created with matplotlib (http://matplotlib.org/) -->
<svg height="338pt" version="1.1" viewBox="0 0 371 338" width="371pt" xmlns="http://www.w3.org/2000/svg" xmlns:xlink="http://www.w3.org/1999/xlink">
 <defs>
  <style type="text/css">
*{stroke-linecap:butt;stroke-linejoin:round;stroke-miterlimit:100000;}
  </style>
 </defs>
 <g id="figure_1">
  <g id="patch_1">
   <path d="M 0 338.5925 
L 371.52 338.5925 
L 371.52 0 
L 0 0 
z
" style="fill:#ffffff;"/>
  </g>
  <g id="axes_1">
   <g id="patch_2">
    <path d="M 7.2 283.68 
L 364.32 283.68 
L 364.32 7.2 
L 7.2 7.2 
z
" style="fill:#ffffff;"/>
   </g>
   <g id="line2d_1">
    <path clip-path="url(#p9af039561f)" d="M 173.027942 283.68 
L 173.027942 280.030099 
L 173.163164 280.030099 
L 173.163164 276.380198 
L 173.769873 276.380198 
L 173.769873 272.730297 
L 174.668498 272.730297 
L 174.668498 269.080396 
L 175.227618 269.080396 
L 175.227618 265.430495 
L 177.420581 265.430495 
L 177.420581 261.780594 
L 177.913269 261.780594 
L 177.913269 258.130693 
L 178.039797 258.130693 
L 178.039797 254.480792 
L 178.971671 254.480792 
L 178.971671 250.830891 
L 179.866233 250.830891 
L 179.866233 247.18099 
L 180.451199 247.18099 
L 180.451199 243.531089 
L 182.090906 243.531089 
L 182.090906 239.881188 
L 182.990607 239.881188 
L 182.990607 236.231287 
L 183.979796 236.231287 
L 183.979796 232.581386 
L 184.855459 232.581386 
L 184.855459 228.931485 
L 189.848826 228.931485 
L 189.848826 225.281584 
L 190.138154 225.281584 
L 190.138154 221.631683 
L 190.937844 221.631683 
L 190.937844 217.981782 
L 193.385608 217.981782 
L 193.463345 210.68198 
L 194.004538 210.68198 
L 194.106117 203.382178 
L 194.431172 203.382178 
L 194.431172 199.732277 
L 194.890278 199.732277 
L 194.890278 196.082376 
L 195.058308 196.082376 
L 195.058308 192.432475 
L 195.419438 192.432475 
L 195.419438 188.782574 
L 195.666812 188.782574 
L 195.750213 181.482772 
L 196.296027 181.482772 
L 196.296027 177.832871 
L 196.438839 177.832871 
L 196.438839 174.18297 
L 197.920182 174.18297 
L 197.920182 170.533069 
L 198.625593 170.533069 
L 198.625593 166.883168 
L 199.252944 166.883168 
L 199.252944 163.233267 
L 199.764195 163.233267 
L 199.764195 159.583366 
L 199.922242 159.583366 
L 199.981322 144.983762 
L 200.102854 144.983762 
L 200.136168 137.68396 
L 200.876588 137.68396 
L 200.876588 134.034059 
L 201.175432 134.034059 
L 201.175432 130.384158 
L 201.715316 130.384158 
L 201.715316 126.734257 
L 201.966602 126.734257 
L 201.970264 119.434455 
L 202.29575 119.434455 
L 202.29575 115.784554 
L 202.558902 115.784554 
L 202.621512 104.834851 
L 202.751733 104.834851 
L 202.751733 101.18495 
L 203.142552 101.18495 
L 203.243838 93.885149 
L 203.599001 93.885149 
L 203.709435 86.585347 
L 204.029489 86.585347 
L 204.031835 79.285545 
L 204.333846 79.285545 
L 204.333846 75.635644 
L 204.677681 75.635644 
L 204.774195 68.335842 
L 204.939666 68.335842 
L 204.939666 64.685941 
L 237.221318 64.685941 
L 237.221318 61.03604 
L 243.286179 61.03604 
L 243.286179 57.386139 
L 244.485239 57.386139 
L 244.485239 53.736238 
L 250.58944 53.736238 
L 250.58944 50.086337 
L 250.88903 50.086337 
L 250.88903 46.436436 
L 253.18637 46.436436 
L 253.18637 42.786535 
L 253.374756 42.786535 
L 253.374756 39.136634 
L 255.358882 39.136634 
L 255.358882 35.486733 
L 256.029916 35.486733 
L 256.029916 31.836832 
L 256.47242 31.836832 
L 256.47242 28.186931 
L 259.164332 28.186931 
L 259.164332 24.53703 
L 262.616895 24.53703 
L 262.616895 20.887129 
L 264.686074 20.887129 
L 264.686074 17.237228 
L 265.052107 17.237228 
L 265.052107 13.587327 
L 266.567089 13.587327 
L 266.567089 9.937426 
L 364.32 9.937426 
L 364.32 9.937426 
" style="fill:none;stroke:#ff0000;stroke-linecap:square;stroke-width:3.0;"/>
   </g>
   <g id="line2d_2">
    <path clip-path="url(#p9af039561f)" d="M 178.971671 283.68 
L 178.971671 280.030099 
L 186.050189 280.030099 
L 186.050189 276.380198 
L 189.543679 276.380198 
L 189.543679 272.730297 
L 190.313872 272.730297 
L 190.313872 269.080396 
L 190.551107 269.080396 
L 190.551107 265.430495 
L 195.993511 265.430495 
L 195.993511 261.780594 
L 199.393506 261.780594 
L 199.393506 258.130693 
L 199.82151 258.130693 
L 199.82151 254.480792 
L 200.058018 254.480792 
L 200.058018 250.830891 
L 200.957404 250.830891 
L 201.005032 243.531089 
L 201.110917 243.531089 
L 201.110917 239.881188 
L 201.539651 239.881188 
L 201.539651 236.231287 
L 201.666994 236.231287 
L 201.666994 232.581386 
L 201.860245 232.581386 
L 201.860245 228.931485 
L 202.109243 228.931485 
L 202.109243 225.281584 
L 202.765697 225.281584 
L 202.765697 221.631683 
L 203.106436 221.631683 
L 203.106436 217.981782 
L 203.273467 217.981782 
L 203.273467 214.331881 
L 203.52835 214.331881 
L 203.52835 210.68198 
L 203.853493 210.68198 
L 203.90497 203.382178 
L 204.423708 203.382178 
L 204.491848 196.082376 
L 204.657988 196.082376 
L 204.707595 188.782574 
L 205.167203 188.782574 
L 205.167203 185.132673 
L 205.740861 185.132673 
L 205.740861 181.482772 
L 206.874862 181.482772 
L 206.874862 177.832871 
L 207.066096 177.832871 
L 207.066096 174.18297 
L 207.189952 174.18297 
L 207.189952 170.533069 
L 207.434879 170.533069 
L 207.434879 166.883168 
L 209.132592 166.883168 
L 209.132592 163.233267 
L 209.695897 163.233267 
L 209.695897 159.583366 
L 210.836204 159.583366 
L 210.836204 155.933465 
L 212.416259 155.933465 
L 212.416259 152.283564 
L 213.562778 152.283564 
L 213.562778 148.633663 
L 214.113181 148.633663 
L 214.113181 144.983762 
L 214.233951 144.983762 
L 214.250778 134.034059 
L 214.490285 134.034059 
L 214.490285 130.384158 
L 214.746393 130.384158 
L 214.746393 126.734257 
L 215.578132 126.734257 
L 215.578132 123.084356 
L 216.082229 123.084356 
L 216.12554 115.784554 
L 216.232552 115.784554 
L 216.232552 112.134653 
L 216.62249 112.134653 
L 216.62249 108.484752 
L 216.824443 108.484752 
L 216.824443 104.834851 
L 217.268656 104.834851 
L 217.268656 101.18495 
L 218.462889 101.18495 
L 218.462889 97.53505 
L 221.993704 97.53505 
L 221.993704 93.885149 
L 222.117011 93.885149 
L 222.117011 90.235248 
L 222.837202 90.235248 
L 222.837202 86.585347 
L 223.043264 86.585347 
L 223.043264 82.935446 
L 223.823913 82.935446 
L 223.823913 79.285545 
L 224.45423 79.285545 
L 224.45423 75.635644 
L 224.575219 75.635644 
L 224.575219 71.985743 
L 235.311028 71.985743 
L 235.311028 68.335842 
L 236.635498 68.335842 
L 236.635498 64.685941 
L 269.784605 64.685941 
L 269.784605 61.03604 
L 275.924344 61.03604 
L 275.924344 57.386139 
L 279.285105 57.386139 
L 279.285105 53.736238 
L 290.583812 53.736238 
L 290.680084 42.786535 
L 291.150177 42.786535 
L 291.150177 39.136634 
L 296.163895 39.136634 
L 296.163895 35.486733 
L 298.144003 35.486733 
L 298.144003 31.836832 
L 299.38803 31.836832 
L 299.49708 24.53703 
L 300.030944 24.53703 
L 300.030944 20.887129 
L 303.222499 20.887129 
L 303.222499 17.237228 
L 310.771634 17.237228 
L 310.771634 13.587327 
L 313.4826 13.587327 
L 313.4826 9.937426 
L 364.32 9.937426 
L 364.32 9.937426 
" style="fill:none;stroke:#00bfbf;stroke-linecap:square;"/>
   </g>
   <g id="line2d_3">
    <path clip-path="url(#p9af039561f)" d="M 178.971671 283.68 
L 178.971671 280.030099 
L 183.648853 280.030099 
L 183.648853 276.380198 
L 185.166265 276.380198 
L 185.166265 272.730297 
L 186.050189 272.730297 
L 186.050189 269.080396 
L 189.543679 269.080396 
L 189.543679 265.430495 
L 190.313872 265.430495 
L 190.313872 261.780594 
L 190.551107 261.780594 
L 190.551107 258.130693 
L 193.814234 258.130693 
L 193.814234 254.480792 
L 194.249812 254.480792 
L 194.249812 250.830891 
L 195.993511 250.830891 
L 195.993511 247.18099 
L 196.438839 247.18099 
L 196.438839 243.531089 
L 197.36107 243.531089 
L 197.36107 239.881188 
L 197.652791 239.881188 
L 197.652791 236.231287 
L 198.50767 236.231287 
L 198.50767 232.581386 
L 199.086008 232.581386 
L 199.086008 228.931485 
L 199.393506 228.931485 
L 199.393506 225.281584 
L 199.82151 225.281584 
L 199.82151 221.631683 
L 200.006746 221.631683 
L 200.078038 214.331881 
L 200.627459 214.331881 
L 200.627459 210.68198 
L 201.110917 210.68198 
L 201.110917 207.032079 
L 202.109243 207.032079 
L 202.109243 203.382178 
L 202.765697 203.382178 
L 202.84709 196.082376 
L 202.93037 196.082376 
L 202.939372 188.782574 
L 203.0715 188.782574 
L 203.106436 177.832871 
L 203.464331 177.832871 
L 203.52835 170.533069 
L 203.853493 170.533069 
L 203.853493 166.883168 
L 204.92121 166.883168 
L 204.92121 163.233267 
L 205.86401 163.233267 
L 205.86401 159.583366 
L 206.695716 159.583366 
L 206.695716 155.933465 
L 207.434879 155.933465 
L 207.434879 152.283564 
L 207.717552 152.283564 
L 207.717552 148.633663 
L 208.015155 148.633663 
L 208.015155 144.983762 
L 208.518725 144.983762 
L 208.518725 141.333861 
L 209.132592 141.333861 
L 209.132592 137.68396 
L 209.83896 137.68396 
L 209.83896 134.034059 
L 210.836204 134.034059 
L 210.836204 130.384158 
L 212.08997 130.384158 
L 212.08997 126.734257 
L 212.404358 126.734257 
L 212.466066 115.784554 
L 213.338894 115.784554 
L 213.338894 112.134653 
L 213.562778 112.134653 
L 213.562778 108.484752 
L 213.922974 108.484752 
L 213.922974 104.834851 
L 214.113181 104.834851 
L 214.113181 101.18495 
L 214.250778 101.18495 
L 214.250778 97.53505 
L 214.733202 97.53505 
L 214.746393 90.235248 
L 215.578132 90.235248 
L 215.578132 86.585347 
L 216.082229 86.585347 
L 216.082229 82.935446 
L 216.271618 82.935446 
L 216.271618 79.285545 
L 216.62249 79.285545 
L 216.62249 75.635644 
L 216.884857 75.635644 
L 216.884857 71.985743 
L 222.837202 71.985743 
L 222.837202 68.335842 
L 228.592151 68.335842 
L 228.592151 64.685941 
L 250.365751 64.685941 
L 250.365751 61.03604 
L 269.784605 61.03604 
L 269.784605 57.386139 
L 275.856655 57.386139 
L 275.861033 50.086337 
L 276.70159 50.086337 
L 276.70159 46.436436 
L 277.927782 46.436436 
L 277.927782 42.786535 
L 279.285105 42.786535 
L 279.285105 39.136634 
L 279.752094 39.136634 
L 279.752094 35.486733 
L 281.435575 35.486733 
L 281.435575 31.836832 
L 290.583812 31.836832 
L 290.583812 28.186931 
L 291.150177 28.186931 
L 291.210202 20.887129 
L 294.963995 20.887129 
L 294.963995 17.237228 
L 295.464875 17.237228 
L 295.464875 13.587327 
L 299.526215 13.587327 
L 299.526215 9.937426 
L 364.32 9.937426 
L 364.32 9.937426 
" style="fill:none;stroke:#bf00bf;stroke-linecap:square;"/>
   </g>
   <g id="line2d_4">
    <path clip-path="url(#p9af039561f)" d="M 177.913269 283.68 
L 177.913269 280.030099 
L 178.971671 280.030099 
L 178.971671 276.380198 
L 182.174774 276.380198 
L 182.174774 272.730297 
L 183.648853 272.730297 
L 183.648853 269.080396 
L 184.855459 269.080396 
L 184.855459 265.430495 
L 185.166265 265.430495 
L 185.166265 261.780594 
L 186.050189 261.780594 
L 186.050189 258.130693 
L 189.543679 258.130693 
L 189.543679 254.480792 
L 189.895853 254.480792 
L 189.895853 250.830891 
L 190.313872 250.830891 
L 190.313872 247.18099 
L 191.362639 247.18099 
L 191.362639 243.531089 
L 192.759501 243.531089 
L 192.759501 239.881188 
L 192.921873 239.881188 
L 192.921873 236.231287 
L 194.165721 236.231287 
L 194.165721 232.581386 
L 195.993511 232.581386 
L 195.993511 228.931485 
L 196.392046 228.931485 
L 196.438839 221.631683 
L 197.506103 221.631683 
L 197.506103 217.981782 
L 197.883299 217.981782 
L 197.883299 214.331881 
L 198.273011 214.331881 
L 198.273011 210.68198 
L 199.038604 210.68198 
L 199.038604 207.032079 
L 199.300692 207.032079 
L 199.393506 199.732277 
L 199.942433 199.732277 
L 199.942433 196.082376 
L 200.078038 196.082376 
L 200.078038 192.432475 
L 200.750416 192.432475 
L 200.750416 188.782574 
L 201.264931 188.782574 
L 201.264931 185.132673 
L 201.633721 185.132673 
L 201.633721 181.482772 
L 202.109243 181.482772 
L 202.109243 177.832871 
L 202.328305 177.832871 
L 202.328305 174.18297 
L 202.681565 174.18297 
L 202.681565 170.533069 
L 203.08779 170.533069 
L 203.08779 166.883168 
L 203.216518 166.883168 
L 203.216518 163.233267 
L 203.464331 163.233267 
L 203.52835 155.933465 
L 204.424715 155.933465 
L 204.424715 152.283564 
L 204.677681 152.283564 
L 204.677681 148.633663 
L 204.909155 148.633663 
L 204.92121 141.333861 
L 205.430291 141.333861 
L 205.430291 137.68396 
L 206.51591 137.68396 
L 206.603461 130.384158 
L 207.258352 130.384158 
L 207.258352 126.734257 
L 207.484308 126.734257 
L 207.484308 123.084356 
L 207.717552 123.084356 
L 207.717552 119.434455 
L 207.865681 119.434455 
L 207.865681 115.784554 
L 208.015155 115.784554 
L 208.015155 112.134653 
L 208.518725 112.134653 
L 208.600893 104.834851 
L 209.444063 104.834851 
L 209.444063 101.18495 
L 210.1757 101.18495 
L 210.1757 97.53505 
L 210.863746 97.53505 
L 210.863746 93.885149 
L 211.759917 93.885149 
L 211.759917 90.235248 
L 212.08997 90.235248 
L 212.08997 86.585347 
L 212.404358 86.585347 
L 212.404358 82.935446 
L 212.534493 82.935446 
L 212.534493 79.285545 
L 213.338894 79.285545 
L 213.387438 71.985743 
L 213.53168 71.985743 
L 213.53168 68.335842 
L 218.057282 68.335842 
L 218.057282 64.685941 
L 250.365751 64.685941 
L 250.365751 61.03604 
L 266.946487 61.03604 
L 266.946487 57.386139 
L 267.696466 57.386139 
L 267.696466 53.736238 
L 269.784605 53.736238 
L 269.784605 50.086337 
L 272.61208 50.086337 
L 272.61208 46.436436 
L 272.791233 46.436436 
L 272.791233 42.786535 
L 272.938282 42.786535 
L 272.938282 39.136634 
L 276.70159 39.136634 
L 276.70159 35.486733 
L 279.285105 35.486733 
L 279.285105 31.836832 
L 279.685934 31.836832 
L 279.746011 24.53703 
L 280.273259 24.53703 
L 280.273259 20.887129 
L 281.435575 20.887129 
L 281.435575 17.237228 
L 287.711943 17.237228 
L 287.711943 13.587327 
L 291.617852 13.587327 
L 291.617852 9.937426 
L 364.32 9.937426 
L 364.32 9.937426 
" style="fill:none;stroke:#000000;stroke-linecap:square;"/>
   </g>
   <g id="line2d_5">
    <path clip-path="url(#p9af039561f)" d="M 173.027942 283.68 
L 173.027942 280.030099 
L 177.913269 280.030099 
L 177.913269 276.380198 
L 178.971671 276.380198 
L 178.971671 272.730297 
L 179.732024 272.730297 
L 179.732024 269.080396 
L 182.174774 269.080396 
L 182.174774 265.430495 
L 182.665918 265.430495 
L 182.665918 261.780594 
L 183.196796 261.780594 
L 183.196796 258.130693 
L 183.648853 258.130693 
L 183.648853 254.480792 
L 184.855459 254.480792 
L 184.855459 250.830891 
L 185.106501 250.830891 
L 185.166265 243.531089 
L 185.30837 243.531089 
L 185.30837 239.881188 
L 186.050189 239.881188 
L 186.050189 236.231287 
L 189.543679 236.231287 
L 189.543679 232.581386 
L 190.937844 232.581386 
L 190.937844 228.931485 
L 191.951084 228.931485 
L 191.951084 225.281584 
L 194.004538 225.281584 
L 194.004538 221.631683 
L 194.165721 221.631683 
L 194.165721 217.981782 
L 194.763998 217.981782 
L 194.763998 214.331881 
L 195.59703 214.331881 
L 195.666812 207.032079 
L 195.84866 207.032079 
L 195.84866 203.382178 
L 196.296027 203.382178 
L 196.392046 196.082376 
L 196.438839 196.082376 
L 196.438839 192.432475 
L 196.791748 192.432475 
L 196.791748 188.782574 
L 196.986445 188.782574 
L 196.986445 185.132673 
L 197.883299 185.132673 
L 197.883299 181.482772 
L 199.750335 181.482772 
L 199.750335 177.832871 
L 199.942433 177.832871 
L 199.947072 170.533069 
L 200.206678 170.533069 
L 200.206678 166.883168 
L 200.723829 166.883168 
L 200.723829 163.233267 
L 201.633721 163.233267 
L 201.633721 159.583366 
L 202.060128 159.583366 
L 202.060128 155.933465 
L 202.317764 155.933465 
L 202.317764 152.283564 
L 202.681565 152.283564 
L 202.681565 148.633663 
L 203.27822 148.633663 
L 203.27822 144.983762 
L 203.911429 144.983762 
L 203.911429 141.333861 
L 204.029489 141.333861 
L 204.031835 134.034059 
L 204.315412 134.034059 
L 204.424715 126.734257 
L 204.551928 126.734257 
L 204.551928 123.084356 
L 204.677681 123.084356 
L 204.747665 115.784554 
L 204.909155 115.784554 
L 204.92121 108.484752 
L 205.430291 108.484752 
L 205.50832 101.18495 
L 205.715991 101.18495 
L 205.715991 97.53505 
L 206.243391 97.53505 
L 206.243391 93.885149 
L 206.51591 93.885149 
L 206.51591 90.235248 
L 206.654735 90.235248 
L 206.654735 86.585347 
L 206.879091 86.585347 
L 206.978534 79.285545 
L 207.258352 79.285545 
L 207.258352 75.635644 
L 208.01224 75.635644 
L 208.015155 68.335842 
L 208.772533 68.335842 
L 208.772533 64.685941 
L 237.221318 64.685941 
L 237.221318 61.03604 
L 250.365751 61.03604 
L 250.365751 57.386139 
L 253.374756 57.386139 
L 253.374756 53.736238 
L 260.841511 53.736238 
L 260.841511 50.086337 
L 264.686074 50.086337 
L 264.686074 46.436436 
L 265.725559 46.436436 
L 265.725559 42.786535 
L 266.946487 42.786535 
L 266.946487 39.136634 
L 267.696466 39.136634 
L 267.696466 35.486733 
L 269.18528 35.486733 
L 269.18528 31.836832 
L 269.748781 31.836832 
L 269.784605 24.53703 
L 272.146914 24.53703 
L 272.146914 20.887129 
L 272.938282 20.887129 
L 272.938282 17.237228 
L 276.70159 17.237228 
L 276.70159 13.587327 
L 279.714559 13.587327 
L 279.714559 9.937426 
L 364.32 9.937426 
L 364.32 9.937426 
" style="fill:none;stroke:#00bfbf;stroke-linecap:square;"/>
   </g>
   <g id="line2d_6">
    <path clip-path="url(#p9af039561f)" d="M 157.443743 283.68 
L 157.443743 280.030099 
L 165.927208 280.030099 
L 165.927208 276.380198 
L 172.360551 276.380198 
L 172.360551 272.730297 
L 173.11648 272.730297 
L 173.11648 269.080396 
L 174.656884 269.080396 
L 174.684489 261.780594 
L 177.013036 261.780594 
L 177.013036 258.130693 
L 177.882942 258.130693 
L 177.882942 254.480792 
L 178.039797 254.480792 
L 178.039797 250.830891 
L 179.866233 250.830891 
L 179.866233 247.18099 
L 181.150357 247.18099 
L 181.150357 243.531089 
L 181.626964 243.531089 
L 181.626964 239.881188 
L 182.090906 239.881188 
L 182.090906 236.231287 
L 182.78504 236.231287 
L 182.78504 232.581386 
L 183.714711 232.581386 
L 183.714711 228.931485 
L 183.89356 228.931485 
L 183.89356 225.281584 
L 184.855459 225.281584 
L 184.855459 221.631683 
L 186.125786 221.631683 
L 186.125786 217.981782 
L 189.408073 217.981782 
L 189.408073 214.331881 
L 189.928967 214.331881 
L 189.928967 210.68198 
L 190.842118 210.68198 
L 190.842118 207.032079 
L 191.575572 207.032079 
L 191.575572 203.382178 
L 193.456558 203.382178 
L 193.456558 199.732277 
L 193.583863 199.732277 
L 193.687793 192.432475 
L 193.816001 192.432475 
L 193.816001 188.782574 
L 194.004538 188.782574 
L 194.042284 181.482772 
L 195.058308 181.482772 
L 195.058308 177.832871 
L 195.666812 177.832871 
L 195.666812 174.18297 
L 197.920181 174.18297 
L 197.920181 170.533069 
L 198.625593 170.533069 
L 198.625593 166.883168 
L 199.252944 166.883168 
L 199.252944 163.233267 
L 199.764194 163.233267 
L 199.764194 159.583366 
L 199.947072 159.583366 
L 199.981322 148.633663 
L 200.876588 148.633663 
L 200.957852 141.333861 
L 201.060104 141.333861 
L 201.060104 137.68396 
L 201.566263 137.68396 
L 201.566263 134.034059 
L 201.715316 134.034059 
L 201.715316 130.384158 
L 201.832046 130.384158 
L 201.832046 126.734257 
L 201.966602 126.734257 
L 201.97013 119.434455 
L 202.29575 119.434455 
L 202.29575 115.784554 
L 202.489877 115.784554 
L 202.56257 104.834851 
L 202.751733 104.834851 
L 202.751733 101.18495 
L 202.977235 101.18495 
L 203.050962 93.885149 
L 203.826812 93.885149 
L 203.826812 90.235248 
L 203.986928 90.235248 
L 204.029489 82.935446 
L 204.223424 82.935446 
L 204.333846 75.635644 
L 204.380109 75.635644 
L 204.380109 71.985743 
L 204.774195 71.985743 
L 204.774195 68.335842 
L 205.114625 68.335842 
L 205.114625 64.685941 
L 237.221214 64.685941 
L 237.221214 61.03604 
L 238.493263 61.03604 
L 238.493263 57.386139 
L 242.268532 57.386139 
L 242.268532 53.736238 
L 244.485203 53.736238 
L 244.485203 50.086337 
L 247.799292 50.086337 
L 247.799292 46.436436 
L 249.043248 46.436436 
L 249.043248 42.786535 
L 250.44759 42.786535 
L 250.44759 39.136634 
L 252.787226 39.136634 
L 252.787226 35.486733 
L 252.95558 35.486733 
L 252.95558 31.836832 
L 253.18637 31.836832 
L 253.18637 28.186931 
L 256.47242 28.186931 
L 256.47242 24.53703 
L 257.630134 24.53703 
L 257.630134 20.887129 
L 258.270344 20.887129 
L 258.270344 17.237228 
L 259.164332 17.237228 
L 259.164332 13.587327 
L 263.678599 13.587327 
L 263.678599 9.937426 
L 364.32 9.937426 
L 364.32 9.937426 
" style="fill:none;stroke:#bf00bf;stroke-linecap:square;"/>
   </g>
   <g id="patch_3">
    <path d="M 7.2 7.2 
L 364.32 7.2 
" style="fill:none;stroke:#000000;stroke-linecap:square;stroke-linejoin:miter;"/>
   </g>
   <g id="patch_4">
    <path d="M 364.32 283.68 
L 364.32 7.2 
" style="fill:none;stroke:#000000;stroke-linecap:square;stroke-linejoin:miter;"/>
   </g>
   <g id="patch_5">
    <path d="M 7.2 283.68 
L 364.32 283.68 
" style="fill:none;stroke:#000000;stroke-linecap:square;stroke-linejoin:miter;"/>
   </g>
   <g id="patch_6">
    <path d="M 7.2 283.68 
L 7.2 7.2 
" style="fill:none;stroke:#000000;stroke-linecap:square;stroke-linejoin:miter;"/>
   </g>
   <g id="matplotlib.axis_1">
    <g id="xtick_1">
     <g id="line2d_7">
      <path clip-path="url(#p9af039561f)" d="M 46.803772 283.68 
L 46.803772 7.2 
" style="fill:none;stroke:#000000;stroke-dasharray:1.000000,3.000000;stroke-dashoffset:0.0;stroke-width:0.5;"/>
     </g>
     <g id="line2d_8">
      <defs>
       <path d="M 0 0 
L 0 -4 
" id="ma6e2be22c0" style="stroke:#000000;stroke-width:0.5;"/>
      </defs>
      <g>
       <use style="stroke:#000000;stroke-width:0.5;" x="46.803771872" xlink:href="#ma6e2be22c0" y="283.68"/>
      </g>
     </g>
     <g id="line2d_9">
      <defs>
       <path d="M 0 0 
L 0 4 
" id="m37cb51b003" style="stroke:#000000;stroke-width:0.5;"/>
      </defs>
      <g>
       <use style="stroke:#000000;stroke-width:0.5;" x="46.803771872" xlink:href="#m37cb51b003" y="7.2"/>
      </g>
     </g>
     <g id="text_1">
      <!-- -6 -->
      <defs>
       <path d="M 33.015625 40.375 
Q 26.375 40.375 22.484375 35.828125 
Q 18.609375 31.296875 18.609375 23.390625 
Q 18.609375 15.53125 22.484375 10.953125 
Q 26.375 6.390625 33.015625 6.390625 
Q 39.65625 6.390625 43.53125 10.953125 
Q 47.40625 15.53125 47.40625 23.390625 
Q 47.40625 31.296875 43.53125 35.828125 
Q 39.65625 40.375 33.015625 40.375 
M 52.59375 71.296875 
L 52.59375 62.3125 
Q 48.875 64.0625 45.09375 64.984375 
Q 41.3125 65.921875 37.59375 65.921875 
Q 27.828125 65.921875 22.671875 59.328125 
Q 17.53125 52.734375 16.796875 39.40625 
Q 19.671875 43.65625 24.015625 45.921875 
Q 28.375 48.1875 33.59375 48.1875 
Q 44.578125 48.1875 50.953125 41.515625 
Q 57.328125 34.859375 57.328125 23.390625 
Q 57.328125 12.15625 50.6875 5.359375 
Q 44.046875 -1.421875 33.015625 -1.421875 
Q 20.359375 -1.421875 13.671875 8.265625 
Q 6.984375 17.96875 6.984375 36.375 
Q 6.984375 53.65625 15.1875 63.9375 
Q 23.390625 74.21875 37.203125 74.21875 
Q 40.921875 74.21875 44.703125 73.484375 
Q 48.484375 72.75 52.59375 71.296875 
" id="BitstreamVeraSans-Roman-36"/>
       <path d="M 4.890625 31.390625 
L 31.203125 31.390625 
L 31.203125 23.390625 
L 4.890625 23.390625 
z
" id="BitstreamVeraSans-Roman-2d"/>
      </defs>
      <g transform="translate(36.833459372 302.876875)scale(0.2 -0.2)">
       <use xlink:href="#BitstreamVeraSans-Roman-2d"/>
       <use x="36.083984375" xlink:href="#BitstreamVeraSans-Roman-36"/>
      </g>
     </g>
    </g>
    <g id="xtick_2">
     <g id="line2d_10">
      <path clip-path="url(#p9af039561f)" d="M 86.4933 283.68 
L 86.4933 7.2 
" style="fill:none;stroke:#000000;stroke-dasharray:1.000000,3.000000;stroke-dashoffset:0.0;stroke-width:0.5;"/>
     </g>
     <g id="line2d_11">
      <g>
       <use style="stroke:#000000;stroke-width:0.5;" x="86.493300388" xlink:href="#ma6e2be22c0" y="283.68"/>
      </g>
     </g>
     <g id="line2d_12">
      <g>
       <use style="stroke:#000000;stroke-width:0.5;" x="86.493300388" xlink:href="#m37cb51b003" y="7.2"/>
      </g>
     </g>
     <g id="text_2">
      <!-- -4 -->
      <defs>
       <path d="M 37.796875 64.3125 
L 12.890625 25.390625 
L 37.796875 25.390625 
z
M 35.203125 72.90625 
L 47.609375 72.90625 
L 47.609375 25.390625 
L 58.015625 25.390625 
L 58.015625 17.1875 
L 47.609375 17.1875 
L 47.609375 0 
L 37.796875 0 
L 37.796875 17.1875 
L 4.890625 17.1875 
L 4.890625 26.703125 
z
" id="BitstreamVeraSans-Roman-34"/>
      </defs>
      <g transform="translate(76.522987888 302.876875)scale(0.2 -0.2)">
       <use xlink:href="#BitstreamVeraSans-Roman-2d"/>
       <use x="36.083984375" xlink:href="#BitstreamVeraSans-Roman-34"/>
      </g>
     </g>
    </g>
    <g id="xtick_3">
     <g id="line2d_13">
      <path clip-path="url(#p9af039561f)" d="M 126.182829 283.68 
L 126.182829 7.2 
" style="fill:none;stroke:#000000;stroke-dasharray:1.000000,3.000000;stroke-dashoffset:0.0;stroke-width:0.5;"/>
     </g>
     <g id="line2d_14">
      <g>
       <use style="stroke:#000000;stroke-width:0.5;" x="126.182828904" xlink:href="#ma6e2be22c0" y="283.68"/>
      </g>
     </g>
     <g id="line2d_15">
      <g>
       <use style="stroke:#000000;stroke-width:0.5;" x="126.182828904" xlink:href="#m37cb51b003" y="7.2"/>
      </g>
     </g>
     <g id="text_3">
      <!-- -2 -->
      <defs>
       <path d="M 19.1875 8.296875 
L 53.609375 8.296875 
L 53.609375 0 
L 7.328125 0 
L 7.328125 8.296875 
Q 12.9375 14.109375 22.625 23.890625 
Q 32.328125 33.6875 34.8125 36.53125 
Q 39.546875 41.84375 41.421875 45.53125 
Q 43.3125 49.21875 43.3125 52.78125 
Q 43.3125 58.59375 39.234375 62.25 
Q 35.15625 65.921875 28.609375 65.921875 
Q 23.96875 65.921875 18.8125 64.3125 
Q 13.671875 62.703125 7.8125 59.421875 
L 7.8125 69.390625 
Q 13.765625 71.78125 18.9375 73 
Q 24.125 74.21875 28.421875 74.21875 
Q 39.75 74.21875 46.484375 68.546875 
Q 53.21875 62.890625 53.21875 53.421875 
Q 53.21875 48.921875 51.53125 44.890625 
Q 49.859375 40.875 45.40625 35.40625 
Q 44.1875 33.984375 37.640625 27.21875 
Q 31.109375 20.453125 19.1875 8.296875 
" id="BitstreamVeraSans-Roman-32"/>
      </defs>
      <g transform="translate(116.212516404 302.876875)scale(0.2 -0.2)">
       <use xlink:href="#BitstreamVeraSans-Roman-2d"/>
       <use x="36.083984375" xlink:href="#BitstreamVeraSans-Roman-32"/>
      </g>
     </g>
    </g>
    <g id="xtick_4">
     <g id="line2d_16">
      <path clip-path="url(#p9af039561f)" d="M 165.872357 283.68 
L 165.872357 7.2 
" style="fill:none;stroke:#000000;stroke-dasharray:1.000000,3.000000;stroke-dashoffset:0.0;stroke-width:0.5;"/>
     </g>
     <g id="line2d_17">
      <g>
       <use style="stroke:#000000;stroke-width:0.5;" x="165.87235742" xlink:href="#ma6e2be22c0" y="283.68"/>
      </g>
     </g>
     <g id="line2d_18">
      <g>
       <use style="stroke:#000000;stroke-width:0.5;" x="165.87235742" xlink:href="#m37cb51b003" y="7.2"/>
      </g>
     </g>
     <g id="text_4">
      <!-- 0 -->
      <defs>
       <path d="M 31.78125 66.40625 
Q 24.171875 66.40625 20.328125 58.90625 
Q 16.5 51.421875 16.5 36.375 
Q 16.5 21.390625 20.328125 13.890625 
Q 24.171875 6.390625 31.78125 6.390625 
Q 39.453125 6.390625 43.28125 13.890625 
Q 47.125 21.390625 47.125 36.375 
Q 47.125 51.421875 43.28125 58.90625 
Q 39.453125 66.40625 31.78125 66.40625 
M 31.78125 74.21875 
Q 44.046875 74.21875 50.515625 64.515625 
Q 56.984375 54.828125 56.984375 36.375 
Q 56.984375 17.96875 50.515625 8.265625 
Q 44.046875 -1.421875 31.78125 -1.421875 
Q 19.53125 -1.421875 13.0625 8.265625 
Q 6.59375 17.96875 6.59375 36.375 
Q 6.59375 54.828125 13.0625 64.515625 
Q 19.53125 74.21875 31.78125 74.21875 
" id="BitstreamVeraSans-Roman-30"/>
      </defs>
      <g transform="translate(159.50985742 302.876875)scale(0.2 -0.2)">
       <use xlink:href="#BitstreamVeraSans-Roman-30"/>
      </g>
     </g>
    </g>
    <g id="xtick_5">
     <g id="line2d_19">
      <path clip-path="url(#p9af039561f)" d="M 205.561886 283.68 
L 205.561886 7.2 
" style="fill:none;stroke:#000000;stroke-dasharray:1.000000,3.000000;stroke-dashoffset:0.0;stroke-width:0.5;"/>
     </g>
     <g id="line2d_20">
      <g>
       <use style="stroke:#000000;stroke-width:0.5;" x="205.561885936" xlink:href="#ma6e2be22c0" y="283.68"/>
      </g>
     </g>
     <g id="line2d_21">
      <g>
       <use style="stroke:#000000;stroke-width:0.5;" x="205.561885936" xlink:href="#m37cb51b003" y="7.2"/>
      </g>
     </g>
     <g id="text_5">
      <!-- 2 -->
      <g transform="translate(199.199385936 302.876875)scale(0.2 -0.2)">
       <use xlink:href="#BitstreamVeraSans-Roman-32"/>
      </g>
     </g>
    </g>
    <g id="xtick_6">
     <g id="line2d_22">
      <path clip-path="url(#p9af039561f)" d="M 245.251414 283.68 
L 245.251414 7.2 
" style="fill:none;stroke:#000000;stroke-dasharray:1.000000,3.000000;stroke-dashoffset:0.0;stroke-width:0.5;"/>
     </g>
     <g id="line2d_23">
      <g>
       <use style="stroke:#000000;stroke-width:0.5;" x="245.251414452" xlink:href="#ma6e2be22c0" y="283.68"/>
      </g>
     </g>
     <g id="line2d_24">
      <g>
       <use style="stroke:#000000;stroke-width:0.5;" x="245.251414452" xlink:href="#m37cb51b003" y="7.2"/>
      </g>
     </g>
     <g id="text_6">
      <!-- 4 -->
      <g transform="translate(238.888914452 302.876875)scale(0.2 -0.2)">
       <use xlink:href="#BitstreamVeraSans-Roman-34"/>
      </g>
     </g>
    </g>
    <g id="xtick_7">
     <g id="line2d_25">
      <path clip-path="url(#p9af039561f)" d="M 284.940943 283.68 
L 284.940943 7.2 
" style="fill:none;stroke:#000000;stroke-dasharray:1.000000,3.000000;stroke-dashoffset:0.0;stroke-width:0.5;"/>
     </g>
     <g id="line2d_26">
      <g>
       <use style="stroke:#000000;stroke-width:0.5;" x="284.940942968" xlink:href="#ma6e2be22c0" y="283.68"/>
      </g>
     </g>
     <g id="line2d_27">
      <g>
       <use style="stroke:#000000;stroke-width:0.5;" x="284.940942968" xlink:href="#m37cb51b003" y="7.2"/>
      </g>
     </g>
     <g id="text_7">
      <!-- 6 -->
      <g transform="translate(278.578442968 302.876875)scale(0.2 -0.2)">
       <use xlink:href="#BitstreamVeraSans-Roman-36"/>
      </g>
     </g>
    </g>
    <g id="xtick_8">
     <g id="line2d_28">
      <path clip-path="url(#p9af039561f)" d="M 324.630471 283.68 
L 324.630471 7.2 
" style="fill:none;stroke:#000000;stroke-dasharray:1.000000,3.000000;stroke-dashoffset:0.0;stroke-width:0.5;"/>
     </g>
     <g id="line2d_29">
      <g>
       <use style="stroke:#000000;stroke-width:0.5;" x="324.630471484" xlink:href="#ma6e2be22c0" y="283.68"/>
      </g>
     </g>
     <g id="line2d_30">
      <g>
       <use style="stroke:#000000;stroke-width:0.5;" x="324.630471484" xlink:href="#m37cb51b003" y="7.2"/>
      </g>
     </g>
     <g id="text_8">
      <!-- 8 -->
      <defs>
       <path d="M 31.78125 34.625 
Q 24.75 34.625 20.71875 30.859375 
Q 16.703125 27.09375 16.703125 20.515625 
Q 16.703125 13.921875 20.71875 10.15625 
Q 24.75 6.390625 31.78125 6.390625 
Q 38.8125 6.390625 42.859375 10.171875 
Q 46.921875 13.96875 46.921875 20.515625 
Q 46.921875 27.09375 42.890625 30.859375 
Q 38.875 34.625 31.78125 34.625 
M 21.921875 38.8125 
Q 15.578125 40.375 12.03125 44.71875 
Q 8.5 49.078125 8.5 55.328125 
Q 8.5 64.0625 14.71875 69.140625 
Q 20.953125 74.21875 31.78125 74.21875 
Q 42.671875 74.21875 48.875 69.140625 
Q 55.078125 64.0625 55.078125 55.328125 
Q 55.078125 49.078125 51.53125 44.71875 
Q 48 40.375 41.703125 38.8125 
Q 48.828125 37.15625 52.796875 32.3125 
Q 56.78125 27.484375 56.78125 20.515625 
Q 56.78125 9.90625 50.3125 4.234375 
Q 43.84375 -1.421875 31.78125 -1.421875 
Q 19.734375 -1.421875 13.25 4.234375 
Q 6.78125 9.90625 6.78125 20.515625 
Q 6.78125 27.484375 10.78125 32.3125 
Q 14.796875 37.15625 21.921875 38.8125 
M 18.3125 54.390625 
Q 18.3125 48.734375 21.84375 45.5625 
Q 25.390625 42.390625 31.78125 42.390625 
Q 38.140625 42.390625 41.71875 45.5625 
Q 45.3125 48.734375 45.3125 54.390625 
Q 45.3125 60.0625 41.71875 63.234375 
Q 38.140625 66.40625 31.78125 66.40625 
Q 25.390625 66.40625 21.84375 63.234375 
Q 18.3125 60.0625 18.3125 54.390625 
" id="BitstreamVeraSans-Roman-38"/>
      </defs>
      <g transform="translate(318.267971484 302.876875)scale(0.2 -0.2)">
       <use xlink:href="#BitstreamVeraSans-Roman-38"/>
      </g>
     </g>
    </g>
    <g id="xtick_9">
     <g id="line2d_31">
      <path clip-path="url(#p9af039561f)" d="M 364.32 283.68 
L 364.32 7.2 
" style="fill:none;stroke:#000000;stroke-dasharray:1.000000,3.000000;stroke-dashoffset:0.0;stroke-width:0.5;"/>
     </g>
     <g id="line2d_32">
      <g>
       <use style="stroke:#000000;stroke-width:0.5;" x="364.32" xlink:href="#ma6e2be22c0" y="283.68"/>
      </g>
     </g>
     <g id="line2d_33">
      <g>
       <use style="stroke:#000000;stroke-width:0.5;" x="364.32" xlink:href="#m37cb51b003" y="7.2"/>
      </g>
     </g>
    </g>
    <g id="xtick_10">
     <g id="line2d_34">
      <defs>
       <path d="M 0 0 
L 0 -2 
" id="mc7a73ab3e9" style="stroke:#000000;stroke-width:0.5;"/>
      </defs>
      <g>
       <use style="stroke:#000000;stroke-width:0.5;" x="46.803771872" xlink:href="#mc7a73ab3e9" y="283.68"/>
      </g>
     </g>
     <g id="line2d_35">
      <defs>
       <path d="M 0 0 
L 0 2 
" id="mdee00917ae" style="stroke:#000000;stroke-width:0.5;"/>
      </defs>
      <g>
       <use style="stroke:#000000;stroke-width:0.5;" x="46.803771872" xlink:href="#mdee00917ae" y="7.2"/>
      </g>
     </g>
    </g>
    <g id="xtick_11">
     <g id="line2d_36">
      <g>
       <use style="stroke:#000000;stroke-width:0.5;" x="86.493300388" xlink:href="#mc7a73ab3e9" y="283.68"/>
      </g>
     </g>
     <g id="line2d_37">
      <g>
       <use style="stroke:#000000;stroke-width:0.5;" x="86.493300388" xlink:href="#mdee00917ae" y="7.2"/>
      </g>
     </g>
    </g>
    <g id="xtick_12">
     <g id="line2d_38">
      <g>
       <use style="stroke:#000000;stroke-width:0.5;" x="126.182828904" xlink:href="#mc7a73ab3e9" y="283.68"/>
      </g>
     </g>
     <g id="line2d_39">
      <g>
       <use style="stroke:#000000;stroke-width:0.5;" x="126.182828904" xlink:href="#mdee00917ae" y="7.2"/>
      </g>
     </g>
    </g>
    <g id="xtick_13">
     <g id="line2d_40">
      <g>
       <use style="stroke:#000000;stroke-width:0.5;" x="165.87235742" xlink:href="#mc7a73ab3e9" y="283.68"/>
      </g>
     </g>
     <g id="line2d_41">
      <g>
       <use style="stroke:#000000;stroke-width:0.5;" x="165.87235742" xlink:href="#mdee00917ae" y="7.2"/>
      </g>
     </g>
    </g>
    <g id="xtick_14">
     <g id="line2d_42">
      <g>
       <use style="stroke:#000000;stroke-width:0.5;" x="205.561885936" xlink:href="#mc7a73ab3e9" y="283.68"/>
      </g>
     </g>
     <g id="line2d_43">
      <g>
       <use style="stroke:#000000;stroke-width:0.5;" x="205.561885936" xlink:href="#mdee00917ae" y="7.2"/>
      </g>
     </g>
    </g>
    <g id="xtick_15">
     <g id="line2d_44">
      <g>
       <use style="stroke:#000000;stroke-width:0.5;" x="245.251414452" xlink:href="#mc7a73ab3e9" y="283.68"/>
      </g>
     </g>
     <g id="line2d_45">
      <g>
       <use style="stroke:#000000;stroke-width:0.5;" x="245.251414452" xlink:href="#mdee00917ae" y="7.2"/>
      </g>
     </g>
    </g>
    <g id="xtick_16">
     <g id="line2d_46">
      <g>
       <use style="stroke:#000000;stroke-width:0.5;" x="284.940942968" xlink:href="#mc7a73ab3e9" y="283.68"/>
      </g>
     </g>
     <g id="line2d_47">
      <g>
       <use style="stroke:#000000;stroke-width:0.5;" x="284.940942968" xlink:href="#mdee00917ae" y="7.2"/>
      </g>
     </g>
    </g>
    <g id="xtick_17">
     <g id="line2d_48">
      <g>
       <use style="stroke:#000000;stroke-width:0.5;" x="324.630471484" xlink:href="#mc7a73ab3e9" y="283.68"/>
      </g>
     </g>
     <g id="line2d_49">
      <g>
       <use style="stroke:#000000;stroke-width:0.5;" x="324.630471484" xlink:href="#mdee00917ae" y="7.2"/>
      </g>
     </g>
    </g>
    <g id="xtick_18">
     <g id="line2d_50">
      <g>
       <use style="stroke:#000000;stroke-width:0.5;" x="364.32" xlink:href="#mc7a73ab3e9" y="283.68"/>
      </g>
     </g>
     <g id="line2d_51">
      <g>
       <use style="stroke:#000000;stroke-width:0.5;" x="364.32" xlink:href="#mdee00917ae" y="7.2"/>
      </g>
     </g>
    </g>
    <g id="text_9">
     <!-- log10 of Df -->
     <defs>
      <path id="BitstreamVeraSans-Roman-20"/>
      <path d="M 12.40625 8.296875 
L 28.515625 8.296875 
L 28.515625 63.921875 
L 10.984375 60.40625 
L 10.984375 69.390625 
L 28.421875 72.90625 
L 38.28125 72.90625 
L 38.28125 8.296875 
L 54.390625 8.296875 
L 54.390625 0 
L 12.40625 0 
z
" id="BitstreamVeraSans-Roman-31"/>
      <path d="M 30.609375 48.390625 
Q 23.390625 48.390625 19.1875 42.75 
Q 14.984375 37.109375 14.984375 27.296875 
Q 14.984375 17.484375 19.15625 11.84375 
Q 23.34375 6.203125 30.609375 6.203125 
Q 37.796875 6.203125 41.984375 11.859375 
Q 46.1875 17.53125 46.1875 27.296875 
Q 46.1875 37.015625 41.984375 42.703125 
Q 37.796875 48.390625 30.609375 48.390625 
M 30.609375 56 
Q 42.328125 56 49.015625 48.375 
Q 55.71875 40.765625 55.71875 27.296875 
Q 55.71875 13.875 49.015625 6.21875 
Q 42.328125 -1.421875 30.609375 -1.421875 
Q 18.84375 -1.421875 12.171875 6.21875 
Q 5.515625 13.875 5.515625 27.296875 
Q 5.515625 40.765625 12.171875 48.375 
Q 18.84375 56 30.609375 56 
" id="BitstreamVeraSans-Roman-6f"/>
      <path d="M 9.421875 75.984375 
L 18.40625 75.984375 
L 18.40625 0 
L 9.421875 0 
z
" id="BitstreamVeraSans-Roman-6c"/>
      <path d="M 19.671875 64.796875 
L 19.671875 8.109375 
L 31.59375 8.109375 
Q 46.6875 8.109375 53.6875 14.9375 
Q 60.6875 21.78125 60.6875 36.53125 
Q 60.6875 51.171875 53.6875 57.984375 
Q 46.6875 64.796875 31.59375 64.796875 
z
M 9.8125 72.90625 
L 30.078125 72.90625 
Q 51.265625 72.90625 61.171875 64.09375 
Q 71.09375 55.28125 71.09375 36.53125 
Q 71.09375 17.671875 61.125 8.828125 
Q 51.171875 0 30.078125 0 
L 9.8125 0 
z
" id="BitstreamVeraSans-Roman-44"/>
      <path d="M 45.40625 27.984375 
Q 45.40625 37.75 41.375 43.109375 
Q 37.359375 48.484375 30.078125 48.484375 
Q 22.859375 48.484375 18.828125 43.109375 
Q 14.796875 37.75 14.796875 27.984375 
Q 14.796875 18.265625 18.828125 12.890625 
Q 22.859375 7.515625 30.078125 7.515625 
Q 37.359375 7.515625 41.375 12.890625 
Q 45.40625 18.265625 45.40625 27.984375 
M 54.390625 6.78125 
Q 54.390625 -7.171875 48.1875 -13.984375 
Q 42 -20.796875 29.203125 -20.796875 
Q 24.46875 -20.796875 20.265625 -20.09375 
Q 16.0625 -19.390625 12.109375 -17.921875 
L 12.109375 -9.1875 
Q 16.0625 -11.328125 19.921875 -12.34375 
Q 23.78125 -13.375 27.78125 -13.375 
Q 36.625 -13.375 41.015625 -8.765625 
Q 45.40625 -4.15625 45.40625 5.171875 
L 45.40625 9.625 
Q 42.625 4.78125 38.28125 2.390625 
Q 33.9375 0 27.875 0 
Q 17.828125 0 11.671875 7.65625 
Q 5.515625 15.328125 5.515625 27.984375 
Q 5.515625 40.671875 11.671875 48.328125 
Q 17.828125 56 27.875 56 
Q 33.9375 56 38.28125 53.609375 
Q 42.625 51.21875 45.40625 46.390625 
L 45.40625 54.6875 
L 54.390625 54.6875 
z
" id="BitstreamVeraSans-Roman-67"/>
      <path d="M 37.109375 75.984375 
L 37.109375 68.5 
L 28.515625 68.5 
Q 23.6875 68.5 21.796875 66.546875 
Q 19.921875 64.59375 19.921875 59.515625 
L 19.921875 54.6875 
L 34.71875 54.6875 
L 34.71875 47.703125 
L 19.921875 47.703125 
L 19.921875 0 
L 10.890625 0 
L 10.890625 47.703125 
L 2.296875 47.703125 
L 2.296875 54.6875 
L 10.890625 54.6875 
L 10.890625 58.5 
Q 10.890625 67.625 15.140625 71.796875 
Q 19.390625 75.984375 28.609375 75.984375 
z
" id="BitstreamVeraSans-Roman-66"/>
     </defs>
     <g transform="translate(130.5740625 327.233125)scale(0.2 -0.2)">
      <use xlink:href="#BitstreamVeraSans-Roman-6c"/>
      <use x="27.783203125" xlink:href="#BitstreamVeraSans-Roman-6f"/>
      <use x="88.96484375" xlink:href="#BitstreamVeraSans-Roman-67"/>
      <use x="152.44140625" xlink:href="#BitstreamVeraSans-Roman-31"/>
      <use x="216.064453125" xlink:href="#BitstreamVeraSans-Roman-30"/>
      <use x="279.6875" xlink:href="#BitstreamVeraSans-Roman-20"/>
      <use x="311.474609375" xlink:href="#BitstreamVeraSans-Roman-6f"/>
      <use x="372.65625" xlink:href="#BitstreamVeraSans-Roman-66"/>
      <use x="407.861328125" xlink:href="#BitstreamVeraSans-Roman-20"/>
      <use x="439.6484375" xlink:href="#BitstreamVeraSans-Roman-44"/>
      <use x="516.650390625" xlink:href="#BitstreamVeraSans-Roman-66"/>
     </g>
    </g>
   </g>
   <g id="matplotlib.axis_2">
    <g id="ytick_1">
     <g id="line2d_52">
      <path clip-path="url(#p9af039561f)" d="M 7.2 283.68 
L 364.32 283.68 
" style="fill:none;stroke:#000000;stroke-dasharray:1.000000,3.000000;stroke-dashoffset:0.0;stroke-width:0.5;"/>
     </g>
     <g id="line2d_53">
      <defs>
       <path d="M 0 0 
L 4 0 
" id="m8ab54628d4" style="stroke:#000000;stroke-width:0.5;"/>
      </defs>
      <g>
       <use style="stroke:#000000;stroke-width:0.5;" x="7.2" xlink:href="#m8ab54628d4" y="283.68"/>
      </g>
     </g>
     <g id="line2d_54">
      <defs>
       <path d="M 0 0 
L -4 0 
" id="m8a4fbe4358" style="stroke:#000000;stroke-width:0.5;"/>
      </defs>
      <g>
       <use style="stroke:#000000;stroke-width:0.5;" x="364.32" xlink:href="#m8a4fbe4358" y="283.68"/>
      </g>
     </g>
    </g>
    <g id="ytick_2">
     <g id="line2d_55">
      <path clip-path="url(#p9af039561f)" d="M 7.2 228.931485 
L 364.32 228.931485 
" style="fill:none;stroke:#000000;stroke-dasharray:1.000000,3.000000;stroke-dashoffset:0.0;stroke-width:0.5;"/>
     </g>
     <g id="line2d_56">
      <g>
       <use style="stroke:#000000;stroke-width:0.5;" x="7.2" xlink:href="#m8ab54628d4" y="228.931485149"/>
      </g>
     </g>
     <g id="line2d_57">
      <g>
       <use style="stroke:#000000;stroke-width:0.5;" x="364.32" xlink:href="#m8a4fbe4358" y="228.931485149"/>
      </g>
     </g>
    </g>
    <g id="ytick_3">
     <g id="line2d_58">
      <path clip-path="url(#p9af039561f)" d="M 7.2 174.18297 
L 364.32 174.18297 
" style="fill:none;stroke:#000000;stroke-dasharray:1.000000,3.000000;stroke-dashoffset:0.0;stroke-width:0.5;"/>
     </g>
     <g id="line2d_59">
      <g>
       <use style="stroke:#000000;stroke-width:0.5;" x="7.2" xlink:href="#m8ab54628d4" y="174.182970297"/>
      </g>
     </g>
     <g id="line2d_60">
      <g>
       <use style="stroke:#000000;stroke-width:0.5;" x="364.32" xlink:href="#m8a4fbe4358" y="174.182970297"/>
      </g>
     </g>
    </g>
    <g id="ytick_4">
     <g id="line2d_61">
      <path clip-path="url(#p9af039561f)" d="M 7.2 119.434455 
L 364.32 119.434455 
" style="fill:none;stroke:#000000;stroke-dasharray:1.000000,3.000000;stroke-dashoffset:0.0;stroke-width:0.5;"/>
     </g>
     <g id="line2d_62">
      <g>
       <use style="stroke:#000000;stroke-width:0.5;" x="7.2" xlink:href="#m8ab54628d4" y="119.434455446"/>
      </g>
     </g>
     <g id="line2d_63">
      <g>
       <use style="stroke:#000000;stroke-width:0.5;" x="364.32" xlink:href="#m8a4fbe4358" y="119.434455446"/>
      </g>
     </g>
    </g>
    <g id="ytick_5">
     <g id="line2d_64">
      <path clip-path="url(#p9af039561f)" d="M 7.2 64.685941 
L 364.32 64.685941 
" style="fill:none;stroke:#000000;stroke-dasharray:1.000000,3.000000;stroke-dashoffset:0.0;stroke-width:0.5;"/>
     </g>
     <g id="line2d_65">
      <g>
       <use style="stroke:#000000;stroke-width:0.5;" x="7.2" xlink:href="#m8ab54628d4" y="64.6859405941"/>
      </g>
     </g>
     <g id="line2d_66">
      <g>
       <use style="stroke:#000000;stroke-width:0.5;" x="364.32" xlink:href="#m8a4fbe4358" y="64.6859405941"/>
      </g>
     </g>
    </g>
    <g id="ytick_6">
     <g id="line2d_67">
      <path clip-path="url(#p9af039561f)" d="M 7.2 9.937426 
L 364.32 9.937426 
" style="fill:none;stroke:#000000;stroke-dasharray:1.000000,3.000000;stroke-dashoffset:0.0;stroke-width:0.5;"/>
     </g>
     <g id="line2d_68">
      <g>
       <use style="stroke:#000000;stroke-width:0.5;" x="7.2" xlink:href="#m8ab54628d4" y="9.93742574257"/>
      </g>
     </g>
     <g id="line2d_69">
      <g>
       <use style="stroke:#000000;stroke-width:0.5;" x="364.32" xlink:href="#m8a4fbe4358" y="9.93742574257"/>
      </g>
     </g>
    </g>
   </g>
   <g id="text_10">
    <!-- f1-5,5-D -->
    <defs>
     <path d="M 11.71875 12.40625 
L 22.015625 12.40625 
L 22.015625 4 
L 14.015625 -11.625 
L 7.71875 -11.625 
L 11.71875 4 
z
" id="BitstreamVeraSans-Roman-2c"/>
     <path d="M 10.796875 72.90625 
L 49.515625 72.90625 
L 49.515625 64.59375 
L 19.828125 64.59375 
L 19.828125 46.734375 
Q 21.96875 47.46875 24.109375 47.828125 
Q 26.265625 48.1875 28.421875 48.1875 
Q 40.625 48.1875 47.75 41.5 
Q 54.890625 34.8125 54.890625 23.390625 
Q 54.890625 11.625 47.5625 5.09375 
Q 40.234375 -1.421875 26.90625 -1.421875 
Q 22.3125 -1.421875 17.546875 -0.640625 
Q 12.796875 0.140625 7.71875 1.703125 
L 7.71875 11.625 
Q 12.109375 9.234375 16.796875 8.0625 
Q 21.484375 6.890625 26.703125 6.890625 
Q 35.15625 6.890625 40.078125 11.328125 
Q 45.015625 15.765625 45.015625 23.390625 
Q 45.015625 31 40.078125 35.4375 
Q 35.15625 39.890625 26.703125 39.890625 
Q 22.75 39.890625 18.8125 39.015625 
Q 14.890625 38.140625 10.796875 36.28125 
z
" id="BitstreamVeraSans-Roman-35"/>
    </defs>
    <g transform="translate(275.774475 278.1504)scale(0.2 -0.2)">
     <use xlink:href="#BitstreamVeraSans-Roman-66"/>
     <use x="35.205078125" xlink:href="#BitstreamVeraSans-Roman-31"/>
     <use x="98.828125" xlink:href="#BitstreamVeraSans-Roman-2d"/>
     <use x="134.912109375" xlink:href="#BitstreamVeraSans-Roman-35"/>
     <use x="198.53515625" xlink:href="#BitstreamVeraSans-Roman-2c"/>
     <use x="230.322265625" xlink:href="#BitstreamVeraSans-Roman-35"/>
     <use x="293.9453125" xlink:href="#BitstreamVeraSans-Roman-2d"/>
     <use x="330.029296875" xlink:href="#BitstreamVeraSans-Roman-44"/>
    </g>
   </g>
  </g>
 </g>
 <defs>
  <clipPath id="p9af039561f">
   <rect height="276.48" width="357.12" x="7.2" y="7.2"/>
  </clipPath>
 </defs>
</svg>
