<?xml version="1.0" encoding="utf-8" standalone="no"?>
<!DOCTYPE svg PUBLIC "-//W3C//DTD SVG 1.1//EN"
  "http://www.w3.org/Graphics/SVG/1.1/DTD/svg11.dtd">
<!-- Created with matplotlib (http://matplotlib.org/) -->
<svg height="338pt" version="1.1" viewBox="0 0 371 338" width="371pt" xmlns="http://www.w3.org/2000/svg" xmlns:xlink="http://www.w3.org/1999/xlink">
 <defs>
  <style type="text/css">
*{stroke-linecap:butt;stroke-linejoin:round;stroke-miterlimit:100000;}
  </style>
 </defs>
 <g id="figure_1">
  <g id="patch_1">
   <path d="M 0 338.5925 
L 371.52 338.5925 
L 371.52 0 
L 0 0 
z
" style="fill:#ffffff;"/>
  </g>
  <g id="axes_1">
   <g id="patch_2">
    <path d="M 7.2 283.68 
L 364.32 283.68 
L 364.32 7.2 
L 7.2 7.2 
z
" style="fill:#ffffff;"/>
   </g>
   <g id="line2d_1">
    <path clip-path="url(#p5d46bba446)" d="M 195.376849 283.68 
L 195.376849 280.030099 
L 195.502127 280.030099 
L 195.502127 276.380198 
L 196.08203 276.380198 
L 196.18649 265.430495 
L 196.357284 265.430495 
L 196.438471 258.130693 
L 196.495064 258.130693 
L 196.508925 250.830891 
L 196.633058 250.830891 
L 196.633058 247.18099 
L 197.091137 247.18099 
L 197.194 239.881188 
L 197.541882 239.881188 
L 197.541882 236.231287 
L 197.857386 236.231287 
L 197.857386 232.581386 
L 198.069116 232.581386 
L 198.069116 228.931485 
L 198.945135 228.931485 
L 198.945135 225.281584 
L 199.242364 225.281584 
L 199.242364 221.631683 
L 199.366981 221.631683 
L 199.366981 217.981782 
L 199.858286 217.981782 
L 199.906803 210.68198 
L 200.016895 210.68198 
L 200.016895 207.032079 
L 200.708124 207.032079 
L 200.708124 203.382178 
L 200.840269 203.382178 
L 200.878894 196.082376 
L 200.987032 196.082376 
L 200.987032 192.432475 
L 201.418816 192.432475 
L 201.418816 188.782574 
L 201.604911 188.782574 
L 201.713241 177.832871 
L 202.244452 177.832871 
L 202.244452 174.18297 
L 202.678211 174.18297 
L 202.678211 170.533069 
L 204.439315 170.533069 
L 204.489214 155.933465 
L 204.808895 155.933465 
L 204.808895 152.283564 
L 205.161562 152.283564 
L 205.164336 144.983762 
L 205.329436 144.983762 
L 205.329436 141.333861 
L 205.73936 141.333861 
L 205.73936 137.68396 
L 206.084036 137.68396 
L 206.106898 130.384158 
L 206.640924 130.384158 
L 206.640924 126.734257 
L 206.867594 126.734257 
L 206.867594 123.084356 
L 207.253173 123.084356 
L 207.253173 119.434455 
L 207.653095 119.434455 
L 207.653095 115.784554 
L 207.777929 115.784554 
L 207.806131 104.834851 
L 208.767274 104.834851 
L 208.826979 97.53505 
L 208.890063 97.53505 
L 208.890063 93.885149 
L 209.009557 93.885149 
L 209.009557 90.235248 
L 209.597405 90.235248 
L 209.597405 86.585347 
L 210.170153 86.585347 
L 210.170153 82.935446 
L 210.467686 82.935446 
L 210.467686 79.285545 
L 210.842325 79.285545 
L 210.842325 75.635644 
L 211.46604 75.635644 
L 211.46604 71.985743 
L 211.805947 71.985743 
L 211.805947 68.335842 
L 212.375592 68.335842 
L 212.375592 64.685941 
L 230.759173 64.685941 
L 230.838692 57.386139 
L 231.833424 57.386139 
L 231.833424 53.736238 
L 232.025337 53.736238 
L 232.025337 50.086337 
L 232.507795 50.086337 
L 232.574674 39.136634 
L 232.649586 39.136634 
L 232.704202 28.186931 
L 232.924282 28.186931 
L 232.937799 20.887129 
L 233.089828 20.887129 
L 233.120623 13.587327 
L 233.680449 13.587327 
L 233.680449 9.937426 
L 364.32 9.937426 
L 364.32 9.937426 
" style="fill:none;stroke:#ff0000;stroke-linecap:square;stroke-width:3.0;"/>
   </g>
   <g id="line2d_2">
    <path clip-path="url(#p5d46bba446)" d="M 199.01649 283.68 
L 199.01649 280.030099 
L 199.352121 280.030099 
L 199.352121 276.380198 
L 201.011036 276.380198 
L 201.011036 272.730297 
L 201.533798 272.730297 
L 201.533798 269.080396 
L 202.417795 269.080396 
L 202.514479 261.780594 
L 202.998937 261.780594 
L 202.998937 258.130693 
L 203.21493 258.130693 
L 203.21493 254.480792 
L 203.376904 254.480792 
L 203.376904 250.830891 
L 204.256657 250.830891 
L 204.256657 247.18099 
L 204.540546 247.18099 
L 204.543296 239.881188 
L 204.704401 239.881188 
L 204.805368 225.281584 
L 204.870658 225.281584 
L 204.870658 221.631683 
L 204.996048 221.631683 
L 204.996048 217.981782 
L 205.624458 217.981782 
L 205.624458 214.331881 
L 205.781819 214.331881 
L 205.781819 210.68198 
L 205.927157 210.68198 
L 205.927157 207.032079 
L 206.324442 207.032079 
L 206.324442 203.382178 
L 206.575464 203.382178 
L 206.575464 199.732277 
L 206.787019 199.732277 
L 206.787019 196.082376 
L 207.072129 196.082376 
L 207.072129 192.432475 
L 207.344745 192.432475 
L 207.344745 188.782574 
L 207.534915 188.782574 
L 207.534915 185.132673 
L 208.172089 185.132673 
L 208.172089 181.482772 
L 208.327024 181.482772 
L 208.327024 177.832871 
L 208.457283 177.832871 
L 208.457283 174.18297 
L 209.257423 174.18297 
L 209.257423 170.533069 
L 209.600846 170.533069 
L 209.667596 163.233267 
L 210.00511 163.233267 
L 210.092653 155.933465 
L 210.801749 155.933465 
L 210.822029 148.633663 
L 211.086152 148.633663 
L 211.086152 144.983762 
L 211.261532 144.983762 
L 211.261532 141.333861 
L 211.390872 141.333861 
L 211.464828 134.034059 
L 211.728454 134.034059 
L 211.73423 126.734257 
L 212.929579 126.734257 
L 213.030619 112.134653 
L 213.456719 112.134653 
L 213.456719 108.484752 
L 214.138702 108.484752 
L 214.138702 104.834851 
L 214.830971 104.834851 
L 214.830971 101.18495 
L 215.502543 101.18495 
L 215.502543 97.53505 
L 215.919382 97.53505 
L 215.919382 93.885149 
L 216.256506 93.885149 
L 216.256506 90.235248 
L 216.534746 90.235248 
L 216.534746 86.585347 
L 217.724957 86.585347 
L 217.724957 82.935446 
L 217.898292 82.935446 
L 217.898292 79.285545 
L 219.244642 79.285545 
L 219.244642 75.635644 
L 219.560591 75.635644 
L 219.560591 71.985743 
L 221.902171 71.985743 
L 221.902171 68.335842 
L 222.818997 68.335842 
L 222.818997 64.685941 
L 234.345313 64.685941 
L 234.345313 61.03604 
L 235.960763 61.03604 
L 235.960763 57.386139 
L 236.374007 57.386139 
L 236.374007 53.736238 
L 236.845577 53.736238 
L 236.845577 50.086337 
L 237.885859 50.086337 
L 237.885859 46.436436 
L 238.203795 46.436436 
L 238.203795 42.786535 
L 238.838779 42.786535 
L 238.838779 39.136634 
L 239.302864 39.136634 
L 239.346812 31.836832 
L 239.491512 31.836832 
L 239.491512 28.186931 
L 239.616501 28.186931 
L 239.616501 24.53703 
L 239.919702 24.53703 
L 239.919702 20.887129 
L 241.926529 20.887129 
L 242.013298 13.587327 
L 242.660395 13.587327 
L 242.660395 9.937426 
L 364.32 9.937426 
L 364.32 9.937426 
" style="fill:none;stroke:#00bfbf;stroke-linecap:square;"/>
   </g>
   <g id="line2d_3">
    <path clip-path="url(#p5d46bba446)" d="M 198.305224 283.68 
L 198.305224 280.030099 
L 198.873329 280.030099 
L 198.873329 276.380198 
L 199.01649 276.380198 
L 199.01649 272.730297 
L 199.516246 272.730297 
L 199.516246 269.080396 
L 200.433132 269.080396 
L 200.433132 265.430495 
L 200.589964 265.430495 
L 200.589964 261.780594 
L 201.011036 261.780594 
L 201.011036 258.130693 
L 201.731737 258.130693 
L 201.731737 254.480792 
L 202.106036 254.480792 
L 202.106036 250.830891 
L 202.244452 250.830891 
L 202.284917 243.531089 
L 202.417795 243.531089 
L 202.417795 239.881188 
L 203.21493 239.881188 
L 203.293553 232.581386 
L 203.601623 232.581386 
L 203.603593 225.281584 
L 204.540546 225.281584 
L 204.543296 217.981782 
L 204.781337 217.981782 
L 204.781337 214.331881 
L 205.447832 214.331881 
L 205.494676 207.032079 
L 205.781819 207.032079 
L 205.802112 199.732277 
L 206.083247 199.732277 
L 206.083247 196.082376 
L 206.324442 196.082376 
L 206.363224 188.782574 
L 206.575464 188.782574 
L 206.575464 185.132673 
L 206.70897 185.132673 
L 206.70897 181.482772 
L 207.728099 181.482772 
L 207.728099 177.832871 
L 208.172089 177.832871 
L 208.256727 170.533069 
L 208.736515 170.533069 
L 208.73954 163.233267 
L 209.053343 163.233267 
L 209.053343 159.583366 
L 209.49184 159.583366 
L 209.600846 152.283564 
L 209.605345 152.283564 
L 209.667596 144.983762 
L 210.00511 144.983762 
L 210.00511 141.333861 
L 210.467453 141.333861 
L 210.513972 134.034059 
L 210.78897 134.034059 
L 210.822029 126.734257 
L 211.308389 126.734257 
L 211.390872 119.434455 
L 211.464828 119.434455 
L 211.464828 115.784554 
L 211.728454 115.784554 
L 211.728454 112.134653 
L 212.125621 112.134653 
L 212.125621 108.484752 
L 212.435929 108.484752 
L 212.435929 104.834851 
L 212.590872 104.834851 
L 212.659049 97.53505 
L 212.929579 97.53505 
L 212.929579 93.885149 
L 213.62659 93.885149 
L 213.62659 90.235248 
L 213.774527 90.235248 
L 213.774527 86.585347 
L 214.830971 86.585347 
L 214.830971 82.935446 
L 215.192121 82.935446 
L 215.192121 79.285545 
L 215.880573 79.285545 
L 215.880573 75.635644 
L 216.35975 75.635644 
L 216.35975 71.985743 
L 217.898292 71.985743 
L 217.898292 68.335842 
L 221.902171 68.335842 
L 221.902171 64.685941 
L 234.345313 64.685941 
L 234.345313 61.03604 
L 234.761434 61.03604 
L 234.761434 57.386139 
L 235.960763 57.386139 
L 235.960763 53.736238 
L 236.374007 53.736238 
L 236.374007 50.086337 
L 236.508079 50.086337 
L 236.508079 46.436436 
L 237.419905 46.436436 
L 237.419905 42.786535 
L 238.203795 42.786535 
L 238.284753 35.486733 
L 238.368472 35.486733 
L 238.368472 31.836832 
L 238.492533 31.836832 
L 238.492533 28.186931 
L 238.838779 28.186931 
L 238.838779 24.53703 
L 239.111259 24.53703 
L 239.111259 20.887129 
L 239.302864 20.887129 
L 239.346812 13.587327 
L 242.660395 13.587327 
L 242.660395 9.937426 
L 364.32 9.937426 
L 364.32 9.937426 
" style="fill:none;stroke:#bf00bf;stroke-linecap:square;"/>
   </g>
   <g id="line2d_4">
    <path clip-path="url(#p5d46bba446)" d="M 198.305224 283.68 
L 198.305224 280.030099 
L 198.823315 280.030099 
L 198.912725 269.080396 
L 199.032732 269.080396 
L 199.067976 258.130693 
L 200.153411 258.130693 
L 200.153411 254.480792 
L 200.718859 254.480792 
L 200.718859 250.830891 
L 200.878894 250.830891 
L 200.878894 247.18099 
L 201.011036 247.18099 
L 201.111384 239.881188 
L 201.259707 239.881188 
L 201.259707 236.231287 
L 202.106036 236.231287 
L 202.106036 232.581386 
L 202.244452 232.581386 
L 202.284917 225.281584 
L 202.417795 225.281584 
L 202.504923 217.981782 
L 203.460959 217.981782 
L 203.557348 210.68198 
L 203.587526 210.68198 
L 203.663256 196.082376 
L 204.148857 196.082376 
L 204.148857 192.432475 
L 204.268714 192.432475 
L 204.268714 188.782574 
L 204.439315 188.782574 
L 204.439315 185.132673 
L 205.457803 185.132673 
L 205.457803 181.482772 
L 206.253615 181.482772 
L 206.363224 170.533069 
L 208.034187 170.533069 
L 208.093354 163.233267 
L 208.172089 163.233267 
L 208.172089 159.583366 
L 208.353106 159.583366 
L 208.353106 155.933465 
L 208.736515 155.933465 
L 208.73954 148.633663 
L 209.00596 148.633663 
L 209.00596 144.983762 
L 209.42081 144.983762 
L 209.49184 137.68396 
L 209.605345 137.68396 
L 209.667596 130.384158 
L 210.42331 130.384158 
L 210.484747 123.084356 
L 210.78897 123.084356 
L 210.78897 119.434455 
L 210.923687 119.434455 
L 210.923687 115.784554 
L 211.153386 115.784554 
L 211.153386 112.134653 
L 211.495889 112.134653 
L 211.495889 108.484752 
L 211.662335 108.484752 
L 211.728454 101.18495 
L 211.859052 101.18495 
L 211.962845 93.885149 
L 211.993902 93.885149 
L 212.084726 86.585347 
L 212.659049 86.585347 
L 212.695055 79.285545 
L 213.373993 79.285545 
L 213.373993 75.635644 
L 214.356464 75.635644 
L 214.356464 71.985743 
L 216.35975 71.985743 
L 216.35975 68.335842 
L 218.18938 68.335842 
L 218.18938 64.685941 
L 234.345313 64.685941 
L 234.397559 57.386139 
L 234.745341 57.386139 
L 234.761434 50.086337 
L 235.248972 50.086337 
L 235.248972 46.436436 
L 235.490777 46.436436 
L 235.490777 42.786535 
L 235.960763 42.786535 
L 236.006813 31.836832 
L 236.100907 31.836832 
L 236.100907 28.186931 
L 236.525396 28.186931 
L 236.525396 24.53703 
L 237.882004 24.53703 
L 237.882004 20.887129 
L 238.200334 20.887129 
L 238.200334 17.237228 
L 238.492533 17.237228 
L 238.492533 13.587327 
L 239.111259 13.587327 
L 239.111259 9.937426 
L 364.32 9.937426 
L 364.32 9.937426 
" style="fill:none;stroke:#000000;stroke-linecap:square;"/>
   </g>
   <g id="line2d_5">
    <path clip-path="url(#p5d46bba446)" d="M 198.16085 283.68 
L 198.16085 280.030099 
L 198.305224 280.030099 
L 198.409119 272.730297 
L 198.510192 272.730297 
L 198.510192 269.080396 
L 198.77611 269.080396 
L 198.873329 261.780594 
L 199.018151 261.780594 
L 199.032732 254.480792 
L 199.242364 254.480792 
L 199.242364 250.830891 
L 199.515126 250.830891 
L 199.568871 243.531089 
L 199.666936 243.531089 
L 199.666936 239.881188 
L 199.858286 239.881188 
L 199.858286 236.231287 
L 200.636757 236.231287 
L 200.636757 232.581386 
L 200.878894 232.581386 
L 200.878894 228.931485 
L 201.011036 228.931485 
L 201.025785 221.631683 
L 201.658518 221.631683 
L 201.750446 210.68198 
L 201.859306 210.68198 
L 201.876109 203.382178 
L 202.244452 203.382178 
L 202.284917 196.082376 
L 202.420515 196.082376 
L 202.420515 192.432475 
L 202.876494 192.432475 
L 202.876494 188.782574 
L 203.185477 188.782574 
L 203.185477 185.132673 
L 203.444504 185.132673 
L 203.444504 181.482772 
L 203.592362 181.482772 
L 203.603593 174.18297 
L 204.439315 174.18297 
L 204.439315 170.533069 
L 205.164336 170.533069 
L 205.164336 166.883168 
L 205.73936 166.883168 
L 205.73936 163.233267 
L 206.230069 163.233267 
L 206.230069 159.583366 
L 206.671483 159.583366 
L 206.671483 155.933465 
L 207.498015 155.933465 
L 207.498015 152.283564 
L 207.670497 152.283564 
L 207.670497 148.633663 
L 207.803601 148.633663 
L 207.803601 144.983762 
L 207.916673 144.983762 
L 208.00905 137.68396 
L 208.030383 137.68396 
L 208.048562 130.384158 
L 208.170275 130.384158 
L 208.170275 126.734257 
L 208.325404 126.734257 
L 208.325404 123.084356 
L 208.450855 123.084356 
L 208.494143 115.784554 
L 208.589317 115.784554 
L 208.589317 112.134653 
L 208.767274 112.134653 
L 208.767274 108.484752 
L 210.018952 108.484752 
L 210.018952 104.834851 
L 210.1626 104.834851 
L 210.1626 101.18495 
L 210.889934 101.18495 
L 210.913143 93.885149 
L 211.153386 93.885149 
L 211.153386 90.235248 
L 211.728454 90.235248 
L 211.728454 86.585347 
L 211.962845 86.585347 
L 211.962845 82.935446 
L 212.659049 82.935446 
L 212.659049 79.285545 
L 213.156078 79.285545 
L 213.156078 75.635644 
L 213.373993 75.635644 
L 213.373993 71.985743 
L 214.84063 71.985743 
L 214.84063 68.335842 
L 216.570651 68.335842 
L 216.570651 64.685941 
L 232.574674 64.685941 
L 232.649586 57.386139 
L 233.136684 57.386139 
L 233.136684 53.736238 
L 233.254988 53.736238 
L 233.32427 46.436436 
L 233.459175 46.436436 
L 233.459175 42.786535 
L 234.345313 42.786535 
L 234.397559 35.486733 
L 234.495402 35.486733 
L 234.566649 28.186931 
L 235.040191 28.186931 
L 235.040191 24.53703 
L 235.258501 24.53703 
L 235.258501 20.887129 
L 235.965498 20.887129 
L 235.965498 17.237228 
L 237.374003 17.237228 
L 237.374003 13.587327 
L 238.147034 13.587327 
L 238.147034 9.937426 
L 364.32 9.937426 
L 364.32 9.937426 
" style="fill:none;stroke:#00bfbf;stroke-linecap:square;"/>
   </g>
   <g id="patch_3">
    <path d="M 7.2 7.2 
L 364.32 7.2 
" style="fill:none;stroke:#000000;stroke-linecap:square;stroke-linejoin:miter;"/>
   </g>
   <g id="patch_4">
    <path d="M 364.32 283.68 
L 364.32 7.2 
" style="fill:none;stroke:#000000;stroke-linecap:square;stroke-linejoin:miter;"/>
   </g>
   <g id="patch_5">
    <path d="M 7.2 283.68 
L 364.32 283.68 
" style="fill:none;stroke:#000000;stroke-linecap:square;stroke-linejoin:miter;"/>
   </g>
   <g id="patch_6">
    <path d="M 7.2 283.68 
L 7.2 7.2 
" style="fill:none;stroke:#000000;stroke-linecap:square;stroke-linejoin:miter;"/>
   </g>
   <g id="matplotlib.axis_1">
    <g id="xtick_1">
     <g id="line2d_6">
      <path clip-path="url(#p5d46bba446)" d="M 49.133998 283.68 
L 49.133998 7.2 
" style="fill:none;stroke:#000000;stroke-dasharray:1.000000,3.000000;stroke-dashoffset:0.0;stroke-width:0.5;"/>
     </g>
     <g id="line2d_7">
      <defs>
       <path d="M 0 0 
L 0 -4 
" id="m4148a304e2" style="stroke:#000000;stroke-width:0.5;"/>
      </defs>
      <g>
       <use style="stroke:#000000;stroke-width:0.5;" x="49.1339978514" xlink:href="#m4148a304e2" y="283.68"/>
      </g>
     </g>
     <g id="line2d_8">
      <defs>
       <path d="M 0 0 
L 0 4 
" id="m1e35584315" style="stroke:#000000;stroke-width:0.5;"/>
      </defs>
      <g>
       <use style="stroke:#000000;stroke-width:0.5;" x="49.1339978514" xlink:href="#m1e35584315" y="7.2"/>
      </g>
     </g>
     <g id="text_1">
      <!-- -6 -->
      <defs>
       <path d="M 33.015625 40.375 
Q 26.375 40.375 22.484375 35.828125 
Q 18.609375 31.296875 18.609375 23.390625 
Q 18.609375 15.53125 22.484375 10.953125 
Q 26.375 6.390625 33.015625 6.390625 
Q 39.65625 6.390625 43.53125 10.953125 
Q 47.40625 15.53125 47.40625 23.390625 
Q 47.40625 31.296875 43.53125 35.828125 
Q 39.65625 40.375 33.015625 40.375 
M 52.59375 71.296875 
L 52.59375 62.3125 
Q 48.875 64.0625 45.09375 64.984375 
Q 41.3125 65.921875 37.59375 65.921875 
Q 27.828125 65.921875 22.671875 59.328125 
Q 17.53125 52.734375 16.796875 39.40625 
Q 19.671875 43.65625 24.015625 45.921875 
Q 28.375 48.1875 33.59375 48.1875 
Q 44.578125 48.1875 50.953125 41.515625 
Q 57.328125 34.859375 57.328125 23.390625 
Q 57.328125 12.15625 50.6875 5.359375 
Q 44.046875 -1.421875 33.015625 -1.421875 
Q 20.359375 -1.421875 13.671875 8.265625 
Q 6.984375 17.96875 6.984375 36.375 
Q 6.984375 53.65625 15.1875 63.9375 
Q 23.390625 74.21875 37.203125 74.21875 
Q 40.921875 74.21875 44.703125 73.484375 
Q 48.484375 72.75 52.59375 71.296875 
" id="BitstreamVeraSans-Roman-36"/>
       <path d="M 4.890625 31.390625 
L 31.203125 31.390625 
L 31.203125 23.390625 
L 4.890625 23.390625 
z
" id="BitstreamVeraSans-Roman-2d"/>
      </defs>
      <g transform="translate(39.1636853514 302.876875)scale(0.2 -0.2)">
       <use xlink:href="#BitstreamVeraSans-Roman-2d"/>
       <use x="36.083984375" xlink:href="#BitstreamVeraSans-Roman-36"/>
      </g>
     </g>
    </g>
    <g id="xtick_2">
     <g id="line2d_9">
      <path clip-path="url(#p5d46bba446)" d="M 91.158798 283.68 
L 91.158798 7.2 
" style="fill:none;stroke:#000000;stroke-dasharray:1.000000,3.000000;stroke-dashoffset:0.0;stroke-width:0.5;"/>
     </g>
     <g id="line2d_10">
      <g>
       <use style="stroke:#000000;stroke-width:0.5;" x="91.1587981379" xlink:href="#m4148a304e2" y="283.68"/>
      </g>
     </g>
     <g id="line2d_11">
      <g>
       <use style="stroke:#000000;stroke-width:0.5;" x="91.1587981379" xlink:href="#m1e35584315" y="7.2"/>
      </g>
     </g>
     <g id="text_2">
      <!-- -4 -->
      <defs>
       <path d="M 37.796875 64.3125 
L 12.890625 25.390625 
L 37.796875 25.390625 
z
M 35.203125 72.90625 
L 47.609375 72.90625 
L 47.609375 25.390625 
L 58.015625 25.390625 
L 58.015625 17.1875 
L 47.609375 17.1875 
L 47.609375 0 
L 37.796875 0 
L 37.796875 17.1875 
L 4.890625 17.1875 
L 4.890625 26.703125 
z
" id="BitstreamVeraSans-Roman-34"/>
      </defs>
      <g transform="translate(81.1884856379 302.876875)scale(0.2 -0.2)">
       <use xlink:href="#BitstreamVeraSans-Roman-2d"/>
       <use x="36.083984375" xlink:href="#BitstreamVeraSans-Roman-34"/>
      </g>
     </g>
    </g>
    <g id="xtick_3">
     <g id="line2d_12">
      <path clip-path="url(#p5d46bba446)" d="M 133.183598 283.68 
L 133.183598 7.2 
" style="fill:none;stroke:#000000;stroke-dasharray:1.000000,3.000000;stroke-dashoffset:0.0;stroke-width:0.5;"/>
     </g>
     <g id="line2d_13">
      <g>
       <use style="stroke:#000000;stroke-width:0.5;" x="133.183598424" xlink:href="#m4148a304e2" y="283.68"/>
      </g>
     </g>
     <g id="line2d_14">
      <g>
       <use style="stroke:#000000;stroke-width:0.5;" x="133.183598424" xlink:href="#m1e35584315" y="7.2"/>
      </g>
     </g>
     <g id="text_3">
      <!-- -2 -->
      <defs>
       <path d="M 19.1875 8.296875 
L 53.609375 8.296875 
L 53.609375 0 
L 7.328125 0 
L 7.328125 8.296875 
Q 12.9375 14.109375 22.625 23.890625 
Q 32.328125 33.6875 34.8125 36.53125 
Q 39.546875 41.84375 41.421875 45.53125 
Q 43.3125 49.21875 43.3125 52.78125 
Q 43.3125 58.59375 39.234375 62.25 
Q 35.15625 65.921875 28.609375 65.921875 
Q 23.96875 65.921875 18.8125 64.3125 
Q 13.671875 62.703125 7.8125 59.421875 
L 7.8125 69.390625 
Q 13.765625 71.78125 18.9375 73 
Q 24.125 74.21875 28.421875 74.21875 
Q 39.75 74.21875 46.484375 68.546875 
Q 53.21875 62.890625 53.21875 53.421875 
Q 53.21875 48.921875 51.53125 44.890625 
Q 49.859375 40.875 45.40625 35.40625 
Q 44.1875 33.984375 37.640625 27.21875 
Q 31.109375 20.453125 19.1875 8.296875 
" id="BitstreamVeraSans-Roman-32"/>
      </defs>
      <g transform="translate(123.213285924 302.876875)scale(0.2 -0.2)">
       <use xlink:href="#BitstreamVeraSans-Roman-2d"/>
       <use x="36.083984375" xlink:href="#BitstreamVeraSans-Roman-32"/>
      </g>
     </g>
    </g>
    <g id="xtick_4">
     <g id="line2d_15">
      <path clip-path="url(#p5d46bba446)" d="M 175.208399 283.68 
L 175.208399 7.2 
" style="fill:none;stroke:#000000;stroke-dasharray:1.000000,3.000000;stroke-dashoffset:0.0;stroke-width:0.5;"/>
     </g>
     <g id="line2d_16">
      <g>
       <use style="stroke:#000000;stroke-width:0.5;" x="175.208398711" xlink:href="#m4148a304e2" y="283.68"/>
      </g>
     </g>
     <g id="line2d_17">
      <g>
       <use style="stroke:#000000;stroke-width:0.5;" x="175.208398711" xlink:href="#m1e35584315" y="7.2"/>
      </g>
     </g>
     <g id="text_4">
      <!-- 0 -->
      <defs>
       <path d="M 31.78125 66.40625 
Q 24.171875 66.40625 20.328125 58.90625 
Q 16.5 51.421875 16.5 36.375 
Q 16.5 21.390625 20.328125 13.890625 
Q 24.171875 6.390625 31.78125 6.390625 
Q 39.453125 6.390625 43.28125 13.890625 
Q 47.125 21.390625 47.125 36.375 
Q 47.125 51.421875 43.28125 58.90625 
Q 39.453125 66.40625 31.78125 66.40625 
M 31.78125 74.21875 
Q 44.046875 74.21875 50.515625 64.515625 
Q 56.984375 54.828125 56.984375 36.375 
Q 56.984375 17.96875 50.515625 8.265625 
Q 44.046875 -1.421875 31.78125 -1.421875 
Q 19.53125 -1.421875 13.0625 8.265625 
Q 6.59375 17.96875 6.59375 36.375 
Q 6.59375 54.828125 13.0625 64.515625 
Q 19.53125 74.21875 31.78125 74.21875 
" id="BitstreamVeraSans-Roman-30"/>
      </defs>
      <g transform="translate(168.845898711 302.876875)scale(0.2 -0.2)">
       <use xlink:href="#BitstreamVeraSans-Roman-30"/>
      </g>
     </g>
    </g>
    <g id="xtick_5">
     <g id="line2d_18">
      <path clip-path="url(#p5d46bba446)" d="M 217.233199 283.68 
L 217.233199 7.2 
" style="fill:none;stroke:#000000;stroke-dasharray:1.000000,3.000000;stroke-dashoffset:0.0;stroke-width:0.5;"/>
     </g>
     <g id="line2d_19">
      <g>
       <use style="stroke:#000000;stroke-width:0.5;" x="217.233198997" xlink:href="#m4148a304e2" y="283.68"/>
      </g>
     </g>
     <g id="line2d_20">
      <g>
       <use style="stroke:#000000;stroke-width:0.5;" x="217.233198997" xlink:href="#m1e35584315" y="7.2"/>
      </g>
     </g>
     <g id="text_5">
      <!-- 2 -->
      <g transform="translate(210.870698997 302.876875)scale(0.2 -0.2)">
       <use xlink:href="#BitstreamVeraSans-Roman-32"/>
      </g>
     </g>
    </g>
    <g id="xtick_6">
     <g id="line2d_21">
      <path clip-path="url(#p5d46bba446)" d="M 259.257999 283.68 
L 259.257999 7.2 
" style="fill:none;stroke:#000000;stroke-dasharray:1.000000,3.000000;stroke-dashoffset:0.0;stroke-width:0.5;"/>
     </g>
     <g id="line2d_22">
      <g>
       <use style="stroke:#000000;stroke-width:0.5;" x="259.257999284" xlink:href="#m4148a304e2" y="283.68"/>
      </g>
     </g>
     <g id="line2d_23">
      <g>
       <use style="stroke:#000000;stroke-width:0.5;" x="259.257999284" xlink:href="#m1e35584315" y="7.2"/>
      </g>
     </g>
     <g id="text_6">
      <!-- 4 -->
      <g transform="translate(252.895499284 302.876875)scale(0.2 -0.2)">
       <use xlink:href="#BitstreamVeraSans-Roman-34"/>
      </g>
     </g>
    </g>
    <g id="xtick_7">
     <g id="line2d_24">
      <path clip-path="url(#p5d46bba446)" d="M 301.2828 283.68 
L 301.2828 7.2 
" style="fill:none;stroke:#000000;stroke-dasharray:1.000000,3.000000;stroke-dashoffset:0.0;stroke-width:0.5;"/>
     </g>
     <g id="line2d_25">
      <g>
       <use style="stroke:#000000;stroke-width:0.5;" x="301.28279957" xlink:href="#m4148a304e2" y="283.68"/>
      </g>
     </g>
     <g id="line2d_26">
      <g>
       <use style="stroke:#000000;stroke-width:0.5;" x="301.28279957" xlink:href="#m1e35584315" y="7.2"/>
      </g>
     </g>
     <g id="text_7">
      <!-- 6 -->
      <g transform="translate(294.92029957 302.876875)scale(0.2 -0.2)">
       <use xlink:href="#BitstreamVeraSans-Roman-36"/>
      </g>
     </g>
    </g>
    <g id="xtick_8">
     <g id="line2d_27">
      <path clip-path="url(#p5d46bba446)" d="M 343.3076 283.68 
L 343.3076 7.2 
" style="fill:none;stroke:#000000;stroke-dasharray:1.000000,3.000000;stroke-dashoffset:0.0;stroke-width:0.5;"/>
     </g>
     <g id="line2d_28">
      <g>
       <use style="stroke:#000000;stroke-width:0.5;" x="343.307599857" xlink:href="#m4148a304e2" y="283.68"/>
      </g>
     </g>
     <g id="line2d_29">
      <g>
       <use style="stroke:#000000;stroke-width:0.5;" x="343.307599857" xlink:href="#m1e35584315" y="7.2"/>
      </g>
     </g>
     <g id="text_8">
      <!-- 8 -->
      <defs>
       <path d="M 31.78125 34.625 
Q 24.75 34.625 20.71875 30.859375 
Q 16.703125 27.09375 16.703125 20.515625 
Q 16.703125 13.921875 20.71875 10.15625 
Q 24.75 6.390625 31.78125 6.390625 
Q 38.8125 6.390625 42.859375 10.171875 
Q 46.921875 13.96875 46.921875 20.515625 
Q 46.921875 27.09375 42.890625 30.859375 
Q 38.875 34.625 31.78125 34.625 
M 21.921875 38.8125 
Q 15.578125 40.375 12.03125 44.71875 
Q 8.5 49.078125 8.5 55.328125 
Q 8.5 64.0625 14.71875 69.140625 
Q 20.953125 74.21875 31.78125 74.21875 
Q 42.671875 74.21875 48.875 69.140625 
Q 55.078125 64.0625 55.078125 55.328125 
Q 55.078125 49.078125 51.53125 44.71875 
Q 48 40.375 41.703125 38.8125 
Q 48.828125 37.15625 52.796875 32.3125 
Q 56.78125 27.484375 56.78125 20.515625 
Q 56.78125 9.90625 50.3125 4.234375 
Q 43.84375 -1.421875 31.78125 -1.421875 
Q 19.734375 -1.421875 13.25 4.234375 
Q 6.78125 9.90625 6.78125 20.515625 
Q 6.78125 27.484375 10.78125 32.3125 
Q 14.796875 37.15625 21.921875 38.8125 
M 18.3125 54.390625 
Q 18.3125 48.734375 21.84375 45.5625 
Q 25.390625 42.390625 31.78125 42.390625 
Q 38.140625 42.390625 41.71875 45.5625 
Q 45.3125 48.734375 45.3125 54.390625 
Q 45.3125 60.0625 41.71875 63.234375 
Q 38.140625 66.40625 31.78125 66.40625 
Q 25.390625 66.40625 21.84375 63.234375 
Q 18.3125 60.0625 18.3125 54.390625 
" id="BitstreamVeraSans-Roman-38"/>
      </defs>
      <g transform="translate(336.945099857 302.876875)scale(0.2 -0.2)">
       <use xlink:href="#BitstreamVeraSans-Roman-38"/>
      </g>
     </g>
    </g>
    <g id="xtick_9">
     <g id="line2d_30">
      <defs>
       <path d="M 0 0 
L 0 -2 
" id="md34df71151" style="stroke:#000000;stroke-width:0.5;"/>
      </defs>
      <g>
       <use style="stroke:#000000;stroke-width:0.5;" x="49.1339978514" xlink:href="#md34df71151" y="283.68"/>
      </g>
     </g>
     <g id="line2d_31">
      <defs>
       <path d="M 0 0 
L 0 2 
" id="mbdb962aac5" style="stroke:#000000;stroke-width:0.5;"/>
      </defs>
      <g>
       <use style="stroke:#000000;stroke-width:0.5;" x="49.1339978514" xlink:href="#mbdb962aac5" y="7.2"/>
      </g>
     </g>
    </g>
    <g id="xtick_10">
     <g id="line2d_32">
      <g>
       <use style="stroke:#000000;stroke-width:0.5;" x="91.1587981379" xlink:href="#md34df71151" y="283.68"/>
      </g>
     </g>
     <g id="line2d_33">
      <g>
       <use style="stroke:#000000;stroke-width:0.5;" x="91.1587981379" xlink:href="#mbdb962aac5" y="7.2"/>
      </g>
     </g>
    </g>
    <g id="xtick_11">
     <g id="line2d_34">
      <g>
       <use style="stroke:#000000;stroke-width:0.5;" x="133.183598424" xlink:href="#md34df71151" y="283.68"/>
      </g>
     </g>
     <g id="line2d_35">
      <g>
       <use style="stroke:#000000;stroke-width:0.5;" x="133.183598424" xlink:href="#mbdb962aac5" y="7.2"/>
      </g>
     </g>
    </g>
    <g id="xtick_12">
     <g id="line2d_36">
      <g>
       <use style="stroke:#000000;stroke-width:0.5;" x="175.208398711" xlink:href="#md34df71151" y="283.68"/>
      </g>
     </g>
     <g id="line2d_37">
      <g>
       <use style="stroke:#000000;stroke-width:0.5;" x="175.208398711" xlink:href="#mbdb962aac5" y="7.2"/>
      </g>
     </g>
    </g>
    <g id="xtick_13">
     <g id="line2d_38">
      <g>
       <use style="stroke:#000000;stroke-width:0.5;" x="217.233198997" xlink:href="#md34df71151" y="283.68"/>
      </g>
     </g>
     <g id="line2d_39">
      <g>
       <use style="stroke:#000000;stroke-width:0.5;" x="217.233198997" xlink:href="#mbdb962aac5" y="7.2"/>
      </g>
     </g>
    </g>
    <g id="xtick_14">
     <g id="line2d_40">
      <g>
       <use style="stroke:#000000;stroke-width:0.5;" x="259.257999284" xlink:href="#md34df71151" y="283.68"/>
      </g>
     </g>
     <g id="line2d_41">
      <g>
       <use style="stroke:#000000;stroke-width:0.5;" x="259.257999284" xlink:href="#mbdb962aac5" y="7.2"/>
      </g>
     </g>
    </g>
    <g id="xtick_15">
     <g id="line2d_42">
      <g>
       <use style="stroke:#000000;stroke-width:0.5;" x="301.28279957" xlink:href="#md34df71151" y="283.68"/>
      </g>
     </g>
     <g id="line2d_43">
      <g>
       <use style="stroke:#000000;stroke-width:0.5;" x="301.28279957" xlink:href="#mbdb962aac5" y="7.2"/>
      </g>
     </g>
    </g>
    <g id="xtick_16">
     <g id="line2d_44">
      <g>
       <use style="stroke:#000000;stroke-width:0.5;" x="343.307599857" xlink:href="#md34df71151" y="283.68"/>
      </g>
     </g>
     <g id="line2d_45">
      <g>
       <use style="stroke:#000000;stroke-width:0.5;" x="343.307599857" xlink:href="#mbdb962aac5" y="7.2"/>
      </g>
     </g>
    </g>
    <g id="text_9">
     <!-- log10 of Df -->
     <defs>
      <path id="BitstreamVeraSans-Roman-20"/>
      <path d="M 12.40625 8.296875 
L 28.515625 8.296875 
L 28.515625 63.921875 
L 10.984375 60.40625 
L 10.984375 69.390625 
L 28.421875 72.90625 
L 38.28125 72.90625 
L 38.28125 8.296875 
L 54.390625 8.296875 
L 54.390625 0 
L 12.40625 0 
z
" id="BitstreamVeraSans-Roman-31"/>
      <path d="M 30.609375 48.390625 
Q 23.390625 48.390625 19.1875 42.75 
Q 14.984375 37.109375 14.984375 27.296875 
Q 14.984375 17.484375 19.15625 11.84375 
Q 23.34375 6.203125 30.609375 6.203125 
Q 37.796875 6.203125 41.984375 11.859375 
Q 46.1875 17.53125 46.1875 27.296875 
Q 46.1875 37.015625 41.984375 42.703125 
Q 37.796875 48.390625 30.609375 48.390625 
M 30.609375 56 
Q 42.328125 56 49.015625 48.375 
Q 55.71875 40.765625 55.71875 27.296875 
Q 55.71875 13.875 49.015625 6.21875 
Q 42.328125 -1.421875 30.609375 -1.421875 
Q 18.84375 -1.421875 12.171875 6.21875 
Q 5.515625 13.875 5.515625 27.296875 
Q 5.515625 40.765625 12.171875 48.375 
Q 18.84375 56 30.609375 56 
" id="BitstreamVeraSans-Roman-6f"/>
      <path d="M 9.421875 75.984375 
L 18.40625 75.984375 
L 18.40625 0 
L 9.421875 0 
z
" id="BitstreamVeraSans-Roman-6c"/>
      <path d="M 19.671875 64.796875 
L 19.671875 8.109375 
L 31.59375 8.109375 
Q 46.6875 8.109375 53.6875 14.9375 
Q 60.6875 21.78125 60.6875 36.53125 
Q 60.6875 51.171875 53.6875 57.984375 
Q 46.6875 64.796875 31.59375 64.796875 
z
M 9.8125 72.90625 
L 30.078125 72.90625 
Q 51.265625 72.90625 61.171875 64.09375 
Q 71.09375 55.28125 71.09375 36.53125 
Q 71.09375 17.671875 61.125 8.828125 
Q 51.171875 0 30.078125 0 
L 9.8125 0 
z
" id="BitstreamVeraSans-Roman-44"/>
      <path d="M 45.40625 27.984375 
Q 45.40625 37.75 41.375 43.109375 
Q 37.359375 48.484375 30.078125 48.484375 
Q 22.859375 48.484375 18.828125 43.109375 
Q 14.796875 37.75 14.796875 27.984375 
Q 14.796875 18.265625 18.828125 12.890625 
Q 22.859375 7.515625 30.078125 7.515625 
Q 37.359375 7.515625 41.375 12.890625 
Q 45.40625 18.265625 45.40625 27.984375 
M 54.390625 6.78125 
Q 54.390625 -7.171875 48.1875 -13.984375 
Q 42 -20.796875 29.203125 -20.796875 
Q 24.46875 -20.796875 20.265625 -20.09375 
Q 16.0625 -19.390625 12.109375 -17.921875 
L 12.109375 -9.1875 
Q 16.0625 -11.328125 19.921875 -12.34375 
Q 23.78125 -13.375 27.78125 -13.375 
Q 36.625 -13.375 41.015625 -8.765625 
Q 45.40625 -4.15625 45.40625 5.171875 
L 45.40625 9.625 
Q 42.625 4.78125 38.28125 2.390625 
Q 33.9375 0 27.875 0 
Q 17.828125 0 11.671875 7.65625 
Q 5.515625 15.328125 5.515625 27.984375 
Q 5.515625 40.671875 11.671875 48.328125 
Q 17.828125 56 27.875 56 
Q 33.9375 56 38.28125 53.609375 
Q 42.625 51.21875 45.40625 46.390625 
L 45.40625 54.6875 
L 54.390625 54.6875 
z
" id="BitstreamVeraSans-Roman-67"/>
      <path d="M 37.109375 75.984375 
L 37.109375 68.5 
L 28.515625 68.5 
Q 23.6875 68.5 21.796875 66.546875 
Q 19.921875 64.59375 19.921875 59.515625 
L 19.921875 54.6875 
L 34.71875 54.6875 
L 34.71875 47.703125 
L 19.921875 47.703125 
L 19.921875 0 
L 10.890625 0 
L 10.890625 47.703125 
L 2.296875 47.703125 
L 2.296875 54.6875 
L 10.890625 54.6875 
L 10.890625 58.5 
Q 10.890625 67.625 15.140625 71.796875 
Q 19.390625 75.984375 28.609375 75.984375 
z
" id="BitstreamVeraSans-Roman-66"/>
     </defs>
     <g transform="translate(130.5740625 327.233125)scale(0.2 -0.2)">
      <use xlink:href="#BitstreamVeraSans-Roman-6c"/>
      <use x="27.783203125" xlink:href="#BitstreamVeraSans-Roman-6f"/>
      <use x="88.96484375" xlink:href="#BitstreamVeraSans-Roman-67"/>
      <use x="152.44140625" xlink:href="#BitstreamVeraSans-Roman-31"/>
      <use x="216.064453125" xlink:href="#BitstreamVeraSans-Roman-30"/>
      <use x="279.6875" xlink:href="#BitstreamVeraSans-Roman-20"/>
      <use x="311.474609375" xlink:href="#BitstreamVeraSans-Roman-6f"/>
      <use x="372.65625" xlink:href="#BitstreamVeraSans-Roman-66"/>
      <use x="407.861328125" xlink:href="#BitstreamVeraSans-Roman-20"/>
      <use x="439.6484375" xlink:href="#BitstreamVeraSans-Roman-44"/>
      <use x="516.650390625" xlink:href="#BitstreamVeraSans-Roman-66"/>
     </g>
    </g>
   </g>
   <g id="matplotlib.axis_2">
    <g id="ytick_1">
     <g id="line2d_46">
      <path clip-path="url(#p5d46bba446)" d="M 7.2 283.68 
L 364.32 283.68 
" style="fill:none;stroke:#000000;stroke-dasharray:1.000000,3.000000;stroke-dashoffset:0.0;stroke-width:0.5;"/>
     </g>
     <g id="line2d_47">
      <defs>
       <path d="M 0 0 
L 4 0 
" id="m6154656b67" style="stroke:#000000;stroke-width:0.5;"/>
      </defs>
      <g>
       <use style="stroke:#000000;stroke-width:0.5;" x="7.2" xlink:href="#m6154656b67" y="283.68"/>
      </g>
     </g>
     <g id="line2d_48">
      <defs>
       <path d="M 0 0 
L -4 0 
" id="m8627b61ee8" style="stroke:#000000;stroke-width:0.5;"/>
      </defs>
      <g>
       <use style="stroke:#000000;stroke-width:0.5;" x="364.32" xlink:href="#m8627b61ee8" y="283.68"/>
      </g>
     </g>
    </g>
    <g id="ytick_2">
     <g id="line2d_49">
      <path clip-path="url(#p5d46bba446)" d="M 7.2 228.931485 
L 364.32 228.931485 
" style="fill:none;stroke:#000000;stroke-dasharray:1.000000,3.000000;stroke-dashoffset:0.0;stroke-width:0.5;"/>
     </g>
     <g id="line2d_50">
      <g>
       <use style="stroke:#000000;stroke-width:0.5;" x="7.2" xlink:href="#m6154656b67" y="228.931485149"/>
      </g>
     </g>
     <g id="line2d_51">
      <g>
       <use style="stroke:#000000;stroke-width:0.5;" x="364.32" xlink:href="#m8627b61ee8" y="228.931485149"/>
      </g>
     </g>
    </g>
    <g id="ytick_3">
     <g id="line2d_52">
      <path clip-path="url(#p5d46bba446)" d="M 7.2 174.18297 
L 364.32 174.18297 
" style="fill:none;stroke:#000000;stroke-dasharray:1.000000,3.000000;stroke-dashoffset:0.0;stroke-width:0.5;"/>
     </g>
     <g id="line2d_53">
      <g>
       <use style="stroke:#000000;stroke-width:0.5;" x="7.2" xlink:href="#m6154656b67" y="174.182970297"/>
      </g>
     </g>
     <g id="line2d_54">
      <g>
       <use style="stroke:#000000;stroke-width:0.5;" x="364.32" xlink:href="#m8627b61ee8" y="174.182970297"/>
      </g>
     </g>
    </g>
    <g id="ytick_4">
     <g id="line2d_55">
      <path clip-path="url(#p5d46bba446)" d="M 7.2 119.434455 
L 364.32 119.434455 
" style="fill:none;stroke:#000000;stroke-dasharray:1.000000,3.000000;stroke-dashoffset:0.0;stroke-width:0.5;"/>
     </g>
     <g id="line2d_56">
      <g>
       <use style="stroke:#000000;stroke-width:0.5;" x="7.2" xlink:href="#m6154656b67" y="119.434455446"/>
      </g>
     </g>
     <g id="line2d_57">
      <g>
       <use style="stroke:#000000;stroke-width:0.5;" x="364.32" xlink:href="#m8627b61ee8" y="119.434455446"/>
      </g>
     </g>
    </g>
    <g id="ytick_5">
     <g id="line2d_58">
      <path clip-path="url(#p5d46bba446)" d="M 7.2 64.685941 
L 364.32 64.685941 
" style="fill:none;stroke:#000000;stroke-dasharray:1.000000,3.000000;stroke-dashoffset:0.0;stroke-width:0.5;"/>
     </g>
     <g id="line2d_59">
      <g>
       <use style="stroke:#000000;stroke-width:0.5;" x="7.2" xlink:href="#m6154656b67" y="64.6859405941"/>
      </g>
     </g>
     <g id="line2d_60">
      <g>
       <use style="stroke:#000000;stroke-width:0.5;" x="364.32" xlink:href="#m8627b61ee8" y="64.6859405941"/>
      </g>
     </g>
    </g>
    <g id="ytick_6">
     <g id="line2d_61">
      <path clip-path="url(#p5d46bba446)" d="M 7.2 9.937426 
L 364.32 9.937426 
" style="fill:none;stroke:#000000;stroke-dasharray:1.000000,3.000000;stroke-dashoffset:0.0;stroke-width:0.5;"/>
     </g>
     <g id="line2d_62">
      <g>
       <use style="stroke:#000000;stroke-width:0.5;" x="7.2" xlink:href="#m6154656b67" y="9.93742574257"/>
      </g>
     </g>
     <g id="line2d_63">
      <g>
       <use style="stroke:#000000;stroke-width:0.5;" x="364.32" xlink:href="#m8627b61ee8" y="9.93742574257"/>
      </g>
     </g>
    </g>
   </g>
   <g id="text_10">
    <!-- f15-19,20-D -->
    <defs>
     <path d="M 11.71875 12.40625 
L 22.015625 12.40625 
L 22.015625 4 
L 14.015625 -11.625 
L 7.71875 -11.625 
L 11.71875 4 
z
" id="BitstreamVeraSans-Roman-2c"/>
     <path d="M 10.984375 1.515625 
L 10.984375 10.5 
Q 14.703125 8.734375 18.5 7.8125 
Q 22.3125 6.890625 25.984375 6.890625 
Q 35.75 6.890625 40.890625 13.453125 
Q 46.046875 20.015625 46.78125 33.40625 
Q 43.953125 29.203125 39.59375 26.953125 
Q 35.25 24.703125 29.984375 24.703125 
Q 19.046875 24.703125 12.671875 31.3125 
Q 6.296875 37.9375 6.296875 49.421875 
Q 6.296875 60.640625 12.9375 67.421875 
Q 19.578125 74.21875 30.609375 74.21875 
Q 43.265625 74.21875 49.921875 64.515625 
Q 56.59375 54.828125 56.59375 36.375 
Q 56.59375 19.140625 48.40625 8.859375 
Q 40.234375 -1.421875 26.421875 -1.421875 
Q 22.703125 -1.421875 18.890625 -0.6875 
Q 15.09375 0.046875 10.984375 1.515625 
M 30.609375 32.421875 
Q 37.25 32.421875 41.125 36.953125 
Q 45.015625 41.5 45.015625 49.421875 
Q 45.015625 57.28125 41.125 61.84375 
Q 37.25 66.40625 30.609375 66.40625 
Q 23.96875 66.40625 20.09375 61.84375 
Q 16.21875 57.28125 16.21875 49.421875 
Q 16.21875 41.5 20.09375 36.953125 
Q 23.96875 32.421875 30.609375 32.421875 
" id="BitstreamVeraSans-Roman-39"/>
     <path d="M 10.796875 72.90625 
L 49.515625 72.90625 
L 49.515625 64.59375 
L 19.828125 64.59375 
L 19.828125 46.734375 
Q 21.96875 47.46875 24.109375 47.828125 
Q 26.265625 48.1875 28.421875 48.1875 
Q 40.625 48.1875 47.75 41.5 
Q 54.890625 34.8125 54.890625 23.390625 
Q 54.890625 11.625 47.5625 5.09375 
Q 40.234375 -1.421875 26.90625 -1.421875 
Q 22.3125 -1.421875 17.546875 -0.640625 
Q 12.796875 0.140625 7.71875 1.703125 
L 7.71875 11.625 
Q 12.109375 9.234375 16.796875 8.0625 
Q 21.484375 6.890625 26.703125 6.890625 
Q 35.15625 6.890625 40.078125 11.328125 
Q 45.015625 15.765625 45.015625 23.390625 
Q 45.015625 31 40.078125 35.4375 
Q 35.15625 39.890625 26.703125 39.890625 
Q 22.75 39.890625 18.8125 39.015625 
Q 14.890625 38.140625 10.796875 36.28125 
z
" id="BitstreamVeraSans-Roman-35"/>
    </defs>
    <g transform="translate(237.599475 278.1504)scale(0.2 -0.2)">
     <use xlink:href="#BitstreamVeraSans-Roman-66"/>
     <use x="35.205078125" xlink:href="#BitstreamVeraSans-Roman-31"/>
     <use x="98.828125" xlink:href="#BitstreamVeraSans-Roman-35"/>
     <use x="162.451171875" xlink:href="#BitstreamVeraSans-Roman-2d"/>
     <use x="198.53515625" xlink:href="#BitstreamVeraSans-Roman-31"/>
     <use x="262.158203125" xlink:href="#BitstreamVeraSans-Roman-39"/>
     <use x="325.78125" xlink:href="#BitstreamVeraSans-Roman-2c"/>
     <use x="357.568359375" xlink:href="#BitstreamVeraSans-Roman-32"/>
     <use x="421.19140625" xlink:href="#BitstreamVeraSans-Roman-30"/>
     <use x="484.814453125" xlink:href="#BitstreamVeraSans-Roman-2d"/>
     <use x="520.8984375" xlink:href="#BitstreamVeraSans-Roman-44"/>
    </g>
   </g>
  </g>
 </g>
 <defs>
  <clipPath id="p5d46bba446">
   <rect height="276.48" width="357.12" x="7.2" y="7.2"/>
  </clipPath>
 </defs>
</svg>
