<?xml version="1.0" encoding="utf-8" standalone="no"?>
<!DOCTYPE svg PUBLIC "-//W3C//DTD SVG 1.1//EN"
  "http://www.w3.org/Graphics/SVG/1.1/DTD/svg11.dtd">
<!-- Created with matplotlib (http://matplotlib.org/) -->
<svg height="338pt" version="1.1" viewBox="0 0 371 338" width="371pt" xmlns="http://www.w3.org/2000/svg" xmlns:xlink="http://www.w3.org/1999/xlink">
 <defs>
  <style type="text/css">
*{stroke-linecap:butt;stroke-linejoin:round;stroke-miterlimit:100000;}
  </style>
 </defs>
 <g id="figure_1">
  <g id="patch_1">
   <path d="M 0 338.5925 
L 371.52 338.5925 
L 371.52 0 
L 0 0 
z
" style="fill:#ffffff;"/>
  </g>
  <g id="axes_1">
   <g id="patch_2">
    <path d="M 7.2 283.68 
L 364.32 283.68 
L 364.32 7.2 
L 7.2 7.2 
z
" style="fill:#ffffff;"/>
   </g>
   <g id="line2d_1">
    <path clip-path="url(#p27120ab758)" d="M 201.698201 283.68 
L 201.698201 280.030099 
L 202.643975 280.030099 
L 202.643975 276.380198 
L 203.019782 276.380198 
L 203.019782 272.730297 
L 204.212577 272.730297 
L 204.212577 269.080396 
L 204.858873 269.080396 
L 204.858873 265.430495 
L 205.255591 265.430495 
L 205.255591 261.780594 
L 205.37044 261.780594 
L 205.37044 258.130693 
L 205.773273 258.130693 
L 205.773273 254.480792 
L 206.094728 254.480792 
L 206.094728 250.830891 
L 206.239131 250.830891 
L 206.239131 247.18099 
L 206.599555 247.18099 
L 206.599555 243.531089 
L 207.192355 243.531089 
L 207.293564 236.231287 
L 207.53829 236.231287 
L 207.53829 232.581386 
L 207.808807 232.581386 
L 207.808807 228.931485 
L 219.455612 228.931485 
L 219.455612 225.281584 
L 222.622134 225.281584 
L 222.622134 221.631683 
L 223.30296 221.631683 
L 223.30296 217.981782 
L 224.268044 217.981782 
L 224.268044 214.331881 
L 225.138668 214.331881 
L 225.138668 210.68198 
L 226.125965 210.68198 
L 226.125965 207.032079 
L 226.242779 207.032079 
L 226.321985 199.732277 
L 226.551072 199.732277 
L 226.609956 192.432475 
L 226.982855 192.432475 
L 226.982855 188.782574 
L 228.048833 188.782574 
L 228.048833 185.132673 
L 228.243551 185.132673 
L 228.243551 181.482772 
L 228.632214 181.482772 
L 228.632214 177.832871 
L 233.230573 177.832871 
L 233.230573 174.18297 
L 241.854555 174.18297 
L 241.854555 170.533069 
L 242.298449 170.533069 
L 242.363771 163.233267 
L 242.423431 163.233267 
L 242.423431 159.583366 
L 242.894154 159.583366 
L 242.894154 155.933465 
L 243.124284 155.933465 
L 243.187705 148.633663 
L 243.381975 148.633663 
L 243.381975 144.983762 
L 243.542223 144.983762 
L 243.625131 137.68396 
L 243.668566 137.68396 
L 243.767839 130.384158 
L 243.808232 130.384158 
L 243.808232 126.734257 
L 244.106662 126.734257 
L 244.106662 123.084356 
L 244.569608 123.084356 
L 244.569608 119.434455 
L 297.115699 119.434455 
L 297.115699 115.784554 
L 298.08455 115.784554 
L 298.08455 112.134653 
L 298.490444 112.134653 
L 298.490444 108.484752 
L 298.774589 108.484752 
L 298.774589 104.834851 
L 298.981809 104.834851 
L 298.981809 101.18495 
L 299.650476 101.18495 
L 299.650476 97.53505 
L 301.183184 97.53505 
L 301.183184 93.885149 
L 303.061825 93.885149 
L 303.061825 90.235248 
L 303.325126 90.235248 
L 303.325126 86.585347 
L 304.093295 86.585347 
L 304.093295 82.935446 
L 304.227763 82.935446 
L 304.227763 79.285545 
L 304.607393 79.285545 
L 304.693198 71.985743 
L 306.403719 71.985743 
L 306.403719 68.335842 
L 306.851935 68.335842 
L 306.851935 64.685941 
L 338.082185 64.685941 
L 338.082185 61.03604 
L 339.175932 61.03604 
L 339.175932 57.386139 
L 342.735502 57.386139 
L 342.735502 53.736238 
L 343.368909 53.736238 
L 343.368909 50.086337 
L 343.502877 50.086337 
L 343.502877 46.436436 
L 344.399997 46.436436 
L 344.503244 39.136634 
L 344.571535 39.136634 
L 344.571535 35.486733 
L 345.516972 35.486733 
L 345.516972 31.836832 
L 346.145463 31.836832 
L 346.145463 28.186931 
L 346.285488 28.186931 
L 346.285488 24.53703 
L 346.402966 24.53703 
L 346.402966 20.887129 
L 346.777686 20.887129 
L 346.777686 17.237228 
L 347.3434 17.237228 
L 347.3434 13.587327 
L 349.889438 13.587327 
L 349.889438 9.937426 
L 364.32 9.937426 
L 364.32 9.937426 
" style="fill:none;stroke:#ff0000;stroke-linecap:square;stroke-width:3.0;"/>
   </g>
   <g id="line2d_2">
    <path clip-path="url(#p27120ab758)" d="M 207.736838 283.68 
L 207.736838 280.030099 
L 210.841009 280.030099 
L 210.841009 276.380198 
L 211.173755 276.380198 
L 211.173755 272.730297 
L 211.986947 272.730297 
L 211.986947 269.080396 
L 212.227614 269.080396 
L 212.320142 261.780594 
L 213.382789 261.780594 
L 213.382789 258.130693 
L 213.574063 258.130693 
L 213.574063 254.480792 
L 213.860906 254.480792 
L 213.860906 250.830891 
L 214.25976 250.830891 
L 214.25976 247.18099 
L 214.54748 247.18099 
L 214.54748 243.531089 
L 215.778263 243.531089 
L 215.778263 239.881188 
L 216.629025 239.881188 
L 216.629025 236.231287 
L 216.760019 236.231287 
L 216.760019 232.581386 
L 217.153647 232.581386 
L 217.153647 228.931485 
L 244.739664 228.931485 
L 244.739664 225.281584 
L 245.4699 225.281584 
L 245.4699 221.631683 
L 246.002933 221.631683 
L 246.002933 217.981782 
L 246.133356 217.981782 
L 246.159578 210.68198 
L 246.25875 210.68198 
L 246.25875 207.032079 
L 246.512171 207.032079 
L 246.512171 203.382178 
L 246.631448 203.382178 
L 246.631448 199.732277 
L 247.094673 199.732277 
L 247.163964 192.432475 
L 247.278083 192.432475 
L 247.278083 188.782574 
L 247.671749 188.782574 
L 247.738197 181.482772 
L 247.998758 181.482772 
L 247.998758 177.832871 
L 248.415599 177.832871 
L 248.415599 174.18297 
L 257.62429 174.18297 
L 257.62429 170.533069 
L 258.597413 170.533069 
L 258.597413 166.883168 
L 271.98351 166.883168 
L 271.98351 163.233267 
L 276.113656 163.233267 
L 276.113656 159.583366 
L 276.912133 159.583366 
L 276.912133 155.933465 
L 281.910537 155.933465 
L 281.910537 152.283564 
L 282.218738 152.283564 
L 282.218738 148.633663 
L 283.287352 148.633663 
L 283.287352 144.983762 
L 286.813022 144.983762 
L 286.813022 141.333861 
L 289.728472 141.333861 
L 289.728472 137.68396 
L 292.361904 137.68396 
L 292.361904 134.034059 
L 295.172364 134.034059 
L 295.172364 130.384158 
L 307.549658 130.384158 
L 307.549658 126.734257 
L 307.664841 126.734257 
L 307.664841 123.084356 
L 312.309157 123.084356 
L 312.309157 119.434455 
L 312.567072 119.434455 
L 312.567072 115.784554 
L 313.276265 115.784554 
L 313.276265 112.134653 
L 313.81982 112.134653 
L 313.81982 108.484752 
L 315.525128 108.484752 
L 315.540452 101.18495 
L 316.108286 101.18495 
L 316.108286 97.53505 
L 316.516682 97.53505 
L 316.516682 93.885149 
L 316.685086 93.885149 
L 316.79396 86.585347 
L 317.194335 86.585347 
L 317.194335 82.935446 
L 317.370612 82.935446 
L 317.375174 75.635644 
L 322.309909 75.635644 
L 322.309909 71.985743 
L 324.948862 71.985743 
L 324.948862 68.335842 
L 328.827954 68.335842 
L 328.827954 64.685941 
L 347.951974 64.685941 
L 347.951974 61.03604 
L 350.540871 61.03604 
L 350.540871 57.386139 
L 350.969408 57.386139 
L 350.969408 53.736238 
L 351.329547 53.736238 
L 351.329547 50.086337 
L 352.547712 50.086337 
L 352.547712 46.436436 
L 353.622967 46.436436 
L 353.622967 42.786535 
L 354.049567 42.786535 
L 354.049567 39.136634 
L 355.891537 39.136634 
L 355.891537 35.486733 
L 356.643702 35.486733 
L 356.643702 31.836832 
L 357.240896 31.836832 
L 357.240896 28.186931 
L 357.871967 28.186931 
L 357.871967 24.53703 
L 358.808557 24.53703 
L 358.808557 20.887129 
L 359.279916 20.887129 
L 359.279916 17.237228 
L 360.435971 17.237228 
L 360.435971 13.587327 
L 361.793229 13.587327 
L 361.793229 9.937426 
L 364.32 9.937426 
L 364.32 9.937426 
" style="fill:none;stroke:#00bfbf;stroke-linecap:square;"/>
   </g>
   <g id="line2d_3">
    <path clip-path="url(#p27120ab758)" d="M 201.698201 283.68 
L 201.698201 280.030099 
L 207.192355 280.030099 
L 207.192355 276.380198 
L 207.736838 276.380198 
L 207.736838 272.730297 
L 210.388324 272.730297 
L 210.395127 265.430495 
L 210.841009 265.430495 
L 210.841009 261.780594 
L 211.173755 261.780594 
L 211.173755 258.130693 
L 211.676322 258.130693 
L 211.676322 254.480792 
L 212.320142 254.480792 
L 212.320142 250.830891 
L 212.532474 250.830891 
L 212.626077 243.531089 
L 212.847203 243.531089 
L 212.85535 236.231287 
L 216.760019 236.231287 
L 216.760019 232.581386 
L 217.026353 232.581386 
L 217.026353 228.931485 
L 235.518781 228.931485 
L 235.518781 225.281584 
L 236.417769 225.281584 
L 236.417769 221.631683 
L 243.542223 221.631683 
L 243.542223 217.981782 
L 244.555468 217.981782 
L 244.555468 214.331881 
L 244.839556 214.331881 
L 244.839556 210.68198 
L 245.020454 210.68198 
L 245.124953 203.382178 
L 245.4699 203.382178 
L 245.4699 199.732277 
L 245.959459 199.732277 
L 245.959459 196.082376 
L 246.133356 196.082376 
L 246.133356 192.432475 
L 246.389722 192.432475 
L 246.389722 188.782574 
L 246.512171 188.782574 
L 246.512171 185.132673 
L 246.631448 185.132673 
L 246.631448 181.482772 
L 246.749366 181.482772 
L 246.749366 177.832871 
L 247.094673 177.832871 
L 247.094673 174.18297 
L 247.676095 174.18297 
L 247.738197 166.883168 
L 257.600311 166.883168 
L 257.600311 163.233267 
L 258.597413 163.233267 
L 258.597413 159.583366 
L 259.965485 159.583366 
L 259.965485 155.933465 
L 263.321137 155.933465 
L 263.321137 152.283564 
L 270.1634 152.283564 
L 270.230572 144.983762 
L 270.46663 144.983762 
L 270.46663 141.333861 
L 276.113656 141.333861 
L 276.113656 137.68396 
L 277.709838 137.68396 
L 277.709838 134.034059 
L 281.376596 134.034059 
L 281.376596 130.384158 
L 281.832901 130.384158 
L 281.832901 126.734257 
L 282.218738 126.734257 
L 282.218738 123.084356 
L 305.988628 123.084356 
L 305.988628 119.434455 
L 306.403719 119.434455 
L 306.403719 115.784554 
L 308.520765 115.784554 
L 308.520765 112.134653 
L 312.004006 112.134653 
L 312.004006 108.484752 
L 312.309157 108.484752 
L 312.309157 104.834851 
L 312.567072 104.834851 
L 312.567072 101.18495 
L 313.276265 101.18495 
L 313.276265 97.53505 
L 315.037865 97.53505 
L 315.037865 93.885149 
L 315.266366 93.885149 
L 315.266366 90.235248 
L 315.540452 90.235248 
L 315.540452 86.585347 
L 315.763338 86.585347 
L 315.763338 82.935446 
L 316.108286 82.935446 
L 316.108286 79.285545 
L 316.683167 79.285545 
L 316.683167 75.635644 
L 317.194335 75.635644 
L 317.194335 71.985743 
L 321.259347 71.985743 
L 321.259347 68.335842 
L 323.985576 68.335842 
L 323.985576 64.685941 
L 346.70002 64.685941 
L 346.70002 61.03604 
L 346.996846 61.03604 
L 346.996846 57.386139 
L 348.396097 57.386139 
L 348.396097 53.736238 
L 350.540871 53.736238 
L 350.540871 50.086337 
L 350.969408 50.086337 
L 350.969408 46.436436 
L 351.283987 46.436436 
L 351.329547 39.136634 
L 352.189154 39.136634 
L 352.189154 35.486733 
L 352.778755 35.486733 
L 352.778755 31.836832 
L 353.622967 31.836832 
L 353.622967 28.186931 
L 353.774229 28.186931 
L 353.774229 24.53703 
L 354.776859 24.53703 
L 354.776859 20.887129 
L 355.891537 20.887129 
L 355.891537 17.237228 
L 356.27029 17.237228 
L 356.27029 13.587327 
L 359.279916 13.587327 
L 359.279916 9.937426 
L 364.32 9.937426 
L 364.32 9.937426 
" style="fill:none;stroke:#bf00bf;stroke-linecap:square;"/>
   </g>
   <g id="line2d_4">
    <path clip-path="url(#p27120ab758)" d="M 201.698201 283.68 
L 201.698201 280.030099 
L 207.192355 280.030099 
L 207.293564 272.730297 
L 207.736838 272.730297 
L 207.736838 269.080396 
L 208.035869 269.080396 
L 208.035869 265.430495 
L 209.143458 265.430495 
L 209.236404 258.130693 
L 209.511537 258.130693 
L 209.511537 254.480792 
L 210.388324 254.480792 
L 210.388324 250.830891 
L 210.841009 250.830891 
L 210.929709 239.881188 
L 211.173755 239.881188 
L 211.173755 236.231287 
L 211.676322 236.231287 
L 211.676322 232.581386 
L 212.50932 232.581386 
L 212.50932 228.931485 
L 226.232642 228.931485 
L 226.232642 225.281584 
L 226.793108 225.281584 
L 226.793108 221.631683 
L 232.969868 221.631683 
L 232.969868 217.981782 
L 234.041187 217.981782 
L 234.041187 214.331881 
L 234.619556 214.331881 
L 234.619556 210.68198 
L 237.98049 210.68198 
L 237.98049 207.032079 
L 239.726544 207.032079 
L 239.726544 203.382178 
L 243.542223 203.382178 
L 243.542223 199.732277 
L 244.190626 199.732277 
L 244.190626 196.082376 
L 244.450013 196.082376 
L 244.555468 185.132673 
L 244.725485 185.132673 
L 244.725485 181.482772 
L 245.020454 181.482772 
L 245.124953 170.533069 
L 245.4699 170.533069 
L 245.4699 166.883168 
L 245.607454 166.883168 
L 245.607454 163.233267 
L 245.852109 163.233267 
L 245.852109 159.583366 
L 246.063559 159.583366 
L 246.133356 152.283564 
L 246.239309 152.283564 
L 246.349054 144.983762 
L 246.72542 144.983762 
L 246.72542 141.333861 
L 248.685099 141.333861 
L 248.685099 137.68396 
L 252.028814 137.68396 
L 252.028814 134.034059 
L 268.055122 134.034059 
L 268.055122 130.384158 
L 269.150334 130.384158 
L 269.150334 126.734257 
L 270.472754 126.734257 
L 270.472754 123.084356 
L 287.730296 123.084356 
L 287.730296 119.434455 
L 305.988628 119.434455 
L 305.988628 115.784554 
L 306.403719 115.784554 
L 306.403719 112.134653 
L 306.789099 112.134653 
L 306.789099 108.484752 
L 308.030643 108.484752 
L 308.030643 104.834851 
L 308.289322 104.834851 
L 308.289322 101.18495 
L 309.065997 101.18495 
L 309.065997 97.53505 
L 309.228851 97.53505 
L 309.228851 93.885149 
L 310.293716 93.885149 
L 310.293716 90.235248 
L 311.183395 90.235248 
L 311.183395 86.585347 
L 312.167347 86.585347 
L 312.167347 82.935446 
L 312.309157 82.935446 
L 312.309157 79.285545 
L 313.848202 79.285545 
L 313.848202 75.635644 
L 315.266366 75.635644 
L 315.266366 71.985743 
L 315.495438 71.985743 
L 315.495438 68.335842 
L 317.597675 68.335842 
L 317.597675 64.685941 
L 345.091523 64.685941 
L 345.091523 61.03604 
L 345.382465 61.03604 
L 345.382465 57.386139 
L 346.70002 57.386139 
L 346.70002 53.736238 
L 346.996846 53.736238 
L 346.996846 50.086337 
L 348.173292 50.086337 
L 348.173292 46.436436 
L 348.334942 46.436436 
L 348.396097 39.136634 
L 348.99829 39.136634 
L 348.99829 35.486733 
L 350.651272 35.486733 
L 350.651272 31.836832 
L 350.969408 31.836832 
L 350.969408 28.186931 
L 351.283987 28.186931 
L 351.283987 24.53703 
L 351.989901 24.53703 
L 351.989901 20.887129 
L 352.189154 20.887129 
L 352.189154 17.237228 
L 355.891537 17.237228 
L 355.891537 13.587327 
L 356.27029 13.587327 
L 356.27029 9.937426 
L 364.32 9.937426 
L 364.32 9.937426 
" style="fill:none;stroke:#000000;stroke-linecap:square;"/>
   </g>
   <g id="line2d_5">
    <path clip-path="url(#p27120ab758)" d="M 201.698201 283.68 
L 201.698201 280.030099 
L 205.416157 280.030099 
L 205.416157 276.380198 
L 206.509326 276.380198 
L 206.599555 265.430495 
L 207.192355 265.430495 
L 207.293564 258.130693 
L 207.494703 258.130693 
L 207.53829 250.830891 
L 207.92468 250.830891 
L 207.92468 247.18099 
L 208.194174 247.18099 
L 208.194174 243.531089 
L 208.741917 243.531089 
L 208.741917 239.881188 
L 209.327733 239.881188 
L 209.327733 236.231287 
L 210.129095 236.231287 
L 210.129095 232.581386 
L 210.624852 232.581386 
L 210.624852 228.931485 
L 225.138668 228.931485 
L 225.138668 225.281584 
L 226.232642 225.281584 
L 226.232642 221.631683 
L 226.551072 221.631683 
L 226.609956 214.331881 
L 226.793108 214.331881 
L 226.793108 210.68198 
L 227.690483 210.68198 
L 227.690483 207.032079 
L 228.505183 207.032079 
L 228.505183 203.382178 
L 228.630508 203.382178 
L 228.630508 199.732277 
L 229.642795 199.732277 
L 229.642795 196.082376 
L 234.041187 196.082376 
L 234.041187 192.432475 
L 238.554511 192.432475 
L 238.554511 188.782574 
L 240.783998 188.782574 
L 240.783998 185.132673 
L 241.734545 185.132673 
L 241.734545 181.482772 
L 243.381975 181.482772 
L 243.381975 177.832871 
L 243.542223 177.832871 
L 243.542223 174.18297 
L 243.67163 174.18297 
L 243.67163 170.533069 
L 243.980484 170.533069 
L 243.980484 166.883168 
L 244.160708 166.883168 
L 244.190626 159.583366 
L 244.450013 159.583366 
L 244.450013 155.933465 
L 244.903041 155.933465 
L 244.958234 148.633663 
L 245.020454 148.633663 
L 245.082691 137.68396 
L 245.320486 137.68396 
L 245.320486 134.034059 
L 245.44824 134.034059 
L 245.44824 130.384158 
L 245.725969 130.384158 
L 245.725969 126.734257 
L 248.994841 126.734257 
L 248.994841 123.084356 
L 250.026928 123.084356 
L 250.026928 119.434455 
L 298.490444 119.434455 
L 298.490444 115.784554 
L 299.650476 115.784554 
L 299.650476 112.134653 
L 304.05134 112.134653 
L 304.126041 104.834851 
L 304.607393 104.834851 
L 304.607393 101.18495 
L 305.507822 101.18495 
L 305.604165 93.885149 
L 305.988628 93.885149 
L 305.988628 90.235248 
L 306.403719 90.235248 
L 306.403719 86.585347 
L 306.789099 86.585347 
L 306.789099 82.935446 
L 308.846448 82.935446 
L 308.846448 79.285545 
L 309.065997 79.285545 
L 309.065997 75.635644 
L 310.293716 75.635644 
L 310.293716 71.985743 
L 310.915364 71.985743 
L 310.915364 68.335842 
L 311.57299 68.335842 
L 311.57299 64.685941 
L 339.175932 64.685941 
L 339.175932 61.03604 
L 343.502877 61.03604 
L 343.502877 57.386139 
L 344.05588 57.386139 
L 344.05588 53.736238 
L 345.091523 53.736238 
L 345.091523 50.086337 
L 345.382465 50.086337 
L 345.382465 46.436436 
L 346.145463 46.436436 
L 346.145463 42.786535 
L 346.285488 42.786535 
L 346.285488 39.136634 
L 346.996846 39.136634 
L 346.996846 35.486733 
L 347.362966 35.486733 
L 347.362966 31.836832 
L 347.876765 31.836832 
L 347.876765 28.186931 
L 348.396097 28.186931 
L 348.396097 24.53703 
L 349.651415 24.53703 
L 349.651415 20.887129 
L 349.854048 20.887129 
L 349.854048 17.237228 
L 350.969408 17.237228 
L 351.038329 9.937426 
L 364.32 9.937426 
L 364.32 9.937426 
" style="fill:none;stroke:#00bfbf;stroke-linecap:square;"/>
   </g>
   <g id="patch_3">
    <path d="M 7.2 7.2 
L 364.32 7.2 
" style="fill:none;stroke:#000000;stroke-linecap:square;stroke-linejoin:miter;"/>
   </g>
   <g id="patch_4">
    <path d="M 364.32 283.68 
L 364.32 7.2 
" style="fill:none;stroke:#000000;stroke-linecap:square;stroke-linejoin:miter;"/>
   </g>
   <g id="patch_5">
    <path d="M 7.2 283.68 
L 364.32 283.68 
" style="fill:none;stroke:#000000;stroke-linecap:square;stroke-linejoin:miter;"/>
   </g>
   <g id="patch_6">
    <path d="M 7.2 283.68 
L 7.2 7.2 
" style="fill:none;stroke:#000000;stroke-linecap:square;stroke-linejoin:miter;"/>
   </g>
   <g id="matplotlib.axis_1">
    <g id="xtick_1">
     <g id="line2d_6">
      <path clip-path="url(#p27120ab758)" d="M 49.133998 283.68 
L 49.133998 7.2 
" style="fill:none;stroke:#000000;stroke-dasharray:1.000000,3.000000;stroke-dashoffset:0.0;stroke-width:0.5;"/>
     </g>
     <g id="line2d_7">
      <defs>
       <path d="M 0 0 
L 0 -4 
" id="m1e5af04897" style="stroke:#000000;stroke-width:0.5;"/>
      </defs>
      <g>
       <use style="stroke:#000000;stroke-width:0.5;" x="49.1339978514" xlink:href="#m1e5af04897" y="283.68"/>
      </g>
     </g>
     <g id="line2d_8">
      <defs>
       <path d="M 0 0 
L 0 4 
" id="m082d0d89f0" style="stroke:#000000;stroke-width:0.5;"/>
      </defs>
      <g>
       <use style="stroke:#000000;stroke-width:0.5;" x="49.1339978514" xlink:href="#m082d0d89f0" y="7.2"/>
      </g>
     </g>
     <g id="text_1">
      <!-- -6 -->
      <defs>
       <path d="M 33.015625 40.375 
Q 26.375 40.375 22.484375 35.828125 
Q 18.609375 31.296875 18.609375 23.390625 
Q 18.609375 15.53125 22.484375 10.953125 
Q 26.375 6.390625 33.015625 6.390625 
Q 39.65625 6.390625 43.53125 10.953125 
Q 47.40625 15.53125 47.40625 23.390625 
Q 47.40625 31.296875 43.53125 35.828125 
Q 39.65625 40.375 33.015625 40.375 
M 52.59375 71.296875 
L 52.59375 62.3125 
Q 48.875 64.0625 45.09375 64.984375 
Q 41.3125 65.921875 37.59375 65.921875 
Q 27.828125 65.921875 22.671875 59.328125 
Q 17.53125 52.734375 16.796875 39.40625 
Q 19.671875 43.65625 24.015625 45.921875 
Q 28.375 48.1875 33.59375 48.1875 
Q 44.578125 48.1875 50.953125 41.515625 
Q 57.328125 34.859375 57.328125 23.390625 
Q 57.328125 12.15625 50.6875 5.359375 
Q 44.046875 -1.421875 33.015625 -1.421875 
Q 20.359375 -1.421875 13.671875 8.265625 
Q 6.984375 17.96875 6.984375 36.375 
Q 6.984375 53.65625 15.1875 63.9375 
Q 23.390625 74.21875 37.203125 74.21875 
Q 40.921875 74.21875 44.703125 73.484375 
Q 48.484375 72.75 52.59375 71.296875 
" id="BitstreamVeraSans-Roman-36"/>
       <path d="M 4.890625 31.390625 
L 31.203125 31.390625 
L 31.203125 23.390625 
L 4.890625 23.390625 
z
" id="BitstreamVeraSans-Roman-2d"/>
      </defs>
      <g transform="translate(39.1636853514 302.876875)scale(0.2 -0.2)">
       <use xlink:href="#BitstreamVeraSans-Roman-2d"/>
       <use x="36.083984375" xlink:href="#BitstreamVeraSans-Roman-36"/>
      </g>
     </g>
    </g>
    <g id="xtick_2">
     <g id="line2d_9">
      <path clip-path="url(#p27120ab758)" d="M 91.158798 283.68 
L 91.158798 7.2 
" style="fill:none;stroke:#000000;stroke-dasharray:1.000000,3.000000;stroke-dashoffset:0.0;stroke-width:0.5;"/>
     </g>
     <g id="line2d_10">
      <g>
       <use style="stroke:#000000;stroke-width:0.5;" x="91.1587981379" xlink:href="#m1e5af04897" y="283.68"/>
      </g>
     </g>
     <g id="line2d_11">
      <g>
       <use style="stroke:#000000;stroke-width:0.5;" x="91.1587981379" xlink:href="#m082d0d89f0" y="7.2"/>
      </g>
     </g>
     <g id="text_2">
      <!-- -4 -->
      <defs>
       <path d="M 37.796875 64.3125 
L 12.890625 25.390625 
L 37.796875 25.390625 
z
M 35.203125 72.90625 
L 47.609375 72.90625 
L 47.609375 25.390625 
L 58.015625 25.390625 
L 58.015625 17.1875 
L 47.609375 17.1875 
L 47.609375 0 
L 37.796875 0 
L 37.796875 17.1875 
L 4.890625 17.1875 
L 4.890625 26.703125 
z
" id="BitstreamVeraSans-Roman-34"/>
      </defs>
      <g transform="translate(81.1884856379 302.876875)scale(0.2 -0.2)">
       <use xlink:href="#BitstreamVeraSans-Roman-2d"/>
       <use x="36.083984375" xlink:href="#BitstreamVeraSans-Roman-34"/>
      </g>
     </g>
    </g>
    <g id="xtick_3">
     <g id="line2d_12">
      <path clip-path="url(#p27120ab758)" d="M 133.183598 283.68 
L 133.183598 7.2 
" style="fill:none;stroke:#000000;stroke-dasharray:1.000000,3.000000;stroke-dashoffset:0.0;stroke-width:0.5;"/>
     </g>
     <g id="line2d_13">
      <g>
       <use style="stroke:#000000;stroke-width:0.5;" x="133.183598424" xlink:href="#m1e5af04897" y="283.68"/>
      </g>
     </g>
     <g id="line2d_14">
      <g>
       <use style="stroke:#000000;stroke-width:0.5;" x="133.183598424" xlink:href="#m082d0d89f0" y="7.2"/>
      </g>
     </g>
     <g id="text_3">
      <!-- -2 -->
      <defs>
       <path d="M 19.1875 8.296875 
L 53.609375 8.296875 
L 53.609375 0 
L 7.328125 0 
L 7.328125 8.296875 
Q 12.9375 14.109375 22.625 23.890625 
Q 32.328125 33.6875 34.8125 36.53125 
Q 39.546875 41.84375 41.421875 45.53125 
Q 43.3125 49.21875 43.3125 52.78125 
Q 43.3125 58.59375 39.234375 62.25 
Q 35.15625 65.921875 28.609375 65.921875 
Q 23.96875 65.921875 18.8125 64.3125 
Q 13.671875 62.703125 7.8125 59.421875 
L 7.8125 69.390625 
Q 13.765625 71.78125 18.9375 73 
Q 24.125 74.21875 28.421875 74.21875 
Q 39.75 74.21875 46.484375 68.546875 
Q 53.21875 62.890625 53.21875 53.421875 
Q 53.21875 48.921875 51.53125 44.890625 
Q 49.859375 40.875 45.40625 35.40625 
Q 44.1875 33.984375 37.640625 27.21875 
Q 31.109375 20.453125 19.1875 8.296875 
" id="BitstreamVeraSans-Roman-32"/>
      </defs>
      <g transform="translate(123.213285924 302.876875)scale(0.2 -0.2)">
       <use xlink:href="#BitstreamVeraSans-Roman-2d"/>
       <use x="36.083984375" xlink:href="#BitstreamVeraSans-Roman-32"/>
      </g>
     </g>
    </g>
    <g id="xtick_4">
     <g id="line2d_15">
      <path clip-path="url(#p27120ab758)" d="M 175.208399 283.68 
L 175.208399 7.2 
" style="fill:none;stroke:#000000;stroke-dasharray:1.000000,3.000000;stroke-dashoffset:0.0;stroke-width:0.5;"/>
     </g>
     <g id="line2d_16">
      <g>
       <use style="stroke:#000000;stroke-width:0.5;" x="175.208398711" xlink:href="#m1e5af04897" y="283.68"/>
      </g>
     </g>
     <g id="line2d_17">
      <g>
       <use style="stroke:#000000;stroke-width:0.5;" x="175.208398711" xlink:href="#m082d0d89f0" y="7.2"/>
      </g>
     </g>
     <g id="text_4">
      <!-- 0 -->
      <defs>
       <path d="M 31.78125 66.40625 
Q 24.171875 66.40625 20.328125 58.90625 
Q 16.5 51.421875 16.5 36.375 
Q 16.5 21.390625 20.328125 13.890625 
Q 24.171875 6.390625 31.78125 6.390625 
Q 39.453125 6.390625 43.28125 13.890625 
Q 47.125 21.390625 47.125 36.375 
Q 47.125 51.421875 43.28125 58.90625 
Q 39.453125 66.40625 31.78125 66.40625 
M 31.78125 74.21875 
Q 44.046875 74.21875 50.515625 64.515625 
Q 56.984375 54.828125 56.984375 36.375 
Q 56.984375 17.96875 50.515625 8.265625 
Q 44.046875 -1.421875 31.78125 -1.421875 
Q 19.53125 -1.421875 13.0625 8.265625 
Q 6.59375 17.96875 6.59375 36.375 
Q 6.59375 54.828125 13.0625 64.515625 
Q 19.53125 74.21875 31.78125 74.21875 
" id="BitstreamVeraSans-Roman-30"/>
      </defs>
      <g transform="translate(168.845898711 302.876875)scale(0.2 -0.2)">
       <use xlink:href="#BitstreamVeraSans-Roman-30"/>
      </g>
     </g>
    </g>
    <g id="xtick_5">
     <g id="line2d_18">
      <path clip-path="url(#p27120ab758)" d="M 217.233199 283.68 
L 217.233199 7.2 
" style="fill:none;stroke:#000000;stroke-dasharray:1.000000,3.000000;stroke-dashoffset:0.0;stroke-width:0.5;"/>
     </g>
     <g id="line2d_19">
      <g>
       <use style="stroke:#000000;stroke-width:0.5;" x="217.233198997" xlink:href="#m1e5af04897" y="283.68"/>
      </g>
     </g>
     <g id="line2d_20">
      <g>
       <use style="stroke:#000000;stroke-width:0.5;" x="217.233198997" xlink:href="#m082d0d89f0" y="7.2"/>
      </g>
     </g>
     <g id="text_5">
      <!-- 2 -->
      <g transform="translate(210.870698997 302.876875)scale(0.2 -0.2)">
       <use xlink:href="#BitstreamVeraSans-Roman-32"/>
      </g>
     </g>
    </g>
    <g id="xtick_6">
     <g id="line2d_21">
      <path clip-path="url(#p27120ab758)" d="M 259.257999 283.68 
L 259.257999 7.2 
" style="fill:none;stroke:#000000;stroke-dasharray:1.000000,3.000000;stroke-dashoffset:0.0;stroke-width:0.5;"/>
     </g>
     <g id="line2d_22">
      <g>
       <use style="stroke:#000000;stroke-width:0.5;" x="259.257999284" xlink:href="#m1e5af04897" y="283.68"/>
      </g>
     </g>
     <g id="line2d_23">
      <g>
       <use style="stroke:#000000;stroke-width:0.5;" x="259.257999284" xlink:href="#m082d0d89f0" y="7.2"/>
      </g>
     </g>
     <g id="text_6">
      <!-- 4 -->
      <g transform="translate(252.895499284 302.876875)scale(0.2 -0.2)">
       <use xlink:href="#BitstreamVeraSans-Roman-34"/>
      </g>
     </g>
    </g>
    <g id="xtick_7">
     <g id="line2d_24">
      <path clip-path="url(#p27120ab758)" d="M 301.2828 283.68 
L 301.2828 7.2 
" style="fill:none;stroke:#000000;stroke-dasharray:1.000000,3.000000;stroke-dashoffset:0.0;stroke-width:0.5;"/>
     </g>
     <g id="line2d_25">
      <g>
       <use style="stroke:#000000;stroke-width:0.5;" x="301.28279957" xlink:href="#m1e5af04897" y="283.68"/>
      </g>
     </g>
     <g id="line2d_26">
      <g>
       <use style="stroke:#000000;stroke-width:0.5;" x="301.28279957" xlink:href="#m082d0d89f0" y="7.2"/>
      </g>
     </g>
     <g id="text_7">
      <!-- 6 -->
      <g transform="translate(294.92029957 302.876875)scale(0.2 -0.2)">
       <use xlink:href="#BitstreamVeraSans-Roman-36"/>
      </g>
     </g>
    </g>
    <g id="xtick_8">
     <g id="line2d_27">
      <path clip-path="url(#p27120ab758)" d="M 343.3076 283.68 
L 343.3076 7.2 
" style="fill:none;stroke:#000000;stroke-dasharray:1.000000,3.000000;stroke-dashoffset:0.0;stroke-width:0.5;"/>
     </g>
     <g id="line2d_28">
      <g>
       <use style="stroke:#000000;stroke-width:0.5;" x="343.307599857" xlink:href="#m1e5af04897" y="283.68"/>
      </g>
     </g>
     <g id="line2d_29">
      <g>
       <use style="stroke:#000000;stroke-width:0.5;" x="343.307599857" xlink:href="#m082d0d89f0" y="7.2"/>
      </g>
     </g>
     <g id="text_8">
      <!-- 8 -->
      <defs>
       <path d="M 31.78125 34.625 
Q 24.75 34.625 20.71875 30.859375 
Q 16.703125 27.09375 16.703125 20.515625 
Q 16.703125 13.921875 20.71875 10.15625 
Q 24.75 6.390625 31.78125 6.390625 
Q 38.8125 6.390625 42.859375 10.171875 
Q 46.921875 13.96875 46.921875 20.515625 
Q 46.921875 27.09375 42.890625 30.859375 
Q 38.875 34.625 31.78125 34.625 
M 21.921875 38.8125 
Q 15.578125 40.375 12.03125 44.71875 
Q 8.5 49.078125 8.5 55.328125 
Q 8.5 64.0625 14.71875 69.140625 
Q 20.953125 74.21875 31.78125 74.21875 
Q 42.671875 74.21875 48.875 69.140625 
Q 55.078125 64.0625 55.078125 55.328125 
Q 55.078125 49.078125 51.53125 44.71875 
Q 48 40.375 41.703125 38.8125 
Q 48.828125 37.15625 52.796875 32.3125 
Q 56.78125 27.484375 56.78125 20.515625 
Q 56.78125 9.90625 50.3125 4.234375 
Q 43.84375 -1.421875 31.78125 -1.421875 
Q 19.734375 -1.421875 13.25 4.234375 
Q 6.78125 9.90625 6.78125 20.515625 
Q 6.78125 27.484375 10.78125 32.3125 
Q 14.796875 37.15625 21.921875 38.8125 
M 18.3125 54.390625 
Q 18.3125 48.734375 21.84375 45.5625 
Q 25.390625 42.390625 31.78125 42.390625 
Q 38.140625 42.390625 41.71875 45.5625 
Q 45.3125 48.734375 45.3125 54.390625 
Q 45.3125 60.0625 41.71875 63.234375 
Q 38.140625 66.40625 31.78125 66.40625 
Q 25.390625 66.40625 21.84375 63.234375 
Q 18.3125 60.0625 18.3125 54.390625 
" id="BitstreamVeraSans-Roman-38"/>
      </defs>
      <g transform="translate(336.945099857 302.876875)scale(0.2 -0.2)">
       <use xlink:href="#BitstreamVeraSans-Roman-38"/>
      </g>
     </g>
    </g>
    <g id="xtick_9">
     <g id="line2d_30">
      <defs>
       <path d="M 0 0 
L 0 -2 
" id="m3bd9fa1acb" style="stroke:#000000;stroke-width:0.5;"/>
      </defs>
      <g>
       <use style="stroke:#000000;stroke-width:0.5;" x="49.1339978514" xlink:href="#m3bd9fa1acb" y="283.68"/>
      </g>
     </g>
     <g id="line2d_31">
      <defs>
       <path d="M 0 0 
L 0 2 
" id="m42a9586ea8" style="stroke:#000000;stroke-width:0.5;"/>
      </defs>
      <g>
       <use style="stroke:#000000;stroke-width:0.5;" x="49.1339978514" xlink:href="#m42a9586ea8" y="7.2"/>
      </g>
     </g>
    </g>
    <g id="xtick_10">
     <g id="line2d_32">
      <g>
       <use style="stroke:#000000;stroke-width:0.5;" x="91.1587981379" xlink:href="#m3bd9fa1acb" y="283.68"/>
      </g>
     </g>
     <g id="line2d_33">
      <g>
       <use style="stroke:#000000;stroke-width:0.5;" x="91.1587981379" xlink:href="#m42a9586ea8" y="7.2"/>
      </g>
     </g>
    </g>
    <g id="xtick_11">
     <g id="line2d_34">
      <g>
       <use style="stroke:#000000;stroke-width:0.5;" x="133.183598424" xlink:href="#m3bd9fa1acb" y="283.68"/>
      </g>
     </g>
     <g id="line2d_35">
      <g>
       <use style="stroke:#000000;stroke-width:0.5;" x="133.183598424" xlink:href="#m42a9586ea8" y="7.2"/>
      </g>
     </g>
    </g>
    <g id="xtick_12">
     <g id="line2d_36">
      <g>
       <use style="stroke:#000000;stroke-width:0.5;" x="175.208398711" xlink:href="#m3bd9fa1acb" y="283.68"/>
      </g>
     </g>
     <g id="line2d_37">
      <g>
       <use style="stroke:#000000;stroke-width:0.5;" x="175.208398711" xlink:href="#m42a9586ea8" y="7.2"/>
      </g>
     </g>
    </g>
    <g id="xtick_13">
     <g id="line2d_38">
      <g>
       <use style="stroke:#000000;stroke-width:0.5;" x="217.233198997" xlink:href="#m3bd9fa1acb" y="283.68"/>
      </g>
     </g>
     <g id="line2d_39">
      <g>
       <use style="stroke:#000000;stroke-width:0.5;" x="217.233198997" xlink:href="#m42a9586ea8" y="7.2"/>
      </g>
     </g>
    </g>
    <g id="xtick_14">
     <g id="line2d_40">
      <g>
       <use style="stroke:#000000;stroke-width:0.5;" x="259.257999284" xlink:href="#m3bd9fa1acb" y="283.68"/>
      </g>
     </g>
     <g id="line2d_41">
      <g>
       <use style="stroke:#000000;stroke-width:0.5;" x="259.257999284" xlink:href="#m42a9586ea8" y="7.2"/>
      </g>
     </g>
    </g>
    <g id="xtick_15">
     <g id="line2d_42">
      <g>
       <use style="stroke:#000000;stroke-width:0.5;" x="301.28279957" xlink:href="#m3bd9fa1acb" y="283.68"/>
      </g>
     </g>
     <g id="line2d_43">
      <g>
       <use style="stroke:#000000;stroke-width:0.5;" x="301.28279957" xlink:href="#m42a9586ea8" y="7.2"/>
      </g>
     </g>
    </g>
    <g id="xtick_16">
     <g id="line2d_44">
      <g>
       <use style="stroke:#000000;stroke-width:0.5;" x="343.307599857" xlink:href="#m3bd9fa1acb" y="283.68"/>
      </g>
     </g>
     <g id="line2d_45">
      <g>
       <use style="stroke:#000000;stroke-width:0.5;" x="343.307599857" xlink:href="#m42a9586ea8" y="7.2"/>
      </g>
     </g>
    </g>
    <g id="text_9">
     <!-- log10 of Df -->
     <defs>
      <path id="BitstreamVeraSans-Roman-20"/>
      <path d="M 12.40625 8.296875 
L 28.515625 8.296875 
L 28.515625 63.921875 
L 10.984375 60.40625 
L 10.984375 69.390625 
L 28.421875 72.90625 
L 38.28125 72.90625 
L 38.28125 8.296875 
L 54.390625 8.296875 
L 54.390625 0 
L 12.40625 0 
z
" id="BitstreamVeraSans-Roman-31"/>
      <path d="M 30.609375 48.390625 
Q 23.390625 48.390625 19.1875 42.75 
Q 14.984375 37.109375 14.984375 27.296875 
Q 14.984375 17.484375 19.15625 11.84375 
Q 23.34375 6.203125 30.609375 6.203125 
Q 37.796875 6.203125 41.984375 11.859375 
Q 46.1875 17.53125 46.1875 27.296875 
Q 46.1875 37.015625 41.984375 42.703125 
Q 37.796875 48.390625 30.609375 48.390625 
M 30.609375 56 
Q 42.328125 56 49.015625 48.375 
Q 55.71875 40.765625 55.71875 27.296875 
Q 55.71875 13.875 49.015625 6.21875 
Q 42.328125 -1.421875 30.609375 -1.421875 
Q 18.84375 -1.421875 12.171875 6.21875 
Q 5.515625 13.875 5.515625 27.296875 
Q 5.515625 40.765625 12.171875 48.375 
Q 18.84375 56 30.609375 56 
" id="BitstreamVeraSans-Roman-6f"/>
      <path d="M 9.421875 75.984375 
L 18.40625 75.984375 
L 18.40625 0 
L 9.421875 0 
z
" id="BitstreamVeraSans-Roman-6c"/>
      <path d="M 19.671875 64.796875 
L 19.671875 8.109375 
L 31.59375 8.109375 
Q 46.6875 8.109375 53.6875 14.9375 
Q 60.6875 21.78125 60.6875 36.53125 
Q 60.6875 51.171875 53.6875 57.984375 
Q 46.6875 64.796875 31.59375 64.796875 
z
M 9.8125 72.90625 
L 30.078125 72.90625 
Q 51.265625 72.90625 61.171875 64.09375 
Q 71.09375 55.28125 71.09375 36.53125 
Q 71.09375 17.671875 61.125 8.828125 
Q 51.171875 0 30.078125 0 
L 9.8125 0 
z
" id="BitstreamVeraSans-Roman-44"/>
      <path d="M 45.40625 27.984375 
Q 45.40625 37.75 41.375 43.109375 
Q 37.359375 48.484375 30.078125 48.484375 
Q 22.859375 48.484375 18.828125 43.109375 
Q 14.796875 37.75 14.796875 27.984375 
Q 14.796875 18.265625 18.828125 12.890625 
Q 22.859375 7.515625 30.078125 7.515625 
Q 37.359375 7.515625 41.375 12.890625 
Q 45.40625 18.265625 45.40625 27.984375 
M 54.390625 6.78125 
Q 54.390625 -7.171875 48.1875 -13.984375 
Q 42 -20.796875 29.203125 -20.796875 
Q 24.46875 -20.796875 20.265625 -20.09375 
Q 16.0625 -19.390625 12.109375 -17.921875 
L 12.109375 -9.1875 
Q 16.0625 -11.328125 19.921875 -12.34375 
Q 23.78125 -13.375 27.78125 -13.375 
Q 36.625 -13.375 41.015625 -8.765625 
Q 45.40625 -4.15625 45.40625 5.171875 
L 45.40625 9.625 
Q 42.625 4.78125 38.28125 2.390625 
Q 33.9375 0 27.875 0 
Q 17.828125 0 11.671875 7.65625 
Q 5.515625 15.328125 5.515625 27.984375 
Q 5.515625 40.671875 11.671875 48.328125 
Q 17.828125 56 27.875 56 
Q 33.9375 56 38.28125 53.609375 
Q 42.625 51.21875 45.40625 46.390625 
L 45.40625 54.6875 
L 54.390625 54.6875 
z
" id="BitstreamVeraSans-Roman-67"/>
      <path d="M 37.109375 75.984375 
L 37.109375 68.5 
L 28.515625 68.5 
Q 23.6875 68.5 21.796875 66.546875 
Q 19.921875 64.59375 19.921875 59.515625 
L 19.921875 54.6875 
L 34.71875 54.6875 
L 34.71875 47.703125 
L 19.921875 47.703125 
L 19.921875 0 
L 10.890625 0 
L 10.890625 47.703125 
L 2.296875 47.703125 
L 2.296875 54.6875 
L 10.890625 54.6875 
L 10.890625 58.5 
Q 10.890625 67.625 15.140625 71.796875 
Q 19.390625 75.984375 28.609375 75.984375 
z
" id="BitstreamVeraSans-Roman-66"/>
     </defs>
     <g transform="translate(130.5740625 327.233125)scale(0.2 -0.2)">
      <use xlink:href="#BitstreamVeraSans-Roman-6c"/>
      <use x="27.783203125" xlink:href="#BitstreamVeraSans-Roman-6f"/>
      <use x="88.96484375" xlink:href="#BitstreamVeraSans-Roman-67"/>
      <use x="152.44140625" xlink:href="#BitstreamVeraSans-Roman-31"/>
      <use x="216.064453125" xlink:href="#BitstreamVeraSans-Roman-30"/>
      <use x="279.6875" xlink:href="#BitstreamVeraSans-Roman-20"/>
      <use x="311.474609375" xlink:href="#BitstreamVeraSans-Roman-6f"/>
      <use x="372.65625" xlink:href="#BitstreamVeraSans-Roman-66"/>
      <use x="407.861328125" xlink:href="#BitstreamVeraSans-Roman-20"/>
      <use x="439.6484375" xlink:href="#BitstreamVeraSans-Roman-44"/>
      <use x="516.650390625" xlink:href="#BitstreamVeraSans-Roman-66"/>
     </g>
    </g>
   </g>
   <g id="matplotlib.axis_2">
    <g id="ytick_1">
     <g id="line2d_46">
      <path clip-path="url(#p27120ab758)" d="M 7.2 283.68 
L 364.32 283.68 
" style="fill:none;stroke:#000000;stroke-dasharray:1.000000,3.000000;stroke-dashoffset:0.0;stroke-width:0.5;"/>
     </g>
     <g id="line2d_47">
      <defs>
       <path d="M 0 0 
L 4 0 
" id="m3ad49596ab" style="stroke:#000000;stroke-width:0.5;"/>
      </defs>
      <g>
       <use style="stroke:#000000;stroke-width:0.5;" x="7.2" xlink:href="#m3ad49596ab" y="283.68"/>
      </g>
     </g>
     <g id="line2d_48">
      <defs>
       <path d="M 0 0 
L -4 0 
" id="mb69b00c7fa" style="stroke:#000000;stroke-width:0.5;"/>
      </defs>
      <g>
       <use style="stroke:#000000;stroke-width:0.5;" x="364.32" xlink:href="#mb69b00c7fa" y="283.68"/>
      </g>
     </g>
    </g>
    <g id="ytick_2">
     <g id="line2d_49">
      <path clip-path="url(#p27120ab758)" d="M 7.2 228.931485 
L 364.32 228.931485 
" style="fill:none;stroke:#000000;stroke-dasharray:1.000000,3.000000;stroke-dashoffset:0.0;stroke-width:0.5;"/>
     </g>
     <g id="line2d_50">
      <g>
       <use style="stroke:#000000;stroke-width:0.5;" x="7.2" xlink:href="#m3ad49596ab" y="228.931485149"/>
      </g>
     </g>
     <g id="line2d_51">
      <g>
       <use style="stroke:#000000;stroke-width:0.5;" x="364.32" xlink:href="#mb69b00c7fa" y="228.931485149"/>
      </g>
     </g>
    </g>
    <g id="ytick_3">
     <g id="line2d_52">
      <path clip-path="url(#p27120ab758)" d="M 7.2 174.18297 
L 364.32 174.18297 
" style="fill:none;stroke:#000000;stroke-dasharray:1.000000,3.000000;stroke-dashoffset:0.0;stroke-width:0.5;"/>
     </g>
     <g id="line2d_53">
      <g>
       <use style="stroke:#000000;stroke-width:0.5;" x="7.2" xlink:href="#m3ad49596ab" y="174.182970297"/>
      </g>
     </g>
     <g id="line2d_54">
      <g>
       <use style="stroke:#000000;stroke-width:0.5;" x="364.32" xlink:href="#mb69b00c7fa" y="174.182970297"/>
      </g>
     </g>
    </g>
    <g id="ytick_4">
     <g id="line2d_55">
      <path clip-path="url(#p27120ab758)" d="M 7.2 119.434455 
L 364.32 119.434455 
" style="fill:none;stroke:#000000;stroke-dasharray:1.000000,3.000000;stroke-dashoffset:0.0;stroke-width:0.5;"/>
     </g>
     <g id="line2d_56">
      <g>
       <use style="stroke:#000000;stroke-width:0.5;" x="7.2" xlink:href="#m3ad49596ab" y="119.434455446"/>
      </g>
     </g>
     <g id="line2d_57">
      <g>
       <use style="stroke:#000000;stroke-width:0.5;" x="364.32" xlink:href="#mb69b00c7fa" y="119.434455446"/>
      </g>
     </g>
    </g>
    <g id="ytick_5">
     <g id="line2d_58">
      <path clip-path="url(#p27120ab758)" d="M 7.2 64.685941 
L 364.32 64.685941 
" style="fill:none;stroke:#000000;stroke-dasharray:1.000000,3.000000;stroke-dashoffset:0.0;stroke-width:0.5;"/>
     </g>
     <g id="line2d_59">
      <g>
       <use style="stroke:#000000;stroke-width:0.5;" x="7.2" xlink:href="#m3ad49596ab" y="64.6859405941"/>
      </g>
     </g>
     <g id="line2d_60">
      <g>
       <use style="stroke:#000000;stroke-width:0.5;" x="364.32" xlink:href="#mb69b00c7fa" y="64.6859405941"/>
      </g>
     </g>
    </g>
    <g id="ytick_6">
     <g id="line2d_61">
      <path clip-path="url(#p27120ab758)" d="M 7.2 9.937426 
L 364.32 9.937426 
" style="fill:none;stroke:#000000;stroke-dasharray:1.000000,3.000000;stroke-dashoffset:0.0;stroke-width:0.5;"/>
     </g>
     <g id="line2d_62">
      <g>
       <use style="stroke:#000000;stroke-width:0.5;" x="7.2" xlink:href="#m3ad49596ab" y="9.93742574257"/>
      </g>
     </g>
     <g id="line2d_63">
      <g>
       <use style="stroke:#000000;stroke-width:0.5;" x="364.32" xlink:href="#mb69b00c7fa" y="9.93742574257"/>
      </g>
     </g>
    </g>
   </g>
   <g id="text_10">
    <!-- f10-14,20-D -->
    <defs>
     <path d="M 11.71875 12.40625 
L 22.015625 12.40625 
L 22.015625 4 
L 14.015625 -11.625 
L 7.71875 -11.625 
L 11.71875 4 
z
" id="BitstreamVeraSans-Roman-2c"/>
    </defs>
    <g transform="translate(237.599475 278.1504)scale(0.2 -0.2)">
     <use xlink:href="#BitstreamVeraSans-Roman-66"/>
     <use x="35.205078125" xlink:href="#BitstreamVeraSans-Roman-31"/>
     <use x="98.828125" xlink:href="#BitstreamVeraSans-Roman-30"/>
     <use x="162.451171875" xlink:href="#BitstreamVeraSans-Roman-2d"/>
     <use x="198.53515625" xlink:href="#BitstreamVeraSans-Roman-31"/>
     <use x="262.158203125" xlink:href="#BitstreamVeraSans-Roman-34"/>
     <use x="325.78125" xlink:href="#BitstreamVeraSans-Roman-2c"/>
     <use x="357.568359375" xlink:href="#BitstreamVeraSans-Roman-32"/>
     <use x="421.19140625" xlink:href="#BitstreamVeraSans-Roman-30"/>
     <use x="484.814453125" xlink:href="#BitstreamVeraSans-Roman-2d"/>
     <use x="520.8984375" xlink:href="#BitstreamVeraSans-Roman-44"/>
    </g>
   </g>
  </g>
 </g>
 <defs>
  <clipPath id="p27120ab758">
   <rect height="276.48" width="357.12" x="7.2" y="7.2"/>
  </clipPath>
 </defs>
</svg>
