<?xml version="1.0" encoding="utf-8" standalone="no"?>
<!DOCTYPE svg PUBLIC "-//W3C//DTD SVG 1.1//EN"
  "http://www.w3.org/Graphics/SVG/1.1/DTD/svg11.dtd">
<!-- Created with matplotlib (http://matplotlib.org/) -->
<svg height="338pt" version="1.1" viewBox="0 0 371 338" width="371pt" xmlns="http://www.w3.org/2000/svg" xmlns:xlink="http://www.w3.org/1999/xlink">
 <defs>
  <style type="text/css">
*{stroke-linecap:butt;stroke-linejoin:round;stroke-miterlimit:100000;}
  </style>
 </defs>
 <g id="figure_1">
  <g id="patch_1">
   <path d="M 0 338.5925 
L 371.52 338.5925 
L 371.52 0 
L 0 0 
z
" style="fill:#ffffff;"/>
  </g>
  <g id="axes_1">
   <g id="patch_2">
    <path d="M 7.2 283.68 
L 364.32 283.68 
L 364.32 7.2 
L 7.2 7.2 
z
" style="fill:#ffffff;"/>
   </g>
   <g id="line2d_1">
    <path clip-path="url(#p1b3964ba2e)" d="M 174.621751 283.68 
L 174.621751 280.030099 
L 175.192088 280.030099 
L 175.192088 276.380198 
L 175.335932 276.380198 
L 175.335932 272.730297 
L 175.675765 272.730297 
L 175.675765 269.080396 
L 176.850175 269.080396 
L 176.850175 265.430495 
L 177.064299 265.430495 
L 177.064299 261.780594 
L 177.303986 261.780594 
L 177.303986 258.130693 
L 177.415726 258.130693 
L 177.436682 250.830891 
L 177.858678 250.830891 
L 177.858678 247.18099 
L 178.034995 247.18099 
L 178.034995 243.531089 
L 178.659228 243.531089 
L 178.659228 239.881188 
L 178.834622 239.881188 
L 178.928581 232.581386 
L 179.057447 232.581386 
L 179.105721 225.281584 
L 179.20833 225.281584 
L 179.20833 221.631683 
L 179.357814 221.631683 
L 179.463883 214.331881 
L 179.545268 214.331881 
L 179.545268 210.68198 
L 180.190926 210.68198 
L 180.190926 207.032079 
L 180.609377 207.032079 
L 180.609377 203.382178 
L 181.096661 203.382178 
L 181.096661 199.732277 
L 181.480622 199.732277 
L 181.537431 192.432475 
L 181.669493 192.432475 
L 181.77346 185.132673 
L 182.078312 185.132673 
L 182.078312 181.482772 
L 182.547176 181.482772 
L 182.547176 177.832871 
L 182.761524 177.832871 
L 182.85092 170.533069 
L 182.910216 170.533069 
L 182.910216 166.883168 
L 183.42779 166.883168 
L 183.42779 163.233267 
L 183.757887 163.233267 
L 183.757887 159.583366 
L 184.425615 159.583366 
L 184.425615 155.933465 
L 184.765134 155.933465 
L 184.839579 148.633663 
L 185.140775 148.633663 
L 185.171505 141.333861 
L 185.723308 141.333861 
L 185.723308 137.68396 
L 185.872162 137.68396 
L 185.872162 134.034059 
L 186.394964 134.034059 
L 186.394964 130.384158 
L 186.521766 130.384158 
L 186.521766 126.734257 
L 187.182631 126.734257 
L 187.182631 123.084356 
L 187.472792 123.084356 
L 187.472792 119.434455 
L 187.651268 119.434455 
L 187.651268 115.784554 
L 187.884579 115.784554 
L 187.884579 112.134653 
L 188.415086 112.134653 
L 188.415086 108.484752 
L 189.247469 108.484752 
L 189.260502 101.18495 
L 189.791262 101.18495 
L 189.791262 97.53505 
L 190.354874 97.53505 
L 190.354874 93.885149 
L 190.642777 93.885149 
L 190.642777 90.235248 
L 190.774093 90.235248 
L 190.774093 86.585347 
L 191.711237 86.585347 
L 191.711237 82.935446 
L 192.104177 82.935446 
L 192.124126 75.635644 
L 192.585311 75.635644 
L 192.585311 71.985743 
L 193.118573 71.985743 
L 193.118573 68.335842 
L 195.249014 68.335842 
L 195.249014 64.685941 
L 197.274675 64.685941 
L 197.274675 61.03604 
L 198.268371 61.03604 
L 198.268371 57.386139 
L 199.222254 57.386139 
L 199.222254 53.736238 
L 200.196897 53.736238 
L 200.196897 50.086337 
L 200.425588 50.086337 
L 200.425588 46.436436 
L 200.686094 46.436436 
L 200.691017 39.136634 
L 201.688405 39.136634 
L 201.767782 31.836832 
L 201.904574 31.836832 
L 201.904574 28.186931 
L 202.278461 28.186931 
L 202.278461 24.53703 
L 202.54626 24.53703 
L 202.54626 20.887129 
L 202.962978 20.887129 
L 202.988859 13.587327 
L 203.347101 13.587327 
L 203.347101 9.937426 
L 364.32 9.937426 
L 364.32 9.937426 
" style="fill:none;stroke:#ff0000;stroke-linecap:square;stroke-width:3.0;"/>
   </g>
   <g id="line2d_2">
    <path clip-path="url(#p1b3964ba2e)" d="M 183.075549 283.68 
L 183.075549 280.030099 
L 185.276658 280.030099 
L 185.276658 276.380198 
L 185.77555 276.380198 
L 185.77555 272.730297 
L 185.99198 272.730297 
L 185.99198 269.080396 
L 186.205046 269.080396 
L 186.205046 265.430495 
L 186.445183 265.430495 
L 186.445183 261.780594 
L 186.896979 261.780594 
L 186.896979 258.130693 
L 187.108564 258.130693 
L 187.108564 254.480792 
L 188.613503 254.480792 
L 188.613503 250.830891 
L 188.896931 250.830891 
L 188.896931 247.18099 
L 189.183247 247.18099 
L 189.183247 243.531089 
L 190.355066 243.531089 
L 190.459375 232.581386 
L 191.015578 232.581386 
L 191.074368 221.631683 
L 192.834155 221.631683 
L 192.834155 217.981782 
L 194.615433 217.981782 
L 194.615433 214.331881 
L 194.797108 214.331881 
L 194.797108 210.68198 
L 194.926126 210.68198 
L 194.926126 207.032079 
L 195.566649 207.032079 
L 195.566649 203.382178 
L 196.802564 203.382178 
L 196.802564 199.732277 
L 197.111012 199.732277 
L 197.111012 196.082376 
L 197.678688 196.082376 
L 197.678688 192.432475 
L 197.859212 192.432475 
L 197.916886 185.132673 
L 199.109876 185.132673 
L 199.109876 181.482772 
L 199.377342 181.482772 
L 199.377342 177.832871 
L 199.570207 177.832871 
L 199.599117 170.533069 
L 199.832955 170.533069 
L 199.832955 166.883168 
L 200.072062 166.883168 
L 200.072062 163.233267 
L 200.789691 163.233267 
L 200.789691 159.583366 
L 200.907666 159.583366 
L 200.907666 155.933465 
L 201.088674 155.933465 
L 201.088674 152.283564 
L 201.594338 152.283564 
L 201.594338 148.633663 
L 201.801628 148.633663 
L 201.801628 144.983762 
L 202.536411 144.983762 
L 202.536411 141.333861 
L 202.802265 141.333861 
L 202.802265 137.68396 
L 202.972834 137.68396 
L 202.972834 134.034059 
L 203.388898 134.034059 
L 203.388898 130.384158 
L 203.502985 130.384158 
L 203.502985 126.734257 
L 203.625228 126.734257 
L 203.691249 119.434455 
L 204.080786 119.434455 
L 204.080786 115.784554 
L 204.445045 115.784554 
L 204.445045 112.134653 
L 204.634036 112.134653 
L 204.634036 108.484752 
L 205.161306 108.484752 
L 205.161306 104.834851 
L 205.642201 104.834851 
L 205.642201 101.18495 
L 205.762791 101.18495 
L 205.762791 97.53505 
L 206.489903 97.53505 
L 206.593567 86.585347 
L 207.415241 86.585347 
L 207.445694 79.285545 
L 207.765008 79.285545 
L 207.765008 75.635644 
L 209.294965 75.635644 
L 209.294965 71.985743 
L 209.575916 71.985743 
L 209.575916 68.335842 
L 209.976764 68.335842 
L 209.976764 64.685941 
L 212.024702 64.685941 
L 212.024702 61.03604 
L 212.142937 61.03604 
L 212.142937 57.386139 
L 212.57386 57.386139 
L 212.57386 53.736238 
L 213.114523 53.736238 
L 213.171121 46.436436 
L 213.573928 46.436436 
L 213.573928 42.786535 
L 215.627008 42.786535 
L 215.627008 39.136634 
L 216.164212 39.136634 
L 216.219166 31.836832 
L 216.498415 31.836832 
L 216.498415 28.186931 
L 216.869133 28.186931 
L 216.869133 24.53703 
L 219.855393 24.53703 
L 219.855393 20.887129 
L 220.463288 20.887129 
L 220.463288 17.237228 
L 220.584713 17.237228 
L 220.584713 13.587327 
L 227.56939 13.587327 
L 227.56939 9.937426 
L 364.32 9.937426 
L 364.32 9.937426 
" style="fill:none;stroke:#00bfbf;stroke-linecap:square;"/>
   </g>
   <g id="line2d_3">
    <path clip-path="url(#p1b3964ba2e)" d="M 179.20833 283.68 
L 179.20833 280.030099 
L 180.190926 280.030099 
L 180.190926 276.380198 
L 183.075549 276.380198 
L 183.075549 272.730297 
L 183.357667 272.730297 
L 183.357667 269.080396 
L 185.276658 269.080396 
L 185.276658 265.430495 
L 185.77555 265.430495 
L 185.820188 258.130693 
L 185.99198 258.130693 
L 186.018007 250.830891 
L 186.356306 250.830891 
L 186.462992 239.881188 
L 186.896979 239.881188 
L 186.896979 236.231287 
L 187.108564 236.231287 
L 187.108564 232.581386 
L 187.258346 232.581386 
L 187.258346 228.931485 
L 188.155512 228.931485 
L 188.177141 221.631683 
L 188.613503 221.631683 
L 188.613503 217.981782 
L 189.183247 217.981782 
L 189.183247 214.331881 
L 190.308392 214.331881 
L 190.355066 203.382178 
L 190.459375 203.382178 
L 190.52699 196.082376 
L 191.015578 196.082376 
L 191.015578 192.432475 
L 191.512125 192.432475 
L 191.512125 188.782574 
L 192.392185 188.782574 
L 192.392185 185.132673 
L 192.834155 185.132673 
L 192.834155 181.482772 
L 193.486882 181.482772 
L 193.486882 177.832871 
L 194.02739 177.832871 
L 194.02739 174.18297 
L 194.615433 174.18297 
L 194.615433 170.533069 
L 195.311672 170.533069 
L 195.311672 166.883168 
L 195.740219 166.883168 
L 195.775951 159.583366 
L 196.181379 159.583366 
L 196.249819 152.283564 
L 196.378686 152.283564 
L 196.378686 148.633663 
L 196.635324 148.633663 
L 196.636608 141.333861 
L 196.802564 141.333861 
L 196.802564 137.68396 
L 196.970523 137.68396 
L 196.970523 134.034059 
L 197.175927 134.034059 
L 197.23983 123.084356 
L 197.935465 123.084356 
L 197.935465 119.434455 
L 198.392042 119.434455 
L 198.43745 112.134653 
L 198.661695 112.134653 
L 198.684091 104.834851 
L 199.162976 104.834851 
L 199.162976 101.18495 
L 199.299134 101.18495 
L 199.299134 97.53505 
L 199.655366 97.53505 
L 199.655366 93.885149 
L 200.156954 93.885149 
L 200.156954 90.235248 
L 201.594338 90.235248 
L 201.686661 82.935446 
L 202.772323 82.935446 
L 202.772323 79.285545 
L 202.972834 79.285545 
L 202.972834 75.635644 
L 203.118043 75.635644 
L 203.118043 71.985743 
L 203.619303 71.985743 
L 203.625228 64.685941 
L 204.292383 64.685941 
L 204.292383 61.03604 
L 204.445045 61.03604 
L 204.445045 57.386139 
L 207.443352 57.386139 
L 207.443352 53.736238 
L 208.344625 53.736238 
L 208.344625 50.086337 
L 209.575916 50.086337 
L 209.575916 46.436436 
L 209.723576 46.436436 
L 209.723576 42.786535 
L 209.895028 42.786535 
L 209.976764 35.486733 
L 210.784844 35.486733 
L 210.784844 31.836832 
L 211.656046 31.836832 
L 211.656046 28.186931 
L 212.962064 28.186931 
L 212.962064 24.53703 
L 213.894125 24.53703 
L 213.929083 17.237228 
L 214.574857 17.237228 
L 214.574857 13.587327 
L 217.262605 13.587327 
L 217.262605 9.937426 
L 364.32 9.937426 
L 364.32 9.937426 
" style="fill:none;stroke:#bf00bf;stroke-linecap:square;"/>
   </g>
   <g id="line2d_4">
    <path clip-path="url(#p1b3964ba2e)" d="M 177.064299 283.68 
L 177.064299 280.030099 
L 179.20833 280.030099 
L 179.20833 276.380198 
L 180.190926 276.380198 
L 180.190926 272.730297 
L 180.553326 272.730297 
L 180.553326 269.080396 
L 181.252773 269.080396 
L 181.347716 261.780594 
L 183.075549 261.780594 
L 183.075549 258.130693 
L 183.357667 258.130693 
L 183.357667 254.480792 
L 183.668727 254.480792 
L 183.668727 250.830891 
L 184.2545 250.830891 
L 184.2545 247.18099 
L 184.82974 247.18099 
L 184.82974 243.531089 
L 185.463072 243.531089 
L 185.463072 239.881188 
L 185.77555 239.881188 
L 185.820188 232.581386 
L 185.99198 232.581386 
L 186.018007 225.281584 
L 186.356306 225.281584 
L 186.462992 214.331881 
L 186.521766 214.331881 
L 186.569009 207.032079 
L 187.108564 207.032079 
L 187.108564 203.382178 
L 187.258346 203.382178 
L 187.258346 199.732277 
L 187.552662 199.732277 
L 187.637628 192.432475 
L 187.971179 192.432475 
L 187.971179 188.782574 
L 188.29197 188.782574 
L 188.29197 185.132673 
L 189.050151 185.132673 
L 189.050151 181.482772 
L 189.183247 181.482772 
L 189.183247 177.832871 
L 190.354874 177.832871 
L 190.355066 170.533069 
L 190.731112 170.533069 
L 190.731112 166.883168 
L 191.923257 166.883168 
L 191.923257 163.233267 
L 192.279888 163.233267 
L 192.279888 159.583366 
L 192.392185 159.583366 
L 192.392185 155.933465 
L 193.352773 155.933465 
L 193.352773 152.283564 
L 193.72912 152.283564 
L 193.762859 144.983762 
L 193.9025 144.983762 
L 193.9025 141.333861 
L 194.020703 141.333861 
L 194.02739 134.034059 
L 194.232692 134.034059 
L 194.331863 119.434455 
L 194.615433 119.434455 
L 194.691054 112.134653 
L 195.311672 112.134653 
L 195.311672 108.484752 
L 195.586746 108.484752 
L 195.586746 104.834851 
L 195.775951 104.834851 
L 195.775951 101.18495 
L 196.249819 101.18495 
L 196.249819 97.53505 
L 196.580247 97.53505 
L 196.580247 93.885149 
L 197.175927 93.885149 
L 197.175927 90.235248 
L 197.707728 90.235248 
L 197.707728 86.585347 
L 197.935465 86.585347 
L 197.935465 82.935446 
L 198.661695 82.935446 
L 198.661695 79.285545 
L 199.162976 79.285545 
L 199.197523 71.985743 
L 199.946986 71.985743 
L 199.946986 68.335842 
L 200.156954 68.335842 
L 200.156954 64.685941 
L 201.29253 64.685941 
L 201.29253 61.03604 
L 203.118043 61.03604 
L 203.118043 57.386139 
L 204.202905 57.386139 
L 204.292383 50.086337 
L 204.445045 50.086337 
L 204.445045 46.436436 
L 204.688019 46.436436 
L 204.688019 42.786535 
L 204.827076 42.786535 
L 204.827076 39.136634 
L 205.862736 39.136634 
L 205.862736 35.486733 
L 206.040636 35.486733 
L 206.040636 31.836832 
L 208.658977 31.836832 
L 208.658977 28.186931 
L 208.823712 28.186931 
L 208.823712 24.53703 
L 209.69275 24.53703 
L 209.723576 17.237228 
L 212.089362 17.237228 
L 212.089362 13.587327 
L 214.438523 13.587327 
L 214.438523 9.937426 
L 364.32 9.937426 
L 364.32 9.937426 
" style="fill:none;stroke:#000000;stroke-linecap:square;"/>
   </g>
   <g id="line2d_5">
    <path clip-path="url(#p1b3964ba2e)" d="M 175.192088 283.68 
L 175.192088 280.030099 
L 177.064299 280.030099 
L 177.064299 276.380198 
L 177.436682 276.380198 
L 177.436682 272.730297 
L 177.858678 272.730297 
L 177.858678 269.080396 
L 178.034995 269.080396 
L 178.034995 265.430495 
L 178.878241 265.430495 
L 178.878241 261.780594 
L 179.20833 261.780594 
L 179.20833 258.130693 
L 179.977679 258.130693 
L 179.977679 254.480792 
L 180.190926 254.480792 
L 180.190926 250.830891 
L 180.553326 250.830891 
L 180.553326 247.18099 
L 180.984755 247.18099 
L 180.984755 243.531089 
L 182.415904 243.531089 
L 182.415904 239.881188 
L 182.726608 239.881188 
L 182.726608 236.231287 
L 182.938067 236.231287 
L 182.938067 232.581386 
L 183.075549 232.581386 
L 183.075549 228.931485 
L 183.668727 228.931485 
L 183.704542 221.631683 
L 184.165876 221.631683 
L 184.2545 214.331881 
L 184.293864 214.331881 
L 184.293864 210.68198 
L 184.765134 210.68198 
L 184.765134 207.032079 
L 185.073997 207.032079 
L 185.073997 203.382178 
L 185.463072 203.382178 
L 185.463072 199.732277 
L 185.820188 199.732277 
L 185.820188 196.082376 
L 185.972473 196.082376 
L 185.99198 188.782574 
L 186.104767 188.782574 
L 186.132702 181.482772 
L 186.394964 181.482772 
L 186.394964 177.832871 
L 186.521766 177.832871 
L 186.581237 170.533069 
L 187.091443 170.533069 
L 187.108564 163.233267 
L 187.216405 163.233267 
L 187.216405 159.583366 
L 187.552662 159.583366 
L 187.562018 152.283564 
L 187.683909 152.283564 
L 187.683909 148.633663 
L 188.386402 148.633663 
L 188.386402 144.983762 
L 188.683984 144.983762 
L 188.683984 141.333861 
L 188.828537 141.333861 
L 188.828537 137.68396 
L 189.110901 137.68396 
L 189.110901 134.034059 
L 190.354874 134.034059 
L 190.386319 126.734257 
L 190.772119 126.734257 
L 190.774093 119.434455 
L 191.923257 119.434455 
L 191.923257 115.784554 
L 192.104177 115.784554 
L 192.104177 112.134653 
L 192.644063 112.134653 
L 192.644063 108.484752 
L 193.1821 108.484752 
L 193.1821 104.834851 
L 193.352773 104.834851 
L 193.352773 101.18495 
L 193.72912 101.18495 
L 193.72912 97.53505 
L 193.9025 97.53505 
L 193.9025 93.885149 
L 194.020703 93.885149 
L 194.020703 90.235248 
L 194.628999 90.235248 
L 194.628999 86.585347 
L 195.401317 86.585347 
L 195.401317 82.935446 
L 195.586746 82.935446 
L 195.586746 79.285545 
L 195.775951 79.285545 
L 195.775951 75.635644 
L 195.975944 75.635644 
L 195.975944 71.985743 
L 197.066047 71.985743 
L 197.066047 68.335842 
L 198.661695 68.335842 
L 198.661695 64.685941 
L 200.820221 64.685941 
L 200.820221 61.03604 
L 201.29253 61.03604 
L 201.29253 57.386139 
L 201.688405 57.386139 
L 201.688405 53.736238 
L 202.54626 53.736238 
L 202.54626 50.086337 
L 202.988859 50.086337 
L 202.988859 46.436436 
L 203.347101 46.436436 
L 203.347101 42.786535 
L 203.573219 42.786535 
L 203.573219 39.136634 
L 204.202905 39.136634 
L 204.292383 31.836832 
L 204.445045 31.836832 
L 204.445045 28.186931 
L 205.596871 28.186931 
L 205.596871 24.53703 
L 206.040636 24.53703 
L 206.040636 20.887129 
L 206.678041 20.887129 
L 206.678041 17.237228 
L 207.224226 17.237228 
L 207.224226 13.587327 
L 210.279006 13.587327 
L 210.279006 9.937426 
L 364.32 9.937426 
L 364.32 9.937426 
" style="fill:none;stroke:#00bfbf;stroke-linecap:square;"/>
   </g>
   <g id="line2d_6">
    <path clip-path="url(#p1b3964ba2e)" d="M 174.100593 283.68 
L 174.100593 280.030099 
L 174.621751 280.030099 
L 174.621751 276.380198 
L 174.823407 276.380198 
L 174.823407 272.730297 
L 175.191982 272.730297 
L 175.191982 269.080396 
L 175.335932 269.080396 
L 175.335932 265.430495 
L 175.675765 265.430495 
L 175.758639 258.130693 
L 177.064299 258.130693 
L 177.150429 250.830891 
L 177.414169 250.830891 
L 177.436682 243.531089 
L 177.858446 243.531089 
L 177.858446 239.881188 
L 178.034995 239.881188 
L 178.034995 236.231287 
L 178.613861 236.231287 
L 178.664091 228.931485 
L 178.834621 228.931485 
L 178.928581 221.631683 
L 179.105721 221.631683 
L 179.20833 214.331881 
L 179.292407 214.331881 
L 179.357813 203.382178 
L 179.49967 203.382178 
L 179.49967 199.732277 
L 179.62754 199.732277 
L 179.645033 192.432475 
L 179.918413 192.432475 
L 179.918413 188.782574 
L 180.450508 188.782574 
L 180.450508 185.132673 
L 180.843687 185.132673 
L 180.943953 170.533069 
L 181.092604 170.533069 
L 181.092604 166.883168 
L 181.77346 166.883168 
L 181.77346 163.233267 
L 182.770723 163.233267 
L 182.85092 155.933465 
L 182.910216 155.933465 
L 182.910216 152.283564 
L 183.757887 152.283564 
L 183.757887 148.633663 
L 184.609335 148.633663 
L 184.609335 144.983762 
L 184.765134 144.983762 
L 184.765134 141.333861 
L 185.171505 141.333861 
L 185.171505 137.68396 
L 185.723308 137.68396 
L 185.723308 134.034059 
L 185.872162 134.034059 
L 185.917434 126.734257 
L 186.521766 126.734257 
L 186.521766 123.084356 
L 186.782195 123.084356 
L 186.782195 119.434455 
L 187.181078 119.434455 
L 187.181078 115.784554 
L 187.472792 115.784554 
L 187.472792 112.134653 
L 187.867553 112.134653 
L 187.867553 108.484752 
L 188.415086 108.484752 
L 188.415086 104.834851 
L 188.751952 104.834851 
L 188.751952 101.18495 
L 188.988027 101.18495 
L 188.988027 97.53505 
L 189.247469 97.53505 
L 189.247469 93.885149 
L 189.791262 93.885149 
L 189.791262 90.235248 
L 190.351679 90.235248 
L 190.351679 86.585347 
L 191.284765 86.585347 
L 191.29826 79.285545 
L 191.705975 79.285545 
L 191.814292 71.985743 
L 192.104177 71.985743 
L 192.104177 68.335842 
L 192.585226 68.335842 
L 192.585226 64.685941 
L 197.130415 64.685941 
L 197.130415 61.03604 
L 197.274675 61.03604 
L 197.274675 57.386139 
L 198.268371 57.386139 
L 198.268371 53.736238 
L 198.584328 53.736238 
L 198.584328 50.086337 
L 199.03352 50.086337 
L 199.03352 46.436436 
L 199.222246 46.436436 
L 199.222246 42.786535 
L 200.426124 42.786535 
L 200.426124 39.136634 
L 200.691017 39.136634 
L 200.691017 35.486733 
L 201.688259 35.486733 
L 201.688259 31.836832 
L 201.984415 31.836832 
L 201.984415 28.186931 
L 202.129669 28.186931 
L 202.192744 20.887129 
L 202.532038 20.887129 
L 202.532038 17.237228 
L 202.98797 17.237228 
L 202.98797 13.587327 
L 203.347101 13.587327 
L 203.347101 9.937426 
L 364.32 9.937426 
L 364.32 9.937426 
" style="fill:none;stroke:#bf00bf;stroke-linecap:square;"/>
   </g>
   <g id="patch_3">
    <path d="M 7.2 7.2 
L 364.32 7.2 
" style="fill:none;stroke:#000000;stroke-linecap:square;stroke-linejoin:miter;"/>
   </g>
   <g id="patch_4">
    <path d="M 364.32 283.68 
L 364.32 7.2 
" style="fill:none;stroke:#000000;stroke-linecap:square;stroke-linejoin:miter;"/>
   </g>
   <g id="patch_5">
    <path d="M 7.2 283.68 
L 364.32 283.68 
" style="fill:none;stroke:#000000;stroke-linecap:square;stroke-linejoin:miter;"/>
   </g>
   <g id="patch_6">
    <path d="M 7.2 283.68 
L 7.2 7.2 
" style="fill:none;stroke:#000000;stroke-linecap:square;stroke-linejoin:miter;"/>
   </g>
   <g id="matplotlib.axis_1">
    <g id="xtick_1">
     <g id="line2d_7">
      <path clip-path="url(#p1b3964ba2e)" d="M 46.803772 283.68 
L 46.803772 7.2 
" style="fill:none;stroke:#000000;stroke-dasharray:1.000000,3.000000;stroke-dashoffset:0.0;stroke-width:0.5;"/>
     </g>
     <g id="line2d_8">
      <defs>
       <path d="M 0 0 
L 0 -4 
" id="ma26b14d23f" style="stroke:#000000;stroke-width:0.5;"/>
      </defs>
      <g>
       <use style="stroke:#000000;stroke-width:0.5;" x="46.803771872" xlink:href="#ma26b14d23f" y="283.68"/>
      </g>
     </g>
     <g id="line2d_9">
      <defs>
       <path d="M 0 0 
L 0 4 
" id="m8299987d1d" style="stroke:#000000;stroke-width:0.5;"/>
      </defs>
      <g>
       <use style="stroke:#000000;stroke-width:0.5;" x="46.803771872" xlink:href="#m8299987d1d" y="7.2"/>
      </g>
     </g>
     <g id="text_1">
      <!-- -6 -->
      <defs>
       <path d="M 33.015625 40.375 
Q 26.375 40.375 22.484375 35.828125 
Q 18.609375 31.296875 18.609375 23.390625 
Q 18.609375 15.53125 22.484375 10.953125 
Q 26.375 6.390625 33.015625 6.390625 
Q 39.65625 6.390625 43.53125 10.953125 
Q 47.40625 15.53125 47.40625 23.390625 
Q 47.40625 31.296875 43.53125 35.828125 
Q 39.65625 40.375 33.015625 40.375 
M 52.59375 71.296875 
L 52.59375 62.3125 
Q 48.875 64.0625 45.09375 64.984375 
Q 41.3125 65.921875 37.59375 65.921875 
Q 27.828125 65.921875 22.671875 59.328125 
Q 17.53125 52.734375 16.796875 39.40625 
Q 19.671875 43.65625 24.015625 45.921875 
Q 28.375 48.1875 33.59375 48.1875 
Q 44.578125 48.1875 50.953125 41.515625 
Q 57.328125 34.859375 57.328125 23.390625 
Q 57.328125 12.15625 50.6875 5.359375 
Q 44.046875 -1.421875 33.015625 -1.421875 
Q 20.359375 -1.421875 13.671875 8.265625 
Q 6.984375 17.96875 6.984375 36.375 
Q 6.984375 53.65625 15.1875 63.9375 
Q 23.390625 74.21875 37.203125 74.21875 
Q 40.921875 74.21875 44.703125 73.484375 
Q 48.484375 72.75 52.59375 71.296875 
" id="BitstreamVeraSans-Roman-36"/>
       <path d="M 4.890625 31.390625 
L 31.203125 31.390625 
L 31.203125 23.390625 
L 4.890625 23.390625 
z
" id="BitstreamVeraSans-Roman-2d"/>
      </defs>
      <g transform="translate(36.833459372 302.876875)scale(0.2 -0.2)">
       <use xlink:href="#BitstreamVeraSans-Roman-2d"/>
       <use x="36.083984375" xlink:href="#BitstreamVeraSans-Roman-36"/>
      </g>
     </g>
    </g>
    <g id="xtick_2">
     <g id="line2d_10">
      <path clip-path="url(#p1b3964ba2e)" d="M 86.4933 283.68 
L 86.4933 7.2 
" style="fill:none;stroke:#000000;stroke-dasharray:1.000000,3.000000;stroke-dashoffset:0.0;stroke-width:0.5;"/>
     </g>
     <g id="line2d_11">
      <g>
       <use style="stroke:#000000;stroke-width:0.5;" x="86.493300388" xlink:href="#ma26b14d23f" y="283.68"/>
      </g>
     </g>
     <g id="line2d_12">
      <g>
       <use style="stroke:#000000;stroke-width:0.5;" x="86.493300388" xlink:href="#m8299987d1d" y="7.2"/>
      </g>
     </g>
     <g id="text_2">
      <!-- -4 -->
      <defs>
       <path d="M 37.796875 64.3125 
L 12.890625 25.390625 
L 37.796875 25.390625 
z
M 35.203125 72.90625 
L 47.609375 72.90625 
L 47.609375 25.390625 
L 58.015625 25.390625 
L 58.015625 17.1875 
L 47.609375 17.1875 
L 47.609375 0 
L 37.796875 0 
L 37.796875 17.1875 
L 4.890625 17.1875 
L 4.890625 26.703125 
z
" id="BitstreamVeraSans-Roman-34"/>
      </defs>
      <g transform="translate(76.522987888 302.876875)scale(0.2 -0.2)">
       <use xlink:href="#BitstreamVeraSans-Roman-2d"/>
       <use x="36.083984375" xlink:href="#BitstreamVeraSans-Roman-34"/>
      </g>
     </g>
    </g>
    <g id="xtick_3">
     <g id="line2d_13">
      <path clip-path="url(#p1b3964ba2e)" d="M 126.182829 283.68 
L 126.182829 7.2 
" style="fill:none;stroke:#000000;stroke-dasharray:1.000000,3.000000;stroke-dashoffset:0.0;stroke-width:0.5;"/>
     </g>
     <g id="line2d_14">
      <g>
       <use style="stroke:#000000;stroke-width:0.5;" x="126.182828904" xlink:href="#ma26b14d23f" y="283.68"/>
      </g>
     </g>
     <g id="line2d_15">
      <g>
       <use style="stroke:#000000;stroke-width:0.5;" x="126.182828904" xlink:href="#m8299987d1d" y="7.2"/>
      </g>
     </g>
     <g id="text_3">
      <!-- -2 -->
      <defs>
       <path d="M 19.1875 8.296875 
L 53.609375 8.296875 
L 53.609375 0 
L 7.328125 0 
L 7.328125 8.296875 
Q 12.9375 14.109375 22.625 23.890625 
Q 32.328125 33.6875 34.8125 36.53125 
Q 39.546875 41.84375 41.421875 45.53125 
Q 43.3125 49.21875 43.3125 52.78125 
Q 43.3125 58.59375 39.234375 62.25 
Q 35.15625 65.921875 28.609375 65.921875 
Q 23.96875 65.921875 18.8125 64.3125 
Q 13.671875 62.703125 7.8125 59.421875 
L 7.8125 69.390625 
Q 13.765625 71.78125 18.9375 73 
Q 24.125 74.21875 28.421875 74.21875 
Q 39.75 74.21875 46.484375 68.546875 
Q 53.21875 62.890625 53.21875 53.421875 
Q 53.21875 48.921875 51.53125 44.890625 
Q 49.859375 40.875 45.40625 35.40625 
Q 44.1875 33.984375 37.640625 27.21875 
Q 31.109375 20.453125 19.1875 8.296875 
" id="BitstreamVeraSans-Roman-32"/>
      </defs>
      <g transform="translate(116.212516404 302.876875)scale(0.2 -0.2)">
       <use xlink:href="#BitstreamVeraSans-Roman-2d"/>
       <use x="36.083984375" xlink:href="#BitstreamVeraSans-Roman-32"/>
      </g>
     </g>
    </g>
    <g id="xtick_4">
     <g id="line2d_16">
      <path clip-path="url(#p1b3964ba2e)" d="M 165.872357 283.68 
L 165.872357 7.2 
" style="fill:none;stroke:#000000;stroke-dasharray:1.000000,3.000000;stroke-dashoffset:0.0;stroke-width:0.5;"/>
     </g>
     <g id="line2d_17">
      <g>
       <use style="stroke:#000000;stroke-width:0.5;" x="165.87235742" xlink:href="#ma26b14d23f" y="283.68"/>
      </g>
     </g>
     <g id="line2d_18">
      <g>
       <use style="stroke:#000000;stroke-width:0.5;" x="165.87235742" xlink:href="#m8299987d1d" y="7.2"/>
      </g>
     </g>
     <g id="text_4">
      <!-- 0 -->
      <defs>
       <path d="M 31.78125 66.40625 
Q 24.171875 66.40625 20.328125 58.90625 
Q 16.5 51.421875 16.5 36.375 
Q 16.5 21.390625 20.328125 13.890625 
Q 24.171875 6.390625 31.78125 6.390625 
Q 39.453125 6.390625 43.28125 13.890625 
Q 47.125 21.390625 47.125 36.375 
Q 47.125 51.421875 43.28125 58.90625 
Q 39.453125 66.40625 31.78125 66.40625 
M 31.78125 74.21875 
Q 44.046875 74.21875 50.515625 64.515625 
Q 56.984375 54.828125 56.984375 36.375 
Q 56.984375 17.96875 50.515625 8.265625 
Q 44.046875 -1.421875 31.78125 -1.421875 
Q 19.53125 -1.421875 13.0625 8.265625 
Q 6.59375 17.96875 6.59375 36.375 
Q 6.59375 54.828125 13.0625 64.515625 
Q 19.53125 74.21875 31.78125 74.21875 
" id="BitstreamVeraSans-Roman-30"/>
      </defs>
      <g transform="translate(159.50985742 302.876875)scale(0.2 -0.2)">
       <use xlink:href="#BitstreamVeraSans-Roman-30"/>
      </g>
     </g>
    </g>
    <g id="xtick_5">
     <g id="line2d_19">
      <path clip-path="url(#p1b3964ba2e)" d="M 205.561886 283.68 
L 205.561886 7.2 
" style="fill:none;stroke:#000000;stroke-dasharray:1.000000,3.000000;stroke-dashoffset:0.0;stroke-width:0.5;"/>
     </g>
     <g id="line2d_20">
      <g>
       <use style="stroke:#000000;stroke-width:0.5;" x="205.561885936" xlink:href="#ma26b14d23f" y="283.68"/>
      </g>
     </g>
     <g id="line2d_21">
      <g>
       <use style="stroke:#000000;stroke-width:0.5;" x="205.561885936" xlink:href="#m8299987d1d" y="7.2"/>
      </g>
     </g>
     <g id="text_5">
      <!-- 2 -->
      <g transform="translate(199.199385936 302.876875)scale(0.2 -0.2)">
       <use xlink:href="#BitstreamVeraSans-Roman-32"/>
      </g>
     </g>
    </g>
    <g id="xtick_6">
     <g id="line2d_22">
      <path clip-path="url(#p1b3964ba2e)" d="M 245.251414 283.68 
L 245.251414 7.2 
" style="fill:none;stroke:#000000;stroke-dasharray:1.000000,3.000000;stroke-dashoffset:0.0;stroke-width:0.5;"/>
     </g>
     <g id="line2d_23">
      <g>
       <use style="stroke:#000000;stroke-width:0.5;" x="245.251414452" xlink:href="#ma26b14d23f" y="283.68"/>
      </g>
     </g>
     <g id="line2d_24">
      <g>
       <use style="stroke:#000000;stroke-width:0.5;" x="245.251414452" xlink:href="#m8299987d1d" y="7.2"/>
      </g>
     </g>
     <g id="text_6">
      <!-- 4 -->
      <g transform="translate(238.888914452 302.876875)scale(0.2 -0.2)">
       <use xlink:href="#BitstreamVeraSans-Roman-34"/>
      </g>
     </g>
    </g>
    <g id="xtick_7">
     <g id="line2d_25">
      <path clip-path="url(#p1b3964ba2e)" d="M 284.940943 283.68 
L 284.940943 7.2 
" style="fill:none;stroke:#000000;stroke-dasharray:1.000000,3.000000;stroke-dashoffset:0.0;stroke-width:0.5;"/>
     </g>
     <g id="line2d_26">
      <g>
       <use style="stroke:#000000;stroke-width:0.5;" x="284.940942968" xlink:href="#ma26b14d23f" y="283.68"/>
      </g>
     </g>
     <g id="line2d_27">
      <g>
       <use style="stroke:#000000;stroke-width:0.5;" x="284.940942968" xlink:href="#m8299987d1d" y="7.2"/>
      </g>
     </g>
     <g id="text_7">
      <!-- 6 -->
      <g transform="translate(278.578442968 302.876875)scale(0.2 -0.2)">
       <use xlink:href="#BitstreamVeraSans-Roman-36"/>
      </g>
     </g>
    </g>
    <g id="xtick_8">
     <g id="line2d_28">
      <path clip-path="url(#p1b3964ba2e)" d="M 324.630471 283.68 
L 324.630471 7.2 
" style="fill:none;stroke:#000000;stroke-dasharray:1.000000,3.000000;stroke-dashoffset:0.0;stroke-width:0.5;"/>
     </g>
     <g id="line2d_29">
      <g>
       <use style="stroke:#000000;stroke-width:0.5;" x="324.630471484" xlink:href="#ma26b14d23f" y="283.68"/>
      </g>
     </g>
     <g id="line2d_30">
      <g>
       <use style="stroke:#000000;stroke-width:0.5;" x="324.630471484" xlink:href="#m8299987d1d" y="7.2"/>
      </g>
     </g>
     <g id="text_8">
      <!-- 8 -->
      <defs>
       <path d="M 31.78125 34.625 
Q 24.75 34.625 20.71875 30.859375 
Q 16.703125 27.09375 16.703125 20.515625 
Q 16.703125 13.921875 20.71875 10.15625 
Q 24.75 6.390625 31.78125 6.390625 
Q 38.8125 6.390625 42.859375 10.171875 
Q 46.921875 13.96875 46.921875 20.515625 
Q 46.921875 27.09375 42.890625 30.859375 
Q 38.875 34.625 31.78125 34.625 
M 21.921875 38.8125 
Q 15.578125 40.375 12.03125 44.71875 
Q 8.5 49.078125 8.5 55.328125 
Q 8.5 64.0625 14.71875 69.140625 
Q 20.953125 74.21875 31.78125 74.21875 
Q 42.671875 74.21875 48.875 69.140625 
Q 55.078125 64.0625 55.078125 55.328125 
Q 55.078125 49.078125 51.53125 44.71875 
Q 48 40.375 41.703125 38.8125 
Q 48.828125 37.15625 52.796875 32.3125 
Q 56.78125 27.484375 56.78125 20.515625 
Q 56.78125 9.90625 50.3125 4.234375 
Q 43.84375 -1.421875 31.78125 -1.421875 
Q 19.734375 -1.421875 13.25 4.234375 
Q 6.78125 9.90625 6.78125 20.515625 
Q 6.78125 27.484375 10.78125 32.3125 
Q 14.796875 37.15625 21.921875 38.8125 
M 18.3125 54.390625 
Q 18.3125 48.734375 21.84375 45.5625 
Q 25.390625 42.390625 31.78125 42.390625 
Q 38.140625 42.390625 41.71875 45.5625 
Q 45.3125 48.734375 45.3125 54.390625 
Q 45.3125 60.0625 41.71875 63.234375 
Q 38.140625 66.40625 31.78125 66.40625 
Q 25.390625 66.40625 21.84375 63.234375 
Q 18.3125 60.0625 18.3125 54.390625 
" id="BitstreamVeraSans-Roman-38"/>
      </defs>
      <g transform="translate(318.267971484 302.876875)scale(0.2 -0.2)">
       <use xlink:href="#BitstreamVeraSans-Roman-38"/>
      </g>
     </g>
    </g>
    <g id="xtick_9">
     <g id="line2d_31">
      <path clip-path="url(#p1b3964ba2e)" d="M 364.32 283.68 
L 364.32 7.2 
" style="fill:none;stroke:#000000;stroke-dasharray:1.000000,3.000000;stroke-dashoffset:0.0;stroke-width:0.5;"/>
     </g>
     <g id="line2d_32">
      <g>
       <use style="stroke:#000000;stroke-width:0.5;" x="364.32" xlink:href="#ma26b14d23f" y="283.68"/>
      </g>
     </g>
     <g id="line2d_33">
      <g>
       <use style="stroke:#000000;stroke-width:0.5;" x="364.32" xlink:href="#m8299987d1d" y="7.2"/>
      </g>
     </g>
    </g>
    <g id="xtick_10">
     <g id="line2d_34">
      <defs>
       <path d="M 0 0 
L 0 -2 
" id="m7649128c71" style="stroke:#000000;stroke-width:0.5;"/>
      </defs>
      <g>
       <use style="stroke:#000000;stroke-width:0.5;" x="46.803771872" xlink:href="#m7649128c71" y="283.68"/>
      </g>
     </g>
     <g id="line2d_35">
      <defs>
       <path d="M 0 0 
L 0 2 
" id="m8b889ea936" style="stroke:#000000;stroke-width:0.5;"/>
      </defs>
      <g>
       <use style="stroke:#000000;stroke-width:0.5;" x="46.803771872" xlink:href="#m8b889ea936" y="7.2"/>
      </g>
     </g>
    </g>
    <g id="xtick_11">
     <g id="line2d_36">
      <g>
       <use style="stroke:#000000;stroke-width:0.5;" x="86.493300388" xlink:href="#m7649128c71" y="283.68"/>
      </g>
     </g>
     <g id="line2d_37">
      <g>
       <use style="stroke:#000000;stroke-width:0.5;" x="86.493300388" xlink:href="#m8b889ea936" y="7.2"/>
      </g>
     </g>
    </g>
    <g id="xtick_12">
     <g id="line2d_38">
      <g>
       <use style="stroke:#000000;stroke-width:0.5;" x="126.182828904" xlink:href="#m7649128c71" y="283.68"/>
      </g>
     </g>
     <g id="line2d_39">
      <g>
       <use style="stroke:#000000;stroke-width:0.5;" x="126.182828904" xlink:href="#m8b889ea936" y="7.2"/>
      </g>
     </g>
    </g>
    <g id="xtick_13">
     <g id="line2d_40">
      <g>
       <use style="stroke:#000000;stroke-width:0.5;" x="165.87235742" xlink:href="#m7649128c71" y="283.68"/>
      </g>
     </g>
     <g id="line2d_41">
      <g>
       <use style="stroke:#000000;stroke-width:0.5;" x="165.87235742" xlink:href="#m8b889ea936" y="7.2"/>
      </g>
     </g>
    </g>
    <g id="xtick_14">
     <g id="line2d_42">
      <g>
       <use style="stroke:#000000;stroke-width:0.5;" x="205.561885936" xlink:href="#m7649128c71" y="283.68"/>
      </g>
     </g>
     <g id="line2d_43">
      <g>
       <use style="stroke:#000000;stroke-width:0.5;" x="205.561885936" xlink:href="#m8b889ea936" y="7.2"/>
      </g>
     </g>
    </g>
    <g id="xtick_15">
     <g id="line2d_44">
      <g>
       <use style="stroke:#000000;stroke-width:0.5;" x="245.251414452" xlink:href="#m7649128c71" y="283.68"/>
      </g>
     </g>
     <g id="line2d_45">
      <g>
       <use style="stroke:#000000;stroke-width:0.5;" x="245.251414452" xlink:href="#m8b889ea936" y="7.2"/>
      </g>
     </g>
    </g>
    <g id="xtick_16">
     <g id="line2d_46">
      <g>
       <use style="stroke:#000000;stroke-width:0.5;" x="284.940942968" xlink:href="#m7649128c71" y="283.68"/>
      </g>
     </g>
     <g id="line2d_47">
      <g>
       <use style="stroke:#000000;stroke-width:0.5;" x="284.940942968" xlink:href="#m8b889ea936" y="7.2"/>
      </g>
     </g>
    </g>
    <g id="xtick_17">
     <g id="line2d_48">
      <g>
       <use style="stroke:#000000;stroke-width:0.5;" x="324.630471484" xlink:href="#m7649128c71" y="283.68"/>
      </g>
     </g>
     <g id="line2d_49">
      <g>
       <use style="stroke:#000000;stroke-width:0.5;" x="324.630471484" xlink:href="#m8b889ea936" y="7.2"/>
      </g>
     </g>
    </g>
    <g id="xtick_18">
     <g id="line2d_50">
      <g>
       <use style="stroke:#000000;stroke-width:0.5;" x="364.32" xlink:href="#m7649128c71" y="283.68"/>
      </g>
     </g>
     <g id="line2d_51">
      <g>
       <use style="stroke:#000000;stroke-width:0.5;" x="364.32" xlink:href="#m8b889ea936" y="7.2"/>
      </g>
     </g>
    </g>
    <g id="text_9">
     <!-- log10 of Df -->
     <defs>
      <path id="BitstreamVeraSans-Roman-20"/>
      <path d="M 12.40625 8.296875 
L 28.515625 8.296875 
L 28.515625 63.921875 
L 10.984375 60.40625 
L 10.984375 69.390625 
L 28.421875 72.90625 
L 38.28125 72.90625 
L 38.28125 8.296875 
L 54.390625 8.296875 
L 54.390625 0 
L 12.40625 0 
z
" id="BitstreamVeraSans-Roman-31"/>
      <path d="M 30.609375 48.390625 
Q 23.390625 48.390625 19.1875 42.75 
Q 14.984375 37.109375 14.984375 27.296875 
Q 14.984375 17.484375 19.15625 11.84375 
Q 23.34375 6.203125 30.609375 6.203125 
Q 37.796875 6.203125 41.984375 11.859375 
Q 46.1875 17.53125 46.1875 27.296875 
Q 46.1875 37.015625 41.984375 42.703125 
Q 37.796875 48.390625 30.609375 48.390625 
M 30.609375 56 
Q 42.328125 56 49.015625 48.375 
Q 55.71875 40.765625 55.71875 27.296875 
Q 55.71875 13.875 49.015625 6.21875 
Q 42.328125 -1.421875 30.609375 -1.421875 
Q 18.84375 -1.421875 12.171875 6.21875 
Q 5.515625 13.875 5.515625 27.296875 
Q 5.515625 40.765625 12.171875 48.375 
Q 18.84375 56 30.609375 56 
" id="BitstreamVeraSans-Roman-6f"/>
      <path d="M 9.421875 75.984375 
L 18.40625 75.984375 
L 18.40625 0 
L 9.421875 0 
z
" id="BitstreamVeraSans-Roman-6c"/>
      <path d="M 19.671875 64.796875 
L 19.671875 8.109375 
L 31.59375 8.109375 
Q 46.6875 8.109375 53.6875 14.9375 
Q 60.6875 21.78125 60.6875 36.53125 
Q 60.6875 51.171875 53.6875 57.984375 
Q 46.6875 64.796875 31.59375 64.796875 
z
M 9.8125 72.90625 
L 30.078125 72.90625 
Q 51.265625 72.90625 61.171875 64.09375 
Q 71.09375 55.28125 71.09375 36.53125 
Q 71.09375 17.671875 61.125 8.828125 
Q 51.171875 0 30.078125 0 
L 9.8125 0 
z
" id="BitstreamVeraSans-Roman-44"/>
      <path d="M 45.40625 27.984375 
Q 45.40625 37.75 41.375 43.109375 
Q 37.359375 48.484375 30.078125 48.484375 
Q 22.859375 48.484375 18.828125 43.109375 
Q 14.796875 37.75 14.796875 27.984375 
Q 14.796875 18.265625 18.828125 12.890625 
Q 22.859375 7.515625 30.078125 7.515625 
Q 37.359375 7.515625 41.375 12.890625 
Q 45.40625 18.265625 45.40625 27.984375 
M 54.390625 6.78125 
Q 54.390625 -7.171875 48.1875 -13.984375 
Q 42 -20.796875 29.203125 -20.796875 
Q 24.46875 -20.796875 20.265625 -20.09375 
Q 16.0625 -19.390625 12.109375 -17.921875 
L 12.109375 -9.1875 
Q 16.0625 -11.328125 19.921875 -12.34375 
Q 23.78125 -13.375 27.78125 -13.375 
Q 36.625 -13.375 41.015625 -8.765625 
Q 45.40625 -4.15625 45.40625 5.171875 
L 45.40625 9.625 
Q 42.625 4.78125 38.28125 2.390625 
Q 33.9375 0 27.875 0 
Q 17.828125 0 11.671875 7.65625 
Q 5.515625 15.328125 5.515625 27.984375 
Q 5.515625 40.671875 11.671875 48.328125 
Q 17.828125 56 27.875 56 
Q 33.9375 56 38.28125 53.609375 
Q 42.625 51.21875 45.40625 46.390625 
L 45.40625 54.6875 
L 54.390625 54.6875 
z
" id="BitstreamVeraSans-Roman-67"/>
      <path d="M 37.109375 75.984375 
L 37.109375 68.5 
L 28.515625 68.5 
Q 23.6875 68.5 21.796875 66.546875 
Q 19.921875 64.59375 19.921875 59.515625 
L 19.921875 54.6875 
L 34.71875 54.6875 
L 34.71875 47.703125 
L 19.921875 47.703125 
L 19.921875 0 
L 10.890625 0 
L 10.890625 47.703125 
L 2.296875 47.703125 
L 2.296875 54.6875 
L 10.890625 54.6875 
L 10.890625 58.5 
Q 10.890625 67.625 15.140625 71.796875 
Q 19.390625 75.984375 28.609375 75.984375 
z
" id="BitstreamVeraSans-Roman-66"/>
     </defs>
     <g transform="translate(130.5740625 327.233125)scale(0.2 -0.2)">
      <use xlink:href="#BitstreamVeraSans-Roman-6c"/>
      <use x="27.783203125" xlink:href="#BitstreamVeraSans-Roman-6f"/>
      <use x="88.96484375" xlink:href="#BitstreamVeraSans-Roman-67"/>
      <use x="152.44140625" xlink:href="#BitstreamVeraSans-Roman-31"/>
      <use x="216.064453125" xlink:href="#BitstreamVeraSans-Roman-30"/>
      <use x="279.6875" xlink:href="#BitstreamVeraSans-Roman-20"/>
      <use x="311.474609375" xlink:href="#BitstreamVeraSans-Roman-6f"/>
      <use x="372.65625" xlink:href="#BitstreamVeraSans-Roman-66"/>
      <use x="407.861328125" xlink:href="#BitstreamVeraSans-Roman-20"/>
      <use x="439.6484375" xlink:href="#BitstreamVeraSans-Roman-44"/>
      <use x="516.650390625" xlink:href="#BitstreamVeraSans-Roman-66"/>
     </g>
    </g>
   </g>
   <g id="matplotlib.axis_2">
    <g id="ytick_1">
     <g id="line2d_52">
      <path clip-path="url(#p1b3964ba2e)" d="M 7.2 283.68 
L 364.32 283.68 
" style="fill:none;stroke:#000000;stroke-dasharray:1.000000,3.000000;stroke-dashoffset:0.0;stroke-width:0.5;"/>
     </g>
     <g id="line2d_53">
      <defs>
       <path d="M 0 0 
L 4 0 
" id="mcc14e3af36" style="stroke:#000000;stroke-width:0.5;"/>
      </defs>
      <g>
       <use style="stroke:#000000;stroke-width:0.5;" x="7.2" xlink:href="#mcc14e3af36" y="283.68"/>
      </g>
     </g>
     <g id="line2d_54">
      <defs>
       <path d="M 0 0 
L -4 0 
" id="m3dfb1345a8" style="stroke:#000000;stroke-width:0.5;"/>
      </defs>
      <g>
       <use style="stroke:#000000;stroke-width:0.5;" x="364.32" xlink:href="#m3dfb1345a8" y="283.68"/>
      </g>
     </g>
    </g>
    <g id="ytick_2">
     <g id="line2d_55">
      <path clip-path="url(#p1b3964ba2e)" d="M 7.2 228.931485 
L 364.32 228.931485 
" style="fill:none;stroke:#000000;stroke-dasharray:1.000000,3.000000;stroke-dashoffset:0.0;stroke-width:0.5;"/>
     </g>
     <g id="line2d_56">
      <g>
       <use style="stroke:#000000;stroke-width:0.5;" x="7.2" xlink:href="#mcc14e3af36" y="228.931485149"/>
      </g>
     </g>
     <g id="line2d_57">
      <g>
       <use style="stroke:#000000;stroke-width:0.5;" x="364.32" xlink:href="#m3dfb1345a8" y="228.931485149"/>
      </g>
     </g>
    </g>
    <g id="ytick_3">
     <g id="line2d_58">
      <path clip-path="url(#p1b3964ba2e)" d="M 7.2 174.18297 
L 364.32 174.18297 
" style="fill:none;stroke:#000000;stroke-dasharray:1.000000,3.000000;stroke-dashoffset:0.0;stroke-width:0.5;"/>
     </g>
     <g id="line2d_59">
      <g>
       <use style="stroke:#000000;stroke-width:0.5;" x="7.2" xlink:href="#mcc14e3af36" y="174.182970297"/>
      </g>
     </g>
     <g id="line2d_60">
      <g>
       <use style="stroke:#000000;stroke-width:0.5;" x="364.32" xlink:href="#m3dfb1345a8" y="174.182970297"/>
      </g>
     </g>
    </g>
    <g id="ytick_4">
     <g id="line2d_61">
      <path clip-path="url(#p1b3964ba2e)" d="M 7.2 119.434455 
L 364.32 119.434455 
" style="fill:none;stroke:#000000;stroke-dasharray:1.000000,3.000000;stroke-dashoffset:0.0;stroke-width:0.5;"/>
     </g>
     <g id="line2d_62">
      <g>
       <use style="stroke:#000000;stroke-width:0.5;" x="7.2" xlink:href="#mcc14e3af36" y="119.434455446"/>
      </g>
     </g>
     <g id="line2d_63">
      <g>
       <use style="stroke:#000000;stroke-width:0.5;" x="364.32" xlink:href="#m3dfb1345a8" y="119.434455446"/>
      </g>
     </g>
    </g>
    <g id="ytick_5">
     <g id="line2d_64">
      <path clip-path="url(#p1b3964ba2e)" d="M 7.2 64.685941 
L 364.32 64.685941 
" style="fill:none;stroke:#000000;stroke-dasharray:1.000000,3.000000;stroke-dashoffset:0.0;stroke-width:0.5;"/>
     </g>
     <g id="line2d_65">
      <g>
       <use style="stroke:#000000;stroke-width:0.5;" x="7.2" xlink:href="#mcc14e3af36" y="64.6859405941"/>
      </g>
     </g>
     <g id="line2d_66">
      <g>
       <use style="stroke:#000000;stroke-width:0.5;" x="364.32" xlink:href="#m3dfb1345a8" y="64.6859405941"/>
      </g>
     </g>
    </g>
    <g id="ytick_6">
     <g id="line2d_67">
      <path clip-path="url(#p1b3964ba2e)" d="M 7.2 9.937426 
L 364.32 9.937426 
" style="fill:none;stroke:#000000;stroke-dasharray:1.000000,3.000000;stroke-dashoffset:0.0;stroke-width:0.5;"/>
     </g>
     <g id="line2d_68">
      <g>
       <use style="stroke:#000000;stroke-width:0.5;" x="7.2" xlink:href="#mcc14e3af36" y="9.93742574257"/>
      </g>
     </g>
     <g id="line2d_69">
      <g>
       <use style="stroke:#000000;stroke-width:0.5;" x="364.32" xlink:href="#m3dfb1345a8" y="9.93742574257"/>
      </g>
     </g>
    </g>
   </g>
   <g id="text_10">
    <!-- f15-19,5-D -->
    <defs>
     <path d="M 11.71875 12.40625 
L 22.015625 12.40625 
L 22.015625 4 
L 14.015625 -11.625 
L 7.71875 -11.625 
L 11.71875 4 
z
" id="BitstreamVeraSans-Roman-2c"/>
     <path d="M 10.984375 1.515625 
L 10.984375 10.5 
Q 14.703125 8.734375 18.5 7.8125 
Q 22.3125 6.890625 25.984375 6.890625 
Q 35.75 6.890625 40.890625 13.453125 
Q 46.046875 20.015625 46.78125 33.40625 
Q 43.953125 29.203125 39.59375 26.953125 
Q 35.25 24.703125 29.984375 24.703125 
Q 19.046875 24.703125 12.671875 31.3125 
Q 6.296875 37.9375 6.296875 49.421875 
Q 6.296875 60.640625 12.9375 67.421875 
Q 19.578125 74.21875 30.609375 74.21875 
Q 43.265625 74.21875 49.921875 64.515625 
Q 56.59375 54.828125 56.59375 36.375 
Q 56.59375 19.140625 48.40625 8.859375 
Q 40.234375 -1.421875 26.421875 -1.421875 
Q 22.703125 -1.421875 18.890625 -0.6875 
Q 15.09375 0.046875 10.984375 1.515625 
M 30.609375 32.421875 
Q 37.25 32.421875 41.125 36.953125 
Q 45.015625 41.5 45.015625 49.421875 
Q 45.015625 57.28125 41.125 61.84375 
Q 37.25 66.40625 30.609375 66.40625 
Q 23.96875 66.40625 20.09375 61.84375 
Q 16.21875 57.28125 16.21875 49.421875 
Q 16.21875 41.5 20.09375 36.953125 
Q 23.96875 32.421875 30.609375 32.421875 
" id="BitstreamVeraSans-Roman-39"/>
     <path d="M 10.796875 72.90625 
L 49.515625 72.90625 
L 49.515625 64.59375 
L 19.828125 64.59375 
L 19.828125 46.734375 
Q 21.96875 47.46875 24.109375 47.828125 
Q 26.265625 48.1875 28.421875 48.1875 
Q 40.625 48.1875 47.75 41.5 
Q 54.890625 34.8125 54.890625 23.390625 
Q 54.890625 11.625 47.5625 5.09375 
Q 40.234375 -1.421875 26.90625 -1.421875 
Q 22.3125 -1.421875 17.546875 -0.640625 
Q 12.796875 0.140625 7.71875 1.703125 
L 7.71875 11.625 
Q 12.109375 9.234375 16.796875 8.0625 
Q 21.484375 6.890625 26.703125 6.890625 
Q 35.15625 6.890625 40.078125 11.328125 
Q 45.015625 15.765625 45.015625 23.390625 
Q 45.015625 31 40.078125 35.4375 
Q 35.15625 39.890625 26.703125 39.890625 
Q 22.75 39.890625 18.8125 39.015625 
Q 14.890625 38.140625 10.796875 36.28125 
z
" id="BitstreamVeraSans-Roman-35"/>
    </defs>
    <g transform="translate(250.324475 278.1504)scale(0.2 -0.2)">
     <use xlink:href="#BitstreamVeraSans-Roman-66"/>
     <use x="35.205078125" xlink:href="#BitstreamVeraSans-Roman-31"/>
     <use x="98.828125" xlink:href="#BitstreamVeraSans-Roman-35"/>
     <use x="162.451171875" xlink:href="#BitstreamVeraSans-Roman-2d"/>
     <use x="198.53515625" xlink:href="#BitstreamVeraSans-Roman-31"/>
     <use x="262.158203125" xlink:href="#BitstreamVeraSans-Roman-39"/>
     <use x="325.78125" xlink:href="#BitstreamVeraSans-Roman-2c"/>
     <use x="357.568359375" xlink:href="#BitstreamVeraSans-Roman-35"/>
     <use x="421.19140625" xlink:href="#BitstreamVeraSans-Roman-2d"/>
     <use x="457.275390625" xlink:href="#BitstreamVeraSans-Roman-44"/>
    </g>
   </g>
  </g>
 </g>
 <defs>
  <clipPath id="p1b3964ba2e">
   <rect height="276.48" width="357.12" x="7.2" y="7.2"/>
  </clipPath>
 </defs>
</svg>
