<?xml version="1.0" encoding="utf-8" standalone="no"?>
<!DOCTYPE svg PUBLIC "-//W3C//DTD SVG 1.1//EN"
  "http://www.w3.org/Graphics/SVG/1.1/DTD/svg11.dtd">
<!-- Created with matplotlib (http://matplotlib.org/) -->
<svg height="338pt" version="1.1" viewBox="0 0 371 338" width="371pt" xmlns="http://www.w3.org/2000/svg" xmlns:xlink="http://www.w3.org/1999/xlink">
 <defs>
  <style type="text/css">
*{stroke-linecap:butt;stroke-linejoin:round;stroke-miterlimit:100000;}
  </style>
 </defs>
 <g id="figure_1">
  <g id="patch_1">
   <path d="M 0 338.5925 
L 371.52 338.5925 
L 371.52 0 
L 0 0 
z
" style="fill:#ffffff;"/>
  </g>
  <g id="axes_1">
   <g id="patch_2">
    <path d="M 7.2 283.68 
L 364.32 283.68 
L 364.32 7.2 
L 7.2 7.2 
z
" style="fill:#ffffff;"/>
   </g>
   <g id="line2d_1">
    <path clip-path="url(#pd234e6fcd4)" d="M 183.988728 283.68 
L 183.988728 280.030099 
L 184.834063 280.030099 
L 184.834063 276.380198 
L 185.063307 276.380198 
L 185.063307 272.730297 
L 185.558483 272.730297 
L 185.558483 269.080396 
L 185.690121 269.080396 
L 185.779329 261.780594 
L 187.100929 261.780594 
L 187.114161 254.480792 
L 187.247644 254.480792 
L 187.247644 250.830891 
L 187.618219 250.830891 
L 187.618219 247.18099 
L 188.314632 247.18099 
L 188.314632 243.531089 
L 188.549942 243.531089 
L 188.549942 239.881188 
L 188.781523 239.881188 
L 188.781523 236.231287 
L 189.332946 236.231287 
L 189.332946 232.581386 
L 189.508567 232.581386 
L 189.508567 228.931485 
L 212.630864 228.931485 
L 212.630864 225.281584 
L 213.66275 225.281584 
L 213.744581 214.331881 
L 213.863321 214.331881 
L 213.920163 207.032079 
L 214.02321 207.032079 
L 214.117318 192.432475 
L 214.222377 192.432475 
L 214.329152 166.883168 
L 214.357337 166.883168 
L 214.448708 144.983762 
L 214.527478 144.983762 
L 214.527478 141.333861 
L 214.643456 141.333861 
L 214.666823 126.734257 
L 214.939823 126.734257 
L 214.939823 123.084356 
L 215.090628 123.084356 
L 215.090628 119.434455 
L 228.953748 119.434455 
L 228.953748 115.784554 
L 229.28373 115.784554 
L 229.28373 112.134653 
L 230.136024 112.134653 
L 230.209685 97.53505 
L 230.278079 97.53505 
L 230.347614 90.235248 
L 230.430843 90.235248 
L 230.430843 86.585347 
L 230.543372 86.585347 
L 230.620252 75.635644 
L 230.894839 75.635644 
L 230.940772 68.335842 
L 231.278623 68.335842 
L 231.278623 64.685941 
L 258.192037 64.685941 
L 258.192037 61.03604 
L 260.59375 61.03604 
L 260.59375 57.386139 
L 263.945315 57.386139 
L 263.945315 53.736238 
L 264.66292 53.736238 
L 264.66292 50.086337 
L 267.495352 50.086337 
L 267.495352 46.436436 
L 268.033586 46.436436 
L 268.033586 42.786535 
L 268.270682 42.786535 
L 268.270682 39.136634 
L 268.429605 39.136634 
L 268.429605 35.486733 
L 268.837117 35.486733 
L 268.837117 31.836832 
L 269.210224 31.836832 
L 269.285968 24.53703 
L 269.762485 24.53703 
L 269.762485 20.887129 
L 269.899012 20.887129 
L 269.899012 17.237228 
L 270.466873 17.237228 
L 270.466873 13.587327 
L 272.297836 13.587327 
L 272.297836 9.937426 
L 364.32 9.937426 
L 364.32 9.937426 
" style="fill:none;stroke:#ff0000;stroke-linecap:square;stroke-width:3.0;"/>
   </g>
   <g id="line2d_2">
    <path clip-path="url(#pd234e6fcd4)" d="M 190.914562 283.68 
L 190.914562 280.030099 
L 190.914562 280.030099 
L 190.914562 280.030099 
L 190.967825 280.030099 
L 190.967825 276.380198 
L 191.327822 276.380198 
L 191.327822 272.730297 
L 191.712468 272.730297 
L 191.712468 269.080396 
L 192.579712 269.080396 
L 192.579712 265.430495 
L 192.710594 265.430495 
L 192.710594 261.780594 
L 193.467873 261.780594 
L 193.467873 258.130693 
L 194.57026 258.130693 
L 194.57026 254.480792 
L 194.899271 254.480792 
L 194.899271 250.830891 
L 195.548851 250.830891 
L 195.548851 247.18099 
L 195.880936 247.18099 
L 195.880936 243.531089 
L 196.092425 243.531089 
L 196.145354 236.231287 
L 196.22281 236.231287 
L 196.22281 232.581386 
L 196.876512 232.581386 
L 196.876512 228.931485 
L 214.616917 228.931485 
L 214.669262 217.981782 
L 214.866262 217.981782 
L 214.944897 207.032079 
L 215.059819 207.032079 
L 215.059819 203.382178 
L 215.211234 203.382178 
L 215.295658 196.082376 
L 215.344927 196.082376 
L 215.431806 170.533069 
L 215.49127 170.533069 
L 215.597913 152.283564 
L 215.665942 152.283564 
L 215.755931 137.68396 
L 215.804969 137.68396 
L 215.844643 119.434455 
L 231.658792 119.434455 
L 231.667243 112.134653 
L 232.509561 112.134653 
L 232.509561 108.484752 
L 232.638584 108.484752 
L 232.638584 104.834851 
L 233.290035 104.834851 
L 233.290035 101.18495 
L 233.62457 101.18495 
L 233.62457 97.53505 
L 233.779439 97.53505 
L 233.884769 90.235248 
L 234.075855 90.235248 
L 234.075855 86.585347 
L 234.210552 86.585347 
L 234.210552 82.935446 
L 234.462831 82.935446 
L 234.489743 75.635644 
L 234.638853 75.635644 
L 234.638853 71.985743 
L 234.917446 71.985743 
L 234.917446 68.335842 
L 235.344497 68.335842 
L 235.344497 64.685941 
L 269.10402 64.685941 
L 269.10402 61.03604 
L 275.30104 61.03604 
L 275.30104 57.386139 
L 275.510734 57.386139 
L 275.510734 53.736238 
L 275.761988 53.736238 
L 275.794972 46.436436 
L 275.934148 46.436436 
L 275.934148 42.786535 
L 276.492043 42.786535 
L 276.492043 39.136634 
L 277.887535 39.136634 
L 277.887535 35.486733 
L 279.34225 35.486733 
L 279.437272 28.186931 
L 279.496633 28.186931 
L 279.496633 24.53703 
L 280.281634 24.53703 
L 280.281634 20.887129 
L 280.540045 20.887129 
L 280.575228 13.587327 
L 283.527497 13.587327 
L 283.527497 9.937426 
L 364.32 9.937426 
L 364.32 9.937426 
" style="fill:none;stroke:#00bfbf;stroke-linecap:square;"/>
   </g>
   <g id="line2d_3">
    <path clip-path="url(#pd234e6fcd4)" d="M 189.983642 283.68 
L 189.983642 280.030099 
L 190.75157 280.030099 
L 190.75157 276.380198 
L 190.914562 276.380198 
L 190.994059 265.430495 
L 191.327822 265.430495 
L 191.327822 261.780594 
L 191.712468 261.780594 
L 191.712468 258.130693 
L 192.158846 258.130693 
L 192.158846 254.480792 
L 192.491052 254.480792 
L 192.491052 250.830891 
L 193.467873 250.830891 
L 193.467873 247.18099 
L 193.982737 247.18099 
L 193.982737 243.531089 
L 194.899271 243.531089 
L 194.899271 239.881188 
L 195.672604 239.881188 
L 195.672604 236.231287 
L 196.22281 236.231287 
L 196.22281 232.581386 
L 196.876512 232.581386 
L 196.876512 228.931485 
L 214.616917 228.931485 
L 214.669262 217.981782 
L 214.742518 217.981782 
L 214.742518 214.331881 
L 214.866262 214.331881 
L 214.940471 203.382178 
L 214.992705 203.382178 
L 215.059819 188.782574 
L 215.211234 188.782574 
L 215.24688 181.482772 
L 215.338706 181.482772 
L 215.431806 152.283564 
L 215.538881 152.283564 
L 215.621402 137.68396 
L 215.699962 137.68396 
L 215.742715 119.434455 
L 230.209685 119.434455 
L 230.209685 115.784554 
L 231.658792 115.784554 
L 231.667243 108.484752 
L 231.899976 108.484752 
L 231.899976 104.834851 
L 232.408936 104.834851 
L 232.509561 90.235248 
L 232.629009 90.235248 
L 232.629009 86.585347 
L 233.290035 86.585347 
L 233.290035 82.935446 
L 233.47614 82.935446 
L 233.47614 79.285545 
L 233.62457 79.285545 
L 233.731127 71.985743 
L 233.884769 71.985743 
L 233.884769 68.335842 
L 234.262207 68.335842 
L 234.262207 64.685941 
L 269.10402 64.685941 
L 269.10402 61.03604 
L 272.780792 61.03604 
L 272.797587 53.736238 
L 274.402305 53.736238 
L 274.402305 50.086337 
L 275.30104 50.086337 
L 275.385607 39.136634 
L 275.510734 39.136634 
L 275.510734 35.486733 
L 275.761988 35.486733 
L 275.794972 28.186931 
L 275.934148 28.186931 
L 275.934148 24.53703 
L 276.498302 24.53703 
L 276.498302 20.887129 
L 279.384189 20.887129 
L 279.437272 13.587327 
L 279.886037 13.587327 
L 279.886037 9.937426 
L 364.32 9.937426 
L 364.32 9.937426 
" style="fill:none;stroke:#bf00bf;stroke-linecap:square;"/>
   </g>
   <g id="line2d_4">
    <path clip-path="url(#pd234e6fcd4)" d="M 189.662352 283.68 
L 189.662352 280.030099 
L 189.983642 280.030099 
L 189.983642 276.380198 
L 190.495354 276.380198 
L 190.495354 272.730297 
L 190.914562 272.730297 
L 190.994059 261.780594 
L 191.327822 261.780594 
L 191.364295 254.480792 
L 191.45598 254.480792 
L 191.524448 247.18099 
L 191.712468 247.18099 
L 191.712468 243.531089 
L 191.835338 243.531089 
L 191.835338 239.881188 
L 192.407901 239.881188 
L 192.407901 236.231287 
L 192.638171 236.231287 
L 192.638171 232.581386 
L 193.982737 232.581386 
L 193.982737 228.931485 
L 213.920163 228.931485 
L 213.920163 225.281584 
L 214.361942 225.281584 
L 214.361942 221.631683 
L 214.616917 221.631683 
L 214.72052 203.382178 
L 214.804961 203.382178 
L 214.891828 181.482772 
L 214.99256 181.482772 
L 215.09408 163.233267 
L 215.105949 163.233267 
L 215.19443 155.933465 
L 215.24688 155.933465 
L 215.344927 144.983762 
L 215.460304 144.983762 
L 215.568106 130.384158 
L 215.589585 130.384158 
L 215.602856 123.084356 
L 215.710024 123.084356 
L 215.710024 119.434455 
L 230.209685 119.434455 
L 230.209685 115.784554 
L 231.346874 115.784554 
L 231.346874 112.134653 
L 231.658792 112.134653 
L 231.667243 104.834851 
L 231.779268 104.834851 
L 231.779268 101.18495 
L 231.899976 101.18495 
L 231.899976 97.53505 
L 232.185393 97.53505 
L 232.199731 90.235248 
L 232.317973 90.235248 
L 232.408936 82.935446 
L 232.453191 82.935446 
L 232.509561 75.635644 
L 232.700615 75.635644 
L 232.709595 68.335842 
L 233.731127 68.335842 
L 233.731127 64.685941 
L 269.10402 64.685941 
L 269.10402 61.03604 
L 270.772833 61.03604 
L 270.772833 57.386139 
L 272.615643 57.386139 
L 272.615643 53.736238 
L 272.780792 53.736238 
L 272.797587 46.436436 
L 273.740345 46.436436 
L 273.740345 42.786535 
L 274.402305 42.786535 
L 274.478014 35.486733 
L 274.639438 35.486733 
L 274.639438 31.836832 
L 275.30104 31.836832 
L 275.385607 20.887129 
L 275.934148 20.887129 
L 275.934148 17.237228 
L 276.922849 17.237228 
L 276.922849 13.587327 
L 278.592465 13.587327 
L 278.592465 9.937426 
L 364.32 9.937426 
L 364.32 9.937426 
" style="fill:none;stroke:#000000;stroke-linecap:square;"/>
   </g>
   <g id="line2d_5">
    <path clip-path="url(#pd234e6fcd4)" d="M 185.063307 283.68 
L 185.063307 280.030099 
L 187.618219 280.030099 
L 187.67489 272.730297 
L 188.720473 272.730297 
L 188.720473 269.080396 
L 189.266987 269.080396 
L 189.266987 265.430495 
L 189.662352 265.430495 
L 189.662352 261.780594 
L 190.083103 261.780594 
L 190.083103 258.130693 
L 190.282102 258.130693 
L 190.282102 254.480792 
L 190.598688 254.480792 
L 190.648981 247.18099 
L 190.710789 247.18099 
L 190.815671 239.881188 
L 190.914562 239.881188 
L 190.914562 236.231287 
L 191.498669 236.231287 
L 191.498669 232.581386 
L 192.407901 232.581386 
L 192.407901 228.931485 
L 213.66275 228.931485 
L 213.66275 225.281584 
L 213.920163 225.281584 
L 214.02321 217.981782 
L 214.361942 217.981782 
L 214.361942 214.331881 
L 214.503879 214.331881 
L 214.613814 203.382178 
L 214.616917 203.382178 
L 214.67655 181.482772 
L 214.758315 181.482772 
L 214.853792 163.233267 
L 214.889977 163.233267 
L 215.001041 144.983762 
L 215.059446 144.983762 
L 215.153049 123.084356 
L 215.514467 123.084356 
L 215.514467 119.434455 
L 230.209685 119.434455 
L 230.209685 115.784554 
L 230.80222 115.784554 
L 230.80222 112.134653 
L 230.952034 112.134653 
L 231.039512 104.834851 
L 231.125369 104.834851 
L 231.125369 101.18495 
L 231.346874 101.18495 
L 231.453087 93.885149 
L 231.667243 93.885149 
L 231.711269 86.585347 
L 231.899976 86.585347 
L 231.899976 82.935446 
L 232.199731 82.935446 
L 232.242414 71.985743 
L 232.395322 71.985743 
L 232.48848 64.685941 
L 268.877565 64.685941 
L 268.877565 61.03604 
L 269.646329 61.03604 
L 269.646329 57.386139 
L 269.944117 57.386139 
L 269.944117 53.736238 
L 270.310448 53.736238 
L 270.310448 50.086337 
L 270.759356 50.086337 
L 270.772833 42.786535 
L 271.090036 42.786535 
L 271.090036 39.136634 
L 271.695212 39.136634 
L 271.802447 31.836832 
L 272.297836 31.836832 
L 272.297836 28.186931 
L 272.64364 28.186931 
L 272.64364 24.53703 
L 273.116248 24.53703 
L 273.194697 17.237228 
L 274.576012 17.237228 
L 274.576012 13.587327 
L 274.737132 13.587327 
L 274.737132 9.937426 
L 364.32 9.937426 
L 364.32 9.937426 
" style="fill:none;stroke:#00bfbf;stroke-linecap:square;"/>
   </g>
   <g id="patch_3">
    <path d="M 7.2 7.2 
L 364.32 7.2 
" style="fill:none;stroke:#000000;stroke-linecap:square;stroke-linejoin:miter;"/>
   </g>
   <g id="patch_4">
    <path d="M 364.32 283.68 
L 364.32 7.2 
" style="fill:none;stroke:#000000;stroke-linecap:square;stroke-linejoin:miter;"/>
   </g>
   <g id="patch_5">
    <path d="M 7.2 283.68 
L 364.32 283.68 
" style="fill:none;stroke:#000000;stroke-linecap:square;stroke-linejoin:miter;"/>
   </g>
   <g id="patch_6">
    <path d="M 7.2 283.68 
L 7.2 7.2 
" style="fill:none;stroke:#000000;stroke-linecap:square;stroke-linejoin:miter;"/>
   </g>
   <g id="matplotlib.axis_1">
    <g id="xtick_1">
     <g id="line2d_6">
      <path clip-path="url(#pd234e6fcd4)" d="M 49.133998 283.68 
L 49.133998 7.2 
" style="fill:none;stroke:#000000;stroke-dasharray:1.000000,3.000000;stroke-dashoffset:0.0;stroke-width:0.5;"/>
     </g>
     <g id="line2d_7">
      <defs>
       <path d="M 0 0 
L 0 -4 
" id="mbb0849c8ec" style="stroke:#000000;stroke-width:0.5;"/>
      </defs>
      <g>
       <use style="stroke:#000000;stroke-width:0.5;" x="49.1339978514" xlink:href="#mbb0849c8ec" y="283.68"/>
      </g>
     </g>
     <g id="line2d_8">
      <defs>
       <path d="M 0 0 
L 0 4 
" id="m7e1e8c81d6" style="stroke:#000000;stroke-width:0.5;"/>
      </defs>
      <g>
       <use style="stroke:#000000;stroke-width:0.5;" x="49.1339978514" xlink:href="#m7e1e8c81d6" y="7.2"/>
      </g>
     </g>
     <g id="text_1">
      <!-- -6 -->
      <defs>
       <path d="M 33.015625 40.375 
Q 26.375 40.375 22.484375 35.828125 
Q 18.609375 31.296875 18.609375 23.390625 
Q 18.609375 15.53125 22.484375 10.953125 
Q 26.375 6.390625 33.015625 6.390625 
Q 39.65625 6.390625 43.53125 10.953125 
Q 47.40625 15.53125 47.40625 23.390625 
Q 47.40625 31.296875 43.53125 35.828125 
Q 39.65625 40.375 33.015625 40.375 
M 52.59375 71.296875 
L 52.59375 62.3125 
Q 48.875 64.0625 45.09375 64.984375 
Q 41.3125 65.921875 37.59375 65.921875 
Q 27.828125 65.921875 22.671875 59.328125 
Q 17.53125 52.734375 16.796875 39.40625 
Q 19.671875 43.65625 24.015625 45.921875 
Q 28.375 48.1875 33.59375 48.1875 
Q 44.578125 48.1875 50.953125 41.515625 
Q 57.328125 34.859375 57.328125 23.390625 
Q 57.328125 12.15625 50.6875 5.359375 
Q 44.046875 -1.421875 33.015625 -1.421875 
Q 20.359375 -1.421875 13.671875 8.265625 
Q 6.984375 17.96875 6.984375 36.375 
Q 6.984375 53.65625 15.1875 63.9375 
Q 23.390625 74.21875 37.203125 74.21875 
Q 40.921875 74.21875 44.703125 73.484375 
Q 48.484375 72.75 52.59375 71.296875 
" id="BitstreamVeraSans-Roman-36"/>
       <path d="M 4.890625 31.390625 
L 31.203125 31.390625 
L 31.203125 23.390625 
L 4.890625 23.390625 
z
" id="BitstreamVeraSans-Roman-2d"/>
      </defs>
      <g transform="translate(39.1636853514 302.876875)scale(0.2 -0.2)">
       <use xlink:href="#BitstreamVeraSans-Roman-2d"/>
       <use x="36.083984375" xlink:href="#BitstreamVeraSans-Roman-36"/>
      </g>
     </g>
    </g>
    <g id="xtick_2">
     <g id="line2d_9">
      <path clip-path="url(#pd234e6fcd4)" d="M 91.158798 283.68 
L 91.158798 7.2 
" style="fill:none;stroke:#000000;stroke-dasharray:1.000000,3.000000;stroke-dashoffset:0.0;stroke-width:0.5;"/>
     </g>
     <g id="line2d_10">
      <g>
       <use style="stroke:#000000;stroke-width:0.5;" x="91.1587981379" xlink:href="#mbb0849c8ec" y="283.68"/>
      </g>
     </g>
     <g id="line2d_11">
      <g>
       <use style="stroke:#000000;stroke-width:0.5;" x="91.1587981379" xlink:href="#m7e1e8c81d6" y="7.2"/>
      </g>
     </g>
     <g id="text_2">
      <!-- -4 -->
      <defs>
       <path d="M 37.796875 64.3125 
L 12.890625 25.390625 
L 37.796875 25.390625 
z
M 35.203125 72.90625 
L 47.609375 72.90625 
L 47.609375 25.390625 
L 58.015625 25.390625 
L 58.015625 17.1875 
L 47.609375 17.1875 
L 47.609375 0 
L 37.796875 0 
L 37.796875 17.1875 
L 4.890625 17.1875 
L 4.890625 26.703125 
z
" id="BitstreamVeraSans-Roman-34"/>
      </defs>
      <g transform="translate(81.1884856379 302.876875)scale(0.2 -0.2)">
       <use xlink:href="#BitstreamVeraSans-Roman-2d"/>
       <use x="36.083984375" xlink:href="#BitstreamVeraSans-Roman-34"/>
      </g>
     </g>
    </g>
    <g id="xtick_3">
     <g id="line2d_12">
      <path clip-path="url(#pd234e6fcd4)" d="M 133.183598 283.68 
L 133.183598 7.2 
" style="fill:none;stroke:#000000;stroke-dasharray:1.000000,3.000000;stroke-dashoffset:0.0;stroke-width:0.5;"/>
     </g>
     <g id="line2d_13">
      <g>
       <use style="stroke:#000000;stroke-width:0.5;" x="133.183598424" xlink:href="#mbb0849c8ec" y="283.68"/>
      </g>
     </g>
     <g id="line2d_14">
      <g>
       <use style="stroke:#000000;stroke-width:0.5;" x="133.183598424" xlink:href="#m7e1e8c81d6" y="7.2"/>
      </g>
     </g>
     <g id="text_3">
      <!-- -2 -->
      <defs>
       <path d="M 19.1875 8.296875 
L 53.609375 8.296875 
L 53.609375 0 
L 7.328125 0 
L 7.328125 8.296875 
Q 12.9375 14.109375 22.625 23.890625 
Q 32.328125 33.6875 34.8125 36.53125 
Q 39.546875 41.84375 41.421875 45.53125 
Q 43.3125 49.21875 43.3125 52.78125 
Q 43.3125 58.59375 39.234375 62.25 
Q 35.15625 65.921875 28.609375 65.921875 
Q 23.96875 65.921875 18.8125 64.3125 
Q 13.671875 62.703125 7.8125 59.421875 
L 7.8125 69.390625 
Q 13.765625 71.78125 18.9375 73 
Q 24.125 74.21875 28.421875 74.21875 
Q 39.75 74.21875 46.484375 68.546875 
Q 53.21875 62.890625 53.21875 53.421875 
Q 53.21875 48.921875 51.53125 44.890625 
Q 49.859375 40.875 45.40625 35.40625 
Q 44.1875 33.984375 37.640625 27.21875 
Q 31.109375 20.453125 19.1875 8.296875 
" id="BitstreamVeraSans-Roman-32"/>
      </defs>
      <g transform="translate(123.213285924 302.876875)scale(0.2 -0.2)">
       <use xlink:href="#BitstreamVeraSans-Roman-2d"/>
       <use x="36.083984375" xlink:href="#BitstreamVeraSans-Roman-32"/>
      </g>
     </g>
    </g>
    <g id="xtick_4">
     <g id="line2d_15">
      <path clip-path="url(#pd234e6fcd4)" d="M 175.208399 283.68 
L 175.208399 7.2 
" style="fill:none;stroke:#000000;stroke-dasharray:1.000000,3.000000;stroke-dashoffset:0.0;stroke-width:0.5;"/>
     </g>
     <g id="line2d_16">
      <g>
       <use style="stroke:#000000;stroke-width:0.5;" x="175.208398711" xlink:href="#mbb0849c8ec" y="283.68"/>
      </g>
     </g>
     <g id="line2d_17">
      <g>
       <use style="stroke:#000000;stroke-width:0.5;" x="175.208398711" xlink:href="#m7e1e8c81d6" y="7.2"/>
      </g>
     </g>
     <g id="text_4">
      <!-- 0 -->
      <defs>
       <path d="M 31.78125 66.40625 
Q 24.171875 66.40625 20.328125 58.90625 
Q 16.5 51.421875 16.5 36.375 
Q 16.5 21.390625 20.328125 13.890625 
Q 24.171875 6.390625 31.78125 6.390625 
Q 39.453125 6.390625 43.28125 13.890625 
Q 47.125 21.390625 47.125 36.375 
Q 47.125 51.421875 43.28125 58.90625 
Q 39.453125 66.40625 31.78125 66.40625 
M 31.78125 74.21875 
Q 44.046875 74.21875 50.515625 64.515625 
Q 56.984375 54.828125 56.984375 36.375 
Q 56.984375 17.96875 50.515625 8.265625 
Q 44.046875 -1.421875 31.78125 -1.421875 
Q 19.53125 -1.421875 13.0625 8.265625 
Q 6.59375 17.96875 6.59375 36.375 
Q 6.59375 54.828125 13.0625 64.515625 
Q 19.53125 74.21875 31.78125 74.21875 
" id="BitstreamVeraSans-Roman-30"/>
      </defs>
      <g transform="translate(168.845898711 302.876875)scale(0.2 -0.2)">
       <use xlink:href="#BitstreamVeraSans-Roman-30"/>
      </g>
     </g>
    </g>
    <g id="xtick_5">
     <g id="line2d_18">
      <path clip-path="url(#pd234e6fcd4)" d="M 217.233199 283.68 
L 217.233199 7.2 
" style="fill:none;stroke:#000000;stroke-dasharray:1.000000,3.000000;stroke-dashoffset:0.0;stroke-width:0.5;"/>
     </g>
     <g id="line2d_19">
      <g>
       <use style="stroke:#000000;stroke-width:0.5;" x="217.233198997" xlink:href="#mbb0849c8ec" y="283.68"/>
      </g>
     </g>
     <g id="line2d_20">
      <g>
       <use style="stroke:#000000;stroke-width:0.5;" x="217.233198997" xlink:href="#m7e1e8c81d6" y="7.2"/>
      </g>
     </g>
     <g id="text_5">
      <!-- 2 -->
      <g transform="translate(210.870698997 302.876875)scale(0.2 -0.2)">
       <use xlink:href="#BitstreamVeraSans-Roman-32"/>
      </g>
     </g>
    </g>
    <g id="xtick_6">
     <g id="line2d_21">
      <path clip-path="url(#pd234e6fcd4)" d="M 259.257999 283.68 
L 259.257999 7.2 
" style="fill:none;stroke:#000000;stroke-dasharray:1.000000,3.000000;stroke-dashoffset:0.0;stroke-width:0.5;"/>
     </g>
     <g id="line2d_22">
      <g>
       <use style="stroke:#000000;stroke-width:0.5;" x="259.257999284" xlink:href="#mbb0849c8ec" y="283.68"/>
      </g>
     </g>
     <g id="line2d_23">
      <g>
       <use style="stroke:#000000;stroke-width:0.5;" x="259.257999284" xlink:href="#m7e1e8c81d6" y="7.2"/>
      </g>
     </g>
     <g id="text_6">
      <!-- 4 -->
      <g transform="translate(252.895499284 302.876875)scale(0.2 -0.2)">
       <use xlink:href="#BitstreamVeraSans-Roman-34"/>
      </g>
     </g>
    </g>
    <g id="xtick_7">
     <g id="line2d_24">
      <path clip-path="url(#pd234e6fcd4)" d="M 301.2828 283.68 
L 301.2828 7.2 
" style="fill:none;stroke:#000000;stroke-dasharray:1.000000,3.000000;stroke-dashoffset:0.0;stroke-width:0.5;"/>
     </g>
     <g id="line2d_25">
      <g>
       <use style="stroke:#000000;stroke-width:0.5;" x="301.28279957" xlink:href="#mbb0849c8ec" y="283.68"/>
      </g>
     </g>
     <g id="line2d_26">
      <g>
       <use style="stroke:#000000;stroke-width:0.5;" x="301.28279957" xlink:href="#m7e1e8c81d6" y="7.2"/>
      </g>
     </g>
     <g id="text_7">
      <!-- 6 -->
      <g transform="translate(294.92029957 302.876875)scale(0.2 -0.2)">
       <use xlink:href="#BitstreamVeraSans-Roman-36"/>
      </g>
     </g>
    </g>
    <g id="xtick_8">
     <g id="line2d_27">
      <path clip-path="url(#pd234e6fcd4)" d="M 343.3076 283.68 
L 343.3076 7.2 
" style="fill:none;stroke:#000000;stroke-dasharray:1.000000,3.000000;stroke-dashoffset:0.0;stroke-width:0.5;"/>
     </g>
     <g id="line2d_28">
      <g>
       <use style="stroke:#000000;stroke-width:0.5;" x="343.307599857" xlink:href="#mbb0849c8ec" y="283.68"/>
      </g>
     </g>
     <g id="line2d_29">
      <g>
       <use style="stroke:#000000;stroke-width:0.5;" x="343.307599857" xlink:href="#m7e1e8c81d6" y="7.2"/>
      </g>
     </g>
     <g id="text_8">
      <!-- 8 -->
      <defs>
       <path d="M 31.78125 34.625 
Q 24.75 34.625 20.71875 30.859375 
Q 16.703125 27.09375 16.703125 20.515625 
Q 16.703125 13.921875 20.71875 10.15625 
Q 24.75 6.390625 31.78125 6.390625 
Q 38.8125 6.390625 42.859375 10.171875 
Q 46.921875 13.96875 46.921875 20.515625 
Q 46.921875 27.09375 42.890625 30.859375 
Q 38.875 34.625 31.78125 34.625 
M 21.921875 38.8125 
Q 15.578125 40.375 12.03125 44.71875 
Q 8.5 49.078125 8.5 55.328125 
Q 8.5 64.0625 14.71875 69.140625 
Q 20.953125 74.21875 31.78125 74.21875 
Q 42.671875 74.21875 48.875 69.140625 
Q 55.078125 64.0625 55.078125 55.328125 
Q 55.078125 49.078125 51.53125 44.71875 
Q 48 40.375 41.703125 38.8125 
Q 48.828125 37.15625 52.796875 32.3125 
Q 56.78125 27.484375 56.78125 20.515625 
Q 56.78125 9.90625 50.3125 4.234375 
Q 43.84375 -1.421875 31.78125 -1.421875 
Q 19.734375 -1.421875 13.25 4.234375 
Q 6.78125 9.90625 6.78125 20.515625 
Q 6.78125 27.484375 10.78125 32.3125 
Q 14.796875 37.15625 21.921875 38.8125 
M 18.3125 54.390625 
Q 18.3125 48.734375 21.84375 45.5625 
Q 25.390625 42.390625 31.78125 42.390625 
Q 38.140625 42.390625 41.71875 45.5625 
Q 45.3125 48.734375 45.3125 54.390625 
Q 45.3125 60.0625 41.71875 63.234375 
Q 38.140625 66.40625 31.78125 66.40625 
Q 25.390625 66.40625 21.84375 63.234375 
Q 18.3125 60.0625 18.3125 54.390625 
" id="BitstreamVeraSans-Roman-38"/>
      </defs>
      <g transform="translate(336.945099857 302.876875)scale(0.2 -0.2)">
       <use xlink:href="#BitstreamVeraSans-Roman-38"/>
      </g>
     </g>
    </g>
    <g id="xtick_9">
     <g id="line2d_30">
      <defs>
       <path d="M 0 0 
L 0 -2 
" id="meca18c7761" style="stroke:#000000;stroke-width:0.5;"/>
      </defs>
      <g>
       <use style="stroke:#000000;stroke-width:0.5;" x="49.1339978514" xlink:href="#meca18c7761" y="283.68"/>
      </g>
     </g>
     <g id="line2d_31">
      <defs>
       <path d="M 0 0 
L 0 2 
" id="m9c2671c626" style="stroke:#000000;stroke-width:0.5;"/>
      </defs>
      <g>
       <use style="stroke:#000000;stroke-width:0.5;" x="49.1339978514" xlink:href="#m9c2671c626" y="7.2"/>
      </g>
     </g>
    </g>
    <g id="xtick_10">
     <g id="line2d_32">
      <g>
       <use style="stroke:#000000;stroke-width:0.5;" x="91.1587981379" xlink:href="#meca18c7761" y="283.68"/>
      </g>
     </g>
     <g id="line2d_33">
      <g>
       <use style="stroke:#000000;stroke-width:0.5;" x="91.1587981379" xlink:href="#m9c2671c626" y="7.2"/>
      </g>
     </g>
    </g>
    <g id="xtick_11">
     <g id="line2d_34">
      <g>
       <use style="stroke:#000000;stroke-width:0.5;" x="133.183598424" xlink:href="#meca18c7761" y="283.68"/>
      </g>
     </g>
     <g id="line2d_35">
      <g>
       <use style="stroke:#000000;stroke-width:0.5;" x="133.183598424" xlink:href="#m9c2671c626" y="7.2"/>
      </g>
     </g>
    </g>
    <g id="xtick_12">
     <g id="line2d_36">
      <g>
       <use style="stroke:#000000;stroke-width:0.5;" x="175.208398711" xlink:href="#meca18c7761" y="283.68"/>
      </g>
     </g>
     <g id="line2d_37">
      <g>
       <use style="stroke:#000000;stroke-width:0.5;" x="175.208398711" xlink:href="#m9c2671c626" y="7.2"/>
      </g>
     </g>
    </g>
    <g id="xtick_13">
     <g id="line2d_38">
      <g>
       <use style="stroke:#000000;stroke-width:0.5;" x="217.233198997" xlink:href="#meca18c7761" y="283.68"/>
      </g>
     </g>
     <g id="line2d_39">
      <g>
       <use style="stroke:#000000;stroke-width:0.5;" x="217.233198997" xlink:href="#m9c2671c626" y="7.2"/>
      </g>
     </g>
    </g>
    <g id="xtick_14">
     <g id="line2d_40">
      <g>
       <use style="stroke:#000000;stroke-width:0.5;" x="259.257999284" xlink:href="#meca18c7761" y="283.68"/>
      </g>
     </g>
     <g id="line2d_41">
      <g>
       <use style="stroke:#000000;stroke-width:0.5;" x="259.257999284" xlink:href="#m9c2671c626" y="7.2"/>
      </g>
     </g>
    </g>
    <g id="xtick_15">
     <g id="line2d_42">
      <g>
       <use style="stroke:#000000;stroke-width:0.5;" x="301.28279957" xlink:href="#meca18c7761" y="283.68"/>
      </g>
     </g>
     <g id="line2d_43">
      <g>
       <use style="stroke:#000000;stroke-width:0.5;" x="301.28279957" xlink:href="#m9c2671c626" y="7.2"/>
      </g>
     </g>
    </g>
    <g id="xtick_16">
     <g id="line2d_44">
      <g>
       <use style="stroke:#000000;stroke-width:0.5;" x="343.307599857" xlink:href="#meca18c7761" y="283.68"/>
      </g>
     </g>
     <g id="line2d_45">
      <g>
       <use style="stroke:#000000;stroke-width:0.5;" x="343.307599857" xlink:href="#m9c2671c626" y="7.2"/>
      </g>
     </g>
    </g>
    <g id="text_9">
     <!-- log10 of Df -->
     <defs>
      <path id="BitstreamVeraSans-Roman-20"/>
      <path d="M 12.40625 8.296875 
L 28.515625 8.296875 
L 28.515625 63.921875 
L 10.984375 60.40625 
L 10.984375 69.390625 
L 28.421875 72.90625 
L 38.28125 72.90625 
L 38.28125 8.296875 
L 54.390625 8.296875 
L 54.390625 0 
L 12.40625 0 
z
" id="BitstreamVeraSans-Roman-31"/>
      <path d="M 30.609375 48.390625 
Q 23.390625 48.390625 19.1875 42.75 
Q 14.984375 37.109375 14.984375 27.296875 
Q 14.984375 17.484375 19.15625 11.84375 
Q 23.34375 6.203125 30.609375 6.203125 
Q 37.796875 6.203125 41.984375 11.859375 
Q 46.1875 17.53125 46.1875 27.296875 
Q 46.1875 37.015625 41.984375 42.703125 
Q 37.796875 48.390625 30.609375 48.390625 
M 30.609375 56 
Q 42.328125 56 49.015625 48.375 
Q 55.71875 40.765625 55.71875 27.296875 
Q 55.71875 13.875 49.015625 6.21875 
Q 42.328125 -1.421875 30.609375 -1.421875 
Q 18.84375 -1.421875 12.171875 6.21875 
Q 5.515625 13.875 5.515625 27.296875 
Q 5.515625 40.765625 12.171875 48.375 
Q 18.84375 56 30.609375 56 
" id="BitstreamVeraSans-Roman-6f"/>
      <path d="M 9.421875 75.984375 
L 18.40625 75.984375 
L 18.40625 0 
L 9.421875 0 
z
" id="BitstreamVeraSans-Roman-6c"/>
      <path d="M 19.671875 64.796875 
L 19.671875 8.109375 
L 31.59375 8.109375 
Q 46.6875 8.109375 53.6875 14.9375 
Q 60.6875 21.78125 60.6875 36.53125 
Q 60.6875 51.171875 53.6875 57.984375 
Q 46.6875 64.796875 31.59375 64.796875 
z
M 9.8125 72.90625 
L 30.078125 72.90625 
Q 51.265625 72.90625 61.171875 64.09375 
Q 71.09375 55.28125 71.09375 36.53125 
Q 71.09375 17.671875 61.125 8.828125 
Q 51.171875 0 30.078125 0 
L 9.8125 0 
z
" id="BitstreamVeraSans-Roman-44"/>
      <path d="M 45.40625 27.984375 
Q 45.40625 37.75 41.375 43.109375 
Q 37.359375 48.484375 30.078125 48.484375 
Q 22.859375 48.484375 18.828125 43.109375 
Q 14.796875 37.75 14.796875 27.984375 
Q 14.796875 18.265625 18.828125 12.890625 
Q 22.859375 7.515625 30.078125 7.515625 
Q 37.359375 7.515625 41.375 12.890625 
Q 45.40625 18.265625 45.40625 27.984375 
M 54.390625 6.78125 
Q 54.390625 -7.171875 48.1875 -13.984375 
Q 42 -20.796875 29.203125 -20.796875 
Q 24.46875 -20.796875 20.265625 -20.09375 
Q 16.0625 -19.390625 12.109375 -17.921875 
L 12.109375 -9.1875 
Q 16.0625 -11.328125 19.921875 -12.34375 
Q 23.78125 -13.375 27.78125 -13.375 
Q 36.625 -13.375 41.015625 -8.765625 
Q 45.40625 -4.15625 45.40625 5.171875 
L 45.40625 9.625 
Q 42.625 4.78125 38.28125 2.390625 
Q 33.9375 0 27.875 0 
Q 17.828125 0 11.671875 7.65625 
Q 5.515625 15.328125 5.515625 27.984375 
Q 5.515625 40.671875 11.671875 48.328125 
Q 17.828125 56 27.875 56 
Q 33.9375 56 38.28125 53.609375 
Q 42.625 51.21875 45.40625 46.390625 
L 45.40625 54.6875 
L 54.390625 54.6875 
z
" id="BitstreamVeraSans-Roman-67"/>
      <path d="M 37.109375 75.984375 
L 37.109375 68.5 
L 28.515625 68.5 
Q 23.6875 68.5 21.796875 66.546875 
Q 19.921875 64.59375 19.921875 59.515625 
L 19.921875 54.6875 
L 34.71875 54.6875 
L 34.71875 47.703125 
L 19.921875 47.703125 
L 19.921875 0 
L 10.890625 0 
L 10.890625 47.703125 
L 2.296875 47.703125 
L 2.296875 54.6875 
L 10.890625 54.6875 
L 10.890625 58.5 
Q 10.890625 67.625 15.140625 71.796875 
Q 19.390625 75.984375 28.609375 75.984375 
z
" id="BitstreamVeraSans-Roman-66"/>
     </defs>
     <g transform="translate(130.5740625 327.233125)scale(0.2 -0.2)">
      <use xlink:href="#BitstreamVeraSans-Roman-6c"/>
      <use x="27.783203125" xlink:href="#BitstreamVeraSans-Roman-6f"/>
      <use x="88.96484375" xlink:href="#BitstreamVeraSans-Roman-67"/>
      <use x="152.44140625" xlink:href="#BitstreamVeraSans-Roman-31"/>
      <use x="216.064453125" xlink:href="#BitstreamVeraSans-Roman-30"/>
      <use x="279.6875" xlink:href="#BitstreamVeraSans-Roman-20"/>
      <use x="311.474609375" xlink:href="#BitstreamVeraSans-Roman-6f"/>
      <use x="372.65625" xlink:href="#BitstreamVeraSans-Roman-66"/>
      <use x="407.861328125" xlink:href="#BitstreamVeraSans-Roman-20"/>
      <use x="439.6484375" xlink:href="#BitstreamVeraSans-Roman-44"/>
      <use x="516.650390625" xlink:href="#BitstreamVeraSans-Roman-66"/>
     </g>
    </g>
   </g>
   <g id="matplotlib.axis_2">
    <g id="ytick_1">
     <g id="line2d_46">
      <path clip-path="url(#pd234e6fcd4)" d="M 7.2 283.68 
L 364.32 283.68 
" style="fill:none;stroke:#000000;stroke-dasharray:1.000000,3.000000;stroke-dashoffset:0.0;stroke-width:0.5;"/>
     </g>
     <g id="line2d_47">
      <defs>
       <path d="M 0 0 
L 4 0 
" id="m4811e3c06e" style="stroke:#000000;stroke-width:0.5;"/>
      </defs>
      <g>
       <use style="stroke:#000000;stroke-width:0.5;" x="7.2" xlink:href="#m4811e3c06e" y="283.68"/>
      </g>
     </g>
     <g id="line2d_48">
      <defs>
       <path d="M 0 0 
L -4 0 
" id="m0b613df1c3" style="stroke:#000000;stroke-width:0.5;"/>
      </defs>
      <g>
       <use style="stroke:#000000;stroke-width:0.5;" x="364.32" xlink:href="#m0b613df1c3" y="283.68"/>
      </g>
     </g>
    </g>
    <g id="ytick_2">
     <g id="line2d_49">
      <path clip-path="url(#pd234e6fcd4)" d="M 7.2 228.931485 
L 364.32 228.931485 
" style="fill:none;stroke:#000000;stroke-dasharray:1.000000,3.000000;stroke-dashoffset:0.0;stroke-width:0.5;"/>
     </g>
     <g id="line2d_50">
      <g>
       <use style="stroke:#000000;stroke-width:0.5;" x="7.2" xlink:href="#m4811e3c06e" y="228.931485149"/>
      </g>
     </g>
     <g id="line2d_51">
      <g>
       <use style="stroke:#000000;stroke-width:0.5;" x="364.32" xlink:href="#m0b613df1c3" y="228.931485149"/>
      </g>
     </g>
    </g>
    <g id="ytick_3">
     <g id="line2d_52">
      <path clip-path="url(#pd234e6fcd4)" d="M 7.2 174.18297 
L 364.32 174.18297 
" style="fill:none;stroke:#000000;stroke-dasharray:1.000000,3.000000;stroke-dashoffset:0.0;stroke-width:0.5;"/>
     </g>
     <g id="line2d_53">
      <g>
       <use style="stroke:#000000;stroke-width:0.5;" x="7.2" xlink:href="#m4811e3c06e" y="174.182970297"/>
      </g>
     </g>
     <g id="line2d_54">
      <g>
       <use style="stroke:#000000;stroke-width:0.5;" x="364.32" xlink:href="#m0b613df1c3" y="174.182970297"/>
      </g>
     </g>
    </g>
    <g id="ytick_4">
     <g id="line2d_55">
      <path clip-path="url(#pd234e6fcd4)" d="M 7.2 119.434455 
L 364.32 119.434455 
" style="fill:none;stroke:#000000;stroke-dasharray:1.000000,3.000000;stroke-dashoffset:0.0;stroke-width:0.5;"/>
     </g>
     <g id="line2d_56">
      <g>
       <use style="stroke:#000000;stroke-width:0.5;" x="7.2" xlink:href="#m4811e3c06e" y="119.434455446"/>
      </g>
     </g>
     <g id="line2d_57">
      <g>
       <use style="stroke:#000000;stroke-width:0.5;" x="364.32" xlink:href="#m0b613df1c3" y="119.434455446"/>
      </g>
     </g>
    </g>
    <g id="ytick_5">
     <g id="line2d_58">
      <path clip-path="url(#pd234e6fcd4)" d="M 7.2 64.685941 
L 364.32 64.685941 
" style="fill:none;stroke:#000000;stroke-dasharray:1.000000,3.000000;stroke-dashoffset:0.0;stroke-width:0.5;"/>
     </g>
     <g id="line2d_59">
      <g>
       <use style="stroke:#000000;stroke-width:0.5;" x="7.2" xlink:href="#m4811e3c06e" y="64.6859405941"/>
      </g>
     </g>
     <g id="line2d_60">
      <g>
       <use style="stroke:#000000;stroke-width:0.5;" x="364.32" xlink:href="#m0b613df1c3" y="64.6859405941"/>
      </g>
     </g>
    </g>
    <g id="ytick_6">
     <g id="line2d_61">
      <path clip-path="url(#pd234e6fcd4)" d="M 7.2 9.937426 
L 364.32 9.937426 
" style="fill:none;stroke:#000000;stroke-dasharray:1.000000,3.000000;stroke-dashoffset:0.0;stroke-width:0.5;"/>
     </g>
     <g id="line2d_62">
      <g>
       <use style="stroke:#000000;stroke-width:0.5;" x="7.2" xlink:href="#m4811e3c06e" y="9.93742574257"/>
      </g>
     </g>
     <g id="line2d_63">
      <g>
       <use style="stroke:#000000;stroke-width:0.5;" x="364.32" xlink:href="#m0b613df1c3" y="9.93742574257"/>
      </g>
     </g>
    </g>
   </g>
   <g id="text_10">
    <!-- f20-24,20-D -->
    <defs>
     <path d="M 11.71875 12.40625 
L 22.015625 12.40625 
L 22.015625 4 
L 14.015625 -11.625 
L 7.71875 -11.625 
L 11.71875 4 
z
" id="BitstreamVeraSans-Roman-2c"/>
    </defs>
    <g transform="translate(237.599475 278.1504)scale(0.2 -0.2)">
     <use xlink:href="#BitstreamVeraSans-Roman-66"/>
     <use x="35.205078125" xlink:href="#BitstreamVeraSans-Roman-32"/>
     <use x="98.828125" xlink:href="#BitstreamVeraSans-Roman-30"/>
     <use x="162.451171875" xlink:href="#BitstreamVeraSans-Roman-2d"/>
     <use x="198.53515625" xlink:href="#BitstreamVeraSans-Roman-32"/>
     <use x="262.158203125" xlink:href="#BitstreamVeraSans-Roman-34"/>
     <use x="325.78125" xlink:href="#BitstreamVeraSans-Roman-2c"/>
     <use x="357.568359375" xlink:href="#BitstreamVeraSans-Roman-32"/>
     <use x="421.19140625" xlink:href="#BitstreamVeraSans-Roman-30"/>
     <use x="484.814453125" xlink:href="#BitstreamVeraSans-Roman-2d"/>
     <use x="520.8984375" xlink:href="#BitstreamVeraSans-Roman-44"/>
    </g>
   </g>
  </g>
 </g>
 <defs>
  <clipPath id="pd234e6fcd4">
   <rect height="276.48" width="357.12" x="7.2" y="7.2"/>
  </clipPath>
 </defs>
</svg>
