<?xml version="1.0" encoding="utf-8" standalone="no"?>
<!DOCTYPE svg PUBLIC "-//W3C//DTD SVG 1.1//EN"
  "http://www.w3.org/Graphics/SVG/1.1/DTD/svg11.dtd">
<!-- Created with matplotlib (http://matplotlib.org/) -->
<svg height="338pt" version="1.1" viewBox="0 0 371 338" width="371pt" xmlns="http://www.w3.org/2000/svg" xmlns:xlink="http://www.w3.org/1999/xlink">
 <defs>
  <style type="text/css">
*{stroke-linecap:butt;stroke-linejoin:round;stroke-miterlimit:100000;}
  </style>
 </defs>
 <g id="figure_1">
  <g id="patch_1">
   <path d="M 0 338.5925 
L 371.52 338.5925 
L 371.52 0 
L 0 0 
z
" style="fill:#ffffff;"/>
  </g>
  <g id="axes_1">
   <g id="patch_2">
    <path d="M 7.2 283.68 
L 364.32 283.68 
L 364.32 7.2 
L 7.2 7.2 
z
" style="fill:#ffffff;"/>
   </g>
   <g id="line2d_1">
    <path clip-path="url(#pd0f98cd868)" d="M 169.683862 283.68 
L 169.683862 282.919604 
L 169.683862 282.919604 
L 169.683862 282.919604 
L 169.792608 282.919604 
L 169.792608 282.159208 
L 172.559529 282.159208 
L 172.559529 281.398812 
L 172.779686 281.398812 
L 172.779686 280.638416 
L 173.027942 280.638416 
L 173.077628 279.117624 
L 173.163164 279.117624 
L 173.163164 278.357228 
L 173.63678 278.357228 
L 173.739813 276.07604 
L 173.769873 276.07604 
L 173.769873 275.315644 
L 174.061887 275.315644 
L 174.061887 274.555248 
L 174.190828 274.555248 
L 174.225946 272.274059 
L 174.496799 272.274059 
L 174.496799 271.513663 
L 174.613607 271.513663 
L 174.668498 269.232475 
L 174.784776 269.232475 
L 174.855086 266.951287 
L 174.975263 266.951287 
L 174.975263 266.190891 
L 175.192088 266.190891 
L 175.296017 263.909703 
L 175.335932 263.909703 
L 175.335932 263.149307 
L 175.520871 263.149307 
L 175.520871 262.388911 
L 175.675765 262.388911 
L 175.73313 260.107723 
L 175.84867 260.107723 
L 175.895226 258.586931 
L 176.119419 258.586931 
L 176.151188 257.066139 
L 176.343276 257.066139 
L 176.343276 256.305743 
L 176.549715 256.305743 
L 176.600249 254.78495 
L 176.719234 254.78495 
L 176.719234 254.024554 
L 176.850175 254.024554 
L 176.850175 253.264158 
L 177.064299 253.264158 
L 177.064299 252.503762 
L 177.196259 252.503762 
L 177.303986 250.98297 
L 177.364865 250.98297 
L 177.436682 247.941386 
L 177.579323 247.941386 
L 177.603671 246.420594 
L 177.858678 246.420594 
L 177.913269 244.899802 
L 177.975906 244.899802 
L 178.086048 241.858218 
L 178.196726 241.858218 
L 178.196726 241.097822 
L 178.659228 241.097822 
L 178.729003 239.57703 
L 178.834622 239.57703 
L 178.928581 238.056238 
L 178.971671 238.056238 
L 179.057447 235.77505 
L 179.105721 235.77505 
L 179.20833 233.493861 
L 179.357814 233.493861 
L 179.463883 231.973069 
L 179.491114 231.973069 
L 179.545268 229.691881 
L 179.866233 229.691881 
L 179.884476 228.171089 
L 180.190926 228.171089 
L 180.224193 226.650297 
L 180.451199 226.650297 
L 180.451199 225.889901 
L 180.609377 225.889901 
L 180.609377 225.129505 
L 180.794484 225.129505 
L 180.794484 224.369109 
L 181.096661 224.369109 
L 181.096661 223.608713 
L 181.3184 223.608713 
L 181.3184 222.848317 
L 181.480622 222.848317 
L 181.537431 221.327525 
L 181.669493 221.327525 
L 181.77346 219.806733 
L 182.078312 219.806733 
L 182.177226 216.765149 
L 182.362169 216.765149 
L 182.362169 216.004752 
L 182.547176 216.004752 
L 182.547176 215.244356 
L 182.761524 215.244356 
L 182.85092 213.723564 
L 182.910216 213.723564 
L 182.99394 211.442376 
L 183.145716 211.442376 
L 183.227731 209.161188 
L 183.42779 209.161188 
L 183.524655 207.640396 
L 183.586663 207.640396 
L 183.689435 206.119604 
L 183.757887 206.119604 
L 183.757887 205.359208 
L 183.979796 205.359208 
L 184.010541 203.07802 
L 184.425615 203.07802 
L 184.425615 202.317624 
L 184.549347 202.317624 
L 184.549347 201.557228 
L 184.750544 201.557228 
L 184.855459 198.515644 
L 184.922197 198.515644 
L 184.922197 197.755248 
L 185.087665 197.755248 
L 185.194606 193.953267 
L 185.723308 193.953267 
L 185.768859 192.432475 
L 185.872162 192.432475 
L 185.872162 191.672079 
L 186.160957 191.672079 
L 186.160957 190.911683 
L 186.394964 190.911683 
L 186.394964 190.151287 
L 186.521766 190.151287 
L 186.521766 189.390891 
L 186.69586 189.390891 
L 186.69586 188.630495 
L 187.182631 188.630495 
L 187.182631 187.870099 
L 187.437192 187.870099 
L 187.501737 184.068119 
L 187.651268 184.068119 
L 187.651268 183.307723 
L 187.884579 183.307723 
L 187.884579 182.547327 
L 188.415086 182.547327 
L 188.433965 181.026535 
L 188.957686 181.026535 
L 188.957686 180.266139 
L 189.247469 180.266139 
L 189.305198 176.464158 
L 189.791262 176.464158 
L 189.848826 174.943366 
L 190.138154 174.943366 
L 190.138154 174.18297 
L 190.354874 174.18297 
L 190.354874 173.422574 
L 190.547099 173.422574 
L 190.642777 171.141386 
L 190.774093 171.141386 
L 190.87509 169.620594 
L 190.937844 169.620594 
L 190.937844 168.860198 
L 191.386077 168.860198 
L 191.386077 168.099802 
L 191.614089 168.099802 
L 191.711237 166.57901 
L 192.104177 166.57901 
L 192.124126 165.058218 
L 192.330043 165.058218 
L 192.330043 164.297822 
L 192.575519 164.297822 
L 192.585311 162.77703 
L 192.765721 162.77703 
L 192.765721 162.016634 
L 193.118573 162.016634 
L 193.229659 160.495842 
L 193.385608 160.495842 
L 193.463345 158.97505 
L 194.004538 158.97505 
L 194.106117 157.454257 
L 194.195344 157.454257 
L 194.195344 156.693861 
L 194.431172 156.693861 
L 194.431172 155.933465 
L 194.801012 155.933465 
L 194.890278 154.412673 
L 195.058308 154.412673 
L 195.058308 153.652277 
L 195.190044 153.652277 
L 195.249014 152.131485 
L 195.419438 152.131485 
L 195.419438 151.371089 
L 195.666812 151.371089 
L 195.750213 149.850297 
L 196.296027 149.850297 
L 196.296027 149.089901 
L 196.438839 149.089901 
L 196.438839 148.329505 
L 196.562229 148.329505 
L 196.58378 146.808713 
L 197.274675 146.808713 
L 197.378113 145.287921 
L 197.884037 145.287921 
L 197.927799 143.006733 
L 198.113705 143.006733 
L 198.160017 140.725545 
L 198.268371 140.725545 
L 198.268371 139.965149 
L 198.490469 139.965149 
L 198.490469 139.204752 
L 198.625593 139.204752 
L 198.625593 138.444356 
L 198.855163 138.444356 
L 198.911247 136.923564 
L 199.022697 136.923564 
L 199.084183 135.402772 
L 199.222254 135.402772 
L 199.252944 133.88198 
L 199.345928 133.88198 
L 199.345928 133.121584 
L 199.511114 133.121584 
L 199.563035 131.600792 
L 199.764195 131.600792 
L 199.845708 130.08 
L 199.922242 130.08 
L 199.981322 127.038416 
L 200.102854 127.038416 
L 200.196897 124.757228 
L 200.402318 124.757228 
L 200.433775 121.715644 
L 200.686094 121.715644 
L 200.762919 119.434455 
L 200.876588 119.434455 
L 200.932472 117.913663 
L 201.175432 117.913663 
L 201.175432 117.153267 
L 201.688405 117.153267 
L 201.767782 114.872079 
L 201.904574 114.872079 
L 201.998943 111.830495 
L 202.034661 111.830495 
L 202.034661 111.070099 
L 202.278461 111.070099 
L 202.29575 109.549307 
L 202.50923 109.549307 
L 202.61695 105.747327 
L 202.621512 105.747327 
L 202.621512 104.986931 
L 202.751733 104.986931 
L 202.751733 104.226535 
L 202.962978 104.226535 
L 203.046643 101.945347 
L 203.142552 101.945347 
L 203.243838 100.424554 
L 203.347101 100.424554 
L 203.347101 99.664158 
L 203.599001 99.664158 
L 203.709435 98.143366 
L 204.029489 98.143366 
L 204.031835 96.622574 
L 204.192199 96.622574 
L 204.192199 95.862178 
L 204.333846 95.862178 
L 204.333846 95.101782 
L 204.677681 95.101782 
L 204.774195 93.58099 
L 204.939666 93.58099 
L 204.939666 92.820594 
L 205.666946 92.820594 
L 205.666946 92.060198 
L 206.963585 92.060198 
L 206.963585 91.299802 
L 207.255697 91.299802 
L 207.255697 90.539406 
L 208.203708 90.539406 
L 208.203708 89.77901 
L 208.68699 89.77901 
L 208.68699 89.018614 
L 209.140227 89.018614 
L 209.140227 88.258218 
L 210.070761 88.258218 
L 210.070761 87.497822 
L 210.221393 87.497822 
L 210.221393 86.737426 
L 210.48116 86.737426 
L 210.48116 85.97703 
L 212.73649 85.97703 
L 212.73649 85.216634 
L 212.953807 85.216634 
L 212.953807 84.456238 
L 213.077949 84.456238 
L 213.077949 83.695842 
L 214.168089 83.695842 
L 214.193648 82.17505 
L 214.404717 82.17505 
L 214.404717 81.414653 
L 214.533864 81.414653 
L 214.630624 79.893861 
L 214.858881 79.893861 
L 214.858881 79.133465 
L 215.276244 79.133465 
L 215.276244 78.373069 
L 215.653706 78.373069 
L 215.653706 77.612673 
L 215.774296 77.612673 
L 215.774296 76.852277 
L 216.157804 76.852277 
L 216.157804 76.091881 
L 216.337055 76.091881 
L 216.358611 74.571089 
L 216.621248 74.571089 
L 216.621248 73.810693 
L 217.075873 73.810693 
L 217.075873 73.050297 
L 217.212641 73.050297 
L 217.262228 70.769109 
L 217.599636 70.769109 
L 217.664277 69.248317 
L 217.966678 69.248317 
L 218.040283 67.727525 
L 218.890787 67.727525 
L 218.890787 66.967129 
L 219.189425 66.967129 
L 219.197867 65.446337 
L 219.500489 65.446337 
L 219.500489 64.685941 
L 220.058569 64.685941 
L 220.058569 63.925545 
L 220.569734 63.925545 
L 220.581282 62.404752 
L 220.685965 62.404752 
L 220.685965 61.644356 
L 221.205774 61.644356 
L 221.205774 60.88396 
L 221.607499 60.88396 
L 221.607499 60.123564 
L 221.85109 60.123564 
L 221.933335 57.842376 
L 222.36438 57.842376 
L 222.36438 57.08198 
L 222.938934 57.08198 
L 223.038625 55.561188 
L 223.221023 55.561188 
L 223.221023 54.800792 
L 224.196819 54.800792 
L 224.196819 54.040396 
L 224.546498 54.040396 
L 224.546498 53.28 
L 225.878768 53.28 
L 225.928904 51.759208 
L 226.168265 51.759208 
L 226.168265 50.998812 
L 226.55749 50.998812 
L 226.55749 50.238416 
L 227.470294 50.238416 
L 227.527755 48.717624 
L 230.449911 48.717624 
L 230.449911 47.957228 
L 230.617267 47.957228 
L 230.617267 47.196832 
L 231.772573 47.196832 
L 231.772573 46.436436 
L 232.346581 46.436436 
L 232.346581 45.67604 
L 233.679272 45.67604 
L 233.679272 44.915644 
L 235.133359 44.915644 
L 235.133359 44.155248 
L 237.221318 44.155248 
L 237.221318 43.394851 
L 237.821187 43.394851 
L 237.821187 42.634455 
L 238.807161 42.634455 
L 238.807161 41.874059 
L 239.321266 41.874059 
L 239.321266 41.113663 
L 243.286179 41.113663 
L 243.286179 40.353267 
L 244.485239 40.353267 
L 244.485239 39.592871 
L 246.629101 39.592871 
L 246.629101 38.832475 
L 248.884555 38.832475 
L 248.884555 38.072079 
L 249.508968 38.072079 
L 249.508968 37.311683 
L 250.58944 37.311683 
L 250.58944 36.551287 
L 250.88903 36.551287 
L 250.908538 35.030495 
L 252.157506 35.030495 
L 252.157506 34.270099 
L 253.18637 34.270099 
L 253.18637 33.509703 
L 253.374756 33.509703 
L 253.374756 32.749307 
L 255.241322 32.749307 
L 255.293399 31.228515 
L 255.358882 31.228515 
L 255.358882 30.468119 
L 256.029916 30.468119 
L 256.029916 29.707723 
L 256.47242 29.707723 
L 256.47242 28.947327 
L 258.278535 28.947327 
L 258.278535 28.186931 
L 258.394495 28.186931 
L 258.394495 27.426535 
L 259.164332 27.426535 
L 259.164332 26.666139 
L 259.661204 26.666139 
L 259.661204 25.905743 
L 261.857187 25.905743 
L 261.857187 25.145347 
L 262.616895 25.145347 
L 262.616895 24.38495 
L 264.686074 24.38495 
L 264.686074 23.624554 
L 265.052107 23.624554 
L 265.052107 22.864158 
L 266.567089 22.864158 
L 266.567089 22.103762 
L 268.488153 22.103762 
L 268.488153 21.343366 
L 282.260939 21.343366 
L 282.260939 20.58297 
L 284.127747 20.58297 
L 284.127747 19.822574 
L 288.806789 19.822574 
L 288.806789 19.062178 
L 290.557146 19.062178 
L 290.557146 18.301782 
L 292.469638 18.301782 
L 292.523915 16.78099 
L 293.185645 16.78099 
L 293.185645 16.020594 
L 293.545562 16.020594 
L 293.545562 15.260198 
L 295.240699 15.260198 
L 295.240699 14.499802 
L 295.905066 14.499802 
L 295.905066 13.739406 
L 297.428973 13.739406 
L 297.428973 12.97901 
L 297.655679 12.97901 
L 297.655679 12.218614 
L 301.510035 12.218614 
L 301.510035 11.458218 
L 303.323844 11.458218 
L 303.323844 10.697822 
L 307.522485 10.697822 
L 307.522485 9.937426 
L 307.522485 9.937426 
L 364.32 9.937426 
L 364.32 9.937426 
" style="fill:none;stroke:#ff0000;stroke-linecap:square;stroke-width:3.0;"/>
   </g>
   <g id="line2d_2">
    <path clip-path="url(#pd0f98cd868)" d="M 178.971671 283.68 
L 178.971671 282.919604 
L 179.156773 282.919604 
L 179.156773 282.159208 
L 182.487173 282.159208 
L 182.5667 280.638416 
L 182.760443 280.638416 
L 182.760443 279.87802 
L 183.075549 279.87802 
L 183.115861 278.357228 
L 184.219731 278.357228 
L 184.219731 277.596832 
L 184.772415 277.596832 
L 184.846169 276.07604 
L 184.94995 276.07604 
L 184.94995 275.315644 
L 185.177372 275.315644 
L 185.276658 273.794851 
L 185.77555 273.794851 
L 185.77555 273.034455 
L 185.986801 273.034455 
L 186.050189 270.753267 
L 186.205046 270.753267 
L 186.205046 269.992871 
L 186.445183 269.992871 
L 186.445183 269.232475 
L 186.896979 269.232475 
L 186.999543 267.711683 
L 187.108564 267.711683 
L 187.108564 266.951287 
L 187.435072 266.951287 
L 187.435072 266.190891 
L 188.18132 266.190891 
L 188.288052 264.670099 
L 188.613503 264.670099 
L 188.613503 263.909703 
L 188.896931 263.909703 
L 188.896931 263.149307 
L 189.047243 263.149307 
L 189.047243 262.388911 
L 189.183247 262.388911 
L 189.183247 261.628515 
L 189.307198 261.628515 
L 189.307198 260.868119 
L 189.543679 260.868119 
L 189.64405 259.347327 
L 189.976025 259.347327 
L 189.976025 258.586931 
L 190.313872 258.586931 
L 190.371874 256.305743 
L 190.459375 256.305743 
L 190.551107 254.78495 
L 191.015578 254.78495 
L 191.074368 252.503762 
L 191.628794 252.503762 
L 191.628794 251.743366 
L 192.16872 251.743366 
L 192.16872 250.98297 
L 192.575288 250.98297 
L 192.575288 250.222574 
L 192.834155 250.222574 
L 192.888417 248.701782 
L 193.121935 248.701782 
L 193.121935 247.941386 
L 194.615433 247.941386 
L 194.615433 247.18099 
L 194.797108 247.18099 
L 194.797108 246.420594 
L 194.926126 246.420594 
L 194.926126 245.660198 
L 195.382878 245.660198 
L 195.382878 244.899802 
L 195.566649 244.899802 
L 195.566649 244.139406 
L 195.873894 244.139406 
L 195.873894 243.37901 
L 195.993511 243.37901 
L 195.993511 242.618614 
L 196.50592 242.618614 
L 196.50592 241.858218 
L 196.654658 241.858218 
L 196.727786 240.337426 
L 196.802564 240.337426 
L 196.807676 238.816634 
L 196.988543 238.816634 
L 196.988543 238.056238 
L 197.111012 238.056238 
L 197.111012 237.295842 
L 197.678688 237.295842 
L 197.678688 236.535446 
L 197.859212 236.535446 
L 197.916886 235.014653 
L 198.466484 235.014653 
L 198.466484 234.254257 
L 199.109876 234.254257 
L 199.109876 233.493861 
L 199.377342 233.493861 
L 199.393506 231.973069 
L 199.570207 231.973069 
L 199.599117 230.452277 
L 199.77891 230.452277 
L 199.845708 227.410693 
L 199.949317 227.410693 
L 200.058018 225.889901 
L 200.072062 225.889901 
L 200.094385 224.369109 
L 200.539368 224.369109 
L 200.585972 222.848317 
L 200.789691 222.848317 
L 200.789691 222.087921 
L 200.907666 222.087921 
L 201.005032 219.806733 
L 201.054131 219.806733 
L 201.113285 216.765149 
L 201.271263 216.765149 
L 201.271263 216.004752 
L 201.480955 216.004752 
L 201.539651 214.48396 
L 201.594338 214.48396 
L 201.666994 212.963168 
L 201.708768 212.963168 
L 201.801628 210.68198 
L 201.860245 210.68198 
L 201.864339 209.161188 
L 202.103595 209.161188 
L 202.109243 206.88 
L 202.247255 206.88 
L 202.272914 205.359208 
L 202.47654 205.359208 
L 202.542877 203.07802 
L 202.765697 203.07802 
L 202.807725 200.036436 
L 202.944496 200.036436 
L 202.972834 197.755248 
L 203.090017 197.755248 
L 203.106436 196.234455 
L 203.273467 196.234455 
L 203.273467 195.474059 
L 203.388898 195.474059 
L 203.471466 193.953267 
L 203.502985 193.953267 
L 203.575104 191.672079 
L 203.625228 191.672079 
L 203.691249 189.390891 
L 203.764671 189.390891 
L 203.853493 187.870099 
L 203.877304 187.870099 
L 203.90497 186.349307 
L 204.014106 186.349307 
L 204.080786 184.828515 
L 204.191534 184.828515 
L 204.191534 184.068119 
L 204.423708 184.068119 
L 204.491848 181.786931 
L 204.59546 181.786931 
L 204.700171 177.98495 
L 204.707595 177.98495 
L 204.707595 177.224554 
L 204.82919 177.224554 
L 204.82919 176.464158 
L 205.161306 176.464158 
L 205.217844 174.18297 
L 205.362127 174.18297 
L 205.362127 173.422574 
L 205.623187 173.422574 
L 205.642201 171.901782 
L 205.740861 171.901782 
L 205.762791 170.38099 
L 206.47553 170.38099 
L 206.576329 168.099802 
L 206.593567 168.099802 
L 206.702276 166.57901 
L 206.713877 166.57901 
L 206.713877 165.818614 
L 206.861358 165.818614 
L 206.874862 164.297822 
L 207.066096 164.297822 
L 207.091918 162.77703 
L 207.189952 162.77703 
L 207.206592 161.256238 
L 207.415241 161.256238 
L 207.445694 158.97505 
L 207.591563 158.97505 
L 207.591563 158.214653 
L 207.765008 158.214653 
L 207.789673 156.693861 
L 208.84849 156.693861 
L 208.84849 155.933465 
L 209.132592 155.933465 
L 209.132592 155.173069 
L 209.294965 155.173069 
L 209.294965 154.412673 
L 209.409501 154.412673 
L 209.409501 153.652277 
L 209.533051 153.652277 
L 209.575916 152.131485 
L 209.656073 152.131485 
L 209.695897 150.610693 
L 209.976764 150.610693 
L 209.976764 149.850297 
L 210.836204 149.850297 
L 210.836204 149.089901 
L 212.024702 149.089901 
L 212.024702 148.329505 
L 212.137786 148.329505 
L 212.161285 146.048317 
L 212.416259 146.048317 
L 212.416259 145.287921 
L 212.57386 145.287921 
L 212.57386 144.527525 
L 213.114523 144.527525 
L 213.171121 143.006733 
L 213.562778 143.006733 
L 213.573928 141.485941 
L 214.113181 141.485941 
L 214.113181 140.725545 
L 214.233951 140.725545 
L 214.250778 138.444356 
L 214.4494 138.444356 
L 214.490285 136.923564 
L 214.746393 136.923564 
L 214.746393 136.163168 
L 215.204821 136.163168 
L 215.204821 135.402772 
L 215.578132 135.402772 
L 215.627008 133.88198 
L 216.082229 133.88198 
L 216.164212 131.600792 
L 216.219166 131.600792 
L 216.232552 130.08 
L 216.498415 130.08 
L 216.498415 129.319604 
L 216.62249 129.319604 
L 216.623628 127.798812 
L 216.824443 127.798812 
L 216.869133 126.27802 
L 217.268656 126.27802 
L 217.268656 125.517624 
L 217.529819 125.517624 
L 217.529819 124.757228 
L 218.462889 124.757228 
L 218.462889 123.996832 
L 219.855393 123.996832 
L 219.855393 123.236436 
L 220.463288 123.236436 
L 220.463288 122.47604 
L 220.584713 122.47604 
L 220.584713 121.715644 
L 220.697767 121.715644 
L 220.697767 120.955248 
L 221.993704 120.955248 
L 221.993704 120.194851 
L 222.117011 120.194851 
L 222.117011 119.434455 
L 222.624006 119.434455 
L 222.624006 118.674059 
L 222.837202 118.674059 
L 222.837202 117.913663 
L 223.043264 117.913663 
L 223.043264 117.153267 
L 223.823913 117.153267 
L 223.823913 116.392871 
L 223.971538 116.392871 
L 223.971538 115.632475 
L 224.45423 115.632475 
L 224.45423 114.872079 
L 224.575219 114.872079 
L 224.584254 112.590891 
L 225.392034 112.590891 
L 225.392034 111.830495 
L 225.629534 111.830495 
L 225.629534 111.070099 
L 226.278567 111.070099 
L 226.385482 109.549307 
L 226.450457 109.549307 
L 226.450457 108.788911 
L 227.337785 108.788911 
L 227.337785 108.028515 
L 227.56939 108.028515 
L 227.56939 107.268119 
L 227.723569 107.268119 
L 227.786396 105.747327 
L 228.00854 105.747327 
L 228.00854 104.986931 
L 228.284184 104.986931 
L 228.284184 104.226535 
L 229.722303 104.226535 
L 229.722303 103.466139 
L 231.369905 103.466139 
L 231.369905 102.705743 
L 231.879104 102.705743 
L 231.879104 101.945347 
L 233.214261 101.945347 
L 233.214261 101.18495 
L 233.7636 101.18495 
L 233.7636 100.424554 
L 235.311028 100.424554 
L 235.311028 99.664158 
L 236.635498 99.664158 
L 236.635498 98.903762 
L 239.45 98.903762 
L 239.45 98.143366 
L 240.253957 98.143366 
L 240.253957 97.38297 
L 242.360815 97.38297 
L 242.360815 96.622574 
L 243.210673 96.622574 
L 243.210673 95.862178 
L 246.973438 95.862178 
L 246.973438 95.101782 
L 248.730796 95.101782 
L 248.730796 94.341386 
L 249.208794 94.341386 
L 249.208794 93.58099 
L 249.67914 93.58099 
L 249.67914 92.820594 
L 249.982831 92.820594 
L 250.014414 91.299802 
L 250.31809 91.299802 
L 250.351832 89.77901 
L 250.803826 89.77901 
L 250.803826 89.018614 
L 251.185245 89.018614 
L 251.185245 88.258218 
L 252.018311 88.258218 
L 252.018311 87.497822 
L 252.848017 87.497822 
L 252.848017 86.737426 
L 253.075609 86.737426 
L 253.075609 85.97703 
L 253.242751 85.97703 
L 253.242751 85.216634 
L 254.252843 85.216634 
L 254.252843 84.456238 
L 254.440538 84.456238 
L 254.440538 83.695842 
L 254.651889 83.695842 
L 254.651889 82.935446 
L 255.672467 82.935446 
L 255.672467 82.17505 
L 255.858747 82.17505 
L 255.858747 81.414653 
L 255.974126 81.414653 
L 256.02227 79.133465 
L 257.457468 79.133465 
L 257.457468 78.373069 
L 257.838899 78.373069 
L 257.838899 77.612673 
L 258.445362 77.612673 
L 258.445362 76.852277 
L 259.209694 76.852277 
L 259.209694 76.091881 
L 259.441641 76.091881 
L 259.441641 75.331485 
L 259.96285 75.331485 
L 259.96285 74.571089 
L 260.94484 74.571089 
L 261.007565 73.050297 
L 261.43438 73.050297 
L 261.43438 72.289901 
L 262.029831 72.289901 
L 262.052526 70.769109 
L 262.287225 70.769109 
L 262.287225 70.008713 
L 263.146688 70.008713 
L 263.146688 69.248317 
L 264.481357 69.248317 
L 264.481357 68.487921 
L 265.384396 68.487921 
L 265.384396 67.727525 
L 266.201019 67.727525 
L 266.201019 66.967129 
L 266.846052 66.967129 
L 266.846052 66.206733 
L 266.964697 66.206733 
L 267.007652 64.685941 
L 267.128142 64.685941 
L 267.128142 63.925545 
L 267.845493 63.925545 
L 267.845493 63.165149 
L 268.410336 63.165149 
L 268.410336 62.404752 
L 269.034547 62.404752 
L 269.034547 61.644356 
L 269.315417 61.644356 
L 269.315417 60.88396 
L 269.535453 60.88396 
L 269.535453 60.123564 
L 269.784605 60.123564 
L 269.784605 59.363168 
L 271.147703 59.363168 
L 271.147703 58.602772 
L 272.075916 58.602772 
L 272.075916 57.842376 
L 273.076401 57.842376 
L 273.076401 57.08198 
L 273.714732 57.08198 
L 273.824929 55.561188 
L 273.97661 55.561188 
L 273.97661 54.800792 
L 274.839954 54.800792 
L 274.839954 54.040396 
L 275.924344 54.040396 
L 275.924344 53.28 
L 276.213275 53.28 
L 276.213275 52.519604 
L 277.280692 52.519604 
L 277.280692 51.759208 
L 279.141268 51.759208 
L 279.141268 50.998812 
L 279.285105 50.998812 
L 279.285105 50.238416 
L 280.517167 50.238416 
L 280.517167 49.47802 
L 281.987759 49.47802 
L 281.987759 48.717624 
L 283.859031 48.717624 
L 283.859031 47.957228 
L 285.209133 47.957228 
L 285.209133 47.196832 
L 289.908717 47.196832 
L 289.908717 46.436436 
L 290.109046 46.436436 
L 290.109046 45.67604 
L 290.583812 45.67604 
L 290.680084 43.394851 
L 290.906862 43.394851 
L 290.906862 42.634455 
L 291.150177 42.634455 
L 291.150177 41.874059 
L 291.371461 41.874059 
L 291.371461 41.113663 
L 291.961255 41.113663 
L 291.961255 40.353267 
L 292.197576 40.353267 
L 292.197576 39.592871 
L 294.077086 39.592871 
L 294.077086 38.832475 
L 294.376358 38.832475 
L 294.376358 38.072079 
L 295.856848 38.072079 
L 295.856848 37.311683 
L 296.163895 37.311683 
L 296.163895 36.551287 
L 298.144003 36.551287 
L 298.144003 35.790891 
L 298.279863 35.790891 
L 298.279863 35.030495 
L 298.453514 35.030495 
L 298.453514 34.270099 
L 298.803892 34.270099 
L 298.803892 33.509703 
L 299.386179 33.509703 
L 299.49708 31.228515 
L 300.030944 31.228515 
L 300.030944 30.468119 
L 301.007603 30.468119 
L 301.007603 29.707723 
L 301.591936 29.707723 
L 301.591936 28.947327 
L 302.043612 28.947327 
L 302.043612 28.186931 
L 303.222499 28.186931 
L 303.222499 27.426535 
L 305.693274 27.426535 
L 305.693274 26.666139 
L 306.00757 26.666139 
L 306.00757 25.905743 
L 307.235603 25.905743 
L 307.235603 25.145347 
L 308.558929 25.145347 
L 308.558929 24.38495 
L 310.072988 24.38495 
L 310.072988 23.624554 
L 310.771634 23.624554 
L 310.791842 22.103762 
L 313.4826 22.103762 
L 313.4826 21.343366 
L 313.612728 21.343366 
L 313.681916 19.822574 
L 313.743019 19.822574 
L 313.743019 19.062178 
L 313.980512 19.062178 
L 313.980512 18.301782 
L 314.303347 18.301782 
L 314.31695 16.78099 
L 314.560088 16.78099 
L 314.560088 16.020594 
L 314.839651 16.020594 
L 314.839651 15.260198 
L 315.251732 15.260198 
L 315.251732 14.499802 
L 315.934869 14.499802 
L 315.934869 13.739406 
L 316.663689 13.739406 
L 316.663689 12.97901 
L 317.467161 12.97901 
L 317.467161 12.218614 
L 318.652127 12.218614 
L 318.652127 11.458218 
L 325.299728 11.458218 
L 325.299728 10.697822 
L 351.352566 10.697822 
L 351.352566 9.937426 
L 351.352566 9.937426 
L 364.32 9.937426 
L 364.32 9.937426 
" style="fill:none;stroke:#00bfbf;stroke-linecap:square;"/>
   </g>
   <g id="line2d_3">
    <path clip-path="url(#pd0f98cd868)" d="M 175.848794 283.68 
L 175.848794 282.919604 
L 178.971671 282.919604 
L 178.971671 282.159208 
L 179.156773 282.159208 
L 179.20833 280.638416 
L 180.190926 280.638416 
L 180.190926 279.87802 
L 181.429268 279.87802 
L 181.429268 279.117624 
L 182.487173 279.117624 
L 182.487173 278.357228 
L 182.760443 278.357228 
L 182.760443 277.596832 
L 183.075549 277.596832 
L 183.115861 276.07604 
L 183.357667 276.07604 
L 183.357667 275.315644 
L 183.648853 275.315644 
L 183.648853 274.555248 
L 183.863757 274.555248 
L 183.863757 273.794851 
L 184.1345 273.794851 
L 184.219731 271.513663 
L 184.322126 271.513663 
L 184.322126 270.753267 
L 184.772415 270.753267 
L 184.846169 269.232475 
L 184.94995 269.232475 
L 184.94995 268.472079 
L 185.166265 268.472079 
L 185.276658 265.430495 
L 185.77555 265.430495 
L 185.820188 263.909703 
L 185.986801 263.909703 
L 186.050189 260.868119 
L 186.356306 260.868119 
L 186.462992 257.826535 
L 186.896979 257.826535 
L 186.999543 256.305743 
L 187.108564 256.305743 
L 187.108564 255.545347 
L 187.258346 255.545347 
L 187.258346 254.78495 
L 187.435072 254.78495 
L 187.435072 254.024554 
L 187.626155 254.024554 
L 187.650906 252.503762 
L 187.899534 252.503762 
L 187.899534 251.743366 
L 188.155512 251.743366 
L 188.177141 250.222574 
L 188.613503 250.222574 
L 188.654308 248.701782 
L 189.047243 248.701782 
L 189.047243 247.941386 
L 189.183247 247.941386 
L 189.183247 247.18099 
L 189.471638 247.18099 
L 189.543679 245.660198 
L 190.308392 245.660198 
L 190.355066 242.618614 
L 190.459375 242.618614 
L 190.551107 240.337426 
L 190.750209 240.337426 
L 190.777911 238.816634 
L 191.015578 238.816634 
L 191.015578 238.056238 
L 191.367811 238.056238 
L 191.367811 237.295842 
L 191.512125 237.295842 
L 191.527994 235.77505 
L 191.628794 235.77505 
L 191.628794 235.014653 
L 192.392185 235.014653 
L 192.498244 233.493861 
L 192.834155 233.493861 
L 192.834155 232.733465 
L 193.486882 232.733465 
L 193.486882 231.973069 
L 193.666456 231.973069 
L 193.666456 231.212673 
L 193.814234 231.212673 
L 193.814234 230.452277 
L 194.02739 230.452277 
L 194.02739 229.691881 
L 194.249812 229.691881 
L 194.249812 228.931485 
L 194.375984 228.931485 
L 194.375984 228.171089 
L 194.615433 228.171089 
L 194.615433 227.410693 
L 195.311672 227.410693 
L 195.382878 225.129505 
L 195.628256 225.129505 
L 195.668952 223.608713 
L 195.740219 223.608713 
L 195.775951 222.087921 
L 195.993511 222.087921 
L 195.993511 221.327525 
L 196.181379 221.327525 
L 196.249819 219.046337 
L 196.378686 219.046337 
L 196.438839 216.765149 
L 196.50592 216.765149 
L 196.50592 216.004752 
L 196.635324 216.004752 
L 196.727786 212.963168 
L 196.802564 212.963168 
L 196.802564 212.202772 
L 196.914989 212.202772 
L 196.988543 209.921584 
L 197.175927 209.921584 
L 197.23983 207.640396 
L 197.36107 207.640396 
L 197.36107 206.88 
L 197.652791 206.88 
L 197.652791 206.119604 
L 197.935465 206.119604 
L 197.935465 205.359208 
L 198.392042 205.359208 
L 198.466484 203.07802 
L 198.50767 203.07802 
L 198.50767 202.317624 
L 198.661695 202.317624 
L 198.684091 200.796832 
L 198.855163 200.796832 
L 198.855163 200.036436 
L 199.086008 200.036436 
L 199.162976 198.515644 
L 199.299134 198.515644 
L 199.393506 196.994851 
L 199.655366 196.994851 
L 199.655366 196.234455 
L 199.82151 196.234455 
L 199.845708 194.713663 
L 200.006746 194.713663 
L 200.078038 193.192871 
L 200.156954 193.192871 
L 200.156954 192.432475 
L 200.539368 192.432475 
L 200.627459 190.151287 
L 200.895165 190.151287 
L 200.895165 189.390891 
L 201.053569 189.390891 
L 201.110917 187.870099 
L 201.385567 187.870099 
L 201.385567 187.109703 
L 201.594338 187.109703 
L 201.686661 185.588911 
L 201.740145 185.588911 
L 201.740145 184.828515 
L 201.864339 184.828515 
L 201.864339 184.068119 
L 202.109243 184.068119 
L 202.109243 183.307723 
L 202.346904 183.307723 
L 202.382816 181.786931 
L 202.47654 181.786931 
L 202.586518 180.266139 
L 202.60857 180.266139 
L 202.689468 178.745347 
L 202.765697 178.745347 
L 202.84709 176.464158 
L 202.93037 176.464158 
L 203.009462 171.901782 
L 203.046643 171.901782 
L 203.118043 168.099802 
L 203.287838 168.099802 
L 203.287838 167.339406 
L 203.464331 167.339406 
L 203.575104 165.058218 
L 203.582175 165.058218 
L 203.656309 162.016634 
L 203.853493 162.016634 
L 203.961874 160.495842 
L 204.199047 160.495842 
L 204.305422 158.214653 
L 204.375608 158.214653 
L 204.445045 156.693861 
L 204.59546 156.693861 
L 204.689851 155.173069 
L 204.92121 155.173069 
L 204.92121 154.412673 
L 205.217844 154.412673 
L 205.217844 153.652277 
L 205.362127 153.652277 
L 205.362127 152.891881 
L 205.579429 152.891881 
L 205.579429 152.131485 
L 205.786461 152.131485 
L 205.86401 149.850297 
L 205.938186 149.850297 
L 205.938186 149.089901 
L 206.677522 149.089901 
L 206.695716 147.569109 
L 206.792738 147.569109 
L 206.792738 146.808713 
L 206.922099 146.808713 
L 206.922099 146.048317 
L 207.206592 146.048317 
L 207.206592 145.287921 
L 207.434879 145.287921 
L 207.443352 143.767129 
L 207.569558 143.767129 
L 207.569558 143.006733 
L 207.717552 143.006733 
L 207.717552 142.246337 
L 208.015155 142.246337 
L 208.015155 141.485941 
L 208.336799 141.485941 
L 208.344625 139.965149 
L 208.518725 139.965149 
L 208.518725 139.204752 
L 209.132592 139.204752 
L 209.132592 138.444356 
L 209.575916 138.444356 
L 209.656073 136.923564 
L 209.723576 136.923564 
L 209.723576 136.163168 
L 209.83896 136.163168 
L 209.895028 134.642376 
L 209.976764 134.642376 
L 209.976764 133.88198 
L 210.784844 133.88198 
L 210.836204 132.361188 
L 211.412811 132.361188 
L 211.412811 131.600792 
L 211.656046 131.600792 
L 211.656046 130.840396 
L 212.011525 130.840396 
L 212.08997 129.319604 
L 212.202408 129.319604 
L 212.202408 128.559208 
L 212.404358 128.559208 
L 212.466066 126.27802 
L 212.962064 126.27802 
L 212.962064 125.517624 
L 213.338894 125.517624 
L 213.338894 124.757228 
L 213.562778 124.757228 
L 213.562778 123.996832 
L 213.894125 123.996832 
L 213.929083 121.715644 
L 214.113181 121.715644 
L 214.113181 120.955248 
L 214.250778 120.955248 
L 214.250778 120.194851 
L 214.4494 120.194851 
L 214.515421 118.674059 
L 214.574857 118.674059 
L 214.574857 117.913663 
L 214.733202 117.913663 
L 214.746393 116.392871 
L 215.578132 116.392871 
L 215.578132 115.632475 
L 216.082229 115.632475 
L 216.082229 114.872079 
L 216.271618 114.872079 
L 216.271618 114.111683 
L 216.62249 114.111683 
L 216.62249 113.351287 
L 216.884857 113.351287 
L 216.884857 112.590891 
L 217.262605 112.590891 
L 217.262605 111.830495 
L 220.754712 111.830495 
L 220.754712 111.070099 
L 220.994468 111.070099 
L 220.994468 110.309703 
L 222.624006 110.309703 
L 222.624006 109.549307 
L 222.837202 109.549307 
L 222.837202 108.788911 
L 223.699968 108.788911 
L 223.80297 106.507723 
L 223.971538 106.507723 
L 223.971538 105.747327 
L 224.584254 105.747327 
L 224.584254 104.986931 
L 224.957536 104.986931 
L 225.003533 103.466139 
L 225.255163 103.466139 
L 225.3119 101.945347 
L 225.523431 101.945347 
L 225.523431 101.18495 
L 226.385482 101.18495 
L 226.385482 100.424554 
L 227.385643 100.424554 
L 227.385643 99.664158 
L 228.284184 99.664158 
L 228.284184 98.903762 
L 228.592151 98.903762 
L 228.592151 98.143366 
L 233.7636 98.143366 
L 233.7636 97.38297 
L 233.932826 97.38297 
L 233.932826 96.622574 
L 234.714551 96.622574 
L 234.714551 95.862178 
L 237.305592 95.862178 
L 237.305592 95.101782 
L 237.459067 95.101782 
L 237.459067 94.341386 
L 238.10719 94.341386 
L 238.10719 93.58099 
L 238.275459 93.58099 
L 238.275459 92.820594 
L 238.677529 92.820594 
L 238.787741 91.299802 
L 239.249658 91.299802 
L 239.310116 89.77901 
L 239.45 89.77901 
L 239.45 89.018614 
L 240.253957 89.018614 
L 240.253957 88.258218 
L 240.757721 88.258218 
L 240.757721 87.497822 
L 241.321785 87.497822 
L 241.321785 86.737426 
L 241.623529 86.737426 
L 241.623529 85.97703 
L 242.378123 85.97703 
L 242.378123 85.216634 
L 243.180134 85.216634 
L 243.244696 82.935446 
L 243.371478 82.935446 
L 243.371478 82.17505 
L 243.522388 82.17505 
L 243.522388 81.414653 
L 243.899202 81.414653 
L 243.899202 80.654257 
L 245.088296 80.654257 
L 245.088296 79.893861 
L 245.25552 79.893861 
L 245.25552 79.133465 
L 245.940754 79.133465 
L 245.976571 77.612673 
L 247.411219 77.612673 
L 247.411219 76.852277 
L 247.712023 76.852277 
L 247.712023 76.091881 
L 248.730796 76.091881 
L 248.825834 74.571089 
L 249.67914 74.571089 
L 249.67914 73.810693 
L 250.014414 73.810693 
L 250.014414 73.050297 
L 250.365751 73.050297 
L 250.416986 71.529505 
L 250.681192 71.529505 
L 250.681192 70.769109 
L 251.265826 70.769109 
L 251.265826 70.008713 
L 251.762869 70.008713 
L 251.762869 69.248317 
L 252.848017 69.248317 
L 252.848017 68.487921 
L 252.980329 68.487921 
L 252.980329 67.727525 
L 253.121551 67.727525 
L 253.121551 66.967129 
L 254.252843 66.967129 
L 254.252843 66.206733 
L 254.651889 66.206733 
L 254.651889 65.446337 
L 255.974126 65.446337 
L 256.02227 63.925545 
L 256.926235 63.925545 
L 256.926235 63.165149 
L 257.099118 63.165149 
L 257.099118 62.404752 
L 258.035534 62.404752 
L 258.035534 61.644356 
L 259.278208 61.644356 
L 259.278208 60.88396 
L 263.014756 60.88396 
L 263.014756 60.123564 
L 263.146688 60.123564 
L 263.146688 59.363168 
L 263.510683 59.363168 
L 263.510683 58.602772 
L 265.427906 58.602772 
L 265.427906 57.842376 
L 267.128142 57.842376 
L 267.128142 57.08198 
L 267.404852 57.08198 
L 267.404852 56.321584 
L 268.410336 56.321584 
L 268.410336 55.561188 
L 268.973614 55.561188 
L 268.973614 54.800792 
L 269.315417 54.800792 
L 269.315417 54.040396 
L 269.535453 54.040396 
L 269.535453 53.28 
L 269.784605 53.28 
L 269.784605 52.519604 
L 269.968359 52.519604 
L 269.968359 51.759208 
L 273.076401 51.759208 
L 273.076401 50.998812 
L 274.839954 50.998812 
L 274.839954 50.238416 
L 275.792567 50.238416 
L 275.861033 47.957228 
L 276.70159 47.957228 
L 276.70159 47.196832 
L 277.280692 47.196832 
L 277.280692 46.436436 
L 277.927782 46.436436 
L 277.927782 45.67604 
L 278.620657 45.67604 
L 278.620657 44.915644 
L 279.285105 44.915644 
L 279.285105 44.155248 
L 279.752094 44.155248 
L 279.752094 43.394851 
L 280.517167 43.394851 
L 280.517167 42.634455 
L 280.69389 42.634455 
L 280.69389 41.874059 
L 281.435575 41.874059 
L 281.435575 41.113663 
L 281.987759 41.113663 
L 281.987759 40.353267 
L 282.283263 40.353267 
L 282.283263 39.592871 
L 282.499817 39.592871 
L 282.499817 38.832475 
L 283.005416 38.832475 
L 283.005416 38.072079 
L 285.209133 38.072079 
L 285.209133 37.311683 
L 287.859697 37.311683 
L 287.859697 36.551287 
L 288.168835 36.551287 
L 288.168835 35.790891 
L 289.908717 35.790891 
L 289.908717 35.030495 
L 290.109046 35.030495 
L 290.217219 33.509703 
L 290.583812 33.509703 
L 290.583812 32.749307 
L 290.906862 32.749307 
L 290.906862 31.988911 
L 291.150177 31.988911 
L 291.210202 30.468119 
L 291.371461 30.468119 
L 291.371461 29.707723 
L 291.584914 29.707723 
L 291.584914 28.947327 
L 292.992468 28.947327 
L 292.992468 28.186931 
L 294.963995 28.186931 
L 294.963995 27.426535 
L 295.464875 27.426535 
L 295.464875 26.666139 
L 298.453514 26.666139 
L 298.453514 25.905743 
L 299.386179 25.905743 
L 299.386179 25.145347 
L 299.526215 25.145347 
L 299.526215 24.38495 
L 300.965758 24.38495 
L 300.965758 23.624554 
L 301.623814 23.624554 
L 301.623814 22.864158 
L 302.043612 22.864158 
L 302.043612 22.103762 
L 302.218627 22.103762 
L 302.218627 21.343366 
L 304.601679 21.343366 
L 304.601679 20.58297 
L 305.891882 20.58297 
L 305.891882 19.822574 
L 306.315811 19.822574 
L 306.315811 19.062178 
L 307.913504 19.062178 
L 307.913504 18.301782 
L 308.502813 18.301782 
L 308.502813 17.541386 
L 309.040976 17.541386 
L 309.040976 16.78099 
L 310.072988 16.78099 
L 310.072988 16.020594 
L 313.612728 16.020594 
L 313.612728 15.260198 
L 313.743019 15.260198 
L 313.743019 14.499802 
L 313.980512 14.499802 
L 313.980512 13.739406 
L 314.303347 13.739406 
L 314.303347 12.97901 
L 314.560088 12.97901 
L 314.560088 12.218614 
L 315.934869 12.218614 
L 315.934869 11.458218 
L 316.663689 11.458218 
L 316.663689 10.697822 
L 316.839448 10.697822 
L 316.839448 9.937426 
L 316.839448 9.937426 
L 364.32 9.937426 
L 364.32 9.937426 
" style="fill:none;stroke:#bf00bf;stroke-linecap:square;"/>
   </g>
   <g id="line2d_4">
    <path clip-path="url(#pd0f98cd868)" d="M 174.811233 283.68 
L 174.811233 282.919604 
L 174.975263 282.919604 
L 174.975263 282.159208 
L 175.296017 282.159208 
L 175.296017 281.398812 
L 175.73313 281.398812 
L 175.73313 280.638416 
L 175.848794 280.638416 
L 175.848794 279.87802 
L 177.064299 279.87802 
L 177.064299 279.117624 
L 177.41339 279.117624 
L 177.41339 278.357228 
L 177.913269 278.357228 
L 177.913269 277.596832 
L 178.960078 277.596832 
L 178.971671 276.07604 
L 179.156773 276.07604 
L 179.20833 274.555248 
L 179.864665 274.555248 
L 179.864665 273.794851 
L 180.190926 273.794851 
L 180.190926 273.034455 
L 180.553326 273.034455 
L 180.553326 272.274059 
L 180.998039 272.274059 
L 180.998039 271.513663 
L 181.252773 271.513663 
L 181.347716 269.992871 
L 181.429268 269.992871 
L 181.429268 269.232475 
L 182.174774 269.232475 
L 182.174774 268.472079 
L 182.723049 268.472079 
L 182.723049 267.711683 
L 182.884955 267.711683 
L 182.884955 266.951287 
L 183.075549 266.951287 
L 183.075549 266.190891 
L 183.306319 266.190891 
L 183.357667 264.670099 
L 183.648853 264.670099 
L 183.668727 263.149307 
L 184.081736 263.149307 
L 184.081736 262.388911 
L 184.193971 262.388911 
L 184.2545 260.107723 
L 184.322126 260.107723 
L 184.355513 258.586931 
L 184.794007 258.586931 
L 184.855459 255.545347 
L 184.942832 255.545347 
L 184.942832 254.78495 
L 185.166265 254.78495 
L 185.177372 252.503762 
L 185.463072 252.503762 
L 185.463072 251.743366 
L 185.576947 251.743366 
L 185.576947 250.98297 
L 185.77555 250.98297 
L 185.850003 248.701782 
L 185.99198 248.701782 
L 186.050189 246.420594 
L 186.356306 246.420594 
L 186.462992 243.37901 
L 186.521766 243.37901 
L 186.569009 241.858218 
L 187.108564 241.858218 
L 187.108564 241.097822 
L 187.258346 241.097822 
L 187.258346 240.337426 
L 187.552662 240.337426 
L 187.650906 237.295842 
L 187.899534 237.295842 
L 187.971179 235.77505 
L 188.29197 235.77505 
L 188.29197 235.014653 
L 189.047243 235.014653 
L 189.050151 233.493861 
L 189.183247 233.493861 
L 189.183247 232.733465 
L 189.543679 232.733465 
L 189.543679 231.973069 
L 189.895853 231.973069 
L 189.895853 231.212673 
L 190.313872 231.212673 
L 190.355066 228.931485 
L 190.575164 228.931485 
L 190.575164 228.171089 
L 190.731112 228.171089 
L 190.731112 227.410693 
L 191.362639 227.410693 
L 191.367811 225.889901 
L 191.628794 225.889901 
L 191.715499 224.369109 
L 191.852617 224.369109 
L 191.923257 222.848317 
L 192.11485 222.848317 
L 192.11485 222.087921 
L 192.279888 222.087921 
L 192.279888 221.327525 
L 192.392185 221.327525 
L 192.392185 220.567129 
L 192.575519 220.567129 
L 192.575519 219.806733 
L 192.759501 219.806733 
L 192.759501 219.046337 
L 192.914144 219.046337 
L 192.921873 217.525545 
L 193.347128 217.525545 
L 193.352773 216.004752 
L 193.640488 216.004752 
L 193.72912 212.963168 
L 193.762859 212.963168 
L 193.852196 211.442376 
L 193.9025 211.442376 
L 193.9025 210.68198 
L 194.020703 210.68198 
L 194.02739 209.161188 
L 194.165721 209.161188 
L 194.273129 205.359208 
L 194.331863 205.359208 
L 194.331863 204.598812 
L 194.615433 204.598812 
L 194.691054 203.07802 
L 194.810795 203.07802 
L 194.810795 202.317624 
L 194.98998 202.317624 
L 194.98998 201.557228 
L 195.311672 201.557228 
L 195.382878 200.036436 
L 195.586746 200.036436 
L 195.628256 198.515644 
L 195.775951 198.515644 
L 195.775951 197.755248 
L 195.993511 197.755248 
L 195.993511 196.994851 
L 196.119059 196.994851 
L 196.119059 196.234455 
L 196.249819 196.234455 
L 196.249819 195.474059 
L 196.392046 195.474059 
L 196.438839 193.953267 
L 196.580247 193.953267 
L 196.654658 192.432475 
L 196.914989 192.432475 
L 196.988543 190.911683 
L 197.07662 190.911683 
L 197.175927 189.390891 
L 197.506103 189.390891 
L 197.576258 187.870099 
L 197.707728 187.870099 
L 197.753248 186.349307 
L 197.883299 186.349307 
L 197.994308 184.068119 
L 198.273011 184.068119 
L 198.273011 183.307723 
L 198.661695 183.307723 
L 198.661695 182.547327 
L 198.855163 182.547327 
L 198.855163 181.786931 
L 199.038604 181.786931 
L 199.038604 181.026535 
L 199.162976 181.026535 
L 199.197523 179.505743 
L 199.300692 179.505743 
L 199.393506 177.98495 
L 199.845708 177.98495 
L 199.946986 175.703762 
L 200.078038 175.703762 
L 200.156954 174.18297 
L 200.341303 174.18297 
L 200.341303 173.422574 
L 200.509073 173.422574 
L 200.509073 172.662178 
L 200.687245 172.662178 
L 200.750416 171.141386 
L 200.829604 171.141386 
L 200.829604 170.38099 
L 201.040341 170.38099 
L 201.053569 168.860198 
L 201.264931 168.860198 
L 201.29253 166.57901 
L 201.385567 166.57901 
L 201.385567 165.818614 
L 201.557533 165.818614 
L 201.633721 164.297822 
L 201.740145 164.297822 
L 201.740145 163.537426 
L 202.109243 163.537426 
L 202.183707 162.016634 
L 202.328305 162.016634 
L 202.328305 161.256238 
L 202.681565 161.256238 
L 202.758679 159.735446 
L 202.960148 159.735446 
L 203.046643 158.214653 
L 203.08779 158.214653 
L 203.118043 155.933465 
L 203.216518 155.933465 
L 203.216518 155.173069 
L 203.429678 155.173069 
L 203.52835 152.891881 
L 203.575104 152.891881 
L 203.656309 150.610693 
L 203.961874 150.610693 
L 203.961874 149.850297 
L 204.199047 149.850297 
L 204.292383 147.569109 
L 204.424715 147.569109 
L 204.445045 146.048317 
L 204.677681 146.048317 
L 204.689851 143.767129 
L 204.827076 143.767129 
L 204.92121 141.485941 
L 205.217844 141.485941 
L 205.217844 140.725545 
L 205.386648 140.725545 
L 205.430291 139.204752 
L 205.699007 139.204752 
L 205.699007 138.444356 
L 205.819807 138.444356 
L 205.862736 136.923564 
L 206.040636 136.923564 
L 206.040636 136.163168 
L 206.51591 136.163168 
L 206.603461 134.642376 
L 206.674001 134.642376 
L 206.674001 133.88198 
L 206.792738 133.88198 
L 206.797253 132.361188 
L 206.922099 132.361188 
L 206.922099 131.600792 
L 207.258352 131.600792 
L 207.258352 130.840396 
L 207.484308 130.840396 
L 207.569558 128.559208 
L 207.717552 128.559208 
L 207.717552 127.798812 
L 207.865681 127.798812 
L 207.865681 127.038416 
L 208.015155 127.038416 
L 208.015155 126.27802 
L 208.518725 126.27802 
L 208.600893 124.757228 
L 208.658977 124.757228 
L 208.658977 123.996832 
L 208.823712 123.996832 
L 208.823712 123.236436 
L 209.444063 123.236436 
L 209.444063 122.47604 
L 209.69275 122.47604 
L 209.723576 120.955248 
L 210.1757 120.955248 
L 210.1757 120.194851 
L 210.863746 120.194851 
L 210.863746 119.434455 
L 211.412811 119.434455 
L 211.422613 117.913663 
L 211.759917 117.913663 
L 211.759917 117.153267 
L 212.011525 117.153267 
L 212.08997 114.872079 
L 212.404358 114.872079 
L 212.404358 114.111683 
L 212.534493 114.111683 
L 212.534493 113.351287 
L 213.338894 113.351287 
L 213.387438 111.830495 
L 213.53168 111.830495 
L 213.53168 111.070099 
L 213.777248 111.070099 
L 213.777248 110.309703 
L 214.438523 110.309703 
L 214.438523 109.549307 
L 215.223613 109.549307 
L 215.223613 108.788911 
L 218.057282 108.788911 
L 218.057282 108.028515 
L 218.988192 108.028515 
L 218.988192 107.268119 
L 219.189425 107.268119 
L 219.189425 106.507723 
L 220.754712 106.507723 
L 220.754712 105.747327 
L 220.994468 105.747327 
L 220.994468 104.986931 
L 221.605769 104.986931 
L 221.605769 104.226535 
L 221.736882 104.226535 
L 221.736882 103.466139 
L 221.990843 103.466139 
L 221.990843 102.705743 
L 222.624006 102.705743 
L 222.624006 101.945347 
L 223.082777 101.945347 
L 223.082777 101.18495 
L 223.488284 101.18495 
L 223.488284 100.424554 
L 223.714021 100.424554 
L 223.80297 98.903762 
L 224.272115 98.903762 
L 224.272115 98.143366 
L 224.957536 98.143366 
L 225.003533 96.622574 
L 225.288723 96.622574 
L 225.309625 95.101782 
L 225.760408 95.101782 
L 225.760408 94.341386 
L 228.284184 94.341386 
L 228.284184 93.58099 
L 230.200604 93.58099 
L 230.200604 92.820594 
L 232.346581 92.820594 
L 232.397088 91.299802 
L 232.909666 91.299802 
L 232.909666 90.539406 
L 233.54646 90.539406 
L 233.54646 89.77901 
L 233.7636 89.77901 
L 233.7636 89.018614 
L 233.932826 89.018614 
L 233.932826 88.258218 
L 234.326376 88.258218 
L 234.374999 86.737426 
L 235.27431 86.737426 
L 235.27431 85.97703 
L 235.533114 85.97703 
L 235.533114 85.216634 
L 236.707969 85.216634 
L 236.707969 84.456238 
L 237.305592 84.456238 
L 237.345309 82.935446 
L 237.459067 82.935446 
L 237.459067 82.17505 
L 237.855523 82.17505 
L 237.855523 81.414653 
L 238.5821 81.414653 
L 238.677529 79.893861 
L 238.695398 79.893861 
L 238.787741 78.373069 
L 239.310116 78.373069 
L 239.310116 77.612673 
L 239.45 77.612673 
L 239.45 76.852277 
L 239.659565 76.852277 
L 239.659565 76.091881 
L 240.109583 76.091881 
L 240.109583 75.331485 
L 240.742119 75.331485 
L 240.849234 73.050297 
L 240.960465 73.050297 
L 240.960465 72.289901 
L 243.053647 72.289901 
L 243.053647 71.529505 
L 243.180134 71.529505 
L 243.210673 70.008713 
L 243.371478 70.008713 
L 243.371478 69.248317 
L 243.512853 69.248317 
L 243.522388 67.727525 
L 243.99285 67.727525 
L 243.99285 66.967129 
L 245.25552 66.967129 
L 245.25552 66.206733 
L 245.405436 66.206733 
L 245.405436 65.446337 
L 245.569976 65.446337 
L 245.569976 64.685941 
L 246.04003 64.685941 
L 246.04003 63.925545 
L 247.411219 63.925545 
L 247.411219 63.165149 
L 247.526119 63.165149 
L 247.526119 62.404752 
L 247.79253 62.404752 
L 247.841578 60.88396 
L 247.990148 60.88396 
L 247.990148 60.123564 
L 248.730796 60.123564 
L 248.730796 59.363168 
L 248.910617 59.363168 
L 248.910617 58.602772 
L 250.365751 58.602772 
L 250.416986 57.08198 
L 251.432659 57.08198 
L 251.432659 56.321584 
L 255.974126 56.321584 
L 255.984159 54.800792 
L 262.035287 54.800792 
L 262.035287 54.040396 
L 263.014756 54.040396 
L 263.014756 53.28 
L 263.146688 53.28 
L 263.146688 52.519604 
L 263.314212 52.519604 
L 263.314212 51.759208 
L 264.075139 51.759208 
L 264.075139 50.998812 
L 265.012273 50.998812 
L 265.012273 50.238416 
L 266.491594 50.238416 
L 266.491594 49.47802 
L 266.946487 49.47802 
L 266.946487 48.717624 
L 267.128142 48.717624 
L 267.128142 47.957228 
L 267.696466 47.957228 
L 267.696466 47.196832 
L 268.973614 47.196832 
L 268.973614 46.436436 
L 269.271819 46.436436 
L 269.315417 44.915644 
L 269.784605 44.915644 
L 269.784605 44.155248 
L 269.968359 44.155248 
L 269.968359 43.394851 
L 272.61208 43.394851 
L 272.61208 42.634455 
L 272.791233 42.634455 
L 272.791233 41.874059 
L 272.938282 41.874059 
L 272.938282 41.113663 
L 273.111921 41.113663 
L 273.111921 40.353267 
L 274.386815 40.353267 
L 274.386815 39.592871 
L 274.839954 39.592871 
L 274.839954 38.832475 
L 275.276297 38.832475 
L 275.276297 38.072079 
L 275.792567 38.072079 
L 275.792567 37.311683 
L 276.70159 37.311683 
L 276.70159 36.551287 
L 277.313617 36.551287 
L 277.313617 35.790891 
L 277.910226 35.790891 
L 277.910226 35.030495 
L 278.296295 35.030495 
L 278.296295 34.270099 
L 278.620657 34.270099 
L 278.620657 33.509703 
L 279.285105 33.509703 
L 279.297653 31.988911 
L 279.685934 31.988911 
L 279.746011 30.468119 
L 280.273259 30.468119 
L 280.273259 29.707723 
L 280.816802 29.707723 
L 280.816802 28.947327 
L 281.435575 28.947327 
L 281.435575 28.186931 
L 281.987759 28.186931 
L 281.987759 27.426535 
L 282.283263 27.426535 
L 282.283263 26.666139 
L 283.829869 26.666139 
L 283.829869 25.905743 
L 284.192116 25.905743 
L 284.192116 25.145347 
L 285.209133 25.145347 
L 285.209133 24.38495 
L 287.374726 24.38495 
L 287.374726 23.624554 
L 287.711943 23.624554 
L 287.711943 22.864158 
L 288.194345 22.864158 
L 288.194345 22.103762 
L 291.617852 22.103762 
L 291.617852 21.343366 
L 295.69855 21.343366 
L 295.69855 20.58297 
L 296.918285 20.58297 
L 296.918285 19.822574 
L 302.218627 19.822574 
L 302.218627 19.062178 
L 306.315811 19.062178 
L 306.315811 18.301782 
L 307.528797 18.301782 
L 307.528797 17.541386 
L 307.913504 17.541386 
L 307.913504 16.78099 
L 308.502813 16.78099 
L 308.502813 16.020594 
L 309.040976 16.020594 
L 309.040976 15.260198 
L 309.689217 15.260198 
L 309.689217 14.499802 
L 310.072988 14.499802 
L 310.168037 12.97901 
L 311.010113 12.97901 
L 311.010113 12.218614 
L 313.612728 12.218614 
L 313.612728 11.458218 
L 313.743019 11.458218 
L 313.743019 10.697822 
L 313.980512 10.697822 
L 313.980512 9.937426 
L 313.980512 9.937426 
L 364.32 9.937426 
L 364.32 9.937426 
" style="fill:none;stroke:#000000;stroke-linecap:square;"/>
   </g>
   <g id="line2d_5">
    <path clip-path="url(#pd0f98cd868)" d="M 172.559529 283.68 
L 172.559529 282.919604 
L 172.779686 282.919604 
L 172.779686 282.159208 
L 173.027942 282.159208 
L 173.077628 280.638416 
L 174.459577 280.638416 
L 174.459577 279.87802 
L 174.811233 279.87802 
L 174.855086 278.357228 
L 174.975263 278.357228 
L 174.975263 277.596832 
L 175.192088 277.596832 
L 175.296017 276.07604 
L 175.597059 276.07604 
L 175.597059 275.315644 
L 175.73313 275.315644 
L 175.73313 274.555248 
L 175.848794 274.555248 
L 175.848794 273.794851 
L 176.064265 273.794851 
L 176.064265 273.034455 
L 176.600249 273.034455 
L 176.691015 271.513663 
L 176.876314 271.513663 
L 176.876314 270.753267 
L 177.064299 270.753267 
L 177.064299 269.992871 
L 177.364865 269.992871 
L 177.436682 268.472079 
L 177.858678 268.472079 
L 177.913269 266.951287 
L 178.034995 266.951287 
L 178.086048 265.430495 
L 178.315626 265.430495 
L 178.315626 264.670099 
L 178.717594 264.670099 
L 178.717594 263.909703 
L 178.878241 263.909703 
L 178.971671 261.628515 
L 179.20833 261.628515 
L 179.20833 260.868119 
L 179.732024 260.868119 
L 179.732024 260.107723 
L 179.869824 260.107723 
L 179.977679 257.826535 
L 180.082544 257.826535 
L 180.190926 256.305743 
L 180.356983 256.305743 
L 180.393655 254.78495 
L 180.553326 254.78495 
L 180.553326 254.024554 
L 180.741264 254.024554 
L 180.794484 252.503762 
L 180.984755 252.503762 
L 180.998039 250.98297 
L 181.197619 250.98297 
L 181.197619 250.222574 
L 181.3184 250.222574 
L 181.3184 249.462178 
L 182.174774 249.462178 
L 182.179837 247.941386 
L 182.415904 247.941386 
L 182.415904 247.18099 
L 182.665918 247.18099 
L 182.726608 245.660198 
L 182.938067 245.660198 
L 182.99394 244.139406 
L 183.064814 244.139406 
L 183.075549 242.618614 
L 183.196796 242.618614 
L 183.196796 241.858218 
L 183.648853 241.858218 
L 183.704542 239.57703 
L 184.081736 239.57703 
L 184.165876 238.056238 
L 184.2545 238.056238 
L 184.355513 235.77505 
L 184.765134 235.77505 
L 184.855459 234.254257 
L 184.922197 234.254257 
L 184.922197 233.493861 
L 185.073997 233.493861 
L 185.166265 230.452277 
L 185.194606 230.452277 
L 185.194606 229.691881 
L 185.30837 229.691881 
L 185.30837 228.931485 
L 185.463072 228.931485 
L 185.463072 228.171089 
L 185.576947 228.171089 
L 185.630224 226.650297 
L 185.768859 226.650297 
L 185.820188 225.129505 
L 185.972473 225.129505 
L 186.050189 222.848317 
L 186.104767 222.848317 
L 186.132702 221.327525 
L 186.394964 221.327525 
L 186.418016 219.806733 
L 186.521766 219.806733 
L 186.581237 218.285941 
L 187.091443 218.285941 
L 187.108564 216.765149 
L 187.216405 216.765149 
L 187.216405 216.004752 
L 187.440452 216.004752 
L 187.440452 215.244356 
L 187.552662 215.244356 
L 187.562018 213.723564 
L 187.683909 213.723564 
L 187.683909 212.963168 
L 187.899534 212.963168 
L 187.899534 212.202772 
L 188.386402 212.202772 
L 188.386402 211.442376 
L 188.683984 211.442376 
L 188.683984 210.68198 
L 188.828537 210.68198 
L 188.828537 209.921584 
L 189.110901 209.921584 
L 189.110901 209.161188 
L 189.457212 209.161188 
L 189.543679 207.640396 
L 189.953847 207.640396 
L 189.953847 206.88 
L 190.354874 206.88 
L 190.386319 205.359208 
L 190.772119 205.359208 
L 190.774093 203.838416 
L 190.937844 203.838416 
L 190.937844 203.07802 
L 191.161436 203.07802 
L 191.161436 202.317624 
L 191.367811 202.317624 
L 191.386077 200.796832 
L 191.614089 200.796832 
L 191.715499 199.27604 
L 191.739643 199.27604 
L 191.838548 197.755248 
L 191.923257 197.755248 
L 191.951084 196.234455 
L 192.104177 196.234455 
L 192.11485 194.713663 
L 192.330043 194.713663 
L 192.330043 193.953267 
L 192.575519 193.953267 
L 192.644063 192.432475 
L 192.823406 192.432475 
L 192.859854 190.911683 
L 192.953266 190.911683 
L 192.953266 190.151287 
L 193.1821 190.151287 
L 193.1821 189.390891 
L 193.352773 189.390891 
L 193.352773 188.630495 
L 193.640488 188.630495 
L 193.72912 187.109703 
L 193.852196 187.109703 
L 193.9025 185.588911 
L 193.981469 185.588911 
L 194.020703 183.307723 
L 194.165721 183.307723 
L 194.2275 181.786931 
L 194.555546 181.786931 
L 194.628999 180.266139 
L 194.763998 180.266139 
L 194.763998 179.505743 
L 194.98998 179.505743 
L 194.98998 178.745347 
L 195.119634 178.745347 
L 195.119634 177.98495 
L 195.401317 177.98495 
L 195.401317 177.224554 
L 195.552414 177.224554 
L 195.59703 174.943366 
L 195.666812 174.943366 
L 195.775951 172.662178 
L 195.84866 172.662178 
L 195.84866 171.901782 
L 195.975944 171.901782 
L 195.975944 171.141386 
L 196.179255 171.141386 
L 196.179255 170.38099 
L 196.293357 170.38099 
L 196.392046 168.099802 
L 196.438839 168.099802 
L 196.438839 167.339406 
L 196.791748 167.339406 
L 196.791748 166.57901 
L 196.986445 166.57901 
L 197.066047 165.058218 
L 197.883299 165.058218 
L 197.883299 164.297822 
L 198.133432 164.297822 
L 198.133432 163.537426 
L 198.32556 163.537426 
L 198.32556 162.77703 
L 198.661695 162.77703 
L 198.661695 162.016634 
L 198.819599 162.016634 
L 198.855163 160.495842 
L 199.180875 160.495842 
L 199.180875 159.735446 
L 199.610183 159.735446 
L 199.610183 158.97505 
L 199.750335 158.97505 
L 199.845708 157.454257 
L 199.942433 157.454257 
L 199.947072 155.933465 
L 200.105555 155.933465 
L 200.206678 154.412673 
L 200.723829 154.412673 
L 200.829604 152.131485 
L 201.053569 152.131485 
L 201.11469 150.610693 
L 201.274686 150.610693 
L 201.29253 149.089901 
L 201.456465 149.089901 
L 201.489284 147.569109 
L 201.62153 147.569109 
L 201.688405 144.527525 
L 201.740145 144.527525 
L 201.740145 143.767129 
L 202.060128 143.767129 
L 202.060128 143.006733 
L 202.317764 143.006733 
L 202.417339 141.485941 
L 202.54626 141.485941 
L 202.61738 139.965149 
L 202.681565 139.965149 
L 202.681565 139.204752 
L 202.877291 139.204752 
L 202.877291 138.444356 
L 202.988859 138.444356 
L 203.046643 136.923564 
L 203.255235 136.923564 
L 203.347101 134.642376 
L 203.573219 134.642376 
L 203.582175 133.121584 
L 203.911429 133.121584 
L 203.961874 131.600792 
L 204.029489 131.600792 
L 204.031835 130.08 
L 204.202905 130.08 
L 204.292383 128.559208 
L 204.315412 128.559208 
L 204.424715 127.038416 
L 204.445045 127.038416 
L 204.551928 125.517624 
L 204.677681 125.517624 
L 204.747665 123.236436 
L 204.909155 123.236436 
L 204.92121 121.715644 
L 205.430291 121.715644 
L 205.526295 119.434455 
L 205.596871 119.434455 
L 205.596871 118.674059 
L 205.715991 118.674059 
L 205.802366 117.153267 
L 206.040636 117.153267 
L 206.040636 116.392871 
L 206.243391 116.392871 
L 206.243391 115.632475 
L 206.51591 115.632475 
L 206.593457 114.111683 
L 206.654735 114.111683 
L 206.678041 111.830495 
L 206.797253 111.830495 
L 206.879091 110.309703 
L 206.922099 110.309703 
L 206.978534 108.788911 
L 207.224226 108.788911 
L 207.258352 107.268119 
L 207.862394 107.268119 
L 207.862394 106.507723 
L 208.01224 106.507723 
L 208.015155 104.986931 
L 208.772533 104.986931 
L 208.772533 104.226535 
L 210.279006 104.226535 
L 210.279006 103.466139 
L 213.777248 103.466139 
L 213.777248 102.705743 
L 214.168089 102.705743 
L 214.168089 101.945347 
L 214.858881 101.945347 
L 214.858881 101.18495 
L 215.276244 101.18495 
L 215.276244 100.424554 
L 215.671302 100.424554 
L 215.671302 99.664158 
L 215.824561 99.664158 
L 215.824561 98.903762 
L 216.066902 98.903762 
L 216.130095 97.38297 
L 216.491597 97.38297 
L 216.556079 95.862178 
L 216.621248 95.862178 
L 216.621248 95.101782 
L 217.450666 95.101782 
L 217.450666 94.341386 
L 217.820443 94.341386 
L 217.820443 93.58099 
L 218.023591 93.58099 
L 218.023591 92.820594 
L 218.148818 92.820594 
L 218.148818 92.060198 
L 218.267823 92.060198 
L 218.267823 91.299802 
L 218.988192 91.299802 
L 218.988192 90.539406 
L 219.189425 90.539406 
L 219.189425 89.77901 
L 219.360154 89.77901 
L 219.360154 89.018614 
L 219.500489 89.018614 
L 219.500489 88.258218 
L 220.453898 88.258218 
L 220.453898 87.497822 
L 220.754712 87.497822 
L 220.754712 86.737426 
L 221.607499 86.737426 
L 221.607499 85.97703 
L 221.852634 85.97703 
L 221.940844 83.695842 
L 222.415148 83.695842 
L 222.415148 82.935446 
L 224.311402 82.935446 
L 224.311402 82.17505 
L 225.060625 82.17505 
L 225.060625 81.414653 
L 225.309625 81.414653 
L 225.309625 80.654257 
L 225.568855 80.654257 
L 225.568855 79.893861 
L 225.760408 79.893861 
L 225.760408 79.133465 
L 226.02855 79.133465 
L 226.02855 78.373069 
L 226.510349 78.373069 
L 226.510349 77.612673 
L 226.808109 77.612673 
L 226.808109 76.852277 
L 227.333705 76.852277 
L 227.333705 76.091881 
L 227.470294 76.091881 
L 227.470294 75.331485 
L 228.284184 75.331485 
L 228.284184 74.571089 
L 228.787883 74.571089 
L 228.787883 73.810693 
L 230.200604 73.810693 
L 230.200604 73.050297 
L 230.887659 73.050297 
L 230.887659 72.289901 
L 231.23848 72.289901 
L 231.23848 71.529505 
L 231.772573 71.529505 
L 231.772573 70.769109 
L 231.920885 70.769109 
L 231.920885 70.008713 
L 232.139681 70.008713 
L 232.139681 69.248317 
L 232.346581 69.248317 
L 232.346581 68.487921 
L 232.528987 68.487921 
L 232.528987 67.727525 
L 232.870797 67.727525 
L 232.909666 66.206733 
L 233.54646 66.206733 
L 233.581247 64.685941 
L 233.7636 64.685941 
L 233.869439 63.165149 
L 233.932826 63.165149 
L 233.951715 61.644356 
L 235.02919 61.644356 
L 235.02919 60.88396 
L 235.533114 60.88396 
L 235.615517 59.363168 
L 235.681196 59.363168 
L 235.681196 58.602772 
L 237.221318 58.602772 
L 237.221318 57.842376 
L 237.742412 57.842376 
L 237.742412 57.08198 
L 237.855523 57.08198 
L 237.855523 56.321584 
L 238.815936 56.321584 
L 238.815936 55.561188 
L 239.321266 55.561188 
L 239.321266 54.800792 
L 239.45 54.800792 
L 239.45 54.040396 
L 240.883008 54.040396 
L 240.883008 53.28 
L 242.0946 53.28 
L 242.0946 52.519604 
L 243.371478 52.519604 
L 243.371478 51.759208 
L 243.97866 51.759208 
L 243.99285 50.238416 
L 244.308955 50.238416 
L 244.308955 49.47802 
L 247.411219 49.47802 
L 247.411219 48.717624 
L 247.79253 48.717624 
L 247.79253 47.957228 
L 247.984803 47.957228 
L 247.984803 47.196832 
L 250.365751 47.196832 
L 250.365751 46.436436 
L 251.54853 46.436436 
L 251.54853 45.67604 
L 253.374756 45.67604 
L 253.374756 44.915644 
L 256.944108 44.915644 
L 256.944108 44.155248 
L 258.394495 44.155248 
L 258.394495 43.394851 
L 259.661204 43.394851 
L 259.661204 42.634455 
L 260.841511 42.634455 
L 260.841511 41.874059 
L 261.128964 41.874059 
L 261.128964 41.113663 
L 262.253692 41.113663 
L 262.253692 40.353267 
L 263.329546 40.353267 
L 263.329546 39.592871 
L 263.669847 39.592871 
L 263.669847 38.832475 
L 264.075139 38.832475 
L 264.075139 38.072079 
L 264.470629 38.072079 
L 264.551411 36.551287 
L 264.645241 36.551287 
L 264.686074 35.030495 
L 265.725559 35.030495 
L 265.725559 34.270099 
L 266.204664 34.270099 
L 266.204664 33.509703 
L 266.765945 33.509703 
L 266.765945 32.749307 
L 266.946487 32.749307 
L 266.946487 31.988911 
L 267.696466 31.988911 
L 267.696466 31.228515 
L 268.571417 31.228515 
L 268.571417 30.468119 
L 269.18528 30.468119 
L 269.18528 29.707723 
L 269.748781 29.707723 
L 269.784605 28.186931 
L 271.265666 28.186931 
L 271.265666 27.426535 
L 272.146914 27.426535 
L 272.146914 26.666139 
L 272.616752 26.666139 
L 272.616752 25.905743 
L 272.938282 25.905743 
L 272.938282 25.145347 
L 274.370592 25.145347 
L 274.370592 24.38495 
L 275.792567 24.38495 
L 275.792567 23.624554 
L 276.70159 23.624554 
L 276.70159 22.864158 
L 279.714559 22.864158 
L 279.714559 22.103762 
L 285.883719 22.103762 
L 285.883719 21.343366 
L 292.469638 21.343366 
L 292.469638 20.58297 
L 294.503515 20.58297 
L 294.503515 19.822574 
L 295.240699 19.822574 
L 295.240699 19.062178 
L 295.69855 19.062178 
L 295.69855 18.301782 
L 295.905066 18.301782 
L 295.905066 17.541386 
L 296.918285 17.541386 
L 296.918285 16.78099 
L 298.448483 16.78099 
L 298.456786 15.260198 
L 302.615871 15.260198 
L 302.615871 14.499802 
L 302.764385 14.499802 
L 302.764385 13.739406 
L 305.858225 13.739406 
L 305.858225 12.97901 
L 307.528797 12.97901 
L 307.528797 12.218614 
L 307.913504 12.218614 
L 307.913504 11.458218 
L 308.585721 11.458218 
L 308.585721 10.697822 
L 310.072988 10.697822 
L 310.072988 9.937426 
L 310.072988 9.937426 
L 364.32 9.937426 
L 364.32 9.937426 
" style="fill:none;stroke:#00bfbf;stroke-linecap:square;"/>
   </g>
   <g id="line2d_6">
    <path clip-path="url(#pd0f98cd868)" d="M 157.443743 283.68 
L 157.443743 282.919604 
L 165.927208 282.919604 
L 165.927208 282.159208 
L 169.233274 282.159208 
L 169.233274 281.398812 
L 169.68053 281.398812 
L 169.68053 280.638416 
L 170.576045 280.638416 
L 170.576045 279.87802 
L 171.047073 279.87802 
L 171.047073 279.117624 
L 171.332071 279.117624 
L 171.332071 278.357228 
L 171.829089 278.357228 
L 171.829089 277.596832 
L 172.072663 277.596832 
L 172.16171 275.315644 
L 172.360551 275.315644 
L 172.360551 274.555248 
L 172.734495 274.555248 
L 172.734495 273.794851 
L 173.077628 273.794851 
L 173.11648 272.274059 
L 173.192561 272.274059 
L 173.192561 271.513663 
L 173.482112 271.513663 
L 173.482112 270.753267 
L 173.63678 270.753267 
L 173.712845 268.472079 
L 174.017716 268.472079 
L 174.100593 266.190891 
L 174.176656 266.190891 
L 174.225946 263.909703 
L 174.457892 263.909703 
L 174.457892 263.149307 
L 174.621751 263.149307 
L 174.684489 260.107723 
L 174.823407 260.107723 
L 174.900586 257.066139 
L 175.00301 257.066139 
L 175.00301 256.305743 
L 175.191982 256.305743 
L 175.295592 254.78495 
L 175.335932 254.78495 
L 175.335932 254.024554 
L 175.520871 254.024554 
L 175.520871 253.264158 
L 175.675765 253.264158 
L 175.758639 251.743366 
L 175.84867 251.743366 
L 175.895226 250.222574 
L 176.056247 250.222574 
L 176.056247 249.462178 
L 176.665893 249.462178 
L 176.665893 248.701782 
L 176.803651 248.701782 
L 176.803651 247.941386 
L 177.013036 247.941386 
L 177.064299 246.420594 
L 177.150429 246.420594 
L 177.196259 244.899802 
L 177.338844 244.899802 
L 177.436682 241.858218 
L 177.579323 241.858218 
L 177.603671 240.337426 
L 177.819184 240.337426 
L 177.882942 238.056238 
L 178.034995 238.056238 
L 178.086048 235.77505 
L 178.613861 235.77505 
L 178.664091 234.254257 
L 178.796524 234.254257 
L 178.834621 232.733465 
L 178.928581 232.733465 
L 178.928581 231.973069 
L 179.105721 231.973069 
L 179.20833 230.452277 
L 179.216897 230.452277 
L 179.292407 228.931485 
L 179.355577 228.931485 
L 179.357813 227.410693 
L 179.49967 227.410693 
L 179.518878 225.889901 
L 179.62754 225.889901 
L 179.645033 224.369109 
L 179.866233 224.369109 
L 179.918413 222.848317 
L 180.173081 222.848317 
L 180.173081 222.087921 
L 180.450508 222.087921 
L 180.450508 221.327525 
L 180.843687 221.327525 
L 180.943953 218.285941 
L 181.092604 218.285941 
L 181.150357 216.765149 
L 181.418117 216.765149 
L 181.418117 216.004752 
L 181.626964 216.004752 
L 181.629397 214.48396 
L 181.77346 214.48396 
L 181.77346 213.723564 
L 182.090906 213.723564 
L 182.115988 212.202772 
L 182.669317 212.202772 
L 182.770723 210.68198 
L 182.78504 210.68198 
L 182.85092 209.161188 
L 182.910216 209.161188 
L 182.929412 207.640396 
L 183.318393 207.640396 
L 183.318393 206.88 
L 183.524655 206.88 
L 183.524655 206.119604 
L 183.691304 206.119604 
L 183.757887 203.07802 
L 183.89356 203.07802 
L 184.004471 201.557228 
L 184.010541 201.557228 
L 184.09426 200.036436 
L 184.608998 200.036436 
L 184.630452 197.755248 
L 184.765134 197.755248 
L 184.872503 195.474059 
L 184.907559 195.474059 
L 184.965833 193.953267 
L 185.087665 193.953267 
L 185.194606 190.911683 
L 185.378325 190.911683 
L 185.378325 190.151287 
L 185.723308 190.151287 
L 185.824472 188.630495 
L 185.872162 188.630495 
L 185.917434 187.109703 
L 186.018063 187.109703 
L 186.125786 184.828515 
L 186.521766 184.828515 
L 186.521766 184.068119 
L 186.782195 184.068119 
L 186.782195 183.307723 
L 187.047971 183.307723 
L 187.047971 182.547327 
L 187.181078 182.547327 
L 187.181078 181.786931 
L 187.472792 181.786931 
L 187.501737 180.266139 
L 187.867553 180.266139 
L 187.93389 178.745347 
L 188.415086 178.745347 
L 188.422458 177.224554 
L 188.751952 177.224554 
L 188.815787 175.703762 
L 188.957419 175.703762 
L 188.988027 174.18297 
L 189.247469 174.18297 
L 189.304242 172.662178 
L 189.408073 172.662178 
L 189.408073 171.901782 
L 189.791262 171.901782 
L 189.885059 170.38099 
L 189.928967 170.38099 
L 189.928967 169.620594 
L 190.351679 169.620594 
L 190.351679 168.860198 
L 190.842118 168.860198 
L 190.87509 167.339406 
L 191.284765 167.339406 
L 191.29826 165.818614 
L 191.565134 165.818614 
L 191.661334 163.537426 
L 191.705975 163.537426 
L 191.814292 162.016634 
L 191.886971 162.016634 
L 191.886971 161.256238 
L 192.104177 161.256238 
L 192.104177 160.495842 
L 192.575519 160.495842 
L 192.585226 158.97505 
L 192.751884 158.97505 
L 192.765721 157.454257 
L 193.229659 157.454257 
L 193.229659 156.693861 
L 193.456558 156.693861 
L 193.456558 155.933465 
L 193.583863 155.933465 
L 193.687793 153.652277 
L 193.816001 153.652277 
L 193.816001 152.891881 
L 193.98983 152.891881 
L 194.042284 150.610693 
L 194.195344 150.610693 
L 194.195344 149.850297 
L 194.799631 149.850297 
L 194.799631 149.089901 
L 195.058308 149.089901 
L 195.058308 148.329505 
L 195.188436 148.329505 
L 195.188436 147.569109 
L 195.612339 147.569109 
L 195.666812 146.048317 
L 195.810345 146.048317 
L 195.810345 145.287921 
L 196.169017 145.287921 
L 196.169017 144.527525 
L 196.562229 144.527525 
L 196.656809 143.006733 
L 197.130415 143.006733 
L 197.130415 142.246337 
L 197.274675 142.246337 
L 197.378113 140.725545 
L 197.884037 140.725545 
L 197.920181 138.444356 
L 198.113705 138.444356 
L 198.133432 136.923564 
L 198.268371 136.923564 
L 198.318865 135.402772 
L 198.415156 135.402772 
L 198.515786 133.121584 
L 198.583154 133.121584 
L 198.625593 130.840396 
L 198.854305 130.840396 
L 198.911247 129.319604 
L 199.03352 129.319604 
L 199.078936 127.798812 
L 199.222246 127.798812 
L 199.252944 126.27802 
L 199.345928 126.27802 
L 199.345928 125.517624 
L 199.563035 125.517624 
L 199.563035 124.757228 
L 199.71337 124.757228 
L 199.801889 122.47604 
L 199.947072 122.47604 
L 199.981322 120.194851 
L 200.426124 120.194851 
L 200.426124 119.434455 
L 200.691017 119.434455 
L 200.773588 117.153267 
L 200.876588 117.153267 
L 200.957852 115.632475 
L 201.060104 115.632475 
L 201.060104 114.872079 
L 201.219453 114.872079 
L 201.239974 113.351287 
L 201.566263 113.351287 
L 201.566263 112.590891 
L 201.688259 112.590891 
L 201.715316 111.070099 
L 201.832046 111.070099 
L 201.832046 110.309703 
L 201.966602 110.309703 
L 201.994077 107.268119 
L 202.129669 107.268119 
L 202.192744 105.747327 
L 202.29575 105.747327 
L 202.29575 104.986931 
L 202.489877 104.986931 
L 202.56257 101.18495 
L 202.751733 101.18495 
L 202.751733 100.424554 
L 202.977235 100.424554 
L 203.050962 97.38297 
L 203.347101 97.38297 
L 203.347101 96.622574 
L 203.826812 96.622574 
L 203.826812 95.862178 
L 203.986928 95.862178 
L 204.029489 94.341386 
L 204.223424 94.341386 
L 204.333846 92.820594 
L 204.380109 92.820594 
L 204.380109 92.060198 
L 204.694936 92.060198 
L 204.774195 90.539406 
L 205.114625 90.539406 
L 205.114625 89.77901 
L 205.666946 89.77901 
L 205.666946 89.018614 
L 206.049477 89.018614 
L 206.049477 88.258218 
L 207.255697 88.258218 
L 207.255697 87.497822 
L 207.629241 87.497822 
L 207.629241 86.737426 
L 209.140226 86.737426 
L 209.140226 85.97703 
L 210.070761 85.97703 
L 210.070761 85.216634 
L 210.479829 85.216634 
L 210.479829 84.456238 
L 210.652682 84.456238 
L 210.652682 83.695842 
L 212.735448 83.695842 
L 212.735448 82.935446 
L 212.953452 82.935446 
L 212.953452 82.17505 
L 213.552049 82.17505 
L 213.552049 81.414653 
L 214.168089 81.414653 
L 214.168089 80.654257 
L 214.492278 80.654257 
L 214.492278 79.893861 
L 214.630624 79.893861 
L 214.630624 79.133465 
L 214.769178 79.133465 
L 214.858881 76.852277 
L 215.699009 76.852277 
L 215.752186 75.331485 
L 215.824244 75.331485 
L 215.824244 74.571089 
L 215.956423 74.571089 
L 215.956423 73.810693 
L 216.071033 73.810693 
L 216.071033 73.050297 
L 216.192377 73.050297 
L 216.192377 72.289901 
L 216.32398 72.289901 
L 216.337055 70.769109 
L 216.56484 70.769109 
L 216.56484 70.008713 
L 216.887151 70.008713 
L 216.887151 69.248317 
L 217.075873 69.248317 
L 217.143502 67.727525 
L 217.223738 67.727525 
L 217.223738 66.967129 
L 217.599636 66.967129 
L 217.664277 65.446337 
L 217.819235 65.446337 
L 217.819235 64.685941 
L 218.767315 64.685941 
L 218.866209 63.165149 
L 219.189425 63.165149 
L 219.189425 62.404752 
L 219.510222 62.404752 
L 219.510222 61.644356 
L 219.674523 61.644356 
L 219.674523 60.88396 
L 220.009152 60.88396 
L 220.009152 60.123564 
L 220.685965 60.123564 
L 220.756939 58.602772 
L 221.506838 58.602772 
L 221.506838 57.842376 
L 221.85109 57.842376 
L 221.933335 56.321584 
L 222.321801 56.321584 
L 222.321801 55.561188 
L 223.775895 55.561188 
L 223.775895 54.800792 
L 224.54649 54.800792 
L 224.54649 54.040396 
L 224.773761 54.040396 
L 224.773761 53.28 
L 226.02855 53.28 
L 226.02855 52.519604 
L 226.254349 52.519604 
L 226.254349 51.759208 
L 226.510349 51.759208 
L 226.55749 50.238416 
L 226.803184 50.238416 
L 226.803184 49.47802 
L 227.333705 49.47802 
L 227.333705 48.717624 
L 228.467129 48.717624 
L 228.467129 47.957228 
L 230.449911 47.957228 
L 230.449911 47.196832 
L 231.654637 47.196832 
L 231.654637 46.436436 
L 231.817892 46.436436 
L 231.817892 45.67604 
L 233.204729 45.67604 
L 233.204729 44.915644 
L 233.474818 44.915644 
L 233.474818 44.155248 
L 233.679272 44.155248 
L 233.679272 43.394851 
L 237.221214 43.394851 
L 237.221214 42.634455 
L 237.821186 42.634455 
L 237.821186 41.874059 
L 238.493263 41.874059 
L 238.493263 41.113663 
L 238.894257 41.113663 
L 238.894257 40.353267 
L 242.268532 40.353267 
L 242.268532 39.592871 
L 244.485203 39.592871 
L 244.485203 38.832475 
L 245.191726 38.832475 
L 245.191726 38.072079 
L 246.629101 38.072079 
L 246.629101 37.311683 
L 247.799292 37.311683 
L 247.799292 36.551287 
L 248.884555 36.551287 
L 248.884555 35.790891 
L 249.043248 35.790891 
L 249.043248 35.030495 
L 250.173303 35.030495 
L 250.173303 34.270099 
L 250.44759 34.270099 
L 250.44759 33.509703 
L 252.576557 33.509703 
L 252.576557 32.749307 
L 252.710126 32.749307 
L 252.787226 31.228515 
L 252.945385 31.228515 
L 252.95558 29.707723 
L 253.18637 29.707723 
L 253.18637 28.947327 
L 256.47242 28.947327 
L 256.47242 28.186931 
L 257.630134 28.186931 
L 257.630134 27.426535 
L 258.270344 27.426535 
L 258.303578 25.145347 
L 258.393539 25.145347 
L 258.393539 24.38495 
L 258.62029 24.38495 
L 258.62029 23.624554 
L 259.164332 23.624554 
L 259.164332 22.864158 
L 260.723679 22.864158 
L 260.723679 22.103762 
L 263.678599 22.103762 
L 263.678599 21.343366 
L 281.023168 21.343366 
L 281.023168 20.58297 
L 282.260726 20.58297 
L 282.260726 19.822574 
L 284.122402 19.822574 
L 284.122402 19.062178 
L 285.632543 19.062178 
L 285.632543 18.301782 
L 287.952323 18.301782 
L 287.952323 17.541386 
L 290.556989 17.541386 
L 290.556989 16.78099 
L 292.469634 16.78099 
L 292.469634 16.020594 
L 293.185645 16.020594 
L 293.185645 15.260198 
L 293.545562 15.260198 
L 293.545562 14.499802 
L 294.746902 14.499802 
L 294.746902 13.739406 
L 295.158601 13.739406 
L 295.158601 12.97901 
L 297.107525 12.97901 
L 297.107525 12.218614 
L 297.428973 12.218614 
L 297.428973 11.458218 
L 301.504655 11.458218 
L 301.504655 10.697822 
L 307.003666 10.697822 
L 307.003666 9.937426 
L 307.003666 9.937426 
L 364.32 9.937426 
L 364.32 9.937426 
" style="fill:none;stroke:#bf00bf;stroke-linecap:square;"/>
   </g>
   <g id="patch_3">
    <path d="M 7.2 7.2 
L 364.32 7.2 
" style="fill:none;stroke:#000000;stroke-linecap:square;stroke-linejoin:miter;"/>
   </g>
   <g id="patch_4">
    <path d="M 364.32 283.68 
L 364.32 7.2 
" style="fill:none;stroke:#000000;stroke-linecap:square;stroke-linejoin:miter;"/>
   </g>
   <g id="patch_5">
    <path d="M 7.2 283.68 
L 364.32 283.68 
" style="fill:none;stroke:#000000;stroke-linecap:square;stroke-linejoin:miter;"/>
   </g>
   <g id="patch_6">
    <path d="M 7.2 283.68 
L 7.2 7.2 
" style="fill:none;stroke:#000000;stroke-linecap:square;stroke-linejoin:miter;"/>
   </g>
   <g id="matplotlib.axis_1">
    <g id="xtick_1">
     <g id="line2d_7">
      <path clip-path="url(#pd0f98cd868)" d="M 46.803772 283.68 
L 46.803772 7.2 
" style="fill:none;stroke:#000000;stroke-dasharray:1.000000,3.000000;stroke-dashoffset:0.0;stroke-width:0.5;"/>
     </g>
     <g id="line2d_8">
      <defs>
       <path d="M 0 0 
L 0 -4 
" id="mc7662a9453" style="stroke:#000000;stroke-width:0.5;"/>
      </defs>
      <g>
       <use style="stroke:#000000;stroke-width:0.5;" x="46.803771872" xlink:href="#mc7662a9453" y="283.68"/>
      </g>
     </g>
     <g id="line2d_9">
      <defs>
       <path d="M 0 0 
L 0 4 
" id="mc13257f513" style="stroke:#000000;stroke-width:0.5;"/>
      </defs>
      <g>
       <use style="stroke:#000000;stroke-width:0.5;" x="46.803771872" xlink:href="#mc13257f513" y="7.2"/>
      </g>
     </g>
     <g id="text_1">
      <!-- -6 -->
      <defs>
       <path d="M 33.015625 40.375 
Q 26.375 40.375 22.484375 35.828125 
Q 18.609375 31.296875 18.609375 23.390625 
Q 18.609375 15.53125 22.484375 10.953125 
Q 26.375 6.390625 33.015625 6.390625 
Q 39.65625 6.390625 43.53125 10.953125 
Q 47.40625 15.53125 47.40625 23.390625 
Q 47.40625 31.296875 43.53125 35.828125 
Q 39.65625 40.375 33.015625 40.375 
M 52.59375 71.296875 
L 52.59375 62.3125 
Q 48.875 64.0625 45.09375 64.984375 
Q 41.3125 65.921875 37.59375 65.921875 
Q 27.828125 65.921875 22.671875 59.328125 
Q 17.53125 52.734375 16.796875 39.40625 
Q 19.671875 43.65625 24.015625 45.921875 
Q 28.375 48.1875 33.59375 48.1875 
Q 44.578125 48.1875 50.953125 41.515625 
Q 57.328125 34.859375 57.328125 23.390625 
Q 57.328125 12.15625 50.6875 5.359375 
Q 44.046875 -1.421875 33.015625 -1.421875 
Q 20.359375 -1.421875 13.671875 8.265625 
Q 6.984375 17.96875 6.984375 36.375 
Q 6.984375 53.65625 15.1875 63.9375 
Q 23.390625 74.21875 37.203125 74.21875 
Q 40.921875 74.21875 44.703125 73.484375 
Q 48.484375 72.75 52.59375 71.296875 
" id="BitstreamVeraSans-Roman-36"/>
       <path d="M 4.890625 31.390625 
L 31.203125 31.390625 
L 31.203125 23.390625 
L 4.890625 23.390625 
z
" id="BitstreamVeraSans-Roman-2d"/>
      </defs>
      <g transform="translate(36.833459372 302.876875)scale(0.2 -0.2)">
       <use xlink:href="#BitstreamVeraSans-Roman-2d"/>
       <use x="36.083984375" xlink:href="#BitstreamVeraSans-Roman-36"/>
      </g>
     </g>
    </g>
    <g id="xtick_2">
     <g id="line2d_10">
      <path clip-path="url(#pd0f98cd868)" d="M 86.4933 283.68 
L 86.4933 7.2 
" style="fill:none;stroke:#000000;stroke-dasharray:1.000000,3.000000;stroke-dashoffset:0.0;stroke-width:0.5;"/>
     </g>
     <g id="line2d_11">
      <g>
       <use style="stroke:#000000;stroke-width:0.5;" x="86.493300388" xlink:href="#mc7662a9453" y="283.68"/>
      </g>
     </g>
     <g id="line2d_12">
      <g>
       <use style="stroke:#000000;stroke-width:0.5;" x="86.493300388" xlink:href="#mc13257f513" y="7.2"/>
      </g>
     </g>
     <g id="text_2">
      <!-- -4 -->
      <defs>
       <path d="M 37.796875 64.3125 
L 12.890625 25.390625 
L 37.796875 25.390625 
z
M 35.203125 72.90625 
L 47.609375 72.90625 
L 47.609375 25.390625 
L 58.015625 25.390625 
L 58.015625 17.1875 
L 47.609375 17.1875 
L 47.609375 0 
L 37.796875 0 
L 37.796875 17.1875 
L 4.890625 17.1875 
L 4.890625 26.703125 
z
" id="BitstreamVeraSans-Roman-34"/>
      </defs>
      <g transform="translate(76.522987888 302.876875)scale(0.2 -0.2)">
       <use xlink:href="#BitstreamVeraSans-Roman-2d"/>
       <use x="36.083984375" xlink:href="#BitstreamVeraSans-Roman-34"/>
      </g>
     </g>
    </g>
    <g id="xtick_3">
     <g id="line2d_13">
      <path clip-path="url(#pd0f98cd868)" d="M 126.182829 283.68 
L 126.182829 7.2 
" style="fill:none;stroke:#000000;stroke-dasharray:1.000000,3.000000;stroke-dashoffset:0.0;stroke-width:0.5;"/>
     </g>
     <g id="line2d_14">
      <g>
       <use style="stroke:#000000;stroke-width:0.5;" x="126.182828904" xlink:href="#mc7662a9453" y="283.68"/>
      </g>
     </g>
     <g id="line2d_15">
      <g>
       <use style="stroke:#000000;stroke-width:0.5;" x="126.182828904" xlink:href="#mc13257f513" y="7.2"/>
      </g>
     </g>
     <g id="text_3">
      <!-- -2 -->
      <defs>
       <path d="M 19.1875 8.296875 
L 53.609375 8.296875 
L 53.609375 0 
L 7.328125 0 
L 7.328125 8.296875 
Q 12.9375 14.109375 22.625 23.890625 
Q 32.328125 33.6875 34.8125 36.53125 
Q 39.546875 41.84375 41.421875 45.53125 
Q 43.3125 49.21875 43.3125 52.78125 
Q 43.3125 58.59375 39.234375 62.25 
Q 35.15625 65.921875 28.609375 65.921875 
Q 23.96875 65.921875 18.8125 64.3125 
Q 13.671875 62.703125 7.8125 59.421875 
L 7.8125 69.390625 
Q 13.765625 71.78125 18.9375 73 
Q 24.125 74.21875 28.421875 74.21875 
Q 39.75 74.21875 46.484375 68.546875 
Q 53.21875 62.890625 53.21875 53.421875 
Q 53.21875 48.921875 51.53125 44.890625 
Q 49.859375 40.875 45.40625 35.40625 
Q 44.1875 33.984375 37.640625 27.21875 
Q 31.109375 20.453125 19.1875 8.296875 
" id="BitstreamVeraSans-Roman-32"/>
      </defs>
      <g transform="translate(116.212516404 302.876875)scale(0.2 -0.2)">
       <use xlink:href="#BitstreamVeraSans-Roman-2d"/>
       <use x="36.083984375" xlink:href="#BitstreamVeraSans-Roman-32"/>
      </g>
     </g>
    </g>
    <g id="xtick_4">
     <g id="line2d_16">
      <path clip-path="url(#pd0f98cd868)" d="M 165.872357 283.68 
L 165.872357 7.2 
" style="fill:none;stroke:#000000;stroke-dasharray:1.000000,3.000000;stroke-dashoffset:0.0;stroke-width:0.5;"/>
     </g>
     <g id="line2d_17">
      <g>
       <use style="stroke:#000000;stroke-width:0.5;" x="165.87235742" xlink:href="#mc7662a9453" y="283.68"/>
      </g>
     </g>
     <g id="line2d_18">
      <g>
       <use style="stroke:#000000;stroke-width:0.5;" x="165.87235742" xlink:href="#mc13257f513" y="7.2"/>
      </g>
     </g>
     <g id="text_4">
      <!-- 0 -->
      <defs>
       <path d="M 31.78125 66.40625 
Q 24.171875 66.40625 20.328125 58.90625 
Q 16.5 51.421875 16.5 36.375 
Q 16.5 21.390625 20.328125 13.890625 
Q 24.171875 6.390625 31.78125 6.390625 
Q 39.453125 6.390625 43.28125 13.890625 
Q 47.125 21.390625 47.125 36.375 
Q 47.125 51.421875 43.28125 58.90625 
Q 39.453125 66.40625 31.78125 66.40625 
M 31.78125 74.21875 
Q 44.046875 74.21875 50.515625 64.515625 
Q 56.984375 54.828125 56.984375 36.375 
Q 56.984375 17.96875 50.515625 8.265625 
Q 44.046875 -1.421875 31.78125 -1.421875 
Q 19.53125 -1.421875 13.0625 8.265625 
Q 6.59375 17.96875 6.59375 36.375 
Q 6.59375 54.828125 13.0625 64.515625 
Q 19.53125 74.21875 31.78125 74.21875 
" id="BitstreamVeraSans-Roman-30"/>
      </defs>
      <g transform="translate(159.50985742 302.876875)scale(0.2 -0.2)">
       <use xlink:href="#BitstreamVeraSans-Roman-30"/>
      </g>
     </g>
    </g>
    <g id="xtick_5">
     <g id="line2d_19">
      <path clip-path="url(#pd0f98cd868)" d="M 205.561886 283.68 
L 205.561886 7.2 
" style="fill:none;stroke:#000000;stroke-dasharray:1.000000,3.000000;stroke-dashoffset:0.0;stroke-width:0.5;"/>
     </g>
     <g id="line2d_20">
      <g>
       <use style="stroke:#000000;stroke-width:0.5;" x="205.561885936" xlink:href="#mc7662a9453" y="283.68"/>
      </g>
     </g>
     <g id="line2d_21">
      <g>
       <use style="stroke:#000000;stroke-width:0.5;" x="205.561885936" xlink:href="#mc13257f513" y="7.2"/>
      </g>
     </g>
     <g id="text_5">
      <!-- 2 -->
      <g transform="translate(199.199385936 302.876875)scale(0.2 -0.2)">
       <use xlink:href="#BitstreamVeraSans-Roman-32"/>
      </g>
     </g>
    </g>
    <g id="xtick_6">
     <g id="line2d_22">
      <path clip-path="url(#pd0f98cd868)" d="M 245.251414 283.68 
L 245.251414 7.2 
" style="fill:none;stroke:#000000;stroke-dasharray:1.000000,3.000000;stroke-dashoffset:0.0;stroke-width:0.5;"/>
     </g>
     <g id="line2d_23">
      <g>
       <use style="stroke:#000000;stroke-width:0.5;" x="245.251414452" xlink:href="#mc7662a9453" y="283.68"/>
      </g>
     </g>
     <g id="line2d_24">
      <g>
       <use style="stroke:#000000;stroke-width:0.5;" x="245.251414452" xlink:href="#mc13257f513" y="7.2"/>
      </g>
     </g>
     <g id="text_6">
      <!-- 4 -->
      <g transform="translate(238.888914452 302.876875)scale(0.2 -0.2)">
       <use xlink:href="#BitstreamVeraSans-Roman-34"/>
      </g>
     </g>
    </g>
    <g id="xtick_7">
     <g id="line2d_25">
      <path clip-path="url(#pd0f98cd868)" d="M 284.940943 283.68 
L 284.940943 7.2 
" style="fill:none;stroke:#000000;stroke-dasharray:1.000000,3.000000;stroke-dashoffset:0.0;stroke-width:0.5;"/>
     </g>
     <g id="line2d_26">
      <g>
       <use style="stroke:#000000;stroke-width:0.5;" x="284.940942968" xlink:href="#mc7662a9453" y="283.68"/>
      </g>
     </g>
     <g id="line2d_27">
      <g>
       <use style="stroke:#000000;stroke-width:0.5;" x="284.940942968" xlink:href="#mc13257f513" y="7.2"/>
      </g>
     </g>
     <g id="text_7">
      <!-- 6 -->
      <g transform="translate(278.578442968 302.876875)scale(0.2 -0.2)">
       <use xlink:href="#BitstreamVeraSans-Roman-36"/>
      </g>
     </g>
    </g>
    <g id="xtick_8">
     <g id="line2d_28">
      <path clip-path="url(#pd0f98cd868)" d="M 324.630471 283.68 
L 324.630471 7.2 
" style="fill:none;stroke:#000000;stroke-dasharray:1.000000,3.000000;stroke-dashoffset:0.0;stroke-width:0.5;"/>
     </g>
     <g id="line2d_29">
      <g>
       <use style="stroke:#000000;stroke-width:0.5;" x="324.630471484" xlink:href="#mc7662a9453" y="283.68"/>
      </g>
     </g>
     <g id="line2d_30">
      <g>
       <use style="stroke:#000000;stroke-width:0.5;" x="324.630471484" xlink:href="#mc13257f513" y="7.2"/>
      </g>
     </g>
     <g id="text_8">
      <!-- 8 -->
      <defs>
       <path d="M 31.78125 34.625 
Q 24.75 34.625 20.71875 30.859375 
Q 16.703125 27.09375 16.703125 20.515625 
Q 16.703125 13.921875 20.71875 10.15625 
Q 24.75 6.390625 31.78125 6.390625 
Q 38.8125 6.390625 42.859375 10.171875 
Q 46.921875 13.96875 46.921875 20.515625 
Q 46.921875 27.09375 42.890625 30.859375 
Q 38.875 34.625 31.78125 34.625 
M 21.921875 38.8125 
Q 15.578125 40.375 12.03125 44.71875 
Q 8.5 49.078125 8.5 55.328125 
Q 8.5 64.0625 14.71875 69.140625 
Q 20.953125 74.21875 31.78125 74.21875 
Q 42.671875 74.21875 48.875 69.140625 
Q 55.078125 64.0625 55.078125 55.328125 
Q 55.078125 49.078125 51.53125 44.71875 
Q 48 40.375 41.703125 38.8125 
Q 48.828125 37.15625 52.796875 32.3125 
Q 56.78125 27.484375 56.78125 20.515625 
Q 56.78125 9.90625 50.3125 4.234375 
Q 43.84375 -1.421875 31.78125 -1.421875 
Q 19.734375 -1.421875 13.25 4.234375 
Q 6.78125 9.90625 6.78125 20.515625 
Q 6.78125 27.484375 10.78125 32.3125 
Q 14.796875 37.15625 21.921875 38.8125 
M 18.3125 54.390625 
Q 18.3125 48.734375 21.84375 45.5625 
Q 25.390625 42.390625 31.78125 42.390625 
Q 38.140625 42.390625 41.71875 45.5625 
Q 45.3125 48.734375 45.3125 54.390625 
Q 45.3125 60.0625 41.71875 63.234375 
Q 38.140625 66.40625 31.78125 66.40625 
Q 25.390625 66.40625 21.84375 63.234375 
Q 18.3125 60.0625 18.3125 54.390625 
" id="BitstreamVeraSans-Roman-38"/>
      </defs>
      <g transform="translate(318.267971484 302.876875)scale(0.2 -0.2)">
       <use xlink:href="#BitstreamVeraSans-Roman-38"/>
      </g>
     </g>
    </g>
    <g id="xtick_9">
     <g id="line2d_31">
      <path clip-path="url(#pd0f98cd868)" d="M 364.32 283.68 
L 364.32 7.2 
" style="fill:none;stroke:#000000;stroke-dasharray:1.000000,3.000000;stroke-dashoffset:0.0;stroke-width:0.5;"/>
     </g>
     <g id="line2d_32">
      <g>
       <use style="stroke:#000000;stroke-width:0.5;" x="364.32" xlink:href="#mc7662a9453" y="283.68"/>
      </g>
     </g>
     <g id="line2d_33">
      <g>
       <use style="stroke:#000000;stroke-width:0.5;" x="364.32" xlink:href="#mc13257f513" y="7.2"/>
      </g>
     </g>
    </g>
    <g id="xtick_10">
     <g id="line2d_34">
      <defs>
       <path d="M 0 0 
L 0 -2 
" id="m3255ca125a" style="stroke:#000000;stroke-width:0.5;"/>
      </defs>
      <g>
       <use style="stroke:#000000;stroke-width:0.5;" x="46.803771872" xlink:href="#m3255ca125a" y="283.68"/>
      </g>
     </g>
     <g id="line2d_35">
      <defs>
       <path d="M 0 0 
L 0 2 
" id="m31cd9fa41d" style="stroke:#000000;stroke-width:0.5;"/>
      </defs>
      <g>
       <use style="stroke:#000000;stroke-width:0.5;" x="46.803771872" xlink:href="#m31cd9fa41d" y="7.2"/>
      </g>
     </g>
    </g>
    <g id="xtick_11">
     <g id="line2d_36">
      <g>
       <use style="stroke:#000000;stroke-width:0.5;" x="86.493300388" xlink:href="#m3255ca125a" y="283.68"/>
      </g>
     </g>
     <g id="line2d_37">
      <g>
       <use style="stroke:#000000;stroke-width:0.5;" x="86.493300388" xlink:href="#m31cd9fa41d" y="7.2"/>
      </g>
     </g>
    </g>
    <g id="xtick_12">
     <g id="line2d_38">
      <g>
       <use style="stroke:#000000;stroke-width:0.5;" x="126.182828904" xlink:href="#m3255ca125a" y="283.68"/>
      </g>
     </g>
     <g id="line2d_39">
      <g>
       <use style="stroke:#000000;stroke-width:0.5;" x="126.182828904" xlink:href="#m31cd9fa41d" y="7.2"/>
      </g>
     </g>
    </g>
    <g id="xtick_13">
     <g id="line2d_40">
      <g>
       <use style="stroke:#000000;stroke-width:0.5;" x="165.87235742" xlink:href="#m3255ca125a" y="283.68"/>
      </g>
     </g>
     <g id="line2d_41">
      <g>
       <use style="stroke:#000000;stroke-width:0.5;" x="165.87235742" xlink:href="#m31cd9fa41d" y="7.2"/>
      </g>
     </g>
    </g>
    <g id="xtick_14">
     <g id="line2d_42">
      <g>
       <use style="stroke:#000000;stroke-width:0.5;" x="205.561885936" xlink:href="#m3255ca125a" y="283.68"/>
      </g>
     </g>
     <g id="line2d_43">
      <g>
       <use style="stroke:#000000;stroke-width:0.5;" x="205.561885936" xlink:href="#m31cd9fa41d" y="7.2"/>
      </g>
     </g>
    </g>
    <g id="xtick_15">
     <g id="line2d_44">
      <g>
       <use style="stroke:#000000;stroke-width:0.5;" x="245.251414452" xlink:href="#m3255ca125a" y="283.68"/>
      </g>
     </g>
     <g id="line2d_45">
      <g>
       <use style="stroke:#000000;stroke-width:0.5;" x="245.251414452" xlink:href="#m31cd9fa41d" y="7.2"/>
      </g>
     </g>
    </g>
    <g id="xtick_16">
     <g id="line2d_46">
      <g>
       <use style="stroke:#000000;stroke-width:0.5;" x="284.940942968" xlink:href="#m3255ca125a" y="283.68"/>
      </g>
     </g>
     <g id="line2d_47">
      <g>
       <use style="stroke:#000000;stroke-width:0.5;" x="284.940942968" xlink:href="#m31cd9fa41d" y="7.2"/>
      </g>
     </g>
    </g>
    <g id="xtick_17">
     <g id="line2d_48">
      <g>
       <use style="stroke:#000000;stroke-width:0.5;" x="324.630471484" xlink:href="#m3255ca125a" y="283.68"/>
      </g>
     </g>
     <g id="line2d_49">
      <g>
       <use style="stroke:#000000;stroke-width:0.5;" x="324.630471484" xlink:href="#m31cd9fa41d" y="7.2"/>
      </g>
     </g>
    </g>
    <g id="xtick_18">
     <g id="line2d_50">
      <g>
       <use style="stroke:#000000;stroke-width:0.5;" x="364.32" xlink:href="#m3255ca125a" y="283.68"/>
      </g>
     </g>
     <g id="line2d_51">
      <g>
       <use style="stroke:#000000;stroke-width:0.5;" x="364.32" xlink:href="#m31cd9fa41d" y="7.2"/>
      </g>
     </g>
    </g>
    <g id="text_9">
     <!-- log10 of Df -->
     <defs>
      <path id="BitstreamVeraSans-Roman-20"/>
      <path d="M 12.40625 8.296875 
L 28.515625 8.296875 
L 28.515625 63.921875 
L 10.984375 60.40625 
L 10.984375 69.390625 
L 28.421875 72.90625 
L 38.28125 72.90625 
L 38.28125 8.296875 
L 54.390625 8.296875 
L 54.390625 0 
L 12.40625 0 
z
" id="BitstreamVeraSans-Roman-31"/>
      <path d="M 30.609375 48.390625 
Q 23.390625 48.390625 19.1875 42.75 
Q 14.984375 37.109375 14.984375 27.296875 
Q 14.984375 17.484375 19.15625 11.84375 
Q 23.34375 6.203125 30.609375 6.203125 
Q 37.796875 6.203125 41.984375 11.859375 
Q 46.1875 17.53125 46.1875 27.296875 
Q 46.1875 37.015625 41.984375 42.703125 
Q 37.796875 48.390625 30.609375 48.390625 
M 30.609375 56 
Q 42.328125 56 49.015625 48.375 
Q 55.71875 40.765625 55.71875 27.296875 
Q 55.71875 13.875 49.015625 6.21875 
Q 42.328125 -1.421875 30.609375 -1.421875 
Q 18.84375 -1.421875 12.171875 6.21875 
Q 5.515625 13.875 5.515625 27.296875 
Q 5.515625 40.765625 12.171875 48.375 
Q 18.84375 56 30.609375 56 
" id="BitstreamVeraSans-Roman-6f"/>
      <path d="M 9.421875 75.984375 
L 18.40625 75.984375 
L 18.40625 0 
L 9.421875 0 
z
" id="BitstreamVeraSans-Roman-6c"/>
      <path d="M 19.671875 64.796875 
L 19.671875 8.109375 
L 31.59375 8.109375 
Q 46.6875 8.109375 53.6875 14.9375 
Q 60.6875 21.78125 60.6875 36.53125 
Q 60.6875 51.171875 53.6875 57.984375 
Q 46.6875 64.796875 31.59375 64.796875 
z
M 9.8125 72.90625 
L 30.078125 72.90625 
Q 51.265625 72.90625 61.171875 64.09375 
Q 71.09375 55.28125 71.09375 36.53125 
Q 71.09375 17.671875 61.125 8.828125 
Q 51.171875 0 30.078125 0 
L 9.8125 0 
z
" id="BitstreamVeraSans-Roman-44"/>
      <path d="M 45.40625 27.984375 
Q 45.40625 37.75 41.375 43.109375 
Q 37.359375 48.484375 30.078125 48.484375 
Q 22.859375 48.484375 18.828125 43.109375 
Q 14.796875 37.75 14.796875 27.984375 
Q 14.796875 18.265625 18.828125 12.890625 
Q 22.859375 7.515625 30.078125 7.515625 
Q 37.359375 7.515625 41.375 12.890625 
Q 45.40625 18.265625 45.40625 27.984375 
M 54.390625 6.78125 
Q 54.390625 -7.171875 48.1875 -13.984375 
Q 42 -20.796875 29.203125 -20.796875 
Q 24.46875 -20.796875 20.265625 -20.09375 
Q 16.0625 -19.390625 12.109375 -17.921875 
L 12.109375 -9.1875 
Q 16.0625 -11.328125 19.921875 -12.34375 
Q 23.78125 -13.375 27.78125 -13.375 
Q 36.625 -13.375 41.015625 -8.765625 
Q 45.40625 -4.15625 45.40625 5.171875 
L 45.40625 9.625 
Q 42.625 4.78125 38.28125 2.390625 
Q 33.9375 0 27.875 0 
Q 17.828125 0 11.671875 7.65625 
Q 5.515625 15.328125 5.515625 27.984375 
Q 5.515625 40.671875 11.671875 48.328125 
Q 17.828125 56 27.875 56 
Q 33.9375 56 38.28125 53.609375 
Q 42.625 51.21875 45.40625 46.390625 
L 45.40625 54.6875 
L 54.390625 54.6875 
z
" id="BitstreamVeraSans-Roman-67"/>
      <path d="M 37.109375 75.984375 
L 37.109375 68.5 
L 28.515625 68.5 
Q 23.6875 68.5 21.796875 66.546875 
Q 19.921875 64.59375 19.921875 59.515625 
L 19.921875 54.6875 
L 34.71875 54.6875 
L 34.71875 47.703125 
L 19.921875 47.703125 
L 19.921875 0 
L 10.890625 0 
L 10.890625 47.703125 
L 2.296875 47.703125 
L 2.296875 54.6875 
L 10.890625 54.6875 
L 10.890625 58.5 
Q 10.890625 67.625 15.140625 71.796875 
Q 19.390625 75.984375 28.609375 75.984375 
z
" id="BitstreamVeraSans-Roman-66"/>
     </defs>
     <g transform="translate(130.5740625 327.233125)scale(0.2 -0.2)">
      <use xlink:href="#BitstreamVeraSans-Roman-6c"/>
      <use x="27.783203125" xlink:href="#BitstreamVeraSans-Roman-6f"/>
      <use x="88.96484375" xlink:href="#BitstreamVeraSans-Roman-67"/>
      <use x="152.44140625" xlink:href="#BitstreamVeraSans-Roman-31"/>
      <use x="216.064453125" xlink:href="#BitstreamVeraSans-Roman-30"/>
      <use x="279.6875" xlink:href="#BitstreamVeraSans-Roman-20"/>
      <use x="311.474609375" xlink:href="#BitstreamVeraSans-Roman-6f"/>
      <use x="372.65625" xlink:href="#BitstreamVeraSans-Roman-66"/>
      <use x="407.861328125" xlink:href="#BitstreamVeraSans-Roman-20"/>
      <use x="439.6484375" xlink:href="#BitstreamVeraSans-Roman-44"/>
      <use x="516.650390625" xlink:href="#BitstreamVeraSans-Roman-66"/>
     </g>
    </g>
   </g>
   <g id="matplotlib.axis_2">
    <g id="ytick_1">
     <g id="line2d_52">
      <path clip-path="url(#pd0f98cd868)" d="M 7.2 283.68 
L 364.32 283.68 
" style="fill:none;stroke:#000000;stroke-dasharray:1.000000,3.000000;stroke-dashoffset:0.0;stroke-width:0.5;"/>
     </g>
     <g id="line2d_53">
      <defs>
       <path d="M 0 0 
L 4 0 
" id="mcfc645e7fd" style="stroke:#000000;stroke-width:0.5;"/>
      </defs>
      <g>
       <use style="stroke:#000000;stroke-width:0.5;" x="7.2" xlink:href="#mcfc645e7fd" y="283.68"/>
      </g>
     </g>
     <g id="line2d_54">
      <defs>
       <path d="M 0 0 
L -4 0 
" id="m17c415f817" style="stroke:#000000;stroke-width:0.5;"/>
      </defs>
      <g>
       <use style="stroke:#000000;stroke-width:0.5;" x="364.32" xlink:href="#m17c415f817" y="283.68"/>
      </g>
     </g>
    </g>
    <g id="ytick_2">
     <g id="line2d_55">
      <path clip-path="url(#pd0f98cd868)" d="M 7.2 228.931485 
L 364.32 228.931485 
" style="fill:none;stroke:#000000;stroke-dasharray:1.000000,3.000000;stroke-dashoffset:0.0;stroke-width:0.5;"/>
     </g>
     <g id="line2d_56">
      <g>
       <use style="stroke:#000000;stroke-width:0.5;" x="7.2" xlink:href="#mcfc645e7fd" y="228.931485149"/>
      </g>
     </g>
     <g id="line2d_57">
      <g>
       <use style="stroke:#000000;stroke-width:0.5;" x="364.32" xlink:href="#m17c415f817" y="228.931485149"/>
      </g>
     </g>
    </g>
    <g id="ytick_3">
     <g id="line2d_58">
      <path clip-path="url(#pd0f98cd868)" d="M 7.2 174.18297 
L 364.32 174.18297 
" style="fill:none;stroke:#000000;stroke-dasharray:1.000000,3.000000;stroke-dashoffset:0.0;stroke-width:0.5;"/>
     </g>
     <g id="line2d_59">
      <g>
       <use style="stroke:#000000;stroke-width:0.5;" x="7.2" xlink:href="#mcfc645e7fd" y="174.182970297"/>
      </g>
     </g>
     <g id="line2d_60">
      <g>
       <use style="stroke:#000000;stroke-width:0.5;" x="364.32" xlink:href="#m17c415f817" y="174.182970297"/>
      </g>
     </g>
    </g>
    <g id="ytick_4">
     <g id="line2d_61">
      <path clip-path="url(#pd0f98cd868)" d="M 7.2 119.434455 
L 364.32 119.434455 
" style="fill:none;stroke:#000000;stroke-dasharray:1.000000,3.000000;stroke-dashoffset:0.0;stroke-width:0.5;"/>
     </g>
     <g id="line2d_62">
      <g>
       <use style="stroke:#000000;stroke-width:0.5;" x="7.2" xlink:href="#mcfc645e7fd" y="119.434455446"/>
      </g>
     </g>
     <g id="line2d_63">
      <g>
       <use style="stroke:#000000;stroke-width:0.5;" x="364.32" xlink:href="#m17c415f817" y="119.434455446"/>
      </g>
     </g>
    </g>
    <g id="ytick_5">
     <g id="line2d_64">
      <path clip-path="url(#pd0f98cd868)" d="M 7.2 64.685941 
L 364.32 64.685941 
" style="fill:none;stroke:#000000;stroke-dasharray:1.000000,3.000000;stroke-dashoffset:0.0;stroke-width:0.5;"/>
     </g>
     <g id="line2d_65">
      <g>
       <use style="stroke:#000000;stroke-width:0.5;" x="7.2" xlink:href="#mcfc645e7fd" y="64.6859405941"/>
      </g>
     </g>
     <g id="line2d_66">
      <g>
       <use style="stroke:#000000;stroke-width:0.5;" x="364.32" xlink:href="#m17c415f817" y="64.6859405941"/>
      </g>
     </g>
    </g>
    <g id="ytick_6">
     <g id="line2d_67">
      <path clip-path="url(#pd0f98cd868)" d="M 7.2 9.937426 
L 364.32 9.937426 
" style="fill:none;stroke:#000000;stroke-dasharray:1.000000,3.000000;stroke-dashoffset:0.0;stroke-width:0.5;"/>
     </g>
     <g id="line2d_68">
      <g>
       <use style="stroke:#000000;stroke-width:0.5;" x="7.2" xlink:href="#mcfc645e7fd" y="9.93742574257"/>
      </g>
     </g>
     <g id="line2d_69">
      <g>
       <use style="stroke:#000000;stroke-width:0.5;" x="364.32" xlink:href="#m17c415f817" y="9.93742574257"/>
      </g>
     </g>
    </g>
   </g>
   <g id="text_10">
    <!-- f1-24,5-D -->
    <defs>
     <path d="M 11.71875 12.40625 
L 22.015625 12.40625 
L 22.015625 4 
L 14.015625 -11.625 
L 7.71875 -11.625 
L 11.71875 4 
z
" id="BitstreamVeraSans-Roman-2c"/>
     <path d="M 10.796875 72.90625 
L 49.515625 72.90625 
L 49.515625 64.59375 
L 19.828125 64.59375 
L 19.828125 46.734375 
Q 21.96875 47.46875 24.109375 47.828125 
Q 26.265625 48.1875 28.421875 48.1875 
Q 40.625 48.1875 47.75 41.5 
Q 54.890625 34.8125 54.890625 23.390625 
Q 54.890625 11.625 47.5625 5.09375 
Q 40.234375 -1.421875 26.90625 -1.421875 
Q 22.3125 -1.421875 17.546875 -0.640625 
Q 12.796875 0.140625 7.71875 1.703125 
L 7.71875 11.625 
Q 12.109375 9.234375 16.796875 8.0625 
Q 21.484375 6.890625 26.703125 6.890625 
Q 35.15625 6.890625 40.078125 11.328125 
Q 45.015625 15.765625 45.015625 23.390625 
Q 45.015625 31 40.078125 35.4375 
Q 35.15625 39.890625 26.703125 39.890625 
Q 22.75 39.890625 18.8125 39.015625 
Q 14.890625 38.140625 10.796875 36.28125 
z
" id="BitstreamVeraSans-Roman-35"/>
    </defs>
    <g transform="translate(263.049475 278.1504)scale(0.2 -0.2)">
     <use xlink:href="#BitstreamVeraSans-Roman-66"/>
     <use x="35.205078125" xlink:href="#BitstreamVeraSans-Roman-31"/>
     <use x="98.828125" xlink:href="#BitstreamVeraSans-Roman-2d"/>
     <use x="134.912109375" xlink:href="#BitstreamVeraSans-Roman-32"/>
     <use x="198.53515625" xlink:href="#BitstreamVeraSans-Roman-34"/>
     <use x="262.158203125" xlink:href="#BitstreamVeraSans-Roman-2c"/>
     <use x="293.9453125" xlink:href="#BitstreamVeraSans-Roman-35"/>
     <use x="357.568359375" xlink:href="#BitstreamVeraSans-Roman-2d"/>
     <use x="393.65234375" xlink:href="#BitstreamVeraSans-Roman-44"/>
    </g>
   </g>
  </g>
 </g>
 <defs>
  <clipPath id="pd0f98cd868">
   <rect height="276.48" width="357.12" x="7.2" y="7.2"/>
  </clipPath>
 </defs>
</svg>
