<?xml version="1.0" encoding="utf-8" standalone="no"?>
<!DOCTYPE svg PUBLIC "-//W3C//DTD SVG 1.1//EN"
  "http://www.w3.org/Graphics/SVG/1.1/DTD/svg11.dtd">
<!-- Created with matplotlib (http://matplotlib.org/) -->
<svg height="338pt" version="1.1" viewBox="0 0 371 338" width="371pt" xmlns="http://www.w3.org/2000/svg" xmlns:xlink="http://www.w3.org/1999/xlink">
 <defs>
  <style type="text/css">
*{stroke-linecap:butt;stroke-linejoin:round;stroke-miterlimit:100000;}
  </style>
 </defs>
 <g id="figure_1">
  <g id="patch_1">
   <path d="M 0 338.5925 
L 371.52 338.5925 
L 371.52 0 
L 0 0 
z
" style="fill:#ffffff;"/>
  </g>
  <g id="axes_1">
   <g id="patch_2">
    <path d="M 7.2 283.68 
L 364.32 283.68 
L 364.32 7.2 
L 7.2 7.2 
z
" style="fill:#ffffff;"/>
   </g>
   <g id="line2d_1">
    <path clip-path="url(#p87199b5b09)" d="M 183.988728 283.68 
L 183.988728 282.919604 
L 184.834063 282.919604 
L 184.834063 282.159208 
L 185.063307 282.159208 
L 185.063307 281.398812 
L 185.558483 281.398812 
L 185.558483 280.638416 
L 185.690121 280.638416 
L 185.779329 279.117624 
L 187.100929 279.117624 
L 187.114161 277.596832 
L 187.247644 277.596832 
L 187.247644 276.836436 
L 187.618219 276.836436 
L 187.618219 276.07604 
L 188.314632 276.07604 
L 188.314632 275.315644 
L 188.549942 275.315644 
L 188.549942 274.555248 
L 188.781523 274.555248 
L 188.781523 273.794851 
L 189.332946 273.794851 
L 189.332946 273.034455 
L 189.508567 273.034455 
L 189.508567 272.274059 
L 195.376849 272.274059 
L 195.376849 271.513663 
L 195.502127 271.513663 
L 195.502127 270.753267 
L 196.08203 270.753267 
L 196.18649 268.472079 
L 196.357284 268.472079 
L 196.438471 266.951287 
L 196.495064 266.951287 
L 196.508925 265.430495 
L 196.633058 265.430495 
L 196.633058 264.670099 
L 197.091137 264.670099 
L 197.194 263.149307 
L 197.541882 263.149307 
L 197.541882 262.388911 
L 197.857386 262.388911 
L 197.857386 261.628515 
L 198.069116 261.628515 
L 198.069116 260.868119 
L 198.945135 260.868119 
L 198.945135 260.107723 
L 199.242364 260.107723 
L 199.242364 259.347327 
L 199.366981 259.347327 
L 199.366981 258.586931 
L 199.858286 258.586931 
L 199.906803 257.066139 
L 200.016895 257.066139 
L 200.016895 256.305743 
L 200.708124 256.305743 
L 200.708124 255.545347 
L 200.840269 255.545347 
L 200.878894 254.024554 
L 200.987032 254.024554 
L 200.987032 253.264158 
L 201.418816 253.264158 
L 201.418816 252.503762 
L 201.604911 252.503762 
L 201.713241 249.462178 
L 202.244452 249.462178 
L 202.244452 248.701782 
L 202.643975 248.701782 
L 202.678211 247.18099 
L 203.019782 247.18099 
L 203.019782 246.420594 
L 204.212577 246.420594 
L 204.212577 245.660198 
L 204.439315 245.660198 
L 204.489214 242.618614 
L 204.808895 242.618614 
L 204.858873 241.097822 
L 205.161562 241.097822 
L 205.255591 238.816634 
L 205.329436 238.816634 
L 205.37044 237.295842 
L 205.73936 237.295842 
L 205.773273 235.77505 
L 206.084036 235.77505 
L 206.106898 233.493861 
L 206.239131 233.493861 
L 206.239131 232.733465 
L 206.599555 232.733465 
L 206.640924 231.212673 
L 206.867594 231.212673 
L 206.867594 230.452277 
L 207.192355 230.452277 
L 207.293564 228.171089 
L 207.53829 228.171089 
L 207.53829 227.410693 
L 207.653095 227.410693 
L 207.653095 226.650297 
L 207.777929 226.650297 
L 207.808807 223.608713 
L 208.767274 223.608713 
L 208.826979 222.087921 
L 208.890063 222.087921 
L 208.890063 221.327525 
L 209.009557 221.327525 
L 209.009557 220.567129 
L 209.597405 220.567129 
L 209.597405 219.806733 
L 210.170153 219.806733 
L 210.170153 219.046337 
L 210.467686 219.046337 
L 210.467686 218.285941 
L 210.842325 218.285941 
L 210.842325 217.525545 
L 211.46604 217.525545 
L 211.46604 216.765149 
L 211.805947 216.765149 
L 211.805947 216.004752 
L 212.375592 216.004752 
L 212.379778 214.48396 
L 212.630864 214.48396 
L 212.630864 213.723564 
L 213.257728 213.723564 
L 213.257728 212.963168 
L 213.66275 212.963168 
L 213.744581 210.68198 
L 213.863321 210.68198 
L 213.920163 209.161188 
L 214.02321 209.161188 
L 214.117318 206.119604 
L 214.222377 206.119604 
L 214.329152 200.796832 
L 214.357337 200.796832 
L 214.448708 195.474059 
L 214.527478 195.474059 
L 214.527478 194.713663 
L 214.643456 194.713663 
L 214.666823 191.672079 
L 214.939823 191.672079 
L 214.939823 190.911683 
L 215.090628 190.911683 
L 215.090628 190.151287 
L 215.225198 190.151287 
L 215.225198 189.390891 
L 215.602464 189.390891 
L 215.631512 187.870099 
L 215.746604 187.870099 
L 215.746604 187.109703 
L 216.085205 187.109703 
L 216.085205 186.349307 
L 216.288888 186.349307 
L 216.288888 185.588911 
L 216.644765 185.588911 
L 216.644765 184.828515 
L 217.034704 184.828515 
L 217.034704 184.068119 
L 217.569737 184.068119 
L 217.620734 182.547327 
L 217.972743 182.547327 
L 217.972743 181.786931 
L 218.578991 181.786931 
L 218.578991 181.026535 
L 219.455612 181.026535 
L 219.455612 180.266139 
L 222.497502 180.266139 
L 222.497502 179.505743 
L 222.622134 179.505743 
L 222.622134 178.745347 
L 223.138258 178.745347 
L 223.173157 177.224554 
L 223.30296 177.224554 
L 223.30296 176.464158 
L 223.683126 176.464158 
L 223.757466 172.662178 
L 224.005396 172.662178 
L 224.110709 171.141386 
L 224.179044 171.141386 
L 224.268044 168.099802 
L 224.579238 168.099802 
L 224.579238 167.339406 
L 225.131287 167.339406 
L 225.138668 165.818614 
L 225.667216 165.818614 
L 225.667216 165.058218 
L 226.125965 165.058218 
L 226.125965 164.297822 
L 226.242779 164.297822 
L 226.321985 162.77703 
L 226.551072 162.77703 
L 226.609956 161.256238 
L 226.982855 161.256238 
L 226.982855 160.495842 
L 228.005826 160.495842 
L 228.074855 158.214653 
L 228.243551 158.214653 
L 228.324463 156.693861 
L 228.632214 156.693861 
L 228.632214 155.933465 
L 228.888801 155.933465 
L 228.953748 154.412673 
L 229.28373 154.412673 
L 229.28373 153.652277 
L 229.533678 153.652277 
L 229.555727 152.131485 
L 229.911595 152.131485 
L 229.911595 151.371089 
L 230.136024 151.371089 
L 230.209685 148.329505 
L 230.278079 148.329505 
L 230.347614 146.808713 
L 230.404125 146.808713 
L 230.430843 145.287921 
L 230.543372 145.287921 
L 230.634647 142.246337 
L 230.759173 142.246337 
L 230.838692 140.725545 
L 230.894839 140.725545 
L 230.960141 138.444356 
L 231.155426 138.444356 
L 231.191441 136.923564 
L 231.278623 136.923564 
L 231.278623 136.163168 
L 231.633643 136.163168 
L 231.673617 134.642376 
L 231.833424 134.642376 
L 231.836512 133.121584 
L 232.025337 133.121584 
L 232.03507 131.600792 
L 232.266362 131.600792 
L 232.355648 129.319604 
L 232.444526 129.319604 
L 232.520374 126.27802 
L 232.556015 126.27802 
L 232.649586 123.996832 
L 232.682776 123.996832 
L 232.704202 121.715644 
L 232.924282 121.715644 
L 232.937799 120.194851 
L 233.067198 120.194851 
L 233.154486 117.153267 
L 233.230573 117.153267 
L 233.321849 114.872079 
L 233.395111 114.872079 
L 233.395111 114.111683 
L 233.514649 114.111683 
L 233.514649 113.351287 
L 233.680449 113.351287 
L 233.680449 112.590891 
L 233.876664 112.590891 
L 233.955499 110.309703 
L 234.028654 110.309703 
L 234.078578 108.788911 
L 234.359544 108.788911 
L 234.378663 107.268119 
L 234.490211 107.268119 
L 234.490211 106.507723 
L 234.652938 106.507723 
L 234.652938 105.747327 
L 235.068451 105.747327 
L 235.068451 104.986931 
L 235.526765 104.986931 
L 235.526765 104.226535 
L 235.67788 104.226535 
L 235.713409 101.945347 
L 235.793096 101.945347 
L 235.793096 101.18495 
L 241.854555 101.18495 
L 241.854555 100.424554 
L 242.298449 100.424554 
L 242.363771 98.903762 
L 242.423431 98.903762 
L 242.423431 98.143366 
L 242.894154 98.143366 
L 242.894154 97.38297 
L 243.124284 97.38297 
L 243.187705 95.862178 
L 243.381975 95.862178 
L 243.381975 95.101782 
L 243.542223 95.101782 
L 243.625131 93.58099 
L 243.668566 93.58099 
L 243.767839 92.060198 
L 243.808232 92.060198 
L 243.808232 91.299802 
L 244.106662 91.299802 
L 244.106662 90.539406 
L 244.569608 90.539406 
L 244.569608 89.77901 
L 258.192037 89.77901 
L 258.192037 89.018614 
L 260.59375 89.018614 
L 260.59375 88.258218 
L 263.945315 88.258218 
L 263.945315 87.497822 
L 264.66292 87.497822 
L 264.66292 86.737426 
L 267.495352 86.737426 
L 267.495352 85.97703 
L 267.676083 85.97703 
L 267.676083 85.216634 
L 268.033586 85.216634 
L 268.033586 84.456238 
L 268.270682 84.456238 
L 268.270682 83.695842 
L 268.429605 83.695842 
L 268.429605 82.935446 
L 268.837117 82.935446 
L 268.837117 82.17505 
L 269.210224 82.17505 
L 269.285968 80.654257 
L 269.519735 80.654257 
L 269.519735 79.893861 
L 269.762485 79.893861 
L 269.762485 79.133465 
L 269.899012 79.133465 
L 269.899012 78.373069 
L 270.466873 78.373069 
L 270.466873 77.612673 
L 271.568376 77.612673 
L 271.568376 76.852277 
L 272.297836 76.852277 
L 272.297836 76.091881 
L 272.741969 76.091881 
L 272.741969 75.331485 
L 273.085328 75.331485 
L 273.085328 74.571089 
L 273.202181 74.571089 
L 273.267664 72.289901 
L 273.371272 72.289901 
L 273.371272 71.529505 
L 273.546299 71.529505 
L 273.598483 70.008713 
L 273.737093 70.008713 
L 273.737093 69.248317 
L 274.32252 69.248317 
L 274.32252 68.487921 
L 274.670154 68.487921 
L 274.670154 67.727525 
L 274.970359 67.727525 
L 274.970359 66.967129 
L 275.33668 66.967129 
L 275.33668 66.206733 
L 276.307704 66.206733 
L 276.311698 64.685941 
L 276.820725 64.685941 
L 276.869161 62.404752 
L 276.96722 62.404752 
L 276.96722 61.644356 
L 277.105816 61.644356 
L 277.161654 60.123564 
L 277.520032 60.123564 
L 277.520032 59.363168 
L 278.336572 59.363168 
L 278.336572 58.602772 
L 278.959133 58.602772 
L 278.959133 57.842376 
L 279.250692 57.842376 
L 279.250692 57.08198 
L 279.49868 57.08198 
L 279.49868 56.321584 
L 279.720943 56.321584 
L 279.812788 54.800792 
L 279.976164 54.800792 
L 279.976164 54.040396 
L 280.758318 54.040396 
L 280.758318 53.28 
L 280.935055 53.28 
L 281.035811 51.759208 
L 281.706873 51.759208 
L 281.706873 50.998812 
L 282.396061 50.998812 
L 282.396061 50.238416 
L 282.767902 50.238416 
L 282.767902 49.47802 
L 282.949603 49.47802 
L 282.949603 48.717624 
L 285.269452 48.717624 
L 285.269452 47.957228 
L 288.133928 47.957228 
L 288.133928 47.196832 
L 288.260538 47.196832 
L 288.260538 46.436436 
L 290.367867 46.436436 
L 290.367867 45.67604 
L 290.582939 45.67604 
L 290.582939 44.915644 
L 290.89862 44.915644 
L 290.89862 44.155248 
L 294.812616 44.155248 
L 294.812616 43.394851 
L 296.158473 43.394851 
L 296.158473 42.634455 
L 297.115699 42.634455 
L 297.115699 41.874059 
L 298.08455 41.874059 
L 298.08455 41.113663 
L 298.490444 41.113663 
L 298.490444 40.353267 
L 298.774589 40.353267 
L 298.774589 39.592871 
L 298.981809 39.592871 
L 298.981809 38.832475 
L 299.274381 38.832475 
L 299.274381 38.072079 
L 299.650476 38.072079 
L 299.650476 37.311683 
L 300.415636 37.311683 
L 300.415694 35.790891 
L 300.624137 35.790891 
L 300.624137 35.030495 
L 301.183184 35.030495 
L 301.183184 34.270099 
L 302.115779 34.270099 
L 302.115779 33.509703 
L 302.257078 33.509703 
L 302.257078 32.749307 
L 302.821625 32.749307 
L 302.821625 31.988911 
L 303.061825 31.988911 
L 303.090686 30.468119 
L 303.325126 30.468119 
L 303.325126 29.707723 
L 303.476304 29.707723 
L 303.49997 28.186931 
L 304.019186 28.186931 
L 304.093295 26.666139 
L 304.227763 26.666139 
L 304.227763 25.905743 
L 304.607393 25.905743 
L 304.693198 24.38495 
L 305.233484 24.38495 
L 305.233484 23.624554 
L 305.753114 23.624554 
L 305.753114 22.864158 
L 306.403719 22.864158 
L 306.403719 22.103762 
L 306.851935 22.103762 
L 306.851935 21.343366 
L 338.082185 21.343366 
L 338.082185 20.58297 
L 339.175932 20.58297 
L 339.175932 19.822574 
L 342.735502 19.822574 
L 342.735502 19.062178 
L 343.368909 19.062178 
L 343.368909 18.301782 
L 343.502877 18.301782 
L 343.502877 17.541386 
L 344.399997 17.541386 
L 344.503244 16.020594 
L 344.571535 16.020594 
L 344.571535 15.260198 
L 345.516972 15.260198 
L 345.516972 14.499802 
L 346.145463 14.499802 
L 346.145463 13.739406 
L 346.285488 13.739406 
L 346.285488 12.97901 
L 346.402966 12.97901 
L 346.402966 12.218614 
L 346.777686 12.218614 
L 346.777686 11.458218 
L 347.3434 11.458218 
L 347.3434 10.697822 
L 349.889438 10.697822 
L 349.889438 9.937426 
L 349.889438 9.937426 
L 364.32 9.937426 
L 364.32 9.937426 
" style="fill:none;stroke:#ff0000;stroke-linecap:square;stroke-width:3.0;"/>
   </g>
   <g id="line2d_2">
    <path clip-path="url(#p87199b5b09)" d="M 190.914562 283.68 
L 190.914562 282.919604 
L 190.914562 282.919604 
L 190.914562 282.919604 
L 190.967825 282.919604 
L 190.967825 282.159208 
L 191.327822 282.159208 
L 191.327822 281.398812 
L 191.712468 281.398812 
L 191.712468 280.638416 
L 192.579712 280.638416 
L 192.579712 279.87802 
L 192.710594 279.87802 
L 192.710594 279.117624 
L 193.467873 279.117624 
L 193.467873 278.357228 
L 194.57026 278.357228 
L 194.57026 277.596832 
L 194.899271 277.596832 
L 194.899271 276.836436 
L 195.548851 276.836436 
L 195.548851 276.07604 
L 195.880936 276.07604 
L 195.880936 275.315644 
L 196.092425 275.315644 
L 196.145354 273.794851 
L 196.22281 273.794851 
L 196.22281 273.034455 
L 196.876512 273.034455 
L 196.876512 272.274059 
L 199.01649 272.274059 
L 199.01649 271.513663 
L 199.352121 271.513663 
L 199.352121 270.753267 
L 201.011036 270.753267 
L 201.011036 269.992871 
L 201.533798 269.992871 
L 201.533798 269.232475 
L 202.417795 269.232475 
L 202.514479 267.711683 
L 202.998937 267.711683 
L 202.998937 266.951287 
L 203.21493 266.951287 
L 203.21493 266.190891 
L 203.376904 266.190891 
L 203.376904 265.430495 
L 204.256657 265.430495 
L 204.256657 264.670099 
L 204.540546 264.670099 
L 204.543296 263.149307 
L 204.704401 263.149307 
L 204.805368 260.107723 
L 204.870658 260.107723 
L 204.870658 259.347327 
L 204.996048 259.347327 
L 204.996048 258.586931 
L 205.624458 258.586931 
L 205.624458 257.826535 
L 205.781819 257.826535 
L 205.781819 257.066139 
L 205.927157 257.066139 
L 205.927157 256.305743 
L 206.324442 256.305743 
L 206.324442 255.545347 
L 206.575464 255.545347 
L 206.575464 254.78495 
L 206.787019 254.78495 
L 206.787019 254.024554 
L 207.072129 254.024554 
L 207.072129 253.264158 
L 207.344745 253.264158 
L 207.344745 252.503762 
L 207.534915 252.503762 
L 207.534915 251.743366 
L 207.736838 251.743366 
L 207.736838 250.98297 
L 208.172089 250.98297 
L 208.172089 250.222574 
L 208.327024 250.222574 
L 208.327024 249.462178 
L 208.457283 249.462178 
L 208.457283 248.701782 
L 209.257423 248.701782 
L 209.257423 247.941386 
L 209.600846 247.941386 
L 209.667596 246.420594 
L 210.00511 246.420594 
L 210.092653 244.899802 
L 210.801749 244.899802 
L 210.841009 242.618614 
L 211.086152 242.618614 
L 211.173755 241.097822 
L 211.261532 241.097822 
L 211.261532 240.337426 
L 211.390872 240.337426 
L 211.464828 238.816634 
L 211.728454 238.816634 
L 211.73423 237.295842 
L 211.986947 237.295842 
L 211.986947 236.535446 
L 212.227614 236.535446 
L 212.320142 235.014653 
L 212.929579 235.014653 
L 213.030619 231.973069 
L 213.382789 231.973069 
L 213.456719 230.452277 
L 213.574063 230.452277 
L 213.574063 229.691881 
L 213.860906 229.691881 
L 213.860906 228.931485 
L 214.138702 228.931485 
L 214.138702 228.171089 
L 214.25976 228.171089 
L 214.25976 227.410693 
L 214.54748 227.410693 
L 214.620558 225.129505 
L 214.669262 225.129505 
L 214.669262 224.369109 
L 214.830971 224.369109 
L 214.889977 222.087921 
L 214.944897 222.087921 
L 214.944897 221.327525 
L 215.059819 221.327525 
L 215.059819 220.567129 
L 215.211234 220.567129 
L 215.295658 218.285941 
L 215.344927 218.285941 
L 215.431806 212.963168 
L 215.49127 212.963168 
L 215.597913 208.400792 
L 215.665942 208.400792 
L 215.755931 205.359208 
L 215.778263 205.359208 
L 215.844643 200.796832 
L 215.919382 200.796832 
L 215.919382 200.036436 
L 216.256506 200.036436 
L 216.256506 199.27604 
L 216.534746 199.27604 
L 216.629025 197.755248 
L 216.760019 197.755248 
L 216.778993 196.234455 
L 216.915572 196.234455 
L 216.915572 195.474059 
L 217.153647 195.474059 
L 217.153647 194.713663 
L 217.724957 194.713663 
L 217.724957 193.953267 
L 217.898292 193.953267 
L 217.898292 193.192871 
L 219.244642 193.192871 
L 219.244642 192.432475 
L 219.560591 192.432475 
L 219.579193 190.911683 
L 219.801765 190.911683 
L 219.854473 189.390891 
L 221.796095 189.390891 
L 221.902171 187.870099 
L 222.394475 187.870099 
L 222.394475 187.109703 
L 222.730193 187.109703 
L 222.818997 185.588911 
L 222.972819 185.588911 
L 223.02359 182.547327 
L 223.960289 182.547327 
L 223.960289 181.786931 
L 224.126657 181.786931 
L 224.126657 181.026535 
L 224.579238 181.026535 
L 224.579238 180.266139 
L 225.734444 180.266139 
L 225.743947 178.745347 
L 225.884795 178.745347 
L 225.884795 177.98495 
L 226.332044 177.98495 
L 226.332044 177.224554 
L 226.602948 177.224554 
L 226.602948 176.464158 
L 227.029785 176.464158 
L 227.108704 174.943366 
L 227.166284 174.943366 
L 227.232918 173.422574 
L 227.662197 173.422574 
L 227.682824 171.901782 
L 227.88213 171.901782 
L 227.982205 170.38099 
L 228.166769 170.38099 
L 228.166769 169.620594 
L 230.190178 169.620594 
L 230.190178 168.860198 
L 231.658792 168.860198 
L 231.667243 167.339406 
L 232.509561 167.339406 
L 232.509561 166.57901 
L 232.638584 166.57901 
L 232.638584 165.818614 
L 233.290035 165.818614 
L 233.290035 165.058218 
L 233.499043 165.058218 
L 233.499043 164.297822 
L 233.62457 164.297822 
L 233.62457 163.537426 
L 233.779439 163.537426 
L 233.884769 162.016634 
L 233.973567 162.016634 
L 234.075855 160.495842 
L 234.110125 160.495842 
L 234.210552 158.97505 
L 234.345313 158.97505 
L 234.345313 158.214653 
L 234.462831 158.214653 
L 234.489743 156.693861 
L 234.638853 156.693861 
L 234.728056 155.173069 
L 234.917446 155.173069 
L 234.917446 154.412673 
L 235.136301 154.412673 
L 235.136301 153.652277 
L 235.285793 153.652277 
L 235.344497 152.131485 
L 235.707254 152.131485 
L 235.707254 151.371089 
L 235.960763 151.371089 
L 235.960763 150.610693 
L 236.374007 150.610693 
L 236.374007 149.850297 
L 236.569426 149.850297 
L 236.569426 149.089901 
L 236.845577 149.089901 
L 236.889684 147.569109 
L 236.99736 147.569109 
L 237.083563 146.048317 
L 237.456428 146.048317 
L 237.456428 145.287921 
L 237.601614 145.287921 
L 237.601614 144.527525 
L 237.713 144.527525 
L 237.752492 143.006733 
L 237.885859 143.006733 
L 237.885859 142.246337 
L 238.026985 142.246337 
L 238.026985 141.485941 
L 238.203795 141.485941 
L 238.276178 139.965149 
L 238.648645 139.965149 
L 238.648645 139.204752 
L 238.772058 139.204752 
L 238.838779 137.68396 
L 238.936401 137.68396 
L 238.964036 136.163168 
L 239.302864 136.163168 
L 239.346812 134.642376 
L 239.421177 134.642376 
L 239.491512 133.121584 
L 239.580649 133.121584 
L 239.616501 131.600792 
L 239.700663 131.600792 
L 239.700663 130.840396 
L 239.919702 130.840396 
L 239.990625 128.559208 
L 240.25263 128.559208 
L 240.25263 127.798812 
L 240.531657 127.798812 
L 240.55373 125.517624 
L 240.94639 125.517624 
L 241.02094 123.236436 
L 241.12585 123.236436 
L 241.12585 122.47604 
L 241.240942 122.47604 
L 241.240942 121.715644 
L 241.465474 121.715644 
L 241.467237 120.194851 
L 241.926529 120.194851 
L 242.013298 118.674059 
L 242.459209 118.674059 
L 242.459209 117.913663 
L 242.586178 117.913663 
L 242.660395 116.392871 
L 242.886971 116.392871 
L 242.933747 114.111683 
L 243.003001 114.111683 
L 243.003001 113.351287 
L 244.127499 113.351287 
L 244.127499 112.590891 
L 244.739664 112.590891 
L 244.739664 111.830495 
L 245.4699 111.830495 
L 245.4699 111.070099 
L 246.002933 111.070099 
L 246.002933 110.309703 
L 246.133356 110.309703 
L 246.159578 108.788911 
L 246.25875 108.788911 
L 246.25875 108.028515 
L 246.512171 108.028515 
L 246.512171 107.268119 
L 246.631448 107.268119 
L 246.631448 106.507723 
L 247.094673 106.507723 
L 247.163964 104.986931 
L 247.278083 104.986931 
L 247.278083 104.226535 
L 247.671749 104.226535 
L 247.738197 102.705743 
L 247.998758 102.705743 
L 247.998758 101.945347 
L 248.415599 101.945347 
L 248.415599 101.18495 
L 257.62429 101.18495 
L 257.62429 100.424554 
L 258.597413 100.424554 
L 258.597413 99.664158 
L 269.10402 99.664158 
L 269.10402 98.903762 
L 271.98351 98.903762 
L 271.98351 98.143366 
L 275.30104 98.143366 
L 275.30104 97.38297 
L 275.510734 97.38297 
L 275.510734 96.622574 
L 275.761988 96.622574 
L 275.794972 95.101782 
L 275.934148 95.101782 
L 275.934148 94.341386 
L 276.113656 94.341386 
L 276.113656 93.58099 
L 276.492043 93.58099 
L 276.492043 92.820594 
L 276.912133 92.820594 
L 276.912133 92.060198 
L 277.887535 92.060198 
L 277.887535 91.299802 
L 279.34225 91.299802 
L 279.437272 89.77901 
L 279.496633 89.77901 
L 279.496633 89.018614 
L 280.23632 89.018614 
L 280.281634 87.497822 
L 280.540045 87.497822 
L 280.575228 85.97703 
L 281.910537 85.97703 
L 281.946506 84.456238 
L 282.218738 84.456238 
L 282.218738 83.695842 
L 282.949148 83.695842 
L 282.949148 82.935446 
L 283.080192 82.935446 
L 283.080192 82.17505 
L 283.287352 82.17505 
L 283.384705 80.654257 
L 283.527497 80.654257 
L 283.527497 79.893861 
L 284.10917 79.893861 
L 284.10917 79.133465 
L 284.976503 79.133465 
L 284.976503 78.373069 
L 286.010212 78.373069 
L 286.079289 76.852277 
L 286.446436 76.852277 
L 286.538298 75.331485 
L 286.649417 75.331485 
L 286.662184 73.810693 
L 286.813022 73.810693 
L 286.813022 73.050297 
L 287.089176 73.050297 
L 287.089176 72.289901 
L 287.250291 72.289901 
L 287.250291 71.529505 
L 287.366888 71.529505 
L 287.427368 70.008713 
L 287.687877 70.008713 
L 287.687877 69.248317 
L 287.812022 69.248317 
L 287.812022 68.487921 
L 288.331962 68.487921 
L 288.331962 67.727525 
L 288.821166 67.727525 
L 288.853467 65.446337 
L 289.728472 65.446337 
L 289.728472 64.685941 
L 289.885135 64.685941 
L 289.885135 63.925545 
L 290.303256 63.925545 
L 290.303256 63.165149 
L 290.543732 63.165149 
L 290.543732 62.404752 
L 290.840673 62.404752 
L 290.929951 60.88396 
L 291.065756 60.88396 
L 291.148347 59.363168 
L 291.27659 59.363168 
L 291.291076 57.842376 
L 292.028882 57.842376 
L 292.028882 57.08198 
L 292.361904 57.08198 
L 292.361904 56.321584 
L 293.086193 56.321584 
L 293.086193 55.561188 
L 294.066772 55.561188 
L 294.066772 54.800792 
L 294.333785 54.800792 
L 294.333785 54.040396 
L 294.621613 54.040396 
L 294.621613 53.28 
L 295.046403 53.28 
L 295.046403 52.519604 
L 295.172364 52.519604 
L 295.277148 50.998812 
L 296.057621 50.998812 
L 296.157246 49.47802 
L 296.379898 49.47802 
L 296.379898 48.717624 
L 301.525415 48.717624 
L 301.525415 47.957228 
L 302.057022 47.957228 
L 302.115779 46.436436 
L 302.815353 46.436436 
L 302.815353 45.67604 
L 306.005243 45.67604 
L 306.005243 44.915644 
L 307.549658 44.915644 
L 307.549658 44.155248 
L 307.664841 44.155248 
L 307.664841 43.394851 
L 309.007611 43.394851 
L 309.007611 42.634455 
L 309.230626 42.634455 
L 309.230626 41.874059 
L 312.309157 41.874059 
L 312.309157 41.113663 
L 312.567072 41.113663 
L 312.567072 40.353267 
L 313.276265 40.353267 
L 313.276265 39.592871 
L 313.81982 39.592871 
L 313.81982 38.832475 
L 315.525128 38.832475 
L 315.540452 37.311683 
L 316.108286 37.311683 
L 316.108286 36.551287 
L 316.516682 36.551287 
L 316.570003 35.030495 
L 316.680585 35.030495 
L 316.685086 33.509703 
L 316.79396 33.509703 
L 316.79396 32.749307 
L 317.006467 32.749307 
L 317.006467 31.988911 
L 317.194335 31.988911 
L 317.194335 31.228515 
L 317.370612 31.228515 
L 317.375174 29.707723 
L 319.430952 29.707723 
L 319.430952 28.947327 
L 321.204972 28.947327 
L 321.204972 28.186931 
L 321.766332 28.186931 
L 321.766332 27.426535 
L 322.072135 27.426535 
L 322.072135 26.666139 
L 322.295685 26.666139 
L 322.386631 24.38495 
L 324.113108 24.38495 
L 324.113108 23.624554 
L 324.948862 23.624554 
L 324.948862 22.864158 
L 326.817128 22.864158 
L 326.817128 22.103762 
L 328.827954 22.103762 
L 328.827954 21.343366 
L 347.951974 21.343366 
L 347.951974 20.58297 
L 350.540871 20.58297 
L 350.540871 19.822574 
L 350.969408 19.822574 
L 350.969408 19.062178 
L 351.329547 19.062178 
L 351.329547 18.301782 
L 352.547712 18.301782 
L 352.547712 17.541386 
L 353.622967 17.541386 
L 353.622967 16.78099 
L 354.049567 16.78099 
L 354.049567 16.020594 
L 355.891537 16.020594 
L 355.891537 15.260198 
L 356.643702 15.260198 
L 356.643702 14.499802 
L 357.240896 14.499802 
L 357.240896 13.739406 
L 357.871967 13.739406 
L 357.871967 12.97901 
L 358.808557 12.97901 
L 358.808557 12.218614 
L 359.279916 12.218614 
L 359.279916 11.458218 
L 360.435971 11.458218 
L 360.435971 10.697822 
L 361.793229 10.697822 
L 361.793229 9.937426 
L 361.793229 9.937426 
L 364.32 9.937426 
L 364.32 9.937426 
" style="fill:none;stroke:#00bfbf;stroke-linecap:square;"/>
   </g>
   <g id="line2d_3">
    <path clip-path="url(#p87199b5b09)" d="M 189.983642 283.68 
L 189.983642 282.919604 
L 190.75157 282.919604 
L 190.75157 282.159208 
L 190.914562 282.159208 
L 190.994059 279.87802 
L 191.327822 279.87802 
L 191.327822 279.117624 
L 191.712468 279.117624 
L 191.712468 278.357228 
L 192.158846 278.357228 
L 192.158846 277.596832 
L 192.491052 277.596832 
L 192.491052 276.836436 
L 193.467873 276.836436 
L 193.467873 276.07604 
L 193.982737 276.07604 
L 193.982737 275.315644 
L 194.899271 275.315644 
L 194.899271 274.555248 
L 195.672604 274.555248 
L 195.672604 273.794851 
L 196.22281 273.794851 
L 196.22281 273.034455 
L 196.876512 273.034455 
L 196.876512 272.274059 
L 198.305224 272.274059 
L 198.305224 271.513663 
L 198.873329 271.513663 
L 198.873329 270.753267 
L 199.01649 270.753267 
L 199.01649 269.992871 
L 199.516246 269.992871 
L 199.516246 269.232475 
L 200.433132 269.232475 
L 200.433132 268.472079 
L 200.589964 268.472079 
L 200.589964 267.711683 
L 201.011036 267.711683 
L 201.011036 266.951287 
L 201.698201 266.951287 
L 201.731737 265.430495 
L 202.106036 265.430495 
L 202.106036 264.670099 
L 202.244452 264.670099 
L 202.284917 263.149307 
L 202.417795 263.149307 
L 202.417795 262.388911 
L 203.21493 262.388911 
L 203.293553 260.868119 
L 203.601623 260.868119 
L 203.603593 259.347327 
L 204.540546 259.347327 
L 204.543296 257.826535 
L 204.781337 257.826535 
L 204.781337 257.066139 
L 205.447832 257.066139 
L 205.494676 255.545347 
L 205.781819 255.545347 
L 205.802112 254.024554 
L 206.083247 254.024554 
L 206.083247 253.264158 
L 206.324442 253.264158 
L 206.363224 251.743366 
L 206.575464 251.743366 
L 206.575464 250.98297 
L 206.70897 250.98297 
L 206.70897 250.222574 
L 207.192355 250.222574 
L 207.192355 249.462178 
L 207.728099 249.462178 
L 207.736838 247.941386 
L 208.172089 247.941386 
L 208.256727 246.420594 
L 208.736515 246.420594 
L 208.73954 244.899802 
L 209.053343 244.899802 
L 209.053343 244.139406 
L 209.49184 244.139406 
L 209.600846 242.618614 
L 209.605345 242.618614 
L 209.667596 241.097822 
L 210.00511 241.097822 
L 210.00511 240.337426 
L 210.388324 240.337426 
L 210.467453 238.056238 
L 210.513972 238.056238 
L 210.513972 237.295842 
L 210.78897 237.295842 
L 210.841009 235.014653 
L 211.173755 235.014653 
L 211.173755 234.254257 
L 211.308389 234.254257 
L 211.390872 232.733465 
L 211.464828 232.733465 
L 211.464828 231.973069 
L 211.676322 231.973069 
L 211.728454 230.452277 
L 212.125621 230.452277 
L 212.125621 229.691881 
L 212.320142 229.691881 
L 212.320142 228.931485 
L 212.435929 228.931485 
L 212.532474 227.410693 
L 212.590872 227.410693 
L 212.659049 225.129505 
L 212.847203 225.129505 
L 212.929579 222.848317 
L 213.62659 222.848317 
L 213.62659 222.087921 
L 213.774527 222.087921 
L 213.774527 221.327525 
L 214.616917 221.327525 
L 214.669262 219.046337 
L 214.742518 219.046337 
L 214.830971 217.525545 
L 214.866262 217.525545 
L 214.940471 215.244356 
L 214.992705 215.244356 
L 215.059819 212.202772 
L 215.192121 212.202772 
L 215.24688 209.161188 
L 215.338706 209.161188 
L 215.431806 203.07802 
L 215.538881 203.07802 
L 215.621402 200.036436 
L 215.699962 200.036436 
L 215.742715 196.234455 
L 215.880573 196.234455 
L 215.880573 195.474059 
L 216.35975 195.474059 
L 216.35975 194.713663 
L 216.760019 194.713663 
L 216.778993 193.192871 
L 216.915572 193.192871 
L 217.026353 191.672079 
L 217.898292 191.672079 
L 217.898292 190.911683 
L 219.008195 190.911683 
L 219.008195 190.151287 
L 219.265594 190.151287 
L 219.351226 188.630495 
L 219.579193 188.630495 
L 219.579193 187.870099 
L 219.854473 187.870099 
L 219.854473 187.109703 
L 220.675452 187.109703 
L 220.675452 186.349307 
L 221.335677 186.349307 
L 221.335677 185.588911 
L 221.902171 185.588911 
L 221.902171 184.828515 
L 222.09106 184.828515 
L 222.09106 184.068119 
L 222.394475 184.068119 
L 222.394475 183.307723 
L 222.972819 183.307723 
L 223.02359 181.026535 
L 224.579238 181.026535 
L 224.579238 180.266139 
L 225.734444 180.266139 
L 225.743947 178.745347 
L 225.884795 178.745347 
L 225.884795 177.98495 
L 226.121635 177.98495 
L 226.121635 177.224554 
L 226.602948 177.224554 
L 226.602948 176.464158 
L 226.753739 176.464158 
L 226.753739 175.703762 
L 226.925954 175.703762 
L 227.029785 174.18297 
L 227.108704 174.18297 
L 227.166284 172.662178 
L 227.470194 172.662178 
L 227.573942 171.141386 
L 227.677251 171.141386 
L 227.682824 169.620594 
L 230.190178 169.620594 
L 230.209685 168.099802 
L 231.658792 168.099802 
L 231.667243 166.57901 
L 231.899976 166.57901 
L 231.899976 165.818614 
L 232.408936 165.818614 
L 232.509561 162.77703 
L 232.629009 162.77703 
L 232.629009 162.016634 
L 233.290035 162.016634 
L 233.290035 161.256238 
L 233.47614 161.256238 
L 233.499043 159.735446 
L 233.62457 159.735446 
L 233.731127 158.214653 
L 233.884769 158.214653 
L 233.973567 156.693861 
L 234.110125 156.693861 
L 234.110125 155.933465 
L 234.262207 155.933465 
L 234.345313 154.412673 
L 234.728056 154.412673 
L 234.761434 152.891881 
L 235.136301 152.891881 
L 235.236017 151.371089 
L 235.285793 151.371089 
L 235.285793 150.610693 
L 235.503025 150.610693 
L 235.518781 149.089901 
L 235.707254 149.089901 
L 235.707254 148.329505 
L 235.869398 148.329505 
L 235.960763 146.808713 
L 236.345645 146.808713 
L 236.417769 144.527525 
L 236.503604 144.527525 
L 236.569426 142.246337 
L 236.79304 142.246337 
L 236.889684 140.725545 
L 236.950468 140.725545 
L 236.99736 139.204752 
L 237.083563 139.204752 
L 237.148604 137.68396 
L 237.381435 137.68396 
L 237.456428 135.402772 
L 237.601614 135.402772 
L 237.601614 134.642376 
L 237.713 134.642376 
L 237.752492 133.121584 
L 237.847284 133.121584 
L 237.847284 132.361188 
L 237.987495 132.361188 
L 237.987495 131.600792 
L 238.203795 131.600792 
L 238.284753 129.319604 
L 238.368472 129.319604 
L 238.368472 128.559208 
L 238.492533 128.559208 
L 238.567101 127.038416 
L 238.772058 127.038416 
L 238.838779 125.517624 
L 238.936401 125.517624 
L 238.957692 123.996832 
L 239.111259 123.996832 
L 239.111259 123.236436 
L 239.302864 123.236436 
L 239.346812 121.715644 
L 239.580649 121.715644 
L 239.681087 120.194851 
L 239.935448 120.194851 
L 240.027354 118.674059 
L 240.25263 118.674059 
L 240.25263 117.913663 
L 240.531657 117.913663 
L 240.553104 115.632475 
L 240.993006 115.632475 
L 241.07016 114.111683 
L 241.465474 114.111683 
L 241.465474 113.351287 
L 241.935805 113.351287 
L 241.935805 112.590891 
L 242.660395 112.590891 
L 242.660395 111.830495 
L 242.933747 111.830495 
L 242.933747 111.070099 
L 243.542223 111.070099 
L 243.542223 110.309703 
L 244.555468 110.309703 
L 244.555468 109.549307 
L 244.839556 109.549307 
L 244.839556 108.788911 
L 245.020454 108.788911 
L 245.124953 107.268119 
L 245.4699 107.268119 
L 245.4699 106.507723 
L 245.959459 106.507723 
L 245.959459 105.747327 
L 246.133356 105.747327 
L 246.133356 104.986931 
L 246.389722 104.986931 
L 246.389722 104.226535 
L 246.512171 104.226535 
L 246.512171 103.466139 
L 246.631448 103.466139 
L 246.631448 102.705743 
L 246.749366 102.705743 
L 246.749366 101.945347 
L 247.094673 101.945347 
L 247.094673 101.18495 
L 247.676095 101.18495 
L 247.738197 99.664158 
L 257.600311 99.664158 
L 257.600311 98.903762 
L 258.597413 98.903762 
L 258.597413 98.143366 
L 259.965485 98.143366 
L 259.965485 97.38297 
L 263.321137 97.38297 
L 263.321137 96.622574 
L 269.10402 96.622574 
L 269.10402 95.862178 
L 270.1634 95.862178 
L 270.230572 94.341386 
L 270.46663 94.341386 
L 270.46663 93.58099 
L 272.780792 93.58099 
L 272.797587 92.060198 
L 274.402305 92.060198 
L 274.402305 91.299802 
L 275.30104 91.299802 
L 275.385607 89.018614 
L 275.510734 89.018614 
L 275.510734 88.258218 
L 275.761988 88.258218 
L 275.794972 86.737426 
L 275.934148 86.737426 
L 275.946019 85.216634 
L 276.113656 85.216634 
L 276.113656 84.456238 
L 276.498302 84.456238 
L 276.498302 83.695842 
L 276.977761 83.695842 
L 276.977761 82.935446 
L 277.709838 82.935446 
L 277.709838 82.17505 
L 279.384189 82.17505 
L 279.437272 80.654257 
L 279.773216 80.654257 
L 279.773216 79.893861 
L 279.886037 79.893861 
L 279.886037 79.133465 
L 280.23632 79.133465 
L 280.23632 78.373069 
L 280.433615 78.373069 
L 280.433615 77.612673 
L 281.242309 77.612673 
L 281.242309 76.852277 
L 281.376596 76.852277 
L 281.376596 76.091881 
L 281.832901 76.091881 
L 281.832901 75.331485 
L 281.946506 75.331485 
L 281.946506 74.571089 
L 282.218738 74.571089 
L 282.302453 73.050297 
L 282.65198 73.050297 
L 282.65198 72.289901 
L 282.809214 72.289901 
L 282.809214 71.529505 
L 282.949148 71.529505 
L 282.949148 70.769109 
L 283.384705 70.769109 
L 283.384705 70.008713 
L 284.10917 70.008713 
L 284.10917 69.248317 
L 284.601509 69.248317 
L 284.67805 67.727525 
L 285.049171 67.727525 
L 285.049171 66.967129 
L 286.361755 66.967129 
L 286.446436 65.446337 
L 286.538298 65.446337 
L 286.538298 64.685941 
L 287.089176 64.685941 
L 287.107113 63.165149 
L 287.687877 63.165149 
L 287.715867 61.644356 
L 287.908929 61.644356 
L 287.908929 60.88396 
L 288.02984 60.88396 
L 288.02984 60.123564 
L 288.591029 60.123564 
L 288.591029 59.363168 
L 288.853467 59.363168 
L 288.853467 58.602772 
L 289.885135 58.602772 
L 289.885135 57.842376 
L 290.011845 57.842376 
L 290.011845 57.08198 
L 290.303256 57.08198 
L 290.303256 56.321584 
L 290.543732 56.321584 
L 290.543732 55.561188 
L 290.840673 55.561188 
L 290.840673 54.800792 
L 291.148347 54.800792 
L 291.148347 54.040396 
L 291.291076 54.040396 
L 291.291076 53.28 
L 291.639936 53.28 
L 291.639936 52.519604 
L 291.767823 52.519604 
L 291.767823 51.759208 
L 292.028882 51.759208 
L 292.028882 50.998812 
L 294.066772 50.998812 
L 294.066772 50.238416 
L 294.252238 50.238416 
L 294.252238 49.47802 
L 294.425652 49.47802 
L 294.425652 48.717624 
L 295.046403 48.717624 
L 295.046403 47.957228 
L 295.277148 47.957228 
L 295.277148 47.196832 
L 296.312492 47.196832 
L 296.312492 46.436436 
L 300.624137 46.436436 
L 300.624137 45.67604 
L 301.525415 45.67604 
L 301.525415 44.915644 
L 302.057022 44.915644 
L 302.115779 43.394851 
L 305.988628 43.394851 
L 306.005243 41.874059 
L 306.403719 41.874059 
L 306.403719 41.113663 
L 308.520765 41.113663 
L 308.520765 40.353267 
L 309.007611 40.353267 
L 309.007611 39.592871 
L 309.230626 39.592871 
L 309.340562 38.072079 
L 311.245552 38.072079 
L 311.245552 37.311683 
L 311.793879 37.311683 
L 311.861103 35.790891 
L 311.925268 35.790891 
L 312.004006 34.270099 
L 312.309157 34.270099 
L 312.309157 33.509703 
L 312.567072 33.509703 
L 312.567072 32.749307 
L 313.276265 32.749307 
L 313.276265 31.988911 
L 313.877796 31.988911 
L 313.877796 31.228515 
L 314.513534 31.228515 
L 314.513534 30.468119 
L 315.037865 30.468119 
L 315.037865 29.707723 
L 315.266366 29.707723 
L 315.266366 28.947327 
L 315.540452 28.947327 
L 315.540452 28.186931 
L 315.763338 28.186931 
L 315.763338 27.426535 
L 316.108286 27.426535 
L 316.108286 26.666139 
L 316.570003 26.666139 
L 316.570003 25.905743 
L 316.683167 25.905743 
L 316.683167 25.145347 
L 317.194335 25.145347 
L 317.194335 24.38495 
L 319.430952 24.38495 
L 319.539543 22.864158 
L 321.259347 22.864158 
L 321.259347 22.103762 
L 323.985576 22.103762 
L 323.985576 21.343366 
L 346.70002 21.343366 
L 346.70002 20.58297 
L 346.996846 20.58297 
L 346.996846 19.822574 
L 348.396097 19.822574 
L 348.396097 19.062178 
L 350.540871 19.062178 
L 350.540871 18.301782 
L 350.969408 18.301782 
L 350.969408 17.541386 
L 351.283987 17.541386 
L 351.329547 16.020594 
L 352.189154 16.020594 
L 352.189154 15.260198 
L 352.778755 15.260198 
L 352.778755 14.499802 
L 353.622967 14.499802 
L 353.622967 13.739406 
L 353.774229 13.739406 
L 353.774229 12.97901 
L 354.776859 12.97901 
L 354.776859 12.218614 
L 355.891537 12.218614 
L 355.891537 11.458218 
L 356.27029 11.458218 
L 356.27029 10.697822 
L 359.279916 10.697822 
L 359.279916 9.937426 
L 359.279916 9.937426 
L 364.32 9.937426 
L 364.32 9.937426 
" style="fill:none;stroke:#bf00bf;stroke-linecap:square;"/>
   </g>
   <g id="line2d_4">
    <path clip-path="url(#p87199b5b09)" d="M 189.662352 283.68 
L 189.662352 282.919604 
L 189.983642 282.919604 
L 189.983642 282.159208 
L 190.495354 282.159208 
L 190.495354 281.398812 
L 190.914562 281.398812 
L 190.994059 279.117624 
L 191.327822 279.117624 
L 191.364295 277.596832 
L 191.45598 277.596832 
L 191.524448 276.07604 
L 191.712468 276.07604 
L 191.712468 275.315644 
L 191.835338 275.315644 
L 191.835338 274.555248 
L 192.407901 274.555248 
L 192.407901 273.794851 
L 192.638171 273.794851 
L 192.638171 273.034455 
L 193.982737 273.034455 
L 193.982737 272.274059 
L 198.305224 272.274059 
L 198.305224 271.513663 
L 198.823315 271.513663 
L 198.912725 269.232475 
L 199.032732 269.232475 
L 199.067976 266.951287 
L 200.153411 266.951287 
L 200.153411 266.190891 
L 200.718859 266.190891 
L 200.718859 265.430495 
L 200.878894 265.430495 
L 200.878894 264.670099 
L 201.011036 264.670099 
L 201.111384 263.149307 
L 201.259707 263.149307 
L 201.259707 262.388911 
L 201.698201 262.388911 
L 201.698201 261.628515 
L 202.106036 261.628515 
L 202.106036 260.868119 
L 202.244452 260.868119 
L 202.284917 259.347327 
L 202.417795 259.347327 
L 202.504923 257.826535 
L 203.460959 257.826535 
L 203.557348 256.305743 
L 203.587526 256.305743 
L 203.663256 253.264158 
L 204.148857 253.264158 
L 204.148857 252.503762 
L 204.268714 252.503762 
L 204.268714 251.743366 
L 204.439315 251.743366 
L 204.439315 250.98297 
L 205.457803 250.98297 
L 205.457803 250.222574 
L 206.253615 250.222574 
L 206.363224 247.941386 
L 207.192355 247.941386 
L 207.293564 246.420594 
L 207.736838 246.420594 
L 207.736838 245.660198 
L 208.034187 245.660198 
L 208.093354 243.37901 
L 208.172089 243.37901 
L 208.172089 242.618614 
L 208.353106 242.618614 
L 208.353106 241.858218 
L 208.736515 241.858218 
L 208.73954 240.337426 
L 209.00596 240.337426 
L 209.00596 239.57703 
L 209.143458 239.57703 
L 209.236404 238.056238 
L 209.42081 238.056238 
L 209.511537 235.77505 
L 209.605345 235.77505 
L 209.667596 234.254257 
L 210.388324 234.254257 
L 210.484747 231.973069 
L 210.78897 231.973069 
L 210.841009 230.452277 
L 210.916826 230.452277 
L 210.929709 228.171089 
L 211.153386 228.171089 
L 211.173755 226.650297 
L 211.495889 226.650297 
L 211.495889 225.889901 
L 211.662335 225.889901 
L 211.728454 223.608713 
L 211.859052 223.608713 
L 211.962845 222.087921 
L 211.993902 222.087921 
L 212.084726 220.567129 
L 212.50932 220.567129 
L 212.50932 219.806733 
L 212.659049 219.806733 
L 212.695055 218.285941 
L 213.373993 218.285941 
L 213.373993 217.525545 
L 213.920163 217.525545 
L 213.920163 216.765149 
L 214.356464 216.765149 
L 214.361942 215.244356 
L 214.616917 215.244356 
L 214.72052 211.442376 
L 214.804961 211.442376 
L 214.891828 206.88 
L 214.99256 206.88 
L 215.09408 203.07802 
L 215.105949 203.07802 
L 215.19443 201.557228 
L 215.225198 201.557228 
L 215.307553 199.27604 
L 215.344927 199.27604 
L 215.344927 198.515644 
L 215.460304 198.515644 
L 215.568106 195.474059 
L 215.589585 195.474059 
L 215.602856 193.953267 
L 215.710024 193.953267 
L 215.710024 193.192871 
L 216.35975 193.192871 
L 216.35975 192.432475 
L 216.778993 192.432475 
L 216.778993 191.672079 
L 216.915572 191.672079 
L 216.915572 190.911683 
L 217.675801 190.911683 
L 217.675801 190.151287 
L 218.18938 190.151287 
L 218.18938 189.390891 
L 218.497749 189.390891 
L 218.497749 188.630495 
L 219.008195 188.630495 
L 219.008195 187.870099 
L 219.24579 187.870099 
L 219.351226 184.828515 
L 219.42691 184.828515 
L 219.42691 184.068119 
L 219.854473 184.068119 
L 219.854473 183.307723 
L 222.096227 183.307723 
L 222.096227 182.547327 
L 222.972819 182.547327 
L 223.012365 181.026535 
L 224.5255 181.026535 
L 224.579238 179.505743 
L 225.100463 179.505743 
L 225.131287 177.98495 
L 225.223352 177.98495 
L 225.228162 176.464158 
L 225.485573 176.464158 
L 225.485573 175.703762 
L 225.600432 175.703762 
L 225.600432 174.943366 
L 225.726965 174.943366 
L 225.804911 172.662178 
L 226.232642 172.662178 
L 226.304929 171.141386 
L 226.643741 171.141386 
L 226.703726 169.620594 
L 226.793108 169.620594 
L 226.793108 168.860198 
L 227.588753 168.860198 
L 227.588753 168.099802 
L 230.190178 168.099802 
L 230.209685 166.57901 
L 231.346874 166.57901 
L 231.346874 165.818614 
L 231.658792 165.818614 
L 231.667243 164.297822 
L 231.779268 164.297822 
L 231.779268 163.537426 
L 231.899976 163.537426 
L 232.004607 162.016634 
L 232.185393 162.016634 
L 232.199731 160.495842 
L 232.317973 160.495842 
L 232.408936 158.97505 
L 232.453191 158.97505 
L 232.509561 157.454257 
L 232.700615 157.454257 
L 232.709595 155.933465 
L 232.969868 155.933465 
L 232.969868 155.173069 
L 233.499043 155.173069 
L 233.574205 153.652277 
L 233.731127 153.652277 
L 233.731127 152.891881 
L 233.866908 152.891881 
L 233.973567 151.371089 
L 234.041187 151.371089 
L 234.111002 149.089901 
L 234.345313 149.089901 
L 234.397559 147.569109 
L 234.591698 147.569109 
L 234.619556 146.048317 
L 234.745341 146.048317 
L 234.761434 144.527525 
L 235.0309 144.527525 
L 235.136301 142.246337 
L 235.248972 142.246337 
L 235.285793 139.965149 
L 235.490777 139.965149 
L 235.503025 138.444356 
L 235.707254 138.444356 
L 235.813912 136.923564 
L 235.960763 136.923564 
L 236.006813 134.642376 
L 236.078056 134.642376 
L 236.100907 133.121584 
L 236.319763 133.121584 
L 236.326798 131.600792 
L 236.503604 131.600792 
L 236.560099 128.559208 
L 236.889684 128.559208 
L 236.983023 126.27802 
L 237.148604 126.27802 
L 237.148604 125.517624 
L 237.456428 125.517624 
L 237.456428 124.757228 
L 237.601614 124.757228 
L 237.673407 123.236436 
L 237.713 123.236436 
L 237.782041 120.194851 
L 237.847284 120.194851 
L 237.882004 118.674059 
L 237.98049 118.674059 
L 237.987495 117.153267 
L 238.200334 117.153267 
L 238.200334 116.392871 
L 238.492533 116.392871 
L 238.492533 115.632475 
L 238.644827 115.632475 
L 238.644827 114.872079 
L 238.936401 114.872079 
L 238.957692 113.351287 
L 239.060884 113.351287 
L 239.111259 111.830495 
L 239.726544 111.830495 
L 239.726544 111.070099 
L 239.935448 111.070099 
L 239.935448 110.309703 
L 240.553104 110.309703 
L 240.553104 109.549307 
L 240.855502 109.549307 
L 240.855502 108.788911 
L 241.414704 108.788911 
L 241.465474 107.268119 
L 243.542223 107.268119 
L 243.542223 106.507723 
L 244.190626 106.507723 
L 244.190626 105.747327 
L 244.450013 105.747327 
L 244.555468 103.466139 
L 244.725485 103.466139 
L 244.725485 102.705743 
L 245.020454 102.705743 
L 245.124953 100.424554 
L 245.4699 100.424554 
L 245.4699 99.664158 
L 245.607454 99.664158 
L 245.607454 98.903762 
L 245.852109 98.903762 
L 245.852109 98.143366 
L 246.063559 98.143366 
L 246.133356 96.622574 
L 246.239309 96.622574 
L 246.349054 95.101782 
L 246.72542 95.101782 
L 246.72542 94.341386 
L 248.685099 94.341386 
L 248.685099 93.58099 
L 252.028814 93.58099 
L 252.028814 92.820594 
L 268.055122 92.820594 
L 268.055122 92.060198 
L 269.10402 92.060198 
L 269.150334 90.539406 
L 270.472754 90.539406 
L 270.472754 89.77901 
L 270.772833 89.77901 
L 270.772833 89.018614 
L 272.615643 89.018614 
L 272.615643 88.258218 
L 272.780792 88.258218 
L 272.797587 86.737426 
L 273.085328 86.737426 
L 273.085328 85.97703 
L 273.740345 85.97703 
L 273.740345 85.216634 
L 274.402305 85.216634 
L 274.478014 83.695842 
L 274.639438 83.695842 
L 274.670154 82.17505 
L 275.30104 82.17505 
L 275.385607 79.893861 
L 275.884852 79.893861 
L 275.946019 77.612673 
L 276.922849 77.612673 
L 276.977761 76.091881 
L 277.832423 76.091881 
L 277.832423 75.331485 
L 278.587808 75.331485 
L 278.592465 73.810693 
L 280.433615 73.810693 
L 280.433615 73.050297 
L 280.577463 73.050297 
L 280.577463 72.289901 
L 280.750163 72.289901 
L 280.750163 71.529505 
L 280.935055 71.529505 
L 281.035811 70.008713 
L 281.229676 70.008713 
L 281.242309 68.487921 
L 281.620953 68.487921 
L 281.647447 66.967129 
L 281.946506 66.967129 
L 281.946506 66.206733 
L 282.302453 66.206733 
L 282.302453 65.446337 
L 282.687008 65.446337 
L 282.687008 64.685941 
L 283.90361 64.685941 
L 283.936082 63.165149 
L 284.10917 63.165149 
L 284.10917 62.404752 
L 284.354776 62.404752 
L 284.387838 60.88396 
L 286.361755 60.88396 
L 286.361755 60.123564 
L 286.538298 60.123564 
L 286.538298 59.363168 
L 287.321003 59.363168 
L 287.321003 58.602772 
L 287.671403 58.602772 
L 287.755764 56.321584 
L 287.908929 56.321584 
L 287.908929 55.561188 
L 288.02984 55.561188 
L 288.02984 54.800792 
L 288.853467 54.800792 
L 288.853467 54.040396 
L 289.976308 54.040396 
L 290.011845 52.519604 
L 290.303256 52.519604 
L 290.303256 51.759208 
L 290.543732 51.759208 
L 290.543732 50.998812 
L 290.82757 50.998812 
L 290.840673 49.47802 
L 291.341549 49.47802 
L 291.341549 48.717624 
L 291.523759 48.717624 
L 291.523759 47.957228 
L 291.705688 47.957228 
L 291.705688 47.196832 
L 292.028882 47.196832 
L 292.028882 46.436436 
L 294.275137 46.436436 
L 294.275137 45.67604 
L 296.7056 45.67604 
L 296.7056 44.915644 
L 296.884804 44.915644 
L 296.884804 44.155248 
L 300.624137 44.155248 
L 300.624137 43.394851 
L 302.115779 43.394851 
L 302.115779 42.634455 
L 305.011631 42.634455 
L 305.011631 41.874059 
L 305.364713 41.874059 
L 305.364713 41.113663 
L 305.753114 41.113663 
L 305.753114 40.353267 
L 305.910414 40.353267 
L 306.005243 38.072079 
L 306.403719 38.072079 
L 306.403719 37.311683 
L 306.789099 37.311683 
L 306.789099 36.551287 
L 307.045578 36.551287 
L 307.057531 35.030495 
L 307.863624 35.030495 
L 307.863624 34.270099 
L 308.030643 34.270099 
L 308.030643 33.509703 
L 308.289322 33.509703 
L 308.289322 32.749307 
L 309.007611 32.749307 
L 309.065997 31.228515 
L 309.228851 31.228515 
L 309.230626 29.707723 
L 310.293716 29.707723 
L 310.293716 28.947327 
L 311.183395 28.947327 
L 311.183395 28.186931 
L 311.925268 28.186931 
L 311.925268 27.426535 
L 312.167347 27.426535 
L 312.167347 26.666139 
L 312.309157 26.666139 
L 312.309157 25.905743 
L 313.848202 25.905743 
L 313.848202 25.145347 
L 314.513534 25.145347 
L 314.513534 24.38495 
L 315.266366 24.38495 
L 315.266366 23.624554 
L 315.495438 23.624554 
L 315.495438 22.864158 
L 316.570003 22.864158 
L 316.570003 22.103762 
L 317.597675 22.103762 
L 317.597675 21.343366 
L 345.091523 21.343366 
L 345.091523 20.58297 
L 345.382465 20.58297 
L 345.382465 19.822574 
L 346.70002 19.822574 
L 346.70002 19.062178 
L 346.996846 19.062178 
L 346.996846 18.301782 
L 348.173292 18.301782 
L 348.173292 17.541386 
L 348.334942 17.541386 
L 348.396097 16.020594 
L 348.99829 16.020594 
L 348.99829 15.260198 
L 350.651272 15.260198 
L 350.651272 14.499802 
L 350.969408 14.499802 
L 350.969408 13.739406 
L 351.283987 13.739406 
L 351.283987 12.97901 
L 351.989901 12.97901 
L 351.989901 12.218614 
L 352.189154 12.218614 
L 352.189154 11.458218 
L 355.891537 11.458218 
L 355.891537 10.697822 
L 356.27029 10.697822 
L 356.27029 9.937426 
L 356.27029 9.937426 
L 364.32 9.937426 
L 364.32 9.937426 
" style="fill:none;stroke:#000000;stroke-linecap:square;"/>
   </g>
   <g id="line2d_5">
    <path clip-path="url(#p87199b5b09)" d="M 185.063307 283.68 
L 185.063307 282.919604 
L 187.618219 282.919604 
L 187.67489 281.398812 
L 188.720473 281.398812 
L 188.720473 280.638416 
L 189.266987 280.638416 
L 189.266987 279.87802 
L 189.662352 279.87802 
L 189.662352 279.117624 
L 190.083103 279.117624 
L 190.083103 278.357228 
L 190.282102 278.357228 
L 190.282102 277.596832 
L 190.598688 277.596832 
L 190.648981 276.07604 
L 190.710789 276.07604 
L 190.815671 274.555248 
L 190.914562 274.555248 
L 190.914562 273.794851 
L 191.498669 273.794851 
L 191.498669 273.034455 
L 192.407901 273.034455 
L 192.407901 272.274059 
L 198.16085 272.274059 
L 198.16085 271.513663 
L 198.305224 271.513663 
L 198.409119 269.992871 
L 198.510192 269.992871 
L 198.510192 269.232475 
L 198.77611 269.232475 
L 198.873329 267.711683 
L 199.018151 267.711683 
L 199.032732 266.190891 
L 199.242364 266.190891 
L 199.242364 265.430495 
L 199.515126 265.430495 
L 199.568871 263.909703 
L 199.666936 263.909703 
L 199.666936 263.149307 
L 199.858286 263.149307 
L 199.858286 262.388911 
L 200.636757 262.388911 
L 200.636757 261.628515 
L 200.878894 261.628515 
L 200.878894 260.868119 
L 201.011036 260.868119 
L 201.025785 259.347327 
L 201.658518 259.347327 
L 201.750446 256.305743 
L 201.859306 256.305743 
L 201.876109 254.78495 
L 202.244452 254.78495 
L 202.284917 253.264158 
L 202.420515 253.264158 
L 202.420515 252.503762 
L 202.876494 252.503762 
L 202.876494 251.743366 
L 203.185477 251.743366 
L 203.185477 250.98297 
L 203.444504 250.98297 
L 203.444504 250.222574 
L 203.592362 250.222574 
L 203.603593 248.701782 
L 204.439315 248.701782 
L 204.439315 247.941386 
L 205.164336 247.941386 
L 205.164336 247.18099 
L 205.416157 247.18099 
L 205.416157 246.420594 
L 205.73936 246.420594 
L 205.73936 245.660198 
L 206.230069 245.660198 
L 206.230069 244.899802 
L 206.509326 244.899802 
L 206.599555 242.618614 
L 206.671483 242.618614 
L 206.671483 241.858218 
L 207.192355 241.858218 
L 207.293564 240.337426 
L 207.494703 240.337426 
L 207.53829 238.056238 
L 207.670497 238.056238 
L 207.670497 237.295842 
L 207.803601 237.295842 
L 207.803601 236.535446 
L 207.916673 236.535446 
L 208.00905 234.254257 
L 208.030383 234.254257 
L 208.048562 232.733465 
L 208.170275 232.733465 
L 208.194174 231.212673 
L 208.325404 231.212673 
L 208.325404 230.452277 
L 208.450855 230.452277 
L 208.494143 228.931485 
L 208.589317 228.931485 
L 208.589317 228.171089 
L 208.741917 228.171089 
L 208.767274 226.650297 
L 209.327733 226.650297 
L 209.327733 225.889901 
L 210.018952 225.889901 
L 210.129095 224.369109 
L 210.1626 224.369109 
L 210.1626 223.608713 
L 210.624852 223.608713 
L 210.624852 222.848317 
L 210.889934 222.848317 
L 210.913143 221.327525 
L 211.153386 221.327525 
L 211.153386 220.567129 
L 211.728454 220.567129 
L 211.728454 219.806733 
L 211.962845 219.806733 
L 211.962845 219.046337 
L 212.659049 219.046337 
L 212.659049 218.285941 
L 213.156078 218.285941 
L 213.156078 217.525545 
L 213.373993 217.525545 
L 213.373993 216.765149 
L 213.66275 216.765149 
L 213.66275 216.004752 
L 213.920163 216.004752 
L 214.02321 214.48396 
L 214.361942 214.48396 
L 214.361942 213.723564 
L 214.503879 213.723564 
L 214.613814 211.442376 
L 214.616917 211.442376 
L 214.67655 206.88 
L 214.758315 206.88 
L 214.853792 202.317624 
L 214.889977 202.317624 
L 215.001041 198.515644 
L 215.059446 198.515644 
L 215.153049 193.953267 
L 215.225198 193.953267 
L 215.225198 193.192871 
L 215.514467 193.192871 
L 215.514467 192.432475 
L 216.570651 192.432475 
L 216.662874 190.911683 
L 216.778993 190.911683 
L 216.778993 190.151287 
L 216.915572 190.151287 
L 216.915572 189.390891 
L 217.561272 189.390891 
L 217.60862 187.870099 
L 217.675801 187.870099 
L 217.691251 186.349307 
L 218.086326 186.349307 
L 218.086326 185.588911 
L 219.008195 185.588911 
L 219.102898 184.068119 
L 219.221661 184.068119 
L 219.221661 183.307723 
L 220.18801 183.307723 
L 220.228812 181.786931 
L 220.787609 181.786931 
L 220.787609 181.026535 
L 223.733823 181.026535 
L 223.733823 180.266139 
L 224.272195 180.266139 
L 224.272195 179.505743 
L 224.5255 179.505743 
L 224.579238 177.98495 
L 225.066653 177.98495 
L 225.138668 174.943366 
L 225.223352 174.943366 
L 225.274253 172.662178 
L 225.427557 172.662178 
L 225.485573 171.141386 
L 225.726965 171.141386 
L 225.829947 168.860198 
L 226.232642 168.860198 
L 226.232642 168.099802 
L 226.551072 168.099802 
L 226.609956 166.57901 
L 226.793108 166.57901 
L 226.793108 165.818614 
L 227.690483 165.818614 
L 227.690483 165.058218 
L 228.505183 165.058218 
L 228.505183 164.297822 
L 228.630508 164.297822 
L 228.630508 163.537426 
L 229.642795 163.537426 
L 229.642795 162.77703 
L 230.190178 162.77703 
L 230.243402 160.495842 
L 230.80222 160.495842 
L 230.80222 159.735446 
L 230.952034 159.735446 
L 231.039512 158.214653 
L 231.125369 158.214653 
L 231.204534 156.693861 
L 231.346874 156.693861 
L 231.453087 155.173069 
L 231.667243 155.173069 
L 231.711269 152.891881 
L 231.899976 152.891881 
L 232.004607 151.371089 
L 232.199731 151.371089 
L 232.242414 149.089901 
L 232.350835 149.089901 
L 232.444526 146.048317 
L 232.48848 146.048317 
L 232.574674 144.527525 
L 232.649586 144.527525 
L 232.649586 143.767129 
L 233.136684 143.767129 
L 233.154433 142.246337 
L 233.254988 142.246337 
L 233.32427 140.725545 
L 233.459175 140.725545 
L 233.514649 138.444356 
L 233.574205 138.444356 
L 233.574205 137.68396 
L 233.866908 137.68396 
L 233.939413 136.163168 
L 234.041187 136.163168 
L 234.152167 132.361188 
L 234.345313 132.361188 
L 234.397559 130.840396 
L 234.495402 130.840396 
L 234.566649 128.559208 
L 235.0309 128.559208 
L 235.136301 123.996832 
L 235.258501 123.996832 
L 235.318346 122.47604 
L 235.426553 122.47604 
L 235.426553 121.715644 
L 235.707254 121.715644 
L 235.813912 119.434455 
L 235.896274 119.434455 
L 235.965498 117.913663 
L 236.078056 117.913663 
L 236.158241 115.632475 
L 236.426515 115.632475 
L 236.503604 114.111683 
L 236.816628 114.111683 
L 236.816628 113.351287 
L 236.956447 113.351287 
L 236.956447 112.590891 
L 237.083609 112.590891 
L 237.083609 111.830495 
L 237.374003 111.830495 
L 237.386116 110.309703 
L 237.601614 110.309703 
L 237.673407 108.788911 
L 237.978828 108.788911 
L 237.978828 108.028515 
L 238.147034 108.028515 
L 238.147034 107.268119 
L 238.305347 107.268119 
L 238.305347 106.507723 
L 238.554511 106.507723 
L 238.554511 105.747327 
L 239.571414 105.747327 
L 239.571414 104.986931 
L 240.553104 104.986931 
L 240.553104 104.226535 
L 240.783998 104.226535 
L 240.783998 103.466139 
L 241.734545 103.466139 
L 241.734545 102.705743 
L 243.381975 102.705743 
L 243.381975 101.945347 
L 243.542223 101.945347 
L 243.542223 101.18495 
L 243.67163 101.18495 
L 243.67163 100.424554 
L 243.980484 100.424554 
L 243.980484 99.664158 
L 244.160708 99.664158 
L 244.190626 98.143366 
L 244.450013 98.143366 
L 244.450013 97.38297 
L 244.903041 97.38297 
L 244.958234 95.862178 
L 245.020454 95.862178 
L 245.082691 93.58099 
L 245.320486 93.58099 
L 245.320486 92.820594 
L 245.44824 92.820594 
L 245.44824 92.060198 
L 245.725969 92.060198 
L 245.725969 91.299802 
L 248.994841 91.299802 
L 248.994841 90.539406 
L 250.026928 90.539406 
L 250.026928 89.77901 
L 267.676083 89.77901 
L 267.676083 89.018614 
L 268.877565 89.018614 
L 268.877565 88.258218 
L 269.646329 88.258218 
L 269.646329 87.497822 
L 269.944117 87.497822 
L 269.944117 86.737426 
L 270.310448 86.737426 
L 270.310448 85.97703 
L 270.759356 85.97703 
L 270.772833 84.456238 
L 271.090036 84.456238 
L 271.090036 83.695842 
L 271.695212 83.695842 
L 271.802447 82.17505 
L 272.297836 82.17505 
L 272.297836 81.414653 
L 272.64364 81.414653 
L 272.64364 80.654257 
L 273.085328 80.654257 
L 273.194697 78.373069 
L 273.267664 78.373069 
L 273.267664 77.612673 
L 274.576012 77.612673 
L 274.670154 76.091881 
L 274.737132 76.091881 
L 274.737132 75.331485 
L 275.694292 75.331485 
L 275.694292 74.571089 
L 275.884852 74.571089 
L 275.946019 73.050297 
L 276.647819 73.050297 
L 276.647819 72.289901 
L 276.847899 72.289901 
L 276.847899 71.529505 
L 276.977761 71.529505 
L 276.977761 70.769109 
L 277.832423 70.769109 
L 277.832423 70.008713 
L 278.587808 70.008713 
L 278.635787 68.487921 
L 279.176662 68.487921 
L 279.250692 66.967129 
L 279.621739 66.967129 
L 279.621739 66.206733 
L 279.812788 66.206733 
L 279.812788 65.446337 
L 279.976164 65.446337 
L 279.990382 63.925545 
L 280.19595 63.925545 
L 280.19595 63.165149 
L 280.543372 63.165149 
L 280.64545 61.644356 
L 280.935055 61.644356 
L 281.035811 60.123564 
L 281.242309 60.123564 
L 281.242309 59.363168 
L 281.671049 59.363168 
L 281.671049 58.602772 
L 281.870467 58.602772 
L 281.870467 57.842376 
L 282.869356 57.842376 
L 282.869356 57.08198 
L 282.994837 57.08198 
L 282.994837 56.321584 
L 283.416549 56.321584 
L 283.416549 55.561188 
L 284.307455 55.561188 
L 284.307455 54.800792 
L 284.509846 54.800792 
L 284.509846 54.040396 
L 286.785961 54.040396 
L 286.785961 53.28 
L 286.93602 53.28 
L 286.93602 52.519604 
L 287.329858 52.519604 
L 287.329858 51.759208 
L 287.646742 51.759208 
L 287.671403 50.238416 
L 288.260538 50.238416 
L 288.260538 49.47802 
L 288.488695 49.47802 
L 288.488695 48.717624 
L 289.481798 48.717624 
L 289.481798 47.957228 
L 290.82757 47.957228 
L 290.836022 46.436436 
L 291.705688 46.436436 
L 291.705688 45.67604 
L 296.127571 45.67604 
L 296.158473 44.155248 
L 296.346499 44.155248 
L 296.346499 43.394851 
L 298.490444 43.394851 
L 298.490444 42.634455 
L 299.650476 42.634455 
L 299.650476 41.874059 
L 300.624137 41.874059 
L 300.624137 41.113663 
L 302.115779 41.113663 
L 302.115779 40.353267 
L 302.257078 40.353267 
L 302.257078 39.592871 
L 303.40289 39.592871 
L 303.40289 38.832475 
L 304.05134 38.832475 
L 304.126041 37.311683 
L 304.607393 37.311683 
L 304.607393 36.551287 
L 304.838995 36.551287 
L 304.838995 35.790891 
L 305.011631 35.790891 
L 305.084999 34.270099 
L 305.507822 34.270099 
L 305.604165 32.749307 
L 305.753114 32.749307 
L 305.812946 31.228515 
L 305.910414 31.228515 
L 306.005243 28.947327 
L 306.403719 28.947327 
L 306.403719 28.186931 
L 306.789099 28.186931 
L 306.789099 27.426535 
L 308.835866 27.426535 
L 308.846448 25.905743 
L 309.007611 25.905743 
L 309.065997 24.38495 
L 309.560773 24.38495 
L 309.560773 23.624554 
L 310.293716 23.624554 
L 310.293716 22.864158 
L 310.915364 22.864158 
L 310.915364 22.103762 
L 311.57299 22.103762 
L 311.57299 21.343366 
L 339.175932 21.343366 
L 339.175932 20.58297 
L 343.502877 20.58297 
L 343.502877 19.822574 
L 344.05588 19.822574 
L 344.05588 19.062178 
L 345.091523 19.062178 
L 345.091523 18.301782 
L 345.382465 18.301782 
L 345.382465 17.541386 
L 346.145463 17.541386 
L 346.145463 16.78099 
L 346.285488 16.78099 
L 346.285488 16.020594 
L 346.996846 16.020594 
L 346.996846 15.260198 
L 347.362966 15.260198 
L 347.362966 14.499802 
L 347.876765 14.499802 
L 347.876765 13.739406 
L 348.396097 13.739406 
L 348.396097 12.97901 
L 349.651415 12.97901 
L 349.651415 12.218614 
L 349.854048 12.218614 
L 349.854048 11.458218 
L 350.969408 11.458218 
L 351.038329 9.937426 
L 351.038329 9.937426 
L 364.32 9.937426 
L 364.32 9.937426 
" style="fill:none;stroke:#00bfbf;stroke-linecap:square;"/>
   </g>
   <g id="patch_3">
    <path d="M 7.2 7.2 
L 364.32 7.2 
" style="fill:none;stroke:#000000;stroke-linecap:square;stroke-linejoin:miter;"/>
   </g>
   <g id="patch_4">
    <path d="M 364.32 283.68 
L 364.32 7.2 
" style="fill:none;stroke:#000000;stroke-linecap:square;stroke-linejoin:miter;"/>
   </g>
   <g id="patch_5">
    <path d="M 7.2 283.68 
L 364.32 283.68 
" style="fill:none;stroke:#000000;stroke-linecap:square;stroke-linejoin:miter;"/>
   </g>
   <g id="patch_6">
    <path d="M 7.2 283.68 
L 7.2 7.2 
" style="fill:none;stroke:#000000;stroke-linecap:square;stroke-linejoin:miter;"/>
   </g>
   <g id="matplotlib.axis_1">
    <g id="xtick_1">
     <g id="line2d_6">
      <path clip-path="url(#p87199b5b09)" d="M 49.133998 283.68 
L 49.133998 7.2 
" style="fill:none;stroke:#000000;stroke-dasharray:1.000000,3.000000;stroke-dashoffset:0.0;stroke-width:0.5;"/>
     </g>
     <g id="line2d_7">
      <defs>
       <path d="M 0 0 
L 0 -4 
" id="m3bf6c19bd0" style="stroke:#000000;stroke-width:0.5;"/>
      </defs>
      <g>
       <use style="stroke:#000000;stroke-width:0.5;" x="49.1339978514" xlink:href="#m3bf6c19bd0" y="283.68"/>
      </g>
     </g>
     <g id="line2d_8">
      <defs>
       <path d="M 0 0 
L 0 4 
" id="ma08745a673" style="stroke:#000000;stroke-width:0.5;"/>
      </defs>
      <g>
       <use style="stroke:#000000;stroke-width:0.5;" x="49.1339978514" xlink:href="#ma08745a673" y="7.2"/>
      </g>
     </g>
     <g id="text_1">
      <!-- -6 -->
      <defs>
       <path d="M 33.015625 40.375 
Q 26.375 40.375 22.484375 35.828125 
Q 18.609375 31.296875 18.609375 23.390625 
Q 18.609375 15.53125 22.484375 10.953125 
Q 26.375 6.390625 33.015625 6.390625 
Q 39.65625 6.390625 43.53125 10.953125 
Q 47.40625 15.53125 47.40625 23.390625 
Q 47.40625 31.296875 43.53125 35.828125 
Q 39.65625 40.375 33.015625 40.375 
M 52.59375 71.296875 
L 52.59375 62.3125 
Q 48.875 64.0625 45.09375 64.984375 
Q 41.3125 65.921875 37.59375 65.921875 
Q 27.828125 65.921875 22.671875 59.328125 
Q 17.53125 52.734375 16.796875 39.40625 
Q 19.671875 43.65625 24.015625 45.921875 
Q 28.375 48.1875 33.59375 48.1875 
Q 44.578125 48.1875 50.953125 41.515625 
Q 57.328125 34.859375 57.328125 23.390625 
Q 57.328125 12.15625 50.6875 5.359375 
Q 44.046875 -1.421875 33.015625 -1.421875 
Q 20.359375 -1.421875 13.671875 8.265625 
Q 6.984375 17.96875 6.984375 36.375 
Q 6.984375 53.65625 15.1875 63.9375 
Q 23.390625 74.21875 37.203125 74.21875 
Q 40.921875 74.21875 44.703125 73.484375 
Q 48.484375 72.75 52.59375 71.296875 
" id="BitstreamVeraSans-Roman-36"/>
       <path d="M 4.890625 31.390625 
L 31.203125 31.390625 
L 31.203125 23.390625 
L 4.890625 23.390625 
z
" id="BitstreamVeraSans-Roman-2d"/>
      </defs>
      <g transform="translate(39.1636853514 302.876875)scale(0.2 -0.2)">
       <use xlink:href="#BitstreamVeraSans-Roman-2d"/>
       <use x="36.083984375" xlink:href="#BitstreamVeraSans-Roman-36"/>
      </g>
     </g>
    </g>
    <g id="xtick_2">
     <g id="line2d_9">
      <path clip-path="url(#p87199b5b09)" d="M 91.158798 283.68 
L 91.158798 7.2 
" style="fill:none;stroke:#000000;stroke-dasharray:1.000000,3.000000;stroke-dashoffset:0.0;stroke-width:0.5;"/>
     </g>
     <g id="line2d_10">
      <g>
       <use style="stroke:#000000;stroke-width:0.5;" x="91.1587981379" xlink:href="#m3bf6c19bd0" y="283.68"/>
      </g>
     </g>
     <g id="line2d_11">
      <g>
       <use style="stroke:#000000;stroke-width:0.5;" x="91.1587981379" xlink:href="#ma08745a673" y="7.2"/>
      </g>
     </g>
     <g id="text_2">
      <!-- -4 -->
      <defs>
       <path d="M 37.796875 64.3125 
L 12.890625 25.390625 
L 37.796875 25.390625 
z
M 35.203125 72.90625 
L 47.609375 72.90625 
L 47.609375 25.390625 
L 58.015625 25.390625 
L 58.015625 17.1875 
L 47.609375 17.1875 
L 47.609375 0 
L 37.796875 0 
L 37.796875 17.1875 
L 4.890625 17.1875 
L 4.890625 26.703125 
z
" id="BitstreamVeraSans-Roman-34"/>
      </defs>
      <g transform="translate(81.1884856379 302.876875)scale(0.2 -0.2)">
       <use xlink:href="#BitstreamVeraSans-Roman-2d"/>
       <use x="36.083984375" xlink:href="#BitstreamVeraSans-Roman-34"/>
      </g>
     </g>
    </g>
    <g id="xtick_3">
     <g id="line2d_12">
      <path clip-path="url(#p87199b5b09)" d="M 133.183598 283.68 
L 133.183598 7.2 
" style="fill:none;stroke:#000000;stroke-dasharray:1.000000,3.000000;stroke-dashoffset:0.0;stroke-width:0.5;"/>
     </g>
     <g id="line2d_13">
      <g>
       <use style="stroke:#000000;stroke-width:0.5;" x="133.183598424" xlink:href="#m3bf6c19bd0" y="283.68"/>
      </g>
     </g>
     <g id="line2d_14">
      <g>
       <use style="stroke:#000000;stroke-width:0.5;" x="133.183598424" xlink:href="#ma08745a673" y="7.2"/>
      </g>
     </g>
     <g id="text_3">
      <!-- -2 -->
      <defs>
       <path d="M 19.1875 8.296875 
L 53.609375 8.296875 
L 53.609375 0 
L 7.328125 0 
L 7.328125 8.296875 
Q 12.9375 14.109375 22.625 23.890625 
Q 32.328125 33.6875 34.8125 36.53125 
Q 39.546875 41.84375 41.421875 45.53125 
Q 43.3125 49.21875 43.3125 52.78125 
Q 43.3125 58.59375 39.234375 62.25 
Q 35.15625 65.921875 28.609375 65.921875 
Q 23.96875 65.921875 18.8125 64.3125 
Q 13.671875 62.703125 7.8125 59.421875 
L 7.8125 69.390625 
Q 13.765625 71.78125 18.9375 73 
Q 24.125 74.21875 28.421875 74.21875 
Q 39.75 74.21875 46.484375 68.546875 
Q 53.21875 62.890625 53.21875 53.421875 
Q 53.21875 48.921875 51.53125 44.890625 
Q 49.859375 40.875 45.40625 35.40625 
Q 44.1875 33.984375 37.640625 27.21875 
Q 31.109375 20.453125 19.1875 8.296875 
" id="BitstreamVeraSans-Roman-32"/>
      </defs>
      <g transform="translate(123.213285924 302.876875)scale(0.2 -0.2)">
       <use xlink:href="#BitstreamVeraSans-Roman-2d"/>
       <use x="36.083984375" xlink:href="#BitstreamVeraSans-Roman-32"/>
      </g>
     </g>
    </g>
    <g id="xtick_4">
     <g id="line2d_15">
      <path clip-path="url(#p87199b5b09)" d="M 175.208399 283.68 
L 175.208399 7.2 
" style="fill:none;stroke:#000000;stroke-dasharray:1.000000,3.000000;stroke-dashoffset:0.0;stroke-width:0.5;"/>
     </g>
     <g id="line2d_16">
      <g>
       <use style="stroke:#000000;stroke-width:0.5;" x="175.208398711" xlink:href="#m3bf6c19bd0" y="283.68"/>
      </g>
     </g>
     <g id="line2d_17">
      <g>
       <use style="stroke:#000000;stroke-width:0.5;" x="175.208398711" xlink:href="#ma08745a673" y="7.2"/>
      </g>
     </g>
     <g id="text_4">
      <!-- 0 -->
      <defs>
       <path d="M 31.78125 66.40625 
Q 24.171875 66.40625 20.328125 58.90625 
Q 16.5 51.421875 16.5 36.375 
Q 16.5 21.390625 20.328125 13.890625 
Q 24.171875 6.390625 31.78125 6.390625 
Q 39.453125 6.390625 43.28125 13.890625 
Q 47.125 21.390625 47.125 36.375 
Q 47.125 51.421875 43.28125 58.90625 
Q 39.453125 66.40625 31.78125 66.40625 
M 31.78125 74.21875 
Q 44.046875 74.21875 50.515625 64.515625 
Q 56.984375 54.828125 56.984375 36.375 
Q 56.984375 17.96875 50.515625 8.265625 
Q 44.046875 -1.421875 31.78125 -1.421875 
Q 19.53125 -1.421875 13.0625 8.265625 
Q 6.59375 17.96875 6.59375 36.375 
Q 6.59375 54.828125 13.0625 64.515625 
Q 19.53125 74.21875 31.78125 74.21875 
" id="BitstreamVeraSans-Roman-30"/>
      </defs>
      <g transform="translate(168.845898711 302.876875)scale(0.2 -0.2)">
       <use xlink:href="#BitstreamVeraSans-Roman-30"/>
      </g>
     </g>
    </g>
    <g id="xtick_5">
     <g id="line2d_18">
      <path clip-path="url(#p87199b5b09)" d="M 217.233199 283.68 
L 217.233199 7.2 
" style="fill:none;stroke:#000000;stroke-dasharray:1.000000,3.000000;stroke-dashoffset:0.0;stroke-width:0.5;"/>
     </g>
     <g id="line2d_19">
      <g>
       <use style="stroke:#000000;stroke-width:0.5;" x="217.233198997" xlink:href="#m3bf6c19bd0" y="283.68"/>
      </g>
     </g>
     <g id="line2d_20">
      <g>
       <use style="stroke:#000000;stroke-width:0.5;" x="217.233198997" xlink:href="#ma08745a673" y="7.2"/>
      </g>
     </g>
     <g id="text_5">
      <!-- 2 -->
      <g transform="translate(210.870698997 302.876875)scale(0.2 -0.2)">
       <use xlink:href="#BitstreamVeraSans-Roman-32"/>
      </g>
     </g>
    </g>
    <g id="xtick_6">
     <g id="line2d_21">
      <path clip-path="url(#p87199b5b09)" d="M 259.257999 283.68 
L 259.257999 7.2 
" style="fill:none;stroke:#000000;stroke-dasharray:1.000000,3.000000;stroke-dashoffset:0.0;stroke-width:0.5;"/>
     </g>
     <g id="line2d_22">
      <g>
       <use style="stroke:#000000;stroke-width:0.5;" x="259.257999284" xlink:href="#m3bf6c19bd0" y="283.68"/>
      </g>
     </g>
     <g id="line2d_23">
      <g>
       <use style="stroke:#000000;stroke-width:0.5;" x="259.257999284" xlink:href="#ma08745a673" y="7.2"/>
      </g>
     </g>
     <g id="text_6">
      <!-- 4 -->
      <g transform="translate(252.895499284 302.876875)scale(0.2 -0.2)">
       <use xlink:href="#BitstreamVeraSans-Roman-34"/>
      </g>
     </g>
    </g>
    <g id="xtick_7">
     <g id="line2d_24">
      <path clip-path="url(#p87199b5b09)" d="M 301.2828 283.68 
L 301.2828 7.2 
" style="fill:none;stroke:#000000;stroke-dasharray:1.000000,3.000000;stroke-dashoffset:0.0;stroke-width:0.5;"/>
     </g>
     <g id="line2d_25">
      <g>
       <use style="stroke:#000000;stroke-width:0.5;" x="301.28279957" xlink:href="#m3bf6c19bd0" y="283.68"/>
      </g>
     </g>
     <g id="line2d_26">
      <g>
       <use style="stroke:#000000;stroke-width:0.5;" x="301.28279957" xlink:href="#ma08745a673" y="7.2"/>
      </g>
     </g>
     <g id="text_7">
      <!-- 6 -->
      <g transform="translate(294.92029957 302.876875)scale(0.2 -0.2)">
       <use xlink:href="#BitstreamVeraSans-Roman-36"/>
      </g>
     </g>
    </g>
    <g id="xtick_8">
     <g id="line2d_27">
      <path clip-path="url(#p87199b5b09)" d="M 343.3076 283.68 
L 343.3076 7.2 
" style="fill:none;stroke:#000000;stroke-dasharray:1.000000,3.000000;stroke-dashoffset:0.0;stroke-width:0.5;"/>
     </g>
     <g id="line2d_28">
      <g>
       <use style="stroke:#000000;stroke-width:0.5;" x="343.307599857" xlink:href="#m3bf6c19bd0" y="283.68"/>
      </g>
     </g>
     <g id="line2d_29">
      <g>
       <use style="stroke:#000000;stroke-width:0.5;" x="343.307599857" xlink:href="#ma08745a673" y="7.2"/>
      </g>
     </g>
     <g id="text_8">
      <!-- 8 -->
      <defs>
       <path d="M 31.78125 34.625 
Q 24.75 34.625 20.71875 30.859375 
Q 16.703125 27.09375 16.703125 20.515625 
Q 16.703125 13.921875 20.71875 10.15625 
Q 24.75 6.390625 31.78125 6.390625 
Q 38.8125 6.390625 42.859375 10.171875 
Q 46.921875 13.96875 46.921875 20.515625 
Q 46.921875 27.09375 42.890625 30.859375 
Q 38.875 34.625 31.78125 34.625 
M 21.921875 38.8125 
Q 15.578125 40.375 12.03125 44.71875 
Q 8.5 49.078125 8.5 55.328125 
Q 8.5 64.0625 14.71875 69.140625 
Q 20.953125 74.21875 31.78125 74.21875 
Q 42.671875 74.21875 48.875 69.140625 
Q 55.078125 64.0625 55.078125 55.328125 
Q 55.078125 49.078125 51.53125 44.71875 
Q 48 40.375 41.703125 38.8125 
Q 48.828125 37.15625 52.796875 32.3125 
Q 56.78125 27.484375 56.78125 20.515625 
Q 56.78125 9.90625 50.3125 4.234375 
Q 43.84375 -1.421875 31.78125 -1.421875 
Q 19.734375 -1.421875 13.25 4.234375 
Q 6.78125 9.90625 6.78125 20.515625 
Q 6.78125 27.484375 10.78125 32.3125 
Q 14.796875 37.15625 21.921875 38.8125 
M 18.3125 54.390625 
Q 18.3125 48.734375 21.84375 45.5625 
Q 25.390625 42.390625 31.78125 42.390625 
Q 38.140625 42.390625 41.71875 45.5625 
Q 45.3125 48.734375 45.3125 54.390625 
Q 45.3125 60.0625 41.71875 63.234375 
Q 38.140625 66.40625 31.78125 66.40625 
Q 25.390625 66.40625 21.84375 63.234375 
Q 18.3125 60.0625 18.3125 54.390625 
" id="BitstreamVeraSans-Roman-38"/>
      </defs>
      <g transform="translate(336.945099857 302.876875)scale(0.2 -0.2)">
       <use xlink:href="#BitstreamVeraSans-Roman-38"/>
      </g>
     </g>
    </g>
    <g id="xtick_9">
     <g id="line2d_30">
      <defs>
       <path d="M 0 0 
L 0 -2 
" id="mc7501455c5" style="stroke:#000000;stroke-width:0.5;"/>
      </defs>
      <g>
       <use style="stroke:#000000;stroke-width:0.5;" x="49.1339978514" xlink:href="#mc7501455c5" y="283.68"/>
      </g>
     </g>
     <g id="line2d_31">
      <defs>
       <path d="M 0 0 
L 0 2 
" id="mcd2b4f07d4" style="stroke:#000000;stroke-width:0.5;"/>
      </defs>
      <g>
       <use style="stroke:#000000;stroke-width:0.5;" x="49.1339978514" xlink:href="#mcd2b4f07d4" y="7.2"/>
      </g>
     </g>
    </g>
    <g id="xtick_10">
     <g id="line2d_32">
      <g>
       <use style="stroke:#000000;stroke-width:0.5;" x="91.1587981379" xlink:href="#mc7501455c5" y="283.68"/>
      </g>
     </g>
     <g id="line2d_33">
      <g>
       <use style="stroke:#000000;stroke-width:0.5;" x="91.1587981379" xlink:href="#mcd2b4f07d4" y="7.2"/>
      </g>
     </g>
    </g>
    <g id="xtick_11">
     <g id="line2d_34">
      <g>
       <use style="stroke:#000000;stroke-width:0.5;" x="133.183598424" xlink:href="#mc7501455c5" y="283.68"/>
      </g>
     </g>
     <g id="line2d_35">
      <g>
       <use style="stroke:#000000;stroke-width:0.5;" x="133.183598424" xlink:href="#mcd2b4f07d4" y="7.2"/>
      </g>
     </g>
    </g>
    <g id="xtick_12">
     <g id="line2d_36">
      <g>
       <use style="stroke:#000000;stroke-width:0.5;" x="175.208398711" xlink:href="#mc7501455c5" y="283.68"/>
      </g>
     </g>
     <g id="line2d_37">
      <g>
       <use style="stroke:#000000;stroke-width:0.5;" x="175.208398711" xlink:href="#mcd2b4f07d4" y="7.2"/>
      </g>
     </g>
    </g>
    <g id="xtick_13">
     <g id="line2d_38">
      <g>
       <use style="stroke:#000000;stroke-width:0.5;" x="217.233198997" xlink:href="#mc7501455c5" y="283.68"/>
      </g>
     </g>
     <g id="line2d_39">
      <g>
       <use style="stroke:#000000;stroke-width:0.5;" x="217.233198997" xlink:href="#mcd2b4f07d4" y="7.2"/>
      </g>
     </g>
    </g>
    <g id="xtick_14">
     <g id="line2d_40">
      <g>
       <use style="stroke:#000000;stroke-width:0.5;" x="259.257999284" xlink:href="#mc7501455c5" y="283.68"/>
      </g>
     </g>
     <g id="line2d_41">
      <g>
       <use style="stroke:#000000;stroke-width:0.5;" x="259.257999284" xlink:href="#mcd2b4f07d4" y="7.2"/>
      </g>
     </g>
    </g>
    <g id="xtick_15">
     <g id="line2d_42">
      <g>
       <use style="stroke:#000000;stroke-width:0.5;" x="301.28279957" xlink:href="#mc7501455c5" y="283.68"/>
      </g>
     </g>
     <g id="line2d_43">
      <g>
       <use style="stroke:#000000;stroke-width:0.5;" x="301.28279957" xlink:href="#mcd2b4f07d4" y="7.2"/>
      </g>
     </g>
    </g>
    <g id="xtick_16">
     <g id="line2d_44">
      <g>
       <use style="stroke:#000000;stroke-width:0.5;" x="343.307599857" xlink:href="#mc7501455c5" y="283.68"/>
      </g>
     </g>
     <g id="line2d_45">
      <g>
       <use style="stroke:#000000;stroke-width:0.5;" x="343.307599857" xlink:href="#mcd2b4f07d4" y="7.2"/>
      </g>
     </g>
    </g>
    <g id="text_9">
     <!-- log10 of Df -->
     <defs>
      <path id="BitstreamVeraSans-Roman-20"/>
      <path d="M 12.40625 8.296875 
L 28.515625 8.296875 
L 28.515625 63.921875 
L 10.984375 60.40625 
L 10.984375 69.390625 
L 28.421875 72.90625 
L 38.28125 72.90625 
L 38.28125 8.296875 
L 54.390625 8.296875 
L 54.390625 0 
L 12.40625 0 
z
" id="BitstreamVeraSans-Roman-31"/>
      <path d="M 30.609375 48.390625 
Q 23.390625 48.390625 19.1875 42.75 
Q 14.984375 37.109375 14.984375 27.296875 
Q 14.984375 17.484375 19.15625 11.84375 
Q 23.34375 6.203125 30.609375 6.203125 
Q 37.796875 6.203125 41.984375 11.859375 
Q 46.1875 17.53125 46.1875 27.296875 
Q 46.1875 37.015625 41.984375 42.703125 
Q 37.796875 48.390625 30.609375 48.390625 
M 30.609375 56 
Q 42.328125 56 49.015625 48.375 
Q 55.71875 40.765625 55.71875 27.296875 
Q 55.71875 13.875 49.015625 6.21875 
Q 42.328125 -1.421875 30.609375 -1.421875 
Q 18.84375 -1.421875 12.171875 6.21875 
Q 5.515625 13.875 5.515625 27.296875 
Q 5.515625 40.765625 12.171875 48.375 
Q 18.84375 56 30.609375 56 
" id="BitstreamVeraSans-Roman-6f"/>
      <path d="M 9.421875 75.984375 
L 18.40625 75.984375 
L 18.40625 0 
L 9.421875 0 
z
" id="BitstreamVeraSans-Roman-6c"/>
      <path d="M 19.671875 64.796875 
L 19.671875 8.109375 
L 31.59375 8.109375 
Q 46.6875 8.109375 53.6875 14.9375 
Q 60.6875 21.78125 60.6875 36.53125 
Q 60.6875 51.171875 53.6875 57.984375 
Q 46.6875 64.796875 31.59375 64.796875 
z
M 9.8125 72.90625 
L 30.078125 72.90625 
Q 51.265625 72.90625 61.171875 64.09375 
Q 71.09375 55.28125 71.09375 36.53125 
Q 71.09375 17.671875 61.125 8.828125 
Q 51.171875 0 30.078125 0 
L 9.8125 0 
z
" id="BitstreamVeraSans-Roman-44"/>
      <path d="M 45.40625 27.984375 
Q 45.40625 37.75 41.375 43.109375 
Q 37.359375 48.484375 30.078125 48.484375 
Q 22.859375 48.484375 18.828125 43.109375 
Q 14.796875 37.75 14.796875 27.984375 
Q 14.796875 18.265625 18.828125 12.890625 
Q 22.859375 7.515625 30.078125 7.515625 
Q 37.359375 7.515625 41.375 12.890625 
Q 45.40625 18.265625 45.40625 27.984375 
M 54.390625 6.78125 
Q 54.390625 -7.171875 48.1875 -13.984375 
Q 42 -20.796875 29.203125 -20.796875 
Q 24.46875 -20.796875 20.265625 -20.09375 
Q 16.0625 -19.390625 12.109375 -17.921875 
L 12.109375 -9.1875 
Q 16.0625 -11.328125 19.921875 -12.34375 
Q 23.78125 -13.375 27.78125 -13.375 
Q 36.625 -13.375 41.015625 -8.765625 
Q 45.40625 -4.15625 45.40625 5.171875 
L 45.40625 9.625 
Q 42.625 4.78125 38.28125 2.390625 
Q 33.9375 0 27.875 0 
Q 17.828125 0 11.671875 7.65625 
Q 5.515625 15.328125 5.515625 27.984375 
Q 5.515625 40.671875 11.671875 48.328125 
Q 17.828125 56 27.875 56 
Q 33.9375 56 38.28125 53.609375 
Q 42.625 51.21875 45.40625 46.390625 
L 45.40625 54.6875 
L 54.390625 54.6875 
z
" id="BitstreamVeraSans-Roman-67"/>
      <path d="M 37.109375 75.984375 
L 37.109375 68.5 
L 28.515625 68.5 
Q 23.6875 68.5 21.796875 66.546875 
Q 19.921875 64.59375 19.921875 59.515625 
L 19.921875 54.6875 
L 34.71875 54.6875 
L 34.71875 47.703125 
L 19.921875 47.703125 
L 19.921875 0 
L 10.890625 0 
L 10.890625 47.703125 
L 2.296875 47.703125 
L 2.296875 54.6875 
L 10.890625 54.6875 
L 10.890625 58.5 
Q 10.890625 67.625 15.140625 71.796875 
Q 19.390625 75.984375 28.609375 75.984375 
z
" id="BitstreamVeraSans-Roman-66"/>
     </defs>
     <g transform="translate(130.5740625 327.233125)scale(0.2 -0.2)">
      <use xlink:href="#BitstreamVeraSans-Roman-6c"/>
      <use x="27.783203125" xlink:href="#BitstreamVeraSans-Roman-6f"/>
      <use x="88.96484375" xlink:href="#BitstreamVeraSans-Roman-67"/>
      <use x="152.44140625" xlink:href="#BitstreamVeraSans-Roman-31"/>
      <use x="216.064453125" xlink:href="#BitstreamVeraSans-Roman-30"/>
      <use x="279.6875" xlink:href="#BitstreamVeraSans-Roman-20"/>
      <use x="311.474609375" xlink:href="#BitstreamVeraSans-Roman-6f"/>
      <use x="372.65625" xlink:href="#BitstreamVeraSans-Roman-66"/>
      <use x="407.861328125" xlink:href="#BitstreamVeraSans-Roman-20"/>
      <use x="439.6484375" xlink:href="#BitstreamVeraSans-Roman-44"/>
      <use x="516.650390625" xlink:href="#BitstreamVeraSans-Roman-66"/>
     </g>
    </g>
   </g>
   <g id="matplotlib.axis_2">
    <g id="ytick_1">
     <g id="line2d_46">
      <path clip-path="url(#p87199b5b09)" d="M 7.2 283.68 
L 364.32 283.68 
" style="fill:none;stroke:#000000;stroke-dasharray:1.000000,3.000000;stroke-dashoffset:0.0;stroke-width:0.5;"/>
     </g>
     <g id="line2d_47">
      <defs>
       <path d="M 0 0 
L 4 0 
" id="ma1797211c9" style="stroke:#000000;stroke-width:0.5;"/>
      </defs>
      <g>
       <use style="stroke:#000000;stroke-width:0.5;" x="7.2" xlink:href="#ma1797211c9" y="283.68"/>
      </g>
     </g>
     <g id="line2d_48">
      <defs>
       <path d="M 0 0 
L -4 0 
" id="m53fe1e3ed9" style="stroke:#000000;stroke-width:0.5;"/>
      </defs>
      <g>
       <use style="stroke:#000000;stroke-width:0.5;" x="364.32" xlink:href="#m53fe1e3ed9" y="283.68"/>
      </g>
     </g>
    </g>
    <g id="ytick_2">
     <g id="line2d_49">
      <path clip-path="url(#p87199b5b09)" d="M 7.2 228.931485 
L 364.32 228.931485 
" style="fill:none;stroke:#000000;stroke-dasharray:1.000000,3.000000;stroke-dashoffset:0.0;stroke-width:0.5;"/>
     </g>
     <g id="line2d_50">
      <g>
       <use style="stroke:#000000;stroke-width:0.5;" x="7.2" xlink:href="#ma1797211c9" y="228.931485149"/>
      </g>
     </g>
     <g id="line2d_51">
      <g>
       <use style="stroke:#000000;stroke-width:0.5;" x="364.32" xlink:href="#m53fe1e3ed9" y="228.931485149"/>
      </g>
     </g>
    </g>
    <g id="ytick_3">
     <g id="line2d_52">
      <path clip-path="url(#p87199b5b09)" d="M 7.2 174.18297 
L 364.32 174.18297 
" style="fill:none;stroke:#000000;stroke-dasharray:1.000000,3.000000;stroke-dashoffset:0.0;stroke-width:0.5;"/>
     </g>
     <g id="line2d_53">
      <g>
       <use style="stroke:#000000;stroke-width:0.5;" x="7.2" xlink:href="#ma1797211c9" y="174.182970297"/>
      </g>
     </g>
     <g id="line2d_54">
      <g>
       <use style="stroke:#000000;stroke-width:0.5;" x="364.32" xlink:href="#m53fe1e3ed9" y="174.182970297"/>
      </g>
     </g>
    </g>
    <g id="ytick_4">
     <g id="line2d_55">
      <path clip-path="url(#p87199b5b09)" d="M 7.2 119.434455 
L 364.32 119.434455 
" style="fill:none;stroke:#000000;stroke-dasharray:1.000000,3.000000;stroke-dashoffset:0.0;stroke-width:0.5;"/>
     </g>
     <g id="line2d_56">
      <g>
       <use style="stroke:#000000;stroke-width:0.5;" x="7.2" xlink:href="#ma1797211c9" y="119.434455446"/>
      </g>
     </g>
     <g id="line2d_57">
      <g>
       <use style="stroke:#000000;stroke-width:0.5;" x="364.32" xlink:href="#m53fe1e3ed9" y="119.434455446"/>
      </g>
     </g>
    </g>
    <g id="ytick_5">
     <g id="line2d_58">
      <path clip-path="url(#p87199b5b09)" d="M 7.2 64.685941 
L 364.32 64.685941 
" style="fill:none;stroke:#000000;stroke-dasharray:1.000000,3.000000;stroke-dashoffset:0.0;stroke-width:0.5;"/>
     </g>
     <g id="line2d_59">
      <g>
       <use style="stroke:#000000;stroke-width:0.5;" x="7.2" xlink:href="#ma1797211c9" y="64.6859405941"/>
      </g>
     </g>
     <g id="line2d_60">
      <g>
       <use style="stroke:#000000;stroke-width:0.5;" x="364.32" xlink:href="#m53fe1e3ed9" y="64.6859405941"/>
      </g>
     </g>
    </g>
    <g id="ytick_6">
     <g id="line2d_61">
      <path clip-path="url(#p87199b5b09)" d="M 7.2 9.937426 
L 364.32 9.937426 
" style="fill:none;stroke:#000000;stroke-dasharray:1.000000,3.000000;stroke-dashoffset:0.0;stroke-width:0.5;"/>
     </g>
     <g id="line2d_62">
      <g>
       <use style="stroke:#000000;stroke-width:0.5;" x="7.2" xlink:href="#ma1797211c9" y="9.93742574257"/>
      </g>
     </g>
     <g id="line2d_63">
      <g>
       <use style="stroke:#000000;stroke-width:0.5;" x="364.32" xlink:href="#m53fe1e3ed9" y="9.93742574257"/>
      </g>
     </g>
    </g>
   </g>
   <g id="text_10">
    <!-- f1-24,20-D -->
    <defs>
     <path d="M 11.71875 12.40625 
L 22.015625 12.40625 
L 22.015625 4 
L 14.015625 -11.625 
L 7.71875 -11.625 
L 11.71875 4 
z
" id="BitstreamVeraSans-Roman-2c"/>
    </defs>
    <g transform="translate(250.324475 278.1504)scale(0.2 -0.2)">
     <use xlink:href="#BitstreamVeraSans-Roman-66"/>
     <use x="35.205078125" xlink:href="#BitstreamVeraSans-Roman-31"/>
     <use x="98.828125" xlink:href="#BitstreamVeraSans-Roman-2d"/>
     <use x="134.912109375" xlink:href="#BitstreamVeraSans-Roman-32"/>
     <use x="198.53515625" xlink:href="#BitstreamVeraSans-Roman-34"/>
     <use x="262.158203125" xlink:href="#BitstreamVeraSans-Roman-2c"/>
     <use x="293.9453125" xlink:href="#BitstreamVeraSans-Roman-32"/>
     <use x="357.568359375" xlink:href="#BitstreamVeraSans-Roman-30"/>
     <use x="421.19140625" xlink:href="#BitstreamVeraSans-Roman-2d"/>
     <use x="457.275390625" xlink:href="#BitstreamVeraSans-Roman-44"/>
    </g>
   </g>
  </g>
 </g>
 <defs>
  <clipPath id="p87199b5b09">
   <rect height="276.48" width="357.12" x="7.2" y="7.2"/>
  </clipPath>
 </defs>
</svg>
