<?xml version="1.0" encoding="utf-8" standalone="no"?>
<!DOCTYPE svg PUBLIC "-//W3C//DTD SVG 1.1//EN"
  "http://www.w3.org/Graphics/SVG/1.1/DTD/svg11.dtd">
<!-- Created with matplotlib (http://matplotlib.org/) -->
<svg height="338pt" version="1.1" viewBox="0 0 371 338" width="371pt" xmlns="http://www.w3.org/2000/svg" xmlns:xlink="http://www.w3.org/1999/xlink">
 <defs>
  <style type="text/css">
*{stroke-linecap:butt;stroke-linejoin:round;stroke-miterlimit:100000;}
  </style>
 </defs>
 <g id="figure_1">
  <g id="patch_1">
   <path d="M 0 338.5925 
L 371.52 338.5925 
L 371.52 0 
L 0 0 
z
" style="fill:#ffffff;"/>
  </g>
  <g id="axes_1">
   <g id="patch_2">
    <path d="M 7.2 283.68 
L 364.32 283.68 
L 364.32 7.2 
L 7.2 7.2 
z
" style="fill:#ffffff;"/>
   </g>
   <g id="line2d_1">
    <path clip-path="url(#pd4ab68d496)" d="M 225.667216 283.68 
L 225.667216 279.117624 
L 228.005826 279.117624 
L 228.005826 274.555248 
L 228.074855 274.555248 
L 228.074855 269.992871 
L 228.324463 269.992871 
L 228.324463 265.430495 
L 228.888801 265.430495 
L 228.888801 260.868119 
L 229.533678 260.868119 
L 229.533678 256.305743 
L 229.555727 256.305743 
L 229.555727 251.743366 
L 229.911595 251.743366 
L 229.911595 247.18099 
L 230.404125 247.18099 
L 230.404125 242.618614 
L 230.634647 242.618614 
L 230.634647 238.056238 
L 230.960141 238.056238 
L 230.960141 233.493861 
L 231.191441 233.493861 
L 231.191441 228.931485 
L 232.266362 228.931485 
L 232.266362 224.369109 
L 232.355648 224.369109 
L 232.355648 219.806733 
L 233.321849 219.806733 
L 233.321849 215.244356 
L 267.676083 215.244356 
L 267.676083 210.68198 
L 269.519735 210.68198 
L 269.519735 206.119604 
L 271.568376 206.119604 
L 271.568376 201.557228 
L 272.741969 201.557228 
L 272.741969 196.994851 
L 273.085328 196.994851 
L 273.085328 192.432475 
L 273.202181 192.432475 
L 273.202181 187.870099 
L 273.248334 187.870099 
L 273.248334 183.307723 
L 273.267664 183.307723 
L 273.267664 178.745347 
L 273.371272 178.745347 
L 273.371272 174.18297 
L 273.546299 174.18297 
L 273.546299 169.620594 
L 273.598483 169.620594 
L 273.598483 165.058218 
L 273.737093 165.058218 
L 273.737093 160.495842 
L 274.32252 160.495842 
L 274.32252 155.933465 
L 274.670154 155.933465 
L 274.670154 151.371089 
L 274.970359 151.371089 
L 274.970359 146.808713 
L 275.33668 146.808713 
L 275.33668 142.246337 
L 276.307704 142.246337 
L 276.307704 137.68396 
L 276.311698 137.68396 
L 276.311698 133.121584 
L 276.820725 133.121584 
L 276.820725 128.559208 
L 276.847899 128.559208 
L 276.847899 123.996832 
L 276.869161 123.996832 
L 276.869161 119.434455 
L 276.96722 119.434455 
L 276.96722 114.872079 
L 277.105816 114.872079 
L 277.105816 110.309703 
L 277.161654 110.309703 
L 277.161654 105.747327 
L 277.520032 105.747327 
L 277.520032 101.18495 
L 278.336572 101.18495 
L 278.336572 96.622574 
L 278.959133 96.622574 
L 278.959133 92.060198 
L 279.250692 92.060198 
L 279.250692 87.497822 
L 279.49868 87.497822 
L 279.49868 82.935446 
L 279.720943 82.935446 
L 279.720943 78.373069 
L 279.812788 78.373069 
L 279.812788 73.810693 
L 279.976164 73.810693 
L 279.976164 69.248317 
L 280.758318 69.248317 
L 280.758318 64.685941 
L 280.935055 64.685941 
L 280.935055 60.123564 
L 281.035811 60.123564 
L 281.035811 55.561188 
L 281.706873 55.561188 
L 281.706873 50.998812 
L 282.396061 50.998812 
L 282.396061 46.436436 
L 282.767902 46.436436 
L 282.767902 41.874059 
L 282.949603 41.874059 
L 282.949603 37.311683 
L 285.269452 37.311683 
L 285.269452 32.749307 
L 288.133928 32.749307 
L 288.133928 28.186931 
L 288.260538 28.186931 
L 288.260538 23.624554 
L 290.367867 23.624554 
L 290.367867 19.062178 
L 290.582939 19.062178 
L 290.582939 14.499802 
L 290.89862 14.499802 
L 290.89862 9.937426 
L 290.89862 9.937426 
L 290.89862 9.937426 
L 364.32 9.937426 
" style="fill:none;stroke:#ff0000;stroke-linecap:square;stroke-width:3.0;"/>
   </g>
   <g id="line2d_2">
    <path clip-path="url(#pd4ab68d496)" d="M 230.190178 283.68 
L 230.190178 279.117624 
L 233.973567 279.117624 
L 233.973567 274.555248 
L 234.728056 274.555248 
L 234.728056 269.992871 
L 235.285793 269.992871 
L 235.285793 265.430495 
L 235.707254 265.430495 
L 235.707254 260.868119 
L 236.569426 260.868119 
L 236.569426 256.305743 
L 236.99736 256.305743 
L 236.99736 251.743366 
L 237.083563 251.743366 
L 237.083563 247.18099 
L 238.964036 247.18099 
L 238.964036 242.618614 
L 240.94639 242.618614 
L 240.94639 238.056238 
L 241.02094 238.056238 
L 241.02094 233.493861 
L 241.12585 233.493861 
L 241.12585 228.931485 
L 241.467237 228.931485 
L 241.467237 224.369109 
L 242.892243 224.369109 
L 242.892243 219.806733 
L 242.933747 219.806733 
L 242.933747 215.244356 
L 280.23632 215.244356 
L 280.23632 210.68198 
L 281.946506 210.68198 
L 281.946506 206.119604 
L 282.949148 206.119604 
L 282.949148 201.557228 
L 283.080192 201.557228 
L 283.080192 196.994851 
L 283.384705 196.994851 
L 283.384705 192.432475 
L 284.10917 192.432475 
L 284.10917 187.870099 
L 284.976503 187.870099 
L 284.976503 183.307723 
L 286.010212 183.307723 
L 286.010212 178.745347 
L 286.079289 178.745347 
L 286.079289 174.18297 
L 286.446436 174.18297 
L 286.446436 169.620594 
L 286.538298 169.620594 
L 286.538298 165.058218 
L 286.649417 165.058218 
L 286.649417 160.495842 
L 286.662184 160.495842 
L 286.662184 155.933465 
L 287.089176 155.933465 
L 287.089176 151.371089 
L 287.250291 151.371089 
L 287.250291 146.808713 
L 287.366888 146.808713 
L 287.366888 142.246337 
L 287.427368 142.246337 
L 287.427368 137.68396 
L 287.687877 137.68396 
L 287.687877 133.121584 
L 287.812022 133.121584 
L 287.812022 128.559208 
L 288.331962 128.559208 
L 288.331962 123.996832 
L 288.821166 123.996832 
L 288.821166 119.434455 
L 288.829951 119.434455 
L 288.829951 114.872079 
L 288.853467 114.872079 
L 288.853467 110.309703 
L 289.885135 110.309703 
L 289.885135 105.747327 
L 290.303256 105.747327 
L 290.303256 101.18495 
L 290.543732 101.18495 
L 290.543732 96.622574 
L 290.840673 96.622574 
L 290.840673 92.060198 
L 290.929951 92.060198 
L 290.929951 87.497822 
L 291.065756 87.497822 
L 291.065756 82.935446 
L 291.148347 82.935446 
L 291.148347 78.373069 
L 291.27659 78.373069 
L 291.27659 73.810693 
L 291.291076 73.810693 
L 291.291076 69.248317 
L 292.028882 69.248317 
L 292.028882 64.685941 
L 293.086193 64.685941 
L 293.086193 60.123564 
L 294.066772 60.123564 
L 294.066772 55.561188 
L 294.333785 55.561188 
L 294.333785 50.998812 
L 294.621613 50.998812 
L 294.621613 46.436436 
L 295.046403 46.436436 
L 295.046403 41.874059 
L 295.277148 41.874059 
L 295.277148 37.311683 
L 296.057621 37.311683 
L 296.057621 32.749307 
L 296.157246 32.749307 
L 296.157246 28.186931 
L 296.379898 28.186931 
L 296.379898 23.624554 
L 301.525415 23.624554 
L 301.525415 19.062178 
L 302.057022 19.062178 
L 302.057022 14.499802 
L 302.815353 14.499802 
L 302.815353 9.937426 
L 302.815353 9.937426 
L 302.815353 9.937426 
L 364.32 9.937426 
" style="fill:none;stroke:#00bfbf;stroke-linecap:square;"/>
   </g>
   <g id="line2d_3">
    <path clip-path="url(#pd4ab68d496)" d="M 230.190178 283.68 
L 230.190178 279.117624 
L 233.973567 279.117624 
L 233.973567 274.555248 
L 234.728056 274.555248 
L 234.728056 269.992871 
L 235.236017 269.992871 
L 235.236017 265.430495 
L 235.285793 265.430495 
L 235.285793 260.868119 
L 235.503025 260.868119 
L 235.503025 256.305743 
L 235.707254 256.305743 
L 235.707254 251.743366 
L 235.869398 251.743366 
L 235.869398 247.18099 
L 236.569426 247.18099 
L 236.569426 242.618614 
L 236.79304 242.618614 
L 236.79304 238.056238 
L 236.99736 238.056238 
L 236.99736 233.493861 
L 237.083563 233.493861 
L 237.083563 228.931485 
L 237.847284 228.931485 
L 237.847284 224.369109 
L 239.681087 224.369109 
L 239.681087 219.806733 
L 242.933747 219.806733 
L 242.933747 215.244356 
L 275.946019 215.244356 
L 275.946019 210.68198 
L 276.977761 210.68198 
L 276.977761 206.119604 
L 279.773216 206.119604 
L 279.773216 201.557228 
L 280.23632 201.557228 
L 280.23632 196.994851 
L 280.433615 196.994851 
L 280.433615 192.432475 
L 281.242309 192.432475 
L 281.242309 187.870099 
L 281.946506 187.870099 
L 281.946506 183.307723 
L 282.302453 183.307723 
L 282.302453 178.745347 
L 282.65198 178.745347 
L 282.65198 174.18297 
L 282.809214 174.18297 
L 282.809214 169.620594 
L 282.949148 169.620594 
L 282.949148 165.058218 
L 283.384705 165.058218 
L 283.384705 160.495842 
L 284.10917 160.495842 
L 284.10917 155.933465 
L 284.601509 155.933465 
L 284.601509 151.371089 
L 284.67805 151.371089 
L 284.67805 146.808713 
L 285.049171 146.808713 
L 285.049171 142.246337 
L 286.361755 142.246337 
L 286.361755 137.68396 
L 286.446436 137.68396 
L 286.446436 133.121584 
L 286.538298 133.121584 
L 286.538298 128.559208 
L 287.089176 128.559208 
L 287.089176 123.996832 
L 287.107113 123.996832 
L 287.107113 119.434455 
L 287.687877 119.434455 
L 287.687877 114.872079 
L 287.715867 114.872079 
L 287.715867 110.309703 
L 287.908929 110.309703 
L 287.908929 105.747327 
L 288.02984 105.747327 
L 288.02984 101.18495 
L 288.591029 101.18495 
L 288.591029 96.622574 
L 288.853467 96.622574 
L 288.853467 92.060198 
L 289.885135 92.060198 
L 289.885135 87.497822 
L 290.011845 87.497822 
L 290.011845 82.935446 
L 290.303256 82.935446 
L 290.303256 78.373069 
L 290.543732 78.373069 
L 290.543732 73.810693 
L 290.840673 73.810693 
L 290.840673 69.248317 
L 291.148347 69.248317 
L 291.148347 64.685941 
L 291.291076 64.685941 
L 291.291076 60.123564 
L 291.639936 60.123564 
L 291.639936 55.561188 
L 291.767823 55.561188 
L 291.767823 50.998812 
L 292.028882 50.998812 
L 292.028882 46.436436 
L 294.066772 46.436436 
L 294.066772 41.874059 
L 294.252238 41.874059 
L 294.252238 37.311683 
L 294.425652 37.311683 
L 294.425652 32.749307 
L 295.046403 32.749307 
L 295.046403 28.186931 
L 295.277148 28.186931 
L 295.277148 23.624554 
L 296.312492 23.624554 
L 296.312492 19.062178 
L 301.525415 19.062178 
L 301.525415 14.499802 
L 302.057022 14.499802 
L 302.057022 9.937426 
L 302.057022 9.937426 
L 302.057022 9.937426 
L 364.32 9.937426 
" style="fill:none;stroke:#bf00bf;stroke-linecap:square;"/>
   </g>
   <g id="line2d_4">
    <path clip-path="url(#pd4ab68d496)" d="M 230.190178 283.68 
L 230.190178 279.117624 
L 233.574205 279.117624 
L 233.574205 274.555248 
L 233.866908 274.555248 
L 233.866908 269.992871 
L 233.973567 269.992871 
L 233.973567 265.430495 
L 234.111002 265.430495 
L 234.111002 260.868119 
L 234.591698 260.868119 
L 234.591698 256.305743 
L 235.059038 256.305743 
L 235.059038 251.743366 
L 235.285793 251.743366 
L 235.285793 247.18099 
L 235.503025 247.18099 
L 235.503025 242.618614 
L 235.707254 242.618614 
L 235.707254 238.056238 
L 235.813912 238.056238 
L 235.813912 233.493861 
L 236.556896 233.493861 
L 236.556896 228.931485 
L 236.983023 228.931485 
L 236.983023 224.369109 
L 237.847284 224.369109 
L 237.847284 219.806733 
L 241.414704 219.806733 
L 241.414704 215.244356 
L 273.085328 215.244356 
L 273.085328 210.68198 
L 274.670154 210.68198 
L 274.670154 206.119604 
L 275.884852 206.119604 
L 275.884852 201.557228 
L 275.946019 201.557228 
L 275.946019 196.994851 
L 276.977761 196.994851 
L 276.977761 192.432475 
L 277.832423 192.432475 
L 277.832423 187.870099 
L 278.587808 187.870099 
L 278.587808 183.307723 
L 280.433615 183.307723 
L 280.433615 178.745347 
L 280.577463 178.745347 
L 280.577463 174.18297 
L 280.750163 174.18297 
L 280.750163 169.620594 
L 280.935055 169.620594 
L 280.935055 165.058218 
L 281.035811 165.058218 
L 281.035811 160.495842 
L 281.229676 160.495842 
L 281.229676 155.933465 
L 281.242309 155.933465 
L 281.242309 151.371089 
L 281.620953 151.371089 
L 281.620953 146.808713 
L 281.647447 146.808713 
L 281.647447 142.246337 
L 281.946506 142.246337 
L 281.946506 137.68396 
L 282.302453 137.68396 
L 282.302453 133.121584 
L 282.687008 133.121584 
L 282.687008 128.559208 
L 283.90361 128.559208 
L 283.90361 123.996832 
L 283.936082 123.996832 
L 283.936082 119.434455 
L 284.10917 119.434455 
L 284.10917 114.872079 
L 284.354776 114.872079 
L 284.354776 110.309703 
L 284.387838 110.309703 
L 284.387838 105.747327 
L 286.361755 105.747327 
L 286.361755 101.18495 
L 286.538298 101.18495 
L 286.538298 96.622574 
L 287.321003 96.622574 
L 287.321003 92.060198 
L 287.671403 92.060198 
L 287.671403 87.497822 
L 287.755764 87.497822 
L 287.755764 82.935446 
L 287.908929 82.935446 
L 287.908929 78.373069 
L 288.02984 78.373069 
L 288.02984 73.810693 
L 288.853467 73.810693 
L 288.853467 69.248317 
L 289.976308 69.248317 
L 289.976308 64.685941 
L 290.011845 64.685941 
L 290.011845 60.123564 
L 290.303256 60.123564 
L 290.303256 55.561188 
L 290.543732 55.561188 
L 290.543732 50.998812 
L 290.82757 50.998812 
L 290.82757 46.436436 
L 290.840673 46.436436 
L 290.840673 41.874059 
L 291.341549 41.874059 
L 291.341549 37.311683 
L 291.523759 37.311683 
L 291.523759 32.749307 
L 291.705688 32.749307 
L 291.705688 28.186931 
L 292.028882 28.186931 
L 292.028882 23.624554 
L 294.275137 23.624554 
L 294.275137 19.062178 
L 296.7056 19.062178 
L 296.7056 14.499802 
L 296.884804 14.499802 
L 296.884804 9.937426 
L 296.884804 9.937426 
L 296.884804 9.937426 
L 364.32 9.937426 
" style="fill:none;stroke:#000000;stroke-linecap:square;"/>
   </g>
   <g id="line2d_5">
    <path clip-path="url(#pd4ab68d496)" d="M 230.190178 283.68 
L 230.190178 279.117624 
L 230.243402 279.117624 
L 230.243402 274.555248 
L 231.204534 274.555248 
L 231.204534 269.992871 
L 232.350835 269.992871 
L 232.350835 265.430495 
L 232.396533 265.430495 
L 232.396533 260.868119 
L 233.154433 260.868119 
L 233.154433 256.305743 
L 233.574205 256.305743 
L 233.574205 251.743366 
L 233.866908 251.743366 
L 233.866908 247.18099 
L 233.939413 247.18099 
L 233.939413 242.618614 
L 235.100839 242.618614 
L 235.100839 238.056238 
L 235.133467 238.056238 
L 235.133467 233.493861 
L 235.426553 233.493861 
L 235.426553 228.931485 
L 235.707254 228.931485 
L 235.707254 224.369109 
L 235.813912 224.369109 
L 235.813912 219.806733 
L 238.305347 219.806733 
L 238.305347 215.244356 
L 267.676083 215.244356 
L 267.676083 210.68198 
L 273.085328 210.68198 
L 273.085328 206.119604 
L 273.267664 206.119604 
L 273.267664 201.557228 
L 274.670154 201.557228 
L 274.670154 196.994851 
L 275.694292 196.994851 
L 275.694292 192.432475 
L 275.884852 192.432475 
L 275.884852 187.870099 
L 275.946019 187.870099 
L 275.946019 183.307723 
L 276.647819 183.307723 
L 276.647819 178.745347 
L 276.847899 178.745347 
L 276.847899 174.18297 
L 276.977761 174.18297 
L 276.977761 169.620594 
L 277.832423 169.620594 
L 277.832423 165.058218 
L 278.587808 165.058218 
L 278.587808 160.495842 
L 278.635787 160.495842 
L 278.635787 155.933465 
L 279.176662 155.933465 
L 279.176662 151.371089 
L 279.250692 151.371089 
L 279.250692 146.808713 
L 279.621739 146.808713 
L 279.621739 142.246337 
L 279.812788 142.246337 
L 279.812788 137.68396 
L 279.976164 137.68396 
L 279.976164 133.121584 
L 279.990382 133.121584 
L 279.990382 128.559208 
L 280.19595 128.559208 
L 280.19595 123.996832 
L 280.543372 123.996832 
L 280.543372 119.434455 
L 280.64545 119.434455 
L 280.64545 114.872079 
L 280.935055 114.872079 
L 280.935055 110.309703 
L 281.035811 110.309703 
L 281.035811 105.747327 
L 281.242309 105.747327 
L 281.242309 101.18495 
L 281.671049 101.18495 
L 281.671049 96.622574 
L 281.870467 96.622574 
L 281.870467 92.060198 
L 282.869356 92.060198 
L 282.869356 87.497822 
L 282.994837 87.497822 
L 282.994837 82.935446 
L 283.416549 82.935446 
L 283.416549 78.373069 
L 284.307455 78.373069 
L 284.307455 73.810693 
L 284.509846 73.810693 
L 284.509846 69.248317 
L 286.785961 69.248317 
L 286.785961 64.685941 
L 286.93602 64.685941 
L 286.93602 60.123564 
L 287.329858 60.123564 
L 287.329858 55.561188 
L 287.646742 55.561188 
L 287.646742 50.998812 
L 287.671403 50.998812 
L 287.671403 46.436436 
L 288.260538 46.436436 
L 288.260538 41.874059 
L 288.488695 41.874059 
L 288.488695 37.311683 
L 289.481798 37.311683 
L 289.481798 32.749307 
L 290.82757 32.749307 
L 290.82757 28.186931 
L 290.836022 28.186931 
L 290.836022 23.624554 
L 291.705688 23.624554 
L 291.705688 19.062178 
L 296.127571 19.062178 
L 296.127571 14.499802 
L 296.346499 14.499802 
L 296.346499 9.937426 
L 296.346499 9.937426 
L 296.346499 9.937426 
L 364.32 9.937426 
" style="fill:none;stroke:#00bfbf;stroke-linecap:square;"/>
   </g>
   <g id="patch_3">
    <path d="M 7.2 7.2 
L 364.32 7.2 
" style="fill:none;stroke:#000000;stroke-linecap:square;stroke-linejoin:miter;"/>
   </g>
   <g id="patch_4">
    <path d="M 364.32 283.68 
L 364.32 7.2 
" style="fill:none;stroke:#000000;stroke-linecap:square;stroke-linejoin:miter;"/>
   </g>
   <g id="patch_5">
    <path d="M 7.2 283.68 
L 364.32 283.68 
" style="fill:none;stroke:#000000;stroke-linecap:square;stroke-linejoin:miter;"/>
   </g>
   <g id="patch_6">
    <path d="M 7.2 283.68 
L 7.2 7.2 
" style="fill:none;stroke:#000000;stroke-linecap:square;stroke-linejoin:miter;"/>
   </g>
   <g id="matplotlib.axis_1">
    <g id="xtick_1">
     <g id="line2d_6">
      <path clip-path="url(#pd4ab68d496)" d="M 49.133998 283.68 
L 49.133998 7.2 
" style="fill:none;stroke:#000000;stroke-dasharray:1.000000,3.000000;stroke-dashoffset:0.0;stroke-width:0.5;"/>
     </g>
     <g id="line2d_7">
      <defs>
       <path d="M 0 0 
L 0 -4 
" id="m7376936c8a" style="stroke:#000000;stroke-width:0.5;"/>
      </defs>
      <g>
       <use style="stroke:#000000;stroke-width:0.5;" x="49.1339978514" xlink:href="#m7376936c8a" y="283.68"/>
      </g>
     </g>
     <g id="line2d_8">
      <defs>
       <path d="M 0 0 
L 0 4 
" id="m9ad91f0ed6" style="stroke:#000000;stroke-width:0.5;"/>
      </defs>
      <g>
       <use style="stroke:#000000;stroke-width:0.5;" x="49.1339978514" xlink:href="#m9ad91f0ed6" y="7.2"/>
      </g>
     </g>
     <g id="text_1">
      <!-- -6 -->
      <defs>
       <path d="M 33.015625 40.375 
Q 26.375 40.375 22.484375 35.828125 
Q 18.609375 31.296875 18.609375 23.390625 
Q 18.609375 15.53125 22.484375 10.953125 
Q 26.375 6.390625 33.015625 6.390625 
Q 39.65625 6.390625 43.53125 10.953125 
Q 47.40625 15.53125 47.40625 23.390625 
Q 47.40625 31.296875 43.53125 35.828125 
Q 39.65625 40.375 33.015625 40.375 
M 52.59375 71.296875 
L 52.59375 62.3125 
Q 48.875 64.0625 45.09375 64.984375 
Q 41.3125 65.921875 37.59375 65.921875 
Q 27.828125 65.921875 22.671875 59.328125 
Q 17.53125 52.734375 16.796875 39.40625 
Q 19.671875 43.65625 24.015625 45.921875 
Q 28.375 48.1875 33.59375 48.1875 
Q 44.578125 48.1875 50.953125 41.515625 
Q 57.328125 34.859375 57.328125 23.390625 
Q 57.328125 12.15625 50.6875 5.359375 
Q 44.046875 -1.421875 33.015625 -1.421875 
Q 20.359375 -1.421875 13.671875 8.265625 
Q 6.984375 17.96875 6.984375 36.375 
Q 6.984375 53.65625 15.1875 63.9375 
Q 23.390625 74.21875 37.203125 74.21875 
Q 40.921875 74.21875 44.703125 73.484375 
Q 48.484375 72.75 52.59375 71.296875 
" id="BitstreamVeraSans-Roman-36"/>
       <path d="M 4.890625 31.390625 
L 31.203125 31.390625 
L 31.203125 23.390625 
L 4.890625 23.390625 
z
" id="BitstreamVeraSans-Roman-2d"/>
      </defs>
      <g transform="translate(39.1636853514 302.876875)scale(0.2 -0.2)">
       <use xlink:href="#BitstreamVeraSans-Roman-2d"/>
       <use x="36.083984375" xlink:href="#BitstreamVeraSans-Roman-36"/>
      </g>
     </g>
    </g>
    <g id="xtick_2">
     <g id="line2d_9">
      <path clip-path="url(#pd4ab68d496)" d="M 91.158798 283.68 
L 91.158798 7.2 
" style="fill:none;stroke:#000000;stroke-dasharray:1.000000,3.000000;stroke-dashoffset:0.0;stroke-width:0.5;"/>
     </g>
     <g id="line2d_10">
      <g>
       <use style="stroke:#000000;stroke-width:0.5;" x="91.1587981379" xlink:href="#m7376936c8a" y="283.68"/>
      </g>
     </g>
     <g id="line2d_11">
      <g>
       <use style="stroke:#000000;stroke-width:0.5;" x="91.1587981379" xlink:href="#m9ad91f0ed6" y="7.2"/>
      </g>
     </g>
     <g id="text_2">
      <!-- -4 -->
      <defs>
       <path d="M 37.796875 64.3125 
L 12.890625 25.390625 
L 37.796875 25.390625 
z
M 35.203125 72.90625 
L 47.609375 72.90625 
L 47.609375 25.390625 
L 58.015625 25.390625 
L 58.015625 17.1875 
L 47.609375 17.1875 
L 47.609375 0 
L 37.796875 0 
L 37.796875 17.1875 
L 4.890625 17.1875 
L 4.890625 26.703125 
z
" id="BitstreamVeraSans-Roman-34"/>
      </defs>
      <g transform="translate(81.1884856379 302.876875)scale(0.2 -0.2)">
       <use xlink:href="#BitstreamVeraSans-Roman-2d"/>
       <use x="36.083984375" xlink:href="#BitstreamVeraSans-Roman-34"/>
      </g>
     </g>
    </g>
    <g id="xtick_3">
     <g id="line2d_12">
      <path clip-path="url(#pd4ab68d496)" d="M 133.183598 283.68 
L 133.183598 7.2 
" style="fill:none;stroke:#000000;stroke-dasharray:1.000000,3.000000;stroke-dashoffset:0.0;stroke-width:0.5;"/>
     </g>
     <g id="line2d_13">
      <g>
       <use style="stroke:#000000;stroke-width:0.5;" x="133.183598424" xlink:href="#m7376936c8a" y="283.68"/>
      </g>
     </g>
     <g id="line2d_14">
      <g>
       <use style="stroke:#000000;stroke-width:0.5;" x="133.183598424" xlink:href="#m9ad91f0ed6" y="7.2"/>
      </g>
     </g>
     <g id="text_3">
      <!-- -2 -->
      <defs>
       <path d="M 19.1875 8.296875 
L 53.609375 8.296875 
L 53.609375 0 
L 7.328125 0 
L 7.328125 8.296875 
Q 12.9375 14.109375 22.625 23.890625 
Q 32.328125 33.6875 34.8125 36.53125 
Q 39.546875 41.84375 41.421875 45.53125 
Q 43.3125 49.21875 43.3125 52.78125 
Q 43.3125 58.59375 39.234375 62.25 
Q 35.15625 65.921875 28.609375 65.921875 
Q 23.96875 65.921875 18.8125 64.3125 
Q 13.671875 62.703125 7.8125 59.421875 
L 7.8125 69.390625 
Q 13.765625 71.78125 18.9375 73 
Q 24.125 74.21875 28.421875 74.21875 
Q 39.75 74.21875 46.484375 68.546875 
Q 53.21875 62.890625 53.21875 53.421875 
Q 53.21875 48.921875 51.53125 44.890625 
Q 49.859375 40.875 45.40625 35.40625 
Q 44.1875 33.984375 37.640625 27.21875 
Q 31.109375 20.453125 19.1875 8.296875 
" id="BitstreamVeraSans-Roman-32"/>
      </defs>
      <g transform="translate(123.213285924 302.876875)scale(0.2 -0.2)">
       <use xlink:href="#BitstreamVeraSans-Roman-2d"/>
       <use x="36.083984375" xlink:href="#BitstreamVeraSans-Roman-32"/>
      </g>
     </g>
    </g>
    <g id="xtick_4">
     <g id="line2d_15">
      <path clip-path="url(#pd4ab68d496)" d="M 175.208399 283.68 
L 175.208399 7.2 
" style="fill:none;stroke:#000000;stroke-dasharray:1.000000,3.000000;stroke-dashoffset:0.0;stroke-width:0.5;"/>
     </g>
     <g id="line2d_16">
      <g>
       <use style="stroke:#000000;stroke-width:0.5;" x="175.208398711" xlink:href="#m7376936c8a" y="283.68"/>
      </g>
     </g>
     <g id="line2d_17">
      <g>
       <use style="stroke:#000000;stroke-width:0.5;" x="175.208398711" xlink:href="#m9ad91f0ed6" y="7.2"/>
      </g>
     </g>
     <g id="text_4">
      <!-- 0 -->
      <defs>
       <path d="M 31.78125 66.40625 
Q 24.171875 66.40625 20.328125 58.90625 
Q 16.5 51.421875 16.5 36.375 
Q 16.5 21.390625 20.328125 13.890625 
Q 24.171875 6.390625 31.78125 6.390625 
Q 39.453125 6.390625 43.28125 13.890625 
Q 47.125 21.390625 47.125 36.375 
Q 47.125 51.421875 43.28125 58.90625 
Q 39.453125 66.40625 31.78125 66.40625 
M 31.78125 74.21875 
Q 44.046875 74.21875 50.515625 64.515625 
Q 56.984375 54.828125 56.984375 36.375 
Q 56.984375 17.96875 50.515625 8.265625 
Q 44.046875 -1.421875 31.78125 -1.421875 
Q 19.53125 -1.421875 13.0625 8.265625 
Q 6.59375 17.96875 6.59375 36.375 
Q 6.59375 54.828125 13.0625 64.515625 
Q 19.53125 74.21875 31.78125 74.21875 
" id="BitstreamVeraSans-Roman-30"/>
      </defs>
      <g transform="translate(168.845898711 302.876875)scale(0.2 -0.2)">
       <use xlink:href="#BitstreamVeraSans-Roman-30"/>
      </g>
     </g>
    </g>
    <g id="xtick_5">
     <g id="line2d_18">
      <path clip-path="url(#pd4ab68d496)" d="M 217.233199 283.68 
L 217.233199 7.2 
" style="fill:none;stroke:#000000;stroke-dasharray:1.000000,3.000000;stroke-dashoffset:0.0;stroke-width:0.5;"/>
     </g>
     <g id="line2d_19">
      <g>
       <use style="stroke:#000000;stroke-width:0.5;" x="217.233198997" xlink:href="#m7376936c8a" y="283.68"/>
      </g>
     </g>
     <g id="line2d_20">
      <g>
       <use style="stroke:#000000;stroke-width:0.5;" x="217.233198997" xlink:href="#m9ad91f0ed6" y="7.2"/>
      </g>
     </g>
     <g id="text_5">
      <!-- 2 -->
      <g transform="translate(210.870698997 302.876875)scale(0.2 -0.2)">
       <use xlink:href="#BitstreamVeraSans-Roman-32"/>
      </g>
     </g>
    </g>
    <g id="xtick_6">
     <g id="line2d_21">
      <path clip-path="url(#pd4ab68d496)" d="M 259.257999 283.68 
L 259.257999 7.2 
" style="fill:none;stroke:#000000;stroke-dasharray:1.000000,3.000000;stroke-dashoffset:0.0;stroke-width:0.5;"/>
     </g>
     <g id="line2d_22">
      <g>
       <use style="stroke:#000000;stroke-width:0.5;" x="259.257999284" xlink:href="#m7376936c8a" y="283.68"/>
      </g>
     </g>
     <g id="line2d_23">
      <g>
       <use style="stroke:#000000;stroke-width:0.5;" x="259.257999284" xlink:href="#m9ad91f0ed6" y="7.2"/>
      </g>
     </g>
     <g id="text_6">
      <!-- 4 -->
      <g transform="translate(252.895499284 302.876875)scale(0.2 -0.2)">
       <use xlink:href="#BitstreamVeraSans-Roman-34"/>
      </g>
     </g>
    </g>
    <g id="xtick_7">
     <g id="line2d_24">
      <path clip-path="url(#pd4ab68d496)" d="M 301.2828 283.68 
L 301.2828 7.2 
" style="fill:none;stroke:#000000;stroke-dasharray:1.000000,3.000000;stroke-dashoffset:0.0;stroke-width:0.5;"/>
     </g>
     <g id="line2d_25">
      <g>
       <use style="stroke:#000000;stroke-width:0.5;" x="301.28279957" xlink:href="#m7376936c8a" y="283.68"/>
      </g>
     </g>
     <g id="line2d_26">
      <g>
       <use style="stroke:#000000;stroke-width:0.5;" x="301.28279957" xlink:href="#m9ad91f0ed6" y="7.2"/>
      </g>
     </g>
     <g id="text_7">
      <!-- 6 -->
      <g transform="translate(294.92029957 302.876875)scale(0.2 -0.2)">
       <use xlink:href="#BitstreamVeraSans-Roman-36"/>
      </g>
     </g>
    </g>
    <g id="xtick_8">
     <g id="line2d_27">
      <path clip-path="url(#pd4ab68d496)" d="M 343.3076 283.68 
L 343.3076 7.2 
" style="fill:none;stroke:#000000;stroke-dasharray:1.000000,3.000000;stroke-dashoffset:0.0;stroke-width:0.5;"/>
     </g>
     <g id="line2d_28">
      <g>
       <use style="stroke:#000000;stroke-width:0.5;" x="343.307599857" xlink:href="#m7376936c8a" y="283.68"/>
      </g>
     </g>
     <g id="line2d_29">
      <g>
       <use style="stroke:#000000;stroke-width:0.5;" x="343.307599857" xlink:href="#m9ad91f0ed6" y="7.2"/>
      </g>
     </g>
     <g id="text_8">
      <!-- 8 -->
      <defs>
       <path d="M 31.78125 34.625 
Q 24.75 34.625 20.71875 30.859375 
Q 16.703125 27.09375 16.703125 20.515625 
Q 16.703125 13.921875 20.71875 10.15625 
Q 24.75 6.390625 31.78125 6.390625 
Q 38.8125 6.390625 42.859375 10.171875 
Q 46.921875 13.96875 46.921875 20.515625 
Q 46.921875 27.09375 42.890625 30.859375 
Q 38.875 34.625 31.78125 34.625 
M 21.921875 38.8125 
Q 15.578125 40.375 12.03125 44.71875 
Q 8.5 49.078125 8.5 55.328125 
Q 8.5 64.0625 14.71875 69.140625 
Q 20.953125 74.21875 31.78125 74.21875 
Q 42.671875 74.21875 48.875 69.140625 
Q 55.078125 64.0625 55.078125 55.328125 
Q 55.078125 49.078125 51.53125 44.71875 
Q 48 40.375 41.703125 38.8125 
Q 48.828125 37.15625 52.796875 32.3125 
Q 56.78125 27.484375 56.78125 20.515625 
Q 56.78125 9.90625 50.3125 4.234375 
Q 43.84375 -1.421875 31.78125 -1.421875 
Q 19.734375 -1.421875 13.25 4.234375 
Q 6.78125 9.90625 6.78125 20.515625 
Q 6.78125 27.484375 10.78125 32.3125 
Q 14.796875 37.15625 21.921875 38.8125 
M 18.3125 54.390625 
Q 18.3125 48.734375 21.84375 45.5625 
Q 25.390625 42.390625 31.78125 42.390625 
Q 38.140625 42.390625 41.71875 45.5625 
Q 45.3125 48.734375 45.3125 54.390625 
Q 45.3125 60.0625 41.71875 63.234375 
Q 38.140625 66.40625 31.78125 66.40625 
Q 25.390625 66.40625 21.84375 63.234375 
Q 18.3125 60.0625 18.3125 54.390625 
" id="BitstreamVeraSans-Roman-38"/>
      </defs>
      <g transform="translate(336.945099857 302.876875)scale(0.2 -0.2)">
       <use xlink:href="#BitstreamVeraSans-Roman-38"/>
      </g>
     </g>
    </g>
    <g id="xtick_9">
     <g id="line2d_30">
      <defs>
       <path d="M 0 0 
L 0 -2 
" id="m47d83a4704" style="stroke:#000000;stroke-width:0.5;"/>
      </defs>
      <g>
       <use style="stroke:#000000;stroke-width:0.5;" x="49.1339978514" xlink:href="#m47d83a4704" y="283.68"/>
      </g>
     </g>
     <g id="line2d_31">
      <defs>
       <path d="M 0 0 
L 0 2 
" id="macc7aa8f0d" style="stroke:#000000;stroke-width:0.5;"/>
      </defs>
      <g>
       <use style="stroke:#000000;stroke-width:0.5;" x="49.1339978514" xlink:href="#macc7aa8f0d" y="7.2"/>
      </g>
     </g>
    </g>
    <g id="xtick_10">
     <g id="line2d_32">
      <g>
       <use style="stroke:#000000;stroke-width:0.5;" x="91.1587981379" xlink:href="#m47d83a4704" y="283.68"/>
      </g>
     </g>
     <g id="line2d_33">
      <g>
       <use style="stroke:#000000;stroke-width:0.5;" x="91.1587981379" xlink:href="#macc7aa8f0d" y="7.2"/>
      </g>
     </g>
    </g>
    <g id="xtick_11">
     <g id="line2d_34">
      <g>
       <use style="stroke:#000000;stroke-width:0.5;" x="133.183598424" xlink:href="#m47d83a4704" y="283.68"/>
      </g>
     </g>
     <g id="line2d_35">
      <g>
       <use style="stroke:#000000;stroke-width:0.5;" x="133.183598424" xlink:href="#macc7aa8f0d" y="7.2"/>
      </g>
     </g>
    </g>
    <g id="xtick_12">
     <g id="line2d_36">
      <g>
       <use style="stroke:#000000;stroke-width:0.5;" x="175.208398711" xlink:href="#m47d83a4704" y="283.68"/>
      </g>
     </g>
     <g id="line2d_37">
      <g>
       <use style="stroke:#000000;stroke-width:0.5;" x="175.208398711" xlink:href="#macc7aa8f0d" y="7.2"/>
      </g>
     </g>
    </g>
    <g id="xtick_13">
     <g id="line2d_38">
      <g>
       <use style="stroke:#000000;stroke-width:0.5;" x="217.233198997" xlink:href="#m47d83a4704" y="283.68"/>
      </g>
     </g>
     <g id="line2d_39">
      <g>
       <use style="stroke:#000000;stroke-width:0.5;" x="217.233198997" xlink:href="#macc7aa8f0d" y="7.2"/>
      </g>
     </g>
    </g>
    <g id="xtick_14">
     <g id="line2d_40">
      <g>
       <use style="stroke:#000000;stroke-width:0.5;" x="259.257999284" xlink:href="#m47d83a4704" y="283.68"/>
      </g>
     </g>
     <g id="line2d_41">
      <g>
       <use style="stroke:#000000;stroke-width:0.5;" x="259.257999284" xlink:href="#macc7aa8f0d" y="7.2"/>
      </g>
     </g>
    </g>
    <g id="xtick_15">
     <g id="line2d_42">
      <g>
       <use style="stroke:#000000;stroke-width:0.5;" x="301.28279957" xlink:href="#m47d83a4704" y="283.68"/>
      </g>
     </g>
     <g id="line2d_43">
      <g>
       <use style="stroke:#000000;stroke-width:0.5;" x="301.28279957" xlink:href="#macc7aa8f0d" y="7.2"/>
      </g>
     </g>
    </g>
    <g id="xtick_16">
     <g id="line2d_44">
      <g>
       <use style="stroke:#000000;stroke-width:0.5;" x="343.307599857" xlink:href="#m47d83a4704" y="283.68"/>
      </g>
     </g>
     <g id="line2d_45">
      <g>
       <use style="stroke:#000000;stroke-width:0.5;" x="343.307599857" xlink:href="#macc7aa8f0d" y="7.2"/>
      </g>
     </g>
    </g>
    <g id="text_9">
     <!-- log10 of Df -->
     <defs>
      <path id="BitstreamVeraSans-Roman-20"/>
      <path d="M 12.40625 8.296875 
L 28.515625 8.296875 
L 28.515625 63.921875 
L 10.984375 60.40625 
L 10.984375 69.390625 
L 28.421875 72.90625 
L 38.28125 72.90625 
L 38.28125 8.296875 
L 54.390625 8.296875 
L 54.390625 0 
L 12.40625 0 
z
" id="BitstreamVeraSans-Roman-31"/>
      <path d="M 30.609375 48.390625 
Q 23.390625 48.390625 19.1875 42.75 
Q 14.984375 37.109375 14.984375 27.296875 
Q 14.984375 17.484375 19.15625 11.84375 
Q 23.34375 6.203125 30.609375 6.203125 
Q 37.796875 6.203125 41.984375 11.859375 
Q 46.1875 17.53125 46.1875 27.296875 
Q 46.1875 37.015625 41.984375 42.703125 
Q 37.796875 48.390625 30.609375 48.390625 
M 30.609375 56 
Q 42.328125 56 49.015625 48.375 
Q 55.71875 40.765625 55.71875 27.296875 
Q 55.71875 13.875 49.015625 6.21875 
Q 42.328125 -1.421875 30.609375 -1.421875 
Q 18.84375 -1.421875 12.171875 6.21875 
Q 5.515625 13.875 5.515625 27.296875 
Q 5.515625 40.765625 12.171875 48.375 
Q 18.84375 56 30.609375 56 
" id="BitstreamVeraSans-Roman-6f"/>
      <path d="M 9.421875 75.984375 
L 18.40625 75.984375 
L 18.40625 0 
L 9.421875 0 
z
" id="BitstreamVeraSans-Roman-6c"/>
      <path d="M 19.671875 64.796875 
L 19.671875 8.109375 
L 31.59375 8.109375 
Q 46.6875 8.109375 53.6875 14.9375 
Q 60.6875 21.78125 60.6875 36.53125 
Q 60.6875 51.171875 53.6875 57.984375 
Q 46.6875 64.796875 31.59375 64.796875 
z
M 9.8125 72.90625 
L 30.078125 72.90625 
Q 51.265625 72.90625 61.171875 64.09375 
Q 71.09375 55.28125 71.09375 36.53125 
Q 71.09375 17.671875 61.125 8.828125 
Q 51.171875 0 30.078125 0 
L 9.8125 0 
z
" id="BitstreamVeraSans-Roman-44"/>
      <path d="M 45.40625 27.984375 
Q 45.40625 37.75 41.375 43.109375 
Q 37.359375 48.484375 30.078125 48.484375 
Q 22.859375 48.484375 18.828125 43.109375 
Q 14.796875 37.75 14.796875 27.984375 
Q 14.796875 18.265625 18.828125 12.890625 
Q 22.859375 7.515625 30.078125 7.515625 
Q 37.359375 7.515625 41.375 12.890625 
Q 45.40625 18.265625 45.40625 27.984375 
M 54.390625 6.78125 
Q 54.390625 -7.171875 48.1875 -13.984375 
Q 42 -20.796875 29.203125 -20.796875 
Q 24.46875 -20.796875 20.265625 -20.09375 
Q 16.0625 -19.390625 12.109375 -17.921875 
L 12.109375 -9.1875 
Q 16.0625 -11.328125 19.921875 -12.34375 
Q 23.78125 -13.375 27.78125 -13.375 
Q 36.625 -13.375 41.015625 -8.765625 
Q 45.40625 -4.15625 45.40625 5.171875 
L 45.40625 9.625 
Q 42.625 4.78125 38.28125 2.390625 
Q 33.9375 0 27.875 0 
Q 17.828125 0 11.671875 7.65625 
Q 5.515625 15.328125 5.515625 27.984375 
Q 5.515625 40.671875 11.671875 48.328125 
Q 17.828125 56 27.875 56 
Q 33.9375 56 38.28125 53.609375 
Q 42.625 51.21875 45.40625 46.390625 
L 45.40625 54.6875 
L 54.390625 54.6875 
z
" id="BitstreamVeraSans-Roman-67"/>
      <path d="M 37.109375 75.984375 
L 37.109375 68.5 
L 28.515625 68.5 
Q 23.6875 68.5 21.796875 66.546875 
Q 19.921875 64.59375 19.921875 59.515625 
L 19.921875 54.6875 
L 34.71875 54.6875 
L 34.71875 47.703125 
L 19.921875 47.703125 
L 19.921875 0 
L 10.890625 0 
L 10.890625 47.703125 
L 2.296875 47.703125 
L 2.296875 54.6875 
L 10.890625 54.6875 
L 10.890625 58.5 
Q 10.890625 67.625 15.140625 71.796875 
Q 19.390625 75.984375 28.609375 75.984375 
z
" id="BitstreamVeraSans-Roman-66"/>
     </defs>
     <g transform="translate(130.5740625 327.233125)scale(0.2 -0.2)">
      <use xlink:href="#BitstreamVeraSans-Roman-6c"/>
      <use x="27.783203125" xlink:href="#BitstreamVeraSans-Roman-6f"/>
      <use x="88.96484375" xlink:href="#BitstreamVeraSans-Roman-67"/>
      <use x="152.44140625" xlink:href="#BitstreamVeraSans-Roman-31"/>
      <use x="216.064453125" xlink:href="#BitstreamVeraSans-Roman-30"/>
      <use x="279.6875" xlink:href="#BitstreamVeraSans-Roman-20"/>
      <use x="311.474609375" xlink:href="#BitstreamVeraSans-Roman-6f"/>
      <use x="372.65625" xlink:href="#BitstreamVeraSans-Roman-66"/>
      <use x="407.861328125" xlink:href="#BitstreamVeraSans-Roman-20"/>
      <use x="439.6484375" xlink:href="#BitstreamVeraSans-Roman-44"/>
      <use x="516.650390625" xlink:href="#BitstreamVeraSans-Roman-66"/>
     </g>
    </g>
   </g>
   <g id="matplotlib.axis_2">
    <g id="ytick_1">
     <g id="line2d_46">
      <path clip-path="url(#pd4ab68d496)" d="M 7.2 283.68 
L 364.32 283.68 
" style="fill:none;stroke:#000000;stroke-dasharray:1.000000,3.000000;stroke-dashoffset:0.0;stroke-width:0.5;"/>
     </g>
     <g id="line2d_47">
      <defs>
       <path d="M 0 0 
L 4 0 
" id="m87b9b2e9ff" style="stroke:#000000;stroke-width:0.5;"/>
      </defs>
      <g>
       <use style="stroke:#000000;stroke-width:0.5;" x="7.2" xlink:href="#m87b9b2e9ff" y="283.68"/>
      </g>
     </g>
     <g id="line2d_48">
      <defs>
       <path d="M 0 0 
L -4 0 
" id="medee1fddd5" style="stroke:#000000;stroke-width:0.5;"/>
      </defs>
      <g>
       <use style="stroke:#000000;stroke-width:0.5;" x="364.32" xlink:href="#medee1fddd5" y="283.68"/>
      </g>
     </g>
    </g>
    <g id="ytick_2">
     <g id="line2d_49">
      <path clip-path="url(#pd4ab68d496)" d="M 7.2 228.931485 
L 364.32 228.931485 
" style="fill:none;stroke:#000000;stroke-dasharray:1.000000,3.000000;stroke-dashoffset:0.0;stroke-width:0.5;"/>
     </g>
     <g id="line2d_50">
      <g>
       <use style="stroke:#000000;stroke-width:0.5;" x="7.2" xlink:href="#m87b9b2e9ff" y="228.931485149"/>
      </g>
     </g>
     <g id="line2d_51">
      <g>
       <use style="stroke:#000000;stroke-width:0.5;" x="364.32" xlink:href="#medee1fddd5" y="228.931485149"/>
      </g>
     </g>
    </g>
    <g id="ytick_3">
     <g id="line2d_52">
      <path clip-path="url(#pd4ab68d496)" d="M 7.2 174.18297 
L 364.32 174.18297 
" style="fill:none;stroke:#000000;stroke-dasharray:1.000000,3.000000;stroke-dashoffset:0.0;stroke-width:0.5;"/>
     </g>
     <g id="line2d_53">
      <g>
       <use style="stroke:#000000;stroke-width:0.5;" x="7.2" xlink:href="#m87b9b2e9ff" y="174.182970297"/>
      </g>
     </g>
     <g id="line2d_54">
      <g>
       <use style="stroke:#000000;stroke-width:0.5;" x="364.32" xlink:href="#medee1fddd5" y="174.182970297"/>
      </g>
     </g>
    </g>
    <g id="ytick_4">
     <g id="line2d_55">
      <path clip-path="url(#pd4ab68d496)" d="M 7.2 119.434455 
L 364.32 119.434455 
" style="fill:none;stroke:#000000;stroke-dasharray:1.000000,3.000000;stroke-dashoffset:0.0;stroke-width:0.5;"/>
     </g>
     <g id="line2d_56">
      <g>
       <use style="stroke:#000000;stroke-width:0.5;" x="7.2" xlink:href="#m87b9b2e9ff" y="119.434455446"/>
      </g>
     </g>
     <g id="line2d_57">
      <g>
       <use style="stroke:#000000;stroke-width:0.5;" x="364.32" xlink:href="#medee1fddd5" y="119.434455446"/>
      </g>
     </g>
    </g>
    <g id="ytick_5">
     <g id="line2d_58">
      <path clip-path="url(#pd4ab68d496)" d="M 7.2 64.685941 
L 364.32 64.685941 
" style="fill:none;stroke:#000000;stroke-dasharray:1.000000,3.000000;stroke-dashoffset:0.0;stroke-width:0.5;"/>
     </g>
     <g id="line2d_59">
      <g>
       <use style="stroke:#000000;stroke-width:0.5;" x="7.2" xlink:href="#m87b9b2e9ff" y="64.6859405941"/>
      </g>
     </g>
     <g id="line2d_60">
      <g>
       <use style="stroke:#000000;stroke-width:0.5;" x="364.32" xlink:href="#medee1fddd5" y="64.6859405941"/>
      </g>
     </g>
    </g>
    <g id="ytick_6">
     <g id="line2d_61">
      <path clip-path="url(#pd4ab68d496)" d="M 7.2 9.937426 
L 364.32 9.937426 
" style="fill:none;stroke:#000000;stroke-dasharray:1.000000,3.000000;stroke-dashoffset:0.0;stroke-width:0.5;"/>
     </g>
     <g id="line2d_62">
      <g>
       <use style="stroke:#000000;stroke-width:0.5;" x="7.2" xlink:href="#m87b9b2e9ff" y="9.93742574257"/>
      </g>
     </g>
     <g id="line2d_63">
      <g>
       <use style="stroke:#000000;stroke-width:0.5;" x="364.32" xlink:href="#medee1fddd5" y="9.93742574257"/>
      </g>
     </g>
    </g>
   </g>
   <g id="text_10">
    <!-- f6-9,20-D -->
    <defs>
     <path d="M 11.71875 12.40625 
L 22.015625 12.40625 
L 22.015625 4 
L 14.015625 -11.625 
L 7.71875 -11.625 
L 11.71875 4 
z
" id="BitstreamVeraSans-Roman-2c"/>
     <path d="M 10.984375 1.515625 
L 10.984375 10.5 
Q 14.703125 8.734375 18.5 7.8125 
Q 22.3125 6.890625 25.984375 6.890625 
Q 35.75 6.890625 40.890625 13.453125 
Q 46.046875 20.015625 46.78125 33.40625 
Q 43.953125 29.203125 39.59375 26.953125 
Q 35.25 24.703125 29.984375 24.703125 
Q 19.046875 24.703125 12.671875 31.3125 
Q 6.296875 37.9375 6.296875 49.421875 
Q 6.296875 60.640625 12.9375 67.421875 
Q 19.578125 74.21875 30.609375 74.21875 
Q 43.265625 74.21875 49.921875 64.515625 
Q 56.59375 54.828125 56.59375 36.375 
Q 56.59375 19.140625 48.40625 8.859375 
Q 40.234375 -1.421875 26.421875 -1.421875 
Q 22.703125 -1.421875 18.890625 -0.6875 
Q 15.09375 0.046875 10.984375 1.515625 
M 30.609375 32.421875 
Q 37.25 32.421875 41.125 36.953125 
Q 45.015625 41.5 45.015625 49.421875 
Q 45.015625 57.28125 41.125 61.84375 
Q 37.25 66.40625 30.609375 66.40625 
Q 23.96875 66.40625 20.09375 61.84375 
Q 16.21875 57.28125 16.21875 49.421875 
Q 16.21875 41.5 20.09375 36.953125 
Q 23.96875 32.421875 30.609375 32.421875 
" id="BitstreamVeraSans-Roman-39"/>
    </defs>
    <g transform="translate(263.049475 278.1504)scale(0.2 -0.2)">
     <use xlink:href="#BitstreamVeraSans-Roman-66"/>
     <use x="35.205078125" xlink:href="#BitstreamVeraSans-Roman-36"/>
     <use x="98.828125" xlink:href="#BitstreamVeraSans-Roman-2d"/>
     <use x="134.912109375" xlink:href="#BitstreamVeraSans-Roman-39"/>
     <use x="198.53515625" xlink:href="#BitstreamVeraSans-Roman-2c"/>
     <use x="230.322265625" xlink:href="#BitstreamVeraSans-Roman-32"/>
     <use x="293.9453125" xlink:href="#BitstreamVeraSans-Roman-30"/>
     <use x="357.568359375" xlink:href="#BitstreamVeraSans-Roman-2d"/>
     <use x="393.65234375" xlink:href="#BitstreamVeraSans-Roman-44"/>
    </g>
   </g>
  </g>
 </g>
 <defs>
  <clipPath id="pd4ab68d496">
   <rect height="276.48" width="357.12" x="7.2" y="7.2"/>
  </clipPath>
 </defs>
</svg>
