<?xml version="1.0" encoding="utf-8" standalone="no"?>
<!DOCTYPE svg PUBLIC "-//W3C//DTD SVG 1.1//EN"
  "http://www.w3.org/Graphics/SVG/1.1/DTD/svg11.dtd">
<!-- Created with matplotlib (http://matplotlib.org/) -->
<svg height="338pt" version="1.1" viewBox="0 0 371 338" width="371pt" xmlns="http://www.w3.org/2000/svg" xmlns:xlink="http://www.w3.org/1999/xlink">
 <defs>
  <style type="text/css">
*{stroke-linecap:butt;stroke-linejoin:round;stroke-miterlimit:100000;}
  </style>
 </defs>
 <g id="figure_1">
  <g id="patch_1">
   <path d="M 0 338.5925 
L 371.52 338.5925 
L 371.52 0 
L 0 0 
z
" style="fill:#ffffff;"/>
  </g>
  <g id="axes_1">
   <g id="patch_2">
    <path d="M 7.2 283.68 
L 364.32 283.68 
L 364.32 7.2 
L 7.2 7.2 
z
" style="fill:#ffffff;"/>
   </g>
   <g id="line2d_1">
    <path clip-path="url(#p8975bde412)" d="M 169.683862 283.68 
L 169.683862 280.030099 
L 172.779686 280.030099 
L 172.779686 276.380198 
L 173.714731 276.380198 
L 173.739813 269.080396 
L 174.194729 269.080396 
L 174.194729 265.430495 
L 174.496799 265.430495 
L 174.496799 261.780594 
L 174.855086 261.780594 
L 174.855086 258.130693 
L 175.296017 258.130693 
L 175.296017 254.480792 
L 175.895226 254.480792 
L 175.895226 250.830891 
L 176.719234 250.830891 
L 176.719234 247.18099 
L 177.975906 247.18099 
L 177.975906 243.531089 
L 178.196726 243.531089 
L 178.196726 239.881188 
L 178.729003 239.881188 
L 178.729003 236.231287 
L 179.194306 236.231287 
L 179.194306 232.581386 
L 179.884476 232.581386 
L 179.884476 228.931485 
L 188.957686 228.931485 
L 188.957686 225.281584 
L 202.034661 225.281584 
L 202.034661 221.631683 
L 204.192199 221.631683 
L 204.192199 217.981782 
L 205.666946 217.981782 
L 205.666946 214.331881 
L 206.963585 214.331881 
L 206.963585 210.68198 
L 209.140227 210.68198 
L 209.140227 207.032079 
L 210.070761 207.032079 
L 210.070761 203.382178 
L 212.953807 203.382178 
L 212.953807 199.732277 
L 214.193648 199.732277 
L 214.193648 196.082376 
L 214.404717 196.082376 
L 214.404717 192.432475 
L 214.533864 192.432475 
L 214.630624 185.132673 
L 214.858881 185.132673 
L 214.858881 181.482772 
L 215.276244 181.482772 
L 215.276244 177.832871 
L 215.653706 177.832871 
L 215.653706 174.18297 
L 215.774296 174.18297 
L 215.774296 170.533069 
L 216.157804 170.533069 
L 216.157804 166.883168 
L 216.337055 166.883168 
L 216.358611 159.583366 
L 217.212641 159.583366 
L 217.262228 148.633663 
L 217.599636 148.633663 
L 217.599636 144.983762 
L 219.500489 144.983762 
L 219.500489 141.333861 
L 220.058569 141.333861 
L 220.058569 137.68396 
L 222.938934 137.68396 
L 222.938934 134.034059 
L 226.168265 134.034059 
L 226.168265 130.384158 
L 227.470294 130.384158 
L 227.470294 126.734257 
L 230.449911 126.734257 
L 230.449911 123.084356 
L 233.679272 123.084356 
L 233.679272 119.434455 
L 235.133359 119.434455 
L 235.133359 115.784554 
L 237.821187 115.784554 
L 237.821187 112.134653 
L 238.807161 112.134653 
L 238.807161 108.484752 
L 239.321266 108.484752 
L 239.321266 104.834851 
L 246.629101 104.834851 
L 246.629101 101.18495 
L 248.884555 101.18495 
L 248.884555 97.53505 
L 249.508968 97.53505 
L 249.508968 93.885149 
L 250.908538 93.885149 
L 250.908538 90.235248 
L 252.157506 90.235248 
L 252.157506 86.585347 
L 255.241322 86.585347 
L 255.293399 79.285545 
L 258.278535 79.285545 
L 258.278535 75.635644 
L 258.394495 75.635644 
L 258.394495 71.985743 
L 261.857187 71.985743 
L 261.857187 68.335842 
L 268.488153 68.335842 
L 268.488153 64.685941 
L 282.260939 64.685941 
L 282.260939 61.03604 
L 284.127747 61.03604 
L 284.127747 57.386139 
L 288.806789 57.386139 
L 288.806789 53.736238 
L 290.557146 53.736238 
L 290.557146 50.086337 
L 292.469638 50.086337 
L 292.523915 42.786535 
L 293.185645 42.786535 
L 293.185645 39.136634 
L 293.545562 39.136634 
L 293.545562 35.486733 
L 295.240699 35.486733 
L 295.240699 31.836832 
L 295.905066 31.836832 
L 295.905066 28.186931 
L 297.428973 28.186931 
L 297.428973 24.53703 
L 297.655679 24.53703 
L 297.655679 20.887129 
L 301.510035 20.887129 
L 301.510035 17.237228 
L 303.323844 17.237228 
L 303.323844 13.587327 
L 307.522485 13.587327 
L 307.522485 9.937426 
L 364.32 9.937426 
L 364.32 9.937426 
" style="fill:none;stroke:#ff0000;stroke-linecap:square;stroke-width:3.0;"/>
   </g>
   <g id="line2d_2">
    <path clip-path="url(#p8975bde412)" d="M 179.156773 283.68 
L 179.156773 280.030099 
L 185.177372 280.030099 
L 185.177372 276.380198 
L 185.986801 276.380198 
L 185.986801 272.730297 
L 189.047243 272.730297 
L 189.047243 269.080396 
L 189.976025 269.080396 
L 189.976025 265.430495 
L 191.628794 265.430495 
L 191.628794 261.780594 
L 192.575288 261.780594 
L 192.575288 258.130693 
L 192.888417 258.130693 
L 192.888417 254.480792 
L 193.121935 254.480792 
L 193.121935 250.830891 
L 195.873894 250.830891 
L 195.873894 247.18099 
L 196.807676 247.18099 
L 196.807676 243.531089 
L 200.094385 243.531089 
L 200.094385 239.881188 
L 201.113285 239.881188 
L 201.113285 236.231287 
L 204.700171 236.231287 
L 204.700171 232.581386 
L 206.47553 232.581386 
L 206.47553 228.931485 
L 222.624006 228.931485 
L 222.624006 225.281584 
L 223.971538 225.281584 
L 223.971538 221.631683 
L 224.584254 221.631683 
L 224.584254 217.981782 
L 225.392034 217.981782 
L 225.392034 214.331881 
L 225.629534 214.331881 
L 225.629534 210.68198 
L 226.278567 210.68198 
L 226.385482 203.382178 
L 226.450457 203.382178 
L 226.450457 199.732277 
L 227.337785 199.732277 
L 227.337785 196.082376 
L 227.786396 196.082376 
L 227.786396 192.432475 
L 228.00854 192.432475 
L 228.00854 188.782574 
L 229.722303 188.782574 
L 229.722303 185.132673 
L 231.369905 185.132673 
L 231.369905 181.482772 
L 231.879104 181.482772 
L 231.879104 177.832871 
L 233.214261 177.832871 
L 233.214261 174.18297 
L 263.146688 174.18297 
L 263.146688 170.533069 
L 267.128142 170.533069 
L 267.128142 166.883168 
L 277.280692 166.883168 
L 277.280692 163.233267 
L 279.141268 163.233267 
L 279.141268 159.583366 
L 280.517167 159.583366 
L 280.517167 155.933465 
L 281.987759 155.933465 
L 281.987759 152.283564 
L 283.859031 152.283564 
L 283.859031 148.633663 
L 285.209133 148.633663 
L 285.209133 144.983762 
L 289.908717 144.983762 
L 289.908717 141.333861 
L 290.109046 141.333861 
L 290.109046 137.68396 
L 290.906862 137.68396 
L 290.906862 134.034059 
L 291.371461 134.034059 
L 291.371461 130.384158 
L 291.961255 130.384158 
L 291.961255 126.734257 
L 292.197576 126.734257 
L 292.197576 123.084356 
L 294.077086 123.084356 
L 294.077086 119.434455 
L 294.376358 119.434455 
L 294.376358 115.784554 
L 295.856848 115.784554 
L 295.856848 112.134653 
L 298.279863 112.134653 
L 298.279863 108.484752 
L 298.453514 108.484752 
L 298.453514 104.834851 
L 298.803892 104.834851 
L 298.803892 101.18495 
L 299.386179 101.18495 
L 299.386179 97.53505 
L 301.007603 97.53505 
L 301.007603 93.885149 
L 301.591936 93.885149 
L 301.591936 90.235248 
L 302.043612 90.235248 
L 302.043612 86.585347 
L 305.693274 86.585347 
L 305.693274 82.935446 
L 306.00757 82.935446 
L 306.00757 79.285545 
L 307.235603 79.285545 
L 307.235603 75.635644 
L 308.558929 75.635644 
L 308.558929 71.985743 
L 310.072988 71.985743 
L 310.072988 68.335842 
L 310.791842 68.335842 
L 310.791842 64.685941 
L 313.612728 64.685941 
L 313.681916 57.386139 
L 313.743019 57.386139 
L 313.743019 53.736238 
L 313.980512 53.736238 
L 313.980512 50.086337 
L 314.303347 50.086337 
L 314.31695 42.786535 
L 314.560088 42.786535 
L 314.560088 39.136634 
L 314.839651 39.136634 
L 314.839651 35.486733 
L 315.251732 35.486733 
L 315.251732 31.836832 
L 315.934869 31.836832 
L 315.934869 28.186931 
L 316.663689 28.186931 
L 316.663689 24.53703 
L 317.467161 24.53703 
L 317.467161 20.887129 
L 318.652127 20.887129 
L 318.652127 17.237228 
L 325.299728 17.237228 
L 325.299728 13.587327 
L 351.352566 13.587327 
L 351.352566 9.937426 
L 364.32 9.937426 
L 364.32 9.937426 
" style="fill:none;stroke:#00bfbf;stroke-linecap:square;"/>
   </g>
   <g id="line2d_3">
    <path clip-path="url(#p8975bde412)" d="M 179.156773 283.68 
L 179.156773 280.030099 
L 184.1345 280.030099 
L 184.193971 272.730297 
L 184.322126 272.730297 
L 184.322126 269.080396 
L 185.177372 269.080396 
L 185.177372 265.430495 
L 185.986801 265.430495 
L 185.986801 261.780594 
L 187.650906 261.780594 
L 187.650906 258.130693 
L 189.047243 258.130693 
L 189.047243 254.480792 
L 189.471638 254.480792 
L 189.471638 250.830891 
L 190.750209 250.830891 
L 190.777911 243.531089 
L 191.527994 243.531089 
L 191.628794 236.231287 
L 194.375984 236.231287 
L 194.375984 232.581386 
L 200.895165 232.581386 
L 200.895165 228.931485 
L 220.754712 228.931485 
L 220.754712 225.281584 
L 220.994468 225.281584 
L 220.994468 221.631683 
L 222.624006 221.631683 
L 222.624006 217.981782 
L 223.699968 217.981782 
L 223.80297 207.032079 
L 223.971538 207.032079 
L 223.971538 203.382178 
L 224.584254 203.382178 
L 224.584254 199.732277 
L 224.957536 199.732277 
L 225.003533 192.432475 
L 225.255163 192.432475 
L 225.3119 185.132673 
L 225.523431 185.132673 
L 225.523431 181.482772 
L 226.385482 181.482772 
L 226.385482 177.832871 
L 227.385643 177.832871 
L 227.385643 174.18297 
L 237.459067 174.18297 
L 237.459067 170.533069 
L 263.146688 170.533069 
L 263.146688 166.883168 
L 265.427906 166.883168 
L 265.427906 163.233267 
L 267.128142 163.233267 
L 267.128142 159.583366 
L 268.973614 159.583366 
L 268.973614 155.933465 
L 275.792567 155.933465 
L 275.792567 152.283564 
L 277.280692 152.283564 
L 277.280692 148.633663 
L 278.620657 148.633663 
L 278.620657 144.983762 
L 280.517167 144.983762 
L 280.517167 141.333861 
L 280.69389 141.333861 
L 280.69389 137.68396 
L 281.987759 137.68396 
L 281.987759 134.034059 
L 282.283263 134.034059 
L 282.283263 130.384158 
L 282.499817 130.384158 
L 282.499817 126.734257 
L 283.005416 126.734257 
L 283.005416 123.084356 
L 285.209133 123.084356 
L 285.209133 119.434455 
L 287.859697 119.434455 
L 287.859697 115.784554 
L 288.168835 115.784554 
L 288.168835 112.134653 
L 289.908717 112.134653 
L 289.908717 108.484752 
L 290.109046 108.484752 
L 290.217219 101.18495 
L 290.906862 101.18495 
L 290.906862 97.53505 
L 291.371461 97.53505 
L 291.371461 93.885149 
L 291.584914 93.885149 
L 291.584914 90.235248 
L 292.992468 90.235248 
L 292.992468 86.585347 
L 298.453514 86.585347 
L 298.453514 82.935446 
L 299.386179 82.935446 
L 299.386179 79.285545 
L 300.965758 79.285545 
L 300.965758 75.635644 
L 301.623814 75.635644 
L 301.623814 71.985743 
L 302.043612 71.985743 
L 302.043612 68.335842 
L 302.218627 68.335842 
L 302.218627 64.685941 
L 304.601679 64.685941 
L 304.601679 61.03604 
L 305.891882 61.03604 
L 305.891882 57.386139 
L 306.315811 57.386139 
L 306.315811 53.736238 
L 307.913504 53.736238 
L 307.913504 50.086337 
L 308.502813 50.086337 
L 308.502813 46.436436 
L 309.040976 46.436436 
L 309.040976 42.786535 
L 310.072988 42.786535 
L 310.072988 39.136634 
L 313.612728 39.136634 
L 313.612728 35.486733 
L 313.743019 35.486733 
L 313.743019 31.836832 
L 313.980512 31.836832 
L 313.980512 28.186931 
L 314.303347 28.186931 
L 314.303347 24.53703 
L 314.560088 24.53703 
L 314.560088 20.887129 
L 315.934869 20.887129 
L 315.934869 17.237228 
L 316.663689 17.237228 
L 316.663689 13.587327 
L 316.839448 13.587327 
L 316.839448 9.937426 
L 364.32 9.937426 
L 364.32 9.937426 
" style="fill:none;stroke:#bf00bf;stroke-linecap:square;"/>
   </g>
   <g id="line2d_4">
    <path clip-path="url(#p8975bde412)" d="M 175.296017 283.68 
L 175.296017 280.030099 
L 178.960078 280.030099 
L 178.960078 276.380198 
L 179.156773 276.380198 
L 179.156773 272.730297 
L 184.081736 272.730297 
L 184.081736 269.080396 
L 184.193971 269.080396 
L 184.193971 265.430495 
L 184.322126 265.430495 
L 184.355513 258.130693 
L 184.794007 258.130693 
L 184.794007 254.480792 
L 185.177372 254.480792 
L 185.177372 250.830891 
L 185.850003 250.830891 
L 185.850003 247.18099 
L 187.650906 247.18099 
L 187.650906 243.531089 
L 189.047243 243.531089 
L 189.047243 239.881188 
L 190.575164 239.881188 
L 190.575164 236.231287 
L 191.628794 236.231287 
L 191.628794 232.581386 
L 192.914144 232.581386 
L 192.914144 228.931485 
L 218.988192 228.931485 
L 218.988192 225.281584 
L 220.754712 225.281584 
L 220.754712 221.631683 
L 220.994468 221.631683 
L 220.994468 217.981782 
L 221.605769 217.981782 
L 221.605769 214.331881 
L 221.736882 214.331881 
L 221.736882 210.68198 
L 221.990843 210.68198 
L 221.990843 207.032079 
L 222.624006 207.032079 
L 222.624006 203.382178 
L 223.082777 203.382178 
L 223.082777 199.732277 
L 223.488284 199.732277 
L 223.488284 196.082376 
L 223.714021 196.082376 
L 223.80297 188.782574 
L 224.272115 188.782574 
L 224.272115 185.132673 
L 224.957536 185.132673 
L 225.003533 177.832871 
L 225.288723 177.832871 
L 225.288723 174.18297 
L 225.760408 174.18297 
L 225.760408 170.533069 
L 235.27431 170.533069 
L 235.27431 166.883168 
L 237.459067 166.883168 
L 237.459067 163.233267 
L 243.99285 163.233267 
L 243.99285 159.583366 
L 248.910617 159.583366 
L 248.910617 155.933465 
L 251.432659 155.933465 
L 251.432659 152.283564 
L 262.035287 152.283564 
L 262.035287 148.633663 
L 263.146688 148.633663 
L 263.146688 144.983762 
L 264.075139 144.983762 
L 264.075139 141.333861 
L 265.012273 141.333861 
L 265.012273 137.68396 
L 267.128142 137.68396 
L 267.128142 134.034059 
L 268.973614 134.034059 
L 268.973614 130.384158 
L 269.271819 130.384158 
L 269.271819 126.734257 
L 273.111921 126.734257 
L 273.111921 123.084356 
L 274.386815 123.084356 
L 274.386815 119.434455 
L 275.276297 119.434455 
L 275.276297 115.784554 
L 275.792567 115.784554 
L 275.792567 112.134653 
L 277.313617 112.134653 
L 277.313617 108.484752 
L 277.910226 108.484752 
L 277.910226 104.834851 
L 278.296295 104.834851 
L 278.296295 101.18495 
L 278.620657 101.18495 
L 278.620657 97.53505 
L 279.297653 97.53505 
L 279.297653 93.885149 
L 280.816802 93.885149 
L 280.816802 90.235248 
L 281.987759 90.235248 
L 281.987759 86.585347 
L 282.283263 86.585347 
L 282.283263 82.935446 
L 283.829869 82.935446 
L 283.829869 79.285545 
L 284.192116 79.285545 
L 284.192116 75.635644 
L 285.209133 75.635644 
L 285.209133 71.985743 
L 287.374726 71.985743 
L 287.374726 68.335842 
L 288.194345 68.335842 
L 288.194345 64.685941 
L 295.69855 64.685941 
L 295.69855 61.03604 
L 296.918285 61.03604 
L 296.918285 57.386139 
L 302.218627 57.386139 
L 302.218627 53.736238 
L 306.315811 53.736238 
L 306.315811 50.086337 
L 307.528797 50.086337 
L 307.528797 46.436436 
L 307.913504 46.436436 
L 307.913504 42.786535 
L 308.502813 42.786535 
L 308.502813 39.136634 
L 309.040976 39.136634 
L 309.040976 35.486733 
L 309.689217 35.486733 
L 309.689217 31.836832 
L 310.072988 31.836832 
L 310.168037 24.53703 
L 311.010113 24.53703 
L 311.010113 20.887129 
L 313.612728 20.887129 
L 313.612728 17.237228 
L 313.743019 17.237228 
L 313.743019 13.587327 
L 313.980512 13.587327 
L 313.980512 9.937426 
L 364.32 9.937426 
L 364.32 9.937426 
" style="fill:none;stroke:#000000;stroke-linecap:square;"/>
   </g>
   <g id="line2d_5">
    <path clip-path="url(#p8975bde412)" d="M 172.779686 283.68 
L 172.779686 280.030099 
L 174.459577 280.030099 
L 174.459577 276.380198 
L 174.855086 276.380198 
L 174.855086 272.730297 
L 175.296017 272.730297 
L 175.296017 269.080396 
L 176.064265 269.080396 
L 176.064265 265.430495 
L 176.691015 265.430495 
L 176.691015 261.780594 
L 178.960078 261.780594 
L 178.960078 258.130693 
L 179.869824 258.130693 
L 179.869824 254.480792 
L 180.082544 254.480792 
L 180.082544 250.830891 
L 180.356983 250.830891 
L 180.356983 247.18099 
L 182.179837 247.18099 
L 182.179837 243.531089 
L 184.081736 243.531089 
L 184.081736 239.881188 
L 184.355513 239.881188 
L 184.355513 236.231287 
L 185.135011 236.231287 
L 185.135011 232.581386 
L 185.630224 232.581386 
L 185.630224 228.931485 
L 205.802366 228.931485 
L 205.802366 225.281584 
L 214.858881 225.281584 
L 214.858881 221.631683 
L 215.276244 221.631683 
L 215.276244 217.981782 
L 215.824561 217.981782 
L 215.824561 214.331881 
L 216.130095 214.331881 
L 216.130095 210.68198 
L 216.491597 210.68198 
L 216.556079 203.382178 
L 217.450666 203.382178 
L 217.450666 199.732277 
L 218.023591 199.732277 
L 218.023591 196.082376 
L 218.267823 196.082376 
L 218.267823 192.432475 
L 218.988192 192.432475 
L 218.988192 188.782574 
L 219.360154 188.782574 
L 219.360154 185.132673 
L 219.500489 185.132673 
L 219.500489 181.482772 
L 220.453898 181.482772 
L 220.453898 177.832871 
L 220.754712 177.832871 
L 220.754712 174.18297 
L 221.852634 174.18297 
L 221.940844 163.233267 
L 225.060625 163.233267 
L 225.060625 159.583366 
L 225.568855 159.583366 
L 225.568855 155.933465 
L 225.760408 155.933465 
L 225.760408 152.283564 
L 226.808109 152.283564 
L 226.808109 148.633663 
L 227.333705 148.633663 
L 227.333705 144.983762 
L 227.470294 144.983762 
L 227.470294 141.333861 
L 239.321266 141.333861 
L 239.321266 137.68396 
L 242.0946 137.68396 
L 242.0946 134.034059 
L 243.99285 134.034059 
L 243.99285 130.384158 
L 247.984803 130.384158 
L 247.984803 126.734257 
L 258.394495 126.734257 
L 258.394495 123.084356 
L 261.128964 123.084356 
L 261.128964 119.434455 
L 262.253692 119.434455 
L 262.253692 115.784554 
L 263.329546 115.784554 
L 263.329546 112.134653 
L 263.669847 112.134653 
L 263.669847 108.484752 
L 264.075139 108.484752 
L 264.075139 104.834851 
L 264.470629 104.834851 
L 264.551411 97.53505 
L 264.645241 97.53505 
L 264.645241 93.885149 
L 266.204664 93.885149 
L 266.204664 90.235248 
L 266.765945 90.235248 
L 266.765945 86.585347 
L 268.571417 86.585347 
L 268.571417 82.935446 
L 271.265666 82.935446 
L 271.265666 79.285545 
L 272.616752 79.285545 
L 272.616752 75.635644 
L 274.370592 75.635644 
L 274.370592 71.985743 
L 275.792567 71.985743 
L 275.792567 68.335842 
L 285.883719 68.335842 
L 285.883719 64.685941 
L 292.469638 64.685941 
L 292.469638 61.03604 
L 294.503515 61.03604 
L 294.503515 57.386139 
L 295.240699 57.386139 
L 295.240699 53.736238 
L 295.69855 53.736238 
L 295.69855 50.086337 
L 295.905066 50.086337 
L 295.905066 46.436436 
L 296.918285 46.436436 
L 296.918285 42.786535 
L 298.448483 42.786535 
L 298.456786 35.486733 
L 302.615871 35.486733 
L 302.615871 31.836832 
L 302.764385 31.836832 
L 302.764385 28.186931 
L 305.858225 28.186931 
L 305.858225 24.53703 
L 307.528797 24.53703 
L 307.528797 20.887129 
L 307.913504 20.887129 
L 307.913504 17.237228 
L 308.585721 17.237228 
L 308.585721 13.587327 
L 310.072988 13.587327 
L 310.072988 9.937426 
L 364.32 9.937426 
L 364.32 9.937426 
" style="fill:none;stroke:#00bfbf;stroke-linecap:square;"/>
   </g>
   <g id="line2d_6">
    <path clip-path="url(#p8975bde412)" d="M 169.233274 283.68 
L 169.233274 280.030099 
L 169.68053 280.030099 
L 169.68053 276.380198 
L 172.16171 276.380198 
L 172.16171 272.730297 
L 172.734495 272.730297 
L 172.734495 269.080396 
L 173.482112 269.080396 
L 173.482112 265.430495 
L 173.712845 265.430495 
L 173.712845 261.780594 
L 174.176656 261.780594 
L 174.176656 258.130693 
L 174.457892 258.130693 
L 174.457892 254.480792 
L 174.677971 254.480792 
L 174.677971 250.830891 
L 174.853644 250.830891 
L 174.853644 247.18099 
L 175.00301 247.18099 
L 175.00301 243.531089 
L 175.295592 243.531089 
L 175.295592 239.881188 
L 175.895226 239.881188 
L 175.895226 236.231287 
L 176.803651 236.231287 
L 176.803651 232.581386 
L 177.414564 232.581386 
L 177.414564 228.931485 
L 188.957419 228.931485 
L 188.957419 225.281584 
L 191.886971 225.281584 
L 191.886971 221.631683 
L 198.515786 221.631683 
L 198.515786 217.981782 
L 205.666946 217.981782 
L 205.666946 214.331881 
L 206.049477 214.331881 
L 206.049477 210.68198 
L 207.629241 210.68198 
L 207.629241 207.032079 
L 209.140226 207.032079 
L 209.140226 203.382178 
L 210.070761 203.382178 
L 210.070761 199.732277 
L 212.953452 199.732277 
L 212.953452 196.082376 
L 213.552049 196.082376 
L 213.552049 192.432475 
L 214.492278 192.432475 
L 214.492278 188.782574 
L 214.630624 188.782574 
L 214.630624 185.132673 
L 214.769178 185.132673 
L 214.858881 174.18297 
L 215.752186 174.18297 
L 215.824244 166.883168 
L 215.956423 166.883168 
L 215.956423 163.233267 
L 216.071033 163.233267 
L 216.071033 159.583366 
L 216.192377 159.583366 
L 216.192377 155.933465 
L 216.337055 155.933465 
L 216.337055 152.283564 
L 216.56484 152.283564 
L 216.56484 148.633663 
L 217.143502 148.633663 
L 217.223738 141.333861 
L 217.599636 141.333861 
L 217.599636 137.68396 
L 218.767315 137.68396 
L 218.767315 134.034059 
L 219.674523 134.034059 
L 219.674523 130.384158 
L 223.775895 130.384158 
L 223.775895 126.734257 
L 227.333705 126.734257 
L 227.333705 123.084356 
L 230.449911 123.084356 
L 230.449911 119.434455 
L 233.204729 119.434455 
L 233.204729 115.784554 
L 233.679272 115.784554 
L 233.679272 112.134653 
L 237.821186 112.134653 
L 237.821186 108.484752 
L 238.894257 108.484752 
L 238.894257 104.834851 
L 245.191726 104.834851 
L 245.191726 101.18495 
L 246.629101 101.18495 
L 246.629101 97.53505 
L 248.884555 97.53505 
L 248.884555 93.885149 
L 250.173303 93.885149 
L 250.173303 90.235248 
L 252.576557 90.235248 
L 252.576557 86.585347 
L 252.945385 86.585347 
L 252.945385 82.935446 
L 258.278535 82.935446 
L 258.303578 75.635644 
L 258.393539 75.635644 
L 258.393539 71.985743 
L 258.62029 71.985743 
L 258.62029 68.335842 
L 260.723679 68.335842 
L 260.723679 64.685941 
L 281.023168 64.685941 
L 281.023168 61.03604 
L 282.260726 61.03604 
L 282.260726 57.386139 
L 284.122402 57.386139 
L 284.122402 53.736238 
L 285.632543 53.736238 
L 285.632543 50.086337 
L 287.952323 50.086337 
L 287.952323 46.436436 
L 290.556989 46.436436 
L 290.556989 42.786535 
L 292.469634 42.786535 
L 292.469634 39.136634 
L 293.185645 39.136634 
L 293.185645 35.486733 
L 293.545562 35.486733 
L 293.545562 31.836832 
L 294.746902 31.836832 
L 294.746902 28.186931 
L 295.158601 28.186931 
L 295.158601 24.53703 
L 297.107525 24.53703 
L 297.107525 20.887129 
L 297.428973 20.887129 
L 297.428973 17.237228 
L 301.504655 17.237228 
L 301.504655 13.587327 
L 307.003666 13.587327 
L 307.003666 9.937426 
L 364.32 9.937426 
L 364.32 9.937426 
" style="fill:none;stroke:#bf00bf;stroke-linecap:square;"/>
   </g>
   <g id="patch_3">
    <path d="M 7.2 7.2 
L 364.32 7.2 
" style="fill:none;stroke:#000000;stroke-linecap:square;stroke-linejoin:miter;"/>
   </g>
   <g id="patch_4">
    <path d="M 364.32 283.68 
L 364.32 7.2 
" style="fill:none;stroke:#000000;stroke-linecap:square;stroke-linejoin:miter;"/>
   </g>
   <g id="patch_5">
    <path d="M 7.2 283.68 
L 364.32 283.68 
" style="fill:none;stroke:#000000;stroke-linecap:square;stroke-linejoin:miter;"/>
   </g>
   <g id="patch_6">
    <path d="M 7.2 283.68 
L 7.2 7.2 
" style="fill:none;stroke:#000000;stroke-linecap:square;stroke-linejoin:miter;"/>
   </g>
   <g id="matplotlib.axis_1">
    <g id="xtick_1">
     <g id="line2d_7">
      <path clip-path="url(#p8975bde412)" d="M 46.803772 283.68 
L 46.803772 7.2 
" style="fill:none;stroke:#000000;stroke-dasharray:1.000000,3.000000;stroke-dashoffset:0.0;stroke-width:0.5;"/>
     </g>
     <g id="line2d_8">
      <defs>
       <path d="M 0 0 
L 0 -4 
" id="m30ab5fbcbb" style="stroke:#000000;stroke-width:0.5;"/>
      </defs>
      <g>
       <use style="stroke:#000000;stroke-width:0.5;" x="46.803771872" xlink:href="#m30ab5fbcbb" y="283.68"/>
      </g>
     </g>
     <g id="line2d_9">
      <defs>
       <path d="M 0 0 
L 0 4 
" id="mb9ea551ecc" style="stroke:#000000;stroke-width:0.5;"/>
      </defs>
      <g>
       <use style="stroke:#000000;stroke-width:0.5;" x="46.803771872" xlink:href="#mb9ea551ecc" y="7.2"/>
      </g>
     </g>
     <g id="text_1">
      <!-- -6 -->
      <defs>
       <path d="M 33.015625 40.375 
Q 26.375 40.375 22.484375 35.828125 
Q 18.609375 31.296875 18.609375 23.390625 
Q 18.609375 15.53125 22.484375 10.953125 
Q 26.375 6.390625 33.015625 6.390625 
Q 39.65625 6.390625 43.53125 10.953125 
Q 47.40625 15.53125 47.40625 23.390625 
Q 47.40625 31.296875 43.53125 35.828125 
Q 39.65625 40.375 33.015625 40.375 
M 52.59375 71.296875 
L 52.59375 62.3125 
Q 48.875 64.0625 45.09375 64.984375 
Q 41.3125 65.921875 37.59375 65.921875 
Q 27.828125 65.921875 22.671875 59.328125 
Q 17.53125 52.734375 16.796875 39.40625 
Q 19.671875 43.65625 24.015625 45.921875 
Q 28.375 48.1875 33.59375 48.1875 
Q 44.578125 48.1875 50.953125 41.515625 
Q 57.328125 34.859375 57.328125 23.390625 
Q 57.328125 12.15625 50.6875 5.359375 
Q 44.046875 -1.421875 33.015625 -1.421875 
Q 20.359375 -1.421875 13.671875 8.265625 
Q 6.984375 17.96875 6.984375 36.375 
Q 6.984375 53.65625 15.1875 63.9375 
Q 23.390625 74.21875 37.203125 74.21875 
Q 40.921875 74.21875 44.703125 73.484375 
Q 48.484375 72.75 52.59375 71.296875 
" id="BitstreamVeraSans-Roman-36"/>
       <path d="M 4.890625 31.390625 
L 31.203125 31.390625 
L 31.203125 23.390625 
L 4.890625 23.390625 
z
" id="BitstreamVeraSans-Roman-2d"/>
      </defs>
      <g transform="translate(36.833459372 302.876875)scale(0.2 -0.2)">
       <use xlink:href="#BitstreamVeraSans-Roman-2d"/>
       <use x="36.083984375" xlink:href="#BitstreamVeraSans-Roman-36"/>
      </g>
     </g>
    </g>
    <g id="xtick_2">
     <g id="line2d_10">
      <path clip-path="url(#p8975bde412)" d="M 86.4933 283.68 
L 86.4933 7.2 
" style="fill:none;stroke:#000000;stroke-dasharray:1.000000,3.000000;stroke-dashoffset:0.0;stroke-width:0.5;"/>
     </g>
     <g id="line2d_11">
      <g>
       <use style="stroke:#000000;stroke-width:0.5;" x="86.493300388" xlink:href="#m30ab5fbcbb" y="283.68"/>
      </g>
     </g>
     <g id="line2d_12">
      <g>
       <use style="stroke:#000000;stroke-width:0.5;" x="86.493300388" xlink:href="#mb9ea551ecc" y="7.2"/>
      </g>
     </g>
     <g id="text_2">
      <!-- -4 -->
      <defs>
       <path d="M 37.796875 64.3125 
L 12.890625 25.390625 
L 37.796875 25.390625 
z
M 35.203125 72.90625 
L 47.609375 72.90625 
L 47.609375 25.390625 
L 58.015625 25.390625 
L 58.015625 17.1875 
L 47.609375 17.1875 
L 47.609375 0 
L 37.796875 0 
L 37.796875 17.1875 
L 4.890625 17.1875 
L 4.890625 26.703125 
z
" id="BitstreamVeraSans-Roman-34"/>
      </defs>
      <g transform="translate(76.522987888 302.876875)scale(0.2 -0.2)">
       <use xlink:href="#BitstreamVeraSans-Roman-2d"/>
       <use x="36.083984375" xlink:href="#BitstreamVeraSans-Roman-34"/>
      </g>
     </g>
    </g>
    <g id="xtick_3">
     <g id="line2d_13">
      <path clip-path="url(#p8975bde412)" d="M 126.182829 283.68 
L 126.182829 7.2 
" style="fill:none;stroke:#000000;stroke-dasharray:1.000000,3.000000;stroke-dashoffset:0.0;stroke-width:0.5;"/>
     </g>
     <g id="line2d_14">
      <g>
       <use style="stroke:#000000;stroke-width:0.5;" x="126.182828904" xlink:href="#m30ab5fbcbb" y="283.68"/>
      </g>
     </g>
     <g id="line2d_15">
      <g>
       <use style="stroke:#000000;stroke-width:0.5;" x="126.182828904" xlink:href="#mb9ea551ecc" y="7.2"/>
      </g>
     </g>
     <g id="text_3">
      <!-- -2 -->
      <defs>
       <path d="M 19.1875 8.296875 
L 53.609375 8.296875 
L 53.609375 0 
L 7.328125 0 
L 7.328125 8.296875 
Q 12.9375 14.109375 22.625 23.890625 
Q 32.328125 33.6875 34.8125 36.53125 
Q 39.546875 41.84375 41.421875 45.53125 
Q 43.3125 49.21875 43.3125 52.78125 
Q 43.3125 58.59375 39.234375 62.25 
Q 35.15625 65.921875 28.609375 65.921875 
Q 23.96875 65.921875 18.8125 64.3125 
Q 13.671875 62.703125 7.8125 59.421875 
L 7.8125 69.390625 
Q 13.765625 71.78125 18.9375 73 
Q 24.125 74.21875 28.421875 74.21875 
Q 39.75 74.21875 46.484375 68.546875 
Q 53.21875 62.890625 53.21875 53.421875 
Q 53.21875 48.921875 51.53125 44.890625 
Q 49.859375 40.875 45.40625 35.40625 
Q 44.1875 33.984375 37.640625 27.21875 
Q 31.109375 20.453125 19.1875 8.296875 
" id="BitstreamVeraSans-Roman-32"/>
      </defs>
      <g transform="translate(116.212516404 302.876875)scale(0.2 -0.2)">
       <use xlink:href="#BitstreamVeraSans-Roman-2d"/>
       <use x="36.083984375" xlink:href="#BitstreamVeraSans-Roman-32"/>
      </g>
     </g>
    </g>
    <g id="xtick_4">
     <g id="line2d_16">
      <path clip-path="url(#p8975bde412)" d="M 165.872357 283.68 
L 165.872357 7.2 
" style="fill:none;stroke:#000000;stroke-dasharray:1.000000,3.000000;stroke-dashoffset:0.0;stroke-width:0.5;"/>
     </g>
     <g id="line2d_17">
      <g>
       <use style="stroke:#000000;stroke-width:0.5;" x="165.87235742" xlink:href="#m30ab5fbcbb" y="283.68"/>
      </g>
     </g>
     <g id="line2d_18">
      <g>
       <use style="stroke:#000000;stroke-width:0.5;" x="165.87235742" xlink:href="#mb9ea551ecc" y="7.2"/>
      </g>
     </g>
     <g id="text_4">
      <!-- 0 -->
      <defs>
       <path d="M 31.78125 66.40625 
Q 24.171875 66.40625 20.328125 58.90625 
Q 16.5 51.421875 16.5 36.375 
Q 16.5 21.390625 20.328125 13.890625 
Q 24.171875 6.390625 31.78125 6.390625 
Q 39.453125 6.390625 43.28125 13.890625 
Q 47.125 21.390625 47.125 36.375 
Q 47.125 51.421875 43.28125 58.90625 
Q 39.453125 66.40625 31.78125 66.40625 
M 31.78125 74.21875 
Q 44.046875 74.21875 50.515625 64.515625 
Q 56.984375 54.828125 56.984375 36.375 
Q 56.984375 17.96875 50.515625 8.265625 
Q 44.046875 -1.421875 31.78125 -1.421875 
Q 19.53125 -1.421875 13.0625 8.265625 
Q 6.59375 17.96875 6.59375 36.375 
Q 6.59375 54.828125 13.0625 64.515625 
Q 19.53125 74.21875 31.78125 74.21875 
" id="BitstreamVeraSans-Roman-30"/>
      </defs>
      <g transform="translate(159.50985742 302.876875)scale(0.2 -0.2)">
       <use xlink:href="#BitstreamVeraSans-Roman-30"/>
      </g>
     </g>
    </g>
    <g id="xtick_5">
     <g id="line2d_19">
      <path clip-path="url(#p8975bde412)" d="M 205.561886 283.68 
L 205.561886 7.2 
" style="fill:none;stroke:#000000;stroke-dasharray:1.000000,3.000000;stroke-dashoffset:0.0;stroke-width:0.5;"/>
     </g>
     <g id="line2d_20">
      <g>
       <use style="stroke:#000000;stroke-width:0.5;" x="205.561885936" xlink:href="#m30ab5fbcbb" y="283.68"/>
      </g>
     </g>
     <g id="line2d_21">
      <g>
       <use style="stroke:#000000;stroke-width:0.5;" x="205.561885936" xlink:href="#mb9ea551ecc" y="7.2"/>
      </g>
     </g>
     <g id="text_5">
      <!-- 2 -->
      <g transform="translate(199.199385936 302.876875)scale(0.2 -0.2)">
       <use xlink:href="#BitstreamVeraSans-Roman-32"/>
      </g>
     </g>
    </g>
    <g id="xtick_6">
     <g id="line2d_22">
      <path clip-path="url(#p8975bde412)" d="M 245.251414 283.68 
L 245.251414 7.2 
" style="fill:none;stroke:#000000;stroke-dasharray:1.000000,3.000000;stroke-dashoffset:0.0;stroke-width:0.5;"/>
     </g>
     <g id="line2d_23">
      <g>
       <use style="stroke:#000000;stroke-width:0.5;" x="245.251414452" xlink:href="#m30ab5fbcbb" y="283.68"/>
      </g>
     </g>
     <g id="line2d_24">
      <g>
       <use style="stroke:#000000;stroke-width:0.5;" x="245.251414452" xlink:href="#mb9ea551ecc" y="7.2"/>
      </g>
     </g>
     <g id="text_6">
      <!-- 4 -->
      <g transform="translate(238.888914452 302.876875)scale(0.2 -0.2)">
       <use xlink:href="#BitstreamVeraSans-Roman-34"/>
      </g>
     </g>
    </g>
    <g id="xtick_7">
     <g id="line2d_25">
      <path clip-path="url(#p8975bde412)" d="M 284.940943 283.68 
L 284.940943 7.2 
" style="fill:none;stroke:#000000;stroke-dasharray:1.000000,3.000000;stroke-dashoffset:0.0;stroke-width:0.5;"/>
     </g>
     <g id="line2d_26">
      <g>
       <use style="stroke:#000000;stroke-width:0.5;" x="284.940942968" xlink:href="#m30ab5fbcbb" y="283.68"/>
      </g>
     </g>
     <g id="line2d_27">
      <g>
       <use style="stroke:#000000;stroke-width:0.5;" x="284.940942968" xlink:href="#mb9ea551ecc" y="7.2"/>
      </g>
     </g>
     <g id="text_7">
      <!-- 6 -->
      <g transform="translate(278.578442968 302.876875)scale(0.2 -0.2)">
       <use xlink:href="#BitstreamVeraSans-Roman-36"/>
      </g>
     </g>
    </g>
    <g id="xtick_8">
     <g id="line2d_28">
      <path clip-path="url(#p8975bde412)" d="M 324.630471 283.68 
L 324.630471 7.2 
" style="fill:none;stroke:#000000;stroke-dasharray:1.000000,3.000000;stroke-dashoffset:0.0;stroke-width:0.5;"/>
     </g>
     <g id="line2d_29">
      <g>
       <use style="stroke:#000000;stroke-width:0.5;" x="324.630471484" xlink:href="#m30ab5fbcbb" y="283.68"/>
      </g>
     </g>
     <g id="line2d_30">
      <g>
       <use style="stroke:#000000;stroke-width:0.5;" x="324.630471484" xlink:href="#mb9ea551ecc" y="7.2"/>
      </g>
     </g>
     <g id="text_8">
      <!-- 8 -->
      <defs>
       <path d="M 31.78125 34.625 
Q 24.75 34.625 20.71875 30.859375 
Q 16.703125 27.09375 16.703125 20.515625 
Q 16.703125 13.921875 20.71875 10.15625 
Q 24.75 6.390625 31.78125 6.390625 
Q 38.8125 6.390625 42.859375 10.171875 
Q 46.921875 13.96875 46.921875 20.515625 
Q 46.921875 27.09375 42.890625 30.859375 
Q 38.875 34.625 31.78125 34.625 
M 21.921875 38.8125 
Q 15.578125 40.375 12.03125 44.71875 
Q 8.5 49.078125 8.5 55.328125 
Q 8.5 64.0625 14.71875 69.140625 
Q 20.953125 74.21875 31.78125 74.21875 
Q 42.671875 74.21875 48.875 69.140625 
Q 55.078125 64.0625 55.078125 55.328125 
Q 55.078125 49.078125 51.53125 44.71875 
Q 48 40.375 41.703125 38.8125 
Q 48.828125 37.15625 52.796875 32.3125 
Q 56.78125 27.484375 56.78125 20.515625 
Q 56.78125 9.90625 50.3125 4.234375 
Q 43.84375 -1.421875 31.78125 -1.421875 
Q 19.734375 -1.421875 13.25 4.234375 
Q 6.78125 9.90625 6.78125 20.515625 
Q 6.78125 27.484375 10.78125 32.3125 
Q 14.796875 37.15625 21.921875 38.8125 
M 18.3125 54.390625 
Q 18.3125 48.734375 21.84375 45.5625 
Q 25.390625 42.390625 31.78125 42.390625 
Q 38.140625 42.390625 41.71875 45.5625 
Q 45.3125 48.734375 45.3125 54.390625 
Q 45.3125 60.0625 41.71875 63.234375 
Q 38.140625 66.40625 31.78125 66.40625 
Q 25.390625 66.40625 21.84375 63.234375 
Q 18.3125 60.0625 18.3125 54.390625 
" id="BitstreamVeraSans-Roman-38"/>
      </defs>
      <g transform="translate(318.267971484 302.876875)scale(0.2 -0.2)">
       <use xlink:href="#BitstreamVeraSans-Roman-38"/>
      </g>
     </g>
    </g>
    <g id="xtick_9">
     <g id="line2d_31">
      <path clip-path="url(#p8975bde412)" d="M 364.32 283.68 
L 364.32 7.2 
" style="fill:none;stroke:#000000;stroke-dasharray:1.000000,3.000000;stroke-dashoffset:0.0;stroke-width:0.5;"/>
     </g>
     <g id="line2d_32">
      <g>
       <use style="stroke:#000000;stroke-width:0.5;" x="364.32" xlink:href="#m30ab5fbcbb" y="283.68"/>
      </g>
     </g>
     <g id="line2d_33">
      <g>
       <use style="stroke:#000000;stroke-width:0.5;" x="364.32" xlink:href="#mb9ea551ecc" y="7.2"/>
      </g>
     </g>
    </g>
    <g id="xtick_10">
     <g id="line2d_34">
      <defs>
       <path d="M 0 0 
L 0 -2 
" id="mc53edb4297" style="stroke:#000000;stroke-width:0.5;"/>
      </defs>
      <g>
       <use style="stroke:#000000;stroke-width:0.5;" x="46.803771872" xlink:href="#mc53edb4297" y="283.68"/>
      </g>
     </g>
     <g id="line2d_35">
      <defs>
       <path d="M 0 0 
L 0 2 
" id="me912962d10" style="stroke:#000000;stroke-width:0.5;"/>
      </defs>
      <g>
       <use style="stroke:#000000;stroke-width:0.5;" x="46.803771872" xlink:href="#me912962d10" y="7.2"/>
      </g>
     </g>
    </g>
    <g id="xtick_11">
     <g id="line2d_36">
      <g>
       <use style="stroke:#000000;stroke-width:0.5;" x="86.493300388" xlink:href="#mc53edb4297" y="283.68"/>
      </g>
     </g>
     <g id="line2d_37">
      <g>
       <use style="stroke:#000000;stroke-width:0.5;" x="86.493300388" xlink:href="#me912962d10" y="7.2"/>
      </g>
     </g>
    </g>
    <g id="xtick_12">
     <g id="line2d_38">
      <g>
       <use style="stroke:#000000;stroke-width:0.5;" x="126.182828904" xlink:href="#mc53edb4297" y="283.68"/>
      </g>
     </g>
     <g id="line2d_39">
      <g>
       <use style="stroke:#000000;stroke-width:0.5;" x="126.182828904" xlink:href="#me912962d10" y="7.2"/>
      </g>
     </g>
    </g>
    <g id="xtick_13">
     <g id="line2d_40">
      <g>
       <use style="stroke:#000000;stroke-width:0.5;" x="165.87235742" xlink:href="#mc53edb4297" y="283.68"/>
      </g>
     </g>
     <g id="line2d_41">
      <g>
       <use style="stroke:#000000;stroke-width:0.5;" x="165.87235742" xlink:href="#me912962d10" y="7.2"/>
      </g>
     </g>
    </g>
    <g id="xtick_14">
     <g id="line2d_42">
      <g>
       <use style="stroke:#000000;stroke-width:0.5;" x="205.561885936" xlink:href="#mc53edb4297" y="283.68"/>
      </g>
     </g>
     <g id="line2d_43">
      <g>
       <use style="stroke:#000000;stroke-width:0.5;" x="205.561885936" xlink:href="#me912962d10" y="7.2"/>
      </g>
     </g>
    </g>
    <g id="xtick_15">
     <g id="line2d_44">
      <g>
       <use style="stroke:#000000;stroke-width:0.5;" x="245.251414452" xlink:href="#mc53edb4297" y="283.68"/>
      </g>
     </g>
     <g id="line2d_45">
      <g>
       <use style="stroke:#000000;stroke-width:0.5;" x="245.251414452" xlink:href="#me912962d10" y="7.2"/>
      </g>
     </g>
    </g>
    <g id="xtick_16">
     <g id="line2d_46">
      <g>
       <use style="stroke:#000000;stroke-width:0.5;" x="284.940942968" xlink:href="#mc53edb4297" y="283.68"/>
      </g>
     </g>
     <g id="line2d_47">
      <g>
       <use style="stroke:#000000;stroke-width:0.5;" x="284.940942968" xlink:href="#me912962d10" y="7.2"/>
      </g>
     </g>
    </g>
    <g id="xtick_17">
     <g id="line2d_48">
      <g>
       <use style="stroke:#000000;stroke-width:0.5;" x="324.630471484" xlink:href="#mc53edb4297" y="283.68"/>
      </g>
     </g>
     <g id="line2d_49">
      <g>
       <use style="stroke:#000000;stroke-width:0.5;" x="324.630471484" xlink:href="#me912962d10" y="7.2"/>
      </g>
     </g>
    </g>
    <g id="xtick_18">
     <g id="line2d_50">
      <g>
       <use style="stroke:#000000;stroke-width:0.5;" x="364.32" xlink:href="#mc53edb4297" y="283.68"/>
      </g>
     </g>
     <g id="line2d_51">
      <g>
       <use style="stroke:#000000;stroke-width:0.5;" x="364.32" xlink:href="#me912962d10" y="7.2"/>
      </g>
     </g>
    </g>
    <g id="text_9">
     <!-- log10 of Df -->
     <defs>
      <path id="BitstreamVeraSans-Roman-20"/>
      <path d="M 12.40625 8.296875 
L 28.515625 8.296875 
L 28.515625 63.921875 
L 10.984375 60.40625 
L 10.984375 69.390625 
L 28.421875 72.90625 
L 38.28125 72.90625 
L 38.28125 8.296875 
L 54.390625 8.296875 
L 54.390625 0 
L 12.40625 0 
z
" id="BitstreamVeraSans-Roman-31"/>
      <path d="M 30.609375 48.390625 
Q 23.390625 48.390625 19.1875 42.75 
Q 14.984375 37.109375 14.984375 27.296875 
Q 14.984375 17.484375 19.15625 11.84375 
Q 23.34375 6.203125 30.609375 6.203125 
Q 37.796875 6.203125 41.984375 11.859375 
Q 46.1875 17.53125 46.1875 27.296875 
Q 46.1875 37.015625 41.984375 42.703125 
Q 37.796875 48.390625 30.609375 48.390625 
M 30.609375 56 
Q 42.328125 56 49.015625 48.375 
Q 55.71875 40.765625 55.71875 27.296875 
Q 55.71875 13.875 49.015625 6.21875 
Q 42.328125 -1.421875 30.609375 -1.421875 
Q 18.84375 -1.421875 12.171875 6.21875 
Q 5.515625 13.875 5.515625 27.296875 
Q 5.515625 40.765625 12.171875 48.375 
Q 18.84375 56 30.609375 56 
" id="BitstreamVeraSans-Roman-6f"/>
      <path d="M 9.421875 75.984375 
L 18.40625 75.984375 
L 18.40625 0 
L 9.421875 0 
z
" id="BitstreamVeraSans-Roman-6c"/>
      <path d="M 19.671875 64.796875 
L 19.671875 8.109375 
L 31.59375 8.109375 
Q 46.6875 8.109375 53.6875 14.9375 
Q 60.6875 21.78125 60.6875 36.53125 
Q 60.6875 51.171875 53.6875 57.984375 
Q 46.6875 64.796875 31.59375 64.796875 
z
M 9.8125 72.90625 
L 30.078125 72.90625 
Q 51.265625 72.90625 61.171875 64.09375 
Q 71.09375 55.28125 71.09375 36.53125 
Q 71.09375 17.671875 61.125 8.828125 
Q 51.171875 0 30.078125 0 
L 9.8125 0 
z
" id="BitstreamVeraSans-Roman-44"/>
      <path d="M 45.40625 27.984375 
Q 45.40625 37.75 41.375 43.109375 
Q 37.359375 48.484375 30.078125 48.484375 
Q 22.859375 48.484375 18.828125 43.109375 
Q 14.796875 37.75 14.796875 27.984375 
Q 14.796875 18.265625 18.828125 12.890625 
Q 22.859375 7.515625 30.078125 7.515625 
Q 37.359375 7.515625 41.375 12.890625 
Q 45.40625 18.265625 45.40625 27.984375 
M 54.390625 6.78125 
Q 54.390625 -7.171875 48.1875 -13.984375 
Q 42 -20.796875 29.203125 -20.796875 
Q 24.46875 -20.796875 20.265625 -20.09375 
Q 16.0625 -19.390625 12.109375 -17.921875 
L 12.109375 -9.1875 
Q 16.0625 -11.328125 19.921875 -12.34375 
Q 23.78125 -13.375 27.78125 -13.375 
Q 36.625 -13.375 41.015625 -8.765625 
Q 45.40625 -4.15625 45.40625 5.171875 
L 45.40625 9.625 
Q 42.625 4.78125 38.28125 2.390625 
Q 33.9375 0 27.875 0 
Q 17.828125 0 11.671875 7.65625 
Q 5.515625 15.328125 5.515625 27.984375 
Q 5.515625 40.671875 11.671875 48.328125 
Q 17.828125 56 27.875 56 
Q 33.9375 56 38.28125 53.609375 
Q 42.625 51.21875 45.40625 46.390625 
L 45.40625 54.6875 
L 54.390625 54.6875 
z
" id="BitstreamVeraSans-Roman-67"/>
      <path d="M 37.109375 75.984375 
L 37.109375 68.5 
L 28.515625 68.5 
Q 23.6875 68.5 21.796875 66.546875 
Q 19.921875 64.59375 19.921875 59.515625 
L 19.921875 54.6875 
L 34.71875 54.6875 
L 34.71875 47.703125 
L 19.921875 47.703125 
L 19.921875 0 
L 10.890625 0 
L 10.890625 47.703125 
L 2.296875 47.703125 
L 2.296875 54.6875 
L 10.890625 54.6875 
L 10.890625 58.5 
Q 10.890625 67.625 15.140625 71.796875 
Q 19.390625 75.984375 28.609375 75.984375 
z
" id="BitstreamVeraSans-Roman-66"/>
     </defs>
     <g transform="translate(130.5740625 327.233125)scale(0.2 -0.2)">
      <use xlink:href="#BitstreamVeraSans-Roman-6c"/>
      <use x="27.783203125" xlink:href="#BitstreamVeraSans-Roman-6f"/>
      <use x="88.96484375" xlink:href="#BitstreamVeraSans-Roman-67"/>
      <use x="152.44140625" xlink:href="#BitstreamVeraSans-Roman-31"/>
      <use x="216.064453125" xlink:href="#BitstreamVeraSans-Roman-30"/>
      <use x="279.6875" xlink:href="#BitstreamVeraSans-Roman-20"/>
      <use x="311.474609375" xlink:href="#BitstreamVeraSans-Roman-6f"/>
      <use x="372.65625" xlink:href="#BitstreamVeraSans-Roman-66"/>
      <use x="407.861328125" xlink:href="#BitstreamVeraSans-Roman-20"/>
      <use x="439.6484375" xlink:href="#BitstreamVeraSans-Roman-44"/>
      <use x="516.650390625" xlink:href="#BitstreamVeraSans-Roman-66"/>
     </g>
    </g>
   </g>
   <g id="matplotlib.axis_2">
    <g id="ytick_1">
     <g id="line2d_52">
      <path clip-path="url(#p8975bde412)" d="M 7.2 283.68 
L 364.32 283.68 
" style="fill:none;stroke:#000000;stroke-dasharray:1.000000,3.000000;stroke-dashoffset:0.0;stroke-width:0.5;"/>
     </g>
     <g id="line2d_53">
      <defs>
       <path d="M 0 0 
L 4 0 
" id="mb2cca1f511" style="stroke:#000000;stroke-width:0.5;"/>
      </defs>
      <g>
       <use style="stroke:#000000;stroke-width:0.5;" x="7.2" xlink:href="#mb2cca1f511" y="283.68"/>
      </g>
     </g>
     <g id="line2d_54">
      <defs>
       <path d="M 0 0 
L -4 0 
" id="m967a298b5b" style="stroke:#000000;stroke-width:0.5;"/>
      </defs>
      <g>
       <use style="stroke:#000000;stroke-width:0.5;" x="364.32" xlink:href="#m967a298b5b" y="283.68"/>
      </g>
     </g>
    </g>
    <g id="ytick_2">
     <g id="line2d_55">
      <path clip-path="url(#p8975bde412)" d="M 7.2 228.931485 
L 364.32 228.931485 
" style="fill:none;stroke:#000000;stroke-dasharray:1.000000,3.000000;stroke-dashoffset:0.0;stroke-width:0.5;"/>
     </g>
     <g id="line2d_56">
      <g>
       <use style="stroke:#000000;stroke-width:0.5;" x="7.2" xlink:href="#mb2cca1f511" y="228.931485149"/>
      </g>
     </g>
     <g id="line2d_57">
      <g>
       <use style="stroke:#000000;stroke-width:0.5;" x="364.32" xlink:href="#m967a298b5b" y="228.931485149"/>
      </g>
     </g>
    </g>
    <g id="ytick_3">
     <g id="line2d_58">
      <path clip-path="url(#p8975bde412)" d="M 7.2 174.18297 
L 364.32 174.18297 
" style="fill:none;stroke:#000000;stroke-dasharray:1.000000,3.000000;stroke-dashoffset:0.0;stroke-width:0.5;"/>
     </g>
     <g id="line2d_59">
      <g>
       <use style="stroke:#000000;stroke-width:0.5;" x="7.2" xlink:href="#mb2cca1f511" y="174.182970297"/>
      </g>
     </g>
     <g id="line2d_60">
      <g>
       <use style="stroke:#000000;stroke-width:0.5;" x="364.32" xlink:href="#m967a298b5b" y="174.182970297"/>
      </g>
     </g>
    </g>
    <g id="ytick_4">
     <g id="line2d_61">
      <path clip-path="url(#p8975bde412)" d="M 7.2 119.434455 
L 364.32 119.434455 
" style="fill:none;stroke:#000000;stroke-dasharray:1.000000,3.000000;stroke-dashoffset:0.0;stroke-width:0.5;"/>
     </g>
     <g id="line2d_62">
      <g>
       <use style="stroke:#000000;stroke-width:0.5;" x="7.2" xlink:href="#mb2cca1f511" y="119.434455446"/>
      </g>
     </g>
     <g id="line2d_63">
      <g>
       <use style="stroke:#000000;stroke-width:0.5;" x="364.32" xlink:href="#m967a298b5b" y="119.434455446"/>
      </g>
     </g>
    </g>
    <g id="ytick_5">
     <g id="line2d_64">
      <path clip-path="url(#p8975bde412)" d="M 7.2 64.685941 
L 364.32 64.685941 
" style="fill:none;stroke:#000000;stroke-dasharray:1.000000,3.000000;stroke-dashoffset:0.0;stroke-width:0.5;"/>
     </g>
     <g id="line2d_65">
      <g>
       <use style="stroke:#000000;stroke-width:0.5;" x="7.2" xlink:href="#mb2cca1f511" y="64.6859405941"/>
      </g>
     </g>
     <g id="line2d_66">
      <g>
       <use style="stroke:#000000;stroke-width:0.5;" x="364.32" xlink:href="#m967a298b5b" y="64.6859405941"/>
      </g>
     </g>
    </g>
    <g id="ytick_6">
     <g id="line2d_67">
      <path clip-path="url(#p8975bde412)" d="M 7.2 9.937426 
L 364.32 9.937426 
" style="fill:none;stroke:#000000;stroke-dasharray:1.000000,3.000000;stroke-dashoffset:0.0;stroke-width:0.5;"/>
     </g>
     <g id="line2d_68">
      <g>
       <use style="stroke:#000000;stroke-width:0.5;" x="7.2" xlink:href="#mb2cca1f511" y="9.93742574257"/>
      </g>
     </g>
     <g id="line2d_69">
      <g>
       <use style="stroke:#000000;stroke-width:0.5;" x="364.32" xlink:href="#m967a298b5b" y="9.93742574257"/>
      </g>
     </g>
    </g>
   </g>
   <g id="text_10">
    <!-- f10-14,5-D -->
    <defs>
     <path d="M 11.71875 12.40625 
L 22.015625 12.40625 
L 22.015625 4 
L 14.015625 -11.625 
L 7.71875 -11.625 
L 11.71875 4 
z
" id="BitstreamVeraSans-Roman-2c"/>
     <path d="M 10.796875 72.90625 
L 49.515625 72.90625 
L 49.515625 64.59375 
L 19.828125 64.59375 
L 19.828125 46.734375 
Q 21.96875 47.46875 24.109375 47.828125 
Q 26.265625 48.1875 28.421875 48.1875 
Q 40.625 48.1875 47.75 41.5 
Q 54.890625 34.8125 54.890625 23.390625 
Q 54.890625 11.625 47.5625 5.09375 
Q 40.234375 -1.421875 26.90625 -1.421875 
Q 22.3125 -1.421875 17.546875 -0.640625 
Q 12.796875 0.140625 7.71875 1.703125 
L 7.71875 11.625 
Q 12.109375 9.234375 16.796875 8.0625 
Q 21.484375 6.890625 26.703125 6.890625 
Q 35.15625 6.890625 40.078125 11.328125 
Q 45.015625 15.765625 45.015625 23.390625 
Q 45.015625 31 40.078125 35.4375 
Q 35.15625 39.890625 26.703125 39.890625 
Q 22.75 39.890625 18.8125 39.015625 
Q 14.890625 38.140625 10.796875 36.28125 
z
" id="BitstreamVeraSans-Roman-35"/>
    </defs>
    <g transform="translate(250.324475 278.1504)scale(0.2 -0.2)">
     <use xlink:href="#BitstreamVeraSans-Roman-66"/>
     <use x="35.205078125" xlink:href="#BitstreamVeraSans-Roman-31"/>
     <use x="98.828125" xlink:href="#BitstreamVeraSans-Roman-30"/>
     <use x="162.451171875" xlink:href="#BitstreamVeraSans-Roman-2d"/>
     <use x="198.53515625" xlink:href="#BitstreamVeraSans-Roman-31"/>
     <use x="262.158203125" xlink:href="#BitstreamVeraSans-Roman-34"/>
     <use x="325.78125" xlink:href="#BitstreamVeraSans-Roman-2c"/>
     <use x="357.568359375" xlink:href="#BitstreamVeraSans-Roman-35"/>
     <use x="421.19140625" xlink:href="#BitstreamVeraSans-Roman-2d"/>
     <use x="457.275390625" xlink:href="#BitstreamVeraSans-Roman-44"/>
    </g>
   </g>
  </g>
 </g>
 <defs>
  <clipPath id="p8975bde412">
   <rect height="276.48" width="357.12" x="7.2" y="7.2"/>
  </clipPath>
 </defs>
</svg>
