<?xml version="1.0" encoding="utf-8" standalone="no"?>
<!DOCTYPE svg PUBLIC "-//W3C//DTD SVG 1.1//EN"
  "http://www.w3.org/Graphics/SVG/1.1/DTD/svg11.dtd">
<!-- Created with matplotlib (http://matplotlib.org/) -->
<svg height="338pt" version="1.1" viewBox="0 0 371 338" width="371pt" xmlns="http://www.w3.org/2000/svg" xmlns:xlink="http://www.w3.org/1999/xlink">
 <defs>
  <style type="text/css">
*{stroke-linecap:butt;stroke-linejoin:round;stroke-miterlimit:100000;}
  </style>
 </defs>
 <g id="figure_1">
  <g id="patch_1">
   <path d="M 0 338.5925 
L 371.52 338.5925 
L 371.52 0 
L 0 0 
z
" style="fill:#ffffff;"/>
  </g>
  <g id="axes_1">
   <g id="patch_2">
    <path d="M 7.2 283.68 
L 364.32 283.68 
L 364.32 7.2 
L 7.2 7.2 
z
" style="fill:#ffffff;"/>
   </g>
   <g id="line2d_1">
    <path clip-path="url(#p903e87ed50)" d="M 169.792608 283.68 
L 169.792608 280.030099 
L 172.559529 280.030099 
L 172.559529 276.380198 
L 173.077628 276.380198 
L 173.077628 272.730297 
L 173.63678 272.730297 
L 173.63678 269.080396 
L 174.061887 269.080396 
L 174.061887 265.430495 
L 174.190828 265.430495 
L 174.225946 258.130693 
L 174.613607 258.130693 
L 174.613607 254.480792 
L 174.784776 254.480792 
L 174.827994 247.18099 
L 174.975263 247.18099 
L 174.975263 243.531089 
L 175.520871 243.531089 
L 175.520871 239.881188 
L 175.703886 239.881188 
L 175.73313 232.581386 
L 175.84867 232.581386 
L 175.84867 228.931485 
L 176.119419 228.931485 
L 176.151188 221.631683 
L 176.343276 221.631683 
L 176.343276 217.981782 
L 176.600249 217.981782 
L 176.600249 214.331881 
L 177.196259 214.331881 
L 177.196259 210.68198 
L 177.364865 210.68198 
L 177.364865 207.032079 
L 177.579323 207.032079 
L 177.579323 203.382178 
L 178.979964 203.382178 
L 178.979964 199.732277 
L 179.491114 199.732277 
L 179.518884 192.432475 
L 180.224193 192.432475 
L 180.224193 188.782574 
L 180.794484 188.782574 
L 180.794484 185.132673 
L 181.3184 185.132673 
L 181.3184 181.482772 
L 182.115988 181.482772 
L 182.177226 174.18297 
L 182.362169 174.18297 
L 182.362169 170.533069 
L 183.145716 170.533069 
L 183.227731 159.583366 
L 183.586663 159.583366 
L 183.689435 152.283564 
L 184.004471 152.283564 
L 184.010541 144.983762 
L 184.549347 144.983762 
L 184.549347 141.333861 
L 184.750544 141.333861 
L 184.750544 137.68396 
L 184.922197 137.68396 
L 184.922197 134.034059 
L 185.087665 134.034059 
L 185.171874 126.734257 
L 185.768859 126.734257 
L 185.768859 123.084356 
L 186.69586 123.084356 
L 186.69586 119.434455 
L 187.437192 119.434455 
L 187.501737 108.484752 
L 188.433965 108.484752 
L 188.433965 104.834851 
L 190.547099 104.834851 
L 190.547099 101.18495 
L 191.386077 101.18495 
L 191.386077 97.53505 
L 192.330043 97.53505 
L 192.330043 93.885149 
L 196.562229 93.885149 
L 196.58378 86.585347 
L 198.113705 86.585347 
L 198.160017 75.635644 
L 198.490469 75.635644 
L 198.490469 71.985743 
L 198.911247 71.985743 
L 198.911247 68.335842 
L 199.022697 68.335842 
L 199.084183 61.03604 
L 199.345928 61.03604 
L 199.345928 57.386139 
L 199.511114 57.386139 
L 199.511114 53.736238 
L 199.845708 53.736238 
L 199.845708 50.086337 
L 200.402318 50.086337 
L 200.433775 39.136634 
L 200.932472 39.136634 
L 200.932472 35.486733 
L 201.998943 35.486733 
L 201.998943 31.836832 
L 208.203708 31.836832 
L 208.203708 28.186931 
L 208.68699 28.186931 
L 208.68699 24.53703 
L 216.621248 24.53703 
L 216.621248 20.887129 
L 217.664277 20.887129 
L 217.664277 17.237228 
L 220.569734 17.237228 
L 220.569734 13.587327 
L 225.878768 13.587327 
L 225.878768 9.937426 
L 364.32 9.937426 
L 364.32 9.937426 
" style="fill:none;stroke:#ff0000;stroke-linecap:square;stroke-width:3.0;"/>
   </g>
   <g id="line2d_2">
    <path clip-path="url(#p903e87ed50)" d="M 182.487173 283.68 
L 182.487173 280.030099 
L 182.487173 280.030099 
L 182.487173 280.030099 
L 182.5667 280.030099 
L 182.5667 276.380198 
L 182.760443 276.380198 
L 182.760443 272.730297 
L 183.115861 272.730297 
L 183.115861 269.080396 
L 184.219731 269.080396 
L 184.219731 265.430495 
L 184.772415 265.430495 
L 184.846169 258.130693 
L 184.94995 258.130693 
L 184.94995 254.480792 
L 186.999543 254.480792 
L 186.999543 250.830891 
L 187.435072 250.830891 
L 187.435072 247.18099 
L 188.18132 247.18099 
L 188.288052 239.881188 
L 189.307198 239.881188 
L 189.307198 236.231287 
L 189.64405 236.231287 
L 189.64405 232.581386 
L 192.16872 232.581386 
L 192.16872 228.931485 
L 195.382878 228.931485 
L 195.382878 225.281584 
L 196.50592 225.281584 
L 196.50592 221.631683 
L 196.654658 221.631683 
L 196.727786 214.331881 
L 196.988543 214.331881 
L 196.988543 210.68198 
L 198.466484 210.68198 
L 198.466484 207.032079 
L 199.77891 207.032079 
L 199.845708 199.732277 
L 199.949317 199.732277 
L 199.949317 196.082376 
L 200.539368 196.082376 
L 200.585972 188.782574 
L 201.054131 188.782574 
L 201.054131 185.132673 
L 201.271263 185.132673 
L 201.271263 181.482772 
L 201.480955 181.482772 
L 201.480955 177.832871 
L 201.708768 177.832871 
L 201.726179 170.533069 
L 201.864339 170.533069 
L 201.864339 166.883168 
L 202.103595 166.883168 
L 202.104065 159.583366 
L 202.247255 159.583366 
L 202.272914 152.283564 
L 202.47654 152.283564 
L 202.542877 144.983762 
L 202.795906 144.983762 
L 202.807725 137.68396 
L 202.944496 137.68396 
L 202.960148 130.384158 
L 203.090017 130.384158 
L 203.090017 126.734257 
L 203.471466 126.734257 
L 203.575104 119.434455 
L 203.656309 119.434455 
L 203.764671 112.134653 
L 203.877304 112.134653 
L 203.877304 108.484752 
L 204.014106 108.484752 
L 204.014106 104.834851 
L 204.191534 104.834851 
L 204.191534 101.18495 
L 204.59546 101.18495 
L 204.59546 97.53505 
L 204.82919 97.53505 
L 204.82919 93.885149 
L 205.623187 93.885149 
L 205.623187 90.235248 
L 206.702276 90.235248 
L 206.713877 82.935446 
L 206.861358 82.935446 
L 206.861358 79.285545 
L 207.091918 79.285545 
L 207.091918 75.635644 
L 207.206592 75.635644 
L 207.206592 71.985743 
L 207.591563 71.985743 
L 207.591563 68.335842 
L 207.789673 68.335842 
L 207.789673 64.685941 
L 240.253957 64.685941 
L 240.253957 61.03604 
L 242.360815 61.03604 
L 242.360815 57.386139 
L 243.210673 57.386139 
L 243.210673 53.736238 
L 246.973438 53.736238 
L 246.973438 50.086337 
L 250.014414 50.086337 
L 250.014414 46.436436 
L 250.31809 46.436436 
L 250.31809 42.786535 
L 251.185245 42.786535 
L 251.185245 39.136634 
L 253.075609 39.136634 
L 253.075609 35.486733 
L 253.242751 35.486733 
L 253.242751 31.836832 
L 255.858747 31.836832 
L 255.858747 28.186931 
L 258.445362 28.186931 
L 258.445362 24.53703 
L 259.441641 24.53703 
L 259.441641 20.887129 
L 262.287225 20.887129 
L 262.287225 17.237228 
L 265.384396 17.237228 
L 265.384396 13.587327 
L 266.201019 13.587327 
L 266.201019 9.937426 
L 364.32 9.937426 
L 364.32 9.937426 
" style="fill:none;stroke:#00bfbf;stroke-linecap:square;"/>
   </g>
   <g id="line2d_3">
    <path clip-path="url(#p903e87ed50)" d="M 175.848794 283.68 
L 175.848794 280.030099 
L 181.429268 280.030099 
L 181.429268 276.380198 
L 182.487173 276.380198 
L 182.487173 272.730297 
L 182.760443 272.730297 
L 182.760443 269.080396 
L 183.115861 269.080396 
L 183.115861 265.430495 
L 183.863757 265.430495 
L 183.863757 261.780594 
L 184.219731 261.780594 
L 184.219731 258.130693 
L 184.772415 258.130693 
L 184.846169 250.830891 
L 184.94995 250.830891 
L 184.94995 247.18099 
L 185.167392 247.18099 
L 185.167392 243.531089 
L 186.418016 243.531089 
L 186.418016 239.881188 
L 186.999543 239.881188 
L 186.999543 236.231287 
L 187.435072 236.231287 
L 187.435072 232.581386 
L 187.626155 232.581386 
L 187.626155 228.931485 
L 187.899534 228.931485 
L 187.899534 225.281584 
L 188.654308 225.281584 
L 188.654308 221.631683 
L 191.367811 221.631683 
L 191.367811 217.981782 
L 192.498244 217.981782 
L 192.498244 214.331881 
L 193.666456 214.331881 
L 193.666456 210.68198 
L 195.378768 210.68198 
L 195.382878 203.382178 
L 195.628256 203.382178 
L 195.668952 196.082376 
L 196.181794 196.082376 
L 196.181794 192.432475 
L 196.418781 192.432475 
L 196.50592 185.132673 
L 196.654658 185.132673 
L 196.727786 177.832871 
L 196.914989 177.832871 
L 196.988543 170.533069 
L 198.466484 170.533069 
L 198.466484 166.883168 
L 199.845708 166.883168 
L 199.845708 163.233267 
L 200.539368 163.233267 
L 200.585972 155.933465 
L 201.053569 155.933465 
L 201.053569 152.283564 
L 201.385567 152.283564 
L 201.385567 148.633663 
L 201.740145 148.633663 
L 201.740145 144.983762 
L 201.864339 144.983762 
L 201.864339 141.333861 
L 202.346904 141.333861 
L 202.382816 134.034059 
L 202.47654 134.034059 
L 202.586518 126.734257 
L 202.60857 126.734257 
L 202.689468 119.434455 
L 202.944496 119.434455 
L 203.009462 108.484752 
L 203.287838 108.484752 
L 203.287838 104.834851 
L 203.575104 104.834851 
L 203.656309 93.885149 
L 204.199047 93.885149 
L 204.305422 86.585347 
L 204.375608 86.585347 
L 204.375608 82.935446 
L 204.59546 82.935446 
L 204.59546 79.285545 
L 205.786461 79.285545 
L 205.819807 71.985743 
L 206.792738 71.985743 
L 206.792738 68.335842 
L 207.206592 68.335842 
L 207.206592 64.685941 
L 237.305592 64.685941 
L 237.305592 61.03604 
L 238.275459 61.03604 
L 238.275459 57.386139 
L 238.787741 57.386139 
L 238.787741 53.736238 
L 239.249658 53.736238 
L 239.310116 46.436436 
L 240.253957 46.436436 
L 240.253957 42.786535 
L 241.321785 42.786535 
L 241.321785 39.136634 
L 241.623529 39.136634 
L 241.623529 35.486733 
L 242.378123 35.486733 
L 242.378123 31.836832 
L 243.180134 31.836832 
L 243.210673 24.53703 
L 243.899202 24.53703 
L 243.899202 20.887129 
L 245.088296 20.887129 
L 245.088296 17.237228 
L 250.014414 17.237228 
L 250.014414 13.587327 
L 252.980329 13.587327 
L 252.980329 9.937426 
L 364.32 9.937426 
L 364.32 9.937426 
" style="fill:none;stroke:#bf00bf;stroke-linecap:square;"/>
   </g>
   <g id="line2d_4">
    <path clip-path="url(#p903e87ed50)" d="M 174.811233 283.68 
L 174.811233 280.030099 
L 174.975263 280.030099 
L 174.975263 276.380198 
L 175.73313 276.380198 
L 175.73313 272.730297 
L 175.848794 272.730297 
L 175.848794 269.080396 
L 177.41339 269.080396 
L 177.41339 265.430495 
L 179.864665 265.430495 
L 179.864665 261.780594 
L 180.998039 261.780594 
L 180.998039 258.130693 
L 181.429268 258.130693 
L 181.429268 254.480792 
L 182.723049 254.480792 
L 182.723049 250.830891 
L 182.884955 250.830891 
L 182.884955 247.18099 
L 183.306319 247.18099 
L 183.306319 243.531089 
L 184.219731 243.531089 
L 184.219731 239.881188 
L 184.846169 239.881188 
L 184.942832 232.581386 
L 185.167392 232.581386 
L 185.167392 228.931485 
L 185.576947 228.931485 
L 185.576947 225.281584 
L 186.418016 225.281584 
L 186.418016 221.631683 
L 187.626155 221.631683 
L 187.626155 217.981782 
L 187.899534 217.981782 
L 187.899534 214.331881 
L 191.367811 214.331881 
L 191.367811 210.68198 
L 191.715499 210.68198 
L 191.715499 207.032079 
L 191.852617 207.032079 
L 191.852617 203.382178 
L 192.11485 203.382178 
L 192.11485 199.732277 
L 193.347128 199.732277 
L 193.347128 196.082376 
L 193.640488 196.082376 
L 193.666456 185.132673 
L 193.852196 185.132673 
L 193.852196 181.482772 
L 194.2275 181.482772 
L 194.2275 177.832871 
L 194.810795 177.832871 
L 194.810795 174.18297 
L 194.98998 174.18297 
L 194.98998 170.533069 
L 195.382878 170.533069 
L 195.382878 166.883168 
L 195.628256 166.883168 
L 195.628256 163.233267 
L 196.119059 163.233267 
L 196.119059 159.583366 
L 196.654658 159.583366 
L 196.654658 155.933465 
L 196.914989 155.933465 
L 196.988543 148.633663 
L 197.07662 148.633663 
L 197.07662 144.983762 
L 197.753248 144.983762 
L 197.753248 141.333861 
L 197.994308 141.333861 
L 197.994308 137.68396 
L 199.845708 137.68396 
L 199.845708 134.034059 
L 200.341303 134.034059 
L 200.341303 130.384158 
L 200.509073 130.384158 
L 200.509073 126.734257 
L 200.687245 126.734257 
L 200.687245 123.084356 
L 200.829604 123.084356 
L 200.829604 119.434455 
L 201.053569 119.434455 
L 201.053569 115.784554 
L 201.385567 115.784554 
L 201.385567 112.134653 
L 201.740145 112.134653 
L 201.740145 108.484752 
L 202.183707 108.484752 
L 202.183707 104.834851 
L 202.758679 104.834851 
L 202.758679 101.18495 
L 202.960148 101.18495 
L 202.960148 97.53505 
L 203.088937 97.53505 
L 203.088937 93.885149 
L 203.429678 93.885149 
L 203.429678 90.235248 
L 203.575104 90.235248 
L 203.656309 79.285545 
L 204.199047 79.285545 
L 204.199047 75.635644 
L 205.699007 75.635644 
L 205.699007 71.985743 
L 205.819807 71.985743 
L 205.819807 68.335842 
L 206.792738 68.335842 
L 206.792738 64.685941 
L 213.777248 64.685941 
L 213.777248 61.03604 
L 215.223613 61.03604 
L 215.223613 57.386139 
L 234.326376 57.386139 
L 234.374999 50.086337 
L 237.305592 50.086337 
L 237.345309 42.786535 
L 237.855523 42.786535 
L 237.855523 39.136634 
L 238.695398 39.136634 
L 238.787741 31.836832 
L 239.310116 31.836832 
L 239.310116 28.186931 
L 240.109583 28.186931 
L 240.109583 24.53703 
L 240.742119 24.53703 
L 240.742119 20.887129 
L 243.180134 20.887129 
L 243.210673 13.587327 
L 243.512853 13.587327 
L 243.512853 9.937426 
L 364.32 9.937426 
L 364.32 9.937426 
" style="fill:none;stroke:#000000;stroke-linecap:square;"/>
   </g>
   <g id="line2d_5">
    <path clip-path="url(#p903e87ed50)" d="M 172.559529 283.68 
L 172.559529 280.030099 
L 173.077628 280.030099 
L 173.077628 276.380198 
L 174.811233 276.380198 
L 174.811233 272.730297 
L 174.975263 272.730297 
L 174.975263 269.080396 
L 175.597059 269.080396 
L 175.597059 265.430495 
L 175.73313 265.430495 
L 175.73313 261.780594 
L 175.848794 261.780594 
L 175.848794 258.130693 
L 176.600249 258.130693 
L 176.600249 254.480792 
L 176.876314 254.480792 
L 176.876314 250.830891 
L 177.364865 250.830891 
L 177.364865 247.18099 
L 178.315626 247.18099 
L 178.315626 243.531089 
L 178.717594 243.531089 
L 178.717594 239.881188 
L 179.870081 239.881188 
L 179.870081 236.231287 
L 180.393655 236.231287 
L 180.393655 232.581386 
L 180.741264 232.581386 
L 180.794484 225.281584 
L 180.998039 225.281584 
L 180.998039 221.631683 
L 181.197619 221.631683 
L 181.197619 217.981782 
L 181.3184 217.981782 
L 181.3184 214.331881 
L 183.064814 214.331881 
L 183.064814 210.68198 
L 184.922197 210.68198 
L 184.922197 207.032079 
L 185.576947 207.032079 
L 185.576947 203.382178 
L 185.768859 203.382178 
L 185.768859 199.732277 
L 186.418016 199.732277 
L 186.418016 196.082376 
L 187.899534 196.082376 
L 187.899534 192.432475 
L 189.457212 192.432475 
L 189.457212 188.782574 
L 189.953847 188.782574 
L 189.953847 185.132673 
L 191.161436 185.132673 
L 191.161436 181.482772 
L 191.367811 181.482772 
L 191.386077 174.18297 
L 191.715499 174.18297 
L 191.739643 166.883168 
L 191.838548 166.883168 
L 191.838548 163.233267 
L 192.11485 163.233267 
L 192.11485 159.583366 
L 192.330043 159.583366 
L 192.330043 155.933465 
L 192.823406 155.933465 
L 192.859854 148.633663 
L 192.953266 148.633663 
L 192.953266 144.983762 
L 193.640488 144.983762 
L 193.640488 141.333861 
L 193.852196 141.333861 
L 193.852196 137.68396 
L 193.981469 137.68396 
L 193.981469 134.034059 
L 194.2275 134.034059 
L 194.2275 130.384158 
L 194.555546 130.384158 
L 194.555546 126.734257 
L 194.98998 126.734257 
L 194.98998 123.084356 
L 195.119634 123.084356 
L 195.119634 119.434455 
L 196.179255 119.434455 
L 196.179255 115.784554 
L 198.133432 115.784554 
L 198.133432 112.134653 
L 199.180875 112.134653 
L 199.180875 108.484752 
L 199.610183 108.484752 
L 199.610183 104.834851 
L 199.845708 104.834851 
L 199.845708 101.18495 
L 200.105555 101.18495 
L 200.105555 97.53505 
L 200.829604 97.53505 
L 200.829604 93.885149 
L 201.053569 93.885149 
L 201.053569 90.235248 
L 201.456465 90.235248 
L 201.489284 82.935446 
L 201.62153 82.935446 
L 201.636411 75.635644 
L 201.740145 75.635644 
L 201.740145 71.985743 
L 202.417339 71.985743 
L 202.417339 68.335842 
L 202.61738 68.335842 
L 202.61738 64.685941 
L 202.877291 64.685941 
L 202.877291 61.03604 
L 203.255235 61.03604 
L 203.255235 57.386139 
L 203.582175 57.386139 
L 203.582175 53.736238 
L 213.777248 53.736238 
L 213.777248 50.086337 
L 216.066902 50.086337 
L 216.066902 46.436436 
L 216.621248 46.436436 
L 216.621248 42.786535 
L 224.311402 42.786535 
L 224.311402 39.136634 
L 226.510349 39.136634 
L 226.510349 35.486733 
L 230.887659 35.486733 
L 230.887659 31.836832 
L 231.23848 31.836832 
L 231.23848 28.186931 
L 232.870797 28.186931 
L 232.870797 24.53703 
L 233.869439 24.53703 
L 233.951715 17.237228 
L 235.681196 17.237228 
L 235.681196 13.587327 
L 237.855523 13.587327 
L 237.855523 9.937426 
L 364.32 9.937426 
L 364.32 9.937426 
" style="fill:none;stroke:#00bfbf;stroke-linecap:square;"/>
   </g>
   <g id="line2d_6">
    <path clip-path="url(#p903e87ed50)" d="M 171.047073 283.68 
L 171.047073 280.030099 
L 171.332071 280.030099 
L 171.332071 276.380198 
L 171.829089 276.380198 
L 171.829089 272.730297 
L 172.072663 272.730297 
L 172.135561 265.430495 
L 173.077628 265.430495 
L 173.077628 261.780594 
L 173.192561 261.780594 
L 173.192561 258.130693 
L 173.63678 258.130693 
L 173.65951 250.830891 
L 174.017716 250.830891 
L 174.061852 243.531089 
L 174.190828 243.531089 
L 174.225946 236.231287 
L 174.827993 236.231287 
L 174.900586 228.931485 
L 175.520871 228.931485 
L 175.520871 225.281584 
L 175.84867 225.281584 
L 175.84867 221.631683 
L 176.056247 221.631683 
L 176.056247 217.981782 
L 176.665893 217.981782 
L 176.665893 214.331881 
L 177.196259 214.331881 
L 177.196259 210.68198 
L 177.338844 210.68198 
L 177.338844 207.032079 
L 177.579323 207.032079 
L 177.579323 203.382178 
L 177.819184 203.382178 
L 177.819184 199.732277 
L 178.796524 199.732277 
L 178.796524 196.082376 
L 179.216897 196.082376 
L 179.216897 192.432475 
L 179.518878 192.432475 
L 179.518878 188.782574 
L 180.173081 188.782574 
L 180.173081 185.132673 
L 181.629397 185.132673 
L 181.629397 181.482772 
L 182.115988 181.482772 
L 182.115988 177.832871 
L 182.929412 177.832871 
L 182.929412 174.18297 
L 183.318393 174.18297 
L 183.318393 170.533069 
L 183.691304 170.533069 
L 183.740011 163.233267 
L 184.004471 163.233267 
L 184.09426 152.283564 
L 184.608998 152.283564 
L 184.630452 144.983762 
L 184.872503 144.983762 
L 184.965833 134.034059 
L 185.087665 134.034059 
L 185.171874 126.734257 
L 185.378325 126.734257 
L 185.378325 123.084356 
L 185.824472 123.084356 
L 185.824472 119.434455 
L 186.092678 119.434455 
L 186.092678 115.784554 
L 187.047971 115.784554 
L 187.047971 112.134653 
L 187.501737 112.134653 
L 187.501737 108.484752 
L 187.93389 108.484752 
L 187.93389 104.834851 
L 188.422458 104.834851 
L 188.422458 101.18495 
L 188.815787 101.18495 
L 188.815787 97.53505 
L 191.661334 97.53505 
L 191.661334 93.885149 
L 195.612339 93.885149 
L 195.612339 90.235248 
L 196.169017 90.235248 
L 196.169017 86.585347 
L 196.562229 86.585347 
L 196.656809 79.285545 
L 197.894612 79.285545 
L 197.894612 75.635644 
L 198.113705 75.635644 
L 198.133432 68.335842 
L 198.318865 68.335842 
L 198.415156 61.03604 
L 198.490469 61.03604 
L 198.583154 53.736238 
L 198.911247 53.736238 
L 198.911247 50.086337 
L 199.078936 50.086337 
L 199.078936 46.436436 
L 199.345928 46.436436 
L 199.345928 42.786535 
L 199.71337 42.786535 
L 199.801889 35.486733 
L 201.239974 35.486733 
L 201.239974 31.836832 
L 201.994077 31.836832 
L 201.994077 28.186931 
L 204.694936 28.186931 
L 204.694936 24.53703 
L 217.664277 24.53703 
L 217.664277 20.887129 
L 219.510222 20.887129 
L 219.510222 17.237228 
L 226.254349 17.237228 
L 226.254349 13.587327 
L 226.510349 13.587327 
L 226.510349 9.937426 
L 364.32 9.937426 
L 364.32 9.937426 
" style="fill:none;stroke:#bf00bf;stroke-linecap:square;"/>
   </g>
   <g id="patch_3">
    <path d="M 7.2 7.2 
L 364.32 7.2 
" style="fill:none;stroke:#000000;stroke-linecap:square;stroke-linejoin:miter;"/>
   </g>
   <g id="patch_4">
    <path d="M 364.32 283.68 
L 364.32 7.2 
" style="fill:none;stroke:#000000;stroke-linecap:square;stroke-linejoin:miter;"/>
   </g>
   <g id="patch_5">
    <path d="M 7.2 283.68 
L 364.32 283.68 
" style="fill:none;stroke:#000000;stroke-linecap:square;stroke-linejoin:miter;"/>
   </g>
   <g id="patch_6">
    <path d="M 7.2 283.68 
L 7.2 7.2 
" style="fill:none;stroke:#000000;stroke-linecap:square;stroke-linejoin:miter;"/>
   </g>
   <g id="matplotlib.axis_1">
    <g id="xtick_1">
     <g id="line2d_7">
      <path clip-path="url(#p903e87ed50)" d="M 46.803772 283.68 
L 46.803772 7.2 
" style="fill:none;stroke:#000000;stroke-dasharray:1.000000,3.000000;stroke-dashoffset:0.0;stroke-width:0.5;"/>
     </g>
     <g id="line2d_8">
      <defs>
       <path d="M 0 0 
L 0 -4 
" id="m5b91cf6e91" style="stroke:#000000;stroke-width:0.5;"/>
      </defs>
      <g>
       <use style="stroke:#000000;stroke-width:0.5;" x="46.803771872" xlink:href="#m5b91cf6e91" y="283.68"/>
      </g>
     </g>
     <g id="line2d_9">
      <defs>
       <path d="M 0 0 
L 0 4 
" id="m950e195b13" style="stroke:#000000;stroke-width:0.5;"/>
      </defs>
      <g>
       <use style="stroke:#000000;stroke-width:0.5;" x="46.803771872" xlink:href="#m950e195b13" y="7.2"/>
      </g>
     </g>
     <g id="text_1">
      <!-- -6 -->
      <defs>
       <path d="M 33.015625 40.375 
Q 26.375 40.375 22.484375 35.828125 
Q 18.609375 31.296875 18.609375 23.390625 
Q 18.609375 15.53125 22.484375 10.953125 
Q 26.375 6.390625 33.015625 6.390625 
Q 39.65625 6.390625 43.53125 10.953125 
Q 47.40625 15.53125 47.40625 23.390625 
Q 47.40625 31.296875 43.53125 35.828125 
Q 39.65625 40.375 33.015625 40.375 
M 52.59375 71.296875 
L 52.59375 62.3125 
Q 48.875 64.0625 45.09375 64.984375 
Q 41.3125 65.921875 37.59375 65.921875 
Q 27.828125 65.921875 22.671875 59.328125 
Q 17.53125 52.734375 16.796875 39.40625 
Q 19.671875 43.65625 24.015625 45.921875 
Q 28.375 48.1875 33.59375 48.1875 
Q 44.578125 48.1875 50.953125 41.515625 
Q 57.328125 34.859375 57.328125 23.390625 
Q 57.328125 12.15625 50.6875 5.359375 
Q 44.046875 -1.421875 33.015625 -1.421875 
Q 20.359375 -1.421875 13.671875 8.265625 
Q 6.984375 17.96875 6.984375 36.375 
Q 6.984375 53.65625 15.1875 63.9375 
Q 23.390625 74.21875 37.203125 74.21875 
Q 40.921875 74.21875 44.703125 73.484375 
Q 48.484375 72.75 52.59375 71.296875 
" id="BitstreamVeraSans-Roman-36"/>
       <path d="M 4.890625 31.390625 
L 31.203125 31.390625 
L 31.203125 23.390625 
L 4.890625 23.390625 
z
" id="BitstreamVeraSans-Roman-2d"/>
      </defs>
      <g transform="translate(36.833459372 302.876875)scale(0.2 -0.2)">
       <use xlink:href="#BitstreamVeraSans-Roman-2d"/>
       <use x="36.083984375" xlink:href="#BitstreamVeraSans-Roman-36"/>
      </g>
     </g>
    </g>
    <g id="xtick_2">
     <g id="line2d_10">
      <path clip-path="url(#p903e87ed50)" d="M 86.4933 283.68 
L 86.4933 7.2 
" style="fill:none;stroke:#000000;stroke-dasharray:1.000000,3.000000;stroke-dashoffset:0.0;stroke-width:0.5;"/>
     </g>
     <g id="line2d_11">
      <g>
       <use style="stroke:#000000;stroke-width:0.5;" x="86.493300388" xlink:href="#m5b91cf6e91" y="283.68"/>
      </g>
     </g>
     <g id="line2d_12">
      <g>
       <use style="stroke:#000000;stroke-width:0.5;" x="86.493300388" xlink:href="#m950e195b13" y="7.2"/>
      </g>
     </g>
     <g id="text_2">
      <!-- -4 -->
      <defs>
       <path d="M 37.796875 64.3125 
L 12.890625 25.390625 
L 37.796875 25.390625 
z
M 35.203125 72.90625 
L 47.609375 72.90625 
L 47.609375 25.390625 
L 58.015625 25.390625 
L 58.015625 17.1875 
L 47.609375 17.1875 
L 47.609375 0 
L 37.796875 0 
L 37.796875 17.1875 
L 4.890625 17.1875 
L 4.890625 26.703125 
z
" id="BitstreamVeraSans-Roman-34"/>
      </defs>
      <g transform="translate(76.522987888 302.876875)scale(0.2 -0.2)">
       <use xlink:href="#BitstreamVeraSans-Roman-2d"/>
       <use x="36.083984375" xlink:href="#BitstreamVeraSans-Roman-34"/>
      </g>
     </g>
    </g>
    <g id="xtick_3">
     <g id="line2d_13">
      <path clip-path="url(#p903e87ed50)" d="M 126.182829 283.68 
L 126.182829 7.2 
" style="fill:none;stroke:#000000;stroke-dasharray:1.000000,3.000000;stroke-dashoffset:0.0;stroke-width:0.5;"/>
     </g>
     <g id="line2d_14">
      <g>
       <use style="stroke:#000000;stroke-width:0.5;" x="126.182828904" xlink:href="#m5b91cf6e91" y="283.68"/>
      </g>
     </g>
     <g id="line2d_15">
      <g>
       <use style="stroke:#000000;stroke-width:0.5;" x="126.182828904" xlink:href="#m950e195b13" y="7.2"/>
      </g>
     </g>
     <g id="text_3">
      <!-- -2 -->
      <defs>
       <path d="M 19.1875 8.296875 
L 53.609375 8.296875 
L 53.609375 0 
L 7.328125 0 
L 7.328125 8.296875 
Q 12.9375 14.109375 22.625 23.890625 
Q 32.328125 33.6875 34.8125 36.53125 
Q 39.546875 41.84375 41.421875 45.53125 
Q 43.3125 49.21875 43.3125 52.78125 
Q 43.3125 58.59375 39.234375 62.25 
Q 35.15625 65.921875 28.609375 65.921875 
Q 23.96875 65.921875 18.8125 64.3125 
Q 13.671875 62.703125 7.8125 59.421875 
L 7.8125 69.390625 
Q 13.765625 71.78125 18.9375 73 
Q 24.125 74.21875 28.421875 74.21875 
Q 39.75 74.21875 46.484375 68.546875 
Q 53.21875 62.890625 53.21875 53.421875 
Q 53.21875 48.921875 51.53125 44.890625 
Q 49.859375 40.875 45.40625 35.40625 
Q 44.1875 33.984375 37.640625 27.21875 
Q 31.109375 20.453125 19.1875 8.296875 
" id="BitstreamVeraSans-Roman-32"/>
      </defs>
      <g transform="translate(116.212516404 302.876875)scale(0.2 -0.2)">
       <use xlink:href="#BitstreamVeraSans-Roman-2d"/>
       <use x="36.083984375" xlink:href="#BitstreamVeraSans-Roman-32"/>
      </g>
     </g>
    </g>
    <g id="xtick_4">
     <g id="line2d_16">
      <path clip-path="url(#p903e87ed50)" d="M 165.872357 283.68 
L 165.872357 7.2 
" style="fill:none;stroke:#000000;stroke-dasharray:1.000000,3.000000;stroke-dashoffset:0.0;stroke-width:0.5;"/>
     </g>
     <g id="line2d_17">
      <g>
       <use style="stroke:#000000;stroke-width:0.5;" x="165.87235742" xlink:href="#m5b91cf6e91" y="283.68"/>
      </g>
     </g>
     <g id="line2d_18">
      <g>
       <use style="stroke:#000000;stroke-width:0.5;" x="165.87235742" xlink:href="#m950e195b13" y="7.2"/>
      </g>
     </g>
     <g id="text_4">
      <!-- 0 -->
      <defs>
       <path d="M 31.78125 66.40625 
Q 24.171875 66.40625 20.328125 58.90625 
Q 16.5 51.421875 16.5 36.375 
Q 16.5 21.390625 20.328125 13.890625 
Q 24.171875 6.390625 31.78125 6.390625 
Q 39.453125 6.390625 43.28125 13.890625 
Q 47.125 21.390625 47.125 36.375 
Q 47.125 51.421875 43.28125 58.90625 
Q 39.453125 66.40625 31.78125 66.40625 
M 31.78125 74.21875 
Q 44.046875 74.21875 50.515625 64.515625 
Q 56.984375 54.828125 56.984375 36.375 
Q 56.984375 17.96875 50.515625 8.265625 
Q 44.046875 -1.421875 31.78125 -1.421875 
Q 19.53125 -1.421875 13.0625 8.265625 
Q 6.59375 17.96875 6.59375 36.375 
Q 6.59375 54.828125 13.0625 64.515625 
Q 19.53125 74.21875 31.78125 74.21875 
" id="BitstreamVeraSans-Roman-30"/>
      </defs>
      <g transform="translate(159.50985742 302.876875)scale(0.2 -0.2)">
       <use xlink:href="#BitstreamVeraSans-Roman-30"/>
      </g>
     </g>
    </g>
    <g id="xtick_5">
     <g id="line2d_19">
      <path clip-path="url(#p903e87ed50)" d="M 205.561886 283.68 
L 205.561886 7.2 
" style="fill:none;stroke:#000000;stroke-dasharray:1.000000,3.000000;stroke-dashoffset:0.0;stroke-width:0.5;"/>
     </g>
     <g id="line2d_20">
      <g>
       <use style="stroke:#000000;stroke-width:0.5;" x="205.561885936" xlink:href="#m5b91cf6e91" y="283.68"/>
      </g>
     </g>
     <g id="line2d_21">
      <g>
       <use style="stroke:#000000;stroke-width:0.5;" x="205.561885936" xlink:href="#m950e195b13" y="7.2"/>
      </g>
     </g>
     <g id="text_5">
      <!-- 2 -->
      <g transform="translate(199.199385936 302.876875)scale(0.2 -0.2)">
       <use xlink:href="#BitstreamVeraSans-Roman-32"/>
      </g>
     </g>
    </g>
    <g id="xtick_6">
     <g id="line2d_22">
      <path clip-path="url(#p903e87ed50)" d="M 245.251414 283.68 
L 245.251414 7.2 
" style="fill:none;stroke:#000000;stroke-dasharray:1.000000,3.000000;stroke-dashoffset:0.0;stroke-width:0.5;"/>
     </g>
     <g id="line2d_23">
      <g>
       <use style="stroke:#000000;stroke-width:0.5;" x="245.251414452" xlink:href="#m5b91cf6e91" y="283.68"/>
      </g>
     </g>
     <g id="line2d_24">
      <g>
       <use style="stroke:#000000;stroke-width:0.5;" x="245.251414452" xlink:href="#m950e195b13" y="7.2"/>
      </g>
     </g>
     <g id="text_6">
      <!-- 4 -->
      <g transform="translate(238.888914452 302.876875)scale(0.2 -0.2)">
       <use xlink:href="#BitstreamVeraSans-Roman-34"/>
      </g>
     </g>
    </g>
    <g id="xtick_7">
     <g id="line2d_25">
      <path clip-path="url(#p903e87ed50)" d="M 284.940943 283.68 
L 284.940943 7.2 
" style="fill:none;stroke:#000000;stroke-dasharray:1.000000,3.000000;stroke-dashoffset:0.0;stroke-width:0.5;"/>
     </g>
     <g id="line2d_26">
      <g>
       <use style="stroke:#000000;stroke-width:0.5;" x="284.940942968" xlink:href="#m5b91cf6e91" y="283.68"/>
      </g>
     </g>
     <g id="line2d_27">
      <g>
       <use style="stroke:#000000;stroke-width:0.5;" x="284.940942968" xlink:href="#m950e195b13" y="7.2"/>
      </g>
     </g>
     <g id="text_7">
      <!-- 6 -->
      <g transform="translate(278.578442968 302.876875)scale(0.2 -0.2)">
       <use xlink:href="#BitstreamVeraSans-Roman-36"/>
      </g>
     </g>
    </g>
    <g id="xtick_8">
     <g id="line2d_28">
      <path clip-path="url(#p903e87ed50)" d="M 324.630471 283.68 
L 324.630471 7.2 
" style="fill:none;stroke:#000000;stroke-dasharray:1.000000,3.000000;stroke-dashoffset:0.0;stroke-width:0.5;"/>
     </g>
     <g id="line2d_29">
      <g>
       <use style="stroke:#000000;stroke-width:0.5;" x="324.630471484" xlink:href="#m5b91cf6e91" y="283.68"/>
      </g>
     </g>
     <g id="line2d_30">
      <g>
       <use style="stroke:#000000;stroke-width:0.5;" x="324.630471484" xlink:href="#m950e195b13" y="7.2"/>
      </g>
     </g>
     <g id="text_8">
      <!-- 8 -->
      <defs>
       <path d="M 31.78125 34.625 
Q 24.75 34.625 20.71875 30.859375 
Q 16.703125 27.09375 16.703125 20.515625 
Q 16.703125 13.921875 20.71875 10.15625 
Q 24.75 6.390625 31.78125 6.390625 
Q 38.8125 6.390625 42.859375 10.171875 
Q 46.921875 13.96875 46.921875 20.515625 
Q 46.921875 27.09375 42.890625 30.859375 
Q 38.875 34.625 31.78125 34.625 
M 21.921875 38.8125 
Q 15.578125 40.375 12.03125 44.71875 
Q 8.5 49.078125 8.5 55.328125 
Q 8.5 64.0625 14.71875 69.140625 
Q 20.953125 74.21875 31.78125 74.21875 
Q 42.671875 74.21875 48.875 69.140625 
Q 55.078125 64.0625 55.078125 55.328125 
Q 55.078125 49.078125 51.53125 44.71875 
Q 48 40.375 41.703125 38.8125 
Q 48.828125 37.15625 52.796875 32.3125 
Q 56.78125 27.484375 56.78125 20.515625 
Q 56.78125 9.90625 50.3125 4.234375 
Q 43.84375 -1.421875 31.78125 -1.421875 
Q 19.734375 -1.421875 13.25 4.234375 
Q 6.78125 9.90625 6.78125 20.515625 
Q 6.78125 27.484375 10.78125 32.3125 
Q 14.796875 37.15625 21.921875 38.8125 
M 18.3125 54.390625 
Q 18.3125 48.734375 21.84375 45.5625 
Q 25.390625 42.390625 31.78125 42.390625 
Q 38.140625 42.390625 41.71875 45.5625 
Q 45.3125 48.734375 45.3125 54.390625 
Q 45.3125 60.0625 41.71875 63.234375 
Q 38.140625 66.40625 31.78125 66.40625 
Q 25.390625 66.40625 21.84375 63.234375 
Q 18.3125 60.0625 18.3125 54.390625 
" id="BitstreamVeraSans-Roman-38"/>
      </defs>
      <g transform="translate(318.267971484 302.876875)scale(0.2 -0.2)">
       <use xlink:href="#BitstreamVeraSans-Roman-38"/>
      </g>
     </g>
    </g>
    <g id="xtick_9">
     <g id="line2d_31">
      <path clip-path="url(#p903e87ed50)" d="M 364.32 283.68 
L 364.32 7.2 
" style="fill:none;stroke:#000000;stroke-dasharray:1.000000,3.000000;stroke-dashoffset:0.0;stroke-width:0.5;"/>
     </g>
     <g id="line2d_32">
      <g>
       <use style="stroke:#000000;stroke-width:0.5;" x="364.32" xlink:href="#m5b91cf6e91" y="283.68"/>
      </g>
     </g>
     <g id="line2d_33">
      <g>
       <use style="stroke:#000000;stroke-width:0.5;" x="364.32" xlink:href="#m950e195b13" y="7.2"/>
      </g>
     </g>
    </g>
    <g id="xtick_10">
     <g id="line2d_34">
      <defs>
       <path d="M 0 0 
L 0 -2 
" id="m5a6286a2d1" style="stroke:#000000;stroke-width:0.5;"/>
      </defs>
      <g>
       <use style="stroke:#000000;stroke-width:0.5;" x="46.803771872" xlink:href="#m5a6286a2d1" y="283.68"/>
      </g>
     </g>
     <g id="line2d_35">
      <defs>
       <path d="M 0 0 
L 0 2 
" id="m71dd1af04e" style="stroke:#000000;stroke-width:0.5;"/>
      </defs>
      <g>
       <use style="stroke:#000000;stroke-width:0.5;" x="46.803771872" xlink:href="#m71dd1af04e" y="7.2"/>
      </g>
     </g>
    </g>
    <g id="xtick_11">
     <g id="line2d_36">
      <g>
       <use style="stroke:#000000;stroke-width:0.5;" x="86.493300388" xlink:href="#m5a6286a2d1" y="283.68"/>
      </g>
     </g>
     <g id="line2d_37">
      <g>
       <use style="stroke:#000000;stroke-width:0.5;" x="86.493300388" xlink:href="#m71dd1af04e" y="7.2"/>
      </g>
     </g>
    </g>
    <g id="xtick_12">
     <g id="line2d_38">
      <g>
       <use style="stroke:#000000;stroke-width:0.5;" x="126.182828904" xlink:href="#m5a6286a2d1" y="283.68"/>
      </g>
     </g>
     <g id="line2d_39">
      <g>
       <use style="stroke:#000000;stroke-width:0.5;" x="126.182828904" xlink:href="#m71dd1af04e" y="7.2"/>
      </g>
     </g>
    </g>
    <g id="xtick_13">
     <g id="line2d_40">
      <g>
       <use style="stroke:#000000;stroke-width:0.5;" x="165.87235742" xlink:href="#m5a6286a2d1" y="283.68"/>
      </g>
     </g>
     <g id="line2d_41">
      <g>
       <use style="stroke:#000000;stroke-width:0.5;" x="165.87235742" xlink:href="#m71dd1af04e" y="7.2"/>
      </g>
     </g>
    </g>
    <g id="xtick_14">
     <g id="line2d_42">
      <g>
       <use style="stroke:#000000;stroke-width:0.5;" x="205.561885936" xlink:href="#m5a6286a2d1" y="283.68"/>
      </g>
     </g>
     <g id="line2d_43">
      <g>
       <use style="stroke:#000000;stroke-width:0.5;" x="205.561885936" xlink:href="#m71dd1af04e" y="7.2"/>
      </g>
     </g>
    </g>
    <g id="xtick_15">
     <g id="line2d_44">
      <g>
       <use style="stroke:#000000;stroke-width:0.5;" x="245.251414452" xlink:href="#m5a6286a2d1" y="283.68"/>
      </g>
     </g>
     <g id="line2d_45">
      <g>
       <use style="stroke:#000000;stroke-width:0.5;" x="245.251414452" xlink:href="#m71dd1af04e" y="7.2"/>
      </g>
     </g>
    </g>
    <g id="xtick_16">
     <g id="line2d_46">
      <g>
       <use style="stroke:#000000;stroke-width:0.5;" x="284.940942968" xlink:href="#m5a6286a2d1" y="283.68"/>
      </g>
     </g>
     <g id="line2d_47">
      <g>
       <use style="stroke:#000000;stroke-width:0.5;" x="284.940942968" xlink:href="#m71dd1af04e" y="7.2"/>
      </g>
     </g>
    </g>
    <g id="xtick_17">
     <g id="line2d_48">
      <g>
       <use style="stroke:#000000;stroke-width:0.5;" x="324.630471484" xlink:href="#m5a6286a2d1" y="283.68"/>
      </g>
     </g>
     <g id="line2d_49">
      <g>
       <use style="stroke:#000000;stroke-width:0.5;" x="324.630471484" xlink:href="#m71dd1af04e" y="7.2"/>
      </g>
     </g>
    </g>
    <g id="xtick_18">
     <g id="line2d_50">
      <g>
       <use style="stroke:#000000;stroke-width:0.5;" x="364.32" xlink:href="#m5a6286a2d1" y="283.68"/>
      </g>
     </g>
     <g id="line2d_51">
      <g>
       <use style="stroke:#000000;stroke-width:0.5;" x="364.32" xlink:href="#m71dd1af04e" y="7.2"/>
      </g>
     </g>
    </g>
    <g id="text_9">
     <!-- log10 of Df -->
     <defs>
      <path id="BitstreamVeraSans-Roman-20"/>
      <path d="M 12.40625 8.296875 
L 28.515625 8.296875 
L 28.515625 63.921875 
L 10.984375 60.40625 
L 10.984375 69.390625 
L 28.421875 72.90625 
L 38.28125 72.90625 
L 38.28125 8.296875 
L 54.390625 8.296875 
L 54.390625 0 
L 12.40625 0 
z
" id="BitstreamVeraSans-Roman-31"/>
      <path d="M 30.609375 48.390625 
Q 23.390625 48.390625 19.1875 42.75 
Q 14.984375 37.109375 14.984375 27.296875 
Q 14.984375 17.484375 19.15625 11.84375 
Q 23.34375 6.203125 30.609375 6.203125 
Q 37.796875 6.203125 41.984375 11.859375 
Q 46.1875 17.53125 46.1875 27.296875 
Q 46.1875 37.015625 41.984375 42.703125 
Q 37.796875 48.390625 30.609375 48.390625 
M 30.609375 56 
Q 42.328125 56 49.015625 48.375 
Q 55.71875 40.765625 55.71875 27.296875 
Q 55.71875 13.875 49.015625 6.21875 
Q 42.328125 -1.421875 30.609375 -1.421875 
Q 18.84375 -1.421875 12.171875 6.21875 
Q 5.515625 13.875 5.515625 27.296875 
Q 5.515625 40.765625 12.171875 48.375 
Q 18.84375 56 30.609375 56 
" id="BitstreamVeraSans-Roman-6f"/>
      <path d="M 9.421875 75.984375 
L 18.40625 75.984375 
L 18.40625 0 
L 9.421875 0 
z
" id="BitstreamVeraSans-Roman-6c"/>
      <path d="M 19.671875 64.796875 
L 19.671875 8.109375 
L 31.59375 8.109375 
Q 46.6875 8.109375 53.6875 14.9375 
Q 60.6875 21.78125 60.6875 36.53125 
Q 60.6875 51.171875 53.6875 57.984375 
Q 46.6875 64.796875 31.59375 64.796875 
z
M 9.8125 72.90625 
L 30.078125 72.90625 
Q 51.265625 72.90625 61.171875 64.09375 
Q 71.09375 55.28125 71.09375 36.53125 
Q 71.09375 17.671875 61.125 8.828125 
Q 51.171875 0 30.078125 0 
L 9.8125 0 
z
" id="BitstreamVeraSans-Roman-44"/>
      <path d="M 45.40625 27.984375 
Q 45.40625 37.75 41.375 43.109375 
Q 37.359375 48.484375 30.078125 48.484375 
Q 22.859375 48.484375 18.828125 43.109375 
Q 14.796875 37.75 14.796875 27.984375 
Q 14.796875 18.265625 18.828125 12.890625 
Q 22.859375 7.515625 30.078125 7.515625 
Q 37.359375 7.515625 41.375 12.890625 
Q 45.40625 18.265625 45.40625 27.984375 
M 54.390625 6.78125 
Q 54.390625 -7.171875 48.1875 -13.984375 
Q 42 -20.796875 29.203125 -20.796875 
Q 24.46875 -20.796875 20.265625 -20.09375 
Q 16.0625 -19.390625 12.109375 -17.921875 
L 12.109375 -9.1875 
Q 16.0625 -11.328125 19.921875 -12.34375 
Q 23.78125 -13.375 27.78125 -13.375 
Q 36.625 -13.375 41.015625 -8.765625 
Q 45.40625 -4.15625 45.40625 5.171875 
L 45.40625 9.625 
Q 42.625 4.78125 38.28125 2.390625 
Q 33.9375 0 27.875 0 
Q 17.828125 0 11.671875 7.65625 
Q 5.515625 15.328125 5.515625 27.984375 
Q 5.515625 40.671875 11.671875 48.328125 
Q 17.828125 56 27.875 56 
Q 33.9375 56 38.28125 53.609375 
Q 42.625 51.21875 45.40625 46.390625 
L 45.40625 54.6875 
L 54.390625 54.6875 
z
" id="BitstreamVeraSans-Roman-67"/>
      <path d="M 37.109375 75.984375 
L 37.109375 68.5 
L 28.515625 68.5 
Q 23.6875 68.5 21.796875 66.546875 
Q 19.921875 64.59375 19.921875 59.515625 
L 19.921875 54.6875 
L 34.71875 54.6875 
L 34.71875 47.703125 
L 19.921875 47.703125 
L 19.921875 0 
L 10.890625 0 
L 10.890625 47.703125 
L 2.296875 47.703125 
L 2.296875 54.6875 
L 10.890625 54.6875 
L 10.890625 58.5 
Q 10.890625 67.625 15.140625 71.796875 
Q 19.390625 75.984375 28.609375 75.984375 
z
" id="BitstreamVeraSans-Roman-66"/>
     </defs>
     <g transform="translate(130.5740625 327.233125)scale(0.2 -0.2)">
      <use xlink:href="#BitstreamVeraSans-Roman-6c"/>
      <use x="27.783203125" xlink:href="#BitstreamVeraSans-Roman-6f"/>
      <use x="88.96484375" xlink:href="#BitstreamVeraSans-Roman-67"/>
      <use x="152.44140625" xlink:href="#BitstreamVeraSans-Roman-31"/>
      <use x="216.064453125" xlink:href="#BitstreamVeraSans-Roman-30"/>
      <use x="279.6875" xlink:href="#BitstreamVeraSans-Roman-20"/>
      <use x="311.474609375" xlink:href="#BitstreamVeraSans-Roman-6f"/>
      <use x="372.65625" xlink:href="#BitstreamVeraSans-Roman-66"/>
      <use x="407.861328125" xlink:href="#BitstreamVeraSans-Roman-20"/>
      <use x="439.6484375" xlink:href="#BitstreamVeraSans-Roman-44"/>
      <use x="516.650390625" xlink:href="#BitstreamVeraSans-Roman-66"/>
     </g>
    </g>
   </g>
   <g id="matplotlib.axis_2">
    <g id="ytick_1">
     <g id="line2d_52">
      <path clip-path="url(#p903e87ed50)" d="M 7.2 283.68 
L 364.32 283.68 
" style="fill:none;stroke:#000000;stroke-dasharray:1.000000,3.000000;stroke-dashoffset:0.0;stroke-width:0.5;"/>
     </g>
     <g id="line2d_53">
      <defs>
       <path d="M 0 0 
L 4 0 
" id="m87322f77d8" style="stroke:#000000;stroke-width:0.5;"/>
      </defs>
      <g>
       <use style="stroke:#000000;stroke-width:0.5;" x="7.2" xlink:href="#m87322f77d8" y="283.68"/>
      </g>
     </g>
     <g id="line2d_54">
      <defs>
       <path d="M 0 0 
L -4 0 
" id="m55a7fa3e02" style="stroke:#000000;stroke-width:0.5;"/>
      </defs>
      <g>
       <use style="stroke:#000000;stroke-width:0.5;" x="364.32" xlink:href="#m55a7fa3e02" y="283.68"/>
      </g>
     </g>
    </g>
    <g id="ytick_2">
     <g id="line2d_55">
      <path clip-path="url(#p903e87ed50)" d="M 7.2 228.931485 
L 364.32 228.931485 
" style="fill:none;stroke:#000000;stroke-dasharray:1.000000,3.000000;stroke-dashoffset:0.0;stroke-width:0.5;"/>
     </g>
     <g id="line2d_56">
      <g>
       <use style="stroke:#000000;stroke-width:0.5;" x="7.2" xlink:href="#m87322f77d8" y="228.931485149"/>
      </g>
     </g>
     <g id="line2d_57">
      <g>
       <use style="stroke:#000000;stroke-width:0.5;" x="364.32" xlink:href="#m55a7fa3e02" y="228.931485149"/>
      </g>
     </g>
    </g>
    <g id="ytick_3">
     <g id="line2d_58">
      <path clip-path="url(#p903e87ed50)" d="M 7.2 174.18297 
L 364.32 174.18297 
" style="fill:none;stroke:#000000;stroke-dasharray:1.000000,3.000000;stroke-dashoffset:0.0;stroke-width:0.5;"/>
     </g>
     <g id="line2d_59">
      <g>
       <use style="stroke:#000000;stroke-width:0.5;" x="7.2" xlink:href="#m87322f77d8" y="174.182970297"/>
      </g>
     </g>
     <g id="line2d_60">
      <g>
       <use style="stroke:#000000;stroke-width:0.5;" x="364.32" xlink:href="#m55a7fa3e02" y="174.182970297"/>
      </g>
     </g>
    </g>
    <g id="ytick_4">
     <g id="line2d_61">
      <path clip-path="url(#p903e87ed50)" d="M 7.2 119.434455 
L 364.32 119.434455 
" style="fill:none;stroke:#000000;stroke-dasharray:1.000000,3.000000;stroke-dashoffset:0.0;stroke-width:0.5;"/>
     </g>
     <g id="line2d_62">
      <g>
       <use style="stroke:#000000;stroke-width:0.5;" x="7.2" xlink:href="#m87322f77d8" y="119.434455446"/>
      </g>
     </g>
     <g id="line2d_63">
      <g>
       <use style="stroke:#000000;stroke-width:0.5;" x="364.32" xlink:href="#m55a7fa3e02" y="119.434455446"/>
      </g>
     </g>
    </g>
    <g id="ytick_5">
     <g id="line2d_64">
      <path clip-path="url(#p903e87ed50)" d="M 7.2 64.685941 
L 364.32 64.685941 
" style="fill:none;stroke:#000000;stroke-dasharray:1.000000,3.000000;stroke-dashoffset:0.0;stroke-width:0.5;"/>
     </g>
     <g id="line2d_65">
      <g>
       <use style="stroke:#000000;stroke-width:0.5;" x="7.2" xlink:href="#m87322f77d8" y="64.6859405941"/>
      </g>
     </g>
     <g id="line2d_66">
      <g>
       <use style="stroke:#000000;stroke-width:0.5;" x="364.32" xlink:href="#m55a7fa3e02" y="64.6859405941"/>
      </g>
     </g>
    </g>
    <g id="ytick_6">
     <g id="line2d_67">
      <path clip-path="url(#p903e87ed50)" d="M 7.2 9.937426 
L 364.32 9.937426 
" style="fill:none;stroke:#000000;stroke-dasharray:1.000000,3.000000;stroke-dashoffset:0.0;stroke-width:0.5;"/>
     </g>
     <g id="line2d_68">
      <g>
       <use style="stroke:#000000;stroke-width:0.5;" x="7.2" xlink:href="#m87322f77d8" y="9.93742574257"/>
      </g>
     </g>
     <g id="line2d_69">
      <g>
       <use style="stroke:#000000;stroke-width:0.5;" x="364.32" xlink:href="#m55a7fa3e02" y="9.93742574257"/>
      </g>
     </g>
    </g>
   </g>
   <g id="text_10">
    <!-- f20-24,5-D -->
    <defs>
     <path d="M 11.71875 12.40625 
L 22.015625 12.40625 
L 22.015625 4 
L 14.015625 -11.625 
L 7.71875 -11.625 
L 11.71875 4 
z
" id="BitstreamVeraSans-Roman-2c"/>
     <path d="M 10.796875 72.90625 
L 49.515625 72.90625 
L 49.515625 64.59375 
L 19.828125 64.59375 
L 19.828125 46.734375 
Q 21.96875 47.46875 24.109375 47.828125 
Q 26.265625 48.1875 28.421875 48.1875 
Q 40.625 48.1875 47.75 41.5 
Q 54.890625 34.8125 54.890625 23.390625 
Q 54.890625 11.625 47.5625 5.09375 
Q 40.234375 -1.421875 26.90625 -1.421875 
Q 22.3125 -1.421875 17.546875 -0.640625 
Q 12.796875 0.140625 7.71875 1.703125 
L 7.71875 11.625 
Q 12.109375 9.234375 16.796875 8.0625 
Q 21.484375 6.890625 26.703125 6.890625 
Q 35.15625 6.890625 40.078125 11.328125 
Q 45.015625 15.765625 45.015625 23.390625 
Q 45.015625 31 40.078125 35.4375 
Q 35.15625 39.890625 26.703125 39.890625 
Q 22.75 39.890625 18.8125 39.015625 
Q 14.890625 38.140625 10.796875 36.28125 
z
" id="BitstreamVeraSans-Roman-35"/>
    </defs>
    <g transform="translate(250.324475 278.1504)scale(0.2 -0.2)">
     <use xlink:href="#BitstreamVeraSans-Roman-66"/>
     <use x="35.205078125" xlink:href="#BitstreamVeraSans-Roman-32"/>
     <use x="98.828125" xlink:href="#BitstreamVeraSans-Roman-30"/>
     <use x="162.451171875" xlink:href="#BitstreamVeraSans-Roman-2d"/>
     <use x="198.53515625" xlink:href="#BitstreamVeraSans-Roman-32"/>
     <use x="262.158203125" xlink:href="#BitstreamVeraSans-Roman-34"/>
     <use x="325.78125" xlink:href="#BitstreamVeraSans-Roman-2c"/>
     <use x="357.568359375" xlink:href="#BitstreamVeraSans-Roman-35"/>
     <use x="421.19140625" xlink:href="#BitstreamVeraSans-Roman-2d"/>
     <use x="457.275390625" xlink:href="#BitstreamVeraSans-Roman-44"/>
    </g>
   </g>
  </g>
 </g>
 <defs>
  <clipPath id="p903e87ed50">
   <rect height="276.48" width="357.12" x="7.2" y="7.2"/>
  </clipPath>
 </defs>
</svg>
