<?xml version="1.0" encoding="utf-8" standalone="no"?>
<!DOCTYPE svg PUBLIC "-//W3C//DTD SVG 1.1//EN"
  "http://www.w3.org/Graphics/SVG/1.1/DTD/svg11.dtd">
<!-- Created with matplotlib (http://matplotlib.org/) -->
<svg height="345pt" version="1.1" viewBox="0 0 431 345" width="431pt" xmlns="http://www.w3.org/2000/svg" xmlns:xlink="http://www.w3.org/1999/xlink">
 <defs>
  <style type="text/css">
*{stroke-linecap:butt;stroke-linejoin:round;stroke-miterlimit:100000;}
  </style>
 </defs>
 <g id="figure_1">
  <g id="patch_1">
   <path d="M 0 345.533199 
L 431.6825 345.533199 
L 431.6825 0 
L 0 0 
z
" style="fill:#ffffff;"/>
  </g>
  <g id="axes_1">
   <g id="patch_2">
    <path d="M 67.3625 290.620699 
L 424.4825 290.620699 
L 424.4825 14.140699 
L 67.3625 14.140699 
z
" style="fill:#ffffff;"/>
   </g>
   <g id="line2d_1">
    <path clip-path="url(#pf37ec481b8)" d="M 225.666696 290.620699 
L 225.666696 286.970798 
L 234.119863 286.970798 
L 234.119863 283.320897 
L 236.721224 283.320897 
L 236.721224 279.670996 
L 237.303401 279.670996 
L 237.303401 276.021095 
L 239.383674 276.021095 
L 239.383674 272.371194 
L 240.11986 272.371194 
L 240.11986 268.721293 
L 240.11986 268.721293 
L 240.11986 265.071392 
L 242.091946 265.071392 
L 242.091946 261.421491 
L 243.821745 261.421491 
L 243.821745 257.77159 
L 243.991585 257.77159 
L 243.991585 254.121689 
L 246.635799 254.121689 
L 246.635799 250.471788 
L 247.116883 250.471788 
L 247.116883 246.821887 
L 256.705228 246.821887 
L 256.705228 243.171986 
L 258.911773 243.171986 
L 258.911773 239.522085 
L 262.589827 239.522085 
L 262.589827 235.872184 
L 264.904136 235.872184 
L 264.904136 232.222283 
L 265.912717 232.222283 
L 265.912717 228.572382 
L 274.577719 228.572382 
L 274.577719 224.922481 
L 282.15949 224.922481 
L 282.15949 221.27258 
L 286.211623 221.27258 
L 286.211623 217.622679 
L 309.90582 217.622679 
L 309.90582 213.972778 
L 350.179503 213.972778 
L 350.179503 210.322877 
L 358.297462 210.322877 
L 358.297462 206.672976 
L 362.749295 206.672976 
L 362.749295 203.023075 
L 365.700569 203.023075 
L 365.700569 199.373175 
L 367.862628 199.373175 
L 367.862628 195.723274 
L 370.056564 195.723274 
L 370.056564 192.073373 
L 373.578172 192.073373 
L 373.578172 188.423472 
L 379.557089 188.423472 
L 379.557089 184.773571 
L 379.876629 184.773571 
L 379.876629 181.12367 
L 382.001017 181.12367 
L 382.001017 177.473769 
L 403.095397 177.473769 
L 403.095397 173.823868 
L 403.709546 173.823868 
L 403.709546 170.173967 
L 404.628697 170.173967 
L 404.628697 166.524066 
L 406.029249 166.524066 
L 406.029249 162.874165 
L 408.819565 162.874165 
L 408.819565 159.224264 
L 409.804268 159.224264 
L 409.804268 155.574363 
L 411.260395 155.574363 
L 411.260395 151.924462 
L 422.97653 151.924462 
L 422.97653 148.274561 
L 425.521824 148.274561 
L 425.521824 144.62466 
L 427.957374 144.62466 
L 427.957374 140.974759 
L 432.48708 140.974759 
L 432.48708 137.324858 
L 432.6825 137.324858 
" style="fill:none;stroke:#f5deb3;stroke-linecap:square;"/>
   </g>
   <g id="line2d_2">
    <path clip-path="url(#pf37ec481b8)" d="M 341.119081 290.620699 
L 341.119081 286.970798 
L 349.566693 286.970798 
L 349.566693 283.320897 
L 350.288173 283.320897 
L 350.288173 279.670996 
L 357.245444 279.670996 
L 357.245444 276.021095 
L 373.342374 276.021095 
L 373.342374 272.371194 
L 378.359844 272.371194 
L 378.359844 268.721293 
L 383.724085 268.721293 
L 383.724085 265.071392 
L 383.894409 265.071392 
L 383.894409 261.421491 
L 386.610547 261.421491 
L 386.610547 257.77159 
L 388.821426 257.77159 
L 388.821426 254.121689 
L 389.852008 254.121689 
L 389.852008 250.471788 
L 395.800537 250.471788 
L 395.800537 246.821887 
L 396.168434 246.821887 
L 396.168434 243.171986 
L 398.758052 243.171986 
L 398.758052 239.522085 
L 400.74353 239.522085 
L 400.74353 235.872184 
L 403.064106 235.872184 
L 403.064106 232.222283 
L 403.345046 232.222283 
L 403.345046 228.572382 
L 403.663157 228.572382 
L 403.663157 224.922481 
L 407.636984 224.922481 
L 407.636984 221.27258 
L 416.652441 221.27258 
L 416.652441 217.622679 
L 417.493956 217.622679 
L 417.493956 213.972778 
L 421.238509 213.972778 
L 421.238509 210.322877 
L 423.077596 210.322877 
L 423.077596 206.672976 
L 432.6825 206.672976 
L 432.6825 206.672976 
" style="fill:none;stroke:#f5deb3;stroke-linecap:square;"/>
   </g>
   <g id="line2d_3">
    <path clip-path="url(#pf37ec481b8)" d="M 407.536606 290.620699 
L 407.536606 286.970798 
L 410.316889 286.970798 
L 410.316889 283.320897 
L 410.316889 283.320897 
L 410.316889 279.670996 
L 410.33049 279.670996 
L 410.33049 276.021095 
L 424.508352 276.021095 
L 424.508352 272.371194 
L 432.6825 272.371194 
" style="fill:none;stroke:#f5deb3;stroke-linecap:square;"/>
   </g>
   <g id="line2d_4">
    <path clip-path="url(#pf37ec481b8)" d="M 314.223686 290.620699 
L 314.223686 279.670996 
L 325.571595 279.670996 
L 325.571595 268.721293 
L 354.397605 268.721293 
L 354.397605 257.77159 
L 357.942921 257.77159 
L 357.942921 246.821887 
L 358.612636 246.821887 
L 358.612636 235.872184 
L 365.973818 235.872184 
L 365.973818 224.922481 
L 407.096957 224.922481 
L 407.096957 213.972778 
L 430.417253 213.972778 
L 430.417253 203.023075 
L 432.6825 203.023075 
" style="fill:none;stroke:#f5deb3;stroke-linecap:square;"/>
   </g>
   <g id="line2d_5">
    <path clip-path="url(#pf37ec481b8)" d="M 247.908876 290.620699 
L 247.908876 286.970798 
L 248.06583 286.970798 
L 248.06583 283.320897 
L 255.088966 283.320897 
L 255.088966 279.670996 
L 257.625235 279.670996 
L 257.625235 276.021095 
L 257.885115 276.021095 
L 257.885115 272.371194 
L 258.014568 272.371194 
L 258.014568 268.721293 
L 261.39264 268.721293 
L 261.39264 265.071392 
L 263.061049 265.071392 
L 263.061049 261.421491 
L 265.801619 261.421491 
L 265.801619 257.77159 
L 269.451162 257.77159 
L 269.451162 254.121689 
L 270.273703 254.121689 
L 270.273703 250.471788 
L 270.578814 250.471788 
L 270.578814 246.821887 
L 272.470473 246.821887 
L 272.470473 243.171986 
L 274.295374 243.171986 
L 274.295374 239.522085 
L 281.094828 239.522085 
L 281.094828 235.872184 
L 285.532626 235.872184 
L 285.532626 232.222283 
L 295.765363 232.222283 
L 295.765363 228.572382 
L 302.036341 228.572382 
L 302.036341 224.922481 
L 324.403018 224.922481 
L 324.403018 221.27258 
L 326.542819 221.27258 
L 326.542819 217.622679 
L 352.164316 217.622679 
L 352.164316 213.972778 
L 365.312332 213.972778 
L 365.312332 210.322877 
L 386.189341 210.322877 
L 386.189341 206.672976 
L 391.109545 206.672976 
L 391.109545 203.023075 
L 391.54158 203.023075 
L 391.54158 199.373175 
L 395.701386 199.373175 
L 395.701386 195.723274 
L 405.606347 195.723274 
L 405.606347 192.073373 
L 406.915687 192.073373 
L 406.915687 188.423472 
L 407.03902 188.423472 
L 407.03902 184.773571 
L 410.214771 184.773571 
L 410.214771 181.12367 
L 415.668383 181.12367 
L 415.668383 177.473769 
L 417.570857 177.473769 
L 417.570857 173.823868 
L 418.02402 173.823868 
L 418.02402 170.173967 
L 421.006721 170.173967 
L 421.006721 166.524066 
L 432.6825 166.524066 
L 432.6825 166.524066 
" style="fill:none;stroke:#f5deb3;stroke-linecap:square;"/>
   </g>
   <g id="line2d_6">
    <path clip-path="url(#pf37ec481b8)" d="M 195.749704 290.620699 
L 195.749704 286.970798 
L 208.31395 286.970798 
L 208.31395 283.320897 
L 215.261917 283.320897 
L 215.261917 279.670996 
L 217.573639 279.670996 
L 217.573639 276.021095 
L 218.135777 276.021095 
L 218.135777 272.371194 
L 218.135777 272.371194 
L 218.135777 268.721293 
L 225.424465 268.721293 
L 225.424465 265.071392 
L 226.62443 265.071392 
L 226.62443 261.421491 
L 228.488278 261.421491 
L 228.488278 257.77159 
L 241.561519 257.77159 
L 241.561519 254.121689 
L 241.738933 254.121689 
L 241.738933 250.471788 
L 245.987311 250.471788 
L 245.987311 246.821887 
L 245.987311 246.821887 
L 245.987311 243.171986 
L 252.565725 243.171986 
L 252.565725 239.522085 
L 253.420557 239.522085 
L 253.420557 235.872184 
L 253.70239 235.872184 
L 253.70239 232.222283 
L 254.538788 232.222283 
L 254.538788 228.572382 
L 257.625235 228.572382 
L 257.625235 224.922481 
L 260.537808 224.922481 
L 260.537808 221.27258 
L 269.139304 221.27258 
L 269.139304 217.622679 
L 329.514104 217.622679 
L 329.514104 213.972778 
L 331.362444 213.972778 
L 331.362444 210.322877 
L 332.077498 210.322877 
L 332.077498 206.672976 
L 335.943148 206.672976 
L 335.943148 203.023075 
L 337.439817 203.023075 
L 337.439817 199.373175 
L 337.523252 199.373175 
L 337.523252 195.723274 
L 338.97551 195.723274 
L 338.97551 192.073373 
L 341.737518 192.073373 
L 341.737518 188.423472 
L 343.796395 188.423472 
L 343.796395 184.773571 
L 356.132813 184.773571 
L 356.132813 181.12367 
L 359.764166 181.12367 
L 359.764166 177.473769 
L 362.062255 177.473769 
L 362.062255 173.823868 
L 363.460997 173.823868 
L 363.460997 170.173967 
L 368.232251 170.173967 
L 368.232251 166.524066 
L 368.308924 166.524066 
L 368.308924 162.874165 
L 369.250349 162.874165 
L 369.250349 159.224264 
L 369.744527 159.224264 
L 369.744527 155.574363 
L 371.22832 155.574363 
L 371.22832 151.924462 
L 371.445099 151.924462 
L 371.445099 148.274561 
L 381.075582 148.274561 
L 381.075582 144.62466 
L 389.395373 144.62466 
L 389.395373 140.974759 
L 394.069942 140.974759 
L 394.069942 137.324858 
L 398.064555 137.324858 
L 398.064555 133.674957 
L 398.724023 133.674957 
L 398.724023 130.025056 
L 409.293453 130.025056 
L 409.293453 126.375155 
L 410.48664 126.375155 
L 410.48664 122.725254 
L 413.705983 122.725254 
L 413.705983 119.075353 
L 415.08248 119.075353 
L 415.08248 115.425452 
L 416.778644 115.425452 
L 416.778644 111.775551 
L 430.592172 111.775551 
L 430.592172 108.12565 
L 432.6825 108.12565 
" style="fill:none;stroke:#f5deb3;stroke-linecap:square;"/>
   </g>
   <g id="line2d_7">
    <path clip-path="url(#pf37ec481b8)" d="M 251.84241 290.620699 
L 251.84241 286.970798 
L 260.042913 286.970798 
L 260.042913 283.320897 
L 260.414528 283.320897 
L 260.414528 279.670996 
L 263.411668 279.670996 
L 263.411668 276.021095 
L 264.904136 276.021095 
L 264.904136 272.371194 
L 265.129971 272.371194 
L 265.129971 268.721293 
L 265.354825 268.721293 
L 265.354825 265.071392 
L 265.578704 265.071392 
L 265.578704 261.421491 
L 266.574341 261.421491 
L 266.574341 257.77159 
L 267.010767 257.77159 
L 267.010767 254.121689 
L 271.083366 254.121689 
L 271.083366 250.471788 
L 278.550897 250.471788 
L 278.550897 246.821887 
L 284.76758 246.821887 
L 284.76758 243.171986 
L 291.547917 243.171986 
L 291.547917 239.522085 
L 291.682946 239.522085 
L 291.682946 235.872184 
L 292.41937 235.872184 
L 292.41937 232.222283 
L 320.033194 232.222283 
L 320.033194 228.572382 
L 325.606597 228.572382 
L 325.606597 224.922481 
L 331.79887 224.922481 
L 331.79887 221.27258 
L 372.769219 221.27258 
L 372.769219 217.622679 
L 387.262552 217.622679 
L 387.262552 213.972778 
L 393.479964 213.972778 
L 393.479964 210.322877 
L 395.484395 210.322877 
L 395.484395 206.672976 
L 397.492525 206.672976 
L 397.492525 203.023075 
L 405.434718 203.023075 
L 405.434718 199.373175 
L 407.579649 199.373175 
L 407.579649 195.723274 
L 410.44595 195.723274 
L 410.44595 192.073373 
L 421.260529 192.073373 
L 421.260529 188.423472 
L 422.885936 188.423472 
L 422.885936 184.773571 
L 431.692461 184.773571 
L 431.692461 181.12367 
L 432.6825 181.12367 
" style="fill:none;stroke:#f5deb3;stroke-linecap:square;"/>
   </g>
   <g id="line2d_8">
    <path clip-path="url(#pf37ec481b8)" d="M 220.858309 290.620699 
L 220.858309 286.970798 
L 223.444657 286.970798 
L 223.444657 283.320897 
L 230.727423 283.320897 
L 230.727423 279.670996 
L 234.528688 279.670996 
L 234.528688 276.021095 
L 235.13593 276.021095 
L 235.13593 272.371194 
L 239.197978 272.371194 
L 239.197978 268.721293 
L 242.616987 268.721293 
L 242.616987 265.071392 
L 245.823911 265.071392 
L 245.823911 261.421491 
L 249.761594 261.421491 
L 249.761594 257.77159 
L 250.51439 257.77159 
L 250.51439 254.121689 
L 267.1193 254.121689 
L 267.1193 250.471788 
L 273.342931 250.471788 
L 273.342931 246.821887 
L 305.194336 246.821887 
L 305.194336 243.171986 
L 317.065716 243.171986 
L 317.065716 239.522085 
L 339.566559 239.522085 
L 339.566559 235.872184 
L 355.704439 235.872184 
L 355.704439 232.222283 
L 358.575656 232.222283 
L 358.575656 228.572382 
L 358.64959 228.572382 
L 358.64959 224.922481 
L 360.961312 224.922481 
L 360.961312 221.27258 
L 361.819618 221.27258 
L 361.819618 217.622679 
L 361.993046 217.622679 
L 361.993046 213.972778 
L 362.114101 213.972778 
L 362.114101 210.322877 
L 363.123312 210.322877 
L 363.123312 206.672976 
L 372.811373 206.672976 
L 372.811373 203.023075 
L 373.743974 203.023075 
L 373.743974 199.373175 
L 411.247037 199.373175 
L 411.247037 195.723274 
L 411.943718 195.723274 
L 411.943718 192.073373 
L 412.94237 192.073373 
L 412.94237 188.423472 
L 417.042075 188.423472 
L 417.042075 184.773571 
L 417.535378 184.773571 
L 417.535378 181.12367 
L 426.481 181.12367 
L 426.481 177.473769 
L 432.015352 177.473769 
L 432.015352 173.823868 
L 432.6825 173.823868 
" style="fill:none;stroke:#f5deb3;stroke-linecap:square;"/>
   </g>
   <g id="line2d_9">
    <path clip-path="url(#pf37ec481b8)" d="M 344.041961 290.620699 
L 344.041961 286.970798 
L 374.930396 286.970798 
L 374.930396 283.320897 
L 411.937127 283.320897 
L 411.937127 279.670996 
L 412.403012 279.670996 
L 412.403012 276.021095 
L 420.757219 276.021095 
L 420.757219 272.371194 
L 427.128728 272.371194 
L 427.128728 268.721293 
L 428.232268 268.721293 
L 428.232268 265.071392 
L 432.6825 265.071392 
" style="fill:none;stroke:#f5deb3;stroke-linecap:square;"/>
   </g>
   <g id="line2d_10">
    <path clip-path="url(#pf37ec481b8)" d="M 229.843364 290.620699 
L 229.843364 286.970798 
L 234.32468 286.970798 
L 234.32468 283.320897 
L 242.267553 283.320897 
L 242.267553 279.670996 
L 242.267553 279.670996 
L 242.267553 276.021095 
L 249.151367 276.021095 
L 249.151367 272.371194 
L 255.2256 272.371194 
L 255.2256 268.721293 
L 263.178186 268.721293 
L 263.178186 265.071392 
L 276.149198 265.071392 
L 276.149198 261.421491 
L 295.138493 261.421491 
L 295.138493 257.77159 
L 303.666187 257.77159 
L 303.666187 254.121689 
L 310.000539 254.121689 
L 310.000539 250.471788 
L 318.249017 250.471788 
L 318.249017 246.821887 
L 318.249017 246.821887 
L 318.249017 243.171986 
L 319.916145 243.171986 
L 319.916145 239.522085 
L 319.916145 239.522085 
L 319.916145 235.872184 
L 320.729979 235.872184 
L 320.729979 232.222283 
L 320.729979 232.222283 
L 320.729979 228.572382 
L 326.094161 228.572382 
L 326.094161 224.922481 
L 328.233041 224.922481 
L 328.233041 221.27258 
L 328.233041 221.27258 
L 328.233041 217.622679 
L 329.611345 217.622679 
L 329.611345 213.972778 
L 330.286962 213.972778 
L 330.286962 210.322877 
L 330.286962 210.322877 
L 330.286962 206.672976 
L 333.538676 206.672976 
L 333.538676 203.023075 
L 336.597972 203.023075 
L 336.597972 199.373175 
L 338.921442 199.373175 
L 338.921442 195.723274 
L 339.486358 195.723274 
L 339.486358 192.073373 
L 340.598007 192.073373 
L 340.598007 188.423472 
L 345.324346 188.423472 
L 345.324346 184.773571 
L 345.823794 184.773571 
L 345.823794 181.12367 
L 386.405772 181.12367 
L 386.405772 177.473769 
L 389.057925 177.473769 
L 389.057925 173.823868 
L 391.375085 173.823868 
L 391.375085 170.173967 
L 393.395129 170.173967 
L 393.395129 166.524066 
L 395.339227 166.524066 
L 395.339227 162.874165 
L 402.624033 162.874165 
L 402.624033 159.224264 
L 419.928039 159.224264 
L 419.928039 155.574363 
L 421.791687 155.574363 
L 421.791687 151.924462 
L 422.698916 151.924462 
L 422.698916 148.274561 
L 423.035066 148.274561 
L 423.035066 144.62466 
L 432.6825 144.62466 
" style="fill:none;stroke:#f5deb3;stroke-linecap:square;"/>
   </g>
   <g id="line2d_11">
    <path clip-path="url(#pf37ec481b8)" d="M 225.666696 290.620699 
L 225.666696 286.970798 
L 227.797183 286.970798 
L 227.797183 283.320897 
L 244.3296 283.320897 
L 244.3296 279.670996 
L 244.999074 279.670996 
L 244.999074 276.021095 
L 247.276255 276.021095 
L 247.276255 272.371194 
L 249.609711 272.371194 
L 249.609711 268.721293 
L 250.812467 268.721293 
L 250.812467 265.071392 
L 251.256385 265.071392 
L 251.256385 261.421491 
L 261.513614 261.421491 
L 261.513614 257.77159 
L 263.411668 257.77159 
L 263.411668 254.121689 
L 270.578814 254.121689 
L 270.578814 250.471788 
L 275.507891 250.471788 
L 275.507891 246.821887 
L 280.007787 246.821887 
L 280.007787 243.171986 
L 282.321356 243.171986 
L 282.321356 239.522085 
L 284.380771 239.522085 
L 284.380771 235.872184 
L 286.136618 235.872184 
L 286.136618 232.222283 
L 289.969198 232.222283 
L 289.969198 228.572382 
L 293.406978 228.572382 
L 293.406978 224.922481 
L 294.631468 224.922481 
L 294.631468 221.27258 
L 295.264476 221.27258 
L 295.264476 217.622679 
L 299.952773 217.622679 
L 299.952773 213.972778 
L 308.170539 213.972778 
L 308.170539 210.322877 
L 317.394857 210.322877 
L 317.394857 206.672976 
L 318.650854 206.672976 
L 318.650854 203.023075 
L 321.795545 203.023075 
L 321.795545 199.373175 
L 324.00755 199.373175 
L 324.00755 195.723274 
L 359.637477 195.723274 
L 359.637477 192.073373 
L 390.703693 192.073373 
L 390.703693 188.423472 
L 403.825337 188.423472 
L 403.825337 184.773571 
L 404.46902 184.773571 
L 404.46902 181.12367 
L 422.532704 181.12367 
L 422.532704 177.473769 
L 422.96588 177.473769 
L 422.96588 173.823868 
L 423.732373 173.823868 
L 423.732373 170.173967 
L 426.176596 170.173967 
L 426.176596 166.524066 
L 432.6825 166.524066 
" style="fill:none;stroke:#f5deb3;stroke-linecap:square;"/>
   </g>
   <g id="line2d_12">
    <path clip-path="url(#pf37ec481b8)" d="M 251.403515 290.620699 
L 251.403515 286.970798 
L 254.538788 286.970798 
L 254.538788 283.320897 
L 255.90341 283.320897 
L 255.90341 279.670996 
L 256.439334 279.670996 
L 256.439334 276.021095 
L 261.271383 276.021095 
L 261.271383 272.371194 
L 262.825975 272.371194 
L 262.825975 268.721293 
L 264.105855 268.721293 
L 264.105855 265.071392 
L 266.464656 265.071392 
L 266.464656 261.421491 
L 273.150319 261.421491 
L 273.150319 257.77159 
L 274.951798 257.77159 
L 274.951798 254.121689 
L 277.408437 254.121689 
L 277.408437 250.471788 
L 279.668663 250.471788 
L 279.668663 246.821887 
L 284.613203 246.821887 
L 284.613203 243.171986 
L 297.961191 243.171986 
L 297.961191 239.522085 
L 313.785782 239.522085 
L 313.785782 235.872184 
L 375.799371 235.872184 
L 375.799371 232.222283 
L 391.492666 232.222283 
L 391.492666 228.572382 
L 391.989426 228.572382 
L 391.989426 224.922481 
L 392.615712 224.922481 
L 392.615712 221.27258 
L 398.081791 221.27258 
L 398.081791 217.622679 
L 399.551364 217.622679 
L 399.551364 213.972778 
L 403.748172 213.972778 
L 403.748172 210.322877 
L 405.374888 210.322877 
L 405.374888 206.672976 
L 418.076729 206.672976 
L 418.076729 203.023075 
L 418.199508 203.023075 
L 418.199508 199.373175 
L 420.601363 199.373175 
L 420.601363 195.723274 
L 424.554852 195.723274 
L 424.554852 192.073373 
L 432.6825 192.073373 
L 432.6825 192.073373 
" style="fill:none;stroke:#f5deb3;stroke-linecap:square;"/>
   </g>
   <g id="line2d_13">
    <path clip-path="url(#pf37ec481b8)" d="M 302.091505 290.620699 
L 302.091505 286.970798 
L 302.201657 286.970798 
L 302.201657 283.320897 
L 302.58535 283.320897 
L 302.58535 279.670996 
L 312.404225 279.670996 
L 312.404225 276.021095 
L 315.217013 276.021095 
L 315.217013 272.371194 
L 315.473034 272.371194 
L 315.473034 268.721293 
L 315.600571 268.721293 
L 315.600571 265.071392 
L 318.650854 265.071392 
L 318.650854 261.421491 
L 326.405185 261.421491 
L 326.405185 257.77159 
L 329.090599 257.77159 
L 329.090599 254.121689 
L 340.04517 254.121689 
L 340.04517 250.471788 
L 344.578138 250.471788 
L 344.578138 246.821887 
L 348.386467 246.821887 
L 348.386467 243.171986 
L 348.588791 243.171986 
L 348.588791 239.522085 
L 354.617717 239.522085 
L 354.617717 235.872184 
L 355.094734 235.872184 
L 355.094734 232.222283 
L 356.268373 232.222283 
L 356.268373 228.572382 
L 358.427472 228.572382 
L 358.427472 224.922481 
L 358.760291 224.922481 
L 358.760291 221.27258 
L 358.944269 221.27258 
L 358.944269 217.622679 
L 360.446542 217.622679 
L 360.446542 213.972778 
L 361.628173 213.972778 
L 361.628173 210.322877 
L 361.958407 210.322877 
L 361.958407 206.672976 
L 363.477823 206.672976 
L 363.477823 203.023075 
L 366.373049 203.023075 
L 366.373049 199.373175 
L 369.250349 199.373175 
L 369.250349 195.723274 
L 371.502754 195.723274 
L 371.502754 192.073373 
L 392.548629 192.073373 
L 392.548629 188.423472 
L 397.675222 188.423472 
L 397.675222 184.773571 
L 399.248979 184.773571 
L 399.248979 181.12367 
L 432.6825 181.12367 
" style="fill:none;stroke:#f5deb3;stroke-linecap:square;"/>
   </g>
   <g id="line2d_14">
    <path clip-path="url(#pf37ec481b8)" d="M 281.094828 290.620699 
L 281.094828 287.54494 
L 282.803936 287.54494 
L 282.803936 284.469181 
L 303.128592 284.469181 
L 303.128592 281.393421 
L 303.505495 281.393421 
L 303.505495 278.317662 
L 329.934169 278.317662 
L 329.934169 275.241903 
L 332.231644 275.241903 
L 332.231644 272.166144 
L 334.637481 272.166144 
L 334.637481 269.090384 
L 334.754885 269.090384 
L 334.754885 266.014625 
L 335.971792 266.014625 
L 335.971792 262.938866 
L 338.595841 262.938866 
L 338.595841 259.863107 
L 339.37923 259.863107 
L 339.432822 253.711588 
L 351.61705 253.711588 
L 351.61705 250.635829 
L 354.717459 250.635829 
L 354.717459 247.56007 
L 354.975891 247.56007 
L 354.975891 244.48431 
L 355.193561 244.48431 
L 355.193561 241.408551 
L 355.704439 241.408551 
L 355.704439 238.332792 
L 358.501618 238.332792 
L 358.501618 235.257033 
L 370.381452 235.257033 
L 370.381452 232.181273 
L 371.083294 232.181273 
L 371.083294 229.105514 
L 372.345776 229.105514 
L 372.374114 222.953996 
L 373.508931 222.953996 
L 373.508931 219.878236 
L 374.835937 219.878236 
L 374.835937 216.802477 
L 375.480216 216.802477 
L 375.480216 213.726718 
L 384.018959 213.726718 
L 384.018959 210.650958 
L 394.116478 210.650958 
L 394.116478 207.575199 
L 396.391483 207.575199 
L 396.391483 204.49944 
L 396.764054 204.49944 
L 396.772892 198.347921 
L 402.465952 198.347921 
L 402.465952 195.272162 
L 405.179958 195.272162 
L 405.179958 192.196403 
L 409.721775 192.196403 
L 409.721775 189.120644 
L 412.062212 189.120644 
L 412.062212 186.044884 
L 422.656074 186.044884 
L 422.656074 182.969125 
L 423.141325 182.969125 
L 423.141325 179.893366 
L 428.323576 179.893366 
L 428.323576 176.817607 
L 432.6825 176.817607 
L 432.6825 176.817607 
" style="fill:none;stroke:#f5deb3;stroke-linecap:square;"/>
   </g>
   <g id="line2d_15">
    <path clip-path="url(#pf37ec481b8)" d="M 327.698156 290.620699 
L 327.698156 286.970798 
L 335.857122 286.970798 
L 335.857122 283.320897 
L 345.372121 283.320897 
L 345.372121 279.670996 
L 346.341902 279.670996 
L 346.341902 276.021095 
L 350.742111 276.021095 
L 350.742111 272.371194 
L 352.435793 272.371194 
L 352.435793 268.721293 
L 352.498239 268.721293 
L 352.498239 265.071392 
L 355.154052 265.071392 
L 355.154052 261.421491 
L 358.889145 261.421491 
L 358.889145 257.77159 
L 360.855227 257.77159 
L 360.855227 254.121689 
L 365.002898 254.121689 
L 365.002898 250.471788 
L 366.484284 250.471788 
L 366.484284 246.821887 
L 366.484284 246.821887 
L 366.484284 243.171986 
L 367.645788 243.171986 
L 367.645788 239.522085 
L 369.430597 239.522085 
L 369.430597 235.872184 
L 373.397952 235.872184 
L 373.397952 232.222283 
L 373.508931 232.222283 
L 373.508931 228.572382 
L 377.725126 228.572382 
L 377.725126 224.922481 
L 385.36956 224.922481 
L 385.36956 221.27258 
L 387.485124 221.27258 
L 387.485124 217.622679 
L 399.442373 217.622679 
L 399.442373 213.972778 
L 401.08613 213.972778 
L 401.08613 210.322877 
L 406.762928 210.322877 
L 406.762928 206.672976 
L 432.6825 206.672976 
" style="fill:none;stroke:#f5deb3;stroke-linecap:square;"/>
   </g>
   <g id="line2d_16">
    <path clip-path="url(#pf37ec481b8)" d="M 244.3296 290.620699 
L 244.3296 286.970798 
L 244.497783 286.970798 
L 244.497783 283.320897 
L 245.823911 283.320897 
L 245.823911 279.670996 
L 246.796658 279.670996 
L 246.796658 276.021095 
L 247.276255 276.021095 
L 247.276255 272.371194 
L 248.843531 272.371194 
L 248.843531 268.721293 
L 255.633351 268.721293 
L 255.633351 265.071392 
L 259.038684 265.071392 
L 259.038684 261.421491 
L 264.449486 261.421491 
L 264.449486 257.77159 
L 264.790848 257.77159 
L 264.790848 254.121689 
L 269.658027 254.121689 
L 269.658027 250.471788 
L 280.595954 250.471788 
L 280.595954 246.821887 
L 283.755794 246.821887 
L 283.755794 243.171986 
L 288.770542 243.171986 
L 288.770542 239.522085 
L 298.790563 239.522085 
L 298.790563 235.872184 
L 307.678001 235.872184 
L 307.678001 232.222283 
L 308.170539 232.222283 
L 308.170539 228.572382 
L 308.219536 228.572382 
L 308.219536 224.922481 
L 311.813696 224.922481 
L 311.813696 221.27258 
L 311.996116 221.27258 
L 311.996116 217.622679 
L 323.097351 217.622679 
L 323.097351 213.972778 
L 324.43882 213.972778 
L 324.43882 210.322877 
L 325.114394 210.322877 
L 325.114394 206.672976 
L 329.901977 206.672976 
L 329.901977 203.023075 
L 334.224458 203.023075 
L 334.224458 199.373175 
L 369.699797 199.373175 
L 369.699797 195.723274 
L 370.012102 195.723274 
L 370.012102 192.073373 
L 370.952422 192.073373 
L 370.952422 188.423472 
L 373.59201 188.423472 
L 373.59201 184.773571 
L 374.429148 184.773571 
L 374.429148 181.12367 
L 374.835937 181.12367 
L 374.835937 177.473769 
L 376.300705 177.473769 
L 376.300705 173.823868 
L 379.876629 173.823868 
L 379.876629 170.173967 
L 401.482983 170.173967 
L 401.482983 166.524066 
L 407.089718 166.524066 
L 407.089718 162.874165 
L 416.199185 162.874165 
L 416.199185 159.224264 
L 428.677667 159.224264 
L 428.677667 155.574363 
L 430.789396 155.574363 
L 430.789396 151.924462 
L 432.6825 151.924462 
" style="fill:none;stroke:#f5deb3;stroke-linecap:square;"/>
   </g>
   <g id="line2d_17">
    <path clip-path="url(#pf37ec481b8)" d="M 391.999119 290.620699 
L 391.999119 286.970798 
L 409.521873 286.970798 
L 409.521873 283.320897 
L 411.705912 283.320897 
L 411.705912 279.670996 
L 418.281199 279.670996 
L 418.281199 276.021095 
L 419.67894 276.021095 
L 419.67894 272.371194 
L 422.041681 272.371194 
L 422.041681 268.721293 
L 424.997093 268.721293 
L 424.997093 265.071392 
L 425.344114 265.071392 
L 425.344114 261.421491 
L 428.323576 261.421491 
L 428.323576 257.77159 
L 429.575868 257.77159 
L 429.575868 254.121689 
L 430.060987 254.121689 
L 430.060987 250.471788 
L 430.848874 250.471788 
L 430.953937 243.171986 
L 431.140696 243.171986 
L 431.140696 239.522085 
L 432.6825 239.522085 
L 432.6825 239.522085 
" style="fill:none;stroke:#f5deb3;stroke-linecap:square;"/>
   </g>
   <g id="line2d_18">
    <path clip-path="url(#pf37ec481b8)" d="M 210.303279 290.620699 
L 210.303279 286.970798 
L 214.965549 286.970798 
L 214.965549 283.320897 
L 222.425586 283.320897 
L 222.425586 279.670996 
L 225.666696 279.670996 
L 225.666696 276.021095 
L 226.62443 276.021095 
L 226.62443 272.371194 
L 230.507821 272.371194 
L 230.507821 268.721293 
L 232.025805 268.721293 
L 232.025805 265.071392 
L 239.011614 265.071392 
L 239.011614 261.421491 
L 244.66542 261.421491 
L 244.66542 257.77159 
L 246.635799 257.77159 
L 246.635799 254.121689 
L 251.84241 254.121689 
L 251.84241 250.471788 
L 260.414528 250.471788 
L 260.414528 246.821887 
L 263.528015 246.821887 
L 263.528015 243.171986 
L 264.105855 243.171986 
L 264.105855 239.522085 
L 271.682401 239.522085 
L 271.682401 235.872184 
L 273.63051 235.872184 
L 273.63051 232.222283 
L 277.67433 232.222283 
L 277.67433 228.572382 
L 281.588935 228.572382 
L 281.588935 224.922481 
L 287.250433 224.922481 
L 287.250433 221.27258 
L 289.408584 221.27258 
L 289.408584 217.622679 
L 297.420913 217.622679 
L 297.420913 213.972778 
L 298.436745 213.972778 
L 298.436745 210.322877 
L 298.613957 210.322877 
L 298.613957 206.672976 
L 310.70545 206.672976 
L 310.70545 203.023075 
L 351.1921 203.023075 
L 351.1921 199.373175 
L 353.974773 199.373175 
L 353.974773 195.723274 
L 354.317332 195.723274 
L 354.317332 192.073373 
L 359.164183 192.073373 
L 359.164183 188.423472 
L 363.629015 188.423472 
L 363.629015 184.773571 
L 364.609367 184.773571 
L 364.609367 181.12367 
L 367.908976 181.12367 
L 367.908976 177.473769 
L 382.97946 177.473769 
L 382.97946 173.823868 
L 387.294407 173.823868 
L 387.294407 170.173967 
L 398.253834 170.173967 
L 398.253834 166.524066 
L 404.408061 166.524066 
L 404.408061 162.874165 
L 414.7527 162.874165 
L 414.7527 159.224264 
L 418.461628 159.224264 
L 418.461628 155.574363 
L 420.707173 155.574363 
L 420.707173 151.924462 
L 421.76444 151.924462 
L 421.76444 148.274561 
L 423.842447 148.274561 
L 423.842447 144.62466 
L 432.6825 144.62466 
" style="fill:none;stroke:#f5deb3;stroke-linecap:square;"/>
   </g>
   <g id="line2d_19">
    <path clip-path="url(#pf37ec481b8)" style="fill:none;stroke:#f5deb3;stroke-linecap:square;"/>
   </g>
   <g id="line2d_20">
    <path clip-path="url(#pf37ec481b8)" d="M 306.069593 290.620699 
L 306.069593 286.970798 
L 310.658753 286.970798 
L 310.658753 283.320897 
L 311.63063 283.320897 
L 311.63063 279.670996 
L 313.121894 279.670996 
L 313.121894 276.021095 
L 315.896939 276.021095 
L 315.896939 272.371194 
L 317.106973 272.371194 
L 317.106973 268.721293 
L 336.28583 268.721293 
L 336.28583 265.071392 
L 337.188699 265.071392 
L 337.188699 261.421491 
L 341.480735 261.421491 
L 341.480735 257.77159 
L 342.550762 257.77159 
L 342.550762 254.121689 
L 343.919324 254.121689 
L 343.919324 250.471788 
L 348.857331 250.471788 
L 348.857331 246.821887 
L 349.323946 246.821887 
L 349.323946 243.171986 
L 351.722744 243.171986 
L 351.722744 239.522085 
L 353.650278 239.522085 
L 353.650278 235.872184 
L 359.017678 235.872184 
L 359.017678 232.222283 
L 364.444509 232.222283 
L 364.444509 228.572382 
L 376.208718 228.572382 
L 376.208718 224.922481 
L 377.160057 224.922481 
L 377.160057 221.27258 
L 378.385071 221.27258 
L 378.385071 217.622679 
L 392.182938 217.622679 
L 392.182938 213.972778 
L 402.734403 213.972778 
L 402.734403 210.322877 
L 406.221009 210.322877 
L 406.221009 206.672976 
L 407.644147 206.672976 
L 407.644147 203.023075 
L 407.780044 203.023075 
L 407.780044 199.373175 
L 413.674124 199.373175 
L 413.674124 195.723274 
L 415.772532 195.723274 
L 415.772532 192.073373 
L 417.071926 192.073373 
L 417.071926 188.423472 
L 420.456218 188.423472 
L 420.456218 184.773571 
L 424.472156 184.773571 
L 424.472156 181.12367 
L 426.580416 181.12367 
L 426.580416 177.473769 
L 430.615144 177.473769 
L 430.615144 173.823868 
L 431.925862 173.823868 
L 431.925862 170.173967 
L 432.6825 170.173967 
" style="fill:none;stroke:#f5deb3;stroke-linecap:square;"/>
   </g>
   <g id="line2d_21">
    <path clip-path="url(#pf37ec481b8)" d="M 266.023577 290.620699 
L 266.023577 286.970798 
L 273.63051 286.970798 
L 273.63051 283.320897 
L 293.861486 283.320897 
L 293.861486 279.670996 
L 307.678001 279.670996 
L 307.678001 276.021095 
L 309.141763 276.021095 
L 309.141763 272.371194 
L 310.798716 272.371194 
L 310.798716 268.721293 
L 313.432769 268.721293 
L 313.432769 265.071392 
L 318.530631 265.071392 
L 318.530631 261.421491 
L 320.11108 261.421491 
L 320.11108 257.77159 
L 321.757865 257.77159 
L 321.757865 254.121689 
L 324.043627 254.121689 
L 324.043627 250.471788 
L 325.043695 250.471788 
L 325.043695 246.821887 
L 325.325912 246.821887 
L 325.325912 243.171986 
L 333.086476 243.171986 
L 333.086476 239.522085 
L 344.017457 239.522085 
L 344.017457 235.872184 
L 344.310744 235.872184 
L 344.310744 232.222283 
L 357.453787 232.222283 
L 357.453787 228.572382 
L 367.225013 228.572382 
L 367.225013 224.922481 
L 382.153659 224.922481 
L 382.153659 221.27258 
L 399.593223 221.27258 
L 399.593223 217.622679 
L 401.280888 217.622679 
L 401.280888 213.972778 
L 404.331761 213.972778 
L 404.331761 210.322877 
L 413.418546 210.322877 
L 413.418546 206.672976 
L 415.156856 206.672976 
L 415.156856 203.023075 
L 418.699297 203.023075 
L 418.699297 199.373175 
L 420.857164 199.373175 
L 420.857164 195.723274 
L 431.997466 195.723274 
L 431.997466 192.073373 
L 432.526935 192.073373 
L 432.526935 188.423472 
L 432.6825 188.423472 
" style="fill:none;stroke:#f5deb3;stroke-linecap:square;"/>
   </g>
   <g id="line2d_22">
    <path clip-path="url(#pf37ec481b8)" style="fill:none;stroke:#f5deb3;stroke-linecap:square;"/>
   </g>
   <g id="line2d_23">
    <path clip-path="url(#pf37ec481b8)" style="fill:none;stroke:#f5deb3;stroke-linecap:square;"/>
   </g>
   <g id="line2d_24">
    <path clip-path="url(#pf37ec481b8)" style="fill:none;stroke:#f5deb3;stroke-linecap:square;"/>
   </g>
   <g id="line2d_25">
    <path clip-path="url(#pf37ec481b8)" d="M 273.150319 290.620699 
L 273.150319 286.970798 
L 274.011478 286.970798 
L 274.011478 283.320897 
L 276.330978 283.320897 
L 276.330978 279.670996 
L 278.550897 279.670996 
L 278.550897 276.021095 
L 279.412853 276.021095 
L 279.412853 272.371194 
L 280.007787 272.371194 
L 280.007787 268.721293 
L 281.260055 268.721293 
L 281.260055 265.071392 
L 282.321356 265.071392 
L 282.321356 261.421491 
L 283.123173 261.421491 
L 283.123173 257.77159 
L 284.535842 257.77159 
L 284.535842 254.121689 
L 284.690449 254.121689 
L 284.690449 250.471788 
L 287.176921 250.471788 
L 287.176921 246.821887 
L 288.770542 246.821887 
L 288.770542 243.171986 
L 293.472153 243.171986 
L 293.472153 239.522085 
L 298.907967 239.522085 
L 298.907967 235.872184 
L 303.719641 235.872184 
L 303.719641 232.222283 
L 312.449372 232.222283 
L 312.449372 228.572382 
L 329.578951 228.572382 
L 329.578951 224.922481 
L 349.390263 224.922481 
L 349.390263 221.27258 
L 387.527411 221.27258 
L 387.527411 217.622679 
L 419.325889 217.622679 
L 419.325889 213.972778 
L 427.442249 213.972778 
L 427.442249 210.322877 
L 427.700453 210.322877 
L 427.807255 203.023075 
L 432.628647 203.023075 
L 432.6825 199.373175 
L 432.6825 199.373175 
" style="fill:none;stroke:#f5deb3;stroke-linecap:square;"/>
   </g>
   <g id="line2d_26">
    <path clip-path="url(#pf37ec481b8)" d="M 402.505517 290.620699 
L 402.505517 286.970798 
L 403.678625 286.970798 
L 403.678625 283.320897 
L 408.135973 283.320897 
L 408.135973 279.670996 
L 416.041125 279.670996 
L 416.041125 276.021095 
L 417.718424 276.021095 
L 417.718424 272.371194 
L 417.971257 272.371194 
L 417.971257 268.721293 
L 422.613196 268.721293 
L 422.613196 265.071392 
L 423.479893 265.071392 
L 423.479893 261.421491 
L 428.620411 261.421491 
L 428.620411 257.77159 
L 428.639503 257.77159 
L 428.639503 254.121689 
L 432.6825 254.121689 
" style="fill:none;stroke:#f5deb3;stroke-linecap:square;"/>
   </g>
   <g id="line2d_27">
    <path clip-path="url(#pf37ec481b8)" d="M 319.326892 290.620699 
L 319.326892 286.970798 
L 322.394725 286.970798 
L 322.394725 283.320897 
L 325.325912 283.320897 
L 325.325912 279.670996 
L 325.466445 279.670996 
L 325.466445 276.021095 
L 326.542819 276.021095 
L 326.542819 272.371194 
L 328.72952 272.371194 
L 328.72952 268.721293 
L 333.297995 268.721293 
L 333.297995 265.071392 
L 335.047232 265.071392 
L 335.047232 261.421491 
L 335.16371 261.421491 
L 335.192789 254.121689 
L 335.42483 254.121689 
L 335.42483 250.471788 
L 336.029032 250.471788 
L 336.029032 246.821887 
L 342.475062 246.821887 
L 342.475062 243.171986 
L 343.127482 243.171986 
L 343.127482 239.522085 
L 344.578138 239.522085 
L 344.578138 235.872184 
L 348.363937 235.872184 
L 348.363937 232.222283 
L 350.634392 232.222283 
L 350.634392 228.572382 
L 360.996625 228.572382 
L 360.996625 224.922481 
L 395.791531 224.922481 
L 395.791531 221.27258 
L 402.116463 221.27258 
L 402.212013 213.972778 
L 406.27987 213.972778 
L 406.27987 210.322877 
L 407.277593 210.322877 
L 407.277593 206.672976 
L 407.88708 206.672976 
L 407.88708 203.023075 
L 411.917349 203.023075 
L 411.917349 199.373175 
L 412.193555 199.373175 
L 412.193555 195.723274 
L 414.055139 195.723274 
L 414.055139 192.073373 
L 415.551732 192.073373 
L 415.551732 188.423472 
L 415.821471 188.423472 
L 415.821471 184.773571 
L 418.269536 184.773571 
L 418.269536 181.12367 
L 419.71865 181.12367 
L 419.71865 177.473769 
L 420.807215 177.473769 
L 420.807215 173.823868 
L 421.238509 173.823868 
L 421.238509 170.173967 
L 425.68377 170.173967 
L 425.68377 166.524066 
L 426.580416 166.524066 
L 426.580416 162.874165 
L 429.842314 162.874165 
L 429.842314 159.224264 
L 431.131602 159.224264 
L 431.131602 155.574363 
L 432.6825 155.574363 
L 432.6825 155.574363 
" style="fill:none;stroke:#f5deb3;stroke-linecap:square;"/>
   </g>
   <g id="line2d_28">
    <path clip-path="url(#pf37ec481b8)" d="M 385.479618 290.620699 
L 385.479618 286.970798 
L 390.16425 286.970798 
L 390.16425 283.320897 
L 391.296549 283.320897 
L 391.296549 279.670996 
L 393.338495 279.670996 
L 393.338495 276.021095 
L 395.962375 276.021095 
L 395.962375 272.371194 
L 397.387836 272.371194 
L 397.387836 268.721293 
L 398.391058 268.721293 
L 398.391058 265.071392 
L 403.056281 265.071392 
L 403.056281 261.421491 
L 404.377554 261.421491 
L 404.377554 257.77159 
L 409.008247 257.77159 
L 409.008247 254.121689 
L 409.355849 254.121689 
L 409.355849 250.471788 
L 410.310087 250.471788 
L 410.310087 246.821887 
L 414.72148 246.821887 
L 414.72148 243.171986 
L 432.6825 243.171986 
" style="fill:none;stroke:#f5deb3;stroke-linecap:square;"/>
   </g>
   <g id="line2d_29">
    <path clip-path="url(#pf37ec481b8)" d="M 159.902786 290.620699 
L 159.902786 286.970798 
L 159.902786 286.970798 
L 159.902786 283.320897 
L 159.902786 283.320897 
L 159.902786 279.670996 
L 236.721224 279.670996 
L 236.721224 276.021095 
L 236.721224 276.021095 
L 236.721224 272.371194 
L 236.721224 272.371194 
L 236.721224 268.721293 
L 250.064029 268.721293 
L 250.064029 265.071392 
L 250.064029 265.071392 
L 250.064029 261.421491 
L 250.064029 261.421491 
L 250.064029 257.77159 
L 279.327301 257.77159 
L 279.327301 254.121689 
L 279.327301 254.121689 
L 279.327301 250.471788 
L 279.327301 250.471788 
L 279.327301 246.821887 
L 299.258586 246.821887 
L 299.258586 243.171986 
L 299.258586 243.171986 
L 299.258586 239.522085 
L 299.258586 239.522085 
L 299.258586 235.872184 
L 299.895279 235.872184 
L 299.895279 232.222283 
L 299.895279 232.222283 
L 299.895279 228.572382 
L 299.895279 228.572382 
L 299.895279 224.922481 
L 300.010204 224.922481 
L 300.010204 221.27258 
L 300.010204 221.27258 
L 300.010204 217.622679 
L 300.010204 217.622679 
L 300.010204 213.972778 
L 300.581028 213.972778 
L 300.581028 210.322877 
L 300.581028 210.322877 
L 300.581028 206.672976 
L 300.581028 206.672976 
L 300.581028 203.023075 
L 432.6825 203.023075 
" style="fill:none;stroke:#f5deb3;stroke-linecap:square;"/>
   </g>
   <g id="line2d_30">
    <path clip-path="url(#pf37ec481b8)" d="M -1 286.970798 
L 19.852799 286.970798 
L 19.852799 283.320897 
L 40.821902 283.320897 
L 40.821902 279.670996 
L 67.239847 279.670996 
L 67.239847 276.021095 
L 72.168925 276.021095 
L 72.168925 272.371194 
L 88.20895 272.371194 
L 88.20895 268.721293 
L 88.20895 268.721293 
L 88.20895 265.071392 
L 116.65524 265.071392 
L 116.65524 261.421491 
L 118.607026 261.421491 
L 118.607026 257.77159 
L 132.027951 257.77159 
L 132.027951 254.121689 
L 140.210691 254.121689 
L 140.210691 250.471788 
L 151.497929 250.471788 
L 151.497929 246.821887 
L 166.375745 246.821887 
L 166.375745 243.171986 
L 207.633465 243.171986 
L 207.633465 239.522085 
L 228.258937 239.522085 
L 228.258937 235.872184 
L 269.034933 235.872184 
L 269.034933 232.222283 
L 269.864068 232.222283 
L 269.864068 228.572382 
L 285.074958 228.572382 
L 285.074958 224.922481 
L 294.440044 224.922481 
L 294.440044 221.27258 
L 300.864095 221.27258 
L 300.864095 217.622679 
L 304.356809 217.622679 
L 304.356809 213.972778 
L 312.268546 213.972778 
L 312.268546 210.322877 
L 315.045625 210.322877 
L 315.045625 206.672976 
L 315.045625 206.672976 
L 315.045625 206.672976 
L 424.4825 206.672976 
" style="fill:none;stroke:#000000;stroke-linecap:square;"/>
   </g>
   <g id="line2d_31"/>
   <g id="line2d_32">
    <path clip-path="url(#pf37ec481b8)" d="M 183.120773 290.620699 
L 183.120773 286.970798 
L 207.633465 286.970798 
L 207.633465 283.320897 
L 213.457682 283.320897 
L 213.457682 279.670996 
L 231.163849 279.670996 
L 231.163849 276.021095 
L 231.596622 276.021095 
L 231.596622 272.371194 
L 269.034933 272.371194 
L 269.034933 268.721293 
L 281.424757 268.721293 
L 281.424757 265.071392 
L 294.440044 265.071392 
L 294.440044 261.421491 
L 299.083573 261.421491 
L 299.083573 257.77159 
L 304.672473 257.77159 
L 304.672473 254.121689 
L 307.130734 254.121689 
L 307.130734 250.471788 
L 311.031149 250.471788 
L 311.031149 246.821887 
L 313.210906 246.821887 
L 313.210906 243.171986 
L 314.441255 243.171986 
L 314.441255 239.522085 
L 314.441255 239.522085 
L 314.441255 239.522085 
L 424.4825 239.522085 
" style="fill:none;stroke:#00bfbf;stroke-linecap:square;"/>
   </g>
   <g id="line2d_33"/>
   <g id="line2d_34"/>
   <g id="line2d_35"/>
   <g id="line2d_36">
    <path clip-path="url(#pf37ec481b8)" d="M 315.045625 290.620699 
L 315.045625 14.140699 
" style="fill:none;stroke:#000000;stroke-linecap:square;"/>
   </g>
   <g id="patch_3">
    <path d="M 67.3625 14.140699 
L 424.4825 14.140699 
" style="fill:none;stroke:#000000;stroke-linecap:square;stroke-linejoin:miter;"/>
   </g>
   <g id="patch_4">
    <path d="M 424.4825 290.620699 
L 424.4825 14.140699 
" style="fill:none;stroke:#000000;stroke-linecap:square;stroke-linejoin:miter;"/>
   </g>
   <g id="patch_5">
    <path d="M 67.3625 290.620699 
L 424.4825 290.620699 
" style="fill:none;stroke:#000000;stroke-linecap:square;stroke-linejoin:miter;"/>
   </g>
   <g id="patch_6">
    <path d="M 67.3625 290.620699 
L 67.3625 14.140699 
" style="fill:none;stroke:#000000;stroke-linecap:square;stroke-linejoin:miter;"/>
   </g>
   <g id="matplotlib.axis_1">
    <g id="xtick_1">
     <g id="line2d_37">
      <path clip-path="url(#pf37ec481b8)" d="M 103.086765 290.620699 
L 103.086765 14.140699 
" style="fill:none;stroke:#000000;stroke-dasharray:1.000000,3.000000;stroke-dashoffset:0.0;stroke-width:0.5;"/>
     </g>
     <g id="line2d_38">
      <defs>
       <path d="M 0 0 
L 0 -4 
" id="m84cd159eb2" style="stroke:#000000;stroke-width:0.5;"/>
      </defs>
      <g>
       <use style="stroke:#000000;stroke-width:0.5;" x="103.086765279" xlink:href="#m84cd159eb2" y="290.620699257"/>
      </g>
     </g>
     <g id="line2d_39">
      <defs>
       <path d="M 0 0 
L 0 4 
" id="md507dc737b" style="stroke:#000000;stroke-width:0.5;"/>
      </defs>
      <g>
       <use style="stroke:#000000;stroke-width:0.5;" x="103.086765279" xlink:href="#md507dc737b" y="14.1406992574"/>
      </g>
     </g>
     <g id="text_1">
      <!-- 0 -->
      <defs>
       <path d="M 31.78125 66.40625 
Q 24.171875 66.40625 20.328125 58.90625 
Q 16.5 51.421875 16.5 36.375 
Q 16.5 21.390625 20.328125 13.890625 
Q 24.171875 6.390625 31.78125 6.390625 
Q 39.453125 6.390625 43.28125 13.890625 
Q 47.125 21.390625 47.125 36.375 
Q 47.125 51.421875 43.28125 58.90625 
Q 39.453125 66.40625 31.78125 66.40625 
M 31.78125 74.21875 
Q 44.046875 74.21875 50.515625 64.515625 
Q 56.984375 54.828125 56.984375 36.375 
Q 56.984375 17.96875 50.515625 8.265625 
Q 44.046875 -1.421875 31.78125 -1.421875 
Q 19.53125 -1.421875 13.0625 8.265625 
Q 6.59375 17.96875 6.59375 36.375 
Q 6.59375 54.828125 13.0625 64.515625 
Q 19.53125 74.21875 31.78125 74.21875 
" id="BitstreamVeraSans-Roman-30"/>
      </defs>
      <g transform="translate(96.7242652794 309.817574257)scale(0.2 -0.2)">
       <use xlink:href="#BitstreamVeraSans-Roman-30"/>
      </g>
     </g>
    </g>
    <g id="xtick_2">
     <g id="line2d_40">
      <path clip-path="url(#pf37ec481b8)" d="M 222.16765 290.620699 
L 222.16765 14.140699 
" style="fill:none;stroke:#000000;stroke-dasharray:1.000000,3.000000;stroke-dashoffset:0.0;stroke-width:0.5;"/>
     </g>
     <g id="line2d_41">
      <g>
       <use style="stroke:#000000;stroke-width:0.5;" x="222.167649544" xlink:href="#m84cd159eb2" y="290.620699257"/>
      </g>
     </g>
     <g id="line2d_42">
      <g>
       <use style="stroke:#000000;stroke-width:0.5;" x="222.167649544" xlink:href="#md507dc737b" y="14.1406992574"/>
      </g>
     </g>
     <g id="text_2">
      <!-- 1 -->
      <defs>
       <path d="M 12.40625 8.296875 
L 28.515625 8.296875 
L 28.515625 63.921875 
L 10.984375 60.40625 
L 10.984375 69.390625 
L 28.421875 72.90625 
L 38.28125 72.90625 
L 38.28125 8.296875 
L 54.390625 8.296875 
L 54.390625 0 
L 12.40625 0 
z
" id="BitstreamVeraSans-Roman-31"/>
      </defs>
      <g transform="translate(215.805149544 309.817574257)scale(0.2 -0.2)">
       <use xlink:href="#BitstreamVeraSans-Roman-31"/>
      </g>
     </g>
    </g>
    <g id="xtick_3">
     <g id="line2d_43">
      <path clip-path="url(#pf37ec481b8)" d="M 341.248534 290.620699 
L 341.248534 14.140699 
" style="fill:none;stroke:#000000;stroke-dasharray:1.000000,3.000000;stroke-dashoffset:0.0;stroke-width:0.5;"/>
     </g>
     <g id="line2d_44">
      <g>
       <use style="stroke:#000000;stroke-width:0.5;" x="341.248533809" xlink:href="#m84cd159eb2" y="290.620699257"/>
      </g>
     </g>
     <g id="line2d_45">
      <g>
       <use style="stroke:#000000;stroke-width:0.5;" x="341.248533809" xlink:href="#md507dc737b" y="14.1406992574"/>
      </g>
     </g>
     <g id="text_3">
      <!-- 2 -->
      <defs>
       <path d="M 19.1875 8.296875 
L 53.609375 8.296875 
L 53.609375 0 
L 7.328125 0 
L 7.328125 8.296875 
Q 12.9375 14.109375 22.625 23.890625 
Q 32.328125 33.6875 34.8125 36.53125 
Q 39.546875 41.84375 41.421875 45.53125 
Q 43.3125 49.21875 43.3125 52.78125 
Q 43.3125 58.59375 39.234375 62.25 
Q 35.15625 65.921875 28.609375 65.921875 
Q 23.96875 65.921875 18.8125 64.3125 
Q 13.671875 62.703125 7.8125 59.421875 
L 7.8125 69.390625 
Q 13.765625 71.78125 18.9375 73 
Q 24.125 74.21875 28.421875 74.21875 
Q 39.75 74.21875 46.484375 68.546875 
Q 53.21875 62.890625 53.21875 53.421875 
Q 53.21875 48.921875 51.53125 44.890625 
Q 49.859375 40.875 45.40625 35.40625 
Q 44.1875 33.984375 37.640625 27.21875 
Q 31.109375 20.453125 19.1875 8.296875 
" id="BitstreamVeraSans-Roman-32"/>
      </defs>
      <g transform="translate(334.886033809 309.817574257)scale(0.2 -0.2)">
       <use xlink:href="#BitstreamVeraSans-Roman-32"/>
      </g>
     </g>
    </g>
    <g id="xtick_4">
     <g id="line2d_46">
      <defs>
       <path d="M 0 0 
L 0 -2 
" id="ma97adfdbfe" style="stroke:#000000;stroke-width:0.5;"/>
      </defs>
      <g>
       <use style="stroke:#000000;stroke-width:0.5;" x="76.6688200021" xlink:href="#ma97adfdbfe" y="290.620699257"/>
      </g>
     </g>
     <g id="line2d_47">
      <defs>
       <path d="M 0 0 
L 0 2 
" id="me5238bce83" style="stroke:#000000;stroke-width:0.5;"/>
      </defs>
      <g>
       <use style="stroke:#000000;stroke-width:0.5;" x="76.6688200021" xlink:href="#me5238bce83" y="14.1406992574"/>
      </g>
     </g>
    </g>
    <g id="xtick_5">
     <g id="line2d_48">
      <g>
       <use style="stroke:#000000;stroke-width:0.5;" x="84.64090291" xlink:href="#ma97adfdbfe" y="290.620699257"/>
      </g>
     </g>
     <g id="line2d_49">
      <g>
       <use style="stroke:#000000;stroke-width:0.5;" x="84.64090291" xlink:href="#me5238bce83" y="14.1406992574"/>
      </g>
     </g>
    </g>
    <g id="xtick_6">
     <g id="line2d_50">
      <g>
       <use style="stroke:#000000;stroke-width:0.5;" x="91.5466352363" xlink:href="#ma97adfdbfe" y="290.620699257"/>
      </g>
     </g>
     <g id="line2d_51">
      <g>
       <use style="stroke:#000000;stroke-width:0.5;" x="91.5466352363" xlink:href="#me5238bce83" y="14.1406992574"/>
      </g>
     </g>
    </g>
    <g id="xtick_7">
     <g id="line2d_52">
      <g>
       <use style="stroke:#000000;stroke-width:0.5;" x="97.6379228417" xlink:href="#ma97adfdbfe" y="290.620699257"/>
      </g>
     </g>
     <g id="line2d_53">
      <g>
       <use style="stroke:#000000;stroke-width:0.5;" x="97.6379228417" xlink:href="#me5238bce83" y="14.1406992574"/>
      </g>
     </g>
    </g>
    <g id="xtick_8">
     <g id="line2d_54">
      <g>
       <use style="stroke:#000000;stroke-width:0.5;" x="138.933683353" xlink:href="#ma97adfdbfe" y="290.620699257"/>
      </g>
     </g>
     <g id="line2d_55">
      <g>
       <use style="stroke:#000000;stroke-width:0.5;" x="138.933683353" xlink:href="#me5238bce83" y="14.1406992574"/>
      </g>
     </g>
    </g>
    <g id="xtick_9">
     <g id="line2d_56">
      <g>
       <use style="stroke:#000000;stroke-width:0.5;" x="159.902786193" xlink:href="#ma97adfdbfe" y="290.620699257"/>
      </g>
     </g>
     <g id="line2d_57">
      <g>
       <use style="stroke:#000000;stroke-width:0.5;" x="159.902786193" xlink:href="#me5238bce83" y="14.1406992574"/>
      </g>
     </g>
    </g>
    <g id="xtick_10">
     <g id="line2d_58">
      <g>
       <use style="stroke:#000000;stroke-width:0.5;" x="174.780601427" xlink:href="#ma97adfdbfe" y="290.620699257"/>
      </g>
     </g>
     <g id="line2d_59">
      <g>
       <use style="stroke:#000000;stroke-width:0.5;" x="174.780601427" xlink:href="#me5238bce83" y="14.1406992574"/>
      </g>
     </g>
    </g>
    <g id="xtick_11">
     <g id="line2d_60">
      <g>
       <use style="stroke:#000000;stroke-width:0.5;" x="186.32073147" xlink:href="#ma97adfdbfe" y="290.620699257"/>
      </g>
     </g>
     <g id="line2d_61">
      <g>
       <use style="stroke:#000000;stroke-width:0.5;" x="186.32073147" xlink:href="#me5238bce83" y="14.1406992574"/>
      </g>
     </g>
    </g>
    <g id="xtick_12">
     <g id="line2d_62">
      <g>
       <use style="stroke:#000000;stroke-width:0.5;" x="195.749704267" xlink:href="#ma97adfdbfe" y="290.620699257"/>
      </g>
     </g>
     <g id="line2d_63">
      <g>
       <use style="stroke:#000000;stroke-width:0.5;" x="195.749704267" xlink:href="#me5238bce83" y="14.1406992574"/>
      </g>
     </g>
    </g>
    <g id="xtick_13">
     <g id="line2d_64">
      <g>
       <use style="stroke:#000000;stroke-width:0.5;" x="203.721787175" xlink:href="#ma97adfdbfe" y="290.620699257"/>
      </g>
     </g>
     <g id="line2d_65">
      <g>
       <use style="stroke:#000000;stroke-width:0.5;" x="203.721787175" xlink:href="#me5238bce83" y="14.1406992574"/>
      </g>
     </g>
    </g>
    <g id="xtick_14">
     <g id="line2d_66">
      <g>
       <use style="stroke:#000000;stroke-width:0.5;" x="210.627519501" xlink:href="#ma97adfdbfe" y="290.620699257"/>
      </g>
     </g>
     <g id="line2d_67">
      <g>
       <use style="stroke:#000000;stroke-width:0.5;" x="210.627519501" xlink:href="#me5238bce83" y="14.1406992574"/>
      </g>
     </g>
    </g>
    <g id="xtick_15">
     <g id="line2d_68">
      <g>
       <use style="stroke:#000000;stroke-width:0.5;" x="216.718807107" xlink:href="#ma97adfdbfe" y="290.620699257"/>
      </g>
     </g>
     <g id="line2d_69">
      <g>
       <use style="stroke:#000000;stroke-width:0.5;" x="216.718807107" xlink:href="#me5238bce83" y="14.1406992574"/>
      </g>
     </g>
    </g>
    <g id="xtick_16">
     <g id="line2d_70">
      <g>
       <use style="stroke:#000000;stroke-width:0.5;" x="258.014567618" xlink:href="#ma97adfdbfe" y="290.620699257"/>
      </g>
     </g>
     <g id="line2d_71">
      <g>
       <use style="stroke:#000000;stroke-width:0.5;" x="258.014567618" xlink:href="#me5238bce83" y="14.1406992574"/>
      </g>
     </g>
    </g>
    <g id="xtick_17">
     <g id="line2d_72">
      <g>
       <use style="stroke:#000000;stroke-width:0.5;" x="278.983670458" xlink:href="#ma97adfdbfe" y="290.620699257"/>
      </g>
     </g>
     <g id="line2d_73">
      <g>
       <use style="stroke:#000000;stroke-width:0.5;" x="278.983670458" xlink:href="#me5238bce83" y="14.1406992574"/>
      </g>
     </g>
    </g>
    <g id="xtick_18">
     <g id="line2d_74">
      <g>
       <use style="stroke:#000000;stroke-width:0.5;" x="293.861485692" xlink:href="#ma97adfdbfe" y="290.620699257"/>
      </g>
     </g>
     <g id="line2d_75">
      <g>
       <use style="stroke:#000000;stroke-width:0.5;" x="293.861485692" xlink:href="#me5238bce83" y="14.1406992574"/>
      </g>
     </g>
    </g>
    <g id="xtick_19">
     <g id="line2d_76">
      <g>
       <use style="stroke:#000000;stroke-width:0.5;" x="305.401615735" xlink:href="#ma97adfdbfe" y="290.620699257"/>
      </g>
     </g>
     <g id="line2d_77">
      <g>
       <use style="stroke:#000000;stroke-width:0.5;" x="305.401615735" xlink:href="#me5238bce83" y="14.1406992574"/>
      </g>
     </g>
    </g>
    <g id="xtick_20">
     <g id="line2d_78">
      <g>
       <use style="stroke:#000000;stroke-width:0.5;" x="314.830588532" xlink:href="#ma97adfdbfe" y="290.620699257"/>
      </g>
     </g>
     <g id="line2d_79">
      <g>
       <use style="stroke:#000000;stroke-width:0.5;" x="314.830588532" xlink:href="#me5238bce83" y="14.1406992574"/>
      </g>
     </g>
    </g>
    <g id="xtick_21">
     <g id="line2d_80">
      <g>
       <use style="stroke:#000000;stroke-width:0.5;" x="322.80267144" xlink:href="#ma97adfdbfe" y="290.620699257"/>
      </g>
     </g>
     <g id="line2d_81">
      <g>
       <use style="stroke:#000000;stroke-width:0.5;" x="322.80267144" xlink:href="#me5238bce83" y="14.1406992574"/>
      </g>
     </g>
    </g>
    <g id="xtick_22">
     <g id="line2d_82">
      <g>
       <use style="stroke:#000000;stroke-width:0.5;" x="329.708403766" xlink:href="#ma97adfdbfe" y="290.620699257"/>
      </g>
     </g>
     <g id="line2d_83">
      <g>
       <use style="stroke:#000000;stroke-width:0.5;" x="329.708403766" xlink:href="#me5238bce83" y="14.1406992574"/>
      </g>
     </g>
    </g>
    <g id="xtick_23">
     <g id="line2d_84">
      <g>
       <use style="stroke:#000000;stroke-width:0.5;" x="335.799691371" xlink:href="#ma97adfdbfe" y="290.620699257"/>
      </g>
     </g>
     <g id="line2d_85">
      <g>
       <use style="stroke:#000000;stroke-width:0.5;" x="335.799691371" xlink:href="#me5238bce83" y="14.1406992574"/>
      </g>
     </g>
    </g>
    <g id="xtick_24">
     <g id="line2d_86">
      <g>
       <use style="stroke:#000000;stroke-width:0.5;" x="377.095451883" xlink:href="#ma97adfdbfe" y="290.620699257"/>
      </g>
     </g>
     <g id="line2d_87">
      <g>
       <use style="stroke:#000000;stroke-width:0.5;" x="377.095451883" xlink:href="#me5238bce83" y="14.1406992574"/>
      </g>
     </g>
    </g>
    <g id="xtick_25">
     <g id="line2d_88">
      <g>
       <use style="stroke:#000000;stroke-width:0.5;" x="398.064554723" xlink:href="#ma97adfdbfe" y="290.620699257"/>
      </g>
     </g>
     <g id="line2d_89">
      <g>
       <use style="stroke:#000000;stroke-width:0.5;" x="398.064554723" xlink:href="#me5238bce83" y="14.1406992574"/>
      </g>
     </g>
    </g>
    <g id="xtick_26">
     <g id="line2d_90">
      <g>
       <use style="stroke:#000000;stroke-width:0.5;" x="412.942369957" xlink:href="#ma97adfdbfe" y="290.620699257"/>
      </g>
     </g>
     <g id="line2d_91">
      <g>
       <use style="stroke:#000000;stroke-width:0.5;" x="412.942369957" xlink:href="#me5238bce83" y="14.1406992574"/>
      </g>
     </g>
    </g>
    <g id="xtick_27">
     <g id="line2d_92">
      <g>
       <use style="stroke:#000000;stroke-width:0.5;" x="424.4825" xlink:href="#ma97adfdbfe" y="290.620699257"/>
      </g>
     </g>
     <g id="line2d_93">
      <g>
       <use style="stroke:#000000;stroke-width:0.5;" x="424.4825" xlink:href="#me5238bce83" y="14.1406992574"/>
      </g>
     </g>
    </g>
    <g id="text_4">
     <!-- log10 of FEvals / DIM -->
     <defs>
      <path id="BitstreamVeraSans-Roman-20"/>
      <path d="M 9.8125 72.90625 
L 24.515625 72.90625 
L 43.109375 23.296875 
L 61.8125 72.90625 
L 76.515625 72.90625 
L 76.515625 0 
L 66.890625 0 
L 66.890625 64.015625 
L 48.09375 14.015625 
L 38.1875 14.015625 
L 19.390625 64.015625 
L 19.390625 0 
L 9.8125 0 
z
" id="BitstreamVeraSans-Roman-4d"/>
      <path d="M 30.609375 48.390625 
Q 23.390625 48.390625 19.1875 42.75 
Q 14.984375 37.109375 14.984375 27.296875 
Q 14.984375 17.484375 19.15625 11.84375 
Q 23.34375 6.203125 30.609375 6.203125 
Q 37.796875 6.203125 41.984375 11.859375 
Q 46.1875 17.53125 46.1875 27.296875 
Q 46.1875 37.015625 41.984375 42.703125 
Q 37.796875 48.390625 30.609375 48.390625 
M 30.609375 56 
Q 42.328125 56 49.015625 48.375 
Q 55.71875 40.765625 55.71875 27.296875 
Q 55.71875 13.875 49.015625 6.21875 
Q 42.328125 -1.421875 30.609375 -1.421875 
Q 18.84375 -1.421875 12.171875 6.21875 
Q 5.515625 13.875 5.515625 27.296875 
Q 5.515625 40.765625 12.171875 48.375 
Q 18.84375 56 30.609375 56 
" id="BitstreamVeraSans-Roman-6f"/>
      <path d="M 9.421875 75.984375 
L 18.40625 75.984375 
L 18.40625 0 
L 9.421875 0 
z
" id="BitstreamVeraSans-Roman-6c"/>
      <path d="M 9.8125 72.90625 
L 51.703125 72.90625 
L 51.703125 64.59375 
L 19.671875 64.59375 
L 19.671875 43.109375 
L 48.578125 43.109375 
L 48.578125 34.8125 
L 19.671875 34.8125 
L 19.671875 0 
L 9.8125 0 
z
" id="BitstreamVeraSans-Roman-46"/>
      <path d="M 9.8125 72.90625 
L 55.90625 72.90625 
L 55.90625 64.59375 
L 19.671875 64.59375 
L 19.671875 43.015625 
L 54.390625 43.015625 
L 54.390625 34.71875 
L 19.671875 34.71875 
L 19.671875 8.296875 
L 56.78125 8.296875 
L 56.78125 0 
L 9.8125 0 
z
" id="BitstreamVeraSans-Roman-45"/>
      <path d="M 19.671875 64.796875 
L 19.671875 8.109375 
L 31.59375 8.109375 
Q 46.6875 8.109375 53.6875 14.9375 
Q 60.6875 21.78125 60.6875 36.53125 
Q 60.6875 51.171875 53.6875 57.984375 
Q 46.6875 64.796875 31.59375 64.796875 
z
M 9.8125 72.90625 
L 30.078125 72.90625 
Q 51.265625 72.90625 61.171875 64.09375 
Q 71.09375 55.28125 71.09375 36.53125 
Q 71.09375 17.671875 61.125 8.828125 
Q 51.171875 0 30.078125 0 
L 9.8125 0 
z
" id="BitstreamVeraSans-Roman-44"/>
      <path d="M 25.390625 72.90625 
L 33.6875 72.90625 
L 8.296875 -9.28125 
L 0 -9.28125 
z
" id="BitstreamVeraSans-Roman-2f"/>
      <path d="M 2.984375 54.6875 
L 12.5 54.6875 
L 29.59375 8.796875 
L 46.6875 54.6875 
L 56.203125 54.6875 
L 35.6875 0 
L 23.484375 0 
z
" id="BitstreamVeraSans-Roman-76"/>
      <path d="M 45.40625 27.984375 
Q 45.40625 37.75 41.375 43.109375 
Q 37.359375 48.484375 30.078125 48.484375 
Q 22.859375 48.484375 18.828125 43.109375 
Q 14.796875 37.75 14.796875 27.984375 
Q 14.796875 18.265625 18.828125 12.890625 
Q 22.859375 7.515625 30.078125 7.515625 
Q 37.359375 7.515625 41.375 12.890625 
Q 45.40625 18.265625 45.40625 27.984375 
M 54.390625 6.78125 
Q 54.390625 -7.171875 48.1875 -13.984375 
Q 42 -20.796875 29.203125 -20.796875 
Q 24.46875 -20.796875 20.265625 -20.09375 
Q 16.0625 -19.390625 12.109375 -17.921875 
L 12.109375 -9.1875 
Q 16.0625 -11.328125 19.921875 -12.34375 
Q 23.78125 -13.375 27.78125 -13.375 
Q 36.625 -13.375 41.015625 -8.765625 
Q 45.40625 -4.15625 45.40625 5.171875 
L 45.40625 9.625 
Q 42.625 4.78125 38.28125 2.390625 
Q 33.9375 0 27.875 0 
Q 17.828125 0 11.671875 7.65625 
Q 5.515625 15.328125 5.515625 27.984375 
Q 5.515625 40.671875 11.671875 48.328125 
Q 17.828125 56 27.875 56 
Q 33.9375 56 38.28125 53.609375 
Q 42.625 51.21875 45.40625 46.390625 
L 45.40625 54.6875 
L 54.390625 54.6875 
z
" id="BitstreamVeraSans-Roman-67"/>
      <path d="M 37.109375 75.984375 
L 37.109375 68.5 
L 28.515625 68.5 
Q 23.6875 68.5 21.796875 66.546875 
Q 19.921875 64.59375 19.921875 59.515625 
L 19.921875 54.6875 
L 34.71875 54.6875 
L 34.71875 47.703125 
L 19.921875 47.703125 
L 19.921875 0 
L 10.890625 0 
L 10.890625 47.703125 
L 2.296875 47.703125 
L 2.296875 54.6875 
L 10.890625 54.6875 
L 10.890625 58.5 
Q 10.890625 67.625 15.140625 71.796875 
Q 19.390625 75.984375 28.609375 75.984375 
z
" id="BitstreamVeraSans-Roman-66"/>
      <path d="M 34.28125 27.484375 
Q 23.390625 27.484375 19.1875 25 
Q 14.984375 22.515625 14.984375 16.5 
Q 14.984375 11.71875 18.140625 8.90625 
Q 21.296875 6.109375 26.703125 6.109375 
Q 34.1875 6.109375 38.703125 11.40625 
Q 43.21875 16.703125 43.21875 25.484375 
L 43.21875 27.484375 
z
M 52.203125 31.203125 
L 52.203125 0 
L 43.21875 0 
L 43.21875 8.296875 
Q 40.140625 3.328125 35.546875 0.953125 
Q 30.953125 -1.421875 24.3125 -1.421875 
Q 15.921875 -1.421875 10.953125 3.296875 
Q 6 8.015625 6 15.921875 
Q 6 25.140625 12.171875 29.828125 
Q 18.359375 34.515625 30.609375 34.515625 
L 43.21875 34.515625 
L 43.21875 35.40625 
Q 43.21875 41.609375 39.140625 45 
Q 35.0625 48.390625 27.6875 48.390625 
Q 23 48.390625 18.546875 47.265625 
Q 14.109375 46.140625 10.015625 43.890625 
L 10.015625 52.203125 
Q 14.9375 54.109375 19.578125 55.046875 
Q 24.21875 56 28.609375 56 
Q 40.484375 56 46.34375 49.84375 
Q 52.203125 43.703125 52.203125 31.203125 
" id="BitstreamVeraSans-Roman-61"/>
      <path d="M 44.28125 53.078125 
L 44.28125 44.578125 
Q 40.484375 46.53125 36.375 47.5 
Q 32.28125 48.484375 27.875 48.484375 
Q 21.1875 48.484375 17.84375 46.4375 
Q 14.5 44.390625 14.5 40.28125 
Q 14.5 37.15625 16.890625 35.375 
Q 19.28125 33.59375 26.515625 31.984375 
L 29.59375 31.296875 
Q 39.15625 29.25 43.1875 25.515625 
Q 47.21875 21.78125 47.21875 15.09375 
Q 47.21875 7.46875 41.1875 3.015625 
Q 35.15625 -1.421875 24.609375 -1.421875 
Q 20.21875 -1.421875 15.453125 -0.5625 
Q 10.6875 0.296875 5.421875 2 
L 5.421875 11.28125 
Q 10.40625 8.6875 15.234375 7.390625 
Q 20.0625 6.109375 24.8125 6.109375 
Q 31.15625 6.109375 34.5625 8.28125 
Q 37.984375 10.453125 37.984375 14.40625 
Q 37.984375 18.0625 35.515625 20.015625 
Q 33.0625 21.96875 24.703125 23.78125 
L 21.578125 24.515625 
Q 13.234375 26.265625 9.515625 29.90625 
Q 5.8125 33.546875 5.8125 39.890625 
Q 5.8125 47.609375 11.28125 51.796875 
Q 16.75 56 26.8125 56 
Q 31.78125 56 36.171875 55.265625 
Q 40.578125 54.546875 44.28125 53.078125 
" id="BitstreamVeraSans-Roman-73"/>
      <path d="M 9.8125 72.90625 
L 19.671875 72.90625 
L 19.671875 0 
L 9.8125 0 
z
" id="BitstreamVeraSans-Roman-49"/>
     </defs>
     <g transform="translate(140.8490625 334.173824257)scale(0.2 -0.2)">
      <use xlink:href="#BitstreamVeraSans-Roman-6c"/>
      <use x="27.783203125" xlink:href="#BitstreamVeraSans-Roman-6f"/>
      <use x="88.96484375" xlink:href="#BitstreamVeraSans-Roman-67"/>
      <use x="152.44140625" xlink:href="#BitstreamVeraSans-Roman-31"/>
      <use x="216.064453125" xlink:href="#BitstreamVeraSans-Roman-30"/>
      <use x="279.6875" xlink:href="#BitstreamVeraSans-Roman-20"/>
      <use x="311.474609375" xlink:href="#BitstreamVeraSans-Roman-6f"/>
      <use x="372.65625" xlink:href="#BitstreamVeraSans-Roman-66"/>
      <use x="407.861328125" xlink:href="#BitstreamVeraSans-Roman-20"/>
      <use x="439.6484375" xlink:href="#BitstreamVeraSans-Roman-46"/>
      <use x="497.16796875" xlink:href="#BitstreamVeraSans-Roman-45"/>
      <use x="560.3515625" xlink:href="#BitstreamVeraSans-Roman-76"/>
      <use x="619.53125" xlink:href="#BitstreamVeraSans-Roman-61"/>
      <use x="680.810546875" xlink:href="#BitstreamVeraSans-Roman-6c"/>
      <use x="708.59375" xlink:href="#BitstreamVeraSans-Roman-73"/>
      <use x="760.693359375" xlink:href="#BitstreamVeraSans-Roman-20"/>
      <use x="792.48046875" xlink:href="#BitstreamVeraSans-Roman-2f"/>
      <use x="826.171875" xlink:href="#BitstreamVeraSans-Roman-20"/>
      <use x="857.958984375" xlink:href="#BitstreamVeraSans-Roman-44"/>
      <use x="934.9609375" xlink:href="#BitstreamVeraSans-Roman-49"/>
      <use x="964.453125" xlink:href="#BitstreamVeraSans-Roman-4d"/>
     </g>
    </g>
   </g>
   <g id="matplotlib.axis_2">
    <g id="ytick_1">
     <g id="line2d_94">
      <path clip-path="url(#pf37ec481b8)" d="M 67.3625 290.620699 
L 424.4825 290.620699 
" style="fill:none;stroke:#000000;stroke-dasharray:1.000000,3.000000;stroke-dashoffset:0.0;stroke-width:0.5;"/>
     </g>
     <g id="line2d_95">
      <defs>
       <path d="M 0 0 
L 4 0 
" id="m677cf13030" style="stroke:#000000;stroke-width:0.5;"/>
      </defs>
      <g>
       <use style="stroke:#000000;stroke-width:0.5;" x="67.3625" xlink:href="#m677cf13030" y="290.620699257"/>
      </g>
     </g>
     <g id="line2d_96">
      <defs>
       <path d="M 0 0 
L -4 0 
" id="medbfd8d352" style="stroke:#000000;stroke-width:0.5;"/>
      </defs>
      <g>
       <use style="stroke:#000000;stroke-width:0.5;" x="424.4825" xlink:href="#medbfd8d352" y="290.620699257"/>
      </g>
     </g>
     <g id="text_5">
      <!-- 0.0 -->
      <defs>
       <path d="M 10.6875 12.40625 
L 21 12.40625 
L 21 0 
L 10.6875 0 
z
" id="BitstreamVeraSans-Roman-2e"/>
      </defs>
      <g transform="translate(31.55625 296.139449257)scale(0.2 -0.2)">
       <use xlink:href="#BitstreamVeraSans-Roman-30"/>
       <use x="63.623046875" xlink:href="#BitstreamVeraSans-Roman-2e"/>
       <use x="95.41015625" xlink:href="#BitstreamVeraSans-Roman-30"/>
      </g>
     </g>
    </g>
    <g id="ytick_2">
     <g id="line2d_97">
      <path clip-path="url(#pf37ec481b8)" d="M 67.3625 235.872184 
L 424.4825 235.872184 
" style="fill:none;stroke:#000000;stroke-dasharray:1.000000,3.000000;stroke-dashoffset:0.0;stroke-width:0.5;"/>
     </g>
     <g id="line2d_98">
      <g>
       <use style="stroke:#000000;stroke-width:0.5;" x="67.3625" xlink:href="#m677cf13030" y="235.872184406"/>
      </g>
     </g>
     <g id="line2d_99">
      <g>
       <use style="stroke:#000000;stroke-width:0.5;" x="424.4825" xlink:href="#medbfd8d352" y="235.872184406"/>
      </g>
     </g>
     <g id="text_6">
      <!-- 0.2 -->
      <g transform="translate(31.55625 241.390934406)scale(0.2 -0.2)">
       <use xlink:href="#BitstreamVeraSans-Roman-30"/>
       <use x="63.623046875" xlink:href="#BitstreamVeraSans-Roman-2e"/>
       <use x="95.41015625" xlink:href="#BitstreamVeraSans-Roman-32"/>
      </g>
     </g>
    </g>
    <g id="ytick_3">
     <g id="line2d_100">
      <path clip-path="url(#pf37ec481b8)" d="M 67.3625 181.12367 
L 424.4825 181.12367 
" style="fill:none;stroke:#000000;stroke-dasharray:1.000000,3.000000;stroke-dashoffset:0.0;stroke-width:0.5;"/>
     </g>
     <g id="line2d_101">
      <g>
       <use style="stroke:#000000;stroke-width:0.5;" x="67.3625" xlink:href="#m677cf13030" y="181.123669554"/>
      </g>
     </g>
     <g id="line2d_102">
      <g>
       <use style="stroke:#000000;stroke-width:0.5;" x="424.4825" xlink:href="#medbfd8d352" y="181.123669554"/>
      </g>
     </g>
     <g id="text_7">
      <!-- 0.4 -->
      <defs>
       <path d="M 37.796875 64.3125 
L 12.890625 25.390625 
L 37.796875 25.390625 
z
M 35.203125 72.90625 
L 47.609375 72.90625 
L 47.609375 25.390625 
L 58.015625 25.390625 
L 58.015625 17.1875 
L 47.609375 17.1875 
L 47.609375 0 
L 37.796875 0 
L 37.796875 17.1875 
L 4.890625 17.1875 
L 4.890625 26.703125 
z
" id="BitstreamVeraSans-Roman-34"/>
      </defs>
      <g transform="translate(31.55625 186.642419554)scale(0.2 -0.2)">
       <use xlink:href="#BitstreamVeraSans-Roman-30"/>
       <use x="63.623046875" xlink:href="#BitstreamVeraSans-Roman-2e"/>
       <use x="95.41015625" xlink:href="#BitstreamVeraSans-Roman-34"/>
      </g>
     </g>
    </g>
    <g id="ytick_4">
     <g id="line2d_103">
      <path clip-path="url(#pf37ec481b8)" d="M 67.3625 126.375155 
L 424.4825 126.375155 
" style="fill:none;stroke:#000000;stroke-dasharray:1.000000,3.000000;stroke-dashoffset:0.0;stroke-width:0.5;"/>
     </g>
     <g id="line2d_104">
      <g>
       <use style="stroke:#000000;stroke-width:0.5;" x="67.3625" xlink:href="#m677cf13030" y="126.375154703"/>
      </g>
     </g>
     <g id="line2d_105">
      <g>
       <use style="stroke:#000000;stroke-width:0.5;" x="424.4825" xlink:href="#medbfd8d352" y="126.375154703"/>
      </g>
     </g>
     <g id="text_8">
      <!-- 0.6 -->
      <defs>
       <path d="M 33.015625 40.375 
Q 26.375 40.375 22.484375 35.828125 
Q 18.609375 31.296875 18.609375 23.390625 
Q 18.609375 15.53125 22.484375 10.953125 
Q 26.375 6.390625 33.015625 6.390625 
Q 39.65625 6.390625 43.53125 10.953125 
Q 47.40625 15.53125 47.40625 23.390625 
Q 47.40625 31.296875 43.53125 35.828125 
Q 39.65625 40.375 33.015625 40.375 
M 52.59375 71.296875 
L 52.59375 62.3125 
Q 48.875 64.0625 45.09375 64.984375 
Q 41.3125 65.921875 37.59375 65.921875 
Q 27.828125 65.921875 22.671875 59.328125 
Q 17.53125 52.734375 16.796875 39.40625 
Q 19.671875 43.65625 24.015625 45.921875 
Q 28.375 48.1875 33.59375 48.1875 
Q 44.578125 48.1875 50.953125 41.515625 
Q 57.328125 34.859375 57.328125 23.390625 
Q 57.328125 12.15625 50.6875 5.359375 
Q 44.046875 -1.421875 33.015625 -1.421875 
Q 20.359375 -1.421875 13.671875 8.265625 
Q 6.984375 17.96875 6.984375 36.375 
Q 6.984375 53.65625 15.1875 63.9375 
Q 23.390625 74.21875 37.203125 74.21875 
Q 40.921875 74.21875 44.703125 73.484375 
Q 48.484375 72.75 52.59375 71.296875 
" id="BitstreamVeraSans-Roman-36"/>
      </defs>
      <g transform="translate(31.55625 131.893904703)scale(0.2 -0.2)">
       <use xlink:href="#BitstreamVeraSans-Roman-30"/>
       <use x="63.623046875" xlink:href="#BitstreamVeraSans-Roman-2e"/>
       <use x="95.41015625" xlink:href="#BitstreamVeraSans-Roman-36"/>
      </g>
     </g>
    </g>
    <g id="ytick_5">
     <g id="line2d_106">
      <path clip-path="url(#pf37ec481b8)" d="M 67.3625 71.62664 
L 424.4825 71.62664 
" style="fill:none;stroke:#000000;stroke-dasharray:1.000000,3.000000;stroke-dashoffset:0.0;stroke-width:0.5;"/>
     </g>
     <g id="line2d_107">
      <g>
       <use style="stroke:#000000;stroke-width:0.5;" x="67.3625" xlink:href="#m677cf13030" y="71.6266398515"/>
      </g>
     </g>
     <g id="line2d_108">
      <g>
       <use style="stroke:#000000;stroke-width:0.5;" x="424.4825" xlink:href="#medbfd8d352" y="71.6266398515"/>
      </g>
     </g>
     <g id="text_9">
      <!-- 0.8 -->
      <defs>
       <path d="M 31.78125 34.625 
Q 24.75 34.625 20.71875 30.859375 
Q 16.703125 27.09375 16.703125 20.515625 
Q 16.703125 13.921875 20.71875 10.15625 
Q 24.75 6.390625 31.78125 6.390625 
Q 38.8125 6.390625 42.859375 10.171875 
Q 46.921875 13.96875 46.921875 20.515625 
Q 46.921875 27.09375 42.890625 30.859375 
Q 38.875 34.625 31.78125 34.625 
M 21.921875 38.8125 
Q 15.578125 40.375 12.03125 44.71875 
Q 8.5 49.078125 8.5 55.328125 
Q 8.5 64.0625 14.71875 69.140625 
Q 20.953125 74.21875 31.78125 74.21875 
Q 42.671875 74.21875 48.875 69.140625 
Q 55.078125 64.0625 55.078125 55.328125 
Q 55.078125 49.078125 51.53125 44.71875 
Q 48 40.375 41.703125 38.8125 
Q 48.828125 37.15625 52.796875 32.3125 
Q 56.78125 27.484375 56.78125 20.515625 
Q 56.78125 9.90625 50.3125 4.234375 
Q 43.84375 -1.421875 31.78125 -1.421875 
Q 19.734375 -1.421875 13.25 4.234375 
Q 6.78125 9.90625 6.78125 20.515625 
Q 6.78125 27.484375 10.78125 32.3125 
Q 14.796875 37.15625 21.921875 38.8125 
M 18.3125 54.390625 
Q 18.3125 48.734375 21.84375 45.5625 
Q 25.390625 42.390625 31.78125 42.390625 
Q 38.140625 42.390625 41.71875 45.5625 
Q 45.3125 48.734375 45.3125 54.390625 
Q 45.3125 60.0625 41.71875 63.234375 
Q 38.140625 66.40625 31.78125 66.40625 
Q 25.390625 66.40625 21.84375 63.234375 
Q 18.3125 60.0625 18.3125 54.390625 
" id="BitstreamVeraSans-Roman-38"/>
      </defs>
      <g transform="translate(31.55625 77.1453898515)scale(0.2 -0.2)">
       <use xlink:href="#BitstreamVeraSans-Roman-30"/>
       <use x="63.623046875" xlink:href="#BitstreamVeraSans-Roman-2e"/>
       <use x="95.41015625" xlink:href="#BitstreamVeraSans-Roman-38"/>
      </g>
     </g>
    </g>
    <g id="ytick_6">
     <g id="line2d_109">
      <path clip-path="url(#pf37ec481b8)" d="M 67.3625 16.878125 
L 424.4825 16.878125 
" style="fill:none;stroke:#000000;stroke-dasharray:1.000000,3.000000;stroke-dashoffset:0.0;stroke-width:0.5;"/>
     </g>
     <g id="line2d_110">
      <g>
       <use style="stroke:#000000;stroke-width:0.5;" x="67.3625" xlink:href="#m677cf13030" y="16.878125"/>
      </g>
     </g>
     <g id="line2d_111">
      <g>
       <use style="stroke:#000000;stroke-width:0.5;" x="424.4825" xlink:href="#medbfd8d352" y="16.878125"/>
      </g>
     </g>
     <g id="text_10">
      <!-- 1.0 -->
      <g transform="translate(31.55625 22.396875)scale(0.2 -0.2)">
       <use xlink:href="#BitstreamVeraSans-Roman-31"/>
       <use x="63.623046875" xlink:href="#BitstreamVeraSans-Roman-2e"/>
       <use x="95.41015625" xlink:href="#BitstreamVeraSans-Roman-30"/>
      </g>
     </g>
    </g>
    <g id="text_11">
     <!-- proportion of trials -->
     <defs>
      <path d="M 54.890625 33.015625 
L 54.890625 0 
L 45.90625 0 
L 45.90625 32.71875 
Q 45.90625 40.484375 42.875 44.328125 
Q 39.84375 48.1875 33.796875 48.1875 
Q 26.515625 48.1875 22.3125 43.546875 
Q 18.109375 38.921875 18.109375 30.90625 
L 18.109375 0 
L 9.078125 0 
L 9.078125 54.6875 
L 18.109375 54.6875 
L 18.109375 46.1875 
Q 21.34375 51.125 25.703125 53.5625 
Q 30.078125 56 35.796875 56 
Q 45.21875 56 50.046875 50.171875 
Q 54.890625 44.34375 54.890625 33.015625 
" id="BitstreamVeraSans-Roman-6e"/>
      <path d="M 9.421875 54.6875 
L 18.40625 54.6875 
L 18.40625 0 
L 9.421875 0 
z
M 9.421875 75.984375 
L 18.40625 75.984375 
L 18.40625 64.59375 
L 9.421875 64.59375 
z
" id="BitstreamVeraSans-Roman-69"/>
      <path d="M 18.3125 70.21875 
L 18.3125 54.6875 
L 36.8125 54.6875 
L 36.8125 47.703125 
L 18.3125 47.703125 
L 18.3125 18.015625 
Q 18.3125 11.328125 20.140625 9.421875 
Q 21.96875 7.515625 27.59375 7.515625 
L 36.8125 7.515625 
L 36.8125 0 
L 27.59375 0 
Q 17.1875 0 13.234375 3.875 
Q 9.28125 7.765625 9.28125 18.015625 
L 9.28125 47.703125 
L 2.6875 47.703125 
L 2.6875 54.6875 
L 9.28125 54.6875 
L 9.28125 70.21875 
z
" id="BitstreamVeraSans-Roman-74"/>
      <path d="M 41.109375 46.296875 
Q 39.59375 47.171875 37.8125 47.578125 
Q 36.03125 48 33.890625 48 
Q 26.265625 48 22.1875 43.046875 
Q 18.109375 38.09375 18.109375 28.8125 
L 18.109375 0 
L 9.078125 0 
L 9.078125 54.6875 
L 18.109375 54.6875 
L 18.109375 46.1875 
Q 20.953125 51.171875 25.484375 53.578125 
Q 30.03125 56 36.53125 56 
Q 37.453125 56 38.578125 55.875 
Q 39.703125 55.765625 41.0625 55.515625 
z
" id="BitstreamVeraSans-Roman-72"/>
      <path d="M 18.109375 8.203125 
L 18.109375 -20.796875 
L 9.078125 -20.796875 
L 9.078125 54.6875 
L 18.109375 54.6875 
L 18.109375 46.390625 
Q 20.953125 51.265625 25.265625 53.625 
Q 29.59375 56 35.59375 56 
Q 45.5625 56 51.78125 48.09375 
Q 58.015625 40.1875 58.015625 27.296875 
Q 58.015625 14.40625 51.78125 6.484375 
Q 45.5625 -1.421875 35.59375 -1.421875 
Q 29.59375 -1.421875 25.265625 0.953125 
Q 20.953125 3.328125 18.109375 8.203125 
M 48.6875 27.296875 
Q 48.6875 37.203125 44.609375 42.84375 
Q 40.53125 48.484375 33.40625 48.484375 
Q 26.265625 48.484375 22.1875 42.84375 
Q 18.109375 37.203125 18.109375 27.296875 
Q 18.109375 17.390625 22.1875 11.75 
Q 26.265625 6.109375 33.40625 6.109375 
Q 40.53125 6.109375 44.609375 11.75 
Q 48.6875 17.390625 48.6875 27.296875 
" id="BitstreamVeraSans-Roman-70"/>
     </defs>
     <g transform="translate(22.396875 245.608824257)rotate(-90.0)scale(0.2 -0.2)">
      <use xlink:href="#BitstreamVeraSans-Roman-70"/>
      <use x="63.4765625" xlink:href="#BitstreamVeraSans-Roman-72"/>
      <use x="104.55859375" xlink:href="#BitstreamVeraSans-Roman-6f"/>
      <use x="165.740234375" xlink:href="#BitstreamVeraSans-Roman-70"/>
      <use x="229.216796875" xlink:href="#BitstreamVeraSans-Roman-6f"/>
      <use x="290.3984375" xlink:href="#BitstreamVeraSans-Roman-72"/>
      <use x="331.51171875" xlink:href="#BitstreamVeraSans-Roman-74"/>
      <use x="370.720703125" xlink:href="#BitstreamVeraSans-Roman-69"/>
      <use x="398.50390625" xlink:href="#BitstreamVeraSans-Roman-6f"/>
      <use x="459.685546875" xlink:href="#BitstreamVeraSans-Roman-6e"/>
      <use x="523.064453125" xlink:href="#BitstreamVeraSans-Roman-20"/>
      <use x="554.8515625" xlink:href="#BitstreamVeraSans-Roman-6f"/>
      <use x="616.033203125" xlink:href="#BitstreamVeraSans-Roman-66"/>
      <use x="651.23828125" xlink:href="#BitstreamVeraSans-Roman-20"/>
      <use x="683.025390625" xlink:href="#BitstreamVeraSans-Roman-74"/>
      <use x="722.234375" xlink:href="#BitstreamVeraSans-Roman-72"/>
      <use x="763.34765625" xlink:href="#BitstreamVeraSans-Roman-69"/>
      <use x="791.130859375" xlink:href="#BitstreamVeraSans-Roman-61"/>
      <use x="852.41015625" xlink:href="#BitstreamVeraSans-Roman-6c"/>
      <use x="880.193359375" xlink:href="#BitstreamVeraSans-Roman-73"/>
     </g>
    </g>
   </g>
   <g id="text_12">
    <!-- f20-24,20-D -->
    <defs>
     <path d="M 11.71875 12.40625 
L 22.015625 12.40625 
L 22.015625 4 
L 14.015625 -11.625 
L 7.71875 -11.625 
L 11.71875 4 
z
" id="BitstreamVeraSans-Roman-2c"/>
     <path d="M 4.890625 31.390625 
L 31.203125 31.390625 
L 31.203125 23.390625 
L 4.890625 23.390625 
z
" id="BitstreamVeraSans-Roman-2d"/>
    </defs>
    <g transform="translate(186.1334375 34.8671742574)scale(0.2 -0.2)">
     <use xlink:href="#BitstreamVeraSans-Roman-66"/>
     <use x="35.205078125" xlink:href="#BitstreamVeraSans-Roman-32"/>
     <use x="98.828125" xlink:href="#BitstreamVeraSans-Roman-30"/>
     <use x="162.451171875" xlink:href="#BitstreamVeraSans-Roman-2d"/>
     <use x="198.53515625" xlink:href="#BitstreamVeraSans-Roman-32"/>
     <use x="262.158203125" xlink:href="#BitstreamVeraSans-Roman-34"/>
     <use x="325.78125" xlink:href="#BitstreamVeraSans-Roman-2c"/>
     <use x="357.568359375" xlink:href="#BitstreamVeraSans-Roman-32"/>
     <use x="421.19140625" xlink:href="#BitstreamVeraSans-Roman-30"/>
     <use x="484.814453125" xlink:href="#BitstreamVeraSans-Roman-2d"/>
     <use x="520.8984375" xlink:href="#BitstreamVeraSans-Roman-44"/>
    </g>
   </g>
   <g id="text_13">
    <!-- reference budgets from bestGECCO2009 -->
    <defs>
     <path d="M 39.40625 66.21875 
Q 28.65625 66.21875 22.328125 58.203125 
Q 16.015625 50.203125 16.015625 36.375 
Q 16.015625 22.609375 22.328125 14.59375 
Q 28.65625 6.59375 39.40625 6.59375 
Q 50.140625 6.59375 56.421875 14.59375 
Q 62.703125 22.609375 62.703125 36.375 
Q 62.703125 50.203125 56.421875 58.203125 
Q 50.140625 66.21875 39.40625 66.21875 
M 39.40625 74.21875 
Q 54.734375 74.21875 63.90625 63.9375 
Q 73.09375 53.65625 73.09375 36.375 
Q 73.09375 19.140625 63.90625 8.859375 
Q 54.734375 -1.421875 39.40625 -1.421875 
Q 24.03125 -1.421875 14.8125 8.828125 
Q 5.609375 19.09375 5.609375 36.375 
Q 5.609375 53.65625 14.8125 63.9375 
Q 24.03125 74.21875 39.40625 74.21875 
" id="BitstreamVeraSans-Roman-4f"/>
     <path d="M 52 44.1875 
Q 55.375 50.25 60.0625 53.125 
Q 64.75 56 71.09375 56 
Q 79.640625 56 84.28125 50.015625 
Q 88.921875 44.046875 88.921875 33.015625 
L 88.921875 0 
L 79.890625 0 
L 79.890625 32.71875 
Q 79.890625 40.578125 77.09375 44.375 
Q 74.3125 48.1875 68.609375 48.1875 
Q 61.625 48.1875 57.5625 43.546875 
Q 53.515625 38.921875 53.515625 30.90625 
L 53.515625 0 
L 44.484375 0 
L 44.484375 32.71875 
Q 44.484375 40.625 41.703125 44.40625 
Q 38.921875 48.1875 33.109375 48.1875 
Q 26.21875 48.1875 22.15625 43.53125 
Q 18.109375 38.875 18.109375 30.90625 
L 18.109375 0 
L 9.078125 0 
L 9.078125 54.6875 
L 18.109375 54.6875 
L 18.109375 46.1875 
Q 21.1875 51.21875 25.484375 53.609375 
Q 29.78125 56 35.6875 56 
Q 41.65625 56 45.828125 52.96875 
Q 50 49.953125 52 44.1875 
" id="BitstreamVeraSans-Roman-6d"/>
     <path d="M 10.984375 1.515625 
L 10.984375 10.5 
Q 14.703125 8.734375 18.5 7.8125 
Q 22.3125 6.890625 25.984375 6.890625 
Q 35.75 6.890625 40.890625 13.453125 
Q 46.046875 20.015625 46.78125 33.40625 
Q 43.953125 29.203125 39.59375 26.953125 
Q 35.25 24.703125 29.984375 24.703125 
Q 19.046875 24.703125 12.671875 31.3125 
Q 6.296875 37.9375 6.296875 49.421875 
Q 6.296875 60.640625 12.9375 67.421875 
Q 19.578125 74.21875 30.609375 74.21875 
Q 43.265625 74.21875 49.921875 64.515625 
Q 56.59375 54.828125 56.59375 36.375 
Q 56.59375 19.140625 48.40625 8.859375 
Q 40.234375 -1.421875 26.421875 -1.421875 
Q 22.703125 -1.421875 18.890625 -0.6875 
Q 15.09375 0.046875 10.984375 1.515625 
M 30.609375 32.421875 
Q 37.25 32.421875 41.125 36.953125 
Q 45.015625 41.5 45.015625 49.421875 
Q 45.015625 57.28125 41.125 61.84375 
Q 37.25 66.40625 30.609375 66.40625 
Q 23.96875 66.40625 20.09375 61.84375 
Q 16.21875 57.28125 16.21875 49.421875 
Q 16.21875 41.5 20.09375 36.953125 
Q 23.96875 32.421875 30.609375 32.421875 
" id="BitstreamVeraSans-Roman-39"/>
     <path d="M 59.515625 10.40625 
L 59.515625 29.984375 
L 43.40625 29.984375 
L 43.40625 38.09375 
L 69.28125 38.09375 
L 69.28125 6.78125 
Q 63.578125 2.734375 56.6875 0.65625 
Q 49.8125 -1.421875 42 -1.421875 
Q 24.90625 -1.421875 15.25 8.5625 
Q 5.609375 18.5625 5.609375 36.375 
Q 5.609375 54.25 15.25 64.234375 
Q 24.90625 74.21875 42 74.21875 
Q 49.125 74.21875 55.546875 72.453125 
Q 61.96875 70.703125 67.390625 67.28125 
L 67.390625 56.78125 
Q 61.921875 61.421875 55.765625 63.765625 
Q 49.609375 66.109375 42.828125 66.109375 
Q 29.4375 66.109375 22.71875 58.640625 
Q 16.015625 51.171875 16.015625 36.375 
Q 16.015625 21.625 22.71875 14.15625 
Q 29.4375 6.6875 42.828125 6.6875 
Q 48.046875 6.6875 52.140625 7.59375 
Q 56.25 8.5 59.515625 10.40625 
" id="BitstreamVeraSans-Roman-47"/>
     <path d="M 64.40625 67.28125 
L 64.40625 56.890625 
Q 59.421875 61.53125 53.78125 63.8125 
Q 48.140625 66.109375 41.796875 66.109375 
Q 29.296875 66.109375 22.65625 58.46875 
Q 16.015625 50.828125 16.015625 36.375 
Q 16.015625 21.96875 22.65625 14.328125 
Q 29.296875 6.6875 41.796875 6.6875 
Q 48.140625 6.6875 53.78125 8.984375 
Q 59.421875 11.28125 64.40625 15.921875 
L 64.40625 5.609375 
Q 59.234375 2.09375 53.4375 0.328125 
Q 47.65625 -1.421875 41.21875 -1.421875 
Q 24.65625 -1.421875 15.125 8.703125 
Q 5.609375 18.84375 5.609375 36.375 
Q 5.609375 53.953125 15.125 64.078125 
Q 24.65625 74.21875 41.21875 74.21875 
Q 47.75 74.21875 53.53125 72.484375 
Q 59.328125 70.75 64.40625 67.28125 
" id="BitstreamVeraSans-Roman-43"/>
     <path d="M 56.203125 29.59375 
L 56.203125 25.203125 
L 14.890625 25.203125 
Q 15.484375 15.921875 20.484375 11.0625 
Q 25.484375 6.203125 34.421875 6.203125 
Q 39.59375 6.203125 44.453125 7.46875 
Q 49.3125 8.734375 54.109375 11.28125 
L 54.109375 2.78125 
Q 49.265625 0.734375 44.1875 -0.34375 
Q 39.109375 -1.421875 33.890625 -1.421875 
Q 20.796875 -1.421875 13.15625 6.1875 
Q 5.515625 13.8125 5.515625 26.8125 
Q 5.515625 40.234375 12.765625 48.109375 
Q 20.015625 56 32.328125 56 
Q 43.359375 56 49.78125 48.890625 
Q 56.203125 41.796875 56.203125 29.59375 
M 47.21875 32.234375 
Q 47.125 39.59375 43.09375 43.984375 
Q 39.0625 48.390625 32.421875 48.390625 
Q 24.90625 48.390625 20.390625 44.140625 
Q 15.875 39.890625 15.1875 32.171875 
z
" id="BitstreamVeraSans-Roman-65"/>
     <path d="M 45.40625 46.390625 
L 45.40625 75.984375 
L 54.390625 75.984375 
L 54.390625 0 
L 45.40625 0 
L 45.40625 8.203125 
Q 42.578125 3.328125 38.25 0.953125 
Q 33.9375 -1.421875 27.875 -1.421875 
Q 17.96875 -1.421875 11.734375 6.484375 
Q 5.515625 14.40625 5.515625 27.296875 
Q 5.515625 40.1875 11.734375 48.09375 
Q 17.96875 56 27.875 56 
Q 33.9375 56 38.25 53.625 
Q 42.578125 51.265625 45.40625 46.390625 
M 14.796875 27.296875 
Q 14.796875 17.390625 18.875 11.75 
Q 22.953125 6.109375 30.078125 6.109375 
Q 37.203125 6.109375 41.296875 11.75 
Q 45.40625 17.390625 45.40625 27.296875 
Q 45.40625 37.203125 41.296875 42.84375 
Q 37.203125 48.484375 30.078125 48.484375 
Q 22.953125 48.484375 18.875 42.84375 
Q 14.796875 37.203125 14.796875 27.296875 
" id="BitstreamVeraSans-Roman-64"/>
     <path d="M 8.5 21.578125 
L 8.5 54.6875 
L 17.484375 54.6875 
L 17.484375 21.921875 
Q 17.484375 14.15625 20.5 10.265625 
Q 23.53125 6.390625 29.59375 6.390625 
Q 36.859375 6.390625 41.078125 11.03125 
Q 45.3125 15.671875 45.3125 23.6875 
L 45.3125 54.6875 
L 54.296875 54.6875 
L 54.296875 0 
L 45.3125 0 
L 45.3125 8.40625 
Q 42.046875 3.421875 37.71875 1 
Q 33.40625 -1.421875 27.6875 -1.421875 
Q 18.265625 -1.421875 13.375 4.4375 
Q 8.5 10.296875 8.5 21.578125 
" id="BitstreamVeraSans-Roman-75"/>
     <path d="M 48.78125 52.59375 
L 48.78125 44.1875 
Q 44.96875 46.296875 41.140625 47.34375 
Q 37.3125 48.390625 33.40625 48.390625 
Q 24.65625 48.390625 19.8125 42.84375 
Q 14.984375 37.3125 14.984375 27.296875 
Q 14.984375 17.28125 19.8125 11.734375 
Q 24.65625 6.203125 33.40625 6.203125 
Q 37.3125 6.203125 41.140625 7.25 
Q 44.96875 8.296875 48.78125 10.40625 
L 48.78125 2.09375 
Q 45.015625 0.34375 40.984375 -0.53125 
Q 36.96875 -1.421875 32.421875 -1.421875 
Q 20.0625 -1.421875 12.78125 6.34375 
Q 5.515625 14.109375 5.515625 27.296875 
Q 5.515625 40.671875 12.859375 48.328125 
Q 20.21875 56 33.015625 56 
Q 37.15625 56 41.109375 55.140625 
Q 45.0625 54.296875 48.78125 52.59375 
" id="BitstreamVeraSans-Roman-63"/>
     <path d="M 48.6875 27.296875 
Q 48.6875 37.203125 44.609375 42.84375 
Q 40.53125 48.484375 33.40625 48.484375 
Q 26.265625 48.484375 22.1875 42.84375 
Q 18.109375 37.203125 18.109375 27.296875 
Q 18.109375 17.390625 22.1875 11.75 
Q 26.265625 6.109375 33.40625 6.109375 
Q 40.53125 6.109375 44.609375 11.75 
Q 48.6875 17.390625 48.6875 27.296875 
M 18.109375 46.390625 
Q 20.953125 51.265625 25.265625 53.625 
Q 29.59375 56 35.59375 56 
Q 45.5625 56 51.78125 48.09375 
Q 58.015625 40.1875 58.015625 27.296875 
Q 58.015625 14.40625 51.78125 6.484375 
Q 45.5625 -1.421875 35.59375 -1.421875 
Q 29.59375 -1.421875 25.265625 0.953125 
Q 20.953125 3.328125 18.109375 8.203125 
L 18.109375 0 
L 9.078125 0 
L 9.078125 75.984375 
L 18.109375 75.984375 
z
" id="BitstreamVeraSans-Roman-62"/>
    </defs>
    <g transform="translate(67.3625 290.620699257)scale(0.14 -0.14)">
     <use xlink:href="#BitstreamVeraSans-Roman-72"/>
     <use x="41.08203125" xlink:href="#BitstreamVeraSans-Roman-65"/>
     <use x="102.60546875" xlink:href="#BitstreamVeraSans-Roman-66"/>
     <use x="137.810546875" xlink:href="#BitstreamVeraSans-Roman-65"/>
     <use x="199.333984375" xlink:href="#BitstreamVeraSans-Roman-72"/>
     <use x="240.416015625" xlink:href="#BitstreamVeraSans-Roman-65"/>
     <use x="301.939453125" xlink:href="#BitstreamVeraSans-Roman-6e"/>
     <use x="365.318359375" xlink:href="#BitstreamVeraSans-Roman-63"/>
     <use x="420.298828125" xlink:href="#BitstreamVeraSans-Roman-65"/>
     <use x="481.822265625" xlink:href="#BitstreamVeraSans-Roman-20"/>
     <use x="513.609375" xlink:href="#BitstreamVeraSans-Roman-62"/>
     <use x="577.0859375" xlink:href="#BitstreamVeraSans-Roman-75"/>
     <use x="640.46484375" xlink:href="#BitstreamVeraSans-Roman-64"/>
     <use x="703.94140625" xlink:href="#BitstreamVeraSans-Roman-67"/>
     <use x="767.41796875" xlink:href="#BitstreamVeraSans-Roman-65"/>
     <use x="828.94140625" xlink:href="#BitstreamVeraSans-Roman-74"/>
     <use x="868.150390625" xlink:href="#BitstreamVeraSans-Roman-73"/>
     <use x="920.25" xlink:href="#BitstreamVeraSans-Roman-20"/>
     <use x="952.037109375" xlink:href="#BitstreamVeraSans-Roman-66"/>
     <use x="987.2421875" xlink:href="#BitstreamVeraSans-Roman-72"/>
     <use x="1028.32421875" xlink:href="#BitstreamVeraSans-Roman-6f"/>
     <use x="1089.50585938" xlink:href="#BitstreamVeraSans-Roman-6d"/>
     <use x="1186.91796875" xlink:href="#BitstreamVeraSans-Roman-20"/>
     <use x="1218.70507812" xlink:href="#BitstreamVeraSans-Roman-62"/>
     <use x="1282.18164062" xlink:href="#BitstreamVeraSans-Roman-65"/>
     <use x="1343.70507812" xlink:href="#BitstreamVeraSans-Roman-73"/>
     <use x="1395.8046875" xlink:href="#BitstreamVeraSans-Roman-74"/>
     <use x="1435.01367188" xlink:href="#BitstreamVeraSans-Roman-47"/>
     <use x="1512.50390625" xlink:href="#BitstreamVeraSans-Roman-45"/>
     <use x="1575.6875" xlink:href="#BitstreamVeraSans-Roman-43"/>
     <use x="1645.51171875" xlink:href="#BitstreamVeraSans-Roman-43"/>
     <use x="1715.3359375" xlink:href="#BitstreamVeraSans-Roman-4f"/>
     <use x="1794.046875" xlink:href="#BitstreamVeraSans-Roman-32"/>
     <use x="1857.66992188" xlink:href="#BitstreamVeraSans-Roman-30"/>
     <use x="1921.29296875" xlink:href="#BitstreamVeraSans-Roman-30"/>
     <use x="1984.91601562" xlink:href="#BitstreamVeraSans-Roman-39"/>
    </g>
   </g>
   <g id="legend_1">
    <g id="patch_7">
     <path d="M 77.3625 147.565699 
L 226.45 147.565699 
L 226.45 24.140699 
L 77.3625 24.140699 
z
" style="fill:#ffffff;stroke:#000000;stroke-linejoin:miter;"/>
    </g>
    <g id="line2d_112">
     <path d="M 91.3625 40.337574 
L 119.3625 40.337574 
" style="fill:none;stroke:#000000;stroke-linecap:square;"/>
    </g>
    <g id="line2d_113"/>
    <g id="text_14">
     <!-- 0.5: 3/5 -->
     <defs>
      <path d="M 40.578125 39.3125 
Q 47.65625 37.796875 51.625 33 
Q 55.609375 28.21875 55.609375 21.1875 
Q 55.609375 10.40625 48.1875 4.484375 
Q 40.765625 -1.421875 27.09375 -1.421875 
Q 22.515625 -1.421875 17.65625 -0.515625 
Q 12.796875 0.390625 7.625 2.203125 
L 7.625 11.71875 
Q 11.71875 9.328125 16.59375 8.109375 
Q 21.484375 6.890625 26.8125 6.890625 
Q 36.078125 6.890625 40.9375 10.546875 
Q 45.796875 14.203125 45.796875 21.1875 
Q 45.796875 27.640625 41.28125 31.265625 
Q 36.765625 34.90625 28.71875 34.90625 
L 20.21875 34.90625 
L 20.21875 43.015625 
L 29.109375 43.015625 
Q 36.375 43.015625 40.234375 45.921875 
Q 44.09375 48.828125 44.09375 54.296875 
Q 44.09375 59.90625 40.109375 62.90625 
Q 36.140625 65.921875 28.71875 65.921875 
Q 24.65625 65.921875 20.015625 65.03125 
Q 15.375 64.15625 9.8125 62.3125 
L 9.8125 71.09375 
Q 15.4375 72.65625 20.34375 73.4375 
Q 25.25 74.21875 29.59375 74.21875 
Q 40.828125 74.21875 47.359375 69.109375 
Q 53.90625 64.015625 53.90625 55.328125 
Q 53.90625 49.265625 50.4375 45.09375 
Q 46.96875 40.921875 40.578125 39.3125 
" id="BitstreamVeraSans-Roman-33"/>
      <path d="M 11.71875 12.40625 
L 22.015625 12.40625 
L 22.015625 0 
L 11.71875 0 
z
M 11.71875 51.703125 
L 22.015625 51.703125 
L 22.015625 39.3125 
L 11.71875 39.3125 
z
" id="BitstreamVeraSans-Roman-3a"/>
      <path d="M 10.796875 72.90625 
L 49.515625 72.90625 
L 49.515625 64.59375 
L 19.828125 64.59375 
L 19.828125 46.734375 
Q 21.96875 47.46875 24.109375 47.828125 
Q 26.265625 48.1875 28.421875 48.1875 
Q 40.625 48.1875 47.75 41.5 
Q 54.890625 34.8125 54.890625 23.390625 
Q 54.890625 11.625 47.5625 5.09375 
Q 40.234375 -1.421875 26.90625 -1.421875 
Q 22.3125 -1.421875 17.546875 -0.640625 
Q 12.796875 0.140625 7.71875 1.703125 
L 7.71875 11.625 
Q 12.109375 9.234375 16.796875 8.0625 
Q 21.484375 6.890625 26.703125 6.890625 
Q 35.15625 6.890625 40.078125 11.328125 
Q 45.015625 15.765625 45.015625 23.390625 
Q 45.015625 31 40.078125 35.4375 
Q 35.15625 39.890625 26.703125 39.890625 
Q 22.75 39.890625 18.8125 39.015625 
Q 14.890625 38.140625 10.796875 36.28125 
z
" id="BitstreamVeraSans-Roman-35"/>
     </defs>
     <g transform="translate(141.3625 47.3375742574)scale(0.2 -0.2)">
      <use xlink:href="#BitstreamVeraSans-Roman-30"/>
      <use x="63.623046875" xlink:href="#BitstreamVeraSans-Roman-2e"/>
      <use x="95.41015625" xlink:href="#BitstreamVeraSans-Roman-35"/>
      <use x="159.033203125" xlink:href="#BitstreamVeraSans-Roman-3a"/>
      <use x="192.724609375" xlink:href="#BitstreamVeraSans-Roman-20"/>
      <use x="224.51171875" xlink:href="#BitstreamVeraSans-Roman-33"/>
      <use x="288.134765625" xlink:href="#BitstreamVeraSans-Roman-2f"/>
      <use x="321.826171875" xlink:href="#BitstreamVeraSans-Roman-35"/>
     </g>
    </g>
    <g id="line2d_114">
     <path d="M 91.3625 69.693824 
L 119.3625 69.693824 
" style="fill:none;stroke:#00bfbf;stroke-linecap:square;"/>
    </g>
    <g id="line2d_115"/>
    <g id="text_15">
     <!-- 2: 2/5 -->
     <g transform="translate(141.3625 76.6938242574)scale(0.2 -0.2)">
      <use xlink:href="#BitstreamVeraSans-Roman-32"/>
      <use x="63.623046875" xlink:href="#BitstreamVeraSans-Roman-3a"/>
      <use x="97.314453125" xlink:href="#BitstreamVeraSans-Roman-20"/>
      <use x="129.1015625" xlink:href="#BitstreamVeraSans-Roman-32"/>
      <use x="192.724609375" xlink:href="#BitstreamVeraSans-Roman-2f"/>
      <use x="226.416015625" xlink:href="#BitstreamVeraSans-Roman-35"/>
     </g>
    </g>
    <g id="line2d_116">
     <path d="M 91.3625 99.050074 
L 119.3625 99.050074 
" style="fill:none;stroke:#bf00bf;stroke-linecap:square;"/>
    </g>
    <g id="line2d_117"/>
    <g id="text_16">
     <!-- 10: 0/5 -->
     <g transform="translate(141.3625 106.050074257)scale(0.2 -0.2)">
      <use xlink:href="#BitstreamVeraSans-Roman-31"/>
      <use x="63.623046875" xlink:href="#BitstreamVeraSans-Roman-30"/>
      <use x="127.24609375" xlink:href="#BitstreamVeraSans-Roman-3a"/>
      <use x="160.9375" xlink:href="#BitstreamVeraSans-Roman-20"/>
      <use x="192.724609375" xlink:href="#BitstreamVeraSans-Roman-30"/>
      <use x="256.34765625" xlink:href="#BitstreamVeraSans-Roman-2f"/>
      <use x="290.0390625" xlink:href="#BitstreamVeraSans-Roman-35"/>
     </g>
    </g>
    <g id="line2d_118">
     <path d="M 91.3625 128.406324 
L 119.3625 128.406324 
" style="fill:none;stroke:#ff0000;stroke-linecap:square;stroke-width:3.0;"/>
    </g>
    <g id="line2d_119"/>
    <g id="text_17">
     <!-- 50: 0/5 -->
     <g transform="translate(141.3625 135.406324257)scale(0.2 -0.2)">
      <use xlink:href="#BitstreamVeraSans-Roman-35"/>
      <use x="63.623046875" xlink:href="#BitstreamVeraSans-Roman-30"/>
      <use x="127.24609375" xlink:href="#BitstreamVeraSans-Roman-3a"/>
      <use x="160.9375" xlink:href="#BitstreamVeraSans-Roman-20"/>
      <use x="192.724609375" xlink:href="#BitstreamVeraSans-Roman-30"/>
      <use x="256.34765625" xlink:href="#BitstreamVeraSans-Roman-2f"/>
      <use x="290.0390625" xlink:href="#BitstreamVeraSans-Roman-35"/>
     </g>
    </g>
   </g>
  </g>
 </g>
 <defs>
  <clipPath id="pf37ec481b8">
   <rect height="276.48" width="357.12" x="67.3625" y="14.1406992574"/>
  </clipPath>
 </defs>
</svg>
