<?xml version="1.0" encoding="utf-8" standalone="no"?>
<!DOCTYPE svg PUBLIC "-//W3C//DTD SVG 1.1//EN"
  "http://www.w3.org/Graphics/SVG/1.1/DTD/svg11.dtd">
<!-- Created with matplotlib (http://matplotlib.org/) -->
<svg height="356pt" version="1.1" viewBox="0 0 499 356" width="499pt" xmlns="http://www.w3.org/2000/svg" xmlns:xlink="http://www.w3.org/1999/xlink">
 <defs>
  <style type="text/css">
*{stroke-linecap:butt;stroke-linejoin:round;stroke-miterlimit:100000;}
  </style>
 </defs>
 <g id="figure_1">
  <g id="patch_1">
   <path d="M 0 356.40625 
L 499.313438 356.40625 
L 499.313438 0 
L 0 0 
z
" style="fill:#ffffff;"/>
  </g>
  <g id="axes_1">
   <g id="patch_2">
    <path d="M 70.8 303.429375 
L 427.92 303.429375 
L 427.92 26.949375 
L 70.8 26.949375 
z
" style="fill:#ffffff;"/>
   </g>
   <g id="line2d_1">
    <path d="M 24.99636 303.429375 
L 24.99636 275.40335 
L 53.895239 275.40335 
L 53.895239 256.502077 
L 70.8 256.502077 
L 70.8 251.9397 
L 82.794119 251.9397 
L 82.794119 249.984396 
L 92.09748 249.984396 
L 92.09748 244.118484 
L 99.69888 244.118484 
L 99.69888 241.511412 
L 106.125771 241.511412 
L 106.125771 236.949036 
L 111.692998 236.949036 
L 111.692998 234.993731 
L 116.60364 234.993731 
L 116.60364 231.734891 
L 120.99636 231.734891 
L 120.99636 228.476051 
L 124.970057 228.476051 
L 124.970057 218.699531 
L 128.597759 218.699531 
L 128.597759 213.485386 
L 131.934921 213.485386 
L 131.934921 210.226546 
L 135.024651 210.226546 
L 135.024651 208.271242 
L 137.90112 208.271242 
L 137.90112 201.753562 
L 140.591878 201.753562 
L 140.591878 199.14649 
L 143.119456 199.14649 
L 143.119456 198.494722 
L 145.50252 198.494722 
L 145.50252 197.191185 
L 147.756705 197.191185 
L 147.756705 195.887649 
L 149.895239 195.887649 
L 149.895239 191.977041 
L 151.929412 191.977041 
L 151.929412 190.021737 
L 153.868937 190.021737 
L 153.868937 189.369969 
L 155.722232 189.369969 
L 155.722232 184.155825 
L 159.1986 184.155825 
L 159.1986 183.504057 
L 160.833801 183.504057 
L 160.833801 182.852289 
L 163.923531 182.852289 
L 163.923531 182.200521 
L 165.386567 182.200521 
L 165.386567 180.896985 
L 166.8 180.896985 
L 166.8 179.593449 
L 170.773698 179.593449 
L 170.773698 173.727536 
L 172.018336 173.727536 
L 172.018336 172.424 
L 174.4014 172.424 
L 174.4014 171.120464 
L 175.543725 171.120464 
L 175.543725 167.209856 
L 176.655585 167.209856 
L 176.655585 166.558088 
L 177.738562 166.558088 
L 177.738562 163.951016 
L 178.794119 163.951016 
L 178.794119 160.040408 
L 181.809331 160.040408 
L 181.809331 157.433335 
L 182.767816 157.433335 
L 182.767816 156.781567 
L 183.704761 156.781567 
L 183.704761 154.826263 
L 184.621111 154.826263 
L 184.621111 153.522727 
L 185.517754 153.522727 
L 185.517754 152.870959 
L 186.395518 152.870959 
L 186.395518 151.567423 
L 187.255183 151.567423 
L 187.255183 150.915655 
L 188.09748 150.915655 
L 188.09748 149.612119 
L 188.923096 149.612119 
L 188.923096 147.005047 
L 191.30616 147.005047 
L 191.30616 146.353279 
L 192.071178 146.353279 
L 192.071178 145.701511 
L 192.82241 145.701511 
L 192.82241 144.397975 
L 193.560346 144.397975 
L 193.560346 143.094439 
L 194.285447 143.094439 
L 194.285447 141.139135 
L 196.388024 141.139135 
L 196.388024 140.487367 
L 199.672577 140.487367 
L 199.672577 139.18383 
L 200.299541 139.18383 
L 200.299541 138.532062 
L 200.917215 138.532062 
L 200.917215 137.880294 
L 201.525872 137.880294 
L 201.525872 133.969686 
L 202.717161 133.969686 
L 202.717161 132.66615 
L 203.300279 132.66615 
L 203.300279 128.103774 
L 205.002241 128.103774 
L 205.002241 126.800238 
L 206.099469 126.800238 
L 206.099469 124.844934 
L 206.637441 124.844934 
L 206.637441 122.88963 
L 207.692998 122.88963 
L 207.692998 120.934325 
L 208.722489 120.934325 
L 208.722489 118.979021 
L 209.227856 118.979021 
L 209.227856 118.327253 
L 210.708211 118.327253 
L 210.708211 117.023717 
L 211.666696 117.023717 
L 211.666696 115.720181 
L 212.60364 115.720181 
L 212.60364 111.809573 
L 213.064333 111.809573 
L 213.064333 110.506037 
L 213.970723 110.506037 
L 213.970723 103.336589 
L 216.154063 103.336589 
L 216.154063 97.470676 
L 217.411211 97.470676 
L 217.411211 95.515372 
L 218.228733 95.515372 
L 218.228733 94.211836 
L 218.63156 94.211836 
L 218.63156 93.560068 
L 219.425723 93.560068 
L 219.425723 92.256532 
L 219.817202 92.256532 
L 219.817202 90.301228 
L 220.589303 90.301228 
L 220.589303 89.64946 
L 220.970057 89.64946 
L 220.970057 88.997692 
L 221.72129 88.997692 
L 221.72129 87.694156 
L 222.459225 87.694156 
L 222.459225 87.042388 
L 222.823352 87.042388 
L 222.823352 85.738852 
L 223.184327 85.738852 
L 223.184327 84.435316 
L 223.542202 84.435316 
L 223.542202 82.480011 
L 224.248868 82.480011 
L 224.248868 81.176475 
L 225.286903 81.176475 
L 225.286903 79.221171 
L 226.961517 79.221171 
L 226.961517 77.917635 
L 227.288517 77.917635 
L 227.288517 75.962331 
L 227.934921 75.962331 
L 227.934921 75.310563 
L 228.254404 75.310563 
L 228.254404 74.658795 
L 228.886117 74.658795 
L 228.886117 70.748187 
L 230.424752 70.748187 
L 230.424752 68.141115 
L 230.72578 68.141115 
L 230.72578 66.837579 
L 231.024651 66.837579 
L 231.024651 63.578739 
L 232.199159 63.578739 
L 232.199159 62.92697 
L 234.178146 62.92697 
L 234.178146 61.623434 
L 234.998349 61.623434 
L 234.998349 59.66813 
L 235.802726 59.66813 
L 235.802726 59.016362 
L 236.330483 59.016362 
L 236.330483 57.061058 
L 236.591878 57.061058 
L 236.591878 55.757522 
L 237.109801 55.757522 
L 237.109801 53.802218 
L 238.126736 53.802218 
L 238.126736 51.195146 
L 238.626051 51.195146 
L 238.626051 49.89161 
L 238.873483 49.89161 
L 238.873483 48.588074 
L 241.03668 48.588074 
L 241.03668 47.284538 
L 244.193278 47.284538 
L 244.193278 46.63277 
L 244.839682 46.63277 
L 244.839682 45.981002 
L 245.265117 45.981002 
L 245.265117 45.329234 
L 246.103181 45.329234 
L 246.103181 44.025697 
L 247.53044 44.025697 
L 247.53044 42.722161 
L 247.730403 42.722161 
L 247.730403 40.766857 
L 251.174842 40.766857 
L 251.174842 38.811553 
L 251.722232 38.811553 
L 251.722232 36.856249 
L 261.098038 36.856249 
L 261.098038 36.204481 
L 261.242552 36.204481 
L 261.242552 34.249177 
L 264.568616 34.249177 
L 264.568616 33.597409 
L 266.647166 33.597409 
L 266.647166 32.945641 
L 299.703663 32.945641 
L 299.703663 32.293873 
L 312.154063 32.293873 
L 312.154063 30.990337 
L 358.8 30.990337 
L 358.8 30.990337 
" style="fill:none;stroke:#f5deb3;stroke-linecap:square;stroke-width:6.0;"/>
   </g>
   <g id="line2d_2"/>
   <g id="line2d_3">
    <path d="M 358.8 30.990337 
L 390.48 35.161652 
" style="fill:none;stroke:#f5deb3;stroke-linecap:square;stroke-width:6.0;"/>
    <defs>
     <path d="M -0 7.778175 
L 7.778175 0 
L 0 -7.778175 
L -7.778175 -0 
z
" id="m081c779492" style="stroke:#f5deb3;stroke-linejoin:miter;stroke-width:1.5;"/>
    </defs>
    <g>
     <use style="fill:#f5deb3;stroke:#f5deb3;stroke-linejoin:miter;stroke-width:1.5;" x="358.8" xlink:href="#m081c779492" y="30.9903368105"/>
     <use style="fill:#f5deb3;stroke:#f5deb3;stroke-linejoin:miter;stroke-width:1.5;" x="390.48" xlink:href="#m081c779492" y="35.1616522277"/>
    </g>
   </g>
   <g id="line2d_4">
    <defs>
     <path d="M 0 1.5 
C 0.397805 1.5 0.77937 1.341951 1.06066 1.06066 
C 1.341951 0.77937 1.5 0.397805 1.5 0 
C 1.5 -0.397805 1.341951 -0.77937 1.06066 -1.06066 
C 0.77937 -1.341951 0.397805 -1.5 0 -1.5 
C -0.397805 -1.5 -0.77937 -1.341951 -1.06066 -1.06066 
C -1.341951 -0.77937 -1.5 -0.397805 -1.5 0 
C -1.5 0.397805 -1.341951 0.77937 -1.06066 1.06066 
C -0.77937 1.341951 -0.397805 1.5 0 1.5 
z
" id="m488abcb628" style="stroke:#f5deb3;stroke-width:0.5;"/>
    </defs>
    <g>
     <use style="fill:#f5deb3;stroke:#f5deb3;stroke-width:0.5;" x="385.72095348" xlink:href="#m488abcb628" y="29.6868007426"/>
     <use style="fill:#f5deb3;stroke:#f5deb3;stroke-width:0.5;" x="385.72095348" xlink:href="#m488abcb628" y="29.6868007426"/>
    </g>
   </g>
   <g id="line2d_5">
    <g>
     <use style="fill:#f5deb3;stroke:#f5deb3;stroke-linejoin:miter;stroke-width:1.5;" x="82.7941187144" xlink:href="#m081c779492" y="251.939700318"/>
     <use style="fill:#f5deb3;stroke:#f5deb3;stroke-linejoin:miter;stroke-width:1.5;" x="143.119455999" xlink:href="#m081c779492" y="198.494721535"/>
     <use style="fill:#f5deb3;stroke:#f5deb3;stroke-linejoin:miter;stroke-width:1.5;" x="201.525872258" xlink:href="#m081c779492" y="137.880294378"/>
     <use style="fill:#f5deb3;stroke:#f5deb3;stroke-linejoin:miter;stroke-width:1.5;" x="236.591877882" xlink:href="#m081c779492" y="55.7575221004"/>
     <use style="fill:#f5deb3;stroke:#f5deb3;stroke-linejoin:miter;stroke-width:1.5;" x="312.154062813" xlink:href="#m081c779492" y="32.2938728784"/>
     <use style="fill:#f5deb3;stroke:#f5deb3;stroke-linejoin:miter;stroke-width:1.5;" x="358.8" xlink:href="#m081c779492" y="30.9903368105"/>
    </g>
   </g>
   <g id="line2d_6">
    <defs>
     <path d="M 0 1.5 
C 0.397805 1.5 0.77937 1.341951 1.06066 1.06066 
C 1.341951 0.77937 1.5 0.397805 1.5 0 
C 1.5 -0.397805 1.341951 -0.77937 1.06066 -1.06066 
C 0.77937 -1.341951 0.397805 -1.5 0 -1.5 
C -0.397805 -1.5 -0.77937 -1.341951 -1.06066 -1.06066 
C -1.341951 -0.77937 -1.5 -0.397805 -1.5 0 
C -1.5 0.397805 -1.341951 0.77937 -1.06066 1.06066 
C -0.77937 1.341951 -0.397805 1.5 0 1.5 
z
" id="mfbf636f500" style="stroke:#000080;stroke-width:0.5;"/>
    </defs>
    <g>
     <use style="fill:#000080;stroke:#000080;stroke-width:0.5;" x="419.42184876" xlink:href="#mfbf636f500" y="101.381284477"/>
     <use style="fill:#000080;stroke:#000080;stroke-width:0.5;" x="419.42184876" xlink:href="#mfbf636f500" y="101.381284477"/>
    </g>
   </g>
   <g id="line2d_7">
    <path d="M 24.99636 303.429375 
L 24.99636 282.572798 
L 53.895239 282.572798 
L 53.895239 279.313958 
L 70.8 279.313958 
L 70.8 268.885669 
L 82.794119 268.885669 
L 82.794119 258.457381 
L 92.09748 258.457381 
L 92.09748 253.895004 
L 99.69888 253.895004 
L 99.69888 248.029092 
L 106.125771 248.029092 
L 106.125771 243.466716 
L 111.692998 243.466716 
L 111.692998 242.16318 
L 116.60364 242.16318 
L 116.60364 240.859644 
L 120.99636 240.859644 
L 120.99636 237.600804 
L 124.970057 237.600804 
L 124.970057 236.949036 
L 128.597759 236.949036 
L 128.597759 234.341963 
L 131.934921 234.341963 
L 131.934921 231.734891 
L 135.024651 231.734891 
L 135.024651 227.824283 
L 137.90112 227.824283 
L 137.90112 226.520747 
L 140.591878 226.520747 
L 140.591878 220.003067 
L 143.119456 220.003067 
L 143.119456 219.351299 
L 145.50252 219.351299 
L 145.50252 214.788922 
L 151.929412 214.788922 
L 151.929412 214.137154 
L 153.868937 214.137154 
L 153.868937 212.833618 
L 157.496639 212.833618 
L 157.496639 208.271242 
L 160.833801 208.271242 
L 160.833801 206.967706 
L 162.407281 206.967706 
L 162.407281 206.315938 
L 165.386567 206.315938 
L 165.386567 205.012402 
L 174.4014 205.012402 
L 174.4014 203.708866 
L 183.704761 203.708866 
L 183.704761 203.057098 
L 184.621111 203.057098 
L 184.621111 202.40533 
L 187.255183 202.40533 
L 187.255183 201.753562 
L 188.923096 201.753562 
L 188.923096 200.450026 
L 190.526843 200.450026 
L 190.526843 199.798258 
L 194.285447 199.798258 
L 194.285447 197.842954 
L 198.389637 197.842954 
L 198.389637 196.539417 
L 199.672577 196.539417 
L 199.672577 195.887649 
L 205.002241 195.887649 
L 205.002241 193.932345 
L 206.637441 193.932345 
L 206.637441 192.628809 
L 207.16856 192.628809 
L 207.16856 191.325273 
L 207.692998 191.325273 
L 207.692998 189.369969 
L 209.727171 189.369969 
L 209.727171 188.066433 
L 210.220576 188.066433 
L 210.220576 187.414665 
L 210.708211 187.414665 
L 210.708211 186.111129 
L 211.666696 186.111129 
L 211.666696 184.155825 
L 215.726446 184.155825 
L 215.726446 182.200521 
L 218.63156 182.200521 
L 218.63156 180.896985 
L 220.20504 180.896985 
L 220.20504 178.941681 
L 223.542202 178.941681 
L 223.542202 175.031072 
L 226.961517 175.031072 
L 226.961517 173.727536 
L 227.288517 173.727536 
L 227.288517 173.075768 
L 227.612972 173.075768 
L 227.612972 171.772232 
L 229.816095 171.772232 
L 229.816095 170.468696 
L 233.622241 170.468696 
L 233.622241 169.816928 
L 235.802726 169.816928 
L 235.802726 169.16516 
L 238.126736 169.16516 
L 238.126736 168.513392 
L 241.03668 168.513392 
L 241.03668 167.861624 
L 253.147747 167.861624 
L 253.147747 166.558088 
L 253.496639 166.558088 
L 253.496639 165.90632 
L 255.860396 165.90632 
L 255.860396 165.254552 
L 263.214852 165.254552 
L 263.214852 164.602784 
L 264.032374 164.602784 
L 264.032374 163.951016 
L 264.834173 163.951016 
L 264.834173 163.299248 
L 266.008681 163.299248 
L 266.008681 162.64748 
L 269.345843 162.64748 
L 269.345843 161.995712 
L 270.16913 161.995712 
L 270.16913 160.692176 
L 270.517051 160.692176 
L 270.517051 160.040408 
L 270.747396 160.040408 
L 270.747396 159.388639 
L 272.103361 159.388639 
L 272.103361 158.736871 
L 272.874442 158.736871 
L 272.874442 158.085103 
L 273.524205 158.085103 
L 273.524205 157.433335 
L 274.375097 157.433335 
L 274.375097 156.129799 
L 278.387063 156.129799 
L 278.387063 154.174495 
L 281.161408 154.174495 
L 281.161408 153.522727 
L 282.221438 153.522727 
L 282.221438 151.567423 
L 287.383297 151.567423 
L 287.383297 150.915655 
L 288.373297 150.915655 
L 288.373297 150.263887 
L 295.100134 150.263887 
L 295.100134 149.612119 
L 298.363335 149.612119 
L 298.363335 148.960351 
L 299.703663 148.960351 
L 299.703663 148.308583 
L 301.882321 148.308583 
L 301.882321 147.005047 
L 302.530401 147.005047 
L 302.530401 146.353279 
L 305.727171 146.353279 
L 305.776775 143.746207 
L 306.416315 143.746207 
L 306.416315 143.094439 
L 311.940803 143.094439 
L 311.940803 141.139135 
L 312.493026 141.139135 
L 312.493026 140.487367 
L 312.829256 140.487367 
L 312.829256 139.835598 
L 313.699171 139.835598 
L 313.699171 139.18383 
L 314.107122 139.18383 
L 314.107122 138.532062 
L 314.470896 138.532062 
L 314.470896 137.880294 
L 316.127761 137.880294 
L 316.127761 137.228526 
L 318.495781 137.228526 
L 318.495781 136.576758 
L 321.149983 136.576758 
L 321.149983 135.92499 
L 323.125337 135.92499 
L 323.125337 135.273222 
L 323.80644 135.273222 
L 323.80644 133.969686 
L 324.854758 133.969686 
L 324.854758 133.317918 
L 325.07378 133.317918 
L 325.07378 132.66615 
L 325.724025 132.66615 
L 325.724025 132.014382 
L 328.228102 132.014382 
L 328.228102 131.362614 
L 328.602543 131.362614 
L 328.602543 130.710846 
L 329.984422 130.710846 
L 329.984422 130.059078 
L 330.343483 130.059078 
L 330.343483 129.40731 
L 331.935293 129.40731 
L 331.935293 128.755542 
L 333.340784 128.755542 
L 333.340784 127.452006 
L 334.576387 127.452006 
L 334.576387 126.800238 
L 336.113042 126.800238 
L 336.113042 126.14847 
L 336.4232 126.14847 
L 336.4232 124.844934 
L 337.571949 124.844934 
L 337.571949 124.193166 
L 337.871481 124.193166 
L 337.871481 122.88963 
L 338.667376 122.88963 
L 338.667376 122.237862 
L 339.492551 122.237862 
L 339.492551 121.586094 
L 341.434083 121.586094 
L 341.434083 120.934325 
L 342.741288 120.934325 
L 342.741288 119.630789 
L 344.245863 119.630789 
L 344.245863 118.979021 
L 348.68978 118.979021 
L 348.68978 118.327253 
L 350.997996 118.327253 
L 350.997996 117.675485 
L 351.794687 117.675485 
L 351.794687 117.023717 
L 354.653617 117.023717 
L 354.653617 115.720181 
L 355.863928 115.720181 
L 355.863928 115.068413 
L 356.323637 115.068413 
L 356.323637 114.416645 
L 358.8 114.416645 
L 358.8 114.416645 
" style="fill:none;stroke:#000080;stroke-linecap:square;stroke-width:1.5;"/>
   </g>
   <g id="line2d_8">
    <defs>
     <path d="M 0 6 
C 1.591219 6 3.117479 5.367802 4.242641 4.242641 
C 5.367802 3.117479 6 1.591219 6 0 
C 6 -1.591219 5.367802 -3.117479 4.242641 -4.242641 
C 3.117479 -5.367802 1.591219 -6 0 -6 
C -1.591219 -6 -3.117479 -5.367802 -4.242641 -4.242641 
C -5.367802 -3.117479 -6 -1.591219 -6 0 
C -6 1.591219 -5.367802 3.117479 -4.242641 4.242641 
C -3.117479 5.367802 -1.591219 6 0 6 
z
" id="m4207b44160" style="stroke:#000080;stroke-width:1.5;"/>
    </defs>
    <g>
     <use style="fill:none;stroke:#000080;stroke-width:1.5;" x="92.0974799632" xlink:href="#m4207b44160" y="258.457380658"/>
     <use style="fill:none;stroke:#000080;stroke-width:1.5;" x="153.868936906" xlink:href="#m4207b44160" y="212.833618281"/>
     <use style="fill:none;stroke:#000080;stroke-width:1.5;" x="241.036679769" xlink:href="#m4207b44160" y="168.513391973"/>
     <use style="fill:none;stroke:#000080;stroke-width:1.5;" x="302.530400858" xlink:href="#m4207b44160" y="147.005046853"/>
     <use style="fill:none;stroke:#000080;stroke-width:1.5;" x="356.323637162" xlink:href="#m4207b44160" y="114.416645156"/>
     <use style="fill:none;stroke:#000080;stroke-width:1.5;" x="358.8" xlink:href="#m4207b44160" y="114.416645156"/>
    </g>
   </g>
   <g id="line2d_9"/>
   <g id="line2d_10">
    <path clip-path="url(#p5354da9cf1)" d="M 262.8 165.254552 
" style="fill:none;stroke:#000080;stroke-linecap:square;"/>
    <defs>
     <path d="M -12 12 
L 12 -12 
M -12 -12 
L 12 12 
" id="m4aa46b47a1" style="stroke:#000080;stroke-width:3.0;"/>
    </defs>
    <g clip-path="url(#p5354da9cf1)">
     <use style="fill:#000080;stroke:#000080;stroke-width:3.0;" x="262.8" xlink:href="#m4aa46b47a1" y="165.254551803"/>
    </g>
   </g>
   <g id="line2d_11">
    <defs>
     <path d="M 0 1.5 
C 0.397805 1.5 0.77937 1.341951 1.06066 1.06066 
C 1.341951 0.77937 1.5 0.397805 1.5 0 
C 1.5 -0.397805 1.341951 -0.77937 1.06066 -1.06066 
C 0.77937 -1.341951 0.397805 -1.5 0 -1.5 
C -0.397805 -1.5 -0.77937 -1.341951 -1.06066 -1.06066 
C -1.341951 -0.77937 -1.5 -0.397805 -1.5 0 
C -1.5 0.397805 -1.341951 0.77937 -1.06066 1.06066 
C -0.77937 1.341951 -0.397805 1.5 0 1.5 
z
" id="mc332100559" style="stroke:#ff00ff;stroke-width:0.5;"/>
    </defs>
    <g>
     <use style="fill:#ff00ff;stroke:#ff00ff;stroke-width:0.5;" x="425.327396619" xlink:href="#mc332100559" y="114.416645156"/>
     <use style="fill:#ff00ff;stroke:#ff00ff;stroke-width:0.5;" x="425.327396619" xlink:href="#mc332100559" y="114.416645156"/>
    </g>
   </g>
   <g id="line2d_12">
    <path d="M 24.99636 303.429375 
L 24.99636 290.394014 
L 53.895239 290.394014 
L 53.895239 280.617494 
L 70.8 280.617494 
L 70.8 266.278597 
L 82.794119 266.278597 
L 82.794119 258.457381 
L 92.09748 258.457381 
L 92.09748 249.984396 
L 99.69888 249.984396 
L 99.69888 246.073788 
L 106.125771 246.073788 
L 106.125771 244.118484 
L 111.692998 244.118484 
L 111.692998 238.90434 
L 116.60364 238.90434 
L 116.60364 234.341963 
L 120.99636 234.341963 
L 120.99636 232.386659 
L 137.90112 232.386659 
L 137.90112 231.734891 
L 140.591878 231.734891 
L 140.591878 228.476051 
L 145.50252 228.476051 
L 145.50252 224.565443 
L 149.895239 224.565443 
L 149.895239 223.913675 
L 153.868937 223.913675 
L 153.868937 221.958371 
L 155.722232 221.958371 
L 155.722232 220.003067 
L 159.1986 220.003067 
L 159.1986 218.699531 
L 160.833801 218.699531 
L 160.833801 217.395995 
L 163.923531 217.395995 
L 163.923531 216.092458 
L 166.8 216.092458 
L 166.8 214.788922 
L 168.167082 214.788922 
L 168.167082 214.137154 
L 170.773698 214.137154 
L 170.773698 213.485386 
L 172.018336 213.485386 
L 172.018336 210.226546 
L 174.4014 210.226546 
L 174.4014 209.574778 
L 176.655585 209.574778 
L 176.655585 208.271242 
L 177.738562 208.271242 
L 177.738562 206.967706 
L 179.82361 206.967706 
L 179.82361 206.315938 
L 182.767816 206.315938 
L 182.767816 203.708866 
L 183.704761 203.708866 
L 183.704761 203.057098 
L 184.621111 203.057098 
L 184.621111 201.753562 
L 186.395518 201.753562 
L 186.395518 200.450026 
L 189.732681 200.450026 
L 189.732681 197.191185 
L 192.071178 197.191185 
L 192.071178 195.887649 
L 192.82241 195.887649 
L 192.82241 194.584113 
L 193.560346 194.584113 
L 193.560346 193.932345 
L 194.998153 193.932345 
L 194.998153 192.628809 
L 195.69888 192.628809 
L 195.69888 191.325273 
L 205.554464 191.325273 
L 205.554464 190.673505 
L 206.637441 190.673505 
L 206.637441 190.021737 
L 207.16856 190.021737 
L 207.16856 189.369969 
L 207.692998 189.369969 
L 207.692998 186.762897 
L 208.722489 186.762897 
L 208.722489 186.111129 
L 209.727171 186.111129 
L 209.727171 184.807593 
L 211.666696 184.807593 
L 211.666696 182.852289 
L 212.1378 182.852289 
L 212.1378 181.548753 
L 213.970723 181.548753 
L 213.970723 180.245217 
L 214.416633 180.245217 
L 214.416633 178.941681 
L 217.411211 178.941681 
L 217.411211 177.638144 
L 219.817202 177.638144 
L 219.817202 176.334608 
L 221.72129 176.334608 
L 221.72129 175.68284 
L 223.542202 175.68284 
L 223.542202 174.379304 
L 226.299721 174.379304 
L 226.299721 173.727536 
L 227.288517 173.727536 
L 227.288517 171.120464 
L 227.934921 171.120464 
L 227.934921 169.16516 
L 231.908619 169.16516 
L 231.908619 168.513392 
L 238.873483 168.513392 
L 238.873483 167.209856 
L 250.433626 167.209856 
L 250.433626 165.90632 
L 259.323631 165.90632 
L 259.323631 165.254552 
L 261.673113 165.254552 
L 261.673113 164.602784 
L 261.815651 164.602784 
L 261.815651 163.299248 
L 261.957703 163.299248 
L 261.957703 162.64748 
L 263.077026 162.64748 
L 263.077026 161.995712 
L 263.352224 161.995712 
L 263.352224 160.692176 
L 264.568616 160.692176 
L 264.568616 160.040408 
L 264.701606 160.040408 
L 264.701606 159.388639 
L 265.750523 159.388639 
L 265.750523 158.736871 
L 268.50597 158.736871 
L 268.50597 158.085103 
L 270.862092 158.085103 
L 270.862092 157.433335 
L 271.543725 157.433335 
L 271.543725 156.781567 
L 272.874442 156.781567 
L 272.874442 156.129799 
L 274.269681 156.129799 
L 274.269681 155.478031 
L 276.228392 155.478031 
L 276.228392 154.826263 
L 276.629283 154.826263 
L 276.629283 153.522727 
L 285.004766 153.522727 
L 285.004766 152.870959 
L 286.605434 152.870959 
L 286.605434 152.219191 
L 290.357268 152.219191 
L 290.357268 151.567423 
L 291.139243 151.567423 
L 291.139243 150.915655 
L 291.837623 150.915655 
L 291.837623 150.263887 
L 294.193745 150.263887 
L 294.193745 149.612119 
L 295.164129 149.612119 
L 295.164129 148.960351 
L 296.237267 148.960351 
L 296.299541 147.656815 
L 297.100747 147.656815 
L 297.100747 147.005047 
L 298.481611 147.005047 
L 298.481611 145.049743 
L 304.671614 145.049743 
L 304.671614 144.397975 
L 308.1378 144.397975 
L 308.1378 143.746207 
L 309.745966 143.746207 
L 309.745966 143.094439 
L 311.769406 143.094439 
L 311.769406 142.442671 
L 319.292012 142.442671 
L 319.292012 141.790903 
L 319.470872 141.790903 
L 319.470872 141.139135 
L 319.826307 141.139135 
L 319.826307 140.487367 
L 320.10849 140.487367 
L 320.10849 139.835598 
L 322.399662 139.835598 
L 322.399662 137.880294 
L 322.59883 137.880294 
L 322.59883 137.228526 
L 322.79705 137.228526 
L 322.79705 136.576758 
L 326.875483 136.576758 
L 326.875483 135.92499 
L 330.835594 135.92499 
L 330.835594 135.273222 
L 331.025413 135.273222 
L 331.025413 133.969686 
L 334.700435 133.969686 
L 334.700435 133.317918 
L 335.510019 133.317918 
L 335.510019 132.66615 
L 338.168875 132.66615 
L 338.168875 132.014382 
L 338.305422 132.014382 
L 338.305422 131.362614 
L 338.779845 131.362614 
L 338.779845 130.710846 
L 344.265562 130.710846 
L 344.265562 129.40731 
L 354.299049 129.40731 
L 354.391836 127.452006 
L 354.745619 127.452006 
L 354.745619 126.800238 
L 358.535109 126.800238 
L 358.535109 125.496702 
L 358.8 125.496702 
L 358.8 125.496702 
" style="fill:none;stroke:#ff00ff;stroke-linecap:square;stroke-width:1.5;"/>
   </g>
   <g id="line2d_13">
    <defs>
     <path d="M -0 8.485281 
L 5.091169 0 
L 0 -8.485281 
L -5.091169 -0 
z
" id="m1659ef09d4" style="stroke:#ff00ff;stroke-linejoin:miter;stroke-width:1.5;"/>
    </defs>
    <g>
     <use style="fill:none;stroke:#ff00ff;stroke-linejoin:miter;stroke-width:1.5;" x="70.8" xlink:href="#m1659ef09d4" y="266.278597065"/>
     <use style="fill:none;stroke:#ff00ff;stroke-linejoin:miter;stroke-width:1.5;" x="140.591877882" xlink:href="#m1659ef09d4" y="231.734891266"/>
     <use style="fill:none;stroke:#ff00ff;stroke-linejoin:miter;stroke-width:1.5;" x="219.817202205" xlink:href="#m1659ef09d4" y="177.638144448"/>
     <use style="fill:none;stroke:#ff00ff;stroke-linejoin:miter;stroke-width:1.5;" x="286.605433571" xlink:href="#m1659ef09d4" y="152.870959158"/>
     <use style="fill:none;stroke:#ff00ff;stroke-linejoin:miter;stroke-width:1.5;" x="354.74561915" xlink:href="#m1659ef09d4" y="127.452005835"/>
     <use style="fill:none;stroke:#ff00ff;stroke-linejoin:miter;stroke-width:1.5;" x="358.8" xlink:href="#m1659ef09d4" y="125.496701733"/>
    </g>
   </g>
   <g id="line2d_14"/>
   <g id="line2d_15">
    <path clip-path="url(#p5354da9cf1)" d="M 261.098038 165.254552 
" style="fill:none;stroke:#ff00ff;stroke-linecap:square;"/>
    <defs>
     <path d="M -12 12 
L 12 -12 
M -12 -12 
L 12 12 
" id="mcccd38d1fc" style="stroke:#ff00ff;stroke-width:3.0;"/>
    </defs>
    <g clip-path="url(#p5354da9cf1)">
     <use style="fill:#ff00ff;stroke:#ff00ff;stroke-width:3.0;" x="261.098038372" xlink:href="#mcccd38d1fc" y="165.254551803"/>
    </g>
   </g>
   <g id="line2d_16">
    <defs>
     <path d="M 0 1.5 
C 0.397805 1.5 0.77937 1.341951 1.06066 1.06066 
C 1.341951 0.77937 1.5 0.397805 1.5 0 
C 1.5 -0.397805 1.341951 -0.77937 1.06066 -1.06066 
C 0.77937 -1.341951 0.397805 -1.5 0 -1.5 
C -0.397805 -1.5 -0.77937 -1.341951 -1.06066 -1.06066 
C -1.341951 -0.77937 -1.5 -0.397805 -1.5 0 
C -1.5 0.397805 -1.341951 0.77937 -1.06066 1.06066 
C -0.77937 1.341951 -0.397805 1.5 0 1.5 
z
" id="m0dcafe46f1" style="stroke:#ffa500;stroke-width:0.5;"/>
    </defs>
    <g>
     <use style="fill:#ffa500;stroke:#ffa500;stroke-width:0.5;" x="411.441452577" xlink:href="#m0dcafe46f1" y="75.3105631188"/>
     <use style="fill:#ffa500;stroke:#ffa500;stroke-width:0.5;" x="411.441452577" xlink:href="#m0dcafe46f1" y="75.3105631188"/>
    </g>
   </g>
   <g id="line2d_17">
    <path d="M 24.99636 303.429375 
L 24.99636 286.483406 
L 53.895239 286.483406 
L 53.895239 276.055118 
L 70.8 276.055118 
L 70.8 269.537437 
L 82.794119 269.537437 
L 82.794119 264.323293 
L 92.09748 264.323293 
L 92.09748 258.457381 
L 99.69888 258.457381 
L 99.69888 249.332628 
L 106.125771 249.332628 
L 106.125771 246.725556 
L 111.692998 246.725556 
L 111.692998 245.42202 
L 116.60364 245.42202 
L 116.60364 238.90434 
L 120.99636 238.90434 
L 120.99636 237.600804 
L 124.970057 237.600804 
L 124.970057 234.341963 
L 128.597759 234.341963 
L 128.597759 233.690195 
L 135.024651 233.690195 
L 135.024651 233.038427 
L 137.90112 233.038427 
L 137.90112 231.083123 
L 140.591878 231.083123 
L 140.591878 227.824283 
L 143.119456 227.824283 
L 143.119456 221.958371 
L 145.50252 221.958371 
L 145.50252 221.306603 
L 151.929412 221.306603 
L 151.929412 220.654835 
L 153.868937 220.654835 
L 153.868937 220.003067 
L 162.407281 220.003067 
L 162.407281 219.351299 
L 165.386567 219.351299 
L 165.386567 216.092458 
L 166.8 216.092458 
L 166.8 213.485386 
L 170.773698 213.485386 
L 170.773698 212.833618 
L 172.018336 212.833618 
L 172.018336 210.878314 
L 173.226892 210.878314 
L 173.226892 209.574778 
L 175.543725 209.574778 
L 175.543725 208.271242 
L 180.828291 208.271242 
L 180.828291 206.315938 
L 181.809331 206.315938 
L 181.809331 205.66417 
L 184.621111 205.66417 
L 184.621111 205.012402 
L 185.517754 205.012402 
L 185.517754 204.360634 
L 186.395518 204.360634 
L 186.395518 203.708866 
L 187.255183 203.708866 
L 187.255183 203.057098 
L 188.923096 203.057098 
L 188.923096 202.40533 
L 189.732681 202.40533 
L 189.732681 201.753562 
L 190.526843 201.753562 
L 190.526843 200.450026 
L 194.285447 200.450026 
L 194.285447 197.191185 
L 197.733052 197.191185 
L 197.733052 196.539417 
L 198.389637 196.539417 
L 198.389637 195.887649 
L 199.036042 195.887649 
L 199.036042 193.280577 
L 199.672577 193.280577 
L 199.672577 192.628809 
L 200.299541 192.628809 
L 200.299541 191.325273 
L 200.917215 191.325273 
L 200.917215 190.021737 
L 202.125771 190.021737 
L 202.125771 188.718201 
L 203.875354 188.718201 
L 203.875354 186.762897 
L 210.220576 186.762897 
L 210.220576 184.155825 
L 211.190208 184.155825 
L 211.190208 180.245217 
L 213.970723 180.245217 
L 213.970723 178.941681 
L 215.726446 178.941681 
L 215.726446 177.638144 
L 220.589303 177.638144 
L 220.589303 174.379304 
L 221.72129 174.379304 
L 221.72129 171.772232 
L 223.542202 171.772232 
L 223.542202 168.513392 
L 224.597759 168.513392 
L 224.597759 167.861624 
L 228.571457 167.861624 
L 228.571457 167.209856 
L 228.886117 167.209856 
L 228.886117 166.558088 
L 229.19842 166.558088 
L 229.19842 164.602784 
L 234.178146 164.602784 
L 234.178146 163.299248 
L 235.268203 163.299248 
L 235.268203 162.64748 
L 242.191664 162.64748 
L 242.191664 161.995712 
L 246.515979 161.995712 
L 246.515979 160.040408 
L 246.92473 160.040408 
L 246.92473 159.388639 
L 249.868937 159.388639 
L 249.868937 156.781567 
L 250.433626 156.781567 
L 250.433626 155.478031 
L 251.722232 155.478031 
L 251.722232 154.826263 
L 252.972201 154.826263 
L 252.972201 154.174495 
L 255.1986 154.174495 
L 255.1986 153.522727 
L 255.69593 153.522727 
L 255.69593 152.870959 
L 256.349939 152.870959 
L 256.349939 152.219191 
L 256.673137 152.219191 
L 256.673137 150.915655 
L 257.153284 150.915655 
L 257.153284 150.263887 
L 257.941441 150.263887 
L 257.941441 149.612119 
L 260.220274 149.612119 
L 260.220274 148.960351 
L 261.957703 148.960351 
L 261.957703 148.308583 
L 262.660794 148.308583 
L 262.660794 147.656815 
L 262.938743 147.656815 
L 262.938743 147.005047 
L 264.167082 147.005047 
L 264.167082 146.353279 
L 269.345843 146.353279 
L 269.345843 145.701511 
L 271.543725 145.701511 
L 271.543725 144.397975 
L 271.768482 144.397975 
L 271.768482 143.746207 
L 272.103361 143.746207 
L 272.214393 142.442671 
L 272.325129 142.442671 
L 272.325129 141.790903 
L 273.20059 141.790903 
L 273.20059 141.139135 
L 275.721797 141.139135 
L 275.721797 140.487367 
L 278.002799 140.487367 
L 278.002799 138.532062 
L 278.767816 138.532062 
L 278.767816 137.880294 
L 284.180781 137.880294 
L 284.180781 137.228526 
L 285.732681 137.228526 
L 285.732681 135.273222 
L 287.995305 135.273222 
L 287.995305 134.621454 
L 288.747893 134.621454 
L 288.747893 133.969686 
L 289.340333 133.969686 
L 289.340333 133.317918 
L 290.428966 133.317918 
L 290.428966 130.710846 
L 295.228025 130.710846 
L 295.228025 130.059078 
L 296.54771 130.059078 
L 296.54771 129.40731 
L 296.671242 129.40731 
L 296.732872 128.103774 
L 298.834439 128.103774 
L 298.834439 127.452006 
L 299.989423 127.452006 
L 299.989423 126.800238 
L 304.10785 126.800238 
L 304.210921 124.844934 
L 304.874744 124.844934 
L 304.975939 123.541398 
L 305.227856 123.541398 
L 305.227856 122.88963 
L 307.761344 122.88963 
L 307.761344 122.237862 
L 309.655723 122.237862 
L 309.655723 121.586094 
L 311.381166 121.586094 
L 311.381166 120.934325 
L 311.726446 120.934325 
L 311.726446 120.282557 
L 312.026238 120.282557 
L 312.026238 119.630789 
L 313.411211 119.630789 
L 313.411211 118.979021 
L 314.30961 118.979021 
L 314.30961 118.327253 
L 315.386372 118.327253 
L 315.386372 117.675485 
L 317.497338 117.675485 
L 317.497338 117.023717 
L 319.967637 117.023717 
L 319.967637 115.068413 
L 324.948765 115.068413 
L 324.948765 114.416645 
L 325.260601 114.416645 
L 325.260601 113.764877 
L 326.212731 113.764877 
L 326.212731 113.113109 
L 328.97365 113.113109 
L 328.97365 112.461341 
L 329.397787 112.461341 
L 329.397787 111.157805 
L 330.808406 111.157805 
L 330.808406 110.506037 
L 331.589738 110.506037 
L 331.589738 109.854269 
L 332.093819 109.854269 
L 332.093819 109.202501 
L 333.468557 109.202501 
L 333.468557 108.550733 
L 333.672182 108.550733 
L 333.672182 107.898965 
L 335.2419 107.898965 
L 335.2419 107.247197 
L 335.412721 107.247197 
L 335.461398 105.943661 
L 337.083499 105.943661 
L 337.083499 104.640125 
L 338.214441 104.640125 
L 338.214441 103.988357 
L 338.914409 103.988357 
L 338.914409 103.336589 
L 340.668285 103.336589 
L 340.668285 102.684821 
L 342.536512 102.684821 
L 342.536512 102.033053 
L 344.383559 102.033053 
L 344.383559 101.381284 
L 345.849982 101.381284 
L 345.849982 100.077748 
L 346.471002 100.077748 
L 346.471002 99.42598 
L 346.99077 99.42598 
L 346.99077 98.774212 
L 347.229905 98.774212 
L 347.229905 98.122444 
L 347.90311 98.122444 
L 347.90311 97.470676 
L 348.280418 97.470676 
L 348.280418 96.818908 
L 349.773665 96.818908 
L 349.773665 96.16714 
L 349.894287 96.16714 
L 349.894287 95.515372 
L 353.612228 95.515372 
L 353.612228 94.863604 
L 356.544271 94.863604 
L 356.544271 94.211836 
L 358.549093 94.211836 
L 358.549093 93.560068 
L 358.8 93.560068 
L 358.8 93.560068 
" style="fill:none;stroke:#ffa500;stroke-linecap:square;stroke-width:1.5;"/>
   </g>
   <g id="line2d_18">
    <defs>
     <path d="M 0 -6 
L -1.347084 -1.854102 
L -5.706339 -1.854102 
L -2.179628 0.708204 
L -3.526712 4.854102 
L -0 2.291796 
L 3.526712 4.854102 
L 2.179628 0.708204 
L 5.706339 -1.854102 
L 1.347084 -1.854102 
z
" id="m9361c27d52" style="stroke:#ffa500;stroke-linejoin:bevel;stroke-width:1.5;"/>
    </defs>
    <g>
     <use style="fill:none;stroke:#ffa500;stroke-linejoin:bevel;stroke-width:1.5;" x="82.7941187144" xlink:href="#m9361c27d52" y="264.323292963"/>
     <use style="fill:none;stroke:#ffa500;stroke-linejoin:bevel;stroke-width:1.5;" x="153.868936906" xlink:href="#m9361c27d52" y="220.003066655"/>
     <use style="fill:none;stroke:#ffa500;stroke-linejoin:bevel;stroke-width:1.5;" x="221.721289723" xlink:href="#m9361c27d52" y="171.772232143"/>
     <use style="fill:none;stroke:#ffa500;stroke-linejoin:bevel;stroke-width:1.5;" x="296.732871741" xlink:href="#m9361c27d52" y="128.755541902"/>
     <use style="fill:none;stroke:#ffa500;stroke-linejoin:bevel;stroke-width:1.5;" x="358.549092902" xlink:href="#m9361c27d52" y="93.5600680693"/>
     <use style="fill:none;stroke:#ffa500;stroke-linejoin:bevel;stroke-width:1.5;" x="358.8" xlink:href="#m9361c27d52" y="93.5600680693"/>
    </g>
   </g>
   <g id="line2d_19"/>
   <g id="line2d_20">
    <path clip-path="url(#p5354da9cf1)" d="M 233.90112 164.602784 
" style="fill:none;stroke:#ffa500;stroke-linecap:square;"/>
    <defs>
     <path d="M -12 12 
L 12 -12 
M -12 -12 
L 12 12 
" id="m0b86fda81d" style="stroke:#ffa500;stroke-width:3.0;"/>
    </defs>
    <g clip-path="url(#p5354da9cf1)">
     <use style="fill:#ffa500;stroke:#ffa500;stroke-width:3.0;" x="233.901120416" xlink:href="#m0b86fda81d" y="164.602783769"/>
    </g>
   </g>
   <g id="line2d_21">
    <path d="M 358.8 125.496702 
L 390.48 297.954524 
" style="fill:none;stroke:#ff00ff;stroke-linecap:square;stroke-width:1.5;"/>
    <g>
     <use style="fill:none;stroke:#ff00ff;stroke-linejoin:miter;stroke-width:1.5;" x="358.8" xlink:href="#m1659ef09d4" y="125.496701733"/>
     <use style="fill:none;stroke:#ff00ff;stroke-linejoin:miter;stroke-width:1.5;" x="390.48" xlink:href="#m1659ef09d4" y="297.954523515"/>
    </g>
   </g>
   <g id="line2d_22">
    <path d="M 358.8 114.416645 
L 390.48 210.3569 
" style="fill:none;stroke:#000080;stroke-linecap:square;stroke-width:1.5;"/>
    <g>
     <use style="fill:none;stroke:#000080;stroke-width:1.5;" x="358.8" xlink:href="#m4207b44160" y="114.416645156"/>
     <use style="fill:none;stroke:#000080;stroke-width:1.5;" x="390.48" xlink:href="#m4207b44160" y="210.356899752"/>
    </g>
   </g>
   <g id="line2d_23">
    <path d="M 358.8 93.560068 
L 390.48 122.759276 
" style="fill:none;stroke:#ffa500;stroke-linecap:square;stroke-width:1.5;"/>
    <g>
     <use style="fill:none;stroke:#ffa500;stroke-linejoin:bevel;stroke-width:1.5;" x="358.8" xlink:href="#m9361c27d52" y="93.5600680693"/>
     <use style="fill:none;stroke:#ffa500;stroke-linejoin:bevel;stroke-width:1.5;" x="390.48" xlink:href="#m9361c27d52" y="122.75927599"/>
    </g>
   </g>
   <g id="line2d_24">
    <path d="M 358.8 303.429375 
L 358.8 29.686801 
" style="fill:none;stroke:#000000;stroke-linecap:square;"/>
   </g>
   <g id="patch_3">
    <path d="M 70.8 26.949375 
L 427.92 26.949375 
" style="fill:none;stroke:#000000;stroke-linecap:square;stroke-linejoin:miter;"/>
   </g>
   <g id="patch_4">
    <path d="M 427.92 303.429375 
L 427.92 26.949375 
" style="fill:none;stroke:#000000;stroke-linecap:square;stroke-linejoin:miter;"/>
   </g>
   <g id="patch_5">
    <path d="M 70.8 303.429375 
L 427.92 303.429375 
" style="fill:none;stroke:#000000;stroke-linecap:square;stroke-linejoin:miter;"/>
   </g>
   <g id="patch_6">
    <path d="M 70.8 303.429375 
L 70.8 26.949375 
" style="fill:none;stroke:#000000;stroke-linecap:square;stroke-linejoin:miter;"/>
   </g>
   <g id="matplotlib.axis_1">
    <g id="xtick_1">
     <g id="line2d_25">
      <path clip-path="url(#p5354da9cf1)" d="M 70.8 303.429375 
L 70.8 26.949375 
" style="fill:none;stroke:#000000;stroke-dasharray:1.000000,3.000000;stroke-dashoffset:0.0;stroke-width:0.5;"/>
     </g>
     <g id="line2d_26">
      <defs>
       <path d="M 0 0 
L 0 -4 
" id="m0791fd940e" style="stroke:#000000;stroke-width:0.5;"/>
      </defs>
      <g>
       <use style="stroke:#000000;stroke-width:0.5;" x="70.8" xlink:href="#m0791fd940e" y="303.429375"/>
      </g>
     </g>
     <g id="line2d_27">
      <defs>
       <path d="M 0 0 
L 0 4 
" id="m917b0869f8" style="stroke:#000000;stroke-width:0.5;"/>
      </defs>
      <g>
       <use style="stroke:#000000;stroke-width:0.5;" x="70.8" xlink:href="#m917b0869f8" y="26.949375"/>
      </g>
     </g>
     <g id="text_1">
      <!-- 0 -->
      <defs>
       <path d="M 31.78125 66.40625 
Q 24.171875 66.40625 20.328125 58.90625 
Q 16.5 51.421875 16.5 36.375 
Q 16.5 21.390625 20.328125 13.890625 
Q 24.171875 6.390625 31.78125 6.390625 
Q 39.453125 6.390625 43.28125 13.890625 
Q 47.125 21.390625 47.125 36.375 
Q 47.125 51.421875 43.28125 58.90625 
Q 39.453125 66.40625 31.78125 66.40625 
M 31.78125 74.21875 
Q 44.046875 74.21875 50.515625 64.515625 
Q 56.984375 54.828125 56.984375 36.375 
Q 56.984375 17.96875 50.515625 8.265625 
Q 44.046875 -1.421875 31.78125 -1.421875 
Q 19.53125 -1.421875 13.0625 8.265625 
Q 6.59375 17.96875 6.59375 36.375 
Q 6.59375 54.828125 13.0625 64.515625 
Q 19.53125 74.21875 31.78125 74.21875 
" id="BitstreamVeraSans-Roman-30"/>
      </defs>
      <g transform="translate(64.4375 322.62625)scale(0.2 -0.2)">
       <use xlink:href="#BitstreamVeraSans-Roman-30"/>
      </g>
     </g>
    </g>
    <g id="xtick_2">
     <g id="line2d_28">
      <path clip-path="url(#p5354da9cf1)" d="M 166.8 303.429375 
L 166.8 26.949375 
" style="fill:none;stroke:#000000;stroke-dasharray:1.000000,3.000000;stroke-dashoffset:0.0;stroke-width:0.5;"/>
     </g>
     <g id="line2d_29">
      <g>
       <use style="stroke:#000000;stroke-width:0.5;" x="166.8" xlink:href="#m0791fd940e" y="303.429375"/>
      </g>
     </g>
     <g id="line2d_30">
      <g>
       <use style="stroke:#000000;stroke-width:0.5;" x="166.8" xlink:href="#m917b0869f8" y="26.949375"/>
      </g>
     </g>
     <g id="text_2">
      <!-- 1 -->
      <defs>
       <path d="M 12.40625 8.296875 
L 28.515625 8.296875 
L 28.515625 63.921875 
L 10.984375 60.40625 
L 10.984375 69.390625 
L 28.421875 72.90625 
L 38.28125 72.90625 
L 38.28125 8.296875 
L 54.390625 8.296875 
L 54.390625 0 
L 12.40625 0 
z
" id="BitstreamVeraSans-Roman-31"/>
      </defs>
      <g transform="translate(160.4375 322.62625)scale(0.2 -0.2)">
       <use xlink:href="#BitstreamVeraSans-Roman-31"/>
      </g>
     </g>
    </g>
    <g id="xtick_3">
     <g id="line2d_31">
      <path clip-path="url(#p5354da9cf1)" d="M 262.8 303.429375 
L 262.8 26.949375 
" style="fill:none;stroke:#000000;stroke-dasharray:1.000000,3.000000;stroke-dashoffset:0.0;stroke-width:0.5;"/>
     </g>
     <g id="line2d_32">
      <g>
       <use style="stroke:#000000;stroke-width:0.5;" x="262.8" xlink:href="#m0791fd940e" y="303.429375"/>
      </g>
     </g>
     <g id="line2d_33">
      <g>
       <use style="stroke:#000000;stroke-width:0.5;" x="262.8" xlink:href="#m917b0869f8" y="26.949375"/>
      </g>
     </g>
     <g id="text_3">
      <!-- 2 -->
      <defs>
       <path d="M 19.1875 8.296875 
L 53.609375 8.296875 
L 53.609375 0 
L 7.328125 0 
L 7.328125 8.296875 
Q 12.9375 14.109375 22.625 23.890625 
Q 32.328125 33.6875 34.8125 36.53125 
Q 39.546875 41.84375 41.421875 45.53125 
Q 43.3125 49.21875 43.3125 52.78125 
Q 43.3125 58.59375 39.234375 62.25 
Q 35.15625 65.921875 28.609375 65.921875 
Q 23.96875 65.921875 18.8125 64.3125 
Q 13.671875 62.703125 7.8125 59.421875 
L 7.8125 69.390625 
Q 13.765625 71.78125 18.9375 73 
Q 24.125 74.21875 28.421875 74.21875 
Q 39.75 74.21875 46.484375 68.546875 
Q 53.21875 62.890625 53.21875 53.421875 
Q 53.21875 48.921875 51.53125 44.890625 
Q 49.859375 40.875 45.40625 35.40625 
Q 44.1875 33.984375 37.640625 27.21875 
Q 31.109375 20.453125 19.1875 8.296875 
" id="BitstreamVeraSans-Roman-32"/>
      </defs>
      <g transform="translate(256.4375 322.62625)scale(0.2 -0.2)">
       <use xlink:href="#BitstreamVeraSans-Roman-32"/>
      </g>
     </g>
    </g>
    <g id="xtick_4">
     <g id="line2d_34">
      <path clip-path="url(#p5354da9cf1)" d="M 358.8 303.429375 
L 358.8 26.949375 
" style="fill:none;stroke:#000000;stroke-dasharray:1.000000,3.000000;stroke-dashoffset:0.0;stroke-width:0.5;"/>
     </g>
     <g id="line2d_35">
      <g>
       <use style="stroke:#000000;stroke-width:0.5;" x="358.8" xlink:href="#m0791fd940e" y="303.429375"/>
      </g>
     </g>
     <g id="line2d_36">
      <g>
       <use style="stroke:#000000;stroke-width:0.5;" x="358.8" xlink:href="#m917b0869f8" y="26.949375"/>
      </g>
     </g>
     <g id="text_4">
      <!-- 3 -->
      <defs>
       <path d="M 40.578125 39.3125 
Q 47.65625 37.796875 51.625 33 
Q 55.609375 28.21875 55.609375 21.1875 
Q 55.609375 10.40625 48.1875 4.484375 
Q 40.765625 -1.421875 27.09375 -1.421875 
Q 22.515625 -1.421875 17.65625 -0.515625 
Q 12.796875 0.390625 7.625 2.203125 
L 7.625 11.71875 
Q 11.71875 9.328125 16.59375 8.109375 
Q 21.484375 6.890625 26.8125 6.890625 
Q 36.078125 6.890625 40.9375 10.546875 
Q 45.796875 14.203125 45.796875 21.1875 
Q 45.796875 27.640625 41.28125 31.265625 
Q 36.765625 34.90625 28.71875 34.90625 
L 20.21875 34.90625 
L 20.21875 43.015625 
L 29.109375 43.015625 
Q 36.375 43.015625 40.234375 45.921875 
Q 44.09375 48.828125 44.09375 54.296875 
Q 44.09375 59.90625 40.109375 62.90625 
Q 36.140625 65.921875 28.71875 65.921875 
Q 24.65625 65.921875 20.015625 65.03125 
Q 15.375 64.15625 9.8125 62.3125 
L 9.8125 71.09375 
Q 15.4375 72.65625 20.34375 73.4375 
Q 25.25 74.21875 29.59375 74.21875 
Q 40.828125 74.21875 47.359375 69.109375 
Q 53.90625 64.015625 53.90625 55.328125 
Q 53.90625 49.265625 50.4375 45.09375 
Q 46.96875 40.921875 40.578125 39.3125 
" id="BitstreamVeraSans-Roman-33"/>
      </defs>
      <g transform="translate(352.4375 322.62625)scale(0.2 -0.2)">
       <use xlink:href="#BitstreamVeraSans-Roman-33"/>
      </g>
     </g>
    </g>
    <g id="xtick_5">
     <g id="line2d_37">
      <defs>
       <path d="M 0 0 
L 0 -2 
" id="m5e97ad3f5d" style="stroke:#000000;stroke-width:0.5;"/>
      </defs>
      <g>
       <use style="stroke:#000000;stroke-width:0.5;" x="99.6988795837" xlink:href="#m5e97ad3f5d" y="303.429375"/>
      </g>
     </g>
     <g id="line2d_38">
      <defs>
       <path d="M 0 0 
L 0 2 
" id="md4b03b7bec" style="stroke:#000000;stroke-width:0.5;"/>
      </defs>
      <g>
       <use style="stroke:#000000;stroke-width:0.5;" x="99.6988795837" xlink:href="#md4b03b7bec" y="26.949375"/>
      </g>
     </g>
    </g>
    <g id="xtick_6">
     <g id="line2d_39">
      <g>
       <use style="stroke:#000000;stroke-width:0.5;" x="116.603640453" xlink:href="#m5e97ad3f5d" y="303.429375"/>
      </g>
     </g>
     <g id="line2d_40">
      <g>
       <use style="stroke:#000000;stroke-width:0.5;" x="116.603640453" xlink:href="#md4b03b7bec" y="26.949375"/>
      </g>
     </g>
    </g>
    <g id="xtick_7">
     <g id="line2d_41">
      <g>
       <use style="stroke:#000000;stroke-width:0.5;" x="128.597759167" xlink:href="#m5e97ad3f5d" y="303.429375"/>
      </g>
     </g>
     <g id="line2d_42">
      <g>
       <use style="stroke:#000000;stroke-width:0.5;" x="128.597759167" xlink:href="#md4b03b7bec" y="26.949375"/>
      </g>
     </g>
    </g>
    <g id="xtick_8">
     <g id="line2d_43">
      <g>
       <use style="stroke:#000000;stroke-width:0.5;" x="137.901120416" xlink:href="#m5e97ad3f5d" y="303.429375"/>
      </g>
     </g>
     <g id="line2d_44">
      <g>
       <use style="stroke:#000000;stroke-width:0.5;" x="137.901120416" xlink:href="#md4b03b7bec" y="26.949375"/>
      </g>
     </g>
    </g>
    <g id="xtick_9">
     <g id="line2d_45">
      <g>
       <use style="stroke:#000000;stroke-width:0.5;" x="145.502520037" xlink:href="#m5e97ad3f5d" y="303.429375"/>
      </g>
     </g>
     <g id="line2d_46">
      <g>
       <use style="stroke:#000000;stroke-width:0.5;" x="145.502520037" xlink:href="#md4b03b7bec" y="26.949375"/>
      </g>
     </g>
    </g>
    <g id="xtick_10">
     <g id="line2d_47">
      <g>
       <use style="stroke:#000000;stroke-width:0.5;" x="151.929411841" xlink:href="#m5e97ad3f5d" y="303.429375"/>
      </g>
     </g>
     <g id="line2d_48">
      <g>
       <use style="stroke:#000000;stroke-width:0.5;" x="151.929411841" xlink:href="#md4b03b7bec" y="26.949375"/>
      </g>
     </g>
    </g>
    <g id="xtick_11">
     <g id="line2d_49">
      <g>
       <use style="stroke:#000000;stroke-width:0.5;" x="157.496638751" xlink:href="#m5e97ad3f5d" y="303.429375"/>
      </g>
     </g>
     <g id="line2d_50">
      <g>
       <use style="stroke:#000000;stroke-width:0.5;" x="157.496638751" xlink:href="#md4b03b7bec" y="26.949375"/>
      </g>
     </g>
    </g>
    <g id="xtick_12">
     <g id="line2d_51">
      <g>
       <use style="stroke:#000000;stroke-width:0.5;" x="162.407280906" xlink:href="#m5e97ad3f5d" y="303.429375"/>
      </g>
     </g>
     <g id="line2d_52">
      <g>
       <use style="stroke:#000000;stroke-width:0.5;" x="162.407280906" xlink:href="#md4b03b7bec" y="26.949375"/>
      </g>
     </g>
    </g>
    <g id="xtick_13">
     <g id="line2d_53">
      <g>
       <use style="stroke:#000000;stroke-width:0.5;" x="195.698879584" xlink:href="#m5e97ad3f5d" y="303.429375"/>
      </g>
     </g>
     <g id="line2d_54">
      <g>
       <use style="stroke:#000000;stroke-width:0.5;" x="195.698879584" xlink:href="#md4b03b7bec" y="26.949375"/>
      </g>
     </g>
    </g>
    <g id="xtick_14">
     <g id="line2d_55">
      <g>
       <use style="stroke:#000000;stroke-width:0.5;" x="212.603640453" xlink:href="#m5e97ad3f5d" y="303.429375"/>
      </g>
     </g>
     <g id="line2d_56">
      <g>
       <use style="stroke:#000000;stroke-width:0.5;" x="212.603640453" xlink:href="#md4b03b7bec" y="26.949375"/>
      </g>
     </g>
    </g>
    <g id="xtick_15">
     <g id="line2d_57">
      <g>
       <use style="stroke:#000000;stroke-width:0.5;" x="224.597759167" xlink:href="#m5e97ad3f5d" y="303.429375"/>
      </g>
     </g>
     <g id="line2d_58">
      <g>
       <use style="stroke:#000000;stroke-width:0.5;" x="224.597759167" xlink:href="#md4b03b7bec" y="26.949375"/>
      </g>
     </g>
    </g>
    <g id="xtick_16">
     <g id="line2d_59">
      <g>
       <use style="stroke:#000000;stroke-width:0.5;" x="233.901120416" xlink:href="#m5e97ad3f5d" y="303.429375"/>
      </g>
     </g>
     <g id="line2d_60">
      <g>
       <use style="stroke:#000000;stroke-width:0.5;" x="233.901120416" xlink:href="#md4b03b7bec" y="26.949375"/>
      </g>
     </g>
    </g>
    <g id="xtick_17">
     <g id="line2d_61">
      <g>
       <use style="stroke:#000000;stroke-width:0.5;" x="241.502520037" xlink:href="#m5e97ad3f5d" y="303.429375"/>
      </g>
     </g>
     <g id="line2d_62">
      <g>
       <use style="stroke:#000000;stroke-width:0.5;" x="241.502520037" xlink:href="#md4b03b7bec" y="26.949375"/>
      </g>
     </g>
    </g>
    <g id="xtick_18">
     <g id="line2d_63">
      <g>
       <use style="stroke:#000000;stroke-width:0.5;" x="247.929411841" xlink:href="#m5e97ad3f5d" y="303.429375"/>
      </g>
     </g>
     <g id="line2d_64">
      <g>
       <use style="stroke:#000000;stroke-width:0.5;" x="247.929411841" xlink:href="#md4b03b7bec" y="26.949375"/>
      </g>
     </g>
    </g>
    <g id="xtick_19">
     <g id="line2d_65">
      <g>
       <use style="stroke:#000000;stroke-width:0.5;" x="253.496638751" xlink:href="#m5e97ad3f5d" y="303.429375"/>
      </g>
     </g>
     <g id="line2d_66">
      <g>
       <use style="stroke:#000000;stroke-width:0.5;" x="253.496638751" xlink:href="#md4b03b7bec" y="26.949375"/>
      </g>
     </g>
    </g>
    <g id="xtick_20">
     <g id="line2d_67">
      <g>
       <use style="stroke:#000000;stroke-width:0.5;" x="258.407280906" xlink:href="#m5e97ad3f5d" y="303.429375"/>
      </g>
     </g>
     <g id="line2d_68">
      <g>
       <use style="stroke:#000000;stroke-width:0.5;" x="258.407280906" xlink:href="#md4b03b7bec" y="26.949375"/>
      </g>
     </g>
    </g>
    <g id="xtick_21">
     <g id="line2d_69">
      <g>
       <use style="stroke:#000000;stroke-width:0.5;" x="291.698879584" xlink:href="#m5e97ad3f5d" y="303.429375"/>
      </g>
     </g>
     <g id="line2d_70">
      <g>
       <use style="stroke:#000000;stroke-width:0.5;" x="291.698879584" xlink:href="#md4b03b7bec" y="26.949375"/>
      </g>
     </g>
    </g>
    <g id="xtick_22">
     <g id="line2d_71">
      <g>
       <use style="stroke:#000000;stroke-width:0.5;" x="308.603640453" xlink:href="#m5e97ad3f5d" y="303.429375"/>
      </g>
     </g>
     <g id="line2d_72">
      <g>
       <use style="stroke:#000000;stroke-width:0.5;" x="308.603640453" xlink:href="#md4b03b7bec" y="26.949375"/>
      </g>
     </g>
    </g>
    <g id="xtick_23">
     <g id="line2d_73">
      <g>
       <use style="stroke:#000000;stroke-width:0.5;" x="320.597759167" xlink:href="#m5e97ad3f5d" y="303.429375"/>
      </g>
     </g>
     <g id="line2d_74">
      <g>
       <use style="stroke:#000000;stroke-width:0.5;" x="320.597759167" xlink:href="#md4b03b7bec" y="26.949375"/>
      </g>
     </g>
    </g>
    <g id="xtick_24">
     <g id="line2d_75">
      <g>
       <use style="stroke:#000000;stroke-width:0.5;" x="329.901120416" xlink:href="#m5e97ad3f5d" y="303.429375"/>
      </g>
     </g>
     <g id="line2d_76">
      <g>
       <use style="stroke:#000000;stroke-width:0.5;" x="329.901120416" xlink:href="#md4b03b7bec" y="26.949375"/>
      </g>
     </g>
    </g>
    <g id="xtick_25">
     <g id="line2d_77">
      <g>
       <use style="stroke:#000000;stroke-width:0.5;" x="337.502520037" xlink:href="#m5e97ad3f5d" y="303.429375"/>
      </g>
     </g>
     <g id="line2d_78">
      <g>
       <use style="stroke:#000000;stroke-width:0.5;" x="337.502520037" xlink:href="#md4b03b7bec" y="26.949375"/>
      </g>
     </g>
    </g>
    <g id="xtick_26">
     <g id="line2d_79">
      <g>
       <use style="stroke:#000000;stroke-width:0.5;" x="343.929411841" xlink:href="#m5e97ad3f5d" y="303.429375"/>
      </g>
     </g>
     <g id="line2d_80">
      <g>
       <use style="stroke:#000000;stroke-width:0.5;" x="343.929411841" xlink:href="#md4b03b7bec" y="26.949375"/>
      </g>
     </g>
    </g>
    <g id="xtick_27">
     <g id="line2d_81">
      <g>
       <use style="stroke:#000000;stroke-width:0.5;" x="349.496638751" xlink:href="#m5e97ad3f5d" y="303.429375"/>
      </g>
     </g>
     <g id="line2d_82">
      <g>
       <use style="stroke:#000000;stroke-width:0.5;" x="349.496638751" xlink:href="#md4b03b7bec" y="26.949375"/>
      </g>
     </g>
    </g>
    <g id="xtick_28">
     <g id="line2d_83">
      <g>
       <use style="stroke:#000000;stroke-width:0.5;" x="354.407280906" xlink:href="#m5e97ad3f5d" y="303.429375"/>
      </g>
     </g>
     <g id="line2d_84">
      <g>
       <use style="stroke:#000000;stroke-width:0.5;" x="354.407280906" xlink:href="#md4b03b7bec" y="26.949375"/>
      </g>
     </g>
    </g>
    <g id="xtick_29">
     <g id="line2d_85">
      <g>
       <use style="stroke:#000000;stroke-width:0.5;" x="387.698879584" xlink:href="#m5e97ad3f5d" y="303.429375"/>
      </g>
     </g>
     <g id="line2d_86">
      <g>
       <use style="stroke:#000000;stroke-width:0.5;" x="387.698879584" xlink:href="#md4b03b7bec" y="26.949375"/>
      </g>
     </g>
    </g>
    <g id="xtick_30">
     <g id="line2d_87">
      <g>
       <use style="stroke:#000000;stroke-width:0.5;" x="404.603640453" xlink:href="#m5e97ad3f5d" y="303.429375"/>
      </g>
     </g>
     <g id="line2d_88">
      <g>
       <use style="stroke:#000000;stroke-width:0.5;" x="404.603640453" xlink:href="#md4b03b7bec" y="26.949375"/>
      </g>
     </g>
    </g>
    <g id="xtick_31">
     <g id="line2d_89">
      <g>
       <use style="stroke:#000000;stroke-width:0.5;" x="416.597759167" xlink:href="#m5e97ad3f5d" y="303.429375"/>
      </g>
     </g>
     <g id="line2d_90">
      <g>
       <use style="stroke:#000000;stroke-width:0.5;" x="416.597759167" xlink:href="#md4b03b7bec" y="26.949375"/>
      </g>
     </g>
    </g>
    <g id="xtick_32">
     <g id="line2d_91">
      <g>
       <use style="stroke:#000000;stroke-width:0.5;" x="425.901120416" xlink:href="#m5e97ad3f5d" y="303.429375"/>
      </g>
     </g>
     <g id="line2d_92">
      <g>
       <use style="stroke:#000000;stroke-width:0.5;" x="425.901120416" xlink:href="#md4b03b7bec" y="26.949375"/>
      </g>
     </g>
    </g>
    <g id="text_5">
     <!-- log10 of (# f-evals / dimension) -->
     <defs>
      <path id="BitstreamVeraSans-Roman-20"/>
      <path d="M 51.125 44 
L 36.921875 44 
L 32.8125 27.6875 
L 47.125 27.6875 
z
M 43.796875 71.78125 
L 38.71875 51.515625 
L 52.984375 51.515625 
L 58.109375 71.78125 
L 65.921875 71.78125 
L 60.890625 51.515625 
L 76.125 51.515625 
L 76.125 44 
L 58.984375 44 
L 54.984375 27.6875 
L 70.515625 27.6875 
L 70.515625 20.21875 
L 53.078125 20.21875 
L 48 0 
L 40.1875 0 
L 45.21875 20.21875 
L 30.90625 20.21875 
L 25.875 0 
L 18.015625 0 
L 23.09375 20.21875 
L 7.71875 20.21875 
L 7.71875 27.6875 
L 24.90625 27.6875 
L 29 44 
L 13.28125 44 
L 13.28125 51.515625 
L 30.90625 51.515625 
L 35.890625 71.78125 
z
" id="BitstreamVeraSans-Roman-23"/>
      <path d="M 52 44.1875 
Q 55.375 50.25 60.0625 53.125 
Q 64.75 56 71.09375 56 
Q 79.640625 56 84.28125 50.015625 
Q 88.921875 44.046875 88.921875 33.015625 
L 88.921875 0 
L 79.890625 0 
L 79.890625 32.71875 
Q 79.890625 40.578125 77.09375 44.375 
Q 74.3125 48.1875 68.609375 48.1875 
Q 61.625 48.1875 57.5625 43.546875 
Q 53.515625 38.921875 53.515625 30.90625 
L 53.515625 0 
L 44.484375 0 
L 44.484375 32.71875 
Q 44.484375 40.625 41.703125 44.40625 
Q 38.921875 48.1875 33.109375 48.1875 
Q 26.21875 48.1875 22.15625 43.53125 
Q 18.109375 38.875 18.109375 30.90625 
L 18.109375 0 
L 9.078125 0 
L 9.078125 54.6875 
L 18.109375 54.6875 
L 18.109375 46.1875 
Q 21.1875 51.21875 25.484375 53.609375 
Q 29.78125 56 35.6875 56 
Q 41.65625 56 45.828125 52.96875 
Q 50 49.953125 52 44.1875 
" id="BitstreamVeraSans-Roman-6d"/>
      <path d="M 54.890625 33.015625 
L 54.890625 0 
L 45.90625 0 
L 45.90625 32.71875 
Q 45.90625 40.484375 42.875 44.328125 
Q 39.84375 48.1875 33.796875 48.1875 
Q 26.515625 48.1875 22.3125 43.546875 
Q 18.109375 38.921875 18.109375 30.90625 
L 18.109375 0 
L 9.078125 0 
L 9.078125 54.6875 
L 18.109375 54.6875 
L 18.109375 46.1875 
Q 21.34375 51.125 25.703125 53.5625 
Q 30.078125 56 35.796875 56 
Q 45.21875 56 50.046875 50.171875 
Q 54.890625 44.34375 54.890625 33.015625 
" id="BitstreamVeraSans-Roman-6e"/>
      <path d="M 31 75.875 
Q 24.46875 64.65625 21.28125 53.65625 
Q 18.109375 42.671875 18.109375 31.390625 
Q 18.109375 20.125 21.3125 9.0625 
Q 24.515625 -2 31 -13.1875 
L 23.1875 -13.1875 
Q 15.875 -1.703125 12.234375 9.375 
Q 8.59375 20.453125 8.59375 31.390625 
Q 8.59375 42.28125 12.203125 53.3125 
Q 15.828125 64.359375 23.1875 75.875 
z
" id="BitstreamVeraSans-Roman-28"/>
      <path d="M 30.609375 48.390625 
Q 23.390625 48.390625 19.1875 42.75 
Q 14.984375 37.109375 14.984375 27.296875 
Q 14.984375 17.484375 19.15625 11.84375 
Q 23.34375 6.203125 30.609375 6.203125 
Q 37.796875 6.203125 41.984375 11.859375 
Q 46.1875 17.53125 46.1875 27.296875 
Q 46.1875 37.015625 41.984375 42.703125 
Q 37.796875 48.390625 30.609375 48.390625 
M 30.609375 56 
Q 42.328125 56 49.015625 48.375 
Q 55.71875 40.765625 55.71875 27.296875 
Q 55.71875 13.875 49.015625 6.21875 
Q 42.328125 -1.421875 30.609375 -1.421875 
Q 18.84375 -1.421875 12.171875 6.21875 
Q 5.515625 13.875 5.515625 27.296875 
Q 5.515625 40.765625 12.171875 48.375 
Q 18.84375 56 30.609375 56 
" id="BitstreamVeraSans-Roman-6f"/>
      <path d="M 9.421875 75.984375 
L 18.40625 75.984375 
L 18.40625 0 
L 9.421875 0 
z
" id="BitstreamVeraSans-Roman-6c"/>
      <path d="M 2.984375 54.6875 
L 12.5 54.6875 
L 29.59375 8.796875 
L 46.6875 54.6875 
L 56.203125 54.6875 
L 35.6875 0 
L 23.484375 0 
z
" id="BitstreamVeraSans-Roman-76"/>
      <path d="M 9.421875 54.6875 
L 18.40625 54.6875 
L 18.40625 0 
L 9.421875 0 
z
M 9.421875 75.984375 
L 18.40625 75.984375 
L 18.40625 64.59375 
L 9.421875 64.59375 
z
" id="BitstreamVeraSans-Roman-69"/>
      <path d="M 4.890625 31.390625 
L 31.203125 31.390625 
L 31.203125 23.390625 
L 4.890625 23.390625 
z
" id="BitstreamVeraSans-Roman-2d"/>
      <path d="M 25.390625 72.90625 
L 33.6875 72.90625 
L 8.296875 -9.28125 
L 0 -9.28125 
z
" id="BitstreamVeraSans-Roman-2f"/>
      <path d="M 56.203125 29.59375 
L 56.203125 25.203125 
L 14.890625 25.203125 
Q 15.484375 15.921875 20.484375 11.0625 
Q 25.484375 6.203125 34.421875 6.203125 
Q 39.59375 6.203125 44.453125 7.46875 
Q 49.3125 8.734375 54.109375 11.28125 
L 54.109375 2.78125 
Q 49.265625 0.734375 44.1875 -0.34375 
Q 39.109375 -1.421875 33.890625 -1.421875 
Q 20.796875 -1.421875 13.15625 6.1875 
Q 5.515625 13.8125 5.515625 26.8125 
Q 5.515625 40.234375 12.765625 48.109375 
Q 20.015625 56 32.328125 56 
Q 43.359375 56 49.78125 48.890625 
Q 56.203125 41.796875 56.203125 29.59375 
M 47.21875 32.234375 
Q 47.125 39.59375 43.09375 43.984375 
Q 39.0625 48.390625 32.421875 48.390625 
Q 24.90625 48.390625 20.390625 44.140625 
Q 15.875 39.890625 15.1875 32.171875 
z
" id="BitstreamVeraSans-Roman-65"/>
      <path d="M 45.40625 46.390625 
L 45.40625 75.984375 
L 54.390625 75.984375 
L 54.390625 0 
L 45.40625 0 
L 45.40625 8.203125 
Q 42.578125 3.328125 38.25 0.953125 
Q 33.9375 -1.421875 27.875 -1.421875 
Q 17.96875 -1.421875 11.734375 6.484375 
Q 5.515625 14.40625 5.515625 27.296875 
Q 5.515625 40.1875 11.734375 48.09375 
Q 17.96875 56 27.875 56 
Q 33.9375 56 38.25 53.625 
Q 42.578125 51.265625 45.40625 46.390625 
M 14.796875 27.296875 
Q 14.796875 17.390625 18.875 11.75 
Q 22.953125 6.109375 30.078125 6.109375 
Q 37.203125 6.109375 41.296875 11.75 
Q 45.40625 17.390625 45.40625 27.296875 
Q 45.40625 37.203125 41.296875 42.84375 
Q 37.203125 48.484375 30.078125 48.484375 
Q 22.953125 48.484375 18.875 42.84375 
Q 14.796875 37.203125 14.796875 27.296875 
" id="BitstreamVeraSans-Roman-64"/>
      <path d="M 45.40625 27.984375 
Q 45.40625 37.75 41.375 43.109375 
Q 37.359375 48.484375 30.078125 48.484375 
Q 22.859375 48.484375 18.828125 43.109375 
Q 14.796875 37.75 14.796875 27.984375 
Q 14.796875 18.265625 18.828125 12.890625 
Q 22.859375 7.515625 30.078125 7.515625 
Q 37.359375 7.515625 41.375 12.890625 
Q 45.40625 18.265625 45.40625 27.984375 
M 54.390625 6.78125 
Q 54.390625 -7.171875 48.1875 -13.984375 
Q 42 -20.796875 29.203125 -20.796875 
Q 24.46875 -20.796875 20.265625 -20.09375 
Q 16.0625 -19.390625 12.109375 -17.921875 
L 12.109375 -9.1875 
Q 16.0625 -11.328125 19.921875 -12.34375 
Q 23.78125 -13.375 27.78125 -13.375 
Q 36.625 -13.375 41.015625 -8.765625 
Q 45.40625 -4.15625 45.40625 5.171875 
L 45.40625 9.625 
Q 42.625 4.78125 38.28125 2.390625 
Q 33.9375 0 27.875 0 
Q 17.828125 0 11.671875 7.65625 
Q 5.515625 15.328125 5.515625 27.984375 
Q 5.515625 40.671875 11.671875 48.328125 
Q 17.828125 56 27.875 56 
Q 33.9375 56 38.28125 53.609375 
Q 42.625 51.21875 45.40625 46.390625 
L 45.40625 54.6875 
L 54.390625 54.6875 
z
" id="BitstreamVeraSans-Roman-67"/>
      <path d="M 37.109375 75.984375 
L 37.109375 68.5 
L 28.515625 68.5 
Q 23.6875 68.5 21.796875 66.546875 
Q 19.921875 64.59375 19.921875 59.515625 
L 19.921875 54.6875 
L 34.71875 54.6875 
L 34.71875 47.703125 
L 19.921875 47.703125 
L 19.921875 0 
L 10.890625 0 
L 10.890625 47.703125 
L 2.296875 47.703125 
L 2.296875 54.6875 
L 10.890625 54.6875 
L 10.890625 58.5 
Q 10.890625 67.625 15.140625 71.796875 
Q 19.390625 75.984375 28.609375 75.984375 
z
" id="BitstreamVeraSans-Roman-66"/>
      <path d="M 34.28125 27.484375 
Q 23.390625 27.484375 19.1875 25 
Q 14.984375 22.515625 14.984375 16.5 
Q 14.984375 11.71875 18.140625 8.90625 
Q 21.296875 6.109375 26.703125 6.109375 
Q 34.1875 6.109375 38.703125 11.40625 
Q 43.21875 16.703125 43.21875 25.484375 
L 43.21875 27.484375 
z
M 52.203125 31.203125 
L 52.203125 0 
L 43.21875 0 
L 43.21875 8.296875 
Q 40.140625 3.328125 35.546875 0.953125 
Q 30.953125 -1.421875 24.3125 -1.421875 
Q 15.921875 -1.421875 10.953125 3.296875 
Q 6 8.015625 6 15.921875 
Q 6 25.140625 12.171875 29.828125 
Q 18.359375 34.515625 30.609375 34.515625 
L 43.21875 34.515625 
L 43.21875 35.40625 
Q 43.21875 41.609375 39.140625 45 
Q 35.0625 48.390625 27.6875 48.390625 
Q 23 48.390625 18.546875 47.265625 
Q 14.109375 46.140625 10.015625 43.890625 
L 10.015625 52.203125 
Q 14.9375 54.109375 19.578125 55.046875 
Q 24.21875 56 28.609375 56 
Q 40.484375 56 46.34375 49.84375 
Q 52.203125 43.703125 52.203125 31.203125 
" id="BitstreamVeraSans-Roman-61"/>
      <path d="M 44.28125 53.078125 
L 44.28125 44.578125 
Q 40.484375 46.53125 36.375 47.5 
Q 32.28125 48.484375 27.875 48.484375 
Q 21.1875 48.484375 17.84375 46.4375 
Q 14.5 44.390625 14.5 40.28125 
Q 14.5 37.15625 16.890625 35.375 
Q 19.28125 33.59375 26.515625 31.984375 
L 29.59375 31.296875 
Q 39.15625 29.25 43.1875 25.515625 
Q 47.21875 21.78125 47.21875 15.09375 
Q 47.21875 7.46875 41.1875 3.015625 
Q 35.15625 -1.421875 24.609375 -1.421875 
Q 20.21875 -1.421875 15.453125 -0.5625 
Q 10.6875 0.296875 5.421875 2 
L 5.421875 11.28125 
Q 10.40625 8.6875 15.234375 7.390625 
Q 20.0625 6.109375 24.8125 6.109375 
Q 31.15625 6.109375 34.5625 8.28125 
Q 37.984375 10.453125 37.984375 14.40625 
Q 37.984375 18.0625 35.515625 20.015625 
Q 33.0625 21.96875 24.703125 23.78125 
L 21.578125 24.515625 
Q 13.234375 26.265625 9.515625 29.90625 
Q 5.8125 33.546875 5.8125 39.890625 
Q 5.8125 47.609375 11.28125 51.796875 
Q 16.75 56 26.8125 56 
Q 31.78125 56 36.171875 55.265625 
Q 40.578125 54.546875 44.28125 53.078125 
" id="BitstreamVeraSans-Roman-73"/>
      <path d="M 8.015625 75.875 
L 15.828125 75.875 
Q 23.140625 64.359375 26.78125 53.3125 
Q 30.421875 42.28125 30.421875 31.390625 
Q 30.421875 20.453125 26.78125 9.375 
Q 23.140625 -1.703125 15.828125 -13.1875 
L 8.015625 -13.1875 
Q 14.5 -2 17.703125 9.0625 
Q 20.90625 20.125 20.90625 31.390625 
Q 20.90625 42.671875 17.703125 53.65625 
Q 14.5 64.65625 8.015625 75.875 
" id="BitstreamVeraSans-Roman-29"/>
     </defs>
     <g transform="translate(107.01515625 345.4628125)scale(0.18 -0.18)">
      <use xlink:href="#BitstreamVeraSans-Roman-6c"/>
      <use x="27.783203125" xlink:href="#BitstreamVeraSans-Roman-6f"/>
      <use x="88.96484375" xlink:href="#BitstreamVeraSans-Roman-67"/>
      <use x="152.44140625" xlink:href="#BitstreamVeraSans-Roman-31"/>
      <use x="216.064453125" xlink:href="#BitstreamVeraSans-Roman-30"/>
      <use x="279.6875" xlink:href="#BitstreamVeraSans-Roman-20"/>
      <use x="311.474609375" xlink:href="#BitstreamVeraSans-Roman-6f"/>
      <use x="372.65625" xlink:href="#BitstreamVeraSans-Roman-66"/>
      <use x="407.861328125" xlink:href="#BitstreamVeraSans-Roman-20"/>
      <use x="439.6484375" xlink:href="#BitstreamVeraSans-Roman-28"/>
      <use x="478.662109375" xlink:href="#BitstreamVeraSans-Roman-23"/>
      <use x="562.451171875" xlink:href="#BitstreamVeraSans-Roman-20"/>
      <use x="594.23828125" xlink:href="#BitstreamVeraSans-Roman-66"/>
      <use x="629.365234375" xlink:href="#BitstreamVeraSans-Roman-2d"/>
      <use x="665.44921875" xlink:href="#BitstreamVeraSans-Roman-65"/>
      <use x="726.97265625" xlink:href="#BitstreamVeraSans-Roman-76"/>
      <use x="786.15234375" xlink:href="#BitstreamVeraSans-Roman-61"/>
      <use x="847.431640625" xlink:href="#BitstreamVeraSans-Roman-6c"/>
      <use x="875.21484375" xlink:href="#BitstreamVeraSans-Roman-73"/>
      <use x="927.314453125" xlink:href="#BitstreamVeraSans-Roman-20"/>
      <use x="959.1015625" xlink:href="#BitstreamVeraSans-Roman-2f"/>
      <use x="992.79296875" xlink:href="#BitstreamVeraSans-Roman-20"/>
      <use x="1024.58007812" xlink:href="#BitstreamVeraSans-Roman-64"/>
      <use x="1088.05664062" xlink:href="#BitstreamVeraSans-Roman-69"/>
      <use x="1115.83984375" xlink:href="#BitstreamVeraSans-Roman-6d"/>
      <use x="1213.25195312" xlink:href="#BitstreamVeraSans-Roman-65"/>
      <use x="1274.77539062" xlink:href="#BitstreamVeraSans-Roman-6e"/>
      <use x="1338.15429688" xlink:href="#BitstreamVeraSans-Roman-73"/>
      <use x="1390.25390625" xlink:href="#BitstreamVeraSans-Roman-69"/>
      <use x="1418.03710938" xlink:href="#BitstreamVeraSans-Roman-6f"/>
      <use x="1479.21875" xlink:href="#BitstreamVeraSans-Roman-6e"/>
      <use x="1542.59765625" xlink:href="#BitstreamVeraSans-Roman-29"/>
     </g>
    </g>
   </g>
   <g id="matplotlib.axis_2">
    <g id="ytick_1">
     <g id="line2d_93">
      <path clip-path="url(#p5354da9cf1)" d="M 70.8 303.429375 
L 427.92 303.429375 
" style="fill:none;stroke:#000000;stroke-dasharray:1.000000,3.000000;stroke-dashoffset:0.0;stroke-width:0.5;"/>
     </g>
     <g id="line2d_94">
      <defs>
       <path d="M 0 0 
L 4 0 
" id="md6e005f326" style="stroke:#000000;stroke-width:0.5;"/>
      </defs>
      <g>
       <use style="stroke:#000000;stroke-width:0.5;" x="70.8" xlink:href="#md6e005f326" y="303.429375"/>
      </g>
     </g>
     <g id="line2d_95">
      <defs>
       <path d="M 0 0 
L -4 0 
" id="md89d37a750" style="stroke:#000000;stroke-width:0.5;"/>
      </defs>
      <g>
       <use style="stroke:#000000;stroke-width:0.5;" x="427.92" xlink:href="#md89d37a750" y="303.429375"/>
      </g>
     </g>
     <g id="text_6">
      <!-- 0.0 -->
      <defs>
       <path d="M 10.6875 12.40625 
L 21 12.40625 
L 21 0 
L 10.6875 0 
z
" id="BitstreamVeraSans-Roman-2e"/>
      </defs>
      <g transform="translate(34.99375 308.948125)scale(0.2 -0.2)">
       <use xlink:href="#BitstreamVeraSans-Roman-30"/>
       <use x="63.623046875" xlink:href="#BitstreamVeraSans-Roman-2e"/>
       <use x="95.41015625" xlink:href="#BitstreamVeraSans-Roman-30"/>
      </g>
     </g>
    </g>
    <g id="ytick_2">
     <g id="line2d_96">
      <path clip-path="url(#p5354da9cf1)" d="M 70.8 248.68086 
L 427.92 248.68086 
" style="fill:none;stroke:#000000;stroke-dasharray:1.000000,3.000000;stroke-dashoffset:0.0;stroke-width:0.5;"/>
     </g>
     <g id="line2d_97">
      <g>
       <use style="stroke:#000000;stroke-width:0.5;" x="70.8" xlink:href="#md6e005f326" y="248.680860149"/>
      </g>
     </g>
     <g id="line2d_98">
      <g>
       <use style="stroke:#000000;stroke-width:0.5;" x="427.92" xlink:href="#md89d37a750" y="248.680860149"/>
      </g>
     </g>
     <g id="text_7">
      <!-- 0.2 -->
      <g transform="translate(34.99375 254.199610149)scale(0.2 -0.2)">
       <use xlink:href="#BitstreamVeraSans-Roman-30"/>
       <use x="63.623046875" xlink:href="#BitstreamVeraSans-Roman-2e"/>
       <use x="95.41015625" xlink:href="#BitstreamVeraSans-Roman-32"/>
      </g>
     </g>
    </g>
    <g id="ytick_3">
     <g id="line2d_99">
      <path clip-path="url(#p5354da9cf1)" d="M 70.8 193.932345 
L 427.92 193.932345 
" style="fill:none;stroke:#000000;stroke-dasharray:1.000000,3.000000;stroke-dashoffset:0.0;stroke-width:0.5;"/>
     </g>
     <g id="line2d_100">
      <g>
       <use style="stroke:#000000;stroke-width:0.5;" x="70.8" xlink:href="#md6e005f326" y="193.932345297"/>
      </g>
     </g>
     <g id="line2d_101">
      <g>
       <use style="stroke:#000000;stroke-width:0.5;" x="427.92" xlink:href="#md89d37a750" y="193.932345297"/>
      </g>
     </g>
     <g id="text_8">
      <!-- 0.4 -->
      <defs>
       <path d="M 37.796875 64.3125 
L 12.890625 25.390625 
L 37.796875 25.390625 
z
M 35.203125 72.90625 
L 47.609375 72.90625 
L 47.609375 25.390625 
L 58.015625 25.390625 
L 58.015625 17.1875 
L 47.609375 17.1875 
L 47.609375 0 
L 37.796875 0 
L 37.796875 17.1875 
L 4.890625 17.1875 
L 4.890625 26.703125 
z
" id="BitstreamVeraSans-Roman-34"/>
      </defs>
      <g transform="translate(34.99375 199.451095297)scale(0.2 -0.2)">
       <use xlink:href="#BitstreamVeraSans-Roman-30"/>
       <use x="63.623046875" xlink:href="#BitstreamVeraSans-Roman-2e"/>
       <use x="95.41015625" xlink:href="#BitstreamVeraSans-Roman-34"/>
      </g>
     </g>
    </g>
    <g id="ytick_4">
     <g id="line2d_102">
      <path clip-path="url(#p5354da9cf1)" d="M 70.8 139.18383 
L 427.92 139.18383 
" style="fill:none;stroke:#000000;stroke-dasharray:1.000000,3.000000;stroke-dashoffset:0.0;stroke-width:0.5;"/>
     </g>
     <g id="line2d_103">
      <g>
       <use style="stroke:#000000;stroke-width:0.5;" x="70.8" xlink:href="#md6e005f326" y="139.183830446"/>
      </g>
     </g>
     <g id="line2d_104">
      <g>
       <use style="stroke:#000000;stroke-width:0.5;" x="427.92" xlink:href="#md89d37a750" y="139.183830446"/>
      </g>
     </g>
     <g id="text_9">
      <!-- 0.6 -->
      <defs>
       <path d="M 33.015625 40.375 
Q 26.375 40.375 22.484375 35.828125 
Q 18.609375 31.296875 18.609375 23.390625 
Q 18.609375 15.53125 22.484375 10.953125 
Q 26.375 6.390625 33.015625 6.390625 
Q 39.65625 6.390625 43.53125 10.953125 
Q 47.40625 15.53125 47.40625 23.390625 
Q 47.40625 31.296875 43.53125 35.828125 
Q 39.65625 40.375 33.015625 40.375 
M 52.59375 71.296875 
L 52.59375 62.3125 
Q 48.875 64.0625 45.09375 64.984375 
Q 41.3125 65.921875 37.59375 65.921875 
Q 27.828125 65.921875 22.671875 59.328125 
Q 17.53125 52.734375 16.796875 39.40625 
Q 19.671875 43.65625 24.015625 45.921875 
Q 28.375 48.1875 33.59375 48.1875 
Q 44.578125 48.1875 50.953125 41.515625 
Q 57.328125 34.859375 57.328125 23.390625 
Q 57.328125 12.15625 50.6875 5.359375 
Q 44.046875 -1.421875 33.015625 -1.421875 
Q 20.359375 -1.421875 13.671875 8.265625 
Q 6.984375 17.96875 6.984375 36.375 
Q 6.984375 53.65625 15.1875 63.9375 
Q 23.390625 74.21875 37.203125 74.21875 
Q 40.921875 74.21875 44.703125 73.484375 
Q 48.484375 72.75 52.59375 71.296875 
" id="BitstreamVeraSans-Roman-36"/>
      </defs>
      <g transform="translate(34.99375 144.702580446)scale(0.2 -0.2)">
       <use xlink:href="#BitstreamVeraSans-Roman-30"/>
       <use x="63.623046875" xlink:href="#BitstreamVeraSans-Roman-2e"/>
       <use x="95.41015625" xlink:href="#BitstreamVeraSans-Roman-36"/>
      </g>
     </g>
    </g>
    <g id="ytick_5">
     <g id="line2d_105">
      <path clip-path="url(#p5354da9cf1)" d="M 70.8 84.435316 
L 427.92 84.435316 
" style="fill:none;stroke:#000000;stroke-dasharray:1.000000,3.000000;stroke-dashoffset:0.0;stroke-width:0.5;"/>
     </g>
     <g id="line2d_106">
      <g>
       <use style="stroke:#000000;stroke-width:0.5;" x="70.8" xlink:href="#md6e005f326" y="84.4353155941"/>
      </g>
     </g>
     <g id="line2d_107">
      <g>
       <use style="stroke:#000000;stroke-width:0.5;" x="427.92" xlink:href="#md89d37a750" y="84.4353155941"/>
      </g>
     </g>
     <g id="text_10">
      <!-- 0.8 -->
      <defs>
       <path d="M 31.78125 34.625 
Q 24.75 34.625 20.71875 30.859375 
Q 16.703125 27.09375 16.703125 20.515625 
Q 16.703125 13.921875 20.71875 10.15625 
Q 24.75 6.390625 31.78125 6.390625 
Q 38.8125 6.390625 42.859375 10.171875 
Q 46.921875 13.96875 46.921875 20.515625 
Q 46.921875 27.09375 42.890625 30.859375 
Q 38.875 34.625 31.78125 34.625 
M 21.921875 38.8125 
Q 15.578125 40.375 12.03125 44.71875 
Q 8.5 49.078125 8.5 55.328125 
Q 8.5 64.0625 14.71875 69.140625 
Q 20.953125 74.21875 31.78125 74.21875 
Q 42.671875 74.21875 48.875 69.140625 
Q 55.078125 64.0625 55.078125 55.328125 
Q 55.078125 49.078125 51.53125 44.71875 
Q 48 40.375 41.703125 38.8125 
Q 48.828125 37.15625 52.796875 32.3125 
Q 56.78125 27.484375 56.78125 20.515625 
Q 56.78125 9.90625 50.3125 4.234375 
Q 43.84375 -1.421875 31.78125 -1.421875 
Q 19.734375 -1.421875 13.25 4.234375 
Q 6.78125 9.90625 6.78125 20.515625 
Q 6.78125 27.484375 10.78125 32.3125 
Q 14.796875 37.15625 21.921875 38.8125 
M 18.3125 54.390625 
Q 18.3125 48.734375 21.84375 45.5625 
Q 25.390625 42.390625 31.78125 42.390625 
Q 38.140625 42.390625 41.71875 45.5625 
Q 45.3125 48.734375 45.3125 54.390625 
Q 45.3125 60.0625 41.71875 63.234375 
Q 38.140625 66.40625 31.78125 66.40625 
Q 25.390625 66.40625 21.84375 63.234375 
Q 18.3125 60.0625 18.3125 54.390625 
" id="BitstreamVeraSans-Roman-38"/>
      </defs>
      <g transform="translate(34.99375 89.9540655941)scale(0.2 -0.2)">
       <use xlink:href="#BitstreamVeraSans-Roman-30"/>
       <use x="63.623046875" xlink:href="#BitstreamVeraSans-Roman-2e"/>
       <use x="95.41015625" xlink:href="#BitstreamVeraSans-Roman-38"/>
      </g>
     </g>
    </g>
    <g id="ytick_6">
     <g id="line2d_108">
      <path clip-path="url(#p5354da9cf1)" d="M 70.8 29.686801 
L 427.92 29.686801 
" style="fill:none;stroke:#000000;stroke-dasharray:1.000000,3.000000;stroke-dashoffset:0.0;stroke-width:0.5;"/>
     </g>
     <g id="line2d_109">
      <g>
       <use style="stroke:#000000;stroke-width:0.5;" x="70.8" xlink:href="#md6e005f326" y="29.6868007426"/>
      </g>
     </g>
     <g id="line2d_110">
      <g>
       <use style="stroke:#000000;stroke-width:0.5;" x="427.92" xlink:href="#md89d37a750" y="29.6868007426"/>
      </g>
     </g>
     <g id="text_11">
      <!-- 1.0 -->
      <g transform="translate(34.99375 35.2055507426)scale(0.2 -0.2)">
       <use xlink:href="#BitstreamVeraSans-Roman-31"/>
       <use x="63.623046875" xlink:href="#BitstreamVeraSans-Roman-2e"/>
       <use x="95.41015625" xlink:href="#BitstreamVeraSans-Roman-30"/>
      </g>
     </g>
    </g>
    <g id="text_12">
     <!-- Proportion of function+target pairs -->
     <defs>
      <path d="M 19.671875 64.796875 
L 19.671875 37.40625 
L 32.078125 37.40625 
Q 38.96875 37.40625 42.71875 40.96875 
Q 46.484375 44.53125 46.484375 51.125 
Q 46.484375 57.671875 42.71875 61.234375 
Q 38.96875 64.796875 32.078125 64.796875 
z
M 9.8125 72.90625 
L 32.078125 72.90625 
Q 44.34375 72.90625 50.609375 67.359375 
Q 56.890625 61.8125 56.890625 51.125 
Q 56.890625 40.328125 50.609375 34.8125 
Q 44.34375 29.296875 32.078125 29.296875 
L 19.671875 29.296875 
L 19.671875 0 
L 9.8125 0 
z
" id="BitstreamVeraSans-Roman-50"/>
      <path d="M 46 62.703125 
L 46 35.5 
L 73.1875 35.5 
L 73.1875 27.203125 
L 46 27.203125 
L 46 0 
L 37.796875 0 
L 37.796875 27.203125 
L 10.59375 27.203125 
L 10.59375 35.5 
L 37.796875 35.5 
L 37.796875 62.703125 
z
" id="BitstreamVeraSans-Roman-2b"/>
      <path d="M 18.109375 8.203125 
L 18.109375 -20.796875 
L 9.078125 -20.796875 
L 9.078125 54.6875 
L 18.109375 54.6875 
L 18.109375 46.390625 
Q 20.953125 51.265625 25.265625 53.625 
Q 29.59375 56 35.59375 56 
Q 45.5625 56 51.78125 48.09375 
Q 58.015625 40.1875 58.015625 27.296875 
Q 58.015625 14.40625 51.78125 6.484375 
Q 45.5625 -1.421875 35.59375 -1.421875 
Q 29.59375 -1.421875 25.265625 0.953125 
Q 20.953125 3.328125 18.109375 8.203125 
M 48.6875 27.296875 
Q 48.6875 37.203125 44.609375 42.84375 
Q 40.53125 48.484375 33.40625 48.484375 
Q 26.265625 48.484375 22.1875 42.84375 
Q 18.109375 37.203125 18.109375 27.296875 
Q 18.109375 17.390625 22.1875 11.75 
Q 26.265625 6.109375 33.40625 6.109375 
Q 40.53125 6.109375 44.609375 11.75 
Q 48.6875 17.390625 48.6875 27.296875 
" id="BitstreamVeraSans-Roman-70"/>
      <path d="M 18.3125 70.21875 
L 18.3125 54.6875 
L 36.8125 54.6875 
L 36.8125 47.703125 
L 18.3125 47.703125 
L 18.3125 18.015625 
Q 18.3125 11.328125 20.140625 9.421875 
Q 21.96875 7.515625 27.59375 7.515625 
L 36.8125 7.515625 
L 36.8125 0 
L 27.59375 0 
Q 17.1875 0 13.234375 3.875 
Q 9.28125 7.765625 9.28125 18.015625 
L 9.28125 47.703125 
L 2.6875 47.703125 
L 2.6875 54.6875 
L 9.28125 54.6875 
L 9.28125 70.21875 
z
" id="BitstreamVeraSans-Roman-74"/>
      <path d="M 8.5 21.578125 
L 8.5 54.6875 
L 17.484375 54.6875 
L 17.484375 21.921875 
Q 17.484375 14.15625 20.5 10.265625 
Q 23.53125 6.390625 29.59375 6.390625 
Q 36.859375 6.390625 41.078125 11.03125 
Q 45.3125 15.671875 45.3125 23.6875 
L 45.3125 54.6875 
L 54.296875 54.6875 
L 54.296875 0 
L 45.3125 0 
L 45.3125 8.40625 
Q 42.046875 3.421875 37.71875 1 
Q 33.40625 -1.421875 27.6875 -1.421875 
Q 18.265625 -1.421875 13.375 4.4375 
Q 8.5 10.296875 8.5 21.578125 
" id="BitstreamVeraSans-Roman-75"/>
      <path d="M 41.109375 46.296875 
Q 39.59375 47.171875 37.8125 47.578125 
Q 36.03125 48 33.890625 48 
Q 26.265625 48 22.1875 43.046875 
Q 18.109375 38.09375 18.109375 28.8125 
L 18.109375 0 
L 9.078125 0 
L 9.078125 54.6875 
L 18.109375 54.6875 
L 18.109375 46.1875 
Q 20.953125 51.171875 25.484375 53.578125 
Q 30.03125 56 36.53125 56 
Q 37.453125 56 38.578125 55.875 
Q 39.703125 55.765625 41.0625 55.515625 
z
" id="BitstreamVeraSans-Roman-72"/>
      <path d="M 48.78125 52.59375 
L 48.78125 44.1875 
Q 44.96875 46.296875 41.140625 47.34375 
Q 37.3125 48.390625 33.40625 48.390625 
Q 24.65625 48.390625 19.8125 42.84375 
Q 14.984375 37.3125 14.984375 27.296875 
Q 14.984375 17.28125 19.8125 11.734375 
Q 24.65625 6.203125 33.40625 6.203125 
Q 37.3125 6.203125 41.140625 7.25 
Q 44.96875 8.296875 48.78125 10.40625 
L 48.78125 2.09375 
Q 45.015625 0.34375 40.984375 -0.53125 
Q 36.96875 -1.421875 32.421875 -1.421875 
Q 20.0625 -1.421875 12.78125 6.34375 
Q 5.515625 14.109375 5.515625 27.296875 
Q 5.515625 40.671875 12.859375 48.328125 
Q 20.21875 56 33.015625 56 
Q 37.15625 56 41.109375 55.140625 
Q 45.0625 54.296875 48.78125 52.59375 
" id="BitstreamVeraSans-Roman-63"/>
     </defs>
     <g transform="translate(26.2503125 323.17875)rotate(-90.0)scale(0.18 -0.18)">
      <use xlink:href="#BitstreamVeraSans-Roman-50"/>
      <use x="60.287109375" xlink:href="#BitstreamVeraSans-Roman-72"/>
      <use x="101.369140625" xlink:href="#BitstreamVeraSans-Roman-6f"/>
      <use x="162.55078125" xlink:href="#BitstreamVeraSans-Roman-70"/>
      <use x="226.02734375" xlink:href="#BitstreamVeraSans-Roman-6f"/>
      <use x="287.208984375" xlink:href="#BitstreamVeraSans-Roman-72"/>
      <use x="328.322265625" xlink:href="#BitstreamVeraSans-Roman-74"/>
      <use x="367.53125" xlink:href="#BitstreamVeraSans-Roman-69"/>
      <use x="395.314453125" xlink:href="#BitstreamVeraSans-Roman-6f"/>
      <use x="456.49609375" xlink:href="#BitstreamVeraSans-Roman-6e"/>
      <use x="519.875" xlink:href="#BitstreamVeraSans-Roman-20"/>
      <use x="551.662109375" xlink:href="#BitstreamVeraSans-Roman-6f"/>
      <use x="612.84375" xlink:href="#BitstreamVeraSans-Roman-66"/>
      <use x="648.048828125" xlink:href="#BitstreamVeraSans-Roman-20"/>
      <use x="679.8359375" xlink:href="#BitstreamVeraSans-Roman-66"/>
      <use x="715.041015625" xlink:href="#BitstreamVeraSans-Roman-75"/>
      <use x="778.419921875" xlink:href="#BitstreamVeraSans-Roman-6e"/>
      <use x="841.798828125" xlink:href="#BitstreamVeraSans-Roman-63"/>
      <use x="896.779296875" xlink:href="#BitstreamVeraSans-Roman-74"/>
      <use x="935.98828125" xlink:href="#BitstreamVeraSans-Roman-69"/>
      <use x="963.771484375" xlink:href="#BitstreamVeraSans-Roman-6f"/>
      <use x="1024.953125" xlink:href="#BitstreamVeraSans-Roman-6e"/>
      <use x="1088.33203125" xlink:href="#BitstreamVeraSans-Roman-2b"/>
      <use x="1172.12109375" xlink:href="#BitstreamVeraSans-Roman-74"/>
      <use x="1211.33007812" xlink:href="#BitstreamVeraSans-Roman-61"/>
      <use x="1272.609375" xlink:href="#BitstreamVeraSans-Roman-72"/>
      <use x="1313.70703125" xlink:href="#BitstreamVeraSans-Roman-67"/>
      <use x="1377.18359375" xlink:href="#BitstreamVeraSans-Roman-65"/>
      <use x="1438.70703125" xlink:href="#BitstreamVeraSans-Roman-74"/>
      <use x="1477.91601562" xlink:href="#BitstreamVeraSans-Roman-20"/>
      <use x="1509.703125" xlink:href="#BitstreamVeraSans-Roman-70"/>
      <use x="1573.1796875" xlink:href="#BitstreamVeraSans-Roman-61"/>
      <use x="1634.45898438" xlink:href="#BitstreamVeraSans-Roman-69"/>
      <use x="1662.2421875" xlink:href="#BitstreamVeraSans-Roman-72"/>
      <use x="1703.35546875" xlink:href="#BitstreamVeraSans-Roman-73"/>
     </g>
    </g>
   </g>
   <g id="text_13">
    <!-- diffusion ga -->
    <g transform="translate(396.24 302.093586015)scale(0.15 -0.15)">
     <use xlink:href="#BitstreamVeraSans-Roman-64"/>
     <use x="63.4765625" xlink:href="#BitstreamVeraSans-Roman-69"/>
     <use x="91.259765625" xlink:href="#BitstreamVeraSans-Roman-66"/>
     <use x="126.46484375" xlink:href="#BitstreamVeraSans-Roman-66"/>
     <use x="161.669921875" xlink:href="#BitstreamVeraSans-Roman-75"/>
     <use x="225.048828125" xlink:href="#BitstreamVeraSans-Roman-73"/>
     <use x="277.1484375" xlink:href="#BitstreamVeraSans-Roman-69"/>
     <use x="304.931640625" xlink:href="#BitstreamVeraSans-Roman-6f"/>
     <use x="366.11328125" xlink:href="#BitstreamVeraSans-Roman-6e"/>
     <use x="429.4921875" xlink:href="#BitstreamVeraSans-Roman-20"/>
     <use x="461.279296875" xlink:href="#BitstreamVeraSans-Roman-67"/>
     <use x="524.755859375" xlink:href="#BitstreamVeraSans-Roman-61"/>
    </g>
   </g>
   <g id="text_14">
    <!-- standard ga -->
    <g transform="translate(396.24 214.495962252)scale(0.15 -0.15)">
     <use xlink:href="#BitstreamVeraSans-Roman-73"/>
     <use x="52.099609375" xlink:href="#BitstreamVeraSans-Roman-74"/>
     <use x="91.30859375" xlink:href="#BitstreamVeraSans-Roman-61"/>
     <use x="152.587890625" xlink:href="#BitstreamVeraSans-Roman-6e"/>
     <use x="215.966796875" xlink:href="#BitstreamVeraSans-Roman-64"/>
     <use x="279.443359375" xlink:href="#BitstreamVeraSans-Roman-61"/>
     <use x="340.72265625" xlink:href="#BitstreamVeraSans-Roman-72"/>
     <use x="381.8203125" xlink:href="#BitstreamVeraSans-Roman-64"/>
     <use x="445.296875" xlink:href="#BitstreamVeraSans-Roman-20"/>
     <use x="477.083984375" xlink:href="#BitstreamVeraSans-Roman-67"/>
     <use x="540.560546875" xlink:href="#BitstreamVeraSans-Roman-61"/>
    </g>
   </g>
   <g id="text_15">
    <!-- migration ga -->
    <g transform="translate(396.24 126.89833849)scale(0.15 -0.15)">
     <use xlink:href="#BitstreamVeraSans-Roman-6d"/>
     <use x="97.412109375" xlink:href="#BitstreamVeraSans-Roman-69"/>
     <use x="125.1953125" xlink:href="#BitstreamVeraSans-Roman-67"/>
     <use x="188.671875" xlink:href="#BitstreamVeraSans-Roman-72"/>
     <use x="229.78515625" xlink:href="#BitstreamVeraSans-Roman-61"/>
     <use x="291.064453125" xlink:href="#BitstreamVeraSans-Roman-74"/>
     <use x="330.2734375" xlink:href="#BitstreamVeraSans-Roman-69"/>
     <use x="358.056640625" xlink:href="#BitstreamVeraSans-Roman-6f"/>
     <use x="419.23828125" xlink:href="#BitstreamVeraSans-Roman-6e"/>
     <use x="482.6171875" xlink:href="#BitstreamVeraSans-Roman-20"/>
     <use x="514.404296875" xlink:href="#BitstreamVeraSans-Roman-67"/>
     <use x="577.880859375" xlink:href="#BitstreamVeraSans-Roman-61"/>
    </g>
   </g>
   <g id="text_16">
    <!-- best 2009 -->
    <defs>
     <path d="M 10.984375 1.515625 
L 10.984375 10.5 
Q 14.703125 8.734375 18.5 7.8125 
Q 22.3125 6.890625 25.984375 6.890625 
Q 35.75 6.890625 40.890625 13.453125 
Q 46.046875 20.015625 46.78125 33.40625 
Q 43.953125 29.203125 39.59375 26.953125 
Q 35.25 24.703125 29.984375 24.703125 
Q 19.046875 24.703125 12.671875 31.3125 
Q 6.296875 37.9375 6.296875 49.421875 
Q 6.296875 60.640625 12.9375 67.421875 
Q 19.578125 74.21875 30.609375 74.21875 
Q 43.265625 74.21875 49.921875 64.515625 
Q 56.59375 54.828125 56.59375 36.375 
Q 56.59375 19.140625 48.40625 8.859375 
Q 40.234375 -1.421875 26.421875 -1.421875 
Q 22.703125 -1.421875 18.890625 -0.6875 
Q 15.09375 0.046875 10.984375 1.515625 
M 30.609375 32.421875 
Q 37.25 32.421875 41.125 36.953125 
Q 45.015625 41.5 45.015625 49.421875 
Q 45.015625 57.28125 41.125 61.84375 
Q 37.25 66.40625 30.609375 66.40625 
Q 23.96875 66.40625 20.09375 61.84375 
Q 16.21875 57.28125 16.21875 49.421875 
Q 16.21875 41.5 20.09375 36.953125 
Q 23.96875 32.421875 30.609375 32.421875 
" id="BitstreamVeraSans-Roman-39"/>
     <path d="M 48.6875 27.296875 
Q 48.6875 37.203125 44.609375 42.84375 
Q 40.53125 48.484375 33.40625 48.484375 
Q 26.265625 48.484375 22.1875 42.84375 
Q 18.109375 37.203125 18.109375 27.296875 
Q 18.109375 17.390625 22.1875 11.75 
Q 26.265625 6.109375 33.40625 6.109375 
Q 40.53125 6.109375 44.609375 11.75 
Q 48.6875 17.390625 48.6875 27.296875 
M 18.109375 46.390625 
Q 20.953125 51.265625 25.265625 53.625 
Q 29.59375 56 35.59375 56 
Q 45.5625 56 51.78125 48.09375 
Q 58.015625 40.1875 58.015625 27.296875 
Q 58.015625 14.40625 51.78125 6.484375 
Q 45.5625 -1.421875 35.59375 -1.421875 
Q 29.59375 -1.421875 25.265625 0.953125 
Q 20.953125 3.328125 18.109375 8.203125 
L 18.109375 0 
L 9.078125 0 
L 9.078125 75.984375 
L 18.109375 75.984375 
z
" id="BitstreamVeraSans-Roman-62"/>
    </defs>
    <g transform="translate(396.24 39.3007147277)scale(0.15 -0.15)">
     <use xlink:href="#BitstreamVeraSans-Roman-62"/>
     <use x="63.4765625" xlink:href="#BitstreamVeraSans-Roman-65"/>
     <use x="125.0" xlink:href="#BitstreamVeraSans-Roman-73"/>
     <use x="177.099609375" xlink:href="#BitstreamVeraSans-Roman-74"/>
     <use x="216.30859375" xlink:href="#BitstreamVeraSans-Roman-20"/>
     <use x="248.095703125" xlink:href="#BitstreamVeraSans-Roman-32"/>
     <use x="311.71875" xlink:href="#BitstreamVeraSans-Roman-30"/>
     <use x="375.341796875" xlink:href="#BitstreamVeraSans-Roman-30"/>
     <use x="438.96484375" xlink:href="#BitstreamVeraSans-Roman-39"/>
    </g>
   </g>
   <g id="text_17">
    <!-- f15-19,3-D -->
    <defs>
     <path d="M 11.71875 12.40625 
L 22.015625 12.40625 
L 22.015625 4 
L 14.015625 -11.625 
L 7.71875 -11.625 
L 11.71875 4 
z
" id="BitstreamVeraSans-Roman-2c"/>
     <path d="M 19.671875 64.796875 
L 19.671875 8.109375 
L 31.59375 8.109375 
Q 46.6875 8.109375 53.6875 14.9375 
Q 60.6875 21.78125 60.6875 36.53125 
Q 60.6875 51.171875 53.6875 57.984375 
Q 46.6875 64.796875 31.59375 64.796875 
z
M 9.8125 72.90625 
L 30.078125 72.90625 
Q 51.265625 72.90625 61.171875 64.09375 
Q 71.09375 55.28125 71.09375 36.53125 
Q 71.09375 17.671875 61.125 8.828125 
Q 51.171875 0 30.078125 0 
L 9.8125 0 
z
" id="BitstreamVeraSans-Roman-44"/>
     <path d="M 10.796875 72.90625 
L 49.515625 72.90625 
L 49.515625 64.59375 
L 19.828125 64.59375 
L 19.828125 46.734375 
Q 21.96875 47.46875 24.109375 47.828125 
Q 26.265625 48.1875 28.421875 48.1875 
Q 40.625 48.1875 47.75 41.5 
Q 54.890625 34.8125 54.890625 23.390625 
Q 54.890625 11.625 47.5625 5.09375 
Q 40.234375 -1.421875 26.90625 -1.421875 
Q 22.3125 -1.421875 17.546875 -0.640625 
Q 12.796875 0.140625 7.71875 1.703125 
L 7.71875 11.625 
Q 12.109375 9.234375 16.796875 8.0625 
Q 21.484375 6.890625 26.703125 6.890625 
Q 35.15625 6.890625 40.078125 11.328125 
Q 45.015625 15.765625 45.015625 23.390625 
Q 45.015625 31 40.078125 35.4375 
Q 35.15625 39.890625 26.703125 39.890625 
Q 22.75 39.890625 18.8125 39.015625 
Q 14.890625 38.140625 10.796875 36.28125 
z
" id="BitstreamVeraSans-Roman-35"/>
    </defs>
    <g transform="translate(74.3712 47.67585)scale(0.2 -0.2)">
     <use xlink:href="#BitstreamVeraSans-Roman-66"/>
     <use x="35.205078125" xlink:href="#BitstreamVeraSans-Roman-31"/>
     <use x="98.828125" xlink:href="#BitstreamVeraSans-Roman-35"/>
     <use x="162.451171875" xlink:href="#BitstreamVeraSans-Roman-2d"/>
     <use x="198.53515625" xlink:href="#BitstreamVeraSans-Roman-31"/>
     <use x="262.158203125" xlink:href="#BitstreamVeraSans-Roman-39"/>
     <use x="325.78125" xlink:href="#BitstreamVeraSans-Roman-2c"/>
     <use x="357.568359375" xlink:href="#BitstreamVeraSans-Roman-33"/>
     <use x="421.19140625" xlink:href="#BitstreamVeraSans-Roman-2d"/>
     <use x="457.275390625" xlink:href="#BitstreamVeraSans-Roman-44"/>
    </g>
   </g>
  </g>
 </g>
 <defs>
  <clipPath id="p5354da9cf1">
   <rect height="276.48" width="357.12" x="70.8" y="26.949375"/>
  </clipPath>
 </defs>
</svg>
