<?xml version="1.0" encoding="utf-8" standalone="no"?>
<!DOCTYPE svg PUBLIC "-//W3C//DTD SVG 1.1//EN"
  "http://www.w3.org/Graphics/SVG/1.1/DTD/svg11.dtd">
<!-- Created with matplotlib (http://matplotlib.org/) -->
<svg height="356pt" version="1.1" viewBox="0 0 499 356" width="499pt" xmlns="http://www.w3.org/2000/svg" xmlns:xlink="http://www.w3.org/1999/xlink">
 <defs>
  <style type="text/css">
*{stroke-linecap:butt;stroke-linejoin:round;stroke-miterlimit:100000;}
  </style>
 </defs>
 <g id="figure_1">
  <g id="patch_1">
   <path d="M 0 356.40625 
L 499.313438 356.40625 
L 499.313438 0 
L 0 0 
z
" style="fill:#ffffff;"/>
  </g>
  <g id="axes_1">
   <g id="patch_2">
    <path d="M 70.8 303.429375 
L 427.92 303.429375 
L 427.92 26.949375 
L 70.8 26.949375 
z
" style="fill:#ffffff;"/>
   </g>
   <g id="line2d_1">
    <path d="M 41.90112 303.429375 
L 41.90112 274.751582 
L 70.8 274.751582 
L 70.8 260.934099 
L 87.704761 260.934099 
L 87.704761 248.941567 
L 99.69888 248.941567 
L 99.69888 240.859644 
L 109.002241 240.859644 
L 109.002241 237.991864 
L 116.60364 237.991864 
L 116.60364 221.306603 
L 123.030532 221.306603 
L 123.030532 213.224679 
L 128.597759 213.224679 
L 128.597759 209.574778 
L 133.508401 209.574778 
L 133.508401 202.535683 
L 137.90112 202.535683 
L 137.90112 193.150224 
L 141.874818 193.150224 
L 141.874818 191.064566 
L 145.50252 191.064566 
L 145.50252 189.76103 
L 148.839682 189.76103 
L 148.839682 185.850422 
L 151.929412 185.850422 
L 151.929412 183.24335 
L 154.805881 183.24335 
L 154.805881 180.636277 
L 157.496639 180.636277 
L 157.496639 175.161426 
L 160.024217 175.161426 
L 160.024217 172.032939 
L 162.407281 172.032939 
L 162.407281 169.947282 
L 164.661466 169.947282 
L 164.661466 166.297381 
L 166.8 166.297381 
L 166.8 165.254552 
L 168.834173 165.254552 
L 168.834173 160.822529 
L 170.773698 160.822529 
L 170.773698 155.08697 
L 172.626993 155.08697 
L 172.626993 153.26202 
L 174.4014 153.26202 
L 174.4014 151.958484 
L 176.103361 151.958484 
L 176.103361 147.265754 
L 177.738562 147.265754 
L 177.738562 144.397975 
L 179.312042 144.397975 
L 179.312042 141.790903 
L 180.828291 141.790903 
L 180.828291 139.705245 
L 182.291328 139.705245 
L 182.291328 137.098173 
L 183.704761 137.098173 
L 183.704761 136.055344 
L 185.071843 136.055344 
L 185.071843 133.708979 
L 186.395518 133.708979 
L 186.395518 131.884028 
L 187.678459 131.884028 
L 187.678459 131.362614 
L 188.923096 131.362614 
L 188.923096 127.97342 
L 190.131653 127.97342 
L 190.131653 127.452006 
L 191.30616 127.452006 
L 191.30616 126.14847 
L 192.448486 126.14847 
L 192.448486 124.062812 
L 193.560346 124.062812 
L 193.560346 123.541398 
L 194.643323 123.541398 
L 194.643323 122.759276 
L 195.69888 122.759276 
L 195.69888 120.412911 
L 196.728371 120.412911 
L 196.728371 119.370082 
L 197.733052 119.370082 
L 197.733052 117.023717 
L 198.714092 117.023717 
L 198.714092 115.198767 
L 199.672577 115.198767 
L 199.672577 112.330987 
L 200.609522 112.330987 
L 200.609522 110.766744 
L 201.525872 110.766744 
L 201.525872 108.681086 
L 202.422515 108.681086 
L 202.422515 105.813307 
L 203.300279 105.813307 
L 203.300279 103.466942 
L 204.159944 103.466942 
L 204.159944 101.120577 
L 205.002241 101.120577 
L 205.002241 98.774212 
L 205.827857 98.774212 
L 205.827857 98.252798 
L 206.637441 98.252798 
L 206.637441 94.34219 
L 207.431604 94.34219 
L 207.431604 92.517239 
L 208.210921 92.517239 
L 208.210921 90.692289 
L 208.975939 90.692289 
L 208.975939 89.128045 
L 209.727171 89.128045 
L 209.727171 87.303095 
L 210.465107 87.303095 
L 210.465107 84.435316 
L 211.190208 84.435316 
L 211.190208 83.13178 
L 211.902914 83.13178 
L 211.902914 81.567536 
L 212.60364 81.567536 
L 212.60364 80.003293 
L 213.292785 80.003293 
L 213.292785 78.960464 
L 213.970723 78.960464 
L 213.970723 76.874806 
L 214.637813 76.874806 
L 214.637813 75.57127 
L 215.294398 75.57127 
L 215.294398 73.224905 
L 215.940803 73.224905 
L 215.940803 72.442784 
L 216.577338 72.442784 
L 216.577338 70.87854 
L 217.204301 70.87854 
L 217.204301 70.096419 
L 217.821976 70.096419 
L 217.821976 66.707225 
L 218.430633 66.707225 
L 218.430633 64.882275 
L 219.030532 64.882275 
L 219.030532 63.318031 
L 219.621922 63.318031 
L 219.621922 61.753788 
L 220.20504 61.753788 
L 220.20504 60.971666 
L 220.780115 60.971666 
L 220.780115 60.710959 
L 221.347366 60.710959 
L 221.347366 58.886009 
L 221.907002 58.886009 
L 221.907002 58.364594 
L 222.459225 58.364594 
L 222.459225 57.321765 
L 223.00423 57.321765 
L 223.00423 56.800351 
L 223.542202 56.800351 
L 223.542202 54.714693 
L 224.073321 54.714693 
L 224.073321 53.932572 
L 224.597759 53.932572 
L 224.597759 53.15045 
L 225.115682 53.15045 
L 225.115682 52.368328 
L 225.62725 52.368328 
L 225.62725 50.021963 
L 226.132617 50.021963 
L 226.132617 49.239842 
L 226.631932 49.239842 
L 226.631932 47.675598 
L 227.125337 47.675598 
L 227.125337 46.893477 
L 227.612972 46.893477 
L 227.612972 44.807819 
L 228.094969 44.807819 
L 228.094969 44.547112 
L 228.571457 44.547112 
L 228.571457 44.286405 
L 229.042561 44.286405 
L 229.042561 43.504283 
L 229.508401 43.504283 
L 229.508401 42.722161 
L 229.969094 42.722161 
L 229.969094 41.679333 
L 230.424752 41.679333 
L 230.424752 40.636504 
L 230.875483 40.636504 
L 230.875483 39.854382 
L 231.321394 39.854382 
L 231.321394 39.593675 
L 232.199159 39.593675 
L 232.199159 38.811553 
L 232.631207 38.811553 
L 232.631207 38.550846 
L 233.058824 38.550846 
L 233.058824 38.029432 
L 233.482099 38.029432 
L 233.482099 37.24731 
L 233.90112 37.24731 
L 233.90112 36.725896 
L 234.315972 36.725896 
L 234.315972 35.943774 
L 234.726737 35.943774 
L 234.726737 35.683067 
L 235.133494 35.683067 
L 235.133494 35.422359 
L 236.330483 35.422359 
L 236.330483 35.161652 
L 236.721963 35.161652 
L 236.721963 33.858116 
L 237.109801 33.858116 
L 237.109801 33.597409 
L 237.494064 33.597409 
L 237.494064 33.336702 
L 237.874818 33.336702 
L 237.874818 32.293873 
L 238.626051 32.293873 
L 238.626051 32.033166 
L 242.532011 32.033166 
L 242.532011 31.772458 
L 243.204482 31.772458 
L 243.204482 30.990337 
L 243.536693 30.990337 
L 243.536693 30.72963 
L 246.720856 30.72963 
L 246.720856 30.208215 
L 287.30616 30.208215 
L 287.30616 29.947508 
L 292.931253 29.947508 
L 292.931253 29.686801 
L 358.8 29.686801 
L 358.8 29.686801 
" style="fill:none;stroke:#f5deb3;stroke-linecap:square;stroke-width:6.0;"/>
   </g>
   <g id="line2d_2"/>
   <g id="line2d_3">
    <path d="M 358.8 29.686801 
L 390.48 35.161652 
" style="fill:none;stroke:#f5deb3;stroke-linecap:square;stroke-width:6.0;"/>
    <defs>
     <path d="M -0 7.778175 
L 7.778175 0 
L 0 -7.778175 
L -7.778175 -0 
z
" id="m5bf1a747fb" style="stroke:#f5deb3;stroke-linejoin:miter;stroke-width:1.5;"/>
    </defs>
    <g>
     <use style="fill:#f5deb3;stroke:#f5deb3;stroke-linejoin:miter;stroke-width:1.5;" x="358.8" xlink:href="#m5bf1a747fb" y="29.6868007426"/>
     <use style="fill:#f5deb3;stroke:#f5deb3;stroke-linejoin:miter;stroke-width:1.5;" x="390.48" xlink:href="#m5bf1a747fb" y="35.1616522277"/>
    </g>
   </g>
   <g id="line2d_4">
    <defs>
     <path d="M 0 1.5 
C 0.397805 1.5 0.77937 1.341951 1.06066 1.06066 
C 1.341951 0.77937 1.5 0.397805 1.5 0 
C 1.5 -0.397805 1.341951 -0.77937 1.06066 -1.06066 
C 0.77937 -1.341951 0.397805 -1.5 0 -1.5 
C -0.397805 -1.5 -0.77937 -1.341951 -1.06066 -1.06066 
C -1.341951 -0.77937 -1.5 -0.397805 -1.5 0 
C -1.5 0.397805 -1.341951 0.77937 -1.06066 1.06066 
C -0.77937 1.341951 -0.397805 1.5 0 1.5 
z
" id="m6f0754bbc4" style="stroke:#f5deb3;stroke-width:0.5;"/>
    </defs>
    <g>
     <use style="fill:#f5deb3;stroke:#f5deb3;stroke-width:0.5;" x="292.931253155" xlink:href="#m6f0754bbc4" y="29.6868007426"/>
     <use style="fill:#f5deb3;stroke:#f5deb3;stroke-width:0.5;" x="292.931253155" xlink:href="#m6f0754bbc4" y="29.6868007426"/>
    </g>
   </g>
   <g id="line2d_5">
    <g>
     <use style="fill:#f5deb3;stroke:#f5deb3;stroke-linejoin:miter;stroke-width:1.5;" x="109.002240833" xlink:href="#m5bf1a747fb" y="237.991864392"/>
     <use style="fill:#f5deb3;stroke:#f5deb3;stroke-linejoin:miter;stroke-width:1.5;" x="168.834172711" xlink:href="#m5bf1a747fb" y="160.822529173"/>
     <use style="fill:#f5deb3;stroke:#f5deb3;stroke-linejoin:miter;stroke-width:1.5;" x="201.525872258" xlink:href="#m5bf1a747fb" y="110.766744165"/>
     <use style="fill:#f5deb3;stroke:#f5deb3;stroke-linejoin:miter;stroke-width:1.5;" x="246.72085562" xlink:href="#m5bf1a747fb" y="30.2082151697"/>
     <use style="fill:#f5deb3;stroke:#f5deb3;stroke-linejoin:miter;stroke-width:1.5;" x="292.931253155" xlink:href="#m5bf1a747fb" y="29.6868007426"/>
     <use style="fill:#f5deb3;stroke:#f5deb3;stroke-linejoin:miter;stroke-width:1.5;" x="358.8" xlink:href="#m5bf1a747fb" y="29.6868007426"/>
    </g>
   </g>
   <g id="line2d_6">
    <defs>
     <path d="M 0 1.5 
C 0.397805 1.5 0.77937 1.341951 1.06066 1.06066 
C 1.341951 0.77937 1.5 0.397805 1.5 0 
C 1.5 -0.397805 1.341951 -0.77937 1.06066 -1.06066 
C 0.77937 -1.341951 0.397805 -1.5 0 -1.5 
C -0.397805 -1.5 -0.77937 -1.341951 -1.06066 -1.06066 
C -1.341951 -0.77937 -1.5 -0.397805 -1.5 0 
C -1.5 0.397805 -1.341951 0.77937 -1.06066 1.06066 
C -0.77937 1.341951 -0.397805 1.5 0 1.5 
z
" id="m00ff923ee2" style="stroke:#000080;stroke-width:0.5;"/>
    </defs>
    <g>
     <use style="fill:#000080;stroke:#000080;stroke-width:0.5;" x="417.249294943" xlink:href="#m00ff923ee2" y="157.433335396"/>
     <use style="fill:#000080;stroke:#000080;stroke-width:0.5;" x="417.249294943" xlink:href="#m00ff923ee2" y="157.433335396"/>
    </g>
   </g>
   <g id="line2d_7">
    <path d="M 41.90112 303.429375 
L 41.90112 282.833505 
L 70.8 282.833505 
L 70.8 263.280464 
L 87.704761 263.280464 
L 87.704761 256.502077 
L 99.69888 256.502077 
L 99.69888 250.505811 
L 109.002241 250.505811 
L 109.002241 242.684594 
L 116.60364 242.684594 
L 116.60364 237.47045 
L 123.030532 237.47045 
L 123.030532 236.166914 
L 128.597759 236.166914 
L 128.597759 234.602671 
L 133.508401 234.602671 
L 133.508401 232.256306 
L 137.90112 232.256306 
L 137.90112 231.995598 
L 141.874818 231.995598 
L 141.874818 231.734891 
L 145.50252 231.734891 
L 145.50252 231.213477 
L 148.839682 231.213477 
L 148.839682 228.867112 
L 151.929412 228.867112 
L 151.929412 227.824283 
L 154.805881 227.824283 
L 154.805881 224.956504 
L 157.496639 224.956504 
L 157.496639 223.131553 
L 160.024217 223.131553 
L 160.024217 221.56731 
L 162.407281 221.56731 
L 162.407281 220.785188 
L 164.661466 220.785188 
L 164.661466 220.003067 
L 168.834173 220.003067 
L 168.834173 219.481652 
L 170.773698 219.481652 
L 170.773698 218.699531 
L 172.626993 218.699531 
L 172.626993 216.613873 
L 176.103361 216.613873 
L 176.103361 215.571044 
L 179.312042 215.571044 
L 179.312042 214.788922 
L 180.828291 214.788922 
L 180.828291 214.006801 
L 182.291328 214.006801 
L 182.291328 213.746094 
L 183.704761 213.746094 
L 183.704761 212.963972 
L 185.071843 212.963972 
L 185.071843 211.921143 
L 187.678459 211.921143 
L 187.678459 211.660436 
L 188.923096 211.660436 
L 188.923096 211.399729 
L 191.30616 211.399729 
L 191.30616 210.617607 
L 192.448486 210.617607 
L 192.448486 210.3569 
L 194.643323 210.3569 
L 194.643323 209.053364 
L 195.69888 209.053364 
L 195.69888 208.531949 
L 196.728371 208.531949 
L 196.728371 208.271242 
L 198.714092 208.271242 
L 198.714092 208.010535 
L 201.525872 208.010535 
L 201.525872 207.48912 
L 203.300279 207.48912 
L 203.300279 205.142755 
L 204.159944 205.142755 
L 204.159944 204.882048 
L 210.465107 204.882048 
L 210.465107 204.621341 
L 211.902914 204.621341 
L 211.902914 204.099927 
L 212.60364 204.099927 
L 212.60364 203.839219 
L 213.970723 203.839219 
L 213.970723 202.274976 
L 215.940803 202.274976 
L 215.940803 201.753562 
L 216.577338 201.753562 
L 216.577338 200.189318 
L 217.204301 200.189318 
L 217.204301 198.885782 
L 219.030532 198.885782 
L 219.030532 198.364368 
L 224.073321 198.364368 
L 224.073321 198.103661 
L 225.62725 198.103661 
L 225.62725 197.582246 
L 228.094969 197.582246 
L 228.094969 197.321539 
L 228.571457 197.321539 
L 228.571457 196.539417 
L 229.042561 196.539417 
L 229.042561 196.018003 
L 229.508401 196.018003 
L 229.508401 194.714467 
L 229.969094 194.714467 
L 229.969094 193.932345 
L 233.90112 193.932345 
L 233.90112 193.671638 
L 238.996651 193.671638 
L 238.996651 193.410931 
L 239.728113 193.410931 
L 239.728113 192.628809 
L 241.848516 192.628809 
L 241.848516 191.58598 
L 242.532011 191.58598 
L 242.532011 190.543152 
L 243.536693 190.543152 
L 243.536693 190.021737 
L 251.082907 190.021737 
L 251.082907 188.718201 
L 254.779579 188.718201 
L 254.779579 188.196787 
L 257.941441 188.196787 
L 257.941441 187.414665 
L 263.625616 187.414665 
L 263.625616 187.153958 
L 263.829491 187.153958 
L 263.829491 186.893251 
L 265.815213 186.893251 
L 265.815213 186.632543 
L 266.201255 186.632543 
L 266.201255 186.371836 
L 266.392944 186.371836 
L 266.392944 185.850422 
L 267.338387 185.850422 
L 267.338387 185.0683 
L 269.167289 185.0683 
L 269.167289 184.807593 
L 269.876962 184.807593 
L 269.876962 184.546886 
L 270.227319 184.546886 
L 270.227319 184.286178 
L 271.768482 184.286178 
L 271.768482 183.764764 
L 273.2547 183.764764 
L 273.2547 183.504057 
L 274.058044 183.504057 
L 274.058044 182.982642 
L 274.689758 182.982642 
L 274.689758 182.461228 
L 274.846202 182.461228 
L 274.846202 182.200521 
L 276.679124 182.200521 
L 276.679124 181.679106 
L 276.828291 181.679106 
L 276.828291 181.157692 
L 277.566227 181.157692 
L 277.566227 180.896985 
L 278.147313 180.896985 
L 278.147313 180.636277 
L 278.291328 180.636277 
L 278.291328 179.854156 
L 281.738934 179.854156 
L 281.738934 179.332741 
L 282.525604 179.332741 
L 282.525604 179.072034 
L 290.536282 179.072034 
L 290.536282 178.811327 
L 292.216803 178.811327 
L 292.216803 178.55062 
L 293.534043 178.55062 
L 293.534043 178.289912 
L 294.029796 178.289912 
L 294.029796 178.029205 
L 295.387338 178.029205 
L 295.387338 177.507791 
L 295.577714 177.507791 
L 295.577714 176.986376 
L 296.42381 176.986376 
L 296.42381 176.464962 
L 297.70675 176.464962 
L 297.70675 176.204255 
L 297.976604 176.204255 
L 298.066168 175.68284 
L 299.21333 175.68284 
L 299.21333 175.422133 
L 300.074771 175.422133 
L 300.159944 173.85789 
L 302.234614 173.85789 
L 302.234614 173.597183 
L 303.115752 173.597183 
L 303.115752 173.336475 
L 305.051674 173.336475 
L 305.051674 173.075768 
L 307.046193 173.075768 
L 307.046193 172.815061 
L 309.224381 172.815061 
L 309.224381 172.554354 
L 312.703487 172.554354 
L 312.703487 172.293647 
L 312.954646 172.293647 
L 312.954646 172.032939 
L 313.204301 172.032939 
L 313.204301 171.772232 
L 314.30961 171.772232 
L 314.370166 171.250818 
L 314.430633 171.250818 
L 314.430633 170.990111 
L 317.962554 170.990111 
L 317.962554 170.729403 
L 319.435162 170.729403 
L 319.435162 170.468696 
L 321.779505 170.468696 
L 321.779505 169.947282 
L 322.432923 169.947282 
L 322.482764 169.425867 
L 323.854667 169.425867 
L 323.854667 169.16516 
L 324.995689 169.16516 
L 324.995689 168.643746 
L 326.695775 168.643746 
L 326.695775 168.122331 
L 332.526683 168.122331 
L 332.565812 167.34021 
L 333.494064 167.34021 
L 333.494064 167.079502 
L 337.814045 167.079502 
L 337.814045 166.818795 
L 339.701811 166.818795 
L 339.701811 166.297381 
L 340.453043 166.297381 
L 340.517733 165.515259 
L 341.665299 165.515259 
L 341.665299 165.254552 
L 345.334902 165.254552 
L 345.334902 164.993845 
L 346.527002 164.993845 
L 346.527002 164.733137 
L 350.091698 164.733137 
L 350.091698 164.47243 
L 351.156887 164.47243 
L 351.156887 164.211723 
L 356.419388 164.211723 
L 356.419388 163.690309 
L 357.228124 163.690309 
L 357.228124 163.168894 
L 358.8 163.168894 
L 358.8 163.168894 
" style="fill:none;stroke:#000080;stroke-linecap:square;stroke-width:1.5;"/>
   </g>
   <g id="line2d_8">
    <defs>
     <path d="M 0 6 
C 1.591219 6 3.117479 5.367802 4.242641 4.242641 
C 5.367802 3.117479 6 1.591219 6 0 
C 6 -1.591219 5.367802 -3.117479 4.242641 -4.242641 
C 3.117479 -5.367802 1.591219 -6 0 -6 
C -1.591219 -6 -3.117479 -5.367802 -4.242641 -4.242641 
C -5.367802 -3.117479 -6 -1.591219 -6 0 
C -6 1.591219 -5.367802 3.117479 -4.242641 4.242641 
C -3.117479 5.367802 -1.591219 6 0 6 
z
" id="m493c19446d" style="stroke:#000080;stroke-width:1.5;"/>
    </defs>
    <g>
     <use style="fill:none;stroke:#000080;stroke-width:1.5;" x="87.7047608693" xlink:href="#m493c19446d" y="263.280464109"/>
     <use style="fill:none;stroke:#000080;stroke-width:1.5;" x="133.508401322" xlink:href="#m493c19446d" y="234.602670615"/>
     <use style="fill:none;stroke:#000080;stroke-width:1.5;" x="219.030532258" xlink:href="#m493c19446d" y="198.885782355"/>
     <use style="fill:none;stroke:#000080;stroke-width:1.5;" x="263.829491078" xlink:href="#m493c19446d" y="186.89325053"/>
     <use style="fill:none;stroke:#000080;stroke-width:1.5;" x="357.228123564" xlink:href="#m493c19446d" y="163.168894095"/>
     <use style="fill:none;stroke:#000080;stroke-width:1.5;" x="358.8" xlink:href="#m493c19446d" y="163.168894095"/>
    </g>
   </g>
   <g id="line2d_9"/>
   <g id="line2d_10">
    <path clip-path="url(#p5abf2a3709)" d="M 262.8 187.414665 
" style="fill:none;stroke:#000080;stroke-linecap:square;"/>
    <defs>
     <path d="M -12 12 
L 12 -12 
M -12 -12 
L 12 12 
" id="m161d500c6e" style="stroke:#000080;stroke-width:3.0;"/>
    </defs>
    <g clip-path="url(#p5abf2a3709)">
     <use style="fill:#000080;stroke:#000080;stroke-width:3.0;" x="262.8" xlink:href="#m161d500c6e" y="187.414664958"/>
    </g>
   </g>
   <g id="line2d_11">
    <defs>
     <path d="M 0 1.5 
C 0.397805 1.5 0.77937 1.341951 1.06066 1.06066 
C 1.341951 0.77937 1.5 0.397805 1.5 0 
C 1.5 -0.397805 1.341951 -0.77937 1.06066 -1.06066 
C 0.77937 -1.341951 0.397805 -1.5 0 -1.5 
C -0.397805 -1.5 -0.77937 -1.341951 -1.06066 -1.06066 
C -1.341951 -0.77937 -1.5 -0.397805 -1.5 0 
C -1.5 0.397805 -1.341951 0.77937 -1.06066 1.06066 
C -0.77937 1.341951 -0.397805 1.5 0 1.5 
z
" id="mba6fd89ecc" style="stroke:#ff00ff;stroke-width:0.5;"/>
    </defs>
    <g>
     <use style="fill:#ff00ff;stroke:#ff00ff;stroke-width:0.5;" x="425.926128277" xlink:href="#mba6fd89ecc" y="135.794636669"/>
     <use style="fill:#ff00ff;stroke:#ff00ff;stroke-width:0.5;" x="425.926128277" xlink:href="#mba6fd89ecc" y="135.794636669"/>
    </g>
   </g>
   <g id="line2d_12">
    <path d="M 41.90112 303.429375 
L 41.90112 277.619361 
L 70.8 277.619361 
L 70.8 262.237635 
L 87.704761 262.237635 
L 87.704761 251.809347 
L 99.69888 251.809347 
L 99.69888 245.291666 
L 109.002241 245.291666 
L 109.002241 242.684594 
L 116.60364 242.684594 
L 116.60364 236.949036 
L 123.030532 236.949036 
L 123.030532 234.863378 
L 128.597759 234.863378 
L 128.597759 233.038427 
L 133.508401 233.038427 
L 133.508401 231.213477 
L 137.90112 231.213477 
L 137.90112 229.649234 
L 141.874818 229.649234 
L 141.874818 227.824283 
L 145.50252 227.824283 
L 145.50252 226.520747 
L 148.839682 226.520747 
L 148.839682 224.174382 
L 151.929412 224.174382 
L 151.929412 223.913675 
L 154.805881 223.913675 
L 154.805881 223.652968 
L 157.496639 223.652968 
L 157.496639 219.742359 
L 160.024217 219.742359 
L 160.024217 218.960238 
L 166.8 218.960238 
L 166.8 216.092458 
L 168.834173 216.092458 
L 168.834173 215.310337 
L 170.773698 215.310337 
L 170.773698 215.04963 
L 172.626993 215.04963 
L 172.626993 213.746094 
L 174.4014 213.746094 
L 174.4014 211.399729 
L 177.738562 211.399729 
L 177.738562 209.314071 
L 182.291328 209.314071 
L 182.291328 208.792656 
L 185.071843 208.792656 
L 185.071843 208.271242 
L 186.395518 208.271242 
L 186.395518 207.749828 
L 188.923096 207.749828 
L 188.923096 206.446292 
L 190.131653 206.446292 
L 190.131653 205.66417 
L 191.30616 205.66417 
L 191.30616 205.403463 
L 193.560346 205.403463 
L 193.560346 205.142755 
L 199.672577 205.142755 
L 199.672577 204.360634 
L 203.300279 204.360634 
L 203.300279 203.839219 
L 206.637441 203.839219 
L 206.637441 203.317805 
L 207.431604 203.317805 
L 207.431604 202.796391 
L 209.727171 202.796391 
L 209.727171 202.014269 
L 210.465107 202.014269 
L 210.465107 200.710733 
L 211.190208 200.710733 
L 211.190208 200.189318 
L 211.902914 200.189318 
L 211.902914 199.14649 
L 213.970723 199.14649 
L 213.970723 198.885782 
L 214.637813 198.885782 
L 214.637813 198.625075 
L 215.294398 198.625075 
L 215.294398 198.364368 
L 215.940803 198.364368 
L 215.940803 198.103661 
L 216.577338 198.103661 
L 216.577338 197.582246 
L 217.821976 197.582246 
L 217.821976 197.321539 
L 218.430633 197.321539 
L 218.430633 196.800125 
L 219.621922 196.800125 
L 219.621922 196.018003 
L 220.20504 196.018003 
L 220.20504 195.757296 
L 220.780115 195.757296 
L 220.780115 195.496589 
L 223.00423 195.496589 
L 223.00423 194.975174 
L 224.073321 194.975174 
L 224.073321 194.714467 
L 225.115682 194.714467 
L 225.115682 194.193053 
L 225.62725 194.193053 
L 225.62725 193.671638 
L 230.875483 193.671638 
L 230.875483 192.889516 
L 231.321394 192.889516 
L 231.321394 191.846688 
L 232.199159 191.846688 
L 232.199159 191.58598 
L 242.532011 191.58598 
L 242.532011 191.325273 
L 251.631498 191.325273 
L 251.631498 191.064566 
L 251.90311 191.064566 
L 251.90311 190.803859 
L 260.220274 190.803859 
L 260.220274 190.282444 
L 261.098038 190.282444 
L 261.098038 190.021737 
L 263.625616 190.021737 
L 263.625616 189.76103 
L 264.032374 189.76103 
L 264.032374 189.500323 
L 265.032236 189.500323 
L 265.032236 189.239615 
L 265.229363 189.239615 
L 265.229363 188.718201 
L 265.425562 188.718201 
L 265.425562 187.936079 
L 266.008681 187.936079 
L 266.008681 187.153958 
L 266.773698 187.153958 
L 266.773698 186.371836 
L 267.52493 186.371836 
L 267.52493 185.850422 
L 267.895531 185.850422 
L 267.895531 185.589714 
L 271.090544 185.589714 
L 271.090544 185.0683 
L 273.092157 185.0683 
L 273.092157 184.546886 
L 273.2547 184.546886 
L 273.2547 184.286178 
L 273.577898 184.286178 
L 273.577898 182.721935 
L 274.058044 182.721935 
L 274.058044 180.896985 
L 274.375097 180.896985 
L 274.375097 180.636277 
L 275.002061 180.636277 
L 275.002061 180.37557 
L 275.619735 180.37557 
L 275.619735 180.114863 
L 276.976927 180.114863 
L 276.976927 179.854156 
L 277.566227 179.854156 
L 277.566227 179.593449 
L 282.784563 179.593449 
L 282.784563 179.332741 
L 290.428966 179.332741 
L 290.428966 179.072034 
L 292.010405 179.072034 
L 292.010405 178.811327 
L 292.31962 178.811327 
L 292.31962 178.55062 
L 293.032325 178.55062 
L 293.032325 177.768498 
L 293.33408 177.768498 
L 293.33408 176.725669 
L 293.733052 176.725669 
L 293.733052 176.464962 
L 293.931116 176.464962 
L 293.931116 176.204255 
L 296.049886 176.204255 
L 296.049886 175.943548 
L 297.161745 175.943548 
L 297.161745 174.900719 
L 297.435138 174.900719 
L 297.435138 174.118597 
L 297.70675 174.118597 
L 297.70675 173.85789 
L 298.244722 173.85789 
L 298.244722 173.336475 
L 299.473636 173.336475 
L 299.473636 173.075768 
L 300.667361 173.075768 
L 300.667361 172.815061 
L 302.877283 172.815061 
L 302.877283 172.554354 
L 305.202733 172.554354 
L 305.202733 172.032939 
L 309.018492 172.032939 
L 309.018492 171.250818 
L 309.700869 171.250818 
L 309.700869 170.990111 
L 309.970723 170.990111 
L 309.970723 170.468696 
L 311.554164 170.468696 
L 311.554164 170.207989 
L 312.323889 170.207989 
L 312.323889 169.947282 
L 312.51412 169.947282 
L 312.51412 169.425867 
L 313.079661 169.425867 
L 313.079661 169.16516 
L 314.791607 169.16516 
L 314.791607 168.904453 
L 320.753813 168.904453 
L 320.753813 168.643746 
L 320.909284 168.643746 
L 320.909284 168.122331 
L 321.423376 168.122331 
L 321.423376 167.861624 
L 321.62725 167.861624 
L 321.62725 166.818795 
L 322.333061 166.818795 
L 322.333061 166.558088 
L 323.564464 166.558088 
L 323.564464 165.775966 
L 323.999014 165.775966 
L 323.999014 165.515259 
L 325.229522 165.515259 
L 325.322689 164.993845 
L 327.937764 164.993845 
L 327.937764 164.733137 
L 330.150527 164.733137 
L 330.150527 164.211723 
L 330.439627 164.211723 
L 330.439627 163.951016 
L 330.562916 163.951016 
L 330.562916 163.690309 
L 330.726737 163.690309 
L 330.726737 162.908187 
L 332.172857 162.908187 
L 332.172857 162.126065 
L 332.291133 162.126065 
L 332.291133 161.604651 
L 332.409074 161.604651 
L 332.409074 161.083236 
L 337.710462 161.083236 
L 337.710462 160.301115 
L 338.054744 160.301115 
L 338.054744 160.040408 
L 339.404126 160.040408 
L 339.404126 159.518993 
L 340.095447 159.518993 
L 340.095447 159.258286 
L 340.711201 159.258286 
L 340.711201 158.997579 
L 342.505709 158.997579 
L 342.505709 158.736871 
L 344.107711 158.736871 
L 344.107711 158.476164 
L 344.314768 158.476164 
L 344.403193 157.95475 
L 345.650428 157.95475 
L 345.736068 157.433335 
L 349.652692 157.433335 
L 349.652692 156.911921 
L 349.911491 156.911921 
L 350.014562 156.390507 
L 350.930912 156.390507 
L 351.006373 155.608385 
L 354.546024 155.608385 
L 354.546024 154.565556 
L 354.776241 154.565556 
L 354.776241 154.304849 
L 355.414168 154.304849 
L 355.414168 154.044142 
L 355.684606 154.044142 
L 355.684606 153.522727 
L 358.8 153.522727 
L 358.8 153.522727 
" style="fill:none;stroke:#ff00ff;stroke-linecap:square;stroke-width:1.5;"/>
   </g>
   <g id="line2d_13">
    <defs>
     <path d="M -0 8.485281 
L 5.091169 0 
L 0 -8.485281 
L -5.091169 -0 
z
" id="m0b9b4ec043" style="stroke:#ff00ff;stroke-linejoin:miter;stroke-width:1.5;"/>
    </defs>
    <g>
     <use style="fill:none;stroke:#ff00ff;stroke-linejoin:miter;stroke-width:1.5;" x="70.8" xlink:href="#m0b9b4ec043" y="262.237635255"/>
     <use style="fill:none;stroke:#ff00ff;stroke-linejoin:miter;stroke-width:1.5;" x="137.901120416" xlink:href="#m0b9b4ec043" y="231.213476839"/>
     <use style="fill:none;stroke:#ff00ff;stroke-linejoin:miter;stroke-width:1.5;" x="186.395518335" xlink:href="#m0b9b4ec043" y="207.749827617"/>
     <use style="fill:none;stroke:#ff00ff;stroke-linejoin:miter;stroke-width:1.5;" x="271.090543745" xlink:href="#m0b9b4ec043" y="185.589714463"/>
     <use style="fill:none;stroke:#ff00ff;stroke-linejoin:miter;stroke-width:1.5;" x="350.014561812" xlink:href="#m0b9b4ec043" y="156.651213755"/>
     <use style="fill:none;stroke:#ff00ff;stroke-linejoin:miter;stroke-width:1.5;" x="358.8" xlink:href="#m0b9b4ec043" y="153.522727192"/>
    </g>
   </g>
   <g id="line2d_14"/>
   <g id="line2d_15">
    <path clip-path="url(#p5abf2a3709)" d="M 262.8 190.021737 
" style="fill:none;stroke:#ff00ff;stroke-linecap:square;"/>
    <defs>
     <path d="M -12 12 
L 12 -12 
M -12 -12 
L 12 12 
" id="mb227084512" style="stroke:#ff00ff;stroke-width:3.0;"/>
    </defs>
    <g clip-path="url(#p5abf2a3709)">
     <use style="fill:#ff00ff;stroke:#ff00ff;stroke-width:3.0;" x="262.8" xlink:href="#mb227084512" y="190.021737093"/>
    </g>
   </g>
   <g id="line2d_16">
    <defs>
     <path d="M 0 1.5 
C 0.397805 1.5 0.77937 1.341951 1.06066 1.06066 
C 1.341951 0.77937 1.5 0.397805 1.5 0 
C 1.5 -0.397805 1.341951 -0.77937 1.06066 -1.06066 
C 0.77937 -1.341951 0.397805 -1.5 0 -1.5 
C -0.397805 -1.5 -0.77937 -1.341951 -1.06066 -1.06066 
C -1.341951 -0.77937 -1.5 -0.397805 -1.5 0 
C -1.5 0.397805 -1.341951 0.77937 -1.06066 1.06066 
C -0.77937 1.341951 -0.397805 1.5 0 1.5 
z
" id="mec722cda33" style="stroke:#ffa500;stroke-width:0.5;"/>
    </defs>
    <g>
     <use style="fill:#ffa500;stroke:#ffa500;stroke-width:0.5;" x="424.420062716" xlink:href="#mec722cda33" y="150.133533416"/>
     <use style="fill:#ffa500;stroke:#ffa500;stroke-width:0.5;" x="424.420062716" xlink:href="#mec722cda33" y="150.133533416"/>
    </g>
   </g>
   <g id="line2d_17">
    <path d="M 41.90112 303.429375 
L 41.90112 276.576532 
L 70.8 276.576532 
L 70.8 267.712487 
L 87.704761 267.712487 
L 87.704761 257.023491 
L 99.69888 257.023491 
L 99.69888 250.245103 
L 109.002241 250.245103 
L 109.002241 247.116617 
L 116.60364 247.116617 
L 116.60364 241.641765 
L 123.030532 241.641765 
L 123.030532 239.2954 
L 128.597759 239.2954 
L 128.597759 237.209743 
L 133.508401 237.209743 
L 133.508401 234.341963 
L 137.90112 234.341963 
L 137.90112 232.256306 
L 141.874818 232.256306 
L 141.874818 231.213477 
L 145.50252 231.213477 
L 145.50252 229.388526 
L 148.839682 229.388526 
L 148.839682 224.695796 
L 151.929412 224.695796 
L 151.929412 223.652968 
L 154.805881 223.652968 
L 154.805881 223.39226 
L 157.496639 223.39226 
L 157.496639 223.131553 
L 160.024217 223.131553 
L 160.024217 220.785188 
L 162.407281 220.785188 
L 162.407281 220.524481 
L 166.8 220.524481 
L 166.8 219.742359 
L 170.773698 219.742359 
L 170.773698 218.960238 
L 172.626993 218.960238 
L 172.626993 217.395995 
L 174.4014 217.395995 
L 174.4014 216.87458 
L 176.103361 216.87458 
L 176.103361 216.613873 
L 179.312042 216.613873 
L 179.312042 216.353166 
L 180.828291 216.353166 
L 180.828291 215.831751 
L 183.704761 215.831751 
L 183.704761 215.310337 
L 185.071843 215.310337 
L 185.071843 214.788922 
L 187.678459 214.788922 
L 187.678459 213.485386 
L 188.923096 213.485386 
L 188.923096 212.703265 
L 190.131653 212.703265 
L 190.131653 212.18185 
L 192.448486 212.18185 
L 192.448486 211.921143 
L 196.728371 211.921143 
L 196.728371 211.139021 
L 197.733052 211.139021 
L 197.733052 210.617607 
L 199.672577 210.617607 
L 199.672577 210.096193 
L 200.609522 210.096193 
L 200.609522 207.749828 
L 202.422515 207.749828 
L 202.422515 207.48912 
L 205.002241 207.48912 
L 205.002241 206.446292 
L 205.827857 206.446292 
L 205.827857 205.403463 
L 206.637441 205.403463 
L 206.637441 205.142755 
L 209.727171 205.142755 
L 209.727171 204.360634 
L 210.465107 204.360634 
L 210.465107 203.839219 
L 211.902914 203.839219 
L 211.902914 203.317805 
L 214.637813 203.317805 
L 214.637813 202.796391 
L 215.294398 202.796391 
L 215.294398 202.535683 
L 217.204301 202.535683 
L 217.204301 202.274976 
L 219.621922 202.274976 
L 219.621922 201.232147 
L 220.780115 201.232147 
L 220.780115 199.407197 
L 223.542202 199.407197 
L 223.542202 199.14649 
L 224.073321 199.14649 
L 224.073321 198.103661 
L 224.597759 198.103661 
L 224.597759 197.842954 
L 225.62725 197.842954 
L 225.62725 197.582246 
L 226.132617 197.582246 
L 226.132617 197.321539 
L 226.631932 197.321539 
L 226.631932 196.800125 
L 229.508401 196.800125 
L 229.508401 195.235881 
L 230.875483 195.235881 
L 230.875483 194.975174 
L 231.762587 194.975174 
L 231.762587 194.714467 
L 239.363986 194.714467 
L 239.363986 194.45376 
L 244.517733 194.45376 
L 244.517733 194.193053 
L 247.026295 194.193053 
L 247.026295 193.150224 
L 255.281902 193.150224 
L 255.281902 192.628809 
L 255.778244 192.628809 
L 255.778244 192.368102 
L 256.511851 192.368102 
L 256.511851 191.58598 
L 258.867974 191.58598 
L 258.867974 191.064566 
L 263.007942 191.064566 
L 263.007942 190.543152 
L 263.214852 190.543152 
L 263.214852 190.021737 
L 264.234274 190.021737 
L 264.234274 189.76103 
L 265.229363 189.76103 
L 265.229363 189.500323 
L 266.008681 189.500323 
L 266.008681 189.239615 
L 266.201255 189.239615 
L 266.201255 188.978908 
L 267.151006 188.978908 
L 267.151006 188.457494 
L 268.079603 188.457494 
L 268.079603 188.196787 
L 268.262866 188.196787 
L 268.262866 187.936079 
L 269.167289 187.936079 
L 269.167289 187.414665 
L 270.052508 187.414665 
L 270.052508 187.153958 
L 270.574757 187.153958 
L 270.574757 186.371836 
L 271.261065 186.371836 
L 271.261065 185.589714 
L 271.600028 185.589714 
L 271.600028 185.0683 
L 272.269798 185.0683 
L 272.269798 184.807593 
L 272.435572 184.807593 
L 272.435572 184.546886 
L 273.092157 184.546886 
L 273.092157 184.286178 
L 275.466172 184.286178 
L 275.466172 183.764764 
L 275.772735 183.764764 
L 275.772735 183.504057 
L 276.529421 183.504057 
L 276.529421 182.982642 
L 276.679124 182.982642 
L 276.679124 182.721935 
L 277.125035 182.721935 
L 277.125035 181.939813 
L 277.272618 181.939813 
L 277.272618 181.418399 
L 278.291328 181.418399 
L 278.291328 180.114863 
L 278.577874 180.114863 
L 278.577874 179.593449 
L 278.720412 179.593449 
L 278.720412 179.332741 
L 280.393905 179.332741 
L 280.393905 179.072034 
L 281.071843 179.072034 
L 281.071843 178.811327 
L 281.606367 178.811327 
L 281.606367 178.289912 
L 283.551927 178.289912 
L 283.551927 178.029205 
L 284.553591 178.029205 
L 284.553591 177.768498 
L 285.289356 177.768498 
L 285.289356 177.507791 
L 288.109063 177.507791 
L 288.109063 176.986376 
L 288.335652 176.986376 
L 288.335652 176.725669 
L 288.673243 176.725669 
L 288.673243 176.204255 
L 292.113731 176.204255 
L 292.113731 175.943548 
L 293.434182 175.943548 
L 293.434182 175.68284 
L 295.003958 175.68284 
L 295.003958 175.422133 
L 298.422515 175.422133 
L 298.511128 174.900719 
L 298.68779 174.900719 
L 298.68779 174.379304 
L 299.126198 174.379304 
L 299.21333 173.597183 
L 300.159944 173.597183 
L 300.159944 172.293647 
L 300.32977 172.293647 
L 300.414425 171.511525 
L 302.15358 171.511525 
L 302.15358 170.729403 
L 303.352865 170.729403 
L 303.352865 170.207989 
L 304.441904 170.207989 
L 304.441904 169.16516 
L 306.245094 169.16516 
L 306.245094 168.904453 
L 306.611139 168.904453 
L 306.611139 168.643746 
L 307.333727 168.643746 
L 307.333727 168.122331 
L 309.768496 168.122331 
L 309.768496 167.861624 
L 310.438804 167.861624 
L 310.438804 167.600917 
L 311.618853 167.600917 
L 311.618853 167.079502 
L 312.004895 167.079502 
L 312.004895 166.818795 
L 314.430633 166.818795 
L 314.430633 166.297381 
L 315.856149 166.297381 
L 315.856149 165.775966 
L 316.378397 165.775966 
L 316.378397 165.515259 
L 317.516047 165.515259 
L 317.516047 165.254552 
L 319.112381 165.254552 
L 319.112381 164.733137 
L 322.132617 164.733137 
L 322.132617 164.47243 
L 322.283041 164.47243 
L 322.283041 164.211723 
L 322.681536 164.211723 
L 322.681536 163.951016 
L 322.879364 163.951016 
L 322.879364 163.690309 
L 323.174358 163.690309 
L 323.174358 163.429601 
L 324.142863 163.429601 
L 324.142863 162.908187 
L 325.042561 162.908187 
L 325.042561 162.64748 
L 326.151955 162.64748 
L 326.151955 162.126065 
L 328.717082 162.126065 
L 328.717082 161.865358 
L 331.254751 161.865358 
L 331.254751 161.604651 
L 331.974981 161.604651 
L 331.974981 161.343944 
L 333.494064 161.343944 
L 333.494064 161.083236 
L 333.608656 161.083236 
L 333.608656 160.822529 
L 338.532011 160.822529 
L 338.532011 160.561822 
L 340.517733 160.561822 
L 340.517733 160.301115 
L 341.286275 160.301115 
L 341.286275 160.040408 
L 343.087115 160.040408 
L 343.087115 159.518993 
L 345.248434 159.518993 
L 345.248434 159.258286 
L 345.421192 159.258286 
L 345.421192 158.997579 
L 347.193204 158.997579 
L 347.193204 158.736871 
L 347.604239 158.736871 
L 347.604239 158.476164 
L 350.804839 158.476164 
L 350.804839 158.215457 
L 353.753637 158.215457 
L 353.753637 157.95475 
L 355.096425 157.95475 
L 355.164717 157.433335 
L 356.441454 157.433335 
L 356.441454 157.172628 
L 356.967546 157.172628 
L 356.967546 156.911921 
L 357.594509 156.911921 
L 357.594509 156.651214 
L 358.8 156.651214 
L 358.8 156.651214 
" style="fill:none;stroke:#ffa500;stroke-linecap:square;stroke-width:1.5;"/>
   </g>
   <g id="line2d_18">
    <defs>
     <path d="M 0 -6 
L -1.347084 -1.854102 
L -5.706339 -1.854102 
L -2.179628 0.708204 
L -3.526712 4.854102 
L -0 2.291796 
L 3.526712 4.854102 
L 2.179628 0.708204 
L 5.706339 -1.854102 
L 1.347084 -1.854102 
z
" id="m86480089ec" style="stroke:#ffa500;stroke-linejoin:bevel;stroke-width:1.5;"/>
    </defs>
    <g>
     <use style="fill:none;stroke:#ffa500;stroke-linejoin:bevel;stroke-width:1.5;" x="87.7047608693" xlink:href="#m86480089ec" y="257.023490983"/>
     <use style="fill:none;stroke:#ffa500;stroke-linejoin:bevel;stroke-width:1.5;" x="160.024216869" xlink:href="#m86480089ec" y="223.131553218"/>
     <use style="fill:none;stroke:#ffa500;stroke-linejoin:bevel;stroke-width:1.5;" x="219.621921893" xlink:href="#m86480089ec" y="202.274976132"/>
     <use style="fill:none;stroke:#ffa500;stroke-linejoin:bevel;stroke-width:1.5;" x="311.618853021" xlink:href="#m86480089ec" y="167.600916726"/>
     <use style="fill:none;stroke:#ffa500;stroke-linejoin:bevel;stroke-width:1.5;" x="357.594509274" xlink:href="#m86480089ec" y="156.651213755"/>
     <use style="fill:none;stroke:#ffa500;stroke-linejoin:bevel;stroke-width:1.5;" x="358.8" xlink:href="#m86480089ec" y="156.651213755"/>
    </g>
   </g>
   <g id="line2d_19"/>
   <g id="line2d_20">
    <path clip-path="url(#p5abf2a3709)" d="M 262.8 191.064566 
" style="fill:none;stroke:#ffa500;stroke-linecap:square;"/>
    <defs>
     <path d="M -12 12 
L 12 -12 
M -12 -12 
L 12 12 
" id="m7bd693f5df" style="stroke:#ffa500;stroke-width:3.0;"/>
    </defs>
    <g clip-path="url(#p5abf2a3709)">
     <use style="fill:#ffa500;stroke:#ffa500;stroke-width:3.0;" x="262.8" xlink:href="#m7bd693f5df" y="191.064565948"/>
    </g>
   </g>
   <g id="line2d_21">
    <path d="M 358.8 163.168894 
L 390.48 297.954524 
" style="fill:none;stroke:#000080;stroke-linecap:square;stroke-width:1.5;"/>
    <g>
     <use style="fill:none;stroke:#000080;stroke-width:1.5;" x="358.8" xlink:href="#m493c19446d" y="163.168894095"/>
     <use style="fill:none;stroke:#000080;stroke-width:1.5;" x="390.48" xlink:href="#m493c19446d" y="297.954523515"/>
    </g>
   </g>
   <g id="line2d_22">
    <path d="M 358.8 156.651214 
L 390.48 210.3569 
" style="fill:none;stroke:#ffa500;stroke-linecap:square;stroke-width:1.5;"/>
    <g>
     <use style="fill:none;stroke:#ffa500;stroke-linejoin:bevel;stroke-width:1.5;" x="358.8" xlink:href="#m86480089ec" y="156.651213755"/>
     <use style="fill:none;stroke:#ffa500;stroke-linejoin:bevel;stroke-width:1.5;" x="390.48" xlink:href="#m86480089ec" y="210.356899752"/>
    </g>
   </g>
   <g id="line2d_23">
    <path d="M 358.8 153.522727 
L 390.48 122.759276 
" style="fill:none;stroke:#ff00ff;stroke-linecap:square;stroke-width:1.5;"/>
    <g>
     <use style="fill:none;stroke:#ff00ff;stroke-linejoin:miter;stroke-width:1.5;" x="358.8" xlink:href="#m0b9b4ec043" y="153.522727192"/>
     <use style="fill:none;stroke:#ff00ff;stroke-linejoin:miter;stroke-width:1.5;" x="390.48" xlink:href="#m0b9b4ec043" y="122.75927599"/>
    </g>
   </g>
   <g id="line2d_24">
    <path d="M 358.8 303.429375 
L 358.8 29.686801 
" style="fill:none;stroke:#000000;stroke-linecap:square;"/>
   </g>
   <g id="patch_3">
    <path d="M 70.8 26.949375 
L 427.92 26.949375 
" style="fill:none;stroke:#000000;stroke-linecap:square;stroke-linejoin:miter;"/>
   </g>
   <g id="patch_4">
    <path d="M 427.92 303.429375 
L 427.92 26.949375 
" style="fill:none;stroke:#000000;stroke-linecap:square;stroke-linejoin:miter;"/>
   </g>
   <g id="patch_5">
    <path d="M 70.8 303.429375 
L 427.92 303.429375 
" style="fill:none;stroke:#000000;stroke-linecap:square;stroke-linejoin:miter;"/>
   </g>
   <g id="patch_6">
    <path d="M 70.8 303.429375 
L 70.8 26.949375 
" style="fill:none;stroke:#000000;stroke-linecap:square;stroke-linejoin:miter;"/>
   </g>
   <g id="matplotlib.axis_1">
    <g id="xtick_1">
     <g id="line2d_25">
      <path clip-path="url(#p5abf2a3709)" d="M 70.8 303.429375 
L 70.8 26.949375 
" style="fill:none;stroke:#000000;stroke-dasharray:1.000000,3.000000;stroke-dashoffset:0.0;stroke-width:0.5;"/>
     </g>
     <g id="line2d_26">
      <defs>
       <path d="M 0 0 
L 0 -4 
" id="mf8e60b883c" style="stroke:#000000;stroke-width:0.5;"/>
      </defs>
      <g>
       <use style="stroke:#000000;stroke-width:0.5;" x="70.8" xlink:href="#mf8e60b883c" y="303.429375"/>
      </g>
     </g>
     <g id="line2d_27">
      <defs>
       <path d="M 0 0 
L 0 4 
" id="m876ffeb4eb" style="stroke:#000000;stroke-width:0.5;"/>
      </defs>
      <g>
       <use style="stroke:#000000;stroke-width:0.5;" x="70.8" xlink:href="#m876ffeb4eb" y="26.949375"/>
      </g>
     </g>
     <g id="text_1">
      <!-- 0 -->
      <defs>
       <path d="M 31.78125 66.40625 
Q 24.171875 66.40625 20.328125 58.90625 
Q 16.5 51.421875 16.5 36.375 
Q 16.5 21.390625 20.328125 13.890625 
Q 24.171875 6.390625 31.78125 6.390625 
Q 39.453125 6.390625 43.28125 13.890625 
Q 47.125 21.390625 47.125 36.375 
Q 47.125 51.421875 43.28125 58.90625 
Q 39.453125 66.40625 31.78125 66.40625 
M 31.78125 74.21875 
Q 44.046875 74.21875 50.515625 64.515625 
Q 56.984375 54.828125 56.984375 36.375 
Q 56.984375 17.96875 50.515625 8.265625 
Q 44.046875 -1.421875 31.78125 -1.421875 
Q 19.53125 -1.421875 13.0625 8.265625 
Q 6.59375 17.96875 6.59375 36.375 
Q 6.59375 54.828125 13.0625 64.515625 
Q 19.53125 74.21875 31.78125 74.21875 
" id="BitstreamVeraSans-Roman-30"/>
      </defs>
      <g transform="translate(64.4375 322.62625)scale(0.2 -0.2)">
       <use xlink:href="#BitstreamVeraSans-Roman-30"/>
      </g>
     </g>
    </g>
    <g id="xtick_2">
     <g id="line2d_28">
      <path clip-path="url(#p5abf2a3709)" d="M 166.8 303.429375 
L 166.8 26.949375 
" style="fill:none;stroke:#000000;stroke-dasharray:1.000000,3.000000;stroke-dashoffset:0.0;stroke-width:0.5;"/>
     </g>
     <g id="line2d_29">
      <g>
       <use style="stroke:#000000;stroke-width:0.5;" x="166.8" xlink:href="#mf8e60b883c" y="303.429375"/>
      </g>
     </g>
     <g id="line2d_30">
      <g>
       <use style="stroke:#000000;stroke-width:0.5;" x="166.8" xlink:href="#m876ffeb4eb" y="26.949375"/>
      </g>
     </g>
     <g id="text_2">
      <!-- 1 -->
      <defs>
       <path d="M 12.40625 8.296875 
L 28.515625 8.296875 
L 28.515625 63.921875 
L 10.984375 60.40625 
L 10.984375 69.390625 
L 28.421875 72.90625 
L 38.28125 72.90625 
L 38.28125 8.296875 
L 54.390625 8.296875 
L 54.390625 0 
L 12.40625 0 
z
" id="BitstreamVeraSans-Roman-31"/>
      </defs>
      <g transform="translate(160.4375 322.62625)scale(0.2 -0.2)">
       <use xlink:href="#BitstreamVeraSans-Roman-31"/>
      </g>
     </g>
    </g>
    <g id="xtick_3">
     <g id="line2d_31">
      <path clip-path="url(#p5abf2a3709)" d="M 262.8 303.429375 
L 262.8 26.949375 
" style="fill:none;stroke:#000000;stroke-dasharray:1.000000,3.000000;stroke-dashoffset:0.0;stroke-width:0.5;"/>
     </g>
     <g id="line2d_32">
      <g>
       <use style="stroke:#000000;stroke-width:0.5;" x="262.8" xlink:href="#mf8e60b883c" y="303.429375"/>
      </g>
     </g>
     <g id="line2d_33">
      <g>
       <use style="stroke:#000000;stroke-width:0.5;" x="262.8" xlink:href="#m876ffeb4eb" y="26.949375"/>
      </g>
     </g>
     <g id="text_3">
      <!-- 2 -->
      <defs>
       <path d="M 19.1875 8.296875 
L 53.609375 8.296875 
L 53.609375 0 
L 7.328125 0 
L 7.328125 8.296875 
Q 12.9375 14.109375 22.625 23.890625 
Q 32.328125 33.6875 34.8125 36.53125 
Q 39.546875 41.84375 41.421875 45.53125 
Q 43.3125 49.21875 43.3125 52.78125 
Q 43.3125 58.59375 39.234375 62.25 
Q 35.15625 65.921875 28.609375 65.921875 
Q 23.96875 65.921875 18.8125 64.3125 
Q 13.671875 62.703125 7.8125 59.421875 
L 7.8125 69.390625 
Q 13.765625 71.78125 18.9375 73 
Q 24.125 74.21875 28.421875 74.21875 
Q 39.75 74.21875 46.484375 68.546875 
Q 53.21875 62.890625 53.21875 53.421875 
Q 53.21875 48.921875 51.53125 44.890625 
Q 49.859375 40.875 45.40625 35.40625 
Q 44.1875 33.984375 37.640625 27.21875 
Q 31.109375 20.453125 19.1875 8.296875 
" id="BitstreamVeraSans-Roman-32"/>
      </defs>
      <g transform="translate(256.4375 322.62625)scale(0.2 -0.2)">
       <use xlink:href="#BitstreamVeraSans-Roman-32"/>
      </g>
     </g>
    </g>
    <g id="xtick_4">
     <g id="line2d_34">
      <path clip-path="url(#p5abf2a3709)" d="M 358.8 303.429375 
L 358.8 26.949375 
" style="fill:none;stroke:#000000;stroke-dasharray:1.000000,3.000000;stroke-dashoffset:0.0;stroke-width:0.5;"/>
     </g>
     <g id="line2d_35">
      <g>
       <use style="stroke:#000000;stroke-width:0.5;" x="358.8" xlink:href="#mf8e60b883c" y="303.429375"/>
      </g>
     </g>
     <g id="line2d_36">
      <g>
       <use style="stroke:#000000;stroke-width:0.5;" x="358.8" xlink:href="#m876ffeb4eb" y="26.949375"/>
      </g>
     </g>
     <g id="text_4">
      <!-- 3 -->
      <defs>
       <path d="M 40.578125 39.3125 
Q 47.65625 37.796875 51.625 33 
Q 55.609375 28.21875 55.609375 21.1875 
Q 55.609375 10.40625 48.1875 4.484375 
Q 40.765625 -1.421875 27.09375 -1.421875 
Q 22.515625 -1.421875 17.65625 -0.515625 
Q 12.796875 0.390625 7.625 2.203125 
L 7.625 11.71875 
Q 11.71875 9.328125 16.59375 8.109375 
Q 21.484375 6.890625 26.8125 6.890625 
Q 36.078125 6.890625 40.9375 10.546875 
Q 45.796875 14.203125 45.796875 21.1875 
Q 45.796875 27.640625 41.28125 31.265625 
Q 36.765625 34.90625 28.71875 34.90625 
L 20.21875 34.90625 
L 20.21875 43.015625 
L 29.109375 43.015625 
Q 36.375 43.015625 40.234375 45.921875 
Q 44.09375 48.828125 44.09375 54.296875 
Q 44.09375 59.90625 40.109375 62.90625 
Q 36.140625 65.921875 28.71875 65.921875 
Q 24.65625 65.921875 20.015625 65.03125 
Q 15.375 64.15625 9.8125 62.3125 
L 9.8125 71.09375 
Q 15.4375 72.65625 20.34375 73.4375 
Q 25.25 74.21875 29.59375 74.21875 
Q 40.828125 74.21875 47.359375 69.109375 
Q 53.90625 64.015625 53.90625 55.328125 
Q 53.90625 49.265625 50.4375 45.09375 
Q 46.96875 40.921875 40.578125 39.3125 
" id="BitstreamVeraSans-Roman-33"/>
      </defs>
      <g transform="translate(352.4375 322.62625)scale(0.2 -0.2)">
       <use xlink:href="#BitstreamVeraSans-Roman-33"/>
      </g>
     </g>
    </g>
    <g id="xtick_5">
     <g id="line2d_37">
      <defs>
       <path d="M 0 0 
L 0 -2 
" id="m1b04bb58da" style="stroke:#000000;stroke-width:0.5;"/>
      </defs>
      <g>
       <use style="stroke:#000000;stroke-width:0.5;" x="99.6988795837" xlink:href="#m1b04bb58da" y="303.429375"/>
      </g>
     </g>
     <g id="line2d_38">
      <defs>
       <path d="M 0 0 
L 0 2 
" id="m25d5eaa185" style="stroke:#000000;stroke-width:0.5;"/>
      </defs>
      <g>
       <use style="stroke:#000000;stroke-width:0.5;" x="99.6988795837" xlink:href="#m25d5eaa185" y="26.949375"/>
      </g>
     </g>
    </g>
    <g id="xtick_6">
     <g id="line2d_39">
      <g>
       <use style="stroke:#000000;stroke-width:0.5;" x="116.603640453" xlink:href="#m1b04bb58da" y="303.429375"/>
      </g>
     </g>
     <g id="line2d_40">
      <g>
       <use style="stroke:#000000;stroke-width:0.5;" x="116.603640453" xlink:href="#m25d5eaa185" y="26.949375"/>
      </g>
     </g>
    </g>
    <g id="xtick_7">
     <g id="line2d_41">
      <g>
       <use style="stroke:#000000;stroke-width:0.5;" x="128.597759167" xlink:href="#m1b04bb58da" y="303.429375"/>
      </g>
     </g>
     <g id="line2d_42">
      <g>
       <use style="stroke:#000000;stroke-width:0.5;" x="128.597759167" xlink:href="#m25d5eaa185" y="26.949375"/>
      </g>
     </g>
    </g>
    <g id="xtick_8">
     <g id="line2d_43">
      <g>
       <use style="stroke:#000000;stroke-width:0.5;" x="137.901120416" xlink:href="#m1b04bb58da" y="303.429375"/>
      </g>
     </g>
     <g id="line2d_44">
      <g>
       <use style="stroke:#000000;stroke-width:0.5;" x="137.901120416" xlink:href="#m25d5eaa185" y="26.949375"/>
      </g>
     </g>
    </g>
    <g id="xtick_9">
     <g id="line2d_45">
      <g>
       <use style="stroke:#000000;stroke-width:0.5;" x="145.502520037" xlink:href="#m1b04bb58da" y="303.429375"/>
      </g>
     </g>
     <g id="line2d_46">
      <g>
       <use style="stroke:#000000;stroke-width:0.5;" x="145.502520037" xlink:href="#m25d5eaa185" y="26.949375"/>
      </g>
     </g>
    </g>
    <g id="xtick_10">
     <g id="line2d_47">
      <g>
       <use style="stroke:#000000;stroke-width:0.5;" x="151.929411841" xlink:href="#m1b04bb58da" y="303.429375"/>
      </g>
     </g>
     <g id="line2d_48">
      <g>
       <use style="stroke:#000000;stroke-width:0.5;" x="151.929411841" xlink:href="#m25d5eaa185" y="26.949375"/>
      </g>
     </g>
    </g>
    <g id="xtick_11">
     <g id="line2d_49">
      <g>
       <use style="stroke:#000000;stroke-width:0.5;" x="157.496638751" xlink:href="#m1b04bb58da" y="303.429375"/>
      </g>
     </g>
     <g id="line2d_50">
      <g>
       <use style="stroke:#000000;stroke-width:0.5;" x="157.496638751" xlink:href="#m25d5eaa185" y="26.949375"/>
      </g>
     </g>
    </g>
    <g id="xtick_12">
     <g id="line2d_51">
      <g>
       <use style="stroke:#000000;stroke-width:0.5;" x="162.407280906" xlink:href="#m1b04bb58da" y="303.429375"/>
      </g>
     </g>
     <g id="line2d_52">
      <g>
       <use style="stroke:#000000;stroke-width:0.5;" x="162.407280906" xlink:href="#m25d5eaa185" y="26.949375"/>
      </g>
     </g>
    </g>
    <g id="xtick_13">
     <g id="line2d_53">
      <g>
       <use style="stroke:#000000;stroke-width:0.5;" x="195.698879584" xlink:href="#m1b04bb58da" y="303.429375"/>
      </g>
     </g>
     <g id="line2d_54">
      <g>
       <use style="stroke:#000000;stroke-width:0.5;" x="195.698879584" xlink:href="#m25d5eaa185" y="26.949375"/>
      </g>
     </g>
    </g>
    <g id="xtick_14">
     <g id="line2d_55">
      <g>
       <use style="stroke:#000000;stroke-width:0.5;" x="212.603640453" xlink:href="#m1b04bb58da" y="303.429375"/>
      </g>
     </g>
     <g id="line2d_56">
      <g>
       <use style="stroke:#000000;stroke-width:0.5;" x="212.603640453" xlink:href="#m25d5eaa185" y="26.949375"/>
      </g>
     </g>
    </g>
    <g id="xtick_15">
     <g id="line2d_57">
      <g>
       <use style="stroke:#000000;stroke-width:0.5;" x="224.597759167" xlink:href="#m1b04bb58da" y="303.429375"/>
      </g>
     </g>
     <g id="line2d_58">
      <g>
       <use style="stroke:#000000;stroke-width:0.5;" x="224.597759167" xlink:href="#m25d5eaa185" y="26.949375"/>
      </g>
     </g>
    </g>
    <g id="xtick_16">
     <g id="line2d_59">
      <g>
       <use style="stroke:#000000;stroke-width:0.5;" x="233.901120416" xlink:href="#m1b04bb58da" y="303.429375"/>
      </g>
     </g>
     <g id="line2d_60">
      <g>
       <use style="stroke:#000000;stroke-width:0.5;" x="233.901120416" xlink:href="#m25d5eaa185" y="26.949375"/>
      </g>
     </g>
    </g>
    <g id="xtick_17">
     <g id="line2d_61">
      <g>
       <use style="stroke:#000000;stroke-width:0.5;" x="241.502520037" xlink:href="#m1b04bb58da" y="303.429375"/>
      </g>
     </g>
     <g id="line2d_62">
      <g>
       <use style="stroke:#000000;stroke-width:0.5;" x="241.502520037" xlink:href="#m25d5eaa185" y="26.949375"/>
      </g>
     </g>
    </g>
    <g id="xtick_18">
     <g id="line2d_63">
      <g>
       <use style="stroke:#000000;stroke-width:0.5;" x="247.929411841" xlink:href="#m1b04bb58da" y="303.429375"/>
      </g>
     </g>
     <g id="line2d_64">
      <g>
       <use style="stroke:#000000;stroke-width:0.5;" x="247.929411841" xlink:href="#m25d5eaa185" y="26.949375"/>
      </g>
     </g>
    </g>
    <g id="xtick_19">
     <g id="line2d_65">
      <g>
       <use style="stroke:#000000;stroke-width:0.5;" x="253.496638751" xlink:href="#m1b04bb58da" y="303.429375"/>
      </g>
     </g>
     <g id="line2d_66">
      <g>
       <use style="stroke:#000000;stroke-width:0.5;" x="253.496638751" xlink:href="#m25d5eaa185" y="26.949375"/>
      </g>
     </g>
    </g>
    <g id="xtick_20">
     <g id="line2d_67">
      <g>
       <use style="stroke:#000000;stroke-width:0.5;" x="258.407280906" xlink:href="#m1b04bb58da" y="303.429375"/>
      </g>
     </g>
     <g id="line2d_68">
      <g>
       <use style="stroke:#000000;stroke-width:0.5;" x="258.407280906" xlink:href="#m25d5eaa185" y="26.949375"/>
      </g>
     </g>
    </g>
    <g id="xtick_21">
     <g id="line2d_69">
      <g>
       <use style="stroke:#000000;stroke-width:0.5;" x="291.698879584" xlink:href="#m1b04bb58da" y="303.429375"/>
      </g>
     </g>
     <g id="line2d_70">
      <g>
       <use style="stroke:#000000;stroke-width:0.5;" x="291.698879584" xlink:href="#m25d5eaa185" y="26.949375"/>
      </g>
     </g>
    </g>
    <g id="xtick_22">
     <g id="line2d_71">
      <g>
       <use style="stroke:#000000;stroke-width:0.5;" x="308.603640453" xlink:href="#m1b04bb58da" y="303.429375"/>
      </g>
     </g>
     <g id="line2d_72">
      <g>
       <use style="stroke:#000000;stroke-width:0.5;" x="308.603640453" xlink:href="#m25d5eaa185" y="26.949375"/>
      </g>
     </g>
    </g>
    <g id="xtick_23">
     <g id="line2d_73">
      <g>
       <use style="stroke:#000000;stroke-width:0.5;" x="320.597759167" xlink:href="#m1b04bb58da" y="303.429375"/>
      </g>
     </g>
     <g id="line2d_74">
      <g>
       <use style="stroke:#000000;stroke-width:0.5;" x="320.597759167" xlink:href="#m25d5eaa185" y="26.949375"/>
      </g>
     </g>
    </g>
    <g id="xtick_24">
     <g id="line2d_75">
      <g>
       <use style="stroke:#000000;stroke-width:0.5;" x="329.901120416" xlink:href="#m1b04bb58da" y="303.429375"/>
      </g>
     </g>
     <g id="line2d_76">
      <g>
       <use style="stroke:#000000;stroke-width:0.5;" x="329.901120416" xlink:href="#m25d5eaa185" y="26.949375"/>
      </g>
     </g>
    </g>
    <g id="xtick_25">
     <g id="line2d_77">
      <g>
       <use style="stroke:#000000;stroke-width:0.5;" x="337.502520037" xlink:href="#m1b04bb58da" y="303.429375"/>
      </g>
     </g>
     <g id="line2d_78">
      <g>
       <use style="stroke:#000000;stroke-width:0.5;" x="337.502520037" xlink:href="#m25d5eaa185" y="26.949375"/>
      </g>
     </g>
    </g>
    <g id="xtick_26">
     <g id="line2d_79">
      <g>
       <use style="stroke:#000000;stroke-width:0.5;" x="343.929411841" xlink:href="#m1b04bb58da" y="303.429375"/>
      </g>
     </g>
     <g id="line2d_80">
      <g>
       <use style="stroke:#000000;stroke-width:0.5;" x="343.929411841" xlink:href="#m25d5eaa185" y="26.949375"/>
      </g>
     </g>
    </g>
    <g id="xtick_27">
     <g id="line2d_81">
      <g>
       <use style="stroke:#000000;stroke-width:0.5;" x="349.496638751" xlink:href="#m1b04bb58da" y="303.429375"/>
      </g>
     </g>
     <g id="line2d_82">
      <g>
       <use style="stroke:#000000;stroke-width:0.5;" x="349.496638751" xlink:href="#m25d5eaa185" y="26.949375"/>
      </g>
     </g>
    </g>
    <g id="xtick_28">
     <g id="line2d_83">
      <g>
       <use style="stroke:#000000;stroke-width:0.5;" x="354.407280906" xlink:href="#m1b04bb58da" y="303.429375"/>
      </g>
     </g>
     <g id="line2d_84">
      <g>
       <use style="stroke:#000000;stroke-width:0.5;" x="354.407280906" xlink:href="#m25d5eaa185" y="26.949375"/>
      </g>
     </g>
    </g>
    <g id="xtick_29">
     <g id="line2d_85">
      <g>
       <use style="stroke:#000000;stroke-width:0.5;" x="387.698879584" xlink:href="#m1b04bb58da" y="303.429375"/>
      </g>
     </g>
     <g id="line2d_86">
      <g>
       <use style="stroke:#000000;stroke-width:0.5;" x="387.698879584" xlink:href="#m25d5eaa185" y="26.949375"/>
      </g>
     </g>
    </g>
    <g id="xtick_30">
     <g id="line2d_87">
      <g>
       <use style="stroke:#000000;stroke-width:0.5;" x="404.603640453" xlink:href="#m1b04bb58da" y="303.429375"/>
      </g>
     </g>
     <g id="line2d_88">
      <g>
       <use style="stroke:#000000;stroke-width:0.5;" x="404.603640453" xlink:href="#m25d5eaa185" y="26.949375"/>
      </g>
     </g>
    </g>
    <g id="xtick_31">
     <g id="line2d_89">
      <g>
       <use style="stroke:#000000;stroke-width:0.5;" x="416.597759167" xlink:href="#m1b04bb58da" y="303.429375"/>
      </g>
     </g>
     <g id="line2d_90">
      <g>
       <use style="stroke:#000000;stroke-width:0.5;" x="416.597759167" xlink:href="#m25d5eaa185" y="26.949375"/>
      </g>
     </g>
    </g>
    <g id="xtick_32">
     <g id="line2d_91">
      <g>
       <use style="stroke:#000000;stroke-width:0.5;" x="425.901120416" xlink:href="#m1b04bb58da" y="303.429375"/>
      </g>
     </g>
     <g id="line2d_92">
      <g>
       <use style="stroke:#000000;stroke-width:0.5;" x="425.901120416" xlink:href="#m25d5eaa185" y="26.949375"/>
      </g>
     </g>
    </g>
    <g id="text_5">
     <!-- log10 of (# f-evals / dimension) -->
     <defs>
      <path id="BitstreamVeraSans-Roman-20"/>
      <path d="M 51.125 44 
L 36.921875 44 
L 32.8125 27.6875 
L 47.125 27.6875 
z
M 43.796875 71.78125 
L 38.71875 51.515625 
L 52.984375 51.515625 
L 58.109375 71.78125 
L 65.921875 71.78125 
L 60.890625 51.515625 
L 76.125 51.515625 
L 76.125 44 
L 58.984375 44 
L 54.984375 27.6875 
L 70.515625 27.6875 
L 70.515625 20.21875 
L 53.078125 20.21875 
L 48 0 
L 40.1875 0 
L 45.21875 20.21875 
L 30.90625 20.21875 
L 25.875 0 
L 18.015625 0 
L 23.09375 20.21875 
L 7.71875 20.21875 
L 7.71875 27.6875 
L 24.90625 27.6875 
L 29 44 
L 13.28125 44 
L 13.28125 51.515625 
L 30.90625 51.515625 
L 35.890625 71.78125 
z
" id="BitstreamVeraSans-Roman-23"/>
      <path d="M 52 44.1875 
Q 55.375 50.25 60.0625 53.125 
Q 64.75 56 71.09375 56 
Q 79.640625 56 84.28125 50.015625 
Q 88.921875 44.046875 88.921875 33.015625 
L 88.921875 0 
L 79.890625 0 
L 79.890625 32.71875 
Q 79.890625 40.578125 77.09375 44.375 
Q 74.3125 48.1875 68.609375 48.1875 
Q 61.625 48.1875 57.5625 43.546875 
Q 53.515625 38.921875 53.515625 30.90625 
L 53.515625 0 
L 44.484375 0 
L 44.484375 32.71875 
Q 44.484375 40.625 41.703125 44.40625 
Q 38.921875 48.1875 33.109375 48.1875 
Q 26.21875 48.1875 22.15625 43.53125 
Q 18.109375 38.875 18.109375 30.90625 
L 18.109375 0 
L 9.078125 0 
L 9.078125 54.6875 
L 18.109375 54.6875 
L 18.109375 46.1875 
Q 21.1875 51.21875 25.484375 53.609375 
Q 29.78125 56 35.6875 56 
Q 41.65625 56 45.828125 52.96875 
Q 50 49.953125 52 44.1875 
" id="BitstreamVeraSans-Roman-6d"/>
      <path d="M 54.890625 33.015625 
L 54.890625 0 
L 45.90625 0 
L 45.90625 32.71875 
Q 45.90625 40.484375 42.875 44.328125 
Q 39.84375 48.1875 33.796875 48.1875 
Q 26.515625 48.1875 22.3125 43.546875 
Q 18.109375 38.921875 18.109375 30.90625 
L 18.109375 0 
L 9.078125 0 
L 9.078125 54.6875 
L 18.109375 54.6875 
L 18.109375 46.1875 
Q 21.34375 51.125 25.703125 53.5625 
Q 30.078125 56 35.796875 56 
Q 45.21875 56 50.046875 50.171875 
Q 54.890625 44.34375 54.890625 33.015625 
" id="BitstreamVeraSans-Roman-6e"/>
      <path d="M 31 75.875 
Q 24.46875 64.65625 21.28125 53.65625 
Q 18.109375 42.671875 18.109375 31.390625 
Q 18.109375 20.125 21.3125 9.0625 
Q 24.515625 -2 31 -13.1875 
L 23.1875 -13.1875 
Q 15.875 -1.703125 12.234375 9.375 
Q 8.59375 20.453125 8.59375 31.390625 
Q 8.59375 42.28125 12.203125 53.3125 
Q 15.828125 64.359375 23.1875 75.875 
z
" id="BitstreamVeraSans-Roman-28"/>
      <path d="M 30.609375 48.390625 
Q 23.390625 48.390625 19.1875 42.75 
Q 14.984375 37.109375 14.984375 27.296875 
Q 14.984375 17.484375 19.15625 11.84375 
Q 23.34375 6.203125 30.609375 6.203125 
Q 37.796875 6.203125 41.984375 11.859375 
Q 46.1875 17.53125 46.1875 27.296875 
Q 46.1875 37.015625 41.984375 42.703125 
Q 37.796875 48.390625 30.609375 48.390625 
M 30.609375 56 
Q 42.328125 56 49.015625 48.375 
Q 55.71875 40.765625 55.71875 27.296875 
Q 55.71875 13.875 49.015625 6.21875 
Q 42.328125 -1.421875 30.609375 -1.421875 
Q 18.84375 -1.421875 12.171875 6.21875 
Q 5.515625 13.875 5.515625 27.296875 
Q 5.515625 40.765625 12.171875 48.375 
Q 18.84375 56 30.609375 56 
" id="BitstreamVeraSans-Roman-6f"/>
      <path d="M 9.421875 75.984375 
L 18.40625 75.984375 
L 18.40625 0 
L 9.421875 0 
z
" id="BitstreamVeraSans-Roman-6c"/>
      <path d="M 2.984375 54.6875 
L 12.5 54.6875 
L 29.59375 8.796875 
L 46.6875 54.6875 
L 56.203125 54.6875 
L 35.6875 0 
L 23.484375 0 
z
" id="BitstreamVeraSans-Roman-76"/>
      <path d="M 9.421875 54.6875 
L 18.40625 54.6875 
L 18.40625 0 
L 9.421875 0 
z
M 9.421875 75.984375 
L 18.40625 75.984375 
L 18.40625 64.59375 
L 9.421875 64.59375 
z
" id="BitstreamVeraSans-Roman-69"/>
      <path d="M 4.890625 31.390625 
L 31.203125 31.390625 
L 31.203125 23.390625 
L 4.890625 23.390625 
z
" id="BitstreamVeraSans-Roman-2d"/>
      <path d="M 25.390625 72.90625 
L 33.6875 72.90625 
L 8.296875 -9.28125 
L 0 -9.28125 
z
" id="BitstreamVeraSans-Roman-2f"/>
      <path d="M 56.203125 29.59375 
L 56.203125 25.203125 
L 14.890625 25.203125 
Q 15.484375 15.921875 20.484375 11.0625 
Q 25.484375 6.203125 34.421875 6.203125 
Q 39.59375 6.203125 44.453125 7.46875 
Q 49.3125 8.734375 54.109375 11.28125 
L 54.109375 2.78125 
Q 49.265625 0.734375 44.1875 -0.34375 
Q 39.109375 -1.421875 33.890625 -1.421875 
Q 20.796875 -1.421875 13.15625 6.1875 
Q 5.515625 13.8125 5.515625 26.8125 
Q 5.515625 40.234375 12.765625 48.109375 
Q 20.015625 56 32.328125 56 
Q 43.359375 56 49.78125 48.890625 
Q 56.203125 41.796875 56.203125 29.59375 
M 47.21875 32.234375 
Q 47.125 39.59375 43.09375 43.984375 
Q 39.0625 48.390625 32.421875 48.390625 
Q 24.90625 48.390625 20.390625 44.140625 
Q 15.875 39.890625 15.1875 32.171875 
z
" id="BitstreamVeraSans-Roman-65"/>
      <path d="M 45.40625 46.390625 
L 45.40625 75.984375 
L 54.390625 75.984375 
L 54.390625 0 
L 45.40625 0 
L 45.40625 8.203125 
Q 42.578125 3.328125 38.25 0.953125 
Q 33.9375 -1.421875 27.875 -1.421875 
Q 17.96875 -1.421875 11.734375 6.484375 
Q 5.515625 14.40625 5.515625 27.296875 
Q 5.515625 40.1875 11.734375 48.09375 
Q 17.96875 56 27.875 56 
Q 33.9375 56 38.25 53.625 
Q 42.578125 51.265625 45.40625 46.390625 
M 14.796875 27.296875 
Q 14.796875 17.390625 18.875 11.75 
Q 22.953125 6.109375 30.078125 6.109375 
Q 37.203125 6.109375 41.296875 11.75 
Q 45.40625 17.390625 45.40625 27.296875 
Q 45.40625 37.203125 41.296875 42.84375 
Q 37.203125 48.484375 30.078125 48.484375 
Q 22.953125 48.484375 18.875 42.84375 
Q 14.796875 37.203125 14.796875 27.296875 
" id="BitstreamVeraSans-Roman-64"/>
      <path d="M 45.40625 27.984375 
Q 45.40625 37.75 41.375 43.109375 
Q 37.359375 48.484375 30.078125 48.484375 
Q 22.859375 48.484375 18.828125 43.109375 
Q 14.796875 37.75 14.796875 27.984375 
Q 14.796875 18.265625 18.828125 12.890625 
Q 22.859375 7.515625 30.078125 7.515625 
Q 37.359375 7.515625 41.375 12.890625 
Q 45.40625 18.265625 45.40625 27.984375 
M 54.390625 6.78125 
Q 54.390625 -7.171875 48.1875 -13.984375 
Q 42 -20.796875 29.203125 -20.796875 
Q 24.46875 -20.796875 20.265625 -20.09375 
Q 16.0625 -19.390625 12.109375 -17.921875 
L 12.109375 -9.1875 
Q 16.0625 -11.328125 19.921875 -12.34375 
Q 23.78125 -13.375 27.78125 -13.375 
Q 36.625 -13.375 41.015625 -8.765625 
Q 45.40625 -4.15625 45.40625 5.171875 
L 45.40625 9.625 
Q 42.625 4.78125 38.28125 2.390625 
Q 33.9375 0 27.875 0 
Q 17.828125 0 11.671875 7.65625 
Q 5.515625 15.328125 5.515625 27.984375 
Q 5.515625 40.671875 11.671875 48.328125 
Q 17.828125 56 27.875 56 
Q 33.9375 56 38.28125 53.609375 
Q 42.625 51.21875 45.40625 46.390625 
L 45.40625 54.6875 
L 54.390625 54.6875 
z
" id="BitstreamVeraSans-Roman-67"/>
      <path d="M 37.109375 75.984375 
L 37.109375 68.5 
L 28.515625 68.5 
Q 23.6875 68.5 21.796875 66.546875 
Q 19.921875 64.59375 19.921875 59.515625 
L 19.921875 54.6875 
L 34.71875 54.6875 
L 34.71875 47.703125 
L 19.921875 47.703125 
L 19.921875 0 
L 10.890625 0 
L 10.890625 47.703125 
L 2.296875 47.703125 
L 2.296875 54.6875 
L 10.890625 54.6875 
L 10.890625 58.5 
Q 10.890625 67.625 15.140625 71.796875 
Q 19.390625 75.984375 28.609375 75.984375 
z
" id="BitstreamVeraSans-Roman-66"/>
      <path d="M 34.28125 27.484375 
Q 23.390625 27.484375 19.1875 25 
Q 14.984375 22.515625 14.984375 16.5 
Q 14.984375 11.71875 18.140625 8.90625 
Q 21.296875 6.109375 26.703125 6.109375 
Q 34.1875 6.109375 38.703125 11.40625 
Q 43.21875 16.703125 43.21875 25.484375 
L 43.21875 27.484375 
z
M 52.203125 31.203125 
L 52.203125 0 
L 43.21875 0 
L 43.21875 8.296875 
Q 40.140625 3.328125 35.546875 0.953125 
Q 30.953125 -1.421875 24.3125 -1.421875 
Q 15.921875 -1.421875 10.953125 3.296875 
Q 6 8.015625 6 15.921875 
Q 6 25.140625 12.171875 29.828125 
Q 18.359375 34.515625 30.609375 34.515625 
L 43.21875 34.515625 
L 43.21875 35.40625 
Q 43.21875 41.609375 39.140625 45 
Q 35.0625 48.390625 27.6875 48.390625 
Q 23 48.390625 18.546875 47.265625 
Q 14.109375 46.140625 10.015625 43.890625 
L 10.015625 52.203125 
Q 14.9375 54.109375 19.578125 55.046875 
Q 24.21875 56 28.609375 56 
Q 40.484375 56 46.34375 49.84375 
Q 52.203125 43.703125 52.203125 31.203125 
" id="BitstreamVeraSans-Roman-61"/>
      <path d="M 44.28125 53.078125 
L 44.28125 44.578125 
Q 40.484375 46.53125 36.375 47.5 
Q 32.28125 48.484375 27.875 48.484375 
Q 21.1875 48.484375 17.84375 46.4375 
Q 14.5 44.390625 14.5 40.28125 
Q 14.5 37.15625 16.890625 35.375 
Q 19.28125 33.59375 26.515625 31.984375 
L 29.59375 31.296875 
Q 39.15625 29.25 43.1875 25.515625 
Q 47.21875 21.78125 47.21875 15.09375 
Q 47.21875 7.46875 41.1875 3.015625 
Q 35.15625 -1.421875 24.609375 -1.421875 
Q 20.21875 -1.421875 15.453125 -0.5625 
Q 10.6875 0.296875 5.421875 2 
L 5.421875 11.28125 
Q 10.40625 8.6875 15.234375 7.390625 
Q 20.0625 6.109375 24.8125 6.109375 
Q 31.15625 6.109375 34.5625 8.28125 
Q 37.984375 10.453125 37.984375 14.40625 
Q 37.984375 18.0625 35.515625 20.015625 
Q 33.0625 21.96875 24.703125 23.78125 
L 21.578125 24.515625 
Q 13.234375 26.265625 9.515625 29.90625 
Q 5.8125 33.546875 5.8125 39.890625 
Q 5.8125 47.609375 11.28125 51.796875 
Q 16.75 56 26.8125 56 
Q 31.78125 56 36.171875 55.265625 
Q 40.578125 54.546875 44.28125 53.078125 
" id="BitstreamVeraSans-Roman-73"/>
      <path d="M 8.015625 75.875 
L 15.828125 75.875 
Q 23.140625 64.359375 26.78125 53.3125 
Q 30.421875 42.28125 30.421875 31.390625 
Q 30.421875 20.453125 26.78125 9.375 
Q 23.140625 -1.703125 15.828125 -13.1875 
L 8.015625 -13.1875 
Q 14.5 -2 17.703125 9.0625 
Q 20.90625 20.125 20.90625 31.390625 
Q 20.90625 42.671875 17.703125 53.65625 
Q 14.5 64.65625 8.015625 75.875 
" id="BitstreamVeraSans-Roman-29"/>
     </defs>
     <g transform="translate(107.01515625 345.4628125)scale(0.18 -0.18)">
      <use xlink:href="#BitstreamVeraSans-Roman-6c"/>
      <use x="27.783203125" xlink:href="#BitstreamVeraSans-Roman-6f"/>
      <use x="88.96484375" xlink:href="#BitstreamVeraSans-Roman-67"/>
      <use x="152.44140625" xlink:href="#BitstreamVeraSans-Roman-31"/>
      <use x="216.064453125" xlink:href="#BitstreamVeraSans-Roman-30"/>
      <use x="279.6875" xlink:href="#BitstreamVeraSans-Roman-20"/>
      <use x="311.474609375" xlink:href="#BitstreamVeraSans-Roman-6f"/>
      <use x="372.65625" xlink:href="#BitstreamVeraSans-Roman-66"/>
      <use x="407.861328125" xlink:href="#BitstreamVeraSans-Roman-20"/>
      <use x="439.6484375" xlink:href="#BitstreamVeraSans-Roman-28"/>
      <use x="478.662109375" xlink:href="#BitstreamVeraSans-Roman-23"/>
      <use x="562.451171875" xlink:href="#BitstreamVeraSans-Roman-20"/>
      <use x="594.23828125" xlink:href="#BitstreamVeraSans-Roman-66"/>
      <use x="629.365234375" xlink:href="#BitstreamVeraSans-Roman-2d"/>
      <use x="665.44921875" xlink:href="#BitstreamVeraSans-Roman-65"/>
      <use x="726.97265625" xlink:href="#BitstreamVeraSans-Roman-76"/>
      <use x="786.15234375" xlink:href="#BitstreamVeraSans-Roman-61"/>
      <use x="847.431640625" xlink:href="#BitstreamVeraSans-Roman-6c"/>
      <use x="875.21484375" xlink:href="#BitstreamVeraSans-Roman-73"/>
      <use x="927.314453125" xlink:href="#BitstreamVeraSans-Roman-20"/>
      <use x="959.1015625" xlink:href="#BitstreamVeraSans-Roman-2f"/>
      <use x="992.79296875" xlink:href="#BitstreamVeraSans-Roman-20"/>
      <use x="1024.58007812" xlink:href="#BitstreamVeraSans-Roman-64"/>
      <use x="1088.05664062" xlink:href="#BitstreamVeraSans-Roman-69"/>
      <use x="1115.83984375" xlink:href="#BitstreamVeraSans-Roman-6d"/>
      <use x="1213.25195312" xlink:href="#BitstreamVeraSans-Roman-65"/>
      <use x="1274.77539062" xlink:href="#BitstreamVeraSans-Roman-6e"/>
      <use x="1338.15429688" xlink:href="#BitstreamVeraSans-Roman-73"/>
      <use x="1390.25390625" xlink:href="#BitstreamVeraSans-Roman-69"/>
      <use x="1418.03710938" xlink:href="#BitstreamVeraSans-Roman-6f"/>
      <use x="1479.21875" xlink:href="#BitstreamVeraSans-Roman-6e"/>
      <use x="1542.59765625" xlink:href="#BitstreamVeraSans-Roman-29"/>
     </g>
    </g>
   </g>
   <g id="matplotlib.axis_2">
    <g id="ytick_1">
     <g id="line2d_93">
      <path clip-path="url(#p5abf2a3709)" d="M 70.8 303.429375 
L 427.92 303.429375 
" style="fill:none;stroke:#000000;stroke-dasharray:1.000000,3.000000;stroke-dashoffset:0.0;stroke-width:0.5;"/>
     </g>
     <g id="line2d_94">
      <defs>
       <path d="M 0 0 
L 4 0 
" id="m9d805b25e9" style="stroke:#000000;stroke-width:0.5;"/>
      </defs>
      <g>
       <use style="stroke:#000000;stroke-width:0.5;" x="70.8" xlink:href="#m9d805b25e9" y="303.429375"/>
      </g>
     </g>
     <g id="line2d_95">
      <defs>
       <path d="M 0 0 
L -4 0 
" id="m7ab5e6b2ee" style="stroke:#000000;stroke-width:0.5;"/>
      </defs>
      <g>
       <use style="stroke:#000000;stroke-width:0.5;" x="427.92" xlink:href="#m7ab5e6b2ee" y="303.429375"/>
      </g>
     </g>
     <g id="text_6">
      <!-- 0.0 -->
      <defs>
       <path d="M 10.6875 12.40625 
L 21 12.40625 
L 21 0 
L 10.6875 0 
z
" id="BitstreamVeraSans-Roman-2e"/>
      </defs>
      <g transform="translate(34.99375 308.948125)scale(0.2 -0.2)">
       <use xlink:href="#BitstreamVeraSans-Roman-30"/>
       <use x="63.623046875" xlink:href="#BitstreamVeraSans-Roman-2e"/>
       <use x="95.41015625" xlink:href="#BitstreamVeraSans-Roman-30"/>
      </g>
     </g>
    </g>
    <g id="ytick_2">
     <g id="line2d_96">
      <path clip-path="url(#p5abf2a3709)" d="M 70.8 248.68086 
L 427.92 248.68086 
" style="fill:none;stroke:#000000;stroke-dasharray:1.000000,3.000000;stroke-dashoffset:0.0;stroke-width:0.5;"/>
     </g>
     <g id="line2d_97">
      <g>
       <use style="stroke:#000000;stroke-width:0.5;" x="70.8" xlink:href="#m9d805b25e9" y="248.680860149"/>
      </g>
     </g>
     <g id="line2d_98">
      <g>
       <use style="stroke:#000000;stroke-width:0.5;" x="427.92" xlink:href="#m7ab5e6b2ee" y="248.680860149"/>
      </g>
     </g>
     <g id="text_7">
      <!-- 0.2 -->
      <g transform="translate(34.99375 254.199610149)scale(0.2 -0.2)">
       <use xlink:href="#BitstreamVeraSans-Roman-30"/>
       <use x="63.623046875" xlink:href="#BitstreamVeraSans-Roman-2e"/>
       <use x="95.41015625" xlink:href="#BitstreamVeraSans-Roman-32"/>
      </g>
     </g>
    </g>
    <g id="ytick_3">
     <g id="line2d_99">
      <path clip-path="url(#p5abf2a3709)" d="M 70.8 193.932345 
L 427.92 193.932345 
" style="fill:none;stroke:#000000;stroke-dasharray:1.000000,3.000000;stroke-dashoffset:0.0;stroke-width:0.5;"/>
     </g>
     <g id="line2d_100">
      <g>
       <use style="stroke:#000000;stroke-width:0.5;" x="70.8" xlink:href="#m9d805b25e9" y="193.932345297"/>
      </g>
     </g>
     <g id="line2d_101">
      <g>
       <use style="stroke:#000000;stroke-width:0.5;" x="427.92" xlink:href="#m7ab5e6b2ee" y="193.932345297"/>
      </g>
     </g>
     <g id="text_8">
      <!-- 0.4 -->
      <defs>
       <path d="M 37.796875 64.3125 
L 12.890625 25.390625 
L 37.796875 25.390625 
z
M 35.203125 72.90625 
L 47.609375 72.90625 
L 47.609375 25.390625 
L 58.015625 25.390625 
L 58.015625 17.1875 
L 47.609375 17.1875 
L 47.609375 0 
L 37.796875 0 
L 37.796875 17.1875 
L 4.890625 17.1875 
L 4.890625 26.703125 
z
" id="BitstreamVeraSans-Roman-34"/>
      </defs>
      <g transform="translate(34.99375 199.451095297)scale(0.2 -0.2)">
       <use xlink:href="#BitstreamVeraSans-Roman-30"/>
       <use x="63.623046875" xlink:href="#BitstreamVeraSans-Roman-2e"/>
       <use x="95.41015625" xlink:href="#BitstreamVeraSans-Roman-34"/>
      </g>
     </g>
    </g>
    <g id="ytick_4">
     <g id="line2d_102">
      <path clip-path="url(#p5abf2a3709)" d="M 70.8 139.18383 
L 427.92 139.18383 
" style="fill:none;stroke:#000000;stroke-dasharray:1.000000,3.000000;stroke-dashoffset:0.0;stroke-width:0.5;"/>
     </g>
     <g id="line2d_103">
      <g>
       <use style="stroke:#000000;stroke-width:0.5;" x="70.8" xlink:href="#m9d805b25e9" y="139.183830446"/>
      </g>
     </g>
     <g id="line2d_104">
      <g>
       <use style="stroke:#000000;stroke-width:0.5;" x="427.92" xlink:href="#m7ab5e6b2ee" y="139.183830446"/>
      </g>
     </g>
     <g id="text_9">
      <!-- 0.6 -->
      <defs>
       <path d="M 33.015625 40.375 
Q 26.375 40.375 22.484375 35.828125 
Q 18.609375 31.296875 18.609375 23.390625 
Q 18.609375 15.53125 22.484375 10.953125 
Q 26.375 6.390625 33.015625 6.390625 
Q 39.65625 6.390625 43.53125 10.953125 
Q 47.40625 15.53125 47.40625 23.390625 
Q 47.40625 31.296875 43.53125 35.828125 
Q 39.65625 40.375 33.015625 40.375 
M 52.59375 71.296875 
L 52.59375 62.3125 
Q 48.875 64.0625 45.09375 64.984375 
Q 41.3125 65.921875 37.59375 65.921875 
Q 27.828125 65.921875 22.671875 59.328125 
Q 17.53125 52.734375 16.796875 39.40625 
Q 19.671875 43.65625 24.015625 45.921875 
Q 28.375 48.1875 33.59375 48.1875 
Q 44.578125 48.1875 50.953125 41.515625 
Q 57.328125 34.859375 57.328125 23.390625 
Q 57.328125 12.15625 50.6875 5.359375 
Q 44.046875 -1.421875 33.015625 -1.421875 
Q 20.359375 -1.421875 13.671875 8.265625 
Q 6.984375 17.96875 6.984375 36.375 
Q 6.984375 53.65625 15.1875 63.9375 
Q 23.390625 74.21875 37.203125 74.21875 
Q 40.921875 74.21875 44.703125 73.484375 
Q 48.484375 72.75 52.59375 71.296875 
" id="BitstreamVeraSans-Roman-36"/>
      </defs>
      <g transform="translate(34.99375 144.702580446)scale(0.2 -0.2)">
       <use xlink:href="#BitstreamVeraSans-Roman-30"/>
       <use x="63.623046875" xlink:href="#BitstreamVeraSans-Roman-2e"/>
       <use x="95.41015625" xlink:href="#BitstreamVeraSans-Roman-36"/>
      </g>
     </g>
    </g>
    <g id="ytick_5">
     <g id="line2d_105">
      <path clip-path="url(#p5abf2a3709)" d="M 70.8 84.435316 
L 427.92 84.435316 
" style="fill:none;stroke:#000000;stroke-dasharray:1.000000,3.000000;stroke-dashoffset:0.0;stroke-width:0.5;"/>
     </g>
     <g id="line2d_106">
      <g>
       <use style="stroke:#000000;stroke-width:0.5;" x="70.8" xlink:href="#m9d805b25e9" y="84.4353155941"/>
      </g>
     </g>
     <g id="line2d_107">
      <g>
       <use style="stroke:#000000;stroke-width:0.5;" x="427.92" xlink:href="#m7ab5e6b2ee" y="84.4353155941"/>
      </g>
     </g>
     <g id="text_10">
      <!-- 0.8 -->
      <defs>
       <path d="M 31.78125 34.625 
Q 24.75 34.625 20.71875 30.859375 
Q 16.703125 27.09375 16.703125 20.515625 
Q 16.703125 13.921875 20.71875 10.15625 
Q 24.75 6.390625 31.78125 6.390625 
Q 38.8125 6.390625 42.859375 10.171875 
Q 46.921875 13.96875 46.921875 20.515625 
Q 46.921875 27.09375 42.890625 30.859375 
Q 38.875 34.625 31.78125 34.625 
M 21.921875 38.8125 
Q 15.578125 40.375 12.03125 44.71875 
Q 8.5 49.078125 8.5 55.328125 
Q 8.5 64.0625 14.71875 69.140625 
Q 20.953125 74.21875 31.78125 74.21875 
Q 42.671875 74.21875 48.875 69.140625 
Q 55.078125 64.0625 55.078125 55.328125 
Q 55.078125 49.078125 51.53125 44.71875 
Q 48 40.375 41.703125 38.8125 
Q 48.828125 37.15625 52.796875 32.3125 
Q 56.78125 27.484375 56.78125 20.515625 
Q 56.78125 9.90625 50.3125 4.234375 
Q 43.84375 -1.421875 31.78125 -1.421875 
Q 19.734375 -1.421875 13.25 4.234375 
Q 6.78125 9.90625 6.78125 20.515625 
Q 6.78125 27.484375 10.78125 32.3125 
Q 14.796875 37.15625 21.921875 38.8125 
M 18.3125 54.390625 
Q 18.3125 48.734375 21.84375 45.5625 
Q 25.390625 42.390625 31.78125 42.390625 
Q 38.140625 42.390625 41.71875 45.5625 
Q 45.3125 48.734375 45.3125 54.390625 
Q 45.3125 60.0625 41.71875 63.234375 
Q 38.140625 66.40625 31.78125 66.40625 
Q 25.390625 66.40625 21.84375 63.234375 
Q 18.3125 60.0625 18.3125 54.390625 
" id="BitstreamVeraSans-Roman-38"/>
      </defs>
      <g transform="translate(34.99375 89.9540655941)scale(0.2 -0.2)">
       <use xlink:href="#BitstreamVeraSans-Roman-30"/>
       <use x="63.623046875" xlink:href="#BitstreamVeraSans-Roman-2e"/>
       <use x="95.41015625" xlink:href="#BitstreamVeraSans-Roman-38"/>
      </g>
     </g>
    </g>
    <g id="ytick_6">
     <g id="line2d_108">
      <path clip-path="url(#p5abf2a3709)" d="M 70.8 29.686801 
L 427.92 29.686801 
" style="fill:none;stroke:#000000;stroke-dasharray:1.000000,3.000000;stroke-dashoffset:0.0;stroke-width:0.5;"/>
     </g>
     <g id="line2d_109">
      <g>
       <use style="stroke:#000000;stroke-width:0.5;" x="70.8" xlink:href="#m9d805b25e9" y="29.6868007426"/>
      </g>
     </g>
     <g id="line2d_110">
      <g>
       <use style="stroke:#000000;stroke-width:0.5;" x="427.92" xlink:href="#m7ab5e6b2ee" y="29.6868007426"/>
      </g>
     </g>
     <g id="text_11">
      <!-- 1.0 -->
      <g transform="translate(34.99375 35.2055507426)scale(0.2 -0.2)">
       <use xlink:href="#BitstreamVeraSans-Roman-31"/>
       <use x="63.623046875" xlink:href="#BitstreamVeraSans-Roman-2e"/>
       <use x="95.41015625" xlink:href="#BitstreamVeraSans-Roman-30"/>
      </g>
     </g>
    </g>
    <g id="text_12">
     <!-- Proportion of function+target pairs -->
     <defs>
      <path d="M 19.671875 64.796875 
L 19.671875 37.40625 
L 32.078125 37.40625 
Q 38.96875 37.40625 42.71875 40.96875 
Q 46.484375 44.53125 46.484375 51.125 
Q 46.484375 57.671875 42.71875 61.234375 
Q 38.96875 64.796875 32.078125 64.796875 
z
M 9.8125 72.90625 
L 32.078125 72.90625 
Q 44.34375 72.90625 50.609375 67.359375 
Q 56.890625 61.8125 56.890625 51.125 
Q 56.890625 40.328125 50.609375 34.8125 
Q 44.34375 29.296875 32.078125 29.296875 
L 19.671875 29.296875 
L 19.671875 0 
L 9.8125 0 
z
" id="BitstreamVeraSans-Roman-50"/>
      <path d="M 46 62.703125 
L 46 35.5 
L 73.1875 35.5 
L 73.1875 27.203125 
L 46 27.203125 
L 46 0 
L 37.796875 0 
L 37.796875 27.203125 
L 10.59375 27.203125 
L 10.59375 35.5 
L 37.796875 35.5 
L 37.796875 62.703125 
z
" id="BitstreamVeraSans-Roman-2b"/>
      <path d="M 18.109375 8.203125 
L 18.109375 -20.796875 
L 9.078125 -20.796875 
L 9.078125 54.6875 
L 18.109375 54.6875 
L 18.109375 46.390625 
Q 20.953125 51.265625 25.265625 53.625 
Q 29.59375 56 35.59375 56 
Q 45.5625 56 51.78125 48.09375 
Q 58.015625 40.1875 58.015625 27.296875 
Q 58.015625 14.40625 51.78125 6.484375 
Q 45.5625 -1.421875 35.59375 -1.421875 
Q 29.59375 -1.421875 25.265625 0.953125 
Q 20.953125 3.328125 18.109375 8.203125 
M 48.6875 27.296875 
Q 48.6875 37.203125 44.609375 42.84375 
Q 40.53125 48.484375 33.40625 48.484375 
Q 26.265625 48.484375 22.1875 42.84375 
Q 18.109375 37.203125 18.109375 27.296875 
Q 18.109375 17.390625 22.1875 11.75 
Q 26.265625 6.109375 33.40625 6.109375 
Q 40.53125 6.109375 44.609375 11.75 
Q 48.6875 17.390625 48.6875 27.296875 
" id="BitstreamVeraSans-Roman-70"/>
      <path d="M 18.3125 70.21875 
L 18.3125 54.6875 
L 36.8125 54.6875 
L 36.8125 47.703125 
L 18.3125 47.703125 
L 18.3125 18.015625 
Q 18.3125 11.328125 20.140625 9.421875 
Q 21.96875 7.515625 27.59375 7.515625 
L 36.8125 7.515625 
L 36.8125 0 
L 27.59375 0 
Q 17.1875 0 13.234375 3.875 
Q 9.28125 7.765625 9.28125 18.015625 
L 9.28125 47.703125 
L 2.6875 47.703125 
L 2.6875 54.6875 
L 9.28125 54.6875 
L 9.28125 70.21875 
z
" id="BitstreamVeraSans-Roman-74"/>
      <path d="M 8.5 21.578125 
L 8.5 54.6875 
L 17.484375 54.6875 
L 17.484375 21.921875 
Q 17.484375 14.15625 20.5 10.265625 
Q 23.53125 6.390625 29.59375 6.390625 
Q 36.859375 6.390625 41.078125 11.03125 
Q 45.3125 15.671875 45.3125 23.6875 
L 45.3125 54.6875 
L 54.296875 54.6875 
L 54.296875 0 
L 45.3125 0 
L 45.3125 8.40625 
Q 42.046875 3.421875 37.71875 1 
Q 33.40625 -1.421875 27.6875 -1.421875 
Q 18.265625 -1.421875 13.375 4.4375 
Q 8.5 10.296875 8.5 21.578125 
" id="BitstreamVeraSans-Roman-75"/>
      <path d="M 41.109375 46.296875 
Q 39.59375 47.171875 37.8125 47.578125 
Q 36.03125 48 33.890625 48 
Q 26.265625 48 22.1875 43.046875 
Q 18.109375 38.09375 18.109375 28.8125 
L 18.109375 0 
L 9.078125 0 
L 9.078125 54.6875 
L 18.109375 54.6875 
L 18.109375 46.1875 
Q 20.953125 51.171875 25.484375 53.578125 
Q 30.03125 56 36.53125 56 
Q 37.453125 56 38.578125 55.875 
Q 39.703125 55.765625 41.0625 55.515625 
z
" id="BitstreamVeraSans-Roman-72"/>
      <path d="M 48.78125 52.59375 
L 48.78125 44.1875 
Q 44.96875 46.296875 41.140625 47.34375 
Q 37.3125 48.390625 33.40625 48.390625 
Q 24.65625 48.390625 19.8125 42.84375 
Q 14.984375 37.3125 14.984375 27.296875 
Q 14.984375 17.28125 19.8125 11.734375 
Q 24.65625 6.203125 33.40625 6.203125 
Q 37.3125 6.203125 41.140625 7.25 
Q 44.96875 8.296875 48.78125 10.40625 
L 48.78125 2.09375 
Q 45.015625 0.34375 40.984375 -0.53125 
Q 36.96875 -1.421875 32.421875 -1.421875 
Q 20.0625 -1.421875 12.78125 6.34375 
Q 5.515625 14.109375 5.515625 27.296875 
Q 5.515625 40.671875 12.859375 48.328125 
Q 20.21875 56 33.015625 56 
Q 37.15625 56 41.109375 55.140625 
Q 45.0625 54.296875 48.78125 52.59375 
" id="BitstreamVeraSans-Roman-63"/>
     </defs>
     <g transform="translate(26.2503125 323.17875)rotate(-90.0)scale(0.18 -0.18)">
      <use xlink:href="#BitstreamVeraSans-Roman-50"/>
      <use x="60.287109375" xlink:href="#BitstreamVeraSans-Roman-72"/>
      <use x="101.369140625" xlink:href="#BitstreamVeraSans-Roman-6f"/>
      <use x="162.55078125" xlink:href="#BitstreamVeraSans-Roman-70"/>
      <use x="226.02734375" xlink:href="#BitstreamVeraSans-Roman-6f"/>
      <use x="287.208984375" xlink:href="#BitstreamVeraSans-Roman-72"/>
      <use x="328.322265625" xlink:href="#BitstreamVeraSans-Roman-74"/>
      <use x="367.53125" xlink:href="#BitstreamVeraSans-Roman-69"/>
      <use x="395.314453125" xlink:href="#BitstreamVeraSans-Roman-6f"/>
      <use x="456.49609375" xlink:href="#BitstreamVeraSans-Roman-6e"/>
      <use x="519.875" xlink:href="#BitstreamVeraSans-Roman-20"/>
      <use x="551.662109375" xlink:href="#BitstreamVeraSans-Roman-6f"/>
      <use x="612.84375" xlink:href="#BitstreamVeraSans-Roman-66"/>
      <use x="648.048828125" xlink:href="#BitstreamVeraSans-Roman-20"/>
      <use x="679.8359375" xlink:href="#BitstreamVeraSans-Roman-66"/>
      <use x="715.041015625" xlink:href="#BitstreamVeraSans-Roman-75"/>
      <use x="778.419921875" xlink:href="#BitstreamVeraSans-Roman-6e"/>
      <use x="841.798828125" xlink:href="#BitstreamVeraSans-Roman-63"/>
      <use x="896.779296875" xlink:href="#BitstreamVeraSans-Roman-74"/>
      <use x="935.98828125" xlink:href="#BitstreamVeraSans-Roman-69"/>
      <use x="963.771484375" xlink:href="#BitstreamVeraSans-Roman-6f"/>
      <use x="1024.953125" xlink:href="#BitstreamVeraSans-Roman-6e"/>
      <use x="1088.33203125" xlink:href="#BitstreamVeraSans-Roman-2b"/>
      <use x="1172.12109375" xlink:href="#BitstreamVeraSans-Roman-74"/>
      <use x="1211.33007812" xlink:href="#BitstreamVeraSans-Roman-61"/>
      <use x="1272.609375" xlink:href="#BitstreamVeraSans-Roman-72"/>
      <use x="1313.70703125" xlink:href="#BitstreamVeraSans-Roman-67"/>
      <use x="1377.18359375" xlink:href="#BitstreamVeraSans-Roman-65"/>
      <use x="1438.70703125" xlink:href="#BitstreamVeraSans-Roman-74"/>
      <use x="1477.91601562" xlink:href="#BitstreamVeraSans-Roman-20"/>
      <use x="1509.703125" xlink:href="#BitstreamVeraSans-Roman-70"/>
      <use x="1573.1796875" xlink:href="#BitstreamVeraSans-Roman-61"/>
      <use x="1634.45898438" xlink:href="#BitstreamVeraSans-Roman-69"/>
      <use x="1662.2421875" xlink:href="#BitstreamVeraSans-Roman-72"/>
      <use x="1703.35546875" xlink:href="#BitstreamVeraSans-Roman-73"/>
     </g>
    </g>
   </g>
   <g id="text_13">
    <!-- standard ga -->
    <g transform="translate(396.24 302.093586015)scale(0.15 -0.15)">
     <use xlink:href="#BitstreamVeraSans-Roman-73"/>
     <use x="52.099609375" xlink:href="#BitstreamVeraSans-Roman-74"/>
     <use x="91.30859375" xlink:href="#BitstreamVeraSans-Roman-61"/>
     <use x="152.587890625" xlink:href="#BitstreamVeraSans-Roman-6e"/>
     <use x="215.966796875" xlink:href="#BitstreamVeraSans-Roman-64"/>
     <use x="279.443359375" xlink:href="#BitstreamVeraSans-Roman-61"/>
     <use x="340.72265625" xlink:href="#BitstreamVeraSans-Roman-72"/>
     <use x="381.8203125" xlink:href="#BitstreamVeraSans-Roman-64"/>
     <use x="445.296875" xlink:href="#BitstreamVeraSans-Roman-20"/>
     <use x="477.083984375" xlink:href="#BitstreamVeraSans-Roman-67"/>
     <use x="540.560546875" xlink:href="#BitstreamVeraSans-Roman-61"/>
    </g>
   </g>
   <g id="text_14">
    <!-- migration ga -->
    <g transform="translate(396.24 214.495962252)scale(0.15 -0.15)">
     <use xlink:href="#BitstreamVeraSans-Roman-6d"/>
     <use x="97.412109375" xlink:href="#BitstreamVeraSans-Roman-69"/>
     <use x="125.1953125" xlink:href="#BitstreamVeraSans-Roman-67"/>
     <use x="188.671875" xlink:href="#BitstreamVeraSans-Roman-72"/>
     <use x="229.78515625" xlink:href="#BitstreamVeraSans-Roman-61"/>
     <use x="291.064453125" xlink:href="#BitstreamVeraSans-Roman-74"/>
     <use x="330.2734375" xlink:href="#BitstreamVeraSans-Roman-69"/>
     <use x="358.056640625" xlink:href="#BitstreamVeraSans-Roman-6f"/>
     <use x="419.23828125" xlink:href="#BitstreamVeraSans-Roman-6e"/>
     <use x="482.6171875" xlink:href="#BitstreamVeraSans-Roman-20"/>
     <use x="514.404296875" xlink:href="#BitstreamVeraSans-Roman-67"/>
     <use x="577.880859375" xlink:href="#BitstreamVeraSans-Roman-61"/>
    </g>
   </g>
   <g id="text_15">
    <!-- diffusion ga -->
    <g transform="translate(396.24 126.89833849)scale(0.15 -0.15)">
     <use xlink:href="#BitstreamVeraSans-Roman-64"/>
     <use x="63.4765625" xlink:href="#BitstreamVeraSans-Roman-69"/>
     <use x="91.259765625" xlink:href="#BitstreamVeraSans-Roman-66"/>
     <use x="126.46484375" xlink:href="#BitstreamVeraSans-Roman-66"/>
     <use x="161.669921875" xlink:href="#BitstreamVeraSans-Roman-75"/>
     <use x="225.048828125" xlink:href="#BitstreamVeraSans-Roman-73"/>
     <use x="277.1484375" xlink:href="#BitstreamVeraSans-Roman-69"/>
     <use x="304.931640625" xlink:href="#BitstreamVeraSans-Roman-6f"/>
     <use x="366.11328125" xlink:href="#BitstreamVeraSans-Roman-6e"/>
     <use x="429.4921875" xlink:href="#BitstreamVeraSans-Roman-20"/>
     <use x="461.279296875" xlink:href="#BitstreamVeraSans-Roman-67"/>
     <use x="524.755859375" xlink:href="#BitstreamVeraSans-Roman-61"/>
    </g>
   </g>
   <g id="text_16">
    <!-- best 2009 -->
    <defs>
     <path d="M 10.984375 1.515625 
L 10.984375 10.5 
Q 14.703125 8.734375 18.5 7.8125 
Q 22.3125 6.890625 25.984375 6.890625 
Q 35.75 6.890625 40.890625 13.453125 
Q 46.046875 20.015625 46.78125 33.40625 
Q 43.953125 29.203125 39.59375 26.953125 
Q 35.25 24.703125 29.984375 24.703125 
Q 19.046875 24.703125 12.671875 31.3125 
Q 6.296875 37.9375 6.296875 49.421875 
Q 6.296875 60.640625 12.9375 67.421875 
Q 19.578125 74.21875 30.609375 74.21875 
Q 43.265625 74.21875 49.921875 64.515625 
Q 56.59375 54.828125 56.59375 36.375 
Q 56.59375 19.140625 48.40625 8.859375 
Q 40.234375 -1.421875 26.421875 -1.421875 
Q 22.703125 -1.421875 18.890625 -0.6875 
Q 15.09375 0.046875 10.984375 1.515625 
M 30.609375 32.421875 
Q 37.25 32.421875 41.125 36.953125 
Q 45.015625 41.5 45.015625 49.421875 
Q 45.015625 57.28125 41.125 61.84375 
Q 37.25 66.40625 30.609375 66.40625 
Q 23.96875 66.40625 20.09375 61.84375 
Q 16.21875 57.28125 16.21875 49.421875 
Q 16.21875 41.5 20.09375 36.953125 
Q 23.96875 32.421875 30.609375 32.421875 
" id="BitstreamVeraSans-Roman-39"/>
     <path d="M 48.6875 27.296875 
Q 48.6875 37.203125 44.609375 42.84375 
Q 40.53125 48.484375 33.40625 48.484375 
Q 26.265625 48.484375 22.1875 42.84375 
Q 18.109375 37.203125 18.109375 27.296875 
Q 18.109375 17.390625 22.1875 11.75 
Q 26.265625 6.109375 33.40625 6.109375 
Q 40.53125 6.109375 44.609375 11.75 
Q 48.6875 17.390625 48.6875 27.296875 
M 18.109375 46.390625 
Q 20.953125 51.265625 25.265625 53.625 
Q 29.59375 56 35.59375 56 
Q 45.5625 56 51.78125 48.09375 
Q 58.015625 40.1875 58.015625 27.296875 
Q 58.015625 14.40625 51.78125 6.484375 
Q 45.5625 -1.421875 35.59375 -1.421875 
Q 29.59375 -1.421875 25.265625 0.953125 
Q 20.953125 3.328125 18.109375 8.203125 
L 18.109375 0 
L 9.078125 0 
L 9.078125 75.984375 
L 18.109375 75.984375 
z
" id="BitstreamVeraSans-Roman-62"/>
    </defs>
    <g transform="translate(396.24 39.3007147277)scale(0.15 -0.15)">
     <use xlink:href="#BitstreamVeraSans-Roman-62"/>
     <use x="63.4765625" xlink:href="#BitstreamVeraSans-Roman-65"/>
     <use x="125.0" xlink:href="#BitstreamVeraSans-Roman-73"/>
     <use x="177.099609375" xlink:href="#BitstreamVeraSans-Roman-74"/>
     <use x="216.30859375" xlink:href="#BitstreamVeraSans-Roman-20"/>
     <use x="248.095703125" xlink:href="#BitstreamVeraSans-Roman-32"/>
     <use x="311.71875" xlink:href="#BitstreamVeraSans-Roman-30"/>
     <use x="375.341796875" xlink:href="#BitstreamVeraSans-Roman-30"/>
     <use x="438.96484375" xlink:href="#BitstreamVeraSans-Roman-39"/>
    </g>
   </g>
   <g id="text_17">
    <!-- f10-14,2-D -->
    <defs>
     <path d="M 11.71875 12.40625 
L 22.015625 12.40625 
L 22.015625 4 
L 14.015625 -11.625 
L 7.71875 -11.625 
L 11.71875 4 
z
" id="BitstreamVeraSans-Roman-2c"/>
     <path d="M 19.671875 64.796875 
L 19.671875 8.109375 
L 31.59375 8.109375 
Q 46.6875 8.109375 53.6875 14.9375 
Q 60.6875 21.78125 60.6875 36.53125 
Q 60.6875 51.171875 53.6875 57.984375 
Q 46.6875 64.796875 31.59375 64.796875 
z
M 9.8125 72.90625 
L 30.078125 72.90625 
Q 51.265625 72.90625 61.171875 64.09375 
Q 71.09375 55.28125 71.09375 36.53125 
Q 71.09375 17.671875 61.125 8.828125 
Q 51.171875 0 30.078125 0 
L 9.8125 0 
z
" id="BitstreamVeraSans-Roman-44"/>
    </defs>
    <g transform="translate(74.3712 47.67585)scale(0.2 -0.2)">
     <use xlink:href="#BitstreamVeraSans-Roman-66"/>
     <use x="35.205078125" xlink:href="#BitstreamVeraSans-Roman-31"/>
     <use x="98.828125" xlink:href="#BitstreamVeraSans-Roman-30"/>
     <use x="162.451171875" xlink:href="#BitstreamVeraSans-Roman-2d"/>
     <use x="198.53515625" xlink:href="#BitstreamVeraSans-Roman-31"/>
     <use x="262.158203125" xlink:href="#BitstreamVeraSans-Roman-34"/>
     <use x="325.78125" xlink:href="#BitstreamVeraSans-Roman-2c"/>
     <use x="357.568359375" xlink:href="#BitstreamVeraSans-Roman-32"/>
     <use x="421.19140625" xlink:href="#BitstreamVeraSans-Roman-2d"/>
     <use x="457.275390625" xlink:href="#BitstreamVeraSans-Roman-44"/>
    </g>
   </g>
  </g>
 </g>
 <defs>
  <clipPath id="p5abf2a3709">
   <rect height="276.48" width="357.12" x="70.8" y="26.949375"/>
  </clipPath>
 </defs>
</svg>
