<?xml version="1.0" encoding="utf-8" standalone="no"?>
<!DOCTYPE svg PUBLIC "-//W3C//DTD SVG 1.1//EN"
  "http://www.w3.org/Graphics/SVG/1.1/DTD/svg11.dtd">
<!-- Created with matplotlib (http://matplotlib.org/) -->
<svg height="356pt" version="1.1" viewBox="0 0 499 356" width="499pt" xmlns="http://www.w3.org/2000/svg" xmlns:xlink="http://www.w3.org/1999/xlink">
 <defs>
  <style type="text/css">
*{stroke-linecap:butt;stroke-linejoin:round;stroke-miterlimit:100000;}
  </style>
 </defs>
 <g id="figure_1">
  <g id="patch_1">
   <path d="M 0 356.40625 
L 499.313438 356.40625 
L 499.313438 0 
L 0 0 
z
" style="fill:#ffffff;"/>
  </g>
  <g id="axes_1">
   <g id="patch_2">
    <path d="M 70.8 303.429375 
L 427.92 303.429375 
L 427.92 26.949375 
L 70.8 26.949375 
z
" style="fill:#ffffff;"/>
   </g>
   <g id="line2d_1">
    <path d="M 24.99636 303.429375 
L 24.99636 283.496663 
L 53.895239 283.496663 
L 53.895239 273.928962 
L 70.8 273.928962 
L 70.8 265.424338 
L 82.794119 265.424338 
L 82.794119 261.969335 
L 92.09748 261.969335 
L 92.09748 255.590867 
L 99.69888 255.590867 
L 99.69888 251.604325 
L 106.125771 251.604325 
L 106.125771 248.149321 
L 111.692998 248.149321 
L 111.692998 230.874304 
L 116.60364 230.874304 
L 116.60364 228.482379 
L 120.99636 228.482379 
L 120.99636 221.306603 
L 124.970057 221.306603 
L 124.970057 216.788521 
L 128.597759 216.788521 
L 128.597759 214.662365 
L 131.934921 214.662365 
L 131.934921 210.941593 
L 135.024651 210.941593 
L 135.024651 205.626203 
L 137.90112 205.626203 
L 137.90112 203.500047 
L 140.591878 203.500047 
L 140.591878 201.63966 
L 143.119456 201.63966 
L 143.119456 194.463884 
L 145.50252 194.463884 
L 145.50252 191.008881 
L 147.756705 191.008881 
L 147.756705 188.351186 
L 149.895239 188.351186 
L 149.895239 185.959261 
L 151.929412 185.959261 
L 151.929412 181.441179 
L 153.868937 181.441179 
L 153.868937 179.315023 
L 155.722232 179.315023 
L 155.722232 177.188867 
L 157.496639 177.188867 
L 157.496639 175.062712 
L 159.1986 175.062712 
L 159.1986 170.8104 
L 160.833801 170.8104 
L 160.833801 168.950013 
L 162.407281 168.950013 
L 162.407281 165.760779 
L 163.923531 165.760779 
L 163.923531 163.634623 
L 165.386567 163.634623 
L 165.386567 158.850773 
L 166.8 158.850773 
L 166.8 156.458847 
L 168.167082 156.458847 
L 168.167082 154.86423 
L 169.490757 154.86423 
L 169.490757 153.269613 
L 170.773698 153.269613 
L 170.773698 149.017302 
L 172.018336 149.017302 
L 172.018336 146.625376 
L 173.226892 146.625376 
L 173.226892 144.49922 
L 174.4014 144.49922 
L 174.4014 139.715369 
L 175.543725 139.715369 
L 175.543725 134.665749 
L 176.655585 134.665749 
L 176.655585 133.336902 
L 177.738562 133.336902 
L 177.738562 131.476515 
L 178.794119 131.476515 
L 178.794119 128.021512 
L 179.82361 128.021512 
L 179.82361 126.161125 
L 180.828291 126.161125 
L 180.828291 125.098047 
L 181.809331 125.098047 
L 181.809331 123.7692 
L 182.767816 123.7692 
L 182.767816 121.908814 
L 183.704761 121.908814 
L 183.704761 121.111505 
L 184.621111 121.111505 
L 184.621111 120.048427 
L 185.517754 120.048427 
L 185.517754 119.516888 
L 186.395518 119.516888 
L 186.395518 118.985349 
L 187.255183 118.985349 
L 187.255183 117.124963 
L 188.09748 117.124963 
L 188.09748 116.593424 
L 188.923096 116.593424 
L 188.923096 116.327654 
L 189.732681 116.327654 
L 189.732681 115.796115 
L 190.526843 115.796115 
L 190.526843 112.075343 
L 191.30616 112.075343 
L 191.30616 109.683417 
L 192.071178 109.683417 
L 192.071178 109.151878 
L 192.82241 109.151878 
L 192.82241 108.620339 
L 193.560346 108.620339 
L 193.560346 106.494183 
L 194.285447 106.494183 
L 194.285447 105.962644 
L 195.69888 105.962644 
L 195.69888 102.241871 
L 196.388024 102.241871 
L 196.388024 97.72379 
L 197.065962 97.72379 
L 197.065962 97.192251 
L 199.036042 97.192251 
L 199.036042 93.205709 
L 199.672577 93.205709 
L 199.672577 92.939939 
L 200.917215 92.939939 
L 200.917215 91.876861 
L 201.525872 91.876861 
L 201.525872 90.016475 
L 202.717161 90.016475 
L 202.717161 89.750705 
L 203.300279 89.750705 
L 203.300279 88.156088 
L 203.875354 88.156088 
L 203.875354 87.624549 
L 204.442605 87.624549 
L 204.442605 87.09301 
L 205.002241 87.09301 
L 205.002241 86.827241 
L 205.554464 86.827241 
L 205.554464 84.966855 
L 206.099469 84.966855 
L 206.099469 82.840699 
L 206.637441 82.840699 
L 206.637441 82.30916 
L 208.210921 82.30916 
L 208.210921 80.714543 
L 208.722489 80.714543 
L 208.722489 80.448773 
L 210.220576 80.448773 
L 210.220576 77.791078 
L 212.1378 77.791078 
L 212.1378 75.664922 
L 213.970723 75.664922 
L 213.970723 73.272997 
L 215.726446 73.272997 
L 215.726446 68.489146 
L 217.411211 68.489146 
L 217.411211 63.439526 
L 219.030532 63.439526 
L 219.030532 60.781831 
L 219.817202 60.781831 
L 219.817202 60.516062 
L 220.589303 60.516062 
L 220.589303 58.655675 
L 221.347366 58.655675 
L 221.347366 58.389906 
L 222.09189 58.389906 
L 222.09189 55.99798 
L 223.542202 55.99798 
L 223.542202 55.200672 
L 224.943755 55.200672 
L 224.943755 53.871824 
L 226.299721 53.871824 
L 226.299721 52.808746 
L 226.631932 52.808746 
L 226.631932 52.011438 
L 226.961517 52.011438 
L 226.961517 51.745668 
L 227.612972 51.745668 
L 227.612972 49.353743 
L 227.934921 49.353743 
L 227.934921 48.822204 
L 228.886117 48.822204 
L 228.886117 47.759126 
L 230.121534 47.759126 
L 230.121534 46.961818 
L 230.424752 46.961818 
L 230.424752 45.63297 
L 231.321394 45.63297 
L 231.321394 45.101431 
L 232.487688 45.101431 
L 232.487688 44.038353 
L 233.341484 44.038353 
L 233.341484 43.506814 
L 233.622241 43.506814 
L 233.622241 42.443736 
L 234.726737 42.443736 
L 234.726737 41.380658 
L 235.268203 41.380658 
L 235.268203 40.58335 
L 237.109801 40.58335 
L 237.109801 40.051811 
L 237.874818 40.051811 
L 237.874818 39.786041 
L 238.626051 39.786041 
L 238.626051 39.520272 
L 238.873483 39.520272 
L 238.873483 38.988733 
L 239.60709 38.988733 
L 239.60709 38.722963 
L 239.848785 38.722963 
L 239.848785 37.659885 
L 240.089087 37.659885 
L 240.089087 37.394116 
L 241.270251 37.394116 
L 241.270251 36.862577 
L 241.733503 36.862577 
L 241.733503 36.331038 
L 242.191664 36.331038 
L 242.191664 36.065268 
L 244.193278 36.065268 
L 244.193278 35.799499 
L 246.103181 35.799499 
L 246.103181 35.002191 
L 246.720856 35.002191 
L 246.720856 34.470652 
L 246.92473 34.470652 
L 246.92473 33.939113 
L 249.296494 33.939113 
L 249.296494 33.673343 
L 252.972201 33.673343 
L 252.972201 33.141804 
L 256.349939 33.141804 
L 256.349939 32.876035 
L 256.511851 32.876035 
L 256.511851 32.344496 
L 256.993848 32.344496 
L 256.993848 32.078726 
L 259.474417 32.078726 
L 259.474417 31.812957 
L 260.661466 31.812957 
L 260.661466 31.547187 
L 265.098049 31.547187 
L 265.098049 31.015648 
L 271.31775 31.015648 
L 271.31775 29.95257 
L 279.797308 29.95257 
L 279.797308 29.686801 
L 358.8 29.686801 
L 358.8 29.686801 
" style="fill:none;stroke:#f5deb3;stroke-linecap:square;stroke-width:6.0;"/>
   </g>
   <g id="line2d_2"/>
   <g id="line2d_3">
    <path d="M 358.8 29.686801 
L 390.48 35.161652 
" style="fill:none;stroke:#f5deb3;stroke-linecap:square;stroke-width:6.0;"/>
    <defs>
     <path d="M -0 7.778175 
L 7.778175 0 
L 0 -7.778175 
L -7.778175 -0 
z
" id="mfeea9cd9a5" style="stroke:#f5deb3;stroke-linejoin:miter;stroke-width:1.5;"/>
    </defs>
    <g>
     <use style="fill:#f5deb3;stroke:#f5deb3;stroke-linejoin:miter;stroke-width:1.5;" x="358.8" xlink:href="#mfeea9cd9a5" y="29.6868007426"/>
     <use style="fill:#f5deb3;stroke:#f5deb3;stroke-linejoin:miter;stroke-width:1.5;" x="390.48" xlink:href="#mfeea9cd9a5" y="35.1616522277"/>
    </g>
   </g>
   <g id="line2d_4">
    <defs>
     <path d="M 0 1.5 
C 0.397805 1.5 0.77937 1.341951 1.06066 1.06066 
C 1.341951 0.77937 1.5 0.397805 1.5 0 
C 1.5 -0.397805 1.341951 -0.77937 1.06066 -1.06066 
C 0.77937 -1.341951 0.397805 -1.5 0 -1.5 
C -0.397805 -1.5 -0.77937 -1.341951 -1.06066 -1.06066 
C -1.341951 -0.77937 -1.5 -0.397805 -1.5 0 
C -1.5 0.397805 -1.341951 0.77937 -1.06066 1.06066 
C -0.77937 1.341951 -0.397805 1.5 0 1.5 
z
" id="m7b92aaa0ed" style="stroke:#f5deb3;stroke-width:0.5;"/>
    </defs>
    <g>
     <use style="fill:#f5deb3;stroke:#f5deb3;stroke-width:0.5;" x="279.797307567" xlink:href="#m7b92aaa0ed" y="29.6868007426"/>
     <use style="fill:#f5deb3;stroke:#f5deb3;stroke-width:0.5;" x="279.797307567" xlink:href="#m7b92aaa0ed" y="29.6868007426"/>
    </g>
   </g>
   <g id="line2d_5">
    <g>
     <use style="fill:#f5deb3;stroke:#f5deb3;stroke-linejoin:miter;stroke-width:1.5;" x="53.8952391307" xlink:href="#mfeea9cd9a5" y="273.928961658"/>
     <use style="fill:#f5deb3;stroke:#f5deb3;stroke-linejoin:miter;stroke-width:1.5;" x="128.597759167" xlink:href="#mfeea9cd9a5" y="216.7885214"/>
     <use style="fill:#f5deb3;stroke:#f5deb3;stroke-linejoin:miter;stroke-width:1.5;" x="173.226891805" xlink:href="#mfeea9cd9a5" y="144.499220237"/>
     <use style="fill:#f5deb3;stroke:#f5deb3;stroke-linejoin:miter;stroke-width:1.5;" x="219.030532258" xlink:href="#mfeea9cd9a5" y="63.439525918"/>
     <use style="fill:#f5deb3;stroke:#f5deb3;stroke-linejoin:miter;stroke-width:1.5;" x="279.797307567" xlink:href="#mfeea9cd9a5" y="29.9525702321"/>
     <use style="fill:#f5deb3;stroke:#f5deb3;stroke-linejoin:miter;stroke-width:1.5;" x="358.8" xlink:href="#mfeea9cd9a5" y="29.6868007426"/>
    </g>
   </g>
   <g id="line2d_6">
    <defs>
     <path d="M 0 1.5 
C 0.397805 1.5 0.77937 1.341951 1.06066 1.06066 
C 1.341951 0.77937 1.5 0.397805 1.5 0 
C 1.5 -0.397805 1.341951 -0.77937 1.06066 -1.06066 
C 0.77937 -1.341951 0.397805 -1.5 0 -1.5 
C -0.397805 -1.5 -0.77937 -1.341951 -1.06066 -1.06066 
C -1.341951 -0.77937 -1.5 -0.397805 -1.5 0 
C -1.5 0.397805 -1.341951 0.77937 -1.06066 1.06066 
C -0.77937 1.341951 -0.397805 1.5 0 1.5 
z
" id="me018a143e3" style="stroke:#000080;stroke-width:0.5;"/>
    </defs>
    <g>
     <use style="fill:#000080;stroke:#000080;stroke-width:0.5;" x="423.226666073" xlink:href="#me018a143e3" y="154.598460841"/>
     <use style="fill:#000080;stroke:#000080;stroke-width:0.5;" x="423.226666073" xlink:href="#me018a143e3" y="154.598460841"/>
    </g>
   </g>
   <g id="line2d_7">
    <path d="M 24.99636 303.429375 
L 24.99636 289.343592 
L 53.895239 289.343592 
L 53.895239 280.04166 
L 70.8 280.04166 
L 70.8 272.068575 
L 82.794119 272.068575 
L 82.794119 267.284724 
L 92.09748 267.284724 
L 92.09748 258.248562 
L 99.69888 258.248562 
L 99.69888 252.933172 
L 106.125771 252.933172 
L 106.125771 249.743938 
L 111.692998 249.743938 
L 111.692998 248.149321 
L 116.60364 248.149321 
L 116.60364 245.491626 
L 120.99636 245.491626 
L 120.99636 242.568162 
L 124.970057 242.568162 
L 124.970057 240.442006 
L 128.597759 240.442006 
L 128.597759 238.847389 
L 131.934921 238.847389 
L 131.934921 238.58162 
L 135.024651 238.58162 
L 135.024651 238.050081 
L 140.591878 238.050081 
L 140.591878 235.658155 
L 143.119456 235.658155 
L 143.119456 234.063538 
L 145.50252 234.063538 
L 145.50252 230.608535 
L 149.895239 230.608535 
L 149.895239 229.811226 
L 151.929412 229.811226 
L 151.929412 229.279687 
L 155.722232 229.279687 
L 155.722232 227.419301 
L 157.496639 227.419301 
L 157.496639 222.90122 
L 159.1986 222.90122 
L 159.1986 222.369681 
L 160.833801 222.369681 
L 160.833801 221.838142 
L 163.923531 221.838142 
L 163.923531 220.243525 
L 168.167082 220.243525 
L 168.167082 219.180447 
L 169.490757 219.180447 
L 169.490757 217.32006 
L 170.773698 217.32006 
L 170.773698 217.054291 
L 173.226892 217.054291 
L 173.226892 216.522752 
L 174.4014 216.522752 
L 174.4014 215.459674 
L 175.543725 215.459674 
L 175.543725 214.662365 
L 178.794119 214.662365 
L 178.794119 214.396596 
L 179.82361 214.396596 
L 179.82361 213.865057 
L 180.828291 213.865057 
L 180.828291 213.333518 
L 181.809331 213.333518 
L 181.809331 212.004671 
L 183.704761 212.004671 
L 183.704761 211.473132 
L 184.621111 211.473132 
L 184.621111 210.675823 
L 188.09748 210.675823 
L 188.09748 209.081206 
L 191.30616 209.081206 
L 191.30616 208.549667 
L 196.388024 208.549667 
L 196.388024 208.283898 
L 198.389637 208.283898 
L 198.389637 203.234277 
L 202.717161 203.234277 
L 202.717161 202.968508 
L 207.16856 202.968508 
L 207.16856 202.702738 
L 208.722489 202.702738 
L 208.722489 202.171199 
L 209.227856 202.171199 
L 209.227856 201.63966 
L 210.220576 201.63966 
L 210.220576 200.310813 
L 210.708211 200.310813 
L 210.708211 200.045044 
L 213.064333 200.045044 
L 213.064333 199.779274 
L 213.519991 199.779274 
L 213.519991 199.247735 
L 216.99636 199.247735 
L 216.99636 198.981966 
L 219.030532 198.981966 
L 219.030532 198.184657 
L 219.817202 198.184657 
L 219.817202 197.653118 
L 226.631932 197.653118 
L 226.631932 197.387349 
L 231.908619 197.387349 
L 231.908619 196.85581 
L 232.199159 196.85581 
L 232.199159 196.59004 
L 235.536321 196.59004 
L 235.536321 195.792732 
L 244.625326 195.792732 
L 244.625326 195.261193 
L 245.052942 195.261193 
L 245.052942 194.729654 
L 246.720856 194.729654 
L 246.720856 194.198115 
L 249.296494 194.198115 
L 249.296494 193.666576 
L 251.540566 193.666576 
L 251.540566 193.135037 
L 254.695267 193.135037 
L 254.695267 192.603498 
L 255.530811 192.603498 
L 255.530811 191.806189 
L 256.187396 191.806189 
L 256.187396 191.54042 
L 258.0973 191.54042 
L 258.0973 191.008881 
L 258.407281 191.008881 
L 258.407281 190.743111 
L 258.714974 190.743111 
L 258.714974 190.477342 
L 260.953022 190.477342 
L 260.953022 189.680033 
L 261.957703 189.680033 
L 261.957703 188.616956 
L 263.077026 188.616956 
L 263.077026 187.819647 
L 263.489144 187.819647 
L 263.489144 187.553878 
L 264.301357 187.553878 
L 264.301357 187.288108 
L 265.229363 187.288108 
L 265.229363 186.756569 
L 265.879802 186.756569 
L 265.879802 186.4908 
L 266.008681 186.4908 
L 266.008681 185.693491 
L 267.025616 185.693491 
L 267.025616 185.427722 
L 269.226892 185.427722 
L 269.226892 185.161952 
L 270.862092 185.161952 
L 270.862092 183.833105 
L 272.983442 183.833105 
L 272.983442 183.567335 
L 273.20059 183.567335 
L 273.20059 183.301566 
L 275.312042 183.301566 
L 275.312042 183.035796 
L 275.517423 183.035796 
L 275.517423 182.770027 
L 280.256984 182.770027 
L 280.256984 182.504257 
L 282.827566 182.504257 
L 282.827566 182.238488 
L 284.429691 182.238488 
L 284.429691 181.972718 
L 285.491452 181.972718 
L 285.491452 181.706949 
L 287.843143 181.706949 
L 287.843143 181.17541 
L 288.52354 181.17541 
L 288.52354 180.90964 
L 289.4138 180.90964 
L 289.4138 180.378101 
L 289.560346 180.378101 
L 289.560346 180.112332 
L 291.837623 180.112332 
L 291.837623 179.315023 
L 292.931253 179.315023 
L 292.931253 178.783484 
L 295.036042 178.783484 
L 295.036042 177.986176 
L 295.924495 177.986176 
L 295.924495 176.923098 
L 297.586252 176.923098 
L 297.586252 176.657328 
L 298.540623 176.657328 
L 298.540623 176.391559 
L 303.90094 176.391559 
L 303.90094 176.125789 
L 306.073167 176.125789 
L 306.073167 175.594251 
L 306.513841 175.594251 
L 306.513841 175.328481 
L 307.094253 175.328481 
L 307.094253 174.796942 
L 307.997027 174.796942 
L 307.997027 174.265403 
L 308.696187 174.265403 
L 308.696187 173.999634 
L 310.549482 173.999634 
L 310.549482 173.733864 
L 310.857826 173.733864 
L 310.857826 173.468095 
L 311.467755 173.468095 
L 311.467755 172.670786 
L 313.204301 172.670786 
L 313.204301 172.405017 
L 315.268096 172.405017 
L 315.268096 172.139247 
L 317.121391 172.139247 
L 317.121391 171.607708 
L 318.714448 171.607708 
L 318.714448 171.341939 
L 319.470872 171.341939 
L 319.542202 170.278861 
L 322.764079 170.278861 
L 322.764079 169.747322 
L 324.158816 169.747322 
L 324.158816 169.481552 
L 327.143602 169.481552 
L 327.143602 169.215783 
L 328.401339 169.215783 
L 328.401339 168.684244 
L 329.002061 168.684244 
L 329.002061 168.152705 
L 331.268203 168.152705 
L 331.268203 167.621166 
L 331.643087 167.621166 
L 331.643087 167.089627 
L 335.824679 167.089627 
L 335.824679 166.823857 
L 338.350839 166.823857 
L 338.350839 166.558088 
L 342.863672 166.558088 
L 342.863672 165.760779 
L 343.670515 165.760779 
L 343.670515 165.49501 
L 345.181056 165.49501 
L 345.181056 164.963471 
L 348.029259 164.963471 
L 348.029259 164.697701 
L 350.13449 164.697701 
L 350.13449 164.431932 
L 350.593867 164.431932 
L 350.593867 164.166162 
L 353.659417 164.166162 
L 353.659417 163.900393 
L 355.384011 163.900393 
L 355.384011 163.634623 
L 358.056853 163.634623 
L 358.056853 163.368854 
L 358.618941 163.368854 
L 358.618941 163.103085 
L 358.8 163.103085 
L 358.8 163.103085 
" style="fill:none;stroke:#000080;stroke-linecap:square;stroke-width:1.5;"/>
   </g>
   <g id="line2d_8">
    <defs>
     <path d="M 0 6 
C 1.591219 6 3.117479 5.367802 4.242641 4.242641 
C 5.367802 3.117479 6 1.591219 6 0 
C 6 -1.591219 5.367802 -3.117479 4.242641 -4.242641 
C 3.117479 -5.367802 1.591219 -6 0 -6 
C -1.591219 -6 -3.117479 -5.367802 -4.242641 -4.242641 
C -5.367802 -3.117479 -6 -1.591219 -6 0 
C -6 1.591219 -5.367802 3.117479 -4.242641 4.242641 
C -3.117479 5.367802 -1.591219 6 0 6 
z
" id="m593e79b6f3" style="stroke:#000080;stroke-width:1.5;"/>
    </defs>
    <g>
     <use style="fill:none;stroke:#000080;stroke-width:1.5;" x="53.8952391307" xlink:href="#m593e79b6f3" y="280.041659918"/>
     <use style="fill:none;stroke:#000080;stroke-width:1.5;" x="106.125771388" xlink:href="#m593e79b6f3" y="249.743938107"/>
     <use style="fill:none;stroke:#000080;stroke-width:1.5;" x="170.773697775" xlink:href="#m593e79b6f3" y="217.05429089"/>
     <use style="fill:none;stroke:#000080;stroke-width:1.5;" x="260.953021633" xlink:href="#m593e79b6f3" y="189.680033464"/>
     <use style="fill:none;stroke:#000080;stroke-width:1.5;" x="329.002060883" xlink:href="#m593e79b6f3" y="168.684243788"/>
     <use style="fill:none;stroke:#000080;stroke-width:1.5;" x="358.8" xlink:href="#m593e79b6f3" y="163.103084507"/>
    </g>
   </g>
   <g id="line2d_9"/>
   <g id="line2d_10">
    <path clip-path="url(#p822872393b)" d="M 262.8 188.616956 
" style="fill:none;stroke:#000080;stroke-linecap:square;"/>
    <defs>
     <path d="M -12 12 
L 12 -12 
M -12 -12 
L 12 12 
" id="m4b3b1b1b0f" style="stroke:#000080;stroke-width:3.0;"/>
    </defs>
    <g clip-path="url(#p822872393b)">
     <use style="fill:#000080;stroke:#000080;stroke-width:3.0;" x="262.8" xlink:href="#m4b3b1b1b0f" y="188.616955506"/>
    </g>
   </g>
   <g id="line2d_11">
    <defs>
     <path d="M 0 1.5 
C 0.397805 1.5 0.77937 1.341951 1.06066 1.06066 
C 1.341951 0.77937 1.5 0.397805 1.5 0 
C 1.5 -0.397805 1.341951 -0.77937 1.06066 -1.06066 
C 0.77937 -1.341951 0.397805 -1.5 0 -1.5 
C -0.397805 -1.5 -0.77937 -1.341951 -1.06066 -1.06066 
C -1.341951 -0.77937 -1.5 -0.397805 -1.5 0 
C -1.5 0.397805 -1.341951 0.77937 -1.06066 1.06066 
C -0.77937 1.341951 -0.397805 1.5 0 1.5 
z
" id="mb8c28c565e" style="stroke:#ff00ff;stroke-width:0.5;"/>
    </defs>
    <g>
     <use style="fill:#ff00ff;stroke:#ff00ff;stroke-width:0.5;" x="426.713109754" xlink:href="#mb8c28c565e" y="157.521925226"/>
     <use style="fill:#ff00ff;stroke:#ff00ff;stroke-width:0.5;" x="426.713109754" xlink:href="#mb8c28c565e" y="157.521925226"/>
    </g>
   </g>
   <g id="line2d_12">
    <path d="M 24.99636 303.429375 
L 24.99636 290.140901 
L 53.895239 290.140901 
L 53.895239 275.523579 
L 70.8 275.523579 
L 70.8 267.550494 
L 82.794119 267.550494 
L 82.794119 260.906257 
L 92.09748 260.906257 
L 92.09748 255.590867 
L 99.69888 255.590867 
L 99.69888 250.541247 
L 106.125771 250.541247 
L 106.125771 247.352013 
L 111.692998 247.352013 
L 111.692998 243.099701 
L 116.60364 243.099701 
L 116.60364 242.302392 
L 120.99636 242.302392 
L 120.99636 241.239314 
L 124.970057 241.239314 
L 124.970057 238.31585 
L 128.597759 238.31585 
L 128.597759 236.721233 
L 131.934921 236.721233 
L 131.934921 235.126616 
L 135.024651 235.126616 
L 135.024651 234.595077 
L 137.90112 234.595077 
L 137.90112 234.063538 
L 140.591878 234.063538 
L 140.591878 232.468921 
L 143.119456 232.468921 
L 143.119456 231.405843 
L 145.50252 231.405843 
L 145.50252 231.140074 
L 147.756705 231.140074 
L 147.756705 230.076996 
L 149.895239 230.076996 
L 149.895239 229.545457 
L 151.929412 229.545457 
L 151.929412 229.279687 
L 153.868937 229.279687 
L 153.868937 229.013918 
L 155.722232 229.013918 
L 155.722232 228.482379 
L 157.496639 228.482379 
L 157.496639 228.216609 
L 162.407281 228.216609 
L 162.407281 227.68507 
L 163.923531 227.68507 
L 163.923531 225.824684 
L 165.386567 225.824684 
L 165.386567 225.027376 
L 168.167082 225.027376 
L 168.167082 223.432759 
L 169.490757 223.432759 
L 169.490757 222.90122 
L 170.773698 222.90122 
L 170.773698 222.369681 
L 172.018336 222.369681 
L 172.018336 222.103911 
L 173.226892 222.103911 
L 173.226892 221.838142 
L 174.4014 221.838142 
L 174.4014 221.306603 
L 177.738562 221.306603 
L 177.738562 220.775064 
L 178.794119 220.775064 
L 178.794119 220.243525 
L 179.82361 220.243525 
L 179.82361 219.446216 
L 181.809331 219.446216 
L 181.809331 218.914677 
L 182.767816 218.914677 
L 182.767816 218.383138 
L 187.255183 218.383138 
L 187.255183 217.58583 
L 188.09748 217.58583 
L 188.09748 217.32006 
L 194.285447 217.32006 
L 194.285447 216.522752 
L 194.998153 216.522752 
L 194.998153 215.991213 
L 195.69888 215.991213 
L 195.69888 215.725443 
L 197.065962 215.725443 
L 197.065962 215.193904 
L 199.672577 215.193904 
L 199.672577 214.928135 
L 205.002241 214.928135 
L 205.002241 213.599288 
L 206.637441 213.599288 
L 206.637441 212.801979 
L 207.16856 212.801979 
L 207.16856 212.53621 
L 207.692998 212.53621 
L 207.692998 212.27044 
L 212.60364 212.27044 
L 212.60364 211.207362 
L 213.064333 211.207362 
L 213.064333 210.941593 
L 213.519991 210.941593 
L 213.519991 210.410054 
L 214.416633 210.410054 
L 214.416633 209.878515 
L 214.857826 209.878515 
L 214.857826 209.346976 
L 217.411211 209.346976 
L 217.411211 208.815437 
L 222.09189 208.815437 
L 222.09189 208.549667 
L 224.597759 208.549667 
L 224.597759 208.283898 
L 225.62725 208.283898 
L 225.62725 208.018128 
L 231.908619 208.018128 
L 231.908619 207.22082 
L 232.199159 207.22082 
L 232.199159 206.423511 
L 240.565576 206.423511 
L 240.565576 206.157742 
L 246.310091 206.157742 
L 246.310091 205.891972 
L 247.127613 205.891972 
L 247.127613 205.626203 
L 255.031497 205.626203 
L 255.031497 205.094664 
L 257.627963 205.094664 
L 257.627963 204.297355 
L 260.51492 204.297355 
L 260.51492 203.500047 
L 261.815651 203.500047 
L 261.815651 203.234277 
L 262.099273 203.234277 
L 262.099273 202.702738 
L 262.240364 202.702738 
L 262.240364 202.171199 
L 263.077026 202.171199 
L 263.077026 201.90543 
L 263.625616 201.90543 
L 263.625616 201.108122 
L 264.834173 201.108122 
L 264.834173 200.310813 
L 265.360265 200.310813 
L 265.360265 200.045044 
L 266.008681 200.045044 
L 266.008681 199.513505 
L 266.392944 199.513505 
L 266.392944 199.247735 
L 267.151006 199.247735 
L 267.151006 198.981966 
L 267.772363 198.981966 
L 267.772363 198.716196 
L 270.747396 198.716196 
L 270.747396 197.387349 
L 271.204302 197.387349 
L 271.204302 196.85581 
L 271.656255 196.85581 
L 271.656255 196.59004 
L 272.545724 196.59004 
L 272.655585 195.526962 
L 272.874442 195.526962 
L 272.874442 195.261193 
L 273.631521 195.261193 
L 273.631521 194.995423 
L 274.898219 194.995423 
L 274.898219 194.729654 
L 277.906177 194.729654 
L 277.906177 194.463884 
L 280.982086 194.463884 
L 280.982086 194.198115 
L 287.690424 194.198115 
L 287.690424 193.932345 
L 289.706378 193.932345 
L 289.706378 193.666576 
L 290.500541 193.666576 
L 290.500541 193.135037 
L 291.20961 193.135037 
L 291.20961 192.071959 
L 291.906822 192.071959 
L 291.975906 191.27465 
L 292.524496 191.27465 
L 292.524496 190.477342 
L 292.728371 190.477342 
L 292.728371 190.211572 
L 295.100134 190.211572 
L 295.100134 189.945803 
L 295.355524 189.945803 
L 295.355524 189.680033 
L 296.1749 189.680033 
L 296.1749 189.414264 
L 296.732872 189.414264 
L 296.732872 189.148494 
L 298.717161 189.148494 
L 298.717161 188.882725 
L 301.113272 188.882725 
L 301.113272 188.616956 
L 305.776775 188.616956 
L 305.776775 188.351186 
L 307.285942 188.351186 
L 307.285942 187.819647 
L 308.184619 187.819647 
L 308.184619 187.288108 
L 308.371371 187.288108 
L 308.371371 187.022339 
L 308.60364 187.022339 
L 308.60364 186.4908 
L 310.372256 186.4908 
L 310.372256 185.693491 
L 310.549482 185.693491 
L 310.549482 185.427722 
L 311.076683 185.427722 
L 311.120317 184.630413 
L 312.366238 184.630413 
L 312.366238 184.364644 
L 312.912892 184.364644 
L 312.912892 184.098874 
L 319.148369 184.098874 
L 319.184327 183.567335 
L 319.506553 183.567335 
L 319.506553 183.035796 
L 319.861685 183.035796 
L 319.861685 182.238488 
L 321.525438 182.238488 
L 321.525438 181.706949 
L 322.032033 181.706949 
L 322.099116 181.17541 
L 323.125337 181.17541 
L 323.125337 180.643871 
L 328.688477 180.643871 
L 328.688477 180.112332 
L 328.97365 180.112332 
L 328.97365 179.580793 
L 329.087176 179.580793 
L 329.087176 178.783484 
L 330.315972 178.783484 
L 330.315972 178.517715 
L 330.781201 178.517715 
L 330.781201 177.986176 
L 331.563038 177.986176 
L 331.563038 177.720406 
L 333.00673 177.720406 
L 333.00673 177.454637 
L 336.446963 177.454637 
L 336.446963 176.657328 
L 337.571949 176.657328 
L 337.571949 176.391559 
L 338.168875 176.391559 
L 338.168875 176.125789 
L 342.392568 176.125789 
L 342.433746 175.594251 
L 342.577548 175.594251 
L 342.577548 175.328481 
L 342.782123 175.328481 
L 342.863672 174.531173 
L 343.750347 174.531173 
L 343.750347 173.999634 
L 348.3519 173.999634 
L 348.441082 173.468095 
L 349.130226 173.468095 
L 349.130226 173.202325 
L 349.427094 173.202325 
L 349.427094 172.936556 
L 349.928687 172.936556 
L 349.928687 172.670786 
L 352.977871 172.670786 
L 352.977871 172.405017 
L 353.894569 172.405017 
L 353.894569 172.139247 
L 354.638264 172.139247 
L 354.638264 171.873478 
L 357.544411 171.873478 
L 357.544411 171.341939 
L 357.687389 171.341939 
L 357.687389 171.076169 
L 358.8 171.076169 
L 358.8 171.076169 
" style="fill:none;stroke:#ff00ff;stroke-linecap:square;stroke-width:1.5;"/>
   </g>
   <g id="line2d_13">
    <defs>
     <path d="M -0 8.485281 
L 5.091169 0 
L 0 -8.485281 
L -5.091169 -0 
z
" id="m5092f9c31b" style="stroke:#ff00ff;stroke-linejoin:miter;stroke-width:1.5;"/>
    </defs>
    <g>
     <use style="fill:none;stroke:#ff00ff;stroke-linejoin:miter;stroke-width:1.5;" x="82.7941187144" xlink:href="#m5092f9c31b" y="267.550493908"/>
     <use style="fill:none;stroke:#ff00ff;stroke-linejoin:miter;stroke-width:1.5;" x="128.597759167" xlink:href="#m5092f9c31b" y="238.315850055"/>
     <use style="fill:none;stroke:#ff00ff;stroke-linejoin:miter;stroke-width:1.5;" x="207.692998298" xlink:href="#m5092f9c31b" y="212.270440077"/>
     <use style="fill:none;stroke:#ff00ff;stroke-linejoin:miter;stroke-width:1.5;" x="295.100134449" xlink:href="#m5092f9c31b" y="189.945802953"/>
     <use style="fill:none;stroke:#ff00ff;stroke-linejoin:miter;stroke-width:1.5;" x="348.351900498" xlink:href="#m5092f9c31b" y="173.73386409"/>
     <use style="fill:none;stroke:#ff00ff;stroke-linejoin:miter;stroke-width:1.5;" x="358.8" xlink:href="#m5092f9c31b" y="171.076169194"/>
    </g>
   </g>
   <g id="line2d_14"/>
   <g id="line2d_15">
    <path clip-path="url(#p822872393b)" d="M 261.098038 203.500047 
" style="fill:none;stroke:#ff00ff;stroke-linecap:square;"/>
    <defs>
     <path d="M -12 12 
L 12 -12 
M -12 -12 
L 12 12 
" id="m283c50392e" style="stroke:#ff00ff;stroke-width:3.0;"/>
    </defs>
    <g clip-path="url(#p822872393b)">
     <use style="fill:#ff00ff;stroke:#ff00ff;stroke-width:3.0;" x="261.098038372" xlink:href="#m283c50392e" y="203.500046922"/>
    </g>
   </g>
   <g id="line2d_16">
    <defs>
     <path d="M 0 1.5 
C 0.397805 1.5 0.77937 1.341951 1.06066 1.06066 
C 1.341951 0.77937 1.5 0.397805 1.5 0 
C 1.5 -0.397805 1.341951 -0.77937 1.06066 -1.06066 
C 0.77937 -1.341951 0.397805 -1.5 0 -1.5 
C -0.397805 -1.5 -0.77937 -1.341951 -1.06066 -1.06066 
C -1.341951 -0.77937 -1.5 -0.397805 -1.5 0 
C -1.5 0.397805 -1.341951 0.77937 -1.06066 1.06066 
C -0.77937 1.341951 -0.397805 1.5 0 1.5 
z
" id="m3e333d4728" style="stroke:#ffa500;stroke-width:0.5;"/>
    </defs>
    <g>
     <use style="fill:#ffa500;stroke:#ffa500;stroke-width:0.5;" x="417.416562638" xlink:href="#m3e333d4728" y="154.598460841"/>
     <use style="fill:#ffa500;stroke:#ffa500;stroke-width:0.5;" x="417.416562638" xlink:href="#m3e333d4728" y="154.598460841"/>
    </g>
   </g>
   <g id="line2d_17">
    <path d="M 24.99636 303.429375 
L 24.99636 284.825511 
L 53.895239 284.825511 
L 53.895239 275.257809 
L 70.8 275.257809 
L 70.8 270.739728 
L 82.794119 270.739728 
L 82.794119 266.487416 
L 92.09748 266.487416 
L 92.09748 256.919714 
L 99.69888 256.919714 
L 99.69888 255.590867 
L 106.125771 255.590867 
L 106.125771 253.198941 
L 111.692998 253.198941 
L 111.692998 250.807016 
L 116.60364 250.807016 
L 116.60364 248.68086 
L 120.99636 248.68086 
L 120.99636 248.415091 
L 124.970057 248.415091 
L 124.970057 245.491626 
L 128.597759 245.491626 
L 128.597759 244.960087 
L 131.934921 244.960087 
L 131.934921 241.505084 
L 135.024651 241.505084 
L 135.024651 239.113159 
L 137.90112 239.113159 
L 137.90112 238.050081 
L 140.591878 238.050081 
L 140.591878 235.923925 
L 143.119456 235.923925 
L 143.119456 233.797769 
L 145.50252 233.797769 
L 145.50252 232.468921 
L 147.756705 232.468921 
L 147.756705 231.937382 
L 149.895239 231.937382 
L 149.895239 230.608535 
L 151.929412 230.608535 
L 151.929412 230.076996 
L 155.722232 230.076996 
L 155.722232 227.68507 
L 157.496639 227.68507 
L 157.496639 226.887762 
L 159.1986 226.887762 
L 159.1986 226.621993 
L 160.833801 226.621993 
L 160.833801 226.090454 
L 163.923531 226.090454 
L 163.923531 225.027376 
L 166.8 225.027376 
L 166.8 224.495837 
L 168.167082 224.495837 
L 168.167082 223.964298 
L 169.490757 223.964298 
L 169.490757 222.103911 
L 170.773698 222.103911 
L 170.773698 220.509294 
L 174.4014 220.509294 
L 174.4014 219.711986 
L 178.794119 219.711986 
L 178.794119 218.117369 
L 181.809331 218.117369 
L 181.809331 217.851599 
L 184.621111 217.851599 
L 184.621111 217.58583 
L 185.517754 217.58583 
L 185.517754 217.054291 
L 189.732681 217.054291 
L 189.732681 216.256982 
L 190.526843 216.256982 
L 190.526843 215.991213 
L 193.560346 215.991213 
L 193.560346 215.725443 
L 197.065962 215.725443 
L 197.065962 214.928135 
L 199.672577 214.928135 
L 199.672577 214.396596 
L 201.525872 214.396596 
L 201.525872 213.599288 
L 204.442605 213.599288 
L 204.442605 212.801979 
L 206.637441 212.801979 
L 206.637441 212.53621 
L 207.692998 212.53621 
L 207.692998 211.738901 
L 208.210921 211.738901 
L 208.210921 210.941593 
L 210.220576 210.941593 
L 210.220576 210.675823 
L 211.666696 210.675823 
L 211.666696 209.346976 
L 213.970723 209.346976 
L 213.970723 208.283898 
L 214.416633 208.283898 
L 214.416633 208.018128 
L 214.857826 208.018128 
L 214.857826 206.95505 
L 215.294398 206.95505 
L 215.294398 205.891972 
L 215.726446 205.891972 
L 215.726446 205.626203 
L 216.577338 205.626203 
L 216.577338 205.360433 
L 217.411211 205.360433 
L 217.411211 204.828894 
L 219.817202 204.828894 
L 219.817202 203.765816 
L 220.589303 203.765816 
L 220.589303 203.234277 
L 220.970057 203.234277 
L 220.970057 202.968508 
L 224.248868 202.968508 
L 224.248868 202.171199 
L 225.62725 202.171199 
L 225.62725 201.90543 
L 227.288517 201.90543 
L 227.288517 201.373891 
L 227.934921 201.373891 
L 227.934921 200.576583 
L 228.571457 200.576583 
L 228.571457 200.045044 
L 228.886117 200.045044 
L 228.886117 199.779274 
L 231.616041 199.779274 
L 231.616041 199.513505 
L 236.330483 199.513505 
L 236.330483 199.247735 
L 236.851644 199.247735 
L 236.851644 198.450427 
L 238.626051 198.450427 
L 238.626051 197.918888 
L 239.363986 197.918888 
L 239.363986 197.653118 
L 239.60709 197.653118 
L 239.60709 196.85581 
L 239.848785 196.85581 
L 239.848785 196.324271 
L 241.963213 196.324271 
L 241.963213 195.526962 
L 242.418871 195.526962 
L 242.418871 194.995423 
L 244.193278 194.995423 
L 244.193278 194.729654 
L 250.433626 194.729654 
L 250.433626 194.463884 
L 251.722232 194.463884 
L 251.722232 193.400806 
L 252.618874 193.400806 
L 252.618874 193.135037 
L 253.147747 193.135037 
L 253.147747 192.603498 
L 254.52613 192.603498 
L 254.52613 192.337728 
L 256.349939 192.337728 
L 256.349939 191.806189 
L 256.833801 191.806189 
L 256.833801 191.54042 
L 258.407281 191.54042 
L 258.407281 191.27465 
L 259.62466 191.27465 
L 259.62466 190.743111 
L 261.957703 190.743111 
L 261.957703 190.477342 
L 263.489144 190.477342 
L 263.489144 190.211572 
L 264.032374 190.211572 
L 264.032374 189.945803 
L 264.834173 189.945803 
L 264.834173 189.680033 
L 264.966319 189.680033 
L 264.966319 188.616956 
L 265.229363 188.616956 
L 265.229363 188.351186 
L 265.490757 188.351186 
L 265.490757 188.085417 
L 265.879802 188.085417 
L 265.879802 187.819647 
L 267.025616 187.819647 
L 267.025616 187.288108 
L 270.16913 187.288108 
L 270.16913 187.022339 
L 272.655585 187.022339 
L 272.655585 186.756569 
L 272.874442 186.756569 
L 272.874442 186.4908 
L 273.308741 186.4908 
L 273.308741 186.22503 
L 273.524205 186.22503 
L 273.631521 185.161952 
L 273.951822 185.161952 
L 273.951822 184.896183 
L 274.163997 184.896183 
L 274.269681 184.364644 
L 274.898219 184.364644 
L 274.898219 184.098874 
L 275.517423 184.098874 
L 275.517423 183.567335 
L 275.82361 183.567335 
L 275.82361 183.301566 
L 278.099198 183.301566 
L 278.099198 183.035796 
L 279.145125 183.035796 
L 279.145125 182.770027 
L 280.982086 182.770027 
L 280.982086 182.504257 
L 281.694791 182.504257 
L 281.783029 181.972718 
L 287.151458 181.972718 
L 287.151458 181.17541 
L 288.971046 181.17541 
L 288.971046 180.90964 
L 289.779203 180.90964 
L 289.779203 180.643871 
L 290.500541 180.643871 
L 290.500541 180.378101 
L 290.785617 180.378101 
L 290.785617 180.112332 
L 290.998153 180.112332 
L 290.998153 179.846562 
L 292.796108 179.846562 
L 292.796108 179.315023 
L 295.672577 179.315023 
L 295.672577 178.783484 
L 297.40485 178.783484 
L 297.465405 177.454637 
L 298.834439 177.454637 
L 298.834439 177.188867 
L 300.555134 177.188867 
L 300.555134 176.657328 
L 300.946614 176.657328 
L 300.946614 176.391559 
L 301.49957 176.391559 
L 301.49957 176.125789 
L 305.627785 176.125789 
L 305.677508 175.594251 
L 307.046193 175.594251 
L 307.046193 175.328481 
L 307.949997 175.328481 
L 307.949997 175.062712 
L 309.338325 175.062712 
L 309.338325 174.796942 
L 311.812321 174.796942 
L 311.812321 174.531173 
L 312.154063 174.531173 
L 312.154063 174.265403 
L 312.493026 174.265403 
L 312.493026 173.999634 
L 314.34999 173.999634 
L 314.34999 173.733864 
L 315.149483 173.733864 
L 315.149483 173.468095 
L 315.933933 173.468095 
L 315.933933 173.202325 
L 317.045793 173.202325 
L 317.045793 172.936556 
L 317.309788 172.936556 
L 317.309788 172.670786 
L 317.795674 172.670786 
L 317.795674 172.405017 
L 318.386017 172.405017 
L 318.386017 171.607708 
L 318.532306 171.607708 
L 318.532306 171.341939 
L 319.00423 171.341939 
L 319.00423 171.076169 
L 319.648969 171.076169 
L 319.648969 170.8104 
L 320.31888 170.8104 
L 320.31888 170.54463 
L 323.548282 170.54463 
L 323.548282 170.278861 
L 323.999014 170.278861 
L 323.999014 170.013091 
L 324.318008 170.013091 
L 324.318008 169.747322 
L 324.508239 169.747322 
L 324.508239 169.481552 
L 324.980054 169.481552 
L 324.980054 169.215783 
L 325.999627 169.215783 
L 325.999627 168.950013 
L 326.364284 168.950013 
L 326.364284 168.684244 
L 327.38049 168.684244 
L 327.38049 168.418474 
L 327.70403 168.418474 
L 327.70403 168.152705 
L 328.141213 168.152705 
L 328.141213 167.089627 
L 329.256887 167.089627 
L 329.256887 166.823857 
L 329.622241 166.823857 
L 329.678167 166.292318 
L 330.425906 166.292318 
L 330.425906 166.026549 
L 332.278007 166.026549 
L 332.330483 165.49501 
L 334.126736 165.49501 
L 334.126736 165.22924 
L 337.432975 165.22924 
L 337.432975 164.963471 
L 339.492551 164.963471 
L 339.492551 164.697701 
L 341.455156 164.697701 
L 341.455156 164.431932 
L 343.349649 164.431932 
L 343.349649 164.166162 
L 345.045973 164.166162 
L 345.045973 163.900393 
L 345.640902 163.900393 
L 345.640902 163.634623 
L 348.119132 163.634623 
L 348.119132 163.368854 
L 350.997996 163.368854 
L 351.081698 162.571546 
L 353.43874 162.571546 
L 353.43874 162.305776 
L 354.576793 162.305776 
L 354.576793 162.040007 
L 355.699579 162.040007 
L 355.699579 161.774237 
L 358.8 161.774237 
L 358.8 161.774237 
" style="fill:none;stroke:#ffa500;stroke-linecap:square;stroke-width:1.5;"/>
   </g>
   <g id="line2d_18">
    <defs>
     <path d="M 0 -6 
L -1.347084 -1.854102 
L -5.706339 -1.854102 
L -2.179628 0.708204 
L -3.526712 4.854102 
L -0 2.291796 
L 3.526712 4.854102 
L 2.179628 0.708204 
L 5.706339 -1.854102 
L 1.347084 -1.854102 
z
" id="m51860a4e7c" style="stroke:#ffa500;stroke-linejoin:bevel;stroke-width:1.5;"/>
    </defs>
    <g>
     <use style="fill:none;stroke:#ffa500;stroke-linejoin:bevel;stroke-width:1.5;" x="53.8952391307" xlink:href="#m51860a4e7c" y="284.82551073"/>
     <use style="fill:none;stroke:#ffa500;stroke-linejoin:bevel;stroke-width:1.5;" x="128.597759167" xlink:href="#m51860a4e7c" y="244.960087295"/>
     <use style="fill:none;stroke:#ffa500;stroke-linejoin:bevel;stroke-width:1.5;" x="170.773697775" xlink:href="#m51860a4e7c" y="222.103911191"/>
     <use style="fill:none;stroke:#ffa500;stroke-linejoin:bevel;stroke-width:1.5;" x="259.624659955" xlink:href="#m51860a4e7c" y="190.743111422"/>
     <use style="fill:none;stroke:#ffa500;stroke-linejoin:bevel;stroke-width:1.5;" x="337.432974949" xlink:href="#m51860a4e7c" y="165.229240423"/>
     <use style="fill:none;stroke:#ffa500;stroke-linejoin:bevel;stroke-width:1.5;" x="358.8" xlink:href="#m51860a4e7c" y="161.774237059"/>
    </g>
   </g>
   <g id="line2d_19"/>
   <g id="line2d_20">
    <path clip-path="url(#p822872393b)" d="M 233.90112 199.513505 
" style="fill:none;stroke:#ffa500;stroke-linecap:square;"/>
    <defs>
     <path d="M -12 12 
L 12 -12 
M -12 -12 
L 12 12 
" id="m0189470425" style="stroke:#ffa500;stroke-width:3.0;"/>
    </defs>
    <g clip-path="url(#p822872393b)">
     <use style="fill:#ffa500;stroke:#ffa500;stroke-width:3.0;" x="233.901120416" xlink:href="#m0189470425" y="199.513504578"/>
    </g>
   </g>
   <g id="line2d_21">
    <path d="M 358.8 171.076169 
L 390.48 297.954524 
" style="fill:none;stroke:#ff00ff;stroke-linecap:square;stroke-width:1.5;"/>
    <g>
     <use style="fill:none;stroke:#ff00ff;stroke-linejoin:miter;stroke-width:1.5;" x="358.8" xlink:href="#m5092f9c31b" y="171.076169194"/>
     <use style="fill:none;stroke:#ff00ff;stroke-linejoin:miter;stroke-width:1.5;" x="390.48" xlink:href="#m5092f9c31b" y="297.954523515"/>
    </g>
   </g>
   <g id="line2d_22">
    <path d="M 358.8 163.103085 
L 390.48 210.3569 
" style="fill:none;stroke:#000080;stroke-linecap:square;stroke-width:1.5;"/>
    <g>
     <use style="fill:none;stroke:#000080;stroke-width:1.5;" x="358.8" xlink:href="#m593e79b6f3" y="163.103084507"/>
     <use style="fill:none;stroke:#000080;stroke-width:1.5;" x="390.48" xlink:href="#m593e79b6f3" y="210.356899752"/>
    </g>
   </g>
   <g id="line2d_23">
    <path d="M 358.8 161.774237 
L 390.48 122.759276 
" style="fill:none;stroke:#ffa500;stroke-linecap:square;stroke-width:1.5;"/>
    <g>
     <use style="fill:none;stroke:#ffa500;stroke-linejoin:bevel;stroke-width:1.5;" x="358.8" xlink:href="#m51860a4e7c" y="161.774237059"/>
     <use style="fill:none;stroke:#ffa500;stroke-linejoin:bevel;stroke-width:1.5;" x="390.48" xlink:href="#m51860a4e7c" y="122.75927599"/>
    </g>
   </g>
   <g id="line2d_24">
    <path d="M 358.8 303.429375 
L 358.8 29.686801 
" style="fill:none;stroke:#000000;stroke-linecap:square;"/>
   </g>
   <g id="patch_3">
    <path d="M 70.8 26.949375 
L 427.92 26.949375 
" style="fill:none;stroke:#000000;stroke-linecap:square;stroke-linejoin:miter;"/>
   </g>
   <g id="patch_4">
    <path d="M 427.92 303.429375 
L 427.92 26.949375 
" style="fill:none;stroke:#000000;stroke-linecap:square;stroke-linejoin:miter;"/>
   </g>
   <g id="patch_5">
    <path d="M 70.8 303.429375 
L 427.92 303.429375 
" style="fill:none;stroke:#000000;stroke-linecap:square;stroke-linejoin:miter;"/>
   </g>
   <g id="patch_6">
    <path d="M 70.8 303.429375 
L 70.8 26.949375 
" style="fill:none;stroke:#000000;stroke-linecap:square;stroke-linejoin:miter;"/>
   </g>
   <g id="matplotlib.axis_1">
    <g id="xtick_1">
     <g id="line2d_25">
      <path clip-path="url(#p822872393b)" d="M 70.8 303.429375 
L 70.8 26.949375 
" style="fill:none;stroke:#000000;stroke-dasharray:1.000000,3.000000;stroke-dashoffset:0.0;stroke-width:0.5;"/>
     </g>
     <g id="line2d_26">
      <defs>
       <path d="M 0 0 
L 0 -4 
" id="m82bdbcc910" style="stroke:#000000;stroke-width:0.5;"/>
      </defs>
      <g>
       <use style="stroke:#000000;stroke-width:0.5;" x="70.8" xlink:href="#m82bdbcc910" y="303.429375"/>
      </g>
     </g>
     <g id="line2d_27">
      <defs>
       <path d="M 0 0 
L 0 4 
" id="m758a76afea" style="stroke:#000000;stroke-width:0.5;"/>
      </defs>
      <g>
       <use style="stroke:#000000;stroke-width:0.5;" x="70.8" xlink:href="#m758a76afea" y="26.949375"/>
      </g>
     </g>
     <g id="text_1">
      <!-- 0 -->
      <defs>
       <path d="M 31.78125 66.40625 
Q 24.171875 66.40625 20.328125 58.90625 
Q 16.5 51.421875 16.5 36.375 
Q 16.5 21.390625 20.328125 13.890625 
Q 24.171875 6.390625 31.78125 6.390625 
Q 39.453125 6.390625 43.28125 13.890625 
Q 47.125 21.390625 47.125 36.375 
Q 47.125 51.421875 43.28125 58.90625 
Q 39.453125 66.40625 31.78125 66.40625 
M 31.78125 74.21875 
Q 44.046875 74.21875 50.515625 64.515625 
Q 56.984375 54.828125 56.984375 36.375 
Q 56.984375 17.96875 50.515625 8.265625 
Q 44.046875 -1.421875 31.78125 -1.421875 
Q 19.53125 -1.421875 13.0625 8.265625 
Q 6.59375 17.96875 6.59375 36.375 
Q 6.59375 54.828125 13.0625 64.515625 
Q 19.53125 74.21875 31.78125 74.21875 
" id="BitstreamVeraSans-Roman-30"/>
      </defs>
      <g transform="translate(64.4375 322.62625)scale(0.2 -0.2)">
       <use xlink:href="#BitstreamVeraSans-Roman-30"/>
      </g>
     </g>
    </g>
    <g id="xtick_2">
     <g id="line2d_28">
      <path clip-path="url(#p822872393b)" d="M 166.8 303.429375 
L 166.8 26.949375 
" style="fill:none;stroke:#000000;stroke-dasharray:1.000000,3.000000;stroke-dashoffset:0.0;stroke-width:0.5;"/>
     </g>
     <g id="line2d_29">
      <g>
       <use style="stroke:#000000;stroke-width:0.5;" x="166.8" xlink:href="#m82bdbcc910" y="303.429375"/>
      </g>
     </g>
     <g id="line2d_30">
      <g>
       <use style="stroke:#000000;stroke-width:0.5;" x="166.8" xlink:href="#m758a76afea" y="26.949375"/>
      </g>
     </g>
     <g id="text_2">
      <!-- 1 -->
      <defs>
       <path d="M 12.40625 8.296875 
L 28.515625 8.296875 
L 28.515625 63.921875 
L 10.984375 60.40625 
L 10.984375 69.390625 
L 28.421875 72.90625 
L 38.28125 72.90625 
L 38.28125 8.296875 
L 54.390625 8.296875 
L 54.390625 0 
L 12.40625 0 
z
" id="BitstreamVeraSans-Roman-31"/>
      </defs>
      <g transform="translate(160.4375 322.62625)scale(0.2 -0.2)">
       <use xlink:href="#BitstreamVeraSans-Roman-31"/>
      </g>
     </g>
    </g>
    <g id="xtick_3">
     <g id="line2d_31">
      <path clip-path="url(#p822872393b)" d="M 262.8 303.429375 
L 262.8 26.949375 
" style="fill:none;stroke:#000000;stroke-dasharray:1.000000,3.000000;stroke-dashoffset:0.0;stroke-width:0.5;"/>
     </g>
     <g id="line2d_32">
      <g>
       <use style="stroke:#000000;stroke-width:0.5;" x="262.8" xlink:href="#m82bdbcc910" y="303.429375"/>
      </g>
     </g>
     <g id="line2d_33">
      <g>
       <use style="stroke:#000000;stroke-width:0.5;" x="262.8" xlink:href="#m758a76afea" y="26.949375"/>
      </g>
     </g>
     <g id="text_3">
      <!-- 2 -->
      <defs>
       <path d="M 19.1875 8.296875 
L 53.609375 8.296875 
L 53.609375 0 
L 7.328125 0 
L 7.328125 8.296875 
Q 12.9375 14.109375 22.625 23.890625 
Q 32.328125 33.6875 34.8125 36.53125 
Q 39.546875 41.84375 41.421875 45.53125 
Q 43.3125 49.21875 43.3125 52.78125 
Q 43.3125 58.59375 39.234375 62.25 
Q 35.15625 65.921875 28.609375 65.921875 
Q 23.96875 65.921875 18.8125 64.3125 
Q 13.671875 62.703125 7.8125 59.421875 
L 7.8125 69.390625 
Q 13.765625 71.78125 18.9375 73 
Q 24.125 74.21875 28.421875 74.21875 
Q 39.75 74.21875 46.484375 68.546875 
Q 53.21875 62.890625 53.21875 53.421875 
Q 53.21875 48.921875 51.53125 44.890625 
Q 49.859375 40.875 45.40625 35.40625 
Q 44.1875 33.984375 37.640625 27.21875 
Q 31.109375 20.453125 19.1875 8.296875 
" id="BitstreamVeraSans-Roman-32"/>
      </defs>
      <g transform="translate(256.4375 322.62625)scale(0.2 -0.2)">
       <use xlink:href="#BitstreamVeraSans-Roman-32"/>
      </g>
     </g>
    </g>
    <g id="xtick_4">
     <g id="line2d_34">
      <path clip-path="url(#p822872393b)" d="M 358.8 303.429375 
L 358.8 26.949375 
" style="fill:none;stroke:#000000;stroke-dasharray:1.000000,3.000000;stroke-dashoffset:0.0;stroke-width:0.5;"/>
     </g>
     <g id="line2d_35">
      <g>
       <use style="stroke:#000000;stroke-width:0.5;" x="358.8" xlink:href="#m82bdbcc910" y="303.429375"/>
      </g>
     </g>
     <g id="line2d_36">
      <g>
       <use style="stroke:#000000;stroke-width:0.5;" x="358.8" xlink:href="#m758a76afea" y="26.949375"/>
      </g>
     </g>
     <g id="text_4">
      <!-- 3 -->
      <defs>
       <path d="M 40.578125 39.3125 
Q 47.65625 37.796875 51.625 33 
Q 55.609375 28.21875 55.609375 21.1875 
Q 55.609375 10.40625 48.1875 4.484375 
Q 40.765625 -1.421875 27.09375 -1.421875 
Q 22.515625 -1.421875 17.65625 -0.515625 
Q 12.796875 0.390625 7.625 2.203125 
L 7.625 11.71875 
Q 11.71875 9.328125 16.59375 8.109375 
Q 21.484375 6.890625 26.8125 6.890625 
Q 36.078125 6.890625 40.9375 10.546875 
Q 45.796875 14.203125 45.796875 21.1875 
Q 45.796875 27.640625 41.28125 31.265625 
Q 36.765625 34.90625 28.71875 34.90625 
L 20.21875 34.90625 
L 20.21875 43.015625 
L 29.109375 43.015625 
Q 36.375 43.015625 40.234375 45.921875 
Q 44.09375 48.828125 44.09375 54.296875 
Q 44.09375 59.90625 40.109375 62.90625 
Q 36.140625 65.921875 28.71875 65.921875 
Q 24.65625 65.921875 20.015625 65.03125 
Q 15.375 64.15625 9.8125 62.3125 
L 9.8125 71.09375 
Q 15.4375 72.65625 20.34375 73.4375 
Q 25.25 74.21875 29.59375 74.21875 
Q 40.828125 74.21875 47.359375 69.109375 
Q 53.90625 64.015625 53.90625 55.328125 
Q 53.90625 49.265625 50.4375 45.09375 
Q 46.96875 40.921875 40.578125 39.3125 
" id="BitstreamVeraSans-Roman-33"/>
      </defs>
      <g transform="translate(352.4375 322.62625)scale(0.2 -0.2)">
       <use xlink:href="#BitstreamVeraSans-Roman-33"/>
      </g>
     </g>
    </g>
    <g id="xtick_5">
     <g id="line2d_37">
      <defs>
       <path d="M 0 0 
L 0 -2 
" id="m403770112f" style="stroke:#000000;stroke-width:0.5;"/>
      </defs>
      <g>
       <use style="stroke:#000000;stroke-width:0.5;" x="99.6988795837" xlink:href="#m403770112f" y="303.429375"/>
      </g>
     </g>
     <g id="line2d_38">
      <defs>
       <path d="M 0 0 
L 0 2 
" id="maf82bdcd58" style="stroke:#000000;stroke-width:0.5;"/>
      </defs>
      <g>
       <use style="stroke:#000000;stroke-width:0.5;" x="99.6988795837" xlink:href="#maf82bdcd58" y="26.949375"/>
      </g>
     </g>
    </g>
    <g id="xtick_6">
     <g id="line2d_39">
      <g>
       <use style="stroke:#000000;stroke-width:0.5;" x="116.603640453" xlink:href="#m403770112f" y="303.429375"/>
      </g>
     </g>
     <g id="line2d_40">
      <g>
       <use style="stroke:#000000;stroke-width:0.5;" x="116.603640453" xlink:href="#maf82bdcd58" y="26.949375"/>
      </g>
     </g>
    </g>
    <g id="xtick_7">
     <g id="line2d_41">
      <g>
       <use style="stroke:#000000;stroke-width:0.5;" x="128.597759167" xlink:href="#m403770112f" y="303.429375"/>
      </g>
     </g>
     <g id="line2d_42">
      <g>
       <use style="stroke:#000000;stroke-width:0.5;" x="128.597759167" xlink:href="#maf82bdcd58" y="26.949375"/>
      </g>
     </g>
    </g>
    <g id="xtick_8">
     <g id="line2d_43">
      <g>
       <use style="stroke:#000000;stroke-width:0.5;" x="137.901120416" xlink:href="#m403770112f" y="303.429375"/>
      </g>
     </g>
     <g id="line2d_44">
      <g>
       <use style="stroke:#000000;stroke-width:0.5;" x="137.901120416" xlink:href="#maf82bdcd58" y="26.949375"/>
      </g>
     </g>
    </g>
    <g id="xtick_9">
     <g id="line2d_45">
      <g>
       <use style="stroke:#000000;stroke-width:0.5;" x="145.502520037" xlink:href="#m403770112f" y="303.429375"/>
      </g>
     </g>
     <g id="line2d_46">
      <g>
       <use style="stroke:#000000;stroke-width:0.5;" x="145.502520037" xlink:href="#maf82bdcd58" y="26.949375"/>
      </g>
     </g>
    </g>
    <g id="xtick_10">
     <g id="line2d_47">
      <g>
       <use style="stroke:#000000;stroke-width:0.5;" x="151.929411841" xlink:href="#m403770112f" y="303.429375"/>
      </g>
     </g>
     <g id="line2d_48">
      <g>
       <use style="stroke:#000000;stroke-width:0.5;" x="151.929411841" xlink:href="#maf82bdcd58" y="26.949375"/>
      </g>
     </g>
    </g>
    <g id="xtick_11">
     <g id="line2d_49">
      <g>
       <use style="stroke:#000000;stroke-width:0.5;" x="157.496638751" xlink:href="#m403770112f" y="303.429375"/>
      </g>
     </g>
     <g id="line2d_50">
      <g>
       <use style="stroke:#000000;stroke-width:0.5;" x="157.496638751" xlink:href="#maf82bdcd58" y="26.949375"/>
      </g>
     </g>
    </g>
    <g id="xtick_12">
     <g id="line2d_51">
      <g>
       <use style="stroke:#000000;stroke-width:0.5;" x="162.407280906" xlink:href="#m403770112f" y="303.429375"/>
      </g>
     </g>
     <g id="line2d_52">
      <g>
       <use style="stroke:#000000;stroke-width:0.5;" x="162.407280906" xlink:href="#maf82bdcd58" y="26.949375"/>
      </g>
     </g>
    </g>
    <g id="xtick_13">
     <g id="line2d_53">
      <g>
       <use style="stroke:#000000;stroke-width:0.5;" x="195.698879584" xlink:href="#m403770112f" y="303.429375"/>
      </g>
     </g>
     <g id="line2d_54">
      <g>
       <use style="stroke:#000000;stroke-width:0.5;" x="195.698879584" xlink:href="#maf82bdcd58" y="26.949375"/>
      </g>
     </g>
    </g>
    <g id="xtick_14">
     <g id="line2d_55">
      <g>
       <use style="stroke:#000000;stroke-width:0.5;" x="212.603640453" xlink:href="#m403770112f" y="303.429375"/>
      </g>
     </g>
     <g id="line2d_56">
      <g>
       <use style="stroke:#000000;stroke-width:0.5;" x="212.603640453" xlink:href="#maf82bdcd58" y="26.949375"/>
      </g>
     </g>
    </g>
    <g id="xtick_15">
     <g id="line2d_57">
      <g>
       <use style="stroke:#000000;stroke-width:0.5;" x="224.597759167" xlink:href="#m403770112f" y="303.429375"/>
      </g>
     </g>
     <g id="line2d_58">
      <g>
       <use style="stroke:#000000;stroke-width:0.5;" x="224.597759167" xlink:href="#maf82bdcd58" y="26.949375"/>
      </g>
     </g>
    </g>
    <g id="xtick_16">
     <g id="line2d_59">
      <g>
       <use style="stroke:#000000;stroke-width:0.5;" x="233.901120416" xlink:href="#m403770112f" y="303.429375"/>
      </g>
     </g>
     <g id="line2d_60">
      <g>
       <use style="stroke:#000000;stroke-width:0.5;" x="233.901120416" xlink:href="#maf82bdcd58" y="26.949375"/>
      </g>
     </g>
    </g>
    <g id="xtick_17">
     <g id="line2d_61">
      <g>
       <use style="stroke:#000000;stroke-width:0.5;" x="241.502520037" xlink:href="#m403770112f" y="303.429375"/>
      </g>
     </g>
     <g id="line2d_62">
      <g>
       <use style="stroke:#000000;stroke-width:0.5;" x="241.502520037" xlink:href="#maf82bdcd58" y="26.949375"/>
      </g>
     </g>
    </g>
    <g id="xtick_18">
     <g id="line2d_63">
      <g>
       <use style="stroke:#000000;stroke-width:0.5;" x="247.929411841" xlink:href="#m403770112f" y="303.429375"/>
      </g>
     </g>
     <g id="line2d_64">
      <g>
       <use style="stroke:#000000;stroke-width:0.5;" x="247.929411841" xlink:href="#maf82bdcd58" y="26.949375"/>
      </g>
     </g>
    </g>
    <g id="xtick_19">
     <g id="line2d_65">
      <g>
       <use style="stroke:#000000;stroke-width:0.5;" x="253.496638751" xlink:href="#m403770112f" y="303.429375"/>
      </g>
     </g>
     <g id="line2d_66">
      <g>
       <use style="stroke:#000000;stroke-width:0.5;" x="253.496638751" xlink:href="#maf82bdcd58" y="26.949375"/>
      </g>
     </g>
    </g>
    <g id="xtick_20">
     <g id="line2d_67">
      <g>
       <use style="stroke:#000000;stroke-width:0.5;" x="258.407280906" xlink:href="#m403770112f" y="303.429375"/>
      </g>
     </g>
     <g id="line2d_68">
      <g>
       <use style="stroke:#000000;stroke-width:0.5;" x="258.407280906" xlink:href="#maf82bdcd58" y="26.949375"/>
      </g>
     </g>
    </g>
    <g id="xtick_21">
     <g id="line2d_69">
      <g>
       <use style="stroke:#000000;stroke-width:0.5;" x="291.698879584" xlink:href="#m403770112f" y="303.429375"/>
      </g>
     </g>
     <g id="line2d_70">
      <g>
       <use style="stroke:#000000;stroke-width:0.5;" x="291.698879584" xlink:href="#maf82bdcd58" y="26.949375"/>
      </g>
     </g>
    </g>
    <g id="xtick_22">
     <g id="line2d_71">
      <g>
       <use style="stroke:#000000;stroke-width:0.5;" x="308.603640453" xlink:href="#m403770112f" y="303.429375"/>
      </g>
     </g>
     <g id="line2d_72">
      <g>
       <use style="stroke:#000000;stroke-width:0.5;" x="308.603640453" xlink:href="#maf82bdcd58" y="26.949375"/>
      </g>
     </g>
    </g>
    <g id="xtick_23">
     <g id="line2d_73">
      <g>
       <use style="stroke:#000000;stroke-width:0.5;" x="320.597759167" xlink:href="#m403770112f" y="303.429375"/>
      </g>
     </g>
     <g id="line2d_74">
      <g>
       <use style="stroke:#000000;stroke-width:0.5;" x="320.597759167" xlink:href="#maf82bdcd58" y="26.949375"/>
      </g>
     </g>
    </g>
    <g id="xtick_24">
     <g id="line2d_75">
      <g>
       <use style="stroke:#000000;stroke-width:0.5;" x="329.901120416" xlink:href="#m403770112f" y="303.429375"/>
      </g>
     </g>
     <g id="line2d_76">
      <g>
       <use style="stroke:#000000;stroke-width:0.5;" x="329.901120416" xlink:href="#maf82bdcd58" y="26.949375"/>
      </g>
     </g>
    </g>
    <g id="xtick_25">
     <g id="line2d_77">
      <g>
       <use style="stroke:#000000;stroke-width:0.5;" x="337.502520037" xlink:href="#m403770112f" y="303.429375"/>
      </g>
     </g>
     <g id="line2d_78">
      <g>
       <use style="stroke:#000000;stroke-width:0.5;" x="337.502520037" xlink:href="#maf82bdcd58" y="26.949375"/>
      </g>
     </g>
    </g>
    <g id="xtick_26">
     <g id="line2d_79">
      <g>
       <use style="stroke:#000000;stroke-width:0.5;" x="343.929411841" xlink:href="#m403770112f" y="303.429375"/>
      </g>
     </g>
     <g id="line2d_80">
      <g>
       <use style="stroke:#000000;stroke-width:0.5;" x="343.929411841" xlink:href="#maf82bdcd58" y="26.949375"/>
      </g>
     </g>
    </g>
    <g id="xtick_27">
     <g id="line2d_81">
      <g>
       <use style="stroke:#000000;stroke-width:0.5;" x="349.496638751" xlink:href="#m403770112f" y="303.429375"/>
      </g>
     </g>
     <g id="line2d_82">
      <g>
       <use style="stroke:#000000;stroke-width:0.5;" x="349.496638751" xlink:href="#maf82bdcd58" y="26.949375"/>
      </g>
     </g>
    </g>
    <g id="xtick_28">
     <g id="line2d_83">
      <g>
       <use style="stroke:#000000;stroke-width:0.5;" x="354.407280906" xlink:href="#m403770112f" y="303.429375"/>
      </g>
     </g>
     <g id="line2d_84">
      <g>
       <use style="stroke:#000000;stroke-width:0.5;" x="354.407280906" xlink:href="#maf82bdcd58" y="26.949375"/>
      </g>
     </g>
    </g>
    <g id="xtick_29">
     <g id="line2d_85">
      <g>
       <use style="stroke:#000000;stroke-width:0.5;" x="387.698879584" xlink:href="#m403770112f" y="303.429375"/>
      </g>
     </g>
     <g id="line2d_86">
      <g>
       <use style="stroke:#000000;stroke-width:0.5;" x="387.698879584" xlink:href="#maf82bdcd58" y="26.949375"/>
      </g>
     </g>
    </g>
    <g id="xtick_30">
     <g id="line2d_87">
      <g>
       <use style="stroke:#000000;stroke-width:0.5;" x="404.603640453" xlink:href="#m403770112f" y="303.429375"/>
      </g>
     </g>
     <g id="line2d_88">
      <g>
       <use style="stroke:#000000;stroke-width:0.5;" x="404.603640453" xlink:href="#maf82bdcd58" y="26.949375"/>
      </g>
     </g>
    </g>
    <g id="xtick_31">
     <g id="line2d_89">
      <g>
       <use style="stroke:#000000;stroke-width:0.5;" x="416.597759167" xlink:href="#m403770112f" y="303.429375"/>
      </g>
     </g>
     <g id="line2d_90">
      <g>
       <use style="stroke:#000000;stroke-width:0.5;" x="416.597759167" xlink:href="#maf82bdcd58" y="26.949375"/>
      </g>
     </g>
    </g>
    <g id="xtick_32">
     <g id="line2d_91">
      <g>
       <use style="stroke:#000000;stroke-width:0.5;" x="425.901120416" xlink:href="#m403770112f" y="303.429375"/>
      </g>
     </g>
     <g id="line2d_92">
      <g>
       <use style="stroke:#000000;stroke-width:0.5;" x="425.901120416" xlink:href="#maf82bdcd58" y="26.949375"/>
      </g>
     </g>
    </g>
    <g id="text_5">
     <!-- log10 of (# f-evals / dimension) -->
     <defs>
      <path id="BitstreamVeraSans-Roman-20"/>
      <path d="M 51.125 44 
L 36.921875 44 
L 32.8125 27.6875 
L 47.125 27.6875 
z
M 43.796875 71.78125 
L 38.71875 51.515625 
L 52.984375 51.515625 
L 58.109375 71.78125 
L 65.921875 71.78125 
L 60.890625 51.515625 
L 76.125 51.515625 
L 76.125 44 
L 58.984375 44 
L 54.984375 27.6875 
L 70.515625 27.6875 
L 70.515625 20.21875 
L 53.078125 20.21875 
L 48 0 
L 40.1875 0 
L 45.21875 20.21875 
L 30.90625 20.21875 
L 25.875 0 
L 18.015625 0 
L 23.09375 20.21875 
L 7.71875 20.21875 
L 7.71875 27.6875 
L 24.90625 27.6875 
L 29 44 
L 13.28125 44 
L 13.28125 51.515625 
L 30.90625 51.515625 
L 35.890625 71.78125 
z
" id="BitstreamVeraSans-Roman-23"/>
      <path d="M 52 44.1875 
Q 55.375 50.25 60.0625 53.125 
Q 64.75 56 71.09375 56 
Q 79.640625 56 84.28125 50.015625 
Q 88.921875 44.046875 88.921875 33.015625 
L 88.921875 0 
L 79.890625 0 
L 79.890625 32.71875 
Q 79.890625 40.578125 77.09375 44.375 
Q 74.3125 48.1875 68.609375 48.1875 
Q 61.625 48.1875 57.5625 43.546875 
Q 53.515625 38.921875 53.515625 30.90625 
L 53.515625 0 
L 44.484375 0 
L 44.484375 32.71875 
Q 44.484375 40.625 41.703125 44.40625 
Q 38.921875 48.1875 33.109375 48.1875 
Q 26.21875 48.1875 22.15625 43.53125 
Q 18.109375 38.875 18.109375 30.90625 
L 18.109375 0 
L 9.078125 0 
L 9.078125 54.6875 
L 18.109375 54.6875 
L 18.109375 46.1875 
Q 21.1875 51.21875 25.484375 53.609375 
Q 29.78125 56 35.6875 56 
Q 41.65625 56 45.828125 52.96875 
Q 50 49.953125 52 44.1875 
" id="BitstreamVeraSans-Roman-6d"/>
      <path d="M 54.890625 33.015625 
L 54.890625 0 
L 45.90625 0 
L 45.90625 32.71875 
Q 45.90625 40.484375 42.875 44.328125 
Q 39.84375 48.1875 33.796875 48.1875 
Q 26.515625 48.1875 22.3125 43.546875 
Q 18.109375 38.921875 18.109375 30.90625 
L 18.109375 0 
L 9.078125 0 
L 9.078125 54.6875 
L 18.109375 54.6875 
L 18.109375 46.1875 
Q 21.34375 51.125 25.703125 53.5625 
Q 30.078125 56 35.796875 56 
Q 45.21875 56 50.046875 50.171875 
Q 54.890625 44.34375 54.890625 33.015625 
" id="BitstreamVeraSans-Roman-6e"/>
      <path d="M 31 75.875 
Q 24.46875 64.65625 21.28125 53.65625 
Q 18.109375 42.671875 18.109375 31.390625 
Q 18.109375 20.125 21.3125 9.0625 
Q 24.515625 -2 31 -13.1875 
L 23.1875 -13.1875 
Q 15.875 -1.703125 12.234375 9.375 
Q 8.59375 20.453125 8.59375 31.390625 
Q 8.59375 42.28125 12.203125 53.3125 
Q 15.828125 64.359375 23.1875 75.875 
z
" id="BitstreamVeraSans-Roman-28"/>
      <path d="M 30.609375 48.390625 
Q 23.390625 48.390625 19.1875 42.75 
Q 14.984375 37.109375 14.984375 27.296875 
Q 14.984375 17.484375 19.15625 11.84375 
Q 23.34375 6.203125 30.609375 6.203125 
Q 37.796875 6.203125 41.984375 11.859375 
Q 46.1875 17.53125 46.1875 27.296875 
Q 46.1875 37.015625 41.984375 42.703125 
Q 37.796875 48.390625 30.609375 48.390625 
M 30.609375 56 
Q 42.328125 56 49.015625 48.375 
Q 55.71875 40.765625 55.71875 27.296875 
Q 55.71875 13.875 49.015625 6.21875 
Q 42.328125 -1.421875 30.609375 -1.421875 
Q 18.84375 -1.421875 12.171875 6.21875 
Q 5.515625 13.875 5.515625 27.296875 
Q 5.515625 40.765625 12.171875 48.375 
Q 18.84375 56 30.609375 56 
" id="BitstreamVeraSans-Roman-6f"/>
      <path d="M 9.421875 75.984375 
L 18.40625 75.984375 
L 18.40625 0 
L 9.421875 0 
z
" id="BitstreamVeraSans-Roman-6c"/>
      <path d="M 2.984375 54.6875 
L 12.5 54.6875 
L 29.59375 8.796875 
L 46.6875 54.6875 
L 56.203125 54.6875 
L 35.6875 0 
L 23.484375 0 
z
" id="BitstreamVeraSans-Roman-76"/>
      <path d="M 9.421875 54.6875 
L 18.40625 54.6875 
L 18.40625 0 
L 9.421875 0 
z
M 9.421875 75.984375 
L 18.40625 75.984375 
L 18.40625 64.59375 
L 9.421875 64.59375 
z
" id="BitstreamVeraSans-Roman-69"/>
      <path d="M 4.890625 31.390625 
L 31.203125 31.390625 
L 31.203125 23.390625 
L 4.890625 23.390625 
z
" id="BitstreamVeraSans-Roman-2d"/>
      <path d="M 25.390625 72.90625 
L 33.6875 72.90625 
L 8.296875 -9.28125 
L 0 -9.28125 
z
" id="BitstreamVeraSans-Roman-2f"/>
      <path d="M 56.203125 29.59375 
L 56.203125 25.203125 
L 14.890625 25.203125 
Q 15.484375 15.921875 20.484375 11.0625 
Q 25.484375 6.203125 34.421875 6.203125 
Q 39.59375 6.203125 44.453125 7.46875 
Q 49.3125 8.734375 54.109375 11.28125 
L 54.109375 2.78125 
Q 49.265625 0.734375 44.1875 -0.34375 
Q 39.109375 -1.421875 33.890625 -1.421875 
Q 20.796875 -1.421875 13.15625 6.1875 
Q 5.515625 13.8125 5.515625 26.8125 
Q 5.515625 40.234375 12.765625 48.109375 
Q 20.015625 56 32.328125 56 
Q 43.359375 56 49.78125 48.890625 
Q 56.203125 41.796875 56.203125 29.59375 
M 47.21875 32.234375 
Q 47.125 39.59375 43.09375 43.984375 
Q 39.0625 48.390625 32.421875 48.390625 
Q 24.90625 48.390625 20.390625 44.140625 
Q 15.875 39.890625 15.1875 32.171875 
z
" id="BitstreamVeraSans-Roman-65"/>
      <path d="M 45.40625 46.390625 
L 45.40625 75.984375 
L 54.390625 75.984375 
L 54.390625 0 
L 45.40625 0 
L 45.40625 8.203125 
Q 42.578125 3.328125 38.25 0.953125 
Q 33.9375 -1.421875 27.875 -1.421875 
Q 17.96875 -1.421875 11.734375 6.484375 
Q 5.515625 14.40625 5.515625 27.296875 
Q 5.515625 40.1875 11.734375 48.09375 
Q 17.96875 56 27.875 56 
Q 33.9375 56 38.25 53.625 
Q 42.578125 51.265625 45.40625 46.390625 
M 14.796875 27.296875 
Q 14.796875 17.390625 18.875 11.75 
Q 22.953125 6.109375 30.078125 6.109375 
Q 37.203125 6.109375 41.296875 11.75 
Q 45.40625 17.390625 45.40625 27.296875 
Q 45.40625 37.203125 41.296875 42.84375 
Q 37.203125 48.484375 30.078125 48.484375 
Q 22.953125 48.484375 18.875 42.84375 
Q 14.796875 37.203125 14.796875 27.296875 
" id="BitstreamVeraSans-Roman-64"/>
      <path d="M 45.40625 27.984375 
Q 45.40625 37.75 41.375 43.109375 
Q 37.359375 48.484375 30.078125 48.484375 
Q 22.859375 48.484375 18.828125 43.109375 
Q 14.796875 37.75 14.796875 27.984375 
Q 14.796875 18.265625 18.828125 12.890625 
Q 22.859375 7.515625 30.078125 7.515625 
Q 37.359375 7.515625 41.375 12.890625 
Q 45.40625 18.265625 45.40625 27.984375 
M 54.390625 6.78125 
Q 54.390625 -7.171875 48.1875 -13.984375 
Q 42 -20.796875 29.203125 -20.796875 
Q 24.46875 -20.796875 20.265625 -20.09375 
Q 16.0625 -19.390625 12.109375 -17.921875 
L 12.109375 -9.1875 
Q 16.0625 -11.328125 19.921875 -12.34375 
Q 23.78125 -13.375 27.78125 -13.375 
Q 36.625 -13.375 41.015625 -8.765625 
Q 45.40625 -4.15625 45.40625 5.171875 
L 45.40625 9.625 
Q 42.625 4.78125 38.28125 2.390625 
Q 33.9375 0 27.875 0 
Q 17.828125 0 11.671875 7.65625 
Q 5.515625 15.328125 5.515625 27.984375 
Q 5.515625 40.671875 11.671875 48.328125 
Q 17.828125 56 27.875 56 
Q 33.9375 56 38.28125 53.609375 
Q 42.625 51.21875 45.40625 46.390625 
L 45.40625 54.6875 
L 54.390625 54.6875 
z
" id="BitstreamVeraSans-Roman-67"/>
      <path d="M 37.109375 75.984375 
L 37.109375 68.5 
L 28.515625 68.5 
Q 23.6875 68.5 21.796875 66.546875 
Q 19.921875 64.59375 19.921875 59.515625 
L 19.921875 54.6875 
L 34.71875 54.6875 
L 34.71875 47.703125 
L 19.921875 47.703125 
L 19.921875 0 
L 10.890625 0 
L 10.890625 47.703125 
L 2.296875 47.703125 
L 2.296875 54.6875 
L 10.890625 54.6875 
L 10.890625 58.5 
Q 10.890625 67.625 15.140625 71.796875 
Q 19.390625 75.984375 28.609375 75.984375 
z
" id="BitstreamVeraSans-Roman-66"/>
      <path d="M 34.28125 27.484375 
Q 23.390625 27.484375 19.1875 25 
Q 14.984375 22.515625 14.984375 16.5 
Q 14.984375 11.71875 18.140625 8.90625 
Q 21.296875 6.109375 26.703125 6.109375 
Q 34.1875 6.109375 38.703125 11.40625 
Q 43.21875 16.703125 43.21875 25.484375 
L 43.21875 27.484375 
z
M 52.203125 31.203125 
L 52.203125 0 
L 43.21875 0 
L 43.21875 8.296875 
Q 40.140625 3.328125 35.546875 0.953125 
Q 30.953125 -1.421875 24.3125 -1.421875 
Q 15.921875 -1.421875 10.953125 3.296875 
Q 6 8.015625 6 15.921875 
Q 6 25.140625 12.171875 29.828125 
Q 18.359375 34.515625 30.609375 34.515625 
L 43.21875 34.515625 
L 43.21875 35.40625 
Q 43.21875 41.609375 39.140625 45 
Q 35.0625 48.390625 27.6875 48.390625 
Q 23 48.390625 18.546875 47.265625 
Q 14.109375 46.140625 10.015625 43.890625 
L 10.015625 52.203125 
Q 14.9375 54.109375 19.578125 55.046875 
Q 24.21875 56 28.609375 56 
Q 40.484375 56 46.34375 49.84375 
Q 52.203125 43.703125 52.203125 31.203125 
" id="BitstreamVeraSans-Roman-61"/>
      <path d="M 44.28125 53.078125 
L 44.28125 44.578125 
Q 40.484375 46.53125 36.375 47.5 
Q 32.28125 48.484375 27.875 48.484375 
Q 21.1875 48.484375 17.84375 46.4375 
Q 14.5 44.390625 14.5 40.28125 
Q 14.5 37.15625 16.890625 35.375 
Q 19.28125 33.59375 26.515625 31.984375 
L 29.59375 31.296875 
Q 39.15625 29.25 43.1875 25.515625 
Q 47.21875 21.78125 47.21875 15.09375 
Q 47.21875 7.46875 41.1875 3.015625 
Q 35.15625 -1.421875 24.609375 -1.421875 
Q 20.21875 -1.421875 15.453125 -0.5625 
Q 10.6875 0.296875 5.421875 2 
L 5.421875 11.28125 
Q 10.40625 8.6875 15.234375 7.390625 
Q 20.0625 6.109375 24.8125 6.109375 
Q 31.15625 6.109375 34.5625 8.28125 
Q 37.984375 10.453125 37.984375 14.40625 
Q 37.984375 18.0625 35.515625 20.015625 
Q 33.0625 21.96875 24.703125 23.78125 
L 21.578125 24.515625 
Q 13.234375 26.265625 9.515625 29.90625 
Q 5.8125 33.546875 5.8125 39.890625 
Q 5.8125 47.609375 11.28125 51.796875 
Q 16.75 56 26.8125 56 
Q 31.78125 56 36.171875 55.265625 
Q 40.578125 54.546875 44.28125 53.078125 
" id="BitstreamVeraSans-Roman-73"/>
      <path d="M 8.015625 75.875 
L 15.828125 75.875 
Q 23.140625 64.359375 26.78125 53.3125 
Q 30.421875 42.28125 30.421875 31.390625 
Q 30.421875 20.453125 26.78125 9.375 
Q 23.140625 -1.703125 15.828125 -13.1875 
L 8.015625 -13.1875 
Q 14.5 -2 17.703125 9.0625 
Q 20.90625 20.125 20.90625 31.390625 
Q 20.90625 42.671875 17.703125 53.65625 
Q 14.5 64.65625 8.015625 75.875 
" id="BitstreamVeraSans-Roman-29"/>
     </defs>
     <g transform="translate(107.01515625 345.4628125)scale(0.18 -0.18)">
      <use xlink:href="#BitstreamVeraSans-Roman-6c"/>
      <use x="27.783203125" xlink:href="#BitstreamVeraSans-Roman-6f"/>
      <use x="88.96484375" xlink:href="#BitstreamVeraSans-Roman-67"/>
      <use x="152.44140625" xlink:href="#BitstreamVeraSans-Roman-31"/>
      <use x="216.064453125" xlink:href="#BitstreamVeraSans-Roman-30"/>
      <use x="279.6875" xlink:href="#BitstreamVeraSans-Roman-20"/>
      <use x="311.474609375" xlink:href="#BitstreamVeraSans-Roman-6f"/>
      <use x="372.65625" xlink:href="#BitstreamVeraSans-Roman-66"/>
      <use x="407.861328125" xlink:href="#BitstreamVeraSans-Roman-20"/>
      <use x="439.6484375" xlink:href="#BitstreamVeraSans-Roman-28"/>
      <use x="478.662109375" xlink:href="#BitstreamVeraSans-Roman-23"/>
      <use x="562.451171875" xlink:href="#BitstreamVeraSans-Roman-20"/>
      <use x="594.23828125" xlink:href="#BitstreamVeraSans-Roman-66"/>
      <use x="629.365234375" xlink:href="#BitstreamVeraSans-Roman-2d"/>
      <use x="665.44921875" xlink:href="#BitstreamVeraSans-Roman-65"/>
      <use x="726.97265625" xlink:href="#BitstreamVeraSans-Roman-76"/>
      <use x="786.15234375" xlink:href="#BitstreamVeraSans-Roman-61"/>
      <use x="847.431640625" xlink:href="#BitstreamVeraSans-Roman-6c"/>
      <use x="875.21484375" xlink:href="#BitstreamVeraSans-Roman-73"/>
      <use x="927.314453125" xlink:href="#BitstreamVeraSans-Roman-20"/>
      <use x="959.1015625" xlink:href="#BitstreamVeraSans-Roman-2f"/>
      <use x="992.79296875" xlink:href="#BitstreamVeraSans-Roman-20"/>
      <use x="1024.58007812" xlink:href="#BitstreamVeraSans-Roman-64"/>
      <use x="1088.05664062" xlink:href="#BitstreamVeraSans-Roman-69"/>
      <use x="1115.83984375" xlink:href="#BitstreamVeraSans-Roman-6d"/>
      <use x="1213.25195312" xlink:href="#BitstreamVeraSans-Roman-65"/>
      <use x="1274.77539062" xlink:href="#BitstreamVeraSans-Roman-6e"/>
      <use x="1338.15429688" xlink:href="#BitstreamVeraSans-Roman-73"/>
      <use x="1390.25390625" xlink:href="#BitstreamVeraSans-Roman-69"/>
      <use x="1418.03710938" xlink:href="#BitstreamVeraSans-Roman-6f"/>
      <use x="1479.21875" xlink:href="#BitstreamVeraSans-Roman-6e"/>
      <use x="1542.59765625" xlink:href="#BitstreamVeraSans-Roman-29"/>
     </g>
    </g>
   </g>
   <g id="matplotlib.axis_2">
    <g id="ytick_1">
     <g id="line2d_93">
      <path clip-path="url(#p822872393b)" d="M 70.8 303.429375 
L 427.92 303.429375 
" style="fill:none;stroke:#000000;stroke-dasharray:1.000000,3.000000;stroke-dashoffset:0.0;stroke-width:0.5;"/>
     </g>
     <g id="line2d_94">
      <defs>
       <path d="M 0 0 
L 4 0 
" id="m7e9b098f13" style="stroke:#000000;stroke-width:0.5;"/>
      </defs>
      <g>
       <use style="stroke:#000000;stroke-width:0.5;" x="70.8" xlink:href="#m7e9b098f13" y="303.429375"/>
      </g>
     </g>
     <g id="line2d_95">
      <defs>
       <path d="M 0 0 
L -4 0 
" id="m31c6d57ad5" style="stroke:#000000;stroke-width:0.5;"/>
      </defs>
      <g>
       <use style="stroke:#000000;stroke-width:0.5;" x="427.92" xlink:href="#m31c6d57ad5" y="303.429375"/>
      </g>
     </g>
     <g id="text_6">
      <!-- 0.0 -->
      <defs>
       <path d="M 10.6875 12.40625 
L 21 12.40625 
L 21 0 
L 10.6875 0 
z
" id="BitstreamVeraSans-Roman-2e"/>
      </defs>
      <g transform="translate(34.99375 308.948125)scale(0.2 -0.2)">
       <use xlink:href="#BitstreamVeraSans-Roman-30"/>
       <use x="63.623046875" xlink:href="#BitstreamVeraSans-Roman-2e"/>
       <use x="95.41015625" xlink:href="#BitstreamVeraSans-Roman-30"/>
      </g>
     </g>
    </g>
    <g id="ytick_2">
     <g id="line2d_96">
      <path clip-path="url(#p822872393b)" d="M 70.8 248.68086 
L 427.92 248.68086 
" style="fill:none;stroke:#000000;stroke-dasharray:1.000000,3.000000;stroke-dashoffset:0.0;stroke-width:0.5;"/>
     </g>
     <g id="line2d_97">
      <g>
       <use style="stroke:#000000;stroke-width:0.5;" x="70.8" xlink:href="#m7e9b098f13" y="248.680860149"/>
      </g>
     </g>
     <g id="line2d_98">
      <g>
       <use style="stroke:#000000;stroke-width:0.5;" x="427.92" xlink:href="#m31c6d57ad5" y="248.680860149"/>
      </g>
     </g>
     <g id="text_7">
      <!-- 0.2 -->
      <g transform="translate(34.99375 254.199610149)scale(0.2 -0.2)">
       <use xlink:href="#BitstreamVeraSans-Roman-30"/>
       <use x="63.623046875" xlink:href="#BitstreamVeraSans-Roman-2e"/>
       <use x="95.41015625" xlink:href="#BitstreamVeraSans-Roman-32"/>
      </g>
     </g>
    </g>
    <g id="ytick_3">
     <g id="line2d_99">
      <path clip-path="url(#p822872393b)" d="M 70.8 193.932345 
L 427.92 193.932345 
" style="fill:none;stroke:#000000;stroke-dasharray:1.000000,3.000000;stroke-dashoffset:0.0;stroke-width:0.5;"/>
     </g>
     <g id="line2d_100">
      <g>
       <use style="stroke:#000000;stroke-width:0.5;" x="70.8" xlink:href="#m7e9b098f13" y="193.932345297"/>
      </g>
     </g>
     <g id="line2d_101">
      <g>
       <use style="stroke:#000000;stroke-width:0.5;" x="427.92" xlink:href="#m31c6d57ad5" y="193.932345297"/>
      </g>
     </g>
     <g id="text_8">
      <!-- 0.4 -->
      <defs>
       <path d="M 37.796875 64.3125 
L 12.890625 25.390625 
L 37.796875 25.390625 
z
M 35.203125 72.90625 
L 47.609375 72.90625 
L 47.609375 25.390625 
L 58.015625 25.390625 
L 58.015625 17.1875 
L 47.609375 17.1875 
L 47.609375 0 
L 37.796875 0 
L 37.796875 17.1875 
L 4.890625 17.1875 
L 4.890625 26.703125 
z
" id="BitstreamVeraSans-Roman-34"/>
      </defs>
      <g transform="translate(34.99375 199.451095297)scale(0.2 -0.2)">
       <use xlink:href="#BitstreamVeraSans-Roman-30"/>
       <use x="63.623046875" xlink:href="#BitstreamVeraSans-Roman-2e"/>
       <use x="95.41015625" xlink:href="#BitstreamVeraSans-Roman-34"/>
      </g>
     </g>
    </g>
    <g id="ytick_4">
     <g id="line2d_102">
      <path clip-path="url(#p822872393b)" d="M 70.8 139.18383 
L 427.92 139.18383 
" style="fill:none;stroke:#000000;stroke-dasharray:1.000000,3.000000;stroke-dashoffset:0.0;stroke-width:0.5;"/>
     </g>
     <g id="line2d_103">
      <g>
       <use style="stroke:#000000;stroke-width:0.5;" x="70.8" xlink:href="#m7e9b098f13" y="139.183830446"/>
      </g>
     </g>
     <g id="line2d_104">
      <g>
       <use style="stroke:#000000;stroke-width:0.5;" x="427.92" xlink:href="#m31c6d57ad5" y="139.183830446"/>
      </g>
     </g>
     <g id="text_9">
      <!-- 0.6 -->
      <defs>
       <path d="M 33.015625 40.375 
Q 26.375 40.375 22.484375 35.828125 
Q 18.609375 31.296875 18.609375 23.390625 
Q 18.609375 15.53125 22.484375 10.953125 
Q 26.375 6.390625 33.015625 6.390625 
Q 39.65625 6.390625 43.53125 10.953125 
Q 47.40625 15.53125 47.40625 23.390625 
Q 47.40625 31.296875 43.53125 35.828125 
Q 39.65625 40.375 33.015625 40.375 
M 52.59375 71.296875 
L 52.59375 62.3125 
Q 48.875 64.0625 45.09375 64.984375 
Q 41.3125 65.921875 37.59375 65.921875 
Q 27.828125 65.921875 22.671875 59.328125 
Q 17.53125 52.734375 16.796875 39.40625 
Q 19.671875 43.65625 24.015625 45.921875 
Q 28.375 48.1875 33.59375 48.1875 
Q 44.578125 48.1875 50.953125 41.515625 
Q 57.328125 34.859375 57.328125 23.390625 
Q 57.328125 12.15625 50.6875 5.359375 
Q 44.046875 -1.421875 33.015625 -1.421875 
Q 20.359375 -1.421875 13.671875 8.265625 
Q 6.984375 17.96875 6.984375 36.375 
Q 6.984375 53.65625 15.1875 63.9375 
Q 23.390625 74.21875 37.203125 74.21875 
Q 40.921875 74.21875 44.703125 73.484375 
Q 48.484375 72.75 52.59375 71.296875 
" id="BitstreamVeraSans-Roman-36"/>
      </defs>
      <g transform="translate(34.99375 144.702580446)scale(0.2 -0.2)">
       <use xlink:href="#BitstreamVeraSans-Roman-30"/>
       <use x="63.623046875" xlink:href="#BitstreamVeraSans-Roman-2e"/>
       <use x="95.41015625" xlink:href="#BitstreamVeraSans-Roman-36"/>
      </g>
     </g>
    </g>
    <g id="ytick_5">
     <g id="line2d_105">
      <path clip-path="url(#p822872393b)" d="M 70.8 84.435316 
L 427.92 84.435316 
" style="fill:none;stroke:#000000;stroke-dasharray:1.000000,3.000000;stroke-dashoffset:0.0;stroke-width:0.5;"/>
     </g>
     <g id="line2d_106">
      <g>
       <use style="stroke:#000000;stroke-width:0.5;" x="70.8" xlink:href="#m7e9b098f13" y="84.4353155941"/>
      </g>
     </g>
     <g id="line2d_107">
      <g>
       <use style="stroke:#000000;stroke-width:0.5;" x="427.92" xlink:href="#m31c6d57ad5" y="84.4353155941"/>
      </g>
     </g>
     <g id="text_10">
      <!-- 0.8 -->
      <defs>
       <path d="M 31.78125 34.625 
Q 24.75 34.625 20.71875 30.859375 
Q 16.703125 27.09375 16.703125 20.515625 
Q 16.703125 13.921875 20.71875 10.15625 
Q 24.75 6.390625 31.78125 6.390625 
Q 38.8125 6.390625 42.859375 10.171875 
Q 46.921875 13.96875 46.921875 20.515625 
Q 46.921875 27.09375 42.890625 30.859375 
Q 38.875 34.625 31.78125 34.625 
M 21.921875 38.8125 
Q 15.578125 40.375 12.03125 44.71875 
Q 8.5 49.078125 8.5 55.328125 
Q 8.5 64.0625 14.71875 69.140625 
Q 20.953125 74.21875 31.78125 74.21875 
Q 42.671875 74.21875 48.875 69.140625 
Q 55.078125 64.0625 55.078125 55.328125 
Q 55.078125 49.078125 51.53125 44.71875 
Q 48 40.375 41.703125 38.8125 
Q 48.828125 37.15625 52.796875 32.3125 
Q 56.78125 27.484375 56.78125 20.515625 
Q 56.78125 9.90625 50.3125 4.234375 
Q 43.84375 -1.421875 31.78125 -1.421875 
Q 19.734375 -1.421875 13.25 4.234375 
Q 6.78125 9.90625 6.78125 20.515625 
Q 6.78125 27.484375 10.78125 32.3125 
Q 14.796875 37.15625 21.921875 38.8125 
M 18.3125 54.390625 
Q 18.3125 48.734375 21.84375 45.5625 
Q 25.390625 42.390625 31.78125 42.390625 
Q 38.140625 42.390625 41.71875 45.5625 
Q 45.3125 48.734375 45.3125 54.390625 
Q 45.3125 60.0625 41.71875 63.234375 
Q 38.140625 66.40625 31.78125 66.40625 
Q 25.390625 66.40625 21.84375 63.234375 
Q 18.3125 60.0625 18.3125 54.390625 
" id="BitstreamVeraSans-Roman-38"/>
      </defs>
      <g transform="translate(34.99375 89.9540655941)scale(0.2 -0.2)">
       <use xlink:href="#BitstreamVeraSans-Roman-30"/>
       <use x="63.623046875" xlink:href="#BitstreamVeraSans-Roman-2e"/>
       <use x="95.41015625" xlink:href="#BitstreamVeraSans-Roman-38"/>
      </g>
     </g>
    </g>
    <g id="ytick_6">
     <g id="line2d_108">
      <path clip-path="url(#p822872393b)" d="M 70.8 29.686801 
L 427.92 29.686801 
" style="fill:none;stroke:#000000;stroke-dasharray:1.000000,3.000000;stroke-dashoffset:0.0;stroke-width:0.5;"/>
     </g>
     <g id="line2d_109">
      <g>
       <use style="stroke:#000000;stroke-width:0.5;" x="70.8" xlink:href="#m7e9b098f13" y="29.6868007426"/>
      </g>
     </g>
     <g id="line2d_110">
      <g>
       <use style="stroke:#000000;stroke-width:0.5;" x="427.92" xlink:href="#m31c6d57ad5" y="29.6868007426"/>
      </g>
     </g>
     <g id="text_11">
      <!-- 1.0 -->
      <g transform="translate(34.99375 35.2055507426)scale(0.2 -0.2)">
       <use xlink:href="#BitstreamVeraSans-Roman-31"/>
       <use x="63.623046875" xlink:href="#BitstreamVeraSans-Roman-2e"/>
       <use x="95.41015625" xlink:href="#BitstreamVeraSans-Roman-30"/>
      </g>
     </g>
    </g>
    <g id="text_12">
     <!-- Proportion of function+target pairs -->
     <defs>
      <path d="M 19.671875 64.796875 
L 19.671875 37.40625 
L 32.078125 37.40625 
Q 38.96875 37.40625 42.71875 40.96875 
Q 46.484375 44.53125 46.484375 51.125 
Q 46.484375 57.671875 42.71875 61.234375 
Q 38.96875 64.796875 32.078125 64.796875 
z
M 9.8125 72.90625 
L 32.078125 72.90625 
Q 44.34375 72.90625 50.609375 67.359375 
Q 56.890625 61.8125 56.890625 51.125 
Q 56.890625 40.328125 50.609375 34.8125 
Q 44.34375 29.296875 32.078125 29.296875 
L 19.671875 29.296875 
L 19.671875 0 
L 9.8125 0 
z
" id="BitstreamVeraSans-Roman-50"/>
      <path d="M 46 62.703125 
L 46 35.5 
L 73.1875 35.5 
L 73.1875 27.203125 
L 46 27.203125 
L 46 0 
L 37.796875 0 
L 37.796875 27.203125 
L 10.59375 27.203125 
L 10.59375 35.5 
L 37.796875 35.5 
L 37.796875 62.703125 
z
" id="BitstreamVeraSans-Roman-2b"/>
      <path d="M 18.109375 8.203125 
L 18.109375 -20.796875 
L 9.078125 -20.796875 
L 9.078125 54.6875 
L 18.109375 54.6875 
L 18.109375 46.390625 
Q 20.953125 51.265625 25.265625 53.625 
Q 29.59375 56 35.59375 56 
Q 45.5625 56 51.78125 48.09375 
Q 58.015625 40.1875 58.015625 27.296875 
Q 58.015625 14.40625 51.78125 6.484375 
Q 45.5625 -1.421875 35.59375 -1.421875 
Q 29.59375 -1.421875 25.265625 0.953125 
Q 20.953125 3.328125 18.109375 8.203125 
M 48.6875 27.296875 
Q 48.6875 37.203125 44.609375 42.84375 
Q 40.53125 48.484375 33.40625 48.484375 
Q 26.265625 48.484375 22.1875 42.84375 
Q 18.109375 37.203125 18.109375 27.296875 
Q 18.109375 17.390625 22.1875 11.75 
Q 26.265625 6.109375 33.40625 6.109375 
Q 40.53125 6.109375 44.609375 11.75 
Q 48.6875 17.390625 48.6875 27.296875 
" id="BitstreamVeraSans-Roman-70"/>
      <path d="M 18.3125 70.21875 
L 18.3125 54.6875 
L 36.8125 54.6875 
L 36.8125 47.703125 
L 18.3125 47.703125 
L 18.3125 18.015625 
Q 18.3125 11.328125 20.140625 9.421875 
Q 21.96875 7.515625 27.59375 7.515625 
L 36.8125 7.515625 
L 36.8125 0 
L 27.59375 0 
Q 17.1875 0 13.234375 3.875 
Q 9.28125 7.765625 9.28125 18.015625 
L 9.28125 47.703125 
L 2.6875 47.703125 
L 2.6875 54.6875 
L 9.28125 54.6875 
L 9.28125 70.21875 
z
" id="BitstreamVeraSans-Roman-74"/>
      <path d="M 8.5 21.578125 
L 8.5 54.6875 
L 17.484375 54.6875 
L 17.484375 21.921875 
Q 17.484375 14.15625 20.5 10.265625 
Q 23.53125 6.390625 29.59375 6.390625 
Q 36.859375 6.390625 41.078125 11.03125 
Q 45.3125 15.671875 45.3125 23.6875 
L 45.3125 54.6875 
L 54.296875 54.6875 
L 54.296875 0 
L 45.3125 0 
L 45.3125 8.40625 
Q 42.046875 3.421875 37.71875 1 
Q 33.40625 -1.421875 27.6875 -1.421875 
Q 18.265625 -1.421875 13.375 4.4375 
Q 8.5 10.296875 8.5 21.578125 
" id="BitstreamVeraSans-Roman-75"/>
      <path d="M 41.109375 46.296875 
Q 39.59375 47.171875 37.8125 47.578125 
Q 36.03125 48 33.890625 48 
Q 26.265625 48 22.1875 43.046875 
Q 18.109375 38.09375 18.109375 28.8125 
L 18.109375 0 
L 9.078125 0 
L 9.078125 54.6875 
L 18.109375 54.6875 
L 18.109375 46.1875 
Q 20.953125 51.171875 25.484375 53.578125 
Q 30.03125 56 36.53125 56 
Q 37.453125 56 38.578125 55.875 
Q 39.703125 55.765625 41.0625 55.515625 
z
" id="BitstreamVeraSans-Roman-72"/>
      <path d="M 48.78125 52.59375 
L 48.78125 44.1875 
Q 44.96875 46.296875 41.140625 47.34375 
Q 37.3125 48.390625 33.40625 48.390625 
Q 24.65625 48.390625 19.8125 42.84375 
Q 14.984375 37.3125 14.984375 27.296875 
Q 14.984375 17.28125 19.8125 11.734375 
Q 24.65625 6.203125 33.40625 6.203125 
Q 37.3125 6.203125 41.140625 7.25 
Q 44.96875 8.296875 48.78125 10.40625 
L 48.78125 2.09375 
Q 45.015625 0.34375 40.984375 -0.53125 
Q 36.96875 -1.421875 32.421875 -1.421875 
Q 20.0625 -1.421875 12.78125 6.34375 
Q 5.515625 14.109375 5.515625 27.296875 
Q 5.515625 40.671875 12.859375 48.328125 
Q 20.21875 56 33.015625 56 
Q 37.15625 56 41.109375 55.140625 
Q 45.0625 54.296875 48.78125 52.59375 
" id="BitstreamVeraSans-Roman-63"/>
     </defs>
     <g transform="translate(26.2503125 323.17875)rotate(-90.0)scale(0.18 -0.18)">
      <use xlink:href="#BitstreamVeraSans-Roman-50"/>
      <use x="60.287109375" xlink:href="#BitstreamVeraSans-Roman-72"/>
      <use x="101.369140625" xlink:href="#BitstreamVeraSans-Roman-6f"/>
      <use x="162.55078125" xlink:href="#BitstreamVeraSans-Roman-70"/>
      <use x="226.02734375" xlink:href="#BitstreamVeraSans-Roman-6f"/>
      <use x="287.208984375" xlink:href="#BitstreamVeraSans-Roman-72"/>
      <use x="328.322265625" xlink:href="#BitstreamVeraSans-Roman-74"/>
      <use x="367.53125" xlink:href="#BitstreamVeraSans-Roman-69"/>
      <use x="395.314453125" xlink:href="#BitstreamVeraSans-Roman-6f"/>
      <use x="456.49609375" xlink:href="#BitstreamVeraSans-Roman-6e"/>
      <use x="519.875" xlink:href="#BitstreamVeraSans-Roman-20"/>
      <use x="551.662109375" xlink:href="#BitstreamVeraSans-Roman-6f"/>
      <use x="612.84375" xlink:href="#BitstreamVeraSans-Roman-66"/>
      <use x="648.048828125" xlink:href="#BitstreamVeraSans-Roman-20"/>
      <use x="679.8359375" xlink:href="#BitstreamVeraSans-Roman-66"/>
      <use x="715.041015625" xlink:href="#BitstreamVeraSans-Roman-75"/>
      <use x="778.419921875" xlink:href="#BitstreamVeraSans-Roman-6e"/>
      <use x="841.798828125" xlink:href="#BitstreamVeraSans-Roman-63"/>
      <use x="896.779296875" xlink:href="#BitstreamVeraSans-Roman-74"/>
      <use x="935.98828125" xlink:href="#BitstreamVeraSans-Roman-69"/>
      <use x="963.771484375" xlink:href="#BitstreamVeraSans-Roman-6f"/>
      <use x="1024.953125" xlink:href="#BitstreamVeraSans-Roman-6e"/>
      <use x="1088.33203125" xlink:href="#BitstreamVeraSans-Roman-2b"/>
      <use x="1172.12109375" xlink:href="#BitstreamVeraSans-Roman-74"/>
      <use x="1211.33007812" xlink:href="#BitstreamVeraSans-Roman-61"/>
      <use x="1272.609375" xlink:href="#BitstreamVeraSans-Roman-72"/>
      <use x="1313.70703125" xlink:href="#BitstreamVeraSans-Roman-67"/>
      <use x="1377.18359375" xlink:href="#BitstreamVeraSans-Roman-65"/>
      <use x="1438.70703125" xlink:href="#BitstreamVeraSans-Roman-74"/>
      <use x="1477.91601562" xlink:href="#BitstreamVeraSans-Roman-20"/>
      <use x="1509.703125" xlink:href="#BitstreamVeraSans-Roman-70"/>
      <use x="1573.1796875" xlink:href="#BitstreamVeraSans-Roman-61"/>
      <use x="1634.45898438" xlink:href="#BitstreamVeraSans-Roman-69"/>
      <use x="1662.2421875" xlink:href="#BitstreamVeraSans-Roman-72"/>
      <use x="1703.35546875" xlink:href="#BitstreamVeraSans-Roman-73"/>
     </g>
    </g>
   </g>
   <g id="text_13">
    <!-- diffusion ga -->
    <g transform="translate(396.24 302.093586015)scale(0.15 -0.15)">
     <use xlink:href="#BitstreamVeraSans-Roman-64"/>
     <use x="63.4765625" xlink:href="#BitstreamVeraSans-Roman-69"/>
     <use x="91.259765625" xlink:href="#BitstreamVeraSans-Roman-66"/>
     <use x="126.46484375" xlink:href="#BitstreamVeraSans-Roman-66"/>
     <use x="161.669921875" xlink:href="#BitstreamVeraSans-Roman-75"/>
     <use x="225.048828125" xlink:href="#BitstreamVeraSans-Roman-73"/>
     <use x="277.1484375" xlink:href="#BitstreamVeraSans-Roman-69"/>
     <use x="304.931640625" xlink:href="#BitstreamVeraSans-Roman-6f"/>
     <use x="366.11328125" xlink:href="#BitstreamVeraSans-Roman-6e"/>
     <use x="429.4921875" xlink:href="#BitstreamVeraSans-Roman-20"/>
     <use x="461.279296875" xlink:href="#BitstreamVeraSans-Roman-67"/>
     <use x="524.755859375" xlink:href="#BitstreamVeraSans-Roman-61"/>
    </g>
   </g>
   <g id="text_14">
    <!-- standard ga -->
    <g transform="translate(396.24 214.495962252)scale(0.15 -0.15)">
     <use xlink:href="#BitstreamVeraSans-Roman-73"/>
     <use x="52.099609375" xlink:href="#BitstreamVeraSans-Roman-74"/>
     <use x="91.30859375" xlink:href="#BitstreamVeraSans-Roman-61"/>
     <use x="152.587890625" xlink:href="#BitstreamVeraSans-Roman-6e"/>
     <use x="215.966796875" xlink:href="#BitstreamVeraSans-Roman-64"/>
     <use x="279.443359375" xlink:href="#BitstreamVeraSans-Roman-61"/>
     <use x="340.72265625" xlink:href="#BitstreamVeraSans-Roman-72"/>
     <use x="381.8203125" xlink:href="#BitstreamVeraSans-Roman-64"/>
     <use x="445.296875" xlink:href="#BitstreamVeraSans-Roman-20"/>
     <use x="477.083984375" xlink:href="#BitstreamVeraSans-Roman-67"/>
     <use x="540.560546875" xlink:href="#BitstreamVeraSans-Roman-61"/>
    </g>
   </g>
   <g id="text_15">
    <!-- migration ga -->
    <g transform="translate(396.24 126.89833849)scale(0.15 -0.15)">
     <use xlink:href="#BitstreamVeraSans-Roman-6d"/>
     <use x="97.412109375" xlink:href="#BitstreamVeraSans-Roman-69"/>
     <use x="125.1953125" xlink:href="#BitstreamVeraSans-Roman-67"/>
     <use x="188.671875" xlink:href="#BitstreamVeraSans-Roman-72"/>
     <use x="229.78515625" xlink:href="#BitstreamVeraSans-Roman-61"/>
     <use x="291.064453125" xlink:href="#BitstreamVeraSans-Roman-74"/>
     <use x="330.2734375" xlink:href="#BitstreamVeraSans-Roman-69"/>
     <use x="358.056640625" xlink:href="#BitstreamVeraSans-Roman-6f"/>
     <use x="419.23828125" xlink:href="#BitstreamVeraSans-Roman-6e"/>
     <use x="482.6171875" xlink:href="#BitstreamVeraSans-Roman-20"/>
     <use x="514.404296875" xlink:href="#BitstreamVeraSans-Roman-67"/>
     <use x="577.880859375" xlink:href="#BitstreamVeraSans-Roman-61"/>
    </g>
   </g>
   <g id="text_16">
    <!-- best 2009 -->
    <defs>
     <path d="M 10.984375 1.515625 
L 10.984375 10.5 
Q 14.703125 8.734375 18.5 7.8125 
Q 22.3125 6.890625 25.984375 6.890625 
Q 35.75 6.890625 40.890625 13.453125 
Q 46.046875 20.015625 46.78125 33.40625 
Q 43.953125 29.203125 39.59375 26.953125 
Q 35.25 24.703125 29.984375 24.703125 
Q 19.046875 24.703125 12.671875 31.3125 
Q 6.296875 37.9375 6.296875 49.421875 
Q 6.296875 60.640625 12.9375 67.421875 
Q 19.578125 74.21875 30.609375 74.21875 
Q 43.265625 74.21875 49.921875 64.515625 
Q 56.59375 54.828125 56.59375 36.375 
Q 56.59375 19.140625 48.40625 8.859375 
Q 40.234375 -1.421875 26.421875 -1.421875 
Q 22.703125 -1.421875 18.890625 -0.6875 
Q 15.09375 0.046875 10.984375 1.515625 
M 30.609375 32.421875 
Q 37.25 32.421875 41.125 36.953125 
Q 45.015625 41.5 45.015625 49.421875 
Q 45.015625 57.28125 41.125 61.84375 
Q 37.25 66.40625 30.609375 66.40625 
Q 23.96875 66.40625 20.09375 61.84375 
Q 16.21875 57.28125 16.21875 49.421875 
Q 16.21875 41.5 20.09375 36.953125 
Q 23.96875 32.421875 30.609375 32.421875 
" id="BitstreamVeraSans-Roman-39"/>
     <path d="M 48.6875 27.296875 
Q 48.6875 37.203125 44.609375 42.84375 
Q 40.53125 48.484375 33.40625 48.484375 
Q 26.265625 48.484375 22.1875 42.84375 
Q 18.109375 37.203125 18.109375 27.296875 
Q 18.109375 17.390625 22.1875 11.75 
Q 26.265625 6.109375 33.40625 6.109375 
Q 40.53125 6.109375 44.609375 11.75 
Q 48.6875 17.390625 48.6875 27.296875 
M 18.109375 46.390625 
Q 20.953125 51.265625 25.265625 53.625 
Q 29.59375 56 35.59375 56 
Q 45.5625 56 51.78125 48.09375 
Q 58.015625 40.1875 58.015625 27.296875 
Q 58.015625 14.40625 51.78125 6.484375 
Q 45.5625 -1.421875 35.59375 -1.421875 
Q 29.59375 -1.421875 25.265625 0.953125 
Q 20.953125 3.328125 18.109375 8.203125 
L 18.109375 0 
L 9.078125 0 
L 9.078125 75.984375 
L 18.109375 75.984375 
z
" id="BitstreamVeraSans-Roman-62"/>
    </defs>
    <g transform="translate(396.24 39.3007147277)scale(0.15 -0.15)">
     <use xlink:href="#BitstreamVeraSans-Roman-62"/>
     <use x="63.4765625" xlink:href="#BitstreamVeraSans-Roman-65"/>
     <use x="125.0" xlink:href="#BitstreamVeraSans-Roman-73"/>
     <use x="177.099609375" xlink:href="#BitstreamVeraSans-Roman-74"/>
     <use x="216.30859375" xlink:href="#BitstreamVeraSans-Roman-20"/>
     <use x="248.095703125" xlink:href="#BitstreamVeraSans-Roman-32"/>
     <use x="311.71875" xlink:href="#BitstreamVeraSans-Roman-30"/>
     <use x="375.341796875" xlink:href="#BitstreamVeraSans-Roman-30"/>
     <use x="438.96484375" xlink:href="#BitstreamVeraSans-Roman-39"/>
    </g>
   </g>
   <g id="text_17">
    <!-- f10-14,3-D -->
    <defs>
     <path d="M 11.71875 12.40625 
L 22.015625 12.40625 
L 22.015625 4 
L 14.015625 -11.625 
L 7.71875 -11.625 
L 11.71875 4 
z
" id="BitstreamVeraSans-Roman-2c"/>
     <path d="M 19.671875 64.796875 
L 19.671875 8.109375 
L 31.59375 8.109375 
Q 46.6875 8.109375 53.6875 14.9375 
Q 60.6875 21.78125 60.6875 36.53125 
Q 60.6875 51.171875 53.6875 57.984375 
Q 46.6875 64.796875 31.59375 64.796875 
z
M 9.8125 72.90625 
L 30.078125 72.90625 
Q 51.265625 72.90625 61.171875 64.09375 
Q 71.09375 55.28125 71.09375 36.53125 
Q 71.09375 17.671875 61.125 8.828125 
Q 51.171875 0 30.078125 0 
L 9.8125 0 
z
" id="BitstreamVeraSans-Roman-44"/>
    </defs>
    <g transform="translate(74.3712 47.67585)scale(0.2 -0.2)">
     <use xlink:href="#BitstreamVeraSans-Roman-66"/>
     <use x="35.205078125" xlink:href="#BitstreamVeraSans-Roman-31"/>
     <use x="98.828125" xlink:href="#BitstreamVeraSans-Roman-30"/>
     <use x="162.451171875" xlink:href="#BitstreamVeraSans-Roman-2d"/>
     <use x="198.53515625" xlink:href="#BitstreamVeraSans-Roman-31"/>
     <use x="262.158203125" xlink:href="#BitstreamVeraSans-Roman-34"/>
     <use x="325.78125" xlink:href="#BitstreamVeraSans-Roman-2c"/>
     <use x="357.568359375" xlink:href="#BitstreamVeraSans-Roman-33"/>
     <use x="421.19140625" xlink:href="#BitstreamVeraSans-Roman-2d"/>
     <use x="457.275390625" xlink:href="#BitstreamVeraSans-Roman-44"/>
    </g>
   </g>
  </g>
 </g>
 <defs>
  <clipPath id="p822872393b">
   <rect height="276.48" width="357.12" x="70.8" y="26.949375"/>
  </clipPath>
 </defs>
</svg>
