<?xml version="1.0" encoding="utf-8" standalone="no"?>
<!DOCTYPE svg PUBLIC "-//W3C//DTD SVG 1.1//EN"
  "http://www.w3.org/Graphics/SVG/1.1/DTD/svg11.dtd">
<!-- Created with matplotlib (http://matplotlib.org/) -->
<svg height="356pt" version="1.1" viewBox="0 0 499 356" width="499pt" xmlns="http://www.w3.org/2000/svg" xmlns:xlink="http://www.w3.org/1999/xlink">
 <defs>
  <style type="text/css">
*{stroke-linecap:butt;stroke-linejoin:round;stroke-miterlimit:100000;}
  </style>
 </defs>
 <g id="figure_1">
  <g id="patch_1">
   <path d="M 0 356.40625 
L 499.313438 356.40625 
L 499.313438 0 
L 0 0 
z
" style="fill:#ffffff;"/>
  </g>
  <g id="axes_1">
   <g id="patch_2">
    <path d="M 70.8 303.429375 
L 427.92 303.429375 
L 427.92 26.949375 
L 70.8 26.949375 
z
" style="fill:#ffffff;"/>
   </g>
   <g id="line2d_1">
    <path d="M 24.99636 303.429375 
L 24.99636 273.773929 
L 53.895239 273.773929 
L 53.895239 251.722444 
L 70.8 251.722444 
L 70.8 238.035316 
L 82.794119 238.035316 
L 82.794119 232.712543 
L 92.09748 232.712543 
L 92.09748 228.910563 
L 99.69888 228.910563 
L 99.69888 222.066999 
L 106.125771 222.066999 
L 106.125771 206.098682 
L 111.692998 206.098682 
L 111.692998 200.015514 
L 116.60364 200.015514 
L 116.60364 193.171949 
L 120.99636 193.171949 
L 120.99636 188.609573 
L 124.970057 188.609573 
L 124.970057 183.286801 
L 128.597759 183.286801 
L 128.597759 179.484821 
L 131.934921 179.484821 
L 131.934921 170.360068 
L 135.024651 170.360068 
L 135.024651 165.037296 
L 137.90112 165.037296 
L 137.90112 162.756108 
L 140.591878 162.756108 
L 140.591878 151.350167 
L 143.119456 151.350167 
L 143.119456 147.548187 
L 145.50252 147.548187 
L 145.50252 146.027395 
L 147.756705 146.027395 
L 147.756705 145.266999 
L 149.895239 145.266999 
L 149.895239 141.465019 
L 151.929412 141.465019 
L 151.929412 140.704623 
L 153.868937 140.704623 
L 153.868937 139.944226 
L 155.722232 139.944226 
L 155.722232 136.142246 
L 157.496639 136.142246 
L 157.496639 134.621454 
L 160.833801 134.621454 
L 160.833801 133.861058 
L 165.386567 133.861058 
L 165.386567 133.100662 
L 169.490757 133.100662 
L 169.490757 132.340266 
L 170.773698 132.340266 
L 170.773698 130.059078 
L 173.226892 130.059078 
L 173.226892 123.97591 
L 174.4014 123.97591 
L 174.4014 122.455118 
L 176.655585 122.455118 
L 176.655585 120.934325 
L 178.794119 120.934325 
L 178.794119 114.851157 
L 180.828291 114.851157 
L 180.828291 114.090761 
L 181.809331 114.090761 
L 181.809331 112.569969 
L 182.767816 112.569969 
L 182.767816 111.049177 
L 183.704761 111.049177 
L 183.704761 108.767989 
L 185.517754 108.767989 
L 185.517754 107.247197 
L 186.395518 107.247197 
L 186.395518 106.486801 
L 188.923096 106.486801 
L 188.923096 98.88284 
L 189.732681 98.88284 
L 189.732681 98.122444 
L 190.526843 98.122444 
L 190.526843 95.841256 
L 191.30616 95.841256 
L 191.30616 95.08086 
L 192.82241 95.08086 
L 192.82241 93.560068 
L 193.560346 93.560068 
L 193.560346 90.518484 
L 196.388024 90.518484 
L 196.388024 89.758088 
L 197.065962 89.758088 
L 197.065962 88.237296 
L 197.733052 88.237296 
L 197.733052 86.716504 
L 198.389637 86.716504 
L 198.389637 82.154127 
L 200.299541 82.154127 
L 200.299541 81.393731 
L 200.917215 81.393731 
L 200.917215 79.872939 
L 202.125771 79.872939 
L 202.125771 79.112543 
L 204.442605 79.112543 
L 204.442605 78.352147 
L 205.002241 78.352147 
L 205.002241 77.591751 
L 205.554464 77.591751 
L 205.554464 76.070959 
L 206.637441 76.070959 
L 206.637441 74.550167 
L 207.16856 74.550167 
L 207.16856 73.029375 
L 208.210921 73.029375 
L 208.210921 72.268979 
L 213.970723 72.268979 
L 213.970723 71.508583 
L 216.99636 71.508583 
L 216.99636 70.748187 
L 218.228733 70.748187 
L 218.228733 68.466999 
L 222.09189 68.466999 
L 222.09189 67.706603 
L 222.823352 67.706603 
L 222.823352 64.665019 
L 223.184327 64.665019 
L 223.184327 63.904623 
L 227.934921 63.904623 
L 227.934921 62.38383 
L 234.726737 62.38383 
L 234.726737 60.102642 
L 238.873483 60.102642 
L 238.873483 58.58185 
L 240.565576 58.58185 
L 240.565576 57.821454 
L 242.191664 57.821454 
L 242.191664 56.300662 
L 244.193278 56.300662 
L 244.193278 54.77987 
L 244.409861 54.77987 
L 244.409861 54.019474 
L 245.895239 54.019474 
L 245.895239 52.498682 
L 247.127613 52.498682 
L 247.127613 51.738286 
L 248.324602 51.738286 
L 248.324602 50.97789 
L 255.365037 50.97789 
L 255.365037 47.936306 
L 256.673137 47.936306 
L 256.673137 45.655118 
L 258.561411 45.655118 
L 258.561411 44.134325 
L 263.897228 44.134325 
L 263.897228 43.373929 
L 265.750523 43.373929 
L 265.750523 41.853137 
L 270.517051 41.853137 
L 270.517051 41.092741 
L 273.20059 41.092741 
L 273.20059 33.488781 
L 275.721797 33.488781 
L 275.721797 31.207593 
L 287.690424 31.207593 
L 287.690424 30.447197 
L 299.415931 30.447197 
L 299.415931 29.686801 
L 358.8 29.686801 
L 358.8 29.686801 
" style="fill:none;stroke:#f5deb3;stroke-linecap:square;stroke-width:6.0;"/>
   </g>
   <g id="line2d_2"/>
   <g id="line2d_3">
    <path d="M 358.8 29.686801 
L 390.48 35.161652 
" style="fill:none;stroke:#f5deb3;stroke-linecap:square;stroke-width:6.0;"/>
    <defs>
     <path d="M -0 7.778175 
L 7.778175 0 
L 0 -7.778175 
L -7.778175 -0 
z
" id="m10c2823c86" style="stroke:#f5deb3;stroke-linejoin:miter;stroke-width:1.5;"/>
    </defs>
    <g>
     <use style="fill:#f5deb3;stroke:#f5deb3;stroke-linejoin:miter;stroke-width:1.5;" x="358.8" xlink:href="#m10c2823c86" y="29.6868007426"/>
     <use style="fill:#f5deb3;stroke:#f5deb3;stroke-linejoin:miter;stroke-width:1.5;" x="390.48" xlink:href="#m10c2823c86" y="35.1616522277"/>
    </g>
   </g>
   <g id="line2d_4">
    <defs>
     <path d="M 0 1.5 
C 0.397805 1.5 0.77937 1.341951 1.06066 1.06066 
C 1.341951 0.77937 1.5 0.397805 1.5 0 
C 1.5 -0.397805 1.341951 -0.77937 1.06066 -1.06066 
C 0.77937 -1.341951 0.397805 -1.5 0 -1.5 
C -0.397805 -1.5 -0.77937 -1.341951 -1.06066 -1.06066 
C -1.341951 -0.77937 -1.5 -0.397805 -1.5 0 
C -1.5 0.397805 -1.341951 0.77937 -1.06066 1.06066 
C -0.77937 1.341951 -0.397805 1.5 0 1.5 
z
" id="me45647f4de" style="stroke:#f5deb3;stroke-width:0.5;"/>
    </defs>
    <g>
     <use style="fill:#f5deb3;stroke:#f5deb3;stroke-width:0.5;" x="299.415930514" xlink:href="#me45647f4de" y="29.6868007426"/>
     <use style="fill:#f5deb3;stroke:#f5deb3;stroke-width:0.5;" x="299.415930514" xlink:href="#me45647f4de" y="29.6868007426"/>
    </g>
   </g>
   <g id="line2d_5">
    <g>
     <use style="fill:#f5deb3;stroke:#f5deb3;stroke-linejoin:miter;stroke-width:1.5;" x="53.8952391307" xlink:href="#m10c2823c86" y="251.722444307"/>
     <use style="fill:#f5deb3;stroke:#f5deb3;stroke-linejoin:miter;stroke-width:1.5;" x="135.024650972" xlink:href="#m10c2823c86" y="165.037295792"/>
     <use style="fill:#f5deb3;stroke:#f5deb3;stroke-linejoin:miter;stroke-width:1.5;" x="190.526843029" xlink:href="#m10c2823c86" y="98.1224443069"/>
     <use style="fill:#f5deb3;stroke:#f5deb3;stroke-linejoin:miter;stroke-width:1.5;" x="234.726736905" xlink:href="#m10c2823c86" y="60.1026423267"/>
     <use style="fill:#f5deb3;stroke:#f5deb3;stroke-linejoin:miter;stroke-width:1.5;" x="299.415930514" xlink:href="#m10c2823c86" y="30.4471967822"/>
     <use style="fill:#f5deb3;stroke:#f5deb3;stroke-linejoin:miter;stroke-width:1.5;" x="358.8" xlink:href="#m10c2823c86" y="29.6868007426"/>
    </g>
   </g>
   <g id="line2d_6">
    <defs>
     <path d="M 0 1.5 
C 0.397805 1.5 0.77937 1.341951 1.06066 1.06066 
C 1.341951 0.77937 1.5 0.397805 1.5 0 
C 1.5 -0.397805 1.341951 -0.77937 1.06066 -1.06066 
C 0.77937 -1.341951 0.397805 -1.5 0 -1.5 
C -0.397805 -1.5 -0.77937 -1.341951 -1.06066 -1.06066 
C -1.341951 -0.77937 -1.5 -0.397805 -1.5 0 
C -1.5 0.397805 -1.341951 0.77937 -1.06066 1.06066 
C -0.77937 1.341951 -0.397805 1.5 0 1.5 
z
" id="maa320b980b" style="stroke:#000080;stroke-width:0.5;"/>
    </defs>
    <g>
     <use style="fill:#000080;stroke:#000080;stroke-width:0.5;" x="409.353380074" xlink:href="#maa320b980b" y="44.8947215347"/>
     <use style="fill:#000080;stroke:#000080;stroke-width:0.5;" x="409.353380074" xlink:href="#maa320b980b" y="44.8947215347"/>
    </g>
   </g>
   <g id="line2d_7">
    <path d="M 24.99636 303.429375 
L 24.99636 292.78383 
L 53.895239 292.78383 
L 53.895239 282.138286 
L 70.8 282.138286 
L 70.8 268.451157 
L 82.794119 268.451157 
L 82.794119 263.128385 
L 92.09748 263.128385 
L 92.09748 260.086801 
L 99.69888 260.086801 
L 99.69888 248.68086 
L 106.125771 248.68086 
L 106.125771 247.920464 
L 111.692998 247.920464 
L 111.692998 242.597692 
L 116.60364 242.597692 
L 116.60364 234.233335 
L 120.99636 234.233335 
L 120.99636 229.670959 
L 124.970057 229.670959 
L 124.970057 224.348187 
L 128.597759 224.348187 
L 128.597759 220.546207 
L 131.934921 220.546207 
L 131.934921 217.504623 
L 135.024651 217.504623 
L 135.024651 208.37987 
L 137.90112 208.37987 
L 137.90112 203.057098 
L 140.591878 203.057098 
L 140.591878 201.536306 
L 143.119456 201.536306 
L 143.119456 196.213533 
L 145.50252 196.213533 
L 145.50252 191.651157 
L 149.895239 191.651157 
L 149.895239 190.890761 
L 151.929412 190.890761 
L 151.929412 189.369969 
L 153.868937 189.369969 
L 153.868937 186.328385 
L 157.496639 186.328385 
L 157.496639 184.047197 
L 159.1986 184.047197 
L 159.1986 183.286801 
L 162.407281 183.286801 
L 162.407281 175.68284 
L 163.923531 175.68284 
L 163.923531 168.839276 
L 168.167082 168.839276 
L 168.167082 167.318484 
L 170.773698 167.318484 
L 170.773698 166.558088 
L 175.543725 166.558088 
L 175.543725 164.2769 
L 176.655585 164.2769 
L 176.655585 163.516504 
L 178.794119 163.516504 
L 178.794119 159.714524 
L 179.82361 159.714524 
L 179.82361 157.433335 
L 180.828291 157.433335 
L 180.828291 156.672939 
L 181.809331 156.672939 
L 181.809331 154.391751 
L 184.621111 154.391751 
L 184.621111 150.589771 
L 186.395518 150.589771 
L 186.395518 149.829375 
L 188.09748 149.829375 
L 188.09748 149.068979 
L 190.526843 149.068979 
L 190.526843 147.548187 
L 191.30616 147.548187 
L 191.30616 146.027395 
L 193.560346 146.027395 
L 193.560346 145.266999 
L 194.285447 145.266999 
L 194.285447 142.985811 
L 196.388024 142.985811 
L 196.388024 141.465019 
L 199.036042 141.465019 
L 199.036042 140.704623 
L 200.299541 140.704623 
L 200.299541 139.18383 
L 200.917215 139.18383 
L 200.917215 138.423434 
L 201.525872 138.423434 
L 201.525872 135.38185 
L 206.099469 135.38185 
L 206.099469 133.861058 
L 206.637441 133.861058 
L 206.637441 133.100662 
L 207.16856 133.100662 
L 207.16856 130.059078 
L 211.190208 130.059078 
L 211.190208 129.298682 
L 216.154063 129.298682 
L 216.154063 127.017494 
L 216.99636 127.017494 
L 216.99636 126.257098 
L 220.589303 126.257098 
L 220.589303 125.496702 
L 222.09189 125.496702 
L 222.09189 123.215514 
L 223.897032 123.215514 
L 223.897032 122.455118 
L 224.248868 122.455118 
L 224.248868 121.694722 
L 225.286903 121.694722 
L 225.286903 119.413533 
L 225.62725 119.413533 
L 225.62725 118.653137 
L 228.571457 118.653137 
L 228.571457 117.132345 
L 231.024651 117.132345 
L 231.024651 116.371949 
L 231.908619 116.371949 
L 231.908619 114.090761 
L 237.36637 114.090761 
L 237.36637 113.330365 
L 239.363986 113.330365 
L 239.363986 111.809573 
L 244.193278 111.809573 
L 244.193278 110.288781 
L 246.310091 110.288781 
L 246.310091 109.528385 
L 249.296494 109.528385 
L 249.296494 108.007593 
L 251.722232 108.007593 
L 251.722232 107.247197 
L 258.252578 107.247197 
L 258.252578 105.726405 
L 260.661466 105.726405 
L 260.661466 104.966009 
L 260.953022 104.966009 
L 260.953022 104.205613 
L 264.301357 104.205613 
L 264.301357 103.445217 
L 264.834173 103.445217 
L 264.834173 102.684821 
L 265.229363 102.684821 
L 265.229363 101.924425 
L 265.620843 101.924425 
L 265.620843 100.403632 
L 266.392944 100.403632 
L 266.392944 99.643236 
L 268.14078 99.643236 
L 268.14078 98.122444 
L 270.052508 98.122444 
L 270.052508 96.601652 
L 270.517051 96.601652 
L 270.517051 95.841256 
L 271.31775 95.841256 
L 271.31775 95.08086 
L 271.430891 95.08086 
L 271.430891 92.039276 
L 272.214393 92.039276 
L 272.214393 88.997692 
L 273.092157 88.997692 
L 273.092157 85.956108 
L 274.269681 85.956108 
L 274.269681 85.195712 
L 274.585134 85.195712 
L 274.585134 84.435316 
L 274.794119 84.435316 
L 274.794119 83.67492 
L 276.728906 83.67492 
L 276.728906 82.914524 
L 278.002799 82.914524 
L 278.002799 82.154127 
L 281.606367 82.154127 
L 281.606367 81.393731 
L 282.913441 81.393731 
L 282.913441 80.633335 
L 290.785617 80.633335 
L 290.785617 79.872939 
L 292.456316 79.872939 
L 292.456316 77.591751 
L 293.534043 77.591751 
L 293.534043 76.831355 
L 294.193745 76.831355 
L 294.193745 76.070959 
L 295.7357 76.070959 
L 295.7357 75.310563 
L 299.242333 75.310563 
L 299.242333 74.550167 
L 299.989423 74.550167 
L 299.989423 73.789771 
L 302.15358 73.789771 
L 302.15358 73.029375 
L 302.956924 73.029375 
L 302.956924 72.268979 
L 305.227856 72.268979 
L 305.227856 71.508583 
L 307.142258 71.508583 
L 307.142258 70.748187 
L 309.292785 70.748187 
L 309.292785 69.987791 
L 309.565284 69.987791 
L 309.565284 69.227395 
L 309.836014 69.227395 
L 309.836014 68.466999 
L 310.681909 68.466999 
L 310.681909 67.706603 
L 311.337805 67.706603 
L 311.337805 66.946207 
L 312.06889 66.946207 
L 312.06889 65.425415 
L 316.050338 65.425415 
L 316.050338 64.665019 
L 318.09189 64.665019 
L 318.09189 63.904623 
L 320.978197 63.904623 
L 320.978197 63.144226 
L 322.928675 63.144226 
L 322.928675 60.863038 
L 323.418602 60.863038 
L 323.418602 60.102642 
L 326.60563 60.102642 
L 326.60563 59.342246 
L 329.030452 59.342246 
L 329.030452 58.58185 
L 330.644907 58.58185 
L 330.644907 57.061058 
L 334.526665 57.061058 
L 334.526665 56.300662 
L 338.12326 56.300662 
L 338.12326 55.540266 
L 344.14723 55.540266 
L 344.14723 54.77987 
L 344.344264 54.77987 
L 344.344264 54.019474 
L 347.467677 54.019474 
L 347.467677 53.259078 
L 349.963058 53.259078 
L 349.963058 52.498682 
L 350.830085 52.498682 
L 350.830085 51.738286 
L 358.8 51.738286 
L 358.8 51.738286 
" style="fill:none;stroke:#000080;stroke-linecap:square;stroke-width:1.5;"/>
   </g>
   <g id="line2d_8">
    <defs>
     <path d="M 0 6 
C 1.591219 6 3.117479 5.367802 4.242641 4.242641 
C 5.367802 3.117479 6 1.591219 6 0 
C 6 -1.591219 5.367802 -3.117479 4.242641 -4.242641 
C 3.117479 -5.367802 1.591219 -6 0 -6 
C -1.591219 -6 -3.117479 -5.367802 -4.242641 -4.242641 
C -5.367802 -3.117479 -6 -1.591219 -6 0 
C -6 1.591219 -5.367802 3.117479 -4.242641 4.242641 
C -3.117479 5.367802 -1.591219 6 0 6 
z
" id="m216be3b838" style="stroke:#000080;stroke-width:1.5;"/>
    </defs>
    <g>
     <use style="fill:none;stroke:#000080;stroke-width:1.5;" x="92.0974799632" xlink:href="#m216be3b838" y="260.086800743"/>
     <use style="fill:none;stroke:#000080;stroke-width:1.5;" x="143.119455999" xlink:href="#m216be3b838" y="201.536305693"/>
     <use style="fill:none;stroke:#000080;stroke-width:1.5;" x="200.917215167" xlink:href="#m216be3b838" y="139.183830446"/>
     <use style="fill:none;stroke:#000080;stroke-width:1.5;" x="273.092157086" xlink:href="#m216be3b838" y="85.9561076733"/>
     <use style="fill:none;stroke:#000080;stroke-width:1.5;" x="338.123260093" xlink:href="#m216be3b838" y="55.5402660891"/>
     <use style="fill:none;stroke:#000080;stroke-width:1.5;" x="358.8" xlink:href="#m216be3b838" y="51.7382858911"/>
    </g>
   </g>
   <g id="line2d_9"/>
   <g id="line2d_10">
    <path clip-path="url(#p7dd2b0da94)" d="M 262.8 104.205613 
" style="fill:none;stroke:#000080;stroke-linecap:square;"/>
    <defs>
     <path d="M -12 12 
L 12 -12 
M -12 -12 
L 12 12 
" id="m6977a8163a" style="stroke:#000080;stroke-width:3.0;"/>
    </defs>
    <g clip-path="url(#p7dd2b0da94)">
     <use style="fill:#000080;stroke:#000080;stroke-width:3.0;" x="262.8" xlink:href="#m6977a8163a" y="104.205612624"/>
    </g>
   </g>
   <g id="line2d_11">
    <defs>
     <path d="M 0 1.5 
C 0.397805 1.5 0.77937 1.341951 1.06066 1.06066 
C 1.341951 0.77937 1.5 0.397805 1.5 0 
C 1.5 -0.397805 1.341951 -0.77937 1.06066 -1.06066 
C 0.77937 -1.341951 0.397805 -1.5 0 -1.5 
C -0.397805 -1.5 -0.77937 -1.341951 -1.06066 -1.06066 
C -1.341951 -0.77937 -1.5 -0.397805 -1.5 0 
C -1.5 0.397805 -1.341951 0.77937 -1.06066 1.06066 
C -0.77937 1.341951 -0.397805 1.5 0 1.5 
z
" id="m18c1cae720" style="stroke:#ff00ff;stroke-width:0.5;"/>
    </defs>
    <g>
     <use style="fill:#ff00ff;stroke:#ff00ff;stroke-width:0.5;" x="418.082355349" xlink:href="#m18c1cae720" y="37.2907611386"/>
     <use style="fill:#ff00ff;stroke:#ff00ff;stroke-width:0.5;" x="418.082355349" xlink:href="#m18c1cae720" y="37.2907611386"/>
    </g>
   </g>
   <g id="line2d_12">
    <path d="M 24.99636 303.429375 
L 24.99636 283.659078 
L 53.895239 283.659078 
L 53.895239 276.055118 
L 70.8 276.055118 
L 70.8 266.930365 
L 82.794119 266.930365 
L 82.794119 253.243236 
L 92.09748 253.243236 
L 92.09748 242.597692 
L 99.69888 242.597692 
L 99.69888 232.712543 
L 106.125771 232.712543 
L 106.125771 231.191751 
L 111.692998 231.191751 
L 111.692998 225.868979 
L 116.60364 225.868979 
L 116.60364 224.348187 
L 120.99636 224.348187 
L 120.99636 221.306603 
L 124.970057 221.306603 
L 124.970057 217.504623 
L 128.597759 217.504623 
L 128.597759 209.900662 
L 135.024651 209.900662 
L 135.024651 206.859078 
L 137.90112 206.859078 
L 137.90112 203.057098 
L 140.591878 203.057098 
L 140.591878 197.734325 
L 143.119456 197.734325 
L 143.119456 192.411553 
L 145.50252 192.411553 
L 145.50252 190.130365 
L 147.756705 190.130365 
L 147.756705 184.047197 
L 149.895239 184.047197 
L 149.895239 177.964028 
L 151.929412 177.964028 
L 151.929412 172.641256 
L 153.868937 172.641256 
L 153.868937 170.360068 
L 155.722232 170.360068 
L 155.722232 165.797692 
L 157.496639 165.797692 
L 157.496639 165.037296 
L 159.1986 165.037296 
L 159.1986 164.2769 
L 160.833801 164.2769 
L 160.833801 163.516504 
L 163.923531 163.516504 
L 163.923531 161.995712 
L 166.8 161.995712 
L 166.8 160.47492 
L 169.490757 160.47492 
L 169.490757 158.954127 
L 172.018336 158.954127 
L 172.018336 154.391751 
L 176.655585 154.391751 
L 176.655585 147.548187 
L 177.738562 147.548187 
L 177.738562 142.985811 
L 180.828291 142.985811 
L 180.828291 140.704623 
L 183.704761 140.704623 
L 183.704761 139.18383 
L 184.621111 139.18383 
L 184.621111 138.423434 
L 186.395518 138.423434 
L 186.395518 136.902642 
L 187.255183 136.902642 
L 187.255183 134.621454 
L 188.09748 134.621454 
L 188.09748 132.340266 
L 188.923096 132.340266 
L 188.923096 131.57987 
L 189.732681 131.57987 
L 189.732681 130.819474 
L 190.526843 130.819474 
L 190.526843 129.298682 
L 192.071178 129.298682 
L 192.071178 127.77789 
L 199.036042 127.77789 
L 199.036042 127.017494 
L 199.672577 127.017494 
L 199.672577 126.257098 
L 201.525872 126.257098 
L 201.525872 125.496702 
L 202.125771 125.496702 
L 202.125771 123.97591 
L 205.554464 123.97591 
L 205.554464 121.694722 
L 210.220576 121.694722 
L 210.220576 119.413533 
L 211.190208 119.413533 
L 211.190208 117.892741 
L 211.666696 117.892741 
L 211.666696 116.371949 
L 214.416633 116.371949 
L 214.416633 115.611553 
L 215.294398 115.611553 
L 215.294398 114.851157 
L 218.63156 114.851157 
L 218.63156 113.330365 
L 219.817202 113.330365 
L 219.817202 111.809573 
L 221.72129 111.809573 
L 221.72129 111.049177 
L 223.897032 111.049177 
L 223.897032 109.528385 
L 225.286903 109.528385 
L 225.286903 108.767989 
L 226.631932 108.767989 
L 226.631932 107.247197 
L 230.72578 107.247197 
L 230.72578 106.486801 
L 231.024651 106.486801 
L 231.024651 104.205613 
L 237.621369 104.205613 
L 237.621369 103.445217 
L 245.686255 103.445217 
L 245.686255 99.643236 
L 250.433626 99.643236 
L 250.433626 96.601652 
L 254.863721 96.601652 
L 254.863721 94.320464 
L 263.352224 94.320464 
L 263.352224 92.039276 
L 266.265249 92.039276 
L 266.265249 90.518484 
L 267.151006 90.518484 
L 267.151006 88.237296 
L 267.27602 88.237296 
L 267.27602 87.4769 
L 267.400661 87.4769 
L 267.400661 86.716504 
L 267.895531 86.716504 
L 267.895531 85.956108 
L 268.018336 85.956108 
L 268.018336 85.195712 
L 275.312042 85.195712 
L 275.312042 84.435316 
L 277.026355 84.435316 
L 277.026355 83.67492 
L 277.614961 83.67492 
L 277.614961 82.914524 
L 282.99914 82.914524 
L 282.99914 82.154127 
L 285.004766 82.154127 
L 285.004766 81.393731 
L 291.20961 81.393731 
L 291.20961 79.872939 
L 292.251103 79.872939 
L 292.251103 79.112543 
L 293.200236 79.112543 
L 293.267212 77.591751 
L 293.534043 77.591751 
L 293.534043 76.831355 
L 296.299541 76.831355 
L 296.299541 76.070959 
L 298.244722 76.070959 
L 298.244722 74.550167 
L 299.06801 74.550167 
L 299.06801 73.789771 
L 307.666696 73.789771 
L 307.666696 73.029375 
L 309.064333 73.029375 
L 309.110124 70.748187 
L 309.292785 70.748187 
L 309.292785 67.706603 
L 311.769406 67.706603 
L 311.769406 66.946207 
L 316.474396 66.946207 
L 316.474396 66.185811 
L 320.70186 66.185811 
L 320.70186 64.665019 
L 323.677561 64.665019 
L 323.677561 63.904623 
L 324.444925 63.904623 
L 324.444925 63.144226 
L 328.659852 63.144226 
L 328.659852 62.38383 
L 329.482099 62.38383 
L 329.482099 61.623434 
L 329.650213 61.623434 
L 329.650213 60.102642 
L 336.065119 60.102642 
L 336.065119 59.342246 
L 336.872398 59.342246 
L 336.895907 57.821454 
L 336.989808 57.821454 
L 337.013251 54.77987 
L 342.557035 54.77987 
L 342.557035 54.019474 
L 343.188285 54.019474 
L 343.269045 51.738286 
L 348.68978 51.738286 
L 348.68978 50.97789 
L 353.422932 50.97789 
L 353.517687 47.936306 
L 354.898506 47.936306 
L 354.898506 47.17591 
L 355.263164 47.17591 
L 355.263164 46.415514 
L 357.772941 46.415514 
L 357.772941 45.655118 
L 358.8 45.655118 
L 358.8 45.655118 
" style="fill:none;stroke:#ff00ff;stroke-linecap:square;stroke-width:1.5;"/>
   </g>
   <g id="line2d_13">
    <defs>
     <path d="M -0 8.485281 
L 5.091169 0 
L 0 -8.485281 
L -5.091169 -0 
z
" id="m4270558e04" style="stroke:#ff00ff;stroke-linejoin:miter;stroke-width:1.5;"/>
    </defs>
    <g>
     <use style="fill:none;stroke:#ff00ff;stroke-linejoin:miter;stroke-width:1.5;" x="53.8952391307" xlink:href="#m4270558e04" y="283.65907797"/>
     <use style="fill:none;stroke:#ff00ff;stroke-linejoin:miter;stroke-width:1.5;" x="120.996359547" xlink:href="#m4270558e04" y="224.348186881"/>
     <use style="fill:none;stroke:#ff00ff;stroke-linejoin:miter;stroke-width:1.5;" x="184.621111388" xlink:href="#m4270558e04" y="138.423434406"/>
     <use style="fill:none;stroke:#ff00ff;stroke-linejoin:miter;stroke-width:1.5;" x="254.863720906" xlink:href="#m4270558e04" y="94.3204641089"/>
     <use style="fill:none;stroke:#ff00ff;stroke-linejoin:miter;stroke-width:1.5;" x="342.557035094" xlink:href="#m4270558e04" y="54.0194740099"/>
     <use style="fill:none;stroke:#ff00ff;stroke-linejoin:miter;stroke-width:1.5;" x="358.8" xlink:href="#m4270558e04" y="45.6551175743"/>
    </g>
   </g>
   <g id="line2d_14"/>
   <g id="line2d_15">
    <path clip-path="url(#p7dd2b0da94)" d="M 261.098038 94.320464 
" style="fill:none;stroke:#ff00ff;stroke-linecap:square;"/>
    <defs>
     <path d="M -12 12 
L 12 -12 
M -12 -12 
L 12 12 
" id="mea8569a7e3" style="stroke:#ff00ff;stroke-width:3.0;"/>
    </defs>
    <g clip-path="url(#p7dd2b0da94)">
     <use style="fill:#ff00ff;stroke:#ff00ff;stroke-width:3.0;" x="261.098038372" xlink:href="#mea8569a7e3" y="94.3204641089"/>
    </g>
   </g>
   <g id="line2d_16">
    <defs>
     <path d="M 0 1.5 
C 0.397805 1.5 0.77937 1.341951 1.06066 1.06066 
C 1.341951 0.77937 1.5 0.397805 1.5 0 
C 1.5 -0.397805 1.341951 -0.77937 1.06066 -1.06066 
C 0.77937 -1.341951 0.397805 -1.5 0 -1.5 
C -0.397805 -1.5 -0.77937 -1.341951 -1.06066 -1.06066 
C -1.341951 -0.77937 -1.5 -0.397805 -1.5 0 
C -1.5 0.397805 -1.341951 0.77937 -1.06066 1.06066 
C -0.77937 1.341951 -0.397805 1.5 0 1.5 
z
" id="mf667cf1c07" style="stroke:#ffa500;stroke-width:0.5;"/>
    </defs>
    <g>
     <use style="fill:#ffa500;stroke:#ffa500;stroke-width:0.5;" x="399.158003969" xlink:href="#mf667cf1c07" y="52.4986819307"/>
     <use style="fill:#ffa500;stroke:#ffa500;stroke-width:0.5;" x="399.158003969" xlink:href="#mf667cf1c07" y="52.4986819307"/>
    </g>
   </g>
   <g id="line2d_17">
    <path d="M 24.99636 303.429375 
L 24.99636 285.940266 
L 53.895239 285.940266 
L 53.895239 278.336306 
L 70.8 278.336306 
L 70.8 268.451157 
L 82.794119 268.451157 
L 82.794119 259.326405 
L 92.09748 259.326405 
L 92.09748 242.597692 
L 99.69888 242.597692 
L 99.69888 225.108583 
L 106.125771 225.108583 
L 106.125771 222.827395 
L 111.692998 222.827395 
L 111.692998 215.223434 
L 116.60364 215.223434 
L 116.60364 211.421454 
L 120.99636 211.421454 
L 120.99636 204.57789 
L 124.970057 204.57789 
L 124.970057 200.015514 
L 128.597759 200.015514 
L 128.597759 197.734325 
L 131.934921 197.734325 
L 131.934921 193.171949 
L 137.90112 193.171949 
L 137.90112 192.411553 
L 143.119456 192.411553 
L 143.119456 189.369969 
L 145.50252 189.369969 
L 145.50252 184.807593 
L 147.756705 184.807593 
L 147.756705 182.526405 
L 149.895239 182.526405 
L 149.895239 181.766009 
L 151.929412 181.766009 
L 151.929412 176.443236 
L 153.868937 176.443236 
L 153.868937 174.922444 
L 155.722232 174.922444 
L 155.722232 174.162048 
L 157.496639 174.162048 
L 157.496639 172.641256 
L 159.1986 172.641256 
L 159.1986 171.88086 
L 162.407281 171.88086 
L 162.407281 168.839276 
L 163.923531 168.839276 
L 163.923531 166.558088 
L 168.167082 166.558088 
L 168.167082 165.797692 
L 172.018336 165.797692 
L 172.018336 164.2769 
L 173.226892 164.2769 
L 173.226892 163.516504 
L 174.4014 163.516504 
L 174.4014 161.995712 
L 175.543725 161.995712 
L 175.543725 158.954127 
L 177.738562 158.954127 
L 177.738562 155.152147 
L 178.794119 155.152147 
L 178.794119 154.391751 
L 181.809331 154.391751 
L 181.809331 153.631355 
L 183.704761 153.631355 
L 183.704761 149.068979 
L 186.395518 149.068979 
L 186.395518 146.787791 
L 188.09748 146.787791 
L 188.09748 146.027395 
L 188.923096 146.027395 
L 188.923096 145.266999 
L 192.071178 145.266999 
L 192.071178 144.506603 
L 195.69888 144.506603 
L 195.69888 142.985811 
L 198.389637 142.985811 
L 198.389637 141.465019 
L 199.036042 141.465019 
L 199.036042 139.944226 
L 199.672577 139.944226 
L 199.672577 139.18383 
L 201.525872 139.18383 
L 201.525872 137.663038 
L 205.002241 137.663038 
L 205.002241 136.902642 
L 207.16856 136.902642 
L 207.16856 136.142246 
L 208.210921 136.142246 
L 208.210921 135.38185 
L 210.220576 135.38185 
L 210.220576 134.621454 
L 213.064333 134.621454 
L 213.064333 133.861058 
L 215.294398 133.861058 
L 215.294398 133.100662 
L 217.411211 133.100662 
L 217.411211 131.57987 
L 220.20504 131.57987 
L 220.20504 130.059078 
L 222.09189 130.059078 
L 222.09189 128.538286 
L 222.823352 128.538286 
L 222.823352 127.017494 
L 223.184327 127.017494 
L 223.184327 125.496702 
L 224.943755 125.496702 
L 224.943755 122.455118 
L 225.62725 122.455118 
L 225.62725 121.694722 
L 226.299721 121.694722 
L 226.299721 120.934325 
L 226.961517 120.934325 
L 226.961517 120.173929 
L 231.321394 120.173929 
L 231.321394 118.653137 
L 231.616041 118.653137 
L 231.616041 117.892741 
L 232.487688 117.892741 
L 232.487688 115.611553 
L 236.330483 115.611553 
L 236.330483 114.851157 
L 238.626051 114.851157 
L 238.626051 114.090761 
L 239.363986 114.090761 
L 239.363986 113.330365 
L 239.60709 113.330365 
L 239.60709 112.569969 
L 244.625326 112.569969 
L 244.625326 111.809573 
L 244.839682 111.809573 
L 244.839682 110.288781 
L 245.476218 110.288781 
L 245.476218 109.528385 
L 247.329513 109.528385 
L 247.329513 108.767989 
L 248.716082 108.767989 
L 248.716082 107.247197 
L 249.868937 107.247197 
L 249.868937 105.726405 
L 254.52613 105.726405 
L 254.52613 104.966009 
L 254.695267 104.966009 
L 254.695267 104.205613 
L 256.187396 104.205613 
L 256.187396 103.445217 
L 256.511851 103.445217 
L 256.511851 101.924425 
L 256.673137 101.924425 
L 256.673137 101.164028 
L 257.470337 101.164028 
L 257.470337 98.88284 
L 257.627963 98.88284 
L 257.627963 98.122444 
L 257.784997 98.122444 
L 257.784997 97.362048 
L 258.561411 97.362048 
L 258.561411 95.841256 
L 259.474417 95.841256 
L 259.474417 95.08086 
L 262.099273 95.08086 
L 262.099273 94.320464 
L 262.240364 94.320464 
L 262.240364 92.799672 
L 265.490757 92.799672 
L 265.490757 92.039276 
L 265.750523 92.039276 
L 265.750523 91.27888 
L 270.4014 91.27888 
L 270.4014 90.518484 
L 270.976475 90.518484 
L 270.976475 89.758088 
L 271.430891 89.758088 
L 271.430891 88.997692 
L 275.619735 88.997692 
L 275.721797 86.716504 
L 277.517436 86.716504 
L 277.517436 85.956108 
L 278.956897 85.956108 
L 278.956897 85.195712 
L 281.606367 85.195712 
L 281.606367 84.435316 
L 282.741514 84.435316 
L 282.827566 82.914524 
L 283.930376 82.914524 
L 283.930376 82.154127 
L 284.594809 82.154127 
L 284.594809 81.393731 
L 286.683876 81.393731 
L 286.683876 80.633335 
L 289.045165 80.633335 
L 289.119154 79.112543 
L 289.996918 79.112543 
L 289.996918 78.352147 
L 291.068758 78.352147 
L 291.068758 77.591751 
L 291.349988 77.591751 
L 291.349988 76.831355 
L 294.062637 76.831355 
L 294.062637 76.070959 
L 295.419128 76.070959 
L 295.419128 75.310563 
L 299.126198 75.310563 
L 299.126198 74.550167 
L 299.473636 74.550167 
L 299.473636 72.268979 
L 304.004524 72.268979 
L 304.004524 71.508583 
L 305.37828 71.508583 
L 305.37828 70.748187 
L 307.902914 70.748187 
L 307.902914 69.987791 
L 309.655723 69.987791 
L 309.655723 69.227395 
L 310.76996 69.227395 
L 310.76996 68.466999 
L 311.120317 68.466999 
L 311.120317 67.706603 
L 326.151955 67.706603 
L 326.151955 66.946207 
L 327.879454 66.946207 
L 327.879454 66.185811 
L 329.22865 66.185811 
L 329.22865 65.425415 
L 332.82574 65.425415 
L 332.82574 64.665019 
L 334.898146 64.665019 
L 334.898146 63.904623 
L 336.54188 63.904623 
L 336.54188 63.144226 
L 347.229905 63.144226 
L 347.229905 62.38383 
L 347.685962 62.38383 
L 347.685962 61.623434 
L 348.583376 61.623434 
L 348.583376 60.863038 
L 352.753546 60.863038 
L 352.753546 60.102642 
L 354.45358 60.102642 
L 354.45358 59.342246 
L 355.804239 59.342246 
L 355.804239 58.58185 
L 358.8 58.58185 
L 358.8 58.58185 
" style="fill:none;stroke:#ffa500;stroke-linecap:square;stroke-width:1.5;"/>
   </g>
   <g id="line2d_18">
    <defs>
     <path d="M 0 -6 
L -1.347084 -1.854102 
L -5.706339 -1.854102 
L -2.179628 0.708204 
L -3.526712 4.854102 
L -0 2.291796 
L 3.526712 4.854102 
L 2.179628 0.708204 
L 5.706339 -1.854102 
L 1.347084 -1.854102 
z
" id="mf03601e77f" style="stroke:#ffa500;stroke-linejoin:bevel;stroke-width:1.5;"/>
    </defs>
    <g>
     <use style="fill:none;stroke:#ffa500;stroke-linejoin:bevel;stroke-width:1.5;" x="82.7941187144" xlink:href="#mf03601e77f" y="259.326404703"/>
     <use style="fill:none;stroke:#ffa500;stroke-linejoin:bevel;stroke-width:1.5;" x="120.996359547" xlink:href="#mf03601e77f" y="204.577889851"/>
     <use style="fill:none;stroke:#ffa500;stroke-linejoin:bevel;stroke-width:1.5;" x="188.923096452" xlink:href="#mf03601e77f" y="146.027394802"/>
     <use style="fill:none;stroke:#ffa500;stroke-linejoin:bevel;stroke-width:1.5;" x="258.561411471" xlink:href="#mf03601e77f" y="97.3620482673"/>
     <use style="fill:none;stroke:#ffa500;stroke-linejoin:bevel;stroke-width:1.5;" x="348.583376434" xlink:href="#mf03601e77f" y="60.8630383663"/>
     <use style="fill:none;stroke:#ffa500;stroke-linejoin:bevel;stroke-width:1.5;" x="358.8" xlink:href="#mf03601e77f" y="58.5818502475"/>
    </g>
   </g>
   <g id="line2d_19"/>
   <g id="line2d_20">
    <path clip-path="url(#p7dd2b0da94)" d="M 233.90112 115.611553 
" style="fill:none;stroke:#ffa500;stroke-linecap:square;"/>
    <defs>
     <path d="M -12 12 
L 12 -12 
M -12 -12 
L 12 12 
" id="m73ed220aa6" style="stroke:#ffa500;stroke-width:3.0;"/>
    </defs>
    <g clip-path="url(#p7dd2b0da94)">
     <use style="fill:#ffa500;stroke:#ffa500;stroke-width:3.0;" x="233.901120416" xlink:href="#m73ed220aa6" y="115.611553218"/>
    </g>
   </g>
   <g id="line2d_21">
    <path d="M 358.8 58.58185 
L 390.48 297.954524 
" style="fill:none;stroke:#ffa500;stroke-linecap:square;stroke-width:1.5;"/>
    <g>
     <use style="fill:none;stroke:#ffa500;stroke-linejoin:bevel;stroke-width:1.5;" x="358.8" xlink:href="#mf03601e77f" y="58.5818502475"/>
     <use style="fill:none;stroke:#ffa500;stroke-linejoin:bevel;stroke-width:1.5;" x="390.48" xlink:href="#mf03601e77f" y="297.954523515"/>
    </g>
   </g>
   <g id="line2d_22">
    <path d="M 358.8 51.738286 
L 390.48 210.3569 
" style="fill:none;stroke:#000080;stroke-linecap:square;stroke-width:1.5;"/>
    <g>
     <use style="fill:none;stroke:#000080;stroke-width:1.5;" x="358.8" xlink:href="#m216be3b838" y="51.7382858911"/>
     <use style="fill:none;stroke:#000080;stroke-width:1.5;" x="390.48" xlink:href="#m216be3b838" y="210.356899752"/>
    </g>
   </g>
   <g id="line2d_23">
    <path d="M 358.8 45.655118 
L 390.48 122.759276 
" style="fill:none;stroke:#ff00ff;stroke-linecap:square;stroke-width:1.5;"/>
    <g>
     <use style="fill:none;stroke:#ff00ff;stroke-linejoin:miter;stroke-width:1.5;" x="358.8" xlink:href="#m4270558e04" y="45.6551175743"/>
     <use style="fill:none;stroke:#ff00ff;stroke-linejoin:miter;stroke-width:1.5;" x="390.48" xlink:href="#m4270558e04" y="122.75927599"/>
    </g>
   </g>
   <g id="line2d_24">
    <path d="M 358.8 303.429375 
L 358.8 29.686801 
" style="fill:none;stroke:#000000;stroke-linecap:square;"/>
   </g>
   <g id="patch_3">
    <path d="M 70.8 26.949375 
L 427.92 26.949375 
" style="fill:none;stroke:#000000;stroke-linecap:square;stroke-linejoin:miter;"/>
   </g>
   <g id="patch_4">
    <path d="M 427.92 303.429375 
L 427.92 26.949375 
" style="fill:none;stroke:#000000;stroke-linecap:square;stroke-linejoin:miter;"/>
   </g>
   <g id="patch_5">
    <path d="M 70.8 303.429375 
L 427.92 303.429375 
" style="fill:none;stroke:#000000;stroke-linecap:square;stroke-linejoin:miter;"/>
   </g>
   <g id="patch_6">
    <path d="M 70.8 303.429375 
L 70.8 26.949375 
" style="fill:none;stroke:#000000;stroke-linecap:square;stroke-linejoin:miter;"/>
   </g>
   <g id="matplotlib.axis_1">
    <g id="xtick_1">
     <g id="line2d_25">
      <path clip-path="url(#p7dd2b0da94)" d="M 70.8 303.429375 
L 70.8 26.949375 
" style="fill:none;stroke:#000000;stroke-dasharray:1.000000,3.000000;stroke-dashoffset:0.0;stroke-width:0.5;"/>
     </g>
     <g id="line2d_26">
      <defs>
       <path d="M 0 0 
L 0 -4 
" id="m957e5d9e1c" style="stroke:#000000;stroke-width:0.5;"/>
      </defs>
      <g>
       <use style="stroke:#000000;stroke-width:0.5;" x="70.8" xlink:href="#m957e5d9e1c" y="303.429375"/>
      </g>
     </g>
     <g id="line2d_27">
      <defs>
       <path d="M 0 0 
L 0 4 
" id="m47962e5ca2" style="stroke:#000000;stroke-width:0.5;"/>
      </defs>
      <g>
       <use style="stroke:#000000;stroke-width:0.5;" x="70.8" xlink:href="#m47962e5ca2" y="26.949375"/>
      </g>
     </g>
     <g id="text_1">
      <!-- 0 -->
      <defs>
       <path d="M 31.78125 66.40625 
Q 24.171875 66.40625 20.328125 58.90625 
Q 16.5 51.421875 16.5 36.375 
Q 16.5 21.390625 20.328125 13.890625 
Q 24.171875 6.390625 31.78125 6.390625 
Q 39.453125 6.390625 43.28125 13.890625 
Q 47.125 21.390625 47.125 36.375 
Q 47.125 51.421875 43.28125 58.90625 
Q 39.453125 66.40625 31.78125 66.40625 
M 31.78125 74.21875 
Q 44.046875 74.21875 50.515625 64.515625 
Q 56.984375 54.828125 56.984375 36.375 
Q 56.984375 17.96875 50.515625 8.265625 
Q 44.046875 -1.421875 31.78125 -1.421875 
Q 19.53125 -1.421875 13.0625 8.265625 
Q 6.59375 17.96875 6.59375 36.375 
Q 6.59375 54.828125 13.0625 64.515625 
Q 19.53125 74.21875 31.78125 74.21875 
" id="BitstreamVeraSans-Roman-30"/>
      </defs>
      <g transform="translate(64.4375 322.62625)scale(0.2 -0.2)">
       <use xlink:href="#BitstreamVeraSans-Roman-30"/>
      </g>
     </g>
    </g>
    <g id="xtick_2">
     <g id="line2d_28">
      <path clip-path="url(#p7dd2b0da94)" d="M 166.8 303.429375 
L 166.8 26.949375 
" style="fill:none;stroke:#000000;stroke-dasharray:1.000000,3.000000;stroke-dashoffset:0.0;stroke-width:0.5;"/>
     </g>
     <g id="line2d_29">
      <g>
       <use style="stroke:#000000;stroke-width:0.5;" x="166.8" xlink:href="#m957e5d9e1c" y="303.429375"/>
      </g>
     </g>
     <g id="line2d_30">
      <g>
       <use style="stroke:#000000;stroke-width:0.5;" x="166.8" xlink:href="#m47962e5ca2" y="26.949375"/>
      </g>
     </g>
     <g id="text_2">
      <!-- 1 -->
      <defs>
       <path d="M 12.40625 8.296875 
L 28.515625 8.296875 
L 28.515625 63.921875 
L 10.984375 60.40625 
L 10.984375 69.390625 
L 28.421875 72.90625 
L 38.28125 72.90625 
L 38.28125 8.296875 
L 54.390625 8.296875 
L 54.390625 0 
L 12.40625 0 
z
" id="BitstreamVeraSans-Roman-31"/>
      </defs>
      <g transform="translate(160.4375 322.62625)scale(0.2 -0.2)">
       <use xlink:href="#BitstreamVeraSans-Roman-31"/>
      </g>
     </g>
    </g>
    <g id="xtick_3">
     <g id="line2d_31">
      <path clip-path="url(#p7dd2b0da94)" d="M 262.8 303.429375 
L 262.8 26.949375 
" style="fill:none;stroke:#000000;stroke-dasharray:1.000000,3.000000;stroke-dashoffset:0.0;stroke-width:0.5;"/>
     </g>
     <g id="line2d_32">
      <g>
       <use style="stroke:#000000;stroke-width:0.5;" x="262.8" xlink:href="#m957e5d9e1c" y="303.429375"/>
      </g>
     </g>
     <g id="line2d_33">
      <g>
       <use style="stroke:#000000;stroke-width:0.5;" x="262.8" xlink:href="#m47962e5ca2" y="26.949375"/>
      </g>
     </g>
     <g id="text_3">
      <!-- 2 -->
      <defs>
       <path d="M 19.1875 8.296875 
L 53.609375 8.296875 
L 53.609375 0 
L 7.328125 0 
L 7.328125 8.296875 
Q 12.9375 14.109375 22.625 23.890625 
Q 32.328125 33.6875 34.8125 36.53125 
Q 39.546875 41.84375 41.421875 45.53125 
Q 43.3125 49.21875 43.3125 52.78125 
Q 43.3125 58.59375 39.234375 62.25 
Q 35.15625 65.921875 28.609375 65.921875 
Q 23.96875 65.921875 18.8125 64.3125 
Q 13.671875 62.703125 7.8125 59.421875 
L 7.8125 69.390625 
Q 13.765625 71.78125 18.9375 73 
Q 24.125 74.21875 28.421875 74.21875 
Q 39.75 74.21875 46.484375 68.546875 
Q 53.21875 62.890625 53.21875 53.421875 
Q 53.21875 48.921875 51.53125 44.890625 
Q 49.859375 40.875 45.40625 35.40625 
Q 44.1875 33.984375 37.640625 27.21875 
Q 31.109375 20.453125 19.1875 8.296875 
" id="BitstreamVeraSans-Roman-32"/>
      </defs>
      <g transform="translate(256.4375 322.62625)scale(0.2 -0.2)">
       <use xlink:href="#BitstreamVeraSans-Roman-32"/>
      </g>
     </g>
    </g>
    <g id="xtick_4">
     <g id="line2d_34">
      <path clip-path="url(#p7dd2b0da94)" d="M 358.8 303.429375 
L 358.8 26.949375 
" style="fill:none;stroke:#000000;stroke-dasharray:1.000000,3.000000;stroke-dashoffset:0.0;stroke-width:0.5;"/>
     </g>
     <g id="line2d_35">
      <g>
       <use style="stroke:#000000;stroke-width:0.5;" x="358.8" xlink:href="#m957e5d9e1c" y="303.429375"/>
      </g>
     </g>
     <g id="line2d_36">
      <g>
       <use style="stroke:#000000;stroke-width:0.5;" x="358.8" xlink:href="#m47962e5ca2" y="26.949375"/>
      </g>
     </g>
     <g id="text_4">
      <!-- 3 -->
      <defs>
       <path d="M 40.578125 39.3125 
Q 47.65625 37.796875 51.625 33 
Q 55.609375 28.21875 55.609375 21.1875 
Q 55.609375 10.40625 48.1875 4.484375 
Q 40.765625 -1.421875 27.09375 -1.421875 
Q 22.515625 -1.421875 17.65625 -0.515625 
Q 12.796875 0.390625 7.625 2.203125 
L 7.625 11.71875 
Q 11.71875 9.328125 16.59375 8.109375 
Q 21.484375 6.890625 26.8125 6.890625 
Q 36.078125 6.890625 40.9375 10.546875 
Q 45.796875 14.203125 45.796875 21.1875 
Q 45.796875 27.640625 41.28125 31.265625 
Q 36.765625 34.90625 28.71875 34.90625 
L 20.21875 34.90625 
L 20.21875 43.015625 
L 29.109375 43.015625 
Q 36.375 43.015625 40.234375 45.921875 
Q 44.09375 48.828125 44.09375 54.296875 
Q 44.09375 59.90625 40.109375 62.90625 
Q 36.140625 65.921875 28.71875 65.921875 
Q 24.65625 65.921875 20.015625 65.03125 
Q 15.375 64.15625 9.8125 62.3125 
L 9.8125 71.09375 
Q 15.4375 72.65625 20.34375 73.4375 
Q 25.25 74.21875 29.59375 74.21875 
Q 40.828125 74.21875 47.359375 69.109375 
Q 53.90625 64.015625 53.90625 55.328125 
Q 53.90625 49.265625 50.4375 45.09375 
Q 46.96875 40.921875 40.578125 39.3125 
" id="BitstreamVeraSans-Roman-33"/>
      </defs>
      <g transform="translate(352.4375 322.62625)scale(0.2 -0.2)">
       <use xlink:href="#BitstreamVeraSans-Roman-33"/>
      </g>
     </g>
    </g>
    <g id="xtick_5">
     <g id="line2d_37">
      <defs>
       <path d="M 0 0 
L 0 -2 
" id="m1ecdb246f9" style="stroke:#000000;stroke-width:0.5;"/>
      </defs>
      <g>
       <use style="stroke:#000000;stroke-width:0.5;" x="99.6988795837" xlink:href="#m1ecdb246f9" y="303.429375"/>
      </g>
     </g>
     <g id="line2d_38">
      <defs>
       <path d="M 0 0 
L 0 2 
" id="m0ee81c750c" style="stroke:#000000;stroke-width:0.5;"/>
      </defs>
      <g>
       <use style="stroke:#000000;stroke-width:0.5;" x="99.6988795837" xlink:href="#m0ee81c750c" y="26.949375"/>
      </g>
     </g>
    </g>
    <g id="xtick_6">
     <g id="line2d_39">
      <g>
       <use style="stroke:#000000;stroke-width:0.5;" x="116.603640453" xlink:href="#m1ecdb246f9" y="303.429375"/>
      </g>
     </g>
     <g id="line2d_40">
      <g>
       <use style="stroke:#000000;stroke-width:0.5;" x="116.603640453" xlink:href="#m0ee81c750c" y="26.949375"/>
      </g>
     </g>
    </g>
    <g id="xtick_7">
     <g id="line2d_41">
      <g>
       <use style="stroke:#000000;stroke-width:0.5;" x="128.597759167" xlink:href="#m1ecdb246f9" y="303.429375"/>
      </g>
     </g>
     <g id="line2d_42">
      <g>
       <use style="stroke:#000000;stroke-width:0.5;" x="128.597759167" xlink:href="#m0ee81c750c" y="26.949375"/>
      </g>
     </g>
    </g>
    <g id="xtick_8">
     <g id="line2d_43">
      <g>
       <use style="stroke:#000000;stroke-width:0.5;" x="137.901120416" xlink:href="#m1ecdb246f9" y="303.429375"/>
      </g>
     </g>
     <g id="line2d_44">
      <g>
       <use style="stroke:#000000;stroke-width:0.5;" x="137.901120416" xlink:href="#m0ee81c750c" y="26.949375"/>
      </g>
     </g>
    </g>
    <g id="xtick_9">
     <g id="line2d_45">
      <g>
       <use style="stroke:#000000;stroke-width:0.5;" x="145.502520037" xlink:href="#m1ecdb246f9" y="303.429375"/>
      </g>
     </g>
     <g id="line2d_46">
      <g>
       <use style="stroke:#000000;stroke-width:0.5;" x="145.502520037" xlink:href="#m0ee81c750c" y="26.949375"/>
      </g>
     </g>
    </g>
    <g id="xtick_10">
     <g id="line2d_47">
      <g>
       <use style="stroke:#000000;stroke-width:0.5;" x="151.929411841" xlink:href="#m1ecdb246f9" y="303.429375"/>
      </g>
     </g>
     <g id="line2d_48">
      <g>
       <use style="stroke:#000000;stroke-width:0.5;" x="151.929411841" xlink:href="#m0ee81c750c" y="26.949375"/>
      </g>
     </g>
    </g>
    <g id="xtick_11">
     <g id="line2d_49">
      <g>
       <use style="stroke:#000000;stroke-width:0.5;" x="157.496638751" xlink:href="#m1ecdb246f9" y="303.429375"/>
      </g>
     </g>
     <g id="line2d_50">
      <g>
       <use style="stroke:#000000;stroke-width:0.5;" x="157.496638751" xlink:href="#m0ee81c750c" y="26.949375"/>
      </g>
     </g>
    </g>
    <g id="xtick_12">
     <g id="line2d_51">
      <g>
       <use style="stroke:#000000;stroke-width:0.5;" x="162.407280906" xlink:href="#m1ecdb246f9" y="303.429375"/>
      </g>
     </g>
     <g id="line2d_52">
      <g>
       <use style="stroke:#000000;stroke-width:0.5;" x="162.407280906" xlink:href="#m0ee81c750c" y="26.949375"/>
      </g>
     </g>
    </g>
    <g id="xtick_13">
     <g id="line2d_53">
      <g>
       <use style="stroke:#000000;stroke-width:0.5;" x="195.698879584" xlink:href="#m1ecdb246f9" y="303.429375"/>
      </g>
     </g>
     <g id="line2d_54">
      <g>
       <use style="stroke:#000000;stroke-width:0.5;" x="195.698879584" xlink:href="#m0ee81c750c" y="26.949375"/>
      </g>
     </g>
    </g>
    <g id="xtick_14">
     <g id="line2d_55">
      <g>
       <use style="stroke:#000000;stroke-width:0.5;" x="212.603640453" xlink:href="#m1ecdb246f9" y="303.429375"/>
      </g>
     </g>
     <g id="line2d_56">
      <g>
       <use style="stroke:#000000;stroke-width:0.5;" x="212.603640453" xlink:href="#m0ee81c750c" y="26.949375"/>
      </g>
     </g>
    </g>
    <g id="xtick_15">
     <g id="line2d_57">
      <g>
       <use style="stroke:#000000;stroke-width:0.5;" x="224.597759167" xlink:href="#m1ecdb246f9" y="303.429375"/>
      </g>
     </g>
     <g id="line2d_58">
      <g>
       <use style="stroke:#000000;stroke-width:0.5;" x="224.597759167" xlink:href="#m0ee81c750c" y="26.949375"/>
      </g>
     </g>
    </g>
    <g id="xtick_16">
     <g id="line2d_59">
      <g>
       <use style="stroke:#000000;stroke-width:0.5;" x="233.901120416" xlink:href="#m1ecdb246f9" y="303.429375"/>
      </g>
     </g>
     <g id="line2d_60">
      <g>
       <use style="stroke:#000000;stroke-width:0.5;" x="233.901120416" xlink:href="#m0ee81c750c" y="26.949375"/>
      </g>
     </g>
    </g>
    <g id="xtick_17">
     <g id="line2d_61">
      <g>
       <use style="stroke:#000000;stroke-width:0.5;" x="241.502520037" xlink:href="#m1ecdb246f9" y="303.429375"/>
      </g>
     </g>
     <g id="line2d_62">
      <g>
       <use style="stroke:#000000;stroke-width:0.5;" x="241.502520037" xlink:href="#m0ee81c750c" y="26.949375"/>
      </g>
     </g>
    </g>
    <g id="xtick_18">
     <g id="line2d_63">
      <g>
       <use style="stroke:#000000;stroke-width:0.5;" x="247.929411841" xlink:href="#m1ecdb246f9" y="303.429375"/>
      </g>
     </g>
     <g id="line2d_64">
      <g>
       <use style="stroke:#000000;stroke-width:0.5;" x="247.929411841" xlink:href="#m0ee81c750c" y="26.949375"/>
      </g>
     </g>
    </g>
    <g id="xtick_19">
     <g id="line2d_65">
      <g>
       <use style="stroke:#000000;stroke-width:0.5;" x="253.496638751" xlink:href="#m1ecdb246f9" y="303.429375"/>
      </g>
     </g>
     <g id="line2d_66">
      <g>
       <use style="stroke:#000000;stroke-width:0.5;" x="253.496638751" xlink:href="#m0ee81c750c" y="26.949375"/>
      </g>
     </g>
    </g>
    <g id="xtick_20">
     <g id="line2d_67">
      <g>
       <use style="stroke:#000000;stroke-width:0.5;" x="258.407280906" xlink:href="#m1ecdb246f9" y="303.429375"/>
      </g>
     </g>
     <g id="line2d_68">
      <g>
       <use style="stroke:#000000;stroke-width:0.5;" x="258.407280906" xlink:href="#m0ee81c750c" y="26.949375"/>
      </g>
     </g>
    </g>
    <g id="xtick_21">
     <g id="line2d_69">
      <g>
       <use style="stroke:#000000;stroke-width:0.5;" x="291.698879584" xlink:href="#m1ecdb246f9" y="303.429375"/>
      </g>
     </g>
     <g id="line2d_70">
      <g>
       <use style="stroke:#000000;stroke-width:0.5;" x="291.698879584" xlink:href="#m0ee81c750c" y="26.949375"/>
      </g>
     </g>
    </g>
    <g id="xtick_22">
     <g id="line2d_71">
      <g>
       <use style="stroke:#000000;stroke-width:0.5;" x="308.603640453" xlink:href="#m1ecdb246f9" y="303.429375"/>
      </g>
     </g>
     <g id="line2d_72">
      <g>
       <use style="stroke:#000000;stroke-width:0.5;" x="308.603640453" xlink:href="#m0ee81c750c" y="26.949375"/>
      </g>
     </g>
    </g>
    <g id="xtick_23">
     <g id="line2d_73">
      <g>
       <use style="stroke:#000000;stroke-width:0.5;" x="320.597759167" xlink:href="#m1ecdb246f9" y="303.429375"/>
      </g>
     </g>
     <g id="line2d_74">
      <g>
       <use style="stroke:#000000;stroke-width:0.5;" x="320.597759167" xlink:href="#m0ee81c750c" y="26.949375"/>
      </g>
     </g>
    </g>
    <g id="xtick_24">
     <g id="line2d_75">
      <g>
       <use style="stroke:#000000;stroke-width:0.5;" x="329.901120416" xlink:href="#m1ecdb246f9" y="303.429375"/>
      </g>
     </g>
     <g id="line2d_76">
      <g>
       <use style="stroke:#000000;stroke-width:0.5;" x="329.901120416" xlink:href="#m0ee81c750c" y="26.949375"/>
      </g>
     </g>
    </g>
    <g id="xtick_25">
     <g id="line2d_77">
      <g>
       <use style="stroke:#000000;stroke-width:0.5;" x="337.502520037" xlink:href="#m1ecdb246f9" y="303.429375"/>
      </g>
     </g>
     <g id="line2d_78">
      <g>
       <use style="stroke:#000000;stroke-width:0.5;" x="337.502520037" xlink:href="#m0ee81c750c" y="26.949375"/>
      </g>
     </g>
    </g>
    <g id="xtick_26">
     <g id="line2d_79">
      <g>
       <use style="stroke:#000000;stroke-width:0.5;" x="343.929411841" xlink:href="#m1ecdb246f9" y="303.429375"/>
      </g>
     </g>
     <g id="line2d_80">
      <g>
       <use style="stroke:#000000;stroke-width:0.5;" x="343.929411841" xlink:href="#m0ee81c750c" y="26.949375"/>
      </g>
     </g>
    </g>
    <g id="xtick_27">
     <g id="line2d_81">
      <g>
       <use style="stroke:#000000;stroke-width:0.5;" x="349.496638751" xlink:href="#m1ecdb246f9" y="303.429375"/>
      </g>
     </g>
     <g id="line2d_82">
      <g>
       <use style="stroke:#000000;stroke-width:0.5;" x="349.496638751" xlink:href="#m0ee81c750c" y="26.949375"/>
      </g>
     </g>
    </g>
    <g id="xtick_28">
     <g id="line2d_83">
      <g>
       <use style="stroke:#000000;stroke-width:0.5;" x="354.407280906" xlink:href="#m1ecdb246f9" y="303.429375"/>
      </g>
     </g>
     <g id="line2d_84">
      <g>
       <use style="stroke:#000000;stroke-width:0.5;" x="354.407280906" xlink:href="#m0ee81c750c" y="26.949375"/>
      </g>
     </g>
    </g>
    <g id="xtick_29">
     <g id="line2d_85">
      <g>
       <use style="stroke:#000000;stroke-width:0.5;" x="387.698879584" xlink:href="#m1ecdb246f9" y="303.429375"/>
      </g>
     </g>
     <g id="line2d_86">
      <g>
       <use style="stroke:#000000;stroke-width:0.5;" x="387.698879584" xlink:href="#m0ee81c750c" y="26.949375"/>
      </g>
     </g>
    </g>
    <g id="xtick_30">
     <g id="line2d_87">
      <g>
       <use style="stroke:#000000;stroke-width:0.5;" x="404.603640453" xlink:href="#m1ecdb246f9" y="303.429375"/>
      </g>
     </g>
     <g id="line2d_88">
      <g>
       <use style="stroke:#000000;stroke-width:0.5;" x="404.603640453" xlink:href="#m0ee81c750c" y="26.949375"/>
      </g>
     </g>
    </g>
    <g id="xtick_31">
     <g id="line2d_89">
      <g>
       <use style="stroke:#000000;stroke-width:0.5;" x="416.597759167" xlink:href="#m1ecdb246f9" y="303.429375"/>
      </g>
     </g>
     <g id="line2d_90">
      <g>
       <use style="stroke:#000000;stroke-width:0.5;" x="416.597759167" xlink:href="#m0ee81c750c" y="26.949375"/>
      </g>
     </g>
    </g>
    <g id="xtick_32">
     <g id="line2d_91">
      <g>
       <use style="stroke:#000000;stroke-width:0.5;" x="425.901120416" xlink:href="#m1ecdb246f9" y="303.429375"/>
      </g>
     </g>
     <g id="line2d_92">
      <g>
       <use style="stroke:#000000;stroke-width:0.5;" x="425.901120416" xlink:href="#m0ee81c750c" y="26.949375"/>
      </g>
     </g>
    </g>
    <g id="text_5">
     <!-- log10 of (# f-evals / dimension) -->
     <defs>
      <path id="BitstreamVeraSans-Roman-20"/>
      <path d="M 51.125 44 
L 36.921875 44 
L 32.8125 27.6875 
L 47.125 27.6875 
z
M 43.796875 71.78125 
L 38.71875 51.515625 
L 52.984375 51.515625 
L 58.109375 71.78125 
L 65.921875 71.78125 
L 60.890625 51.515625 
L 76.125 51.515625 
L 76.125 44 
L 58.984375 44 
L 54.984375 27.6875 
L 70.515625 27.6875 
L 70.515625 20.21875 
L 53.078125 20.21875 
L 48 0 
L 40.1875 0 
L 45.21875 20.21875 
L 30.90625 20.21875 
L 25.875 0 
L 18.015625 0 
L 23.09375 20.21875 
L 7.71875 20.21875 
L 7.71875 27.6875 
L 24.90625 27.6875 
L 29 44 
L 13.28125 44 
L 13.28125 51.515625 
L 30.90625 51.515625 
L 35.890625 71.78125 
z
" id="BitstreamVeraSans-Roman-23"/>
      <path d="M 52 44.1875 
Q 55.375 50.25 60.0625 53.125 
Q 64.75 56 71.09375 56 
Q 79.640625 56 84.28125 50.015625 
Q 88.921875 44.046875 88.921875 33.015625 
L 88.921875 0 
L 79.890625 0 
L 79.890625 32.71875 
Q 79.890625 40.578125 77.09375 44.375 
Q 74.3125 48.1875 68.609375 48.1875 
Q 61.625 48.1875 57.5625 43.546875 
Q 53.515625 38.921875 53.515625 30.90625 
L 53.515625 0 
L 44.484375 0 
L 44.484375 32.71875 
Q 44.484375 40.625 41.703125 44.40625 
Q 38.921875 48.1875 33.109375 48.1875 
Q 26.21875 48.1875 22.15625 43.53125 
Q 18.109375 38.875 18.109375 30.90625 
L 18.109375 0 
L 9.078125 0 
L 9.078125 54.6875 
L 18.109375 54.6875 
L 18.109375 46.1875 
Q 21.1875 51.21875 25.484375 53.609375 
Q 29.78125 56 35.6875 56 
Q 41.65625 56 45.828125 52.96875 
Q 50 49.953125 52 44.1875 
" id="BitstreamVeraSans-Roman-6d"/>
      <path d="M 54.890625 33.015625 
L 54.890625 0 
L 45.90625 0 
L 45.90625 32.71875 
Q 45.90625 40.484375 42.875 44.328125 
Q 39.84375 48.1875 33.796875 48.1875 
Q 26.515625 48.1875 22.3125 43.546875 
Q 18.109375 38.921875 18.109375 30.90625 
L 18.109375 0 
L 9.078125 0 
L 9.078125 54.6875 
L 18.109375 54.6875 
L 18.109375 46.1875 
Q 21.34375 51.125 25.703125 53.5625 
Q 30.078125 56 35.796875 56 
Q 45.21875 56 50.046875 50.171875 
Q 54.890625 44.34375 54.890625 33.015625 
" id="BitstreamVeraSans-Roman-6e"/>
      <path d="M 31 75.875 
Q 24.46875 64.65625 21.28125 53.65625 
Q 18.109375 42.671875 18.109375 31.390625 
Q 18.109375 20.125 21.3125 9.0625 
Q 24.515625 -2 31 -13.1875 
L 23.1875 -13.1875 
Q 15.875 -1.703125 12.234375 9.375 
Q 8.59375 20.453125 8.59375 31.390625 
Q 8.59375 42.28125 12.203125 53.3125 
Q 15.828125 64.359375 23.1875 75.875 
z
" id="BitstreamVeraSans-Roman-28"/>
      <path d="M 30.609375 48.390625 
Q 23.390625 48.390625 19.1875 42.75 
Q 14.984375 37.109375 14.984375 27.296875 
Q 14.984375 17.484375 19.15625 11.84375 
Q 23.34375 6.203125 30.609375 6.203125 
Q 37.796875 6.203125 41.984375 11.859375 
Q 46.1875 17.53125 46.1875 27.296875 
Q 46.1875 37.015625 41.984375 42.703125 
Q 37.796875 48.390625 30.609375 48.390625 
M 30.609375 56 
Q 42.328125 56 49.015625 48.375 
Q 55.71875 40.765625 55.71875 27.296875 
Q 55.71875 13.875 49.015625 6.21875 
Q 42.328125 -1.421875 30.609375 -1.421875 
Q 18.84375 -1.421875 12.171875 6.21875 
Q 5.515625 13.875 5.515625 27.296875 
Q 5.515625 40.765625 12.171875 48.375 
Q 18.84375 56 30.609375 56 
" id="BitstreamVeraSans-Roman-6f"/>
      <path d="M 9.421875 75.984375 
L 18.40625 75.984375 
L 18.40625 0 
L 9.421875 0 
z
" id="BitstreamVeraSans-Roman-6c"/>
      <path d="M 2.984375 54.6875 
L 12.5 54.6875 
L 29.59375 8.796875 
L 46.6875 54.6875 
L 56.203125 54.6875 
L 35.6875 0 
L 23.484375 0 
z
" id="BitstreamVeraSans-Roman-76"/>
      <path d="M 9.421875 54.6875 
L 18.40625 54.6875 
L 18.40625 0 
L 9.421875 0 
z
M 9.421875 75.984375 
L 18.40625 75.984375 
L 18.40625 64.59375 
L 9.421875 64.59375 
z
" id="BitstreamVeraSans-Roman-69"/>
      <path d="M 4.890625 31.390625 
L 31.203125 31.390625 
L 31.203125 23.390625 
L 4.890625 23.390625 
z
" id="BitstreamVeraSans-Roman-2d"/>
      <path d="M 25.390625 72.90625 
L 33.6875 72.90625 
L 8.296875 -9.28125 
L 0 -9.28125 
z
" id="BitstreamVeraSans-Roman-2f"/>
      <path d="M 56.203125 29.59375 
L 56.203125 25.203125 
L 14.890625 25.203125 
Q 15.484375 15.921875 20.484375 11.0625 
Q 25.484375 6.203125 34.421875 6.203125 
Q 39.59375 6.203125 44.453125 7.46875 
Q 49.3125 8.734375 54.109375 11.28125 
L 54.109375 2.78125 
Q 49.265625 0.734375 44.1875 -0.34375 
Q 39.109375 -1.421875 33.890625 -1.421875 
Q 20.796875 -1.421875 13.15625 6.1875 
Q 5.515625 13.8125 5.515625 26.8125 
Q 5.515625 40.234375 12.765625 48.109375 
Q 20.015625 56 32.328125 56 
Q 43.359375 56 49.78125 48.890625 
Q 56.203125 41.796875 56.203125 29.59375 
M 47.21875 32.234375 
Q 47.125 39.59375 43.09375 43.984375 
Q 39.0625 48.390625 32.421875 48.390625 
Q 24.90625 48.390625 20.390625 44.140625 
Q 15.875 39.890625 15.1875 32.171875 
z
" id="BitstreamVeraSans-Roman-65"/>
      <path d="M 45.40625 46.390625 
L 45.40625 75.984375 
L 54.390625 75.984375 
L 54.390625 0 
L 45.40625 0 
L 45.40625 8.203125 
Q 42.578125 3.328125 38.25 0.953125 
Q 33.9375 -1.421875 27.875 -1.421875 
Q 17.96875 -1.421875 11.734375 6.484375 
Q 5.515625 14.40625 5.515625 27.296875 
Q 5.515625 40.1875 11.734375 48.09375 
Q 17.96875 56 27.875 56 
Q 33.9375 56 38.25 53.625 
Q 42.578125 51.265625 45.40625 46.390625 
M 14.796875 27.296875 
Q 14.796875 17.390625 18.875 11.75 
Q 22.953125 6.109375 30.078125 6.109375 
Q 37.203125 6.109375 41.296875 11.75 
Q 45.40625 17.390625 45.40625 27.296875 
Q 45.40625 37.203125 41.296875 42.84375 
Q 37.203125 48.484375 30.078125 48.484375 
Q 22.953125 48.484375 18.875 42.84375 
Q 14.796875 37.203125 14.796875 27.296875 
" id="BitstreamVeraSans-Roman-64"/>
      <path d="M 45.40625 27.984375 
Q 45.40625 37.75 41.375 43.109375 
Q 37.359375 48.484375 30.078125 48.484375 
Q 22.859375 48.484375 18.828125 43.109375 
Q 14.796875 37.75 14.796875 27.984375 
Q 14.796875 18.265625 18.828125 12.890625 
Q 22.859375 7.515625 30.078125 7.515625 
Q 37.359375 7.515625 41.375 12.890625 
Q 45.40625 18.265625 45.40625 27.984375 
M 54.390625 6.78125 
Q 54.390625 -7.171875 48.1875 -13.984375 
Q 42 -20.796875 29.203125 -20.796875 
Q 24.46875 -20.796875 20.265625 -20.09375 
Q 16.0625 -19.390625 12.109375 -17.921875 
L 12.109375 -9.1875 
Q 16.0625 -11.328125 19.921875 -12.34375 
Q 23.78125 -13.375 27.78125 -13.375 
Q 36.625 -13.375 41.015625 -8.765625 
Q 45.40625 -4.15625 45.40625 5.171875 
L 45.40625 9.625 
Q 42.625 4.78125 38.28125 2.390625 
Q 33.9375 0 27.875 0 
Q 17.828125 0 11.671875 7.65625 
Q 5.515625 15.328125 5.515625 27.984375 
Q 5.515625 40.671875 11.671875 48.328125 
Q 17.828125 56 27.875 56 
Q 33.9375 56 38.28125 53.609375 
Q 42.625 51.21875 45.40625 46.390625 
L 45.40625 54.6875 
L 54.390625 54.6875 
z
" id="BitstreamVeraSans-Roman-67"/>
      <path d="M 37.109375 75.984375 
L 37.109375 68.5 
L 28.515625 68.5 
Q 23.6875 68.5 21.796875 66.546875 
Q 19.921875 64.59375 19.921875 59.515625 
L 19.921875 54.6875 
L 34.71875 54.6875 
L 34.71875 47.703125 
L 19.921875 47.703125 
L 19.921875 0 
L 10.890625 0 
L 10.890625 47.703125 
L 2.296875 47.703125 
L 2.296875 54.6875 
L 10.890625 54.6875 
L 10.890625 58.5 
Q 10.890625 67.625 15.140625 71.796875 
Q 19.390625 75.984375 28.609375 75.984375 
z
" id="BitstreamVeraSans-Roman-66"/>
      <path d="M 34.28125 27.484375 
Q 23.390625 27.484375 19.1875 25 
Q 14.984375 22.515625 14.984375 16.5 
Q 14.984375 11.71875 18.140625 8.90625 
Q 21.296875 6.109375 26.703125 6.109375 
Q 34.1875 6.109375 38.703125 11.40625 
Q 43.21875 16.703125 43.21875 25.484375 
L 43.21875 27.484375 
z
M 52.203125 31.203125 
L 52.203125 0 
L 43.21875 0 
L 43.21875 8.296875 
Q 40.140625 3.328125 35.546875 0.953125 
Q 30.953125 -1.421875 24.3125 -1.421875 
Q 15.921875 -1.421875 10.953125 3.296875 
Q 6 8.015625 6 15.921875 
Q 6 25.140625 12.171875 29.828125 
Q 18.359375 34.515625 30.609375 34.515625 
L 43.21875 34.515625 
L 43.21875 35.40625 
Q 43.21875 41.609375 39.140625 45 
Q 35.0625 48.390625 27.6875 48.390625 
Q 23 48.390625 18.546875 47.265625 
Q 14.109375 46.140625 10.015625 43.890625 
L 10.015625 52.203125 
Q 14.9375 54.109375 19.578125 55.046875 
Q 24.21875 56 28.609375 56 
Q 40.484375 56 46.34375 49.84375 
Q 52.203125 43.703125 52.203125 31.203125 
" id="BitstreamVeraSans-Roman-61"/>
      <path d="M 44.28125 53.078125 
L 44.28125 44.578125 
Q 40.484375 46.53125 36.375 47.5 
Q 32.28125 48.484375 27.875 48.484375 
Q 21.1875 48.484375 17.84375 46.4375 
Q 14.5 44.390625 14.5 40.28125 
Q 14.5 37.15625 16.890625 35.375 
Q 19.28125 33.59375 26.515625 31.984375 
L 29.59375 31.296875 
Q 39.15625 29.25 43.1875 25.515625 
Q 47.21875 21.78125 47.21875 15.09375 
Q 47.21875 7.46875 41.1875 3.015625 
Q 35.15625 -1.421875 24.609375 -1.421875 
Q 20.21875 -1.421875 15.453125 -0.5625 
Q 10.6875 0.296875 5.421875 2 
L 5.421875 11.28125 
Q 10.40625 8.6875 15.234375 7.390625 
Q 20.0625 6.109375 24.8125 6.109375 
Q 31.15625 6.109375 34.5625 8.28125 
Q 37.984375 10.453125 37.984375 14.40625 
Q 37.984375 18.0625 35.515625 20.015625 
Q 33.0625 21.96875 24.703125 23.78125 
L 21.578125 24.515625 
Q 13.234375 26.265625 9.515625 29.90625 
Q 5.8125 33.546875 5.8125 39.890625 
Q 5.8125 47.609375 11.28125 51.796875 
Q 16.75 56 26.8125 56 
Q 31.78125 56 36.171875 55.265625 
Q 40.578125 54.546875 44.28125 53.078125 
" id="BitstreamVeraSans-Roman-73"/>
      <path d="M 8.015625 75.875 
L 15.828125 75.875 
Q 23.140625 64.359375 26.78125 53.3125 
Q 30.421875 42.28125 30.421875 31.390625 
Q 30.421875 20.453125 26.78125 9.375 
Q 23.140625 -1.703125 15.828125 -13.1875 
L 8.015625 -13.1875 
Q 14.5 -2 17.703125 9.0625 
Q 20.90625 20.125 20.90625 31.390625 
Q 20.90625 42.671875 17.703125 53.65625 
Q 14.5 64.65625 8.015625 75.875 
" id="BitstreamVeraSans-Roman-29"/>
     </defs>
     <g transform="translate(107.01515625 345.4628125)scale(0.18 -0.18)">
      <use xlink:href="#BitstreamVeraSans-Roman-6c"/>
      <use x="27.783203125" xlink:href="#BitstreamVeraSans-Roman-6f"/>
      <use x="88.96484375" xlink:href="#BitstreamVeraSans-Roman-67"/>
      <use x="152.44140625" xlink:href="#BitstreamVeraSans-Roman-31"/>
      <use x="216.064453125" xlink:href="#BitstreamVeraSans-Roman-30"/>
      <use x="279.6875" xlink:href="#BitstreamVeraSans-Roman-20"/>
      <use x="311.474609375" xlink:href="#BitstreamVeraSans-Roman-6f"/>
      <use x="372.65625" xlink:href="#BitstreamVeraSans-Roman-66"/>
      <use x="407.861328125" xlink:href="#BitstreamVeraSans-Roman-20"/>
      <use x="439.6484375" xlink:href="#BitstreamVeraSans-Roman-28"/>
      <use x="478.662109375" xlink:href="#BitstreamVeraSans-Roman-23"/>
      <use x="562.451171875" xlink:href="#BitstreamVeraSans-Roman-20"/>
      <use x="594.23828125" xlink:href="#BitstreamVeraSans-Roman-66"/>
      <use x="629.365234375" xlink:href="#BitstreamVeraSans-Roman-2d"/>
      <use x="665.44921875" xlink:href="#BitstreamVeraSans-Roman-65"/>
      <use x="726.97265625" xlink:href="#BitstreamVeraSans-Roman-76"/>
      <use x="786.15234375" xlink:href="#BitstreamVeraSans-Roman-61"/>
      <use x="847.431640625" xlink:href="#BitstreamVeraSans-Roman-6c"/>
      <use x="875.21484375" xlink:href="#BitstreamVeraSans-Roman-73"/>
      <use x="927.314453125" xlink:href="#BitstreamVeraSans-Roman-20"/>
      <use x="959.1015625" xlink:href="#BitstreamVeraSans-Roman-2f"/>
      <use x="992.79296875" xlink:href="#BitstreamVeraSans-Roman-20"/>
      <use x="1024.58007812" xlink:href="#BitstreamVeraSans-Roman-64"/>
      <use x="1088.05664062" xlink:href="#BitstreamVeraSans-Roman-69"/>
      <use x="1115.83984375" xlink:href="#BitstreamVeraSans-Roman-6d"/>
      <use x="1213.25195312" xlink:href="#BitstreamVeraSans-Roman-65"/>
      <use x="1274.77539062" xlink:href="#BitstreamVeraSans-Roman-6e"/>
      <use x="1338.15429688" xlink:href="#BitstreamVeraSans-Roman-73"/>
      <use x="1390.25390625" xlink:href="#BitstreamVeraSans-Roman-69"/>
      <use x="1418.03710938" xlink:href="#BitstreamVeraSans-Roman-6f"/>
      <use x="1479.21875" xlink:href="#BitstreamVeraSans-Roman-6e"/>
      <use x="1542.59765625" xlink:href="#BitstreamVeraSans-Roman-29"/>
     </g>
    </g>
   </g>
   <g id="matplotlib.axis_2">
    <g id="ytick_1">
     <g id="line2d_93">
      <path clip-path="url(#p7dd2b0da94)" d="M 70.8 303.429375 
L 427.92 303.429375 
" style="fill:none;stroke:#000000;stroke-dasharray:1.000000,3.000000;stroke-dashoffset:0.0;stroke-width:0.5;"/>
     </g>
     <g id="line2d_94">
      <defs>
       <path d="M 0 0 
L 4 0 
" id="mbbba444fb1" style="stroke:#000000;stroke-width:0.5;"/>
      </defs>
      <g>
       <use style="stroke:#000000;stroke-width:0.5;" x="70.8" xlink:href="#mbbba444fb1" y="303.429375"/>
      </g>
     </g>
     <g id="line2d_95">
      <defs>
       <path d="M 0 0 
L -4 0 
" id="m90bd981249" style="stroke:#000000;stroke-width:0.5;"/>
      </defs>
      <g>
       <use style="stroke:#000000;stroke-width:0.5;" x="427.92" xlink:href="#m90bd981249" y="303.429375"/>
      </g>
     </g>
     <g id="text_6">
      <!-- 0.0 -->
      <defs>
       <path d="M 10.6875 12.40625 
L 21 12.40625 
L 21 0 
L 10.6875 0 
z
" id="BitstreamVeraSans-Roman-2e"/>
      </defs>
      <g transform="translate(34.99375 308.948125)scale(0.2 -0.2)">
       <use xlink:href="#BitstreamVeraSans-Roman-30"/>
       <use x="63.623046875" xlink:href="#BitstreamVeraSans-Roman-2e"/>
       <use x="95.41015625" xlink:href="#BitstreamVeraSans-Roman-30"/>
      </g>
     </g>
    </g>
    <g id="ytick_2">
     <g id="line2d_96">
      <path clip-path="url(#p7dd2b0da94)" d="M 70.8 248.68086 
L 427.92 248.68086 
" style="fill:none;stroke:#000000;stroke-dasharray:1.000000,3.000000;stroke-dashoffset:0.0;stroke-width:0.5;"/>
     </g>
     <g id="line2d_97">
      <g>
       <use style="stroke:#000000;stroke-width:0.5;" x="70.8" xlink:href="#mbbba444fb1" y="248.680860149"/>
      </g>
     </g>
     <g id="line2d_98">
      <g>
       <use style="stroke:#000000;stroke-width:0.5;" x="427.92" xlink:href="#m90bd981249" y="248.680860149"/>
      </g>
     </g>
     <g id="text_7">
      <!-- 0.2 -->
      <g transform="translate(34.99375 254.199610149)scale(0.2 -0.2)">
       <use xlink:href="#BitstreamVeraSans-Roman-30"/>
       <use x="63.623046875" xlink:href="#BitstreamVeraSans-Roman-2e"/>
       <use x="95.41015625" xlink:href="#BitstreamVeraSans-Roman-32"/>
      </g>
     </g>
    </g>
    <g id="ytick_3">
     <g id="line2d_99">
      <path clip-path="url(#p7dd2b0da94)" d="M 70.8 193.932345 
L 427.92 193.932345 
" style="fill:none;stroke:#000000;stroke-dasharray:1.000000,3.000000;stroke-dashoffset:0.0;stroke-width:0.5;"/>
     </g>
     <g id="line2d_100">
      <g>
       <use style="stroke:#000000;stroke-width:0.5;" x="70.8" xlink:href="#mbbba444fb1" y="193.932345297"/>
      </g>
     </g>
     <g id="line2d_101">
      <g>
       <use style="stroke:#000000;stroke-width:0.5;" x="427.92" xlink:href="#m90bd981249" y="193.932345297"/>
      </g>
     </g>
     <g id="text_8">
      <!-- 0.4 -->
      <defs>
       <path d="M 37.796875 64.3125 
L 12.890625 25.390625 
L 37.796875 25.390625 
z
M 35.203125 72.90625 
L 47.609375 72.90625 
L 47.609375 25.390625 
L 58.015625 25.390625 
L 58.015625 17.1875 
L 47.609375 17.1875 
L 47.609375 0 
L 37.796875 0 
L 37.796875 17.1875 
L 4.890625 17.1875 
L 4.890625 26.703125 
z
" id="BitstreamVeraSans-Roman-34"/>
      </defs>
      <g transform="translate(34.99375 199.451095297)scale(0.2 -0.2)">
       <use xlink:href="#BitstreamVeraSans-Roman-30"/>
       <use x="63.623046875" xlink:href="#BitstreamVeraSans-Roman-2e"/>
       <use x="95.41015625" xlink:href="#BitstreamVeraSans-Roman-34"/>
      </g>
     </g>
    </g>
    <g id="ytick_4">
     <g id="line2d_102">
      <path clip-path="url(#p7dd2b0da94)" d="M 70.8 139.18383 
L 427.92 139.18383 
" style="fill:none;stroke:#000000;stroke-dasharray:1.000000,3.000000;stroke-dashoffset:0.0;stroke-width:0.5;"/>
     </g>
     <g id="line2d_103">
      <g>
       <use style="stroke:#000000;stroke-width:0.5;" x="70.8" xlink:href="#mbbba444fb1" y="139.183830446"/>
      </g>
     </g>
     <g id="line2d_104">
      <g>
       <use style="stroke:#000000;stroke-width:0.5;" x="427.92" xlink:href="#m90bd981249" y="139.183830446"/>
      </g>
     </g>
     <g id="text_9">
      <!-- 0.6 -->
      <defs>
       <path d="M 33.015625 40.375 
Q 26.375 40.375 22.484375 35.828125 
Q 18.609375 31.296875 18.609375 23.390625 
Q 18.609375 15.53125 22.484375 10.953125 
Q 26.375 6.390625 33.015625 6.390625 
Q 39.65625 6.390625 43.53125 10.953125 
Q 47.40625 15.53125 47.40625 23.390625 
Q 47.40625 31.296875 43.53125 35.828125 
Q 39.65625 40.375 33.015625 40.375 
M 52.59375 71.296875 
L 52.59375 62.3125 
Q 48.875 64.0625 45.09375 64.984375 
Q 41.3125 65.921875 37.59375 65.921875 
Q 27.828125 65.921875 22.671875 59.328125 
Q 17.53125 52.734375 16.796875 39.40625 
Q 19.671875 43.65625 24.015625 45.921875 
Q 28.375 48.1875 33.59375 48.1875 
Q 44.578125 48.1875 50.953125 41.515625 
Q 57.328125 34.859375 57.328125 23.390625 
Q 57.328125 12.15625 50.6875 5.359375 
Q 44.046875 -1.421875 33.015625 -1.421875 
Q 20.359375 -1.421875 13.671875 8.265625 
Q 6.984375 17.96875 6.984375 36.375 
Q 6.984375 53.65625 15.1875 63.9375 
Q 23.390625 74.21875 37.203125 74.21875 
Q 40.921875 74.21875 44.703125 73.484375 
Q 48.484375 72.75 52.59375 71.296875 
" id="BitstreamVeraSans-Roman-36"/>
      </defs>
      <g transform="translate(34.99375 144.702580446)scale(0.2 -0.2)">
       <use xlink:href="#BitstreamVeraSans-Roman-30"/>
       <use x="63.623046875" xlink:href="#BitstreamVeraSans-Roman-2e"/>
       <use x="95.41015625" xlink:href="#BitstreamVeraSans-Roman-36"/>
      </g>
     </g>
    </g>
    <g id="ytick_5">
     <g id="line2d_105">
      <path clip-path="url(#p7dd2b0da94)" d="M 70.8 84.435316 
L 427.92 84.435316 
" style="fill:none;stroke:#000000;stroke-dasharray:1.000000,3.000000;stroke-dashoffset:0.0;stroke-width:0.5;"/>
     </g>
     <g id="line2d_106">
      <g>
       <use style="stroke:#000000;stroke-width:0.5;" x="70.8" xlink:href="#mbbba444fb1" y="84.4353155941"/>
      </g>
     </g>
     <g id="line2d_107">
      <g>
       <use style="stroke:#000000;stroke-width:0.5;" x="427.92" xlink:href="#m90bd981249" y="84.4353155941"/>
      </g>
     </g>
     <g id="text_10">
      <!-- 0.8 -->
      <defs>
       <path d="M 31.78125 34.625 
Q 24.75 34.625 20.71875 30.859375 
Q 16.703125 27.09375 16.703125 20.515625 
Q 16.703125 13.921875 20.71875 10.15625 
Q 24.75 6.390625 31.78125 6.390625 
Q 38.8125 6.390625 42.859375 10.171875 
Q 46.921875 13.96875 46.921875 20.515625 
Q 46.921875 27.09375 42.890625 30.859375 
Q 38.875 34.625 31.78125 34.625 
M 21.921875 38.8125 
Q 15.578125 40.375 12.03125 44.71875 
Q 8.5 49.078125 8.5 55.328125 
Q 8.5 64.0625 14.71875 69.140625 
Q 20.953125 74.21875 31.78125 74.21875 
Q 42.671875 74.21875 48.875 69.140625 
Q 55.078125 64.0625 55.078125 55.328125 
Q 55.078125 49.078125 51.53125 44.71875 
Q 48 40.375 41.703125 38.8125 
Q 48.828125 37.15625 52.796875 32.3125 
Q 56.78125 27.484375 56.78125 20.515625 
Q 56.78125 9.90625 50.3125 4.234375 
Q 43.84375 -1.421875 31.78125 -1.421875 
Q 19.734375 -1.421875 13.25 4.234375 
Q 6.78125 9.90625 6.78125 20.515625 
Q 6.78125 27.484375 10.78125 32.3125 
Q 14.796875 37.15625 21.921875 38.8125 
M 18.3125 54.390625 
Q 18.3125 48.734375 21.84375 45.5625 
Q 25.390625 42.390625 31.78125 42.390625 
Q 38.140625 42.390625 41.71875 45.5625 
Q 45.3125 48.734375 45.3125 54.390625 
Q 45.3125 60.0625 41.71875 63.234375 
Q 38.140625 66.40625 31.78125 66.40625 
Q 25.390625 66.40625 21.84375 63.234375 
Q 18.3125 60.0625 18.3125 54.390625 
" id="BitstreamVeraSans-Roman-38"/>
      </defs>
      <g transform="translate(34.99375 89.9540655941)scale(0.2 -0.2)">
       <use xlink:href="#BitstreamVeraSans-Roman-30"/>
       <use x="63.623046875" xlink:href="#BitstreamVeraSans-Roman-2e"/>
       <use x="95.41015625" xlink:href="#BitstreamVeraSans-Roman-38"/>
      </g>
     </g>
    </g>
    <g id="ytick_6">
     <g id="line2d_108">
      <path clip-path="url(#p7dd2b0da94)" d="M 70.8 29.686801 
L 427.92 29.686801 
" style="fill:none;stroke:#000000;stroke-dasharray:1.000000,3.000000;stroke-dashoffset:0.0;stroke-width:0.5;"/>
     </g>
     <g id="line2d_109">
      <g>
       <use style="stroke:#000000;stroke-width:0.5;" x="70.8" xlink:href="#mbbba444fb1" y="29.6868007426"/>
      </g>
     </g>
     <g id="line2d_110">
      <g>
       <use style="stroke:#000000;stroke-width:0.5;" x="427.92" xlink:href="#m90bd981249" y="29.6868007426"/>
      </g>
     </g>
     <g id="text_11">
      <!-- 1.0 -->
      <g transform="translate(34.99375 35.2055507426)scale(0.2 -0.2)">
       <use xlink:href="#BitstreamVeraSans-Roman-31"/>
       <use x="63.623046875" xlink:href="#BitstreamVeraSans-Roman-2e"/>
       <use x="95.41015625" xlink:href="#BitstreamVeraSans-Roman-30"/>
      </g>
     </g>
    </g>
    <g id="text_12">
     <!-- Proportion of function+target pairs -->
     <defs>
      <path d="M 19.671875 64.796875 
L 19.671875 37.40625 
L 32.078125 37.40625 
Q 38.96875 37.40625 42.71875 40.96875 
Q 46.484375 44.53125 46.484375 51.125 
Q 46.484375 57.671875 42.71875 61.234375 
Q 38.96875 64.796875 32.078125 64.796875 
z
M 9.8125 72.90625 
L 32.078125 72.90625 
Q 44.34375 72.90625 50.609375 67.359375 
Q 56.890625 61.8125 56.890625 51.125 
Q 56.890625 40.328125 50.609375 34.8125 
Q 44.34375 29.296875 32.078125 29.296875 
L 19.671875 29.296875 
L 19.671875 0 
L 9.8125 0 
z
" id="BitstreamVeraSans-Roman-50"/>
      <path d="M 46 62.703125 
L 46 35.5 
L 73.1875 35.5 
L 73.1875 27.203125 
L 46 27.203125 
L 46 0 
L 37.796875 0 
L 37.796875 27.203125 
L 10.59375 27.203125 
L 10.59375 35.5 
L 37.796875 35.5 
L 37.796875 62.703125 
z
" id="BitstreamVeraSans-Roman-2b"/>
      <path d="M 18.109375 8.203125 
L 18.109375 -20.796875 
L 9.078125 -20.796875 
L 9.078125 54.6875 
L 18.109375 54.6875 
L 18.109375 46.390625 
Q 20.953125 51.265625 25.265625 53.625 
Q 29.59375 56 35.59375 56 
Q 45.5625 56 51.78125 48.09375 
Q 58.015625 40.1875 58.015625 27.296875 
Q 58.015625 14.40625 51.78125 6.484375 
Q 45.5625 -1.421875 35.59375 -1.421875 
Q 29.59375 -1.421875 25.265625 0.953125 
Q 20.953125 3.328125 18.109375 8.203125 
M 48.6875 27.296875 
Q 48.6875 37.203125 44.609375 42.84375 
Q 40.53125 48.484375 33.40625 48.484375 
Q 26.265625 48.484375 22.1875 42.84375 
Q 18.109375 37.203125 18.109375 27.296875 
Q 18.109375 17.390625 22.1875 11.75 
Q 26.265625 6.109375 33.40625 6.109375 
Q 40.53125 6.109375 44.609375 11.75 
Q 48.6875 17.390625 48.6875 27.296875 
" id="BitstreamVeraSans-Roman-70"/>
      <path d="M 18.3125 70.21875 
L 18.3125 54.6875 
L 36.8125 54.6875 
L 36.8125 47.703125 
L 18.3125 47.703125 
L 18.3125 18.015625 
Q 18.3125 11.328125 20.140625 9.421875 
Q 21.96875 7.515625 27.59375 7.515625 
L 36.8125 7.515625 
L 36.8125 0 
L 27.59375 0 
Q 17.1875 0 13.234375 3.875 
Q 9.28125 7.765625 9.28125 18.015625 
L 9.28125 47.703125 
L 2.6875 47.703125 
L 2.6875 54.6875 
L 9.28125 54.6875 
L 9.28125 70.21875 
z
" id="BitstreamVeraSans-Roman-74"/>
      <path d="M 8.5 21.578125 
L 8.5 54.6875 
L 17.484375 54.6875 
L 17.484375 21.921875 
Q 17.484375 14.15625 20.5 10.265625 
Q 23.53125 6.390625 29.59375 6.390625 
Q 36.859375 6.390625 41.078125 11.03125 
Q 45.3125 15.671875 45.3125 23.6875 
L 45.3125 54.6875 
L 54.296875 54.6875 
L 54.296875 0 
L 45.3125 0 
L 45.3125 8.40625 
Q 42.046875 3.421875 37.71875 1 
Q 33.40625 -1.421875 27.6875 -1.421875 
Q 18.265625 -1.421875 13.375 4.4375 
Q 8.5 10.296875 8.5 21.578125 
" id="BitstreamVeraSans-Roman-75"/>
      <path d="M 41.109375 46.296875 
Q 39.59375 47.171875 37.8125 47.578125 
Q 36.03125 48 33.890625 48 
Q 26.265625 48 22.1875 43.046875 
Q 18.109375 38.09375 18.109375 28.8125 
L 18.109375 0 
L 9.078125 0 
L 9.078125 54.6875 
L 18.109375 54.6875 
L 18.109375 46.1875 
Q 20.953125 51.171875 25.484375 53.578125 
Q 30.03125 56 36.53125 56 
Q 37.453125 56 38.578125 55.875 
Q 39.703125 55.765625 41.0625 55.515625 
z
" id="BitstreamVeraSans-Roman-72"/>
      <path d="M 48.78125 52.59375 
L 48.78125 44.1875 
Q 44.96875 46.296875 41.140625 47.34375 
Q 37.3125 48.390625 33.40625 48.390625 
Q 24.65625 48.390625 19.8125 42.84375 
Q 14.984375 37.3125 14.984375 27.296875 
Q 14.984375 17.28125 19.8125 11.734375 
Q 24.65625 6.203125 33.40625 6.203125 
Q 37.3125 6.203125 41.140625 7.25 
Q 44.96875 8.296875 48.78125 10.40625 
L 48.78125 2.09375 
Q 45.015625 0.34375 40.984375 -0.53125 
Q 36.96875 -1.421875 32.421875 -1.421875 
Q 20.0625 -1.421875 12.78125 6.34375 
Q 5.515625 14.109375 5.515625 27.296875 
Q 5.515625 40.671875 12.859375 48.328125 
Q 20.21875 56 33.015625 56 
Q 37.15625 56 41.109375 55.140625 
Q 45.0625 54.296875 48.78125 52.59375 
" id="BitstreamVeraSans-Roman-63"/>
     </defs>
     <g transform="translate(26.2503125 323.17875)rotate(-90.0)scale(0.18 -0.18)">
      <use xlink:href="#BitstreamVeraSans-Roman-50"/>
      <use x="60.287109375" xlink:href="#BitstreamVeraSans-Roman-72"/>
      <use x="101.369140625" xlink:href="#BitstreamVeraSans-Roman-6f"/>
      <use x="162.55078125" xlink:href="#BitstreamVeraSans-Roman-70"/>
      <use x="226.02734375" xlink:href="#BitstreamVeraSans-Roman-6f"/>
      <use x="287.208984375" xlink:href="#BitstreamVeraSans-Roman-72"/>
      <use x="328.322265625" xlink:href="#BitstreamVeraSans-Roman-74"/>
      <use x="367.53125" xlink:href="#BitstreamVeraSans-Roman-69"/>
      <use x="395.314453125" xlink:href="#BitstreamVeraSans-Roman-6f"/>
      <use x="456.49609375" xlink:href="#BitstreamVeraSans-Roman-6e"/>
      <use x="519.875" xlink:href="#BitstreamVeraSans-Roman-20"/>
      <use x="551.662109375" xlink:href="#BitstreamVeraSans-Roman-6f"/>
      <use x="612.84375" xlink:href="#BitstreamVeraSans-Roman-66"/>
      <use x="648.048828125" xlink:href="#BitstreamVeraSans-Roman-20"/>
      <use x="679.8359375" xlink:href="#BitstreamVeraSans-Roman-66"/>
      <use x="715.041015625" xlink:href="#BitstreamVeraSans-Roman-75"/>
      <use x="778.419921875" xlink:href="#BitstreamVeraSans-Roman-6e"/>
      <use x="841.798828125" xlink:href="#BitstreamVeraSans-Roman-63"/>
      <use x="896.779296875" xlink:href="#BitstreamVeraSans-Roman-74"/>
      <use x="935.98828125" xlink:href="#BitstreamVeraSans-Roman-69"/>
      <use x="963.771484375" xlink:href="#BitstreamVeraSans-Roman-6f"/>
      <use x="1024.953125" xlink:href="#BitstreamVeraSans-Roman-6e"/>
      <use x="1088.33203125" xlink:href="#BitstreamVeraSans-Roman-2b"/>
      <use x="1172.12109375" xlink:href="#BitstreamVeraSans-Roman-74"/>
      <use x="1211.33007812" xlink:href="#BitstreamVeraSans-Roman-61"/>
      <use x="1272.609375" xlink:href="#BitstreamVeraSans-Roman-72"/>
      <use x="1313.70703125" xlink:href="#BitstreamVeraSans-Roman-67"/>
      <use x="1377.18359375" xlink:href="#BitstreamVeraSans-Roman-65"/>
      <use x="1438.70703125" xlink:href="#BitstreamVeraSans-Roman-74"/>
      <use x="1477.91601562" xlink:href="#BitstreamVeraSans-Roman-20"/>
      <use x="1509.703125" xlink:href="#BitstreamVeraSans-Roman-70"/>
      <use x="1573.1796875" xlink:href="#BitstreamVeraSans-Roman-61"/>
      <use x="1634.45898438" xlink:href="#BitstreamVeraSans-Roman-69"/>
      <use x="1662.2421875" xlink:href="#BitstreamVeraSans-Roman-72"/>
      <use x="1703.35546875" xlink:href="#BitstreamVeraSans-Roman-73"/>
     </g>
    </g>
   </g>
   <g id="text_13">
    <!-- migration ga -->
    <g transform="translate(396.24 302.093586015)scale(0.15 -0.15)">
     <use xlink:href="#BitstreamVeraSans-Roman-6d"/>
     <use x="97.412109375" xlink:href="#BitstreamVeraSans-Roman-69"/>
     <use x="125.1953125" xlink:href="#BitstreamVeraSans-Roman-67"/>
     <use x="188.671875" xlink:href="#BitstreamVeraSans-Roman-72"/>
     <use x="229.78515625" xlink:href="#BitstreamVeraSans-Roman-61"/>
     <use x="291.064453125" xlink:href="#BitstreamVeraSans-Roman-74"/>
     <use x="330.2734375" xlink:href="#BitstreamVeraSans-Roman-69"/>
     <use x="358.056640625" xlink:href="#BitstreamVeraSans-Roman-6f"/>
     <use x="419.23828125" xlink:href="#BitstreamVeraSans-Roman-6e"/>
     <use x="482.6171875" xlink:href="#BitstreamVeraSans-Roman-20"/>
     <use x="514.404296875" xlink:href="#BitstreamVeraSans-Roman-67"/>
     <use x="577.880859375" xlink:href="#BitstreamVeraSans-Roman-61"/>
    </g>
   </g>
   <g id="text_14">
    <!-- standard ga -->
    <g transform="translate(396.24 214.495962252)scale(0.15 -0.15)">
     <use xlink:href="#BitstreamVeraSans-Roman-73"/>
     <use x="52.099609375" xlink:href="#BitstreamVeraSans-Roman-74"/>
     <use x="91.30859375" xlink:href="#BitstreamVeraSans-Roman-61"/>
     <use x="152.587890625" xlink:href="#BitstreamVeraSans-Roman-6e"/>
     <use x="215.966796875" xlink:href="#BitstreamVeraSans-Roman-64"/>
     <use x="279.443359375" xlink:href="#BitstreamVeraSans-Roman-61"/>
     <use x="340.72265625" xlink:href="#BitstreamVeraSans-Roman-72"/>
     <use x="381.8203125" xlink:href="#BitstreamVeraSans-Roman-64"/>
     <use x="445.296875" xlink:href="#BitstreamVeraSans-Roman-20"/>
     <use x="477.083984375" xlink:href="#BitstreamVeraSans-Roman-67"/>
     <use x="540.560546875" xlink:href="#BitstreamVeraSans-Roman-61"/>
    </g>
   </g>
   <g id="text_15">
    <!-- diffusion ga -->
    <g transform="translate(396.24 126.89833849)scale(0.15 -0.15)">
     <use xlink:href="#BitstreamVeraSans-Roman-64"/>
     <use x="63.4765625" xlink:href="#BitstreamVeraSans-Roman-69"/>
     <use x="91.259765625" xlink:href="#BitstreamVeraSans-Roman-66"/>
     <use x="126.46484375" xlink:href="#BitstreamVeraSans-Roman-66"/>
     <use x="161.669921875" xlink:href="#BitstreamVeraSans-Roman-75"/>
     <use x="225.048828125" xlink:href="#BitstreamVeraSans-Roman-73"/>
     <use x="277.1484375" xlink:href="#BitstreamVeraSans-Roman-69"/>
     <use x="304.931640625" xlink:href="#BitstreamVeraSans-Roman-6f"/>
     <use x="366.11328125" xlink:href="#BitstreamVeraSans-Roman-6e"/>
     <use x="429.4921875" xlink:href="#BitstreamVeraSans-Roman-20"/>
     <use x="461.279296875" xlink:href="#BitstreamVeraSans-Roman-67"/>
     <use x="524.755859375" xlink:href="#BitstreamVeraSans-Roman-61"/>
    </g>
   </g>
   <g id="text_16">
    <!-- best 2009 -->
    <defs>
     <path d="M 10.984375 1.515625 
L 10.984375 10.5 
Q 14.703125 8.734375 18.5 7.8125 
Q 22.3125 6.890625 25.984375 6.890625 
Q 35.75 6.890625 40.890625 13.453125 
Q 46.046875 20.015625 46.78125 33.40625 
Q 43.953125 29.203125 39.59375 26.953125 
Q 35.25 24.703125 29.984375 24.703125 
Q 19.046875 24.703125 12.671875 31.3125 
Q 6.296875 37.9375 6.296875 49.421875 
Q 6.296875 60.640625 12.9375 67.421875 
Q 19.578125 74.21875 30.609375 74.21875 
Q 43.265625 74.21875 49.921875 64.515625 
Q 56.59375 54.828125 56.59375 36.375 
Q 56.59375 19.140625 48.40625 8.859375 
Q 40.234375 -1.421875 26.421875 -1.421875 
Q 22.703125 -1.421875 18.890625 -0.6875 
Q 15.09375 0.046875 10.984375 1.515625 
M 30.609375 32.421875 
Q 37.25 32.421875 41.125 36.953125 
Q 45.015625 41.5 45.015625 49.421875 
Q 45.015625 57.28125 41.125 61.84375 
Q 37.25 66.40625 30.609375 66.40625 
Q 23.96875 66.40625 20.09375 61.84375 
Q 16.21875 57.28125 16.21875 49.421875 
Q 16.21875 41.5 20.09375 36.953125 
Q 23.96875 32.421875 30.609375 32.421875 
" id="BitstreamVeraSans-Roman-39"/>
     <path d="M 48.6875 27.296875 
Q 48.6875 37.203125 44.609375 42.84375 
Q 40.53125 48.484375 33.40625 48.484375 
Q 26.265625 48.484375 22.1875 42.84375 
Q 18.109375 37.203125 18.109375 27.296875 
Q 18.109375 17.390625 22.1875 11.75 
Q 26.265625 6.109375 33.40625 6.109375 
Q 40.53125 6.109375 44.609375 11.75 
Q 48.6875 17.390625 48.6875 27.296875 
M 18.109375 46.390625 
Q 20.953125 51.265625 25.265625 53.625 
Q 29.59375 56 35.59375 56 
Q 45.5625 56 51.78125 48.09375 
Q 58.015625 40.1875 58.015625 27.296875 
Q 58.015625 14.40625 51.78125 6.484375 
Q 45.5625 -1.421875 35.59375 -1.421875 
Q 29.59375 -1.421875 25.265625 0.953125 
Q 20.953125 3.328125 18.109375 8.203125 
L 18.109375 0 
L 9.078125 0 
L 9.078125 75.984375 
L 18.109375 75.984375 
z
" id="BitstreamVeraSans-Roman-62"/>
    </defs>
    <g transform="translate(396.24 39.3007147277)scale(0.15 -0.15)">
     <use xlink:href="#BitstreamVeraSans-Roman-62"/>
     <use x="63.4765625" xlink:href="#BitstreamVeraSans-Roman-65"/>
     <use x="125.0" xlink:href="#BitstreamVeraSans-Roman-73"/>
     <use x="177.099609375" xlink:href="#BitstreamVeraSans-Roman-74"/>
     <use x="216.30859375" xlink:href="#BitstreamVeraSans-Roman-20"/>
     <use x="248.095703125" xlink:href="#BitstreamVeraSans-Roman-32"/>
     <use x="311.71875" xlink:href="#BitstreamVeraSans-Roman-30"/>
     <use x="375.341796875" xlink:href="#BitstreamVeraSans-Roman-30"/>
     <use x="438.96484375" xlink:href="#BitstreamVeraSans-Roman-39"/>
    </g>
   </g>
   <g id="text_17">
    <!-- f20-24,3-D -->
    <defs>
     <path d="M 11.71875 12.40625 
L 22.015625 12.40625 
L 22.015625 4 
L 14.015625 -11.625 
L 7.71875 -11.625 
L 11.71875 4 
z
" id="BitstreamVeraSans-Roman-2c"/>
     <path d="M 19.671875 64.796875 
L 19.671875 8.109375 
L 31.59375 8.109375 
Q 46.6875 8.109375 53.6875 14.9375 
Q 60.6875 21.78125 60.6875 36.53125 
Q 60.6875 51.171875 53.6875 57.984375 
Q 46.6875 64.796875 31.59375 64.796875 
z
M 9.8125 72.90625 
L 30.078125 72.90625 
Q 51.265625 72.90625 61.171875 64.09375 
Q 71.09375 55.28125 71.09375 36.53125 
Q 71.09375 17.671875 61.125 8.828125 
Q 51.171875 0 30.078125 0 
L 9.8125 0 
z
" id="BitstreamVeraSans-Roman-44"/>
    </defs>
    <g transform="translate(74.3712 47.67585)scale(0.2 -0.2)">
     <use xlink:href="#BitstreamVeraSans-Roman-66"/>
     <use x="35.205078125" xlink:href="#BitstreamVeraSans-Roman-32"/>
     <use x="98.828125" xlink:href="#BitstreamVeraSans-Roman-30"/>
     <use x="162.451171875" xlink:href="#BitstreamVeraSans-Roman-2d"/>
     <use x="198.53515625" xlink:href="#BitstreamVeraSans-Roman-32"/>
     <use x="262.158203125" xlink:href="#BitstreamVeraSans-Roman-34"/>
     <use x="325.78125" xlink:href="#BitstreamVeraSans-Roman-2c"/>
     <use x="357.568359375" xlink:href="#BitstreamVeraSans-Roman-33"/>
     <use x="421.19140625" xlink:href="#BitstreamVeraSans-Roman-2d"/>
     <use x="457.275390625" xlink:href="#BitstreamVeraSans-Roman-44"/>
    </g>
   </g>
  </g>
 </g>
 <defs>
  <clipPath id="p7dd2b0da94">
   <rect height="276.48" width="357.12" x="70.8" y="26.949375"/>
  </clipPath>
 </defs>
</svg>
