<?xml version="1.0" encoding="utf-8" standalone="no"?>
<!DOCTYPE svg PUBLIC "-//W3C//DTD SVG 1.1//EN"
  "http://www.w3.org/Graphics/SVG/1.1/DTD/svg11.dtd">
<!-- Created with matplotlib (http://matplotlib.org/) -->
<svg height="356pt" version="1.1" viewBox="0 0 566 356" width="566pt" xmlns="http://www.w3.org/2000/svg" xmlns:xlink="http://www.w3.org/1999/xlink">
 <defs>
  <style type="text/css">
*{stroke-linecap:butt;stroke-linejoin:round;stroke-miterlimit:100000;}
  </style>
 </defs>
 <g id="figure_1">
  <g id="patch_1">
   <path d="M 0 356.40625 
L 566.612317 356.40625 
L 566.612317 0 
L 0 0 
z
" style="fill:#ffffff;"/>
  </g>
  <g id="axes_1">
   <g id="patch_2">
    <path d="M 138.09888 303.429375 
L 495.21888 303.429375 
L 495.21888 26.949375 
L 138.09888 26.949375 
z
" style="fill:#ffffff;"/>
   </g>
   <g id="line2d_1">
    <path d="M 13.2 303.429375 
L 13.2 296.451623 
L 42.09888 296.451623 
L 42.09888 294.841373 
L 59.00364 294.841373 
L 59.00364 293.767872 
L 87.90252 293.767872 
L 87.90252 293.231122 
L 113.173698 293.231122 
L 113.173698 292.157622 
L 116.8014 292.157622 
L 116.8014 291.620872 
L 120.138562 291.620872 
L 120.138562 290.547372 
L 123.228291 290.547372 
L 123.228291 286.79012 
L 126.104761 286.79012 
L 126.104761 286.25337 
L 131.323096 286.25337 
L 131.323096 283.56962 
L 143.925872 283.56962 
L 143.925872 280.349119 
L 145.700279 280.349119 
L 145.700279 278.202118 
L 152.127171 278.202118 
L 152.127171 275.518367 
L 157.694398 275.518367 
L 157.694398 273.908117 
L 158.977338 273.908117 
L 158.977338 272.297867 
L 160.221976 272.297867 
L 160.221976 270.687616 
L 162.60504 270.687616 
L 162.60504 269.077366 
L 163.747366 269.077366 
L 163.747366 264.246614 
L 166.997759 264.246614 
L 166.997759 261.562864 
L 168.02725 261.562864 
L 168.02725 261.026113 
L 169.031932 261.026113 
L 169.031932 246.53386 
L 170.012972 246.53386 
L 170.012972 245.460359 
L 171.908401 245.460359 
L 171.908401 241.166358 
L 172.824752 241.166358 
L 172.824752 239.556108 
L 173.721394 239.556108 
L 173.721394 239.019358 
L 174.599159 239.019358 
L 174.599159 237.945857 
L 175.458824 237.945857 
L 175.458824 236.872357 
L 176.30112 236.872357 
L 176.30112 235.798857 
L 177.126737 235.798857 
L 177.126737 233.115106 
L 177.936321 233.115106 
L 177.936321 230.968105 
L 178.730483 230.968105 
L 178.730483 230.431355 
L 179.509801 230.431355 
L 179.509801 228.284355 
L 180.274818 228.284355 
L 180.274818 227.210854 
L 182.489087 227.210854 
L 182.489087 226.137354 
L 183.90252 226.137354 
L 183.90252 225.063854 
L 185.269602 225.063854 
L 185.269602 223.990353 
L 185.936693 223.990353 
L 185.936693 223.453603 
L 187.876218 223.453603 
L 187.876218 222.916853 
L 188.503181 222.916853 
L 188.503181 221.843353 
L 189.120856 221.843353 
L 189.120856 221.306603 
L 189.729513 221.306603 
L 189.729513 219.159602 
L 190.329412 219.159602 
L 190.329412 214.865601 
L 190.920801 214.865601 
L 190.920801 212.7186 
L 191.50392 212.7186 
L 191.50392 210.5716 
L 192.078995 210.5716 
L 192.078995 208.424599 
L 192.646245 208.424599 
L 192.646245 207.351099 
L 193.758105 207.351099 
L 193.758105 206.814349 
L 194.30311 206.814349 
L 194.30311 205.204098 
L 194.841082 205.204098 
L 194.841082 201.983597 
L 195.372201 201.983597 
L 195.372201 201.446847 
L 196.414562 201.446847 
L 196.414562 200.910097 
L 196.92613 200.910097 
L 196.92613 199.299847 
L 197.431497 199.299847 
L 197.431497 198.763097 
L 197.930811 198.763097 
L 197.930811 196.616096 
L 198.424217 196.616096 
L 198.424217 194.469095 
L 199.393848 194.469095 
L 199.393848 193.932345 
L 200.341441 193.932345 
L 200.341441 192.322095 
L 201.723631 192.322095 
L 201.723631 191.248595 
L 202.174363 191.248595 
L 202.174363 190.711844 
L 202.620274 190.711844 
L 202.620274 190.175094 
L 203.498038 190.175094 
L 203.498038 189.101594 
L 203.930086 189.101594 
L 203.930086 188.564844 
L 204.780979 188.564844 
L 204.780979 187.491344 
L 205.2 187.491344 
L 205.2 186.954593 
L 205.614852 186.954593 
L 205.614852 185.881093 
L 206.025616 185.881093 
L 206.025616 184.270843 
L 206.835201 184.270843 
L 206.835201 183.197342 
L 208.020843 183.197342 
L 208.020843 181.050342 
L 208.792944 181.050342 
L 208.792944 179.976842 
L 209.551006 179.976842 
L 209.551006 179.440091 
L 210.662866 179.440091 
L 210.662866 178.903341 
L 211.026993 178.903341 
L 211.026993 178.366591 
L 211.387967 178.366591 
L 211.387967 177.829841 
L 211.745843 177.829841 
L 211.745843 177.293091 
L 212.100673 177.293091 
L 212.100673 176.756341 
L 213.830891 176.756341 
L 213.830891 176.21959 
L 214.168482 176.21959 
L 214.168482 175.68284 
L 217.402061 175.68284 
L 217.402061 175.14609 
L 218.628392 175.14609 
L 218.628392 174.07259 
L 218.929421 174.07259 
L 218.929421 172.462339 
L 219.228291 172.462339 
L 219.228291 170.852089 
L 219.525035 170.852089 
L 219.525035 170.315339 
L 220.691328 170.315339 
L 220.691328 169.778589 
L 221.825882 169.778589 
L 221.825882 168.705088 
L 222.381787 168.705088 
L 222.381787 167.631588 
L 222.656984 167.631588 
L 222.656984 167.094838 
L 222.930377 167.094838 
L 222.930377 165.484588 
L 223.201989 165.484588 
L 223.201989 164.411087 
L 224.534124 164.411087 
L 224.534124 163.874337 
L 225.825009 163.874337 
L 225.825009 162.800837 
L 226.580781 162.800837 
L 226.580781 162.264087 
L 227.567627 162.264087 
L 227.567627 161.727337 
L 227.810731 161.727337 
L 227.810731 161.190586 
L 228.052426 161.190586 
L 228.052426 160.653836 
L 228.531653 160.653836 
L 228.531653 159.580336 
L 229.473891 159.580336 
L 229.473891 159.043586 
L 229.937143 159.043586 
L 229.937143 158.506836 
L 230.166853 158.506836 
L 230.166853 157.970086 
L 231.296794 157.970086 
L 231.296794 156.359835 
L 232.613502 156.359835 
L 232.613502 155.823085 
L 232.828966 155.823085 
L 232.828966 155.286335 
L 233.468758 155.286335 
L 233.468758 154.749585 
L 234.924496 154.749585 
L 234.924496 154.212835 
L 235.73408 154.212835 
L 235.73408 153.676084 
L 236.724442 153.676084 
L 236.724442 152.602584 
L 240.466168 152.602584 
L 240.466168 152.065834 
L 242.046275 152.065834 
L 242.046275 151.529084 
L 242.898908 151.529084 
L 242.898908 150.455584 
L 243.067361 150.455584 
L 243.067361 149.918833 
L 243.235137 149.918833 
L 243.235137 149.382083 
L 243.402241 149.382083 
L 243.402241 148.845333 
L 245.831604 148.845333 
L 245.831604 148.308583 
L 245.988637 148.308583 
L 245.988637 147.771833 
L 248.127171 147.771833 
L 248.127171 146.698332 
L 248.275807 146.698332 
L 248.275807 145.088082 
L 248.571498 145.088082 
L 248.571498 144.551332 
L 248.865107 144.551332 
L 248.865107 144.014582 
L 249.876754 144.014582 
L 249.876754 143.477832 
L 250.584619 143.477832 
L 250.584619 142.404331 
L 250.864434 142.404331 
L 250.864434 141.867581 
L 251.829257 141.867581 
L 251.829257 141.330831 
L 252.100869 141.330831 
L 252.100869 139.720581 
L 252.236014 139.720581 
L 252.236014 139.18383 
L 252.370723 139.18383 
L 252.370723 138.64708 
L 252.772256 138.64708 
L 252.772256 138.11033 
L 253.301689 138.11033 
L 253.301689 137.57358 
L 253.433004 137.57358 
L 253.433004 136.50008 
L 253.563906 136.50008 
L 253.563906 135.96333 
L 253.824483 135.96333 
L 253.824483 135.426579 
L 253.954164 135.426579 
L 253.954164 134.353079 
L 254.723889 134.353079 
L 254.723889 133.816329 
L 255.354646 133.816329 
L 255.354646 133.279579 
L 255.479661 133.279579 
L 255.479661 132.742829 
L 255.976003 132.742829 
L 255.976003 131.132578 
L 256.34442 131.132578 
L 256.34442 130.595828 
L 256.588236 130.595828 
L 256.588236 129.522328 
L 256.70961 129.522328 
L 256.70961 128.448828 
L 257.311241 128.448828 
L 257.311241 127.912077 
L 257.549483 127.912077 
L 257.549483 126.301827 
L 258.720691 126.301827 
L 258.720691 125.228327 
L 259.294184 125.228327 
L 259.294184 124.691577 
L 260.084048 124.691577 
L 260.084048 124.154826 
L 260.195674 124.154826 
L 260.195674 123.081326 
L 260.307002 123.081326 
L 260.307002 122.007826 
L 260.859225 122.007826 
L 260.859225 120.934325 
L 261.078083 120.934325 
L 261.078083 120.397575 
L 261.295798 120.397575 
L 261.295798 119.860825 
L 261.512381 119.860825 
L 261.512381 118.250575 
L 262.155462 118.250575 
L 262.261685 116.640324 
L 262.473321 116.640324 
L 262.473321 116.103574 
L 263.10186 116.103574 
L 263.10186 115.030074 
L 263.925438 115.030074 
L 263.925438 114.493324 
L 264.128815 114.493324 
L 264.128815 113.419823 
L 264.532617 113.419823 
L 264.532617 111.809573 
L 264.832923 111.809573 
L 264.832923 111.272823 
L 265.031932 111.272823 
L 265.131081 108.052322 
L 265.525337 108.052322 
L 265.623322 106.442072 
L 265.721076 106.442072 
L 265.721076 105.905321 
L 266.20644 105.905321 
L 266.302838 103.221571 
L 266.590703 103.221571 
L 266.590703 102.14807 
L 267.160538 102.14807 
L 267.160538 101.61132 
L 267.348765 101.61132 
L 267.348765 101.07457 
L 267.908401 101.07457 
L 267.908401 100.53782 
L 268.185427 100.53782 
L 268.277362 98.390819 
L 269.275483 98.390819 
L 269.275483 97.854069 
L 269.454421 97.854069 
L 269.454421 95.707069 
L 270.337764 95.707069 
L 270.337764 95.170319 
L 270.512209 95.170319 
L 270.512209 94.096818 
L 271.713304 94.096818 
L 271.713304 93.560068 
L 272.633331 93.560068 
L 272.633331 93.023318 
L 272.880764 93.023318 
L 272.962916 91.949818 
L 273.044907 91.949818 
L 273.044907 90.876317 
L 273.289916 90.876317 
L 273.289916 90.339567 
L 275.432521 90.339567 
L 275.432521 89.802817 
L 275.663932 89.802817 
L 275.663932 88.729317 
L 276.951534 88.729317 
L 276.951534 88.192567 
L 277.690778 88.192567 
L 277.690778 87.119066 
L 278.272878 87.119066 
L 278.272878 85.508816 
L 278.704181 85.508816 
L 278.775633 83.898565 
L 279.832975 83.898565 
L 279.832975 83.361815 
L 280.110462 83.361815 
L 280.110462 82.825065 
L 281.067376 82.825065 
L 281.067376 82.288315 
L 281.403877 82.288315 
L 281.470852 80.678065 
L 283.239682 80.678065 
L 283.303775 77.994314 
L 283.495464 77.994314 
L 283.495464 77.457564 
L 284.190878 77.457564 
L 284.190878 76.384063 
L 284.936512 76.384063 
L 284.936512 75.847313 
L 285.426295 75.847313 
L 285.426295 75.310563 
L 285.547847 75.310563 
L 285.547847 74.773813 
L 286.030541 74.773813 
L 286.030541 74.237063 
L 286.566975 74.237063 
L 286.566975 73.700313 
L 287.387947 73.700313 
L 287.387947 73.163563 
L 289.758105 73.163563 
L 289.758105 72.626812 
L 290.248929 72.626812 
L 290.248929 72.090062 
L 290.572963 72.090062 
L 290.572963 71.553312 
L 290.894499 71.553312 
L 290.894499 70.479812 
L 291.792278 70.479812 
L 291.792278 69.943062 
L 292.208164 69.943062 
L 292.208164 69.406312 
L 292.414562 69.406312 
L 292.414562 68.869561 
L 293.481698 68.869561 
L 293.481698 68.332811 
L 293.631941 68.332811 
L 293.631941 67.796061 
L 293.881148 67.796061 
L 293.881148 67.259311 
L 295.297894 67.259311 
L 295.297894 66.722561 
L 295.441743 66.722561 
L 295.441743 65.11231 
L 296.200668 65.11231 
L 296.200668 64.57556 
L 296.575011 64.57556 
L 296.575011 62.96531 
L 297.084307 62.96531 
L 297.1303 61.891809 
L 297.632897 61.891809 
L 297.632897 61.355059 
L 297.994655 61.355059 
L 297.994655 60.281559 
L 298.308638 60.281559 
L 298.308638 58.671309 
L 298.708887 58.671309 
L 298.708887 57.597808 
L 298.929598 57.597808 
L 298.929598 57.061058 
L 299.411089 57.061058 
L 299.454586 55.450808 
L 299.844034 55.450808 
L 299.887083 53.840557 
L 300.485138 53.840557 
L 300.485138 53.303807 
L 301.2 53.303807 
L 301.2 52.230307 
L 302.148061 52.230307 
L 302.148061 51.693557 
L 302.310763 51.693557 
L 302.310763 50.620056 
L 302.513251 50.620056 
L 302.513251 49.009806 
L 303.511199 49.009806 
L 303.511199 48.473056 
L 303.864692 48.473056 
L 303.864692 47.399556 
L 304.137573 47.399556 
L 304.137573 46.862805 
L 304.754676 46.862805 
L 304.754676 45.789305 
L 305.097825 45.789305 
L 305.173698 44.715805 
L 305.738387 44.715805 
L 305.738387 44.179055 
L 306.184696 44.179055 
L 306.184696 42.032054 
L 306.772438 42.032054 
L 306.772438 41.495304 
L 306.918088 41.495304 
L 306.918088 40.421804 
L 308.487529 40.421804 
L 308.487529 39.885054 
L 309.284994 39.885054 
L 309.284994 39.348303 
L 311.394326 39.348303 
L 311.394326 38.811553 
L 311.6547 38.811553 
L 311.6547 37.738053 
L 314.59817 37.738053 
L 314.59817 36.664553 
L 315.495455 36.664553 
L 315.495455 35.591052 
L 316.662565 35.591052 
L 316.662565 34.517552 
L 321.416258 34.517552 
L 321.416258 33.980802 
L 326.418081 33.980802 
L 326.418081 32.907302 
L 329.637724 32.907302 
L 329.637724 32.370551 
L 331.633738 32.370551 
L 331.633738 31.297051 
L 332.528243 31.297051 
L 332.528243 30.760301 
L 343.557473 30.760301 
L 343.557473 29.686801 
L 426.09888 29.686801 
L 426.09888 29.686801 
" style="fill:none;stroke:#f5deb3;stroke-linecap:square;stroke-width:6.0;"/>
   </g>
   <g id="line2d_2"/>
   <g id="line2d_3">
    <path d="M 426.09888 29.686801 
L 457.77888 35.161652 
" style="fill:none;stroke:#f5deb3;stroke-linecap:square;stroke-width:6.0;"/>
    <defs>
     <path d="M -0 7.778175 
L 7.778175 0 
L 0 -7.778175 
L -7.778175 -0 
z
" id="m56f52b381b" style="stroke:#f5deb3;stroke-linejoin:miter;stroke-width:1.5;"/>
    </defs>
    <g>
     <use style="fill:#f5deb3;stroke:#f5deb3;stroke-linejoin:miter;stroke-width:1.5;" x="426.098879584" xlink:href="#m56f52b381b" y="29.6868007426"/>
     <use style="fill:#f5deb3;stroke:#f5deb3;stroke-linejoin:miter;stroke-width:1.5;" x="457.778879584" xlink:href="#m56f52b381b" y="35.1616522277"/>
    </g>
   </g>
   <g id="line2d_4">
    <defs>
     <path d="M 0 1.5 
C 0.397805 1.5 0.77937 1.341951 1.06066 1.06066 
C 1.341951 0.77937 1.5 0.397805 1.5 0 
C 1.5 -0.397805 1.341951 -0.77937 1.06066 -1.06066 
C 0.77937 -1.341951 0.397805 -1.5 0 -1.5 
C -0.397805 -1.5 -0.77937 -1.341951 -1.06066 -1.06066 
C -1.341951 -0.77937 -1.5 -0.397805 -1.5 0 
C -1.5 0.397805 -1.341951 0.77937 -1.06066 1.06066 
C -0.77937 1.341951 -0.397805 1.5 0 1.5 
z
" id="mbeb1a850c8" style="stroke:#f5deb3;stroke-width:0.5;"/>
    </defs>
    <g>
     <use style="fill:#f5deb3;stroke:#f5deb3;stroke-width:0.5;" x="343.557472727" xlink:href="#mbeb1a850c8" y="29.6868007426"/>
     <use style="fill:#f5deb3;stroke:#f5deb3;stroke-width:0.5;" x="343.557472727" xlink:href="#mbeb1a850c8" y="29.6868007426"/>
    </g>
   </g>
   <g id="line2d_5">
    <g>
     <use style="fill:#f5deb3;stroke:#f5deb3;stroke-linejoin:miter;stroke-width:1.5;" x="87.9025200368" xlink:href="#m56f52b381b" y="293.231122234"/>
     <use style="fill:#f5deb3;stroke:#f5deb3;stroke-linejoin:miter;stroke-width:1.5;" x="177.126736905" xlink:href="#m56f52b381b" y="235.798856654"/>
     <use style="fill:#f5deb3;stroke:#f5deb3;stroke-linejoin:miter;stroke-width:1.5;" x="224.534123935" xlink:href="#m56f52b381b" y="163.874337143"/>
     <use style="fill:#f5deb3;stroke:#f5deb3;stroke-linejoin:miter;stroke-width:1.5;" x="266.206439694" xlink:href="#m56f52b381b" y="105.905321418"/>
     <use style="fill:#f5deb3;stroke:#f5deb3;stroke-linejoin:miter;stroke-width:1.5;" x="302.310762585" xlink:href="#m56f52b381b" y="50.6200564211"/>
     <use style="fill:#f5deb3;stroke:#f5deb3;stroke-linejoin:miter;stroke-width:1.5;" x="343.557472727" xlink:href="#m56f52b381b" y="29.6868007426"/>
     <use style="fill:#f5deb3;stroke:#f5deb3;stroke-linejoin:miter;stroke-width:1.5;" x="426.098879584" xlink:href="#m56f52b381b" y="29.6868007426"/>
    </g>
   </g>
   <g id="line2d_6">
    <defs>
     <path d="M 0 1.5 
C 0.397805 1.5 0.77937 1.341951 1.06066 1.06066 
C 1.341951 0.77937 1.5 0.397805 1.5 0 
C 1.5 -0.397805 1.341951 -0.77937 1.06066 -1.06066 
C 0.77937 -1.341951 0.397805 -1.5 0 -1.5 
C -0.397805 -1.5 -0.77937 -1.341951 -1.06066 -1.06066 
C -1.341951 -0.77937 -1.5 -0.397805 -1.5 0 
C -1.5 0.397805 -1.341951 0.77937 -1.06066 1.06066 
C -0.77937 1.341951 -0.397805 1.5 0 1.5 
z
" id="md4a4e501ed" style="stroke:#000080;stroke-width:0.5;"/>
    </defs>
    <g>
     <use style="fill:#000080;stroke:#000080;stroke-width:0.5;" x="489.55971277" xlink:href="#md4a4e501ed" y="239.019357528"/>
     <use style="fill:#000080;stroke:#000080;stroke-width:0.5;" x="489.55971277" xlink:href="#md4a4e501ed" y="239.019357528"/>
    </g>
   </g>
   <g id="line2d_7">
    <path d="M 13.2 303.429375 
L 13.2 302.892625 
L 42.09888 302.892625 
L 42.09888 302.355875 
L 87.90252 302.355875 
L 87.90252 301.819125 
L 123.228291 301.819125 
L 123.228291 301.282374 
L 126.104761 301.282374 
L 126.104761 300.745624 
L 133.70616 300.745624 
L 133.70616 299.672124 
L 142.072577 299.672124 
L 142.072577 299.135374 
L 147.402241 299.135374 
L 147.402241 298.598624 
L 152.127171 298.598624 
L 152.127171 298.061874 
L 169.031932 298.061874 
L 169.031932 296.451623 
L 171.908401 296.451623 
L 171.908401 295.914873 
L 172.824752 295.914873 
L 172.824752 295.378123 
L 181.763986 295.378123 
L 181.763986 294.304623 
L 183.201793 294.304623 
L 183.201793 293.767872 
L 202.174363 293.767872 
L 202.174363 292.694372 
L 219.819681 292.694372 
L 219.819681 292.157622 
L 225.313441 292.157622 
L 225.313441 291.084122 
L 229.24032 291.084122 
L 229.24032 290.547372 
L 241.873636 290.547372 
L 241.873636 290.010621 
L 244.391037 290.010621 
L 244.391037 289.473871 
L 249.301679 289.473871 
L 249.301679 287.863621 
L 265.818602 287.863621 
L 265.818602 285.17987 
L 281.336794 285.17987 
L 281.336794 284.64312 
L 292.259859 284.64312 
L 292.259859 283.56962 
L 296.153637 283.56962 
L 296.153637 283.032869 
L 300.569878 283.032869 
L 300.569878 281.422619 
L 313.773762 281.422619 
L 313.773762 280.885869 
L 314.385995 280.885869 
L 314.385995 280.349119 
L 318.049134 280.349119 
L 318.049134 279.812369 
L 321.774134 279.812369 
L 321.79958 278.738868 
L 323.786484 278.738868 
L 323.786484 277.665368 
L 331.108028 277.665368 
L 331.108028 277.128618 
L 333.977714 277.128618 
L 333.977714 276.591868 
L 335.871456 276.591868 
L 335.871456 276.055118 
L 337.105415 276.055118 
L 337.105415 275.518367 
L 337.821705 275.518367 
L 337.821705 274.981617 
L 338.115131 274.981617 
L 338.115131 274.444867 
L 342.734271 274.444867 
L 342.734271 273.908117 
L 344.850475 273.908117 
L 344.850475 273.371367 
L 351.09089 273.371367 
L 351.178994 270.687616 
L 353.513834 270.687616 
L 353.513834 269.614116 
L 356.550882 269.614116 
L 356.550882 268.003865 
L 356.77136 268.003865 
L 356.77136 267.467115 
L 358.134185 267.467115 
L 358.134185 266.930365 
L 363.620194 266.930365 
L 363.620194 266.393615 
L 365.472272 266.393615 
L 365.472272 265.856865 
L 366.477379 265.856865 
L 366.477379 265.320115 
L 368.150757 265.320115 
L 368.150757 264.783365 
L 369.094024 264.783365 
L 369.094024 264.246614 
L 371.114169 264.246614 
L 371.114169 263.709864 
L 373.975567 263.709864 
L 373.975567 263.173114 
L 375.074402 263.173114 
L 375.074402 262.636364 
L 377.215771 262.636364 
L 377.215771 262.099614 
L 378.187415 262.099614 
L 378.187415 261.562864 
L 382.006539 261.562864 
L 382.006539 261.026113 
L 382.873798 261.026113 
L 382.873798 260.489363 
L 383.775193 260.489363 
L 383.775193 259.952613 
L 384.021843 259.952613 
L 384.021843 259.415863 
L 385.471862 259.415863 
L 385.471862 258.342363 
L 389.441542 258.342363 
L 389.441542 257.268862 
L 390.212768 257.268862 
L 390.212768 256.195362 
L 391.670874 256.195362 
L 391.670874 255.658612 
L 394.469199 255.658612 
L 394.469199 255.121862 
L 395.788005 255.121862 
L 395.788005 254.585112 
L 397.066371 254.585112 
L 397.066371 254.048362 
L 397.98063 254.048362 
L 397.98063 253.511611 
L 401.842954 253.511611 
L 401.842954 252.974861 
L 404.026408 252.974861 
L 404.026408 252.438111 
L 404.564471 252.438111 
L 404.564471 251.901361 
L 406.128115 251.901361 
L 406.128115 250.827861 
L 412.711451 250.827861 
L 412.711451 249.75436 
L 413.154549 249.75436 
L 413.154549 249.21761 
L 413.567655 249.21761 
L 413.567655 248.68086 
L 415.226348 248.68086 
L 415.226348 248.14411 
L 416.051487 248.14411 
L 416.051487 247.60736 
L 421.324557 247.60736 
L 421.324557 247.07061 
L 421.927928 247.07061 
L 421.927928 246.53386 
L 422.708526 246.53386 
L 422.708526 245.997109 
L 424.045837 245.997109 
L 424.045837 245.460359 
L 424.379543 245.460359 
L 424.379543 244.923609 
L 426.09888 244.923609 
L 426.09888 244.923609 
" style="fill:none;stroke:#000080;stroke-linecap:square;stroke-width:1.5;"/>
   </g>
   <g id="line2d_8">
    <defs>
     <path d="M 0 6 
C 1.591219 6 3.117479 5.367802 4.242641 4.242641 
C 5.367802 3.117479 6 1.591219 6 0 
C 6 -1.591219 5.367802 -3.117479 4.242641 -4.242641 
C 3.117479 -5.367802 1.591219 -6 0 -6 
C -1.591219 -6 -3.117479 -5.367802 -4.242641 -4.242641 
C -5.367802 -3.117479 -6 -1.591219 -6 0 
C -6 1.591219 -5.367802 3.117479 -4.242641 4.242641 
C -3.117479 5.367802 -1.591219 6 0 6 
z
" id="md548cacaed" style="stroke:#000080;stroke-width:1.5;"/>
    </defs>
    <g>
     <use style="fill:none;stroke:#000080;stroke-width:1.5;" x="42.0988795837" xlink:href="#md548cacaed" y="302.355874709"/>
     <use style="fill:none;stroke:#000080;stroke-width:1.5;" x="172.824751841" xlink:href="#md548cacaed" y="295.914872962"/>
     <use style="fill:none;stroke:#000080;stroke-width:1.5;" x="241.873636087" xlink:href="#md548cacaed" y="290.01062136"/>
     <use style="fill:none;stroke:#000080;stroke-width:1.5;" x="300.569878128" xlink:href="#md548cacaed" y="283.032869467"/>
     <use style="fill:none;stroke:#000080;stroke-width:1.5;" x="371.114169398" xlink:href="#md548cacaed" y="263.709864225"/>
     <use style="fill:none;stroke:#000080;stroke-width:1.5;" x="424.379542556" xlink:href="#md548cacaed" y="244.923609129"/>
     <use style="fill:none;stroke:#000080;stroke-width:1.5;" x="426.098879584" xlink:href="#md548cacaed" y="244.923609129"/>
    </g>
   </g>
   <g id="line2d_9"/>
   <g id="line2d_10">
    <path clip-path="url(#pace939a5c2)" d="M 309.147396 281.422619 
" style="fill:none;stroke:#000080;stroke-linecap:square;"/>
    <defs>
     <path d="M -12 12 
L 12 -12 
M -12 -12 
L 12 12 
" id="m16ac7b3d2e" style="stroke:#000080;stroke-width:3.0;"/>
    </defs>
    <g clip-path="url(#pace939a5c2)">
     <use style="fill:#000080;stroke:#000080;stroke-width:3.0;" x="309.14739555" xlink:href="#m16ac7b3d2e" y="281.42261903"/>
    </g>
   </g>
   <g id="line2d_11">
    <defs>
     <path d="M 0 1.5 
C 0.397805 1.5 0.77937 1.341951 1.06066 1.06066 
C 1.341951 0.77937 1.5 0.397805 1.5 0 
C 1.5 -0.397805 1.341951 -0.77937 1.06066 -1.06066 
C 0.77937 -1.341951 0.397805 -1.5 0 -1.5 
C -0.397805 -1.5 -0.77937 -1.341951 -1.06066 -1.06066 
C -1.341951 -0.77937 -1.5 -0.397805 -1.5 0 
C -1.5 0.397805 -1.341951 0.77937 -1.06066 1.06066 
C -0.77937 1.341951 -0.397805 1.5 0 1.5 
z
" id="mf47afe15f8" style="stroke:#ff00ff;stroke-width:0.5;"/>
    </defs>
    <g>
     <use style="fill:#ff00ff;stroke:#ff00ff;stroke-width:0.5;" x="443.351014617" xlink:href="#mf47afe15f8" y="260.489363352"/>
     <use style="fill:#ff00ff;stroke:#ff00ff;stroke-width:0.5;" x="443.351014617" xlink:href="#mf47afe15f8" y="260.489363352"/>
    </g>
   </g>
   <g id="line2d_12">
    <path d="M 13.2 303.429375 
L 13.2 302.892625 
L 42.09888 302.892625 
L 42.09888 302.355875 
L 94.329412 302.355875 
L 94.329412 301.282374 
L 104.807281 301.282374 
L 104.807281 299.135374 
L 109.2 299.135374 
L 109.2 298.061874 
L 120.138562 298.061874 
L 120.138562 297.525123 
L 123.228291 297.525123 
L 123.228291 296.988373 
L 143.925872 296.988373 
L 143.925872 296.451623 
L 147.402241 296.451623 
L 147.402241 295.914873 
L 153.590208 295.914873 
L 153.590208 294.841373 
L 169.031932 294.841373 
L 169.031932 294.304623 
L 182.489087 294.304623 
L 182.489087 293.231122 
L 189.729513 293.231122 
L 189.729513 292.694372 
L 191.50392 292.694372 
L 191.50392 292.157622 
L 198.424217 292.157622 
L 198.424217 291.620872 
L 223.739961 291.620872 
L 223.739961 291.084122 
L 224.795518 291.084122 
L 224.795518 290.547372 
L 251.965284 290.547372 
L 251.965284 290.010621 
L 267.629522 290.010621 
L 267.629522 289.473871 
L 276.802099 289.473871 
L 276.802099 288.400371 
L 279.553629 288.400371 
L 279.553629 286.25337 
L 292.156405 286.25337 
L 292.156405 285.71662 
L 294.473238 285.71662 
L 294.473238 285.17987 
L 308.206535 285.17987 
L 308.206535 284.64312 
L 308.276962 284.64312 
L 308.276962 284.10637 
L 308.836129 284.10637 
L 308.836129 283.56962 
L 313.89693 283.56962 
L 313.89693 281.422619 
L 321.390578 281.422619 
L 321.390578 280.885869 
L 323.907577 280.885869 
L 323.907577 280.349119 
L 324.958297 280.349119 
L 324.958297 279.275618 
L 325.028982 279.275618 
L 325.028982 278.738868 
L 325.75246 278.738868 
L 325.75246 278.202118 
L 330.65796 278.202118 
L 330.65796 276.591868 
L 336.016409 276.591868 
L 336.016409 276.055118 
L 337.017215 276.055118 
L 337.017215 275.518367 
L 337.368902 275.518367 
L 337.368902 274.981617 
L 338.525896 274.981617 
L 338.525896 273.371367 
L 339.932515 273.371367 
L 339.932515 271.761116 
L 345.590208 271.761116 
L 345.590208 271.224366 
L 354.755324 271.224366 
L 354.755324 270.687616 
L 362.771995 270.687616 
L 362.771995 270.150866 
L 366.599159 270.150866 
L 366.599159 269.614116 
L 367.322463 269.614116 
L 367.322463 269.077366 
L 370.699006 269.077366 
L 370.699006 268.540616 
L 376.179546 268.540616 
L 376.179546 268.003865 
L 380.695641 268.003865 
L 380.695641 267.467115 
L 383.225041 267.467115 
L 383.225041 266.930365 
L 383.711862 266.930365 
L 383.711862 266.393615 
L 386.020596 266.393615 
L 386.020596 265.856865 
L 393.190014 265.856865 
L 393.190014 265.320115 
L 406.871954 265.320115 
L 406.871954 264.783365 
L 408.508935 264.783365 
L 408.508935 263.709864 
L 422.828198 263.709864 
L 422.828198 263.173114 
L 426.09888 263.173114 
" style="fill:none;stroke:#ff00ff;stroke-linecap:square;stroke-width:1.5;"/>
   </g>
   <g id="line2d_13">
    <defs>
     <path d="M -0 8.485281 
L 5.091169 0 
L 0 -8.485281 
L -5.091169 -0 
z
" id="m88fcb121e6" style="stroke:#ff00ff;stroke-linejoin:miter;stroke-width:1.5;"/>
    </defs>
    <g>
     <use style="fill:none;stroke:#ff00ff;stroke-linejoin:miter;stroke-width:1.5;" x="42.0988795837" xlink:href="#m88fcb121e6" y="302.355874709"/>
     <use style="fill:none;stroke:#ff00ff;stroke-linejoin:miter;stroke-width:1.5;" x="123.228291425" xlink:href="#m88fcb121e6" y="296.988373253"/>
     <use style="fill:none;stroke:#ff00ff;stroke-linejoin:miter;stroke-width:1.5;" x="198.424216869" xlink:href="#m88fcb121e6" y="292.157621942"/>
     <use style="fill:none;stroke:#ff00ff;stroke-linejoin:miter;stroke-width:1.5;" x="279.55362871" xlink:href="#m88fcb121e6" y="286.253370341"/>
     <use style="fill:none;stroke:#ff00ff;stroke-linejoin:miter;stroke-width:1.5;" x="330.657959875" xlink:href="#m88fcb121e6" y="276.59186772"/>
     <use style="fill:none;stroke:#ff00ff;stroke-linejoin:miter;stroke-width:1.5;" x="393.190014162" xlink:href="#m88fcb121e6" y="265.320114662"/>
     <use style="fill:none;stroke:#ff00ff;stroke-linejoin:miter;stroke-width:1.5;" x="426.098879584" xlink:href="#m88fcb121e6" y="263.17311408"/>
    </g>
   </g>
   <g id="line2d_14"/>
   <g id="line2d_15">
    <path clip-path="url(#pace939a5c2)" d="M 307.959103 285.17987 
" style="fill:none;stroke:#ff00ff;stroke-linecap:square;"/>
    <defs>
     <path d="M -12 12 
L 12 -12 
M -12 -12 
L 12 12 
" id="m37bbf6fecd" style="stroke:#ff00ff;stroke-width:3.0;"/>
    </defs>
    <g clip-path="url(#pace939a5c2)">
     <use style="fill:#ff00ff;stroke:#ff00ff;stroke-width:3.0;" x="307.959102887" xlink:href="#m37bbf6fecd" y="285.17987005"/>
    </g>
   </g>
   <g id="line2d_16">
    <defs>
     <path d="M 0 1.5 
C 0.397805 1.5 0.77937 1.341951 1.06066 1.06066 
C 1.341951 0.77937 1.5 0.397805 1.5 0 
C 1.5 -0.397805 1.341951 -0.77937 1.06066 -1.06066 
C 0.77937 -1.341951 0.397805 -1.5 0 -1.5 
C -0.397805 -1.5 -0.77937 -1.341951 -1.06066 -1.06066 
C -1.341951 -0.77937 -1.5 -0.397805 -1.5 0 
C -1.5 0.397805 -1.341951 0.77937 -1.06066 1.06066 
C -0.77937 1.341951 -0.397805 1.5 0 1.5 
z
" id="m83f9f6ceae" style="stroke:#ffa500;stroke-width:0.5;"/>
    </defs>
    <g>
     <use style="fill:#ffa500;stroke:#ffa500;stroke-width:0.5;" x="475.089962981" xlink:href="#m83f9f6ceae" y="239.019357528"/>
     <use style="fill:#ffa500;stroke:#ffa500;stroke-width:0.5;" x="475.089962981" xlink:href="#m83f9f6ceae" y="239.019357528"/>
    </g>
   </g>
   <g id="line2d_17">
    <path d="M 13.2 303.429375 
L 13.2 302.355875 
L 70.997759 302.355875 
L 70.997759 300.745624 
L 87.90252 300.745624 
L 87.90252 300.208874 
L 99.896639 300.208874 
L 99.896639 299.672124 
L 104.807281 299.672124 
L 104.807281 298.061874 
L 113.173698 298.061874 
L 113.173698 297.525123 
L 147.402241 297.525123 
L 147.402241 296.988373 
L 183.201793 296.988373 
L 183.201793 296.451623 
L 191.50392 296.451623 
L 191.50392 295.914873 
L 196.414562 295.914873 
L 196.414562 294.841373 
L 200.807281 294.841373 
L 200.807281 294.304623 
L 214.503361 294.304623 
L 214.503361 292.694372 
L 222.656984 292.694372 
L 222.656984 292.157622 
L 224.795518 292.157622 
L 224.795518 291.084122 
L 228.531653 291.084122 
L 228.531653 290.547372 
L 231.960346 290.547372 
L 231.960346 289.473871 
L 240.286847 289.473871 
L 240.286847 288.937121 
L 260.859225 288.937121 
L 260.859225 288.400371 
L 275.740784 288.400371 
L 275.740784 287.863621 
L 280.317372 287.863621 
L 280.317372 287.326871 
L 282.462785 287.326871 
L 282.462785 285.71662 
L 284.065299 285.71662 
L 284.065299 285.17987 
L 286.920801 285.17987 
L 286.920801 284.64312 
L 295.249833 284.64312 
L 295.249833 284.10637 
L 300.229878 284.10637 
L 300.229878 283.032869 
L 301.241671 283.032869 
L 301.241671 282.496119 
L 302.188796 282.496119 
L 302.188796 281.422619 
L 302.432374 281.422619 
L 302.432374 280.885869 
L 302.915301 280.885869 
L 302.915301 280.349119 
L 306.881723 280.349119 
L 306.881723 279.275618 
L 307.852609 279.275618 
L 307.852609 278.738868 
L 309.043898 278.738868 
L 309.043898 278.202118 
L 309.661065 278.202118 
L 309.661065 277.665368 
L 313.773762 277.665368 
L 313.773762 277.128618 
L 314.477059 277.128618 
L 314.477059 276.591868 
L 318.711807 276.591868 
L 318.711807 276.055118 
L 320.27108 276.055118 
L 320.27108 275.518367 
L 325.844904 275.518367 
L 325.844904 274.981617 
L 326.91604 274.981617 
L 326.91604 274.444867 
L 327.140434 274.444867 
L 327.140434 273.908117 
L 328.893389 273.908117 
L 328.893389 273.371367 
L 332.488892 273.371367 
L 332.488892 272.834617 
L 334.637267 272.834617 
L 334.637267 271.761116 
L 337.228583 271.761116 
L 337.228583 271.224366 
L 337.368902 271.224366 
L 337.368902 270.687616 
L 337.821705 270.687616 
L 337.821705 269.614116 
L 338.132327 269.614116 
L 338.132327 269.077366 
L 338.932653 269.077366 
L 338.932653 268.540616 
L 346.373519 268.540616 
L 346.373519 268.003865 
L 347.63807 268.003865 
L 347.63807 267.467115 
L 352.588236 267.467115 
L 352.588236 266.930365 
L 354.349472 266.930365 
L 354.349472 265.856865 
L 356.329232 265.856865 
L 356.329232 264.783365 
L 356.749364 264.783365 
L 356.749364 263.709864 
L 365.095775 263.709864 
L 365.095775 263.173114 
L 366.433799 263.173114 
L 366.433799 262.099614 
L 369.306199 262.099614 
L 369.306199 261.562864 
L 373.285816 261.562864 
L 373.285816 261.026113 
L 374.582431 261.026113 
L 374.582431 260.489363 
L 375.67258 260.489363 
L 375.770285 258.879113 
L 375.951133 258.879113 
L 375.951133 258.342363 
L 382.507711 258.342363 
L 382.507711 257.805613 
L 383.312391 257.805613 
L 383.376332 256.732112 
L 385.328 256.732112 
L 385.328 256.195362 
L 388.078645 256.195362 
L 388.078645 255.658612 
L 389.821474 255.658612 
L 389.836401 254.585112 
L 400.281092 254.585112 
L 400.304319 253.511611 
L 401.633558 253.511611 
L 401.633558 252.974861 
L 408.180233 252.974861 
L 408.180233 252.438111 
L 413.324814 252.438111 
L 413.324814 251.901361 
L 415.651673 251.901361 
L 415.667739 250.291111 
L 418.747715 250.291111 
L 418.782512 249.21761 
L 419.621231 249.21761 
L 419.621231 248.68086 
L 421.270759 248.68086 
L 421.310529 247.60736 
L 421.629655 247.60736 
L 421.662129 246.53386 
L 423.988862 246.53386 
L 423.988862 245.997109 
L 425.090334 245.997109 
L 425.090334 245.460359 
L 426.09888 245.460359 
L 426.09888 245.460359 
" style="fill:none;stroke:#ffa500;stroke-linecap:square;stroke-width:1.5;"/>
   </g>
   <g id="line2d_18">
    <defs>
     <path d="M 0 -6 
L -1.347084 -1.854102 
L -5.706339 -1.854102 
L -2.179628 0.708204 
L -3.526712 4.854102 
L -0 2.291796 
L 3.526712 4.854102 
L 2.179628 0.708204 
L 5.706339 -1.854102 
L 1.347084 -1.854102 
z
" id="mcd5dcb8932" style="stroke:#ffa500;stroke-linejoin:bevel;stroke-width:1.5;"/>
    </defs>
    <g>
     <use style="fill:none;stroke:#ffa500;stroke-linejoin:bevel;stroke-width:1.5;" x="13.2" xlink:href="#mcd5dcb8932" y="302.355874709"/>
     <use style="fill:none;stroke:#ffa500;stroke-linejoin:bevel;stroke-width:1.5;" x="113.173697775" xlink:href="#mcd5dcb8932" y="297.525123398"/>
     <use style="fill:none;stroke:#ffa500;stroke-linejoin:bevel;stroke-width:1.5;" x="200.807280906" xlink:href="#mcd5dcb8932" y="294.84137267"/>
     <use style="fill:none;stroke:#ffa500;stroke-linejoin:bevel;stroke-width:1.5;" x="260.859225275" xlink:href="#mcd5dcb8932" y="288.400370923"/>
     <use style="fill:none;stroke:#ffa500;stroke-linejoin:bevel;stroke-width:1.5;" x="332.488891754" xlink:href="#mcd5dcb8932" y="272.834616701"/>
     <use style="fill:none;stroke:#ffa500;stroke-linejoin:bevel;stroke-width:1.5;" x="401.633557511" xlink:href="#mcd5dcb8932" y="253.511611459"/>
     <use style="fill:none;stroke:#ffa500;stroke-linejoin:bevel;stroke-width:1.5;" x="426.098879584" xlink:href="#mcd5dcb8932" y="245.460359275"/>
    </g>
   </g>
   <g id="line2d_19"/>
   <g id="line2d_20">
    <path clip-path="url(#pace939a5c2)" d="M 308.8014 278.738868 
" style="fill:none;stroke:#ffa500;stroke-linecap:square;"/>
    <defs>
     <path d="M -12 12 
L 12 -12 
M -12 -12 
L 12 12 
" id="mdf6e23660c" style="stroke:#ffa500;stroke-width:3.0;"/>
    </defs>
    <g clip-path="url(#pace939a5c2)">
     <use style="fill:#ffa500;stroke:#ffa500;stroke-width:3.0;" x="308.801399621" xlink:href="#mdf6e23660c" y="278.738868302"/>
    </g>
   </g>
   <g id="line2d_21">
    <path d="M 426.09888 263.173114 
L 457.77888 297.954524 
" style="fill:none;stroke:#ff00ff;stroke-linecap:square;stroke-width:1.5;"/>
    <g>
     <use style="fill:none;stroke:#ff00ff;stroke-linejoin:miter;stroke-width:1.5;" x="426.098879584" xlink:href="#m88fcb121e6" y="263.17311408"/>
     <use style="fill:none;stroke:#ff00ff;stroke-linejoin:miter;stroke-width:1.5;" x="457.778879584" xlink:href="#m88fcb121e6" y="297.954523515"/>
    </g>
   </g>
   <g id="line2d_22">
    <path d="M 426.09888 245.460359 
L 457.77888 210.3569 
" style="fill:none;stroke:#ffa500;stroke-linecap:square;stroke-width:1.5;"/>
    <g>
     <use style="fill:none;stroke:#ffa500;stroke-linejoin:bevel;stroke-width:1.5;" x="426.098879584" xlink:href="#mcd5dcb8932" y="245.460359275"/>
     <use style="fill:none;stroke:#ffa500;stroke-linejoin:bevel;stroke-width:1.5;" x="457.778879584" xlink:href="#mcd5dcb8932" y="210.356899752"/>
    </g>
   </g>
   <g id="line2d_23">
    <path d="M 426.09888 244.923609 
L 457.77888 122.759276 
" style="fill:none;stroke:#000080;stroke-linecap:square;stroke-width:1.5;"/>
    <g>
     <use style="fill:none;stroke:#000080;stroke-width:1.5;" x="426.098879584" xlink:href="#md548cacaed" y="244.923609129"/>
     <use style="fill:none;stroke:#000080;stroke-width:1.5;" x="457.778879584" xlink:href="#md548cacaed" y="122.75927599"/>
    </g>
   </g>
   <g id="line2d_24">
    <path d="M 426.09888 303.429375 
L 426.09888 29.686801 
" style="fill:none;stroke:#000000;stroke-linecap:square;"/>
   </g>
   <g id="patch_3">
    <path d="M 138.09888 26.949375 
L 495.21888 26.949375 
" style="fill:none;stroke:#000000;stroke-linecap:square;stroke-linejoin:miter;"/>
   </g>
   <g id="patch_4">
    <path d="M 495.21888 303.429375 
L 495.21888 26.949375 
" style="fill:none;stroke:#000000;stroke-linecap:square;stroke-linejoin:miter;"/>
   </g>
   <g id="patch_5">
    <path d="M 138.09888 303.429375 
L 495.21888 303.429375 
" style="fill:none;stroke:#000000;stroke-linecap:square;stroke-linejoin:miter;"/>
   </g>
   <g id="patch_6">
    <path d="M 138.09888 303.429375 
L 138.09888 26.949375 
" style="fill:none;stroke:#000000;stroke-linecap:square;stroke-linejoin:miter;"/>
   </g>
   <g id="matplotlib.axis_1">
    <g id="xtick_1">
     <g id="line2d_25">
      <path clip-path="url(#pace939a5c2)" d="M 138.09888 303.429375 
L 138.09888 26.949375 
" style="fill:none;stroke:#000000;stroke-dasharray:1.000000,3.000000;stroke-dashoffset:0.0;stroke-width:0.5;"/>
     </g>
     <g id="line2d_26">
      <defs>
       <path d="M 0 0 
L 0 -4 
" id="m7ed175f9bd" style="stroke:#000000;stroke-width:0.5;"/>
      </defs>
      <g>
       <use style="stroke:#000000;stroke-width:0.5;" x="138.098879584" xlink:href="#m7ed175f9bd" y="303.429375"/>
      </g>
     </g>
     <g id="line2d_27">
      <defs>
       <path d="M 0 0 
L 0 4 
" id="m595a5db0f8" style="stroke:#000000;stroke-width:0.5;"/>
      </defs>
      <g>
       <use style="stroke:#000000;stroke-width:0.5;" x="138.098879584" xlink:href="#m595a5db0f8" y="26.949375"/>
      </g>
     </g>
     <g id="text_1">
      <!-- 0 -->
      <defs>
       <path d="M 31.78125 66.40625 
Q 24.171875 66.40625 20.328125 58.90625 
Q 16.5 51.421875 16.5 36.375 
Q 16.5 21.390625 20.328125 13.890625 
Q 24.171875 6.390625 31.78125 6.390625 
Q 39.453125 6.390625 43.28125 13.890625 
Q 47.125 21.390625 47.125 36.375 
Q 47.125 51.421875 43.28125 58.90625 
Q 39.453125 66.40625 31.78125 66.40625 
M 31.78125 74.21875 
Q 44.046875 74.21875 50.515625 64.515625 
Q 56.984375 54.828125 56.984375 36.375 
Q 56.984375 17.96875 50.515625 8.265625 
Q 44.046875 -1.421875 31.78125 -1.421875 
Q 19.53125 -1.421875 13.0625 8.265625 
Q 6.59375 17.96875 6.59375 36.375 
Q 6.59375 54.828125 13.0625 64.515625 
Q 19.53125 74.21875 31.78125 74.21875 
" id="BitstreamVeraSans-Roman-30"/>
      </defs>
      <g transform="translate(131.736379584 322.62625)scale(0.2 -0.2)">
       <use xlink:href="#BitstreamVeraSans-Roman-30"/>
      </g>
     </g>
    </g>
    <g id="xtick_2">
     <g id="line2d_28">
      <path clip-path="url(#pace939a5c2)" d="M 234.09888 303.429375 
L 234.09888 26.949375 
" style="fill:none;stroke:#000000;stroke-dasharray:1.000000,3.000000;stroke-dashoffset:0.0;stroke-width:0.5;"/>
     </g>
     <g id="line2d_29">
      <g>
       <use style="stroke:#000000;stroke-width:0.5;" x="234.098879584" xlink:href="#m7ed175f9bd" y="303.429375"/>
      </g>
     </g>
     <g id="line2d_30">
      <g>
       <use style="stroke:#000000;stroke-width:0.5;" x="234.098879584" xlink:href="#m595a5db0f8" y="26.949375"/>
      </g>
     </g>
     <g id="text_2">
      <!-- 1 -->
      <defs>
       <path d="M 12.40625 8.296875 
L 28.515625 8.296875 
L 28.515625 63.921875 
L 10.984375 60.40625 
L 10.984375 69.390625 
L 28.421875 72.90625 
L 38.28125 72.90625 
L 38.28125 8.296875 
L 54.390625 8.296875 
L 54.390625 0 
L 12.40625 0 
z
" id="BitstreamVeraSans-Roman-31"/>
      </defs>
      <g transform="translate(227.736379584 322.62625)scale(0.2 -0.2)">
       <use xlink:href="#BitstreamVeraSans-Roman-31"/>
      </g>
     </g>
    </g>
    <g id="xtick_3">
     <g id="line2d_31">
      <path clip-path="url(#pace939a5c2)" d="M 330.09888 303.429375 
L 330.09888 26.949375 
" style="fill:none;stroke:#000000;stroke-dasharray:1.000000,3.000000;stroke-dashoffset:0.0;stroke-width:0.5;"/>
     </g>
     <g id="line2d_32">
      <g>
       <use style="stroke:#000000;stroke-width:0.5;" x="330.098879584" xlink:href="#m7ed175f9bd" y="303.429375"/>
      </g>
     </g>
     <g id="line2d_33">
      <g>
       <use style="stroke:#000000;stroke-width:0.5;" x="330.098879584" xlink:href="#m595a5db0f8" y="26.949375"/>
      </g>
     </g>
     <g id="text_3">
      <!-- 2 -->
      <defs>
       <path d="M 19.1875 8.296875 
L 53.609375 8.296875 
L 53.609375 0 
L 7.328125 0 
L 7.328125 8.296875 
Q 12.9375 14.109375 22.625 23.890625 
Q 32.328125 33.6875 34.8125 36.53125 
Q 39.546875 41.84375 41.421875 45.53125 
Q 43.3125 49.21875 43.3125 52.78125 
Q 43.3125 58.59375 39.234375 62.25 
Q 35.15625 65.921875 28.609375 65.921875 
Q 23.96875 65.921875 18.8125 64.3125 
Q 13.671875 62.703125 7.8125 59.421875 
L 7.8125 69.390625 
Q 13.765625 71.78125 18.9375 73 
Q 24.125 74.21875 28.421875 74.21875 
Q 39.75 74.21875 46.484375 68.546875 
Q 53.21875 62.890625 53.21875 53.421875 
Q 53.21875 48.921875 51.53125 44.890625 
Q 49.859375 40.875 45.40625 35.40625 
Q 44.1875 33.984375 37.640625 27.21875 
Q 31.109375 20.453125 19.1875 8.296875 
" id="BitstreamVeraSans-Roman-32"/>
      </defs>
      <g transform="translate(323.736379584 322.62625)scale(0.2 -0.2)">
       <use xlink:href="#BitstreamVeraSans-Roman-32"/>
      </g>
     </g>
    </g>
    <g id="xtick_4">
     <g id="line2d_34">
      <path clip-path="url(#pace939a5c2)" d="M 426.09888 303.429375 
L 426.09888 26.949375 
" style="fill:none;stroke:#000000;stroke-dasharray:1.000000,3.000000;stroke-dashoffset:0.0;stroke-width:0.5;"/>
     </g>
     <g id="line2d_35">
      <g>
       <use style="stroke:#000000;stroke-width:0.5;" x="426.098879584" xlink:href="#m7ed175f9bd" y="303.429375"/>
      </g>
     </g>
     <g id="line2d_36">
      <g>
       <use style="stroke:#000000;stroke-width:0.5;" x="426.098879584" xlink:href="#m595a5db0f8" y="26.949375"/>
      </g>
     </g>
     <g id="text_4">
      <!-- 3 -->
      <defs>
       <path d="M 40.578125 39.3125 
Q 47.65625 37.796875 51.625 33 
Q 55.609375 28.21875 55.609375 21.1875 
Q 55.609375 10.40625 48.1875 4.484375 
Q 40.765625 -1.421875 27.09375 -1.421875 
Q 22.515625 -1.421875 17.65625 -0.515625 
Q 12.796875 0.390625 7.625 2.203125 
L 7.625 11.71875 
Q 11.71875 9.328125 16.59375 8.109375 
Q 21.484375 6.890625 26.8125 6.890625 
Q 36.078125 6.890625 40.9375 10.546875 
Q 45.796875 14.203125 45.796875 21.1875 
Q 45.796875 27.640625 41.28125 31.265625 
Q 36.765625 34.90625 28.71875 34.90625 
L 20.21875 34.90625 
L 20.21875 43.015625 
L 29.109375 43.015625 
Q 36.375 43.015625 40.234375 45.921875 
Q 44.09375 48.828125 44.09375 54.296875 
Q 44.09375 59.90625 40.109375 62.90625 
Q 36.140625 65.921875 28.71875 65.921875 
Q 24.65625 65.921875 20.015625 65.03125 
Q 15.375 64.15625 9.8125 62.3125 
L 9.8125 71.09375 
Q 15.4375 72.65625 20.34375 73.4375 
Q 25.25 74.21875 29.59375 74.21875 
Q 40.828125 74.21875 47.359375 69.109375 
Q 53.90625 64.015625 53.90625 55.328125 
Q 53.90625 49.265625 50.4375 45.09375 
Q 46.96875 40.921875 40.578125 39.3125 
" id="BitstreamVeraSans-Roman-33"/>
      </defs>
      <g transform="translate(419.736379584 322.62625)scale(0.2 -0.2)">
       <use xlink:href="#BitstreamVeraSans-Roman-33"/>
      </g>
     </g>
    </g>
    <g id="xtick_5">
     <g id="line2d_37">
      <defs>
       <path d="M 0 0 
L 0 -2 
" id="m20ad77273e" style="stroke:#000000;stroke-width:0.5;"/>
      </defs>
      <g>
       <use style="stroke:#000000;stroke-width:0.5;" x="166.997759167" xlink:href="#m20ad77273e" y="303.429375"/>
      </g>
     </g>
     <g id="line2d_38">
      <defs>
       <path d="M 0 0 
L 0 2 
" id="m9ca1b0067e" style="stroke:#000000;stroke-width:0.5;"/>
      </defs>
      <g>
       <use style="stroke:#000000;stroke-width:0.5;" x="166.997759167" xlink:href="#m9ca1b0067e" y="26.949375"/>
      </g>
     </g>
    </g>
    <g id="xtick_6">
     <g id="line2d_39">
      <g>
       <use style="stroke:#000000;stroke-width:0.5;" x="183.902520037" xlink:href="#m20ad77273e" y="303.429375"/>
      </g>
     </g>
     <g id="line2d_40">
      <g>
       <use style="stroke:#000000;stroke-width:0.5;" x="183.902520037" xlink:href="#m9ca1b0067e" y="26.949375"/>
      </g>
     </g>
    </g>
    <g id="xtick_7">
     <g id="line2d_41">
      <g>
       <use style="stroke:#000000;stroke-width:0.5;" x="195.896638751" xlink:href="#m20ad77273e" y="303.429375"/>
      </g>
     </g>
     <g id="line2d_42">
      <g>
       <use style="stroke:#000000;stroke-width:0.5;" x="195.896638751" xlink:href="#m9ca1b0067e" y="26.949375"/>
      </g>
     </g>
    </g>
    <g id="xtick_8">
     <g id="line2d_43">
      <g>
       <use style="stroke:#000000;stroke-width:0.5;" x="205.2" xlink:href="#m20ad77273e" y="303.429375"/>
      </g>
     </g>
     <g id="line2d_44">
      <g>
       <use style="stroke:#000000;stroke-width:0.5;" x="205.2" xlink:href="#m9ca1b0067e" y="26.949375"/>
      </g>
     </g>
    </g>
    <g id="xtick_9">
     <g id="line2d_45">
      <g>
       <use style="stroke:#000000;stroke-width:0.5;" x="212.801399621" xlink:href="#m20ad77273e" y="303.429375"/>
      </g>
     </g>
     <g id="line2d_46">
      <g>
       <use style="stroke:#000000;stroke-width:0.5;" x="212.801399621" xlink:href="#m9ca1b0067e" y="26.949375"/>
      </g>
     </g>
    </g>
    <g id="xtick_10">
     <g id="line2d_47">
      <g>
       <use style="stroke:#000000;stroke-width:0.5;" x="219.228291425" xlink:href="#m20ad77273e" y="303.429375"/>
      </g>
     </g>
     <g id="line2d_48">
      <g>
       <use style="stroke:#000000;stroke-width:0.5;" x="219.228291425" xlink:href="#m9ca1b0067e" y="26.949375"/>
      </g>
     </g>
    </g>
    <g id="xtick_11">
     <g id="line2d_49">
      <g>
       <use style="stroke:#000000;stroke-width:0.5;" x="224.795518335" xlink:href="#m20ad77273e" y="303.429375"/>
      </g>
     </g>
     <g id="line2d_50">
      <g>
       <use style="stroke:#000000;stroke-width:0.5;" x="224.795518335" xlink:href="#m9ca1b0067e" y="26.949375"/>
      </g>
     </g>
    </g>
    <g id="xtick_12">
     <g id="line2d_51">
      <g>
       <use style="stroke:#000000;stroke-width:0.5;" x="229.70616049" xlink:href="#m20ad77273e" y="303.429375"/>
      </g>
     </g>
     <g id="line2d_52">
      <g>
       <use style="stroke:#000000;stroke-width:0.5;" x="229.70616049" xlink:href="#m9ca1b0067e" y="26.949375"/>
      </g>
     </g>
    </g>
    <g id="xtick_13">
     <g id="line2d_53">
      <g>
       <use style="stroke:#000000;stroke-width:0.5;" x="262.997759167" xlink:href="#m20ad77273e" y="303.429375"/>
      </g>
     </g>
     <g id="line2d_54">
      <g>
       <use style="stroke:#000000;stroke-width:0.5;" x="262.997759167" xlink:href="#m9ca1b0067e" y="26.949375"/>
      </g>
     </g>
    </g>
    <g id="xtick_14">
     <g id="line2d_55">
      <g>
       <use style="stroke:#000000;stroke-width:0.5;" x="279.902520037" xlink:href="#m20ad77273e" y="303.429375"/>
      </g>
     </g>
     <g id="line2d_56">
      <g>
       <use style="stroke:#000000;stroke-width:0.5;" x="279.902520037" xlink:href="#m9ca1b0067e" y="26.949375"/>
      </g>
     </g>
    </g>
    <g id="xtick_15">
     <g id="line2d_57">
      <g>
       <use style="stroke:#000000;stroke-width:0.5;" x="291.896638751" xlink:href="#m20ad77273e" y="303.429375"/>
      </g>
     </g>
     <g id="line2d_58">
      <g>
       <use style="stroke:#000000;stroke-width:0.5;" x="291.896638751" xlink:href="#m9ca1b0067e" y="26.949375"/>
      </g>
     </g>
    </g>
    <g id="xtick_16">
     <g id="line2d_59">
      <g>
       <use style="stroke:#000000;stroke-width:0.5;" x="301.2" xlink:href="#m20ad77273e" y="303.429375"/>
      </g>
     </g>
     <g id="line2d_60">
      <g>
       <use style="stroke:#000000;stroke-width:0.5;" x="301.2" xlink:href="#m9ca1b0067e" y="26.949375"/>
      </g>
     </g>
    </g>
    <g id="xtick_17">
     <g id="line2d_61">
      <g>
       <use style="stroke:#000000;stroke-width:0.5;" x="308.801399621" xlink:href="#m20ad77273e" y="303.429375"/>
      </g>
     </g>
     <g id="line2d_62">
      <g>
       <use style="stroke:#000000;stroke-width:0.5;" x="308.801399621" xlink:href="#m9ca1b0067e" y="26.949375"/>
      </g>
     </g>
    </g>
    <g id="xtick_18">
     <g id="line2d_63">
      <g>
       <use style="stroke:#000000;stroke-width:0.5;" x="315.228291425" xlink:href="#m20ad77273e" y="303.429375"/>
      </g>
     </g>
     <g id="line2d_64">
      <g>
       <use style="stroke:#000000;stroke-width:0.5;" x="315.228291425" xlink:href="#m9ca1b0067e" y="26.949375"/>
      </g>
     </g>
    </g>
    <g id="xtick_19">
     <g id="line2d_65">
      <g>
       <use style="stroke:#000000;stroke-width:0.5;" x="320.795518335" xlink:href="#m20ad77273e" y="303.429375"/>
      </g>
     </g>
     <g id="line2d_66">
      <g>
       <use style="stroke:#000000;stroke-width:0.5;" x="320.795518335" xlink:href="#m9ca1b0067e" y="26.949375"/>
      </g>
     </g>
    </g>
    <g id="xtick_20">
     <g id="line2d_67">
      <g>
       <use style="stroke:#000000;stroke-width:0.5;" x="325.70616049" xlink:href="#m20ad77273e" y="303.429375"/>
      </g>
     </g>
     <g id="line2d_68">
      <g>
       <use style="stroke:#000000;stroke-width:0.5;" x="325.70616049" xlink:href="#m9ca1b0067e" y="26.949375"/>
      </g>
     </g>
    </g>
    <g id="xtick_21">
     <g id="line2d_69">
      <g>
       <use style="stroke:#000000;stroke-width:0.5;" x="358.997759167" xlink:href="#m20ad77273e" y="303.429375"/>
      </g>
     </g>
     <g id="line2d_70">
      <g>
       <use style="stroke:#000000;stroke-width:0.5;" x="358.997759167" xlink:href="#m9ca1b0067e" y="26.949375"/>
      </g>
     </g>
    </g>
    <g id="xtick_22">
     <g id="line2d_71">
      <g>
       <use style="stroke:#000000;stroke-width:0.5;" x="375.902520037" xlink:href="#m20ad77273e" y="303.429375"/>
      </g>
     </g>
     <g id="line2d_72">
      <g>
       <use style="stroke:#000000;stroke-width:0.5;" x="375.902520037" xlink:href="#m9ca1b0067e" y="26.949375"/>
      </g>
     </g>
    </g>
    <g id="xtick_23">
     <g id="line2d_73">
      <g>
       <use style="stroke:#000000;stroke-width:0.5;" x="387.896638751" xlink:href="#m20ad77273e" y="303.429375"/>
      </g>
     </g>
     <g id="line2d_74">
      <g>
       <use style="stroke:#000000;stroke-width:0.5;" x="387.896638751" xlink:href="#m9ca1b0067e" y="26.949375"/>
      </g>
     </g>
    </g>
    <g id="xtick_24">
     <g id="line2d_75">
      <g>
       <use style="stroke:#000000;stroke-width:0.5;" x="397.2" xlink:href="#m20ad77273e" y="303.429375"/>
      </g>
     </g>
     <g id="line2d_76">
      <g>
       <use style="stroke:#000000;stroke-width:0.5;" x="397.2" xlink:href="#m9ca1b0067e" y="26.949375"/>
      </g>
     </g>
    </g>
    <g id="xtick_25">
     <g id="line2d_77">
      <g>
       <use style="stroke:#000000;stroke-width:0.5;" x="404.801399621" xlink:href="#m20ad77273e" y="303.429375"/>
      </g>
     </g>
     <g id="line2d_78">
      <g>
       <use style="stroke:#000000;stroke-width:0.5;" x="404.801399621" xlink:href="#m9ca1b0067e" y="26.949375"/>
      </g>
     </g>
    </g>
    <g id="xtick_26">
     <g id="line2d_79">
      <g>
       <use style="stroke:#000000;stroke-width:0.5;" x="411.228291425" xlink:href="#m20ad77273e" y="303.429375"/>
      </g>
     </g>
     <g id="line2d_80">
      <g>
       <use style="stroke:#000000;stroke-width:0.5;" x="411.228291425" xlink:href="#m9ca1b0067e" y="26.949375"/>
      </g>
     </g>
    </g>
    <g id="xtick_27">
     <g id="line2d_81">
      <g>
       <use style="stroke:#000000;stroke-width:0.5;" x="416.795518335" xlink:href="#m20ad77273e" y="303.429375"/>
      </g>
     </g>
     <g id="line2d_82">
      <g>
       <use style="stroke:#000000;stroke-width:0.5;" x="416.795518335" xlink:href="#m9ca1b0067e" y="26.949375"/>
      </g>
     </g>
    </g>
    <g id="xtick_28">
     <g id="line2d_83">
      <g>
       <use style="stroke:#000000;stroke-width:0.5;" x="421.70616049" xlink:href="#m20ad77273e" y="303.429375"/>
      </g>
     </g>
     <g id="line2d_84">
      <g>
       <use style="stroke:#000000;stroke-width:0.5;" x="421.70616049" xlink:href="#m9ca1b0067e" y="26.949375"/>
      </g>
     </g>
    </g>
    <g id="xtick_29">
     <g id="line2d_85">
      <g>
       <use style="stroke:#000000;stroke-width:0.5;" x="454.997759167" xlink:href="#m20ad77273e" y="303.429375"/>
      </g>
     </g>
     <g id="line2d_86">
      <g>
       <use style="stroke:#000000;stroke-width:0.5;" x="454.997759167" xlink:href="#m9ca1b0067e" y="26.949375"/>
      </g>
     </g>
    </g>
    <g id="xtick_30">
     <g id="line2d_87">
      <g>
       <use style="stroke:#000000;stroke-width:0.5;" x="471.902520037" xlink:href="#m20ad77273e" y="303.429375"/>
      </g>
     </g>
     <g id="line2d_88">
      <g>
       <use style="stroke:#000000;stroke-width:0.5;" x="471.902520037" xlink:href="#m9ca1b0067e" y="26.949375"/>
      </g>
     </g>
    </g>
    <g id="xtick_31">
     <g id="line2d_89">
      <g>
       <use style="stroke:#000000;stroke-width:0.5;" x="483.896638751" xlink:href="#m20ad77273e" y="303.429375"/>
      </g>
     </g>
     <g id="line2d_90">
      <g>
       <use style="stroke:#000000;stroke-width:0.5;" x="483.896638751" xlink:href="#m9ca1b0067e" y="26.949375"/>
      </g>
     </g>
    </g>
    <g id="xtick_32">
     <g id="line2d_91">
      <g>
       <use style="stroke:#000000;stroke-width:0.5;" x="493.2" xlink:href="#m20ad77273e" y="303.429375"/>
      </g>
     </g>
     <g id="line2d_92">
      <g>
       <use style="stroke:#000000;stroke-width:0.5;" x="493.2" xlink:href="#m9ca1b0067e" y="26.949375"/>
      </g>
     </g>
    </g>
    <g id="text_5">
     <!-- log10 of (# f-evals / dimension) -->
     <defs>
      <path id="BitstreamVeraSans-Roman-20"/>
      <path d="M 51.125 44 
L 36.921875 44 
L 32.8125 27.6875 
L 47.125 27.6875 
z
M 43.796875 71.78125 
L 38.71875 51.515625 
L 52.984375 51.515625 
L 58.109375 71.78125 
L 65.921875 71.78125 
L 60.890625 51.515625 
L 76.125 51.515625 
L 76.125 44 
L 58.984375 44 
L 54.984375 27.6875 
L 70.515625 27.6875 
L 70.515625 20.21875 
L 53.078125 20.21875 
L 48 0 
L 40.1875 0 
L 45.21875 20.21875 
L 30.90625 20.21875 
L 25.875 0 
L 18.015625 0 
L 23.09375 20.21875 
L 7.71875 20.21875 
L 7.71875 27.6875 
L 24.90625 27.6875 
L 29 44 
L 13.28125 44 
L 13.28125 51.515625 
L 30.90625 51.515625 
L 35.890625 71.78125 
z
" id="BitstreamVeraSans-Roman-23"/>
      <path d="M 52 44.1875 
Q 55.375 50.25 60.0625 53.125 
Q 64.75 56 71.09375 56 
Q 79.640625 56 84.28125 50.015625 
Q 88.921875 44.046875 88.921875 33.015625 
L 88.921875 0 
L 79.890625 0 
L 79.890625 32.71875 
Q 79.890625 40.578125 77.09375 44.375 
Q 74.3125 48.1875 68.609375 48.1875 
Q 61.625 48.1875 57.5625 43.546875 
Q 53.515625 38.921875 53.515625 30.90625 
L 53.515625 0 
L 44.484375 0 
L 44.484375 32.71875 
Q 44.484375 40.625 41.703125 44.40625 
Q 38.921875 48.1875 33.109375 48.1875 
Q 26.21875 48.1875 22.15625 43.53125 
Q 18.109375 38.875 18.109375 30.90625 
L 18.109375 0 
L 9.078125 0 
L 9.078125 54.6875 
L 18.109375 54.6875 
L 18.109375 46.1875 
Q 21.1875 51.21875 25.484375 53.609375 
Q 29.78125 56 35.6875 56 
Q 41.65625 56 45.828125 52.96875 
Q 50 49.953125 52 44.1875 
" id="BitstreamVeraSans-Roman-6d"/>
      <path d="M 54.890625 33.015625 
L 54.890625 0 
L 45.90625 0 
L 45.90625 32.71875 
Q 45.90625 40.484375 42.875 44.328125 
Q 39.84375 48.1875 33.796875 48.1875 
Q 26.515625 48.1875 22.3125 43.546875 
Q 18.109375 38.921875 18.109375 30.90625 
L 18.109375 0 
L 9.078125 0 
L 9.078125 54.6875 
L 18.109375 54.6875 
L 18.109375 46.1875 
Q 21.34375 51.125 25.703125 53.5625 
Q 30.078125 56 35.796875 56 
Q 45.21875 56 50.046875 50.171875 
Q 54.890625 44.34375 54.890625 33.015625 
" id="BitstreamVeraSans-Roman-6e"/>
      <path d="M 31 75.875 
Q 24.46875 64.65625 21.28125 53.65625 
Q 18.109375 42.671875 18.109375 31.390625 
Q 18.109375 20.125 21.3125 9.0625 
Q 24.515625 -2 31 -13.1875 
L 23.1875 -13.1875 
Q 15.875 -1.703125 12.234375 9.375 
Q 8.59375 20.453125 8.59375 31.390625 
Q 8.59375 42.28125 12.203125 53.3125 
Q 15.828125 64.359375 23.1875 75.875 
z
" id="BitstreamVeraSans-Roman-28"/>
      <path d="M 30.609375 48.390625 
Q 23.390625 48.390625 19.1875 42.75 
Q 14.984375 37.109375 14.984375 27.296875 
Q 14.984375 17.484375 19.15625 11.84375 
Q 23.34375 6.203125 30.609375 6.203125 
Q 37.796875 6.203125 41.984375 11.859375 
Q 46.1875 17.53125 46.1875 27.296875 
Q 46.1875 37.015625 41.984375 42.703125 
Q 37.796875 48.390625 30.609375 48.390625 
M 30.609375 56 
Q 42.328125 56 49.015625 48.375 
Q 55.71875 40.765625 55.71875 27.296875 
Q 55.71875 13.875 49.015625 6.21875 
Q 42.328125 -1.421875 30.609375 -1.421875 
Q 18.84375 -1.421875 12.171875 6.21875 
Q 5.515625 13.875 5.515625 27.296875 
Q 5.515625 40.765625 12.171875 48.375 
Q 18.84375 56 30.609375 56 
" id="BitstreamVeraSans-Roman-6f"/>
      <path d="M 9.421875 75.984375 
L 18.40625 75.984375 
L 18.40625 0 
L 9.421875 0 
z
" id="BitstreamVeraSans-Roman-6c"/>
      <path d="M 2.984375 54.6875 
L 12.5 54.6875 
L 29.59375 8.796875 
L 46.6875 54.6875 
L 56.203125 54.6875 
L 35.6875 0 
L 23.484375 0 
z
" id="BitstreamVeraSans-Roman-76"/>
      <path d="M 9.421875 54.6875 
L 18.40625 54.6875 
L 18.40625 0 
L 9.421875 0 
z
M 9.421875 75.984375 
L 18.40625 75.984375 
L 18.40625 64.59375 
L 9.421875 64.59375 
z
" id="BitstreamVeraSans-Roman-69"/>
      <path d="M 4.890625 31.390625 
L 31.203125 31.390625 
L 31.203125 23.390625 
L 4.890625 23.390625 
z
" id="BitstreamVeraSans-Roman-2d"/>
      <path d="M 25.390625 72.90625 
L 33.6875 72.90625 
L 8.296875 -9.28125 
L 0 -9.28125 
z
" id="BitstreamVeraSans-Roman-2f"/>
      <path d="M 56.203125 29.59375 
L 56.203125 25.203125 
L 14.890625 25.203125 
Q 15.484375 15.921875 20.484375 11.0625 
Q 25.484375 6.203125 34.421875 6.203125 
Q 39.59375 6.203125 44.453125 7.46875 
Q 49.3125 8.734375 54.109375 11.28125 
L 54.109375 2.78125 
Q 49.265625 0.734375 44.1875 -0.34375 
Q 39.109375 -1.421875 33.890625 -1.421875 
Q 20.796875 -1.421875 13.15625 6.1875 
Q 5.515625 13.8125 5.515625 26.8125 
Q 5.515625 40.234375 12.765625 48.109375 
Q 20.015625 56 32.328125 56 
Q 43.359375 56 49.78125 48.890625 
Q 56.203125 41.796875 56.203125 29.59375 
M 47.21875 32.234375 
Q 47.125 39.59375 43.09375 43.984375 
Q 39.0625 48.390625 32.421875 48.390625 
Q 24.90625 48.390625 20.390625 44.140625 
Q 15.875 39.890625 15.1875 32.171875 
z
" id="BitstreamVeraSans-Roman-65"/>
      <path d="M 45.40625 46.390625 
L 45.40625 75.984375 
L 54.390625 75.984375 
L 54.390625 0 
L 45.40625 0 
L 45.40625 8.203125 
Q 42.578125 3.328125 38.25 0.953125 
Q 33.9375 -1.421875 27.875 -1.421875 
Q 17.96875 -1.421875 11.734375 6.484375 
Q 5.515625 14.40625 5.515625 27.296875 
Q 5.515625 40.1875 11.734375 48.09375 
Q 17.96875 56 27.875 56 
Q 33.9375 56 38.25 53.625 
Q 42.578125 51.265625 45.40625 46.390625 
M 14.796875 27.296875 
Q 14.796875 17.390625 18.875 11.75 
Q 22.953125 6.109375 30.078125 6.109375 
Q 37.203125 6.109375 41.296875 11.75 
Q 45.40625 17.390625 45.40625 27.296875 
Q 45.40625 37.203125 41.296875 42.84375 
Q 37.203125 48.484375 30.078125 48.484375 
Q 22.953125 48.484375 18.875 42.84375 
Q 14.796875 37.203125 14.796875 27.296875 
" id="BitstreamVeraSans-Roman-64"/>
      <path d="M 45.40625 27.984375 
Q 45.40625 37.75 41.375 43.109375 
Q 37.359375 48.484375 30.078125 48.484375 
Q 22.859375 48.484375 18.828125 43.109375 
Q 14.796875 37.75 14.796875 27.984375 
Q 14.796875 18.265625 18.828125 12.890625 
Q 22.859375 7.515625 30.078125 7.515625 
Q 37.359375 7.515625 41.375 12.890625 
Q 45.40625 18.265625 45.40625 27.984375 
M 54.390625 6.78125 
Q 54.390625 -7.171875 48.1875 -13.984375 
Q 42 -20.796875 29.203125 -20.796875 
Q 24.46875 -20.796875 20.265625 -20.09375 
Q 16.0625 -19.390625 12.109375 -17.921875 
L 12.109375 -9.1875 
Q 16.0625 -11.328125 19.921875 -12.34375 
Q 23.78125 -13.375 27.78125 -13.375 
Q 36.625 -13.375 41.015625 -8.765625 
Q 45.40625 -4.15625 45.40625 5.171875 
L 45.40625 9.625 
Q 42.625 4.78125 38.28125 2.390625 
Q 33.9375 0 27.875 0 
Q 17.828125 0 11.671875 7.65625 
Q 5.515625 15.328125 5.515625 27.984375 
Q 5.515625 40.671875 11.671875 48.328125 
Q 17.828125 56 27.875 56 
Q 33.9375 56 38.28125 53.609375 
Q 42.625 51.21875 45.40625 46.390625 
L 45.40625 54.6875 
L 54.390625 54.6875 
z
" id="BitstreamVeraSans-Roman-67"/>
      <path d="M 37.109375 75.984375 
L 37.109375 68.5 
L 28.515625 68.5 
Q 23.6875 68.5 21.796875 66.546875 
Q 19.921875 64.59375 19.921875 59.515625 
L 19.921875 54.6875 
L 34.71875 54.6875 
L 34.71875 47.703125 
L 19.921875 47.703125 
L 19.921875 0 
L 10.890625 0 
L 10.890625 47.703125 
L 2.296875 47.703125 
L 2.296875 54.6875 
L 10.890625 54.6875 
L 10.890625 58.5 
Q 10.890625 67.625 15.140625 71.796875 
Q 19.390625 75.984375 28.609375 75.984375 
z
" id="BitstreamVeraSans-Roman-66"/>
      <path d="M 34.28125 27.484375 
Q 23.390625 27.484375 19.1875 25 
Q 14.984375 22.515625 14.984375 16.5 
Q 14.984375 11.71875 18.140625 8.90625 
Q 21.296875 6.109375 26.703125 6.109375 
Q 34.1875 6.109375 38.703125 11.40625 
Q 43.21875 16.703125 43.21875 25.484375 
L 43.21875 27.484375 
z
M 52.203125 31.203125 
L 52.203125 0 
L 43.21875 0 
L 43.21875 8.296875 
Q 40.140625 3.328125 35.546875 0.953125 
Q 30.953125 -1.421875 24.3125 -1.421875 
Q 15.921875 -1.421875 10.953125 3.296875 
Q 6 8.015625 6 15.921875 
Q 6 25.140625 12.171875 29.828125 
Q 18.359375 34.515625 30.609375 34.515625 
L 43.21875 34.515625 
L 43.21875 35.40625 
Q 43.21875 41.609375 39.140625 45 
Q 35.0625 48.390625 27.6875 48.390625 
Q 23 48.390625 18.546875 47.265625 
Q 14.109375 46.140625 10.015625 43.890625 
L 10.015625 52.203125 
Q 14.9375 54.109375 19.578125 55.046875 
Q 24.21875 56 28.609375 56 
Q 40.484375 56 46.34375 49.84375 
Q 52.203125 43.703125 52.203125 31.203125 
" id="BitstreamVeraSans-Roman-61"/>
      <path d="M 44.28125 53.078125 
L 44.28125 44.578125 
Q 40.484375 46.53125 36.375 47.5 
Q 32.28125 48.484375 27.875 48.484375 
Q 21.1875 48.484375 17.84375 46.4375 
Q 14.5 44.390625 14.5 40.28125 
Q 14.5 37.15625 16.890625 35.375 
Q 19.28125 33.59375 26.515625 31.984375 
L 29.59375 31.296875 
Q 39.15625 29.25 43.1875 25.515625 
Q 47.21875 21.78125 47.21875 15.09375 
Q 47.21875 7.46875 41.1875 3.015625 
Q 35.15625 -1.421875 24.609375 -1.421875 
Q 20.21875 -1.421875 15.453125 -0.5625 
Q 10.6875 0.296875 5.421875 2 
L 5.421875 11.28125 
Q 10.40625 8.6875 15.234375 7.390625 
Q 20.0625 6.109375 24.8125 6.109375 
Q 31.15625 6.109375 34.5625 8.28125 
Q 37.984375 10.453125 37.984375 14.40625 
Q 37.984375 18.0625 35.515625 20.015625 
Q 33.0625 21.96875 24.703125 23.78125 
L 21.578125 24.515625 
Q 13.234375 26.265625 9.515625 29.90625 
Q 5.8125 33.546875 5.8125 39.890625 
Q 5.8125 47.609375 11.28125 51.796875 
Q 16.75 56 26.8125 56 
Q 31.78125 56 36.171875 55.265625 
Q 40.578125 54.546875 44.28125 53.078125 
" id="BitstreamVeraSans-Roman-73"/>
      <path d="M 8.015625 75.875 
L 15.828125 75.875 
Q 23.140625 64.359375 26.78125 53.3125 
Q 30.421875 42.28125 30.421875 31.390625 
Q 30.421875 20.453125 26.78125 9.375 
Q 23.140625 -1.703125 15.828125 -13.1875 
L 8.015625 -13.1875 
Q 14.5 -2 17.703125 9.0625 
Q 20.90625 20.125 20.90625 31.390625 
Q 20.90625 42.671875 17.703125 53.65625 
Q 14.5 64.65625 8.015625 75.875 
" id="BitstreamVeraSans-Roman-29"/>
     </defs>
     <g transform="translate(174.314035834 345.4628125)scale(0.18 -0.18)">
      <use xlink:href="#BitstreamVeraSans-Roman-6c"/>
      <use x="27.783203125" xlink:href="#BitstreamVeraSans-Roman-6f"/>
      <use x="88.96484375" xlink:href="#BitstreamVeraSans-Roman-67"/>
      <use x="152.44140625" xlink:href="#BitstreamVeraSans-Roman-31"/>
      <use x="216.064453125" xlink:href="#BitstreamVeraSans-Roman-30"/>
      <use x="279.6875" xlink:href="#BitstreamVeraSans-Roman-20"/>
      <use x="311.474609375" xlink:href="#BitstreamVeraSans-Roman-6f"/>
      <use x="372.65625" xlink:href="#BitstreamVeraSans-Roman-66"/>
      <use x="407.861328125" xlink:href="#BitstreamVeraSans-Roman-20"/>
      <use x="439.6484375" xlink:href="#BitstreamVeraSans-Roman-28"/>
      <use x="478.662109375" xlink:href="#BitstreamVeraSans-Roman-23"/>
      <use x="562.451171875" xlink:href="#BitstreamVeraSans-Roman-20"/>
      <use x="594.23828125" xlink:href="#BitstreamVeraSans-Roman-66"/>
      <use x="629.365234375" xlink:href="#BitstreamVeraSans-Roman-2d"/>
      <use x="665.44921875" xlink:href="#BitstreamVeraSans-Roman-65"/>
      <use x="726.97265625" xlink:href="#BitstreamVeraSans-Roman-76"/>
      <use x="786.15234375" xlink:href="#BitstreamVeraSans-Roman-61"/>
      <use x="847.431640625" xlink:href="#BitstreamVeraSans-Roman-6c"/>
      <use x="875.21484375" xlink:href="#BitstreamVeraSans-Roman-73"/>
      <use x="927.314453125" xlink:href="#BitstreamVeraSans-Roman-20"/>
      <use x="959.1015625" xlink:href="#BitstreamVeraSans-Roman-2f"/>
      <use x="992.79296875" xlink:href="#BitstreamVeraSans-Roman-20"/>
      <use x="1024.58007812" xlink:href="#BitstreamVeraSans-Roman-64"/>
      <use x="1088.05664062" xlink:href="#BitstreamVeraSans-Roman-69"/>
      <use x="1115.83984375" xlink:href="#BitstreamVeraSans-Roman-6d"/>
      <use x="1213.25195312" xlink:href="#BitstreamVeraSans-Roman-65"/>
      <use x="1274.77539062" xlink:href="#BitstreamVeraSans-Roman-6e"/>
      <use x="1338.15429688" xlink:href="#BitstreamVeraSans-Roman-73"/>
      <use x="1390.25390625" xlink:href="#BitstreamVeraSans-Roman-69"/>
      <use x="1418.03710938" xlink:href="#BitstreamVeraSans-Roman-6f"/>
      <use x="1479.21875" xlink:href="#BitstreamVeraSans-Roman-6e"/>
      <use x="1542.59765625" xlink:href="#BitstreamVeraSans-Roman-29"/>
     </g>
    </g>
   </g>
   <g id="matplotlib.axis_2">
    <g id="ytick_1">
     <g id="line2d_93">
      <path clip-path="url(#pace939a5c2)" d="M 138.09888 303.429375 
L 495.21888 303.429375 
" style="fill:none;stroke:#000000;stroke-dasharray:1.000000,3.000000;stroke-dashoffset:0.0;stroke-width:0.5;"/>
     </g>
     <g id="line2d_94">
      <defs>
       <path d="M 0 0 
L 4 0 
" id="m849a75de43" style="stroke:#000000;stroke-width:0.5;"/>
      </defs>
      <g>
       <use style="stroke:#000000;stroke-width:0.5;" x="138.098879584" xlink:href="#m849a75de43" y="303.429375"/>
      </g>
     </g>
     <g id="line2d_95">
      <defs>
       <path d="M 0 0 
L -4 0 
" id="m9adb9e508d" style="stroke:#000000;stroke-width:0.5;"/>
      </defs>
      <g>
       <use style="stroke:#000000;stroke-width:0.5;" x="495.218879584" xlink:href="#m9adb9e508d" y="303.429375"/>
      </g>
     </g>
     <g id="text_6">
      <!-- 0.0 -->
      <defs>
       <path d="M 10.6875 12.40625 
L 21 12.40625 
L 21 0 
L 10.6875 0 
z
" id="BitstreamVeraSans-Roman-2e"/>
      </defs>
      <g transform="translate(102.292629584 308.948125)scale(0.2 -0.2)">
       <use xlink:href="#BitstreamVeraSans-Roman-30"/>
       <use x="63.623046875" xlink:href="#BitstreamVeraSans-Roman-2e"/>
       <use x="95.41015625" xlink:href="#BitstreamVeraSans-Roman-30"/>
      </g>
     </g>
    </g>
    <g id="ytick_2">
     <g id="line2d_96">
      <path clip-path="url(#pace939a5c2)" d="M 138.09888 248.68086 
L 495.21888 248.68086 
" style="fill:none;stroke:#000000;stroke-dasharray:1.000000,3.000000;stroke-dashoffset:0.0;stroke-width:0.5;"/>
     </g>
     <g id="line2d_97">
      <g>
       <use style="stroke:#000000;stroke-width:0.5;" x="138.098879584" xlink:href="#m849a75de43" y="248.680860149"/>
      </g>
     </g>
     <g id="line2d_98">
      <g>
       <use style="stroke:#000000;stroke-width:0.5;" x="495.218879584" xlink:href="#m9adb9e508d" y="248.680860149"/>
      </g>
     </g>
     <g id="text_7">
      <!-- 0.2 -->
      <g transform="translate(102.292629584 254.199610149)scale(0.2 -0.2)">
       <use xlink:href="#BitstreamVeraSans-Roman-30"/>
       <use x="63.623046875" xlink:href="#BitstreamVeraSans-Roman-2e"/>
       <use x="95.41015625" xlink:href="#BitstreamVeraSans-Roman-32"/>
      </g>
     </g>
    </g>
    <g id="ytick_3">
     <g id="line2d_99">
      <path clip-path="url(#pace939a5c2)" d="M 138.09888 193.932345 
L 495.21888 193.932345 
" style="fill:none;stroke:#000000;stroke-dasharray:1.000000,3.000000;stroke-dashoffset:0.0;stroke-width:0.5;"/>
     </g>
     <g id="line2d_100">
      <g>
       <use style="stroke:#000000;stroke-width:0.5;" x="138.098879584" xlink:href="#m849a75de43" y="193.932345297"/>
      </g>
     </g>
     <g id="line2d_101">
      <g>
       <use style="stroke:#000000;stroke-width:0.5;" x="495.218879584" xlink:href="#m9adb9e508d" y="193.932345297"/>
      </g>
     </g>
     <g id="text_8">
      <!-- 0.4 -->
      <defs>
       <path d="M 37.796875 64.3125 
L 12.890625 25.390625 
L 37.796875 25.390625 
z
M 35.203125 72.90625 
L 47.609375 72.90625 
L 47.609375 25.390625 
L 58.015625 25.390625 
L 58.015625 17.1875 
L 47.609375 17.1875 
L 47.609375 0 
L 37.796875 0 
L 37.796875 17.1875 
L 4.890625 17.1875 
L 4.890625 26.703125 
z
" id="BitstreamVeraSans-Roman-34"/>
      </defs>
      <g transform="translate(102.292629584 199.451095297)scale(0.2 -0.2)">
       <use xlink:href="#BitstreamVeraSans-Roman-30"/>
       <use x="63.623046875" xlink:href="#BitstreamVeraSans-Roman-2e"/>
       <use x="95.41015625" xlink:href="#BitstreamVeraSans-Roman-34"/>
      </g>
     </g>
    </g>
    <g id="ytick_4">
     <g id="line2d_102">
      <path clip-path="url(#pace939a5c2)" d="M 138.09888 139.18383 
L 495.21888 139.18383 
" style="fill:none;stroke:#000000;stroke-dasharray:1.000000,3.000000;stroke-dashoffset:0.0;stroke-width:0.5;"/>
     </g>
     <g id="line2d_103">
      <g>
       <use style="stroke:#000000;stroke-width:0.5;" x="138.098879584" xlink:href="#m849a75de43" y="139.183830446"/>
      </g>
     </g>
     <g id="line2d_104">
      <g>
       <use style="stroke:#000000;stroke-width:0.5;" x="495.218879584" xlink:href="#m9adb9e508d" y="139.183830446"/>
      </g>
     </g>
     <g id="text_9">
      <!-- 0.6 -->
      <defs>
       <path d="M 33.015625 40.375 
Q 26.375 40.375 22.484375 35.828125 
Q 18.609375 31.296875 18.609375 23.390625 
Q 18.609375 15.53125 22.484375 10.953125 
Q 26.375 6.390625 33.015625 6.390625 
Q 39.65625 6.390625 43.53125 10.953125 
Q 47.40625 15.53125 47.40625 23.390625 
Q 47.40625 31.296875 43.53125 35.828125 
Q 39.65625 40.375 33.015625 40.375 
M 52.59375 71.296875 
L 52.59375 62.3125 
Q 48.875 64.0625 45.09375 64.984375 
Q 41.3125 65.921875 37.59375 65.921875 
Q 27.828125 65.921875 22.671875 59.328125 
Q 17.53125 52.734375 16.796875 39.40625 
Q 19.671875 43.65625 24.015625 45.921875 
Q 28.375 48.1875 33.59375 48.1875 
Q 44.578125 48.1875 50.953125 41.515625 
Q 57.328125 34.859375 57.328125 23.390625 
Q 57.328125 12.15625 50.6875 5.359375 
Q 44.046875 -1.421875 33.015625 -1.421875 
Q 20.359375 -1.421875 13.671875 8.265625 
Q 6.984375 17.96875 6.984375 36.375 
Q 6.984375 53.65625 15.1875 63.9375 
Q 23.390625 74.21875 37.203125 74.21875 
Q 40.921875 74.21875 44.703125 73.484375 
Q 48.484375 72.75 52.59375 71.296875 
" id="BitstreamVeraSans-Roman-36"/>
      </defs>
      <g transform="translate(102.292629584 144.702580446)scale(0.2 -0.2)">
       <use xlink:href="#BitstreamVeraSans-Roman-30"/>
       <use x="63.623046875" xlink:href="#BitstreamVeraSans-Roman-2e"/>
       <use x="95.41015625" xlink:href="#BitstreamVeraSans-Roman-36"/>
      </g>
     </g>
    </g>
    <g id="ytick_5">
     <g id="line2d_105">
      <path clip-path="url(#pace939a5c2)" d="M 138.09888 84.435316 
L 495.21888 84.435316 
" style="fill:none;stroke:#000000;stroke-dasharray:1.000000,3.000000;stroke-dashoffset:0.0;stroke-width:0.5;"/>
     </g>
     <g id="line2d_106">
      <g>
       <use style="stroke:#000000;stroke-width:0.5;" x="138.098879584" xlink:href="#m849a75de43" y="84.4353155941"/>
      </g>
     </g>
     <g id="line2d_107">
      <g>
       <use style="stroke:#000000;stroke-width:0.5;" x="495.218879584" xlink:href="#m9adb9e508d" y="84.4353155941"/>
      </g>
     </g>
     <g id="text_10">
      <!-- 0.8 -->
      <defs>
       <path d="M 31.78125 34.625 
Q 24.75 34.625 20.71875 30.859375 
Q 16.703125 27.09375 16.703125 20.515625 
Q 16.703125 13.921875 20.71875 10.15625 
Q 24.75 6.390625 31.78125 6.390625 
Q 38.8125 6.390625 42.859375 10.171875 
Q 46.921875 13.96875 46.921875 20.515625 
Q 46.921875 27.09375 42.890625 30.859375 
Q 38.875 34.625 31.78125 34.625 
M 21.921875 38.8125 
Q 15.578125 40.375 12.03125 44.71875 
Q 8.5 49.078125 8.5 55.328125 
Q 8.5 64.0625 14.71875 69.140625 
Q 20.953125 74.21875 31.78125 74.21875 
Q 42.671875 74.21875 48.875 69.140625 
Q 55.078125 64.0625 55.078125 55.328125 
Q 55.078125 49.078125 51.53125 44.71875 
Q 48 40.375 41.703125 38.8125 
Q 48.828125 37.15625 52.796875 32.3125 
Q 56.78125 27.484375 56.78125 20.515625 
Q 56.78125 9.90625 50.3125 4.234375 
Q 43.84375 -1.421875 31.78125 -1.421875 
Q 19.734375 -1.421875 13.25 4.234375 
Q 6.78125 9.90625 6.78125 20.515625 
Q 6.78125 27.484375 10.78125 32.3125 
Q 14.796875 37.15625 21.921875 38.8125 
M 18.3125 54.390625 
Q 18.3125 48.734375 21.84375 45.5625 
Q 25.390625 42.390625 31.78125 42.390625 
Q 38.140625 42.390625 41.71875 45.5625 
Q 45.3125 48.734375 45.3125 54.390625 
Q 45.3125 60.0625 41.71875 63.234375 
Q 38.140625 66.40625 31.78125 66.40625 
Q 25.390625 66.40625 21.84375 63.234375 
Q 18.3125 60.0625 18.3125 54.390625 
" id="BitstreamVeraSans-Roman-38"/>
      </defs>
      <g transform="translate(102.292629584 89.9540655941)scale(0.2 -0.2)">
       <use xlink:href="#BitstreamVeraSans-Roman-30"/>
       <use x="63.623046875" xlink:href="#BitstreamVeraSans-Roman-2e"/>
       <use x="95.41015625" xlink:href="#BitstreamVeraSans-Roman-38"/>
      </g>
     </g>
    </g>
    <g id="ytick_6">
     <g id="line2d_108">
      <path clip-path="url(#pace939a5c2)" d="M 138.09888 29.686801 
L 495.21888 29.686801 
" style="fill:none;stroke:#000000;stroke-dasharray:1.000000,3.000000;stroke-dashoffset:0.0;stroke-width:0.5;"/>
     </g>
     <g id="line2d_109">
      <g>
       <use style="stroke:#000000;stroke-width:0.5;" x="138.098879584" xlink:href="#m849a75de43" y="29.6868007426"/>
      </g>
     </g>
     <g id="line2d_110">
      <g>
       <use style="stroke:#000000;stroke-width:0.5;" x="495.218879584" xlink:href="#m9adb9e508d" y="29.6868007426"/>
      </g>
     </g>
     <g id="text_11">
      <!-- 1.0 -->
      <g transform="translate(102.292629584 35.2055507426)scale(0.2 -0.2)">
       <use xlink:href="#BitstreamVeraSans-Roman-31"/>
       <use x="63.623046875" xlink:href="#BitstreamVeraSans-Roman-2e"/>
       <use x="95.41015625" xlink:href="#BitstreamVeraSans-Roman-30"/>
      </g>
     </g>
    </g>
    <g id="text_12">
     <!-- Proportion of function+target pairs -->
     <defs>
      <path d="M 19.671875 64.796875 
L 19.671875 37.40625 
L 32.078125 37.40625 
Q 38.96875 37.40625 42.71875 40.96875 
Q 46.484375 44.53125 46.484375 51.125 
Q 46.484375 57.671875 42.71875 61.234375 
Q 38.96875 64.796875 32.078125 64.796875 
z
M 9.8125 72.90625 
L 32.078125 72.90625 
Q 44.34375 72.90625 50.609375 67.359375 
Q 56.890625 61.8125 56.890625 51.125 
Q 56.890625 40.328125 50.609375 34.8125 
Q 44.34375 29.296875 32.078125 29.296875 
L 19.671875 29.296875 
L 19.671875 0 
L 9.8125 0 
z
" id="BitstreamVeraSans-Roman-50"/>
      <path d="M 46 62.703125 
L 46 35.5 
L 73.1875 35.5 
L 73.1875 27.203125 
L 46 27.203125 
L 46 0 
L 37.796875 0 
L 37.796875 27.203125 
L 10.59375 27.203125 
L 10.59375 35.5 
L 37.796875 35.5 
L 37.796875 62.703125 
z
" id="BitstreamVeraSans-Roman-2b"/>
      <path d="M 18.109375 8.203125 
L 18.109375 -20.796875 
L 9.078125 -20.796875 
L 9.078125 54.6875 
L 18.109375 54.6875 
L 18.109375 46.390625 
Q 20.953125 51.265625 25.265625 53.625 
Q 29.59375 56 35.59375 56 
Q 45.5625 56 51.78125 48.09375 
Q 58.015625 40.1875 58.015625 27.296875 
Q 58.015625 14.40625 51.78125 6.484375 
Q 45.5625 -1.421875 35.59375 -1.421875 
Q 29.59375 -1.421875 25.265625 0.953125 
Q 20.953125 3.328125 18.109375 8.203125 
M 48.6875 27.296875 
Q 48.6875 37.203125 44.609375 42.84375 
Q 40.53125 48.484375 33.40625 48.484375 
Q 26.265625 48.484375 22.1875 42.84375 
Q 18.109375 37.203125 18.109375 27.296875 
Q 18.109375 17.390625 22.1875 11.75 
Q 26.265625 6.109375 33.40625 6.109375 
Q 40.53125 6.109375 44.609375 11.75 
Q 48.6875 17.390625 48.6875 27.296875 
" id="BitstreamVeraSans-Roman-70"/>
      <path d="M 18.3125 70.21875 
L 18.3125 54.6875 
L 36.8125 54.6875 
L 36.8125 47.703125 
L 18.3125 47.703125 
L 18.3125 18.015625 
Q 18.3125 11.328125 20.140625 9.421875 
Q 21.96875 7.515625 27.59375 7.515625 
L 36.8125 7.515625 
L 36.8125 0 
L 27.59375 0 
Q 17.1875 0 13.234375 3.875 
Q 9.28125 7.765625 9.28125 18.015625 
L 9.28125 47.703125 
L 2.6875 47.703125 
L 2.6875 54.6875 
L 9.28125 54.6875 
L 9.28125 70.21875 
z
" id="BitstreamVeraSans-Roman-74"/>
      <path d="M 8.5 21.578125 
L 8.5 54.6875 
L 17.484375 54.6875 
L 17.484375 21.921875 
Q 17.484375 14.15625 20.5 10.265625 
Q 23.53125 6.390625 29.59375 6.390625 
Q 36.859375 6.390625 41.078125 11.03125 
Q 45.3125 15.671875 45.3125 23.6875 
L 45.3125 54.6875 
L 54.296875 54.6875 
L 54.296875 0 
L 45.3125 0 
L 45.3125 8.40625 
Q 42.046875 3.421875 37.71875 1 
Q 33.40625 -1.421875 27.6875 -1.421875 
Q 18.265625 -1.421875 13.375 4.4375 
Q 8.5 10.296875 8.5 21.578125 
" id="BitstreamVeraSans-Roman-75"/>
      <path d="M 41.109375 46.296875 
Q 39.59375 47.171875 37.8125 47.578125 
Q 36.03125 48 33.890625 48 
Q 26.265625 48 22.1875 43.046875 
Q 18.109375 38.09375 18.109375 28.8125 
L 18.109375 0 
L 9.078125 0 
L 9.078125 54.6875 
L 18.109375 54.6875 
L 18.109375 46.1875 
Q 20.953125 51.171875 25.484375 53.578125 
Q 30.03125 56 36.53125 56 
Q 37.453125 56 38.578125 55.875 
Q 39.703125 55.765625 41.0625 55.515625 
z
" id="BitstreamVeraSans-Roman-72"/>
      <path d="M 48.78125 52.59375 
L 48.78125 44.1875 
Q 44.96875 46.296875 41.140625 47.34375 
Q 37.3125 48.390625 33.40625 48.390625 
Q 24.65625 48.390625 19.8125 42.84375 
Q 14.984375 37.3125 14.984375 27.296875 
Q 14.984375 17.28125 19.8125 11.734375 
Q 24.65625 6.203125 33.40625 6.203125 
Q 37.3125 6.203125 41.140625 7.25 
Q 44.96875 8.296875 48.78125 10.40625 
L 48.78125 2.09375 
Q 45.015625 0.34375 40.984375 -0.53125 
Q 36.96875 -1.421875 32.421875 -1.421875 
Q 20.0625 -1.421875 12.78125 6.34375 
Q 5.515625 14.109375 5.515625 27.296875 
Q 5.515625 40.671875 12.859375 48.328125 
Q 20.21875 56 33.015625 56 
Q 37.15625 56 41.109375 55.140625 
Q 45.0625 54.296875 48.78125 52.59375 
" id="BitstreamVeraSans-Roman-63"/>
     </defs>
     <g transform="translate(93.5491920837 323.17875)rotate(-90.0)scale(0.18 -0.18)">
      <use xlink:href="#BitstreamVeraSans-Roman-50"/>
      <use x="60.287109375" xlink:href="#BitstreamVeraSans-Roman-72"/>
      <use x="101.369140625" xlink:href="#BitstreamVeraSans-Roman-6f"/>
      <use x="162.55078125" xlink:href="#BitstreamVeraSans-Roman-70"/>
      <use x="226.02734375" xlink:href="#BitstreamVeraSans-Roman-6f"/>
      <use x="287.208984375" xlink:href="#BitstreamVeraSans-Roman-72"/>
      <use x="328.322265625" xlink:href="#BitstreamVeraSans-Roman-74"/>
      <use x="367.53125" xlink:href="#BitstreamVeraSans-Roman-69"/>
      <use x="395.314453125" xlink:href="#BitstreamVeraSans-Roman-6f"/>
      <use x="456.49609375" xlink:href="#BitstreamVeraSans-Roman-6e"/>
      <use x="519.875" xlink:href="#BitstreamVeraSans-Roman-20"/>
      <use x="551.662109375" xlink:href="#BitstreamVeraSans-Roman-6f"/>
      <use x="612.84375" xlink:href="#BitstreamVeraSans-Roman-66"/>
      <use x="648.048828125" xlink:href="#BitstreamVeraSans-Roman-20"/>
      <use x="679.8359375" xlink:href="#BitstreamVeraSans-Roman-66"/>
      <use x="715.041015625" xlink:href="#BitstreamVeraSans-Roman-75"/>
      <use x="778.419921875" xlink:href="#BitstreamVeraSans-Roman-6e"/>
      <use x="841.798828125" xlink:href="#BitstreamVeraSans-Roman-63"/>
      <use x="896.779296875" xlink:href="#BitstreamVeraSans-Roman-74"/>
      <use x="935.98828125" xlink:href="#BitstreamVeraSans-Roman-69"/>
      <use x="963.771484375" xlink:href="#BitstreamVeraSans-Roman-6f"/>
      <use x="1024.953125" xlink:href="#BitstreamVeraSans-Roman-6e"/>
      <use x="1088.33203125" xlink:href="#BitstreamVeraSans-Roman-2b"/>
      <use x="1172.12109375" xlink:href="#BitstreamVeraSans-Roman-74"/>
      <use x="1211.33007812" xlink:href="#BitstreamVeraSans-Roman-61"/>
      <use x="1272.609375" xlink:href="#BitstreamVeraSans-Roman-72"/>
      <use x="1313.70703125" xlink:href="#BitstreamVeraSans-Roman-67"/>
      <use x="1377.18359375" xlink:href="#BitstreamVeraSans-Roman-65"/>
      <use x="1438.70703125" xlink:href="#BitstreamVeraSans-Roman-74"/>
      <use x="1477.91601562" xlink:href="#BitstreamVeraSans-Roman-20"/>
      <use x="1509.703125" xlink:href="#BitstreamVeraSans-Roman-70"/>
      <use x="1573.1796875" xlink:href="#BitstreamVeraSans-Roman-61"/>
      <use x="1634.45898438" xlink:href="#BitstreamVeraSans-Roman-69"/>
      <use x="1662.2421875" xlink:href="#BitstreamVeraSans-Roman-72"/>
      <use x="1703.35546875" xlink:href="#BitstreamVeraSans-Roman-73"/>
     </g>
    </g>
   </g>
   <g id="text_13">
    <!-- diffusion ga -->
    <g transform="translate(463.538879584 302.093586015)scale(0.15 -0.15)">
     <use xlink:href="#BitstreamVeraSans-Roman-64"/>
     <use x="63.4765625" xlink:href="#BitstreamVeraSans-Roman-69"/>
     <use x="91.259765625" xlink:href="#BitstreamVeraSans-Roman-66"/>
     <use x="126.46484375" xlink:href="#BitstreamVeraSans-Roman-66"/>
     <use x="161.669921875" xlink:href="#BitstreamVeraSans-Roman-75"/>
     <use x="225.048828125" xlink:href="#BitstreamVeraSans-Roman-73"/>
     <use x="277.1484375" xlink:href="#BitstreamVeraSans-Roman-69"/>
     <use x="304.931640625" xlink:href="#BitstreamVeraSans-Roman-6f"/>
     <use x="366.11328125" xlink:href="#BitstreamVeraSans-Roman-6e"/>
     <use x="429.4921875" xlink:href="#BitstreamVeraSans-Roman-20"/>
     <use x="461.279296875" xlink:href="#BitstreamVeraSans-Roman-67"/>
     <use x="524.755859375" xlink:href="#BitstreamVeraSans-Roman-61"/>
    </g>
   </g>
   <g id="text_14">
    <!-- migration ga -->
    <g transform="translate(463.538879584 214.495962252)scale(0.15 -0.15)">
     <use xlink:href="#BitstreamVeraSans-Roman-6d"/>
     <use x="97.412109375" xlink:href="#BitstreamVeraSans-Roman-69"/>
     <use x="125.1953125" xlink:href="#BitstreamVeraSans-Roman-67"/>
     <use x="188.671875" xlink:href="#BitstreamVeraSans-Roman-72"/>
     <use x="229.78515625" xlink:href="#BitstreamVeraSans-Roman-61"/>
     <use x="291.064453125" xlink:href="#BitstreamVeraSans-Roman-74"/>
     <use x="330.2734375" xlink:href="#BitstreamVeraSans-Roman-69"/>
     <use x="358.056640625" xlink:href="#BitstreamVeraSans-Roman-6f"/>
     <use x="419.23828125" xlink:href="#BitstreamVeraSans-Roman-6e"/>
     <use x="482.6171875" xlink:href="#BitstreamVeraSans-Roman-20"/>
     <use x="514.404296875" xlink:href="#BitstreamVeraSans-Roman-67"/>
     <use x="577.880859375" xlink:href="#BitstreamVeraSans-Roman-61"/>
    </g>
   </g>
   <g id="text_15">
    <!-- standard ga -->
    <g transform="translate(463.538879584 126.89833849)scale(0.15 -0.15)">
     <use xlink:href="#BitstreamVeraSans-Roman-73"/>
     <use x="52.099609375" xlink:href="#BitstreamVeraSans-Roman-74"/>
     <use x="91.30859375" xlink:href="#BitstreamVeraSans-Roman-61"/>
     <use x="152.587890625" xlink:href="#BitstreamVeraSans-Roman-6e"/>
     <use x="215.966796875" xlink:href="#BitstreamVeraSans-Roman-64"/>
     <use x="279.443359375" xlink:href="#BitstreamVeraSans-Roman-61"/>
     <use x="340.72265625" xlink:href="#BitstreamVeraSans-Roman-72"/>
     <use x="381.8203125" xlink:href="#BitstreamVeraSans-Roman-64"/>
     <use x="445.296875" xlink:href="#BitstreamVeraSans-Roman-20"/>
     <use x="477.083984375" xlink:href="#BitstreamVeraSans-Roman-67"/>
     <use x="540.560546875" xlink:href="#BitstreamVeraSans-Roman-61"/>
    </g>
   </g>
   <g id="text_16">
    <!-- best 2009 -->
    <defs>
     <path d="M 10.984375 1.515625 
L 10.984375 10.5 
Q 14.703125 8.734375 18.5 7.8125 
Q 22.3125 6.890625 25.984375 6.890625 
Q 35.75 6.890625 40.890625 13.453125 
Q 46.046875 20.015625 46.78125 33.40625 
Q 43.953125 29.203125 39.59375 26.953125 
Q 35.25 24.703125 29.984375 24.703125 
Q 19.046875 24.703125 12.671875 31.3125 
Q 6.296875 37.9375 6.296875 49.421875 
Q 6.296875 60.640625 12.9375 67.421875 
Q 19.578125 74.21875 30.609375 74.21875 
Q 43.265625 74.21875 49.921875 64.515625 
Q 56.59375 54.828125 56.59375 36.375 
Q 56.59375 19.140625 48.40625 8.859375 
Q 40.234375 -1.421875 26.421875 -1.421875 
Q 22.703125 -1.421875 18.890625 -0.6875 
Q 15.09375 0.046875 10.984375 1.515625 
M 30.609375 32.421875 
Q 37.25 32.421875 41.125 36.953125 
Q 45.015625 41.5 45.015625 49.421875 
Q 45.015625 57.28125 41.125 61.84375 
Q 37.25 66.40625 30.609375 66.40625 
Q 23.96875 66.40625 20.09375 61.84375 
Q 16.21875 57.28125 16.21875 49.421875 
Q 16.21875 41.5 20.09375 36.953125 
Q 23.96875 32.421875 30.609375 32.421875 
" id="BitstreamVeraSans-Roman-39"/>
     <path d="M 48.6875 27.296875 
Q 48.6875 37.203125 44.609375 42.84375 
Q 40.53125 48.484375 33.40625 48.484375 
Q 26.265625 48.484375 22.1875 42.84375 
Q 18.109375 37.203125 18.109375 27.296875 
Q 18.109375 17.390625 22.1875 11.75 
Q 26.265625 6.109375 33.40625 6.109375 
Q 40.53125 6.109375 44.609375 11.75 
Q 48.6875 17.390625 48.6875 27.296875 
M 18.109375 46.390625 
Q 20.953125 51.265625 25.265625 53.625 
Q 29.59375 56 35.59375 56 
Q 45.5625 56 51.78125 48.09375 
Q 58.015625 40.1875 58.015625 27.296875 
Q 58.015625 14.40625 51.78125 6.484375 
Q 45.5625 -1.421875 35.59375 -1.421875 
Q 29.59375 -1.421875 25.265625 0.953125 
Q 20.953125 3.328125 18.109375 8.203125 
L 18.109375 0 
L 9.078125 0 
L 9.078125 75.984375 
L 18.109375 75.984375 
z
" id="BitstreamVeraSans-Roman-62"/>
    </defs>
    <g transform="translate(463.538879584 39.3007147277)scale(0.15 -0.15)">
     <use xlink:href="#BitstreamVeraSans-Roman-62"/>
     <use x="63.4765625" xlink:href="#BitstreamVeraSans-Roman-65"/>
     <use x="125.0" xlink:href="#BitstreamVeraSans-Roman-73"/>
     <use x="177.099609375" xlink:href="#BitstreamVeraSans-Roman-74"/>
     <use x="216.30859375" xlink:href="#BitstreamVeraSans-Roman-20"/>
     <use x="248.095703125" xlink:href="#BitstreamVeraSans-Roman-32"/>
     <use x="311.71875" xlink:href="#BitstreamVeraSans-Roman-30"/>
     <use x="375.341796875" xlink:href="#BitstreamVeraSans-Roman-30"/>
     <use x="438.96484375" xlink:href="#BitstreamVeraSans-Roman-39"/>
    </g>
   </g>
   <g id="text_17">
    <!-- f6-9,20-D -->
    <defs>
     <path d="M 11.71875 12.40625 
L 22.015625 12.40625 
L 22.015625 4 
L 14.015625 -11.625 
L 7.71875 -11.625 
L 11.71875 4 
z
" id="BitstreamVeraSans-Roman-2c"/>
     <path d="M 19.671875 64.796875 
L 19.671875 8.109375 
L 31.59375 8.109375 
Q 46.6875 8.109375 53.6875 14.9375 
Q 60.6875 21.78125 60.6875 36.53125 
Q 60.6875 51.171875 53.6875 57.984375 
Q 46.6875 64.796875 31.59375 64.796875 
z
M 9.8125 72.90625 
L 30.078125 72.90625 
Q 51.265625 72.90625 61.171875 64.09375 
Q 71.09375 55.28125 71.09375 36.53125 
Q 71.09375 17.671875 61.125 8.828125 
Q 51.171875 0 30.078125 0 
L 9.8125 0 
z
" id="BitstreamVeraSans-Roman-44"/>
    </defs>
    <g transform="translate(141.670079584 47.67585)scale(0.2 -0.2)">
     <use xlink:href="#BitstreamVeraSans-Roman-66"/>
     <use x="35.205078125" xlink:href="#BitstreamVeraSans-Roman-36"/>
     <use x="98.828125" xlink:href="#BitstreamVeraSans-Roman-2d"/>
     <use x="134.912109375" xlink:href="#BitstreamVeraSans-Roman-39"/>
     <use x="198.53515625" xlink:href="#BitstreamVeraSans-Roman-2c"/>
     <use x="230.322265625" xlink:href="#BitstreamVeraSans-Roman-32"/>
     <use x="293.9453125" xlink:href="#BitstreamVeraSans-Roman-30"/>
     <use x="357.568359375" xlink:href="#BitstreamVeraSans-Roman-2d"/>
     <use x="393.65234375" xlink:href="#BitstreamVeraSans-Roman-44"/>
    </g>
   </g>
  </g>
 </g>
 <defs>
  <clipPath id="pace939a5c2">
   <rect height="276.48" width="357.12" x="138.098879584" y="26.949375"/>
  </clipPath>
 </defs>
</svg>
