<?xml version="1.0" encoding="utf-8" standalone="no"?>
<!DOCTYPE svg PUBLIC "-//W3C//DTD SVG 1.1//EN"
  "http://www.w3.org/Graphics/SVG/1.1/DTD/svg11.dtd">
<!-- Created with matplotlib (http://matplotlib.org/) -->
<svg height="356pt" version="1.1" viewBox="0 0 537 356" width="537pt" xmlns="http://www.w3.org/2000/svg" xmlns:xlink="http://www.w3.org/1999/xlink">
 <defs>
  <style type="text/css">
*{stroke-linecap:butt;stroke-linejoin:round;stroke-miterlimit:100000;}
  </style>
 </defs>
 <g id="figure_1">
  <g id="patch_1">
   <path d="M 0 356.40625 
L 537.213438 356.40625 
L 537.213438 0 
L 0 0 
z
" style="fill:#ffffff;"/>
  </g>
  <g id="axes_1">
   <g id="patch_2">
    <path d="M 108.7 303.429375 
L 465.82 303.429375 
L 465.82 26.949375 
L 108.7 26.949375 
z
" style="fill:#ffffff;"/>
   </g>
   <g id="line2d_1">
    <path d="M 12.7 303.429375 
L 12.7 298.598624 
L 58.50364 298.598624 
L 58.50364 298.061874 
L 87.40252 298.061874 
L 87.40252 296.988373 
L 93.829412 296.988373 
L 93.829412 294.304623 
L 99.396639 294.304623 
L 99.396639 291.084122 
L 104.307281 291.084122 
L 104.307281 286.79012 
L 108.7 286.79012 
L 108.7 285.71662 
L 116.3014 285.71662 
L 116.3014 283.56962 
L 122.728291 283.56962 
L 122.728291 280.349119 
L 130.823096 280.349119 
L 130.823096 277.128618 
L 133.20616 277.128618 
L 133.20616 274.981617 
L 135.460346 274.981617 
L 135.460346 272.834617 
L 139.633052 272.834617 
L 139.633052 266.393615 
L 141.572577 266.393615 
L 141.572577 247.60736 
L 143.425872 247.60736 
L 143.425872 240.092858 
L 145.200279 240.092858 
L 145.200279 237.945857 
L 146.902241 237.945857 
L 146.902241 234.725356 
L 148.537441 234.725356 
L 148.537441 233.651856 
L 150.110921 233.651856 
L 150.110921 233.115106 
L 151.627171 233.115106 
L 151.627171 230.968105 
L 153.090208 230.968105 
L 153.090208 229.357855 
L 154.50364 229.357855 
L 154.50364 228.821105 
L 155.870723 228.821105 
L 155.870723 228.284355 
L 157.194398 228.284355 
L 157.194398 227.210854 
L 158.477338 227.210854 
L 158.477338 224.527104 
L 159.721976 224.527104 
L 159.721976 223.990353 
L 160.930532 223.990353 
L 160.930532 222.380103 
L 162.10504 222.380103 
L 162.10504 221.306603 
L 163.247366 221.306603 
L 163.247366 220.769853 
L 164.359225 220.769853 
L 164.359225 219.696352 
L 165.442202 219.696352 
L 165.442202 219.159602 
L 166.497759 219.159602 
L 166.497759 218.086102 
L 168.531932 218.086102 
L 168.531932 217.549352 
L 169.512972 217.549352 
L 169.512972 214.328851 
L 170.471457 214.328851 
L 170.471457 210.5716 
L 174.958824 210.5716 
L 174.958824 209.4981 
L 175.80112 209.4981 
L 175.80112 208.424599 
L 177.436321 208.424599 
L 177.436321 205.740849 
L 178.230483 205.740849 
L 178.230483 204.667348 
L 180.526051 204.667348 
L 180.526051 204.130598 
L 181.989087 204.130598 
L 181.989087 203.593848 
L 183.40252 203.593848 
L 183.40252 203.057098 
L 184.091664 203.057098 
L 184.091664 201.446847 
L 186.093278 201.446847 
L 186.093278 200.910097 
L 186.739682 200.910097 
L 186.739682 199.836597 
L 188.003181 199.836597 
L 188.003181 197.152846 
L 188.620856 197.152846 
L 188.620856 196.079346 
L 189.229513 196.079346 
L 189.229513 195.542596 
L 189.829412 195.542596 
L 189.829412 194.469095 
L 190.420801 194.469095 
L 190.420801 193.395595 
L 191.00392 193.395595 
L 191.00392 192.322095 
L 191.578995 192.322095 
L 191.578995 191.785345 
L 192.146245 191.785345 
L 192.146245 189.101594 
L 193.258105 189.101594 
L 193.258105 188.028094 
L 194.341082 188.028094 
L 194.341082 186.954593 
L 194.872201 186.954593 
L 194.872201 186.417843 
L 195.914562 186.417843 
L 195.914562 185.344343 
L 197.430811 185.344343 
L 197.430811 182.123842 
L 198.893848 182.123842 
L 198.893848 181.587092 
L 199.841441 181.587092 
L 199.841441 178.366591 
L 200.767974 178.366591 
L 200.767974 177.293091 
L 201.223631 177.293091 
L 201.223631 176.756341 
L 201.674363 176.756341 
L 201.674363 175.68284 
L 202.120274 175.68284 
L 202.120274 174.60934 
L 202.561466 174.60934 
L 202.561466 174.07259 
L 203.857703 174.07259 
L 203.857703 173.53584 
L 204.280979 173.53584 
L 204.280979 172.462339 
L 204.7 172.462339 
L 204.7 169.778589 
L 205.114852 169.778589 
L 205.114852 169.241839 
L 205.932374 169.241839 
L 205.932374 168.705088 
L 207.129363 168.705088 
L 207.129363 167.094838 
L 207.520843 167.094838 
L 207.520843 166.558088 
L 208.292944 166.558088 
L 208.292944 164.947837 
L 208.673698 164.947837 
L 208.673698 163.337587 
L 209.051006 163.337587 
L 209.051006 162.264087 
L 209.42493 162.264087 
L 209.42493 161.727337 
L 210.162866 161.727337 
L 210.162866 160.117086 
L 210.526993 160.117086 
L 210.526993 159.580336 
L 211.245843 159.580336 
L 211.245843 159.043586 
L 211.600673 159.043586 
L 211.600673 157.970086 
L 212.647396 157.970086 
L 212.647396 155.823085 
L 213.330891 155.823085 
L 213.330891 154.212835 
L 214.665157 154.212835 
L 214.665157 153.139334 
L 215.316612 153.139334 
L 215.316612 152.602584 
L 215.638562 152.602584 
L 215.638562 151.529084 
L 216.589758 151.529084 
L 216.589758 150.992334 
L 216.902061 150.992334 
L 216.902061 149.382083 
L 217.212042 149.382083 
L 217.212042 148.845333 
L 217.825174 148.845333 
L 217.825174 148.308583 
L 219.61226 148.308583 
L 219.61226 147.771833 
L 220.477874 147.771833 
L 220.477874 144.014582 
L 221.045125 144.014582 
L 221.045125 141.867581 
L 221.325882 141.867581 
L 221.325882 140.794081 
L 221.881787 140.794081 
L 221.881787 140.257331 
L 222.156984 140.257331 
L 222.156984 139.720581 
L 222.701989 139.720581 
L 222.701989 138.64708 
L 223.239961 138.64708 
L 223.239961 137.03683 
L 223.77108 137.03683 
L 223.77108 135.96333 
L 224.034124 135.96333 
L 224.034124 133.816329 
L 224.295518 133.816329 
L 224.295518 133.279579 
L 225.07001 133.279579 
L 225.07001 130.059078 
L 225.325009 130.059078 
L 225.325009 126.301827 
L 226.080781 126.301827 
L 226.080781 125.765077 
L 227.067627 125.765077 
L 227.067627 125.228327 
L 227.310731 125.228327 
L 227.310731 124.154826 
L 227.552426 124.154826 
L 227.552426 123.618076 
L 228.031653 123.618076 
L 228.031653 123.081326 
L 228.269216 123.081326 
L 228.269216 122.007826 
L 229.20616 122.007826 
L 229.20616 121.471076 
L 229.437143 121.471076 
L 229.437143 119.860825 
L 230.122511 119.860825 
L 230.122511 118.250575 
L 230.573243 118.250575 
L 230.573243 117.177074 
L 231.019154 117.177074 
L 231.019154 115.030074 
L 231.896918 115.030074 
L 231.896918 113.956574 
L 232.113502 113.956574 
L 232.113502 113.419823 
L 232.968758 113.419823 
L 232.968758 111.809573 
L 235.831116 111.809573 
L 235.831116 110.736073 
L 236.419722 110.736073 
L 236.419722 110.199323 
L 237.382635 110.199323 
L 237.382635 109.125822 
L 237.761658 109.125822 
L 237.761658 108.589072 
L 238.69441 108.589072 
L 238.69441 107.515572 
L 239.425872 107.515572 
L 239.425872 105.368571 
L 239.60675 105.368571 
L 239.60675 104.295071 
L 239.786847 104.295071 
L 239.786847 102.14807 
L 240.675841 102.14807 
L 240.675841 101.07457 
L 241.026198 101.07457 
L 241.026198 99.46432 
L 241.889423 99.46432 
L 241.889423 98.92757 
L 243.727857 98.92757 
L 243.727857 98.390819 
L 244.05358 98.390819 
L 244.05358 97.317319 
L 244.376777 97.317319 
L 244.376777 92.486568 
L 244.697489 92.486568 
L 244.697489 91.949818 
L 245.015752 91.949818 
L 245.015752 91.413067 
L 245.173977 91.413067 
L 245.173977 89.266067 
L 245.645081 89.266067 
L 245.645081 88.192567 
L 245.80094 88.192567 
L 245.80094 87.655816 
L 246.265052 87.655816 
L 246.265052 86.582316 
L 247.3283 86.582316 
L 247.3283 86.045566 
L 247.775807 86.045566 
L 247.775807 85.508816 
L 248.511139 85.508816 
L 248.511139 84.972066 
L 248.656662 84.972066 
L 248.656662 84.435316 
L 249.376754 84.435316 
L 249.376754 83.898565 
L 250.084619 83.898565 
L 250.084619 82.288315 
L 251.055864 82.288315 
L 251.055864 81.214815 
L 252.272256 81.214815 
L 252.272256 80.678065 
L 254.096584 80.678065 
L 254.096584 80.141314 
L 254.350806 80.141314 
L 254.350806 79.604564 
L 254.477338 79.604564 
L 254.477338 77.994314 
L 254.979661 77.994314 
L 254.979661 77.457564 
L 255.104301 77.457564 
L 255.104301 76.384063 
L 255.35247 76.384063 
L 255.35247 75.847313 
L 255.721976 75.847313 
L 255.721976 74.773813 
L 256.330633 74.773813 
L 256.330633 74.237063 
L 257.6392 74.237063 
L 257.6392 73.700313 
L 258.451036 73.700313 
L 258.451036 72.626812 
L 258.794184 72.626812 
L 258.794184 72.090062 
L 259.021391 72.090062 
L 259.021391 71.553312 
L 259.472122 71.553312 
L 259.472122 71.016562 
L 259.695674 71.016562 
L 259.695674 70.479812 
L 260.795798 70.479812 
L 260.90423 69.406312 
L 261.227846 69.406312 
L 261.227846 68.869561 
L 262.705701 68.869561 
L 262.705701 68.332811 
L 263.425438 68.332811 
L 263.425438 67.259311 
L 263.628815 67.259311 
L 263.628815 66.185811 
L 264.631081 66.185811 
L 264.631081 65.11231 
L 265.123322 65.11231 
L 265.123322 64.03881 
L 266.566105 64.03881 
L 266.660538 62.96531 
L 266.754758 62.96531 
L 266.754758 60.818309 
L 266.942561 60.818309 
L 266.942561 60.281559 
L 267.315649 60.281559 
L 267.315649 59.744809 
L 268.595775 59.744809 
L 268.685726 58.671309 
L 268.954421 58.671309 
L 268.954421 58.134558 
L 270.358925 58.134558 
L 270.358925 57.597808 
L 271.12865 57.597808 
L 271.12865 57.061058 
L 273.516421 57.061058 
L 273.516421 54.377307 
L 274.543961 54.377307 
L 274.543961 53.840557 
L 275.240784 53.840557 
L 275.240784 53.303807 
L 275.698945 53.303807 
L 275.698945 52.767057 
L 276.22718 52.767057 
L 276.22718 52.230307 
L 277.555542 52.230307 
L 277.555542 50.620056 
L 278.275633 50.620056 
L 278.275633 50.083306 
L 278.489258 50.083306 
L 278.489258 49.009806 
L 280.02326 49.009806 
L 280.02326 48.473056 
L 280.364164 48.473056 
L 280.364164 47.399556 
L 281.634756 47.399556 
L 281.700569 46.326055 
L 281.962785 46.326055 
L 281.962785 44.715805 
L 282.417733 44.715805 
L 282.417733 43.642305 
L 283.690878 43.642305 
L 283.690878 42.032054 
L 284.12745 42.032054 
L 284.12745 41.495304 
L 286.066975 41.495304 
L 286.066975 40.958554 
L 286.362039 40.958554 
L 286.362039 39.348303 
L 287.578995 39.348303 
L 287.578995 38.811553 
L 288.314926 38.811553 
L 288.314926 38.274803 
L 288.982907 38.274803 
L 288.982907 37.738053 
L 289.258105 37.738053 
L 289.258105 37.201303 
L 289.422356 37.201303 
L 289.422356 36.664553 
L 289.585962 36.664553 
L 289.585962 36.127802 
L 291.500739 36.127802 
L 291.500739 35.591052 
L 292.119943 35.591052 
L 292.119943 35.054302 
L 293.08192 35.054302 
L 293.08192 34.517552 
L 293.973238 34.517552 
L 293.973238 33.980802 
L 309.09294 33.980802 
L 309.09294 32.907302 
L 310.434722 32.907302 
L 310.434722 31.297051 
L 311.413458 31.297051 
L 311.413458 30.760301 
L 324.126841 30.760301 
L 324.126841 29.686801 
L 396.7 29.686801 
L 396.7 29.686801 
" style="fill:none;stroke:#f5deb3;stroke-linecap:square;stroke-width:6.0;"/>
   </g>
   <g id="line2d_2"/>
   <g id="line2d_3">
    <path d="M 396.7 29.686801 
L 428.38 35.161652 
" style="fill:none;stroke:#f5deb3;stroke-linecap:square;stroke-width:6.0;"/>
    <defs>
     <path d="M -0 7.778175 
L 7.778175 0 
L 0 -7.778175 
L -7.778175 -0 
z
" id="m3410820199" style="stroke:#f5deb3;stroke-linejoin:miter;stroke-width:1.5;"/>
    </defs>
    <g>
     <use style="fill:#f5deb3;stroke:#f5deb3;stroke-linejoin:miter;stroke-width:1.5;" x="396.7" xlink:href="#m3410820199" y="29.6868007426"/>
     <use style="fill:#f5deb3;stroke:#f5deb3;stroke-linejoin:miter;stroke-width:1.5;" x="428.38" xlink:href="#m3410820199" y="35.1616522277"/>
    </g>
   </g>
   <g id="line2d_4">
    <defs>
     <path d="M 0 1.5 
C 0.397805 1.5 0.77937 1.341951 1.06066 1.06066 
C 1.341951 0.77937 1.5 0.397805 1.5 0 
C 1.5 -0.397805 1.341951 -0.77937 1.06066 -1.06066 
C 0.77937 -1.341951 0.397805 -1.5 0 -1.5 
C -0.397805 -1.5 -0.77937 -1.341951 -1.06066 -1.06066 
C -1.341951 -0.77937 -1.5 -0.397805 -1.5 0 
C -1.5 0.397805 -1.341951 0.77937 -1.06066 1.06066 
C -0.77937 1.341951 -0.397805 1.5 0 1.5 
z
" id="mf293f2cb46" style="stroke:#f5deb3;stroke-width:0.5;"/>
    </defs>
    <g>
     <use style="fill:#f5deb3;stroke:#f5deb3;stroke-width:0.5;" x="324.126840547" xlink:href="#mf293f2cb46" y="29.6868007426"/>
     <use style="fill:#f5deb3;stroke:#f5deb3;stroke-width:0.5;" x="324.126840547" xlink:href="#mf293f2cb46" y="29.6868007426"/>
    </g>
   </g>
   <g id="line2d_5">
    <g>
     <use style="fill:#f5deb3;stroke:#f5deb3;stroke-linejoin:miter;stroke-width:1.5;" x="12.7" xlink:href="#m3410820199" y="298.59862369"/>
     <use style="fill:#f5deb3;stroke:#f5deb3;stroke-linejoin:miter;stroke-width:1.5;" x="141.572577359" xlink:href="#m3410820199" y="266.393614953"/>
     <use style="fill:#f5deb3;stroke:#f5deb3;stroke-linejoin:miter;stroke-width:1.5;" x="204.280978681" xlink:href="#m3410820199" y="173.535839764"/>
     <use style="fill:#f5deb3;stroke:#f5deb3;stroke-linejoin:miter;stroke-width:1.5;" x="257.639199805" xlink:href="#m3410820199" y="73.700312682"/>
     <use style="fill:#f5deb3;stroke:#f5deb3;stroke-linejoin:miter;stroke-width:1.5;" x="324.126840547" xlink:href="#m3410820199" y="30.7603010338"/>
     <use style="fill:#f5deb3;stroke:#f5deb3;stroke-linejoin:miter;stroke-width:1.5;" x="396.7" xlink:href="#m3410820199" y="29.6868007426"/>
    </g>
   </g>
   <g id="line2d_6">
    <defs>
     <path d="M 0 1.5 
C 0.397805 1.5 0.77937 1.341951 1.06066 1.06066 
C 1.341951 0.77937 1.5 0.397805 1.5 0 
C 1.5 -0.397805 1.341951 -0.77937 1.06066 -1.06066 
C 0.77937 -1.341951 0.397805 -1.5 0 -1.5 
C -0.397805 -1.5 -0.77937 -1.341951 -1.06066 -1.06066 
C -1.341951 -0.77937 -1.5 -0.397805 -1.5 0 
C -1.5 0.397805 -1.341951 0.77937 -1.06066 1.06066 
C -0.77937 1.341951 -0.397805 1.5 0 1.5 
z
" id="m441750d7f6" style="stroke:#000080;stroke-width:0.5;"/>
    </defs>
    <g>
     <use style="fill:#000080;stroke:#000080;stroke-width:0.5;" x="453.793498855" xlink:href="#m441750d7f6" y="212.181850248"/>
     <use style="fill:#000080;stroke:#000080;stroke-width:0.5;" x="453.793498855" xlink:href="#m441750d7f6" y="212.181850248"/>
    </g>
   </g>
   <g id="line2d_7">
    <path d="M 12.7 303.429375 
L 12.7 297.525123 
L 58.50364 297.525123 
L 58.50364 295.914873 
L 70.497759 295.914873 
L 70.497759 292.694372 
L 79.80112 292.694372 
L 79.80112 290.010621 
L 87.40252 290.010621 
L 87.40252 288.937121 
L 99.396639 288.937121 
L 99.396639 288.400371 
L 112.673698 288.400371 
L 112.673698 286.79012 
L 119.638562 286.79012 
L 119.638562 283.032869 
L 122.728291 283.032869 
L 122.728291 280.349119 
L 128.295518 280.349119 
L 128.295518 279.812369 
L 130.823096 279.812369 
L 130.823096 279.275618 
L 139.633052 279.275618 
L 139.633052 278.738868 
L 141.572577 278.738868 
L 141.572577 278.202118 
L 145.200279 278.202118 
L 145.200279 277.665368 
L 146.902241 277.665368 
L 146.902241 277.128618 
L 150.110921 277.128618 
L 150.110921 274.444867 
L 159.721976 274.444867 
L 159.721976 273.908117 
L 177.436321 273.908117 
L 177.436321 273.371367 
L 187.376218 273.371367 
L 187.376218 272.834617 
L 197.430811 272.834617 
L 197.430811 271.224366 
L 205.525616 271.224366 
L 205.525616 269.614116 
L 207.520843 269.614116 
L 207.520843 269.077366 
L 210.887967 269.077366 
L 210.887967 268.003865 
L 214.003361 268.003865 
L 214.003361 266.930365 
L 220.762464 266.930365 
L 220.762464 264.246614 
L 221.045125 264.246614 
L 221.045125 263.709864 
L 222.701989 263.709864 
L 222.701989 262.636364 
L 222.971843 262.636364 
L 222.971843 261.562864 
L 228.031653 261.562864 
L 228.031653 261.026113 
L 231.460346 261.026113 
L 231.460346 260.489363 
L 233.59888 260.489363 
L 233.59888 259.952613 
L 247.027272 259.952613 
L 247.027272 259.415863 
L 247.923914 259.415863 
L 247.923914 257.805613 
L 262.60186 257.805613 
L 262.60186 257.268862 
L 277.989087 257.268862 
L 277.989087 256.195362 
L 278.132607 256.195362 
L 278.132607 255.658612 
L 279.954744 255.658612 
L 279.954744 254.585112 
L 280.970852 254.585112 
L 280.970852 253.511611 
L 284.559498 253.511611 
L 284.559498 252.974861 
L 284.865386 252.974861 
L 284.865386 252.438111 
L 288.594553 252.438111 
L 288.594553 251.901361 
L 290.341082 251.901361 
L 290.341082 250.291111 
L 290.660564 250.291111 
L 290.660564 247.60736 
L 291.604581 247.60736 
L 291.708164 246.53386 
L 291.759859 246.53386 
L 291.759859 244.923609 
L 292.222255 244.923609 
L 292.222255 244.386859 
L 292.679579 244.386859 
L 292.679579 243.850109 
L 296.538264 243.850109 
L 296.538264 242.776609 
L 298.561466 242.776609 
L 298.60533 241.703108 
L 303.870059 241.703108 
L 303.870059 241.166358 
L 304.101255 241.166358 
L 304.101255 240.092858 
L 306.126278 240.092858 
L 306.126278 239.556108 
L 308.162193 239.556108 
L 308.162193 239.019358 
L 309.735673 239.019358 
L 309.735673 238.482607 
L 318.729053 238.482607 
L 318.729053 237.945857 
L 319.850168 237.945857 
L 319.850168 237.409107 
L 320.007894 237.409107 
L 320.007894 236.335607 
L 320.477524 236.335607 
L 320.477524 235.798857 
L 320.607044 235.798857 
L 320.607044 235.262107 
L 322.130682 235.262107 
L 322.130682 234.725356 
L 322.896606 234.725356 
L 322.896606 233.651856 
L 324.198089 233.651856 
L 324.198089 232.578356 
L 327.262387 232.578356 
L 327.262387 232.041606 
L 328.371926 232.041606 
L 328.371926 231.504855 
L 335.153076 231.504855 
L 335.153076 230.968105 
L 337.061073 230.968105 
L 337.061073 230.431355 
L 339.085284 230.431355 
L 339.085284 229.894605 
L 340.521403 229.894605 
L 340.521403 229.357855 
L 342.800065 229.357855 
L 342.800065 228.821105 
L 346.350488 228.821105 
L 346.350488 228.284355 
L 349.129203 228.284355 
L 349.129203 227.747604 
L 349.389374 227.747604 
L 349.389374 227.210854 
L 351.21616 227.210854 
L 351.21616 226.137354 
L 351.525314 226.137354 
L 351.525314 225.600604 
L 353.498427 225.600604 
L 353.498427 225.063854 
L 358.414291 225.063854 
L 358.476908 223.453603 
L 366.107844 223.453603 
L 366.107844 222.380103 
L 368.651255 222.380103 
L 368.651255 221.843353 
L 373.395438 221.843353 
L 373.395438 221.306603 
L 374.74417 221.306603 
L 374.74417 220.769853 
L 378.138854 220.769853 
L 378.138854 220.233102 
L 383.061785 220.233102 
L 383.061785 219.696352 
L 387.464334 219.696352 
L 387.464334 219.159602 
L 388.078948 219.159602 
L 388.078948 218.622852 
L 390.460303 218.622852 
L 390.460303 218.086102 
L 392.85036 218.086102 
L 392.85036 217.549352 
L 394.177894 217.549352 
L 394.177894 217.012602 
L 395.080473 217.012602 
L 395.080473 216.475851 
L 396.7 216.475851 
L 396.7 216.475851 
" style="fill:none;stroke:#000080;stroke-linecap:square;stroke-width:1.5;"/>
   </g>
   <g id="line2d_8">
    <defs>
     <path d="M 0 6 
C 1.591219 6 3.117479 5.367802 4.242641 4.242641 
C 5.367802 3.117479 6 1.591219 6 0 
C 6 -1.591219 5.367802 -3.117479 4.242641 -4.242641 
C 3.117479 -5.367802 1.591219 -6 0 -6 
C -1.591219 -6 -3.117479 -5.367802 -4.242641 -4.242641 
C -5.367802 -3.117479 -6 -1.591219 -6 0 
C -6 1.591219 -5.367802 3.117479 -4.242641 4.242641 
C -3.117479 5.367802 -1.591219 6 0 6 
z
" id="m53e4aefa95" style="stroke:#000080;stroke-width:1.5;"/>
    </defs>
    <g>
     <use style="fill:none;stroke:#000080;stroke-width:1.5;" x="122.728291425" xlink:href="#m53e4aefa95" y="283.032869467"/>
     <use style="fill:none;stroke:#000080;stroke-width:1.5;" x="197.430811462" xlink:href="#m53e4aefa95" y="271.224366264"/>
     <use style="fill:none;stroke:#000080;stroke-width:1.5;" x="290.341081858" xlink:href="#m53e4aefa95" y="250.291110585"/>
     <use style="fill:none;stroke:#000080;stroke-width:1.5;" x="358.476907819" xlink:href="#m53e4aefa95" y="224.527103596"/>
     <use style="fill:none;stroke:#000080;stroke-width:1.5;" x="395.080472775" xlink:href="#m53e4aefa95" y="216.475851412"/>
     <use style="fill:none;stroke:#000080;stroke-width:1.5;" x="396.7" xlink:href="#m53e4aefa95" y="216.475851412"/>
    </g>
   </g>
   <g id="line2d_9"/>
   <g id="line2d_10">
    <path clip-path="url(#p0b753d0391)" d="M 291.552692 247.60736 
" style="fill:none;stroke:#000080;stroke-linecap:square;"/>
    <defs>
     <path d="M -12 12 
L 12 -12 
M -12 -12 
L 12 12 
" id="m1321b49cc4" style="stroke:#000080;stroke-width:3.0;"/>
    </defs>
    <g clip-path="url(#p0b753d0391)">
     <use style="fill:#000080;stroke:#000080;stroke-width:3.0;" x="291.552692347" xlink:href="#m1321b49cc4" y="247.607359857"/>
    </g>
   </g>
   <g id="line2d_11">
    <defs>
     <path d="M 0 1.5 
C 0.397805 1.5 0.77937 1.341951 1.06066 1.06066 
C 1.341951 0.77937 1.5 0.397805 1.5 0 
C 1.5 -0.397805 1.341951 -0.77937 1.06066 -1.06066 
C 0.77937 -1.341951 0.397805 -1.5 0 -1.5 
C -0.397805 -1.5 -0.77937 -1.341951 -1.06066 -1.06066 
C -1.341951 -0.77937 -1.5 -0.397805 -1.5 0 
C -1.5 0.397805 -1.341951 0.77937 -1.06066 1.06066 
C -0.77937 1.341951 -0.397805 1.5 0 1.5 
z
" id="m26e4db9df8" style="stroke:#ff00ff;stroke-width:0.5;"/>
    </defs>
    <g>
     <use style="fill:#ff00ff;stroke:#ff00ff;stroke-width:0.5;" x="458.558540679" xlink:href="#m26e4db9df8" y="217.549351704"/>
     <use style="fill:#ff00ff;stroke:#ff00ff;stroke-width:0.5;" x="458.558540679" xlink:href="#m26e4db9df8" y="217.549351704"/>
    </g>
   </g>
   <g id="line2d_12">
    <path d="M 12.7 303.429375 
L 12.7 302.355875 
L 41.59888 302.355875 
L 41.59888 301.282374 
L 58.50364 301.282374 
L 58.50364 298.598624 
L 79.80112 298.598624 
L 79.80112 296.451623 
L 87.40252 296.451623 
L 87.40252 295.914873 
L 99.396639 295.914873 
L 99.396639 294.841373 
L 104.307281 294.841373 
L 104.307281 292.157622 
L 112.673698 292.157622 
L 112.673698 291.084122 
L 122.728291 291.084122 
L 122.728291 290.010621 
L 133.20616 290.010621 
L 133.20616 287.326871 
L 139.633052 287.326871 
L 139.633052 285.17987 
L 141.572577 285.17987 
L 141.572577 284.10637 
L 143.425872 284.10637 
L 143.425872 283.56962 
L 145.200279 283.56962 
L 145.200279 283.032869 
L 146.902241 283.032869 
L 146.902241 279.812369 
L 153.090208 279.812369 
L 153.090208 278.738868 
L 157.194398 278.738868 
L 157.194398 275.518367 
L 162.10504 275.518367 
L 162.10504 272.834617 
L 167.52725 272.834617 
L 167.52725 271.761116 
L 170.471457 271.761116 
L 170.471457 270.150866 
L 178.230483 270.150866 
L 178.230483 269.614116 
L 181.263986 269.614116 
L 181.263986 268.540616 
L 185.436693 268.540616 
L 185.436693 268.003865 
L 190.420801 268.003865 
L 190.420801 265.856865 
L 193.258105 265.856865 
L 193.258105 263.709864 
L 196.931497 263.709864 
L 196.931497 263.173114 
L 206.734173 263.173114 
L 206.734173 262.099614 
L 207.129363 262.099614 
L 207.129363 261.562864 
L 217.519735 261.562864 
L 217.519735 261.026113 
L 224.034124 261.026113 
L 224.034124 260.489363 
L 227.067627 260.489363 
L 227.067627 259.952613 
L 227.552426 259.952613 
L 227.552426 259.415863 
L 232.328966 259.415863 
L 232.328966 258.879113 
L 237.572577 258.879113 
L 237.572577 258.342363 
L 254.350806 258.342363 
L 254.350806 256.732112 
L 257.168096 256.732112 
L 257.168096 256.195362 
L 261.548969 256.195362 
L 261.548969 255.658612 
L 269.750267 255.658612 
L 269.750267 254.585112 
L 278.489258 254.585112 
L 278.489258 253.511611 
L 278.842884 253.511611 
L 278.842884 252.974861 
L 290.713574 252.974861 
L 290.713574 251.901361 
L 291.656405 251.901361 
L 291.656405 251.364611 
L 292.222255 251.364611 
L 292.222255 250.827861 
L 292.42613 250.827861 
L 292.42613 249.21761 
L 292.830912 249.21761 
L 292.830912 248.14411 
L 293.480416 248.14411 
L 293.480416 247.60736 
L 294.168747 247.60736 
L 294.168747 246.53386 
L 294.411851 246.53386 
L 294.411851 245.997109 
L 295.132773 245.997109 
L 295.132773 245.460359 
L 298.031472 245.460359 
L 298.031472 244.923609 
L 298.385549 244.923609 
L 298.385549 244.386859 
L 298.867546 244.386859 
L 298.867546 243.850109 
L 299.515961 243.850109 
L 299.515961 242.776609 
L 299.77253 242.776609 
L 299.77253 242.239858 
L 300.866436 242.239858 
L 300.866436 241.703108 
L 309.296981 241.703108 
L 309.296981 241.166358 
L 314.00737 241.166358 
L 314.00737 240.629608 
L 316.988746 240.629608 
L 316.988746 240.092858 
L 320.112714 240.092858 
L 320.112714 239.556108 
L 320.295518 239.556108 
L 320.399619 238.482607 
L 320.941923 238.482607 
L 320.941923 237.945857 
L 321.29958 237.945857 
L 321.29958 236.335607 
L 321.426574 236.335607 
L 321.502586 235.262107 
L 321.578459 235.262107 
L 321.578459 234.725356 
L 322.453591 234.725356 
L 322.453591 234.188606 
L 323.359182 234.188606 
L 323.359182 233.651856 
L 324.174353 233.651856 
L 324.174353 233.115106 
L 328.735306 233.115106 
L 328.735306 232.578356 
L 329.074442 232.578356 
L 329.074442 232.041606 
L 329.869002 232.041606 
L 329.869002 231.504855 
L 332.80756 231.504855 
L 332.80756 230.968105 
L 336.798801 230.968105 
L 336.798801 230.431355 
L 336.991295 230.431355 
L 336.991295 229.894605 
L 337.597928 229.894605 
L 337.597928 229.357855 
L 339.564037 229.357855 
L 339.629642 227.747604 
L 348.827985 227.747604 
L 348.827985 227.210854 
L 349.2855 227.210854 
L 349.2855 226.674104 
L 350.779457 226.674104 
L 350.779457 226.137354 
L 366.890699 226.137354 
L 366.890699 225.600604 
L 371.956352 225.600604 
L 371.956352 225.063854 
L 372.219681 225.063854 
L 372.219681 224.527104 
L 377.720292 224.527104 
L 377.720292 223.990353 
L 382.309081 223.990353 
L 382.309081 223.453603 
L 386.930213 223.453603 
L 386.930213 222.916853 
L 387.542307 222.916853 
L 387.542307 222.380103 
L 394.980663 222.380103 
L 394.980663 221.843353 
L 396.7 221.843353 
L 396.7 221.843353 
" style="fill:none;stroke:#ff00ff;stroke-linecap:square;stroke-width:1.5;"/>
   </g>
   <g id="line2d_13">
    <defs>
     <path d="M -0 8.485281 
L 5.091169 0 
L 0 -8.485281 
L -5.091169 -0 
z
" id="m76dbf53eb0" style="stroke:#ff00ff;stroke-linejoin:miter;stroke-width:1.5;"/>
    </defs>
    <g>
     <use style="fill:none;stroke:#ff00ff;stroke-linejoin:miter;stroke-width:1.5;" x="58.5036404531" xlink:href="#m76dbf53eb0" y="298.59862369"/>
     <use style="fill:none;stroke:#ff00ff;stroke-linejoin:miter;stroke-width:1.5;" x="141.572577359" xlink:href="#m76dbf53eb0" y="285.17987005"/>
     <use style="fill:none;stroke:#ff00ff;stroke-linejoin:miter;stroke-width:1.5;" x="224.034123935" xlink:href="#m76dbf53eb0" y="260.489363352"/>
     <use style="fill:none;stroke:#ff00ff;stroke-linejoin:miter;stroke-width:1.5;" x="292.426129829" xlink:href="#m76dbf53eb0" y="249.217610294"/>
     <use style="fill:none;stroke:#ff00ff;stroke-linejoin:miter;stroke-width:1.5;" x="382.309081061" xlink:href="#m76dbf53eb0" y="223.453603305"/>
     <use style="fill:none;stroke:#ff00ff;stroke-linejoin:miter;stroke-width:1.5;" x="396.7" xlink:href="#m76dbf53eb0" y="221.843352868"/>
    </g>
   </g>
   <g id="line2d_14"/>
   <g id="line2d_15">
    <path clip-path="url(#p0b753d0391)" d="M 290.554342 252.974861 
" style="fill:none;stroke:#ff00ff;stroke-linecap:square;"/>
    <defs>
     <path d="M -12 12 
L 12 -12 
M -12 -12 
L 12 12 
" id="mb37df7e709" style="stroke:#ff00ff;stroke-width:3.0;"/>
    </defs>
    <g clip-path="url(#p0b753d0391)">
     <use style="fill:#ff00ff;stroke:#ff00ff;stroke-width:3.0;" x="290.554342018" xlink:href="#mb37df7e709" y="252.974861313"/>
    </g>
   </g>
   <g id="line2d_16">
    <defs>
     <path d="M 0 1.5 
C 0.397805 1.5 0.77937 1.341951 1.06066 1.06066 
C 1.341951 0.77937 1.5 0.397805 1.5 0 
C 1.5 -0.397805 1.341951 -0.77937 1.06066 -1.06066 
C 0.77937 -1.341951 0.397805 -1.5 0 -1.5 
C -0.397805 -1.5 -0.77937 -1.341951 -1.06066 -1.06066 
C -1.341951 -0.77937 -1.5 -0.397805 -1.5 0 
C -1.5 0.397805 -1.341951 0.77937 -1.06066 1.06066 
C -0.77937 1.341951 -0.397805 1.5 0 1.5 
z
" id="m67061738d7" style="stroke:#ffa500;stroke-width:0.5;"/>
    </defs>
    <g>
     <use style="fill:#ffa500;stroke:#ffa500;stroke-width:0.5;" x="415.689198705" xlink:href="#m67061738d7" y="212.181850248"/>
     <use style="fill:#ffa500;stroke:#ffa500;stroke-width:0.5;" x="415.689198705" xlink:href="#m67061738d7" y="212.181850248"/>
    </g>
   </g>
   <g id="line2d_17">
    <path d="M 12.7 303.429375 
L 12.7 301.282374 
L 41.59888 301.282374 
L 41.59888 298.061874 
L 58.50364 298.061874 
L 58.50364 297.525123 
L 87.40252 297.525123 
L 87.40252 295.914873 
L 99.396639 295.914873 
L 99.396639 295.378123 
L 116.3014 295.378123 
L 116.3014 294.841373 
L 119.638562 294.841373 
L 119.638562 294.304623 
L 125.604761 294.304623 
L 125.604761 293.231122 
L 128.295518 293.231122 
L 128.295518 292.694372 
L 130.823096 292.694372 
L 130.823096 290.010621 
L 135.460346 290.010621 
L 135.460346 287.863621 
L 137.59888 287.863621 
L 137.59888 285.17987 
L 139.633052 285.17987 
L 139.633052 284.64312 
L 145.200279 284.64312 
L 145.200279 283.56962 
L 148.537441 283.56962 
L 148.537441 283.032869 
L 150.110921 283.032869 
L 150.110921 282.496119 
L 151.627171 282.496119 
L 151.627171 281.959369 
L 153.090208 281.959369 
L 153.090208 281.422619 
L 159.721976 281.422619 
L 159.721976 280.885869 
L 165.442202 280.885869 
L 165.442202 279.812369 
L 167.52725 279.812369 
L 167.52725 279.275618 
L 170.471457 279.275618 
L 170.471457 278.738868 
L 179.009801 278.738868 
L 179.009801 277.665368 
L 188.620856 277.665368 
L 188.620856 276.591868 
L 191.578995 276.591868 
L 191.578995 274.444867 
L 193.80311 274.444867 
L 193.80311 272.297867 
L 195.396639 272.297867 
L 195.396639 271.761116 
L 196.42613 271.761116 
L 196.42613 270.150866 
L 196.931497 270.150866 
L 196.931497 269.614116 
L 202.998038 269.614116 
L 202.998038 269.077366 
L 204.7 269.077366 
L 204.7 268.540616 
L 205.525616 268.540616 
L 205.525616 268.003865 
L 212.3014 268.003865 
L 212.3014 267.467115 
L 212.990544 267.467115 
L 212.990544 266.930365 
L 214.665157 266.930365 
L 214.665157 266.393615 
L 218.128392 266.393615 
L 218.128392 265.856865 
L 220.477874 265.856865 
L 220.477874 265.320115 
L 224.295518 265.320115 
L 224.295518 264.246614 
L 228.031653 264.246614 
L 228.031653 262.636364 
L 229.20616 262.636364 
L 229.20616 261.026113 
L 229.666853 261.026113 
L 229.666853 259.952613 
L 229.895305 259.952613 
L 229.895305 259.415863 
L 230.796794 259.415863 
L 230.796794 258.879113 
L 231.679203 258.879113 
L 231.679203 257.805613 
L 236.028243 257.805613 
L 236.028243 256.732112 
L 236.224442 256.732112 
L 236.224442 256.195362 
L 238.69441 256.195362 
L 238.69441 255.658612 
L 239.966168 255.658612 
L 239.966168 254.585112 
L 241.718202 254.585112 
L 241.718202 253.511611 
L 246.265052 253.511611 
L 246.265052 252.974861 
L 247.027272 252.974861 
L 247.027272 252.438111 
L 247.178058 252.438111 
L 247.178058 251.901361 
L 247.775807 251.901361 
L 247.775807 251.364611 
L 247.923914 251.364611 
L 247.923914 250.827861 
L 253.96889 250.827861 
L 253.96889 249.75436 
L 256.691607 249.75436 
L 256.691607 249.21761 
L 259.359895 249.21761 
L 259.359895 248.14411 
L 260.02877 248.14411 
L 260.02877 247.07061 
L 271.297787 247.07061 
L 271.297787 245.997109 
L 272.708406 245.997109 
L 272.708406 245.460359 
L 273.033494 245.460359 
L 273.033494 244.923609 
L 274.543961 244.923609 
L 274.543961 244.386859 
L 275.240784 244.386859 
L 275.240784 243.850109 
L 276.674686 243.850109 
L 276.674686 243.313359 
L 278.418171 243.313359 
L 278.418171 242.776609 
L 279.886114 242.776609 
L 279.886114 242.239858 
L 282.739682 242.239858 
L 282.739682 241.166358 
L 284.313162 241.166358 
L 284.313162 240.629608 
L 284.620856 240.629608 
L 284.620856 240.092858 
L 284.7433 240.092858 
L 284.7433 239.556108 
L 286.362039 239.556108 
L 286.362039 239.019358 
L 290.019132 239.019358 
L 290.019132 237.945857 
L 290.394499 237.945857 
L 290.447848 236.872357 
L 291.030226 236.872357 
L 291.082768 235.798857 
L 291.656405 235.798857 
L 291.656405 235.262107 
L 294.266159 235.262107 
L 294.266159 234.725356 
L 295.841441 234.725356 
L 295.841441 234.188606 
L 296.121569 234.188606 
L 296.121569 233.651856 
L 296.538264 233.651856 
L 296.538264 233.115106 
L 300.069878 233.115106 
L 300.069878 232.578356 
L 301.32074 232.578356 
L 301.32074 232.041606 
L 302.093972 232.041606 
L 302.093972 231.504855 
L 306.526993 231.504855 
L 306.526993 230.968105 
L 307.987529 230.968105 
L 307.987529 230.431355 
L 309.195085 230.431355 
L 309.195085 229.894605 
L 310.467719 229.894605 
L 310.467719 229.357855 
L 310.697973 229.357855 
L 310.697973 228.284355 
L 311.089759 228.284355 
L 311.089759 227.747604 
L 317.18574 227.747604 
L 317.18574 227.210854 
L 317.909389 227.210854 
L 317.909389 226.674104 
L 320.555284 226.674104 
L 320.555284 226.137354 
L 323.455916 226.137354 
L 323.455916 225.600604 
L 324.787139 225.600604 
L 324.810529 224.527104 
L 326.122511 224.527104 
L 326.122511 223.990353 
L 328.135098 223.990353 
L 328.135098 223.453603 
L 334.174642 223.453603 
L 334.174642 222.916853 
L 334.490988 222.916853 
L 334.490988 222.380103 
L 335.006851 222.380103 
L 335.116568 220.769853 
L 335.189552 220.769853 
L 335.189552 220.233102 
L 335.750889 220.233102 
L 335.750889 219.696352 
L 354.942009 219.696352 
L 354.942009 219.159602 
L 356.370195 219.159602 
L 356.370195 218.622852 
L 356.621717 218.622852 
L 356.621717 218.086102 
L 358.362039 218.086102 
L 358.362039 217.549352 
L 360.541857 217.549352 
L 360.541857 217.012602 
L 361.33808 217.012602 
L 361.33808 216.475851 
L 372.466448 216.475851 
L 372.466448 215.939101 
L 375.291192 215.939101 
L 375.291192 215.402351 
L 383.188808 215.402351 
L 383.240661 214.328851 
L 396.7 214.328851 
L 396.7 214.328851 
" style="fill:none;stroke:#ffa500;stroke-linecap:square;stroke-width:1.5;"/>
   </g>
   <g id="line2d_18">
    <defs>
     <path d="M 0 -6 
L -1.347084 -1.854102 
L -5.706339 -1.854102 
L -2.179628 0.708204 
L -3.526712 4.854102 
L -0 2.291796 
L 3.526712 4.854102 
L 2.179628 0.708204 
L 5.706339 -1.854102 
L 1.347084 -1.854102 
z
" id="mab83721be7" style="stroke:#ffa500;stroke-linejoin:bevel;stroke-width:1.5;"/>
    </defs>
    <g>
     <use style="fill:none;stroke:#ffa500;stroke-linejoin:bevel;stroke-width:1.5;" x="99.3966387512" xlink:href="#mab83721be7" y="295.378122816"/>
     <use style="fill:none;stroke:#ffa500;stroke-linejoin:bevel;stroke-width:1.5;" x="191.578994572" xlink:href="#mab83721be7" y="276.59186772"/>
     <use style="fill:none;stroke:#ffa500;stroke-linejoin:bevel;stroke-width:1.5;" x="260.02876962" xlink:href="#mab83721be7" y="248.144110003"/>
     <use style="fill:none;stroke:#ffa500;stroke-linejoin:bevel;stroke-width:1.5;" x="328.135098283" xlink:href="#mab83721be7" y="223.990353451"/>
     <use style="fill:none;stroke:#ffa500;stroke-linejoin:bevel;stroke-width:1.5;" x="383.240660558" xlink:href="#mab83721be7" y="214.32885083"/>
     <use style="fill:none;stroke:#ffa500;stroke-linejoin:bevel;stroke-width:1.5;" x="396.7" xlink:href="#mab83721be7" y="214.32885083"/>
    </g>
   </g>
   <g id="line2d_19"/>
   <g id="line2d_20">
    <path clip-path="url(#p0b753d0391)" d="M 271.80112 245.997109 
" style="fill:none;stroke:#ffa500;stroke-linecap:square;"/>
    <defs>
     <path d="M -12 12 
L 12 -12 
M -12 -12 
L 12 12 
" id="mf42f881593" style="stroke:#ffa500;stroke-width:3.0;"/>
    </defs>
    <g clip-path="url(#p0b753d0391)">
     <use style="fill:#ffa500;stroke:#ffa500;stroke-width:3.0;" x="271.801120416" xlink:href="#mf42f881593" y="245.997109421"/>
    </g>
   </g>
   <g id="line2d_21">
    <path d="M 396.7 221.843353 
L 428.38 297.954524 
" style="fill:none;stroke:#ff00ff;stroke-linecap:square;stroke-width:1.5;"/>
    <g>
     <use style="fill:none;stroke:#ff00ff;stroke-linejoin:miter;stroke-width:1.5;" x="396.7" xlink:href="#m76dbf53eb0" y="221.843352868"/>
     <use style="fill:none;stroke:#ff00ff;stroke-linejoin:miter;stroke-width:1.5;" x="428.38" xlink:href="#m76dbf53eb0" y="297.954523515"/>
    </g>
   </g>
   <g id="line2d_22">
    <path d="M 396.7 216.475851 
L 428.38 210.3569 
" style="fill:none;stroke:#000080;stroke-linecap:square;stroke-width:1.5;"/>
    <g>
     <use style="fill:none;stroke:#000080;stroke-width:1.5;" x="396.7" xlink:href="#m53e4aefa95" y="216.475851412"/>
     <use style="fill:none;stroke:#000080;stroke-width:1.5;" x="428.38" xlink:href="#m53e4aefa95" y="210.356899752"/>
    </g>
   </g>
   <g id="line2d_23">
    <path d="M 396.7 214.328851 
L 428.38 122.759276 
" style="fill:none;stroke:#ffa500;stroke-linecap:square;stroke-width:1.5;"/>
    <g>
     <use style="fill:none;stroke:#ffa500;stroke-linejoin:bevel;stroke-width:1.5;" x="396.7" xlink:href="#mab83721be7" y="214.32885083"/>
     <use style="fill:none;stroke:#ffa500;stroke-linejoin:bevel;stroke-width:1.5;" x="428.38" xlink:href="#mab83721be7" y="122.75927599"/>
    </g>
   </g>
   <g id="line2d_24">
    <path d="M 396.7 303.429375 
L 396.7 29.686801 
" style="fill:none;stroke:#000000;stroke-linecap:square;"/>
   </g>
   <g id="patch_3">
    <path d="M 108.7 26.949375 
L 465.82 26.949375 
" style="fill:none;stroke:#000000;stroke-linecap:square;stroke-linejoin:miter;"/>
   </g>
   <g id="patch_4">
    <path d="M 465.82 303.429375 
L 465.82 26.949375 
" style="fill:none;stroke:#000000;stroke-linecap:square;stroke-linejoin:miter;"/>
   </g>
   <g id="patch_5">
    <path d="M 108.7 303.429375 
L 465.82 303.429375 
" style="fill:none;stroke:#000000;stroke-linecap:square;stroke-linejoin:miter;"/>
   </g>
   <g id="patch_6">
    <path d="M 108.7 303.429375 
L 108.7 26.949375 
" style="fill:none;stroke:#000000;stroke-linecap:square;stroke-linejoin:miter;"/>
   </g>
   <g id="matplotlib.axis_1">
    <g id="xtick_1">
     <g id="line2d_25">
      <path clip-path="url(#p0b753d0391)" d="M 108.7 303.429375 
L 108.7 26.949375 
" style="fill:none;stroke:#000000;stroke-dasharray:1.000000,3.000000;stroke-dashoffset:0.0;stroke-width:0.5;"/>
     </g>
     <g id="line2d_26">
      <defs>
       <path d="M 0 0 
L 0 -4 
" id="me6fafc2b46" style="stroke:#000000;stroke-width:0.5;"/>
      </defs>
      <g>
       <use style="stroke:#000000;stroke-width:0.5;" x="108.7" xlink:href="#me6fafc2b46" y="303.429375"/>
      </g>
     </g>
     <g id="line2d_27">
      <defs>
       <path d="M 0 0 
L 0 4 
" id="m9d1d45bb3d" style="stroke:#000000;stroke-width:0.5;"/>
      </defs>
      <g>
       <use style="stroke:#000000;stroke-width:0.5;" x="108.7" xlink:href="#m9d1d45bb3d" y="26.949375"/>
      </g>
     </g>
     <g id="text_1">
      <!-- 0 -->
      <defs>
       <path d="M 31.78125 66.40625 
Q 24.171875 66.40625 20.328125 58.90625 
Q 16.5 51.421875 16.5 36.375 
Q 16.5 21.390625 20.328125 13.890625 
Q 24.171875 6.390625 31.78125 6.390625 
Q 39.453125 6.390625 43.28125 13.890625 
Q 47.125 21.390625 47.125 36.375 
Q 47.125 51.421875 43.28125 58.90625 
Q 39.453125 66.40625 31.78125 66.40625 
M 31.78125 74.21875 
Q 44.046875 74.21875 50.515625 64.515625 
Q 56.984375 54.828125 56.984375 36.375 
Q 56.984375 17.96875 50.515625 8.265625 
Q 44.046875 -1.421875 31.78125 -1.421875 
Q 19.53125 -1.421875 13.0625 8.265625 
Q 6.59375 17.96875 6.59375 36.375 
Q 6.59375 54.828125 13.0625 64.515625 
Q 19.53125 74.21875 31.78125 74.21875 
" id="BitstreamVeraSans-Roman-30"/>
      </defs>
      <g transform="translate(102.3375 322.62625)scale(0.2 -0.2)">
       <use xlink:href="#BitstreamVeraSans-Roman-30"/>
      </g>
     </g>
    </g>
    <g id="xtick_2">
     <g id="line2d_28">
      <path clip-path="url(#p0b753d0391)" d="M 204.7 303.429375 
L 204.7 26.949375 
" style="fill:none;stroke:#000000;stroke-dasharray:1.000000,3.000000;stroke-dashoffset:0.0;stroke-width:0.5;"/>
     </g>
     <g id="line2d_29">
      <g>
       <use style="stroke:#000000;stroke-width:0.5;" x="204.7" xlink:href="#me6fafc2b46" y="303.429375"/>
      </g>
     </g>
     <g id="line2d_30">
      <g>
       <use style="stroke:#000000;stroke-width:0.5;" x="204.7" xlink:href="#m9d1d45bb3d" y="26.949375"/>
      </g>
     </g>
     <g id="text_2">
      <!-- 1 -->
      <defs>
       <path d="M 12.40625 8.296875 
L 28.515625 8.296875 
L 28.515625 63.921875 
L 10.984375 60.40625 
L 10.984375 69.390625 
L 28.421875 72.90625 
L 38.28125 72.90625 
L 38.28125 8.296875 
L 54.390625 8.296875 
L 54.390625 0 
L 12.40625 0 
z
" id="BitstreamVeraSans-Roman-31"/>
      </defs>
      <g transform="translate(198.3375 322.62625)scale(0.2 -0.2)">
       <use xlink:href="#BitstreamVeraSans-Roman-31"/>
      </g>
     </g>
    </g>
    <g id="xtick_3">
     <g id="line2d_31">
      <path clip-path="url(#p0b753d0391)" d="M 300.7 303.429375 
L 300.7 26.949375 
" style="fill:none;stroke:#000000;stroke-dasharray:1.000000,3.000000;stroke-dashoffset:0.0;stroke-width:0.5;"/>
     </g>
     <g id="line2d_32">
      <g>
       <use style="stroke:#000000;stroke-width:0.5;" x="300.7" xlink:href="#me6fafc2b46" y="303.429375"/>
      </g>
     </g>
     <g id="line2d_33">
      <g>
       <use style="stroke:#000000;stroke-width:0.5;" x="300.7" xlink:href="#m9d1d45bb3d" y="26.949375"/>
      </g>
     </g>
     <g id="text_3">
      <!-- 2 -->
      <defs>
       <path d="M 19.1875 8.296875 
L 53.609375 8.296875 
L 53.609375 0 
L 7.328125 0 
L 7.328125 8.296875 
Q 12.9375 14.109375 22.625 23.890625 
Q 32.328125 33.6875 34.8125 36.53125 
Q 39.546875 41.84375 41.421875 45.53125 
Q 43.3125 49.21875 43.3125 52.78125 
Q 43.3125 58.59375 39.234375 62.25 
Q 35.15625 65.921875 28.609375 65.921875 
Q 23.96875 65.921875 18.8125 64.3125 
Q 13.671875 62.703125 7.8125 59.421875 
L 7.8125 69.390625 
Q 13.765625 71.78125 18.9375 73 
Q 24.125 74.21875 28.421875 74.21875 
Q 39.75 74.21875 46.484375 68.546875 
Q 53.21875 62.890625 53.21875 53.421875 
Q 53.21875 48.921875 51.53125 44.890625 
Q 49.859375 40.875 45.40625 35.40625 
Q 44.1875 33.984375 37.640625 27.21875 
Q 31.109375 20.453125 19.1875 8.296875 
" id="BitstreamVeraSans-Roman-32"/>
      </defs>
      <g transform="translate(294.3375 322.62625)scale(0.2 -0.2)">
       <use xlink:href="#BitstreamVeraSans-Roman-32"/>
      </g>
     </g>
    </g>
    <g id="xtick_4">
     <g id="line2d_34">
      <path clip-path="url(#p0b753d0391)" d="M 396.7 303.429375 
L 396.7 26.949375 
" style="fill:none;stroke:#000000;stroke-dasharray:1.000000,3.000000;stroke-dashoffset:0.0;stroke-width:0.5;"/>
     </g>
     <g id="line2d_35">
      <g>
       <use style="stroke:#000000;stroke-width:0.5;" x="396.7" xlink:href="#me6fafc2b46" y="303.429375"/>
      </g>
     </g>
     <g id="line2d_36">
      <g>
       <use style="stroke:#000000;stroke-width:0.5;" x="396.7" xlink:href="#m9d1d45bb3d" y="26.949375"/>
      </g>
     </g>
     <g id="text_4">
      <!-- 3 -->
      <defs>
       <path d="M 40.578125 39.3125 
Q 47.65625 37.796875 51.625 33 
Q 55.609375 28.21875 55.609375 21.1875 
Q 55.609375 10.40625 48.1875 4.484375 
Q 40.765625 -1.421875 27.09375 -1.421875 
Q 22.515625 -1.421875 17.65625 -0.515625 
Q 12.796875 0.390625 7.625 2.203125 
L 7.625 11.71875 
Q 11.71875 9.328125 16.59375 8.109375 
Q 21.484375 6.890625 26.8125 6.890625 
Q 36.078125 6.890625 40.9375 10.546875 
Q 45.796875 14.203125 45.796875 21.1875 
Q 45.796875 27.640625 41.28125 31.265625 
Q 36.765625 34.90625 28.71875 34.90625 
L 20.21875 34.90625 
L 20.21875 43.015625 
L 29.109375 43.015625 
Q 36.375 43.015625 40.234375 45.921875 
Q 44.09375 48.828125 44.09375 54.296875 
Q 44.09375 59.90625 40.109375 62.90625 
Q 36.140625 65.921875 28.71875 65.921875 
Q 24.65625 65.921875 20.015625 65.03125 
Q 15.375 64.15625 9.8125 62.3125 
L 9.8125 71.09375 
Q 15.4375 72.65625 20.34375 73.4375 
Q 25.25 74.21875 29.59375 74.21875 
Q 40.828125 74.21875 47.359375 69.109375 
Q 53.90625 64.015625 53.90625 55.328125 
Q 53.90625 49.265625 50.4375 45.09375 
Q 46.96875 40.921875 40.578125 39.3125 
" id="BitstreamVeraSans-Roman-33"/>
      </defs>
      <g transform="translate(390.3375 322.62625)scale(0.2 -0.2)">
       <use xlink:href="#BitstreamVeraSans-Roman-33"/>
      </g>
     </g>
    </g>
    <g id="xtick_5">
     <g id="line2d_37">
      <defs>
       <path d="M 0 0 
L 0 -2 
" id="m23d1815172" style="stroke:#000000;stroke-width:0.5;"/>
      </defs>
      <g>
       <use style="stroke:#000000;stroke-width:0.5;" x="137.598879584" xlink:href="#m23d1815172" y="303.429375"/>
      </g>
     </g>
     <g id="line2d_38">
      <defs>
       <path d="M 0 0 
L 0 2 
" id="m62d0c88631" style="stroke:#000000;stroke-width:0.5;"/>
      </defs>
      <g>
       <use style="stroke:#000000;stroke-width:0.5;" x="137.598879584" xlink:href="#m62d0c88631" y="26.949375"/>
      </g>
     </g>
    </g>
    <g id="xtick_6">
     <g id="line2d_39">
      <g>
       <use style="stroke:#000000;stroke-width:0.5;" x="154.503640453" xlink:href="#m23d1815172" y="303.429375"/>
      </g>
     </g>
     <g id="line2d_40">
      <g>
       <use style="stroke:#000000;stroke-width:0.5;" x="154.503640453" xlink:href="#m62d0c88631" y="26.949375"/>
      </g>
     </g>
    </g>
    <g id="xtick_7">
     <g id="line2d_41">
      <g>
       <use style="stroke:#000000;stroke-width:0.5;" x="166.497759167" xlink:href="#m23d1815172" y="303.429375"/>
      </g>
     </g>
     <g id="line2d_42">
      <g>
       <use style="stroke:#000000;stroke-width:0.5;" x="166.497759167" xlink:href="#m62d0c88631" y="26.949375"/>
      </g>
     </g>
    </g>
    <g id="xtick_8">
     <g id="line2d_43">
      <g>
       <use style="stroke:#000000;stroke-width:0.5;" x="175.801120416" xlink:href="#m23d1815172" y="303.429375"/>
      </g>
     </g>
     <g id="line2d_44">
      <g>
       <use style="stroke:#000000;stroke-width:0.5;" x="175.801120416" xlink:href="#m62d0c88631" y="26.949375"/>
      </g>
     </g>
    </g>
    <g id="xtick_9">
     <g id="line2d_45">
      <g>
       <use style="stroke:#000000;stroke-width:0.5;" x="183.402520037" xlink:href="#m23d1815172" y="303.429375"/>
      </g>
     </g>
     <g id="line2d_46">
      <g>
       <use style="stroke:#000000;stroke-width:0.5;" x="183.402520037" xlink:href="#m62d0c88631" y="26.949375"/>
      </g>
     </g>
    </g>
    <g id="xtick_10">
     <g id="line2d_47">
      <g>
       <use style="stroke:#000000;stroke-width:0.5;" x="189.829411841" xlink:href="#m23d1815172" y="303.429375"/>
      </g>
     </g>
     <g id="line2d_48">
      <g>
       <use style="stroke:#000000;stroke-width:0.5;" x="189.829411841" xlink:href="#m62d0c88631" y="26.949375"/>
      </g>
     </g>
    </g>
    <g id="xtick_11">
     <g id="line2d_49">
      <g>
       <use style="stroke:#000000;stroke-width:0.5;" x="195.396638751" xlink:href="#m23d1815172" y="303.429375"/>
      </g>
     </g>
     <g id="line2d_50">
      <g>
       <use style="stroke:#000000;stroke-width:0.5;" x="195.396638751" xlink:href="#m62d0c88631" y="26.949375"/>
      </g>
     </g>
    </g>
    <g id="xtick_12">
     <g id="line2d_51">
      <g>
       <use style="stroke:#000000;stroke-width:0.5;" x="200.307280906" xlink:href="#m23d1815172" y="303.429375"/>
      </g>
     </g>
     <g id="line2d_52">
      <g>
       <use style="stroke:#000000;stroke-width:0.5;" x="200.307280906" xlink:href="#m62d0c88631" y="26.949375"/>
      </g>
     </g>
    </g>
    <g id="xtick_13">
     <g id="line2d_53">
      <g>
       <use style="stroke:#000000;stroke-width:0.5;" x="233.598879584" xlink:href="#m23d1815172" y="303.429375"/>
      </g>
     </g>
     <g id="line2d_54">
      <g>
       <use style="stroke:#000000;stroke-width:0.5;" x="233.598879584" xlink:href="#m62d0c88631" y="26.949375"/>
      </g>
     </g>
    </g>
    <g id="xtick_14">
     <g id="line2d_55">
      <g>
       <use style="stroke:#000000;stroke-width:0.5;" x="250.503640453" xlink:href="#m23d1815172" y="303.429375"/>
      </g>
     </g>
     <g id="line2d_56">
      <g>
       <use style="stroke:#000000;stroke-width:0.5;" x="250.503640453" xlink:href="#m62d0c88631" y="26.949375"/>
      </g>
     </g>
    </g>
    <g id="xtick_15">
     <g id="line2d_57">
      <g>
       <use style="stroke:#000000;stroke-width:0.5;" x="262.497759167" xlink:href="#m23d1815172" y="303.429375"/>
      </g>
     </g>
     <g id="line2d_58">
      <g>
       <use style="stroke:#000000;stroke-width:0.5;" x="262.497759167" xlink:href="#m62d0c88631" y="26.949375"/>
      </g>
     </g>
    </g>
    <g id="xtick_16">
     <g id="line2d_59">
      <g>
       <use style="stroke:#000000;stroke-width:0.5;" x="271.801120416" xlink:href="#m23d1815172" y="303.429375"/>
      </g>
     </g>
     <g id="line2d_60">
      <g>
       <use style="stroke:#000000;stroke-width:0.5;" x="271.801120416" xlink:href="#m62d0c88631" y="26.949375"/>
      </g>
     </g>
    </g>
    <g id="xtick_17">
     <g id="line2d_61">
      <g>
       <use style="stroke:#000000;stroke-width:0.5;" x="279.402520037" xlink:href="#m23d1815172" y="303.429375"/>
      </g>
     </g>
     <g id="line2d_62">
      <g>
       <use style="stroke:#000000;stroke-width:0.5;" x="279.402520037" xlink:href="#m62d0c88631" y="26.949375"/>
      </g>
     </g>
    </g>
    <g id="xtick_18">
     <g id="line2d_63">
      <g>
       <use style="stroke:#000000;stroke-width:0.5;" x="285.829411841" xlink:href="#m23d1815172" y="303.429375"/>
      </g>
     </g>
     <g id="line2d_64">
      <g>
       <use style="stroke:#000000;stroke-width:0.5;" x="285.829411841" xlink:href="#m62d0c88631" y="26.949375"/>
      </g>
     </g>
    </g>
    <g id="xtick_19">
     <g id="line2d_65">
      <g>
       <use style="stroke:#000000;stroke-width:0.5;" x="291.396638751" xlink:href="#m23d1815172" y="303.429375"/>
      </g>
     </g>
     <g id="line2d_66">
      <g>
       <use style="stroke:#000000;stroke-width:0.5;" x="291.396638751" xlink:href="#m62d0c88631" y="26.949375"/>
      </g>
     </g>
    </g>
    <g id="xtick_20">
     <g id="line2d_67">
      <g>
       <use style="stroke:#000000;stroke-width:0.5;" x="296.307280906" xlink:href="#m23d1815172" y="303.429375"/>
      </g>
     </g>
     <g id="line2d_68">
      <g>
       <use style="stroke:#000000;stroke-width:0.5;" x="296.307280906" xlink:href="#m62d0c88631" y="26.949375"/>
      </g>
     </g>
    </g>
    <g id="xtick_21">
     <g id="line2d_69">
      <g>
       <use style="stroke:#000000;stroke-width:0.5;" x="329.598879584" xlink:href="#m23d1815172" y="303.429375"/>
      </g>
     </g>
     <g id="line2d_70">
      <g>
       <use style="stroke:#000000;stroke-width:0.5;" x="329.598879584" xlink:href="#m62d0c88631" y="26.949375"/>
      </g>
     </g>
    </g>
    <g id="xtick_22">
     <g id="line2d_71">
      <g>
       <use style="stroke:#000000;stroke-width:0.5;" x="346.503640453" xlink:href="#m23d1815172" y="303.429375"/>
      </g>
     </g>
     <g id="line2d_72">
      <g>
       <use style="stroke:#000000;stroke-width:0.5;" x="346.503640453" xlink:href="#m62d0c88631" y="26.949375"/>
      </g>
     </g>
    </g>
    <g id="xtick_23">
     <g id="line2d_73">
      <g>
       <use style="stroke:#000000;stroke-width:0.5;" x="358.497759167" xlink:href="#m23d1815172" y="303.429375"/>
      </g>
     </g>
     <g id="line2d_74">
      <g>
       <use style="stroke:#000000;stroke-width:0.5;" x="358.497759167" xlink:href="#m62d0c88631" y="26.949375"/>
      </g>
     </g>
    </g>
    <g id="xtick_24">
     <g id="line2d_75">
      <g>
       <use style="stroke:#000000;stroke-width:0.5;" x="367.801120416" xlink:href="#m23d1815172" y="303.429375"/>
      </g>
     </g>
     <g id="line2d_76">
      <g>
       <use style="stroke:#000000;stroke-width:0.5;" x="367.801120416" xlink:href="#m62d0c88631" y="26.949375"/>
      </g>
     </g>
    </g>
    <g id="xtick_25">
     <g id="line2d_77">
      <g>
       <use style="stroke:#000000;stroke-width:0.5;" x="375.402520037" xlink:href="#m23d1815172" y="303.429375"/>
      </g>
     </g>
     <g id="line2d_78">
      <g>
       <use style="stroke:#000000;stroke-width:0.5;" x="375.402520037" xlink:href="#m62d0c88631" y="26.949375"/>
      </g>
     </g>
    </g>
    <g id="xtick_26">
     <g id="line2d_79">
      <g>
       <use style="stroke:#000000;stroke-width:0.5;" x="381.829411841" xlink:href="#m23d1815172" y="303.429375"/>
      </g>
     </g>
     <g id="line2d_80">
      <g>
       <use style="stroke:#000000;stroke-width:0.5;" x="381.829411841" xlink:href="#m62d0c88631" y="26.949375"/>
      </g>
     </g>
    </g>
    <g id="xtick_27">
     <g id="line2d_81">
      <g>
       <use style="stroke:#000000;stroke-width:0.5;" x="387.396638751" xlink:href="#m23d1815172" y="303.429375"/>
      </g>
     </g>
     <g id="line2d_82">
      <g>
       <use style="stroke:#000000;stroke-width:0.5;" x="387.396638751" xlink:href="#m62d0c88631" y="26.949375"/>
      </g>
     </g>
    </g>
    <g id="xtick_28">
     <g id="line2d_83">
      <g>
       <use style="stroke:#000000;stroke-width:0.5;" x="392.307280906" xlink:href="#m23d1815172" y="303.429375"/>
      </g>
     </g>
     <g id="line2d_84">
      <g>
       <use style="stroke:#000000;stroke-width:0.5;" x="392.307280906" xlink:href="#m62d0c88631" y="26.949375"/>
      </g>
     </g>
    </g>
    <g id="xtick_29">
     <g id="line2d_85">
      <g>
       <use style="stroke:#000000;stroke-width:0.5;" x="425.598879584" xlink:href="#m23d1815172" y="303.429375"/>
      </g>
     </g>
     <g id="line2d_86">
      <g>
       <use style="stroke:#000000;stroke-width:0.5;" x="425.598879584" xlink:href="#m62d0c88631" y="26.949375"/>
      </g>
     </g>
    </g>
    <g id="xtick_30">
     <g id="line2d_87">
      <g>
       <use style="stroke:#000000;stroke-width:0.5;" x="442.503640453" xlink:href="#m23d1815172" y="303.429375"/>
      </g>
     </g>
     <g id="line2d_88">
      <g>
       <use style="stroke:#000000;stroke-width:0.5;" x="442.503640453" xlink:href="#m62d0c88631" y="26.949375"/>
      </g>
     </g>
    </g>
    <g id="xtick_31">
     <g id="line2d_89">
      <g>
       <use style="stroke:#000000;stroke-width:0.5;" x="454.497759167" xlink:href="#m23d1815172" y="303.429375"/>
      </g>
     </g>
     <g id="line2d_90">
      <g>
       <use style="stroke:#000000;stroke-width:0.5;" x="454.497759167" xlink:href="#m62d0c88631" y="26.949375"/>
      </g>
     </g>
    </g>
    <g id="xtick_32">
     <g id="line2d_91">
      <g>
       <use style="stroke:#000000;stroke-width:0.5;" x="463.801120416" xlink:href="#m23d1815172" y="303.429375"/>
      </g>
     </g>
     <g id="line2d_92">
      <g>
       <use style="stroke:#000000;stroke-width:0.5;" x="463.801120416" xlink:href="#m62d0c88631" y="26.949375"/>
      </g>
     </g>
    </g>
    <g id="text_5">
     <!-- log10 of (# f-evals / dimension) -->
     <defs>
      <path id="BitstreamVeraSans-Roman-20"/>
      <path d="M 51.125 44 
L 36.921875 44 
L 32.8125 27.6875 
L 47.125 27.6875 
z
M 43.796875 71.78125 
L 38.71875 51.515625 
L 52.984375 51.515625 
L 58.109375 71.78125 
L 65.921875 71.78125 
L 60.890625 51.515625 
L 76.125 51.515625 
L 76.125 44 
L 58.984375 44 
L 54.984375 27.6875 
L 70.515625 27.6875 
L 70.515625 20.21875 
L 53.078125 20.21875 
L 48 0 
L 40.1875 0 
L 45.21875 20.21875 
L 30.90625 20.21875 
L 25.875 0 
L 18.015625 0 
L 23.09375 20.21875 
L 7.71875 20.21875 
L 7.71875 27.6875 
L 24.90625 27.6875 
L 29 44 
L 13.28125 44 
L 13.28125 51.515625 
L 30.90625 51.515625 
L 35.890625 71.78125 
z
" id="BitstreamVeraSans-Roman-23"/>
      <path d="M 52 44.1875 
Q 55.375 50.25 60.0625 53.125 
Q 64.75 56 71.09375 56 
Q 79.640625 56 84.28125 50.015625 
Q 88.921875 44.046875 88.921875 33.015625 
L 88.921875 0 
L 79.890625 0 
L 79.890625 32.71875 
Q 79.890625 40.578125 77.09375 44.375 
Q 74.3125 48.1875 68.609375 48.1875 
Q 61.625 48.1875 57.5625 43.546875 
Q 53.515625 38.921875 53.515625 30.90625 
L 53.515625 0 
L 44.484375 0 
L 44.484375 32.71875 
Q 44.484375 40.625 41.703125 44.40625 
Q 38.921875 48.1875 33.109375 48.1875 
Q 26.21875 48.1875 22.15625 43.53125 
Q 18.109375 38.875 18.109375 30.90625 
L 18.109375 0 
L 9.078125 0 
L 9.078125 54.6875 
L 18.109375 54.6875 
L 18.109375 46.1875 
Q 21.1875 51.21875 25.484375 53.609375 
Q 29.78125 56 35.6875 56 
Q 41.65625 56 45.828125 52.96875 
Q 50 49.953125 52 44.1875 
" id="BitstreamVeraSans-Roman-6d"/>
      <path d="M 54.890625 33.015625 
L 54.890625 0 
L 45.90625 0 
L 45.90625 32.71875 
Q 45.90625 40.484375 42.875 44.328125 
Q 39.84375 48.1875 33.796875 48.1875 
Q 26.515625 48.1875 22.3125 43.546875 
Q 18.109375 38.921875 18.109375 30.90625 
L 18.109375 0 
L 9.078125 0 
L 9.078125 54.6875 
L 18.109375 54.6875 
L 18.109375 46.1875 
Q 21.34375 51.125 25.703125 53.5625 
Q 30.078125 56 35.796875 56 
Q 45.21875 56 50.046875 50.171875 
Q 54.890625 44.34375 54.890625 33.015625 
" id="BitstreamVeraSans-Roman-6e"/>
      <path d="M 31 75.875 
Q 24.46875 64.65625 21.28125 53.65625 
Q 18.109375 42.671875 18.109375 31.390625 
Q 18.109375 20.125 21.3125 9.0625 
Q 24.515625 -2 31 -13.1875 
L 23.1875 -13.1875 
Q 15.875 -1.703125 12.234375 9.375 
Q 8.59375 20.453125 8.59375 31.390625 
Q 8.59375 42.28125 12.203125 53.3125 
Q 15.828125 64.359375 23.1875 75.875 
z
" id="BitstreamVeraSans-Roman-28"/>
      <path d="M 30.609375 48.390625 
Q 23.390625 48.390625 19.1875 42.75 
Q 14.984375 37.109375 14.984375 27.296875 
Q 14.984375 17.484375 19.15625 11.84375 
Q 23.34375 6.203125 30.609375 6.203125 
Q 37.796875 6.203125 41.984375 11.859375 
Q 46.1875 17.53125 46.1875 27.296875 
Q 46.1875 37.015625 41.984375 42.703125 
Q 37.796875 48.390625 30.609375 48.390625 
M 30.609375 56 
Q 42.328125 56 49.015625 48.375 
Q 55.71875 40.765625 55.71875 27.296875 
Q 55.71875 13.875 49.015625 6.21875 
Q 42.328125 -1.421875 30.609375 -1.421875 
Q 18.84375 -1.421875 12.171875 6.21875 
Q 5.515625 13.875 5.515625 27.296875 
Q 5.515625 40.765625 12.171875 48.375 
Q 18.84375 56 30.609375 56 
" id="BitstreamVeraSans-Roman-6f"/>
      <path d="M 9.421875 75.984375 
L 18.40625 75.984375 
L 18.40625 0 
L 9.421875 0 
z
" id="BitstreamVeraSans-Roman-6c"/>
      <path d="M 2.984375 54.6875 
L 12.5 54.6875 
L 29.59375 8.796875 
L 46.6875 54.6875 
L 56.203125 54.6875 
L 35.6875 0 
L 23.484375 0 
z
" id="BitstreamVeraSans-Roman-76"/>
      <path d="M 9.421875 54.6875 
L 18.40625 54.6875 
L 18.40625 0 
L 9.421875 0 
z
M 9.421875 75.984375 
L 18.40625 75.984375 
L 18.40625 64.59375 
L 9.421875 64.59375 
z
" id="BitstreamVeraSans-Roman-69"/>
      <path d="M 4.890625 31.390625 
L 31.203125 31.390625 
L 31.203125 23.390625 
L 4.890625 23.390625 
z
" id="BitstreamVeraSans-Roman-2d"/>
      <path d="M 25.390625 72.90625 
L 33.6875 72.90625 
L 8.296875 -9.28125 
L 0 -9.28125 
z
" id="BitstreamVeraSans-Roman-2f"/>
      <path d="M 56.203125 29.59375 
L 56.203125 25.203125 
L 14.890625 25.203125 
Q 15.484375 15.921875 20.484375 11.0625 
Q 25.484375 6.203125 34.421875 6.203125 
Q 39.59375 6.203125 44.453125 7.46875 
Q 49.3125 8.734375 54.109375 11.28125 
L 54.109375 2.78125 
Q 49.265625 0.734375 44.1875 -0.34375 
Q 39.109375 -1.421875 33.890625 -1.421875 
Q 20.796875 -1.421875 13.15625 6.1875 
Q 5.515625 13.8125 5.515625 26.8125 
Q 5.515625 40.234375 12.765625 48.109375 
Q 20.015625 56 32.328125 56 
Q 43.359375 56 49.78125 48.890625 
Q 56.203125 41.796875 56.203125 29.59375 
M 47.21875 32.234375 
Q 47.125 39.59375 43.09375 43.984375 
Q 39.0625 48.390625 32.421875 48.390625 
Q 24.90625 48.390625 20.390625 44.140625 
Q 15.875 39.890625 15.1875 32.171875 
z
" id="BitstreamVeraSans-Roman-65"/>
      <path d="M 45.40625 46.390625 
L 45.40625 75.984375 
L 54.390625 75.984375 
L 54.390625 0 
L 45.40625 0 
L 45.40625 8.203125 
Q 42.578125 3.328125 38.25 0.953125 
Q 33.9375 -1.421875 27.875 -1.421875 
Q 17.96875 -1.421875 11.734375 6.484375 
Q 5.515625 14.40625 5.515625 27.296875 
Q 5.515625 40.1875 11.734375 48.09375 
Q 17.96875 56 27.875 56 
Q 33.9375 56 38.25 53.625 
Q 42.578125 51.265625 45.40625 46.390625 
M 14.796875 27.296875 
Q 14.796875 17.390625 18.875 11.75 
Q 22.953125 6.109375 30.078125 6.109375 
Q 37.203125 6.109375 41.296875 11.75 
Q 45.40625 17.390625 45.40625 27.296875 
Q 45.40625 37.203125 41.296875 42.84375 
Q 37.203125 48.484375 30.078125 48.484375 
Q 22.953125 48.484375 18.875 42.84375 
Q 14.796875 37.203125 14.796875 27.296875 
" id="BitstreamVeraSans-Roman-64"/>
      <path d="M 45.40625 27.984375 
Q 45.40625 37.75 41.375 43.109375 
Q 37.359375 48.484375 30.078125 48.484375 
Q 22.859375 48.484375 18.828125 43.109375 
Q 14.796875 37.75 14.796875 27.984375 
Q 14.796875 18.265625 18.828125 12.890625 
Q 22.859375 7.515625 30.078125 7.515625 
Q 37.359375 7.515625 41.375 12.890625 
Q 45.40625 18.265625 45.40625 27.984375 
M 54.390625 6.78125 
Q 54.390625 -7.171875 48.1875 -13.984375 
Q 42 -20.796875 29.203125 -20.796875 
Q 24.46875 -20.796875 20.265625 -20.09375 
Q 16.0625 -19.390625 12.109375 -17.921875 
L 12.109375 -9.1875 
Q 16.0625 -11.328125 19.921875 -12.34375 
Q 23.78125 -13.375 27.78125 -13.375 
Q 36.625 -13.375 41.015625 -8.765625 
Q 45.40625 -4.15625 45.40625 5.171875 
L 45.40625 9.625 
Q 42.625 4.78125 38.28125 2.390625 
Q 33.9375 0 27.875 0 
Q 17.828125 0 11.671875 7.65625 
Q 5.515625 15.328125 5.515625 27.984375 
Q 5.515625 40.671875 11.671875 48.328125 
Q 17.828125 56 27.875 56 
Q 33.9375 56 38.28125 53.609375 
Q 42.625 51.21875 45.40625 46.390625 
L 45.40625 54.6875 
L 54.390625 54.6875 
z
" id="BitstreamVeraSans-Roman-67"/>
      <path d="M 37.109375 75.984375 
L 37.109375 68.5 
L 28.515625 68.5 
Q 23.6875 68.5 21.796875 66.546875 
Q 19.921875 64.59375 19.921875 59.515625 
L 19.921875 54.6875 
L 34.71875 54.6875 
L 34.71875 47.703125 
L 19.921875 47.703125 
L 19.921875 0 
L 10.890625 0 
L 10.890625 47.703125 
L 2.296875 47.703125 
L 2.296875 54.6875 
L 10.890625 54.6875 
L 10.890625 58.5 
Q 10.890625 67.625 15.140625 71.796875 
Q 19.390625 75.984375 28.609375 75.984375 
z
" id="BitstreamVeraSans-Roman-66"/>
      <path d="M 34.28125 27.484375 
Q 23.390625 27.484375 19.1875 25 
Q 14.984375 22.515625 14.984375 16.5 
Q 14.984375 11.71875 18.140625 8.90625 
Q 21.296875 6.109375 26.703125 6.109375 
Q 34.1875 6.109375 38.703125 11.40625 
Q 43.21875 16.703125 43.21875 25.484375 
L 43.21875 27.484375 
z
M 52.203125 31.203125 
L 52.203125 0 
L 43.21875 0 
L 43.21875 8.296875 
Q 40.140625 3.328125 35.546875 0.953125 
Q 30.953125 -1.421875 24.3125 -1.421875 
Q 15.921875 -1.421875 10.953125 3.296875 
Q 6 8.015625 6 15.921875 
Q 6 25.140625 12.171875 29.828125 
Q 18.359375 34.515625 30.609375 34.515625 
L 43.21875 34.515625 
L 43.21875 35.40625 
Q 43.21875 41.609375 39.140625 45 
Q 35.0625 48.390625 27.6875 48.390625 
Q 23 48.390625 18.546875 47.265625 
Q 14.109375 46.140625 10.015625 43.890625 
L 10.015625 52.203125 
Q 14.9375 54.109375 19.578125 55.046875 
Q 24.21875 56 28.609375 56 
Q 40.484375 56 46.34375 49.84375 
Q 52.203125 43.703125 52.203125 31.203125 
" id="BitstreamVeraSans-Roman-61"/>
      <path d="M 44.28125 53.078125 
L 44.28125 44.578125 
Q 40.484375 46.53125 36.375 47.5 
Q 32.28125 48.484375 27.875 48.484375 
Q 21.1875 48.484375 17.84375 46.4375 
Q 14.5 44.390625 14.5 40.28125 
Q 14.5 37.15625 16.890625 35.375 
Q 19.28125 33.59375 26.515625 31.984375 
L 29.59375 31.296875 
Q 39.15625 29.25 43.1875 25.515625 
Q 47.21875 21.78125 47.21875 15.09375 
Q 47.21875 7.46875 41.1875 3.015625 
Q 35.15625 -1.421875 24.609375 -1.421875 
Q 20.21875 -1.421875 15.453125 -0.5625 
Q 10.6875 0.296875 5.421875 2 
L 5.421875 11.28125 
Q 10.40625 8.6875 15.234375 7.390625 
Q 20.0625 6.109375 24.8125 6.109375 
Q 31.15625 6.109375 34.5625 8.28125 
Q 37.984375 10.453125 37.984375 14.40625 
Q 37.984375 18.0625 35.515625 20.015625 
Q 33.0625 21.96875 24.703125 23.78125 
L 21.578125 24.515625 
Q 13.234375 26.265625 9.515625 29.90625 
Q 5.8125 33.546875 5.8125 39.890625 
Q 5.8125 47.609375 11.28125 51.796875 
Q 16.75 56 26.8125 56 
Q 31.78125 56 36.171875 55.265625 
Q 40.578125 54.546875 44.28125 53.078125 
" id="BitstreamVeraSans-Roman-73"/>
      <path d="M 8.015625 75.875 
L 15.828125 75.875 
Q 23.140625 64.359375 26.78125 53.3125 
Q 30.421875 42.28125 30.421875 31.390625 
Q 30.421875 20.453125 26.78125 9.375 
Q 23.140625 -1.703125 15.828125 -13.1875 
L 8.015625 -13.1875 
Q 14.5 -2 17.703125 9.0625 
Q 20.90625 20.125 20.90625 31.390625 
Q 20.90625 42.671875 17.703125 53.65625 
Q 14.5 64.65625 8.015625 75.875 
" id="BitstreamVeraSans-Roman-29"/>
     </defs>
     <g transform="translate(144.91515625 345.4628125)scale(0.18 -0.18)">
      <use xlink:href="#BitstreamVeraSans-Roman-6c"/>
      <use x="27.783203125" xlink:href="#BitstreamVeraSans-Roman-6f"/>
      <use x="88.96484375" xlink:href="#BitstreamVeraSans-Roman-67"/>
      <use x="152.44140625" xlink:href="#BitstreamVeraSans-Roman-31"/>
      <use x="216.064453125" xlink:href="#BitstreamVeraSans-Roman-30"/>
      <use x="279.6875" xlink:href="#BitstreamVeraSans-Roman-20"/>
      <use x="311.474609375" xlink:href="#BitstreamVeraSans-Roman-6f"/>
      <use x="372.65625" xlink:href="#BitstreamVeraSans-Roman-66"/>
      <use x="407.861328125" xlink:href="#BitstreamVeraSans-Roman-20"/>
      <use x="439.6484375" xlink:href="#BitstreamVeraSans-Roman-28"/>
      <use x="478.662109375" xlink:href="#BitstreamVeraSans-Roman-23"/>
      <use x="562.451171875" xlink:href="#BitstreamVeraSans-Roman-20"/>
      <use x="594.23828125" xlink:href="#BitstreamVeraSans-Roman-66"/>
      <use x="629.365234375" xlink:href="#BitstreamVeraSans-Roman-2d"/>
      <use x="665.44921875" xlink:href="#BitstreamVeraSans-Roman-65"/>
      <use x="726.97265625" xlink:href="#BitstreamVeraSans-Roman-76"/>
      <use x="786.15234375" xlink:href="#BitstreamVeraSans-Roman-61"/>
      <use x="847.431640625" xlink:href="#BitstreamVeraSans-Roman-6c"/>
      <use x="875.21484375" xlink:href="#BitstreamVeraSans-Roman-73"/>
      <use x="927.314453125" xlink:href="#BitstreamVeraSans-Roman-20"/>
      <use x="959.1015625" xlink:href="#BitstreamVeraSans-Roman-2f"/>
      <use x="992.79296875" xlink:href="#BitstreamVeraSans-Roman-20"/>
      <use x="1024.58007812" xlink:href="#BitstreamVeraSans-Roman-64"/>
      <use x="1088.05664062" xlink:href="#BitstreamVeraSans-Roman-69"/>
      <use x="1115.83984375" xlink:href="#BitstreamVeraSans-Roman-6d"/>
      <use x="1213.25195312" xlink:href="#BitstreamVeraSans-Roman-65"/>
      <use x="1274.77539062" xlink:href="#BitstreamVeraSans-Roman-6e"/>
      <use x="1338.15429688" xlink:href="#BitstreamVeraSans-Roman-73"/>
      <use x="1390.25390625" xlink:href="#BitstreamVeraSans-Roman-69"/>
      <use x="1418.03710938" xlink:href="#BitstreamVeraSans-Roman-6f"/>
      <use x="1479.21875" xlink:href="#BitstreamVeraSans-Roman-6e"/>
      <use x="1542.59765625" xlink:href="#BitstreamVeraSans-Roman-29"/>
     </g>
    </g>
   </g>
   <g id="matplotlib.axis_2">
    <g id="ytick_1">
     <g id="line2d_93">
      <path clip-path="url(#p0b753d0391)" d="M 108.7 303.429375 
L 465.82 303.429375 
" style="fill:none;stroke:#000000;stroke-dasharray:1.000000,3.000000;stroke-dashoffset:0.0;stroke-width:0.5;"/>
     </g>
     <g id="line2d_94">
      <defs>
       <path d="M 0 0 
L 4 0 
" id="mf07e908841" style="stroke:#000000;stroke-width:0.5;"/>
      </defs>
      <g>
       <use style="stroke:#000000;stroke-width:0.5;" x="108.7" xlink:href="#mf07e908841" y="303.429375"/>
      </g>
     </g>
     <g id="line2d_95">
      <defs>
       <path d="M 0 0 
L -4 0 
" id="mfa47ec00aa" style="stroke:#000000;stroke-width:0.5;"/>
      </defs>
      <g>
       <use style="stroke:#000000;stroke-width:0.5;" x="465.82" xlink:href="#mfa47ec00aa" y="303.429375"/>
      </g>
     </g>
     <g id="text_6">
      <!-- 0.0 -->
      <defs>
       <path d="M 10.6875 12.40625 
L 21 12.40625 
L 21 0 
L 10.6875 0 
z
" id="BitstreamVeraSans-Roman-2e"/>
      </defs>
      <g transform="translate(72.89375 308.948125)scale(0.2 -0.2)">
       <use xlink:href="#BitstreamVeraSans-Roman-30"/>
       <use x="63.623046875" xlink:href="#BitstreamVeraSans-Roman-2e"/>
       <use x="95.41015625" xlink:href="#BitstreamVeraSans-Roman-30"/>
      </g>
     </g>
    </g>
    <g id="ytick_2">
     <g id="line2d_96">
      <path clip-path="url(#p0b753d0391)" d="M 108.7 248.68086 
L 465.82 248.68086 
" style="fill:none;stroke:#000000;stroke-dasharray:1.000000,3.000000;stroke-dashoffset:0.0;stroke-width:0.5;"/>
     </g>
     <g id="line2d_97">
      <g>
       <use style="stroke:#000000;stroke-width:0.5;" x="108.7" xlink:href="#mf07e908841" y="248.680860149"/>
      </g>
     </g>
     <g id="line2d_98">
      <g>
       <use style="stroke:#000000;stroke-width:0.5;" x="465.82" xlink:href="#mfa47ec00aa" y="248.680860149"/>
      </g>
     </g>
     <g id="text_7">
      <!-- 0.2 -->
      <g transform="translate(72.89375 254.199610149)scale(0.2 -0.2)">
       <use xlink:href="#BitstreamVeraSans-Roman-30"/>
       <use x="63.623046875" xlink:href="#BitstreamVeraSans-Roman-2e"/>
       <use x="95.41015625" xlink:href="#BitstreamVeraSans-Roman-32"/>
      </g>
     </g>
    </g>
    <g id="ytick_3">
     <g id="line2d_99">
      <path clip-path="url(#p0b753d0391)" d="M 108.7 193.932345 
L 465.82 193.932345 
" style="fill:none;stroke:#000000;stroke-dasharray:1.000000,3.000000;stroke-dashoffset:0.0;stroke-width:0.5;"/>
     </g>
     <g id="line2d_100">
      <g>
       <use style="stroke:#000000;stroke-width:0.5;" x="108.7" xlink:href="#mf07e908841" y="193.932345297"/>
      </g>
     </g>
     <g id="line2d_101">
      <g>
       <use style="stroke:#000000;stroke-width:0.5;" x="465.82" xlink:href="#mfa47ec00aa" y="193.932345297"/>
      </g>
     </g>
     <g id="text_8">
      <!-- 0.4 -->
      <defs>
       <path d="M 37.796875 64.3125 
L 12.890625 25.390625 
L 37.796875 25.390625 
z
M 35.203125 72.90625 
L 47.609375 72.90625 
L 47.609375 25.390625 
L 58.015625 25.390625 
L 58.015625 17.1875 
L 47.609375 17.1875 
L 47.609375 0 
L 37.796875 0 
L 37.796875 17.1875 
L 4.890625 17.1875 
L 4.890625 26.703125 
z
" id="BitstreamVeraSans-Roman-34"/>
      </defs>
      <g transform="translate(72.89375 199.451095297)scale(0.2 -0.2)">
       <use xlink:href="#BitstreamVeraSans-Roman-30"/>
       <use x="63.623046875" xlink:href="#BitstreamVeraSans-Roman-2e"/>
       <use x="95.41015625" xlink:href="#BitstreamVeraSans-Roman-34"/>
      </g>
     </g>
    </g>
    <g id="ytick_4">
     <g id="line2d_102">
      <path clip-path="url(#p0b753d0391)" d="M 108.7 139.18383 
L 465.82 139.18383 
" style="fill:none;stroke:#000000;stroke-dasharray:1.000000,3.000000;stroke-dashoffset:0.0;stroke-width:0.5;"/>
     </g>
     <g id="line2d_103">
      <g>
       <use style="stroke:#000000;stroke-width:0.5;" x="108.7" xlink:href="#mf07e908841" y="139.183830446"/>
      </g>
     </g>
     <g id="line2d_104">
      <g>
       <use style="stroke:#000000;stroke-width:0.5;" x="465.82" xlink:href="#mfa47ec00aa" y="139.183830446"/>
      </g>
     </g>
     <g id="text_9">
      <!-- 0.6 -->
      <defs>
       <path d="M 33.015625 40.375 
Q 26.375 40.375 22.484375 35.828125 
Q 18.609375 31.296875 18.609375 23.390625 
Q 18.609375 15.53125 22.484375 10.953125 
Q 26.375 6.390625 33.015625 6.390625 
Q 39.65625 6.390625 43.53125 10.953125 
Q 47.40625 15.53125 47.40625 23.390625 
Q 47.40625 31.296875 43.53125 35.828125 
Q 39.65625 40.375 33.015625 40.375 
M 52.59375 71.296875 
L 52.59375 62.3125 
Q 48.875 64.0625 45.09375 64.984375 
Q 41.3125 65.921875 37.59375 65.921875 
Q 27.828125 65.921875 22.671875 59.328125 
Q 17.53125 52.734375 16.796875 39.40625 
Q 19.671875 43.65625 24.015625 45.921875 
Q 28.375 48.1875 33.59375 48.1875 
Q 44.578125 48.1875 50.953125 41.515625 
Q 57.328125 34.859375 57.328125 23.390625 
Q 57.328125 12.15625 50.6875 5.359375 
Q 44.046875 -1.421875 33.015625 -1.421875 
Q 20.359375 -1.421875 13.671875 8.265625 
Q 6.984375 17.96875 6.984375 36.375 
Q 6.984375 53.65625 15.1875 63.9375 
Q 23.390625 74.21875 37.203125 74.21875 
Q 40.921875 74.21875 44.703125 73.484375 
Q 48.484375 72.75 52.59375 71.296875 
" id="BitstreamVeraSans-Roman-36"/>
      </defs>
      <g transform="translate(72.89375 144.702580446)scale(0.2 -0.2)">
       <use xlink:href="#BitstreamVeraSans-Roman-30"/>
       <use x="63.623046875" xlink:href="#BitstreamVeraSans-Roman-2e"/>
       <use x="95.41015625" xlink:href="#BitstreamVeraSans-Roman-36"/>
      </g>
     </g>
    </g>
    <g id="ytick_5">
     <g id="line2d_105">
      <path clip-path="url(#p0b753d0391)" d="M 108.7 84.435316 
L 465.82 84.435316 
" style="fill:none;stroke:#000000;stroke-dasharray:1.000000,3.000000;stroke-dashoffset:0.0;stroke-width:0.5;"/>
     </g>
     <g id="line2d_106">
      <g>
       <use style="stroke:#000000;stroke-width:0.5;" x="108.7" xlink:href="#mf07e908841" y="84.4353155941"/>
      </g>
     </g>
     <g id="line2d_107">
      <g>
       <use style="stroke:#000000;stroke-width:0.5;" x="465.82" xlink:href="#mfa47ec00aa" y="84.4353155941"/>
      </g>
     </g>
     <g id="text_10">
      <!-- 0.8 -->
      <defs>
       <path d="M 31.78125 34.625 
Q 24.75 34.625 20.71875 30.859375 
Q 16.703125 27.09375 16.703125 20.515625 
Q 16.703125 13.921875 20.71875 10.15625 
Q 24.75 6.390625 31.78125 6.390625 
Q 38.8125 6.390625 42.859375 10.171875 
Q 46.921875 13.96875 46.921875 20.515625 
Q 46.921875 27.09375 42.890625 30.859375 
Q 38.875 34.625 31.78125 34.625 
M 21.921875 38.8125 
Q 15.578125 40.375 12.03125 44.71875 
Q 8.5 49.078125 8.5 55.328125 
Q 8.5 64.0625 14.71875 69.140625 
Q 20.953125 74.21875 31.78125 74.21875 
Q 42.671875 74.21875 48.875 69.140625 
Q 55.078125 64.0625 55.078125 55.328125 
Q 55.078125 49.078125 51.53125 44.71875 
Q 48 40.375 41.703125 38.8125 
Q 48.828125 37.15625 52.796875 32.3125 
Q 56.78125 27.484375 56.78125 20.515625 
Q 56.78125 9.90625 50.3125 4.234375 
Q 43.84375 -1.421875 31.78125 -1.421875 
Q 19.734375 -1.421875 13.25 4.234375 
Q 6.78125 9.90625 6.78125 20.515625 
Q 6.78125 27.484375 10.78125 32.3125 
Q 14.796875 37.15625 21.921875 38.8125 
M 18.3125 54.390625 
Q 18.3125 48.734375 21.84375 45.5625 
Q 25.390625 42.390625 31.78125 42.390625 
Q 38.140625 42.390625 41.71875 45.5625 
Q 45.3125 48.734375 45.3125 54.390625 
Q 45.3125 60.0625 41.71875 63.234375 
Q 38.140625 66.40625 31.78125 66.40625 
Q 25.390625 66.40625 21.84375 63.234375 
Q 18.3125 60.0625 18.3125 54.390625 
" id="BitstreamVeraSans-Roman-38"/>
      </defs>
      <g transform="translate(72.89375 89.9540655941)scale(0.2 -0.2)">
       <use xlink:href="#BitstreamVeraSans-Roman-30"/>
       <use x="63.623046875" xlink:href="#BitstreamVeraSans-Roman-2e"/>
       <use x="95.41015625" xlink:href="#BitstreamVeraSans-Roman-38"/>
      </g>
     </g>
    </g>
    <g id="ytick_6">
     <g id="line2d_108">
      <path clip-path="url(#p0b753d0391)" d="M 108.7 29.686801 
L 465.82 29.686801 
" style="fill:none;stroke:#000000;stroke-dasharray:1.000000,3.000000;stroke-dashoffset:0.0;stroke-width:0.5;"/>
     </g>
     <g id="line2d_109">
      <g>
       <use style="stroke:#000000;stroke-width:0.5;" x="108.7" xlink:href="#mf07e908841" y="29.6868007426"/>
      </g>
     </g>
     <g id="line2d_110">
      <g>
       <use style="stroke:#000000;stroke-width:0.5;" x="465.82" xlink:href="#mfa47ec00aa" y="29.6868007426"/>
      </g>
     </g>
     <g id="text_11">
      <!-- 1.0 -->
      <g transform="translate(72.89375 35.2055507426)scale(0.2 -0.2)">
       <use xlink:href="#BitstreamVeraSans-Roman-31"/>
       <use x="63.623046875" xlink:href="#BitstreamVeraSans-Roman-2e"/>
       <use x="95.41015625" xlink:href="#BitstreamVeraSans-Roman-30"/>
      </g>
     </g>
    </g>
    <g id="text_12">
     <!-- Proportion of function+target pairs -->
     <defs>
      <path d="M 19.671875 64.796875 
L 19.671875 37.40625 
L 32.078125 37.40625 
Q 38.96875 37.40625 42.71875 40.96875 
Q 46.484375 44.53125 46.484375 51.125 
Q 46.484375 57.671875 42.71875 61.234375 
Q 38.96875 64.796875 32.078125 64.796875 
z
M 9.8125 72.90625 
L 32.078125 72.90625 
Q 44.34375 72.90625 50.609375 67.359375 
Q 56.890625 61.8125 56.890625 51.125 
Q 56.890625 40.328125 50.609375 34.8125 
Q 44.34375 29.296875 32.078125 29.296875 
L 19.671875 29.296875 
L 19.671875 0 
L 9.8125 0 
z
" id="BitstreamVeraSans-Roman-50"/>
      <path d="M 46 62.703125 
L 46 35.5 
L 73.1875 35.5 
L 73.1875 27.203125 
L 46 27.203125 
L 46 0 
L 37.796875 0 
L 37.796875 27.203125 
L 10.59375 27.203125 
L 10.59375 35.5 
L 37.796875 35.5 
L 37.796875 62.703125 
z
" id="BitstreamVeraSans-Roman-2b"/>
      <path d="M 18.109375 8.203125 
L 18.109375 -20.796875 
L 9.078125 -20.796875 
L 9.078125 54.6875 
L 18.109375 54.6875 
L 18.109375 46.390625 
Q 20.953125 51.265625 25.265625 53.625 
Q 29.59375 56 35.59375 56 
Q 45.5625 56 51.78125 48.09375 
Q 58.015625 40.1875 58.015625 27.296875 
Q 58.015625 14.40625 51.78125 6.484375 
Q 45.5625 -1.421875 35.59375 -1.421875 
Q 29.59375 -1.421875 25.265625 0.953125 
Q 20.953125 3.328125 18.109375 8.203125 
M 48.6875 27.296875 
Q 48.6875 37.203125 44.609375 42.84375 
Q 40.53125 48.484375 33.40625 48.484375 
Q 26.265625 48.484375 22.1875 42.84375 
Q 18.109375 37.203125 18.109375 27.296875 
Q 18.109375 17.390625 22.1875 11.75 
Q 26.265625 6.109375 33.40625 6.109375 
Q 40.53125 6.109375 44.609375 11.75 
Q 48.6875 17.390625 48.6875 27.296875 
" id="BitstreamVeraSans-Roman-70"/>
      <path d="M 18.3125 70.21875 
L 18.3125 54.6875 
L 36.8125 54.6875 
L 36.8125 47.703125 
L 18.3125 47.703125 
L 18.3125 18.015625 
Q 18.3125 11.328125 20.140625 9.421875 
Q 21.96875 7.515625 27.59375 7.515625 
L 36.8125 7.515625 
L 36.8125 0 
L 27.59375 0 
Q 17.1875 0 13.234375 3.875 
Q 9.28125 7.765625 9.28125 18.015625 
L 9.28125 47.703125 
L 2.6875 47.703125 
L 2.6875 54.6875 
L 9.28125 54.6875 
L 9.28125 70.21875 
z
" id="BitstreamVeraSans-Roman-74"/>
      <path d="M 8.5 21.578125 
L 8.5 54.6875 
L 17.484375 54.6875 
L 17.484375 21.921875 
Q 17.484375 14.15625 20.5 10.265625 
Q 23.53125 6.390625 29.59375 6.390625 
Q 36.859375 6.390625 41.078125 11.03125 
Q 45.3125 15.671875 45.3125 23.6875 
L 45.3125 54.6875 
L 54.296875 54.6875 
L 54.296875 0 
L 45.3125 0 
L 45.3125 8.40625 
Q 42.046875 3.421875 37.71875 1 
Q 33.40625 -1.421875 27.6875 -1.421875 
Q 18.265625 -1.421875 13.375 4.4375 
Q 8.5 10.296875 8.5 21.578125 
" id="BitstreamVeraSans-Roman-75"/>
      <path d="M 41.109375 46.296875 
Q 39.59375 47.171875 37.8125 47.578125 
Q 36.03125 48 33.890625 48 
Q 26.265625 48 22.1875 43.046875 
Q 18.109375 38.09375 18.109375 28.8125 
L 18.109375 0 
L 9.078125 0 
L 9.078125 54.6875 
L 18.109375 54.6875 
L 18.109375 46.1875 
Q 20.953125 51.171875 25.484375 53.578125 
Q 30.03125 56 36.53125 56 
Q 37.453125 56 38.578125 55.875 
Q 39.703125 55.765625 41.0625 55.515625 
z
" id="BitstreamVeraSans-Roman-72"/>
      <path d="M 48.78125 52.59375 
L 48.78125 44.1875 
Q 44.96875 46.296875 41.140625 47.34375 
Q 37.3125 48.390625 33.40625 48.390625 
Q 24.65625 48.390625 19.8125 42.84375 
Q 14.984375 37.3125 14.984375 27.296875 
Q 14.984375 17.28125 19.8125 11.734375 
Q 24.65625 6.203125 33.40625 6.203125 
Q 37.3125 6.203125 41.140625 7.25 
Q 44.96875 8.296875 48.78125 10.40625 
L 48.78125 2.09375 
Q 45.015625 0.34375 40.984375 -0.53125 
Q 36.96875 -1.421875 32.421875 -1.421875 
Q 20.0625 -1.421875 12.78125 6.34375 
Q 5.515625 14.109375 5.515625 27.296875 
Q 5.515625 40.671875 12.859375 48.328125 
Q 20.21875 56 33.015625 56 
Q 37.15625 56 41.109375 55.140625 
Q 45.0625 54.296875 48.78125 52.59375 
" id="BitstreamVeraSans-Roman-63"/>
     </defs>
     <g transform="translate(64.1503125 323.17875)rotate(-90.0)scale(0.18 -0.18)">
      <use xlink:href="#BitstreamVeraSans-Roman-50"/>
      <use x="60.287109375" xlink:href="#BitstreamVeraSans-Roman-72"/>
      <use x="101.369140625" xlink:href="#BitstreamVeraSans-Roman-6f"/>
      <use x="162.55078125" xlink:href="#BitstreamVeraSans-Roman-70"/>
      <use x="226.02734375" xlink:href="#BitstreamVeraSans-Roman-6f"/>
      <use x="287.208984375" xlink:href="#BitstreamVeraSans-Roman-72"/>
      <use x="328.322265625" xlink:href="#BitstreamVeraSans-Roman-74"/>
      <use x="367.53125" xlink:href="#BitstreamVeraSans-Roman-69"/>
      <use x="395.314453125" xlink:href="#BitstreamVeraSans-Roman-6f"/>
      <use x="456.49609375" xlink:href="#BitstreamVeraSans-Roman-6e"/>
      <use x="519.875" xlink:href="#BitstreamVeraSans-Roman-20"/>
      <use x="551.662109375" xlink:href="#BitstreamVeraSans-Roman-6f"/>
      <use x="612.84375" xlink:href="#BitstreamVeraSans-Roman-66"/>
      <use x="648.048828125" xlink:href="#BitstreamVeraSans-Roman-20"/>
      <use x="679.8359375" xlink:href="#BitstreamVeraSans-Roman-66"/>
      <use x="715.041015625" xlink:href="#BitstreamVeraSans-Roman-75"/>
      <use x="778.419921875" xlink:href="#BitstreamVeraSans-Roman-6e"/>
      <use x="841.798828125" xlink:href="#BitstreamVeraSans-Roman-63"/>
      <use x="896.779296875" xlink:href="#BitstreamVeraSans-Roman-74"/>
      <use x="935.98828125" xlink:href="#BitstreamVeraSans-Roman-69"/>
      <use x="963.771484375" xlink:href="#BitstreamVeraSans-Roman-6f"/>
      <use x="1024.953125" xlink:href="#BitstreamVeraSans-Roman-6e"/>
      <use x="1088.33203125" xlink:href="#BitstreamVeraSans-Roman-2b"/>
      <use x="1172.12109375" xlink:href="#BitstreamVeraSans-Roman-74"/>
      <use x="1211.33007812" xlink:href="#BitstreamVeraSans-Roman-61"/>
      <use x="1272.609375" xlink:href="#BitstreamVeraSans-Roman-72"/>
      <use x="1313.70703125" xlink:href="#BitstreamVeraSans-Roman-67"/>
      <use x="1377.18359375" xlink:href="#BitstreamVeraSans-Roman-65"/>
      <use x="1438.70703125" xlink:href="#BitstreamVeraSans-Roman-74"/>
      <use x="1477.91601562" xlink:href="#BitstreamVeraSans-Roman-20"/>
      <use x="1509.703125" xlink:href="#BitstreamVeraSans-Roman-70"/>
      <use x="1573.1796875" xlink:href="#BitstreamVeraSans-Roman-61"/>
      <use x="1634.45898438" xlink:href="#BitstreamVeraSans-Roman-69"/>
      <use x="1662.2421875" xlink:href="#BitstreamVeraSans-Roman-72"/>
      <use x="1703.35546875" xlink:href="#BitstreamVeraSans-Roman-73"/>
     </g>
    </g>
   </g>
   <g id="text_13">
    <!-- diffusion ga -->
    <g transform="translate(434.14 302.093586015)scale(0.15 -0.15)">
     <use xlink:href="#BitstreamVeraSans-Roman-64"/>
     <use x="63.4765625" xlink:href="#BitstreamVeraSans-Roman-69"/>
     <use x="91.259765625" xlink:href="#BitstreamVeraSans-Roman-66"/>
     <use x="126.46484375" xlink:href="#BitstreamVeraSans-Roman-66"/>
     <use x="161.669921875" xlink:href="#BitstreamVeraSans-Roman-75"/>
     <use x="225.048828125" xlink:href="#BitstreamVeraSans-Roman-73"/>
     <use x="277.1484375" xlink:href="#BitstreamVeraSans-Roman-69"/>
     <use x="304.931640625" xlink:href="#BitstreamVeraSans-Roman-6f"/>
     <use x="366.11328125" xlink:href="#BitstreamVeraSans-Roman-6e"/>
     <use x="429.4921875" xlink:href="#BitstreamVeraSans-Roman-20"/>
     <use x="461.279296875" xlink:href="#BitstreamVeraSans-Roman-67"/>
     <use x="524.755859375" xlink:href="#BitstreamVeraSans-Roman-61"/>
    </g>
   </g>
   <g id="text_14">
    <!-- standard ga -->
    <g transform="translate(434.14 214.495962252)scale(0.15 -0.15)">
     <use xlink:href="#BitstreamVeraSans-Roman-73"/>
     <use x="52.099609375" xlink:href="#BitstreamVeraSans-Roman-74"/>
     <use x="91.30859375" xlink:href="#BitstreamVeraSans-Roman-61"/>
     <use x="152.587890625" xlink:href="#BitstreamVeraSans-Roman-6e"/>
     <use x="215.966796875" xlink:href="#BitstreamVeraSans-Roman-64"/>
     <use x="279.443359375" xlink:href="#BitstreamVeraSans-Roman-61"/>
     <use x="340.72265625" xlink:href="#BitstreamVeraSans-Roman-72"/>
     <use x="381.8203125" xlink:href="#BitstreamVeraSans-Roman-64"/>
     <use x="445.296875" xlink:href="#BitstreamVeraSans-Roman-20"/>
     <use x="477.083984375" xlink:href="#BitstreamVeraSans-Roman-67"/>
     <use x="540.560546875" xlink:href="#BitstreamVeraSans-Roman-61"/>
    </g>
   </g>
   <g id="text_15">
    <!-- migration ga -->
    <g transform="translate(434.14 126.89833849)scale(0.15 -0.15)">
     <use xlink:href="#BitstreamVeraSans-Roman-6d"/>
     <use x="97.412109375" xlink:href="#BitstreamVeraSans-Roman-69"/>
     <use x="125.1953125" xlink:href="#BitstreamVeraSans-Roman-67"/>
     <use x="188.671875" xlink:href="#BitstreamVeraSans-Roman-72"/>
     <use x="229.78515625" xlink:href="#BitstreamVeraSans-Roman-61"/>
     <use x="291.064453125" xlink:href="#BitstreamVeraSans-Roman-74"/>
     <use x="330.2734375" xlink:href="#BitstreamVeraSans-Roman-69"/>
     <use x="358.056640625" xlink:href="#BitstreamVeraSans-Roman-6f"/>
     <use x="419.23828125" xlink:href="#BitstreamVeraSans-Roman-6e"/>
     <use x="482.6171875" xlink:href="#BitstreamVeraSans-Roman-20"/>
     <use x="514.404296875" xlink:href="#BitstreamVeraSans-Roman-67"/>
     <use x="577.880859375" xlink:href="#BitstreamVeraSans-Roman-61"/>
    </g>
   </g>
   <g id="text_16">
    <!-- best 2009 -->
    <defs>
     <path d="M 10.984375 1.515625 
L 10.984375 10.5 
Q 14.703125 8.734375 18.5 7.8125 
Q 22.3125 6.890625 25.984375 6.890625 
Q 35.75 6.890625 40.890625 13.453125 
Q 46.046875 20.015625 46.78125 33.40625 
Q 43.953125 29.203125 39.59375 26.953125 
Q 35.25 24.703125 29.984375 24.703125 
Q 19.046875 24.703125 12.671875 31.3125 
Q 6.296875 37.9375 6.296875 49.421875 
Q 6.296875 60.640625 12.9375 67.421875 
Q 19.578125 74.21875 30.609375 74.21875 
Q 43.265625 74.21875 49.921875 64.515625 
Q 56.59375 54.828125 56.59375 36.375 
Q 56.59375 19.140625 48.40625 8.859375 
Q 40.234375 -1.421875 26.421875 -1.421875 
Q 22.703125 -1.421875 18.890625 -0.6875 
Q 15.09375 0.046875 10.984375 1.515625 
M 30.609375 32.421875 
Q 37.25 32.421875 41.125 36.953125 
Q 45.015625 41.5 45.015625 49.421875 
Q 45.015625 57.28125 41.125 61.84375 
Q 37.25 66.40625 30.609375 66.40625 
Q 23.96875 66.40625 20.09375 61.84375 
Q 16.21875 57.28125 16.21875 49.421875 
Q 16.21875 41.5 20.09375 36.953125 
Q 23.96875 32.421875 30.609375 32.421875 
" id="BitstreamVeraSans-Roman-39"/>
     <path d="M 48.6875 27.296875 
Q 48.6875 37.203125 44.609375 42.84375 
Q 40.53125 48.484375 33.40625 48.484375 
Q 26.265625 48.484375 22.1875 42.84375 
Q 18.109375 37.203125 18.109375 27.296875 
Q 18.109375 17.390625 22.1875 11.75 
Q 26.265625 6.109375 33.40625 6.109375 
Q 40.53125 6.109375 44.609375 11.75 
Q 48.6875 17.390625 48.6875 27.296875 
M 18.109375 46.390625 
Q 20.953125 51.265625 25.265625 53.625 
Q 29.59375 56 35.59375 56 
Q 45.5625 56 51.78125 48.09375 
Q 58.015625 40.1875 58.015625 27.296875 
Q 58.015625 14.40625 51.78125 6.484375 
Q 45.5625 -1.421875 35.59375 -1.421875 
Q 29.59375 -1.421875 25.265625 0.953125 
Q 20.953125 3.328125 18.109375 8.203125 
L 18.109375 0 
L 9.078125 0 
L 9.078125 75.984375 
L 18.109375 75.984375 
z
" id="BitstreamVeraSans-Roman-62"/>
    </defs>
    <g transform="translate(434.14 39.3007147277)scale(0.15 -0.15)">
     <use xlink:href="#BitstreamVeraSans-Roman-62"/>
     <use x="63.4765625" xlink:href="#BitstreamVeraSans-Roman-65"/>
     <use x="125.0" xlink:href="#BitstreamVeraSans-Roman-73"/>
     <use x="177.099609375" xlink:href="#BitstreamVeraSans-Roman-74"/>
     <use x="216.30859375" xlink:href="#BitstreamVeraSans-Roman-20"/>
     <use x="248.095703125" xlink:href="#BitstreamVeraSans-Roman-32"/>
     <use x="311.71875" xlink:href="#BitstreamVeraSans-Roman-30"/>
     <use x="375.341796875" xlink:href="#BitstreamVeraSans-Roman-30"/>
     <use x="438.96484375" xlink:href="#BitstreamVeraSans-Roman-39"/>
    </g>
   </g>
   <g id="text_17">
    <!-- f6-9,10-D -->
    <defs>
     <path d="M 11.71875 12.40625 
L 22.015625 12.40625 
L 22.015625 4 
L 14.015625 -11.625 
L 7.71875 -11.625 
L 11.71875 4 
z
" id="BitstreamVeraSans-Roman-2c"/>
     <path d="M 19.671875 64.796875 
L 19.671875 8.109375 
L 31.59375 8.109375 
Q 46.6875 8.109375 53.6875 14.9375 
Q 60.6875 21.78125 60.6875 36.53125 
Q 60.6875 51.171875 53.6875 57.984375 
Q 46.6875 64.796875 31.59375 64.796875 
z
M 9.8125 72.90625 
L 30.078125 72.90625 
Q 51.265625 72.90625 61.171875 64.09375 
Q 71.09375 55.28125 71.09375 36.53125 
Q 71.09375 17.671875 61.125 8.828125 
Q 51.171875 0 30.078125 0 
L 9.8125 0 
z
" id="BitstreamVeraSans-Roman-44"/>
    </defs>
    <g transform="translate(112.2712 47.67585)scale(0.2 -0.2)">
     <use xlink:href="#BitstreamVeraSans-Roman-66"/>
     <use x="35.205078125" xlink:href="#BitstreamVeraSans-Roman-36"/>
     <use x="98.828125" xlink:href="#BitstreamVeraSans-Roman-2d"/>
     <use x="134.912109375" xlink:href="#BitstreamVeraSans-Roman-39"/>
     <use x="198.53515625" xlink:href="#BitstreamVeraSans-Roman-2c"/>
     <use x="230.322265625" xlink:href="#BitstreamVeraSans-Roman-31"/>
     <use x="293.9453125" xlink:href="#BitstreamVeraSans-Roman-30"/>
     <use x="357.568359375" xlink:href="#BitstreamVeraSans-Roman-2d"/>
     <use x="393.65234375" xlink:href="#BitstreamVeraSans-Roman-44"/>
    </g>
   </g>
  </g>
 </g>
 <defs>
  <clipPath id="p0b753d0391">
   <rect height="276.48" width="357.12" x="108.7" y="26.949375"/>
  </clipPath>
 </defs>
</svg>
