<?xml version="1.0" encoding="utf-8" standalone="no"?>
<!DOCTYPE svg PUBLIC "-//W3C//DTD SVG 1.1//EN"
  "http://www.w3.org/Graphics/SVG/1.1/DTD/svg11.dtd">
<!-- Created with matplotlib (http://matplotlib.org/) -->
<svg height="356pt" version="1.1" viewBox="0 0 502 356" width="502pt" xmlns="http://www.w3.org/2000/svg" xmlns:xlink="http://www.w3.org/1999/xlink">
 <defs>
  <style type="text/css">
*{stroke-linecap:butt;stroke-linejoin:round;stroke-miterlimit:100000;}
  </style>
 </defs>
 <g id="figure_1">
  <g id="patch_1">
   <path d="M 0 356.40625 
L 502.814558 356.40625 
L 502.814558 0 
L 0 0 
z
" style="fill:#ffffff;"/>
  </g>
  <g id="axes_1">
   <g id="patch_2">
    <path d="M 74.30112 303.429375 
L 431.42112 303.429375 
L 431.42112 26.949375 
L 74.30112 26.949375 
z
" style="fill:#ffffff;"/>
   </g>
   <g id="line2d_1">
    <path d="M 7.2 303.429375 
L 7.2 290.502642 
L 36.09888 290.502642 
L 36.09888 282.898682 
L 53.00364 282.898682 
L 53.00364 281.37789 
L 64.997759 281.37789 
L 64.997759 278.336306 
L 74.30112 278.336306 
L 74.30112 271.492741 
L 81.90252 271.492741 
L 81.90252 266.169969 
L 88.329412 266.169969 
L 88.329412 263.128385 
L 93.896639 263.128385 
L 93.896639 255.524425 
L 98.807281 255.524425 
L 98.807281 247.160068 
L 103.2 247.160068 
L 103.2 245.639276 
L 107.173698 245.639276 
L 107.173698 244.87888 
L 110.8014 244.87888 
L 110.8014 228.150167 
L 114.138562 228.150167 
L 114.138562 226.629375 
L 117.228291 226.629375 
L 117.228291 225.868979 
L 120.104761 225.868979 
L 120.104761 223.587791 
L 122.795518 223.587791 
L 122.795518 216.744226 
L 125.323096 216.744226 
L 125.323096 214.463038 
L 127.70616 214.463038 
L 127.70616 212.18185 
L 129.960346 212.18185 
L 129.960346 209.900662 
L 132.09888 209.900662 
L 132.09888 204.57789 
L 134.133052 204.57789 
L 134.133052 200.77591 
L 136.072577 200.77591 
L 136.072577 194.692741 
L 137.925872 194.692741 
L 137.925872 193.932345 
L 139.700279 193.932345 
L 139.700279 193.171949 
L 141.402241 193.171949 
L 141.402241 192.411553 
L 144.610921 192.411553 
L 144.610921 190.890761 
L 146.127171 190.890761 
L 146.127171 189.369969 
L 149.00364 189.369969 
L 149.00364 188.609573 
L 151.694398 188.609573 
L 151.694398 187.088781 
L 152.977338 187.088781 
L 152.977338 186.328385 
L 154.221976 186.328385 
L 154.221976 184.807593 
L 157.747366 184.807593 
L 157.747366 184.047197 
L 158.859225 184.047197 
L 158.859225 179.484821 
L 159.942202 179.484821 
L 159.942202 178.724425 
L 160.997759 178.724425 
L 160.997759 177.964028 
L 162.02725 177.964028 
L 162.02725 173.401652 
L 164.012972 173.401652 
L 164.012972 171.88086 
L 164.971457 171.88086 
L 164.971457 168.07888 
L 168.599159 168.07888 
L 168.599159 166.558088 
L 169.458824 166.558088 
L 169.458824 165.797692 
L 170.30112 165.797692 
L 170.30112 164.2769 
L 171.126737 164.2769 
L 171.126737 163.516504 
L 171.936321 163.516504 
L 171.936321 159.714524 
L 172.730483 159.714524 
L 172.730483 157.433335 
L 174.274818 157.433335 
L 174.274818 155.912543 
L 175.026051 155.912543 
L 175.026051 154.391751 
L 175.763986 154.391751 
L 175.763986 153.631355 
L 177.201793 153.631355 
L 177.201793 152.870959 
L 179.269602 152.870959 
L 179.269602 145.266999 
L 180.593278 145.266999 
L 180.593278 144.506603 
L 181.876218 144.506603 
L 181.876218 143.746207 
L 183.120856 143.746207 
L 183.120856 141.465019 
L 184.329412 141.465019 
L 184.329412 140.704623 
L 184.920801 140.704623 
L 184.920801 139.944226 
L 187.205881 139.944226 
L 187.205881 136.142246 
L 188.841082 136.142246 
L 188.841082 134.621454 
L 189.372201 134.621454 
L 189.372201 133.861058 
L 189.896639 133.861058 
L 189.896639 126.257098 
L 191.930811 126.257098 
L 191.930811 124.736306 
L 192.424217 124.736306 
L 192.424217 123.97591 
L 193.870337 123.97591 
L 193.870337 122.455118 
L 194.807281 122.455118 
L 194.807281 117.892741 
L 195.267974 117.892741 
L 195.267974 117.132345 
L 196.620274 117.132345 
L 196.620274 114.090761 
L 197.061466 114.090761 
L 197.061466 113.330365 
L 197.930086 113.330365 
L 197.930086 111.049177 
L 198.357703 111.049177 
L 198.357703 108.007593 
L 198.780979 108.007593 
L 198.780979 105.726405 
L 200.835201 105.726405 
L 200.835201 104.966009 
L 201.234173 104.966009 
L 201.234173 104.205613 
L 201.629363 104.205613 
L 201.629363 103.445217 
L 202.020843 103.445217 
L 202.020843 102.684821 
L 202.792944 102.684821 
L 202.792944 101.924425 
L 203.92493 101.924425 
L 203.92493 100.403632 
L 204.662866 100.403632 
L 204.662866 99.643236 
L 206.452508 99.643236 
L 206.452508 98.88284 
L 207.830891 98.88284 
L 207.830891 96.601652 
L 208.168482 96.601652 
L 208.168482 94.320464 
L 208.503361 94.320464 
L 208.503361 91.27888 
L 208.835572 91.27888 
L 208.835572 87.4769 
L 210.458044 87.4769 
L 210.458044 86.716504 
L 212.325174 86.716504 
L 212.325174 83.67492 
L 214.11226 83.67492 
L 214.11226 82.154127 
L 214.977874 82.154127 
L 214.977874 80.633335 
L 216.656984 80.633335 
L 216.656984 79.872939 
L 217.739961 79.872939 
L 217.739961 78.352147 
L 218.27108 78.352147 
L 218.27108 76.070959 
L 218.534124 76.070959 
L 218.534124 73.029375 
L 219.055284 73.029375 
L 219.055284 70.748187 
L 227.043323 70.748187 
L 227.043323 65.425415 
L 228.71962 65.425415 
L 228.71962 63.144226 
L 230.133052 63.144226 
L 230.133052 62.38383 
L 233.744206 62.38383 
L 233.744206 61.623434 
L 235.351388 61.623434 
L 235.351388 60.863038 
L 237.067361 60.863038 
L 237.067361 58.58185 
L 237.402241 58.58185 
L 237.402241 57.821454 
L 239.037441 57.821454 
L 239.037441 57.061058 
L 243.156662 57.061058 
L 243.156662 56.300662 
L 243.446193 56.300662 
L 243.446193 53.259078 
L 244.444004 53.259078 
L 244.444004 52.498682 
L 248.46889 52.498682 
L 248.46889 51.738286 
L 249.354646 51.738286 
L 249.354646 49.457098 
L 249.479661 49.457098 
L 249.479661 48.696702 
L 257.412611 48.696702 
L 257.412611 47.17591 
L 264.685927 47.17591 
L 264.685927 45.655118 
L 266.962916 45.655118 
L 266.962916 44.894722 
L 268.965812 44.894722 
L 268.965812 42.613533 
L 269.121963 42.613533 
L 269.121963 41.853137 
L 270.802099 41.853137 
L 270.802099 41.092741 
L 277.046811 41.092741 
L 277.046811 40.332345 
L 278.37854 40.332345 
L 278.37854 39.571949 
L 286.67113 39.571949 
L 286.67113 37.290761 
L 287.230085 37.290761 
L 287.230085 36.530365 
L 295.032896 36.530365 
L 295.032896 35.769969 
L 297.392699 35.769969 
L 297.392699 35.009573 
L 304.769342 35.009573 
L 304.769342 33.488781 
L 305.328978 33.488781 
L 305.328978 32.728385 
L 320.143939 32.728385 
L 320.143939 31.207593 
L 342.20902 31.207593 
L 342.20902 30.447197 
L 346.160619 30.447197 
L 346.160619 29.686801 
L 362.30112 29.686801 
L 362.30112 29.686801 
" style="fill:none;stroke:#f5deb3;stroke-linecap:square;stroke-width:6.0;"/>
   </g>
   <g id="line2d_2"/>
   <g id="line2d_3">
    <path d="M 362.30112 29.686801 
L 393.98112 35.161652 
" style="fill:none;stroke:#f5deb3;stroke-linecap:square;stroke-width:6.0;"/>
    <defs>
     <path d="M -0 7.778175 
L 7.778175 0 
L 0 -7.778175 
L -7.778175 -0 
z
" id="m5d7480d55c" style="stroke:#f5deb3;stroke-linejoin:miter;stroke-width:1.5;"/>
    </defs>
    <g>
     <use style="fill:#f5deb3;stroke:#f5deb3;stroke-linejoin:miter;stroke-width:1.5;" x="362.301120416" xlink:href="#m5d7480d55c" y="29.6868007426"/>
     <use style="fill:#f5deb3;stroke:#f5deb3;stroke-linejoin:miter;stroke-width:1.5;" x="393.981120416" xlink:href="#m5d7480d55c" y="35.1616522277"/>
    </g>
   </g>
   <g id="line2d_4">
    <defs>
     <path d="M 0 1.5 
C 0.397805 1.5 0.77937 1.341951 1.06066 1.06066 
C 1.341951 0.77937 1.5 0.397805 1.5 0 
C 1.5 -0.397805 1.341951 -0.77937 1.06066 -1.06066 
C 0.77937 -1.341951 0.397805 -1.5 0 -1.5 
C -0.397805 -1.5 -0.77937 -1.341951 -1.06066 -1.06066 
C -1.341951 -0.77937 -1.5 -0.397805 -1.5 0 
C -1.5 0.397805 -1.341951 0.77937 -1.06066 1.06066 
C -0.77937 1.341951 -0.397805 1.5 0 1.5 
z
" id="m4093c810c3" style="stroke:#f5deb3;stroke-width:0.5;"/>
    </defs>
    <g>
     <use style="fill:#f5deb3;stroke:#f5deb3;stroke-width:0.5;" x="346.160618747" xlink:href="#m4093c810c3" y="29.6868007426"/>
     <use style="fill:#f5deb3;stroke:#f5deb3;stroke-width:0.5;" x="346.160618747" xlink:href="#m4093c810c3" y="29.6868007426"/>
    </g>
   </g>
   <g id="line2d_5">
    <g>
     <use style="fill:#f5deb3;stroke:#f5deb3;stroke-linejoin:miter;stroke-width:1.5;" x="107.173697775" xlink:href="#m5d7480d55c" y="244.87887995"/>
     <use style="fill:#f5deb3;stroke:#f5deb3;stroke-linejoin:miter;stroke-width:1.5;" x="171.126736905" xlink:href="#m5d7480d55c" y="163.516503713"/>
     <use style="fill:#f5deb3;stroke:#f5deb3;stroke-linejoin:miter;stroke-width:1.5;" x="207.830890698" xlink:href="#m5d7480d55c" y="96.6016522277"/>
     <use style="fill:#f5deb3;stroke:#f5deb3;stroke-linejoin:miter;stroke-width:1.5;" x="277.046810944" xlink:href="#m5d7480d55c" y="41.0927413366"/>
     <use style="fill:#f5deb3;stroke:#f5deb3;stroke-linejoin:miter;stroke-width:1.5;" x="346.160618747" xlink:href="#m5d7480d55c" y="29.6868007426"/>
     <use style="fill:#f5deb3;stroke:#f5deb3;stroke-linejoin:miter;stroke-width:1.5;" x="362.301120416" xlink:href="#m5d7480d55c" y="29.6868007426"/>
    </g>
   </g>
   <g id="line2d_6">
    <defs>
     <path d="M 0 1.5 
C 0.397805 1.5 0.77937 1.341951 1.06066 1.06066 
C 1.341951 0.77937 1.5 0.397805 1.5 0 
C 1.5 -0.397805 1.341951 -0.77937 1.06066 -1.06066 
C 0.77937 -1.341951 0.397805 -1.5 0 -1.5 
C -0.397805 -1.5 -0.77937 -1.341951 -1.06066 -1.06066 
C -1.341951 -0.77937 -1.5 -0.397805 -1.5 0 
C -1.5 0.397805 -1.341951 0.77937 -1.06066 1.06066 
C -0.77937 1.341951 -0.397805 1.5 0 1.5 
z
" id="m23b25446ac" style="stroke:#000080;stroke-width:0.5;"/>
    </defs>
    <g>
     <use style="fill:#000080;stroke:#000080;stroke-width:0.5;" x="429.512163392" xlink:href="#m23b25446ac" y="91.2788799505"/>
     <use style="fill:#000080;stroke:#000080;stroke-width:0.5;" x="429.512163392" xlink:href="#m23b25446ac" y="91.2788799505"/>
    </g>
   </g>
   <g id="line2d_7">
    <path d="M 7.2 303.429375 
L 7.2 295.825415 
L 36.09888 295.825415 
L 36.09888 292.78383 
L 53.00364 292.78383 
L 53.00364 292.023434 
L 64.997759 292.023434 
L 64.997759 286.700662 
L 74.30112 286.700662 
L 74.30112 284.419474 
L 81.90252 284.419474 
L 81.90252 273.013533 
L 88.329412 273.013533 
L 88.329412 269.971949 
L 93.896639 269.971949 
L 93.896639 263.128385 
L 98.807281 263.128385 
L 98.807281 261.607593 
L 103.2 261.607593 
L 103.2 260.086801 
L 107.173698 260.086801 
L 107.173698 258.566009 
L 110.8014 258.566009 
L 110.8014 256.284821 
L 114.138562 256.284821 
L 114.138562 254.003632 
L 122.795518 254.003632 
L 122.795518 253.243236 
L 125.323096 253.243236 
L 125.323096 252.48284 
L 127.70616 252.48284 
L 127.70616 250.962048 
L 132.09888 250.962048 
L 132.09888 248.68086 
L 134.133052 248.68086 
L 134.133052 246.399672 
L 136.072577 246.399672 
L 136.072577 242.597692 
L 137.925872 242.597692 
L 137.925872 236.514524 
L 139.700279 236.514524 
L 139.700279 231.952147 
L 141.402241 231.952147 
L 141.402241 230.431355 
L 146.127171 230.431355 
L 146.127171 225.108583 
L 151.694398 225.108583 
L 151.694398 224.348187 
L 152.977338 224.348187 
L 152.977338 223.587791 
L 154.221976 223.587791 
L 154.221976 222.827395 
L 155.430532 222.827395 
L 155.430532 220.546207 
L 156.60504 220.546207 
L 156.60504 218.265019 
L 165.908401 218.265019 
L 165.908401 212.942246 
L 166.824752 212.942246 
L 166.824752 212.18185 
L 170.30112 212.18185 
L 170.30112 209.900662 
L 171.936321 209.900662 
L 171.936321 209.140266 
L 172.730483 209.140266 
L 172.730483 206.859078 
L 175.026051 206.859078 
L 175.026051 205.338286 
L 175.763986 205.338286 
L 175.763986 204.57789 
L 181.239682 204.57789 
L 181.239682 203.057098 
L 181.876218 203.057098 
L 181.876218 199.255118 
L 184.329412 199.255118 
L 184.329412 198.494722 
L 185.50392 198.494722 
L 185.50392 197.734325 
L 186.078995 197.734325 
L 186.078995 193.171949 
L 187.205881 193.171949 
L 187.205881 190.890761 
L 197.930086 190.890761 
L 197.930086 188.609573 
L 201.629363 188.609573 
L 201.629363 187.849177 
L 207.490544 187.849177 
L 207.490544 187.088781 
L 208.835572 187.088781 
L 208.835572 186.328385 
L 214.402799 186.328385 
L 214.402799 185.567989 
L 217.739961 185.567989 
L 217.739961 184.807593 
L 223.24032 184.807593 
L 223.24032 184.047197 
L 226.396918 184.047197 
L 226.396918 182.526405 
L 227.256583 182.526405 
L 227.256583 181.005613 
L 227.679858 181.005613 
L 227.679858 179.484821 
L 236.389423 179.484821 
L 236.389423 177.964028 
L 248.850806 177.964028 
L 248.850806 177.203632 
L 254.084048 177.203632 
L 254.084048 176.443236 
L 255.942202 176.443236 
L 255.942202 174.922444 
L 258.331205 174.922444 
L 258.331205 174.162048 
L 259.525337 174.162048 
L 259.525337 173.401652 
L 260.494969 173.401652 
L 260.494969 171.88086 
L 261.442561 171.88086 
L 261.442561 171.120464 
L 262.369094 171.120464 
L 262.460625 169.599672 
L 265.20278 169.599672 
L 265.20278 168.839276 
L 268.176162 168.839276 
L 268.176162 167.318484 
L 268.887517 167.318484 
L 268.887517 165.797692 
L 274.386114 165.797692 
L 274.386114 164.2769 
L 276.397386 164.2769 
L 276.397386 163.516504 
L 277.239682 163.516504 
L 277.303775 161.235316 
L 277.495464 161.235316 
L 277.495464 160.47492 
L 278.31608 160.47492 
L 278.31608 158.193731 
L 278.874883 158.193731 
L 278.874883 157.433335 
L 281.677277 157.433335 
L 281.677277 156.672939 
L 282.702548 156.672939 
L 282.702548 155.152147 
L 282.927002 155.152147 
L 282.927002 153.631355 
L 283.648244 153.631355 
L 283.648244 152.870959 
L 285.844491 152.870959 
L 285.844491 152.110563 
L 294.780979 152.110563 
L 294.823071 149.829375 
L 295.366436 149.829375 
L 295.366436 149.068979 
L 296.270147 149.068979 
L 296.270147 145.266999 
L 297.471736 145.266999 
L 297.471736 144.506603 
L 298.098699 144.506603 
L 298.098699 142.985811 
L 303.216252 142.985811 
L 303.250637 139.18383 
L 304.40318 139.18383 
L 304.469994 137.663038 
L 305.099448 137.663038 
L 305.099448 136.142246 
L 305.394326 136.142246 
L 305.394326 135.38185 
L 307.989068 135.38185 
L 307.989068 134.621454 
L 308.628392 134.621454 
L 308.628392 133.100662 
L 315.184563 133.100662 
L 315.184563 132.340266 
L 315.493205 132.340266 
L 315.493205 131.57987 
L 317.052446 131.57987 
L 317.052446 130.819474 
L 320.780822 130.819474 
L 320.780822 130.059078 
L 320.893534 130.059078 
L 320.961016 128.538286 
L 321.274493 128.538286 
L 321.274493 127.77789 
L 323.256583 127.77789 
L 323.256583 126.257098 
L 329.451884 126.257098 
L 329.451884 125.496702 
L 331.873636 125.496702 
L 331.873636 124.736306 
L 332.610965 124.736306 
L 332.661923 122.455118 
L 332.898908 122.455118 
L 332.898908 120.934325 
L 341.156233 120.934325 
L 341.225408 118.653137 
L 341.747427 118.653137 
L 341.747427 117.892741 
L 346.160619 117.892741 
L 346.160619 115.611553 
L 348.743783 115.611553 
L 348.801457 114.090761 
L 349.532718 114.090761 
L 349.532718 112.569969 
L 355.031932 112.569969 
L 355.031932 111.809573 
L 355.210231 111.809573 
L 355.210231 111.049177 
L 356.293208 111.049177 
L 356.293208 110.288781 
L 360.763865 110.288781 
L 360.763865 109.528385 
L 362.30112 109.528385 
L 362.30112 109.528385 
" style="fill:none;stroke:#000080;stroke-linecap:square;stroke-width:1.5;"/>
   </g>
   <g id="line2d_8">
    <defs>
     <path d="M 0 6 
C 1.591219 6 3.117479 5.367802 4.242641 4.242641 
C 5.367802 3.117479 6 1.591219 6 0 
C 6 -1.591219 5.367802 -3.117479 4.242641 -4.242641 
C 3.117479 -5.367802 1.591219 -6 0 -6 
C -1.591219 -6 -3.117479 -5.367802 -4.242641 -4.242641 
C -5.367802 -3.117479 -6 -1.591219 -6 0 
C -6 1.591219 -5.367802 3.117479 -4.242641 4.242641 
C -3.117479 5.367802 -1.591219 6 0 6 
z
" id="mfd21b07a0e" style="stroke:#000080;stroke-width:1.5;"/>
    </defs>
    <g>
     <use style="fill:none;stroke:#000080;stroke-width:1.5;" x="88.3294118414" xlink:href="#mfd21b07a0e" y="273.013533416"/>
     <use style="fill:none;stroke:#000080;stroke-width:1.5;" x="146.127171009" xlink:href="#mfd21b07a0e" y="230.431355198"/>
     <use style="fill:none;stroke:#000080;stroke-width:1.5;" x="214.402799241" xlink:href="#mfd21b07a0e" y="186.328384901"/>
     <use style="fill:none;stroke:#000080;stroke-width:1.5;" x="304.403179534" xlink:href="#mfd21b07a0e" y="138.423434406"/>
     <use style="fill:none;stroke:#000080;stroke-width:1.5;" x="360.763864925" xlink:href="#mfd21b07a0e" y="109.528384901"/>
     <use style="fill:none;stroke:#000080;stroke-width:1.5;" x="362.301120416" xlink:href="#mfd21b07a0e" y="109.528384901"/>
    </g>
   </g>
   <g id="line2d_9"/>
   <g id="line2d_10">
    <path clip-path="url(#pdca725db8a)" d="M 273.971949 165.797692 
" style="fill:none;stroke:#000080;stroke-linecap:square;"/>
    <defs>
     <path d="M -12 12 
L 12 -12 
M -12 -12 
L 12 12 
" id="m98d20d2c69" style="stroke:#000080;stroke-width:3.0;"/>
    </defs>
    <g clip-path="url(#pdca725db8a)">
     <use style="fill:#000080;stroke:#000080;stroke-width:3.0;" x="273.971949312" xlink:href="#m98d20d2c69" y="165.797691832"/>
    </g>
   </g>
   <g id="line2d_11">
    <defs>
     <path d="M 0 1.5 
C 0.397805 1.5 0.77937 1.341951 1.06066 1.06066 
C 1.341951 0.77937 1.5 0.397805 1.5 0 
C 1.5 -0.397805 1.341951 -0.77937 1.06066 -1.06066 
C 0.77937 -1.341951 0.397805 -1.5 0 -1.5 
C -0.397805 -1.5 -0.77937 -1.341951 -1.06066 -1.06066 
C -1.341951 -0.77937 -1.5 -0.397805 -1.5 0 
C -1.5 0.397805 -1.341951 0.77937 -1.06066 1.06066 
C -0.77937 1.341951 -0.397805 1.5 0 1.5 
z
" id="m7c4690a626" style="stroke:#ff00ff;stroke-width:0.5;"/>
    </defs>
    <g>
     <use style="fill:#ff00ff;stroke:#ff00ff;stroke-width:0.5;" x="416.84623223" xlink:href="#m7c4690a626" y="105.726404703"/>
     <use style="fill:#ff00ff;stroke:#ff00ff;stroke-width:0.5;" x="416.84623223" xlink:href="#m7c4690a626" y="105.726404703"/>
    </g>
   </g>
   <g id="line2d_12">
    <path d="M 7.2 303.429375 
L 7.2 292.78383 
L 36.09888 292.78383 
L 36.09888 286.700662 
L 53.00364 286.700662 
L 53.00364 277.57591 
L 64.997759 277.57591 
L 64.997759 271.492741 
L 74.30112 271.492741 
L 74.30112 266.930365 
L 81.90252 266.930365 
L 81.90252 263.888781 
L 88.329412 263.888781 
L 88.329412 259.326405 
L 93.896639 259.326405 
L 93.896639 257.805613 
L 98.807281 257.805613 
L 98.807281 254.764028 
L 103.2 254.764028 
L 103.2 253.243236 
L 110.8014 253.243236 
L 110.8014 250.201652 
L 114.138562 250.201652 
L 114.138562 244.87888 
L 117.228291 244.87888 
L 117.228291 238.795712 
L 120.104761 238.795712 
L 120.104761 236.514524 
L 127.70616 236.514524 
L 127.70616 234.993731 
L 129.960346 234.993731 
L 129.960346 234.233335 
L 132.09888 234.233335 
L 132.09888 232.712543 
L 134.133052 232.712543 
L 134.133052 231.191751 
L 137.925872 231.191751 
L 137.925872 228.150167 
L 141.402241 228.150167 
L 141.402241 225.108583 
L 144.610921 225.108583 
L 144.610921 224.348187 
L 146.127171 224.348187 
L 146.127171 221.306603 
L 152.977338 221.306603 
L 152.977338 220.546207 
L 156.60504 220.546207 
L 156.60504 219.025415 
L 157.747366 219.025415 
L 157.747366 215.98383 
L 159.942202 215.98383 
L 159.942202 215.223434 
L 160.997759 215.223434 
L 160.997759 214.463038 
L 164.971457 214.463038 
L 164.971457 213.702642 
L 168.599159 213.702642 
L 168.599159 212.942246 
L 172.730483 212.942246 
L 172.730483 212.18185 
L 174.274818 212.18185 
L 174.274818 210.661058 
L 175.026051 210.661058 
L 175.026051 209.900662 
L 175.763986 209.900662 
L 175.763986 208.37987 
L 177.201793 208.37987 
L 177.201793 205.338286 
L 178.591664 205.338286 
L 178.591664 204.57789 
L 180.593278 204.57789 
L 180.593278 203.817494 
L 186.646245 203.817494 
L 186.646245 203.057098 
L 187.205881 203.057098 
L 187.205881 200.77591 
L 191.930811 200.77591 
L 191.930811 196.973929 
L 193.870337 196.973929 
L 193.870337 196.213533 
L 194.807281 196.213533 
L 194.807281 194.692741 
L 195.267974 194.692741 
L 195.267974 193.932345 
L 197.930086 193.932345 
L 197.930086 192.411553 
L 199.614852 192.411553 
L 199.614852 190.130365 
L 200.432374 190.130365 
L 200.432374 189.369969 
L 200.835201 189.369969 
L 200.835201 187.849177 
L 202.792944 187.849177 
L 202.792944 187.088781 
L 206.8014 187.088781 
L 206.8014 186.328385 
L 208.835572 186.328385 
L 208.835572 184.807593 
L 209.492157 184.807593 
L 209.492157 183.286801 
L 212.929421 183.286801 
L 212.929421 181.005613 
L 214.11226 181.005613 
L 214.11226 179.484821 
L 214.977874 179.484821 
L 214.977874 178.724425 
L 215.262464 178.724425 
L 215.262464 177.964028 
L 217.739961 177.964028 
L 217.739961 177.203632 
L 219.055284 177.203632 
L 219.055284 175.68284 
L 222.052426 175.68284 
L 222.052426 174.922444 
L 224.166853 174.922444 
L 224.166853 173.401652 
L 224.848486 173.401652 
L 224.848486 171.88086 
L 238.391037 171.88086 
L 238.391037 171.120464 
L 259.229995 171.120464 
L 259.229995 170.360068 
L 259.818602 170.360068 
L 259.818602 168.839276 
L 269.740784 168.839276 
L 269.740784 167.318484 
L 273.131068 167.318484 
L 273.131068 166.558088 
L 273.553629 166.558088 
L 273.553629 164.2769 
L 274.041263 164.2769 
L 274.110462 162.756108 
L 274.179546 162.756108 
L 274.179546 161.995712 
L 277.046811 161.995712 
L 277.046811 161.235316 
L 277.93934 161.235316 
L 277.93934 160.47492 
L 279.850185 160.47492 
L 279.850185 159.714524 
L 279.970509 159.714524 
L 279.970509 158.954127 
L 280.803193 158.954127 
L 280.803193 158.193731 
L 281.27165 158.193731 
L 281.27165 157.433335 
L 281.907303 157.433335 
L 281.907303 156.672939 
L 282.136068 156.672939 
L 282.136068 155.912543 
L 282.306822 155.912543 
L 282.306822 155.152147 
L 283.150254 155.152147 
L 283.150254 154.391751 
L 284.30311 154.391751 
L 284.30311 152.110563 
L 288.128875 152.110563 
L 288.128875 151.350167 
L 288.863344 151.350167 
L 288.863344 149.829375 
L 295.614852 149.829375 
L 295.614852 149.068979 
L 295.861796 149.068979 
L 295.861796 147.548187 
L 302.065325 147.548187 
L 302.065325 146.787791 
L 302.206535 146.787791 
L 302.206535 146.027395 
L 302.452508 146.027395 
L 302.452508 145.266999 
L 303.627016 145.266999 
L 303.627016 144.506603 
L 305.394326 144.506603 
L 305.394326 143.746207 
L 306.83822 143.746207 
L 306.83822 142.985811 
L 307.804588 142.985811 
L 307.804588 139.944226 
L 307.958378 139.944226 
L 307.958378 139.18383 
L 310.604979 139.18383 
L 310.604979 138.423434 
L 317.786484 138.423434 
L 317.786484 137.663038 
L 319.193449 137.663038 
L 319.193449 136.902642 
L 321.25218 136.902642 
L 321.25218 135.38185 
L 321.363627 135.38185 
L 321.363627 133.861058 
L 322.026124 133.861058 
L 322.026124 133.100662 
L 322.396918 133.100662 
L 322.396918 132.340266 
L 324.822184 132.340266 
L 324.822184 130.819474 
L 327.920693 130.819474 
L 327.920693 130.059078 
L 330.052569 130.059078 
L 330.070637 127.77789 
L 330.875705 127.77789 
L 330.875705 127.017494 
L 331.700279 127.017494 
L 331.700279 126.257098 
L 332.661923 126.257098 
L 332.661923 124.736306 
L 332.932653 124.736306 
L 332.932653 123.215514 
L 333.817093 123.215514 
L 333.817093 122.455118 
L 335.404636 122.455118 
L 335.404636 121.694722 
L 337.73822 121.694722 
L 337.73822 120.934325 
L 340.836537 120.934325 
L 340.836537 120.173929 
L 354.331205 120.173929 
L 354.331205 118.653137 
L 355.229995 118.653137 
L 355.229995 117.892741 
L 356.848093 117.892741 
L 356.848093 116.371949 
L 362.092136 116.371949 
L 362.092136 115.611553 
L 362.30112 115.611553 
L 362.30112 115.611553 
" style="fill:none;stroke:#ff00ff;stroke-linecap:square;stroke-width:1.5;"/>
   </g>
   <g id="line2d_13">
    <defs>
     <path d="M -0 8.485281 
L 5.091169 0 
L 0 -8.485281 
L -5.091169 -0 
z
" id="mbddcde42f8" style="stroke:#ff00ff;stroke-linejoin:miter;stroke-width:1.5;"/>
    </defs>
    <g>
     <use style="fill:none;stroke:#ff00ff;stroke-linejoin:miter;stroke-width:1.5;" x="36.0988795837" xlink:href="#mbddcde42f8" y="286.700662129"/>
     <use style="fill:none;stroke:#ff00ff;stroke-linejoin:miter;stroke-width:1.5;" x="114.138561821" xlink:href="#mbddcde42f8" y="244.87887995"/>
     <use style="fill:none;stroke:#ff00ff;stroke-linejoin:miter;stroke-width:1.5;" x="186.646245094" xlink:href="#mbddcde42f8" y="203.057097772"/>
     <use style="fill:none;stroke:#ff00ff;stroke-linejoin:miter;stroke-width:1.5;" x="238.39103667" xlink:href="#mbddcde42f8" y="171.120464109"/>
     <use style="fill:none;stroke:#ff00ff;stroke-linejoin:miter;stroke-width:1.5;" x="340.836536942" xlink:href="#mbddcde42f8" y="120.934325495"/>
     <use style="fill:none;stroke:#ff00ff;stroke-linejoin:miter;stroke-width:1.5;" x="362.301120416" xlink:href="#mbddcde42f8" y="115.611553218"/>
    </g>
   </g>
   <g id="line2d_14"/>
   <g id="line2d_15">
    <path clip-path="url(#pdca725db8a)" d="M 273.060223 167.318484 
" style="fill:none;stroke:#ff00ff;stroke-linecap:square;"/>
    <defs>
     <path d="M -12 12 
L 12 -12 
M -12 -12 
L 12 12 
" id="m7a8fae1e66" style="stroke:#ff00ff;stroke-width:3.0;"/>
    </defs>
    <g clip-path="url(#pdca725db8a)">
     <use style="fill:#ff00ff;stroke:#ff00ff;stroke-width:3.0;" x="273.060223303" xlink:href="#m7a8fae1e66" y="167.318483911"/>
    </g>
   </g>
   <g id="line2d_16">
    <defs>
     <path d="M 0 1.5 
C 0.397805 1.5 0.77937 1.341951 1.06066 1.06066 
C 1.341951 0.77937 1.5 0.397805 1.5 0 
C 1.5 -0.397805 1.341951 -0.77937 1.06066 -1.06066 
C 0.77937 -1.341951 0.397805 -1.5 0 -1.5 
C -0.397805 -1.5 -0.77937 -1.341951 -1.06066 -1.06066 
C -1.341951 -0.77937 -1.5 -0.397805 -1.5 0 
C -1.5 0.397805 -1.341951 0.77937 -1.06066 1.06066 
C -0.77937 1.341951 -0.397805 1.5 0 1.5 
z
" id="mafca35406d" style="stroke:#ffa500;stroke-width:0.5;"/>
    </defs>
    <g>
     <use style="fill:#ffa500;stroke:#ffa500;stroke-width:0.5;" x="394.678036232" xlink:href="#mafca35406d" y="90.5184839109"/>
     <use style="fill:#ffa500;stroke:#ffa500;stroke-width:0.5;" x="394.678036232" xlink:href="#mafca35406d" y="90.5184839109"/>
    </g>
   </g>
   <g id="line2d_17">
    <path d="M 7.2 303.429375 
L 7.2 297.346207 
L 36.09888 297.346207 
L 36.09888 295.825415 
L 53.00364 295.825415 
L 53.00364 290.502642 
L 64.997759 290.502642 
L 64.997759 288.98185 
L 74.30112 288.98185 
L 74.30112 288.221454 
L 81.90252 288.221454 
L 81.90252 283.659078 
L 88.329412 283.659078 
L 88.329412 275.294722 
L 93.896639 275.294722 
L 93.896639 271.492741 
L 103.2 271.492741 
L 103.2 267.690761 
L 107.173698 267.690761 
L 107.173698 263.128385 
L 110.8014 263.128385 
L 110.8014 258.566009 
L 114.138562 258.566009 
L 114.138562 257.805613 
L 117.228291 257.805613 
L 117.228291 254.003632 
L 120.104761 254.003632 
L 120.104761 251.722444 
L 122.795518 251.722444 
L 122.795518 250.962048 
L 125.323096 250.962048 
L 125.323096 248.68086 
L 129.960346 248.68086 
L 129.960346 246.399672 
L 136.072577 246.399672 
L 136.072577 244.87888 
L 137.925872 244.87888 
L 137.925872 244.118484 
L 139.700279 244.118484 
L 139.700279 241.837296 
L 141.402241 241.837296 
L 141.402241 241.0769 
L 143.037441 241.0769 
L 143.037441 238.035316 
L 146.127171 238.035316 
L 146.127171 237.27492 
L 149.00364 237.27492 
L 149.00364 235.754127 
L 150.370723 235.754127 
L 150.370723 232.712543 
L 151.694398 232.712543 
L 151.694398 231.952147 
L 152.977338 231.952147 
L 152.977338 230.431355 
L 154.221976 230.431355 
L 154.221976 228.910563 
L 155.430532 228.910563 
L 155.430532 228.150167 
L 158.859225 228.150167 
L 158.859225 226.629375 
L 160.997759 226.629375 
L 160.997759 224.348187 
L 163.031932 224.348187 
L 163.031932 223.587791 
L 164.012972 223.587791 
L 164.012972 220.546207 
L 164.971457 220.546207 
L 164.971457 219.785811 
L 166.824752 219.785811 
L 166.824752 218.265019 
L 169.458824 218.265019 
L 169.458824 216.744226 
L 171.126737 216.744226 
L 171.126737 213.702642 
L 171.936321 213.702642 
L 171.936321 212.942246 
L 175.026051 212.942246 
L 175.026051 212.18185 
L 175.763986 212.18185 
L 175.763986 210.661058 
L 179.269602 210.661058 
L 179.269602 209.900662 
L 180.593278 209.900662 
L 180.593278 207.619474 
L 182.503181 207.619474 
L 182.503181 205.338286 
L 184.920801 205.338286 
L 184.920801 204.57789 
L 187.205881 204.57789 
L 187.205881 203.057098 
L 189.896639 203.057098 
L 189.896639 200.015514 
L 190.92613 200.015514 
L 190.92613 199.255118 
L 192.424217 199.255118 
L 192.424217 198.494722 
L 193.393848 198.494722 
L 193.393848 197.734325 
L 193.870337 197.734325 
L 193.870337 196.213533 
L 194.807281 196.213533 
L 194.807281 194.692741 
L 199.614852 194.692741 
L 199.614852 191.651157 
L 201.234173 191.651157 
L 201.234173 190.130365 
L 203.551006 190.130365 
L 203.551006 187.849177 
L 205.387967 187.849177 
L 205.387967 187.088781 
L 209.816612 187.088781 
L 209.816612 186.328385 
L 210.775097 186.328385 
L 210.775097 185.567989 
L 212.325174 185.567989 
L 212.325174 182.526405 
L 214.402799 182.526405 
L 214.402799 181.005613 
L 216.381787 181.005613 
L 216.381787 180.245217 
L 217.201989 180.245217 
L 217.201989 179.484821 
L 219.825009 179.484821 
L 219.825009 178.724425 
L 222.052426 178.724425 
L 222.052426 177.964028 
L 228.306822 177.964028 
L 228.306822 175.68284 
L 229.331253 175.68284 
L 229.331253 173.401652 
L 232.072577 173.401652 
L 232.072577 172.641256 
L 233.19441 172.641256 
L 233.19441 171.88086 
L 234.822515 171.88086 
L 234.822515 171.120464 
L 235.175841 171.120464 
L 235.175841 169.599672 
L 235.351388 169.599672 
L 235.351388 168.839276 
L 236.218202 168.839276 
L 236.218202 167.318484 
L 238.391037 167.318484 
L 238.391037 166.558088 
L 239.356924 166.558088 
L 239.356924 165.797692 
L 239.988637 165.797692 
L 239.988637 165.037296 
L 241.527272 165.037296 
L 241.527272 164.2769 
L 243.590208 164.2769 
L 243.590208 163.516504 
L 246.638841 163.516504 
L 246.638841 162.756108 
L 246.905246 162.756108 
L 246.905246 161.995712 
L 247.301689 161.995712 
L 247.301689 161.235316 
L 248.212321 161.235316 
L 248.212321 158.954127 
L 249.976003 158.954127 
L 249.976003 158.193731 
L 254.084048 158.193731 
L 254.084048 157.433335 
L 254.968798 157.433335 
L 254.968798 156.672939 
L 255.620253 156.672939 
L 255.620253 153.631355 
L 256.261685 153.631355 
L 256.261685 152.870959 
L 259.721076 152.870959 
L 259.721076 152.110563 
L 262.460625 152.110563 
L 262.460625 151.350167 
L 263.00563 151.350167 
L 263.00563 148.308583 
L 263.185726 148.308583 
L 263.185726 146.787791 
L 263.543602 146.787791 
L 263.543602 146.027395 
L 264.250267 146.027395 
L 264.250267 144.506603 
L 264.425078 144.506603 
L 264.425078 143.746207 
L 265.031207 143.746207 
L 265.031207 142.985811 
L 267.289916 142.985811 
L 267.289916 142.225415 
L 267.452459 142.225415 
L 267.452459 141.465019 
L 271.837066 141.465019 
L 271.837066 140.704623 
L 272.417142 140.704623 
L 272.417142 139.944226 
L 273.131068 139.944226 
L 273.131068 139.18383 
L 274.932011 139.18383 
L 274.932011 138.423434 
L 275.870462 138.423434 
L 275.870462 137.663038 
L 279.365386 137.663038 
L 279.365386 136.902642 
L 280.566975 136.902642 
L 280.566975 136.142246 
L 280.979482 136.142246 
L 281.038079 134.621454 
L 281.561785 134.621454 
L 281.561785 133.861058 
L 282.249982 133.861058 
L 282.249982 133.100662 
L 283.593204 133.100662 
L 283.593204 132.340266 
L 284.465231 132.340266 
L 284.465231 131.57987 
L 284.626725 131.57987 
L 284.626725 130.819474 
L 289.105319 130.819474 
L 289.105319 130.059078 
L 290.200668 130.059078 
L 290.200668 129.298682 
L 293.236644 129.298682 
L 293.236644 128.538286 
L 293.800942 128.538286 
L 293.800942 127.77789 
L 294.569878 127.77789 
L 294.569878 126.257098 
L 298.792944 126.257098 
L 298.792944 125.496702 
L 298.983755 125.496702 
L 298.983755 124.736306 
L 299.700978 124.736306 
L 299.700978 123.97591 
L 301.316022 123.97591 
L 301.316022 123.215514 
L 303.216252 123.215514 
L 303.216252 122.455118 
L 306.80667 122.455118 
L 306.80667 121.694722 
L 309.672618 121.694722 
L 309.672618 120.934325 
L 310.024701 120.934325 
L 310.024701 120.173929 
L 310.633782 120.173929 
L 310.633782 119.413533 
L 311.43229 119.413533 
L 311.43229 118.653137 
L 312.60209 118.653137 
L 312.684405 117.132345 
L 312.821235 117.132345 
L 312.821235 116.371949 
L 314.244684 116.371949 
L 314.244684 115.611553 
L 314.586534 115.611553 
L 314.586534 114.851157 
L 314.795518 114.851157 
L 314.795518 114.090761 
L 315.236162 114.090761 
L 315.236162 113.330365 
L 316.078459 113.330365 
L 316.078459 112.569969 
L 317.955916 112.569969 
L 317.955916 111.809573 
L 321.229855 111.809573 
L 321.229855 111.049177 
L 324.119721 111.049177 
L 324.119721 110.288781 
L 324.389709 110.288781 
L 324.389709 109.528385 
L 325.432325 109.528385 
L 325.432325 108.767989 
L 328.562415 108.767989 
L 328.562415 108.007593 
L 331.473832 108.007593 
L 331.473832 107.247197 
L 332.525896 107.247197 
L 332.525896 106.486801 
L 332.949515 106.486801 
L 332.949515 105.726405 
L 335.626572 105.726405 
L 335.626572 104.966009 
L 336.872605 104.966009 
L 336.872605 104.205613 
L 340.500307 104.205613 
L 340.500307 103.445217 
L 341.555864 103.445217 
L 341.555864 102.684821 
L 342.38417 102.684821 
L 342.38417 101.924425 
L 342.865394 101.924425 
L 342.865394 100.403632 
L 343.406774 100.403632 
L 343.406774 99.643236 
L 344.096348 99.643236 
L 344.096348 98.88284 
L 344.98997 98.88284 
L 344.98997 98.122444 
L 345.166419 98.122444 
L 345.166419 97.362048 
L 347.466253 97.362048 
L 347.466253 96.601652 
L 349.724823 96.601652 
L 349.724823 95.841256 
L 351.023476 95.841256 
L 351.023476 95.08086 
L 356.829081 95.08086 
L 356.829081 94.320464 
L 362.30112 94.320464 
L 362.30112 94.320464 
" style="fill:none;stroke:#ffa500;stroke-linecap:square;stroke-width:1.5;"/>
   </g>
   <g id="line2d_18">
    <defs>
     <path d="M 0 -6 
L -1.347084 -1.854102 
L -5.706339 -1.854102 
L -2.179628 0.708204 
L -3.526712 4.854102 
L -0 2.291796 
L 3.526712 4.854102 
L 2.179628 0.708204 
L 5.706339 -1.854102 
L 1.347084 -1.854102 
z
" id="m024bcd5de2" style="stroke:#ffa500;stroke-linejoin:bevel;stroke-width:1.5;"/>
    </defs>
    <g>
     <use style="fill:none;stroke:#ffa500;stroke-linejoin:bevel;stroke-width:1.5;" x="64.9977591675" xlink:href="#m024bcd5de2" y="288.981850248"/>
     <use style="fill:none;stroke:#ffa500;stroke-linejoin:bevel;stroke-width:1.5;" x="150.370722608" xlink:href="#m024bcd5de2" y="232.712543317"/>
     <use style="fill:none;stroke:#ffa500;stroke-linejoin:bevel;stroke-width:1.5;" x="219.825009413" xlink:href="#m024bcd5de2" y="178.724424505"/>
     <use style="fill:none;stroke:#ffa500;stroke-linejoin:bevel;stroke-width:1.5;" x="275.870461963" xlink:href="#m024bcd5de2" y="137.663038366"/>
     <use style="fill:none;stroke:#ffa500;stroke-linejoin:bevel;stroke-width:1.5;" x="332.949515171" xlink:href="#m024bcd5de2" y="105.726404703"/>
     <use style="fill:none;stroke:#ffa500;stroke-linejoin:bevel;stroke-width:1.5;" x="362.301120416" xlink:href="#m024bcd5de2" y="94.3204641089"/>
    </g>
   </g>
   <g id="line2d_19"/>
   <g id="line2d_20">
    <path clip-path="url(#pdca725db8a)" d="M 237.402241 167.318484 
" style="fill:none;stroke:#ffa500;stroke-linecap:square;"/>
    <defs>
     <path d="M -12 12 
L 12 -12 
M -12 -12 
L 12 12 
" id="m05e6414b2e" style="stroke:#ffa500;stroke-width:3.0;"/>
    </defs>
    <g clip-path="url(#pdca725db8a)">
     <use style="fill:#ffa500;stroke:#ffa500;stroke-width:3.0;" x="237.402240833" xlink:href="#m05e6414b2e" y="167.318483911"/>
    </g>
   </g>
   <g id="line2d_21">
    <path d="M 362.30112 115.611553 
L 393.98112 297.954524 
" style="fill:none;stroke:#ff00ff;stroke-linecap:square;stroke-width:1.5;"/>
    <g>
     <use style="fill:none;stroke:#ff00ff;stroke-linejoin:miter;stroke-width:1.5;" x="362.301120416" xlink:href="#mbddcde42f8" y="115.611553218"/>
     <use style="fill:none;stroke:#ff00ff;stroke-linejoin:miter;stroke-width:1.5;" x="393.981120416" xlink:href="#mbddcde42f8" y="297.954523515"/>
    </g>
   </g>
   <g id="line2d_22">
    <path d="M 362.30112 109.528385 
L 393.98112 210.3569 
" style="fill:none;stroke:#000080;stroke-linecap:square;stroke-width:1.5;"/>
    <g>
     <use style="fill:none;stroke:#000080;stroke-width:1.5;" x="362.301120416" xlink:href="#mfd21b07a0e" y="109.528384901"/>
     <use style="fill:none;stroke:#000080;stroke-width:1.5;" x="393.981120416" xlink:href="#mfd21b07a0e" y="210.356899752"/>
    </g>
   </g>
   <g id="line2d_23">
    <path d="M 362.30112 94.320464 
L 393.98112 122.759276 
" style="fill:none;stroke:#ffa500;stroke-linecap:square;stroke-width:1.5;"/>
    <g>
     <use style="fill:none;stroke:#ffa500;stroke-linejoin:bevel;stroke-width:1.5;" x="362.301120416" xlink:href="#m024bcd5de2" y="94.3204641089"/>
     <use style="fill:none;stroke:#ffa500;stroke-linejoin:bevel;stroke-width:1.5;" x="393.981120416" xlink:href="#m024bcd5de2" y="122.75927599"/>
    </g>
   </g>
   <g id="line2d_24">
    <path d="M 362.30112 303.429375 
L 362.30112 29.686801 
" style="fill:none;stroke:#000000;stroke-linecap:square;"/>
   </g>
   <g id="patch_3">
    <path d="M 74.30112 26.949375 
L 431.42112 26.949375 
" style="fill:none;stroke:#000000;stroke-linecap:square;stroke-linejoin:miter;"/>
   </g>
   <g id="patch_4">
    <path d="M 431.42112 303.429375 
L 431.42112 26.949375 
" style="fill:none;stroke:#000000;stroke-linecap:square;stroke-linejoin:miter;"/>
   </g>
   <g id="patch_5">
    <path d="M 74.30112 303.429375 
L 431.42112 303.429375 
" style="fill:none;stroke:#000000;stroke-linecap:square;stroke-linejoin:miter;"/>
   </g>
   <g id="patch_6">
    <path d="M 74.30112 303.429375 
L 74.30112 26.949375 
" style="fill:none;stroke:#000000;stroke-linecap:square;stroke-linejoin:miter;"/>
   </g>
   <g id="matplotlib.axis_1">
    <g id="xtick_1">
     <g id="line2d_25">
      <path clip-path="url(#pdca725db8a)" d="M 74.30112 303.429375 
L 74.30112 26.949375 
" style="fill:none;stroke:#000000;stroke-dasharray:1.000000,3.000000;stroke-dashoffset:0.0;stroke-width:0.5;"/>
     </g>
     <g id="line2d_26">
      <defs>
       <path d="M 0 0 
L 0 -4 
" id="m0fe37815a9" style="stroke:#000000;stroke-width:0.5;"/>
      </defs>
      <g>
       <use style="stroke:#000000;stroke-width:0.5;" x="74.3011204163" xlink:href="#m0fe37815a9" y="303.429375"/>
      </g>
     </g>
     <g id="line2d_27">
      <defs>
       <path d="M 0 0 
L 0 4 
" id="m7b3fd2e176" style="stroke:#000000;stroke-width:0.5;"/>
      </defs>
      <g>
       <use style="stroke:#000000;stroke-width:0.5;" x="74.3011204163" xlink:href="#m7b3fd2e176" y="26.949375"/>
      </g>
     </g>
     <g id="text_1">
      <!-- 0 -->
      <defs>
       <path d="M 31.78125 66.40625 
Q 24.171875 66.40625 20.328125 58.90625 
Q 16.5 51.421875 16.5 36.375 
Q 16.5 21.390625 20.328125 13.890625 
Q 24.171875 6.390625 31.78125 6.390625 
Q 39.453125 6.390625 43.28125 13.890625 
Q 47.125 21.390625 47.125 36.375 
Q 47.125 51.421875 43.28125 58.90625 
Q 39.453125 66.40625 31.78125 66.40625 
M 31.78125 74.21875 
Q 44.046875 74.21875 50.515625 64.515625 
Q 56.984375 54.828125 56.984375 36.375 
Q 56.984375 17.96875 50.515625 8.265625 
Q 44.046875 -1.421875 31.78125 -1.421875 
Q 19.53125 -1.421875 13.0625 8.265625 
Q 6.59375 17.96875 6.59375 36.375 
Q 6.59375 54.828125 13.0625 64.515625 
Q 19.53125 74.21875 31.78125 74.21875 
" id="BitstreamVeraSans-Roman-30"/>
      </defs>
      <g transform="translate(67.9386204163 322.62625)scale(0.2 -0.2)">
       <use xlink:href="#BitstreamVeraSans-Roman-30"/>
      </g>
     </g>
    </g>
    <g id="xtick_2">
     <g id="line2d_28">
      <path clip-path="url(#pdca725db8a)" d="M 170.30112 303.429375 
L 170.30112 26.949375 
" style="fill:none;stroke:#000000;stroke-dasharray:1.000000,3.000000;stroke-dashoffset:0.0;stroke-width:0.5;"/>
     </g>
     <g id="line2d_29">
      <g>
       <use style="stroke:#000000;stroke-width:0.5;" x="170.301120416" xlink:href="#m0fe37815a9" y="303.429375"/>
      </g>
     </g>
     <g id="line2d_30">
      <g>
       <use style="stroke:#000000;stroke-width:0.5;" x="170.301120416" xlink:href="#m7b3fd2e176" y="26.949375"/>
      </g>
     </g>
     <g id="text_2">
      <!-- 1 -->
      <defs>
       <path d="M 12.40625 8.296875 
L 28.515625 8.296875 
L 28.515625 63.921875 
L 10.984375 60.40625 
L 10.984375 69.390625 
L 28.421875 72.90625 
L 38.28125 72.90625 
L 38.28125 8.296875 
L 54.390625 8.296875 
L 54.390625 0 
L 12.40625 0 
z
" id="BitstreamVeraSans-Roman-31"/>
      </defs>
      <g transform="translate(163.938620416 322.62625)scale(0.2 -0.2)">
       <use xlink:href="#BitstreamVeraSans-Roman-31"/>
      </g>
     </g>
    </g>
    <g id="xtick_3">
     <g id="line2d_31">
      <path clip-path="url(#pdca725db8a)" d="M 266.30112 303.429375 
L 266.30112 26.949375 
" style="fill:none;stroke:#000000;stroke-dasharray:1.000000,3.000000;stroke-dashoffset:0.0;stroke-width:0.5;"/>
     </g>
     <g id="line2d_32">
      <g>
       <use style="stroke:#000000;stroke-width:0.5;" x="266.301120416" xlink:href="#m0fe37815a9" y="303.429375"/>
      </g>
     </g>
     <g id="line2d_33">
      <g>
       <use style="stroke:#000000;stroke-width:0.5;" x="266.301120416" xlink:href="#m7b3fd2e176" y="26.949375"/>
      </g>
     </g>
     <g id="text_3">
      <!-- 2 -->
      <defs>
       <path d="M 19.1875 8.296875 
L 53.609375 8.296875 
L 53.609375 0 
L 7.328125 0 
L 7.328125 8.296875 
Q 12.9375 14.109375 22.625 23.890625 
Q 32.328125 33.6875 34.8125 36.53125 
Q 39.546875 41.84375 41.421875 45.53125 
Q 43.3125 49.21875 43.3125 52.78125 
Q 43.3125 58.59375 39.234375 62.25 
Q 35.15625 65.921875 28.609375 65.921875 
Q 23.96875 65.921875 18.8125 64.3125 
Q 13.671875 62.703125 7.8125 59.421875 
L 7.8125 69.390625 
Q 13.765625 71.78125 18.9375 73 
Q 24.125 74.21875 28.421875 74.21875 
Q 39.75 74.21875 46.484375 68.546875 
Q 53.21875 62.890625 53.21875 53.421875 
Q 53.21875 48.921875 51.53125 44.890625 
Q 49.859375 40.875 45.40625 35.40625 
Q 44.1875 33.984375 37.640625 27.21875 
Q 31.109375 20.453125 19.1875 8.296875 
" id="BitstreamVeraSans-Roman-32"/>
      </defs>
      <g transform="translate(259.938620416 322.62625)scale(0.2 -0.2)">
       <use xlink:href="#BitstreamVeraSans-Roman-32"/>
      </g>
     </g>
    </g>
    <g id="xtick_4">
     <g id="line2d_34">
      <path clip-path="url(#pdca725db8a)" d="M 362.30112 303.429375 
L 362.30112 26.949375 
" style="fill:none;stroke:#000000;stroke-dasharray:1.000000,3.000000;stroke-dashoffset:0.0;stroke-width:0.5;"/>
     </g>
     <g id="line2d_35">
      <g>
       <use style="stroke:#000000;stroke-width:0.5;" x="362.301120416" xlink:href="#m0fe37815a9" y="303.429375"/>
      </g>
     </g>
     <g id="line2d_36">
      <g>
       <use style="stroke:#000000;stroke-width:0.5;" x="362.301120416" xlink:href="#m7b3fd2e176" y="26.949375"/>
      </g>
     </g>
     <g id="text_4">
      <!-- 3 -->
      <defs>
       <path d="M 40.578125 39.3125 
Q 47.65625 37.796875 51.625 33 
Q 55.609375 28.21875 55.609375 21.1875 
Q 55.609375 10.40625 48.1875 4.484375 
Q 40.765625 -1.421875 27.09375 -1.421875 
Q 22.515625 -1.421875 17.65625 -0.515625 
Q 12.796875 0.390625 7.625 2.203125 
L 7.625 11.71875 
Q 11.71875 9.328125 16.59375 8.109375 
Q 21.484375 6.890625 26.8125 6.890625 
Q 36.078125 6.890625 40.9375 10.546875 
Q 45.796875 14.203125 45.796875 21.1875 
Q 45.796875 27.640625 41.28125 31.265625 
Q 36.765625 34.90625 28.71875 34.90625 
L 20.21875 34.90625 
L 20.21875 43.015625 
L 29.109375 43.015625 
Q 36.375 43.015625 40.234375 45.921875 
Q 44.09375 48.828125 44.09375 54.296875 
Q 44.09375 59.90625 40.109375 62.90625 
Q 36.140625 65.921875 28.71875 65.921875 
Q 24.65625 65.921875 20.015625 65.03125 
Q 15.375 64.15625 9.8125 62.3125 
L 9.8125 71.09375 
Q 15.4375 72.65625 20.34375 73.4375 
Q 25.25 74.21875 29.59375 74.21875 
Q 40.828125 74.21875 47.359375 69.109375 
Q 53.90625 64.015625 53.90625 55.328125 
Q 53.90625 49.265625 50.4375 45.09375 
Q 46.96875 40.921875 40.578125 39.3125 
" id="BitstreamVeraSans-Roman-33"/>
      </defs>
      <g transform="translate(355.938620416 322.62625)scale(0.2 -0.2)">
       <use xlink:href="#BitstreamVeraSans-Roman-33"/>
      </g>
     </g>
    </g>
    <g id="xtick_5">
     <g id="line2d_37">
      <defs>
       <path d="M 0 0 
L 0 -2 
" id="m8d58a4476e" style="stroke:#000000;stroke-width:0.5;"/>
      </defs>
      <g>
       <use style="stroke:#000000;stroke-width:0.5;" x="103.2" xlink:href="#m8d58a4476e" y="303.429375"/>
      </g>
     </g>
     <g id="line2d_38">
      <defs>
       <path d="M 0 0 
L 0 2 
" id="m5e437a6f26" style="stroke:#000000;stroke-width:0.5;"/>
      </defs>
      <g>
       <use style="stroke:#000000;stroke-width:0.5;" x="103.2" xlink:href="#m5e437a6f26" y="26.949375"/>
      </g>
     </g>
    </g>
    <g id="xtick_6">
     <g id="line2d_39">
      <g>
       <use style="stroke:#000000;stroke-width:0.5;" x="120.104760869" xlink:href="#m8d58a4476e" y="303.429375"/>
      </g>
     </g>
     <g id="line2d_40">
      <g>
       <use style="stroke:#000000;stroke-width:0.5;" x="120.104760869" xlink:href="#m5e437a6f26" y="26.949375"/>
      </g>
     </g>
    </g>
    <g id="xtick_7">
     <g id="line2d_41">
      <g>
       <use style="stroke:#000000;stroke-width:0.5;" x="132.098879584" xlink:href="#m8d58a4476e" y="303.429375"/>
      </g>
     </g>
     <g id="line2d_42">
      <g>
       <use style="stroke:#000000;stroke-width:0.5;" x="132.098879584" xlink:href="#m5e437a6f26" y="26.949375"/>
      </g>
     </g>
    </g>
    <g id="xtick_8">
     <g id="line2d_43">
      <g>
       <use style="stroke:#000000;stroke-width:0.5;" x="141.402240833" xlink:href="#m8d58a4476e" y="303.429375"/>
      </g>
     </g>
     <g id="line2d_44">
      <g>
       <use style="stroke:#000000;stroke-width:0.5;" x="141.402240833" xlink:href="#m5e437a6f26" y="26.949375"/>
      </g>
     </g>
    </g>
    <g id="xtick_9">
     <g id="line2d_45">
      <g>
       <use style="stroke:#000000;stroke-width:0.5;" x="149.003640453" xlink:href="#m8d58a4476e" y="303.429375"/>
      </g>
     </g>
     <g id="line2d_46">
      <g>
       <use style="stroke:#000000;stroke-width:0.5;" x="149.003640453" xlink:href="#m5e437a6f26" y="26.949375"/>
      </g>
     </g>
    </g>
    <g id="xtick_10">
     <g id="line2d_47">
      <g>
       <use style="stroke:#000000;stroke-width:0.5;" x="155.430532258" xlink:href="#m8d58a4476e" y="303.429375"/>
      </g>
     </g>
     <g id="line2d_48">
      <g>
       <use style="stroke:#000000;stroke-width:0.5;" x="155.430532258" xlink:href="#m5e437a6f26" y="26.949375"/>
      </g>
     </g>
    </g>
    <g id="xtick_11">
     <g id="line2d_49">
      <g>
       <use style="stroke:#000000;stroke-width:0.5;" x="160.997759167" xlink:href="#m8d58a4476e" y="303.429375"/>
      </g>
     </g>
     <g id="line2d_50">
      <g>
       <use style="stroke:#000000;stroke-width:0.5;" x="160.997759167" xlink:href="#m5e437a6f26" y="26.949375"/>
      </g>
     </g>
    </g>
    <g id="xtick_12">
     <g id="line2d_51">
      <g>
       <use style="stroke:#000000;stroke-width:0.5;" x="165.908401322" xlink:href="#m8d58a4476e" y="303.429375"/>
      </g>
     </g>
     <g id="line2d_52">
      <g>
       <use style="stroke:#000000;stroke-width:0.5;" x="165.908401322" xlink:href="#m5e437a6f26" y="26.949375"/>
      </g>
     </g>
    </g>
    <g id="xtick_13">
     <g id="line2d_53">
      <g>
       <use style="stroke:#000000;stroke-width:0.5;" x="199.2" xlink:href="#m8d58a4476e" y="303.429375"/>
      </g>
     </g>
     <g id="line2d_54">
      <g>
       <use style="stroke:#000000;stroke-width:0.5;" x="199.2" xlink:href="#m5e437a6f26" y="26.949375"/>
      </g>
     </g>
    </g>
    <g id="xtick_14">
     <g id="line2d_55">
      <g>
       <use style="stroke:#000000;stroke-width:0.5;" x="216.104760869" xlink:href="#m8d58a4476e" y="303.429375"/>
      </g>
     </g>
     <g id="line2d_56">
      <g>
       <use style="stroke:#000000;stroke-width:0.5;" x="216.104760869" xlink:href="#m5e437a6f26" y="26.949375"/>
      </g>
     </g>
    </g>
    <g id="xtick_15">
     <g id="line2d_57">
      <g>
       <use style="stroke:#000000;stroke-width:0.5;" x="228.098879584" xlink:href="#m8d58a4476e" y="303.429375"/>
      </g>
     </g>
     <g id="line2d_58">
      <g>
       <use style="stroke:#000000;stroke-width:0.5;" x="228.098879584" xlink:href="#m5e437a6f26" y="26.949375"/>
      </g>
     </g>
    </g>
    <g id="xtick_16">
     <g id="line2d_59">
      <g>
       <use style="stroke:#000000;stroke-width:0.5;" x="237.402240833" xlink:href="#m8d58a4476e" y="303.429375"/>
      </g>
     </g>
     <g id="line2d_60">
      <g>
       <use style="stroke:#000000;stroke-width:0.5;" x="237.402240833" xlink:href="#m5e437a6f26" y="26.949375"/>
      </g>
     </g>
    </g>
    <g id="xtick_17">
     <g id="line2d_61">
      <g>
       <use style="stroke:#000000;stroke-width:0.5;" x="245.003640453" xlink:href="#m8d58a4476e" y="303.429375"/>
      </g>
     </g>
     <g id="line2d_62">
      <g>
       <use style="stroke:#000000;stroke-width:0.5;" x="245.003640453" xlink:href="#m5e437a6f26" y="26.949375"/>
      </g>
     </g>
    </g>
    <g id="xtick_18">
     <g id="line2d_63">
      <g>
       <use style="stroke:#000000;stroke-width:0.5;" x="251.430532258" xlink:href="#m8d58a4476e" y="303.429375"/>
      </g>
     </g>
     <g id="line2d_64">
      <g>
       <use style="stroke:#000000;stroke-width:0.5;" x="251.430532258" xlink:href="#m5e437a6f26" y="26.949375"/>
      </g>
     </g>
    </g>
    <g id="xtick_19">
     <g id="line2d_65">
      <g>
       <use style="stroke:#000000;stroke-width:0.5;" x="256.997759167" xlink:href="#m8d58a4476e" y="303.429375"/>
      </g>
     </g>
     <g id="line2d_66">
      <g>
       <use style="stroke:#000000;stroke-width:0.5;" x="256.997759167" xlink:href="#m5e437a6f26" y="26.949375"/>
      </g>
     </g>
    </g>
    <g id="xtick_20">
     <g id="line2d_67">
      <g>
       <use style="stroke:#000000;stroke-width:0.5;" x="261.908401322" xlink:href="#m8d58a4476e" y="303.429375"/>
      </g>
     </g>
     <g id="line2d_68">
      <g>
       <use style="stroke:#000000;stroke-width:0.5;" x="261.908401322" xlink:href="#m5e437a6f26" y="26.949375"/>
      </g>
     </g>
    </g>
    <g id="xtick_21">
     <g id="line2d_69">
      <g>
       <use style="stroke:#000000;stroke-width:0.5;" x="295.2" xlink:href="#m8d58a4476e" y="303.429375"/>
      </g>
     </g>
     <g id="line2d_70">
      <g>
       <use style="stroke:#000000;stroke-width:0.5;" x="295.2" xlink:href="#m5e437a6f26" y="26.949375"/>
      </g>
     </g>
    </g>
    <g id="xtick_22">
     <g id="line2d_71">
      <g>
       <use style="stroke:#000000;stroke-width:0.5;" x="312.104760869" xlink:href="#m8d58a4476e" y="303.429375"/>
      </g>
     </g>
     <g id="line2d_72">
      <g>
       <use style="stroke:#000000;stroke-width:0.5;" x="312.104760869" xlink:href="#m5e437a6f26" y="26.949375"/>
      </g>
     </g>
    </g>
    <g id="xtick_23">
     <g id="line2d_73">
      <g>
       <use style="stroke:#000000;stroke-width:0.5;" x="324.098879584" xlink:href="#m8d58a4476e" y="303.429375"/>
      </g>
     </g>
     <g id="line2d_74">
      <g>
       <use style="stroke:#000000;stroke-width:0.5;" x="324.098879584" xlink:href="#m5e437a6f26" y="26.949375"/>
      </g>
     </g>
    </g>
    <g id="xtick_24">
     <g id="line2d_75">
      <g>
       <use style="stroke:#000000;stroke-width:0.5;" x="333.402240833" xlink:href="#m8d58a4476e" y="303.429375"/>
      </g>
     </g>
     <g id="line2d_76">
      <g>
       <use style="stroke:#000000;stroke-width:0.5;" x="333.402240833" xlink:href="#m5e437a6f26" y="26.949375"/>
      </g>
     </g>
    </g>
    <g id="xtick_25">
     <g id="line2d_77">
      <g>
       <use style="stroke:#000000;stroke-width:0.5;" x="341.003640453" xlink:href="#m8d58a4476e" y="303.429375"/>
      </g>
     </g>
     <g id="line2d_78">
      <g>
       <use style="stroke:#000000;stroke-width:0.5;" x="341.003640453" xlink:href="#m5e437a6f26" y="26.949375"/>
      </g>
     </g>
    </g>
    <g id="xtick_26">
     <g id="line2d_79">
      <g>
       <use style="stroke:#000000;stroke-width:0.5;" x="347.430532258" xlink:href="#m8d58a4476e" y="303.429375"/>
      </g>
     </g>
     <g id="line2d_80">
      <g>
       <use style="stroke:#000000;stroke-width:0.5;" x="347.430532258" xlink:href="#m5e437a6f26" y="26.949375"/>
      </g>
     </g>
    </g>
    <g id="xtick_27">
     <g id="line2d_81">
      <g>
       <use style="stroke:#000000;stroke-width:0.5;" x="352.997759167" xlink:href="#m8d58a4476e" y="303.429375"/>
      </g>
     </g>
     <g id="line2d_82">
      <g>
       <use style="stroke:#000000;stroke-width:0.5;" x="352.997759167" xlink:href="#m5e437a6f26" y="26.949375"/>
      </g>
     </g>
    </g>
    <g id="xtick_28">
     <g id="line2d_83">
      <g>
       <use style="stroke:#000000;stroke-width:0.5;" x="357.908401322" xlink:href="#m8d58a4476e" y="303.429375"/>
      </g>
     </g>
     <g id="line2d_84">
      <g>
       <use style="stroke:#000000;stroke-width:0.5;" x="357.908401322" xlink:href="#m5e437a6f26" y="26.949375"/>
      </g>
     </g>
    </g>
    <g id="xtick_29">
     <g id="line2d_85">
      <g>
       <use style="stroke:#000000;stroke-width:0.5;" x="391.2" xlink:href="#m8d58a4476e" y="303.429375"/>
      </g>
     </g>
     <g id="line2d_86">
      <g>
       <use style="stroke:#000000;stroke-width:0.5;" x="391.2" xlink:href="#m5e437a6f26" y="26.949375"/>
      </g>
     </g>
    </g>
    <g id="xtick_30">
     <g id="line2d_87">
      <g>
       <use style="stroke:#000000;stroke-width:0.5;" x="408.104760869" xlink:href="#m8d58a4476e" y="303.429375"/>
      </g>
     </g>
     <g id="line2d_88">
      <g>
       <use style="stroke:#000000;stroke-width:0.5;" x="408.104760869" xlink:href="#m5e437a6f26" y="26.949375"/>
      </g>
     </g>
    </g>
    <g id="xtick_31">
     <g id="line2d_89">
      <g>
       <use style="stroke:#000000;stroke-width:0.5;" x="420.098879584" xlink:href="#m8d58a4476e" y="303.429375"/>
      </g>
     </g>
     <g id="line2d_90">
      <g>
       <use style="stroke:#000000;stroke-width:0.5;" x="420.098879584" xlink:href="#m5e437a6f26" y="26.949375"/>
      </g>
     </g>
    </g>
    <g id="xtick_32">
     <g id="line2d_91">
      <g>
       <use style="stroke:#000000;stroke-width:0.5;" x="429.402240833" xlink:href="#m8d58a4476e" y="303.429375"/>
      </g>
     </g>
     <g id="line2d_92">
      <g>
       <use style="stroke:#000000;stroke-width:0.5;" x="429.402240833" xlink:href="#m5e437a6f26" y="26.949375"/>
      </g>
     </g>
    </g>
    <g id="text_5">
     <!-- log10 of (# f-evals / dimension) -->
     <defs>
      <path id="BitstreamVeraSans-Roman-20"/>
      <path d="M 51.125 44 
L 36.921875 44 
L 32.8125 27.6875 
L 47.125 27.6875 
z
M 43.796875 71.78125 
L 38.71875 51.515625 
L 52.984375 51.515625 
L 58.109375 71.78125 
L 65.921875 71.78125 
L 60.890625 51.515625 
L 76.125 51.515625 
L 76.125 44 
L 58.984375 44 
L 54.984375 27.6875 
L 70.515625 27.6875 
L 70.515625 20.21875 
L 53.078125 20.21875 
L 48 0 
L 40.1875 0 
L 45.21875 20.21875 
L 30.90625 20.21875 
L 25.875 0 
L 18.015625 0 
L 23.09375 20.21875 
L 7.71875 20.21875 
L 7.71875 27.6875 
L 24.90625 27.6875 
L 29 44 
L 13.28125 44 
L 13.28125 51.515625 
L 30.90625 51.515625 
L 35.890625 71.78125 
z
" id="BitstreamVeraSans-Roman-23"/>
      <path d="M 52 44.1875 
Q 55.375 50.25 60.0625 53.125 
Q 64.75 56 71.09375 56 
Q 79.640625 56 84.28125 50.015625 
Q 88.921875 44.046875 88.921875 33.015625 
L 88.921875 0 
L 79.890625 0 
L 79.890625 32.71875 
Q 79.890625 40.578125 77.09375 44.375 
Q 74.3125 48.1875 68.609375 48.1875 
Q 61.625 48.1875 57.5625 43.546875 
Q 53.515625 38.921875 53.515625 30.90625 
L 53.515625 0 
L 44.484375 0 
L 44.484375 32.71875 
Q 44.484375 40.625 41.703125 44.40625 
Q 38.921875 48.1875 33.109375 48.1875 
Q 26.21875 48.1875 22.15625 43.53125 
Q 18.109375 38.875 18.109375 30.90625 
L 18.109375 0 
L 9.078125 0 
L 9.078125 54.6875 
L 18.109375 54.6875 
L 18.109375 46.1875 
Q 21.1875 51.21875 25.484375 53.609375 
Q 29.78125 56 35.6875 56 
Q 41.65625 56 45.828125 52.96875 
Q 50 49.953125 52 44.1875 
" id="BitstreamVeraSans-Roman-6d"/>
      <path d="M 54.890625 33.015625 
L 54.890625 0 
L 45.90625 0 
L 45.90625 32.71875 
Q 45.90625 40.484375 42.875 44.328125 
Q 39.84375 48.1875 33.796875 48.1875 
Q 26.515625 48.1875 22.3125 43.546875 
Q 18.109375 38.921875 18.109375 30.90625 
L 18.109375 0 
L 9.078125 0 
L 9.078125 54.6875 
L 18.109375 54.6875 
L 18.109375 46.1875 
Q 21.34375 51.125 25.703125 53.5625 
Q 30.078125 56 35.796875 56 
Q 45.21875 56 50.046875 50.171875 
Q 54.890625 44.34375 54.890625 33.015625 
" id="BitstreamVeraSans-Roman-6e"/>
      <path d="M 31 75.875 
Q 24.46875 64.65625 21.28125 53.65625 
Q 18.109375 42.671875 18.109375 31.390625 
Q 18.109375 20.125 21.3125 9.0625 
Q 24.515625 -2 31 -13.1875 
L 23.1875 -13.1875 
Q 15.875 -1.703125 12.234375 9.375 
Q 8.59375 20.453125 8.59375 31.390625 
Q 8.59375 42.28125 12.203125 53.3125 
Q 15.828125 64.359375 23.1875 75.875 
z
" id="BitstreamVeraSans-Roman-28"/>
      <path d="M 30.609375 48.390625 
Q 23.390625 48.390625 19.1875 42.75 
Q 14.984375 37.109375 14.984375 27.296875 
Q 14.984375 17.484375 19.15625 11.84375 
Q 23.34375 6.203125 30.609375 6.203125 
Q 37.796875 6.203125 41.984375 11.859375 
Q 46.1875 17.53125 46.1875 27.296875 
Q 46.1875 37.015625 41.984375 42.703125 
Q 37.796875 48.390625 30.609375 48.390625 
M 30.609375 56 
Q 42.328125 56 49.015625 48.375 
Q 55.71875 40.765625 55.71875 27.296875 
Q 55.71875 13.875 49.015625 6.21875 
Q 42.328125 -1.421875 30.609375 -1.421875 
Q 18.84375 -1.421875 12.171875 6.21875 
Q 5.515625 13.875 5.515625 27.296875 
Q 5.515625 40.765625 12.171875 48.375 
Q 18.84375 56 30.609375 56 
" id="BitstreamVeraSans-Roman-6f"/>
      <path d="M 9.421875 75.984375 
L 18.40625 75.984375 
L 18.40625 0 
L 9.421875 0 
z
" id="BitstreamVeraSans-Roman-6c"/>
      <path d="M 2.984375 54.6875 
L 12.5 54.6875 
L 29.59375 8.796875 
L 46.6875 54.6875 
L 56.203125 54.6875 
L 35.6875 0 
L 23.484375 0 
z
" id="BitstreamVeraSans-Roman-76"/>
      <path d="M 9.421875 54.6875 
L 18.40625 54.6875 
L 18.40625 0 
L 9.421875 0 
z
M 9.421875 75.984375 
L 18.40625 75.984375 
L 18.40625 64.59375 
L 9.421875 64.59375 
z
" id="BitstreamVeraSans-Roman-69"/>
      <path d="M 4.890625 31.390625 
L 31.203125 31.390625 
L 31.203125 23.390625 
L 4.890625 23.390625 
z
" id="BitstreamVeraSans-Roman-2d"/>
      <path d="M 25.390625 72.90625 
L 33.6875 72.90625 
L 8.296875 -9.28125 
L 0 -9.28125 
z
" id="BitstreamVeraSans-Roman-2f"/>
      <path d="M 56.203125 29.59375 
L 56.203125 25.203125 
L 14.890625 25.203125 
Q 15.484375 15.921875 20.484375 11.0625 
Q 25.484375 6.203125 34.421875 6.203125 
Q 39.59375 6.203125 44.453125 7.46875 
Q 49.3125 8.734375 54.109375 11.28125 
L 54.109375 2.78125 
Q 49.265625 0.734375 44.1875 -0.34375 
Q 39.109375 -1.421875 33.890625 -1.421875 
Q 20.796875 -1.421875 13.15625 6.1875 
Q 5.515625 13.8125 5.515625 26.8125 
Q 5.515625 40.234375 12.765625 48.109375 
Q 20.015625 56 32.328125 56 
Q 43.359375 56 49.78125 48.890625 
Q 56.203125 41.796875 56.203125 29.59375 
M 47.21875 32.234375 
Q 47.125 39.59375 43.09375 43.984375 
Q 39.0625 48.390625 32.421875 48.390625 
Q 24.90625 48.390625 20.390625 44.140625 
Q 15.875 39.890625 15.1875 32.171875 
z
" id="BitstreamVeraSans-Roman-65"/>
      <path d="M 45.40625 46.390625 
L 45.40625 75.984375 
L 54.390625 75.984375 
L 54.390625 0 
L 45.40625 0 
L 45.40625 8.203125 
Q 42.578125 3.328125 38.25 0.953125 
Q 33.9375 -1.421875 27.875 -1.421875 
Q 17.96875 -1.421875 11.734375 6.484375 
Q 5.515625 14.40625 5.515625 27.296875 
Q 5.515625 40.1875 11.734375 48.09375 
Q 17.96875 56 27.875 56 
Q 33.9375 56 38.25 53.625 
Q 42.578125 51.265625 45.40625 46.390625 
M 14.796875 27.296875 
Q 14.796875 17.390625 18.875 11.75 
Q 22.953125 6.109375 30.078125 6.109375 
Q 37.203125 6.109375 41.296875 11.75 
Q 45.40625 17.390625 45.40625 27.296875 
Q 45.40625 37.203125 41.296875 42.84375 
Q 37.203125 48.484375 30.078125 48.484375 
Q 22.953125 48.484375 18.875 42.84375 
Q 14.796875 37.203125 14.796875 27.296875 
" id="BitstreamVeraSans-Roman-64"/>
      <path d="M 45.40625 27.984375 
Q 45.40625 37.75 41.375 43.109375 
Q 37.359375 48.484375 30.078125 48.484375 
Q 22.859375 48.484375 18.828125 43.109375 
Q 14.796875 37.75 14.796875 27.984375 
Q 14.796875 18.265625 18.828125 12.890625 
Q 22.859375 7.515625 30.078125 7.515625 
Q 37.359375 7.515625 41.375 12.890625 
Q 45.40625 18.265625 45.40625 27.984375 
M 54.390625 6.78125 
Q 54.390625 -7.171875 48.1875 -13.984375 
Q 42 -20.796875 29.203125 -20.796875 
Q 24.46875 -20.796875 20.265625 -20.09375 
Q 16.0625 -19.390625 12.109375 -17.921875 
L 12.109375 -9.1875 
Q 16.0625 -11.328125 19.921875 -12.34375 
Q 23.78125 -13.375 27.78125 -13.375 
Q 36.625 -13.375 41.015625 -8.765625 
Q 45.40625 -4.15625 45.40625 5.171875 
L 45.40625 9.625 
Q 42.625 4.78125 38.28125 2.390625 
Q 33.9375 0 27.875 0 
Q 17.828125 0 11.671875 7.65625 
Q 5.515625 15.328125 5.515625 27.984375 
Q 5.515625 40.671875 11.671875 48.328125 
Q 17.828125 56 27.875 56 
Q 33.9375 56 38.28125 53.609375 
Q 42.625 51.21875 45.40625 46.390625 
L 45.40625 54.6875 
L 54.390625 54.6875 
z
" id="BitstreamVeraSans-Roman-67"/>
      <path d="M 37.109375 75.984375 
L 37.109375 68.5 
L 28.515625 68.5 
Q 23.6875 68.5 21.796875 66.546875 
Q 19.921875 64.59375 19.921875 59.515625 
L 19.921875 54.6875 
L 34.71875 54.6875 
L 34.71875 47.703125 
L 19.921875 47.703125 
L 19.921875 0 
L 10.890625 0 
L 10.890625 47.703125 
L 2.296875 47.703125 
L 2.296875 54.6875 
L 10.890625 54.6875 
L 10.890625 58.5 
Q 10.890625 67.625 15.140625 71.796875 
Q 19.390625 75.984375 28.609375 75.984375 
z
" id="BitstreamVeraSans-Roman-66"/>
      <path d="M 34.28125 27.484375 
Q 23.390625 27.484375 19.1875 25 
Q 14.984375 22.515625 14.984375 16.5 
Q 14.984375 11.71875 18.140625 8.90625 
Q 21.296875 6.109375 26.703125 6.109375 
Q 34.1875 6.109375 38.703125 11.40625 
Q 43.21875 16.703125 43.21875 25.484375 
L 43.21875 27.484375 
z
M 52.203125 31.203125 
L 52.203125 0 
L 43.21875 0 
L 43.21875 8.296875 
Q 40.140625 3.328125 35.546875 0.953125 
Q 30.953125 -1.421875 24.3125 -1.421875 
Q 15.921875 -1.421875 10.953125 3.296875 
Q 6 8.015625 6 15.921875 
Q 6 25.140625 12.171875 29.828125 
Q 18.359375 34.515625 30.609375 34.515625 
L 43.21875 34.515625 
L 43.21875 35.40625 
Q 43.21875 41.609375 39.140625 45 
Q 35.0625 48.390625 27.6875 48.390625 
Q 23 48.390625 18.546875 47.265625 
Q 14.109375 46.140625 10.015625 43.890625 
L 10.015625 52.203125 
Q 14.9375 54.109375 19.578125 55.046875 
Q 24.21875 56 28.609375 56 
Q 40.484375 56 46.34375 49.84375 
Q 52.203125 43.703125 52.203125 31.203125 
" id="BitstreamVeraSans-Roman-61"/>
      <path d="M 44.28125 53.078125 
L 44.28125 44.578125 
Q 40.484375 46.53125 36.375 47.5 
Q 32.28125 48.484375 27.875 48.484375 
Q 21.1875 48.484375 17.84375 46.4375 
Q 14.5 44.390625 14.5 40.28125 
Q 14.5 37.15625 16.890625 35.375 
Q 19.28125 33.59375 26.515625 31.984375 
L 29.59375 31.296875 
Q 39.15625 29.25 43.1875 25.515625 
Q 47.21875 21.78125 47.21875 15.09375 
Q 47.21875 7.46875 41.1875 3.015625 
Q 35.15625 -1.421875 24.609375 -1.421875 
Q 20.21875 -1.421875 15.453125 -0.5625 
Q 10.6875 0.296875 5.421875 2 
L 5.421875 11.28125 
Q 10.40625 8.6875 15.234375 7.390625 
Q 20.0625 6.109375 24.8125 6.109375 
Q 31.15625 6.109375 34.5625 8.28125 
Q 37.984375 10.453125 37.984375 14.40625 
Q 37.984375 18.0625 35.515625 20.015625 
Q 33.0625 21.96875 24.703125 23.78125 
L 21.578125 24.515625 
Q 13.234375 26.265625 9.515625 29.90625 
Q 5.8125 33.546875 5.8125 39.890625 
Q 5.8125 47.609375 11.28125 51.796875 
Q 16.75 56 26.8125 56 
Q 31.78125 56 36.171875 55.265625 
Q 40.578125 54.546875 44.28125 53.078125 
" id="BitstreamVeraSans-Roman-73"/>
      <path d="M 8.015625 75.875 
L 15.828125 75.875 
Q 23.140625 64.359375 26.78125 53.3125 
Q 30.421875 42.28125 30.421875 31.390625 
Q 30.421875 20.453125 26.78125 9.375 
Q 23.140625 -1.703125 15.828125 -13.1875 
L 8.015625 -13.1875 
Q 14.5 -2 17.703125 9.0625 
Q 20.90625 20.125 20.90625 31.390625 
Q 20.90625 42.671875 17.703125 53.65625 
Q 14.5 64.65625 8.015625 75.875 
" id="BitstreamVeraSans-Roman-29"/>
     </defs>
     <g transform="translate(110.516276666 345.4628125)scale(0.18 -0.18)">
      <use xlink:href="#BitstreamVeraSans-Roman-6c"/>
      <use x="27.783203125" xlink:href="#BitstreamVeraSans-Roman-6f"/>
      <use x="88.96484375" xlink:href="#BitstreamVeraSans-Roman-67"/>
      <use x="152.44140625" xlink:href="#BitstreamVeraSans-Roman-31"/>
      <use x="216.064453125" xlink:href="#BitstreamVeraSans-Roman-30"/>
      <use x="279.6875" xlink:href="#BitstreamVeraSans-Roman-20"/>
      <use x="311.474609375" xlink:href="#BitstreamVeraSans-Roman-6f"/>
      <use x="372.65625" xlink:href="#BitstreamVeraSans-Roman-66"/>
      <use x="407.861328125" xlink:href="#BitstreamVeraSans-Roman-20"/>
      <use x="439.6484375" xlink:href="#BitstreamVeraSans-Roman-28"/>
      <use x="478.662109375" xlink:href="#BitstreamVeraSans-Roman-23"/>
      <use x="562.451171875" xlink:href="#BitstreamVeraSans-Roman-20"/>
      <use x="594.23828125" xlink:href="#BitstreamVeraSans-Roman-66"/>
      <use x="629.365234375" xlink:href="#BitstreamVeraSans-Roman-2d"/>
      <use x="665.44921875" xlink:href="#BitstreamVeraSans-Roman-65"/>
      <use x="726.97265625" xlink:href="#BitstreamVeraSans-Roman-76"/>
      <use x="786.15234375" xlink:href="#BitstreamVeraSans-Roman-61"/>
      <use x="847.431640625" xlink:href="#BitstreamVeraSans-Roman-6c"/>
      <use x="875.21484375" xlink:href="#BitstreamVeraSans-Roman-73"/>
      <use x="927.314453125" xlink:href="#BitstreamVeraSans-Roman-20"/>
      <use x="959.1015625" xlink:href="#BitstreamVeraSans-Roman-2f"/>
      <use x="992.79296875" xlink:href="#BitstreamVeraSans-Roman-20"/>
      <use x="1024.58007812" xlink:href="#BitstreamVeraSans-Roman-64"/>
      <use x="1088.05664062" xlink:href="#BitstreamVeraSans-Roman-69"/>
      <use x="1115.83984375" xlink:href="#BitstreamVeraSans-Roman-6d"/>
      <use x="1213.25195312" xlink:href="#BitstreamVeraSans-Roman-65"/>
      <use x="1274.77539062" xlink:href="#BitstreamVeraSans-Roman-6e"/>
      <use x="1338.15429688" xlink:href="#BitstreamVeraSans-Roman-73"/>
      <use x="1390.25390625" xlink:href="#BitstreamVeraSans-Roman-69"/>
      <use x="1418.03710938" xlink:href="#BitstreamVeraSans-Roman-6f"/>
      <use x="1479.21875" xlink:href="#BitstreamVeraSans-Roman-6e"/>
      <use x="1542.59765625" xlink:href="#BitstreamVeraSans-Roman-29"/>
     </g>
    </g>
   </g>
   <g id="matplotlib.axis_2">
    <g id="ytick_1">
     <g id="line2d_93">
      <path clip-path="url(#pdca725db8a)" d="M 74.30112 303.429375 
L 431.42112 303.429375 
" style="fill:none;stroke:#000000;stroke-dasharray:1.000000,3.000000;stroke-dashoffset:0.0;stroke-width:0.5;"/>
     </g>
     <g id="line2d_94">
      <defs>
       <path d="M 0 0 
L 4 0 
" id="m0c2fafc082" style="stroke:#000000;stroke-width:0.5;"/>
      </defs>
      <g>
       <use style="stroke:#000000;stroke-width:0.5;" x="74.3011204163" xlink:href="#m0c2fafc082" y="303.429375"/>
      </g>
     </g>
     <g id="line2d_95">
      <defs>
       <path d="M 0 0 
L -4 0 
" id="m0c51d1fb35" style="stroke:#000000;stroke-width:0.5;"/>
      </defs>
      <g>
       <use style="stroke:#000000;stroke-width:0.5;" x="431.421120416" xlink:href="#m0c51d1fb35" y="303.429375"/>
      </g>
     </g>
     <g id="text_6">
      <!-- 0.0 -->
      <defs>
       <path d="M 10.6875 12.40625 
L 21 12.40625 
L 21 0 
L 10.6875 0 
z
" id="BitstreamVeraSans-Roman-2e"/>
      </defs>
      <g transform="translate(38.4948704163 308.948125)scale(0.2 -0.2)">
       <use xlink:href="#BitstreamVeraSans-Roman-30"/>
       <use x="63.623046875" xlink:href="#BitstreamVeraSans-Roman-2e"/>
       <use x="95.41015625" xlink:href="#BitstreamVeraSans-Roman-30"/>
      </g>
     </g>
    </g>
    <g id="ytick_2">
     <g id="line2d_96">
      <path clip-path="url(#pdca725db8a)" d="M 74.30112 248.68086 
L 431.42112 248.68086 
" style="fill:none;stroke:#000000;stroke-dasharray:1.000000,3.000000;stroke-dashoffset:0.0;stroke-width:0.5;"/>
     </g>
     <g id="line2d_97">
      <g>
       <use style="stroke:#000000;stroke-width:0.5;" x="74.3011204163" xlink:href="#m0c2fafc082" y="248.680860149"/>
      </g>
     </g>
     <g id="line2d_98">
      <g>
       <use style="stroke:#000000;stroke-width:0.5;" x="431.421120416" xlink:href="#m0c51d1fb35" y="248.680860149"/>
      </g>
     </g>
     <g id="text_7">
      <!-- 0.2 -->
      <g transform="translate(38.4948704163 254.199610149)scale(0.2 -0.2)">
       <use xlink:href="#BitstreamVeraSans-Roman-30"/>
       <use x="63.623046875" xlink:href="#BitstreamVeraSans-Roman-2e"/>
       <use x="95.41015625" xlink:href="#BitstreamVeraSans-Roman-32"/>
      </g>
     </g>
    </g>
    <g id="ytick_3">
     <g id="line2d_99">
      <path clip-path="url(#pdca725db8a)" d="M 74.30112 193.932345 
L 431.42112 193.932345 
" style="fill:none;stroke:#000000;stroke-dasharray:1.000000,3.000000;stroke-dashoffset:0.0;stroke-width:0.5;"/>
     </g>
     <g id="line2d_100">
      <g>
       <use style="stroke:#000000;stroke-width:0.5;" x="74.3011204163" xlink:href="#m0c2fafc082" y="193.932345297"/>
      </g>
     </g>
     <g id="line2d_101">
      <g>
       <use style="stroke:#000000;stroke-width:0.5;" x="431.421120416" xlink:href="#m0c51d1fb35" y="193.932345297"/>
      </g>
     </g>
     <g id="text_8">
      <!-- 0.4 -->
      <defs>
       <path d="M 37.796875 64.3125 
L 12.890625 25.390625 
L 37.796875 25.390625 
z
M 35.203125 72.90625 
L 47.609375 72.90625 
L 47.609375 25.390625 
L 58.015625 25.390625 
L 58.015625 17.1875 
L 47.609375 17.1875 
L 47.609375 0 
L 37.796875 0 
L 37.796875 17.1875 
L 4.890625 17.1875 
L 4.890625 26.703125 
z
" id="BitstreamVeraSans-Roman-34"/>
      </defs>
      <g transform="translate(38.4948704163 199.451095297)scale(0.2 -0.2)">
       <use xlink:href="#BitstreamVeraSans-Roman-30"/>
       <use x="63.623046875" xlink:href="#BitstreamVeraSans-Roman-2e"/>
       <use x="95.41015625" xlink:href="#BitstreamVeraSans-Roman-34"/>
      </g>
     </g>
    </g>
    <g id="ytick_4">
     <g id="line2d_102">
      <path clip-path="url(#pdca725db8a)" d="M 74.30112 139.18383 
L 431.42112 139.18383 
" style="fill:none;stroke:#000000;stroke-dasharray:1.000000,3.000000;stroke-dashoffset:0.0;stroke-width:0.5;"/>
     </g>
     <g id="line2d_103">
      <g>
       <use style="stroke:#000000;stroke-width:0.5;" x="74.3011204163" xlink:href="#m0c2fafc082" y="139.183830446"/>
      </g>
     </g>
     <g id="line2d_104">
      <g>
       <use style="stroke:#000000;stroke-width:0.5;" x="431.421120416" xlink:href="#m0c51d1fb35" y="139.183830446"/>
      </g>
     </g>
     <g id="text_9">
      <!-- 0.6 -->
      <defs>
       <path d="M 33.015625 40.375 
Q 26.375 40.375 22.484375 35.828125 
Q 18.609375 31.296875 18.609375 23.390625 
Q 18.609375 15.53125 22.484375 10.953125 
Q 26.375 6.390625 33.015625 6.390625 
Q 39.65625 6.390625 43.53125 10.953125 
Q 47.40625 15.53125 47.40625 23.390625 
Q 47.40625 31.296875 43.53125 35.828125 
Q 39.65625 40.375 33.015625 40.375 
M 52.59375 71.296875 
L 52.59375 62.3125 
Q 48.875 64.0625 45.09375 64.984375 
Q 41.3125 65.921875 37.59375 65.921875 
Q 27.828125 65.921875 22.671875 59.328125 
Q 17.53125 52.734375 16.796875 39.40625 
Q 19.671875 43.65625 24.015625 45.921875 
Q 28.375 48.1875 33.59375 48.1875 
Q 44.578125 48.1875 50.953125 41.515625 
Q 57.328125 34.859375 57.328125 23.390625 
Q 57.328125 12.15625 50.6875 5.359375 
Q 44.046875 -1.421875 33.015625 -1.421875 
Q 20.359375 -1.421875 13.671875 8.265625 
Q 6.984375 17.96875 6.984375 36.375 
Q 6.984375 53.65625 15.1875 63.9375 
Q 23.390625 74.21875 37.203125 74.21875 
Q 40.921875 74.21875 44.703125 73.484375 
Q 48.484375 72.75 52.59375 71.296875 
" id="BitstreamVeraSans-Roman-36"/>
      </defs>
      <g transform="translate(38.4948704163 144.702580446)scale(0.2 -0.2)">
       <use xlink:href="#BitstreamVeraSans-Roman-30"/>
       <use x="63.623046875" xlink:href="#BitstreamVeraSans-Roman-2e"/>
       <use x="95.41015625" xlink:href="#BitstreamVeraSans-Roman-36"/>
      </g>
     </g>
    </g>
    <g id="ytick_5">
     <g id="line2d_105">
      <path clip-path="url(#pdca725db8a)" d="M 74.30112 84.435316 
L 431.42112 84.435316 
" style="fill:none;stroke:#000000;stroke-dasharray:1.000000,3.000000;stroke-dashoffset:0.0;stroke-width:0.5;"/>
     </g>
     <g id="line2d_106">
      <g>
       <use style="stroke:#000000;stroke-width:0.5;" x="74.3011204163" xlink:href="#m0c2fafc082" y="84.4353155941"/>
      </g>
     </g>
     <g id="line2d_107">
      <g>
       <use style="stroke:#000000;stroke-width:0.5;" x="431.421120416" xlink:href="#m0c51d1fb35" y="84.4353155941"/>
      </g>
     </g>
     <g id="text_10">
      <!-- 0.8 -->
      <defs>
       <path d="M 31.78125 34.625 
Q 24.75 34.625 20.71875 30.859375 
Q 16.703125 27.09375 16.703125 20.515625 
Q 16.703125 13.921875 20.71875 10.15625 
Q 24.75 6.390625 31.78125 6.390625 
Q 38.8125 6.390625 42.859375 10.171875 
Q 46.921875 13.96875 46.921875 20.515625 
Q 46.921875 27.09375 42.890625 30.859375 
Q 38.875 34.625 31.78125 34.625 
M 21.921875 38.8125 
Q 15.578125 40.375 12.03125 44.71875 
Q 8.5 49.078125 8.5 55.328125 
Q 8.5 64.0625 14.71875 69.140625 
Q 20.953125 74.21875 31.78125 74.21875 
Q 42.671875 74.21875 48.875 69.140625 
Q 55.078125 64.0625 55.078125 55.328125 
Q 55.078125 49.078125 51.53125 44.71875 
Q 48 40.375 41.703125 38.8125 
Q 48.828125 37.15625 52.796875 32.3125 
Q 56.78125 27.484375 56.78125 20.515625 
Q 56.78125 9.90625 50.3125 4.234375 
Q 43.84375 -1.421875 31.78125 -1.421875 
Q 19.734375 -1.421875 13.25 4.234375 
Q 6.78125 9.90625 6.78125 20.515625 
Q 6.78125 27.484375 10.78125 32.3125 
Q 14.796875 37.15625 21.921875 38.8125 
M 18.3125 54.390625 
Q 18.3125 48.734375 21.84375 45.5625 
Q 25.390625 42.390625 31.78125 42.390625 
Q 38.140625 42.390625 41.71875 45.5625 
Q 45.3125 48.734375 45.3125 54.390625 
Q 45.3125 60.0625 41.71875 63.234375 
Q 38.140625 66.40625 31.78125 66.40625 
Q 25.390625 66.40625 21.84375 63.234375 
Q 18.3125 60.0625 18.3125 54.390625 
" id="BitstreamVeraSans-Roman-38"/>
      </defs>
      <g transform="translate(38.4948704163 89.9540655941)scale(0.2 -0.2)">
       <use xlink:href="#BitstreamVeraSans-Roman-30"/>
       <use x="63.623046875" xlink:href="#BitstreamVeraSans-Roman-2e"/>
       <use x="95.41015625" xlink:href="#BitstreamVeraSans-Roman-38"/>
      </g>
     </g>
    </g>
    <g id="ytick_6">
     <g id="line2d_108">
      <path clip-path="url(#pdca725db8a)" d="M 74.30112 29.686801 
L 431.42112 29.686801 
" style="fill:none;stroke:#000000;stroke-dasharray:1.000000,3.000000;stroke-dashoffset:0.0;stroke-width:0.5;"/>
     </g>
     <g id="line2d_109">
      <g>
       <use style="stroke:#000000;stroke-width:0.5;" x="74.3011204163" xlink:href="#m0c2fafc082" y="29.6868007426"/>
      </g>
     </g>
     <g id="line2d_110">
      <g>
       <use style="stroke:#000000;stroke-width:0.5;" x="431.421120416" xlink:href="#m0c51d1fb35" y="29.6868007426"/>
      </g>
     </g>
     <g id="text_11">
      <!-- 1.0 -->
      <g transform="translate(38.4948704163 35.2055507426)scale(0.2 -0.2)">
       <use xlink:href="#BitstreamVeraSans-Roman-31"/>
       <use x="63.623046875" xlink:href="#BitstreamVeraSans-Roman-2e"/>
       <use x="95.41015625" xlink:href="#BitstreamVeraSans-Roman-30"/>
      </g>
     </g>
    </g>
    <g id="text_12">
     <!-- Proportion of function+target pairs -->
     <defs>
      <path d="M 19.671875 64.796875 
L 19.671875 37.40625 
L 32.078125 37.40625 
Q 38.96875 37.40625 42.71875 40.96875 
Q 46.484375 44.53125 46.484375 51.125 
Q 46.484375 57.671875 42.71875 61.234375 
Q 38.96875 64.796875 32.078125 64.796875 
z
M 9.8125 72.90625 
L 32.078125 72.90625 
Q 44.34375 72.90625 50.609375 67.359375 
Q 56.890625 61.8125 56.890625 51.125 
Q 56.890625 40.328125 50.609375 34.8125 
Q 44.34375 29.296875 32.078125 29.296875 
L 19.671875 29.296875 
L 19.671875 0 
L 9.8125 0 
z
" id="BitstreamVeraSans-Roman-50"/>
      <path d="M 46 62.703125 
L 46 35.5 
L 73.1875 35.5 
L 73.1875 27.203125 
L 46 27.203125 
L 46 0 
L 37.796875 0 
L 37.796875 27.203125 
L 10.59375 27.203125 
L 10.59375 35.5 
L 37.796875 35.5 
L 37.796875 62.703125 
z
" id="BitstreamVeraSans-Roman-2b"/>
      <path d="M 18.109375 8.203125 
L 18.109375 -20.796875 
L 9.078125 -20.796875 
L 9.078125 54.6875 
L 18.109375 54.6875 
L 18.109375 46.390625 
Q 20.953125 51.265625 25.265625 53.625 
Q 29.59375 56 35.59375 56 
Q 45.5625 56 51.78125 48.09375 
Q 58.015625 40.1875 58.015625 27.296875 
Q 58.015625 14.40625 51.78125 6.484375 
Q 45.5625 -1.421875 35.59375 -1.421875 
Q 29.59375 -1.421875 25.265625 0.953125 
Q 20.953125 3.328125 18.109375 8.203125 
M 48.6875 27.296875 
Q 48.6875 37.203125 44.609375 42.84375 
Q 40.53125 48.484375 33.40625 48.484375 
Q 26.265625 48.484375 22.1875 42.84375 
Q 18.109375 37.203125 18.109375 27.296875 
Q 18.109375 17.390625 22.1875 11.75 
Q 26.265625 6.109375 33.40625 6.109375 
Q 40.53125 6.109375 44.609375 11.75 
Q 48.6875 17.390625 48.6875 27.296875 
" id="BitstreamVeraSans-Roman-70"/>
      <path d="M 18.3125 70.21875 
L 18.3125 54.6875 
L 36.8125 54.6875 
L 36.8125 47.703125 
L 18.3125 47.703125 
L 18.3125 18.015625 
Q 18.3125 11.328125 20.140625 9.421875 
Q 21.96875 7.515625 27.59375 7.515625 
L 36.8125 7.515625 
L 36.8125 0 
L 27.59375 0 
Q 17.1875 0 13.234375 3.875 
Q 9.28125 7.765625 9.28125 18.015625 
L 9.28125 47.703125 
L 2.6875 47.703125 
L 2.6875 54.6875 
L 9.28125 54.6875 
L 9.28125 70.21875 
z
" id="BitstreamVeraSans-Roman-74"/>
      <path d="M 8.5 21.578125 
L 8.5 54.6875 
L 17.484375 54.6875 
L 17.484375 21.921875 
Q 17.484375 14.15625 20.5 10.265625 
Q 23.53125 6.390625 29.59375 6.390625 
Q 36.859375 6.390625 41.078125 11.03125 
Q 45.3125 15.671875 45.3125 23.6875 
L 45.3125 54.6875 
L 54.296875 54.6875 
L 54.296875 0 
L 45.3125 0 
L 45.3125 8.40625 
Q 42.046875 3.421875 37.71875 1 
Q 33.40625 -1.421875 27.6875 -1.421875 
Q 18.265625 -1.421875 13.375 4.4375 
Q 8.5 10.296875 8.5 21.578125 
" id="BitstreamVeraSans-Roman-75"/>
      <path d="M 41.109375 46.296875 
Q 39.59375 47.171875 37.8125 47.578125 
Q 36.03125 48 33.890625 48 
Q 26.265625 48 22.1875 43.046875 
Q 18.109375 38.09375 18.109375 28.8125 
L 18.109375 0 
L 9.078125 0 
L 9.078125 54.6875 
L 18.109375 54.6875 
L 18.109375 46.1875 
Q 20.953125 51.171875 25.484375 53.578125 
Q 30.03125 56 36.53125 56 
Q 37.453125 56 38.578125 55.875 
Q 39.703125 55.765625 41.0625 55.515625 
z
" id="BitstreamVeraSans-Roman-72"/>
      <path d="M 48.78125 52.59375 
L 48.78125 44.1875 
Q 44.96875 46.296875 41.140625 47.34375 
Q 37.3125 48.390625 33.40625 48.390625 
Q 24.65625 48.390625 19.8125 42.84375 
Q 14.984375 37.3125 14.984375 27.296875 
Q 14.984375 17.28125 19.8125 11.734375 
Q 24.65625 6.203125 33.40625 6.203125 
Q 37.3125 6.203125 41.140625 7.25 
Q 44.96875 8.296875 48.78125 10.40625 
L 48.78125 2.09375 
Q 45.015625 0.34375 40.984375 -0.53125 
Q 36.96875 -1.421875 32.421875 -1.421875 
Q 20.0625 -1.421875 12.78125 6.34375 
Q 5.515625 14.109375 5.515625 27.296875 
Q 5.515625 40.671875 12.859375 48.328125 
Q 20.21875 56 33.015625 56 
Q 37.15625 56 41.109375 55.140625 
Q 45.0625 54.296875 48.78125 52.59375 
" id="BitstreamVeraSans-Roman-63"/>
     </defs>
     <g transform="translate(29.7514329163 323.17875)rotate(-90.0)scale(0.18 -0.18)">
      <use xlink:href="#BitstreamVeraSans-Roman-50"/>
      <use x="60.287109375" xlink:href="#BitstreamVeraSans-Roman-72"/>
      <use x="101.369140625" xlink:href="#BitstreamVeraSans-Roman-6f"/>
      <use x="162.55078125" xlink:href="#BitstreamVeraSans-Roman-70"/>
      <use x="226.02734375" xlink:href="#BitstreamVeraSans-Roman-6f"/>
      <use x="287.208984375" xlink:href="#BitstreamVeraSans-Roman-72"/>
      <use x="328.322265625" xlink:href="#BitstreamVeraSans-Roman-74"/>
      <use x="367.53125" xlink:href="#BitstreamVeraSans-Roman-69"/>
      <use x="395.314453125" xlink:href="#BitstreamVeraSans-Roman-6f"/>
      <use x="456.49609375" xlink:href="#BitstreamVeraSans-Roman-6e"/>
      <use x="519.875" xlink:href="#BitstreamVeraSans-Roman-20"/>
      <use x="551.662109375" xlink:href="#BitstreamVeraSans-Roman-6f"/>
      <use x="612.84375" xlink:href="#BitstreamVeraSans-Roman-66"/>
      <use x="648.048828125" xlink:href="#BitstreamVeraSans-Roman-20"/>
      <use x="679.8359375" xlink:href="#BitstreamVeraSans-Roman-66"/>
      <use x="715.041015625" xlink:href="#BitstreamVeraSans-Roman-75"/>
      <use x="778.419921875" xlink:href="#BitstreamVeraSans-Roman-6e"/>
      <use x="841.798828125" xlink:href="#BitstreamVeraSans-Roman-63"/>
      <use x="896.779296875" xlink:href="#BitstreamVeraSans-Roman-74"/>
      <use x="935.98828125" xlink:href="#BitstreamVeraSans-Roman-69"/>
      <use x="963.771484375" xlink:href="#BitstreamVeraSans-Roman-6f"/>
      <use x="1024.953125" xlink:href="#BitstreamVeraSans-Roman-6e"/>
      <use x="1088.33203125" xlink:href="#BitstreamVeraSans-Roman-2b"/>
      <use x="1172.12109375" xlink:href="#BitstreamVeraSans-Roman-74"/>
      <use x="1211.33007812" xlink:href="#BitstreamVeraSans-Roman-61"/>
      <use x="1272.609375" xlink:href="#BitstreamVeraSans-Roman-72"/>
      <use x="1313.70703125" xlink:href="#BitstreamVeraSans-Roman-67"/>
      <use x="1377.18359375" xlink:href="#BitstreamVeraSans-Roman-65"/>
      <use x="1438.70703125" xlink:href="#BitstreamVeraSans-Roman-74"/>
      <use x="1477.91601562" xlink:href="#BitstreamVeraSans-Roman-20"/>
      <use x="1509.703125" xlink:href="#BitstreamVeraSans-Roman-70"/>
      <use x="1573.1796875" xlink:href="#BitstreamVeraSans-Roman-61"/>
      <use x="1634.45898438" xlink:href="#BitstreamVeraSans-Roman-69"/>
      <use x="1662.2421875" xlink:href="#BitstreamVeraSans-Roman-72"/>
      <use x="1703.35546875" xlink:href="#BitstreamVeraSans-Roman-73"/>
     </g>
    </g>
   </g>
   <g id="text_13">
    <!-- diffusion ga -->
    <g transform="translate(399.741120416 302.093586015)scale(0.15 -0.15)">
     <use xlink:href="#BitstreamVeraSans-Roman-64"/>
     <use x="63.4765625" xlink:href="#BitstreamVeraSans-Roman-69"/>
     <use x="91.259765625" xlink:href="#BitstreamVeraSans-Roman-66"/>
     <use x="126.46484375" xlink:href="#BitstreamVeraSans-Roman-66"/>
     <use x="161.669921875" xlink:href="#BitstreamVeraSans-Roman-75"/>
     <use x="225.048828125" xlink:href="#BitstreamVeraSans-Roman-73"/>
     <use x="277.1484375" xlink:href="#BitstreamVeraSans-Roman-69"/>
     <use x="304.931640625" xlink:href="#BitstreamVeraSans-Roman-6f"/>
     <use x="366.11328125" xlink:href="#BitstreamVeraSans-Roman-6e"/>
     <use x="429.4921875" xlink:href="#BitstreamVeraSans-Roman-20"/>
     <use x="461.279296875" xlink:href="#BitstreamVeraSans-Roman-67"/>
     <use x="524.755859375" xlink:href="#BitstreamVeraSans-Roman-61"/>
    </g>
   </g>
   <g id="text_14">
    <!-- standard ga -->
    <g transform="translate(399.741120416 214.495962252)scale(0.15 -0.15)">
     <use xlink:href="#BitstreamVeraSans-Roman-73"/>
     <use x="52.099609375" xlink:href="#BitstreamVeraSans-Roman-74"/>
     <use x="91.30859375" xlink:href="#BitstreamVeraSans-Roman-61"/>
     <use x="152.587890625" xlink:href="#BitstreamVeraSans-Roman-6e"/>
     <use x="215.966796875" xlink:href="#BitstreamVeraSans-Roman-64"/>
     <use x="279.443359375" xlink:href="#BitstreamVeraSans-Roman-61"/>
     <use x="340.72265625" xlink:href="#BitstreamVeraSans-Roman-72"/>
     <use x="381.8203125" xlink:href="#BitstreamVeraSans-Roman-64"/>
     <use x="445.296875" xlink:href="#BitstreamVeraSans-Roman-20"/>
     <use x="477.083984375" xlink:href="#BitstreamVeraSans-Roman-67"/>
     <use x="540.560546875" xlink:href="#BitstreamVeraSans-Roman-61"/>
    </g>
   </g>
   <g id="text_15">
    <!-- migration ga -->
    <g transform="translate(399.741120416 126.89833849)scale(0.15 -0.15)">
     <use xlink:href="#BitstreamVeraSans-Roman-6d"/>
     <use x="97.412109375" xlink:href="#BitstreamVeraSans-Roman-69"/>
     <use x="125.1953125" xlink:href="#BitstreamVeraSans-Roman-67"/>
     <use x="188.671875" xlink:href="#BitstreamVeraSans-Roman-72"/>
     <use x="229.78515625" xlink:href="#BitstreamVeraSans-Roman-61"/>
     <use x="291.064453125" xlink:href="#BitstreamVeraSans-Roman-74"/>
     <use x="330.2734375" xlink:href="#BitstreamVeraSans-Roman-69"/>
     <use x="358.056640625" xlink:href="#BitstreamVeraSans-Roman-6f"/>
     <use x="419.23828125" xlink:href="#BitstreamVeraSans-Roman-6e"/>
     <use x="482.6171875" xlink:href="#BitstreamVeraSans-Roman-20"/>
     <use x="514.404296875" xlink:href="#BitstreamVeraSans-Roman-67"/>
     <use x="577.880859375" xlink:href="#BitstreamVeraSans-Roman-61"/>
    </g>
   </g>
   <g id="text_16">
    <!-- best 2009 -->
    <defs>
     <path d="M 10.984375 1.515625 
L 10.984375 10.5 
Q 14.703125 8.734375 18.5 7.8125 
Q 22.3125 6.890625 25.984375 6.890625 
Q 35.75 6.890625 40.890625 13.453125 
Q 46.046875 20.015625 46.78125 33.40625 
Q 43.953125 29.203125 39.59375 26.953125 
Q 35.25 24.703125 29.984375 24.703125 
Q 19.046875 24.703125 12.671875 31.3125 
Q 6.296875 37.9375 6.296875 49.421875 
Q 6.296875 60.640625 12.9375 67.421875 
Q 19.578125 74.21875 30.609375 74.21875 
Q 43.265625 74.21875 49.921875 64.515625 
Q 56.59375 54.828125 56.59375 36.375 
Q 56.59375 19.140625 48.40625 8.859375 
Q 40.234375 -1.421875 26.421875 -1.421875 
Q 22.703125 -1.421875 18.890625 -0.6875 
Q 15.09375 0.046875 10.984375 1.515625 
M 30.609375 32.421875 
Q 37.25 32.421875 41.125 36.953125 
Q 45.015625 41.5 45.015625 49.421875 
Q 45.015625 57.28125 41.125 61.84375 
Q 37.25 66.40625 30.609375 66.40625 
Q 23.96875 66.40625 20.09375 61.84375 
Q 16.21875 57.28125 16.21875 49.421875 
Q 16.21875 41.5 20.09375 36.953125 
Q 23.96875 32.421875 30.609375 32.421875 
" id="BitstreamVeraSans-Roman-39"/>
     <path d="M 48.6875 27.296875 
Q 48.6875 37.203125 44.609375 42.84375 
Q 40.53125 48.484375 33.40625 48.484375 
Q 26.265625 48.484375 22.1875 42.84375 
Q 18.109375 37.203125 18.109375 27.296875 
Q 18.109375 17.390625 22.1875 11.75 
Q 26.265625 6.109375 33.40625 6.109375 
Q 40.53125 6.109375 44.609375 11.75 
Q 48.6875 17.390625 48.6875 27.296875 
M 18.109375 46.390625 
Q 20.953125 51.265625 25.265625 53.625 
Q 29.59375 56 35.59375 56 
Q 45.5625 56 51.78125 48.09375 
Q 58.015625 40.1875 58.015625 27.296875 
Q 58.015625 14.40625 51.78125 6.484375 
Q 45.5625 -1.421875 35.59375 -1.421875 
Q 29.59375 -1.421875 25.265625 0.953125 
Q 20.953125 3.328125 18.109375 8.203125 
L 18.109375 0 
L 9.078125 0 
L 9.078125 75.984375 
L 18.109375 75.984375 
z
" id="BitstreamVeraSans-Roman-62"/>
    </defs>
    <g transform="translate(399.741120416 39.3007147277)scale(0.15 -0.15)">
     <use xlink:href="#BitstreamVeraSans-Roman-62"/>
     <use x="63.4765625" xlink:href="#BitstreamVeraSans-Roman-65"/>
     <use x="125.0" xlink:href="#BitstreamVeraSans-Roman-73"/>
     <use x="177.099609375" xlink:href="#BitstreamVeraSans-Roman-74"/>
     <use x="216.30859375" xlink:href="#BitstreamVeraSans-Roman-20"/>
     <use x="248.095703125" xlink:href="#BitstreamVeraSans-Roman-32"/>
     <use x="311.71875" xlink:href="#BitstreamVeraSans-Roman-30"/>
     <use x="375.341796875" xlink:href="#BitstreamVeraSans-Roman-30"/>
     <use x="438.96484375" xlink:href="#BitstreamVeraSans-Roman-39"/>
    </g>
   </g>
   <g id="text_17">
    <!-- f20-24,5-D -->
    <defs>
     <path d="M 11.71875 12.40625 
L 22.015625 12.40625 
L 22.015625 4 
L 14.015625 -11.625 
L 7.71875 -11.625 
L 11.71875 4 
z
" id="BitstreamVeraSans-Roman-2c"/>
     <path d="M 19.671875 64.796875 
L 19.671875 8.109375 
L 31.59375 8.109375 
Q 46.6875 8.109375 53.6875 14.9375 
Q 60.6875 21.78125 60.6875 36.53125 
Q 60.6875 51.171875 53.6875 57.984375 
Q 46.6875 64.796875 31.59375 64.796875 
z
M 9.8125 72.90625 
L 30.078125 72.90625 
Q 51.265625 72.90625 61.171875 64.09375 
Q 71.09375 55.28125 71.09375 36.53125 
Q 71.09375 17.671875 61.125 8.828125 
Q 51.171875 0 30.078125 0 
L 9.8125 0 
z
" id="BitstreamVeraSans-Roman-44"/>
     <path d="M 10.796875 72.90625 
L 49.515625 72.90625 
L 49.515625 64.59375 
L 19.828125 64.59375 
L 19.828125 46.734375 
Q 21.96875 47.46875 24.109375 47.828125 
Q 26.265625 48.1875 28.421875 48.1875 
Q 40.625 48.1875 47.75 41.5 
Q 54.890625 34.8125 54.890625 23.390625 
Q 54.890625 11.625 47.5625 5.09375 
Q 40.234375 -1.421875 26.90625 -1.421875 
Q 22.3125 -1.421875 17.546875 -0.640625 
Q 12.796875 0.140625 7.71875 1.703125 
L 7.71875 11.625 
Q 12.109375 9.234375 16.796875 8.0625 
Q 21.484375 6.890625 26.703125 6.890625 
Q 35.15625 6.890625 40.078125 11.328125 
Q 45.015625 15.765625 45.015625 23.390625 
Q 45.015625 31 40.078125 35.4375 
Q 35.15625 39.890625 26.703125 39.890625 
Q 22.75 39.890625 18.8125 39.015625 
Q 14.890625 38.140625 10.796875 36.28125 
z
" id="BitstreamVeraSans-Roman-35"/>
    </defs>
    <g transform="translate(77.8723204163 47.67585)scale(0.2 -0.2)">
     <use xlink:href="#BitstreamVeraSans-Roman-66"/>
     <use x="35.205078125" xlink:href="#BitstreamVeraSans-Roman-32"/>
     <use x="98.828125" xlink:href="#BitstreamVeraSans-Roman-30"/>
     <use x="162.451171875" xlink:href="#BitstreamVeraSans-Roman-2d"/>
     <use x="198.53515625" xlink:href="#BitstreamVeraSans-Roman-32"/>
     <use x="262.158203125" xlink:href="#BitstreamVeraSans-Roman-34"/>
     <use x="325.78125" xlink:href="#BitstreamVeraSans-Roman-2c"/>
     <use x="357.568359375" xlink:href="#BitstreamVeraSans-Roman-35"/>
     <use x="421.19140625" xlink:href="#BitstreamVeraSans-Roman-2d"/>
     <use x="457.275390625" xlink:href="#BitstreamVeraSans-Roman-44"/>
    </g>
   </g>
  </g>
 </g>
 <defs>
  <clipPath id="pdca725db8a">
   <rect height="276.48" width="357.12" x="74.3011204163" y="26.949375"/>
  </clipPath>
 </defs>
</svg>
