<?xml version="1.0" encoding="utf-8" standalone="no"?>
<!DOCTYPE svg PUBLIC "-//W3C//DTD SVG 1.1//EN"
  "http://www.w3.org/Graphics/SVG/1.1/DTD/svg11.dtd">
<!-- Created with matplotlib (http://matplotlib.org/) -->
<svg height="356pt" version="1.1" viewBox="0 0 595 356" width="595pt" xmlns="http://www.w3.org/2000/svg" xmlns:xlink="http://www.w3.org/1999/xlink">
 <defs>
  <style type="text/css">
*{stroke-linecap:butt;stroke-linejoin:round;stroke-miterlimit:100000;}
  </style>
 </defs>
 <g id="figure_1">
  <g id="patch_1">
   <path d="M 0 356.40625 
L 595.011197 356.40625 
L 595.011197 0 
L 0 0 
z
" style="fill:#ffffff;"/>
  </g>
  <g id="axes_1">
   <g id="patch_2">
    <path d="M 166.497759 303.429375 
L 523.617759 303.429375 
L 523.617759 26.949375 
L 166.497759 26.949375 
z
" style="fill:#ffffff;"/>
   </g>
   <g id="line2d_1">
    <path d="M 12.7 303.429375 
L 12.7 295.790047 
L 125.604761 295.790047 
L 125.604761 293.880215 
L 171.408401 293.880215 
L 171.408401 293.243605 
L 180.526051 293.243605 
L 180.526051 292.606994 
L 182.701793 292.606994 
L 182.701793 291.970384 
L 183.40252 291.970384 
L 183.40252 291.333773 
L 192.146245 291.333773 
L 192.146245 290.060552 
L 194.341082 290.060552 
L 194.341082 289.423941 
L 196.42613 289.423941 
L 196.42613 281.148003 
L 196.931497 281.148003 
L 196.931497 277.328339 
L 197.430811 277.328339 
L 197.430811 276.691728 
L 197.924217 276.691728 
L 197.924217 276.055118 
L 198.411851 276.055118 
L 198.411851 274.781896 
L 199.370337 274.781896 
L 199.370337 273.508675 
L 200.307281 273.508675 
L 200.307281 272.235454 
L 201.223631 272.235454 
L 201.223631 271.598843 
L 201.674363 271.598843 
L 201.674363 270.962232 
L 202.120274 270.962232 
L 202.120274 270.325622 
L 202.561466 270.325622 
L 202.561466 269.689011 
L 202.998038 269.689011 
L 202.998038 267.779179 
L 203.857703 267.779179 
L 203.857703 266.505958 
L 205.525616 266.505958 
L 205.525616 265.869347 
L 206.734173 265.869347 
L 206.734173 263.959515 
L 207.129363 263.959515 
L 207.129363 262.686294 
L 207.520843 262.686294 
L 207.520843 262.049684 
L 207.908681 262.049684 
L 207.908681 261.413073 
L 208.673698 261.413073 
L 208.673698 260.139852 
L 209.795531 260.139852 
L 209.795531 258.86663 
L 210.162866 258.86663 
L 210.162866 258.23002 
L 211.245843 258.23002 
L 211.245843 257.593409 
L 211.600673 257.593409 
L 211.600673 256.956798 
L 211.952508 256.956798 
L 211.952508 256.320188 
L 212.3014 256.320188 
L 212.3014 255.683577 
L 212.990544 255.683577 
L 212.990544 254.410356 
L 213.330891 254.410356 
L 213.330891 253.773745 
L 213.668482 253.773745 
L 213.668482 253.137135 
L 214.335572 253.137135 
L 214.335572 250.590692 
L 214.665157 250.590692 
L 214.665157 249.954081 
L 214.992157 249.954081 
L 214.992157 248.68086 
L 215.316612 248.68086 
L 215.316612 248.04425 
L 215.958044 248.04425 
L 215.958044 246.771028 
L 216.589758 246.771028 
L 216.589758 245.497807 
L 217.825174 245.497807 
L 217.825174 241.678143 
L 219.319681 241.678143 
L 219.319681 241.041532 
L 219.61226 241.041532 
L 219.61226 239.768311 
L 220.762464 239.768311 
L 220.762464 237.858479 
L 221.045125 237.858479 
L 221.045125 237.221869 
L 221.604761 237.221869 
L 221.604761 234.675426 
L 221.881787 234.675426 
L 221.881787 234.038815 
L 222.156984 234.038815 
L 222.156984 233.402205 
L 223.77108 233.402205 
L 223.77108 232.765594 
L 225.07001 232.765594 
L 225.07001 232.128984 
L 225.325009 232.128984 
L 225.325009 226.399488 
L 226.080781 226.399488 
L 226.080781 225.126267 
L 226.823096 225.126267 
L 226.823096 222.579824 
L 227.310731 222.579824 
L 227.310731 221.943213 
L 227.792728 221.943213 
L 227.792728 221.306603 
L 228.269216 221.306603 
L 228.269216 220.033381 
L 228.505434 220.033381 
L 228.505434 219.396771 
L 228.74032 219.396771 
L 228.74032 218.12355 
L 229.437143 218.12355 
L 229.437143 216.850328 
L 229.666853 216.850328 
L 229.666853 216.213718 
L 229.895305 216.213718 
L 229.895305 215.577107 
L 230.573243 215.577107 
L 230.573243 214.303886 
L 232.328966 214.303886 
L 232.328966 213.667275 
L 232.543323 213.667275 
L 232.543323 212.394054 
L 233.179858 212.394054 
L 233.179858 211.757443 
L 233.389895 211.757443 
L 233.389895 210.484222 
L 234.013731 210.484222 
L 234.013731 209.847611 
L 234.21962 209.847611 
L 234.21962 209.211001 
L 234.831253 209.211001 
L 234.831253 207.301169 
L 235.23408 207.301169 
L 235.23408 206.027947 
L 235.633052 206.027947 
L 235.633052 205.391337 
L 236.80756 205.391337 
L 236.80756 204.754726 
L 237.761658 204.754726 
L 237.761658 202.844894 
L 241.546275 202.844894 
L 241.546275 201.571673 
L 241.889423 201.571673 
L 241.889423 200.298452 
L 244.537441 200.298452 
L 244.537441 199.02523 
L 246.265052 199.02523 
L 246.265052 198.38862 
L 248.511139 198.38862 
L 248.511139 197.115398 
L 249.376754 197.115398 
L 249.376754 196.478788 
L 249.661344 196.478788 
L 249.661344 195.205567 
L 251.192785 195.205567 
L 251.192785 194.568956 
L 251.465284 194.568956 
L 251.465284 193.932345 
L 252.405246 193.932345 
L 252.405246 193.295735 
L 252.537813 193.295735 
L 252.537813 192.659124 
L 252.801689 192.659124 
L 252.801689 192.022513 
L 253.96889 192.022513 
L 253.96889 191.385903 
L 254.477338 191.385903 
L 254.477338 190.112681 
L 255.228571 190.112681 
L 255.228571 189.476071 
L 255.721976 189.476071 
L 255.721976 188.83946 
L 255.966506 188.83946 
L 255.966506 188.20285 
L 256.330633 188.20285 
L 256.330633 186.929628 
L 257.6392 186.929628 
L 257.6392 186.293018 
L 257.872771 186.293018 
L 257.872771 185.656407 
L 258.220691 185.656407 
L 258.220691 185.019796 
L 259.247366 185.019796 
L 259.247366 184.383186 
L 261.012381 184.383186 
L 261.012381 182.473354 
L 262.183889 182.473354 
L 262.183889 181.836743 
L 262.393398 181.836743 
L 262.497759 180.563522 
L 263.932033 180.563522 
L 264.032617 179.290301 
L 265.318602 179.290301 
L 265.4159 177.380469 
L 266.471457 177.380469 
L 266.471457 176.107247 
L 267.500948 176.107247 
L 267.500948 175.470637 
L 268.775483 175.470637 
L 268.775483 174.834026 
L 268.954421 174.834026 
L 268.954421 174.197416 
L 269.750267 174.197416 
L 269.750267 173.560805 
L 269.925078 173.560805 
L 270.012209 171.650973 
L 270.445155 171.650973 
L 270.445155 171.014362 
L 270.617082 171.014362 
L 270.617082 170.377752 
L 271.12865 170.377752 
L 271.12865 169.741141 
L 271.634017 169.741141 
L 271.634017 169.10453 
L 271.80112 169.10453 
L 271.80112 167.194699 
L 272.708406 167.194699 
L 272.708406 164.011645 
L 272.952459 164.011645 
L 273.033494 162.738424 
L 273.114371 162.738424 
L 273.195092 160.191981 
L 274.072857 160.191981 
L 274.072857 158.91876 
L 274.465812 158.91876 
L 274.465812 157.645539 
L 275.086937 157.645539 
L 275.086937 156.372318 
L 276.076937 156.372318 
L 276.076937 155.735707 
L 276.451534 155.735707 
L 276.451534 155.099096 
L 278.132607 155.099096 
L 278.132607 154.462486 
L 279.471949 154.462486 
L 279.471949 153.189264 
L 279.610462 153.189264 
L 279.610462 152.552654 
L 280.567376 152.552654 
L 280.567376 151.279433 
L 281.962785 151.279433 
L 281.962785 150.642822 
L 283.249686 150.642822 
L 283.249686 150.006211 
L 284.559498 150.006211 
L 284.559498 149.369601 
L 284.7433 149.369601 
L 284.7433 148.73299 
L 284.987115 148.73299 
L 284.987115 148.096379 
L 285.289893 148.096379 
L 285.289893 147.459769 
L 285.88893 147.459769 
L 285.88893 146.823158 
L 287.578995 146.823158 
L 287.578995 146.186547 
L 287.749982 146.186547 
L 287.749982 145.549937 
L 288.089866 145.549937 
L 288.146245 143.003494 
L 288.202548 143.003494 
L 288.202548 141.730273 
L 288.314926 141.730273 
L 288.314926 141.093662 
L 289.911261 141.093662 
L 289.911261 140.457052 
L 291.604581 140.457052 
L 291.656405 139.18383 
L 291.811491 139.18383 
L 291.811491 138.54722 
L 292.17113 138.54722 
L 292.17113 137.273999 
L 292.375255 137.273999 
L 292.375255 136.000777 
L 293.480416 136.000777 
L 293.480416 135.364167 
L 293.628875 135.364167 
L 293.628875 134.727556 
L 294.989583 134.727556 
L 294.989583 134.090945 
L 295.747645 134.090945 
L 295.747645 132.817724 
L 296.214528 132.817724 
L 296.214528 131.544503 
L 296.950835 131.544503 
L 297.041965 128.36145 
L 297.268924 128.36145 
L 297.268924 127.724839 
L 297.808638 127.724839 
L 297.808638 127.088228 
L 298.517556 127.088228 
L 298.517556 126.451618 
L 298.954586 126.451618 
L 298.954586 125.815007 
L 300.323071 125.815007 
L 300.407128 123.268565 
L 300.658287 123.268565 
L 300.658287 122.631954 
L 301.032211 122.631954 
L 301.032211 121.995343 
L 301.279644 121.995343 
L 301.32074 120.722122 
L 301.688796 120.722122 
L 301.688796 120.085511 
L 302.214761 120.085511 
L 302.214761 119.448901 
L 302.495248 119.448901 
L 302.535164 118.175679 
L 303.364692 118.175679 
L 303.364692 116.902458 
L 303.520843 116.902458 
L 303.520843 115.629237 
L 305.275763 115.629237 
L 305.275763 114.992626 
L 305.536457 114.992626 
L 305.536457 113.719405 
L 305.684696 113.719405 
L 305.684696 113.082794 
L 306.162866 113.082794 
L 306.162866 112.446184 
L 306.308898 112.446184 
L 306.308898 111.809573 
L 306.635614 111.809573 
L 306.70787 110.536352 
L 306.887967 110.536352 
L 306.887967 109.899741 
L 307.103061 109.899741 
L 307.103061 108.62652 
L 307.776962 108.62652 
L 307.81213 107.353299 
L 307.987529 107.353299 
L 307.987529 106.716688 
L 308.716252 106.716688 
L 308.716252 106.080077 
L 309.263043 106.080077 
L 309.263043 104.806856 
L 309.634845 104.806856 
L 309.634845 104.170245 
L 310.103303 104.170245 
L 310.203005 102.897024 
L 310.763527 102.897024 
L 310.763527 102.260413 
L 311.445691 102.260413 
L 311.51008 100.987192 
L 311.989858 100.987192 
L 311.989858 100.350582 
L 312.432724 100.350582 
L 312.432724 99.713971 
L 312.808615 99.713971 
L 312.808615 98.44075 
L 313.057339 98.44075 
L 313.057339 97.167528 
L 313.519735 97.167528 
L 313.611602 94.621086 
L 314.459404 94.621086 
L 314.459404 93.347865 
L 314.609 93.347865 
L 314.609 92.074643 
L 315.29031 92.074643 
L 315.29031 91.438033 
L 315.466227 91.438033 
L 315.495474 89.528201 
L 315.902799 89.528201 
L 315.902799 88.89159 
L 316.334847 88.89159 
L 316.334847 88.254979 
L 316.449308 88.254979 
L 316.449308 87.618369 
L 316.591943 87.618369 
L 316.591943 86.345148 
L 316.93229 86.345148 
L 317.016945 84.435316 
L 317.353854 84.435316 
L 317.353854 83.162094 
L 317.521293 83.162094 
L 317.521293 82.525484 
L 317.660314 82.525484 
L 317.688062 81.252262 
L 319.266679 81.252262 
L 319.266679 80.615652 
L 319.612454 80.615652 
L 319.638934 79.34243 
L 319.77108 79.34243 
L 319.823822 76.795988 
L 319.955385 76.795988 
L 319.981648 74.249545 
L 320.321568 74.249545 
L 320.321568 73.612935 
L 320.761938 73.612935 
L 320.761938 72.976324 
L 320.916258 72.976324 
L 320.916258 71.703103 
L 321.07001 71.703103 
L 321.07001 71.066492 
L 321.805253 71.066492 
L 321.880578 68.52005 
L 323.092001 68.52005 
L 323.092001 67.246828 
L 323.552426 67.246828 
L 323.552426 66.610218 
L 324.221812 66.610218 
L 324.221812 65.973607 
L 324.528982 65.973607 
L 324.528982 64.700386 
L 324.973891 64.700386 
L 324.973891 64.063775 
L 325.15981 64.063775 
L 325.15981 63.427165 
L 325.781235 63.427165 
L 325.804074 61.517333 
L 326.348486 61.517333 
L 326.348486 60.880722 
L 326.483485 60.880722 
L 326.483485 60.244111 
L 327.12989 60.244111 
L 327.218268 57.697669 
L 328.048645 57.697669 
L 328.048645 57.061058 
L 328.30747 57.061058 
L 328.30747 56.424448 
L 328.862805 56.424448 
L 328.968758 53.878005 
L 329.179858 53.878005 
L 329.285009 51.968173 
L 330.260676 51.968173 
L 330.260676 51.331562 
L 330.669026 51.331562 
L 330.669026 50.694952 
L 331.11364 50.694952 
L 331.11364 49.421731 
L 331.354173 49.421731 
L 331.354173 48.78512 
L 331.712391 48.78512 
L 331.712391 47.511899 
L 332.146073 47.511899 
L 332.185276 44.965456 
L 332.263571 44.965456 
L 332.263571 44.328845 
L 333.344542 44.328845 
L 333.344542 43.692235 
L 333.667225 43.692235 
L 333.667225 43.055624 
L 334.841733 43.055624 
L 334.860112 41.782403 
L 335.822773 41.782403 
L 335.822773 41.145792 
L 336.798801 41.145792 
L 336.798801 40.509182 
L 337.078499 40.509182 
L 337.078499 39.872571 
L 337.269708 39.872571 
L 337.269708 39.23596 
L 338.025896 39.23596 
L 338.025896 37.962739 
L 338.263653 37.962739 
L 338.263653 36.689518 
L 338.85218 36.689518 
L 338.902241 34.779686 
L 339.448978 34.779686 
L 339.448978 34.143075 
L 346.112685 34.143075 
L 346.112685 33.506465 
L 347.192785 33.506465 
L 347.192785 31.596633 
L 354.873847 31.596633 
L 354.873847 30.960022 
L 355.157122 30.960022 
L 355.157122 29.686801 
L 454.497759 29.686801 
L 454.497759 29.686801 
" style="fill:none;stroke:#f5deb3;stroke-linecap:square;stroke-width:6.0;"/>
   </g>
   <g id="line2d_2"/>
   <g id="line2d_3">
    <path d="M 454.497759 29.686801 
L 486.177759 35.161652 
" style="fill:none;stroke:#f5deb3;stroke-linecap:square;stroke-width:6.0;"/>
    <defs>
     <path d="M -0 7.778175 
L 7.778175 0 
L 0 -7.778175 
L -7.778175 -0 
z
" id="mbddf69cf65" style="stroke:#f5deb3;stroke-linejoin:miter;stroke-width:1.5;"/>
    </defs>
    <g>
     <use style="fill:#f5deb3;stroke:#f5deb3;stroke-linejoin:miter;stroke-width:1.5;" x="454.497759167" xlink:href="#mbddf69cf65" y="29.6868007426"/>
     <use style="fill:#f5deb3;stroke:#f5deb3;stroke-linejoin:miter;stroke-width:1.5;" x="486.177759167" xlink:href="#mbddf69cf65" y="35.1616522277"/>
    </g>
   </g>
   <g id="line2d_4">
    <defs>
     <path d="M 0 1.5 
C 0.397805 1.5 0.77937 1.341951 1.06066 1.06066 
C 1.341951 0.77937 1.5 0.397805 1.5 0 
C 1.5 -0.397805 1.341951 -0.77937 1.06066 -1.06066 
C 0.77937 -1.341951 0.397805 -1.5 0 -1.5 
C -0.397805 -1.5 -0.77937 -1.341951 -1.06066 -1.06066 
C -1.341951 -0.77937 -1.5 -0.397805 -1.5 0 
C -1.5 0.397805 -1.341951 0.77937 -1.06066 1.06066 
C -0.77937 1.341951 -0.397805 1.5 0 1.5 
z
" id="mf0851daa03" style="stroke:#f5deb3;stroke-width:0.5;"/>
    </defs>
    <g>
     <use style="fill:#f5deb3;stroke:#f5deb3;stroke-width:0.5;" x="355.157122466" xlink:href="#mf0851daa03" y="29.6868007426"/>
     <use style="fill:#f5deb3;stroke:#f5deb3;stroke-width:0.5;" x="355.157122466" xlink:href="#mf0851daa03" y="29.6868007426"/>
    </g>
   </g>
   <g id="line2d_5">
    <g>
     <use style="fill:#f5deb3;stroke:#f5deb3;stroke-linejoin:miter;stroke-width:1.5;" x="12.7" xlink:href="#mbddf69cf65" y="303.429375"/>
     <use style="fill:#f5deb3;stroke:#f5deb3;stroke-linejoin:miter;stroke-width:1.5;" x="196.426129829" xlink:href="#mbddf69cf65" y="289.423940968"/>
     <use style="fill:#f5deb3;stroke:#f5deb3;stroke-linejoin:miter;stroke-width:1.5;" x="226.823096452" xlink:href="#mbddf69cf65" y="225.12626655"/>
     <use style="fill:#f5deb3;stroke:#f5deb3;stroke-linejoin:miter;stroke-width:1.5;" x="275.08693745" xlink:href="#mbddf69cf65" y="157.645538942"/>
     <use style="fill:#f5deb3;stroke:#f5deb3;stroke-linejoin:miter;stroke-width:1.5;" x="315.902799241" xlink:href="#mbddf69cf65" y="89.5282006965"/>
     <use style="fill:#f5deb3;stroke:#f5deb3;stroke-linejoin:miter;stroke-width:1.5;" x="355.157122466" xlink:href="#mbddf69cf65" y="29.6868007426"/>
     <use style="fill:#f5deb3;stroke:#f5deb3;stroke-linejoin:miter;stroke-width:1.5;" x="454.497759167" xlink:href="#mbddf69cf65" y="29.6868007426"/>
    </g>
   </g>
   <g id="line2d_6">
    <defs>
     <path d="M 0 1.5 
C 0.397805 1.5 0.77937 1.341951 1.06066 1.06066 
C 1.341951 0.77937 1.5 0.397805 1.5 0 
C 1.5 -0.397805 1.341951 -0.77937 1.06066 -1.06066 
C 0.77937 -1.341951 0.397805 -1.5 0 -1.5 
C -0.397805 -1.5 -0.77937 -1.341951 -1.06066 -1.06066 
C -1.341951 -0.77937 -1.5 -0.397805 -1.5 0 
C -1.5 0.397805 -1.341951 0.77937 -1.06066 1.06066 
C -0.77937 1.341951 -0.397805 1.5 0 1.5 
z
" id="maa0681d1cb" style="stroke:#000080;stroke-width:0.5;"/>
    </defs>
    <g>
     <use style="fill:#000080;stroke:#000080;stroke-width:0.5;" x="490.610151797" xlink:href="#maa0681d1cb" y="277.964949488"/>
     <use style="fill:#000080;stroke:#000080;stroke-width:0.5;" x="490.610151797" xlink:href="#maa0681d1cb" y="277.964949488"/>
    </g>
   </g>
   <g id="line2d_7">
    <path d="M 151.627171 303.429375 
L 151.627171 302.792764 
L 164.359225 302.792764 
L 164.359225 302.156154 
L 174.958824 302.156154 
L 174.958824 301.519543 
L 184.091664 301.519543 
L 184.091664 300.246322 
L 187.376218 300.246322 
L 187.376218 299.609711 
L 201.674363 299.609711 
L 201.674363 298.33649 
L 216.275097 298.33649 
L 216.275097 297.063269 
L 225.325009 297.063269 
L 225.325009 296.426658 
L 227.792728 296.426658 
L 227.792728 295.790047 
L 253.324483 295.790047 
L 253.324483 294.516826 
L 321.375823 294.516826 
L 321.375823 293.243605 
L 322.749457 293.243605 
L 322.749457 291.970384 
L 322.921081 291.970384 
L 322.921081 291.333773 
L 329.053326 291.333773 
L 329.053326 290.697162 
L 333.912308 290.697162 
L 333.912308 289.423941 
L 334.933546 289.423941 
L 334.933546 288.78733 
L 347.410926 288.78733 
L 347.410926 288.15072 
L 350.147553 288.15072 
L 350.147553 286.877498 
L 357.302996 286.877498 
L 357.302996 286.240888 
L 357.888796 286.240888 
L 357.888796 285.604277 
L 357.962765 285.604277 
L 357.962765 284.967667 
L 376.309806 284.967667 
L 376.309806 283.694445 
L 378.508129 283.694445 
L 378.508129 283.057835 
L 378.829384 283.057835 
L 378.829384 282.421224 
L 385.016027 282.421224 
L 385.016027 281.784613 
L 389.361266 281.784613 
L 389.361266 281.148003 
L 389.623935 281.148003 
L 389.623935 280.511392 
L 407.410234 280.511392 
L 407.410234 279.874781 
L 414.085608 279.874781 
L 414.085608 279.238171 
L 435.754009 279.238171 
L 435.754009 278.60156 
L 454.497759 278.60156 
" style="fill:none;stroke:#000080;stroke-linecap:square;stroke-width:1.5;"/>
   </g>
   <g id="line2d_8">
    <defs>
     <path d="M 0 6 
C 1.591219 6 3.117479 5.367802 4.242641 4.242641 
C 5.367802 3.117479 6 1.591219 6 0 
C 6 -1.591219 5.367802 -3.117479 4.242641 -4.242641 
C 3.117479 -5.367802 1.591219 -6 0 -6 
C -1.591219 -6 -3.117479 -5.367802 -4.242641 -4.242641 
C -5.367802 -3.117479 -6 -1.591219 -6 0 
C -6 1.591219 -5.367802 3.117479 -4.242641 4.242641 
C -3.117479 5.367802 -1.591219 6 0 6 
z
" id="mea97432cd5" style="stroke:#000080;stroke-width:1.5;"/>
    </defs>
    <g>
     <use style="fill:none;stroke:#000080;stroke-width:1.5;" x="201.674363061" xlink:href="#mea97432cd5" y="298.336489898"/>
     <use style="fill:none;stroke:#000080;stroke-width:1.5;" x="253.324483111" xlink:href="#mea97432cd5" y="295.790047346"/>
     <use style="fill:none;stroke:#000080;stroke-width:1.5;" x="334.93354583" xlink:href="#mea97432cd5" y="288.78733033"/>
     <use style="fill:none;stroke:#000080;stroke-width:1.5;" x="385.016027128" xlink:href="#mea97432cd5" y="282.421223952"/>
     <use style="fill:none;stroke:#000080;stroke-width:1.5;" x="435.754008974" xlink:href="#mea97432cd5" y="278.601560125"/>
     <use style="fill:none;stroke:#000080;stroke-width:1.5;" x="454.497759167" xlink:href="#mea97432cd5" y="278.601560125"/>
    </g>
   </g>
   <g id="line2d_9"/>
   <g id="line2d_10">
    <path clip-path="url(#pfcf5b5c3a6)" d="M 334.416769 289.423941 
" style="fill:none;stroke:#000080;stroke-linecap:square;"/>
    <defs>
     <path d="M -12 12 
L 12 -12 
M -12 -12 
L 12 12 
" id="mecd2dae544" style="stroke:#000080;stroke-width:3.0;"/>
    </defs>
    <g clip-path="url(#pfcf5b5c3a6)">
     <use style="fill:#000080;stroke:#000080;stroke-width:3.0;" x="334.416769153" xlink:href="#mecd2dae544" y="289.423940968"/>
    </g>
   </g>
   <g id="line2d_11">
    <defs>
     <path d="M 0 1.5 
C 0.397805 1.5 0.77937 1.341951 1.06066 1.06066 
C 1.341951 0.77937 1.5 0.397805 1.5 0 
C 1.5 -0.397805 1.341951 -0.77937 1.06066 -1.06066 
C 0.77937 -1.341951 0.397805 -1.5 0 -1.5 
C -0.397805 -1.5 -0.77937 -1.341951 -1.06066 -1.06066 
C -1.341951 -0.77937 -1.5 -0.397805 -1.5 0 
C -1.5 0.397805 -1.341951 0.77937 -1.06066 1.06066 
C -0.77937 1.341951 -0.397805 1.5 0 1.5 
z
" id="ma4cb9cfbfd" style="stroke:#ff00ff;stroke-width:0.5;"/>
    </defs>
    <g>
     <use style="fill:#ff00ff;stroke:#ff00ff;stroke-width:0.5;" x="480.899992638" xlink:href="#ma4cb9cfbfd" y="284.331055866"/>
     <use style="fill:#ff00ff;stroke:#ff00ff;stroke-width:0.5;" x="480.899992638" xlink:href="#ma4cb9cfbfd" y="284.331055866"/>
    </g>
   </g>
   <g id="line2d_12">
    <path d="M 122.728291 303.429375 
L 122.728291 302.792764 
L 162.10504 302.792764 
L 162.10504 302.156154 
L 194.872201 302.156154 
L 194.872201 300.882932 
L 219.025035 300.882932 
L 219.025035 300.246322 
L 226.080781 300.246322 
L 226.080781 298.33649 
L 315.436959 298.33649 
L 315.436959 297.699879 
L 333.667225 297.699879 
L 333.667225 297.063269 
L 334.69441 297.063269 
L 334.69441 296.426658 
L 336.605415 296.426658 
L 336.605415 295.790047 
L 360.551781 295.790047 
L 360.551781 295.153437 
L 361.667818 295.153437 
L 361.667818 294.516826 
L 362.100264 294.516826 
L 362.100264 293.880215 
L 362.62279 293.880215 
L 362.62279 293.243605 
L 362.970659 293.243605 
L 362.970659 292.606994 
L 363.887416 292.606994 
L 363.887416 291.970384 
L 375.631199 291.970384 
L 375.631199 291.333773 
L 389.99283 291.333773 
L 389.99283 290.697162 
L 390.017307 290.697162 
L 390.017307 290.060552 
L 390.96567 290.060552 
L 390.96567 289.423941 
L 399.423317 289.423941 
L 399.423317 288.78733 
L 407.093008 288.78733 
L 407.093008 287.514109 
L 407.448912 287.514109 
L 407.448912 286.877498 
L 419.160173 286.877498 
L 419.160173 285.604277 
L 445.499457 285.604277 
L 445.499457 284.967667 
L 454.497759 284.967667 
" style="fill:none;stroke:#ff00ff;stroke-linecap:square;stroke-width:1.5;"/>
   </g>
   <g id="line2d_13">
    <defs>
     <path d="M -0 8.485281 
L 5.091169 0 
L 0 -8.485281 
L -5.091169 -0 
z
" id="mdbe964b99f" style="stroke:#ff00ff;stroke-linejoin:miter;stroke-width:1.5;"/>
    </defs>
    <g>
     <use style="fill:none;stroke:#ff00ff;stroke-linejoin:miter;stroke-width:1.5;" x="194.872200764" xlink:href="#mdbe964b99f" y="302.156153724"/>
     <use style="fill:none;stroke:#ff00ff;stroke-linejoin:miter;stroke-width:1.5;" x="226.08078123" xlink:href="#mdbe964b99f" y="298.336489898"/>
     <use style="fill:none;stroke:#ff00ff;stroke-linejoin:miter;stroke-width:1.5;" x="336.605415068" xlink:href="#mdbe964b99f" y="295.790047346"/>
     <use style="fill:none;stroke:#ff00ff;stroke-linejoin:miter;stroke-width:1.5;" x="407.448912372" xlink:href="#mdbe964b99f" y="287.514109055"/>
     <use style="fill:none;stroke:#ff00ff;stroke-linejoin:miter;stroke-width:1.5;" x="445.499456757" xlink:href="#mdbe964b99f" y="284.967666504"/>
     <use style="fill:none;stroke:#ff00ff;stroke-linejoin:miter;stroke-width:1.5;" x="454.497759167" xlink:href="#mdbe964b99f" y="284.967666504"/>
    </g>
   </g>
   <g id="line2d_14"/>
   <g id="line2d_15">
    <path clip-path="url(#pfcf5b5c3a6)" d="M 332.730281 297.699879 
" style="fill:none;stroke:#ff00ff;stroke-linecap:square;"/>
    <defs>
     <path d="M -12 12 
L 12 -12 
M -12 -12 
L 12 12 
" id="ma288fd0204" style="stroke:#ff00ff;stroke-width:3.0;"/>
    </defs>
    <g clip-path="url(#pfcf5b5c3a6)">
     <use style="fill:#ff00ff;stroke:#ff00ff;stroke-width:3.0;" x="332.730280625" xlink:href="#ma288fd0204" y="297.69987926"/>
    </g>
   </g>
   <g id="line2d_16">
    <defs>
     <path d="M 0 1.5 
C 0.397805 1.5 0.77937 1.341951 1.06066 1.06066 
C 1.341951 0.77937 1.5 0.397805 1.5 0 
C 1.5 -0.397805 1.341951 -0.77937 1.06066 -1.06066 
C 0.77937 -1.341951 0.397805 -1.5 0 -1.5 
C -0.397805 -1.5 -0.77937 -1.341951 -1.06066 -1.06066 
C -1.341951 -0.77937 -1.5 -0.397805 -1.5 0 
C -1.5 0.397805 -1.341951 0.77937 -1.06066 1.06066 
C -0.77937 1.341951 -0.397805 1.5 0 1.5 
z
" id="m03651721b8" style="stroke:#ffa500;stroke-width:0.5;"/>
    </defs>
    <g>
     <use style="fill:#ffa500;stroke:#ffa500;stroke-width:0.5;" x="487.707247501" xlink:href="#m03651721b8" y="271.59884311"/>
     <use style="fill:#ffa500;stroke:#ffa500;stroke-width:0.5;" x="487.707247501" xlink:href="#m03651721b8" y="271.59884311"/>
    </g>
   </g>
   <g id="line2d_17">
    <path d="M 93.829412 303.429375 
L 93.829412 302.792764 
L 139.633052 302.792764 
L 139.633052 302.156154 
L 193.258105 302.156154 
L 193.258105 301.519543 
L 205.525616 301.519543 
L 205.525616 300.882932 
L 216.902061 300.882932 
L 216.902061 299.609711 
L 228.505434 299.609711 
L 228.505434 298.33649 
L 277.555542 298.33649 
L 277.555542 297.699879 
L 286.420801 297.699879 
L 286.420801 297.063269 
L 289.258105 297.063269 
L 289.258105 296.426658 
L 294.845899 296.426658 
L 294.845899 295.790047 
L 302.535164 295.790047 
L 302.535164 295.153437 
L 307.49454 295.153437 
L 307.49454 294.516826 
L 309.161065 294.516826 
L 309.161065 293.880215 
L 309.500028 293.880215 
L 309.500028 293.243605 
L 314.369389 293.243605 
L 314.369389 292.606994 
L 314.489367 292.606994 
L 314.489367 291.970384 
L 318.81014 291.970384 
L 318.81014 291.333773 
L 323.262223 291.333773 
L 323.262223 290.697162 
L 323.383387 290.697162 
L 323.383387 289.423941 
L 325.367983 289.423941 
L 325.367983 288.78733 
L 326.505943 288.78733 
L 326.505943 288.15072 
L 330.054991 288.15072 
L 330.054991 287.514109 
L 330.199077 287.514109 
L 330.199077 286.877498 
L 331.27415 286.877498 
L 331.27415 286.240888 
L 332.942455 286.240888 
L 332.942455 285.604277 
L 332.980917 285.604277 
L 332.980917 284.967667 
L 333.325483 284.967667 
L 333.325483 284.331056 
L 333.534658 284.331056 
L 333.534658 283.057835 
L 340.11842 283.057835 
L 340.11842 282.421224 
L 351.623761 282.421224 
L 351.623761 281.784613 
L 355.449701 281.784613 
L 355.449701 281.148003 
L 360.402684 281.148003 
L 360.402684 280.511392 
L 369.716002 280.511392 
L 369.716002 279.874781 
L 376.323402 279.874781 
L 376.323402 279.238171 
L 376.984235 279.238171 
L 376.984235 278.60156 
L 386.431851 278.60156 
L 386.431851 277.964949 
L 397.472445 277.964949 
L 397.472445 277.328339 
L 419.395484 277.328339 
L 419.395484 276.691728 
L 420.695793 276.691728 
L 420.695793 276.055118 
L 420.843253 276.055118 
L 420.843253 275.418507 
L 421.011141 275.418507 
L 421.011141 274.781896 
L 425.55508 274.781896 
L 425.55508 274.145286 
L 444.185585 274.145286 
L 444.185585 273.508675 
L 454.306579 273.508675 
L 454.306579 272.872064 
L 454.458133 272.872064 
L 454.458133 272.235454 
L 454.497759 272.235454 
" style="fill:none;stroke:#ffa500;stroke-linecap:square;stroke-width:1.5;"/>
   </g>
   <g id="line2d_18">
    <defs>
     <path d="M 0 -6 
L -1.347084 -1.854102 
L -5.706339 -1.854102 
L -2.179628 0.708204 
L -3.526712 4.854102 
L -0 2.291796 
L 3.526712 4.854102 
L 2.179628 0.708204 
L 5.706339 -1.854102 
L 1.347084 -1.854102 
z
" id="m2312b5f570" style="stroke:#ffa500;stroke-linejoin:bevel;stroke-width:1.5;"/>
    </defs>
    <g>
     <use style="fill:none;stroke:#ffa500;stroke-linejoin:bevel;stroke-width:1.5;" x="139.633052294" xlink:href="#m2312b5f570" y="302.156153724"/>
     <use style="fill:none;stroke:#ffa500;stroke-linejoin:bevel;stroke-width:1.5;" x="228.505433571" xlink:href="#m2312b5f570" y="299.609711173"/>
     <use style="fill:none;stroke:#ffa500;stroke-linejoin:bevel;stroke-width:1.5;" x="309.500027929" xlink:href="#m2312b5f570" y="293.243604795"/>
     <use style="fill:none;stroke:#ffa500;stroke-linejoin:bevel;stroke-width:1.5;" x="376.984234688" xlink:href="#m2312b5f570" y="279.238170763"/>
     <use style="fill:none;stroke:#ffa500;stroke-linejoin:bevel;stroke-width:1.5;" x="454.458132685" xlink:href="#m2312b5f570" y="272.235453747"/>
     <use style="fill:none;stroke:#ffa500;stroke-linejoin:bevel;stroke-width:1.5;" x="454.497759167" xlink:href="#m2312b5f570" y="272.235453747"/>
    </g>
   </g>
   <g id="line2d_19"/>
   <g id="line2d_20">
    <path clip-path="url(#pfcf5b5c3a6)" d="M 329.59888 288.15072 
" style="fill:none;stroke:#ffa500;stroke-linecap:square;"/>
    <defs>
     <path d="M -12 12 
L 12 -12 
M -12 -12 
L 12 12 
" id="m19059ef55e" style="stroke:#ffa500;stroke-width:3.0;"/>
    </defs>
    <g clip-path="url(#pfcf5b5c3a6)">
     <use style="fill:#ffa500;stroke:#ffa500;stroke-width:3.0;" x="329.598879584" xlink:href="#m19059ef55e" y="288.150719693"/>
    </g>
   </g>
   <g id="line2d_21">
    <path d="M 454.497759 284.967667 
L 486.177759 297.954524 
" style="fill:none;stroke:#ff00ff;stroke-linecap:square;stroke-width:1.5;"/>
    <g>
     <use style="fill:none;stroke:#ff00ff;stroke-linejoin:miter;stroke-width:1.5;" x="454.497759167" xlink:href="#mdbe964b99f" y="284.967666504"/>
     <use style="fill:none;stroke:#ff00ff;stroke-linejoin:miter;stroke-width:1.5;" x="486.177759167" xlink:href="#mdbe964b99f" y="297.954523515"/>
    </g>
   </g>
   <g id="line2d_22">
    <path d="M 454.497759 278.60156 
L 486.177759 210.3569 
" style="fill:none;stroke:#000080;stroke-linecap:square;stroke-width:1.5;"/>
    <g>
     <use style="fill:none;stroke:#000080;stroke-width:1.5;" x="454.497759167" xlink:href="#mea97432cd5" y="278.601560125"/>
     <use style="fill:none;stroke:#000080;stroke-width:1.5;" x="486.177759167" xlink:href="#mea97432cd5" y="210.356899752"/>
    </g>
   </g>
   <g id="line2d_23">
    <path d="M 454.497759 272.235454 
L 486.177759 122.759276 
" style="fill:none;stroke:#ffa500;stroke-linecap:square;stroke-width:1.5;"/>
    <g>
     <use style="fill:none;stroke:#ffa500;stroke-linejoin:bevel;stroke-width:1.5;" x="454.497759167" xlink:href="#m2312b5f570" y="272.235453747"/>
     <use style="fill:none;stroke:#ffa500;stroke-linejoin:bevel;stroke-width:1.5;" x="486.177759167" xlink:href="#m2312b5f570" y="122.75927599"/>
    </g>
   </g>
   <g id="line2d_24">
    <path d="M 454.497759 303.429375 
L 454.497759 29.686801 
" style="fill:none;stroke:#000000;stroke-linecap:square;"/>
   </g>
   <g id="patch_3">
    <path d="M 166.497759 26.949375 
L 523.617759 26.949375 
" style="fill:none;stroke:#000000;stroke-linecap:square;stroke-linejoin:miter;"/>
   </g>
   <g id="patch_4">
    <path d="M 523.617759 303.429375 
L 523.617759 26.949375 
" style="fill:none;stroke:#000000;stroke-linecap:square;stroke-linejoin:miter;"/>
   </g>
   <g id="patch_5">
    <path d="M 166.497759 303.429375 
L 523.617759 303.429375 
" style="fill:none;stroke:#000000;stroke-linecap:square;stroke-linejoin:miter;"/>
   </g>
   <g id="patch_6">
    <path d="M 166.497759 303.429375 
L 166.497759 26.949375 
" style="fill:none;stroke:#000000;stroke-linecap:square;stroke-linejoin:miter;"/>
   </g>
   <g id="matplotlib.axis_1">
    <g id="xtick_1">
     <g id="line2d_25">
      <path clip-path="url(#pfcf5b5c3a6)" d="M 166.497759 303.429375 
L 166.497759 26.949375 
" style="fill:none;stroke:#000000;stroke-dasharray:1.000000,3.000000;stroke-dashoffset:0.0;stroke-width:0.5;"/>
     </g>
     <g id="line2d_26">
      <defs>
       <path d="M 0 0 
L 0 -4 
" id="mc2e3adf0c9" style="stroke:#000000;stroke-width:0.5;"/>
      </defs>
      <g>
       <use style="stroke:#000000;stroke-width:0.5;" x="166.497759167" xlink:href="#mc2e3adf0c9" y="303.429375"/>
      </g>
     </g>
     <g id="line2d_27">
      <defs>
       <path d="M 0 0 
L 0 4 
" id="m83f76439c8" style="stroke:#000000;stroke-width:0.5;"/>
      </defs>
      <g>
       <use style="stroke:#000000;stroke-width:0.5;" x="166.497759167" xlink:href="#m83f76439c8" y="26.949375"/>
      </g>
     </g>
     <g id="text_1">
      <!-- 0 -->
      <defs>
       <path d="M 31.78125 66.40625 
Q 24.171875 66.40625 20.328125 58.90625 
Q 16.5 51.421875 16.5 36.375 
Q 16.5 21.390625 20.328125 13.890625 
Q 24.171875 6.390625 31.78125 6.390625 
Q 39.453125 6.390625 43.28125 13.890625 
Q 47.125 21.390625 47.125 36.375 
Q 47.125 51.421875 43.28125 58.90625 
Q 39.453125 66.40625 31.78125 66.40625 
M 31.78125 74.21875 
Q 44.046875 74.21875 50.515625 64.515625 
Q 56.984375 54.828125 56.984375 36.375 
Q 56.984375 17.96875 50.515625 8.265625 
Q 44.046875 -1.421875 31.78125 -1.421875 
Q 19.53125 -1.421875 13.0625 8.265625 
Q 6.59375 17.96875 6.59375 36.375 
Q 6.59375 54.828125 13.0625 64.515625 
Q 19.53125 74.21875 31.78125 74.21875 
" id="BitstreamVeraSans-Roman-30"/>
      </defs>
      <g transform="translate(160.135259167 322.62625)scale(0.2 -0.2)">
       <use xlink:href="#BitstreamVeraSans-Roman-30"/>
      </g>
     </g>
    </g>
    <g id="xtick_2">
     <g id="line2d_28">
      <path clip-path="url(#pfcf5b5c3a6)" d="M 262.497759 303.429375 
L 262.497759 26.949375 
" style="fill:none;stroke:#000000;stroke-dasharray:1.000000,3.000000;stroke-dashoffset:0.0;stroke-width:0.5;"/>
     </g>
     <g id="line2d_29">
      <g>
       <use style="stroke:#000000;stroke-width:0.5;" x="262.497759167" xlink:href="#mc2e3adf0c9" y="303.429375"/>
      </g>
     </g>
     <g id="line2d_30">
      <g>
       <use style="stroke:#000000;stroke-width:0.5;" x="262.497759167" xlink:href="#m83f76439c8" y="26.949375"/>
      </g>
     </g>
     <g id="text_2">
      <!-- 1 -->
      <defs>
       <path d="M 12.40625 8.296875 
L 28.515625 8.296875 
L 28.515625 63.921875 
L 10.984375 60.40625 
L 10.984375 69.390625 
L 28.421875 72.90625 
L 38.28125 72.90625 
L 38.28125 8.296875 
L 54.390625 8.296875 
L 54.390625 0 
L 12.40625 0 
z
" id="BitstreamVeraSans-Roman-31"/>
      </defs>
      <g transform="translate(256.135259167 322.62625)scale(0.2 -0.2)">
       <use xlink:href="#BitstreamVeraSans-Roman-31"/>
      </g>
     </g>
    </g>
    <g id="xtick_3">
     <g id="line2d_31">
      <path clip-path="url(#pfcf5b5c3a6)" d="M 358.497759 303.429375 
L 358.497759 26.949375 
" style="fill:none;stroke:#000000;stroke-dasharray:1.000000,3.000000;stroke-dashoffset:0.0;stroke-width:0.5;"/>
     </g>
     <g id="line2d_32">
      <g>
       <use style="stroke:#000000;stroke-width:0.5;" x="358.497759167" xlink:href="#mc2e3adf0c9" y="303.429375"/>
      </g>
     </g>
     <g id="line2d_33">
      <g>
       <use style="stroke:#000000;stroke-width:0.5;" x="358.497759167" xlink:href="#m83f76439c8" y="26.949375"/>
      </g>
     </g>
     <g id="text_3">
      <!-- 2 -->
      <defs>
       <path d="M 19.1875 8.296875 
L 53.609375 8.296875 
L 53.609375 0 
L 7.328125 0 
L 7.328125 8.296875 
Q 12.9375 14.109375 22.625 23.890625 
Q 32.328125 33.6875 34.8125 36.53125 
Q 39.546875 41.84375 41.421875 45.53125 
Q 43.3125 49.21875 43.3125 52.78125 
Q 43.3125 58.59375 39.234375 62.25 
Q 35.15625 65.921875 28.609375 65.921875 
Q 23.96875 65.921875 18.8125 64.3125 
Q 13.671875 62.703125 7.8125 59.421875 
L 7.8125 69.390625 
Q 13.765625 71.78125 18.9375 73 
Q 24.125 74.21875 28.421875 74.21875 
Q 39.75 74.21875 46.484375 68.546875 
Q 53.21875 62.890625 53.21875 53.421875 
Q 53.21875 48.921875 51.53125 44.890625 
Q 49.859375 40.875 45.40625 35.40625 
Q 44.1875 33.984375 37.640625 27.21875 
Q 31.109375 20.453125 19.1875 8.296875 
" id="BitstreamVeraSans-Roman-32"/>
      </defs>
      <g transform="translate(352.135259167 322.62625)scale(0.2 -0.2)">
       <use xlink:href="#BitstreamVeraSans-Roman-32"/>
      </g>
     </g>
    </g>
    <g id="xtick_4">
     <g id="line2d_34">
      <path clip-path="url(#pfcf5b5c3a6)" d="M 454.497759 303.429375 
L 454.497759 26.949375 
" style="fill:none;stroke:#000000;stroke-dasharray:1.000000,3.000000;stroke-dashoffset:0.0;stroke-width:0.5;"/>
     </g>
     <g id="line2d_35">
      <g>
       <use style="stroke:#000000;stroke-width:0.5;" x="454.497759167" xlink:href="#mc2e3adf0c9" y="303.429375"/>
      </g>
     </g>
     <g id="line2d_36">
      <g>
       <use style="stroke:#000000;stroke-width:0.5;" x="454.497759167" xlink:href="#m83f76439c8" y="26.949375"/>
      </g>
     </g>
     <g id="text_4">
      <!-- 3 -->
      <defs>
       <path d="M 40.578125 39.3125 
Q 47.65625 37.796875 51.625 33 
Q 55.609375 28.21875 55.609375 21.1875 
Q 55.609375 10.40625 48.1875 4.484375 
Q 40.765625 -1.421875 27.09375 -1.421875 
Q 22.515625 -1.421875 17.65625 -0.515625 
Q 12.796875 0.390625 7.625 2.203125 
L 7.625 11.71875 
Q 11.71875 9.328125 16.59375 8.109375 
Q 21.484375 6.890625 26.8125 6.890625 
Q 36.078125 6.890625 40.9375 10.546875 
Q 45.796875 14.203125 45.796875 21.1875 
Q 45.796875 27.640625 41.28125 31.265625 
Q 36.765625 34.90625 28.71875 34.90625 
L 20.21875 34.90625 
L 20.21875 43.015625 
L 29.109375 43.015625 
Q 36.375 43.015625 40.234375 45.921875 
Q 44.09375 48.828125 44.09375 54.296875 
Q 44.09375 59.90625 40.109375 62.90625 
Q 36.140625 65.921875 28.71875 65.921875 
Q 24.65625 65.921875 20.015625 65.03125 
Q 15.375 64.15625 9.8125 62.3125 
L 9.8125 71.09375 
Q 15.4375 72.65625 20.34375 73.4375 
Q 25.25 74.21875 29.59375 74.21875 
Q 40.828125 74.21875 47.359375 69.109375 
Q 53.90625 64.015625 53.90625 55.328125 
Q 53.90625 49.265625 50.4375 45.09375 
Q 46.96875 40.921875 40.578125 39.3125 
" id="BitstreamVeraSans-Roman-33"/>
      </defs>
      <g transform="translate(448.135259167 322.62625)scale(0.2 -0.2)">
       <use xlink:href="#BitstreamVeraSans-Roman-33"/>
      </g>
     </g>
    </g>
    <g id="xtick_5">
     <g id="line2d_37">
      <defs>
       <path d="M 0 0 
L 0 -2 
" id="m99275db27a" style="stroke:#000000;stroke-width:0.5;"/>
      </defs>
      <g>
       <use style="stroke:#000000;stroke-width:0.5;" x="195.396638751" xlink:href="#m99275db27a" y="303.429375"/>
      </g>
     </g>
     <g id="line2d_38">
      <defs>
       <path d="M 0 0 
L 0 2 
" id="ma5e72b2c6c" style="stroke:#000000;stroke-width:0.5;"/>
      </defs>
      <g>
       <use style="stroke:#000000;stroke-width:0.5;" x="195.396638751" xlink:href="#ma5e72b2c6c" y="26.949375"/>
      </g>
     </g>
    </g>
    <g id="xtick_6">
     <g id="line2d_39">
      <g>
       <use style="stroke:#000000;stroke-width:0.5;" x="212.301399621" xlink:href="#m99275db27a" y="303.429375"/>
      </g>
     </g>
     <g id="line2d_40">
      <g>
       <use style="stroke:#000000;stroke-width:0.5;" x="212.301399621" xlink:href="#ma5e72b2c6c" y="26.949375"/>
      </g>
     </g>
    </g>
    <g id="xtick_7">
     <g id="line2d_41">
      <g>
       <use style="stroke:#000000;stroke-width:0.5;" x="224.295518335" xlink:href="#m99275db27a" y="303.429375"/>
      </g>
     </g>
     <g id="line2d_42">
      <g>
       <use style="stroke:#000000;stroke-width:0.5;" x="224.295518335" xlink:href="#ma5e72b2c6c" y="26.949375"/>
      </g>
     </g>
    </g>
    <g id="xtick_8">
     <g id="line2d_43">
      <g>
       <use style="stroke:#000000;stroke-width:0.5;" x="233.598879584" xlink:href="#m99275db27a" y="303.429375"/>
      </g>
     </g>
     <g id="line2d_44">
      <g>
       <use style="stroke:#000000;stroke-width:0.5;" x="233.598879584" xlink:href="#ma5e72b2c6c" y="26.949375"/>
      </g>
     </g>
    </g>
    <g id="xtick_9">
     <g id="line2d_45">
      <g>
       <use style="stroke:#000000;stroke-width:0.5;" x="241.200279204" xlink:href="#m99275db27a" y="303.429375"/>
      </g>
     </g>
     <g id="line2d_46">
      <g>
       <use style="stroke:#000000;stroke-width:0.5;" x="241.200279204" xlink:href="#ma5e72b2c6c" y="26.949375"/>
      </g>
     </g>
    </g>
    <g id="xtick_10">
     <g id="line2d_47">
      <g>
       <use style="stroke:#000000;stroke-width:0.5;" x="247.627171009" xlink:href="#m99275db27a" y="303.429375"/>
      </g>
     </g>
     <g id="line2d_48">
      <g>
       <use style="stroke:#000000;stroke-width:0.5;" x="247.627171009" xlink:href="#ma5e72b2c6c" y="26.949375"/>
      </g>
     </g>
    </g>
    <g id="xtick_11">
     <g id="line2d_49">
      <g>
       <use style="stroke:#000000;stroke-width:0.5;" x="253.194397919" xlink:href="#m99275db27a" y="303.429375"/>
      </g>
     </g>
     <g id="line2d_50">
      <g>
       <use style="stroke:#000000;stroke-width:0.5;" x="253.194397919" xlink:href="#ma5e72b2c6c" y="26.949375"/>
      </g>
     </g>
    </g>
    <g id="xtick_12">
     <g id="line2d_51">
      <g>
       <use style="stroke:#000000;stroke-width:0.5;" x="258.105040074" xlink:href="#m99275db27a" y="303.429375"/>
      </g>
     </g>
     <g id="line2d_52">
      <g>
       <use style="stroke:#000000;stroke-width:0.5;" x="258.105040074" xlink:href="#ma5e72b2c6c" y="26.949375"/>
      </g>
     </g>
    </g>
    <g id="xtick_13">
     <g id="line2d_53">
      <g>
       <use style="stroke:#000000;stroke-width:0.5;" x="291.396638751" xlink:href="#m99275db27a" y="303.429375"/>
      </g>
     </g>
     <g id="line2d_54">
      <g>
       <use style="stroke:#000000;stroke-width:0.5;" x="291.396638751" xlink:href="#ma5e72b2c6c" y="26.949375"/>
      </g>
     </g>
    </g>
    <g id="xtick_14">
     <g id="line2d_55">
      <g>
       <use style="stroke:#000000;stroke-width:0.5;" x="308.301399621" xlink:href="#m99275db27a" y="303.429375"/>
      </g>
     </g>
     <g id="line2d_56">
      <g>
       <use style="stroke:#000000;stroke-width:0.5;" x="308.301399621" xlink:href="#ma5e72b2c6c" y="26.949375"/>
      </g>
     </g>
    </g>
    <g id="xtick_15">
     <g id="line2d_57">
      <g>
       <use style="stroke:#000000;stroke-width:0.5;" x="320.295518335" xlink:href="#m99275db27a" y="303.429375"/>
      </g>
     </g>
     <g id="line2d_58">
      <g>
       <use style="stroke:#000000;stroke-width:0.5;" x="320.295518335" xlink:href="#ma5e72b2c6c" y="26.949375"/>
      </g>
     </g>
    </g>
    <g id="xtick_16">
     <g id="line2d_59">
      <g>
       <use style="stroke:#000000;stroke-width:0.5;" x="329.598879584" xlink:href="#m99275db27a" y="303.429375"/>
      </g>
     </g>
     <g id="line2d_60">
      <g>
       <use style="stroke:#000000;stroke-width:0.5;" x="329.598879584" xlink:href="#ma5e72b2c6c" y="26.949375"/>
      </g>
     </g>
    </g>
    <g id="xtick_17">
     <g id="line2d_61">
      <g>
       <use style="stroke:#000000;stroke-width:0.5;" x="337.200279204" xlink:href="#m99275db27a" y="303.429375"/>
      </g>
     </g>
     <g id="line2d_62">
      <g>
       <use style="stroke:#000000;stroke-width:0.5;" x="337.200279204" xlink:href="#ma5e72b2c6c" y="26.949375"/>
      </g>
     </g>
    </g>
    <g id="xtick_18">
     <g id="line2d_63">
      <g>
       <use style="stroke:#000000;stroke-width:0.5;" x="343.627171009" xlink:href="#m99275db27a" y="303.429375"/>
      </g>
     </g>
     <g id="line2d_64">
      <g>
       <use style="stroke:#000000;stroke-width:0.5;" x="343.627171009" xlink:href="#ma5e72b2c6c" y="26.949375"/>
      </g>
     </g>
    </g>
    <g id="xtick_19">
     <g id="line2d_65">
      <g>
       <use style="stroke:#000000;stroke-width:0.5;" x="349.194397919" xlink:href="#m99275db27a" y="303.429375"/>
      </g>
     </g>
     <g id="line2d_66">
      <g>
       <use style="stroke:#000000;stroke-width:0.5;" x="349.194397919" xlink:href="#ma5e72b2c6c" y="26.949375"/>
      </g>
     </g>
    </g>
    <g id="xtick_20">
     <g id="line2d_67">
      <g>
       <use style="stroke:#000000;stroke-width:0.5;" x="354.105040074" xlink:href="#m99275db27a" y="303.429375"/>
      </g>
     </g>
     <g id="line2d_68">
      <g>
       <use style="stroke:#000000;stroke-width:0.5;" x="354.105040074" xlink:href="#ma5e72b2c6c" y="26.949375"/>
      </g>
     </g>
    </g>
    <g id="xtick_21">
     <g id="line2d_69">
      <g>
       <use style="stroke:#000000;stroke-width:0.5;" x="387.396638751" xlink:href="#m99275db27a" y="303.429375"/>
      </g>
     </g>
     <g id="line2d_70">
      <g>
       <use style="stroke:#000000;stroke-width:0.5;" x="387.396638751" xlink:href="#ma5e72b2c6c" y="26.949375"/>
      </g>
     </g>
    </g>
    <g id="xtick_22">
     <g id="line2d_71">
      <g>
       <use style="stroke:#000000;stroke-width:0.5;" x="404.301399621" xlink:href="#m99275db27a" y="303.429375"/>
      </g>
     </g>
     <g id="line2d_72">
      <g>
       <use style="stroke:#000000;stroke-width:0.5;" x="404.301399621" xlink:href="#ma5e72b2c6c" y="26.949375"/>
      </g>
     </g>
    </g>
    <g id="xtick_23">
     <g id="line2d_73">
      <g>
       <use style="stroke:#000000;stroke-width:0.5;" x="416.295518335" xlink:href="#m99275db27a" y="303.429375"/>
      </g>
     </g>
     <g id="line2d_74">
      <g>
       <use style="stroke:#000000;stroke-width:0.5;" x="416.295518335" xlink:href="#ma5e72b2c6c" y="26.949375"/>
      </g>
     </g>
    </g>
    <g id="xtick_24">
     <g id="line2d_75">
      <g>
       <use style="stroke:#000000;stroke-width:0.5;" x="425.598879584" xlink:href="#m99275db27a" y="303.429375"/>
      </g>
     </g>
     <g id="line2d_76">
      <g>
       <use style="stroke:#000000;stroke-width:0.5;" x="425.598879584" xlink:href="#ma5e72b2c6c" y="26.949375"/>
      </g>
     </g>
    </g>
    <g id="xtick_25">
     <g id="line2d_77">
      <g>
       <use style="stroke:#000000;stroke-width:0.5;" x="433.200279204" xlink:href="#m99275db27a" y="303.429375"/>
      </g>
     </g>
     <g id="line2d_78">
      <g>
       <use style="stroke:#000000;stroke-width:0.5;" x="433.200279204" xlink:href="#ma5e72b2c6c" y="26.949375"/>
      </g>
     </g>
    </g>
    <g id="xtick_26">
     <g id="line2d_79">
      <g>
       <use style="stroke:#000000;stroke-width:0.5;" x="439.627171009" xlink:href="#m99275db27a" y="303.429375"/>
      </g>
     </g>
     <g id="line2d_80">
      <g>
       <use style="stroke:#000000;stroke-width:0.5;" x="439.627171009" xlink:href="#ma5e72b2c6c" y="26.949375"/>
      </g>
     </g>
    </g>
    <g id="xtick_27">
     <g id="line2d_81">
      <g>
       <use style="stroke:#000000;stroke-width:0.5;" x="445.194397919" xlink:href="#m99275db27a" y="303.429375"/>
      </g>
     </g>
     <g id="line2d_82">
      <g>
       <use style="stroke:#000000;stroke-width:0.5;" x="445.194397919" xlink:href="#ma5e72b2c6c" y="26.949375"/>
      </g>
     </g>
    </g>
    <g id="xtick_28">
     <g id="line2d_83">
      <g>
       <use style="stroke:#000000;stroke-width:0.5;" x="450.105040074" xlink:href="#m99275db27a" y="303.429375"/>
      </g>
     </g>
     <g id="line2d_84">
      <g>
       <use style="stroke:#000000;stroke-width:0.5;" x="450.105040074" xlink:href="#ma5e72b2c6c" y="26.949375"/>
      </g>
     </g>
    </g>
    <g id="xtick_29">
     <g id="line2d_85">
      <g>
       <use style="stroke:#000000;stroke-width:0.5;" x="483.396638751" xlink:href="#m99275db27a" y="303.429375"/>
      </g>
     </g>
     <g id="line2d_86">
      <g>
       <use style="stroke:#000000;stroke-width:0.5;" x="483.396638751" xlink:href="#ma5e72b2c6c" y="26.949375"/>
      </g>
     </g>
    </g>
    <g id="xtick_30">
     <g id="line2d_87">
      <g>
       <use style="stroke:#000000;stroke-width:0.5;" x="500.301399621" xlink:href="#m99275db27a" y="303.429375"/>
      </g>
     </g>
     <g id="line2d_88">
      <g>
       <use style="stroke:#000000;stroke-width:0.5;" x="500.301399621" xlink:href="#ma5e72b2c6c" y="26.949375"/>
      </g>
     </g>
    </g>
    <g id="xtick_31">
     <g id="line2d_89">
      <g>
       <use style="stroke:#000000;stroke-width:0.5;" x="512.295518335" xlink:href="#m99275db27a" y="303.429375"/>
      </g>
     </g>
     <g id="line2d_90">
      <g>
       <use style="stroke:#000000;stroke-width:0.5;" x="512.295518335" xlink:href="#ma5e72b2c6c" y="26.949375"/>
      </g>
     </g>
    </g>
    <g id="xtick_32">
     <g id="line2d_91">
      <g>
       <use style="stroke:#000000;stroke-width:0.5;" x="521.598879584" xlink:href="#m99275db27a" y="303.429375"/>
      </g>
     </g>
     <g id="line2d_92">
      <g>
       <use style="stroke:#000000;stroke-width:0.5;" x="521.598879584" xlink:href="#ma5e72b2c6c" y="26.949375"/>
      </g>
     </g>
    </g>
    <g id="text_5">
     <!-- log10 of (# f-evals / dimension) -->
     <defs>
      <path id="BitstreamVeraSans-Roman-20"/>
      <path d="M 51.125 44 
L 36.921875 44 
L 32.8125 27.6875 
L 47.125 27.6875 
z
M 43.796875 71.78125 
L 38.71875 51.515625 
L 52.984375 51.515625 
L 58.109375 71.78125 
L 65.921875 71.78125 
L 60.890625 51.515625 
L 76.125 51.515625 
L 76.125 44 
L 58.984375 44 
L 54.984375 27.6875 
L 70.515625 27.6875 
L 70.515625 20.21875 
L 53.078125 20.21875 
L 48 0 
L 40.1875 0 
L 45.21875 20.21875 
L 30.90625 20.21875 
L 25.875 0 
L 18.015625 0 
L 23.09375 20.21875 
L 7.71875 20.21875 
L 7.71875 27.6875 
L 24.90625 27.6875 
L 29 44 
L 13.28125 44 
L 13.28125 51.515625 
L 30.90625 51.515625 
L 35.890625 71.78125 
z
" id="BitstreamVeraSans-Roman-23"/>
      <path d="M 52 44.1875 
Q 55.375 50.25 60.0625 53.125 
Q 64.75 56 71.09375 56 
Q 79.640625 56 84.28125 50.015625 
Q 88.921875 44.046875 88.921875 33.015625 
L 88.921875 0 
L 79.890625 0 
L 79.890625 32.71875 
Q 79.890625 40.578125 77.09375 44.375 
Q 74.3125 48.1875 68.609375 48.1875 
Q 61.625 48.1875 57.5625 43.546875 
Q 53.515625 38.921875 53.515625 30.90625 
L 53.515625 0 
L 44.484375 0 
L 44.484375 32.71875 
Q 44.484375 40.625 41.703125 44.40625 
Q 38.921875 48.1875 33.109375 48.1875 
Q 26.21875 48.1875 22.15625 43.53125 
Q 18.109375 38.875 18.109375 30.90625 
L 18.109375 0 
L 9.078125 0 
L 9.078125 54.6875 
L 18.109375 54.6875 
L 18.109375 46.1875 
Q 21.1875 51.21875 25.484375 53.609375 
Q 29.78125 56 35.6875 56 
Q 41.65625 56 45.828125 52.96875 
Q 50 49.953125 52 44.1875 
" id="BitstreamVeraSans-Roman-6d"/>
      <path d="M 54.890625 33.015625 
L 54.890625 0 
L 45.90625 0 
L 45.90625 32.71875 
Q 45.90625 40.484375 42.875 44.328125 
Q 39.84375 48.1875 33.796875 48.1875 
Q 26.515625 48.1875 22.3125 43.546875 
Q 18.109375 38.921875 18.109375 30.90625 
L 18.109375 0 
L 9.078125 0 
L 9.078125 54.6875 
L 18.109375 54.6875 
L 18.109375 46.1875 
Q 21.34375 51.125 25.703125 53.5625 
Q 30.078125 56 35.796875 56 
Q 45.21875 56 50.046875 50.171875 
Q 54.890625 44.34375 54.890625 33.015625 
" id="BitstreamVeraSans-Roman-6e"/>
      <path d="M 31 75.875 
Q 24.46875 64.65625 21.28125 53.65625 
Q 18.109375 42.671875 18.109375 31.390625 
Q 18.109375 20.125 21.3125 9.0625 
Q 24.515625 -2 31 -13.1875 
L 23.1875 -13.1875 
Q 15.875 -1.703125 12.234375 9.375 
Q 8.59375 20.453125 8.59375 31.390625 
Q 8.59375 42.28125 12.203125 53.3125 
Q 15.828125 64.359375 23.1875 75.875 
z
" id="BitstreamVeraSans-Roman-28"/>
      <path d="M 30.609375 48.390625 
Q 23.390625 48.390625 19.1875 42.75 
Q 14.984375 37.109375 14.984375 27.296875 
Q 14.984375 17.484375 19.15625 11.84375 
Q 23.34375 6.203125 30.609375 6.203125 
Q 37.796875 6.203125 41.984375 11.859375 
Q 46.1875 17.53125 46.1875 27.296875 
Q 46.1875 37.015625 41.984375 42.703125 
Q 37.796875 48.390625 30.609375 48.390625 
M 30.609375 56 
Q 42.328125 56 49.015625 48.375 
Q 55.71875 40.765625 55.71875 27.296875 
Q 55.71875 13.875 49.015625 6.21875 
Q 42.328125 -1.421875 30.609375 -1.421875 
Q 18.84375 -1.421875 12.171875 6.21875 
Q 5.515625 13.875 5.515625 27.296875 
Q 5.515625 40.765625 12.171875 48.375 
Q 18.84375 56 30.609375 56 
" id="BitstreamVeraSans-Roman-6f"/>
      <path d="M 9.421875 75.984375 
L 18.40625 75.984375 
L 18.40625 0 
L 9.421875 0 
z
" id="BitstreamVeraSans-Roman-6c"/>
      <path d="M 2.984375 54.6875 
L 12.5 54.6875 
L 29.59375 8.796875 
L 46.6875 54.6875 
L 56.203125 54.6875 
L 35.6875 0 
L 23.484375 0 
z
" id="BitstreamVeraSans-Roman-76"/>
      <path d="M 9.421875 54.6875 
L 18.40625 54.6875 
L 18.40625 0 
L 9.421875 0 
z
M 9.421875 75.984375 
L 18.40625 75.984375 
L 18.40625 64.59375 
L 9.421875 64.59375 
z
" id="BitstreamVeraSans-Roman-69"/>
      <path d="M 4.890625 31.390625 
L 31.203125 31.390625 
L 31.203125 23.390625 
L 4.890625 23.390625 
z
" id="BitstreamVeraSans-Roman-2d"/>
      <path d="M 25.390625 72.90625 
L 33.6875 72.90625 
L 8.296875 -9.28125 
L 0 -9.28125 
z
" id="BitstreamVeraSans-Roman-2f"/>
      <path d="M 56.203125 29.59375 
L 56.203125 25.203125 
L 14.890625 25.203125 
Q 15.484375 15.921875 20.484375 11.0625 
Q 25.484375 6.203125 34.421875 6.203125 
Q 39.59375 6.203125 44.453125 7.46875 
Q 49.3125 8.734375 54.109375 11.28125 
L 54.109375 2.78125 
Q 49.265625 0.734375 44.1875 -0.34375 
Q 39.109375 -1.421875 33.890625 -1.421875 
Q 20.796875 -1.421875 13.15625 6.1875 
Q 5.515625 13.8125 5.515625 26.8125 
Q 5.515625 40.234375 12.765625 48.109375 
Q 20.015625 56 32.328125 56 
Q 43.359375 56 49.78125 48.890625 
Q 56.203125 41.796875 56.203125 29.59375 
M 47.21875 32.234375 
Q 47.125 39.59375 43.09375 43.984375 
Q 39.0625 48.390625 32.421875 48.390625 
Q 24.90625 48.390625 20.390625 44.140625 
Q 15.875 39.890625 15.1875 32.171875 
z
" id="BitstreamVeraSans-Roman-65"/>
      <path d="M 45.40625 46.390625 
L 45.40625 75.984375 
L 54.390625 75.984375 
L 54.390625 0 
L 45.40625 0 
L 45.40625 8.203125 
Q 42.578125 3.328125 38.25 0.953125 
Q 33.9375 -1.421875 27.875 -1.421875 
Q 17.96875 -1.421875 11.734375 6.484375 
Q 5.515625 14.40625 5.515625 27.296875 
Q 5.515625 40.1875 11.734375 48.09375 
Q 17.96875 56 27.875 56 
Q 33.9375 56 38.25 53.625 
Q 42.578125 51.265625 45.40625 46.390625 
M 14.796875 27.296875 
Q 14.796875 17.390625 18.875 11.75 
Q 22.953125 6.109375 30.078125 6.109375 
Q 37.203125 6.109375 41.296875 11.75 
Q 45.40625 17.390625 45.40625 27.296875 
Q 45.40625 37.203125 41.296875 42.84375 
Q 37.203125 48.484375 30.078125 48.484375 
Q 22.953125 48.484375 18.875 42.84375 
Q 14.796875 37.203125 14.796875 27.296875 
" id="BitstreamVeraSans-Roman-64"/>
      <path d="M 45.40625 27.984375 
Q 45.40625 37.75 41.375 43.109375 
Q 37.359375 48.484375 30.078125 48.484375 
Q 22.859375 48.484375 18.828125 43.109375 
Q 14.796875 37.75 14.796875 27.984375 
Q 14.796875 18.265625 18.828125 12.890625 
Q 22.859375 7.515625 30.078125 7.515625 
Q 37.359375 7.515625 41.375 12.890625 
Q 45.40625 18.265625 45.40625 27.984375 
M 54.390625 6.78125 
Q 54.390625 -7.171875 48.1875 -13.984375 
Q 42 -20.796875 29.203125 -20.796875 
Q 24.46875 -20.796875 20.265625 -20.09375 
Q 16.0625 -19.390625 12.109375 -17.921875 
L 12.109375 -9.1875 
Q 16.0625 -11.328125 19.921875 -12.34375 
Q 23.78125 -13.375 27.78125 -13.375 
Q 36.625 -13.375 41.015625 -8.765625 
Q 45.40625 -4.15625 45.40625 5.171875 
L 45.40625 9.625 
Q 42.625 4.78125 38.28125 2.390625 
Q 33.9375 0 27.875 0 
Q 17.828125 0 11.671875 7.65625 
Q 5.515625 15.328125 5.515625 27.984375 
Q 5.515625 40.671875 11.671875 48.328125 
Q 17.828125 56 27.875 56 
Q 33.9375 56 38.28125 53.609375 
Q 42.625 51.21875 45.40625 46.390625 
L 45.40625 54.6875 
L 54.390625 54.6875 
z
" id="BitstreamVeraSans-Roman-67"/>
      <path d="M 37.109375 75.984375 
L 37.109375 68.5 
L 28.515625 68.5 
Q 23.6875 68.5 21.796875 66.546875 
Q 19.921875 64.59375 19.921875 59.515625 
L 19.921875 54.6875 
L 34.71875 54.6875 
L 34.71875 47.703125 
L 19.921875 47.703125 
L 19.921875 0 
L 10.890625 0 
L 10.890625 47.703125 
L 2.296875 47.703125 
L 2.296875 54.6875 
L 10.890625 54.6875 
L 10.890625 58.5 
Q 10.890625 67.625 15.140625 71.796875 
Q 19.390625 75.984375 28.609375 75.984375 
z
" id="BitstreamVeraSans-Roman-66"/>
      <path d="M 34.28125 27.484375 
Q 23.390625 27.484375 19.1875 25 
Q 14.984375 22.515625 14.984375 16.5 
Q 14.984375 11.71875 18.140625 8.90625 
Q 21.296875 6.109375 26.703125 6.109375 
Q 34.1875 6.109375 38.703125 11.40625 
Q 43.21875 16.703125 43.21875 25.484375 
L 43.21875 27.484375 
z
M 52.203125 31.203125 
L 52.203125 0 
L 43.21875 0 
L 43.21875 8.296875 
Q 40.140625 3.328125 35.546875 0.953125 
Q 30.953125 -1.421875 24.3125 -1.421875 
Q 15.921875 -1.421875 10.953125 3.296875 
Q 6 8.015625 6 15.921875 
Q 6 25.140625 12.171875 29.828125 
Q 18.359375 34.515625 30.609375 34.515625 
L 43.21875 34.515625 
L 43.21875 35.40625 
Q 43.21875 41.609375 39.140625 45 
Q 35.0625 48.390625 27.6875 48.390625 
Q 23 48.390625 18.546875 47.265625 
Q 14.109375 46.140625 10.015625 43.890625 
L 10.015625 52.203125 
Q 14.9375 54.109375 19.578125 55.046875 
Q 24.21875 56 28.609375 56 
Q 40.484375 56 46.34375 49.84375 
Q 52.203125 43.703125 52.203125 31.203125 
" id="BitstreamVeraSans-Roman-61"/>
      <path d="M 44.28125 53.078125 
L 44.28125 44.578125 
Q 40.484375 46.53125 36.375 47.5 
Q 32.28125 48.484375 27.875 48.484375 
Q 21.1875 48.484375 17.84375 46.4375 
Q 14.5 44.390625 14.5 40.28125 
Q 14.5 37.15625 16.890625 35.375 
Q 19.28125 33.59375 26.515625 31.984375 
L 29.59375 31.296875 
Q 39.15625 29.25 43.1875 25.515625 
Q 47.21875 21.78125 47.21875 15.09375 
Q 47.21875 7.46875 41.1875 3.015625 
Q 35.15625 -1.421875 24.609375 -1.421875 
Q 20.21875 -1.421875 15.453125 -0.5625 
Q 10.6875 0.296875 5.421875 2 
L 5.421875 11.28125 
Q 10.40625 8.6875 15.234375 7.390625 
Q 20.0625 6.109375 24.8125 6.109375 
Q 31.15625 6.109375 34.5625 8.28125 
Q 37.984375 10.453125 37.984375 14.40625 
Q 37.984375 18.0625 35.515625 20.015625 
Q 33.0625 21.96875 24.703125 23.78125 
L 21.578125 24.515625 
Q 13.234375 26.265625 9.515625 29.90625 
Q 5.8125 33.546875 5.8125 39.890625 
Q 5.8125 47.609375 11.28125 51.796875 
Q 16.75 56 26.8125 56 
Q 31.78125 56 36.171875 55.265625 
Q 40.578125 54.546875 44.28125 53.078125 
" id="BitstreamVeraSans-Roman-73"/>
      <path d="M 8.015625 75.875 
L 15.828125 75.875 
Q 23.140625 64.359375 26.78125 53.3125 
Q 30.421875 42.28125 30.421875 31.390625 
Q 30.421875 20.453125 26.78125 9.375 
Q 23.140625 -1.703125 15.828125 -13.1875 
L 8.015625 -13.1875 
Q 14.5 -2 17.703125 9.0625 
Q 20.90625 20.125 20.90625 31.390625 
Q 20.90625 42.671875 17.703125 53.65625 
Q 14.5 64.65625 8.015625 75.875 
" id="BitstreamVeraSans-Roman-29"/>
     </defs>
     <g transform="translate(202.712915417 345.4628125)scale(0.18 -0.18)">
      <use xlink:href="#BitstreamVeraSans-Roman-6c"/>
      <use x="27.783203125" xlink:href="#BitstreamVeraSans-Roman-6f"/>
      <use x="88.96484375" xlink:href="#BitstreamVeraSans-Roman-67"/>
      <use x="152.44140625" xlink:href="#BitstreamVeraSans-Roman-31"/>
      <use x="216.064453125" xlink:href="#BitstreamVeraSans-Roman-30"/>
      <use x="279.6875" xlink:href="#BitstreamVeraSans-Roman-20"/>
      <use x="311.474609375" xlink:href="#BitstreamVeraSans-Roman-6f"/>
      <use x="372.65625" xlink:href="#BitstreamVeraSans-Roman-66"/>
      <use x="407.861328125" xlink:href="#BitstreamVeraSans-Roman-20"/>
      <use x="439.6484375" xlink:href="#BitstreamVeraSans-Roman-28"/>
      <use x="478.662109375" xlink:href="#BitstreamVeraSans-Roman-23"/>
      <use x="562.451171875" xlink:href="#BitstreamVeraSans-Roman-20"/>
      <use x="594.23828125" xlink:href="#BitstreamVeraSans-Roman-66"/>
      <use x="629.365234375" xlink:href="#BitstreamVeraSans-Roman-2d"/>
      <use x="665.44921875" xlink:href="#BitstreamVeraSans-Roman-65"/>
      <use x="726.97265625" xlink:href="#BitstreamVeraSans-Roman-76"/>
      <use x="786.15234375" xlink:href="#BitstreamVeraSans-Roman-61"/>
      <use x="847.431640625" xlink:href="#BitstreamVeraSans-Roman-6c"/>
      <use x="875.21484375" xlink:href="#BitstreamVeraSans-Roman-73"/>
      <use x="927.314453125" xlink:href="#BitstreamVeraSans-Roman-20"/>
      <use x="959.1015625" xlink:href="#BitstreamVeraSans-Roman-2f"/>
      <use x="992.79296875" xlink:href="#BitstreamVeraSans-Roman-20"/>
      <use x="1024.58007812" xlink:href="#BitstreamVeraSans-Roman-64"/>
      <use x="1088.05664062" xlink:href="#BitstreamVeraSans-Roman-69"/>
      <use x="1115.83984375" xlink:href="#BitstreamVeraSans-Roman-6d"/>
      <use x="1213.25195312" xlink:href="#BitstreamVeraSans-Roman-65"/>
      <use x="1274.77539062" xlink:href="#BitstreamVeraSans-Roman-6e"/>
      <use x="1338.15429688" xlink:href="#BitstreamVeraSans-Roman-73"/>
      <use x="1390.25390625" xlink:href="#BitstreamVeraSans-Roman-69"/>
      <use x="1418.03710938" xlink:href="#BitstreamVeraSans-Roman-6f"/>
      <use x="1479.21875" xlink:href="#BitstreamVeraSans-Roman-6e"/>
      <use x="1542.59765625" xlink:href="#BitstreamVeraSans-Roman-29"/>
     </g>
    </g>
   </g>
   <g id="matplotlib.axis_2">
    <g id="ytick_1">
     <g id="line2d_93">
      <path clip-path="url(#pfcf5b5c3a6)" d="M 166.497759 303.429375 
L 523.617759 303.429375 
" style="fill:none;stroke:#000000;stroke-dasharray:1.000000,3.000000;stroke-dashoffset:0.0;stroke-width:0.5;"/>
     </g>
     <g id="line2d_94">
      <defs>
       <path d="M 0 0 
L 4 0 
" id="m3b2a8f1e3e" style="stroke:#000000;stroke-width:0.5;"/>
      </defs>
      <g>
       <use style="stroke:#000000;stroke-width:0.5;" x="166.497759167" xlink:href="#m3b2a8f1e3e" y="303.429375"/>
      </g>
     </g>
     <g id="line2d_95">
      <defs>
       <path d="M 0 0 
L -4 0 
" id="m9bba32cd4f" style="stroke:#000000;stroke-width:0.5;"/>
      </defs>
      <g>
       <use style="stroke:#000000;stroke-width:0.5;" x="523.617759167" xlink:href="#m9bba32cd4f" y="303.429375"/>
      </g>
     </g>
     <g id="text_6">
      <!-- 0.0 -->
      <defs>
       <path d="M 10.6875 12.40625 
L 21 12.40625 
L 21 0 
L 10.6875 0 
z
" id="BitstreamVeraSans-Roman-2e"/>
      </defs>
      <g transform="translate(130.691509167 308.948125)scale(0.2 -0.2)">
       <use xlink:href="#BitstreamVeraSans-Roman-30"/>
       <use x="63.623046875" xlink:href="#BitstreamVeraSans-Roman-2e"/>
       <use x="95.41015625" xlink:href="#BitstreamVeraSans-Roman-30"/>
      </g>
     </g>
    </g>
    <g id="ytick_2">
     <g id="line2d_96">
      <path clip-path="url(#pfcf5b5c3a6)" d="M 166.497759 248.68086 
L 523.617759 248.68086 
" style="fill:none;stroke:#000000;stroke-dasharray:1.000000,3.000000;stroke-dashoffset:0.0;stroke-width:0.5;"/>
     </g>
     <g id="line2d_97">
      <g>
       <use style="stroke:#000000;stroke-width:0.5;" x="166.497759167" xlink:href="#m3b2a8f1e3e" y="248.680860149"/>
      </g>
     </g>
     <g id="line2d_98">
      <g>
       <use style="stroke:#000000;stroke-width:0.5;" x="523.617759167" xlink:href="#m9bba32cd4f" y="248.680860149"/>
      </g>
     </g>
     <g id="text_7">
      <!-- 0.2 -->
      <g transform="translate(130.691509167 254.199610149)scale(0.2 -0.2)">
       <use xlink:href="#BitstreamVeraSans-Roman-30"/>
       <use x="63.623046875" xlink:href="#BitstreamVeraSans-Roman-2e"/>
       <use x="95.41015625" xlink:href="#BitstreamVeraSans-Roman-32"/>
      </g>
     </g>
    </g>
    <g id="ytick_3">
     <g id="line2d_99">
      <path clip-path="url(#pfcf5b5c3a6)" d="M 166.497759 193.932345 
L 523.617759 193.932345 
" style="fill:none;stroke:#000000;stroke-dasharray:1.000000,3.000000;stroke-dashoffset:0.0;stroke-width:0.5;"/>
     </g>
     <g id="line2d_100">
      <g>
       <use style="stroke:#000000;stroke-width:0.5;" x="166.497759167" xlink:href="#m3b2a8f1e3e" y="193.932345297"/>
      </g>
     </g>
     <g id="line2d_101">
      <g>
       <use style="stroke:#000000;stroke-width:0.5;" x="523.617759167" xlink:href="#m9bba32cd4f" y="193.932345297"/>
      </g>
     </g>
     <g id="text_8">
      <!-- 0.4 -->
      <defs>
       <path d="M 37.796875 64.3125 
L 12.890625 25.390625 
L 37.796875 25.390625 
z
M 35.203125 72.90625 
L 47.609375 72.90625 
L 47.609375 25.390625 
L 58.015625 25.390625 
L 58.015625 17.1875 
L 47.609375 17.1875 
L 47.609375 0 
L 37.796875 0 
L 37.796875 17.1875 
L 4.890625 17.1875 
L 4.890625 26.703125 
z
" id="BitstreamVeraSans-Roman-34"/>
      </defs>
      <g transform="translate(130.691509167 199.451095297)scale(0.2 -0.2)">
       <use xlink:href="#BitstreamVeraSans-Roman-30"/>
       <use x="63.623046875" xlink:href="#BitstreamVeraSans-Roman-2e"/>
       <use x="95.41015625" xlink:href="#BitstreamVeraSans-Roman-34"/>
      </g>
     </g>
    </g>
    <g id="ytick_4">
     <g id="line2d_102">
      <path clip-path="url(#pfcf5b5c3a6)" d="M 166.497759 139.18383 
L 523.617759 139.18383 
" style="fill:none;stroke:#000000;stroke-dasharray:1.000000,3.000000;stroke-dashoffset:0.0;stroke-width:0.5;"/>
     </g>
     <g id="line2d_103">
      <g>
       <use style="stroke:#000000;stroke-width:0.5;" x="166.497759167" xlink:href="#m3b2a8f1e3e" y="139.183830446"/>
      </g>
     </g>
     <g id="line2d_104">
      <g>
       <use style="stroke:#000000;stroke-width:0.5;" x="523.617759167" xlink:href="#m9bba32cd4f" y="139.183830446"/>
      </g>
     </g>
     <g id="text_9">
      <!-- 0.6 -->
      <defs>
       <path d="M 33.015625 40.375 
Q 26.375 40.375 22.484375 35.828125 
Q 18.609375 31.296875 18.609375 23.390625 
Q 18.609375 15.53125 22.484375 10.953125 
Q 26.375 6.390625 33.015625 6.390625 
Q 39.65625 6.390625 43.53125 10.953125 
Q 47.40625 15.53125 47.40625 23.390625 
Q 47.40625 31.296875 43.53125 35.828125 
Q 39.65625 40.375 33.015625 40.375 
M 52.59375 71.296875 
L 52.59375 62.3125 
Q 48.875 64.0625 45.09375 64.984375 
Q 41.3125 65.921875 37.59375 65.921875 
Q 27.828125 65.921875 22.671875 59.328125 
Q 17.53125 52.734375 16.796875 39.40625 
Q 19.671875 43.65625 24.015625 45.921875 
Q 28.375 48.1875 33.59375 48.1875 
Q 44.578125 48.1875 50.953125 41.515625 
Q 57.328125 34.859375 57.328125 23.390625 
Q 57.328125 12.15625 50.6875 5.359375 
Q 44.046875 -1.421875 33.015625 -1.421875 
Q 20.359375 -1.421875 13.671875 8.265625 
Q 6.984375 17.96875 6.984375 36.375 
Q 6.984375 53.65625 15.1875 63.9375 
Q 23.390625 74.21875 37.203125 74.21875 
Q 40.921875 74.21875 44.703125 73.484375 
Q 48.484375 72.75 52.59375 71.296875 
" id="BitstreamVeraSans-Roman-36"/>
      </defs>
      <g transform="translate(130.691509167 144.702580446)scale(0.2 -0.2)">
       <use xlink:href="#BitstreamVeraSans-Roman-30"/>
       <use x="63.623046875" xlink:href="#BitstreamVeraSans-Roman-2e"/>
       <use x="95.41015625" xlink:href="#BitstreamVeraSans-Roman-36"/>
      </g>
     </g>
    </g>
    <g id="ytick_5">
     <g id="line2d_105">
      <path clip-path="url(#pfcf5b5c3a6)" d="M 166.497759 84.435316 
L 523.617759 84.435316 
" style="fill:none;stroke:#000000;stroke-dasharray:1.000000,3.000000;stroke-dashoffset:0.0;stroke-width:0.5;"/>
     </g>
     <g id="line2d_106">
      <g>
       <use style="stroke:#000000;stroke-width:0.5;" x="166.497759167" xlink:href="#m3b2a8f1e3e" y="84.4353155941"/>
      </g>
     </g>
     <g id="line2d_107">
      <g>
       <use style="stroke:#000000;stroke-width:0.5;" x="523.617759167" xlink:href="#m9bba32cd4f" y="84.4353155941"/>
      </g>
     </g>
     <g id="text_10">
      <!-- 0.8 -->
      <defs>
       <path d="M 31.78125 34.625 
Q 24.75 34.625 20.71875 30.859375 
Q 16.703125 27.09375 16.703125 20.515625 
Q 16.703125 13.921875 20.71875 10.15625 
Q 24.75 6.390625 31.78125 6.390625 
Q 38.8125 6.390625 42.859375 10.171875 
Q 46.921875 13.96875 46.921875 20.515625 
Q 46.921875 27.09375 42.890625 30.859375 
Q 38.875 34.625 31.78125 34.625 
M 21.921875 38.8125 
Q 15.578125 40.375 12.03125 44.71875 
Q 8.5 49.078125 8.5 55.328125 
Q 8.5 64.0625 14.71875 69.140625 
Q 20.953125 74.21875 31.78125 74.21875 
Q 42.671875 74.21875 48.875 69.140625 
Q 55.078125 64.0625 55.078125 55.328125 
Q 55.078125 49.078125 51.53125 44.71875 
Q 48 40.375 41.703125 38.8125 
Q 48.828125 37.15625 52.796875 32.3125 
Q 56.78125 27.484375 56.78125 20.515625 
Q 56.78125 9.90625 50.3125 4.234375 
Q 43.84375 -1.421875 31.78125 -1.421875 
Q 19.734375 -1.421875 13.25 4.234375 
Q 6.78125 9.90625 6.78125 20.515625 
Q 6.78125 27.484375 10.78125 32.3125 
Q 14.796875 37.15625 21.921875 38.8125 
M 18.3125 54.390625 
Q 18.3125 48.734375 21.84375 45.5625 
Q 25.390625 42.390625 31.78125 42.390625 
Q 38.140625 42.390625 41.71875 45.5625 
Q 45.3125 48.734375 45.3125 54.390625 
Q 45.3125 60.0625 41.71875 63.234375 
Q 38.140625 66.40625 31.78125 66.40625 
Q 25.390625 66.40625 21.84375 63.234375 
Q 18.3125 60.0625 18.3125 54.390625 
" id="BitstreamVeraSans-Roman-38"/>
      </defs>
      <g transform="translate(130.691509167 89.9540655941)scale(0.2 -0.2)">
       <use xlink:href="#BitstreamVeraSans-Roman-30"/>
       <use x="63.623046875" xlink:href="#BitstreamVeraSans-Roman-2e"/>
       <use x="95.41015625" xlink:href="#BitstreamVeraSans-Roman-38"/>
      </g>
     </g>
    </g>
    <g id="ytick_6">
     <g id="line2d_108">
      <path clip-path="url(#pfcf5b5c3a6)" d="M 166.497759 29.686801 
L 523.617759 29.686801 
" style="fill:none;stroke:#000000;stroke-dasharray:1.000000,3.000000;stroke-dashoffset:0.0;stroke-width:0.5;"/>
     </g>
     <g id="line2d_109">
      <g>
       <use style="stroke:#000000;stroke-width:0.5;" x="166.497759167" xlink:href="#m3b2a8f1e3e" y="29.6868007426"/>
      </g>
     </g>
     <g id="line2d_110">
      <g>
       <use style="stroke:#000000;stroke-width:0.5;" x="523.617759167" xlink:href="#m9bba32cd4f" y="29.6868007426"/>
      </g>
     </g>
     <g id="text_11">
      <!-- 1.0 -->
      <g transform="translate(130.691509167 35.2055507426)scale(0.2 -0.2)">
       <use xlink:href="#BitstreamVeraSans-Roman-31"/>
       <use x="63.623046875" xlink:href="#BitstreamVeraSans-Roman-2e"/>
       <use x="95.41015625" xlink:href="#BitstreamVeraSans-Roman-30"/>
      </g>
     </g>
    </g>
    <g id="text_12">
     <!-- Proportion of function+target pairs -->
     <defs>
      <path d="M 19.671875 64.796875 
L 19.671875 37.40625 
L 32.078125 37.40625 
Q 38.96875 37.40625 42.71875 40.96875 
Q 46.484375 44.53125 46.484375 51.125 
Q 46.484375 57.671875 42.71875 61.234375 
Q 38.96875 64.796875 32.078125 64.796875 
z
M 9.8125 72.90625 
L 32.078125 72.90625 
Q 44.34375 72.90625 50.609375 67.359375 
Q 56.890625 61.8125 56.890625 51.125 
Q 56.890625 40.328125 50.609375 34.8125 
Q 44.34375 29.296875 32.078125 29.296875 
L 19.671875 29.296875 
L 19.671875 0 
L 9.8125 0 
z
" id="BitstreamVeraSans-Roman-50"/>
      <path d="M 46 62.703125 
L 46 35.5 
L 73.1875 35.5 
L 73.1875 27.203125 
L 46 27.203125 
L 46 0 
L 37.796875 0 
L 37.796875 27.203125 
L 10.59375 27.203125 
L 10.59375 35.5 
L 37.796875 35.5 
L 37.796875 62.703125 
z
" id="BitstreamVeraSans-Roman-2b"/>
      <path d="M 18.109375 8.203125 
L 18.109375 -20.796875 
L 9.078125 -20.796875 
L 9.078125 54.6875 
L 18.109375 54.6875 
L 18.109375 46.390625 
Q 20.953125 51.265625 25.265625 53.625 
Q 29.59375 56 35.59375 56 
Q 45.5625 56 51.78125 48.09375 
Q 58.015625 40.1875 58.015625 27.296875 
Q 58.015625 14.40625 51.78125 6.484375 
Q 45.5625 -1.421875 35.59375 -1.421875 
Q 29.59375 -1.421875 25.265625 0.953125 
Q 20.953125 3.328125 18.109375 8.203125 
M 48.6875 27.296875 
Q 48.6875 37.203125 44.609375 42.84375 
Q 40.53125 48.484375 33.40625 48.484375 
Q 26.265625 48.484375 22.1875 42.84375 
Q 18.109375 37.203125 18.109375 27.296875 
Q 18.109375 17.390625 22.1875 11.75 
Q 26.265625 6.109375 33.40625 6.109375 
Q 40.53125 6.109375 44.609375 11.75 
Q 48.6875 17.390625 48.6875 27.296875 
" id="BitstreamVeraSans-Roman-70"/>
      <path d="M 18.3125 70.21875 
L 18.3125 54.6875 
L 36.8125 54.6875 
L 36.8125 47.703125 
L 18.3125 47.703125 
L 18.3125 18.015625 
Q 18.3125 11.328125 20.140625 9.421875 
Q 21.96875 7.515625 27.59375 7.515625 
L 36.8125 7.515625 
L 36.8125 0 
L 27.59375 0 
Q 17.1875 0 13.234375 3.875 
Q 9.28125 7.765625 9.28125 18.015625 
L 9.28125 47.703125 
L 2.6875 47.703125 
L 2.6875 54.6875 
L 9.28125 54.6875 
L 9.28125 70.21875 
z
" id="BitstreamVeraSans-Roman-74"/>
      <path d="M 8.5 21.578125 
L 8.5 54.6875 
L 17.484375 54.6875 
L 17.484375 21.921875 
Q 17.484375 14.15625 20.5 10.265625 
Q 23.53125 6.390625 29.59375 6.390625 
Q 36.859375 6.390625 41.078125 11.03125 
Q 45.3125 15.671875 45.3125 23.6875 
L 45.3125 54.6875 
L 54.296875 54.6875 
L 54.296875 0 
L 45.3125 0 
L 45.3125 8.40625 
Q 42.046875 3.421875 37.71875 1 
Q 33.40625 -1.421875 27.6875 -1.421875 
Q 18.265625 -1.421875 13.375 4.4375 
Q 8.5 10.296875 8.5 21.578125 
" id="BitstreamVeraSans-Roman-75"/>
      <path d="M 41.109375 46.296875 
Q 39.59375 47.171875 37.8125 47.578125 
Q 36.03125 48 33.890625 48 
Q 26.265625 48 22.1875 43.046875 
Q 18.109375 38.09375 18.109375 28.8125 
L 18.109375 0 
L 9.078125 0 
L 9.078125 54.6875 
L 18.109375 54.6875 
L 18.109375 46.1875 
Q 20.953125 51.171875 25.484375 53.578125 
Q 30.03125 56 36.53125 56 
Q 37.453125 56 38.578125 55.875 
Q 39.703125 55.765625 41.0625 55.515625 
z
" id="BitstreamVeraSans-Roman-72"/>
      <path d="M 48.78125 52.59375 
L 48.78125 44.1875 
Q 44.96875 46.296875 41.140625 47.34375 
Q 37.3125 48.390625 33.40625 48.390625 
Q 24.65625 48.390625 19.8125 42.84375 
Q 14.984375 37.3125 14.984375 27.296875 
Q 14.984375 17.28125 19.8125 11.734375 
Q 24.65625 6.203125 33.40625 6.203125 
Q 37.3125 6.203125 41.140625 7.25 
Q 44.96875 8.296875 48.78125 10.40625 
L 48.78125 2.09375 
Q 45.015625 0.34375 40.984375 -0.53125 
Q 36.96875 -1.421875 32.421875 -1.421875 
Q 20.0625 -1.421875 12.78125 6.34375 
Q 5.515625 14.109375 5.515625 27.296875 
Q 5.515625 40.671875 12.859375 48.328125 
Q 20.21875 56 33.015625 56 
Q 37.15625 56 41.109375 55.140625 
Q 45.0625 54.296875 48.78125 52.59375 
" id="BitstreamVeraSans-Roman-63"/>
     </defs>
     <g transform="translate(121.948071667 323.17875)rotate(-90.0)scale(0.18 -0.18)">
      <use xlink:href="#BitstreamVeraSans-Roman-50"/>
      <use x="60.287109375" xlink:href="#BitstreamVeraSans-Roman-72"/>
      <use x="101.369140625" xlink:href="#BitstreamVeraSans-Roman-6f"/>
      <use x="162.55078125" xlink:href="#BitstreamVeraSans-Roman-70"/>
      <use x="226.02734375" xlink:href="#BitstreamVeraSans-Roman-6f"/>
      <use x="287.208984375" xlink:href="#BitstreamVeraSans-Roman-72"/>
      <use x="328.322265625" xlink:href="#BitstreamVeraSans-Roman-74"/>
      <use x="367.53125" xlink:href="#BitstreamVeraSans-Roman-69"/>
      <use x="395.314453125" xlink:href="#BitstreamVeraSans-Roman-6f"/>
      <use x="456.49609375" xlink:href="#BitstreamVeraSans-Roman-6e"/>
      <use x="519.875" xlink:href="#BitstreamVeraSans-Roman-20"/>
      <use x="551.662109375" xlink:href="#BitstreamVeraSans-Roman-6f"/>
      <use x="612.84375" xlink:href="#BitstreamVeraSans-Roman-66"/>
      <use x="648.048828125" xlink:href="#BitstreamVeraSans-Roman-20"/>
      <use x="679.8359375" xlink:href="#BitstreamVeraSans-Roman-66"/>
      <use x="715.041015625" xlink:href="#BitstreamVeraSans-Roman-75"/>
      <use x="778.419921875" xlink:href="#BitstreamVeraSans-Roman-6e"/>
      <use x="841.798828125" xlink:href="#BitstreamVeraSans-Roman-63"/>
      <use x="896.779296875" xlink:href="#BitstreamVeraSans-Roman-74"/>
      <use x="935.98828125" xlink:href="#BitstreamVeraSans-Roman-69"/>
      <use x="963.771484375" xlink:href="#BitstreamVeraSans-Roman-6f"/>
      <use x="1024.953125" xlink:href="#BitstreamVeraSans-Roman-6e"/>
      <use x="1088.33203125" xlink:href="#BitstreamVeraSans-Roman-2b"/>
      <use x="1172.12109375" xlink:href="#BitstreamVeraSans-Roman-74"/>
      <use x="1211.33007812" xlink:href="#BitstreamVeraSans-Roman-61"/>
      <use x="1272.609375" xlink:href="#BitstreamVeraSans-Roman-72"/>
      <use x="1313.70703125" xlink:href="#BitstreamVeraSans-Roman-67"/>
      <use x="1377.18359375" xlink:href="#BitstreamVeraSans-Roman-65"/>
      <use x="1438.70703125" xlink:href="#BitstreamVeraSans-Roman-74"/>
      <use x="1477.91601562" xlink:href="#BitstreamVeraSans-Roman-20"/>
      <use x="1509.703125" xlink:href="#BitstreamVeraSans-Roman-70"/>
      <use x="1573.1796875" xlink:href="#BitstreamVeraSans-Roman-61"/>
      <use x="1634.45898438" xlink:href="#BitstreamVeraSans-Roman-69"/>
      <use x="1662.2421875" xlink:href="#BitstreamVeraSans-Roman-72"/>
      <use x="1703.35546875" xlink:href="#BitstreamVeraSans-Roman-73"/>
     </g>
    </g>
   </g>
   <g id="text_13">
    <!-- diffusion ga -->
    <g transform="translate(491.937759167 302.093586015)scale(0.15 -0.15)">
     <use xlink:href="#BitstreamVeraSans-Roman-64"/>
     <use x="63.4765625" xlink:href="#BitstreamVeraSans-Roman-69"/>
     <use x="91.259765625" xlink:href="#BitstreamVeraSans-Roman-66"/>
     <use x="126.46484375" xlink:href="#BitstreamVeraSans-Roman-66"/>
     <use x="161.669921875" xlink:href="#BitstreamVeraSans-Roman-75"/>
     <use x="225.048828125" xlink:href="#BitstreamVeraSans-Roman-73"/>
     <use x="277.1484375" xlink:href="#BitstreamVeraSans-Roman-69"/>
     <use x="304.931640625" xlink:href="#BitstreamVeraSans-Roman-6f"/>
     <use x="366.11328125" xlink:href="#BitstreamVeraSans-Roman-6e"/>
     <use x="429.4921875" xlink:href="#BitstreamVeraSans-Roman-20"/>
     <use x="461.279296875" xlink:href="#BitstreamVeraSans-Roman-67"/>
     <use x="524.755859375" xlink:href="#BitstreamVeraSans-Roman-61"/>
    </g>
   </g>
   <g id="text_14">
    <!-- standard ga -->
    <g transform="translate(491.937759167 214.495962252)scale(0.15 -0.15)">
     <use xlink:href="#BitstreamVeraSans-Roman-73"/>
     <use x="52.099609375" xlink:href="#BitstreamVeraSans-Roman-74"/>
     <use x="91.30859375" xlink:href="#BitstreamVeraSans-Roman-61"/>
     <use x="152.587890625" xlink:href="#BitstreamVeraSans-Roman-6e"/>
     <use x="215.966796875" xlink:href="#BitstreamVeraSans-Roman-64"/>
     <use x="279.443359375" xlink:href="#BitstreamVeraSans-Roman-61"/>
     <use x="340.72265625" xlink:href="#BitstreamVeraSans-Roman-72"/>
     <use x="381.8203125" xlink:href="#BitstreamVeraSans-Roman-64"/>
     <use x="445.296875" xlink:href="#BitstreamVeraSans-Roman-20"/>
     <use x="477.083984375" xlink:href="#BitstreamVeraSans-Roman-67"/>
     <use x="540.560546875" xlink:href="#BitstreamVeraSans-Roman-61"/>
    </g>
   </g>
   <g id="text_15">
    <!-- migration ga -->
    <g transform="translate(491.937759167 126.89833849)scale(0.15 -0.15)">
     <use xlink:href="#BitstreamVeraSans-Roman-6d"/>
     <use x="97.412109375" xlink:href="#BitstreamVeraSans-Roman-69"/>
     <use x="125.1953125" xlink:href="#BitstreamVeraSans-Roman-67"/>
     <use x="188.671875" xlink:href="#BitstreamVeraSans-Roman-72"/>
     <use x="229.78515625" xlink:href="#BitstreamVeraSans-Roman-61"/>
     <use x="291.064453125" xlink:href="#BitstreamVeraSans-Roman-74"/>
     <use x="330.2734375" xlink:href="#BitstreamVeraSans-Roman-69"/>
     <use x="358.056640625" xlink:href="#BitstreamVeraSans-Roman-6f"/>
     <use x="419.23828125" xlink:href="#BitstreamVeraSans-Roman-6e"/>
     <use x="482.6171875" xlink:href="#BitstreamVeraSans-Roman-20"/>
     <use x="514.404296875" xlink:href="#BitstreamVeraSans-Roman-67"/>
     <use x="577.880859375" xlink:href="#BitstreamVeraSans-Roman-61"/>
    </g>
   </g>
   <g id="text_16">
    <!-- best 2009 -->
    <defs>
     <path d="M 10.984375 1.515625 
L 10.984375 10.5 
Q 14.703125 8.734375 18.5 7.8125 
Q 22.3125 6.890625 25.984375 6.890625 
Q 35.75 6.890625 40.890625 13.453125 
Q 46.046875 20.015625 46.78125 33.40625 
Q 43.953125 29.203125 39.59375 26.953125 
Q 35.25 24.703125 29.984375 24.703125 
Q 19.046875 24.703125 12.671875 31.3125 
Q 6.296875 37.9375 6.296875 49.421875 
Q 6.296875 60.640625 12.9375 67.421875 
Q 19.578125 74.21875 30.609375 74.21875 
Q 43.265625 74.21875 49.921875 64.515625 
Q 56.59375 54.828125 56.59375 36.375 
Q 56.59375 19.140625 48.40625 8.859375 
Q 40.234375 -1.421875 26.421875 -1.421875 
Q 22.703125 -1.421875 18.890625 -0.6875 
Q 15.09375 0.046875 10.984375 1.515625 
M 30.609375 32.421875 
Q 37.25 32.421875 41.125 36.953125 
Q 45.015625 41.5 45.015625 49.421875 
Q 45.015625 57.28125 41.125 61.84375 
Q 37.25 66.40625 30.609375 66.40625 
Q 23.96875 66.40625 20.09375 61.84375 
Q 16.21875 57.28125 16.21875 49.421875 
Q 16.21875 41.5 20.09375 36.953125 
Q 23.96875 32.421875 30.609375 32.421875 
" id="BitstreamVeraSans-Roman-39"/>
     <path d="M 48.6875 27.296875 
Q 48.6875 37.203125 44.609375 42.84375 
Q 40.53125 48.484375 33.40625 48.484375 
Q 26.265625 48.484375 22.1875 42.84375 
Q 18.109375 37.203125 18.109375 27.296875 
Q 18.109375 17.390625 22.1875 11.75 
Q 26.265625 6.109375 33.40625 6.109375 
Q 40.53125 6.109375 44.609375 11.75 
Q 48.6875 17.390625 48.6875 27.296875 
M 18.109375 46.390625 
Q 20.953125 51.265625 25.265625 53.625 
Q 29.59375 56 35.59375 56 
Q 45.5625 56 51.78125 48.09375 
Q 58.015625 40.1875 58.015625 27.296875 
Q 58.015625 14.40625 51.78125 6.484375 
Q 45.5625 -1.421875 35.59375 -1.421875 
Q 29.59375 -1.421875 25.265625 0.953125 
Q 20.953125 3.328125 18.109375 8.203125 
L 18.109375 0 
L 9.078125 0 
L 9.078125 75.984375 
L 18.109375 75.984375 
z
" id="BitstreamVeraSans-Roman-62"/>
    </defs>
    <g transform="translate(491.937759167 39.3007147277)scale(0.15 -0.15)">
     <use xlink:href="#BitstreamVeraSans-Roman-62"/>
     <use x="63.4765625" xlink:href="#BitstreamVeraSans-Roman-65"/>
     <use x="125.0" xlink:href="#BitstreamVeraSans-Roman-73"/>
     <use x="177.099609375" xlink:href="#BitstreamVeraSans-Roman-74"/>
     <use x="216.30859375" xlink:href="#BitstreamVeraSans-Roman-20"/>
     <use x="248.095703125" xlink:href="#BitstreamVeraSans-Roman-32"/>
     <use x="311.71875" xlink:href="#BitstreamVeraSans-Roman-30"/>
     <use x="375.341796875" xlink:href="#BitstreamVeraSans-Roman-30"/>
     <use x="438.96484375" xlink:href="#BitstreamVeraSans-Roman-39"/>
    </g>
   </g>
   <g id="text_17">
    <!-- f6-9,40-D -->
    <defs>
     <path d="M 11.71875 12.40625 
L 22.015625 12.40625 
L 22.015625 4 
L 14.015625 -11.625 
L 7.71875 -11.625 
L 11.71875 4 
z
" id="BitstreamVeraSans-Roman-2c"/>
     <path d="M 19.671875 64.796875 
L 19.671875 8.109375 
L 31.59375 8.109375 
Q 46.6875 8.109375 53.6875 14.9375 
Q 60.6875 21.78125 60.6875 36.53125 
Q 60.6875 51.171875 53.6875 57.984375 
Q 46.6875 64.796875 31.59375 64.796875 
z
M 9.8125 72.90625 
L 30.078125 72.90625 
Q 51.265625 72.90625 61.171875 64.09375 
Q 71.09375 55.28125 71.09375 36.53125 
Q 71.09375 17.671875 61.125 8.828125 
Q 51.171875 0 30.078125 0 
L 9.8125 0 
z
" id="BitstreamVeraSans-Roman-44"/>
    </defs>
    <g transform="translate(170.068959167 47.67585)scale(0.2 -0.2)">
     <use xlink:href="#BitstreamVeraSans-Roman-66"/>
     <use x="35.205078125" xlink:href="#BitstreamVeraSans-Roman-36"/>
     <use x="98.828125" xlink:href="#BitstreamVeraSans-Roman-2d"/>
     <use x="134.912109375" xlink:href="#BitstreamVeraSans-Roman-39"/>
     <use x="198.53515625" xlink:href="#BitstreamVeraSans-Roman-2c"/>
     <use x="230.322265625" xlink:href="#BitstreamVeraSans-Roman-34"/>
     <use x="293.9453125" xlink:href="#BitstreamVeraSans-Roman-30"/>
     <use x="357.568359375" xlink:href="#BitstreamVeraSans-Roman-2d"/>
     <use x="393.65234375" xlink:href="#BitstreamVeraSans-Roman-44"/>
    </g>
   </g>
  </g>
 </g>
 <defs>
  <clipPath id="pfcf5b5c3a6">
   <rect height="276.48" width="357.12" x="166.497759167" y="26.949375"/>
  </clipPath>
 </defs>
</svg>
