<?xml version="1.0" encoding="utf-8" standalone="no"?>
<!DOCTYPE svg PUBLIC "-//W3C//DTD SVG 1.1//EN"
  "http://www.w3.org/Graphics/SVG/1.1/DTD/svg11.dtd">
<!-- Created with matplotlib (http://matplotlib.org/) -->
<svg height="356pt" version="1.1" viewBox="0 0 502 356" width="502pt" xmlns="http://www.w3.org/2000/svg" xmlns:xlink="http://www.w3.org/1999/xlink">
 <defs>
  <style type="text/css">
*{stroke-linecap:butt;stroke-linejoin:round;stroke-miterlimit:100000;}
  </style>
 </defs>
 <g id="figure_1">
  <g id="patch_1">
   <path d="M 0 356.40625 
L 502.814558 356.40625 
L 502.814558 0 
L 0 0 
z
" style="fill:#ffffff;"/>
  </g>
  <g id="axes_1">
   <g id="patch_2">
    <path d="M 74.30112 303.429375 
L 431.42112 303.429375 
L 431.42112 26.949375 
L 74.30112 26.949375 
z
" style="fill:#ffffff;"/>
   </g>
   <g id="line2d_1">
    <path d="M 7.2 303.429375 
L 7.2 287.100871 
L 36.09888 287.100871 
L 36.09888 280.377369 
L 53.00364 280.377369 
L 53.00364 278.936618 
L 64.997759 278.936618 
L 64.997759 278.456368 
L 74.30112 278.456368 
L 74.30112 275.574867 
L 81.90252 275.574867 
L 81.90252 265.489615 
L 88.329412 265.489615 
L 88.329412 260.206863 
L 93.896639 260.206863 
L 93.896639 251.562361 
L 98.807281 251.562361 
L 98.807281 250.121611 
L 103.2 250.121611 
L 103.2 249.64136 
L 107.173698 249.64136 
L 107.173698 248.68086 
L 110.8014 248.68086 
L 110.8014 235.714107 
L 114.138562 235.714107 
L 114.138562 232.832606 
L 117.228291 232.832606 
L 117.228291 232.352356 
L 120.104761 232.352356 
L 120.104761 224.668354 
L 122.795518 224.668354 
L 122.795518 221.306603 
L 125.323096 221.306603 
L 125.323096 216.504101 
L 127.70616 216.504101 
L 127.70616 210.26085 
L 129.960346 210.26085 
L 129.960346 206.418849 
L 132.09888 206.418849 
L 132.09888 203.057098 
L 134.133052 203.057098 
L 134.133052 202.576848 
L 136.072577 202.576848 
L 136.072577 195.373096 
L 137.925872 195.373096 
L 137.925872 188.649594 
L 139.700279 188.649594 
L 139.700279 181.926092 
L 141.402241 181.926092 
L 141.402241 176.16309 
L 143.037441 176.16309 
L 143.037441 172.80134 
L 144.610921 172.80134 
L 144.610921 168.479088 
L 146.127171 168.479088 
L 146.127171 167.518588 
L 147.590208 167.518588 
L 147.590208 165.597588 
L 149.00364 165.597588 
L 149.00364 164.637087 
L 150.370723 164.637087 
L 150.370723 161.275336 
L 151.694398 161.275336 
L 151.694398 160.314836 
L 152.977338 160.314836 
L 152.977338 159.354336 
L 154.221976 159.354336 
L 154.221976 156.472835 
L 155.430532 156.472835 
L 155.430532 154.071584 
L 156.60504 154.071584 
L 156.60504 151.670334 
L 157.747366 151.670334 
L 157.747366 151.190084 
L 159.942202 151.190084 
L 159.942202 144.466582 
L 160.997759 144.466582 
L 160.997759 142.065331 
L 162.02725 142.065331 
L 162.02725 141.585081 
L 164.012972 141.585081 
L 164.012972 141.104831 
L 166.824752 141.104831 
L 166.824752 140.144331 
L 167.721394 140.144331 
L 167.721394 139.664081 
L 168.599159 139.664081 
L 168.599159 138.22333 
L 169.458824 138.22333 
L 169.458824 136.30233 
L 171.936321 136.30233 
L 171.936321 135.82208 
L 173.509801 135.82208 
L 173.509801 135.341829 
L 174.274818 135.341829 
L 174.274818 134.861579 
L 175.026051 134.861579 
L 175.026051 134.381329 
L 175.763986 134.381329 
L 175.763986 132.460329 
L 176.489087 132.460329 
L 176.489087 131.980078 
L 177.201793 131.980078 
L 177.201793 129.578828 
L 179.936693 129.578828 
L 179.936693 126.697327 
L 180.593278 126.697327 
L 180.593278 126.217077 
L 181.239682 126.217077 
L 181.239682 123.815826 
L 182.503181 123.815826 
L 182.503181 122.855326 
L 183.729513 122.855326 
L 183.729513 121.894826 
L 184.329412 121.894826 
L 184.329412 120.934325 
L 186.078995 120.934325 
L 186.078995 119.973825 
L 187.758105 119.973825 
L 187.758105 119.493575 
L 189.372201 119.493575 
L 189.372201 119.013325 
L 190.92613 119.013325 
L 190.92613 118.533075 
L 191.930811 118.533075 
L 191.930811 117.572575 
L 193.870337 117.572575 
L 193.870337 115.171324 
L 194.341441 115.171324 
L 194.341441 113.730574 
L 195.267974 113.730574 
L 195.267974 113.250323 
L 195.723631 113.250323 
L 195.723631 111.809573 
L 196.174363 111.809573 
L 196.174363 111.329323 
L 197.061466 111.329323 
L 197.061466 109.408322 
L 197.498038 109.408322 
L 197.498038 108.928072 
L 198.357703 108.928072 
L 198.357703 105.566321 
L 198.780979 105.566321 
L 198.780979 104.605821 
L 200.025616 104.605821 
L 200.025616 103.645321 
L 201.629363 103.645321 
L 201.629363 102.20457 
L 203.173698 102.20457 
L 203.173698 101.72432 
L 203.551006 101.72432 
L 203.551006 100.76382 
L 203.92493 100.76382 
L 203.92493 99.80332 
L 204.295531 99.80332 
L 204.295531 96.921819 
L 206.100673 96.921819 
L 206.100673 96.441569 
L 206.8014 96.441569 
L 206.8014 95.000818 
L 207.490544 95.000818 
L 207.490544 94.520568 
L 208.168482 94.520568 
L 208.168482 94.040318 
L 208.503361 94.040318 
L 208.503361 93.079818 
L 209.165157 93.079818 
L 209.165157 92.599568 
L 209.492157 92.599568 
L 209.492157 91.158817 
L 210.138562 91.158817 
L 210.138562 90.198317 
L 212.019735 90.198317 
L 212.019735 89.718067 
L 212.628392 89.718067 
L 212.628392 89.237817 
L 212.929421 89.237817 
L 212.929421 86.356316 
L 213.819681 86.356316 
L 213.819681 84.435316 
L 214.691328 84.435316 
L 214.691328 83.474815 
L 214.977874 83.474815 
L 214.977874 82.994565 
L 215.262464 82.994565 
L 215.262464 82.514315 
L 215.825882 82.514315 
L 215.825882 82.034065 
L 216.930377 82.034065 
L 216.930377 80.113064 
L 217.201989 80.113064 
L 217.201989 79.152564 
L 218.006367 79.152564 
L 218.006367 77.231564 
L 218.27108 77.231564 
L 218.27108 76.751314 
L 219.055284 76.751314 
L 219.055284 76.271063 
L 219.57001 76.271063 
L 219.57001 75.790813 
L 219.825009 75.790813 
L 219.825009 75.310563 
L 220.078459 75.310563 
L 220.078459 74.830313 
L 220.330376 74.830313 
L 220.330376 74.350063 
L 220.829691 74.350063 
L 220.829691 73.869813 
L 221.077124 73.869813 
L 221.077124 73.389563 
L 222.531653 73.389563 
L 222.531653 72.429062 
L 223.24032 72.429062 
L 223.24032 71.948812 
L 223.937143 71.948812 
L 223.937143 71.468562 
L 224.395305 71.468562 
L 224.395305 70.988312 
L 224.622511 70.988312 
L 224.622511 70.027812 
L 225.740333 70.027812 
L 225.740333 67.626561 
L 225.960346 67.626561 
L 225.960346 65.705561 
L 226.396918 65.705561 
L 226.396918 65.22531 
L 227.043323 65.22531 
L 227.043323 64.26481 
L 227.256583 64.26481 
L 227.256583 63.78456 
L 228.09888 63.78456 
L 228.09888 63.30431 
L 228.513731 63.30431 
L 228.513731 62.82406 
L 229.533153 62.82406 
L 229.533153 62.34381 
L 229.934043 62.34381 
L 229.934043 61.383309 
L 231.114092 61.383309 
L 231.114092 59.942559 
L 233.561745 59.942559 
L 233.561745 58.982059 
L 233.744206 58.982059 
L 233.744206 55.620308 
L 233.925872 55.620308 
L 233.925872 54.179557 
L 234.466168 54.179557 
L 234.466168 53.699307 
L 235.526198 53.699307 
L 235.526198 52.738807 
L 235.700279 52.738807 
L 235.700279 51.778307 
L 236.898908 51.778307 
L 236.898908 50.817806 
L 237.067361 50.817806 
L 237.067361 50.337556 
L 237.568677 50.337556 
L 237.568677 49.857306 
L 237.734452 49.857306 
L 237.734452 48.416556 
L 237.89957 48.416556 
L 237.89957 47.936306 
L 238.064037 47.936306 
L 238.064037 47.456056 
L 238.227857 47.456056 
L 238.227857 46.975805 
L 238.715492 46.975805 
L 238.715492 46.015305 
L 238.876777 46.015305 
L 238.876777 45.535055 
L 239.037441 45.535055 
L 239.037441 45.054805 
L 240.456219 45.054805 
L 240.456219 43.133804 
L 240.610921 43.133804 
L 240.610921 42.653554 
L 241.071614 42.653554 
L 241.071614 42.173304 
L 243.011139 42.173304 
L 243.011139 41.693054 
L 243.446193 41.693054 
L 243.446193 40.732554 
L 244.019292 40.732554 
L 244.019292 40.252304 
L 245.280667 40.252304 
L 245.280667 39.772053 
L 245.965284 39.772053 
L 245.965284 39.291803 
L 246.370723 39.291803 
L 246.370723 38.331303 
L 247.694398 38.331303 
L 247.694398 37.851053 
L 247.824483 37.851053 
L 247.824483 37.370803 
L 253.407942 37.370803 
L 253.407942 36.890553 
L 255.512381 36.890553 
L 255.512381 36.410303 
L 258.532617 36.410303 
L 258.532617 35.930052 
L 259.229995 35.930052 
L 259.229995 34.489302 
L 261.066105 34.489302 
L 261.066105 34.009052 
L 263.095775 34.009052 
L 263.095775 33.048552 
L 264.162587 33.048552 
L 264.162587 32.568302 
L 265.882099 32.568302 
L 265.882099 31.607801 
L 268.965812 31.607801 
L 268.965812 30.647301 
L 272.272878 30.647301 
L 272.272878 30.167051 
L 286.208164 30.167051 
L 286.208164 29.686801 
L 362.30112 29.686801 
L 362.30112 29.686801 
" style="fill:none;stroke:#f5deb3;stroke-linecap:square;stroke-width:6.0;"/>
   </g>
   <g id="line2d_2"/>
   <g id="line2d_3">
    <path d="M 362.30112 29.686801 
L 393.98112 35.161652 
" style="fill:none;stroke:#f5deb3;stroke-linecap:square;stroke-width:6.0;"/>
    <defs>
     <path d="M -0 7.778175 
L 7.778175 0 
L 0 -7.778175 
L -7.778175 -0 
z
" id="m9a7f912368" style="stroke:#f5deb3;stroke-linejoin:miter;stroke-width:1.5;"/>
    </defs>
    <g>
     <use style="fill:#f5deb3;stroke:#f5deb3;stroke-linejoin:miter;stroke-width:1.5;" x="362.301120416" xlink:href="#m9a7f912368" y="29.6868007426"/>
     <use style="fill:#f5deb3;stroke:#f5deb3;stroke-linejoin:miter;stroke-width:1.5;" x="393.981120416" xlink:href="#m9a7f912368" y="35.1616522277"/>
    </g>
   </g>
   <g id="line2d_4">
    <defs>
     <path d="M 0 1.5 
C 0.397805 1.5 0.77937 1.341951 1.06066 1.06066 
C 1.341951 0.77937 1.5 0.397805 1.5 0 
C 1.5 -0.397805 1.341951 -0.77937 1.06066 -1.06066 
C 0.77937 -1.341951 0.397805 -1.5 0 -1.5 
C -0.397805 -1.5 -0.77937 -1.341951 -1.06066 -1.06066 
C -1.341951 -0.77937 -1.5 -0.397805 -1.5 0 
C -1.5 0.397805 -1.341951 0.77937 -1.06066 1.06066 
C -0.77937 1.341951 -0.397805 1.5 0 1.5 
z
" id="m4d5e93f4c7" style="stroke:#f5deb3;stroke-width:0.5;"/>
    </defs>
    <g>
     <use style="fill:#f5deb3;stroke:#f5deb3;stroke-width:0.5;" x="286.208164013" xlink:href="#m4d5e93f4c7" y="29.6868007426"/>
     <use style="fill:#f5deb3;stroke:#f5deb3;stroke-width:0.5;" x="286.208164013" xlink:href="#m4d5e93f4c7" y="29.6868007426"/>
    </g>
   </g>
   <g id="line2d_5">
    <g>
     <use style="fill:#f5deb3;stroke:#f5deb3;stroke-linejoin:miter;stroke-width:1.5;" x="114.138561821" xlink:href="#m9a7f912368" y="232.832605849"/>
     <use style="fill:#f5deb3;stroke:#f5deb3;stroke-linejoin:miter;stroke-width:1.5;" x="147.590207798" xlink:href="#m9a7f912368" y="167.518588132"/>
     <use style="fill:#f5deb3;stroke:#f5deb3;stroke-linejoin:miter;stroke-width:1.5;" x="209.492157086" xlink:href="#m9a7f912368" y="92.5995678088"/>
     <use style="fill:#f5deb3;stroke:#f5deb3;stroke-linejoin:miter;stroke-width:1.5;" x="286.208164013" xlink:href="#m9a7f912368" y="30.1670508729"/>
     <use style="fill:#f5deb3;stroke:#f5deb3;stroke-linejoin:miter;stroke-width:1.5;" x="286.208164013" xlink:href="#m9a7f912368" y="29.6868007426"/>
     <use style="fill:#f5deb3;stroke:#f5deb3;stroke-linejoin:miter;stroke-width:1.5;" x="362.301120416" xlink:href="#m9a7f912368" y="29.6868007426"/>
    </g>
   </g>
   <g id="line2d_6">
    <defs>
     <path d="M 0 1.5 
C 0.397805 1.5 0.77937 1.341951 1.06066 1.06066 
C 1.341951 0.77937 1.5 0.397805 1.5 0 
C 1.5 -0.397805 1.341951 -0.77937 1.06066 -1.06066 
C 0.77937 -1.341951 0.397805 -1.5 0 -1.5 
C -0.397805 -1.5 -0.77937 -1.341951 -1.06066 -1.06066 
C -1.341951 -0.77937 -1.5 -0.397805 -1.5 0 
C -1.5 0.397805 -1.341951 0.77937 -1.06066 1.06066 
C -0.77937 1.341951 -0.397805 1.5 0 1.5 
z
" id="m37e7976017" style="stroke:#000080;stroke-width:0.5;"/>
    </defs>
    <g>
     <use style="fill:#000080;stroke:#000080;stroke-width:0.5;" x="418.833264024" xlink:href="#m37e7976017" y="168.959338523"/>
     <use style="fill:#000080;stroke:#000080;stroke-width:0.5;" x="418.833264024" xlink:href="#m37e7976017" y="168.959338523"/>
    </g>
   </g>
   <g id="line2d_7">
    <path d="M 7.2 303.429375 
L 7.2 292.863872 
L 36.09888 292.863872 
L 36.09888 287.100871 
L 53.00364 287.100871 
L 53.00364 285.17987 
L 64.997759 285.17987 
L 64.997759 284.69962 
L 74.30112 284.69962 
L 74.30112 280.377369 
L 81.90252 280.377369 
L 81.90252 276.055118 
L 88.329412 276.055118 
L 88.329412 270.292116 
L 93.896639 270.292116 
L 93.896639 268.371115 
L 98.807281 268.371115 
L 98.807281 266.930365 
L 103.2 266.930365 
L 103.2 265.969865 
L 107.173698 265.969865 
L 107.173698 264.529114 
L 110.8014 264.529114 
L 110.8014 260.687113 
L 117.228291 260.687113 
L 117.228291 253.963612 
L 125.323096 253.963612 
L 125.323096 252.522861 
L 129.960346 252.522861 
L 129.960346 252.042611 
L 132.09888 252.042611 
L 132.09888 250.121611 
L 141.402241 250.121611 
L 141.402241 249.16111 
L 144.610921 249.16111 
L 144.610921 247.24011 
L 146.127171 247.24011 
L 146.127171 244.838859 
L 147.590208 244.838859 
L 147.590208 244.358609 
L 149.00364 244.358609 
L 149.00364 243.878359 
L 150.370723 243.878359 
L 150.370723 242.437608 
L 151.694398 242.437608 
L 151.694398 239.556108 
L 154.221976 239.556108 
L 154.221976 238.115357 
L 159.942202 238.115357 
L 159.942202 237.635107 
L 163.031932 237.635107 
L 163.031932 237.154857 
L 166.824752 237.154857 
L 166.824752 236.674607 
L 168.599159 236.674607 
L 168.599159 235.714107 
L 170.30112 235.714107 
L 170.30112 234.753606 
L 171.936321 234.753606 
L 171.936321 234.273356 
L 173.509801 234.273356 
L 173.509801 233.312856 
L 174.274818 233.312856 
L 174.274818 230.431355 
L 175.763986 230.431355 
L 175.763986 228.510355 
L 176.489087 228.510355 
L 176.489087 228.030105 
L 177.90252 228.030105 
L 177.90252 227.549854 
L 179.269602 227.549854 
L 179.269602 226.589354 
L 189.372201 226.589354 
L 189.372201 225.628854 
L 191.431497 225.628854 
L 191.431497 224.668354 
L 193.870337 224.668354 
L 193.870337 224.188104 
L 195.723631 224.188104 
L 195.723631 223.227603 
L 197.061466 223.227603 
L 197.061466 222.267103 
L 197.930086 222.267103 
L 197.930086 221.306603 
L 199.2 221.306603 
L 199.2 220.826353 
L 202.408681 220.826353 
L 202.408681 219.865852 
L 205.387967 219.865852 
L 205.387967 219.385602 
L 206.100673 219.385602 
L 206.100673 216.984352 
L 209.165157 216.984352 
L 209.165157 216.504101 
L 214.691328 216.504101 
L 214.691328 215.543601 
L 218.006367 215.543601 
L 218.006367 215.063351 
L 221.323096 215.063351 
L 221.323096 213.622601 
L 222.292728 213.622601 
L 222.292728 212.18185 
L 224.395305 212.18185 
L 224.395305 211.7016 
L 238.876777 211.7016 
L 238.876777 210.7411 
L 251.430532 210.7411 
L 251.430532 209.7806 
L 257.721063 209.7806 
L 257.721063 209.300349 
L 258.230133 209.300349 
L 258.230133 207.859599 
L 260.012972 207.859599 
L 260.012972 206.418849 
L 261.442561 206.418849 
L 261.442561 205.458348 
L 268.096368 205.458348 
L 268.096368 204.497848 
L 273.971949 204.497848 
L 273.971949 204.017598 
L 274.932011 204.017598 
L 274.932011 203.057098 
L 275.936693 203.057098 
L 275.936693 202.096598 
L 276.593278 202.096598 
L 276.593278 201.616347 
L 277.046811 201.616347 
L 277.046811 201.136097 
L 277.559165 201.136097 
L 277.622769 199.695347 
L 280.507711 199.695347 
L 280.507711 199.215097 
L 280.862039 199.215097 
L 280.862039 198.734847 
L 282.871002 198.734847 
L 282.871002 198.254596 
L 283.261434 198.254596 
L 283.261434 197.774346 
L 284.35722 197.774346 
L 284.35722 196.333596 
L 290.899828 196.333596 
L 290.899828 195.853346 
L 295.532211 195.853346 
L 295.532211 195.373096 
L 296.795093 195.373096 
L 296.795093 194.892846 
L 297.313511 194.892846 
L 297.313511 194.412595 
L 299.999314 194.412595 
L 299.999314 193.932345 
L 302.870829 193.932345 
L 302.940143 192.971845 
L 303.216252 192.971845 
L 303.216252 192.491595 
L 303.353623 192.491595 
L 303.353623 192.011345 
L 303.864773 192.011345 
L 303.864773 191.531095 
L 304.636564 191.531095 
L 304.703005 190.570594 
L 308.385995 190.570594 
L 308.385995 189.129844 
L 308.50737 189.129844 
L 308.50737 188.649594 
L 316.65561 188.649594 
L 316.65561 188.169344 
L 320.098073 188.169344 
L 320.098073 187.208843 
L 321.028388 187.208843 
L 321.028388 186.728593 
L 322.957712 186.728593 
L 322.957712 186.248343 
L 323.5322 186.248343 
L 323.5322 185.287843 
L 332.011804 185.287843 
L 332.011804 184.807593 
L 334.61842 184.807593 
L 334.61842 184.327343 
L 339.373998 184.327343 
L 339.373998 183.847093 
L 343.367398 183.847093 
L 343.367398 182.406342 
L 348.836023 182.406342 
L 348.836023 181.926092 
L 349.202954 181.926092 
L 349.202954 181.445842 
L 349.385215 181.445842 
L 349.385215 180.965592 
L 350.295882 180.965592 
L 350.295882 180.485342 
L 350.595071 180.485342 
L 350.595071 180.005092 
L 355.711311 180.005092 
L 355.711311 179.524841 
L 356.494969 179.524841 
L 356.494969 179.044591 
L 362.11727 179.044591 
L 362.11727 178.084091 
L 362.30112 178.084091 
L 362.30112 178.084091 
" style="fill:none;stroke:#000080;stroke-linecap:square;stroke-width:1.5;"/>
   </g>
   <g id="line2d_8">
    <defs>
     <path d="M 0 6 
C 1.591219 6 3.117479 5.367802 4.242641 4.242641 
C 5.367802 3.117479 6 1.591219 6 0 
C 6 -1.591219 5.367802 -3.117479 4.242641 -4.242641 
C 3.117479 -5.367802 1.591219 -6 0 -6 
C -1.591219 -6 -3.117479 -5.367802 -4.242641 -4.242641 
C -5.367802 -3.117479 -6 -1.591219 -6 0 
C -6 1.591219 -5.367802 3.117479 -4.242641 4.242641 
C -3.117479 5.367802 -1.591219 6 0 6 
z
" id="m9a032ed6ff" style="stroke:#000080;stroke-width:1.5;"/>
    </defs>
    <g>
     <use style="fill:none;stroke:#000080;stroke-width:1.5;" x="81.9025200368" xlink:href="#m9a032ed6ff" y="280.377368747"/>
     <use style="fill:none;stroke:#000080;stroke-width:1.5;" x="154.221976036" xlink:href="#m9a032ed6ff" y="239.556107673"/>
     <use style="fill:none;stroke:#000080;stroke-width:1.5;" x="224.395304614" xlink:href="#m9a032ed6ff" y="212.181850248"/>
     <use style="fill:none;stroke:#000080;stroke-width:1.5;" x="302.940142744" xlink:href="#m9a032ed6ff" y="193.452095167"/>
     <use style="fill:none;stroke:#000080;stroke-width:1.5;" x="362.117269658" xlink:href="#m9a032ed6ff" y="178.084090998"/>
     <use style="fill:none;stroke:#000080;stroke-width:1.5;" x="362.301120416" xlink:href="#m9a032ed6ff" y="178.084090998"/>
    </g>
   </g>
   <g id="line2d_9"/>
   <g id="line2d_10">
    <path clip-path="url(#pbac91498c3)" d="M 273.971949 204.017598 
" style="fill:none;stroke:#000080;stroke-linecap:square;"/>
    <defs>
     <path d="M -12 12 
L 12 -12 
M -12 -12 
L 12 12 
" id="mbf9fc14a40" style="stroke:#000080;stroke-width:3.0;"/>
    </defs>
    <g clip-path="url(#pbac91498c3)">
     <use style="fill:#000080;stroke:#000080;stroke-width:3.0;" x="273.971949312" xlink:href="#mbf9fc14a40" y="204.017598033"/>
    </g>
   </g>
   <g id="line2d_11">
    <defs>
     <path d="M 0 1.5 
C 0.397805 1.5 0.77937 1.341951 1.06066 1.06066 
C 1.341951 0.77937 1.5 0.397805 1.5 0 
C 1.5 -0.397805 1.341951 -0.77937 1.06066 -1.06066 
C 0.77937 -1.341951 0.397805 -1.5 0 -1.5 
C -0.397805 -1.5 -0.77937 -1.341951 -1.06066 -1.06066 
C -1.341951 -0.77937 -1.5 -0.397805 -1.5 0 
C -1.5 0.397805 -1.341951 0.77937 -1.06066 1.06066 
C -0.77937 1.341951 -0.397805 1.5 0 1.5 
z
" id="m86670bfc9a" style="stroke:#ff00ff;stroke-width:0.5;"/>
    </defs>
    <g>
     <use style="fill:#ff00ff;stroke:#ff00ff;stroke-width:0.5;" x="429.075766212" xlink:href="#m86670bfc9a" y="168.959338523"/>
     <use style="fill:#ff00ff;stroke:#ff00ff;stroke-width:0.5;" x="429.075766212" xlink:href="#m86670bfc9a" y="168.959338523"/>
    </g>
   </g>
   <g id="line2d_12">
    <path d="M 7.2 303.429375 
L 7.2 298.146624 
L 36.09888 298.146624 
L 36.09888 291.423122 
L 53.00364 291.423122 
L 53.00364 288.541621 
L 64.997759 288.541621 
L 64.997759 285.66012 
L 74.30112 285.66012 
L 74.30112 279.897119 
L 81.90252 279.897119 
L 81.90252 277.976118 
L 88.329412 277.976118 
L 88.329412 272.213117 
L 93.896639 272.213117 
L 93.896639 268.851366 
L 98.807281 268.851366 
L 98.807281 267.410615 
L 103.2 267.410615 
L 103.2 265.009365 
L 107.173698 265.009365 
L 107.173698 263.088364 
L 110.8014 263.088364 
L 110.8014 262.127864 
L 114.138562 262.127864 
L 114.138562 259.726613 
L 120.104761 259.726613 
L 120.104761 258.766113 
L 125.323096 258.766113 
L 125.323096 257.325362 
L 129.960346 257.325362 
L 129.960346 254.924112 
L 132.09888 254.924112 
L 132.09888 252.042611 
L 134.133052 252.042611 
L 134.133052 250.601861 
L 139.700279 250.601861 
L 139.700279 250.121611 
L 141.402241 250.121611 
L 141.402241 249.16111 
L 143.037441 249.16111 
L 143.037441 248.68086 
L 144.610921 248.68086 
L 144.610921 247.72036 
L 146.127171 247.72036 
L 146.127171 246.75986 
L 149.00364 246.75986 
L 149.00364 245.799359 
L 154.221976 245.799359 
L 154.221976 245.319109 
L 156.60504 245.319109 
L 156.60504 241.957358 
L 157.747366 241.957358 
L 157.747366 240.516608 
L 159.942202 240.516608 
L 159.942202 240.036358 
L 160.997759 240.036358 
L 160.997759 235.714107 
L 164.012972 235.714107 
L 164.012972 233.793106 
L 175.763986 233.793106 
L 175.763986 233.312856 
L 177.90252 233.312856 
L 177.90252 230.911605 
L 178.591664 230.911605 
L 178.591664 227.549854 
L 181.876218 227.549854 
L 181.876218 227.069604 
L 182.503181 227.069604 
L 182.503181 225.148604 
L 183.120856 225.148604 
L 183.120856 223.227603 
L 185.50392 223.227603 
L 185.50392 222.267103 
L 188.30311 222.267103 
L 188.30311 220.826353 
L 189.372201 220.826353 
L 189.372201 220.346102 
L 190.414562 220.346102 
L 190.414562 219.865852 
L 191.431497 219.865852 
L 191.431497 219.385602 
L 197.930086 219.385602 
L 197.930086 218.905352 
L 202.792944 218.905352 
L 202.792944 218.425102 
L 208.168482 218.425102 
L 208.168482 217.464602 
L 209.492157 217.464602 
L 209.492157 216.984352 
L 209.816612 216.984352 
L 209.816612 216.023851 
L 215.545125 216.023851 
L 215.545125 215.543601 
L 218.006367 215.543601 
L 218.006367 215.063351 
L 219.57001 215.063351 
L 219.57001 214.102851 
L 221.077124 214.102851 
L 221.077124 213.622601 
L 221.323096 213.622601 
L 221.323096 212.18185 
L 222.052426 212.18185 
L 222.052426 208.339849 
L 222.292728 208.339849 
L 222.292728 206.418849 
L 224.166853 206.418849 
L 224.166853 205.458348 
L 227.256583 205.458348 
L 227.256583 204.978098 
L 242.423914 204.978098 
L 242.423914 204.017598 
L 261.908401 204.017598 
L 261.908401 203.537348 
L 263.632593 203.537348 
L 263.632593 203.057098 
L 265.797787 203.057098 
L 265.797787 202.576848 
L 271.763986 202.576848 
L 271.763986 200.655847 
L 273.763314 200.655847 
L 273.763314 200.175597 
L 274.454744 200.175597 
L 274.454744 199.215097 
L 275.804126 199.215097 
L 275.804126 198.254596 
L 277.111201 198.254596 
L 277.111201 197.774346 
L 278.253526 197.774346 
L 278.31608 196.333596 
L 279.120856 196.333596 
L 279.120856 194.892846 
L 280.150347 194.892846 
L 280.150347 194.412595 
L 281.038079 194.412595 
L 281.038079 193.452095 
L 282.533411 193.452095 
L 282.533411 192.971845 
L 283.261434 192.971845 
L 283.261434 192.491595 
L 283.593204 192.491595 
L 283.593204 192.011345 
L 283.867677 192.011345 
L 283.867677 191.531095 
L 299.362779 191.531095 
L 299.362779 190.570594 
L 301.316022 190.570594 
L 301.316022 189.610094 
L 302.662193 189.610094 
L 302.662193 189.129844 
L 305.6547 189.129844 
L 305.6547 187.689094 
L 306.234664 187.689094 
L 306.266649 186.728593 
L 307.681147 186.728593 
L 307.681147 186.248343 
L 317.151068 186.248343 
L 317.151068 185.768093 
L 318.436247 185.768093 
L 318.436247 184.807593 
L 319.169993 184.807593 
L 319.169993 184.327343 
L 321.363627 184.327343 
L 321.363627 183.366842 
L 322.785962 183.366842 
L 322.80747 182.406342 
L 325.04694 182.406342 
L 325.04694 181.926092 
L 330.537682 181.926092 
L 330.537682 180.965592 
L 332.746715 180.965592 
L 332.746715 179.524841 
L 333.850103 179.524841 
L 333.850103 179.044591 
L 338.156941 179.044591 
L 338.156941 178.084091 
L 339.9053 178.084091 
L 339.9053 177.123591 
L 341.883721 177.123591 
L 341.883721 176.643341 
L 349.031357 176.643341 
L 349.031357 176.16309 
L 352.767819 176.16309 
L 352.767819 175.68284 
L 354.592852 175.68284 
L 354.592852 175.20259 
L 360.346504 175.20259 
L 360.346504 174.72234 
L 362.30112 174.72234 
L 362.30112 174.72234 
" style="fill:none;stroke:#ff00ff;stroke-linecap:square;stroke-width:1.5;"/>
   </g>
   <g id="line2d_13">
    <defs>
     <path d="M -0 8.485281 
L 5.091169 0 
L 0 -8.485281 
L -5.091169 -0 
z
" id="m61a5cf92a7" style="stroke:#ff00ff;stroke-linejoin:miter;stroke-width:1.5;"/>
    </defs>
    <g>
     <use style="fill:none;stroke:#ff00ff;stroke-linejoin:miter;stroke-width:1.5;" x="98.8072809062" xlink:href="#m61a5cf92a7" y="267.410615229"/>
     <use style="fill:none;stroke:#ff00ff;stroke-linejoin:miter;stroke-width:1.5;" x="154.221976036" xlink:href="#m61a5cf92a7" y="245.319109237"/>
     <use style="fill:none;stroke:#ff00ff;stroke-linejoin:miter;stroke-width:1.5;" x="219.570010023" xlink:href="#m61a5cf92a7" y="214.102850769"/>
     <use style="fill:none;stroke:#ff00ff;stroke-linejoin:miter;stroke-width:1.5;" x="305.654700256" xlink:href="#m61a5cf92a7" y="187.689093603"/>
     <use style="fill:none;stroke:#ff00ff;stroke-linejoin:miter;stroke-width:1.5;" x="360.34650399" xlink:href="#m61a5cf92a7" y="174.722340086"/>
     <use style="fill:none;stroke:#ff00ff;stroke-linejoin:miter;stroke-width:1.5;" x="362.301120416" xlink:href="#m61a5cf92a7" y="174.722340086"/>
    </g>
   </g>
   <g id="line2d_14"/>
   <g id="line2d_15">
    <path clip-path="url(#pbac91498c3)" d="M 273.060223 200.655847 
" style="fill:none;stroke:#ff00ff;stroke-linecap:square;"/>
    <defs>
     <path d="M -12 12 
L 12 -12 
M -12 -12 
L 12 12 
" id="m4b2ae21de7" style="stroke:#ff00ff;stroke-width:3.0;"/>
    </defs>
    <g clip-path="url(#pbac91498c3)">
     <use style="fill:#ff00ff;stroke:#ff00ff;stroke-width:3.0;" x="273.060223303" xlink:href="#m4b2ae21de7" y="200.655847121"/>
    </g>
   </g>
   <g id="line2d_16">
    <defs>
     <path d="M 0 1.5 
C 0.397805 1.5 0.77937 1.341951 1.06066 1.06066 
C 1.341951 0.77937 1.5 0.397805 1.5 0 
C 1.5 -0.397805 1.341951 -0.77937 1.06066 -1.06066 
C 0.77937 -1.341951 0.397805 -1.5 0 -1.5 
C -0.397805 -1.5 -0.77937 -1.341951 -1.06066 -1.06066 
C -1.341951 -0.77937 -1.5 -0.397805 -1.5 0 
C -1.5 0.397805 -1.341951 0.77937 -1.06066 1.06066 
C -0.77937 1.341951 -0.397805 1.5 0 1.5 
z
" id="m53dcb5dfe9" style="stroke:#ffa500;stroke-width:0.5;"/>
    </defs>
    <g>
     <use style="fill:#ffa500;stroke:#ffa500;stroke-width:0.5;" x="403.86617234" xlink:href="#m53dcb5dfe9" y="159.354335917"/>
     <use style="fill:#ffa500;stroke:#ffa500;stroke-width:0.5;" x="403.86617234" xlink:href="#m53dcb5dfe9" y="159.354335917"/>
    </g>
   </g>
   <g id="line2d_17">
    <path d="M 7.2 303.429375 
L 7.2 299.107124 
L 36.09888 299.107124 
L 36.09888 297.186123 
L 53.00364 297.186123 
L 53.00364 293.344122 
L 64.997759 293.344122 
L 64.997759 289.502121 
L 74.30112 289.502121 
L 74.30112 284.21937 
L 81.90252 284.21937 
L 81.90252 282.298369 
L 88.329412 282.298369 
L 88.329412 278.456368 
L 93.896639 278.456368 
L 93.896639 277.976118 
L 98.807281 277.976118 
L 98.807281 277.495868 
L 103.2 277.495868 
L 103.2 276.055118 
L 107.173698 276.055118 
L 107.173698 274.614367 
L 110.8014 274.614367 
L 110.8014 274.134117 
L 114.138562 274.134117 
L 114.138562 273.653867 
L 117.228291 273.653867 
L 117.228291 270.292116 
L 122.795518 270.292116 
L 122.795518 268.851366 
L 125.323096 268.851366 
L 125.323096 268.371115 
L 127.70616 268.371115 
L 127.70616 265.489615 
L 129.960346 265.489615 
L 129.960346 263.568614 
L 132.09888 263.568614 
L 132.09888 260.687113 
L 136.072577 260.687113 
L 136.072577 259.726613 
L 137.925872 259.726613 
L 137.925872 256.845112 
L 139.700279 256.845112 
L 139.700279 256.364862 
L 141.402241 256.364862 
L 141.402241 254.924112 
L 143.037441 254.924112 
L 143.037441 254.443862 
L 144.610921 254.443862 
L 144.610921 250.601861 
L 146.127171 250.601861 
L 146.127171 250.121611 
L 147.590208 250.121611 
L 147.590208 248.68086 
L 149.00364 248.68086 
L 149.00364 248.20061 
L 150.370723 248.20061 
L 150.370723 247.24011 
L 152.977338 247.24011 
L 152.977338 246.279609 
L 156.60504 246.279609 
L 156.60504 244.838859 
L 159.942202 244.838859 
L 159.942202 243.398109 
L 162.02725 243.398109 
L 162.02725 239.556108 
L 163.031932 239.556108 
L 163.031932 238.115357 
L 164.971457 238.115357 
L 164.971457 237.635107 
L 165.908401 237.635107 
L 165.908401 235.714107 
L 168.599159 235.714107 
L 168.599159 234.753606 
L 169.458824 234.753606 
L 169.458824 233.793106 
L 170.30112 233.793106 
L 170.30112 232.832606 
L 173.509801 232.832606 
L 173.509801 231.391855 
L 174.274818 231.391855 
L 174.274818 230.431355 
L 175.026051 230.431355 
L 175.026051 227.549854 
L 175.763986 227.549854 
L 175.763986 226.589354 
L 183.120856 226.589354 
L 183.120856 224.668354 
L 183.729513 224.668354 
L 183.729513 224.188104 
L 185.50392 224.188104 
L 185.50392 223.707853 
L 186.646245 223.707853 
L 186.646245 222.747353 
L 187.205881 222.747353 
L 187.205881 220.826353 
L 188.30311 220.826353 
L 188.30311 220.346102 
L 189.372201 220.346102 
L 189.372201 219.865852 
L 189.896639 219.865852 
L 189.896639 219.385602 
L 190.92613 219.385602 
L 190.92613 218.905352 
L 192.911851 218.905352 
L 192.911851 218.425102 
L 193.393848 218.425102 
L 193.393848 217.944852 
L 194.807281 217.944852 
L 194.807281 217.464602 
L 195.267974 217.464602 
L 195.267974 216.984352 
L 199.2 216.984352 
L 199.2 215.063351 
L 199.614852 215.063351 
L 199.614852 214.583101 
L 205.026993 214.583101 
L 205.026993 213.622601 
L 206.100673 213.622601 
L 206.100673 213.142351 
L 207.490544 213.142351 
L 207.490544 212.18185 
L 212.325174 212.18185 
L 212.325174 211.7016 
L 217.201989 211.7016 
L 217.201989 210.7411 
L 219.825009 210.7411 
L 219.825009 209.300349 
L 221.323096 209.300349 
L 221.323096 207.379349 
L 225.519154 207.379349 
L 225.519154 206.418849 
L 228.09888 206.418849 
L 228.09888 204.017598 
L 229.73408 204.017598 
L 229.73408 203.057098 
L 232.637267 203.057098 
L 232.637267 202.576848 
L 234.822515 202.576848 
L 234.822515 200.655847 
L 235.175841 200.655847 
L 235.175841 200.175597 
L 235.873636 200.175597 
L 235.873636 199.215097 
L 238.55358 199.215097 
L 238.55358 198.734847 
L 239.673977 198.734847 
L 239.673977 198.254596 
L 241.071614 198.254596 
L 241.071614 197.774346 
L 241.678058 197.774346 
L 241.678058 197.294096 
L 241.8283 197.294096 
L 241.8283 196.333596 
L 244.302914 196.333596 
L 244.302914 195.853346 
L 245.00364 195.853346 
L 245.00364 194.892846 
L 246.905246 194.892846 
L 246.905246 194.412595 
L 248.850806 194.412595 
L 248.850806 193.932345 
L 251.549483 193.932345 
L 251.549483 193.452095 
L 252.372771 193.452095 
L 252.372771 192.491595 
L 252.720691 192.491595 
L 252.720691 192.011345 
L 253.521391 192.011345 
L 253.521391 191.531095 
L 253.972122 191.531095 
L 253.972122 191.050845 
L 260.590703 191.050845 
L 260.590703 190.570594 
L 262.643086 190.570594 
L 262.643086 190.090344 
L 264.162587 190.090344 
L 264.162587 189.610094 
L 265.031207 189.610094 
L 265.031207 189.129844 
L 265.797787 189.129844 
L 265.797787 188.649594 
L 266.962916 188.649594 
L 266.962916 188.169344 
L 268.730483 188.169344 
L 268.730483 187.208843 
L 271.026051 187.208843 
L 271.026051 186.728593 
L 272.200558 186.728593 
L 272.200558 186.248343 
L 272.417142 186.248343 
L 272.417142 185.768093 
L 273.971949 185.768093 
L 273.971949 185.287843 
L 275.936693 185.287843 
L 275.936693 184.807593 
L 281.677277 184.807593 
L 281.677277 183.847093 
L 284.085962 183.847093 
L 284.085962 183.366842 
L 286.208164 183.366842 
L 286.311491 182.406342 
L 289.297894 182.406342 
L 289.297894 181.926092 
L 289.870337 181.926092 
L 289.870337 181.445842 
L 291.904509 181.445842 
L 291.904509 180.965592 
L 293.887083 180.965592 
L 293.887083 180.485342 
L 295.614852 180.485342 
L 295.614852 180.005092 
L 299.775763 180.005092 
L 299.775763 179.524841 
L 299.92493 179.524841 
L 299.92493 179.044591 
L 303.966255 179.044591 
L 303.966255 178.564341 
L 305.263527 178.564341 
L 305.263527 178.084091 
L 305.719541 178.084091 
L 305.719541 177.603841 
L 307.402061 177.603841 
L 307.402061 177.123591 
L 310.633782 177.123591 
L 310.633782 176.643341 
L 310.920722 176.643341 
L 310.920722 176.16309 
L 311.601428 176.16309 
L 311.601428 175.68284 
L 313.766679 175.68284 
L 313.766679 175.20259 
L 315.236162 175.20259 
L 315.236162 174.72234 
L 316.204608 174.72234 
L 316.204608 174.24209 
L 318.196773 174.24209 
L 318.26876 173.28159 
L 321.229855 173.28159 
L 321.229855 172.80134 
L 325.290756 172.80134 
L 325.290756 172.321089 
L 326.271795 172.321089 
L 326.271795 171.840839 
L 326.449504 171.840839 
L 326.449504 171.360589 
L 327.730056 171.360589 
L 327.730056 170.880339 
L 328.223911 170.880339 
L 328.242789 169.919839 
L 328.749293 169.919839 
L 328.749293 169.439589 
L 329.689552 169.439589 
L 329.689552 168.959339 
L 330.733713 168.959339 
L 330.733713 168.479088 
L 330.89342 168.479088 
L 330.89342 167.998838 
L 333.916046 167.998838 
L 333.916046 167.518588 
L 336.332042 167.518588 
L 336.332042 167.038338 
L 337.117405 167.038338 
L 337.117405 166.558088 
L 346.903078 166.558088 
L 346.903078 166.077838 
L 351.835162 166.077838 
L 351.835162 165.597588 
L 352.903846 165.597588 
L 352.903846 165.117337 
L 359.023674 165.117337 
L 359.023674 164.637087 
L 359.7923 164.637087 
L 359.7923 164.156837 
L 362.30112 164.156837 
L 362.30112 164.156837 
" style="fill:none;stroke:#ffa500;stroke-linecap:square;stroke-width:1.5;"/>
   </g>
   <g id="line2d_18">
    <defs>
     <path d="M 0 -6 
L -1.347084 -1.854102 
L -5.706339 -1.854102 
L -2.179628 0.708204 
L -3.526712 4.854102 
L -0 2.291796 
L 3.526712 4.854102 
L 2.179628 0.708204 
L 5.706339 -1.854102 
L 1.347084 -1.854102 
z
" id="m75bc502f02" style="stroke:#ffa500;stroke-linejoin:bevel;stroke-width:1.5;"/>
    </defs>
    <g>
     <use style="fill:none;stroke:#ffa500;stroke-linejoin:bevel;stroke-width:1.5;" x="64.9977591675" xlink:href="#m75bc502f02" y="293.344122264"/>
     <use style="fill:none;stroke:#ffa500;stroke-linejoin:bevel;stroke-width:1.5;" x="146.127171009" xlink:href="#m75bc502f02" y="250.121610539"/>
     <use style="fill:none;stroke:#ffa500;stroke-linejoin:bevel;stroke-width:1.5;" x="186.646245094" xlink:href="#m75bc502f02" y="223.707853374"/>
     <use style="fill:none;stroke:#ffa500;stroke-linejoin:bevel;stroke-width:1.5;" x="275.936692748" xlink:href="#m75bc502f02" y="185.287842952"/>
     <use style="fill:none;stroke:#ffa500;stroke-linejoin:bevel;stroke-width:1.5;" x="330.893420017" xlink:href="#m75bc502f02" y="167.998838262"/>
     <use style="fill:none;stroke:#ffa500;stroke-linejoin:bevel;stroke-width:1.5;" x="362.301120416" xlink:href="#m75bc502f02" y="164.15683722"/>
    </g>
   </g>
   <g id="line2d_19"/>
   <g id="line2d_20">
    <path clip-path="url(#pbac91498c3)" d="M 237.402241 199.215097 
" style="fill:none;stroke:#ffa500;stroke-linecap:square;"/>
    <defs>
     <path d="M -12 12 
L 12 -12 
M -12 -12 
L 12 12 
" id="ma35d56f8df" style="stroke:#ffa500;stroke-width:3.0;"/>
    </defs>
    <g clip-path="url(#pbac91498c3)">
     <use style="fill:#ffa500;stroke:#ffa500;stroke-width:3.0;" x="237.402240833" xlink:href="#ma35d56f8df" y="199.21509673"/>
    </g>
   </g>
   <g id="line2d_21">
    <path d="M 362.30112 178.084091 
L 393.98112 297.954524 
" style="fill:none;stroke:#000080;stroke-linecap:square;stroke-width:1.5;"/>
    <g>
     <use style="fill:none;stroke:#000080;stroke-width:1.5;" x="362.301120416" xlink:href="#m9a032ed6ff" y="178.084090998"/>
     <use style="fill:none;stroke:#000080;stroke-width:1.5;" x="393.981120416" xlink:href="#m9a032ed6ff" y="297.954523515"/>
    </g>
   </g>
   <g id="line2d_22">
    <path d="M 362.30112 174.72234 
L 393.98112 210.3569 
" style="fill:none;stroke:#ff00ff;stroke-linecap:square;stroke-width:1.5;"/>
    <g>
     <use style="fill:none;stroke:#ff00ff;stroke-linejoin:miter;stroke-width:1.5;" x="362.301120416" xlink:href="#m61a5cf92a7" y="174.722340086"/>
     <use style="fill:none;stroke:#ff00ff;stroke-linejoin:miter;stroke-width:1.5;" x="393.981120416" xlink:href="#m61a5cf92a7" y="210.356899752"/>
    </g>
   </g>
   <g id="line2d_23">
    <path d="M 362.30112 164.156837 
L 393.98112 122.759276 
" style="fill:none;stroke:#ffa500;stroke-linecap:square;stroke-width:1.5;"/>
    <g>
     <use style="fill:none;stroke:#ffa500;stroke-linejoin:bevel;stroke-width:1.5;" x="362.301120416" xlink:href="#m75bc502f02" y="164.15683722"/>
     <use style="fill:none;stroke:#ffa500;stroke-linejoin:bevel;stroke-width:1.5;" x="393.981120416" xlink:href="#m75bc502f02" y="122.75927599"/>
    </g>
   </g>
   <g id="line2d_24">
    <path d="M 362.30112 303.429375 
L 362.30112 29.686801 
" style="fill:none;stroke:#000000;stroke-linecap:square;"/>
   </g>
   <g id="patch_3">
    <path d="M 74.30112 26.949375 
L 431.42112 26.949375 
" style="fill:none;stroke:#000000;stroke-linecap:square;stroke-linejoin:miter;"/>
   </g>
   <g id="patch_4">
    <path d="M 431.42112 303.429375 
L 431.42112 26.949375 
" style="fill:none;stroke:#000000;stroke-linecap:square;stroke-linejoin:miter;"/>
   </g>
   <g id="patch_5">
    <path d="M 74.30112 303.429375 
L 431.42112 303.429375 
" style="fill:none;stroke:#000000;stroke-linecap:square;stroke-linejoin:miter;"/>
   </g>
   <g id="patch_6">
    <path d="M 74.30112 303.429375 
L 74.30112 26.949375 
" style="fill:none;stroke:#000000;stroke-linecap:square;stroke-linejoin:miter;"/>
   </g>
   <g id="matplotlib.axis_1">
    <g id="xtick_1">
     <g id="line2d_25">
      <path clip-path="url(#pbac91498c3)" d="M 74.30112 303.429375 
L 74.30112 26.949375 
" style="fill:none;stroke:#000000;stroke-dasharray:1.000000,3.000000;stroke-dashoffset:0.0;stroke-width:0.5;"/>
     </g>
     <g id="line2d_26">
      <defs>
       <path d="M 0 0 
L 0 -4 
" id="m74cbb4755d" style="stroke:#000000;stroke-width:0.5;"/>
      </defs>
      <g>
       <use style="stroke:#000000;stroke-width:0.5;" x="74.3011204163" xlink:href="#m74cbb4755d" y="303.429375"/>
      </g>
     </g>
     <g id="line2d_27">
      <defs>
       <path d="M 0 0 
L 0 4 
" id="mb2557a58d9" style="stroke:#000000;stroke-width:0.5;"/>
      </defs>
      <g>
       <use style="stroke:#000000;stroke-width:0.5;" x="74.3011204163" xlink:href="#mb2557a58d9" y="26.949375"/>
      </g>
     </g>
     <g id="text_1">
      <!-- 0 -->
      <defs>
       <path d="M 31.78125 66.40625 
Q 24.171875 66.40625 20.328125 58.90625 
Q 16.5 51.421875 16.5 36.375 
Q 16.5 21.390625 20.328125 13.890625 
Q 24.171875 6.390625 31.78125 6.390625 
Q 39.453125 6.390625 43.28125 13.890625 
Q 47.125 21.390625 47.125 36.375 
Q 47.125 51.421875 43.28125 58.90625 
Q 39.453125 66.40625 31.78125 66.40625 
M 31.78125 74.21875 
Q 44.046875 74.21875 50.515625 64.515625 
Q 56.984375 54.828125 56.984375 36.375 
Q 56.984375 17.96875 50.515625 8.265625 
Q 44.046875 -1.421875 31.78125 -1.421875 
Q 19.53125 -1.421875 13.0625 8.265625 
Q 6.59375 17.96875 6.59375 36.375 
Q 6.59375 54.828125 13.0625 64.515625 
Q 19.53125 74.21875 31.78125 74.21875 
" id="BitstreamVeraSans-Roman-30"/>
      </defs>
      <g transform="translate(67.9386204163 322.62625)scale(0.2 -0.2)">
       <use xlink:href="#BitstreamVeraSans-Roman-30"/>
      </g>
     </g>
    </g>
    <g id="xtick_2">
     <g id="line2d_28">
      <path clip-path="url(#pbac91498c3)" d="M 170.30112 303.429375 
L 170.30112 26.949375 
" style="fill:none;stroke:#000000;stroke-dasharray:1.000000,3.000000;stroke-dashoffset:0.0;stroke-width:0.5;"/>
     </g>
     <g id="line2d_29">
      <g>
       <use style="stroke:#000000;stroke-width:0.5;" x="170.301120416" xlink:href="#m74cbb4755d" y="303.429375"/>
      </g>
     </g>
     <g id="line2d_30">
      <g>
       <use style="stroke:#000000;stroke-width:0.5;" x="170.301120416" xlink:href="#mb2557a58d9" y="26.949375"/>
      </g>
     </g>
     <g id="text_2">
      <!-- 1 -->
      <defs>
       <path d="M 12.40625 8.296875 
L 28.515625 8.296875 
L 28.515625 63.921875 
L 10.984375 60.40625 
L 10.984375 69.390625 
L 28.421875 72.90625 
L 38.28125 72.90625 
L 38.28125 8.296875 
L 54.390625 8.296875 
L 54.390625 0 
L 12.40625 0 
z
" id="BitstreamVeraSans-Roman-31"/>
      </defs>
      <g transform="translate(163.938620416 322.62625)scale(0.2 -0.2)">
       <use xlink:href="#BitstreamVeraSans-Roman-31"/>
      </g>
     </g>
    </g>
    <g id="xtick_3">
     <g id="line2d_31">
      <path clip-path="url(#pbac91498c3)" d="M 266.30112 303.429375 
L 266.30112 26.949375 
" style="fill:none;stroke:#000000;stroke-dasharray:1.000000,3.000000;stroke-dashoffset:0.0;stroke-width:0.5;"/>
     </g>
     <g id="line2d_32">
      <g>
       <use style="stroke:#000000;stroke-width:0.5;" x="266.301120416" xlink:href="#m74cbb4755d" y="303.429375"/>
      </g>
     </g>
     <g id="line2d_33">
      <g>
       <use style="stroke:#000000;stroke-width:0.5;" x="266.301120416" xlink:href="#mb2557a58d9" y="26.949375"/>
      </g>
     </g>
     <g id="text_3">
      <!-- 2 -->
      <defs>
       <path d="M 19.1875 8.296875 
L 53.609375 8.296875 
L 53.609375 0 
L 7.328125 0 
L 7.328125 8.296875 
Q 12.9375 14.109375 22.625 23.890625 
Q 32.328125 33.6875 34.8125 36.53125 
Q 39.546875 41.84375 41.421875 45.53125 
Q 43.3125 49.21875 43.3125 52.78125 
Q 43.3125 58.59375 39.234375 62.25 
Q 35.15625 65.921875 28.609375 65.921875 
Q 23.96875 65.921875 18.8125 64.3125 
Q 13.671875 62.703125 7.8125 59.421875 
L 7.8125 69.390625 
Q 13.765625 71.78125 18.9375 73 
Q 24.125 74.21875 28.421875 74.21875 
Q 39.75 74.21875 46.484375 68.546875 
Q 53.21875 62.890625 53.21875 53.421875 
Q 53.21875 48.921875 51.53125 44.890625 
Q 49.859375 40.875 45.40625 35.40625 
Q 44.1875 33.984375 37.640625 27.21875 
Q 31.109375 20.453125 19.1875 8.296875 
" id="BitstreamVeraSans-Roman-32"/>
      </defs>
      <g transform="translate(259.938620416 322.62625)scale(0.2 -0.2)">
       <use xlink:href="#BitstreamVeraSans-Roman-32"/>
      </g>
     </g>
    </g>
    <g id="xtick_4">
     <g id="line2d_34">
      <path clip-path="url(#pbac91498c3)" d="M 362.30112 303.429375 
L 362.30112 26.949375 
" style="fill:none;stroke:#000000;stroke-dasharray:1.000000,3.000000;stroke-dashoffset:0.0;stroke-width:0.5;"/>
     </g>
     <g id="line2d_35">
      <g>
       <use style="stroke:#000000;stroke-width:0.5;" x="362.301120416" xlink:href="#m74cbb4755d" y="303.429375"/>
      </g>
     </g>
     <g id="line2d_36">
      <g>
       <use style="stroke:#000000;stroke-width:0.5;" x="362.301120416" xlink:href="#mb2557a58d9" y="26.949375"/>
      </g>
     </g>
     <g id="text_4">
      <!-- 3 -->
      <defs>
       <path d="M 40.578125 39.3125 
Q 47.65625 37.796875 51.625 33 
Q 55.609375 28.21875 55.609375 21.1875 
Q 55.609375 10.40625 48.1875 4.484375 
Q 40.765625 -1.421875 27.09375 -1.421875 
Q 22.515625 -1.421875 17.65625 -0.515625 
Q 12.796875 0.390625 7.625 2.203125 
L 7.625 11.71875 
Q 11.71875 9.328125 16.59375 8.109375 
Q 21.484375 6.890625 26.8125 6.890625 
Q 36.078125 6.890625 40.9375 10.546875 
Q 45.796875 14.203125 45.796875 21.1875 
Q 45.796875 27.640625 41.28125 31.265625 
Q 36.765625 34.90625 28.71875 34.90625 
L 20.21875 34.90625 
L 20.21875 43.015625 
L 29.109375 43.015625 
Q 36.375 43.015625 40.234375 45.921875 
Q 44.09375 48.828125 44.09375 54.296875 
Q 44.09375 59.90625 40.109375 62.90625 
Q 36.140625 65.921875 28.71875 65.921875 
Q 24.65625 65.921875 20.015625 65.03125 
Q 15.375 64.15625 9.8125 62.3125 
L 9.8125 71.09375 
Q 15.4375 72.65625 20.34375 73.4375 
Q 25.25 74.21875 29.59375 74.21875 
Q 40.828125 74.21875 47.359375 69.109375 
Q 53.90625 64.015625 53.90625 55.328125 
Q 53.90625 49.265625 50.4375 45.09375 
Q 46.96875 40.921875 40.578125 39.3125 
" id="BitstreamVeraSans-Roman-33"/>
      </defs>
      <g transform="translate(355.938620416 322.62625)scale(0.2 -0.2)">
       <use xlink:href="#BitstreamVeraSans-Roman-33"/>
      </g>
     </g>
    </g>
    <g id="xtick_5">
     <g id="line2d_37">
      <defs>
       <path d="M 0 0 
L 0 -2 
" id="m53557ade52" style="stroke:#000000;stroke-width:0.5;"/>
      </defs>
      <g>
       <use style="stroke:#000000;stroke-width:0.5;" x="103.2" xlink:href="#m53557ade52" y="303.429375"/>
      </g>
     </g>
     <g id="line2d_38">
      <defs>
       <path d="M 0 0 
L 0 2 
" id="ma1f70d198e" style="stroke:#000000;stroke-width:0.5;"/>
      </defs>
      <g>
       <use style="stroke:#000000;stroke-width:0.5;" x="103.2" xlink:href="#ma1f70d198e" y="26.949375"/>
      </g>
     </g>
    </g>
    <g id="xtick_6">
     <g id="line2d_39">
      <g>
       <use style="stroke:#000000;stroke-width:0.5;" x="120.104760869" xlink:href="#m53557ade52" y="303.429375"/>
      </g>
     </g>
     <g id="line2d_40">
      <g>
       <use style="stroke:#000000;stroke-width:0.5;" x="120.104760869" xlink:href="#ma1f70d198e" y="26.949375"/>
      </g>
     </g>
    </g>
    <g id="xtick_7">
     <g id="line2d_41">
      <g>
       <use style="stroke:#000000;stroke-width:0.5;" x="132.098879584" xlink:href="#m53557ade52" y="303.429375"/>
      </g>
     </g>
     <g id="line2d_42">
      <g>
       <use style="stroke:#000000;stroke-width:0.5;" x="132.098879584" xlink:href="#ma1f70d198e" y="26.949375"/>
      </g>
     </g>
    </g>
    <g id="xtick_8">
     <g id="line2d_43">
      <g>
       <use style="stroke:#000000;stroke-width:0.5;" x="141.402240833" xlink:href="#m53557ade52" y="303.429375"/>
      </g>
     </g>
     <g id="line2d_44">
      <g>
       <use style="stroke:#000000;stroke-width:0.5;" x="141.402240833" xlink:href="#ma1f70d198e" y="26.949375"/>
      </g>
     </g>
    </g>
    <g id="xtick_9">
     <g id="line2d_45">
      <g>
       <use style="stroke:#000000;stroke-width:0.5;" x="149.003640453" xlink:href="#m53557ade52" y="303.429375"/>
      </g>
     </g>
     <g id="line2d_46">
      <g>
       <use style="stroke:#000000;stroke-width:0.5;" x="149.003640453" xlink:href="#ma1f70d198e" y="26.949375"/>
      </g>
     </g>
    </g>
    <g id="xtick_10">
     <g id="line2d_47">
      <g>
       <use style="stroke:#000000;stroke-width:0.5;" x="155.430532258" xlink:href="#m53557ade52" y="303.429375"/>
      </g>
     </g>
     <g id="line2d_48">
      <g>
       <use style="stroke:#000000;stroke-width:0.5;" x="155.430532258" xlink:href="#ma1f70d198e" y="26.949375"/>
      </g>
     </g>
    </g>
    <g id="xtick_11">
     <g id="line2d_49">
      <g>
       <use style="stroke:#000000;stroke-width:0.5;" x="160.997759167" xlink:href="#m53557ade52" y="303.429375"/>
      </g>
     </g>
     <g id="line2d_50">
      <g>
       <use style="stroke:#000000;stroke-width:0.5;" x="160.997759167" xlink:href="#ma1f70d198e" y="26.949375"/>
      </g>
     </g>
    </g>
    <g id="xtick_12">
     <g id="line2d_51">
      <g>
       <use style="stroke:#000000;stroke-width:0.5;" x="165.908401322" xlink:href="#m53557ade52" y="303.429375"/>
      </g>
     </g>
     <g id="line2d_52">
      <g>
       <use style="stroke:#000000;stroke-width:0.5;" x="165.908401322" xlink:href="#ma1f70d198e" y="26.949375"/>
      </g>
     </g>
    </g>
    <g id="xtick_13">
     <g id="line2d_53">
      <g>
       <use style="stroke:#000000;stroke-width:0.5;" x="199.2" xlink:href="#m53557ade52" y="303.429375"/>
      </g>
     </g>
     <g id="line2d_54">
      <g>
       <use style="stroke:#000000;stroke-width:0.5;" x="199.2" xlink:href="#ma1f70d198e" y="26.949375"/>
      </g>
     </g>
    </g>
    <g id="xtick_14">
     <g id="line2d_55">
      <g>
       <use style="stroke:#000000;stroke-width:0.5;" x="216.104760869" xlink:href="#m53557ade52" y="303.429375"/>
      </g>
     </g>
     <g id="line2d_56">
      <g>
       <use style="stroke:#000000;stroke-width:0.5;" x="216.104760869" xlink:href="#ma1f70d198e" y="26.949375"/>
      </g>
     </g>
    </g>
    <g id="xtick_15">
     <g id="line2d_57">
      <g>
       <use style="stroke:#000000;stroke-width:0.5;" x="228.098879584" xlink:href="#m53557ade52" y="303.429375"/>
      </g>
     </g>
     <g id="line2d_58">
      <g>
       <use style="stroke:#000000;stroke-width:0.5;" x="228.098879584" xlink:href="#ma1f70d198e" y="26.949375"/>
      </g>
     </g>
    </g>
    <g id="xtick_16">
     <g id="line2d_59">
      <g>
       <use style="stroke:#000000;stroke-width:0.5;" x="237.402240833" xlink:href="#m53557ade52" y="303.429375"/>
      </g>
     </g>
     <g id="line2d_60">
      <g>
       <use style="stroke:#000000;stroke-width:0.5;" x="237.402240833" xlink:href="#ma1f70d198e" y="26.949375"/>
      </g>
     </g>
    </g>
    <g id="xtick_17">
     <g id="line2d_61">
      <g>
       <use style="stroke:#000000;stroke-width:0.5;" x="245.003640453" xlink:href="#m53557ade52" y="303.429375"/>
      </g>
     </g>
     <g id="line2d_62">
      <g>
       <use style="stroke:#000000;stroke-width:0.5;" x="245.003640453" xlink:href="#ma1f70d198e" y="26.949375"/>
      </g>
     </g>
    </g>
    <g id="xtick_18">
     <g id="line2d_63">
      <g>
       <use style="stroke:#000000;stroke-width:0.5;" x="251.430532258" xlink:href="#m53557ade52" y="303.429375"/>
      </g>
     </g>
     <g id="line2d_64">
      <g>
       <use style="stroke:#000000;stroke-width:0.5;" x="251.430532258" xlink:href="#ma1f70d198e" y="26.949375"/>
      </g>
     </g>
    </g>
    <g id="xtick_19">
     <g id="line2d_65">
      <g>
       <use style="stroke:#000000;stroke-width:0.5;" x="256.997759167" xlink:href="#m53557ade52" y="303.429375"/>
      </g>
     </g>
     <g id="line2d_66">
      <g>
       <use style="stroke:#000000;stroke-width:0.5;" x="256.997759167" xlink:href="#ma1f70d198e" y="26.949375"/>
      </g>
     </g>
    </g>
    <g id="xtick_20">
     <g id="line2d_67">
      <g>
       <use style="stroke:#000000;stroke-width:0.5;" x="261.908401322" xlink:href="#m53557ade52" y="303.429375"/>
      </g>
     </g>
     <g id="line2d_68">
      <g>
       <use style="stroke:#000000;stroke-width:0.5;" x="261.908401322" xlink:href="#ma1f70d198e" y="26.949375"/>
      </g>
     </g>
    </g>
    <g id="xtick_21">
     <g id="line2d_69">
      <g>
       <use style="stroke:#000000;stroke-width:0.5;" x="295.2" xlink:href="#m53557ade52" y="303.429375"/>
      </g>
     </g>
     <g id="line2d_70">
      <g>
       <use style="stroke:#000000;stroke-width:0.5;" x="295.2" xlink:href="#ma1f70d198e" y="26.949375"/>
      </g>
     </g>
    </g>
    <g id="xtick_22">
     <g id="line2d_71">
      <g>
       <use style="stroke:#000000;stroke-width:0.5;" x="312.104760869" xlink:href="#m53557ade52" y="303.429375"/>
      </g>
     </g>
     <g id="line2d_72">
      <g>
       <use style="stroke:#000000;stroke-width:0.5;" x="312.104760869" xlink:href="#ma1f70d198e" y="26.949375"/>
      </g>
     </g>
    </g>
    <g id="xtick_23">
     <g id="line2d_73">
      <g>
       <use style="stroke:#000000;stroke-width:0.5;" x="324.098879584" xlink:href="#m53557ade52" y="303.429375"/>
      </g>
     </g>
     <g id="line2d_74">
      <g>
       <use style="stroke:#000000;stroke-width:0.5;" x="324.098879584" xlink:href="#ma1f70d198e" y="26.949375"/>
      </g>
     </g>
    </g>
    <g id="xtick_24">
     <g id="line2d_75">
      <g>
       <use style="stroke:#000000;stroke-width:0.5;" x="333.402240833" xlink:href="#m53557ade52" y="303.429375"/>
      </g>
     </g>
     <g id="line2d_76">
      <g>
       <use style="stroke:#000000;stroke-width:0.5;" x="333.402240833" xlink:href="#ma1f70d198e" y="26.949375"/>
      </g>
     </g>
    </g>
    <g id="xtick_25">
     <g id="line2d_77">
      <g>
       <use style="stroke:#000000;stroke-width:0.5;" x="341.003640453" xlink:href="#m53557ade52" y="303.429375"/>
      </g>
     </g>
     <g id="line2d_78">
      <g>
       <use style="stroke:#000000;stroke-width:0.5;" x="341.003640453" xlink:href="#ma1f70d198e" y="26.949375"/>
      </g>
     </g>
    </g>
    <g id="xtick_26">
     <g id="line2d_79">
      <g>
       <use style="stroke:#000000;stroke-width:0.5;" x="347.430532258" xlink:href="#m53557ade52" y="303.429375"/>
      </g>
     </g>
     <g id="line2d_80">
      <g>
       <use style="stroke:#000000;stroke-width:0.5;" x="347.430532258" xlink:href="#ma1f70d198e" y="26.949375"/>
      </g>
     </g>
    </g>
    <g id="xtick_27">
     <g id="line2d_81">
      <g>
       <use style="stroke:#000000;stroke-width:0.5;" x="352.997759167" xlink:href="#m53557ade52" y="303.429375"/>
      </g>
     </g>
     <g id="line2d_82">
      <g>
       <use style="stroke:#000000;stroke-width:0.5;" x="352.997759167" xlink:href="#ma1f70d198e" y="26.949375"/>
      </g>
     </g>
    </g>
    <g id="xtick_28">
     <g id="line2d_83">
      <g>
       <use style="stroke:#000000;stroke-width:0.5;" x="357.908401322" xlink:href="#m53557ade52" y="303.429375"/>
      </g>
     </g>
     <g id="line2d_84">
      <g>
       <use style="stroke:#000000;stroke-width:0.5;" x="357.908401322" xlink:href="#ma1f70d198e" y="26.949375"/>
      </g>
     </g>
    </g>
    <g id="xtick_29">
     <g id="line2d_85">
      <g>
       <use style="stroke:#000000;stroke-width:0.5;" x="391.2" xlink:href="#m53557ade52" y="303.429375"/>
      </g>
     </g>
     <g id="line2d_86">
      <g>
       <use style="stroke:#000000;stroke-width:0.5;" x="391.2" xlink:href="#ma1f70d198e" y="26.949375"/>
      </g>
     </g>
    </g>
    <g id="xtick_30">
     <g id="line2d_87">
      <g>
       <use style="stroke:#000000;stroke-width:0.5;" x="408.104760869" xlink:href="#m53557ade52" y="303.429375"/>
      </g>
     </g>
     <g id="line2d_88">
      <g>
       <use style="stroke:#000000;stroke-width:0.5;" x="408.104760869" xlink:href="#ma1f70d198e" y="26.949375"/>
      </g>
     </g>
    </g>
    <g id="xtick_31">
     <g id="line2d_89">
      <g>
       <use style="stroke:#000000;stroke-width:0.5;" x="420.098879584" xlink:href="#m53557ade52" y="303.429375"/>
      </g>
     </g>
     <g id="line2d_90">
      <g>
       <use style="stroke:#000000;stroke-width:0.5;" x="420.098879584" xlink:href="#ma1f70d198e" y="26.949375"/>
      </g>
     </g>
    </g>
    <g id="xtick_32">
     <g id="line2d_91">
      <g>
       <use style="stroke:#000000;stroke-width:0.5;" x="429.402240833" xlink:href="#m53557ade52" y="303.429375"/>
      </g>
     </g>
     <g id="line2d_92">
      <g>
       <use style="stroke:#000000;stroke-width:0.5;" x="429.402240833" xlink:href="#ma1f70d198e" y="26.949375"/>
      </g>
     </g>
    </g>
    <g id="text_5">
     <!-- log10 of (# f-evals / dimension) -->
     <defs>
      <path id="BitstreamVeraSans-Roman-20"/>
      <path d="M 51.125 44 
L 36.921875 44 
L 32.8125 27.6875 
L 47.125 27.6875 
z
M 43.796875 71.78125 
L 38.71875 51.515625 
L 52.984375 51.515625 
L 58.109375 71.78125 
L 65.921875 71.78125 
L 60.890625 51.515625 
L 76.125 51.515625 
L 76.125 44 
L 58.984375 44 
L 54.984375 27.6875 
L 70.515625 27.6875 
L 70.515625 20.21875 
L 53.078125 20.21875 
L 48 0 
L 40.1875 0 
L 45.21875 20.21875 
L 30.90625 20.21875 
L 25.875 0 
L 18.015625 0 
L 23.09375 20.21875 
L 7.71875 20.21875 
L 7.71875 27.6875 
L 24.90625 27.6875 
L 29 44 
L 13.28125 44 
L 13.28125 51.515625 
L 30.90625 51.515625 
L 35.890625 71.78125 
z
" id="BitstreamVeraSans-Roman-23"/>
      <path d="M 52 44.1875 
Q 55.375 50.25 60.0625 53.125 
Q 64.75 56 71.09375 56 
Q 79.640625 56 84.28125 50.015625 
Q 88.921875 44.046875 88.921875 33.015625 
L 88.921875 0 
L 79.890625 0 
L 79.890625 32.71875 
Q 79.890625 40.578125 77.09375 44.375 
Q 74.3125 48.1875 68.609375 48.1875 
Q 61.625 48.1875 57.5625 43.546875 
Q 53.515625 38.921875 53.515625 30.90625 
L 53.515625 0 
L 44.484375 0 
L 44.484375 32.71875 
Q 44.484375 40.625 41.703125 44.40625 
Q 38.921875 48.1875 33.109375 48.1875 
Q 26.21875 48.1875 22.15625 43.53125 
Q 18.109375 38.875 18.109375 30.90625 
L 18.109375 0 
L 9.078125 0 
L 9.078125 54.6875 
L 18.109375 54.6875 
L 18.109375 46.1875 
Q 21.1875 51.21875 25.484375 53.609375 
Q 29.78125 56 35.6875 56 
Q 41.65625 56 45.828125 52.96875 
Q 50 49.953125 52 44.1875 
" id="BitstreamVeraSans-Roman-6d"/>
      <path d="M 54.890625 33.015625 
L 54.890625 0 
L 45.90625 0 
L 45.90625 32.71875 
Q 45.90625 40.484375 42.875 44.328125 
Q 39.84375 48.1875 33.796875 48.1875 
Q 26.515625 48.1875 22.3125 43.546875 
Q 18.109375 38.921875 18.109375 30.90625 
L 18.109375 0 
L 9.078125 0 
L 9.078125 54.6875 
L 18.109375 54.6875 
L 18.109375 46.1875 
Q 21.34375 51.125 25.703125 53.5625 
Q 30.078125 56 35.796875 56 
Q 45.21875 56 50.046875 50.171875 
Q 54.890625 44.34375 54.890625 33.015625 
" id="BitstreamVeraSans-Roman-6e"/>
      <path d="M 31 75.875 
Q 24.46875 64.65625 21.28125 53.65625 
Q 18.109375 42.671875 18.109375 31.390625 
Q 18.109375 20.125 21.3125 9.0625 
Q 24.515625 -2 31 -13.1875 
L 23.1875 -13.1875 
Q 15.875 -1.703125 12.234375 9.375 
Q 8.59375 20.453125 8.59375 31.390625 
Q 8.59375 42.28125 12.203125 53.3125 
Q 15.828125 64.359375 23.1875 75.875 
z
" id="BitstreamVeraSans-Roman-28"/>
      <path d="M 30.609375 48.390625 
Q 23.390625 48.390625 19.1875 42.75 
Q 14.984375 37.109375 14.984375 27.296875 
Q 14.984375 17.484375 19.15625 11.84375 
Q 23.34375 6.203125 30.609375 6.203125 
Q 37.796875 6.203125 41.984375 11.859375 
Q 46.1875 17.53125 46.1875 27.296875 
Q 46.1875 37.015625 41.984375 42.703125 
Q 37.796875 48.390625 30.609375 48.390625 
M 30.609375 56 
Q 42.328125 56 49.015625 48.375 
Q 55.71875 40.765625 55.71875 27.296875 
Q 55.71875 13.875 49.015625 6.21875 
Q 42.328125 -1.421875 30.609375 -1.421875 
Q 18.84375 -1.421875 12.171875 6.21875 
Q 5.515625 13.875 5.515625 27.296875 
Q 5.515625 40.765625 12.171875 48.375 
Q 18.84375 56 30.609375 56 
" id="BitstreamVeraSans-Roman-6f"/>
      <path d="M 9.421875 75.984375 
L 18.40625 75.984375 
L 18.40625 0 
L 9.421875 0 
z
" id="BitstreamVeraSans-Roman-6c"/>
      <path d="M 2.984375 54.6875 
L 12.5 54.6875 
L 29.59375 8.796875 
L 46.6875 54.6875 
L 56.203125 54.6875 
L 35.6875 0 
L 23.484375 0 
z
" id="BitstreamVeraSans-Roman-76"/>
      <path d="M 9.421875 54.6875 
L 18.40625 54.6875 
L 18.40625 0 
L 9.421875 0 
z
M 9.421875 75.984375 
L 18.40625 75.984375 
L 18.40625 64.59375 
L 9.421875 64.59375 
z
" id="BitstreamVeraSans-Roman-69"/>
      <path d="M 4.890625 31.390625 
L 31.203125 31.390625 
L 31.203125 23.390625 
L 4.890625 23.390625 
z
" id="BitstreamVeraSans-Roman-2d"/>
      <path d="M 25.390625 72.90625 
L 33.6875 72.90625 
L 8.296875 -9.28125 
L 0 -9.28125 
z
" id="BitstreamVeraSans-Roman-2f"/>
      <path d="M 56.203125 29.59375 
L 56.203125 25.203125 
L 14.890625 25.203125 
Q 15.484375 15.921875 20.484375 11.0625 
Q 25.484375 6.203125 34.421875 6.203125 
Q 39.59375 6.203125 44.453125 7.46875 
Q 49.3125 8.734375 54.109375 11.28125 
L 54.109375 2.78125 
Q 49.265625 0.734375 44.1875 -0.34375 
Q 39.109375 -1.421875 33.890625 -1.421875 
Q 20.796875 -1.421875 13.15625 6.1875 
Q 5.515625 13.8125 5.515625 26.8125 
Q 5.515625 40.234375 12.765625 48.109375 
Q 20.015625 56 32.328125 56 
Q 43.359375 56 49.78125 48.890625 
Q 56.203125 41.796875 56.203125 29.59375 
M 47.21875 32.234375 
Q 47.125 39.59375 43.09375 43.984375 
Q 39.0625 48.390625 32.421875 48.390625 
Q 24.90625 48.390625 20.390625 44.140625 
Q 15.875 39.890625 15.1875 32.171875 
z
" id="BitstreamVeraSans-Roman-65"/>
      <path d="M 45.40625 46.390625 
L 45.40625 75.984375 
L 54.390625 75.984375 
L 54.390625 0 
L 45.40625 0 
L 45.40625 8.203125 
Q 42.578125 3.328125 38.25 0.953125 
Q 33.9375 -1.421875 27.875 -1.421875 
Q 17.96875 -1.421875 11.734375 6.484375 
Q 5.515625 14.40625 5.515625 27.296875 
Q 5.515625 40.1875 11.734375 48.09375 
Q 17.96875 56 27.875 56 
Q 33.9375 56 38.25 53.625 
Q 42.578125 51.265625 45.40625 46.390625 
M 14.796875 27.296875 
Q 14.796875 17.390625 18.875 11.75 
Q 22.953125 6.109375 30.078125 6.109375 
Q 37.203125 6.109375 41.296875 11.75 
Q 45.40625 17.390625 45.40625 27.296875 
Q 45.40625 37.203125 41.296875 42.84375 
Q 37.203125 48.484375 30.078125 48.484375 
Q 22.953125 48.484375 18.875 42.84375 
Q 14.796875 37.203125 14.796875 27.296875 
" id="BitstreamVeraSans-Roman-64"/>
      <path d="M 45.40625 27.984375 
Q 45.40625 37.75 41.375 43.109375 
Q 37.359375 48.484375 30.078125 48.484375 
Q 22.859375 48.484375 18.828125 43.109375 
Q 14.796875 37.75 14.796875 27.984375 
Q 14.796875 18.265625 18.828125 12.890625 
Q 22.859375 7.515625 30.078125 7.515625 
Q 37.359375 7.515625 41.375 12.890625 
Q 45.40625 18.265625 45.40625 27.984375 
M 54.390625 6.78125 
Q 54.390625 -7.171875 48.1875 -13.984375 
Q 42 -20.796875 29.203125 -20.796875 
Q 24.46875 -20.796875 20.265625 -20.09375 
Q 16.0625 -19.390625 12.109375 -17.921875 
L 12.109375 -9.1875 
Q 16.0625 -11.328125 19.921875 -12.34375 
Q 23.78125 -13.375 27.78125 -13.375 
Q 36.625 -13.375 41.015625 -8.765625 
Q 45.40625 -4.15625 45.40625 5.171875 
L 45.40625 9.625 
Q 42.625 4.78125 38.28125 2.390625 
Q 33.9375 0 27.875 0 
Q 17.828125 0 11.671875 7.65625 
Q 5.515625 15.328125 5.515625 27.984375 
Q 5.515625 40.671875 11.671875 48.328125 
Q 17.828125 56 27.875 56 
Q 33.9375 56 38.28125 53.609375 
Q 42.625 51.21875 45.40625 46.390625 
L 45.40625 54.6875 
L 54.390625 54.6875 
z
" id="BitstreamVeraSans-Roman-67"/>
      <path d="M 37.109375 75.984375 
L 37.109375 68.5 
L 28.515625 68.5 
Q 23.6875 68.5 21.796875 66.546875 
Q 19.921875 64.59375 19.921875 59.515625 
L 19.921875 54.6875 
L 34.71875 54.6875 
L 34.71875 47.703125 
L 19.921875 47.703125 
L 19.921875 0 
L 10.890625 0 
L 10.890625 47.703125 
L 2.296875 47.703125 
L 2.296875 54.6875 
L 10.890625 54.6875 
L 10.890625 58.5 
Q 10.890625 67.625 15.140625 71.796875 
Q 19.390625 75.984375 28.609375 75.984375 
z
" id="BitstreamVeraSans-Roman-66"/>
      <path d="M 34.28125 27.484375 
Q 23.390625 27.484375 19.1875 25 
Q 14.984375 22.515625 14.984375 16.5 
Q 14.984375 11.71875 18.140625 8.90625 
Q 21.296875 6.109375 26.703125 6.109375 
Q 34.1875 6.109375 38.703125 11.40625 
Q 43.21875 16.703125 43.21875 25.484375 
L 43.21875 27.484375 
z
M 52.203125 31.203125 
L 52.203125 0 
L 43.21875 0 
L 43.21875 8.296875 
Q 40.140625 3.328125 35.546875 0.953125 
Q 30.953125 -1.421875 24.3125 -1.421875 
Q 15.921875 -1.421875 10.953125 3.296875 
Q 6 8.015625 6 15.921875 
Q 6 25.140625 12.171875 29.828125 
Q 18.359375 34.515625 30.609375 34.515625 
L 43.21875 34.515625 
L 43.21875 35.40625 
Q 43.21875 41.609375 39.140625 45 
Q 35.0625 48.390625 27.6875 48.390625 
Q 23 48.390625 18.546875 47.265625 
Q 14.109375 46.140625 10.015625 43.890625 
L 10.015625 52.203125 
Q 14.9375 54.109375 19.578125 55.046875 
Q 24.21875 56 28.609375 56 
Q 40.484375 56 46.34375 49.84375 
Q 52.203125 43.703125 52.203125 31.203125 
" id="BitstreamVeraSans-Roman-61"/>
      <path d="M 44.28125 53.078125 
L 44.28125 44.578125 
Q 40.484375 46.53125 36.375 47.5 
Q 32.28125 48.484375 27.875 48.484375 
Q 21.1875 48.484375 17.84375 46.4375 
Q 14.5 44.390625 14.5 40.28125 
Q 14.5 37.15625 16.890625 35.375 
Q 19.28125 33.59375 26.515625 31.984375 
L 29.59375 31.296875 
Q 39.15625 29.25 43.1875 25.515625 
Q 47.21875 21.78125 47.21875 15.09375 
Q 47.21875 7.46875 41.1875 3.015625 
Q 35.15625 -1.421875 24.609375 -1.421875 
Q 20.21875 -1.421875 15.453125 -0.5625 
Q 10.6875 0.296875 5.421875 2 
L 5.421875 11.28125 
Q 10.40625 8.6875 15.234375 7.390625 
Q 20.0625 6.109375 24.8125 6.109375 
Q 31.15625 6.109375 34.5625 8.28125 
Q 37.984375 10.453125 37.984375 14.40625 
Q 37.984375 18.0625 35.515625 20.015625 
Q 33.0625 21.96875 24.703125 23.78125 
L 21.578125 24.515625 
Q 13.234375 26.265625 9.515625 29.90625 
Q 5.8125 33.546875 5.8125 39.890625 
Q 5.8125 47.609375 11.28125 51.796875 
Q 16.75 56 26.8125 56 
Q 31.78125 56 36.171875 55.265625 
Q 40.578125 54.546875 44.28125 53.078125 
" id="BitstreamVeraSans-Roman-73"/>
      <path d="M 8.015625 75.875 
L 15.828125 75.875 
Q 23.140625 64.359375 26.78125 53.3125 
Q 30.421875 42.28125 30.421875 31.390625 
Q 30.421875 20.453125 26.78125 9.375 
Q 23.140625 -1.703125 15.828125 -13.1875 
L 8.015625 -13.1875 
Q 14.5 -2 17.703125 9.0625 
Q 20.90625 20.125 20.90625 31.390625 
Q 20.90625 42.671875 17.703125 53.65625 
Q 14.5 64.65625 8.015625 75.875 
" id="BitstreamVeraSans-Roman-29"/>
     </defs>
     <g transform="translate(110.516276666 345.4628125)scale(0.18 -0.18)">
      <use xlink:href="#BitstreamVeraSans-Roman-6c"/>
      <use x="27.783203125" xlink:href="#BitstreamVeraSans-Roman-6f"/>
      <use x="88.96484375" xlink:href="#BitstreamVeraSans-Roman-67"/>
      <use x="152.44140625" xlink:href="#BitstreamVeraSans-Roman-31"/>
      <use x="216.064453125" xlink:href="#BitstreamVeraSans-Roman-30"/>
      <use x="279.6875" xlink:href="#BitstreamVeraSans-Roman-20"/>
      <use x="311.474609375" xlink:href="#BitstreamVeraSans-Roman-6f"/>
      <use x="372.65625" xlink:href="#BitstreamVeraSans-Roman-66"/>
      <use x="407.861328125" xlink:href="#BitstreamVeraSans-Roman-20"/>
      <use x="439.6484375" xlink:href="#BitstreamVeraSans-Roman-28"/>
      <use x="478.662109375" xlink:href="#BitstreamVeraSans-Roman-23"/>
      <use x="562.451171875" xlink:href="#BitstreamVeraSans-Roman-20"/>
      <use x="594.23828125" xlink:href="#BitstreamVeraSans-Roman-66"/>
      <use x="629.365234375" xlink:href="#BitstreamVeraSans-Roman-2d"/>
      <use x="665.44921875" xlink:href="#BitstreamVeraSans-Roman-65"/>
      <use x="726.97265625" xlink:href="#BitstreamVeraSans-Roman-76"/>
      <use x="786.15234375" xlink:href="#BitstreamVeraSans-Roman-61"/>
      <use x="847.431640625" xlink:href="#BitstreamVeraSans-Roman-6c"/>
      <use x="875.21484375" xlink:href="#BitstreamVeraSans-Roman-73"/>
      <use x="927.314453125" xlink:href="#BitstreamVeraSans-Roman-20"/>
      <use x="959.1015625" xlink:href="#BitstreamVeraSans-Roman-2f"/>
      <use x="992.79296875" xlink:href="#BitstreamVeraSans-Roman-20"/>
      <use x="1024.58007812" xlink:href="#BitstreamVeraSans-Roman-64"/>
      <use x="1088.05664062" xlink:href="#BitstreamVeraSans-Roman-69"/>
      <use x="1115.83984375" xlink:href="#BitstreamVeraSans-Roman-6d"/>
      <use x="1213.25195312" xlink:href="#BitstreamVeraSans-Roman-65"/>
      <use x="1274.77539062" xlink:href="#BitstreamVeraSans-Roman-6e"/>
      <use x="1338.15429688" xlink:href="#BitstreamVeraSans-Roman-73"/>
      <use x="1390.25390625" xlink:href="#BitstreamVeraSans-Roman-69"/>
      <use x="1418.03710938" xlink:href="#BitstreamVeraSans-Roman-6f"/>
      <use x="1479.21875" xlink:href="#BitstreamVeraSans-Roman-6e"/>
      <use x="1542.59765625" xlink:href="#BitstreamVeraSans-Roman-29"/>
     </g>
    </g>
   </g>
   <g id="matplotlib.axis_2">
    <g id="ytick_1">
     <g id="line2d_93">
      <path clip-path="url(#pbac91498c3)" d="M 74.30112 303.429375 
L 431.42112 303.429375 
" style="fill:none;stroke:#000000;stroke-dasharray:1.000000,3.000000;stroke-dashoffset:0.0;stroke-width:0.5;"/>
     </g>
     <g id="line2d_94">
      <defs>
       <path d="M 0 0 
L 4 0 
" id="mab40ef2179" style="stroke:#000000;stroke-width:0.5;"/>
      </defs>
      <g>
       <use style="stroke:#000000;stroke-width:0.5;" x="74.3011204163" xlink:href="#mab40ef2179" y="303.429375"/>
      </g>
     </g>
     <g id="line2d_95">
      <defs>
       <path d="M 0 0 
L -4 0 
" id="m31eac1940a" style="stroke:#000000;stroke-width:0.5;"/>
      </defs>
      <g>
       <use style="stroke:#000000;stroke-width:0.5;" x="431.421120416" xlink:href="#m31eac1940a" y="303.429375"/>
      </g>
     </g>
     <g id="text_6">
      <!-- 0.0 -->
      <defs>
       <path d="M 10.6875 12.40625 
L 21 12.40625 
L 21 0 
L 10.6875 0 
z
" id="BitstreamVeraSans-Roman-2e"/>
      </defs>
      <g transform="translate(38.4948704163 308.948125)scale(0.2 -0.2)">
       <use xlink:href="#BitstreamVeraSans-Roman-30"/>
       <use x="63.623046875" xlink:href="#BitstreamVeraSans-Roman-2e"/>
       <use x="95.41015625" xlink:href="#BitstreamVeraSans-Roman-30"/>
      </g>
     </g>
    </g>
    <g id="ytick_2">
     <g id="line2d_96">
      <path clip-path="url(#pbac91498c3)" d="M 74.30112 248.68086 
L 431.42112 248.68086 
" style="fill:none;stroke:#000000;stroke-dasharray:1.000000,3.000000;stroke-dashoffset:0.0;stroke-width:0.5;"/>
     </g>
     <g id="line2d_97">
      <g>
       <use style="stroke:#000000;stroke-width:0.5;" x="74.3011204163" xlink:href="#mab40ef2179" y="248.680860149"/>
      </g>
     </g>
     <g id="line2d_98">
      <g>
       <use style="stroke:#000000;stroke-width:0.5;" x="431.421120416" xlink:href="#m31eac1940a" y="248.680860149"/>
      </g>
     </g>
     <g id="text_7">
      <!-- 0.2 -->
      <g transform="translate(38.4948704163 254.199610149)scale(0.2 -0.2)">
       <use xlink:href="#BitstreamVeraSans-Roman-30"/>
       <use x="63.623046875" xlink:href="#BitstreamVeraSans-Roman-2e"/>
       <use x="95.41015625" xlink:href="#BitstreamVeraSans-Roman-32"/>
      </g>
     </g>
    </g>
    <g id="ytick_3">
     <g id="line2d_99">
      <path clip-path="url(#pbac91498c3)" d="M 74.30112 193.932345 
L 431.42112 193.932345 
" style="fill:none;stroke:#000000;stroke-dasharray:1.000000,3.000000;stroke-dashoffset:0.0;stroke-width:0.5;"/>
     </g>
     <g id="line2d_100">
      <g>
       <use style="stroke:#000000;stroke-width:0.5;" x="74.3011204163" xlink:href="#mab40ef2179" y="193.932345297"/>
      </g>
     </g>
     <g id="line2d_101">
      <g>
       <use style="stroke:#000000;stroke-width:0.5;" x="431.421120416" xlink:href="#m31eac1940a" y="193.932345297"/>
      </g>
     </g>
     <g id="text_8">
      <!-- 0.4 -->
      <defs>
       <path d="M 37.796875 64.3125 
L 12.890625 25.390625 
L 37.796875 25.390625 
z
M 35.203125 72.90625 
L 47.609375 72.90625 
L 47.609375 25.390625 
L 58.015625 25.390625 
L 58.015625 17.1875 
L 47.609375 17.1875 
L 47.609375 0 
L 37.796875 0 
L 37.796875 17.1875 
L 4.890625 17.1875 
L 4.890625 26.703125 
z
" id="BitstreamVeraSans-Roman-34"/>
      </defs>
      <g transform="translate(38.4948704163 199.451095297)scale(0.2 -0.2)">
       <use xlink:href="#BitstreamVeraSans-Roman-30"/>
       <use x="63.623046875" xlink:href="#BitstreamVeraSans-Roman-2e"/>
       <use x="95.41015625" xlink:href="#BitstreamVeraSans-Roman-34"/>
      </g>
     </g>
    </g>
    <g id="ytick_4">
     <g id="line2d_102">
      <path clip-path="url(#pbac91498c3)" d="M 74.30112 139.18383 
L 431.42112 139.18383 
" style="fill:none;stroke:#000000;stroke-dasharray:1.000000,3.000000;stroke-dashoffset:0.0;stroke-width:0.5;"/>
     </g>
     <g id="line2d_103">
      <g>
       <use style="stroke:#000000;stroke-width:0.5;" x="74.3011204163" xlink:href="#mab40ef2179" y="139.183830446"/>
      </g>
     </g>
     <g id="line2d_104">
      <g>
       <use style="stroke:#000000;stroke-width:0.5;" x="431.421120416" xlink:href="#m31eac1940a" y="139.183830446"/>
      </g>
     </g>
     <g id="text_9">
      <!-- 0.6 -->
      <defs>
       <path d="M 33.015625 40.375 
Q 26.375 40.375 22.484375 35.828125 
Q 18.609375 31.296875 18.609375 23.390625 
Q 18.609375 15.53125 22.484375 10.953125 
Q 26.375 6.390625 33.015625 6.390625 
Q 39.65625 6.390625 43.53125 10.953125 
Q 47.40625 15.53125 47.40625 23.390625 
Q 47.40625 31.296875 43.53125 35.828125 
Q 39.65625 40.375 33.015625 40.375 
M 52.59375 71.296875 
L 52.59375 62.3125 
Q 48.875 64.0625 45.09375 64.984375 
Q 41.3125 65.921875 37.59375 65.921875 
Q 27.828125 65.921875 22.671875 59.328125 
Q 17.53125 52.734375 16.796875 39.40625 
Q 19.671875 43.65625 24.015625 45.921875 
Q 28.375 48.1875 33.59375 48.1875 
Q 44.578125 48.1875 50.953125 41.515625 
Q 57.328125 34.859375 57.328125 23.390625 
Q 57.328125 12.15625 50.6875 5.359375 
Q 44.046875 -1.421875 33.015625 -1.421875 
Q 20.359375 -1.421875 13.671875 8.265625 
Q 6.984375 17.96875 6.984375 36.375 
Q 6.984375 53.65625 15.1875 63.9375 
Q 23.390625 74.21875 37.203125 74.21875 
Q 40.921875 74.21875 44.703125 73.484375 
Q 48.484375 72.75 52.59375 71.296875 
" id="BitstreamVeraSans-Roman-36"/>
      </defs>
      <g transform="translate(38.4948704163 144.702580446)scale(0.2 -0.2)">
       <use xlink:href="#BitstreamVeraSans-Roman-30"/>
       <use x="63.623046875" xlink:href="#BitstreamVeraSans-Roman-2e"/>
       <use x="95.41015625" xlink:href="#BitstreamVeraSans-Roman-36"/>
      </g>
     </g>
    </g>
    <g id="ytick_5">
     <g id="line2d_105">
      <path clip-path="url(#pbac91498c3)" d="M 74.30112 84.435316 
L 431.42112 84.435316 
" style="fill:none;stroke:#000000;stroke-dasharray:1.000000,3.000000;stroke-dashoffset:0.0;stroke-width:0.5;"/>
     </g>
     <g id="line2d_106">
      <g>
       <use style="stroke:#000000;stroke-width:0.5;" x="74.3011204163" xlink:href="#mab40ef2179" y="84.4353155941"/>
      </g>
     </g>
     <g id="line2d_107">
      <g>
       <use style="stroke:#000000;stroke-width:0.5;" x="431.421120416" xlink:href="#m31eac1940a" y="84.4353155941"/>
      </g>
     </g>
     <g id="text_10">
      <!-- 0.8 -->
      <defs>
       <path d="M 31.78125 34.625 
Q 24.75 34.625 20.71875 30.859375 
Q 16.703125 27.09375 16.703125 20.515625 
Q 16.703125 13.921875 20.71875 10.15625 
Q 24.75 6.390625 31.78125 6.390625 
Q 38.8125 6.390625 42.859375 10.171875 
Q 46.921875 13.96875 46.921875 20.515625 
Q 46.921875 27.09375 42.890625 30.859375 
Q 38.875 34.625 31.78125 34.625 
M 21.921875 38.8125 
Q 15.578125 40.375 12.03125 44.71875 
Q 8.5 49.078125 8.5 55.328125 
Q 8.5 64.0625 14.71875 69.140625 
Q 20.953125 74.21875 31.78125 74.21875 
Q 42.671875 74.21875 48.875 69.140625 
Q 55.078125 64.0625 55.078125 55.328125 
Q 55.078125 49.078125 51.53125 44.71875 
Q 48 40.375 41.703125 38.8125 
Q 48.828125 37.15625 52.796875 32.3125 
Q 56.78125 27.484375 56.78125 20.515625 
Q 56.78125 9.90625 50.3125 4.234375 
Q 43.84375 -1.421875 31.78125 -1.421875 
Q 19.734375 -1.421875 13.25 4.234375 
Q 6.78125 9.90625 6.78125 20.515625 
Q 6.78125 27.484375 10.78125 32.3125 
Q 14.796875 37.15625 21.921875 38.8125 
M 18.3125 54.390625 
Q 18.3125 48.734375 21.84375 45.5625 
Q 25.390625 42.390625 31.78125 42.390625 
Q 38.140625 42.390625 41.71875 45.5625 
Q 45.3125 48.734375 45.3125 54.390625 
Q 45.3125 60.0625 41.71875 63.234375 
Q 38.140625 66.40625 31.78125 66.40625 
Q 25.390625 66.40625 21.84375 63.234375 
Q 18.3125 60.0625 18.3125 54.390625 
" id="BitstreamVeraSans-Roman-38"/>
      </defs>
      <g transform="translate(38.4948704163 89.9540655941)scale(0.2 -0.2)">
       <use xlink:href="#BitstreamVeraSans-Roman-30"/>
       <use x="63.623046875" xlink:href="#BitstreamVeraSans-Roman-2e"/>
       <use x="95.41015625" xlink:href="#BitstreamVeraSans-Roman-38"/>
      </g>
     </g>
    </g>
    <g id="ytick_6">
     <g id="line2d_108">
      <path clip-path="url(#pbac91498c3)" d="M 74.30112 29.686801 
L 431.42112 29.686801 
" style="fill:none;stroke:#000000;stroke-dasharray:1.000000,3.000000;stroke-dashoffset:0.0;stroke-width:0.5;"/>
     </g>
     <g id="line2d_109">
      <g>
       <use style="stroke:#000000;stroke-width:0.5;" x="74.3011204163" xlink:href="#mab40ef2179" y="29.6868007426"/>
      </g>
     </g>
     <g id="line2d_110">
      <g>
       <use style="stroke:#000000;stroke-width:0.5;" x="431.421120416" xlink:href="#m31eac1940a" y="29.6868007426"/>
      </g>
     </g>
     <g id="text_11">
      <!-- 1.0 -->
      <g transform="translate(38.4948704163 35.2055507426)scale(0.2 -0.2)">
       <use xlink:href="#BitstreamVeraSans-Roman-31"/>
       <use x="63.623046875" xlink:href="#BitstreamVeraSans-Roman-2e"/>
       <use x="95.41015625" xlink:href="#BitstreamVeraSans-Roman-30"/>
      </g>
     </g>
    </g>
    <g id="text_12">
     <!-- Proportion of function+target pairs -->
     <defs>
      <path d="M 19.671875 64.796875 
L 19.671875 37.40625 
L 32.078125 37.40625 
Q 38.96875 37.40625 42.71875 40.96875 
Q 46.484375 44.53125 46.484375 51.125 
Q 46.484375 57.671875 42.71875 61.234375 
Q 38.96875 64.796875 32.078125 64.796875 
z
M 9.8125 72.90625 
L 32.078125 72.90625 
Q 44.34375 72.90625 50.609375 67.359375 
Q 56.890625 61.8125 56.890625 51.125 
Q 56.890625 40.328125 50.609375 34.8125 
Q 44.34375 29.296875 32.078125 29.296875 
L 19.671875 29.296875 
L 19.671875 0 
L 9.8125 0 
z
" id="BitstreamVeraSans-Roman-50"/>
      <path d="M 46 62.703125 
L 46 35.5 
L 73.1875 35.5 
L 73.1875 27.203125 
L 46 27.203125 
L 46 0 
L 37.796875 0 
L 37.796875 27.203125 
L 10.59375 27.203125 
L 10.59375 35.5 
L 37.796875 35.5 
L 37.796875 62.703125 
z
" id="BitstreamVeraSans-Roman-2b"/>
      <path d="M 18.109375 8.203125 
L 18.109375 -20.796875 
L 9.078125 -20.796875 
L 9.078125 54.6875 
L 18.109375 54.6875 
L 18.109375 46.390625 
Q 20.953125 51.265625 25.265625 53.625 
Q 29.59375 56 35.59375 56 
Q 45.5625 56 51.78125 48.09375 
Q 58.015625 40.1875 58.015625 27.296875 
Q 58.015625 14.40625 51.78125 6.484375 
Q 45.5625 -1.421875 35.59375 -1.421875 
Q 29.59375 -1.421875 25.265625 0.953125 
Q 20.953125 3.328125 18.109375 8.203125 
M 48.6875 27.296875 
Q 48.6875 37.203125 44.609375 42.84375 
Q 40.53125 48.484375 33.40625 48.484375 
Q 26.265625 48.484375 22.1875 42.84375 
Q 18.109375 37.203125 18.109375 27.296875 
Q 18.109375 17.390625 22.1875 11.75 
Q 26.265625 6.109375 33.40625 6.109375 
Q 40.53125 6.109375 44.609375 11.75 
Q 48.6875 17.390625 48.6875 27.296875 
" id="BitstreamVeraSans-Roman-70"/>
      <path d="M 18.3125 70.21875 
L 18.3125 54.6875 
L 36.8125 54.6875 
L 36.8125 47.703125 
L 18.3125 47.703125 
L 18.3125 18.015625 
Q 18.3125 11.328125 20.140625 9.421875 
Q 21.96875 7.515625 27.59375 7.515625 
L 36.8125 7.515625 
L 36.8125 0 
L 27.59375 0 
Q 17.1875 0 13.234375 3.875 
Q 9.28125 7.765625 9.28125 18.015625 
L 9.28125 47.703125 
L 2.6875 47.703125 
L 2.6875 54.6875 
L 9.28125 54.6875 
L 9.28125 70.21875 
z
" id="BitstreamVeraSans-Roman-74"/>
      <path d="M 8.5 21.578125 
L 8.5 54.6875 
L 17.484375 54.6875 
L 17.484375 21.921875 
Q 17.484375 14.15625 20.5 10.265625 
Q 23.53125 6.390625 29.59375 6.390625 
Q 36.859375 6.390625 41.078125 11.03125 
Q 45.3125 15.671875 45.3125 23.6875 
L 45.3125 54.6875 
L 54.296875 54.6875 
L 54.296875 0 
L 45.3125 0 
L 45.3125 8.40625 
Q 42.046875 3.421875 37.71875 1 
Q 33.40625 -1.421875 27.6875 -1.421875 
Q 18.265625 -1.421875 13.375 4.4375 
Q 8.5 10.296875 8.5 21.578125 
" id="BitstreamVeraSans-Roman-75"/>
      <path d="M 41.109375 46.296875 
Q 39.59375 47.171875 37.8125 47.578125 
Q 36.03125 48 33.890625 48 
Q 26.265625 48 22.1875 43.046875 
Q 18.109375 38.09375 18.109375 28.8125 
L 18.109375 0 
L 9.078125 0 
L 9.078125 54.6875 
L 18.109375 54.6875 
L 18.109375 46.1875 
Q 20.953125 51.171875 25.484375 53.578125 
Q 30.03125 56 36.53125 56 
Q 37.453125 56 38.578125 55.875 
Q 39.703125 55.765625 41.0625 55.515625 
z
" id="BitstreamVeraSans-Roman-72"/>
      <path d="M 48.78125 52.59375 
L 48.78125 44.1875 
Q 44.96875 46.296875 41.140625 47.34375 
Q 37.3125 48.390625 33.40625 48.390625 
Q 24.65625 48.390625 19.8125 42.84375 
Q 14.984375 37.3125 14.984375 27.296875 
Q 14.984375 17.28125 19.8125 11.734375 
Q 24.65625 6.203125 33.40625 6.203125 
Q 37.3125 6.203125 41.140625 7.25 
Q 44.96875 8.296875 48.78125 10.40625 
L 48.78125 2.09375 
Q 45.015625 0.34375 40.984375 -0.53125 
Q 36.96875 -1.421875 32.421875 -1.421875 
Q 20.0625 -1.421875 12.78125 6.34375 
Q 5.515625 14.109375 5.515625 27.296875 
Q 5.515625 40.671875 12.859375 48.328125 
Q 20.21875 56 33.015625 56 
Q 37.15625 56 41.109375 55.140625 
Q 45.0625 54.296875 48.78125 52.59375 
" id="BitstreamVeraSans-Roman-63"/>
     </defs>
     <g transform="translate(29.7514329163 323.17875)rotate(-90.0)scale(0.18 -0.18)">
      <use xlink:href="#BitstreamVeraSans-Roman-50"/>
      <use x="60.287109375" xlink:href="#BitstreamVeraSans-Roman-72"/>
      <use x="101.369140625" xlink:href="#BitstreamVeraSans-Roman-6f"/>
      <use x="162.55078125" xlink:href="#BitstreamVeraSans-Roman-70"/>
      <use x="226.02734375" xlink:href="#BitstreamVeraSans-Roman-6f"/>
      <use x="287.208984375" xlink:href="#BitstreamVeraSans-Roman-72"/>
      <use x="328.322265625" xlink:href="#BitstreamVeraSans-Roman-74"/>
      <use x="367.53125" xlink:href="#BitstreamVeraSans-Roman-69"/>
      <use x="395.314453125" xlink:href="#BitstreamVeraSans-Roman-6f"/>
      <use x="456.49609375" xlink:href="#BitstreamVeraSans-Roman-6e"/>
      <use x="519.875" xlink:href="#BitstreamVeraSans-Roman-20"/>
      <use x="551.662109375" xlink:href="#BitstreamVeraSans-Roman-6f"/>
      <use x="612.84375" xlink:href="#BitstreamVeraSans-Roman-66"/>
      <use x="648.048828125" xlink:href="#BitstreamVeraSans-Roman-20"/>
      <use x="679.8359375" xlink:href="#BitstreamVeraSans-Roman-66"/>
      <use x="715.041015625" xlink:href="#BitstreamVeraSans-Roman-75"/>
      <use x="778.419921875" xlink:href="#BitstreamVeraSans-Roman-6e"/>
      <use x="841.798828125" xlink:href="#BitstreamVeraSans-Roman-63"/>
      <use x="896.779296875" xlink:href="#BitstreamVeraSans-Roman-74"/>
      <use x="935.98828125" xlink:href="#BitstreamVeraSans-Roman-69"/>
      <use x="963.771484375" xlink:href="#BitstreamVeraSans-Roman-6f"/>
      <use x="1024.953125" xlink:href="#BitstreamVeraSans-Roman-6e"/>
      <use x="1088.33203125" xlink:href="#BitstreamVeraSans-Roman-2b"/>
      <use x="1172.12109375" xlink:href="#BitstreamVeraSans-Roman-74"/>
      <use x="1211.33007812" xlink:href="#BitstreamVeraSans-Roman-61"/>
      <use x="1272.609375" xlink:href="#BitstreamVeraSans-Roman-72"/>
      <use x="1313.70703125" xlink:href="#BitstreamVeraSans-Roman-67"/>
      <use x="1377.18359375" xlink:href="#BitstreamVeraSans-Roman-65"/>
      <use x="1438.70703125" xlink:href="#BitstreamVeraSans-Roman-74"/>
      <use x="1477.91601562" xlink:href="#BitstreamVeraSans-Roman-20"/>
      <use x="1509.703125" xlink:href="#BitstreamVeraSans-Roman-70"/>
      <use x="1573.1796875" xlink:href="#BitstreamVeraSans-Roman-61"/>
      <use x="1634.45898438" xlink:href="#BitstreamVeraSans-Roman-69"/>
      <use x="1662.2421875" xlink:href="#BitstreamVeraSans-Roman-72"/>
      <use x="1703.35546875" xlink:href="#BitstreamVeraSans-Roman-73"/>
     </g>
    </g>
   </g>
   <g id="text_13">
    <!-- standard ga -->
    <g transform="translate(399.741120416 302.093586015)scale(0.15 -0.15)">
     <use xlink:href="#BitstreamVeraSans-Roman-73"/>
     <use x="52.099609375" xlink:href="#BitstreamVeraSans-Roman-74"/>
     <use x="91.30859375" xlink:href="#BitstreamVeraSans-Roman-61"/>
     <use x="152.587890625" xlink:href="#BitstreamVeraSans-Roman-6e"/>
     <use x="215.966796875" xlink:href="#BitstreamVeraSans-Roman-64"/>
     <use x="279.443359375" xlink:href="#BitstreamVeraSans-Roman-61"/>
     <use x="340.72265625" xlink:href="#BitstreamVeraSans-Roman-72"/>
     <use x="381.8203125" xlink:href="#BitstreamVeraSans-Roman-64"/>
     <use x="445.296875" xlink:href="#BitstreamVeraSans-Roman-20"/>
     <use x="477.083984375" xlink:href="#BitstreamVeraSans-Roman-67"/>
     <use x="540.560546875" xlink:href="#BitstreamVeraSans-Roman-61"/>
    </g>
   </g>
   <g id="text_14">
    <!-- diffusion ga -->
    <g transform="translate(399.741120416 214.495962252)scale(0.15 -0.15)">
     <use xlink:href="#BitstreamVeraSans-Roman-64"/>
     <use x="63.4765625" xlink:href="#BitstreamVeraSans-Roman-69"/>
     <use x="91.259765625" xlink:href="#BitstreamVeraSans-Roman-66"/>
     <use x="126.46484375" xlink:href="#BitstreamVeraSans-Roman-66"/>
     <use x="161.669921875" xlink:href="#BitstreamVeraSans-Roman-75"/>
     <use x="225.048828125" xlink:href="#BitstreamVeraSans-Roman-73"/>
     <use x="277.1484375" xlink:href="#BitstreamVeraSans-Roman-69"/>
     <use x="304.931640625" xlink:href="#BitstreamVeraSans-Roman-6f"/>
     <use x="366.11328125" xlink:href="#BitstreamVeraSans-Roman-6e"/>
     <use x="429.4921875" xlink:href="#BitstreamVeraSans-Roman-20"/>
     <use x="461.279296875" xlink:href="#BitstreamVeraSans-Roman-67"/>
     <use x="524.755859375" xlink:href="#BitstreamVeraSans-Roman-61"/>
    </g>
   </g>
   <g id="text_15">
    <!-- migration ga -->
    <g transform="translate(399.741120416 126.89833849)scale(0.15 -0.15)">
     <use xlink:href="#BitstreamVeraSans-Roman-6d"/>
     <use x="97.412109375" xlink:href="#BitstreamVeraSans-Roman-69"/>
     <use x="125.1953125" xlink:href="#BitstreamVeraSans-Roman-67"/>
     <use x="188.671875" xlink:href="#BitstreamVeraSans-Roman-72"/>
     <use x="229.78515625" xlink:href="#BitstreamVeraSans-Roman-61"/>
     <use x="291.064453125" xlink:href="#BitstreamVeraSans-Roman-74"/>
     <use x="330.2734375" xlink:href="#BitstreamVeraSans-Roman-69"/>
     <use x="358.056640625" xlink:href="#BitstreamVeraSans-Roman-6f"/>
     <use x="419.23828125" xlink:href="#BitstreamVeraSans-Roman-6e"/>
     <use x="482.6171875" xlink:href="#BitstreamVeraSans-Roman-20"/>
     <use x="514.404296875" xlink:href="#BitstreamVeraSans-Roman-67"/>
     <use x="577.880859375" xlink:href="#BitstreamVeraSans-Roman-61"/>
    </g>
   </g>
   <g id="text_16">
    <!-- best 2009 -->
    <defs>
     <path d="M 10.984375 1.515625 
L 10.984375 10.5 
Q 14.703125 8.734375 18.5 7.8125 
Q 22.3125 6.890625 25.984375 6.890625 
Q 35.75 6.890625 40.890625 13.453125 
Q 46.046875 20.015625 46.78125 33.40625 
Q 43.953125 29.203125 39.59375 26.953125 
Q 35.25 24.703125 29.984375 24.703125 
Q 19.046875 24.703125 12.671875 31.3125 
Q 6.296875 37.9375 6.296875 49.421875 
Q 6.296875 60.640625 12.9375 67.421875 
Q 19.578125 74.21875 30.609375 74.21875 
Q 43.265625 74.21875 49.921875 64.515625 
Q 56.59375 54.828125 56.59375 36.375 
Q 56.59375 19.140625 48.40625 8.859375 
Q 40.234375 -1.421875 26.421875 -1.421875 
Q 22.703125 -1.421875 18.890625 -0.6875 
Q 15.09375 0.046875 10.984375 1.515625 
M 30.609375 32.421875 
Q 37.25 32.421875 41.125 36.953125 
Q 45.015625 41.5 45.015625 49.421875 
Q 45.015625 57.28125 41.125 61.84375 
Q 37.25 66.40625 30.609375 66.40625 
Q 23.96875 66.40625 20.09375 61.84375 
Q 16.21875 57.28125 16.21875 49.421875 
Q 16.21875 41.5 20.09375 36.953125 
Q 23.96875 32.421875 30.609375 32.421875 
" id="BitstreamVeraSans-Roman-39"/>
     <path d="M 48.6875 27.296875 
Q 48.6875 37.203125 44.609375 42.84375 
Q 40.53125 48.484375 33.40625 48.484375 
Q 26.265625 48.484375 22.1875 42.84375 
Q 18.109375 37.203125 18.109375 27.296875 
Q 18.109375 17.390625 22.1875 11.75 
Q 26.265625 6.109375 33.40625 6.109375 
Q 40.53125 6.109375 44.609375 11.75 
Q 48.6875 17.390625 48.6875 27.296875 
M 18.109375 46.390625 
Q 20.953125 51.265625 25.265625 53.625 
Q 29.59375 56 35.59375 56 
Q 45.5625 56 51.78125 48.09375 
Q 58.015625 40.1875 58.015625 27.296875 
Q 58.015625 14.40625 51.78125 6.484375 
Q 45.5625 -1.421875 35.59375 -1.421875 
Q 29.59375 -1.421875 25.265625 0.953125 
Q 20.953125 3.328125 18.109375 8.203125 
L 18.109375 0 
L 9.078125 0 
L 9.078125 75.984375 
L 18.109375 75.984375 
z
" id="BitstreamVeraSans-Roman-62"/>
    </defs>
    <g transform="translate(399.741120416 39.3007147277)scale(0.15 -0.15)">
     <use xlink:href="#BitstreamVeraSans-Roman-62"/>
     <use x="63.4765625" xlink:href="#BitstreamVeraSans-Roman-65"/>
     <use x="125.0" xlink:href="#BitstreamVeraSans-Roman-73"/>
     <use x="177.099609375" xlink:href="#BitstreamVeraSans-Roman-74"/>
     <use x="216.30859375" xlink:href="#BitstreamVeraSans-Roman-20"/>
     <use x="248.095703125" xlink:href="#BitstreamVeraSans-Roman-32"/>
     <use x="311.71875" xlink:href="#BitstreamVeraSans-Roman-30"/>
     <use x="375.341796875" xlink:href="#BitstreamVeraSans-Roman-30"/>
     <use x="438.96484375" xlink:href="#BitstreamVeraSans-Roman-39"/>
    </g>
   </g>
   <g id="text_17">
    <!-- f6-9,5-D -->
    <defs>
     <path d="M 11.71875 12.40625 
L 22.015625 12.40625 
L 22.015625 4 
L 14.015625 -11.625 
L 7.71875 -11.625 
L 11.71875 4 
z
" id="BitstreamVeraSans-Roman-2c"/>
     <path d="M 19.671875 64.796875 
L 19.671875 8.109375 
L 31.59375 8.109375 
Q 46.6875 8.109375 53.6875 14.9375 
Q 60.6875 21.78125 60.6875 36.53125 
Q 60.6875 51.171875 53.6875 57.984375 
Q 46.6875 64.796875 31.59375 64.796875 
z
M 9.8125 72.90625 
L 30.078125 72.90625 
Q 51.265625 72.90625 61.171875 64.09375 
Q 71.09375 55.28125 71.09375 36.53125 
Q 71.09375 17.671875 61.125 8.828125 
Q 51.171875 0 30.078125 0 
L 9.8125 0 
z
" id="BitstreamVeraSans-Roman-44"/>
     <path d="M 10.796875 72.90625 
L 49.515625 72.90625 
L 49.515625 64.59375 
L 19.828125 64.59375 
L 19.828125 46.734375 
Q 21.96875 47.46875 24.109375 47.828125 
Q 26.265625 48.1875 28.421875 48.1875 
Q 40.625 48.1875 47.75 41.5 
Q 54.890625 34.8125 54.890625 23.390625 
Q 54.890625 11.625 47.5625 5.09375 
Q 40.234375 -1.421875 26.90625 -1.421875 
Q 22.3125 -1.421875 17.546875 -0.640625 
Q 12.796875 0.140625 7.71875 1.703125 
L 7.71875 11.625 
Q 12.109375 9.234375 16.796875 8.0625 
Q 21.484375 6.890625 26.703125 6.890625 
Q 35.15625 6.890625 40.078125 11.328125 
Q 45.015625 15.765625 45.015625 23.390625 
Q 45.015625 31 40.078125 35.4375 
Q 35.15625 39.890625 26.703125 39.890625 
Q 22.75 39.890625 18.8125 39.015625 
Q 14.890625 38.140625 10.796875 36.28125 
z
" id="BitstreamVeraSans-Roman-35"/>
    </defs>
    <g transform="translate(77.8723204163 47.67585)scale(0.2 -0.2)">
     <use xlink:href="#BitstreamVeraSans-Roman-66"/>
     <use x="35.205078125" xlink:href="#BitstreamVeraSans-Roman-36"/>
     <use x="98.828125" xlink:href="#BitstreamVeraSans-Roman-2d"/>
     <use x="134.912109375" xlink:href="#BitstreamVeraSans-Roman-39"/>
     <use x="198.53515625" xlink:href="#BitstreamVeraSans-Roman-2c"/>
     <use x="230.322265625" xlink:href="#BitstreamVeraSans-Roman-35"/>
     <use x="293.9453125" xlink:href="#BitstreamVeraSans-Roman-2d"/>
     <use x="330.029296875" xlink:href="#BitstreamVeraSans-Roman-44"/>
    </g>
   </g>
  </g>
 </g>
 <defs>
  <clipPath id="pbac91498c3">
   <rect height="276.48" width="357.12" x="74.3011204163" y="26.949375"/>
  </clipPath>
 </defs>
</svg>
