<?xml version="1.0" encoding="utf-8" standalone="no"?>
<!DOCTYPE svg PUBLIC "-//W3C//DTD SVG 1.1//EN"
  "http://www.w3.org/Graphics/SVG/1.1/DTD/svg11.dtd">
<!-- Created with matplotlib (http://matplotlib.org/) -->
<svg height="356pt" version="1.1" viewBox="0 0 499 356" width="499pt" xmlns="http://www.w3.org/2000/svg" xmlns:xlink="http://www.w3.org/1999/xlink">
 <defs>
  <style type="text/css">
*{stroke-linecap:butt;stroke-linejoin:round;stroke-miterlimit:100000;}
  </style>
 </defs>
 <g id="figure_1">
  <g id="patch_1">
   <path d="M 0 356.40625 
L 499.313438 356.40625 
L 499.313438 0 
L 0 0 
z
" style="fill:#ffffff;"/>
  </g>
  <g id="axes_1">
   <g id="patch_2">
    <path d="M 70.8 303.429375 
L 427.92 303.429375 
L 427.92 26.949375 
L 70.8 26.949375 
z
" style="fill:#ffffff;"/>
   </g>
   <g id="line2d_1">
    <path d="M 41.90112 303.429375 
L 41.90112 273.811326 
L 70.8 273.811326 
L 70.8 265.284918 
L 87.704761 265.284918 
L 87.704761 252.719685 
L 99.69888 252.719685 
L 99.69888 250.475893 
L 109.002241 250.475893 
L 109.002241 241.949485 
L 116.60364 241.949485 
L 116.60364 234.320594 
L 123.030532 234.320594 
L 123.030532 232.076802 
L 128.597759 232.076802 
L 128.597759 223.550394 
L 133.508401 223.550394 
L 133.508401 213.228953 
L 137.90112 213.228953 
L 137.90112 207.843853 
L 141.874818 207.843853 
L 141.874818 201.112478 
L 145.50252 201.112478 
L 145.50252 199.317445 
L 148.839682 199.317445 
L 148.839682 195.27862 
L 151.929412 195.27862 
L 151.929412 193.932345 
L 154.805881 193.932345 
L 154.805881 190.791037 
L 157.496639 190.791037 
L 157.496639 180.918354 
L 160.024217 180.918354 
L 160.024217 176.430771 
L 162.407281 176.430771 
L 162.407281 172.840704 
L 164.661466 172.840704 
L 164.661466 170.596913 
L 166.8 170.596913 
L 166.8 168.353121 
L 168.834173 168.353121 
L 168.834173 162.070505 
L 170.773698 162.070505 
L 170.773698 158.480438 
L 172.626993 158.480438 
L 172.626993 154.441613 
L 174.4014 154.441613 
L 174.4014 153.095338 
L 176.103361 153.095338 
L 176.103361 145.915205 
L 177.738562 145.915205 
L 177.738562 143.671414 
L 179.312042 143.671414 
L 179.312042 140.978864 
L 180.828291 140.978864 
L 180.828291 140.530105 
L 182.291328 140.530105 
L 182.291328 137.388797 
L 185.071843 137.388797 
L 185.071843 136.491281 
L 186.395518 136.491281 
L 186.395518 136.042522 
L 187.678459 136.042522 
L 187.678459 135.593764 
L 188.923096 135.593764 
L 188.923096 135.145006 
L 190.131653 135.145006 
L 190.131653 133.349972 
L 192.448486 133.349972 
L 192.448486 131.554939 
L 193.560346 131.554939 
L 193.560346 129.759906 
L 194.643323 129.759906 
L 194.643323 127.067356 
L 196.728371 127.067356 
L 196.728371 124.823564 
L 197.733052 124.823564 
L 197.733052 123.926048 
L 198.714092 123.926048 
L 198.714092 122.131014 
L 199.672577 122.131014 
L 199.672577 121.682256 
L 200.609522 121.682256 
L 200.609522 120.335981 
L 201.525872 120.335981 
L 201.525872 119.438464 
L 202.422515 119.438464 
L 202.422515 116.745915 
L 203.300279 116.745915 
L 203.300279 113.604606 
L 204.159944 113.604606 
L 204.159944 111.809573 
L 205.002241 111.809573 
L 205.002241 109.117023 
L 205.827857 109.117023 
L 205.827857 107.32199 
L 206.637441 107.32199 
L 206.637441 105.975715 
L 208.210921 105.975715 
L 208.210921 105.526957 
L 208.975939 105.526957 
L 208.975939 102.385648 
L 209.727171 102.385648 
L 209.727171 100.141857 
L 210.465107 100.141857 
L 210.465107 98.346823 
L 211.190208 98.346823 
L 211.190208 97.898065 
L 211.902914 97.898065 
L 211.902914 89.820415 
L 212.60364 89.820415 
L 212.60364 86.679107 
L 213.970723 86.679107 
L 213.970723 85.332832 
L 214.637813 85.332832 
L 214.637813 80.396491 
L 216.577338 80.396491 
L 216.577338 77.703941 
L 217.204301 77.703941 
L 217.204301 77.255182 
L 217.821976 77.255182 
L 217.821976 74.562633 
L 218.430633 74.562633 
L 218.430633 74.113874 
L 219.030532 74.113874 
L 219.030532 73.216358 
L 219.621922 73.216358 
L 219.621922 70.972566 
L 220.20504 70.972566 
L 220.20504 70.075049 
L 220.780115 70.075049 
L 220.780115 66.484983 
L 221.907002 66.484983 
L 221.907002 66.036225 
L 223.542202 66.036225 
L 223.542202 63.792433 
L 224.597759 63.792433 
L 224.597759 61.099883 
L 225.115682 61.099883 
L 225.115682 60.651125 
L 225.62725 60.651125 
L 225.62725 59.753608 
L 227.125337 59.753608 
L 227.125337 57.958575 
L 227.612972 57.958575 
L 227.612972 54.817267 
L 228.094969 54.817267 
L 228.094969 54.368508 
L 228.571457 54.368508 
L 228.571457 52.573475 
L 229.042561 52.573475 
L 229.042561 51.2272 
L 230.424752 51.2272 
L 230.424752 50.778442 
L 230.875483 50.778442 
L 230.875483 50.329683 
L 231.762587 50.329683 
L 231.762587 49.880925 
L 232.199159 49.880925 
L 232.199159 48.983408 
L 233.058824 48.983408 
L 233.058824 48.085892 
L 233.482099 48.085892 
L 233.482099 47.637133 
L 234.726737 47.637133 
L 234.726737 46.739617 
L 235.133494 46.739617 
L 235.133494 46.290859 
L 235.935293 46.290859 
L 235.935293 45.393342 
L 236.330483 45.393342 
L 236.330483 44.495825 
L 237.109801 44.495825 
L 237.109801 43.598309 
L 239.363986 43.598309 
L 239.363986 42.252034 
L 239.728113 42.252034 
L 239.728113 41.803275 
L 240.089087 41.803275 
L 240.089087 40.008242 
L 242.532011 40.008242 
L 242.532011 38.213209 
L 243.866278 38.213209 
L 243.866278 37.76445 
L 245.790878 37.76445 
L 245.790878 35.969417 
L 249.678995 35.969417 
L 249.678995 35.520659 
L 251.631498 35.520659 
L 251.631498 34.623142 
L 256.993848 34.623142 
L 256.993848 32.828109 
L 259.774363 32.828109 
L 259.774363 31.930592 
L 261.530086 31.930592 
L 261.530086 31.033076 
L 316.837189 31.033076 
L 316.837189 29.686801 
L 358.8 29.686801 
L 358.8 29.686801 
" style="fill:none;stroke:#f5deb3;stroke-linecap:square;stroke-width:6.0;"/>
   </g>
   <g id="line2d_2"/>
   <g id="line2d_3">
    <path d="M 358.8 29.686801 
L 390.48 35.161652 
" style="fill:none;stroke:#f5deb3;stroke-linecap:square;stroke-width:6.0;"/>
    <defs>
     <path d="M -0 7.778175 
L 7.778175 0 
L 0 -7.778175 
L -7.778175 -0 
z
" id="m6e2e6d220b" style="stroke:#f5deb3;stroke-linejoin:miter;stroke-width:1.5;"/>
    </defs>
    <g>
     <use style="fill:#f5deb3;stroke:#f5deb3;stroke-linejoin:miter;stroke-width:1.5;" x="358.8" xlink:href="#m6e2e6d220b" y="29.6868007426"/>
     <use style="fill:#f5deb3;stroke:#f5deb3;stroke-linejoin:miter;stroke-width:1.5;" x="390.48" xlink:href="#m6e2e6d220b" y="35.1616522277"/>
    </g>
   </g>
   <g id="line2d_4">
    <defs>
     <path d="M 0 1.5 
C 0.397805 1.5 0.77937 1.341951 1.06066 1.06066 
C 1.341951 0.77937 1.5 0.397805 1.5 0 
C 1.5 -0.397805 1.341951 -0.77937 1.06066 -1.06066 
C 0.77937 -1.341951 0.397805 -1.5 0 -1.5 
C -0.397805 -1.5 -0.77937 -1.341951 -1.06066 -1.06066 
C -1.341951 -0.77937 -1.5 -0.397805 -1.5 0 
C -1.5 0.397805 -1.341951 0.77937 -1.06066 1.06066 
C -0.77937 1.341951 -0.397805 1.5 0 1.5 
z
" id="m19e1d328c0" style="stroke:#f5deb3;stroke-width:0.5;"/>
    </defs>
    <g>
     <use style="fill:#f5deb3;stroke:#f5deb3;stroke-width:0.5;" x="316.837188604" xlink:href="#m19e1d328c0" y="29.6868007426"/>
     <use style="fill:#f5deb3;stroke:#f5deb3;stroke-width:0.5;" x="316.837188604" xlink:href="#m19e1d328c0" y="29.6868007426"/>
    </g>
   </g>
   <g id="line2d_5">
    <g>
     <use style="fill:#f5deb3;stroke:#f5deb3;stroke-linejoin:miter;stroke-width:1.5;" x="99.6988795837" xlink:href="#m6e2e6d220b" y="250.475893422"/>
     <use style="fill:#f5deb3;stroke:#f5deb3;stroke-linejoin:miter;stroke-width:1.5;" x="141.874818191" xlink:href="#m6e2e6d220b" y="207.843853169"/>
     <use style="fill:#f5deb3;stroke:#f5deb3;stroke-linejoin:miter;stroke-width:1.5;" x="197.733052294" xlink:href="#m6e2e6d220b" y="124.823564255"/>
     <use style="fill:#f5deb3;stroke:#f5deb3;stroke-linejoin:miter;stroke-width:1.5;" x="245.790877949" xlink:href="#m6e2e6d220b" y="37.7644504748"/>
     <use style="fill:#f5deb3;stroke:#f5deb3;stroke-linejoin:miter;stroke-width:1.5;" x="316.837188604" xlink:href="#m6e2e6d220b" y="29.6868007426"/>
     <use style="fill:#f5deb3;stroke:#f5deb3;stroke-linejoin:miter;stroke-width:1.5;" x="358.8" xlink:href="#m6e2e6d220b" y="29.6868007426"/>
    </g>
   </g>
   <g id="line2d_6">
    <defs>
     <path d="M 0 1.5 
C 0.397805 1.5 0.77937 1.341951 1.06066 1.06066 
C 1.341951 0.77937 1.5 0.397805 1.5 0 
C 1.5 -0.397805 1.341951 -0.77937 1.06066 -1.06066 
C 0.77937 -1.341951 0.397805 -1.5 0 -1.5 
C -0.397805 -1.5 -0.77937 -1.341951 -1.06066 -1.06066 
C -1.341951 -0.77937 -1.5 -0.397805 -1.5 0 
C -1.5 0.397805 -1.341951 0.77937 -1.06066 1.06066 
C -0.77937 1.341951 -0.397805 1.5 0 1.5 
z
" id="m890aa2b10a" style="stroke:#000080;stroke-width:0.5;"/>
    </defs>
    <g>
     <use style="fill:#000080;stroke:#000080;stroke-width:0.5;" x="404.240732562" xlink:href="#m890aa2b10a" y="141.876380356"/>
     <use style="fill:#000080;stroke:#000080;stroke-width:0.5;" x="404.240732562" xlink:href="#m890aa2b10a" y="141.876380356"/>
    </g>
   </g>
   <g id="line2d_7">
    <path d="M 41.90112 303.429375 
L 41.90112 288.62035 
L 70.8 288.62035 
L 70.8 272.913809 
L 87.704761 272.913809 
L 87.704761 266.631193 
L 99.69888 266.631193 
L 99.69888 263.938643 
L 109.002241 263.938643 
L 109.002241 256.75851 
L 116.60364 256.75851 
L 116.60364 254.514718 
L 123.030532 254.514718 
L 123.030532 254.06596 
L 128.597759 254.06596 
L 128.597759 253.168443 
L 133.508401 253.168443 
L 133.508401 252.719685 
L 137.90112 252.719685 
L 137.90112 250.027135 
L 141.874818 250.027135 
L 141.874818 244.642035 
L 145.50252 244.642035 
L 145.50252 242.847002 
L 154.805881 242.847002 
L 154.805881 241.949485 
L 157.496639 241.949485 
L 157.496639 240.60321 
L 160.024217 240.60321 
L 160.024217 239.705694 
L 162.407281 239.705694 
L 162.407281 238.808177 
L 164.661466 238.808177 
L 164.661466 236.115627 
L 166.8 236.115627 
L 166.8 233.423077 
L 168.834173 233.423077 
L 168.834173 232.974319 
L 170.773698 232.974319 
L 170.773698 230.730527 
L 172.626993 230.730527 
L 172.626993 228.486736 
L 174.4014 228.486736 
L 174.4014 227.140461 
L 176.103361 227.140461 
L 176.103361 224.896669 
L 177.738562 224.896669 
L 177.738562 224.447911 
L 180.828291 224.447911 
L 180.828291 223.999153 
L 186.395518 223.999153 
L 186.395518 221.755361 
L 188.923096 221.755361 
L 188.923096 221.306603 
L 190.131653 221.306603 
L 190.131653 220.409086 
L 191.30616 220.409086 
L 191.30616 219.511569 
L 192.448486 219.511569 
L 192.448486 219.062811 
L 193.560346 219.062811 
L 193.560346 218.614053 
L 197.733052 218.614053 
L 197.733052 215.023986 
L 199.672577 215.023986 
L 199.672577 214.12647 
L 200.609522 214.12647 
L 200.609522 213.677711 
L 202.422515 213.677711 
L 202.422515 212.780195 
L 205.002241 212.780195 
L 205.002241 210.536403 
L 205.827857 210.536403 
L 205.827857 209.190128 
L 206.637441 209.190128 
L 206.637441 207.843853 
L 210.465107 207.843853 
L 210.465107 206.946337 
L 211.190208 206.946337 
L 211.190208 205.151303 
L 213.970723 205.151303 
L 213.970723 204.702545 
L 215.940803 204.702545 
L 215.940803 203.805028 
L 216.577338 203.805028 
L 216.577338 202.907512 
L 217.821976 202.907512 
L 217.821976 202.458753 
L 219.030532 202.458753 
L 219.030532 201.112478 
L 219.621922 201.112478 
L 219.621922 200.214962 
L 220.780115 200.214962 
L 220.780115 199.766203 
L 221.347366 199.766203 
L 221.347366 199.317445 
L 223.00423 199.317445 
L 223.00423 198.868687 
L 223.542202 198.868687 
L 223.542202 197.522412 
L 224.073321 197.522412 
L 224.073321 196.624895 
L 225.62725 196.624895 
L 225.62725 196.176137 
L 227.125337 196.176137 
L 227.125337 195.27862 
L 227.612972 195.27862 
L 227.612972 194.829862 
L 228.094969 194.829862 
L 228.094969 194.381104 
L 229.042561 194.381104 
L 229.042561 193.932345 
L 229.969094 193.932345 
L 229.969094 193.483587 
L 233.482099 193.483587 
L 233.482099 189.444762 
L 238.996651 189.444762 
L 238.996651 188.996004 
L 250.246245 188.996004 
L 250.246245 188.547245 
L 252.972201 188.547245 
L 252.972201 187.649729 
L 254.27113 187.649729 
L 254.27113 186.752212 
L 256.024217 186.752212 
L 256.024217 186.303454 
L 256.753546 186.303454 
L 256.753546 185.405937 
L 258.407281 185.405937 
L 258.407281 183.610904 
L 261.098038 183.610904 
L 261.098038 183.162146 
L 265.032236 183.162146 
L 265.032236 182.713387 
L 265.229363 182.713387 
L 265.229363 182.264629 
L 267.151006 182.264629 
L 267.151006 181.815871 
L 267.338387 181.815871 
L 267.338387 180.469596 
L 267.710642 180.469596 
L 267.710642 180.020837 
L 270.052508 180.020837 
L 270.052508 179.572079 
L 271.090544 179.572079 
L 271.090544 178.225804 
L 271.261065 178.225804 
L 271.261065 177.777046 
L 272.269798 177.777046 
L 272.269798 177.328288 
L 273.416612 177.328288 
L 273.416612 176.879529 
L 274.532724 176.879529 
L 274.532724 175.533254 
L 275.925174 175.533254 
L 275.925174 175.084496 
L 277.566227 175.084496 
L 277.566227 174.635738 
L 277.857783 174.635738 
L 277.857783 174.186979 
L 279.565554 174.186979 
L 279.565554 173.289463 
L 281.473377 173.289463 
L 281.473377 172.840704 
L 285.892728 172.840704 
L 285.892728 171.943188 
L 287.652156 171.943188 
L 287.652156 171.494429 
L 288.785168 171.494429 
L 288.785168 171.045671 
L 289.119154 171.045671 
L 289.119154 170.596913 
L 289.560346 170.596913 
L 289.560346 170.148154 
L 292.829935 170.148154 
L 292.931253 168.801879 
L 293.931116 168.801879 
L 294.029796 167.904363 
L 296.702068 167.904363 
L 296.702068 167.455605 
L 297.253076 167.455605 
L 297.253076 167.006846 
L 298.775841 167.006846 
L 298.775841 166.558088 
L 300.918773 166.558088 
L 300.918773 165.660571 
L 310.037914 165.660571 
L 310.037914 165.211813 
L 310.171973 165.211813 
L 310.171973 164.314296 
L 312.891998 164.314296 
L 312.891998 163.865538 
L 313.94442 163.865538 
L 313.94442 163.41678 
L 314.127415 163.41678 
L 314.127415 162.968021 
L 314.970929 162.968021 
L 314.970929 162.519263 
L 315.797715 162.519263 
L 315.797715 161.621746 
L 318.623476 161.621746 
L 318.623476 161.172988 
L 323.854667 161.172988 
L 323.854667 160.275471 
L 324.666105 160.275471 
L 324.666105 159.377955 
L 324.807674 159.377955 
L 324.807674 158.929196 
L 326.106315 158.929196 
L 326.106315 158.480438 
L 327.674721 158.480438 
L 327.674721 157.582922 
L 328.329244 157.582922 
L 328.329244 157.134163 
L 332.212319 157.134163 
L 332.212319 156.685405 
L 332.526683 156.685405 
L 332.526683 156.236647 
L 333.186937 156.236647 
L 333.186937 155.787888 
L 333.302375 155.787888 
L 333.302375 155.33913 
L 333.836899 155.33913 
L 333.836899 154.890372 
L 336.801793 154.890372 
L 336.801793 154.441613 
L 340.258371 154.441613 
L 340.258371 153.992855 
L 344.608791 153.992855 
L 344.608791 153.544097 
L 345.963585 153.544097 
L 345.963585 153.095338 
L 346.778077 153.095338 
L 346.778077 152.64658 
L 348.119132 152.64658 
L 348.119132 152.197822 
L 353.185098 152.197822 
L 353.185098 151.749063 
L 356.639517 151.749063 
L 356.639517 151.300305 
L 357.70166 151.300305 
L 357.70166 150.402788 
L 358.8 150.402788 
L 358.8 150.402788 
" style="fill:none;stroke:#000080;stroke-linecap:square;stroke-width:1.5;"/>
   </g>
   <g id="line2d_8">
    <defs>
     <path d="M 0 6 
C 1.591219 6 3.117479 5.367802 4.242641 4.242641 
C 5.367802 3.117479 6 1.591219 6 0 
C 6 -1.591219 5.367802 -3.117479 4.242641 -4.242641 
C 3.117479 -5.367802 1.591219 -6 0 -6 
C -1.591219 -6 -3.117479 -5.367802 -4.242641 -4.242641 
C -5.367802 -3.117479 -6 -1.591219 -6 0 
C -6 1.591219 -5.367802 3.117479 -4.242641 4.242641 
C -3.117479 5.367802 -1.591219 6 0 6 
z
" id="mb12394507d" style="stroke:#000080;stroke-width:1.5;"/>
    </defs>
    <g>
     <use style="fill:none;stroke:#000080;stroke-width:1.5;" x="70.8" xlink:href="#mb12394507d" y="288.620350491"/>
     <use style="fill:none;stroke:#000080;stroke-width:1.5;" x="145.502520037" xlink:href="#mb12394507d" y="244.642035282"/>
     <use style="fill:none;stroke:#000080;stroke-width:1.5;" x="206.637441405" xlink:href="#mb12394507d" y="207.843853169"/>
     <use style="fill:none;stroke:#000080;stroke-width:1.5;" x="261.098038372" xlink:href="#mb12394507d" y="183.162145654"/>
     <use style="fill:none;stroke:#000080;stroke-width:1.5;" x="318.62347606" xlink:href="#mb12394507d" y="161.621746368"/>
     <use style="fill:none;stroke:#000080;stroke-width:1.5;" x="358.8" xlink:href="#mb12394507d" y="150.402788407"/>
    </g>
   </g>
   <g id="line2d_9"/>
   <g id="line2d_10">
    <path clip-path="url(#pd2a8a5e895)" d="M 262.8 183.162146 
" style="fill:none;stroke:#000080;stroke-linecap:square;"/>
    <defs>
     <path d="M -12 12 
L 12 -12 
M -12 -12 
L 12 12 
" id="m32b6c8290f" style="stroke:#000080;stroke-width:3.0;"/>
    </defs>
    <g clip-path="url(#pd2a8a5e895)">
     <use style="fill:#000080;stroke:#000080;stroke-width:3.0;" x="262.8" xlink:href="#m32b6c8290f" y="183.162145654"/>
    </g>
   </g>
   <g id="line2d_11">
    <defs>
     <path d="M 0 1.5 
C 0.397805 1.5 0.77937 1.341951 1.06066 1.06066 
C 1.341951 0.77937 1.5 0.397805 1.5 0 
C 1.5 -0.397805 1.341951 -0.77937 1.06066 -1.06066 
C 0.77937 -1.341951 0.397805 -1.5 0 -1.5 
C -0.397805 -1.5 -0.77937 -1.341951 -1.06066 -1.06066 
C -1.341951 -0.77937 -1.5 -0.397805 -1.5 0 
C -1.5 0.397805 -1.341951 0.77937 -1.06066 1.06066 
C -0.77937 1.341951 -0.397805 1.5 0 1.5 
z
" id="mbd22156a5a" style="stroke:#ff00ff;stroke-width:0.5;"/>
    </defs>
    <g>
     <use style="fill:#ff00ff;stroke:#ff00ff;stroke-width:0.5;" x="426.824721134" xlink:href="#mbd22156a5a" y="123.926047618"/>
     <use style="fill:#ff00ff;stroke:#ff00ff;stroke-width:0.5;" x="426.824721134" xlink:href="#mbd22156a5a" y="123.926047618"/>
    </g>
   </g>
   <g id="line2d_12">
    <path d="M 41.90112 303.429375 
L 41.90112 288.171592 
L 70.8 288.171592 
L 70.8 280.991459 
L 87.704761 280.991459 
L 87.704761 274.260084 
L 99.69888 274.260084 
L 99.69888 270.221259 
L 109.002241 270.221259 
L 109.002241 265.284918 
L 116.60364 265.284918 
L 116.60364 264.387401 
L 128.597759 264.387401 
L 128.597759 254.514718 
L 133.508401 254.514718 
L 133.508401 250.475893 
L 141.874818 250.475893 
L 141.874818 246.437069 
L 145.50252 246.437069 
L 145.50252 245.090794 
L 148.839682 245.090794 
L 148.839682 241.051969 
L 151.929412 241.051969 
L 151.929412 238.808177 
L 154.805881 238.808177 
L 154.805881 237.910661 
L 157.496639 237.910661 
L 157.496639 232.525561 
L 160.024217 232.525561 
L 160.024217 231.628044 
L 164.661466 231.628044 
L 164.661466 231.179286 
L 166.8 231.179286 
L 166.8 228.935494 
L 168.834173 228.935494 
L 168.834173 227.589219 
L 170.773698 227.589219 
L 170.773698 223.550394 
L 172.626993 223.550394 
L 172.626993 222.204119 
L 174.4014 222.204119 
L 174.4014 219.511569 
L 177.738562 219.511569 
L 177.738562 217.716536 
L 179.312042 217.716536 
L 179.312042 215.921503 
L 180.828291 215.921503 
L 180.828291 215.472745 
L 183.704761 215.472745 
L 183.704761 213.228953 
L 185.071843 213.228953 
L 185.071843 212.780195 
L 187.678459 212.780195 
L 187.678459 212.331436 
L 188.923096 212.331436 
L 188.923096 210.536403 
L 192.448486 210.536403 
L 192.448486 210.087645 
L 193.560346 210.087645 
L 193.560346 209.190128 
L 194.643323 209.190128 
L 194.643323 206.497578 
L 199.672577 206.497578 
L 199.672577 202.907512 
L 200.609522 202.907512 
L 200.609522 201.561237 
L 201.525872 201.561237 
L 201.525872 200.66372 
L 205.827857 200.66372 
L 205.827857 199.766203 
L 208.210921 199.766203 
L 208.210921 198.868687 
L 209.727171 198.868687 
L 209.727171 198.419928 
L 211.190208 198.419928 
L 211.190208 197.97117 
L 211.902914 197.97117 
L 211.902914 197.073654 
L 213.970723 197.073654 
L 213.970723 195.727379 
L 218.430633 195.727379 
L 218.430633 195.27862 
L 219.621922 195.27862 
L 219.621922 189.89352 
L 220.20504 189.89352 
L 220.20504 189.444762 
L 224.073321 189.444762 
L 224.073321 188.547245 
L 227.125337 188.547245 
L 227.125337 187.200971 
L 229.508401 187.200971 
L 229.508401 186.303454 
L 231.321394 186.303454 
L 231.321394 184.957179 
L 233.058824 184.957179 
L 233.058824 183.162146 
L 233.90112 183.162146 
L 233.90112 180.469596 
L 241.848516 180.469596 
L 241.848516 180.020837 
L 246.103181 180.020837 
L 246.103181 178.225804 
L 251.90311 178.225804 
L 251.90311 177.777046 
L 257.706554 177.777046 
L 257.706554 176.879529 
L 260.880324 176.879529 
L 260.880324 175.982013 
L 263.625616 175.982013 
L 263.625616 175.533254 
L 265.229363 175.533254 
L 265.229363 175.084496 
L 265.425562 175.084496 
L 265.425562 174.635738 
L 266.008681 174.635738 
L 266.008681 174.186979 
L 266.201255 174.186979 
L 266.201255 173.738221 
L 267.151006 173.738221 
L 267.151006 172.840704 
L 267.338387 172.840704 
L 267.338387 172.391946 
L 267.52493 172.391946 
L 267.52493 171.045671 
L 268.262866 171.045671 
L 268.262866 170.596913 
L 269.345843 170.596913 
L 269.345843 170.148154 
L 270.227319 170.148154 
L 270.227319 167.904363 
L 270.919323 167.904363 
L 270.919323 167.455605 
L 271.090544 167.455605 
L 271.090544 167.006846 
L 271.261065 167.006846 
L 271.261065 166.558088 
L 274.058044 166.558088 
L 274.058044 166.10933 
L 275.466172 166.10933 
L 275.466172 163.865538 
L 275.619735 163.865538 
L 275.619735 163.41678 
L 276.679124 163.41678 
L 276.679124 162.968021 
L 279.425882 162.968021 
L 279.425882 162.519263 
L 279.704761 162.519263 
L 279.704761 162.070505 
L 291.80298 162.070505 
L 291.80298 161.621746 
L 292.113731 161.621746 
L 292.113731 160.72423 
L 293.33408 160.72423 
L 293.33408 160.275471 
L 294.128243 160.275471 
L 294.128243 159.377955 
L 295.100134 159.377955 
L 295.100134 158.929196 
L 295.482635 158.929196 
L 295.482635 158.03168 
L 296.143681 158.03168 
L 296.143681 157.582922 
L 298.511128 157.582922 
L 298.511128 157.134163 
L 300.159944 157.134163 
L 300.159944 156.685405 
L 300.498908 156.685405 
L 300.498908 156.236647 
L 300.835137 156.236647 
L 300.835137 155.33913 
L 301.002241 155.33913 
L 301.002241 154.441613 
L 306.901679 154.441613 
L 306.901679 153.992855 
L 308.67307 153.992855 
L 308.67307 152.64658 
L 309.970723 152.64658 
L 309.970723 152.197822 
L 310.238841 152.197822 
L 310.238841 151.749063 
L 310.901689 151.749063 
L 310.901689 150.851547 
L 311.554164 150.851547 
L 311.618853 149.505272 
L 313.266482 149.505272 
L 313.266482 149.056513 
L 314.67163 149.056513 
L 314.67163 148.607755 
L 315.030532 148.607755 
L 315.030532 148.158997 
L 317.007942 148.158997 
L 317.007942 147.26148 
L 320.649842 147.26148 
L 320.649842 146.812722 
L 320.805701 146.812722 
L 320.805701 146.363964 
L 321.830133 146.363964 
L 321.830133 145.017689 
L 322.333061 145.017689 
L 322.333061 144.56893 
L 322.582269 144.56893 
L 322.582269 144.120172 
L 322.879364 144.120172 
L 322.879364 143.671414 
L 324.142863 143.671414 
L 324.142863 142.773897 
L 325.042561 142.773897 
L 325.042561 142.325139 
L 329.942792 142.325139 
L 329.942792 141.87638 
L 330.889916 141.87638 
L 330.889916 140.978864 
L 333.494064 140.978864 
L 333.494064 140.081347 
L 337.537249 140.081347 
L 337.641263 138.735072 
L 338.328137 138.735072 
L 338.328137 138.286314 
L 339.037378 138.286314 
L 339.037378 137.837555 
L 339.602818 137.837555 
L 339.602818 137.388797 
L 339.899093 137.388797 
L 339.899093 136.940039 
L 340.775491 136.940039 
L 340.775491 136.491281 
L 343.959181 136.491281 
L 343.959181 135.593764 
L 345.074957 135.593764 
L 345.074957 135.145006 
L 345.248434 135.145006 
L 345.248434 134.247489 
L 346.750254 134.247489 
L 346.750254 133.798731 
L 349.522688 133.798731 
L 349.522688 132.901214 
L 350.117379 132.901214 
L 350.117379 132.452456 
L 356.020204 132.452456 
L 356.020204 132.003697 
L 358.8 132.003697 
L 358.8 132.003697 
" style="fill:none;stroke:#ff00ff;stroke-linecap:square;stroke-width:1.5;"/>
   </g>
   <g id="line2d_13">
    <defs>
     <path d="M -0 8.485281 
L 5.091169 0 
L 0 -8.485281 
L -5.091169 -0 
z
" id="m6bdf7865b2" style="stroke:#ff00ff;stroke-linejoin:miter;stroke-width:1.5;"/>
    </defs>
    <g>
     <use style="fill:none;stroke:#ff00ff;stroke-linejoin:miter;stroke-width:1.5;" x="116.603640453" xlink:href="#m6bdf7865b2" y="264.387401294"/>
     <use style="fill:none;stroke:#ff00ff;stroke-linejoin:miter;stroke-width:1.5;" x="172.626992674" xlink:href="#m6bdf7865b2" y="222.20411936"/>
     <use style="fill:none;stroke:#ff00ff;stroke-linejoin:miter;stroke-width:1.5;" x="251.903109617" xlink:href="#m6bdf7865b2" y="178.225804151"/>
     <use style="fill:none;stroke:#ff00ff;stroke-linejoin:miter;stroke-width:1.5;" x="315.030532258" xlink:href="#m6bdf7865b2" y="148.607755133"/>
     <use style="fill:none;stroke:#ff00ff;stroke-linejoin:miter;stroke-width:1.5;" x="356.020204016" xlink:href="#m6bdf7865b2" y="132.00369735"/>
     <use style="fill:none;stroke:#ff00ff;stroke-linejoin:miter;stroke-width:1.5;" x="358.8" xlink:href="#m6bdf7865b2" y="132.00369735"/>
    </g>
   </g>
   <g id="line2d_14"/>
   <g id="line2d_15">
    <path clip-path="url(#pd2a8a5e895)" d="M 262.8 175.982013 
" style="fill:none;stroke:#ff00ff;stroke-linecap:square;"/>
    <defs>
     <path d="M -12 12 
L 12 -12 
M -12 -12 
L 12 12 
" id="mdf8173193e" style="stroke:#ff00ff;stroke-width:3.0;"/>
    </defs>
    <g clip-path="url(#pd2a8a5e895)">
     <use style="fill:#ff00ff;stroke:#ff00ff;stroke-width:3.0;" x="262.8" xlink:href="#mdf8173193e" y="175.982012559"/>
    </g>
   </g>
   <g id="line2d_16">
    <defs>
     <path d="M 0 1.5 
C 0.397805 1.5 0.77937 1.341951 1.06066 1.06066 
C 1.341951 0.77937 1.5 0.397805 1.5 0 
C 1.5 -0.397805 1.341951 -0.77937 1.06066 -1.06066 
C 0.77937 -1.341951 0.397805 -1.5 0 -1.5 
C -0.397805 -1.5 -0.77937 -1.341951 -1.06066 -1.06066 
C -1.341951 -0.77937 -1.5 -0.397805 -1.5 0 
C -1.5 0.397805 -1.341951 0.77937 -1.06066 1.06066 
C -0.77937 1.341951 -0.397805 1.5 0 1.5 
z
" id="m5e65b0edb6" style="stroke:#ffa500;stroke-width:0.5;"/>
    </defs>
    <g>
     <use style="fill:#ffa500;stroke:#ffa500;stroke-width:0.5;" x="423.081194978" xlink:href="#m5e65b0edb6" y="121.682256026"/>
     <use style="fill:#ffa500;stroke:#ffa500;stroke-width:0.5;" x="423.081194978" xlink:href="#m5e65b0edb6" y="121.682256026"/>
    </g>
   </g>
   <g id="line2d_17">
    <path d="M 41.90112 303.429375 
L 41.90112 286.825317 
L 70.8 286.825317 
L 70.8 277.401393 
L 87.704761 277.401393 
L 87.704761 263.041126 
L 99.69888 263.041126 
L 99.69888 258.553543 
L 109.002241 258.553543 
L 109.002241 256.309752 
L 116.60364 256.309752 
L 116.60364 250.924652 
L 123.030532 250.924652 
L 123.030532 248.68086 
L 128.597759 248.68086 
L 128.597759 246.885827 
L 133.508401 246.885827 
L 133.508401 245.98831 
L 137.90112 245.98831 
L 137.90112 242.847002 
L 148.839682 242.847002 
L 148.839682 241.051969 
L 151.929412 241.051969 
L 151.929412 237.910661 
L 154.805881 237.910661 
L 154.805881 233.871836 
L 164.661466 233.871836 
L 164.661466 233.423077 
L 166.8 233.423077 
L 166.8 230.730527 
L 172.626993 230.730527 
L 172.626993 230.281769 
L 174.4014 230.281769 
L 174.4014 228.935494 
L 176.103361 228.935494 
L 176.103361 228.037977 
L 177.738562 228.037977 
L 177.738562 224.447911 
L 179.312042 224.447911 
L 179.312042 221.755361 
L 185.071843 221.755361 
L 185.071843 220.857844 
L 187.678459 220.857844 
L 187.678459 220.409086 
L 188.923096 220.409086 
L 188.923096 219.960328 
L 191.30616 219.960328 
L 191.30616 219.511569 
L 194.643323 219.511569 
L 194.643323 217.716536 
L 195.69888 217.716536 
L 195.69888 215.921503 
L 196.728371 215.921503 
L 196.728371 213.677711 
L 197.733052 213.677711 
L 197.733052 212.780195 
L 199.672577 212.780195 
L 199.672577 211.43392 
L 200.609522 211.43392 
L 200.609522 209.190128 
L 203.300279 209.190128 
L 203.300279 207.843853 
L 207.431604 207.843853 
L 207.431604 206.497578 
L 208.975939 206.497578 
L 208.975939 205.600062 
L 209.727171 205.600062 
L 209.727171 204.702545 
L 210.465107 204.702545 
L 210.465107 204.253787 
L 212.60364 204.253787 
L 212.60364 202.458753 
L 213.970723 202.458753 
L 213.970723 202.009995 
L 214.637813 202.009995 
L 214.637813 201.561237 
L 215.940803 201.561237 
L 215.940803 200.66372 
L 216.577338 200.66372 
L 216.577338 197.522412 
L 217.821976 197.522412 
L 217.821976 193.932345 
L 219.621922 193.932345 
L 219.621922 193.034829 
L 220.780115 193.034829 
L 220.780115 191.688554 
L 223.542202 191.688554 
L 223.542202 190.791037 
L 227.125337 190.791037 
L 227.125337 190.342279 
L 227.612972 190.342279 
L 227.612972 188.996004 
L 231.762587 188.996004 
L 231.762587 187.649729 
L 232.199159 187.649729 
L 232.199159 187.200971 
L 236.721963 187.200971 
L 236.721963 186.752212 
L 237.109801 186.752212 
L 237.109801 185.405937 
L 241.153629 185.405937 
L 241.153629 184.508421 
L 245.476218 184.508421 
L 245.476218 184.059662 
L 249.678995 184.059662 
L 249.678995 183.162146 
L 263.214852 183.162146 
L 263.214852 182.713387 
L 264.032374 182.713387 
L 264.032374 181.815871 
L 265.620843 181.815871 
L 265.620843 181.367112 
L 265.815213 181.367112 
L 265.815213 180.918354 
L 266.201255 180.918354 
L 266.201255 180.469596 
L 266.773698 180.469596 
L 266.773698 180.020837 
L 270.4014 180.020837 
L 270.4014 179.123321 
L 270.747396 179.123321 
L 270.747396 178.674562 
L 273.092157 178.674562 
L 273.092157 177.777046 
L 274.689758 177.777046 
L 274.689758 176.430771 
L 275.002061 176.430771 
L 275.002061 175.982013 
L 275.772735 175.982013 
L 275.772735 175.533254 
L 277.71226 175.533254 
L 277.71226 175.084496 
L 279.004034 175.084496 
L 279.004034 173.289463 
L 279.145125 173.289463 
L 279.145125 172.840704 
L 285.652426 172.840704 
L 285.652426 171.045671 
L 291.906822 171.045671 
L 291.906822 170.596913 
L 292.422184 170.596913 
L 292.422184 170.148154 
L 293.233738 170.148154 
L 293.233738 169.699396 
L 293.434182 169.699396 
L 293.434182 169.250638 
L 295.672577 169.250638 
L 295.767225 167.455605 
L 296.143681 167.455605 
L 296.143681 166.558088 
L 296.42381 166.558088 
L 296.42381 166.10933 
L 297.435138 166.10933 
L 297.435138 165.660571 
L 300.498908 165.660571 
L 300.58322 164.763055 
L 300.667361 164.763055 
L 300.667361 164.314296 
L 301.909527 164.314296 
L 301.909527 163.865538 
L 304.671614 163.865538 
L 304.671614 162.968021 
L 308.742384 162.968021 
L 308.742384 162.519263 
L 309.087235 162.519263 
L 309.087235 162.070505 
L 309.768496 162.070505 
L 309.768496 161.621746 
L 311.294398 161.621746 
L 311.294398 161.172988 
L 312.323889 161.172988 
L 312.323889 159.826713 
L 314.731662 159.826713 
L 314.791607 157.582922 
L 315.680602 157.582922 
L 315.680602 157.134163 
L 317.684048 157.134163 
L 317.684048 155.787888 
L 321.321063 155.787888 
L 321.321063 155.33913 
L 322.631932 155.33913 
L 322.631932 153.992855 
L 323.467279 153.992855 
L 323.467279 153.544097 
L 323.902838 153.544097 
L 323.902838 153.095338 
L 325.322689 153.095338 
L 325.322689 152.197822 
L 326.014885 152.197822 
L 326.014885 151.749063 
L 327.58667 151.749063 
L 327.58667 151.300305 
L 331.536321 151.300305 
L 331.536321 150.851547 
L 332.172857 150.851547 
L 332.172857 149.505272 
L 333.684876 149.505272 
L 333.722934 146.812722 
L 335.582844 146.812722 
L 335.582844 145.915205 
L 340.679018 145.915205 
L 340.679018 145.017689 
L 342.289446 145.017689 
L 342.289446 144.120172 
L 344.373739 144.120172 
L 344.373739 143.671414 
L 345.564612 143.671414 
L 345.564612 143.222655 
L 345.849982 143.222655 
L 345.849982 142.773897 
L 346.666675 142.773897 
L 346.666675 142.325139 
L 348.065231 142.325139 
L 348.065231 141.427622 
L 349.885683 141.427622 
L 349.885683 140.978864 
L 351.926002 140.978864 
L 351.926002 140.530105 
L 353.137367 140.530105 
L 353.137367 140.081347 
L 355.684606 140.081347 
L 355.684606 139.18383 
L 356.551605 139.18383 
L 356.5736 137.388797 
L 358.8 137.388797 
L 358.8 137.388797 
" style="fill:none;stroke:#ffa500;stroke-linecap:square;stroke-width:1.5;"/>
   </g>
   <g id="line2d_18">
    <defs>
     <path d="M 0 -6 
L -1.347084 -1.854102 
L -5.706339 -1.854102 
L -2.179628 0.708204 
L -3.526712 4.854102 
L -0 2.291796 
L 3.526712 4.854102 
L 2.179628 0.708204 
L 5.706339 -1.854102 
L 1.347084 -1.854102 
z
" id="mbd1943481f" style="stroke:#ffa500;stroke-linejoin:bevel;stroke-width:1.5;"/>
    </defs>
    <g>
     <use style="fill:none;stroke:#ffa500;stroke-linejoin:bevel;stroke-width:1.5;" x="70.8" xlink:href="#mbd1943481f" y="277.40139253"/>
     <use style="fill:none;stroke:#ffa500;stroke-linejoin:bevel;stroke-width:1.5;" x="172.626992674" xlink:href="#mbd1943481f" y="230.281769092"/>
     <use style="fill:none;stroke:#ffa500;stroke-linejoin:bevel;stroke-width:1.5;" x="223.542202275" xlink:href="#mbd1943481f" y="191.688553705"/>
     <use style="fill:none;stroke:#ffa500;stroke-linejoin:bevel;stroke-width:1.5;" x="293.434181694" xlink:href="#mbd1943481f" y="169.250637782"/>
     <use style="fill:none;stroke:#ffa500;stroke-linejoin:bevel;stroke-width:1.5;" x="353.137367396" xlink:href="#mbd1943481f" y="140.081347082"/>
     <use style="fill:none;stroke:#ffa500;stroke-linejoin:bevel;stroke-width:1.5;" x="358.8" xlink:href="#mbd1943481f" y="137.388797172"/>
    </g>
   </g>
   <g id="line2d_19"/>
   <g id="line2d_20">
    <path clip-path="url(#pd2a8a5e895)" d="M 262.8 183.162146 
" style="fill:none;stroke:#ffa500;stroke-linecap:square;"/>
    <defs>
     <path d="M -12 12 
L 12 -12 
M -12 -12 
L 12 12 
" id="mefdb0806ed" style="stroke:#ffa500;stroke-width:3.0;"/>
    </defs>
    <g clip-path="url(#pd2a8a5e895)">
     <use style="fill:#ffa500;stroke:#ffa500;stroke-width:3.0;" x="262.8" xlink:href="#mefdb0806ed" y="183.162145654"/>
    </g>
   </g>
   <g id="line2d_21">
    <path d="M 358.8 150.402788 
L 390.48 297.954524 
" style="fill:none;stroke:#000080;stroke-linecap:square;stroke-width:1.5;"/>
    <g>
     <use style="fill:none;stroke:#000080;stroke-width:1.5;" x="358.8" xlink:href="#mb12394507d" y="150.402788407"/>
     <use style="fill:none;stroke:#000080;stroke-width:1.5;" x="390.48" xlink:href="#mb12394507d" y="297.954523515"/>
    </g>
   </g>
   <g id="line2d_22">
    <path d="M 358.8 137.388797 
L 390.48 210.3569 
" style="fill:none;stroke:#ffa500;stroke-linecap:square;stroke-width:1.5;"/>
    <g>
     <use style="fill:none;stroke:#ffa500;stroke-linejoin:bevel;stroke-width:1.5;" x="358.8" xlink:href="#mbd1943481f" y="137.388797172"/>
     <use style="fill:none;stroke:#ffa500;stroke-linejoin:bevel;stroke-width:1.5;" x="390.48" xlink:href="#mbd1943481f" y="210.356899752"/>
    </g>
   </g>
   <g id="line2d_23">
    <path d="M 358.8 132.003697 
L 390.48 122.759276 
" style="fill:none;stroke:#ff00ff;stroke-linecap:square;stroke-width:1.5;"/>
    <g>
     <use style="fill:none;stroke:#ff00ff;stroke-linejoin:miter;stroke-width:1.5;" x="358.8" xlink:href="#m6bdf7865b2" y="132.00369735"/>
     <use style="fill:none;stroke:#ff00ff;stroke-linejoin:miter;stroke-width:1.5;" x="390.48" xlink:href="#m6bdf7865b2" y="122.75927599"/>
    </g>
   </g>
   <g id="line2d_24">
    <path d="M 358.8 303.429375 
L 358.8 29.686801 
" style="fill:none;stroke:#000000;stroke-linecap:square;"/>
   </g>
   <g id="patch_3">
    <path d="M 70.8 26.949375 
L 427.92 26.949375 
" style="fill:none;stroke:#000000;stroke-linecap:square;stroke-linejoin:miter;"/>
   </g>
   <g id="patch_4">
    <path d="M 427.92 303.429375 
L 427.92 26.949375 
" style="fill:none;stroke:#000000;stroke-linecap:square;stroke-linejoin:miter;"/>
   </g>
   <g id="patch_5">
    <path d="M 70.8 303.429375 
L 427.92 303.429375 
" style="fill:none;stroke:#000000;stroke-linecap:square;stroke-linejoin:miter;"/>
   </g>
   <g id="patch_6">
    <path d="M 70.8 303.429375 
L 70.8 26.949375 
" style="fill:none;stroke:#000000;stroke-linecap:square;stroke-linejoin:miter;"/>
   </g>
   <g id="matplotlib.axis_1">
    <g id="xtick_1">
     <g id="line2d_25">
      <path clip-path="url(#pd2a8a5e895)" d="M 70.8 303.429375 
L 70.8 26.949375 
" style="fill:none;stroke:#000000;stroke-dasharray:1.000000,3.000000;stroke-dashoffset:0.0;stroke-width:0.5;"/>
     </g>
     <g id="line2d_26">
      <defs>
       <path d="M 0 0 
L 0 -4 
" id="m3dc689a8c2" style="stroke:#000000;stroke-width:0.5;"/>
      </defs>
      <g>
       <use style="stroke:#000000;stroke-width:0.5;" x="70.8" xlink:href="#m3dc689a8c2" y="303.429375"/>
      </g>
     </g>
     <g id="line2d_27">
      <defs>
       <path d="M 0 0 
L 0 4 
" id="me22a560294" style="stroke:#000000;stroke-width:0.5;"/>
      </defs>
      <g>
       <use style="stroke:#000000;stroke-width:0.5;" x="70.8" xlink:href="#me22a560294" y="26.949375"/>
      </g>
     </g>
     <g id="text_1">
      <!-- 0 -->
      <defs>
       <path d="M 31.78125 66.40625 
Q 24.171875 66.40625 20.328125 58.90625 
Q 16.5 51.421875 16.5 36.375 
Q 16.5 21.390625 20.328125 13.890625 
Q 24.171875 6.390625 31.78125 6.390625 
Q 39.453125 6.390625 43.28125 13.890625 
Q 47.125 21.390625 47.125 36.375 
Q 47.125 51.421875 43.28125 58.90625 
Q 39.453125 66.40625 31.78125 66.40625 
M 31.78125 74.21875 
Q 44.046875 74.21875 50.515625 64.515625 
Q 56.984375 54.828125 56.984375 36.375 
Q 56.984375 17.96875 50.515625 8.265625 
Q 44.046875 -1.421875 31.78125 -1.421875 
Q 19.53125 -1.421875 13.0625 8.265625 
Q 6.59375 17.96875 6.59375 36.375 
Q 6.59375 54.828125 13.0625 64.515625 
Q 19.53125 74.21875 31.78125 74.21875 
" id="BitstreamVeraSans-Roman-30"/>
      </defs>
      <g transform="translate(64.4375 322.62625)scale(0.2 -0.2)">
       <use xlink:href="#BitstreamVeraSans-Roman-30"/>
      </g>
     </g>
    </g>
    <g id="xtick_2">
     <g id="line2d_28">
      <path clip-path="url(#pd2a8a5e895)" d="M 166.8 303.429375 
L 166.8 26.949375 
" style="fill:none;stroke:#000000;stroke-dasharray:1.000000,3.000000;stroke-dashoffset:0.0;stroke-width:0.5;"/>
     </g>
     <g id="line2d_29">
      <g>
       <use style="stroke:#000000;stroke-width:0.5;" x="166.8" xlink:href="#m3dc689a8c2" y="303.429375"/>
      </g>
     </g>
     <g id="line2d_30">
      <g>
       <use style="stroke:#000000;stroke-width:0.5;" x="166.8" xlink:href="#me22a560294" y="26.949375"/>
      </g>
     </g>
     <g id="text_2">
      <!-- 1 -->
      <defs>
       <path d="M 12.40625 8.296875 
L 28.515625 8.296875 
L 28.515625 63.921875 
L 10.984375 60.40625 
L 10.984375 69.390625 
L 28.421875 72.90625 
L 38.28125 72.90625 
L 38.28125 8.296875 
L 54.390625 8.296875 
L 54.390625 0 
L 12.40625 0 
z
" id="BitstreamVeraSans-Roman-31"/>
      </defs>
      <g transform="translate(160.4375 322.62625)scale(0.2 -0.2)">
       <use xlink:href="#BitstreamVeraSans-Roman-31"/>
      </g>
     </g>
    </g>
    <g id="xtick_3">
     <g id="line2d_31">
      <path clip-path="url(#pd2a8a5e895)" d="M 262.8 303.429375 
L 262.8 26.949375 
" style="fill:none;stroke:#000000;stroke-dasharray:1.000000,3.000000;stroke-dashoffset:0.0;stroke-width:0.5;"/>
     </g>
     <g id="line2d_32">
      <g>
       <use style="stroke:#000000;stroke-width:0.5;" x="262.8" xlink:href="#m3dc689a8c2" y="303.429375"/>
      </g>
     </g>
     <g id="line2d_33">
      <g>
       <use style="stroke:#000000;stroke-width:0.5;" x="262.8" xlink:href="#me22a560294" y="26.949375"/>
      </g>
     </g>
     <g id="text_3">
      <!-- 2 -->
      <defs>
       <path d="M 19.1875 8.296875 
L 53.609375 8.296875 
L 53.609375 0 
L 7.328125 0 
L 7.328125 8.296875 
Q 12.9375 14.109375 22.625 23.890625 
Q 32.328125 33.6875 34.8125 36.53125 
Q 39.546875 41.84375 41.421875 45.53125 
Q 43.3125 49.21875 43.3125 52.78125 
Q 43.3125 58.59375 39.234375 62.25 
Q 35.15625 65.921875 28.609375 65.921875 
Q 23.96875 65.921875 18.8125 64.3125 
Q 13.671875 62.703125 7.8125 59.421875 
L 7.8125 69.390625 
Q 13.765625 71.78125 18.9375 73 
Q 24.125 74.21875 28.421875 74.21875 
Q 39.75 74.21875 46.484375 68.546875 
Q 53.21875 62.890625 53.21875 53.421875 
Q 53.21875 48.921875 51.53125 44.890625 
Q 49.859375 40.875 45.40625 35.40625 
Q 44.1875 33.984375 37.640625 27.21875 
Q 31.109375 20.453125 19.1875 8.296875 
" id="BitstreamVeraSans-Roman-32"/>
      </defs>
      <g transform="translate(256.4375 322.62625)scale(0.2 -0.2)">
       <use xlink:href="#BitstreamVeraSans-Roman-32"/>
      </g>
     </g>
    </g>
    <g id="xtick_4">
     <g id="line2d_34">
      <path clip-path="url(#pd2a8a5e895)" d="M 358.8 303.429375 
L 358.8 26.949375 
" style="fill:none;stroke:#000000;stroke-dasharray:1.000000,3.000000;stroke-dashoffset:0.0;stroke-width:0.5;"/>
     </g>
     <g id="line2d_35">
      <g>
       <use style="stroke:#000000;stroke-width:0.5;" x="358.8" xlink:href="#m3dc689a8c2" y="303.429375"/>
      </g>
     </g>
     <g id="line2d_36">
      <g>
       <use style="stroke:#000000;stroke-width:0.5;" x="358.8" xlink:href="#me22a560294" y="26.949375"/>
      </g>
     </g>
     <g id="text_4">
      <!-- 3 -->
      <defs>
       <path d="M 40.578125 39.3125 
Q 47.65625 37.796875 51.625 33 
Q 55.609375 28.21875 55.609375 21.1875 
Q 55.609375 10.40625 48.1875 4.484375 
Q 40.765625 -1.421875 27.09375 -1.421875 
Q 22.515625 -1.421875 17.65625 -0.515625 
Q 12.796875 0.390625 7.625 2.203125 
L 7.625 11.71875 
Q 11.71875 9.328125 16.59375 8.109375 
Q 21.484375 6.890625 26.8125 6.890625 
Q 36.078125 6.890625 40.9375 10.546875 
Q 45.796875 14.203125 45.796875 21.1875 
Q 45.796875 27.640625 41.28125 31.265625 
Q 36.765625 34.90625 28.71875 34.90625 
L 20.21875 34.90625 
L 20.21875 43.015625 
L 29.109375 43.015625 
Q 36.375 43.015625 40.234375 45.921875 
Q 44.09375 48.828125 44.09375 54.296875 
Q 44.09375 59.90625 40.109375 62.90625 
Q 36.140625 65.921875 28.71875 65.921875 
Q 24.65625 65.921875 20.015625 65.03125 
Q 15.375 64.15625 9.8125 62.3125 
L 9.8125 71.09375 
Q 15.4375 72.65625 20.34375 73.4375 
Q 25.25 74.21875 29.59375 74.21875 
Q 40.828125 74.21875 47.359375 69.109375 
Q 53.90625 64.015625 53.90625 55.328125 
Q 53.90625 49.265625 50.4375 45.09375 
Q 46.96875 40.921875 40.578125 39.3125 
" id="BitstreamVeraSans-Roman-33"/>
      </defs>
      <g transform="translate(352.4375 322.62625)scale(0.2 -0.2)">
       <use xlink:href="#BitstreamVeraSans-Roman-33"/>
      </g>
     </g>
    </g>
    <g id="xtick_5">
     <g id="line2d_37">
      <defs>
       <path d="M 0 0 
L 0 -2 
" id="m931fd3bb23" style="stroke:#000000;stroke-width:0.5;"/>
      </defs>
      <g>
       <use style="stroke:#000000;stroke-width:0.5;" x="99.6988795837" xlink:href="#m931fd3bb23" y="303.429375"/>
      </g>
     </g>
     <g id="line2d_38">
      <defs>
       <path d="M 0 0 
L 0 2 
" id="m070e48cd4e" style="stroke:#000000;stroke-width:0.5;"/>
      </defs>
      <g>
       <use style="stroke:#000000;stroke-width:0.5;" x="99.6988795837" xlink:href="#m070e48cd4e" y="26.949375"/>
      </g>
     </g>
    </g>
    <g id="xtick_6">
     <g id="line2d_39">
      <g>
       <use style="stroke:#000000;stroke-width:0.5;" x="116.603640453" xlink:href="#m931fd3bb23" y="303.429375"/>
      </g>
     </g>
     <g id="line2d_40">
      <g>
       <use style="stroke:#000000;stroke-width:0.5;" x="116.603640453" xlink:href="#m070e48cd4e" y="26.949375"/>
      </g>
     </g>
    </g>
    <g id="xtick_7">
     <g id="line2d_41">
      <g>
       <use style="stroke:#000000;stroke-width:0.5;" x="128.597759167" xlink:href="#m931fd3bb23" y="303.429375"/>
      </g>
     </g>
     <g id="line2d_42">
      <g>
       <use style="stroke:#000000;stroke-width:0.5;" x="128.597759167" xlink:href="#m070e48cd4e" y="26.949375"/>
      </g>
     </g>
    </g>
    <g id="xtick_8">
     <g id="line2d_43">
      <g>
       <use style="stroke:#000000;stroke-width:0.5;" x="137.901120416" xlink:href="#m931fd3bb23" y="303.429375"/>
      </g>
     </g>
     <g id="line2d_44">
      <g>
       <use style="stroke:#000000;stroke-width:0.5;" x="137.901120416" xlink:href="#m070e48cd4e" y="26.949375"/>
      </g>
     </g>
    </g>
    <g id="xtick_9">
     <g id="line2d_45">
      <g>
       <use style="stroke:#000000;stroke-width:0.5;" x="145.502520037" xlink:href="#m931fd3bb23" y="303.429375"/>
      </g>
     </g>
     <g id="line2d_46">
      <g>
       <use style="stroke:#000000;stroke-width:0.5;" x="145.502520037" xlink:href="#m070e48cd4e" y="26.949375"/>
      </g>
     </g>
    </g>
    <g id="xtick_10">
     <g id="line2d_47">
      <g>
       <use style="stroke:#000000;stroke-width:0.5;" x="151.929411841" xlink:href="#m931fd3bb23" y="303.429375"/>
      </g>
     </g>
     <g id="line2d_48">
      <g>
       <use style="stroke:#000000;stroke-width:0.5;" x="151.929411841" xlink:href="#m070e48cd4e" y="26.949375"/>
      </g>
     </g>
    </g>
    <g id="xtick_11">
     <g id="line2d_49">
      <g>
       <use style="stroke:#000000;stroke-width:0.5;" x="157.496638751" xlink:href="#m931fd3bb23" y="303.429375"/>
      </g>
     </g>
     <g id="line2d_50">
      <g>
       <use style="stroke:#000000;stroke-width:0.5;" x="157.496638751" xlink:href="#m070e48cd4e" y="26.949375"/>
      </g>
     </g>
    </g>
    <g id="xtick_12">
     <g id="line2d_51">
      <g>
       <use style="stroke:#000000;stroke-width:0.5;" x="162.407280906" xlink:href="#m931fd3bb23" y="303.429375"/>
      </g>
     </g>
     <g id="line2d_52">
      <g>
       <use style="stroke:#000000;stroke-width:0.5;" x="162.407280906" xlink:href="#m070e48cd4e" y="26.949375"/>
      </g>
     </g>
    </g>
    <g id="xtick_13">
     <g id="line2d_53">
      <g>
       <use style="stroke:#000000;stroke-width:0.5;" x="195.698879584" xlink:href="#m931fd3bb23" y="303.429375"/>
      </g>
     </g>
     <g id="line2d_54">
      <g>
       <use style="stroke:#000000;stroke-width:0.5;" x="195.698879584" xlink:href="#m070e48cd4e" y="26.949375"/>
      </g>
     </g>
    </g>
    <g id="xtick_14">
     <g id="line2d_55">
      <g>
       <use style="stroke:#000000;stroke-width:0.5;" x="212.603640453" xlink:href="#m931fd3bb23" y="303.429375"/>
      </g>
     </g>
     <g id="line2d_56">
      <g>
       <use style="stroke:#000000;stroke-width:0.5;" x="212.603640453" xlink:href="#m070e48cd4e" y="26.949375"/>
      </g>
     </g>
    </g>
    <g id="xtick_15">
     <g id="line2d_57">
      <g>
       <use style="stroke:#000000;stroke-width:0.5;" x="224.597759167" xlink:href="#m931fd3bb23" y="303.429375"/>
      </g>
     </g>
     <g id="line2d_58">
      <g>
       <use style="stroke:#000000;stroke-width:0.5;" x="224.597759167" xlink:href="#m070e48cd4e" y="26.949375"/>
      </g>
     </g>
    </g>
    <g id="xtick_16">
     <g id="line2d_59">
      <g>
       <use style="stroke:#000000;stroke-width:0.5;" x="233.901120416" xlink:href="#m931fd3bb23" y="303.429375"/>
      </g>
     </g>
     <g id="line2d_60">
      <g>
       <use style="stroke:#000000;stroke-width:0.5;" x="233.901120416" xlink:href="#m070e48cd4e" y="26.949375"/>
      </g>
     </g>
    </g>
    <g id="xtick_17">
     <g id="line2d_61">
      <g>
       <use style="stroke:#000000;stroke-width:0.5;" x="241.502520037" xlink:href="#m931fd3bb23" y="303.429375"/>
      </g>
     </g>
     <g id="line2d_62">
      <g>
       <use style="stroke:#000000;stroke-width:0.5;" x="241.502520037" xlink:href="#m070e48cd4e" y="26.949375"/>
      </g>
     </g>
    </g>
    <g id="xtick_18">
     <g id="line2d_63">
      <g>
       <use style="stroke:#000000;stroke-width:0.5;" x="247.929411841" xlink:href="#m931fd3bb23" y="303.429375"/>
      </g>
     </g>
     <g id="line2d_64">
      <g>
       <use style="stroke:#000000;stroke-width:0.5;" x="247.929411841" xlink:href="#m070e48cd4e" y="26.949375"/>
      </g>
     </g>
    </g>
    <g id="xtick_19">
     <g id="line2d_65">
      <g>
       <use style="stroke:#000000;stroke-width:0.5;" x="253.496638751" xlink:href="#m931fd3bb23" y="303.429375"/>
      </g>
     </g>
     <g id="line2d_66">
      <g>
       <use style="stroke:#000000;stroke-width:0.5;" x="253.496638751" xlink:href="#m070e48cd4e" y="26.949375"/>
      </g>
     </g>
    </g>
    <g id="xtick_20">
     <g id="line2d_67">
      <g>
       <use style="stroke:#000000;stroke-width:0.5;" x="258.407280906" xlink:href="#m931fd3bb23" y="303.429375"/>
      </g>
     </g>
     <g id="line2d_68">
      <g>
       <use style="stroke:#000000;stroke-width:0.5;" x="258.407280906" xlink:href="#m070e48cd4e" y="26.949375"/>
      </g>
     </g>
    </g>
    <g id="xtick_21">
     <g id="line2d_69">
      <g>
       <use style="stroke:#000000;stroke-width:0.5;" x="291.698879584" xlink:href="#m931fd3bb23" y="303.429375"/>
      </g>
     </g>
     <g id="line2d_70">
      <g>
       <use style="stroke:#000000;stroke-width:0.5;" x="291.698879584" xlink:href="#m070e48cd4e" y="26.949375"/>
      </g>
     </g>
    </g>
    <g id="xtick_22">
     <g id="line2d_71">
      <g>
       <use style="stroke:#000000;stroke-width:0.5;" x="308.603640453" xlink:href="#m931fd3bb23" y="303.429375"/>
      </g>
     </g>
     <g id="line2d_72">
      <g>
       <use style="stroke:#000000;stroke-width:0.5;" x="308.603640453" xlink:href="#m070e48cd4e" y="26.949375"/>
      </g>
     </g>
    </g>
    <g id="xtick_23">
     <g id="line2d_73">
      <g>
       <use style="stroke:#000000;stroke-width:0.5;" x="320.597759167" xlink:href="#m931fd3bb23" y="303.429375"/>
      </g>
     </g>
     <g id="line2d_74">
      <g>
       <use style="stroke:#000000;stroke-width:0.5;" x="320.597759167" xlink:href="#m070e48cd4e" y="26.949375"/>
      </g>
     </g>
    </g>
    <g id="xtick_24">
     <g id="line2d_75">
      <g>
       <use style="stroke:#000000;stroke-width:0.5;" x="329.901120416" xlink:href="#m931fd3bb23" y="303.429375"/>
      </g>
     </g>
     <g id="line2d_76">
      <g>
       <use style="stroke:#000000;stroke-width:0.5;" x="329.901120416" xlink:href="#m070e48cd4e" y="26.949375"/>
      </g>
     </g>
    </g>
    <g id="xtick_25">
     <g id="line2d_77">
      <g>
       <use style="stroke:#000000;stroke-width:0.5;" x="337.502520037" xlink:href="#m931fd3bb23" y="303.429375"/>
      </g>
     </g>
     <g id="line2d_78">
      <g>
       <use style="stroke:#000000;stroke-width:0.5;" x="337.502520037" xlink:href="#m070e48cd4e" y="26.949375"/>
      </g>
     </g>
    </g>
    <g id="xtick_26">
     <g id="line2d_79">
      <g>
       <use style="stroke:#000000;stroke-width:0.5;" x="343.929411841" xlink:href="#m931fd3bb23" y="303.429375"/>
      </g>
     </g>
     <g id="line2d_80">
      <g>
       <use style="stroke:#000000;stroke-width:0.5;" x="343.929411841" xlink:href="#m070e48cd4e" y="26.949375"/>
      </g>
     </g>
    </g>
    <g id="xtick_27">
     <g id="line2d_81">
      <g>
       <use style="stroke:#000000;stroke-width:0.5;" x="349.496638751" xlink:href="#m931fd3bb23" y="303.429375"/>
      </g>
     </g>
     <g id="line2d_82">
      <g>
       <use style="stroke:#000000;stroke-width:0.5;" x="349.496638751" xlink:href="#m070e48cd4e" y="26.949375"/>
      </g>
     </g>
    </g>
    <g id="xtick_28">
     <g id="line2d_83">
      <g>
       <use style="stroke:#000000;stroke-width:0.5;" x="354.407280906" xlink:href="#m931fd3bb23" y="303.429375"/>
      </g>
     </g>
     <g id="line2d_84">
      <g>
       <use style="stroke:#000000;stroke-width:0.5;" x="354.407280906" xlink:href="#m070e48cd4e" y="26.949375"/>
      </g>
     </g>
    </g>
    <g id="xtick_29">
     <g id="line2d_85">
      <g>
       <use style="stroke:#000000;stroke-width:0.5;" x="387.698879584" xlink:href="#m931fd3bb23" y="303.429375"/>
      </g>
     </g>
     <g id="line2d_86">
      <g>
       <use style="stroke:#000000;stroke-width:0.5;" x="387.698879584" xlink:href="#m070e48cd4e" y="26.949375"/>
      </g>
     </g>
    </g>
    <g id="xtick_30">
     <g id="line2d_87">
      <g>
       <use style="stroke:#000000;stroke-width:0.5;" x="404.603640453" xlink:href="#m931fd3bb23" y="303.429375"/>
      </g>
     </g>
     <g id="line2d_88">
      <g>
       <use style="stroke:#000000;stroke-width:0.5;" x="404.603640453" xlink:href="#m070e48cd4e" y="26.949375"/>
      </g>
     </g>
    </g>
    <g id="xtick_31">
     <g id="line2d_89">
      <g>
       <use style="stroke:#000000;stroke-width:0.5;" x="416.597759167" xlink:href="#m931fd3bb23" y="303.429375"/>
      </g>
     </g>
     <g id="line2d_90">
      <g>
       <use style="stroke:#000000;stroke-width:0.5;" x="416.597759167" xlink:href="#m070e48cd4e" y="26.949375"/>
      </g>
     </g>
    </g>
    <g id="xtick_32">
     <g id="line2d_91">
      <g>
       <use style="stroke:#000000;stroke-width:0.5;" x="425.901120416" xlink:href="#m931fd3bb23" y="303.429375"/>
      </g>
     </g>
     <g id="line2d_92">
      <g>
       <use style="stroke:#000000;stroke-width:0.5;" x="425.901120416" xlink:href="#m070e48cd4e" y="26.949375"/>
      </g>
     </g>
    </g>
    <g id="text_5">
     <!-- log10 of (# f-evals / dimension) -->
     <defs>
      <path id="BitstreamVeraSans-Roman-20"/>
      <path d="M 51.125 44 
L 36.921875 44 
L 32.8125 27.6875 
L 47.125 27.6875 
z
M 43.796875 71.78125 
L 38.71875 51.515625 
L 52.984375 51.515625 
L 58.109375 71.78125 
L 65.921875 71.78125 
L 60.890625 51.515625 
L 76.125 51.515625 
L 76.125 44 
L 58.984375 44 
L 54.984375 27.6875 
L 70.515625 27.6875 
L 70.515625 20.21875 
L 53.078125 20.21875 
L 48 0 
L 40.1875 0 
L 45.21875 20.21875 
L 30.90625 20.21875 
L 25.875 0 
L 18.015625 0 
L 23.09375 20.21875 
L 7.71875 20.21875 
L 7.71875 27.6875 
L 24.90625 27.6875 
L 29 44 
L 13.28125 44 
L 13.28125 51.515625 
L 30.90625 51.515625 
L 35.890625 71.78125 
z
" id="BitstreamVeraSans-Roman-23"/>
      <path d="M 52 44.1875 
Q 55.375 50.25 60.0625 53.125 
Q 64.75 56 71.09375 56 
Q 79.640625 56 84.28125 50.015625 
Q 88.921875 44.046875 88.921875 33.015625 
L 88.921875 0 
L 79.890625 0 
L 79.890625 32.71875 
Q 79.890625 40.578125 77.09375 44.375 
Q 74.3125 48.1875 68.609375 48.1875 
Q 61.625 48.1875 57.5625 43.546875 
Q 53.515625 38.921875 53.515625 30.90625 
L 53.515625 0 
L 44.484375 0 
L 44.484375 32.71875 
Q 44.484375 40.625 41.703125 44.40625 
Q 38.921875 48.1875 33.109375 48.1875 
Q 26.21875 48.1875 22.15625 43.53125 
Q 18.109375 38.875 18.109375 30.90625 
L 18.109375 0 
L 9.078125 0 
L 9.078125 54.6875 
L 18.109375 54.6875 
L 18.109375 46.1875 
Q 21.1875 51.21875 25.484375 53.609375 
Q 29.78125 56 35.6875 56 
Q 41.65625 56 45.828125 52.96875 
Q 50 49.953125 52 44.1875 
" id="BitstreamVeraSans-Roman-6d"/>
      <path d="M 54.890625 33.015625 
L 54.890625 0 
L 45.90625 0 
L 45.90625 32.71875 
Q 45.90625 40.484375 42.875 44.328125 
Q 39.84375 48.1875 33.796875 48.1875 
Q 26.515625 48.1875 22.3125 43.546875 
Q 18.109375 38.921875 18.109375 30.90625 
L 18.109375 0 
L 9.078125 0 
L 9.078125 54.6875 
L 18.109375 54.6875 
L 18.109375 46.1875 
Q 21.34375 51.125 25.703125 53.5625 
Q 30.078125 56 35.796875 56 
Q 45.21875 56 50.046875 50.171875 
Q 54.890625 44.34375 54.890625 33.015625 
" id="BitstreamVeraSans-Roman-6e"/>
      <path d="M 31 75.875 
Q 24.46875 64.65625 21.28125 53.65625 
Q 18.109375 42.671875 18.109375 31.390625 
Q 18.109375 20.125 21.3125 9.0625 
Q 24.515625 -2 31 -13.1875 
L 23.1875 -13.1875 
Q 15.875 -1.703125 12.234375 9.375 
Q 8.59375 20.453125 8.59375 31.390625 
Q 8.59375 42.28125 12.203125 53.3125 
Q 15.828125 64.359375 23.1875 75.875 
z
" id="BitstreamVeraSans-Roman-28"/>
      <path d="M 30.609375 48.390625 
Q 23.390625 48.390625 19.1875 42.75 
Q 14.984375 37.109375 14.984375 27.296875 
Q 14.984375 17.484375 19.15625 11.84375 
Q 23.34375 6.203125 30.609375 6.203125 
Q 37.796875 6.203125 41.984375 11.859375 
Q 46.1875 17.53125 46.1875 27.296875 
Q 46.1875 37.015625 41.984375 42.703125 
Q 37.796875 48.390625 30.609375 48.390625 
M 30.609375 56 
Q 42.328125 56 49.015625 48.375 
Q 55.71875 40.765625 55.71875 27.296875 
Q 55.71875 13.875 49.015625 6.21875 
Q 42.328125 -1.421875 30.609375 -1.421875 
Q 18.84375 -1.421875 12.171875 6.21875 
Q 5.515625 13.875 5.515625 27.296875 
Q 5.515625 40.765625 12.171875 48.375 
Q 18.84375 56 30.609375 56 
" id="BitstreamVeraSans-Roman-6f"/>
      <path d="M 9.421875 75.984375 
L 18.40625 75.984375 
L 18.40625 0 
L 9.421875 0 
z
" id="BitstreamVeraSans-Roman-6c"/>
      <path d="M 2.984375 54.6875 
L 12.5 54.6875 
L 29.59375 8.796875 
L 46.6875 54.6875 
L 56.203125 54.6875 
L 35.6875 0 
L 23.484375 0 
z
" id="BitstreamVeraSans-Roman-76"/>
      <path d="M 9.421875 54.6875 
L 18.40625 54.6875 
L 18.40625 0 
L 9.421875 0 
z
M 9.421875 75.984375 
L 18.40625 75.984375 
L 18.40625 64.59375 
L 9.421875 64.59375 
z
" id="BitstreamVeraSans-Roman-69"/>
      <path d="M 4.890625 31.390625 
L 31.203125 31.390625 
L 31.203125 23.390625 
L 4.890625 23.390625 
z
" id="BitstreamVeraSans-Roman-2d"/>
      <path d="M 25.390625 72.90625 
L 33.6875 72.90625 
L 8.296875 -9.28125 
L 0 -9.28125 
z
" id="BitstreamVeraSans-Roman-2f"/>
      <path d="M 56.203125 29.59375 
L 56.203125 25.203125 
L 14.890625 25.203125 
Q 15.484375 15.921875 20.484375 11.0625 
Q 25.484375 6.203125 34.421875 6.203125 
Q 39.59375 6.203125 44.453125 7.46875 
Q 49.3125 8.734375 54.109375 11.28125 
L 54.109375 2.78125 
Q 49.265625 0.734375 44.1875 -0.34375 
Q 39.109375 -1.421875 33.890625 -1.421875 
Q 20.796875 -1.421875 13.15625 6.1875 
Q 5.515625 13.8125 5.515625 26.8125 
Q 5.515625 40.234375 12.765625 48.109375 
Q 20.015625 56 32.328125 56 
Q 43.359375 56 49.78125 48.890625 
Q 56.203125 41.796875 56.203125 29.59375 
M 47.21875 32.234375 
Q 47.125 39.59375 43.09375 43.984375 
Q 39.0625 48.390625 32.421875 48.390625 
Q 24.90625 48.390625 20.390625 44.140625 
Q 15.875 39.890625 15.1875 32.171875 
z
" id="BitstreamVeraSans-Roman-65"/>
      <path d="M 45.40625 46.390625 
L 45.40625 75.984375 
L 54.390625 75.984375 
L 54.390625 0 
L 45.40625 0 
L 45.40625 8.203125 
Q 42.578125 3.328125 38.25 0.953125 
Q 33.9375 -1.421875 27.875 -1.421875 
Q 17.96875 -1.421875 11.734375 6.484375 
Q 5.515625 14.40625 5.515625 27.296875 
Q 5.515625 40.1875 11.734375 48.09375 
Q 17.96875 56 27.875 56 
Q 33.9375 56 38.25 53.625 
Q 42.578125 51.265625 45.40625 46.390625 
M 14.796875 27.296875 
Q 14.796875 17.390625 18.875 11.75 
Q 22.953125 6.109375 30.078125 6.109375 
Q 37.203125 6.109375 41.296875 11.75 
Q 45.40625 17.390625 45.40625 27.296875 
Q 45.40625 37.203125 41.296875 42.84375 
Q 37.203125 48.484375 30.078125 48.484375 
Q 22.953125 48.484375 18.875 42.84375 
Q 14.796875 37.203125 14.796875 27.296875 
" id="BitstreamVeraSans-Roman-64"/>
      <path d="M 45.40625 27.984375 
Q 45.40625 37.75 41.375 43.109375 
Q 37.359375 48.484375 30.078125 48.484375 
Q 22.859375 48.484375 18.828125 43.109375 
Q 14.796875 37.75 14.796875 27.984375 
Q 14.796875 18.265625 18.828125 12.890625 
Q 22.859375 7.515625 30.078125 7.515625 
Q 37.359375 7.515625 41.375 12.890625 
Q 45.40625 18.265625 45.40625 27.984375 
M 54.390625 6.78125 
Q 54.390625 -7.171875 48.1875 -13.984375 
Q 42 -20.796875 29.203125 -20.796875 
Q 24.46875 -20.796875 20.265625 -20.09375 
Q 16.0625 -19.390625 12.109375 -17.921875 
L 12.109375 -9.1875 
Q 16.0625 -11.328125 19.921875 -12.34375 
Q 23.78125 -13.375 27.78125 -13.375 
Q 36.625 -13.375 41.015625 -8.765625 
Q 45.40625 -4.15625 45.40625 5.171875 
L 45.40625 9.625 
Q 42.625 4.78125 38.28125 2.390625 
Q 33.9375 0 27.875 0 
Q 17.828125 0 11.671875 7.65625 
Q 5.515625 15.328125 5.515625 27.984375 
Q 5.515625 40.671875 11.671875 48.328125 
Q 17.828125 56 27.875 56 
Q 33.9375 56 38.28125 53.609375 
Q 42.625 51.21875 45.40625 46.390625 
L 45.40625 54.6875 
L 54.390625 54.6875 
z
" id="BitstreamVeraSans-Roman-67"/>
      <path d="M 37.109375 75.984375 
L 37.109375 68.5 
L 28.515625 68.5 
Q 23.6875 68.5 21.796875 66.546875 
Q 19.921875 64.59375 19.921875 59.515625 
L 19.921875 54.6875 
L 34.71875 54.6875 
L 34.71875 47.703125 
L 19.921875 47.703125 
L 19.921875 0 
L 10.890625 0 
L 10.890625 47.703125 
L 2.296875 47.703125 
L 2.296875 54.6875 
L 10.890625 54.6875 
L 10.890625 58.5 
Q 10.890625 67.625 15.140625 71.796875 
Q 19.390625 75.984375 28.609375 75.984375 
z
" id="BitstreamVeraSans-Roman-66"/>
      <path d="M 34.28125 27.484375 
Q 23.390625 27.484375 19.1875 25 
Q 14.984375 22.515625 14.984375 16.5 
Q 14.984375 11.71875 18.140625 8.90625 
Q 21.296875 6.109375 26.703125 6.109375 
Q 34.1875 6.109375 38.703125 11.40625 
Q 43.21875 16.703125 43.21875 25.484375 
L 43.21875 27.484375 
z
M 52.203125 31.203125 
L 52.203125 0 
L 43.21875 0 
L 43.21875 8.296875 
Q 40.140625 3.328125 35.546875 0.953125 
Q 30.953125 -1.421875 24.3125 -1.421875 
Q 15.921875 -1.421875 10.953125 3.296875 
Q 6 8.015625 6 15.921875 
Q 6 25.140625 12.171875 29.828125 
Q 18.359375 34.515625 30.609375 34.515625 
L 43.21875 34.515625 
L 43.21875 35.40625 
Q 43.21875 41.609375 39.140625 45 
Q 35.0625 48.390625 27.6875 48.390625 
Q 23 48.390625 18.546875 47.265625 
Q 14.109375 46.140625 10.015625 43.890625 
L 10.015625 52.203125 
Q 14.9375 54.109375 19.578125 55.046875 
Q 24.21875 56 28.609375 56 
Q 40.484375 56 46.34375 49.84375 
Q 52.203125 43.703125 52.203125 31.203125 
" id="BitstreamVeraSans-Roman-61"/>
      <path d="M 44.28125 53.078125 
L 44.28125 44.578125 
Q 40.484375 46.53125 36.375 47.5 
Q 32.28125 48.484375 27.875 48.484375 
Q 21.1875 48.484375 17.84375 46.4375 
Q 14.5 44.390625 14.5 40.28125 
Q 14.5 37.15625 16.890625 35.375 
Q 19.28125 33.59375 26.515625 31.984375 
L 29.59375 31.296875 
Q 39.15625 29.25 43.1875 25.515625 
Q 47.21875 21.78125 47.21875 15.09375 
Q 47.21875 7.46875 41.1875 3.015625 
Q 35.15625 -1.421875 24.609375 -1.421875 
Q 20.21875 -1.421875 15.453125 -0.5625 
Q 10.6875 0.296875 5.421875 2 
L 5.421875 11.28125 
Q 10.40625 8.6875 15.234375 7.390625 
Q 20.0625 6.109375 24.8125 6.109375 
Q 31.15625 6.109375 34.5625 8.28125 
Q 37.984375 10.453125 37.984375 14.40625 
Q 37.984375 18.0625 35.515625 20.015625 
Q 33.0625 21.96875 24.703125 23.78125 
L 21.578125 24.515625 
Q 13.234375 26.265625 9.515625 29.90625 
Q 5.8125 33.546875 5.8125 39.890625 
Q 5.8125 47.609375 11.28125 51.796875 
Q 16.75 56 26.8125 56 
Q 31.78125 56 36.171875 55.265625 
Q 40.578125 54.546875 44.28125 53.078125 
" id="BitstreamVeraSans-Roman-73"/>
      <path d="M 8.015625 75.875 
L 15.828125 75.875 
Q 23.140625 64.359375 26.78125 53.3125 
Q 30.421875 42.28125 30.421875 31.390625 
Q 30.421875 20.453125 26.78125 9.375 
Q 23.140625 -1.703125 15.828125 -13.1875 
L 8.015625 -13.1875 
Q 14.5 -2 17.703125 9.0625 
Q 20.90625 20.125 20.90625 31.390625 
Q 20.90625 42.671875 17.703125 53.65625 
Q 14.5 64.65625 8.015625 75.875 
" id="BitstreamVeraSans-Roman-29"/>
     </defs>
     <g transform="translate(107.01515625 345.4628125)scale(0.18 -0.18)">
      <use xlink:href="#BitstreamVeraSans-Roman-6c"/>
      <use x="27.783203125" xlink:href="#BitstreamVeraSans-Roman-6f"/>
      <use x="88.96484375" xlink:href="#BitstreamVeraSans-Roman-67"/>
      <use x="152.44140625" xlink:href="#BitstreamVeraSans-Roman-31"/>
      <use x="216.064453125" xlink:href="#BitstreamVeraSans-Roman-30"/>
      <use x="279.6875" xlink:href="#BitstreamVeraSans-Roman-20"/>
      <use x="311.474609375" xlink:href="#BitstreamVeraSans-Roman-6f"/>
      <use x="372.65625" xlink:href="#BitstreamVeraSans-Roman-66"/>
      <use x="407.861328125" xlink:href="#BitstreamVeraSans-Roman-20"/>
      <use x="439.6484375" xlink:href="#BitstreamVeraSans-Roman-28"/>
      <use x="478.662109375" xlink:href="#BitstreamVeraSans-Roman-23"/>
      <use x="562.451171875" xlink:href="#BitstreamVeraSans-Roman-20"/>
      <use x="594.23828125" xlink:href="#BitstreamVeraSans-Roman-66"/>
      <use x="629.365234375" xlink:href="#BitstreamVeraSans-Roman-2d"/>
      <use x="665.44921875" xlink:href="#BitstreamVeraSans-Roman-65"/>
      <use x="726.97265625" xlink:href="#BitstreamVeraSans-Roman-76"/>
      <use x="786.15234375" xlink:href="#BitstreamVeraSans-Roman-61"/>
      <use x="847.431640625" xlink:href="#BitstreamVeraSans-Roman-6c"/>
      <use x="875.21484375" xlink:href="#BitstreamVeraSans-Roman-73"/>
      <use x="927.314453125" xlink:href="#BitstreamVeraSans-Roman-20"/>
      <use x="959.1015625" xlink:href="#BitstreamVeraSans-Roman-2f"/>
      <use x="992.79296875" xlink:href="#BitstreamVeraSans-Roman-20"/>
      <use x="1024.58007812" xlink:href="#BitstreamVeraSans-Roman-64"/>
      <use x="1088.05664062" xlink:href="#BitstreamVeraSans-Roman-69"/>
      <use x="1115.83984375" xlink:href="#BitstreamVeraSans-Roman-6d"/>
      <use x="1213.25195312" xlink:href="#BitstreamVeraSans-Roman-65"/>
      <use x="1274.77539062" xlink:href="#BitstreamVeraSans-Roman-6e"/>
      <use x="1338.15429688" xlink:href="#BitstreamVeraSans-Roman-73"/>
      <use x="1390.25390625" xlink:href="#BitstreamVeraSans-Roman-69"/>
      <use x="1418.03710938" xlink:href="#BitstreamVeraSans-Roman-6f"/>
      <use x="1479.21875" xlink:href="#BitstreamVeraSans-Roman-6e"/>
      <use x="1542.59765625" xlink:href="#BitstreamVeraSans-Roman-29"/>
     </g>
    </g>
   </g>
   <g id="matplotlib.axis_2">
    <g id="ytick_1">
     <g id="line2d_93">
      <path clip-path="url(#pd2a8a5e895)" d="M 70.8 303.429375 
L 427.92 303.429375 
" style="fill:none;stroke:#000000;stroke-dasharray:1.000000,3.000000;stroke-dashoffset:0.0;stroke-width:0.5;"/>
     </g>
     <g id="line2d_94">
      <defs>
       <path d="M 0 0 
L 4 0 
" id="mb76fd86d70" style="stroke:#000000;stroke-width:0.5;"/>
      </defs>
      <g>
       <use style="stroke:#000000;stroke-width:0.5;" x="70.8" xlink:href="#mb76fd86d70" y="303.429375"/>
      </g>
     </g>
     <g id="line2d_95">
      <defs>
       <path d="M 0 0 
L -4 0 
" id="m489f36e962" style="stroke:#000000;stroke-width:0.5;"/>
      </defs>
      <g>
       <use style="stroke:#000000;stroke-width:0.5;" x="427.92" xlink:href="#m489f36e962" y="303.429375"/>
      </g>
     </g>
     <g id="text_6">
      <!-- 0.0 -->
      <defs>
       <path d="M 10.6875 12.40625 
L 21 12.40625 
L 21 0 
L 10.6875 0 
z
" id="BitstreamVeraSans-Roman-2e"/>
      </defs>
      <g transform="translate(34.99375 308.948125)scale(0.2 -0.2)">
       <use xlink:href="#BitstreamVeraSans-Roman-30"/>
       <use x="63.623046875" xlink:href="#BitstreamVeraSans-Roman-2e"/>
       <use x="95.41015625" xlink:href="#BitstreamVeraSans-Roman-30"/>
      </g>
     </g>
    </g>
    <g id="ytick_2">
     <g id="line2d_96">
      <path clip-path="url(#pd2a8a5e895)" d="M 70.8 248.68086 
L 427.92 248.68086 
" style="fill:none;stroke:#000000;stroke-dasharray:1.000000,3.000000;stroke-dashoffset:0.0;stroke-width:0.5;"/>
     </g>
     <g id="line2d_97">
      <g>
       <use style="stroke:#000000;stroke-width:0.5;" x="70.8" xlink:href="#mb76fd86d70" y="248.680860149"/>
      </g>
     </g>
     <g id="line2d_98">
      <g>
       <use style="stroke:#000000;stroke-width:0.5;" x="427.92" xlink:href="#m489f36e962" y="248.680860149"/>
      </g>
     </g>
     <g id="text_7">
      <!-- 0.2 -->
      <g transform="translate(34.99375 254.199610149)scale(0.2 -0.2)">
       <use xlink:href="#BitstreamVeraSans-Roman-30"/>
       <use x="63.623046875" xlink:href="#BitstreamVeraSans-Roman-2e"/>
       <use x="95.41015625" xlink:href="#BitstreamVeraSans-Roman-32"/>
      </g>
     </g>
    </g>
    <g id="ytick_3">
     <g id="line2d_99">
      <path clip-path="url(#pd2a8a5e895)" d="M 70.8 193.932345 
L 427.92 193.932345 
" style="fill:none;stroke:#000000;stroke-dasharray:1.000000,3.000000;stroke-dashoffset:0.0;stroke-width:0.5;"/>
     </g>
     <g id="line2d_100">
      <g>
       <use style="stroke:#000000;stroke-width:0.5;" x="70.8" xlink:href="#mb76fd86d70" y="193.932345297"/>
      </g>
     </g>
     <g id="line2d_101">
      <g>
       <use style="stroke:#000000;stroke-width:0.5;" x="427.92" xlink:href="#m489f36e962" y="193.932345297"/>
      </g>
     </g>
     <g id="text_8">
      <!-- 0.4 -->
      <defs>
       <path d="M 37.796875 64.3125 
L 12.890625 25.390625 
L 37.796875 25.390625 
z
M 35.203125 72.90625 
L 47.609375 72.90625 
L 47.609375 25.390625 
L 58.015625 25.390625 
L 58.015625 17.1875 
L 47.609375 17.1875 
L 47.609375 0 
L 37.796875 0 
L 37.796875 17.1875 
L 4.890625 17.1875 
L 4.890625 26.703125 
z
" id="BitstreamVeraSans-Roman-34"/>
      </defs>
      <g transform="translate(34.99375 199.451095297)scale(0.2 -0.2)">
       <use xlink:href="#BitstreamVeraSans-Roman-30"/>
       <use x="63.623046875" xlink:href="#BitstreamVeraSans-Roman-2e"/>
       <use x="95.41015625" xlink:href="#BitstreamVeraSans-Roman-34"/>
      </g>
     </g>
    </g>
    <g id="ytick_4">
     <g id="line2d_102">
      <path clip-path="url(#pd2a8a5e895)" d="M 70.8 139.18383 
L 427.92 139.18383 
" style="fill:none;stroke:#000000;stroke-dasharray:1.000000,3.000000;stroke-dashoffset:0.0;stroke-width:0.5;"/>
     </g>
     <g id="line2d_103">
      <g>
       <use style="stroke:#000000;stroke-width:0.5;" x="70.8" xlink:href="#mb76fd86d70" y="139.183830446"/>
      </g>
     </g>
     <g id="line2d_104">
      <g>
       <use style="stroke:#000000;stroke-width:0.5;" x="427.92" xlink:href="#m489f36e962" y="139.183830446"/>
      </g>
     </g>
     <g id="text_9">
      <!-- 0.6 -->
      <defs>
       <path d="M 33.015625 40.375 
Q 26.375 40.375 22.484375 35.828125 
Q 18.609375 31.296875 18.609375 23.390625 
Q 18.609375 15.53125 22.484375 10.953125 
Q 26.375 6.390625 33.015625 6.390625 
Q 39.65625 6.390625 43.53125 10.953125 
Q 47.40625 15.53125 47.40625 23.390625 
Q 47.40625 31.296875 43.53125 35.828125 
Q 39.65625 40.375 33.015625 40.375 
M 52.59375 71.296875 
L 52.59375 62.3125 
Q 48.875 64.0625 45.09375 64.984375 
Q 41.3125 65.921875 37.59375 65.921875 
Q 27.828125 65.921875 22.671875 59.328125 
Q 17.53125 52.734375 16.796875 39.40625 
Q 19.671875 43.65625 24.015625 45.921875 
Q 28.375 48.1875 33.59375 48.1875 
Q 44.578125 48.1875 50.953125 41.515625 
Q 57.328125 34.859375 57.328125 23.390625 
Q 57.328125 12.15625 50.6875 5.359375 
Q 44.046875 -1.421875 33.015625 -1.421875 
Q 20.359375 -1.421875 13.671875 8.265625 
Q 6.984375 17.96875 6.984375 36.375 
Q 6.984375 53.65625 15.1875 63.9375 
Q 23.390625 74.21875 37.203125 74.21875 
Q 40.921875 74.21875 44.703125 73.484375 
Q 48.484375 72.75 52.59375 71.296875 
" id="BitstreamVeraSans-Roman-36"/>
      </defs>
      <g transform="translate(34.99375 144.702580446)scale(0.2 -0.2)">
       <use xlink:href="#BitstreamVeraSans-Roman-30"/>
       <use x="63.623046875" xlink:href="#BitstreamVeraSans-Roman-2e"/>
       <use x="95.41015625" xlink:href="#BitstreamVeraSans-Roman-36"/>
      </g>
     </g>
    </g>
    <g id="ytick_5">
     <g id="line2d_105">
      <path clip-path="url(#pd2a8a5e895)" d="M 70.8 84.435316 
L 427.92 84.435316 
" style="fill:none;stroke:#000000;stroke-dasharray:1.000000,3.000000;stroke-dashoffset:0.0;stroke-width:0.5;"/>
     </g>
     <g id="line2d_106">
      <g>
       <use style="stroke:#000000;stroke-width:0.5;" x="70.8" xlink:href="#mb76fd86d70" y="84.4353155941"/>
      </g>
     </g>
     <g id="line2d_107">
      <g>
       <use style="stroke:#000000;stroke-width:0.5;" x="427.92" xlink:href="#m489f36e962" y="84.4353155941"/>
      </g>
     </g>
     <g id="text_10">
      <!-- 0.8 -->
      <defs>
       <path d="M 31.78125 34.625 
Q 24.75 34.625 20.71875 30.859375 
Q 16.703125 27.09375 16.703125 20.515625 
Q 16.703125 13.921875 20.71875 10.15625 
Q 24.75 6.390625 31.78125 6.390625 
Q 38.8125 6.390625 42.859375 10.171875 
Q 46.921875 13.96875 46.921875 20.515625 
Q 46.921875 27.09375 42.890625 30.859375 
Q 38.875 34.625 31.78125 34.625 
M 21.921875 38.8125 
Q 15.578125 40.375 12.03125 44.71875 
Q 8.5 49.078125 8.5 55.328125 
Q 8.5 64.0625 14.71875 69.140625 
Q 20.953125 74.21875 31.78125 74.21875 
Q 42.671875 74.21875 48.875 69.140625 
Q 55.078125 64.0625 55.078125 55.328125 
Q 55.078125 49.078125 51.53125 44.71875 
Q 48 40.375 41.703125 38.8125 
Q 48.828125 37.15625 52.796875 32.3125 
Q 56.78125 27.484375 56.78125 20.515625 
Q 56.78125 9.90625 50.3125 4.234375 
Q 43.84375 -1.421875 31.78125 -1.421875 
Q 19.734375 -1.421875 13.25 4.234375 
Q 6.78125 9.90625 6.78125 20.515625 
Q 6.78125 27.484375 10.78125 32.3125 
Q 14.796875 37.15625 21.921875 38.8125 
M 18.3125 54.390625 
Q 18.3125 48.734375 21.84375 45.5625 
Q 25.390625 42.390625 31.78125 42.390625 
Q 38.140625 42.390625 41.71875 45.5625 
Q 45.3125 48.734375 45.3125 54.390625 
Q 45.3125 60.0625 41.71875 63.234375 
Q 38.140625 66.40625 31.78125 66.40625 
Q 25.390625 66.40625 21.84375 63.234375 
Q 18.3125 60.0625 18.3125 54.390625 
" id="BitstreamVeraSans-Roman-38"/>
      </defs>
      <g transform="translate(34.99375 89.9540655941)scale(0.2 -0.2)">
       <use xlink:href="#BitstreamVeraSans-Roman-30"/>
       <use x="63.623046875" xlink:href="#BitstreamVeraSans-Roman-2e"/>
       <use x="95.41015625" xlink:href="#BitstreamVeraSans-Roman-38"/>
      </g>
     </g>
    </g>
    <g id="ytick_6">
     <g id="line2d_108">
      <path clip-path="url(#pd2a8a5e895)" d="M 70.8 29.686801 
L 427.92 29.686801 
" style="fill:none;stroke:#000000;stroke-dasharray:1.000000,3.000000;stroke-dashoffset:0.0;stroke-width:0.5;"/>
     </g>
     <g id="line2d_109">
      <g>
       <use style="stroke:#000000;stroke-width:0.5;" x="70.8" xlink:href="#mb76fd86d70" y="29.6868007426"/>
      </g>
     </g>
     <g id="line2d_110">
      <g>
       <use style="stroke:#000000;stroke-width:0.5;" x="427.92" xlink:href="#m489f36e962" y="29.6868007426"/>
      </g>
     </g>
     <g id="text_11">
      <!-- 1.0 -->
      <g transform="translate(34.99375 35.2055507426)scale(0.2 -0.2)">
       <use xlink:href="#BitstreamVeraSans-Roman-31"/>
       <use x="63.623046875" xlink:href="#BitstreamVeraSans-Roman-2e"/>
       <use x="95.41015625" xlink:href="#BitstreamVeraSans-Roman-30"/>
      </g>
     </g>
    </g>
    <g id="text_12">
     <!-- Proportion of function+target pairs -->
     <defs>
      <path d="M 19.671875 64.796875 
L 19.671875 37.40625 
L 32.078125 37.40625 
Q 38.96875 37.40625 42.71875 40.96875 
Q 46.484375 44.53125 46.484375 51.125 
Q 46.484375 57.671875 42.71875 61.234375 
Q 38.96875 64.796875 32.078125 64.796875 
z
M 9.8125 72.90625 
L 32.078125 72.90625 
Q 44.34375 72.90625 50.609375 67.359375 
Q 56.890625 61.8125 56.890625 51.125 
Q 56.890625 40.328125 50.609375 34.8125 
Q 44.34375 29.296875 32.078125 29.296875 
L 19.671875 29.296875 
L 19.671875 0 
L 9.8125 0 
z
" id="BitstreamVeraSans-Roman-50"/>
      <path d="M 46 62.703125 
L 46 35.5 
L 73.1875 35.5 
L 73.1875 27.203125 
L 46 27.203125 
L 46 0 
L 37.796875 0 
L 37.796875 27.203125 
L 10.59375 27.203125 
L 10.59375 35.5 
L 37.796875 35.5 
L 37.796875 62.703125 
z
" id="BitstreamVeraSans-Roman-2b"/>
      <path d="M 18.109375 8.203125 
L 18.109375 -20.796875 
L 9.078125 -20.796875 
L 9.078125 54.6875 
L 18.109375 54.6875 
L 18.109375 46.390625 
Q 20.953125 51.265625 25.265625 53.625 
Q 29.59375 56 35.59375 56 
Q 45.5625 56 51.78125 48.09375 
Q 58.015625 40.1875 58.015625 27.296875 
Q 58.015625 14.40625 51.78125 6.484375 
Q 45.5625 -1.421875 35.59375 -1.421875 
Q 29.59375 -1.421875 25.265625 0.953125 
Q 20.953125 3.328125 18.109375 8.203125 
M 48.6875 27.296875 
Q 48.6875 37.203125 44.609375 42.84375 
Q 40.53125 48.484375 33.40625 48.484375 
Q 26.265625 48.484375 22.1875 42.84375 
Q 18.109375 37.203125 18.109375 27.296875 
Q 18.109375 17.390625 22.1875 11.75 
Q 26.265625 6.109375 33.40625 6.109375 
Q 40.53125 6.109375 44.609375 11.75 
Q 48.6875 17.390625 48.6875 27.296875 
" id="BitstreamVeraSans-Roman-70"/>
      <path d="M 18.3125 70.21875 
L 18.3125 54.6875 
L 36.8125 54.6875 
L 36.8125 47.703125 
L 18.3125 47.703125 
L 18.3125 18.015625 
Q 18.3125 11.328125 20.140625 9.421875 
Q 21.96875 7.515625 27.59375 7.515625 
L 36.8125 7.515625 
L 36.8125 0 
L 27.59375 0 
Q 17.1875 0 13.234375 3.875 
Q 9.28125 7.765625 9.28125 18.015625 
L 9.28125 47.703125 
L 2.6875 47.703125 
L 2.6875 54.6875 
L 9.28125 54.6875 
L 9.28125 70.21875 
z
" id="BitstreamVeraSans-Roman-74"/>
      <path d="M 8.5 21.578125 
L 8.5 54.6875 
L 17.484375 54.6875 
L 17.484375 21.921875 
Q 17.484375 14.15625 20.5 10.265625 
Q 23.53125 6.390625 29.59375 6.390625 
Q 36.859375 6.390625 41.078125 11.03125 
Q 45.3125 15.671875 45.3125 23.6875 
L 45.3125 54.6875 
L 54.296875 54.6875 
L 54.296875 0 
L 45.3125 0 
L 45.3125 8.40625 
Q 42.046875 3.421875 37.71875 1 
Q 33.40625 -1.421875 27.6875 -1.421875 
Q 18.265625 -1.421875 13.375 4.4375 
Q 8.5 10.296875 8.5 21.578125 
" id="BitstreamVeraSans-Roman-75"/>
      <path d="M 41.109375 46.296875 
Q 39.59375 47.171875 37.8125 47.578125 
Q 36.03125 48 33.890625 48 
Q 26.265625 48 22.1875 43.046875 
Q 18.109375 38.09375 18.109375 28.8125 
L 18.109375 0 
L 9.078125 0 
L 9.078125 54.6875 
L 18.109375 54.6875 
L 18.109375 46.1875 
Q 20.953125 51.171875 25.484375 53.578125 
Q 30.03125 56 36.53125 56 
Q 37.453125 56 38.578125 55.875 
Q 39.703125 55.765625 41.0625 55.515625 
z
" id="BitstreamVeraSans-Roman-72"/>
      <path d="M 48.78125 52.59375 
L 48.78125 44.1875 
Q 44.96875 46.296875 41.140625 47.34375 
Q 37.3125 48.390625 33.40625 48.390625 
Q 24.65625 48.390625 19.8125 42.84375 
Q 14.984375 37.3125 14.984375 27.296875 
Q 14.984375 17.28125 19.8125 11.734375 
Q 24.65625 6.203125 33.40625 6.203125 
Q 37.3125 6.203125 41.140625 7.25 
Q 44.96875 8.296875 48.78125 10.40625 
L 48.78125 2.09375 
Q 45.015625 0.34375 40.984375 -0.53125 
Q 36.96875 -1.421875 32.421875 -1.421875 
Q 20.0625 -1.421875 12.78125 6.34375 
Q 5.515625 14.109375 5.515625 27.296875 
Q 5.515625 40.671875 12.859375 48.328125 
Q 20.21875 56 33.015625 56 
Q 37.15625 56 41.109375 55.140625 
Q 45.0625 54.296875 48.78125 52.59375 
" id="BitstreamVeraSans-Roman-63"/>
     </defs>
     <g transform="translate(26.2503125 323.17875)rotate(-90.0)scale(0.18 -0.18)">
      <use xlink:href="#BitstreamVeraSans-Roman-50"/>
      <use x="60.287109375" xlink:href="#BitstreamVeraSans-Roman-72"/>
      <use x="101.369140625" xlink:href="#BitstreamVeraSans-Roman-6f"/>
      <use x="162.55078125" xlink:href="#BitstreamVeraSans-Roman-70"/>
      <use x="226.02734375" xlink:href="#BitstreamVeraSans-Roman-6f"/>
      <use x="287.208984375" xlink:href="#BitstreamVeraSans-Roman-72"/>
      <use x="328.322265625" xlink:href="#BitstreamVeraSans-Roman-74"/>
      <use x="367.53125" xlink:href="#BitstreamVeraSans-Roman-69"/>
      <use x="395.314453125" xlink:href="#BitstreamVeraSans-Roman-6f"/>
      <use x="456.49609375" xlink:href="#BitstreamVeraSans-Roman-6e"/>
      <use x="519.875" xlink:href="#BitstreamVeraSans-Roman-20"/>
      <use x="551.662109375" xlink:href="#BitstreamVeraSans-Roman-6f"/>
      <use x="612.84375" xlink:href="#BitstreamVeraSans-Roman-66"/>
      <use x="648.048828125" xlink:href="#BitstreamVeraSans-Roman-20"/>
      <use x="679.8359375" xlink:href="#BitstreamVeraSans-Roman-66"/>
      <use x="715.041015625" xlink:href="#BitstreamVeraSans-Roman-75"/>
      <use x="778.419921875" xlink:href="#BitstreamVeraSans-Roman-6e"/>
      <use x="841.798828125" xlink:href="#BitstreamVeraSans-Roman-63"/>
      <use x="896.779296875" xlink:href="#BitstreamVeraSans-Roman-74"/>
      <use x="935.98828125" xlink:href="#BitstreamVeraSans-Roman-69"/>
      <use x="963.771484375" xlink:href="#BitstreamVeraSans-Roman-6f"/>
      <use x="1024.953125" xlink:href="#BitstreamVeraSans-Roman-6e"/>
      <use x="1088.33203125" xlink:href="#BitstreamVeraSans-Roman-2b"/>
      <use x="1172.12109375" xlink:href="#BitstreamVeraSans-Roman-74"/>
      <use x="1211.33007812" xlink:href="#BitstreamVeraSans-Roman-61"/>
      <use x="1272.609375" xlink:href="#BitstreamVeraSans-Roman-72"/>
      <use x="1313.70703125" xlink:href="#BitstreamVeraSans-Roman-67"/>
      <use x="1377.18359375" xlink:href="#BitstreamVeraSans-Roman-65"/>
      <use x="1438.70703125" xlink:href="#BitstreamVeraSans-Roman-74"/>
      <use x="1477.91601562" xlink:href="#BitstreamVeraSans-Roman-20"/>
      <use x="1509.703125" xlink:href="#BitstreamVeraSans-Roman-70"/>
      <use x="1573.1796875" xlink:href="#BitstreamVeraSans-Roman-61"/>
      <use x="1634.45898438" xlink:href="#BitstreamVeraSans-Roman-69"/>
      <use x="1662.2421875" xlink:href="#BitstreamVeraSans-Roman-72"/>
      <use x="1703.35546875" xlink:href="#BitstreamVeraSans-Roman-73"/>
     </g>
    </g>
   </g>
   <g id="text_13">
    <!-- standard ga -->
    <g transform="translate(396.24 302.093586015)scale(0.15 -0.15)">
     <use xlink:href="#BitstreamVeraSans-Roman-73"/>
     <use x="52.099609375" xlink:href="#BitstreamVeraSans-Roman-74"/>
     <use x="91.30859375" xlink:href="#BitstreamVeraSans-Roman-61"/>
     <use x="152.587890625" xlink:href="#BitstreamVeraSans-Roman-6e"/>
     <use x="215.966796875" xlink:href="#BitstreamVeraSans-Roman-64"/>
     <use x="279.443359375" xlink:href="#BitstreamVeraSans-Roman-61"/>
     <use x="340.72265625" xlink:href="#BitstreamVeraSans-Roman-72"/>
     <use x="381.8203125" xlink:href="#BitstreamVeraSans-Roman-64"/>
     <use x="445.296875" xlink:href="#BitstreamVeraSans-Roman-20"/>
     <use x="477.083984375" xlink:href="#BitstreamVeraSans-Roman-67"/>
     <use x="540.560546875" xlink:href="#BitstreamVeraSans-Roman-61"/>
    </g>
   </g>
   <g id="text_14">
    <!-- migration ga -->
    <g transform="translate(396.24 214.495962252)scale(0.15 -0.15)">
     <use xlink:href="#BitstreamVeraSans-Roman-6d"/>
     <use x="97.412109375" xlink:href="#BitstreamVeraSans-Roman-69"/>
     <use x="125.1953125" xlink:href="#BitstreamVeraSans-Roman-67"/>
     <use x="188.671875" xlink:href="#BitstreamVeraSans-Roman-72"/>
     <use x="229.78515625" xlink:href="#BitstreamVeraSans-Roman-61"/>
     <use x="291.064453125" xlink:href="#BitstreamVeraSans-Roman-74"/>
     <use x="330.2734375" xlink:href="#BitstreamVeraSans-Roman-69"/>
     <use x="358.056640625" xlink:href="#BitstreamVeraSans-Roman-6f"/>
     <use x="419.23828125" xlink:href="#BitstreamVeraSans-Roman-6e"/>
     <use x="482.6171875" xlink:href="#BitstreamVeraSans-Roman-20"/>
     <use x="514.404296875" xlink:href="#BitstreamVeraSans-Roman-67"/>
     <use x="577.880859375" xlink:href="#BitstreamVeraSans-Roman-61"/>
    </g>
   </g>
   <g id="text_15">
    <!-- diffusion ga -->
    <g transform="translate(396.24 126.89833849)scale(0.15 -0.15)">
     <use xlink:href="#BitstreamVeraSans-Roman-64"/>
     <use x="63.4765625" xlink:href="#BitstreamVeraSans-Roman-69"/>
     <use x="91.259765625" xlink:href="#BitstreamVeraSans-Roman-66"/>
     <use x="126.46484375" xlink:href="#BitstreamVeraSans-Roman-66"/>
     <use x="161.669921875" xlink:href="#BitstreamVeraSans-Roman-75"/>
     <use x="225.048828125" xlink:href="#BitstreamVeraSans-Roman-73"/>
     <use x="277.1484375" xlink:href="#BitstreamVeraSans-Roman-69"/>
     <use x="304.931640625" xlink:href="#BitstreamVeraSans-Roman-6f"/>
     <use x="366.11328125" xlink:href="#BitstreamVeraSans-Roman-6e"/>
     <use x="429.4921875" xlink:href="#BitstreamVeraSans-Roman-20"/>
     <use x="461.279296875" xlink:href="#BitstreamVeraSans-Roman-67"/>
     <use x="524.755859375" xlink:href="#BitstreamVeraSans-Roman-61"/>
    </g>
   </g>
   <g id="text_16">
    <!-- best 2009 -->
    <defs>
     <path d="M 10.984375 1.515625 
L 10.984375 10.5 
Q 14.703125 8.734375 18.5 7.8125 
Q 22.3125 6.890625 25.984375 6.890625 
Q 35.75 6.890625 40.890625 13.453125 
Q 46.046875 20.015625 46.78125 33.40625 
Q 43.953125 29.203125 39.59375 26.953125 
Q 35.25 24.703125 29.984375 24.703125 
Q 19.046875 24.703125 12.671875 31.3125 
Q 6.296875 37.9375 6.296875 49.421875 
Q 6.296875 60.640625 12.9375 67.421875 
Q 19.578125 74.21875 30.609375 74.21875 
Q 43.265625 74.21875 49.921875 64.515625 
Q 56.59375 54.828125 56.59375 36.375 
Q 56.59375 19.140625 48.40625 8.859375 
Q 40.234375 -1.421875 26.421875 -1.421875 
Q 22.703125 -1.421875 18.890625 -0.6875 
Q 15.09375 0.046875 10.984375 1.515625 
M 30.609375 32.421875 
Q 37.25 32.421875 41.125 36.953125 
Q 45.015625 41.5 45.015625 49.421875 
Q 45.015625 57.28125 41.125 61.84375 
Q 37.25 66.40625 30.609375 66.40625 
Q 23.96875 66.40625 20.09375 61.84375 
Q 16.21875 57.28125 16.21875 49.421875 
Q 16.21875 41.5 20.09375 36.953125 
Q 23.96875 32.421875 30.609375 32.421875 
" id="BitstreamVeraSans-Roman-39"/>
     <path d="M 48.6875 27.296875 
Q 48.6875 37.203125 44.609375 42.84375 
Q 40.53125 48.484375 33.40625 48.484375 
Q 26.265625 48.484375 22.1875 42.84375 
Q 18.109375 37.203125 18.109375 27.296875 
Q 18.109375 17.390625 22.1875 11.75 
Q 26.265625 6.109375 33.40625 6.109375 
Q 40.53125 6.109375 44.609375 11.75 
Q 48.6875 17.390625 48.6875 27.296875 
M 18.109375 46.390625 
Q 20.953125 51.265625 25.265625 53.625 
Q 29.59375 56 35.59375 56 
Q 45.5625 56 51.78125 48.09375 
Q 58.015625 40.1875 58.015625 27.296875 
Q 58.015625 14.40625 51.78125 6.484375 
Q 45.5625 -1.421875 35.59375 -1.421875 
Q 29.59375 -1.421875 25.265625 0.953125 
Q 20.953125 3.328125 18.109375 8.203125 
L 18.109375 0 
L 9.078125 0 
L 9.078125 75.984375 
L 18.109375 75.984375 
z
" id="BitstreamVeraSans-Roman-62"/>
    </defs>
    <g transform="translate(396.24 39.3007147277)scale(0.15 -0.15)">
     <use xlink:href="#BitstreamVeraSans-Roman-62"/>
     <use x="63.4765625" xlink:href="#BitstreamVeraSans-Roman-65"/>
     <use x="125.0" xlink:href="#BitstreamVeraSans-Roman-73"/>
     <use x="177.099609375" xlink:href="#BitstreamVeraSans-Roman-74"/>
     <use x="216.30859375" xlink:href="#BitstreamVeraSans-Roman-20"/>
     <use x="248.095703125" xlink:href="#BitstreamVeraSans-Roman-32"/>
     <use x="311.71875" xlink:href="#BitstreamVeraSans-Roman-30"/>
     <use x="375.341796875" xlink:href="#BitstreamVeraSans-Roman-30"/>
     <use x="438.96484375" xlink:href="#BitstreamVeraSans-Roman-39"/>
    </g>
   </g>
   <g id="text_17">
    <!-- f6-9,2-D -->
    <defs>
     <path d="M 11.71875 12.40625 
L 22.015625 12.40625 
L 22.015625 4 
L 14.015625 -11.625 
L 7.71875 -11.625 
L 11.71875 4 
z
" id="BitstreamVeraSans-Roman-2c"/>
     <path d="M 19.671875 64.796875 
L 19.671875 8.109375 
L 31.59375 8.109375 
Q 46.6875 8.109375 53.6875 14.9375 
Q 60.6875 21.78125 60.6875 36.53125 
Q 60.6875 51.171875 53.6875 57.984375 
Q 46.6875 64.796875 31.59375 64.796875 
z
M 9.8125 72.90625 
L 30.078125 72.90625 
Q 51.265625 72.90625 61.171875 64.09375 
Q 71.09375 55.28125 71.09375 36.53125 
Q 71.09375 17.671875 61.125 8.828125 
Q 51.171875 0 30.078125 0 
L 9.8125 0 
z
" id="BitstreamVeraSans-Roman-44"/>
    </defs>
    <g transform="translate(74.3712 47.67585)scale(0.2 -0.2)">
     <use xlink:href="#BitstreamVeraSans-Roman-66"/>
     <use x="35.205078125" xlink:href="#BitstreamVeraSans-Roman-36"/>
     <use x="98.828125" xlink:href="#BitstreamVeraSans-Roman-2d"/>
     <use x="134.912109375" xlink:href="#BitstreamVeraSans-Roman-39"/>
     <use x="198.53515625" xlink:href="#BitstreamVeraSans-Roman-2c"/>
     <use x="230.322265625" xlink:href="#BitstreamVeraSans-Roman-32"/>
     <use x="293.9453125" xlink:href="#BitstreamVeraSans-Roman-2d"/>
     <use x="330.029296875" xlink:href="#BitstreamVeraSans-Roman-44"/>
    </g>
   </g>
  </g>
 </g>
 <defs>
  <clipPath id="pd2a8a5e895">
   <rect height="276.48" width="357.12" x="70.8" y="26.949375"/>
  </clipPath>
 </defs>
</svg>
