<?xml version="1.0" encoding="utf-8" standalone="no"?>
<!DOCTYPE svg PUBLIC "-//W3C//DTD SVG 1.1//EN"
  "http://www.w3.org/Graphics/SVG/1.1/DTD/svg11.dtd">
<!-- Created with matplotlib (http://matplotlib.org/) -->
<svg height="356pt" version="1.1" viewBox="0 0 560 356" width="560pt" xmlns="http://www.w3.org/2000/svg" xmlns:xlink="http://www.w3.org/1999/xlink">
 <defs>
  <style type="text/css">
*{stroke-linecap:butt;stroke-linejoin:round;stroke-miterlimit:100000;}
  </style>
 </defs>
 <g id="figure_1">
  <g id="patch_1">
   <path d="M 0 356.40625 
L 560.612317 356.40625 
L 560.612317 0 
L 0 0 
z
" style="fill:#ffffff;"/>
  </g>
  <g id="axes_1">
   <g id="patch_2">
    <path d="M 132.09888 303.429375 
L 489.21888 303.429375 
L 489.21888 26.949375 
L 132.09888 26.949375 
z
" style="fill:#ffffff;"/>
   </g>
   <g id="line2d_1">
    <path d="M 7.2 303.429375 
L 7.2 302.319608 
L 36.09888 302.319608 
L 36.09888 301.949685 
L 53.00364 301.949685 
L 53.00364 300.839918 
L 64.997759 300.839918 
L 64.997759 298.990306 
L 74.30112 298.990306 
L 74.30112 297.140694 
L 81.90252 297.140694 
L 81.90252 296.400849 
L 88.329412 296.400849 
L 88.329412 294.181315 
L 93.896639 294.181315 
L 93.896639 293.44147 
L 98.807281 293.44147 
L 98.807281 290.852013 
L 110.8014 290.852013 
L 110.8014 288.632479 
L 114.138562 288.632479 
L 114.138562 287.892634 
L 117.228291 287.892634 
L 117.228291 281.973876 
L 120.104761 281.973876 
L 120.104761 281.234031 
L 122.795518 281.234031 
L 122.795518 279.754342 
L 125.323096 279.754342 
L 125.323096 277.90473 
L 127.70616 277.90473 
L 127.70616 276.42504 
L 132.09888 276.42504 
L 132.09888 273.095738 
L 134.133052 273.095738 
L 134.133052 270.506282 
L 137.925872 270.506282 
L 137.925872 267.916825 
L 139.700279 267.916825 
L 139.700279 266.807058 
L 143.037441 266.807058 
L 143.037441 264.217601 
L 144.610921 264.217601 
L 144.610921 263.107834 
L 149.00364 263.107834 
L 149.00364 260.888299 
L 150.370723 260.888299 
L 150.370723 258.668765 
L 156.60504 258.668765 
L 156.60504 258.298842 
L 158.859225 258.298842 
L 158.859225 257.92892 
L 162.02725 257.92892 
L 162.02725 256.819153 
L 163.031932 256.819153 
L 163.031932 252.380084 
L 166.824752 252.380084 
L 166.824752 252.010162 
L 167.721394 252.010162 
L 167.721394 250.16055 
L 168.599159 250.16055 
L 168.599159 248.68086 
L 169.458824 248.68086 
L 169.458824 247.571093 
L 171.126737 247.571093 
L 171.126737 247.201171 
L 171.936321 247.201171 
L 171.936321 246.831248 
L 172.730483 246.831248 
L 172.730483 246.091403 
L 174.274818 246.091403 
L 174.274818 244.611714 
L 175.763986 244.611714 
L 175.763986 242.762102 
L 178.591664 242.762102 
L 178.591664 242.022257 
L 179.269602 242.022257 
L 179.269602 236.473421 
L 179.936693 236.473421 
L 179.936693 235.733576 
L 180.593278 235.733576 
L 180.593278 234.253887 
L 181.239682 234.253887 
L 181.239682 233.883964 
L 182.503181 233.883964 
L 182.503181 232.404275 
L 183.120856 232.404275 
L 183.120856 232.034352 
L 183.729513 232.034352 
L 183.729513 231.66443 
L 184.920801 231.66443 
L 184.920801 228.335128 
L 186.078995 228.335128 
L 186.078995 227.595283 
L 186.646245 227.595283 
L 186.646245 227.225361 
L 187.205881 227.225361 
L 187.205881 226.115594 
L 187.758105 226.115594 
L 187.758105 224.635904 
L 188.841082 224.635904 
L 188.841082 223.89606 
L 189.896639 223.89606 
L 189.896639 223.526137 
L 190.414562 223.526137 
L 190.414562 223.156215 
L 191.431497 223.156215 
L 191.431497 222.786292 
L 192.911851 222.786292 
L 192.911851 222.41637 
L 193.393848 222.41637 
L 193.393848 222.046448 
L 193.870337 222.046448 
L 193.870337 221.306603 
L 195.267974 221.306603 
L 195.267974 220.566758 
L 195.723631 220.566758 
L 195.723631 218.717146 
L 197.061466 218.717146 
L 197.061466 218.347224 
L 197.498038 218.347224 
L 197.498038 217.237456 
L 197.930086 217.237456 
L 197.930086 216.867534 
L 198.357703 216.867534 
L 198.357703 215.017922 
L 199.2 215.017922 
L 199.2 214.648 
L 200.025616 214.648 
L 200.025616 212.428465 
L 201.234173 212.428465 
L 201.234173 210.948776 
L 201.629363 210.948776 
L 201.629363 210.208931 
L 202.020843 210.208931 
L 202.020843 208.729241 
L 202.408681 208.729241 
L 202.408681 207.619474 
L 203.551006 207.619474 
L 203.551006 207.249552 
L 204.295531 207.249552 
L 204.295531 206.509707 
L 204.662866 206.509707 
L 204.662866 205.769862 
L 205.026993 205.769862 
L 205.026993 205.030017 
L 205.387967 205.030017 
L 205.387967 204.660095 
L 205.745843 204.660095 
L 205.745843 204.290172 
L 206.100673 204.290172 
L 206.100673 202.810483 
L 206.452508 202.810483 
L 206.452508 202.44056 
L 207.830891 202.44056 
L 207.830891 201.330793 
L 208.168482 201.330793 
L 208.168482 200.590948 
L 208.503361 200.590948 
L 208.503361 199.851104 
L 208.835572 199.851104 
L 208.835572 198.741336 
L 209.165157 198.741336 
L 209.165157 198.371414 
L 209.816612 198.371414 
L 209.816612 197.261647 
L 210.138562 197.261647 
L 210.138562 196.15188 
L 210.458044 196.15188 
L 210.458044 195.412035 
L 211.089758 195.412035 
L 211.089758 194.302268 
L 211.402061 194.302268 
L 211.402061 193.562423 
L 211.712042 193.562423 
L 211.712042 193.192501 
L 212.325174 193.192501 
L 212.325174 192.822578 
L 212.628392 192.822578 
L 212.628392 192.082733 
L 212.929421 192.082733 
L 212.929421 191.342889 
L 214.11226 191.342889 
L 214.11226 190.972966 
L 214.691328 190.972966 
L 214.691328 190.603044 
L 215.262464 190.603044 
L 215.262464 189.863199 
L 216.656984 189.863199 
L 216.656984 188.753432 
L 216.930377 188.753432 
L 216.930377 187.273742 
L 217.201989 187.273742 
L 217.201989 184.684285 
L 218.27108 184.684285 
L 218.27108 183.574518 
L 218.534124 183.574518 
L 218.534124 183.204596 
L 218.795518 183.204596 
L 218.795518 182.834673 
L 219.57001 182.834673 
L 219.57001 182.094829 
L 219.825009 182.094829 
L 219.825009 181.724906 
L 220.078459 181.724906 
L 220.078459 180.985061 
L 220.330376 180.985061 
L 220.330376 180.615139 
L 221.077124 180.615139 
L 221.077124 179.135449 
L 221.323096 179.135449 
L 221.323096 178.765527 
L 221.567627 178.765527 
L 221.567627 177.285837 
L 221.810731 177.285837 
L 221.810731 176.915915 
L 222.052426 176.915915 
L 222.052426 176.545993 
L 222.292728 176.545993 
L 222.292728 176.17607 
L 222.531653 176.17607 
L 222.531653 175.436225 
L 223.24032 175.436225 
L 223.24032 175.066303 
L 223.473891 175.066303 
L 223.473891 173.586613 
L 223.70616 173.586613 
L 223.70616 173.216691 
L 224.622511 173.216691 
L 224.622511 172.846769 
L 225.519154 172.846769 
L 225.519154 171.737001 
L 225.740333 171.737001 
L 225.740333 170.627234 
L 225.960346 170.627234 
L 225.960346 169.517467 
L 227.043323 169.517467 
L 227.043323 169.147545 
L 227.256583 169.147545 
L 227.256583 168.777622 
L 227.468758 168.777622 
L 227.468758 168.4077 
L 228.513731 168.4077 
L 228.513731 168.037777 
L 229.73408 168.037777 
L 229.73408 167.667855 
L 229.934043 167.667855 
L 229.934043 166.558088 
L 230.133052 166.558088 
L 230.133052 165.818243 
L 231.882635 165.818243 
L 231.882635 164.708476 
L 232.072577 164.708476 
L 232.072577 163.968631 
L 232.637267 163.968631 
L 232.637267 163.598709 
L 233.378482 163.598709 
L 233.378482 163.228786 
L 233.925872 163.228786 
L 233.925872 162.858864 
L 234.10675 162.858864 
L 234.10675 162.119019 
L 234.286847 162.119019 
L 234.286847 161.379174 
L 234.466168 161.379174 
L 234.466168 160.63933 
L 234.644722 160.63933 
L 234.644722 160.269407 
L 234.822515 160.269407 
L 234.822515 159.529562 
L 235.351388 159.529562 
L 235.351388 158.789718 
L 235.526198 158.789718 
L 235.526198 158.419795 
L 235.873636 158.419795 
L 235.873636 158.049873 
L 236.218202 158.049873 
L 236.218202 157.67995 
L 236.559944 157.67995 
L 236.559944 155.830338 
L 236.898908 155.830338 
L 236.898908 155.090494 
L 237.067361 155.090494 
L 237.067361 154.720571 
L 237.734452 154.720571 
L 237.734452 153.610804 
L 237.89957 153.610804 
L 237.89957 152.501037 
L 238.227857 152.501037 
L 238.227857 151.39127 
L 238.391037 151.39127 
L 238.391037 151.021347 
L 238.715492 151.021347 
L 238.715492 149.541658 
L 238.876777 149.541658 
L 238.876777 148.801813 
L 239.356924 148.801813 
L 239.356924 148.43189 
L 239.515752 148.43189 
L 239.515752 147.692046 
L 239.831604 147.692046 
L 239.831604 147.322123 
L 240.30094 147.322123 
L 240.30094 146.212356 
L 240.456219 146.212356 
L 240.456219 145.842434 
L 241.071614 145.842434 
L 241.071614 145.102589 
L 241.527272 145.102589 
L 241.527272 144.732666 
L 241.678058 144.732666 
L 241.678058 144.362744 
L 241.8283 144.362744 
L 241.8283 143.622899 
L 242.571498 143.622899 
L 242.571498 142.883054 
L 242.865107 142.883054 
L 242.865107 142.513132 
L 243.156662 142.513132 
L 243.156662 140.66352 
L 243.301679 140.66352 
L 243.301679 140.293598 
L 243.590208 140.293598 
L 243.590208 139.923675 
L 244.019292 139.923675 
L 244.019292 139.18383 
L 244.161344 139.18383 
L 244.161344 138.443986 
L 244.444004 138.443986 
L 244.444004 137.334218 
L 244.584619 137.334218 
L 244.584619 136.964296 
L 244.724761 136.964296 
L 244.724761 136.594374 
L 244.864434 136.594374 
L 244.864434 135.854529 
L 245.280667 135.854529 
L 245.280667 135.484606 
L 245.692785 135.484606 
L 245.692785 134.374839 
L 245.829257 134.374839 
L 245.829257 134.004917 
L 245.965284 134.004917 
L 245.965284 133.634994 
L 246.100869 133.634994 
L 246.100869 133.265072 
L 246.638841 133.265072 
L 246.638841 132.525227 
L 246.772256 132.525227 
L 246.772256 131.785382 
L 246.905246 131.785382 
L 246.905246 129.935771 
L 247.16996 129.935771 
L 247.16996 129.565848 
L 247.433004 129.565848 
L 247.433004 127.346314 
L 247.954164 127.346314 
L 247.954164 126.606469 
L 248.977338 126.606469 
L 248.977338 126.236547 
L 249.354646 126.236547 
L 249.354646 125.126779 
L 249.604301 125.126779 
L 249.604301 122.907245 
L 249.85247 122.907245 
L 249.85247 121.797478 
L 250.588236 121.797478 
L 250.588236 121.427555 
L 250.70961 121.427555 
L 250.70961 121.057633 
L 250.951305 121.057633 
L 250.951305 120.687711 
L 251.07163 120.687711 
L 251.07163 119.947866 
L 251.430532 119.947866 
L 251.430532 119.208021 
L 251.668096 119.208021 
L 251.668096 117.728331 
L 252.021922 117.728331 
L 252.021922 116.988487 
L 252.60504 116.988487 
L 252.60504 116.248642 
L 253.407942 116.248642 
L 253.407942 115.878719 
L 253.521391 115.878719 
L 253.521391 114.768952 
L 253.634531 114.768952 
L 253.634531 114.39903 
L 253.747366 114.39903 
L 253.747366 114.029107 
L 254.418033 114.029107 
L 254.52877 113.289263 
L 254.749364 113.289263 
L 254.749364 112.91934 
L 255.078083 112.91934 
L 255.187082 111.809573 
L 255.40423 111.809573 
L 255.40423 111.069728 
L 255.620253 111.069728 
L 255.620253 110.699806 
L 256.578738 110.699806 
L 256.578738 110.329883 
L 256.893398 110.329883 
L 256.893398 109.959961 
L 257.205701 109.959961 
L 257.205701 109.590039 
L 257.412611 109.590039 
L 257.515682 108.850194 
L 257.721063 108.850194 
L 257.721063 108.480271 
L 258.02725 108.480271 
L 258.128815 107.370504 
L 258.230133 107.370504 
L 258.230133 106.630659 
L 258.432033 106.630659 
L 258.432033 106.260737 
L 258.733061 106.260737 
L 258.733061 105.520892 
L 258.932546 105.520892 
L 258.932546 104.781047 
L 259.131081 104.781047 
L 259.131081 103.67128 
L 259.525337 103.67128 
L 259.525337 102.191591 
L 259.721076 102.191591 
L 259.721076 101.821668 
L 259.9159 101.821668 
L 259.9159 101.081823 
L 260.399014 101.081823 
L 260.399014 100.711901 
L 260.876594 100.711901 
L 260.876594 99.972056 
L 261.160538 99.972056 
L 261.160538 99.602134 
L 262.551955 99.602134 
L 262.551955 98.862289 
L 262.824752 98.862289 
L 262.824752 98.492367 
L 263.095775 98.492367 
L 263.095775 96.642755 
L 263.365048 96.642755 
L 263.365048 95.532988 
L 263.898432 95.532988 
L 263.898432 93.683376 
L 264.074721 93.683376 
L 264.074721 93.313453 
L 264.772516 93.313453 
L 264.772516 92.573608 
L 264.945155 92.573608 
L 264.945155 91.093919 
L 265.288303 91.093919 
L 265.288303 90.723996 
L 265.713304 90.723996 
L 265.713304 90.354074 
L 266.715972 90.354074 
L 266.715972 88.874384 
L 267.126737 88.874384 
L 267.126737 88.13454 
L 267.289916 88.13454 
L 267.289916 87.394695 
L 268.016421 87.394695 
L 268.016421 86.284928 
L 268.414631 86.284928 
L 268.493819 84.065393 
L 268.730483 84.065393 
L 268.730483 83.325548 
L 268.887517 83.325548 
L 268.887517 82.955626 
L 270.046783 82.955626 
L 270.046783 80.736092 
L 270.350553 80.736092 
L 270.350553 80.366169 
L 271.690778 80.366169 
L 271.690778 79.996247 
L 271.837066 79.996247 
L 271.837066 79.626324 
L 271.982844 79.626324 
L 271.982844 79.256402 
L 272.918171 79.256402 
L 272.989258 78.516557 
L 273.832975 78.516557 
L 273.832975 78.146635 
L 274.248516 78.146635 
L 274.248516 77.776712 
L 274.932011 77.776712 
L 274.932011 77.036868 
L 275.336794 77.036868 
L 275.336794 76.666945 
L 275.470852 76.666945 
L 275.537721 75.9271 
L 275.604482 75.9271 
L 275.604482 75.187256 
L 275.936693 75.187256 
L 275.936693 73.707566 
L 276.134756 73.707566 
L 276.134756 72.967721 
L 276.266278 72.967721 
L 276.266278 72.597799 
L 276.397386 72.597799 
L 276.397386 71.488032 
L 276.528082 71.488032 
L 276.528082 70.378264 
L 277.046811 70.378264 
L 277.046811 69.63842 
L 277.686275 69.63842 
L 277.749686 68.898575 
L 278.190878 68.898575 
L 278.253526 67.418885 
L 278.936512 67.418885 
L 278.998051 66.309118 
L 279.2433 66.309118 
L 279.2433 65.939196 
L 279.487115 65.939196 
L 279.487115 65.199351 
L 279.60849 65.199351 
L 279.60849 64.829429 
L 279.789893 64.829429 
L 279.789893 64.459506 
L 280.269809 64.459506 
L 280.269809 64.089584 
L 280.744264 64.089584 
L 280.744264 63.719661 
L 281.21338 63.719661 
L 281.21338 62.609894 
L 281.561785 62.609894 
L 281.619571 61.130205 
L 281.734902 61.130205 
L 281.792449 60.39036 
L 282.249982 60.39036 
L 282.249982 60.020437 
L 282.758775 60.020437 
L 282.758775 59.650515 
L 282.982927 59.650515 
L 282.982927 59.280593 
L 284.572963 59.280593 
L 284.572963 58.91067 
L 285.213574 58.91067 
L 285.213574 58.540748 
L 285.948722 58.540748 
L 285.948722 58.170825 
L 286.156405 58.170825 
L 286.156405 57.800903 
L 287.078384 57.800903 
L 287.179579 56.691136 
L 287.280529 56.691136 
L 287.330912 55.951291 
L 287.631941 55.951291 
L 287.631941 55.581369 
L 287.781644 55.581369 
L 287.781644 54.841524 
L 288.029961 54.841524 
L 288.029961 54.471601 
L 288.522201 54.471601 
L 288.522201 54.101679 
L 289.153546 54.101679 
L 289.201718 53.361834 
L 289.441743 53.361834 
L 289.441743 52.991912 
L 290.012228 52.991912 
L 290.012228 52.621989 
L 290.992169 52.621989 
L 290.992169 51.1423 
L 291.859363 51.1423 
L 291.859363 50.032533 
L 292.129509 50.032533 
L 292.129509 49.66261 
L 293.367546 49.66261 
L 293.367546 48.922765 
L 293.541445 48.922765 
L 293.541445 48.552843 
L 293.671395 48.552843 
L 293.671395 47.812998 
L 293.800942 47.812998 
L 293.800942 47.443076 
L 294.612184 47.443076 
L 294.612184 47.073153 
L 296.674537 47.073153 
L 296.674537 45.593464 
L 297.471736 45.593464 
L 297.471736 45.223541 
L 298.562811 45.223541 
L 298.562811 44.853619 
L 298.907536 44.853619 
L 298.907536 44.113774 
L 299.135778 44.113774 
L 299.135778 42.634085 
L 299.475817 42.634085 
L 299.475817 42.264162 
L 299.700978 42.264162 
L 299.738387 41.154395 
L 300.954421 41.154395 
L 300.954421 40.784473 
L 301.243952 40.784473 
L 301.243952 40.41455 
L 301.603061 40.41455 
L 301.603061 39.304783 
L 302.836129 39.304783 
L 302.940143 37.825093 
L 305.55725 37.825093 
L 305.55725 37.085249 
L 312.464537 37.085249 
L 312.464537 36.715326 
L 315.79958 36.715326 
L 315.79958 36.345404 
L 316.330376 36.345404 
L 316.330376 35.975482 
L 316.8545 35.975482 
L 316.8545 34.12587 
L 317.518835 34.12587 
L 317.518835 33.386025 
L 318.507822 33.386025 
L 318.507822 33.016102 
L 318.887492 33.016102 
L 318.887492 32.64618 
L 320.758243 32.64618 
L 320.758243 31.906335 
L 322.222837 31.906335 
L 322.222837 31.16649 
L 334.439866 31.16649 
L 334.439866 30.426646 
L 353.039431 30.426646 
L 353.039431 30.056723 
L 353.669813 30.056723 
L 353.669813 29.686801 
L 420.09888 29.686801 
L 420.09888 29.686801 
" style="fill:none;stroke:#f5deb3;stroke-linecap:square;stroke-width:6.0;"/>
   </g>
   <g id="line2d_2"/>
   <g id="line2d_3">
    <path d="M 420.09888 29.686801 
L 451.77888 35.161652 
" style="fill:none;stroke:#f5deb3;stroke-linecap:square;stroke-width:6.0;"/>
    <defs>
     <path d="M -0 7.778175 
L 7.778175 0 
L 0 -7.778175 
L -7.778175 -0 
z
" id="mffc567ed38" style="stroke:#f5deb3;stroke-linejoin:miter;stroke-width:1.5;"/>
    </defs>
    <g>
     <use style="fill:#f5deb3;stroke:#f5deb3;stroke-linejoin:miter;stroke-width:1.5;" x="420.098879584" xlink:href="#mffc567ed38" y="29.6868007426"/>
     <use style="fill:#f5deb3;stroke:#f5deb3;stroke-linejoin:miter;stroke-width:1.5;" x="451.778879584" xlink:href="#mffc567ed38" y="35.1616522277"/>
    </g>
   </g>
   <g id="line2d_4">
    <defs>
     <path d="M 0 1.5 
C 0.397805 1.5 0.77937 1.341951 1.06066 1.06066 
C 1.341951 0.77937 1.5 0.397805 1.5 0 
C 1.5 -0.397805 1.341951 -0.77937 1.06066 -1.06066 
C 0.77937 -1.341951 0.397805 -1.5 0 -1.5 
C -0.397805 -1.5 -0.77937 -1.341951 -1.06066 -1.06066 
C -1.341951 -0.77937 -1.5 -0.397805 -1.5 0 
C -1.5 0.397805 -1.341951 0.77937 -1.06066 1.06066 
C -0.77937 1.341951 -0.397805 1.5 0 1.5 
z
" id="mf2ade53bf1" style="stroke:#f5deb3;stroke-width:0.5;"/>
    </defs>
    <g>
     <use style="fill:#f5deb3;stroke:#f5deb3;stroke-width:0.5;" x="353.669812793" xlink:href="#mf2ade53bf1" y="29.6868007426"/>
     <use style="fill:#f5deb3;stroke:#f5deb3;stroke-width:0.5;" x="353.669812793" xlink:href="#mf2ade53bf1" y="29.6868007426"/>
    </g>
   </g>
   <g id="line2d_5">
    <g>
     <use style="fill:#f5deb3;stroke:#f5deb3;stroke-linejoin:miter;stroke-width:1.5;" x="132.098879584" xlink:href="#mffc567ed38" y="276.425039972"/>
     <use style="fill:#f5deb3;stroke:#f5deb3;stroke-linejoin:miter;stroke-width:1.5;" x="209.165157212" xlink:href="#mffc567ed38" y="198.371414069"/>
     <use style="fill:#f5deb3;stroke:#f5deb3;stroke-linejoin:miter;stroke-width:1.5;" x="247.433003519" xlink:href="#mffc567ed38" y="127.346313721"/>
     <use style="fill:#f5deb3;stroke:#f5deb3;stroke-linejoin:miter;stroke-width:1.5;" x="274.932011114" xlink:href="#mffc567ed38" y="77.7767124364"/>
     <use style="fill:#f5deb3;stroke:#f5deb3;stroke-linejoin:miter;stroke-width:1.5;" x="353.669812793" xlink:href="#mffc567ed38" y="30.0567231402"/>
     <use style="fill:#f5deb3;stroke:#f5deb3;stroke-linejoin:miter;stroke-width:1.5;" x="353.669812793" xlink:href="#mffc567ed38" y="29.6868007426"/>
     <use style="fill:#f5deb3;stroke:#f5deb3;stroke-linejoin:miter;stroke-width:1.5;" x="420.098879584" xlink:href="#mffc567ed38" y="29.6868007426"/>
    </g>
   </g>
   <g id="line2d_6">
    <defs>
     <path d="M 0 1.5 
C 0.397805 1.5 0.77937 1.341951 1.06066 1.06066 
C 1.341951 0.77937 1.5 0.397805 1.5 0 
C 1.5 -0.397805 1.341951 -0.77937 1.06066 -1.06066 
C 0.77937 -1.341951 0.397805 -1.5 0 -1.5 
C -0.397805 -1.5 -0.77937 -1.341951 -1.06066 -1.06066 
C -1.341951 -0.77937 -1.5 -0.397805 -1.5 0 
C -1.5 0.397805 -1.341951 0.77937 -1.06066 1.06066 
C -0.77937 1.341951 -0.397805 1.5 0 1.5 
z
" id="m0b47ab9a42" style="stroke:#000080;stroke-width:0.5;"/>
    </defs>
    <g>
     <use style="fill:#000080;stroke:#000080;stroke-width:0.5;" x="471.439074476" xlink:href="#m0b47ab9a42" y="247.941015353"/>
     <use style="fill:#000080;stroke:#000080;stroke-width:0.5;" x="471.439074476" xlink:href="#m0b47ab9a42" y="247.941015353"/>
    </g>
   </g>
   <g id="line2d_7">
    <path d="M 7.2 303.429375 
L 7.2 303.059453 
L 53.00364 303.059453 
L 53.00364 302.319608 
L 93.896639 302.319608 
L 93.896639 300.469996 
L 98.807281 300.469996 
L 98.807281 299.730151 
L 107.173698 299.730151 
L 107.173698 299.360229 
L 117.228291 299.360229 
L 117.228291 298.990306 
L 120.104761 298.990306 
L 120.104761 298.620384 
L 129.960346 298.620384 
L 129.960346 297.880539 
L 137.925872 297.880539 
L 137.925872 296.770772 
L 146.127171 296.770772 
L 146.127171 296.030927 
L 147.590208 296.030927 
L 147.590208 293.811393 
L 150.370723 293.811393 
L 150.370723 293.44147 
L 152.977338 293.44147 
L 152.977338 291.591858 
L 157.747366 291.591858 
L 157.747366 289.372324 
L 159.942202 289.372324 
L 159.942202 288.632479 
L 174.274818 288.632479 
L 174.274818 286.412945 
L 175.026051 286.412945 
L 175.026051 285.6731 
L 183.729513 285.6731 
L 183.729513 283.083643 
L 198.780979 283.083643 
L 198.780979 282.713721 
L 200.025616 282.713721 
L 200.025616 281.603954 
L 204.662866 281.603954 
L 204.662866 280.864109 
L 209.492157 280.864109 
L 209.492157 280.494186 
L 214.977874 280.494186 
L 214.977874 280.124264 
L 220.330376 280.124264 
L 220.330376 279.384419 
L 224.166853 279.384419 
L 224.166853 279.014497 
L 260.781515 279.014497 
L 260.781515 278.644574 
L 261.254758 278.644574 
L 261.254758 278.274652 
L 271.026051 278.274652 
L 271.026051 277.90473 
L 279.547847 277.90473 
L 279.547847 277.534807 
L 283.812927 277.534807 
L 283.812927 276.794962 
L 286.92613 276.794962 
L 286.92613 275.685195 
L 287.631941 275.685195 
L 287.631941 274.575428 
L 291.994655 274.575428 
L 291.994655 274.205506 
L 292.885549 274.205506 
L 292.885549 273.835583 
L 294.907128 273.835583 
L 294.907128 273.095738 
L 295.241671 273.095738 
L 295.241671 271.985971 
L 296.148061 271.985971 
L 296.148061 271.616049 
L 296.593972 271.616049 
L 296.593972 271.246126 
L 296.915301 271.246126 
L 296.915301 270.876204 
L 299.513428 270.876204 
L 299.513428 270.136359 
L 301.638802 270.136359 
L 301.638802 269.766437 
L 303.558836 269.766437 
L 303.558836 269.026592 
L 305.033636 269.026592 
L 305.033636 268.286747 
L 307.183694 268.286747 
L 307.183694 267.916825 
L 322.266426 267.916825 
L 322.266426 267.17698 
L 323.489916 267.17698 
L 323.489916 266.807058 
L 324.71962 266.807058 
L 324.71962 266.437135 
L 328.412308 266.437135 
L 328.412308 266.067213 
L 328.524939 266.067213 
L 328.524939 265.69729 
L 328.693317 265.69729 
L 328.693317 265.327368 
L 330.537682 265.327368 
L 330.537682 264.957446 
L 331.298801 264.957446 
L 331.298801 264.587523 
L 335.64238 264.587523 
L 335.64238 264.217601 
L 343.446112 264.217601 
L 343.446112 263.477756 
L 344.685738 263.477756 
L 344.685738 263.107834 
L 345.55449 263.107834 
L 345.55449 262.737911 
L 346.478695 262.737911 
L 346.478695 262.367989 
L 346.878944 262.367989 
L 346.878944 261.998066 
L 348.454212 261.998066 
L 348.454212 261.258222 
L 351.382566 261.258222 
L 351.382566 260.888299 
L 357.741298 260.888299 
L 357.787783 260.148454 
L 359.104779 260.148454 
L 359.104779 259.778532 
L 368.93951 259.778532 
L 368.93951 259.40861 
L 371.724383 259.40861 
L 371.724383 259.038687 
L 375.771788 259.038687 
L 375.771788 258.668765 
L 376.305581 258.668765 
L 376.305581 257.92892 
L 377.602244 257.92892 
L 377.602244 256.819153 
L 385.086013 256.819153 
L 385.086013 256.44923 
L 385.336302 256.44923 
L 385.336302 256.079308 
L 387.86388 256.079308 
L 387.86388 255.709386 
L 397.570867 255.709386 
L 397.570867 254.969541 
L 398.227676 254.969541 
L 398.227676 254.599619 
L 402.986182 254.599619 
L 402.986182 254.229696 
L 407.370101 254.229696 
L 407.370101 253.859774 
L 409.616841 253.859774 
L 409.616841 253.489851 
L 415.007789 253.489851 
L 415.007789 253.119929 
L 417.764591 253.119929 
L 417.764591 252.750007 
L 420.09888 252.750007 
L 420.09888 252.750007 
" style="fill:none;stroke:#000080;stroke-linecap:square;stroke-width:1.5;"/>
   </g>
   <g id="line2d_8">
    <defs>
     <path d="M 0 6 
C 1.591219 6 3.117479 5.367802 4.242641 4.242641 
C 5.367802 3.117479 6 1.591219 6 0 
C 6 -1.591219 5.367802 -3.117479 4.242641 -4.242641 
C 3.117479 -5.367802 1.591219 -6 0 -6 
C -1.591219 -6 -3.117479 -5.367802 -4.242641 -4.242641 
C -5.367802 -3.117479 -6 -1.591219 -6 0 
C -6 1.591219 -5.367802 3.117479 -4.242641 4.242641 
C -3.117479 5.367802 -1.591219 6 0 6 
z
" id="m9734788eb1" style="stroke:#000080;stroke-width:1.5;"/>
    </defs>
    <g>
     <use style="fill:none;stroke:#000080;stroke-width:1.5;" x="93.8966387512" xlink:href="#m9734788eb1" y="302.319607807"/>
     <use style="fill:none;stroke:#000080;stroke-width:1.5;" x="175.026050593" xlink:href="#m9734788eb1" y="286.412944708"/>
     <use style="fill:none;stroke:#000080;stroke-width:1.5;" x="224.166853247" xlink:href="#m9734788eb1" y="279.384419153"/>
     <use style="fill:none;stroke:#000080;stroke-width:1.5;" x="292.885549095" xlink:href="#m9734788eb1" y="273.835583188"/>
     <use style="fill:none;stroke:#000080;stroke-width:1.5;" x="359.104778975" xlink:href="#m9734788eb1" y="259.778532078"/>
     <use style="fill:none;stroke:#000080;stroke-width:1.5;" x="417.764591485" xlink:href="#m9734788eb1" y="252.750006523"/>
     <use style="fill:none;stroke:#000080;stroke-width:1.5;" x="420.098879584" xlink:href="#m9734788eb1" y="252.750006523"/>
    </g>
   </g>
   <g id="line2d_9"/>
   <g id="line2d_10">
    <path clip-path="url(#pff95d5324b)" d="M 303.147396 269.766437 
" style="fill:none;stroke:#000080;stroke-linecap:square;"/>
    <defs>
     <path d="M -12 12 
L 12 -12 
M -12 -12 
L 12 12 
" id="m66425708e8" style="stroke:#000080;stroke-width:3.0;"/>
    </defs>
    <g clip-path="url(#pff95d5324b)">
     <use style="fill:#000080;stroke:#000080;stroke-width:3.0;" x="303.14739555" xlink:href="#m66425708e8" y="269.766436814"/>
    </g>
   </g>
   <g id="line2d_11">
    <defs>
     <path d="M 0 1.5 
C 0.397805 1.5 0.77937 1.341951 1.06066 1.06066 
C 1.341951 0.77937 1.5 0.397805 1.5 0 
C 1.5 -0.397805 1.341951 -0.77937 1.06066 -1.06066 
C 0.77937 -1.341951 0.397805 -1.5 0 -1.5 
C -0.397805 -1.5 -0.77937 -1.341951 -1.06066 -1.06066 
C -1.341951 -0.77937 -1.5 -0.397805 -1.5 0 
C -1.5 0.397805 -1.341951 0.77937 -1.06066 1.06066 
C -0.77937 1.341951 -0.397805 1.5 0 1.5 
z
" id="m52d4ce20bc" style="stroke:#ff00ff;stroke-width:0.5;"/>
    </defs>
    <g>
     <use style="fill:#ff00ff;stroke:#ff00ff;stroke-width:0.5;" x="484.100776306" xlink:href="#m52d4ce20bc" y="259.038687283"/>
     <use style="fill:#ff00ff;stroke:#ff00ff;stroke-width:0.5;" x="484.100776306" xlink:href="#m52d4ce20bc" y="259.038687283"/>
    </g>
   </g>
   <g id="line2d_12">
    <path d="M 64.997759 303.429375 
L 64.997759 300.839918 
L 93.896639 300.839918 
L 93.896639 300.469996 
L 107.173698 300.469996 
L 107.173698 299.360229 
L 110.8014 299.360229 
L 110.8014 297.880539 
L 120.104761 297.880539 
L 120.104761 297.140694 
L 132.09888 297.140694 
L 132.09888 296.770772 
L 134.133052 296.770772 
L 134.133052 296.400849 
L 137.925872 296.400849 
L 137.925872 293.44147 
L 150.370723 293.44147 
L 150.370723 292.701625 
L 158.859225 292.701625 
L 158.859225 292.331703 
L 159.942202 292.331703 
L 159.942202 291.961781 
L 162.02725 291.961781 
L 162.02725 291.221936 
L 170.30112 291.221936 
L 170.30112 289.742246 
L 171.936321 289.742246 
L 171.936321 289.002401 
L 173.509801 289.002401 
L 173.509801 288.262557 
L 175.026051 288.262557 
L 175.026051 287.892634 
L 177.90252 287.892634 
L 177.90252 287.522712 
L 178.591664 287.522712 
L 178.591664 287.15279 
L 182.503181 287.15279 
L 182.503181 286.412945 
L 186.078995 286.412945 
L 186.078995 284.933255 
L 192.424217 284.933255 
L 192.424217 284.19341 
L 196.174363 284.19341 
L 196.174363 282.343798 
L 200.835201 282.343798 
L 200.835201 281.234031 
L 216.930377 281.234031 
L 216.930377 280.494186 
L 224.395305 280.494186 
L 224.395305 279.014497 
L 226.613502 279.014497 
L 226.613502 278.644574 
L 233.925872 278.644574 
L 233.925872 278.274652 
L 260.012972 278.274652 
L 260.012972 277.90473 
L 262.369094 277.90473 
L 262.369094 277.534807 
L 298.176411 277.534807 
L 298.176411 276.42504 
L 300.772438 276.42504 
L 300.772438 276.055118 
L 302.241763 276.055118 
L 302.241763 275.685195 
L 303.898628 275.685195 
L 303.898628 274.94535 
L 306.01008 274.94535 
L 306.01008 274.575428 
L 308.233777 274.575428 
L 308.233777 274.205506 
L 325.894127 274.205506 
L 325.894127 273.835583 
L 329.341733 273.835583 
L 329.341733 273.465661 
L 331.123033 273.465661 
L 331.123033 273.095738 
L 334.260544 273.095738 
L 334.260544 272.725816 
L 335.484035 272.725816 
L 335.484035 271.985971 
L 344.520014 271.985971 
L 344.520014 271.616049 
L 346.012992 271.616049 
L 346.012992 270.876204 
L 347.370929 270.876204 
L 347.370929 270.506282 
L 358.451481 270.506282 
L 358.451481 270.136359 
L 359.827707 270.136359 
L 359.827707 269.766437 
L 359.854243 269.766437 
L 359.854243 269.396514 
L 360.668588 269.396514 
L 360.668588 269.026592 
L 362.134017 269.026592 
L 362.134017 268.65667 
L 370.454744 268.65667 
L 370.454744 268.286747 
L 376.257878 268.286747 
L 376.257878 267.916825 
L 378.261356 267.916825 
L 378.261356 267.546902 
L 382.347595 267.546902 
L 382.347595 267.17698 
L 382.568692 267.17698 
L 382.568692 266.807058 
L 383.144189 266.807058 
L 383.144189 266.437135 
L 388.509243 266.437135 
L 388.509243 266.067213 
L 393.436188 266.067213 
L 393.436188 265.69729 
L 397.987455 265.69729 
L 397.987455 265.327368 
L 401.968238 265.327368 
L 401.968238 264.957446 
L 405.359119 264.957446 
L 405.359119 264.587523 
L 414.882768 264.587523 
L 414.882768 264.217601 
L 414.889854 264.217601 
L 414.889854 263.847678 
L 419.778707 263.847678 
L 419.778707 263.477756 
L 419.940147 263.477756 
L 419.940147 263.107834 
L 420.09888 263.107834 
" style="fill:none;stroke:#ff00ff;stroke-linecap:square;stroke-width:1.5;"/>
   </g>
   <g id="line2d_13">
    <defs>
     <path d="M -0 8.485281 
L 5.091169 0 
L 0 -8.485281 
L -5.091169 -0 
z
" id="ma3c997c93a" style="stroke:#ff00ff;stroke-linejoin:miter;stroke-width:1.5;"/>
    </defs>
    <g>
     <use style="fill:none;stroke:#ff00ff;stroke-linejoin:miter;stroke-width:1.5;" x="134.133052294" xlink:href="#ma3c997c93a" y="296.400849445"/>
     <use style="fill:none;stroke:#ff00ff;stroke-linejoin:miter;stroke-width:1.5;" x="186.078994572" xlink:href="#ma3c997c93a" y="284.933255118"/>
     <use style="fill:none;stroke:#ff00ff;stroke-linejoin:miter;stroke-width:1.5;" x="262.369094079" xlink:href="#ma3c997c93a" y="277.904729562"/>
     <use style="fill:none;stroke:#ff00ff;stroke-linejoin:miter;stroke-width:1.5;" x="347.370929288" xlink:href="#ma3c997c93a" y="270.876204007"/>
     <use style="fill:none;stroke:#ff00ff;stroke-linejoin:miter;stroke-width:1.5;" x="393.436187812" xlink:href="#ma3c997c93a" y="265.69729044"/>
     <use style="fill:none;stroke:#ff00ff;stroke-linejoin:miter;stroke-width:1.5;" x="420.098879584" xlink:href="#ma3c997c93a" y="263.107833657"/>
    </g>
   </g>
   <g id="line2d_14"/>
   <g id="line2d_15">
    <path clip-path="url(#pff95d5324b)" d="M 301.959103 276.055118 
" style="fill:none;stroke:#ff00ff;stroke-linecap:square;"/>
    <defs>
     <path d="M -12 12 
L 12 -12 
M -12 -12 
L 12 12 
" id="m7eaa01c125" style="stroke:#ff00ff;stroke-width:3.0;"/>
    </defs>
    <g clip-path="url(#pff95d5324b)">
     <use style="fill:#ff00ff;stroke:#ff00ff;stroke-width:3.0;" x="301.959102887" xlink:href="#m7eaa01c125" y="276.055117574"/>
    </g>
   </g>
   <g id="line2d_16">
    <defs>
     <path d="M 0 1.5 
C 0.397805 1.5 0.77937 1.341951 1.06066 1.06066 
C 1.341951 0.77937 1.5 0.397805 1.5 0 
C 1.5 -0.397805 1.341951 -0.77937 1.06066 -1.06066 
C 0.77937 -1.341951 0.397805 -1.5 0 -1.5 
C -0.397805 -1.5 -0.77937 -1.341951 -1.06066 -1.06066 
C -1.341951 -0.77937 -1.5 -0.397805 -1.5 0 
C -1.5 0.397805 -1.341951 0.77937 -1.06066 1.06066 
C -0.77937 1.341951 -0.397805 1.5 0 1.5 
z
" id="m772c82e2f0" style="stroke:#ffa500;stroke-width:0.5;"/>
    </defs>
    <g>
     <use style="fill:#ffa500;stroke:#ffa500;stroke-width:0.5;" x="442.77742644" xlink:href="#m772c82e2f0" y="251.64023933"/>
     <use style="fill:#ffa500;stroke:#ffa500;stroke-width:0.5;" x="442.77742644" xlink:href="#m772c82e2f0" y="251.64023933"/>
    </g>
   </g>
   <g id="line2d_17">
    <path d="M 36.09888 303.429375 
L 36.09888 303.059453 
L 98.807281 303.059453 
L 98.807281 301.949685 
L 114.138562 301.949685 
L 114.138562 300.469996 
L 120.104761 300.469996 
L 120.104761 299.730151 
L 122.795518 299.730151 
L 122.795518 298.990306 
L 125.323096 298.990306 
L 125.323096 298.620384 
L 127.70616 298.620384 
L 127.70616 298.250461 
L 132.09888 298.250461 
L 132.09888 297.140694 
L 139.700279 297.140694 
L 139.700279 294.92116 
L 150.370723 294.92116 
L 150.370723 294.181315 
L 151.694398 294.181315 
L 151.694398 293.811393 
L 154.221976 293.811393 
L 154.221976 291.221936 
L 159.942202 291.221936 
L 159.942202 290.482091 
L 164.971457 290.482091 
L 164.971457 289.372324 
L 168.599159 289.372324 
L 168.599159 289.002401 
L 169.458824 289.002401 
L 169.458824 287.15279 
L 174.274818 287.15279 
L 174.274818 286.782867 
L 184.329412 286.782867 
L 184.329412 286.412945 
L 186.078995 286.412945 
L 186.078995 285.303178 
L 197.498038 285.303178 
L 197.498038 284.933255 
L 205.387967 284.933255 
L 205.387967 284.563333 
L 206.8014 284.563333 
L 206.8014 284.19341 
L 221.323096 284.19341 
L 221.323096 282.343798 
L 221.567627 282.343798 
L 221.567627 281.973876 
L 222.292728 281.973876 
L 222.292728 281.603954 
L 227.679858 281.603954 
L 227.679858 280.124264 
L 228.513731 280.124264 
L 228.513731 279.754342 
L 236.389423 279.754342 
L 236.389423 279.014497 
L 242.423914 279.014497 
L 242.423914 277.90473 
L 248.723889 277.90473 
L 248.723889 276.794962 
L 254.859225 276.794962 
L 254.859225 276.055118 
L 255.40423 276.055118 
L 255.40423 275.685195 
L 260.494969 275.685195 
L 260.494969 275.315273 
L 272.200558 275.315273 
L 272.200558 274.205506 
L 274.728137 274.205506 
L 274.728137 273.835583 
L 277.239682 273.835583 
L 277.239682 273.465661 
L 279.910391 273.465661 
L 279.910391 273.095738 
L 281.329839 273.095738 
L 281.329839 272.355894 
L 282.42027 272.355894 
L 282.42027 271.616049 
L 285.319392 271.616049 
L 285.319392 271.246126 
L 286.466002 271.246126 
L 286.517379 270.506282 
L 287.027694 270.506282 
L 287.027694 270.136359 
L 287.731803 270.136359 
L 287.731803 269.396514 
L 288.717481 269.396514 
L 288.717481 269.026592 
L 289.441743 269.026592 
L 289.441743 268.65667 
L 290.528402 268.65667 
L 290.528402 268.286747 
L 291.267974 268.286747 
L 291.267974 267.916825 
L 296.107286 267.916825 
L 296.107286 267.546902 
L 297.471736 267.546902 
L 297.471736 267.17698 
L 298.137573 267.17698 
L 298.137573 266.437135 
L 299.325031 266.437135 
L 299.325031 266.067213 
L 300.184696 266.067213 
L 300.184696 265.327368 
L 301.745843 265.327368 
L 301.745843 264.957446 
L 302.627319 264.957446 
L 302.627319 264.217601 
L 303.42214 264.217601 
L 303.42214 263.847678 
L 319.983187 263.847678 
L 319.983187 263.107834 
L 320.166853 263.107834 
L 320.166853 262.737911 
L 322.635098 262.737911 
L 322.635098 262.367989 
L 325.250219 262.367989 
L 325.250219 261.998066 
L 327.365426 261.998066 
L 327.365426 261.628144 
L 330.484058 261.628144 
L 330.484058 261.258222 
L 331.960045 261.258222 
L 331.960045 260.888299 
L 335.0695 260.888299 
L 335.0695 260.518377 
L 340.668761 260.518377 
L 340.668761 260.148454 
L 344.417702 260.148454 
L 344.417702 259.778532 
L 344.571077 259.778532 
L 344.571077 259.40861 
L 346.283243 259.40861 
L 346.283243 259.038687 
L 347.798181 259.038687 
L 347.798181 258.668765 
L 350.881163 258.668765 
L 350.881163 258.298842 
L 353.474484 258.298842 
L 353.474484 257.92892 
L 357.498737 257.92892 
L 357.498737 257.189075 
L 359.756862 257.189075 
L 359.756862 256.819153 
L 371.283049 256.819153 
L 371.283049 256.44923 
L 373.724333 256.44923 
L 373.724333 256.079308 
L 375.693243 256.079308 
L 375.693243 255.709386 
L 383.781644 255.709386 
L 383.781644 255.339463 
L 399.497378 255.339463 
L 399.497378 254.969541 
L 401.713061 254.969541 
L 401.713061 254.599619 
L 405.430307 254.599619 
L 405.430307 254.229696 
L 406.983585 254.229696 
L 406.983585 253.859774 
L 408.323764 253.859774 
L 408.323764 253.489851 
L 414.929989 253.489851 
L 414.929989 253.119929 
L 416.171435 253.119929 
L 416.171435 252.750007 
L 417.727095 252.750007 
L 417.727095 252.380084 
L 420.09888 252.380084 
L 420.09888 252.380084 
" style="fill:none;stroke:#ffa500;stroke-linecap:square;stroke-width:1.5;"/>
   </g>
   <g id="line2d_18">
    <defs>
     <path d="M 0 -6 
L -1.347084 -1.854102 
L -5.706339 -1.854102 
L -2.179628 0.708204 
L -3.526712 4.854102 
L -0 2.291796 
L 3.526712 4.854102 
L 2.179628 0.708204 
L 5.706339 -1.854102 
L 1.347084 -1.854102 
z
" id="m32f0ff829d" style="stroke:#ffa500;stroke-linejoin:bevel;stroke-width:1.5;"/>
    </defs>
    <g>
     <use style="fill:none;stroke:#ffa500;stroke-linejoin:bevel;stroke-width:1.5;" x="36.0988795837" xlink:href="#m32f0ff829d" y="303.059452602"/>
     <use style="fill:none;stroke:#ffa500;stroke-linejoin:bevel;stroke-width:1.5;" x="159.942202275" xlink:href="#m32f0ff829d" y="291.221935878"/>
     <use style="fill:none;stroke:#ffa500;stroke-linejoin:bevel;stroke-width:1.5;" x="236.389423329" xlink:href="#m32f0ff829d" y="279.014496755"/>
     <use style="fill:none;stroke:#ffa500;stroke-linejoin:bevel;stroke-width:1.5;" x="320.166853247" xlink:href="#m32f0ff829d" y="262.737911259"/>
     <use style="fill:none;stroke:#ffa500;stroke-linejoin:bevel;stroke-width:1.5;" x="383.781643967" xlink:href="#m32f0ff829d" y="255.709385704"/>
     <use style="fill:none;stroke:#ffa500;stroke-linejoin:bevel;stroke-width:1.5;" x="420.098879584" xlink:href="#m32f0ff829d" y="252.380084125"/>
    </g>
   </g>
   <g id="line2d_19"/>
   <g id="line2d_20">
    <path clip-path="url(#pff95d5324b)" d="M 302.8014 264.217601 
" style="fill:none;stroke:#ffa500;stroke-linecap:square;"/>
    <defs>
     <path d="M -12 12 
L 12 -12 
M -12 -12 
L 12 12 
" id="md40ba0a006" style="stroke:#ffa500;stroke-width:3.0;"/>
    </defs>
    <g clip-path="url(#pff95d5324b)">
     <use style="fill:#ffa500;stroke:#ffa500;stroke-width:3.0;" x="302.801399621" xlink:href="#md40ba0a006" y="264.21760085"/>
    </g>
   </g>
   <g id="line2d_21">
    <path d="M 420.09888 263.107834 
L 451.77888 297.954524 
" style="fill:none;stroke:#ff00ff;stroke-linecap:square;stroke-width:1.5;"/>
    <g>
     <use style="fill:none;stroke:#ff00ff;stroke-linejoin:miter;stroke-width:1.5;" x="420.098879584" xlink:href="#ma3c997c93a" y="263.107833657"/>
     <use style="fill:none;stroke:#ff00ff;stroke-linejoin:miter;stroke-width:1.5;" x="451.778879584" xlink:href="#ma3c997c93a" y="297.954523515"/>
    </g>
   </g>
   <g id="line2d_22">
    <path d="M 420.09888 252.750007 
L 451.77888 210.3569 
" style="fill:none;stroke:#000080;stroke-linecap:square;stroke-width:1.5;"/>
    <g>
     <use style="fill:none;stroke:#000080;stroke-width:1.5;" x="420.098879584" xlink:href="#m9734788eb1" y="252.750006523"/>
     <use style="fill:none;stroke:#000080;stroke-width:1.5;" x="451.778879584" xlink:href="#m9734788eb1" y="210.356899752"/>
    </g>
   </g>
   <g id="line2d_23">
    <path d="M 420.09888 252.380084 
L 451.77888 122.759276 
" style="fill:none;stroke:#ffa500;stroke-linecap:square;stroke-width:1.5;"/>
    <g>
     <use style="fill:none;stroke:#ffa500;stroke-linejoin:bevel;stroke-width:1.5;" x="420.098879584" xlink:href="#m32f0ff829d" y="252.380084125"/>
     <use style="fill:none;stroke:#ffa500;stroke-linejoin:bevel;stroke-width:1.5;" x="451.778879584" xlink:href="#m32f0ff829d" y="122.75927599"/>
    </g>
   </g>
   <g id="line2d_24">
    <path d="M 420.09888 303.429375 
L 420.09888 29.686801 
" style="fill:none;stroke:#000000;stroke-linecap:square;"/>
   </g>
   <g id="patch_3">
    <path d="M 132.09888 26.949375 
L 489.21888 26.949375 
" style="fill:none;stroke:#000000;stroke-linecap:square;stroke-linejoin:miter;"/>
   </g>
   <g id="patch_4">
    <path d="M 489.21888 303.429375 
L 489.21888 26.949375 
" style="fill:none;stroke:#000000;stroke-linecap:square;stroke-linejoin:miter;"/>
   </g>
   <g id="patch_5">
    <path d="M 132.09888 303.429375 
L 489.21888 303.429375 
" style="fill:none;stroke:#000000;stroke-linecap:square;stroke-linejoin:miter;"/>
   </g>
   <g id="patch_6">
    <path d="M 132.09888 303.429375 
L 132.09888 26.949375 
" style="fill:none;stroke:#000000;stroke-linecap:square;stroke-linejoin:miter;"/>
   </g>
   <g id="matplotlib.axis_1">
    <g id="xtick_1">
     <g id="line2d_25">
      <path clip-path="url(#pff95d5324b)" d="M 132.09888 303.429375 
L 132.09888 26.949375 
" style="fill:none;stroke:#000000;stroke-dasharray:1.000000,3.000000;stroke-dashoffset:0.0;stroke-width:0.5;"/>
     </g>
     <g id="line2d_26">
      <defs>
       <path d="M 0 0 
L 0 -4 
" id="m5150750184" style="stroke:#000000;stroke-width:0.5;"/>
      </defs>
      <g>
       <use style="stroke:#000000;stroke-width:0.5;" x="132.098879584" xlink:href="#m5150750184" y="303.429375"/>
      </g>
     </g>
     <g id="line2d_27">
      <defs>
       <path d="M 0 0 
L 0 4 
" id="m56a0c97478" style="stroke:#000000;stroke-width:0.5;"/>
      </defs>
      <g>
       <use style="stroke:#000000;stroke-width:0.5;" x="132.098879584" xlink:href="#m56a0c97478" y="26.949375"/>
      </g>
     </g>
     <g id="text_1">
      <!-- 0 -->
      <defs>
       <path d="M 31.78125 66.40625 
Q 24.171875 66.40625 20.328125 58.90625 
Q 16.5 51.421875 16.5 36.375 
Q 16.5 21.390625 20.328125 13.890625 
Q 24.171875 6.390625 31.78125 6.390625 
Q 39.453125 6.390625 43.28125 13.890625 
Q 47.125 21.390625 47.125 36.375 
Q 47.125 51.421875 43.28125 58.90625 
Q 39.453125 66.40625 31.78125 66.40625 
M 31.78125 74.21875 
Q 44.046875 74.21875 50.515625 64.515625 
Q 56.984375 54.828125 56.984375 36.375 
Q 56.984375 17.96875 50.515625 8.265625 
Q 44.046875 -1.421875 31.78125 -1.421875 
Q 19.53125 -1.421875 13.0625 8.265625 
Q 6.59375 17.96875 6.59375 36.375 
Q 6.59375 54.828125 13.0625 64.515625 
Q 19.53125 74.21875 31.78125 74.21875 
" id="BitstreamVeraSans-Roman-30"/>
      </defs>
      <g transform="translate(125.736379584 322.62625)scale(0.2 -0.2)">
       <use xlink:href="#BitstreamVeraSans-Roman-30"/>
      </g>
     </g>
    </g>
    <g id="xtick_2">
     <g id="line2d_28">
      <path clip-path="url(#pff95d5324b)" d="M 228.09888 303.429375 
L 228.09888 26.949375 
" style="fill:none;stroke:#000000;stroke-dasharray:1.000000,3.000000;stroke-dashoffset:0.0;stroke-width:0.5;"/>
     </g>
     <g id="line2d_29">
      <g>
       <use style="stroke:#000000;stroke-width:0.5;" x="228.098879584" xlink:href="#m5150750184" y="303.429375"/>
      </g>
     </g>
     <g id="line2d_30">
      <g>
       <use style="stroke:#000000;stroke-width:0.5;" x="228.098879584" xlink:href="#m56a0c97478" y="26.949375"/>
      </g>
     </g>
     <g id="text_2">
      <!-- 1 -->
      <defs>
       <path d="M 12.40625 8.296875 
L 28.515625 8.296875 
L 28.515625 63.921875 
L 10.984375 60.40625 
L 10.984375 69.390625 
L 28.421875 72.90625 
L 38.28125 72.90625 
L 38.28125 8.296875 
L 54.390625 8.296875 
L 54.390625 0 
L 12.40625 0 
z
" id="BitstreamVeraSans-Roman-31"/>
      </defs>
      <g transform="translate(221.736379584 322.62625)scale(0.2 -0.2)">
       <use xlink:href="#BitstreamVeraSans-Roman-31"/>
      </g>
     </g>
    </g>
    <g id="xtick_3">
     <g id="line2d_31">
      <path clip-path="url(#pff95d5324b)" d="M 324.09888 303.429375 
L 324.09888 26.949375 
" style="fill:none;stroke:#000000;stroke-dasharray:1.000000,3.000000;stroke-dashoffset:0.0;stroke-width:0.5;"/>
     </g>
     <g id="line2d_32">
      <g>
       <use style="stroke:#000000;stroke-width:0.5;" x="324.098879584" xlink:href="#m5150750184" y="303.429375"/>
      </g>
     </g>
     <g id="line2d_33">
      <g>
       <use style="stroke:#000000;stroke-width:0.5;" x="324.098879584" xlink:href="#m56a0c97478" y="26.949375"/>
      </g>
     </g>
     <g id="text_3">
      <!-- 2 -->
      <defs>
       <path d="M 19.1875 8.296875 
L 53.609375 8.296875 
L 53.609375 0 
L 7.328125 0 
L 7.328125 8.296875 
Q 12.9375 14.109375 22.625 23.890625 
Q 32.328125 33.6875 34.8125 36.53125 
Q 39.546875 41.84375 41.421875 45.53125 
Q 43.3125 49.21875 43.3125 52.78125 
Q 43.3125 58.59375 39.234375 62.25 
Q 35.15625 65.921875 28.609375 65.921875 
Q 23.96875 65.921875 18.8125 64.3125 
Q 13.671875 62.703125 7.8125 59.421875 
L 7.8125 69.390625 
Q 13.765625 71.78125 18.9375 73 
Q 24.125 74.21875 28.421875 74.21875 
Q 39.75 74.21875 46.484375 68.546875 
Q 53.21875 62.890625 53.21875 53.421875 
Q 53.21875 48.921875 51.53125 44.890625 
Q 49.859375 40.875 45.40625 35.40625 
Q 44.1875 33.984375 37.640625 27.21875 
Q 31.109375 20.453125 19.1875 8.296875 
" id="BitstreamVeraSans-Roman-32"/>
      </defs>
      <g transform="translate(317.736379584 322.62625)scale(0.2 -0.2)">
       <use xlink:href="#BitstreamVeraSans-Roman-32"/>
      </g>
     </g>
    </g>
    <g id="xtick_4">
     <g id="line2d_34">
      <path clip-path="url(#pff95d5324b)" d="M 420.09888 303.429375 
L 420.09888 26.949375 
" style="fill:none;stroke:#000000;stroke-dasharray:1.000000,3.000000;stroke-dashoffset:0.0;stroke-width:0.5;"/>
     </g>
     <g id="line2d_35">
      <g>
       <use style="stroke:#000000;stroke-width:0.5;" x="420.098879584" xlink:href="#m5150750184" y="303.429375"/>
      </g>
     </g>
     <g id="line2d_36">
      <g>
       <use style="stroke:#000000;stroke-width:0.5;" x="420.098879584" xlink:href="#m56a0c97478" y="26.949375"/>
      </g>
     </g>
     <g id="text_4">
      <!-- 3 -->
      <defs>
       <path d="M 40.578125 39.3125 
Q 47.65625 37.796875 51.625 33 
Q 55.609375 28.21875 55.609375 21.1875 
Q 55.609375 10.40625 48.1875 4.484375 
Q 40.765625 -1.421875 27.09375 -1.421875 
Q 22.515625 -1.421875 17.65625 -0.515625 
Q 12.796875 0.390625 7.625 2.203125 
L 7.625 11.71875 
Q 11.71875 9.328125 16.59375 8.109375 
Q 21.484375 6.890625 26.8125 6.890625 
Q 36.078125 6.890625 40.9375 10.546875 
Q 45.796875 14.203125 45.796875 21.1875 
Q 45.796875 27.640625 41.28125 31.265625 
Q 36.765625 34.90625 28.71875 34.90625 
L 20.21875 34.90625 
L 20.21875 43.015625 
L 29.109375 43.015625 
Q 36.375 43.015625 40.234375 45.921875 
Q 44.09375 48.828125 44.09375 54.296875 
Q 44.09375 59.90625 40.109375 62.90625 
Q 36.140625 65.921875 28.71875 65.921875 
Q 24.65625 65.921875 20.015625 65.03125 
Q 15.375 64.15625 9.8125 62.3125 
L 9.8125 71.09375 
Q 15.4375 72.65625 20.34375 73.4375 
Q 25.25 74.21875 29.59375 74.21875 
Q 40.828125 74.21875 47.359375 69.109375 
Q 53.90625 64.015625 53.90625 55.328125 
Q 53.90625 49.265625 50.4375 45.09375 
Q 46.96875 40.921875 40.578125 39.3125 
" id="BitstreamVeraSans-Roman-33"/>
      </defs>
      <g transform="translate(413.736379584 322.62625)scale(0.2 -0.2)">
       <use xlink:href="#BitstreamVeraSans-Roman-33"/>
      </g>
     </g>
    </g>
    <g id="xtick_5">
     <g id="line2d_37">
      <defs>
       <path d="M 0 0 
L 0 -2 
" id="m13373d759d" style="stroke:#000000;stroke-width:0.5;"/>
      </defs>
      <g>
       <use style="stroke:#000000;stroke-width:0.5;" x="160.997759167" xlink:href="#m13373d759d" y="303.429375"/>
      </g>
     </g>
     <g id="line2d_38">
      <defs>
       <path d="M 0 0 
L 0 2 
" id="mce57ac8b5c" style="stroke:#000000;stroke-width:0.5;"/>
      </defs>
      <g>
       <use style="stroke:#000000;stroke-width:0.5;" x="160.997759167" xlink:href="#mce57ac8b5c" y="26.949375"/>
      </g>
     </g>
    </g>
    <g id="xtick_6">
     <g id="line2d_39">
      <g>
       <use style="stroke:#000000;stroke-width:0.5;" x="177.902520037" xlink:href="#m13373d759d" y="303.429375"/>
      </g>
     </g>
     <g id="line2d_40">
      <g>
       <use style="stroke:#000000;stroke-width:0.5;" x="177.902520037" xlink:href="#mce57ac8b5c" y="26.949375"/>
      </g>
     </g>
    </g>
    <g id="xtick_7">
     <g id="line2d_41">
      <g>
       <use style="stroke:#000000;stroke-width:0.5;" x="189.896638751" xlink:href="#m13373d759d" y="303.429375"/>
      </g>
     </g>
     <g id="line2d_42">
      <g>
       <use style="stroke:#000000;stroke-width:0.5;" x="189.896638751" xlink:href="#mce57ac8b5c" y="26.949375"/>
      </g>
     </g>
    </g>
    <g id="xtick_8">
     <g id="line2d_43">
      <g>
       <use style="stroke:#000000;stroke-width:0.5;" x="199.2" xlink:href="#m13373d759d" y="303.429375"/>
      </g>
     </g>
     <g id="line2d_44">
      <g>
       <use style="stroke:#000000;stroke-width:0.5;" x="199.2" xlink:href="#mce57ac8b5c" y="26.949375"/>
      </g>
     </g>
    </g>
    <g id="xtick_9">
     <g id="line2d_45">
      <g>
       <use style="stroke:#000000;stroke-width:0.5;" x="206.801399621" xlink:href="#m13373d759d" y="303.429375"/>
      </g>
     </g>
     <g id="line2d_46">
      <g>
       <use style="stroke:#000000;stroke-width:0.5;" x="206.801399621" xlink:href="#mce57ac8b5c" y="26.949375"/>
      </g>
     </g>
    </g>
    <g id="xtick_10">
     <g id="line2d_47">
      <g>
       <use style="stroke:#000000;stroke-width:0.5;" x="213.228291425" xlink:href="#m13373d759d" y="303.429375"/>
      </g>
     </g>
     <g id="line2d_48">
      <g>
       <use style="stroke:#000000;stroke-width:0.5;" x="213.228291425" xlink:href="#mce57ac8b5c" y="26.949375"/>
      </g>
     </g>
    </g>
    <g id="xtick_11">
     <g id="line2d_49">
      <g>
       <use style="stroke:#000000;stroke-width:0.5;" x="218.795518335" xlink:href="#m13373d759d" y="303.429375"/>
      </g>
     </g>
     <g id="line2d_50">
      <g>
       <use style="stroke:#000000;stroke-width:0.5;" x="218.795518335" xlink:href="#mce57ac8b5c" y="26.949375"/>
      </g>
     </g>
    </g>
    <g id="xtick_12">
     <g id="line2d_51">
      <g>
       <use style="stroke:#000000;stroke-width:0.5;" x="223.70616049" xlink:href="#m13373d759d" y="303.429375"/>
      </g>
     </g>
     <g id="line2d_52">
      <g>
       <use style="stroke:#000000;stroke-width:0.5;" x="223.70616049" xlink:href="#mce57ac8b5c" y="26.949375"/>
      </g>
     </g>
    </g>
    <g id="xtick_13">
     <g id="line2d_53">
      <g>
       <use style="stroke:#000000;stroke-width:0.5;" x="256.997759167" xlink:href="#m13373d759d" y="303.429375"/>
      </g>
     </g>
     <g id="line2d_54">
      <g>
       <use style="stroke:#000000;stroke-width:0.5;" x="256.997759167" xlink:href="#mce57ac8b5c" y="26.949375"/>
      </g>
     </g>
    </g>
    <g id="xtick_14">
     <g id="line2d_55">
      <g>
       <use style="stroke:#000000;stroke-width:0.5;" x="273.902520037" xlink:href="#m13373d759d" y="303.429375"/>
      </g>
     </g>
     <g id="line2d_56">
      <g>
       <use style="stroke:#000000;stroke-width:0.5;" x="273.902520037" xlink:href="#mce57ac8b5c" y="26.949375"/>
      </g>
     </g>
    </g>
    <g id="xtick_15">
     <g id="line2d_57">
      <g>
       <use style="stroke:#000000;stroke-width:0.5;" x="285.896638751" xlink:href="#m13373d759d" y="303.429375"/>
      </g>
     </g>
     <g id="line2d_58">
      <g>
       <use style="stroke:#000000;stroke-width:0.5;" x="285.896638751" xlink:href="#mce57ac8b5c" y="26.949375"/>
      </g>
     </g>
    </g>
    <g id="xtick_16">
     <g id="line2d_59">
      <g>
       <use style="stroke:#000000;stroke-width:0.5;" x="295.2" xlink:href="#m13373d759d" y="303.429375"/>
      </g>
     </g>
     <g id="line2d_60">
      <g>
       <use style="stroke:#000000;stroke-width:0.5;" x="295.2" xlink:href="#mce57ac8b5c" y="26.949375"/>
      </g>
     </g>
    </g>
    <g id="xtick_17">
     <g id="line2d_61">
      <g>
       <use style="stroke:#000000;stroke-width:0.5;" x="302.801399621" xlink:href="#m13373d759d" y="303.429375"/>
      </g>
     </g>
     <g id="line2d_62">
      <g>
       <use style="stroke:#000000;stroke-width:0.5;" x="302.801399621" xlink:href="#mce57ac8b5c" y="26.949375"/>
      </g>
     </g>
    </g>
    <g id="xtick_18">
     <g id="line2d_63">
      <g>
       <use style="stroke:#000000;stroke-width:0.5;" x="309.228291425" xlink:href="#m13373d759d" y="303.429375"/>
      </g>
     </g>
     <g id="line2d_64">
      <g>
       <use style="stroke:#000000;stroke-width:0.5;" x="309.228291425" xlink:href="#mce57ac8b5c" y="26.949375"/>
      </g>
     </g>
    </g>
    <g id="xtick_19">
     <g id="line2d_65">
      <g>
       <use style="stroke:#000000;stroke-width:0.5;" x="314.795518335" xlink:href="#m13373d759d" y="303.429375"/>
      </g>
     </g>
     <g id="line2d_66">
      <g>
       <use style="stroke:#000000;stroke-width:0.5;" x="314.795518335" xlink:href="#mce57ac8b5c" y="26.949375"/>
      </g>
     </g>
    </g>
    <g id="xtick_20">
     <g id="line2d_67">
      <g>
       <use style="stroke:#000000;stroke-width:0.5;" x="319.70616049" xlink:href="#m13373d759d" y="303.429375"/>
      </g>
     </g>
     <g id="line2d_68">
      <g>
       <use style="stroke:#000000;stroke-width:0.5;" x="319.70616049" xlink:href="#mce57ac8b5c" y="26.949375"/>
      </g>
     </g>
    </g>
    <g id="xtick_21">
     <g id="line2d_69">
      <g>
       <use style="stroke:#000000;stroke-width:0.5;" x="352.997759167" xlink:href="#m13373d759d" y="303.429375"/>
      </g>
     </g>
     <g id="line2d_70">
      <g>
       <use style="stroke:#000000;stroke-width:0.5;" x="352.997759167" xlink:href="#mce57ac8b5c" y="26.949375"/>
      </g>
     </g>
    </g>
    <g id="xtick_22">
     <g id="line2d_71">
      <g>
       <use style="stroke:#000000;stroke-width:0.5;" x="369.902520037" xlink:href="#m13373d759d" y="303.429375"/>
      </g>
     </g>
     <g id="line2d_72">
      <g>
       <use style="stroke:#000000;stroke-width:0.5;" x="369.902520037" xlink:href="#mce57ac8b5c" y="26.949375"/>
      </g>
     </g>
    </g>
    <g id="xtick_23">
     <g id="line2d_73">
      <g>
       <use style="stroke:#000000;stroke-width:0.5;" x="381.896638751" xlink:href="#m13373d759d" y="303.429375"/>
      </g>
     </g>
     <g id="line2d_74">
      <g>
       <use style="stroke:#000000;stroke-width:0.5;" x="381.896638751" xlink:href="#mce57ac8b5c" y="26.949375"/>
      </g>
     </g>
    </g>
    <g id="xtick_24">
     <g id="line2d_75">
      <g>
       <use style="stroke:#000000;stroke-width:0.5;" x="391.2" xlink:href="#m13373d759d" y="303.429375"/>
      </g>
     </g>
     <g id="line2d_76">
      <g>
       <use style="stroke:#000000;stroke-width:0.5;" x="391.2" xlink:href="#mce57ac8b5c" y="26.949375"/>
      </g>
     </g>
    </g>
    <g id="xtick_25">
     <g id="line2d_77">
      <g>
       <use style="stroke:#000000;stroke-width:0.5;" x="398.801399621" xlink:href="#m13373d759d" y="303.429375"/>
      </g>
     </g>
     <g id="line2d_78">
      <g>
       <use style="stroke:#000000;stroke-width:0.5;" x="398.801399621" xlink:href="#mce57ac8b5c" y="26.949375"/>
      </g>
     </g>
    </g>
    <g id="xtick_26">
     <g id="line2d_79">
      <g>
       <use style="stroke:#000000;stroke-width:0.5;" x="405.228291425" xlink:href="#m13373d759d" y="303.429375"/>
      </g>
     </g>
     <g id="line2d_80">
      <g>
       <use style="stroke:#000000;stroke-width:0.5;" x="405.228291425" xlink:href="#mce57ac8b5c" y="26.949375"/>
      </g>
     </g>
    </g>
    <g id="xtick_27">
     <g id="line2d_81">
      <g>
       <use style="stroke:#000000;stroke-width:0.5;" x="410.795518335" xlink:href="#m13373d759d" y="303.429375"/>
      </g>
     </g>
     <g id="line2d_82">
      <g>
       <use style="stroke:#000000;stroke-width:0.5;" x="410.795518335" xlink:href="#mce57ac8b5c" y="26.949375"/>
      </g>
     </g>
    </g>
    <g id="xtick_28">
     <g id="line2d_83">
      <g>
       <use style="stroke:#000000;stroke-width:0.5;" x="415.70616049" xlink:href="#m13373d759d" y="303.429375"/>
      </g>
     </g>
     <g id="line2d_84">
      <g>
       <use style="stroke:#000000;stroke-width:0.5;" x="415.70616049" xlink:href="#mce57ac8b5c" y="26.949375"/>
      </g>
     </g>
    </g>
    <g id="xtick_29">
     <g id="line2d_85">
      <g>
       <use style="stroke:#000000;stroke-width:0.5;" x="448.997759167" xlink:href="#m13373d759d" y="303.429375"/>
      </g>
     </g>
     <g id="line2d_86">
      <g>
       <use style="stroke:#000000;stroke-width:0.5;" x="448.997759167" xlink:href="#mce57ac8b5c" y="26.949375"/>
      </g>
     </g>
    </g>
    <g id="xtick_30">
     <g id="line2d_87">
      <g>
       <use style="stroke:#000000;stroke-width:0.5;" x="465.902520037" xlink:href="#m13373d759d" y="303.429375"/>
      </g>
     </g>
     <g id="line2d_88">
      <g>
       <use style="stroke:#000000;stroke-width:0.5;" x="465.902520037" xlink:href="#mce57ac8b5c" y="26.949375"/>
      </g>
     </g>
    </g>
    <g id="xtick_31">
     <g id="line2d_89">
      <g>
       <use style="stroke:#000000;stroke-width:0.5;" x="477.896638751" xlink:href="#m13373d759d" y="303.429375"/>
      </g>
     </g>
     <g id="line2d_90">
      <g>
       <use style="stroke:#000000;stroke-width:0.5;" x="477.896638751" xlink:href="#mce57ac8b5c" y="26.949375"/>
      </g>
     </g>
    </g>
    <g id="xtick_32">
     <g id="line2d_91">
      <g>
       <use style="stroke:#000000;stroke-width:0.5;" x="487.2" xlink:href="#m13373d759d" y="303.429375"/>
      </g>
     </g>
     <g id="line2d_92">
      <g>
       <use style="stroke:#000000;stroke-width:0.5;" x="487.2" xlink:href="#mce57ac8b5c" y="26.949375"/>
      </g>
     </g>
    </g>
    <g id="text_5">
     <!-- log10 of (# f-evals / dimension) -->
     <defs>
      <path id="BitstreamVeraSans-Roman-20"/>
      <path d="M 51.125 44 
L 36.921875 44 
L 32.8125 27.6875 
L 47.125 27.6875 
z
M 43.796875 71.78125 
L 38.71875 51.515625 
L 52.984375 51.515625 
L 58.109375 71.78125 
L 65.921875 71.78125 
L 60.890625 51.515625 
L 76.125 51.515625 
L 76.125 44 
L 58.984375 44 
L 54.984375 27.6875 
L 70.515625 27.6875 
L 70.515625 20.21875 
L 53.078125 20.21875 
L 48 0 
L 40.1875 0 
L 45.21875 20.21875 
L 30.90625 20.21875 
L 25.875 0 
L 18.015625 0 
L 23.09375 20.21875 
L 7.71875 20.21875 
L 7.71875 27.6875 
L 24.90625 27.6875 
L 29 44 
L 13.28125 44 
L 13.28125 51.515625 
L 30.90625 51.515625 
L 35.890625 71.78125 
z
" id="BitstreamVeraSans-Roman-23"/>
      <path d="M 52 44.1875 
Q 55.375 50.25 60.0625 53.125 
Q 64.75 56 71.09375 56 
Q 79.640625 56 84.28125 50.015625 
Q 88.921875 44.046875 88.921875 33.015625 
L 88.921875 0 
L 79.890625 0 
L 79.890625 32.71875 
Q 79.890625 40.578125 77.09375 44.375 
Q 74.3125 48.1875 68.609375 48.1875 
Q 61.625 48.1875 57.5625 43.546875 
Q 53.515625 38.921875 53.515625 30.90625 
L 53.515625 0 
L 44.484375 0 
L 44.484375 32.71875 
Q 44.484375 40.625 41.703125 44.40625 
Q 38.921875 48.1875 33.109375 48.1875 
Q 26.21875 48.1875 22.15625 43.53125 
Q 18.109375 38.875 18.109375 30.90625 
L 18.109375 0 
L 9.078125 0 
L 9.078125 54.6875 
L 18.109375 54.6875 
L 18.109375 46.1875 
Q 21.1875 51.21875 25.484375 53.609375 
Q 29.78125 56 35.6875 56 
Q 41.65625 56 45.828125 52.96875 
Q 50 49.953125 52 44.1875 
" id="BitstreamVeraSans-Roman-6d"/>
      <path d="M 54.890625 33.015625 
L 54.890625 0 
L 45.90625 0 
L 45.90625 32.71875 
Q 45.90625 40.484375 42.875 44.328125 
Q 39.84375 48.1875 33.796875 48.1875 
Q 26.515625 48.1875 22.3125 43.546875 
Q 18.109375 38.921875 18.109375 30.90625 
L 18.109375 0 
L 9.078125 0 
L 9.078125 54.6875 
L 18.109375 54.6875 
L 18.109375 46.1875 
Q 21.34375 51.125 25.703125 53.5625 
Q 30.078125 56 35.796875 56 
Q 45.21875 56 50.046875 50.171875 
Q 54.890625 44.34375 54.890625 33.015625 
" id="BitstreamVeraSans-Roman-6e"/>
      <path d="M 31 75.875 
Q 24.46875 64.65625 21.28125 53.65625 
Q 18.109375 42.671875 18.109375 31.390625 
Q 18.109375 20.125 21.3125 9.0625 
Q 24.515625 -2 31 -13.1875 
L 23.1875 -13.1875 
Q 15.875 -1.703125 12.234375 9.375 
Q 8.59375 20.453125 8.59375 31.390625 
Q 8.59375 42.28125 12.203125 53.3125 
Q 15.828125 64.359375 23.1875 75.875 
z
" id="BitstreamVeraSans-Roman-28"/>
      <path d="M 30.609375 48.390625 
Q 23.390625 48.390625 19.1875 42.75 
Q 14.984375 37.109375 14.984375 27.296875 
Q 14.984375 17.484375 19.15625 11.84375 
Q 23.34375 6.203125 30.609375 6.203125 
Q 37.796875 6.203125 41.984375 11.859375 
Q 46.1875 17.53125 46.1875 27.296875 
Q 46.1875 37.015625 41.984375 42.703125 
Q 37.796875 48.390625 30.609375 48.390625 
M 30.609375 56 
Q 42.328125 56 49.015625 48.375 
Q 55.71875 40.765625 55.71875 27.296875 
Q 55.71875 13.875 49.015625 6.21875 
Q 42.328125 -1.421875 30.609375 -1.421875 
Q 18.84375 -1.421875 12.171875 6.21875 
Q 5.515625 13.875 5.515625 27.296875 
Q 5.515625 40.765625 12.171875 48.375 
Q 18.84375 56 30.609375 56 
" id="BitstreamVeraSans-Roman-6f"/>
      <path d="M 9.421875 75.984375 
L 18.40625 75.984375 
L 18.40625 0 
L 9.421875 0 
z
" id="BitstreamVeraSans-Roman-6c"/>
      <path d="M 2.984375 54.6875 
L 12.5 54.6875 
L 29.59375 8.796875 
L 46.6875 54.6875 
L 56.203125 54.6875 
L 35.6875 0 
L 23.484375 0 
z
" id="BitstreamVeraSans-Roman-76"/>
      <path d="M 9.421875 54.6875 
L 18.40625 54.6875 
L 18.40625 0 
L 9.421875 0 
z
M 9.421875 75.984375 
L 18.40625 75.984375 
L 18.40625 64.59375 
L 9.421875 64.59375 
z
" id="BitstreamVeraSans-Roman-69"/>
      <path d="M 4.890625 31.390625 
L 31.203125 31.390625 
L 31.203125 23.390625 
L 4.890625 23.390625 
z
" id="BitstreamVeraSans-Roman-2d"/>
      <path d="M 25.390625 72.90625 
L 33.6875 72.90625 
L 8.296875 -9.28125 
L 0 -9.28125 
z
" id="BitstreamVeraSans-Roman-2f"/>
      <path d="M 56.203125 29.59375 
L 56.203125 25.203125 
L 14.890625 25.203125 
Q 15.484375 15.921875 20.484375 11.0625 
Q 25.484375 6.203125 34.421875 6.203125 
Q 39.59375 6.203125 44.453125 7.46875 
Q 49.3125 8.734375 54.109375 11.28125 
L 54.109375 2.78125 
Q 49.265625 0.734375 44.1875 -0.34375 
Q 39.109375 -1.421875 33.890625 -1.421875 
Q 20.796875 -1.421875 13.15625 6.1875 
Q 5.515625 13.8125 5.515625 26.8125 
Q 5.515625 40.234375 12.765625 48.109375 
Q 20.015625 56 32.328125 56 
Q 43.359375 56 49.78125 48.890625 
Q 56.203125 41.796875 56.203125 29.59375 
M 47.21875 32.234375 
Q 47.125 39.59375 43.09375 43.984375 
Q 39.0625 48.390625 32.421875 48.390625 
Q 24.90625 48.390625 20.390625 44.140625 
Q 15.875 39.890625 15.1875 32.171875 
z
" id="BitstreamVeraSans-Roman-65"/>
      <path d="M 45.40625 46.390625 
L 45.40625 75.984375 
L 54.390625 75.984375 
L 54.390625 0 
L 45.40625 0 
L 45.40625 8.203125 
Q 42.578125 3.328125 38.25 0.953125 
Q 33.9375 -1.421875 27.875 -1.421875 
Q 17.96875 -1.421875 11.734375 6.484375 
Q 5.515625 14.40625 5.515625 27.296875 
Q 5.515625 40.1875 11.734375 48.09375 
Q 17.96875 56 27.875 56 
Q 33.9375 56 38.25 53.625 
Q 42.578125 51.265625 45.40625 46.390625 
M 14.796875 27.296875 
Q 14.796875 17.390625 18.875 11.75 
Q 22.953125 6.109375 30.078125 6.109375 
Q 37.203125 6.109375 41.296875 11.75 
Q 45.40625 17.390625 45.40625 27.296875 
Q 45.40625 37.203125 41.296875 42.84375 
Q 37.203125 48.484375 30.078125 48.484375 
Q 22.953125 48.484375 18.875 42.84375 
Q 14.796875 37.203125 14.796875 27.296875 
" id="BitstreamVeraSans-Roman-64"/>
      <path d="M 45.40625 27.984375 
Q 45.40625 37.75 41.375 43.109375 
Q 37.359375 48.484375 30.078125 48.484375 
Q 22.859375 48.484375 18.828125 43.109375 
Q 14.796875 37.75 14.796875 27.984375 
Q 14.796875 18.265625 18.828125 12.890625 
Q 22.859375 7.515625 30.078125 7.515625 
Q 37.359375 7.515625 41.375 12.890625 
Q 45.40625 18.265625 45.40625 27.984375 
M 54.390625 6.78125 
Q 54.390625 -7.171875 48.1875 -13.984375 
Q 42 -20.796875 29.203125 -20.796875 
Q 24.46875 -20.796875 20.265625 -20.09375 
Q 16.0625 -19.390625 12.109375 -17.921875 
L 12.109375 -9.1875 
Q 16.0625 -11.328125 19.921875 -12.34375 
Q 23.78125 -13.375 27.78125 -13.375 
Q 36.625 -13.375 41.015625 -8.765625 
Q 45.40625 -4.15625 45.40625 5.171875 
L 45.40625 9.625 
Q 42.625 4.78125 38.28125 2.390625 
Q 33.9375 0 27.875 0 
Q 17.828125 0 11.671875 7.65625 
Q 5.515625 15.328125 5.515625 27.984375 
Q 5.515625 40.671875 11.671875 48.328125 
Q 17.828125 56 27.875 56 
Q 33.9375 56 38.28125 53.609375 
Q 42.625 51.21875 45.40625 46.390625 
L 45.40625 54.6875 
L 54.390625 54.6875 
z
" id="BitstreamVeraSans-Roman-67"/>
      <path d="M 37.109375 75.984375 
L 37.109375 68.5 
L 28.515625 68.5 
Q 23.6875 68.5 21.796875 66.546875 
Q 19.921875 64.59375 19.921875 59.515625 
L 19.921875 54.6875 
L 34.71875 54.6875 
L 34.71875 47.703125 
L 19.921875 47.703125 
L 19.921875 0 
L 10.890625 0 
L 10.890625 47.703125 
L 2.296875 47.703125 
L 2.296875 54.6875 
L 10.890625 54.6875 
L 10.890625 58.5 
Q 10.890625 67.625 15.140625 71.796875 
Q 19.390625 75.984375 28.609375 75.984375 
z
" id="BitstreamVeraSans-Roman-66"/>
      <path d="M 34.28125 27.484375 
Q 23.390625 27.484375 19.1875 25 
Q 14.984375 22.515625 14.984375 16.5 
Q 14.984375 11.71875 18.140625 8.90625 
Q 21.296875 6.109375 26.703125 6.109375 
Q 34.1875 6.109375 38.703125 11.40625 
Q 43.21875 16.703125 43.21875 25.484375 
L 43.21875 27.484375 
z
M 52.203125 31.203125 
L 52.203125 0 
L 43.21875 0 
L 43.21875 8.296875 
Q 40.140625 3.328125 35.546875 0.953125 
Q 30.953125 -1.421875 24.3125 -1.421875 
Q 15.921875 -1.421875 10.953125 3.296875 
Q 6 8.015625 6 15.921875 
Q 6 25.140625 12.171875 29.828125 
Q 18.359375 34.515625 30.609375 34.515625 
L 43.21875 34.515625 
L 43.21875 35.40625 
Q 43.21875 41.609375 39.140625 45 
Q 35.0625 48.390625 27.6875 48.390625 
Q 23 48.390625 18.546875 47.265625 
Q 14.109375 46.140625 10.015625 43.890625 
L 10.015625 52.203125 
Q 14.9375 54.109375 19.578125 55.046875 
Q 24.21875 56 28.609375 56 
Q 40.484375 56 46.34375 49.84375 
Q 52.203125 43.703125 52.203125 31.203125 
" id="BitstreamVeraSans-Roman-61"/>
      <path d="M 44.28125 53.078125 
L 44.28125 44.578125 
Q 40.484375 46.53125 36.375 47.5 
Q 32.28125 48.484375 27.875 48.484375 
Q 21.1875 48.484375 17.84375 46.4375 
Q 14.5 44.390625 14.5 40.28125 
Q 14.5 37.15625 16.890625 35.375 
Q 19.28125 33.59375 26.515625 31.984375 
L 29.59375 31.296875 
Q 39.15625 29.25 43.1875 25.515625 
Q 47.21875 21.78125 47.21875 15.09375 
Q 47.21875 7.46875 41.1875 3.015625 
Q 35.15625 -1.421875 24.609375 -1.421875 
Q 20.21875 -1.421875 15.453125 -0.5625 
Q 10.6875 0.296875 5.421875 2 
L 5.421875 11.28125 
Q 10.40625 8.6875 15.234375 7.390625 
Q 20.0625 6.109375 24.8125 6.109375 
Q 31.15625 6.109375 34.5625 8.28125 
Q 37.984375 10.453125 37.984375 14.40625 
Q 37.984375 18.0625 35.515625 20.015625 
Q 33.0625 21.96875 24.703125 23.78125 
L 21.578125 24.515625 
Q 13.234375 26.265625 9.515625 29.90625 
Q 5.8125 33.546875 5.8125 39.890625 
Q 5.8125 47.609375 11.28125 51.796875 
Q 16.75 56 26.8125 56 
Q 31.78125 56 36.171875 55.265625 
Q 40.578125 54.546875 44.28125 53.078125 
" id="BitstreamVeraSans-Roman-73"/>
      <path d="M 8.015625 75.875 
L 15.828125 75.875 
Q 23.140625 64.359375 26.78125 53.3125 
Q 30.421875 42.28125 30.421875 31.390625 
Q 30.421875 20.453125 26.78125 9.375 
Q 23.140625 -1.703125 15.828125 -13.1875 
L 8.015625 -13.1875 
Q 14.5 -2 17.703125 9.0625 
Q 20.90625 20.125 20.90625 31.390625 
Q 20.90625 42.671875 17.703125 53.65625 
Q 14.5 64.65625 8.015625 75.875 
" id="BitstreamVeraSans-Roman-29"/>
     </defs>
     <g transform="translate(168.314035834 345.4628125)scale(0.18 -0.18)">
      <use xlink:href="#BitstreamVeraSans-Roman-6c"/>
      <use x="27.783203125" xlink:href="#BitstreamVeraSans-Roman-6f"/>
      <use x="88.96484375" xlink:href="#BitstreamVeraSans-Roman-67"/>
      <use x="152.44140625" xlink:href="#BitstreamVeraSans-Roman-31"/>
      <use x="216.064453125" xlink:href="#BitstreamVeraSans-Roman-30"/>
      <use x="279.6875" xlink:href="#BitstreamVeraSans-Roman-20"/>
      <use x="311.474609375" xlink:href="#BitstreamVeraSans-Roman-6f"/>
      <use x="372.65625" xlink:href="#BitstreamVeraSans-Roman-66"/>
      <use x="407.861328125" xlink:href="#BitstreamVeraSans-Roman-20"/>
      <use x="439.6484375" xlink:href="#BitstreamVeraSans-Roman-28"/>
      <use x="478.662109375" xlink:href="#BitstreamVeraSans-Roman-23"/>
      <use x="562.451171875" xlink:href="#BitstreamVeraSans-Roman-20"/>
      <use x="594.23828125" xlink:href="#BitstreamVeraSans-Roman-66"/>
      <use x="629.365234375" xlink:href="#BitstreamVeraSans-Roman-2d"/>
      <use x="665.44921875" xlink:href="#BitstreamVeraSans-Roman-65"/>
      <use x="726.97265625" xlink:href="#BitstreamVeraSans-Roman-76"/>
      <use x="786.15234375" xlink:href="#BitstreamVeraSans-Roman-61"/>
      <use x="847.431640625" xlink:href="#BitstreamVeraSans-Roman-6c"/>
      <use x="875.21484375" xlink:href="#BitstreamVeraSans-Roman-73"/>
      <use x="927.314453125" xlink:href="#BitstreamVeraSans-Roman-20"/>
      <use x="959.1015625" xlink:href="#BitstreamVeraSans-Roman-2f"/>
      <use x="992.79296875" xlink:href="#BitstreamVeraSans-Roman-20"/>
      <use x="1024.58007812" xlink:href="#BitstreamVeraSans-Roman-64"/>
      <use x="1088.05664062" xlink:href="#BitstreamVeraSans-Roman-69"/>
      <use x="1115.83984375" xlink:href="#BitstreamVeraSans-Roman-6d"/>
      <use x="1213.25195312" xlink:href="#BitstreamVeraSans-Roman-65"/>
      <use x="1274.77539062" xlink:href="#BitstreamVeraSans-Roman-6e"/>
      <use x="1338.15429688" xlink:href="#BitstreamVeraSans-Roman-73"/>
      <use x="1390.25390625" xlink:href="#BitstreamVeraSans-Roman-69"/>
      <use x="1418.03710938" xlink:href="#BitstreamVeraSans-Roman-6f"/>
      <use x="1479.21875" xlink:href="#BitstreamVeraSans-Roman-6e"/>
      <use x="1542.59765625" xlink:href="#BitstreamVeraSans-Roman-29"/>
     </g>
    </g>
   </g>
   <g id="matplotlib.axis_2">
    <g id="ytick_1">
     <g id="line2d_93">
      <path clip-path="url(#pff95d5324b)" d="M 132.09888 303.429375 
L 489.21888 303.429375 
" style="fill:none;stroke:#000000;stroke-dasharray:1.000000,3.000000;stroke-dashoffset:0.0;stroke-width:0.5;"/>
     </g>
     <g id="line2d_94">
      <defs>
       <path d="M 0 0 
L 4 0 
" id="mda36c02f26" style="stroke:#000000;stroke-width:0.5;"/>
      </defs>
      <g>
       <use style="stroke:#000000;stroke-width:0.5;" x="132.098879584" xlink:href="#mda36c02f26" y="303.429375"/>
      </g>
     </g>
     <g id="line2d_95">
      <defs>
       <path d="M 0 0 
L -4 0 
" id="m28a74e2dfc" style="stroke:#000000;stroke-width:0.5;"/>
      </defs>
      <g>
       <use style="stroke:#000000;stroke-width:0.5;" x="489.218879584" xlink:href="#m28a74e2dfc" y="303.429375"/>
      </g>
     </g>
     <g id="text_6">
      <!-- 0.0 -->
      <defs>
       <path d="M 10.6875 12.40625 
L 21 12.40625 
L 21 0 
L 10.6875 0 
z
" id="BitstreamVeraSans-Roman-2e"/>
      </defs>
      <g transform="translate(96.2926295837 308.948125)scale(0.2 -0.2)">
       <use xlink:href="#BitstreamVeraSans-Roman-30"/>
       <use x="63.623046875" xlink:href="#BitstreamVeraSans-Roman-2e"/>
       <use x="95.41015625" xlink:href="#BitstreamVeraSans-Roman-30"/>
      </g>
     </g>
    </g>
    <g id="ytick_2">
     <g id="line2d_96">
      <path clip-path="url(#pff95d5324b)" d="M 132.09888 248.68086 
L 489.21888 248.68086 
" style="fill:none;stroke:#000000;stroke-dasharray:1.000000,3.000000;stroke-dashoffset:0.0;stroke-width:0.5;"/>
     </g>
     <g id="line2d_97">
      <g>
       <use style="stroke:#000000;stroke-width:0.5;" x="132.098879584" xlink:href="#mda36c02f26" y="248.680860149"/>
      </g>
     </g>
     <g id="line2d_98">
      <g>
       <use style="stroke:#000000;stroke-width:0.5;" x="489.218879584" xlink:href="#m28a74e2dfc" y="248.680860149"/>
      </g>
     </g>
     <g id="text_7">
      <!-- 0.2 -->
      <g transform="translate(96.2926295837 254.199610149)scale(0.2 -0.2)">
       <use xlink:href="#BitstreamVeraSans-Roman-30"/>
       <use x="63.623046875" xlink:href="#BitstreamVeraSans-Roman-2e"/>
       <use x="95.41015625" xlink:href="#BitstreamVeraSans-Roman-32"/>
      </g>
     </g>
    </g>
    <g id="ytick_3">
     <g id="line2d_99">
      <path clip-path="url(#pff95d5324b)" d="M 132.09888 193.932345 
L 489.21888 193.932345 
" style="fill:none;stroke:#000000;stroke-dasharray:1.000000,3.000000;stroke-dashoffset:0.0;stroke-width:0.5;"/>
     </g>
     <g id="line2d_100">
      <g>
       <use style="stroke:#000000;stroke-width:0.5;" x="132.098879584" xlink:href="#mda36c02f26" y="193.932345297"/>
      </g>
     </g>
     <g id="line2d_101">
      <g>
       <use style="stroke:#000000;stroke-width:0.5;" x="489.218879584" xlink:href="#m28a74e2dfc" y="193.932345297"/>
      </g>
     </g>
     <g id="text_8">
      <!-- 0.4 -->
      <defs>
       <path d="M 37.796875 64.3125 
L 12.890625 25.390625 
L 37.796875 25.390625 
z
M 35.203125 72.90625 
L 47.609375 72.90625 
L 47.609375 25.390625 
L 58.015625 25.390625 
L 58.015625 17.1875 
L 47.609375 17.1875 
L 47.609375 0 
L 37.796875 0 
L 37.796875 17.1875 
L 4.890625 17.1875 
L 4.890625 26.703125 
z
" id="BitstreamVeraSans-Roman-34"/>
      </defs>
      <g transform="translate(96.2926295837 199.451095297)scale(0.2 -0.2)">
       <use xlink:href="#BitstreamVeraSans-Roman-30"/>
       <use x="63.623046875" xlink:href="#BitstreamVeraSans-Roman-2e"/>
       <use x="95.41015625" xlink:href="#BitstreamVeraSans-Roman-34"/>
      </g>
     </g>
    </g>
    <g id="ytick_4">
     <g id="line2d_102">
      <path clip-path="url(#pff95d5324b)" d="M 132.09888 139.18383 
L 489.21888 139.18383 
" style="fill:none;stroke:#000000;stroke-dasharray:1.000000,3.000000;stroke-dashoffset:0.0;stroke-width:0.5;"/>
     </g>
     <g id="line2d_103">
      <g>
       <use style="stroke:#000000;stroke-width:0.5;" x="132.098879584" xlink:href="#mda36c02f26" y="139.183830446"/>
      </g>
     </g>
     <g id="line2d_104">
      <g>
       <use style="stroke:#000000;stroke-width:0.5;" x="489.218879584" xlink:href="#m28a74e2dfc" y="139.183830446"/>
      </g>
     </g>
     <g id="text_9">
      <!-- 0.6 -->
      <defs>
       <path d="M 33.015625 40.375 
Q 26.375 40.375 22.484375 35.828125 
Q 18.609375 31.296875 18.609375 23.390625 
Q 18.609375 15.53125 22.484375 10.953125 
Q 26.375 6.390625 33.015625 6.390625 
Q 39.65625 6.390625 43.53125 10.953125 
Q 47.40625 15.53125 47.40625 23.390625 
Q 47.40625 31.296875 43.53125 35.828125 
Q 39.65625 40.375 33.015625 40.375 
M 52.59375 71.296875 
L 52.59375 62.3125 
Q 48.875 64.0625 45.09375 64.984375 
Q 41.3125 65.921875 37.59375 65.921875 
Q 27.828125 65.921875 22.671875 59.328125 
Q 17.53125 52.734375 16.796875 39.40625 
Q 19.671875 43.65625 24.015625 45.921875 
Q 28.375 48.1875 33.59375 48.1875 
Q 44.578125 48.1875 50.953125 41.515625 
Q 57.328125 34.859375 57.328125 23.390625 
Q 57.328125 12.15625 50.6875 5.359375 
Q 44.046875 -1.421875 33.015625 -1.421875 
Q 20.359375 -1.421875 13.671875 8.265625 
Q 6.984375 17.96875 6.984375 36.375 
Q 6.984375 53.65625 15.1875 63.9375 
Q 23.390625 74.21875 37.203125 74.21875 
Q 40.921875 74.21875 44.703125 73.484375 
Q 48.484375 72.75 52.59375 71.296875 
" id="BitstreamVeraSans-Roman-36"/>
      </defs>
      <g transform="translate(96.2926295837 144.702580446)scale(0.2 -0.2)">
       <use xlink:href="#BitstreamVeraSans-Roman-30"/>
       <use x="63.623046875" xlink:href="#BitstreamVeraSans-Roman-2e"/>
       <use x="95.41015625" xlink:href="#BitstreamVeraSans-Roman-36"/>
      </g>
     </g>
    </g>
    <g id="ytick_5">
     <g id="line2d_105">
      <path clip-path="url(#pff95d5324b)" d="M 132.09888 84.435316 
L 489.21888 84.435316 
" style="fill:none;stroke:#000000;stroke-dasharray:1.000000,3.000000;stroke-dashoffset:0.0;stroke-width:0.5;"/>
     </g>
     <g id="line2d_106">
      <g>
       <use style="stroke:#000000;stroke-width:0.5;" x="132.098879584" xlink:href="#mda36c02f26" y="84.4353155941"/>
      </g>
     </g>
     <g id="line2d_107">
      <g>
       <use style="stroke:#000000;stroke-width:0.5;" x="489.218879584" xlink:href="#m28a74e2dfc" y="84.4353155941"/>
      </g>
     </g>
     <g id="text_10">
      <!-- 0.8 -->
      <defs>
       <path d="M 31.78125 34.625 
Q 24.75 34.625 20.71875 30.859375 
Q 16.703125 27.09375 16.703125 20.515625 
Q 16.703125 13.921875 20.71875 10.15625 
Q 24.75 6.390625 31.78125 6.390625 
Q 38.8125 6.390625 42.859375 10.171875 
Q 46.921875 13.96875 46.921875 20.515625 
Q 46.921875 27.09375 42.890625 30.859375 
Q 38.875 34.625 31.78125 34.625 
M 21.921875 38.8125 
Q 15.578125 40.375 12.03125 44.71875 
Q 8.5 49.078125 8.5 55.328125 
Q 8.5 64.0625 14.71875 69.140625 
Q 20.953125 74.21875 31.78125 74.21875 
Q 42.671875 74.21875 48.875 69.140625 
Q 55.078125 64.0625 55.078125 55.328125 
Q 55.078125 49.078125 51.53125 44.71875 
Q 48 40.375 41.703125 38.8125 
Q 48.828125 37.15625 52.796875 32.3125 
Q 56.78125 27.484375 56.78125 20.515625 
Q 56.78125 9.90625 50.3125 4.234375 
Q 43.84375 -1.421875 31.78125 -1.421875 
Q 19.734375 -1.421875 13.25 4.234375 
Q 6.78125 9.90625 6.78125 20.515625 
Q 6.78125 27.484375 10.78125 32.3125 
Q 14.796875 37.15625 21.921875 38.8125 
M 18.3125 54.390625 
Q 18.3125 48.734375 21.84375 45.5625 
Q 25.390625 42.390625 31.78125 42.390625 
Q 38.140625 42.390625 41.71875 45.5625 
Q 45.3125 48.734375 45.3125 54.390625 
Q 45.3125 60.0625 41.71875 63.234375 
Q 38.140625 66.40625 31.78125 66.40625 
Q 25.390625 66.40625 21.84375 63.234375 
Q 18.3125 60.0625 18.3125 54.390625 
" id="BitstreamVeraSans-Roman-38"/>
      </defs>
      <g transform="translate(96.2926295837 89.9540655941)scale(0.2 -0.2)">
       <use xlink:href="#BitstreamVeraSans-Roman-30"/>
       <use x="63.623046875" xlink:href="#BitstreamVeraSans-Roman-2e"/>
       <use x="95.41015625" xlink:href="#BitstreamVeraSans-Roman-38"/>
      </g>
     </g>
    </g>
    <g id="ytick_6">
     <g id="line2d_108">
      <path clip-path="url(#pff95d5324b)" d="M 132.09888 29.686801 
L 489.21888 29.686801 
" style="fill:none;stroke:#000000;stroke-dasharray:1.000000,3.000000;stroke-dashoffset:0.0;stroke-width:0.5;"/>
     </g>
     <g id="line2d_109">
      <g>
       <use style="stroke:#000000;stroke-width:0.5;" x="132.098879584" xlink:href="#mda36c02f26" y="29.6868007426"/>
      </g>
     </g>
     <g id="line2d_110">
      <g>
       <use style="stroke:#000000;stroke-width:0.5;" x="489.218879584" xlink:href="#m28a74e2dfc" y="29.6868007426"/>
      </g>
     </g>
     <g id="text_11">
      <!-- 1.0 -->
      <g transform="translate(96.2926295837 35.2055507426)scale(0.2 -0.2)">
       <use xlink:href="#BitstreamVeraSans-Roman-31"/>
       <use x="63.623046875" xlink:href="#BitstreamVeraSans-Roman-2e"/>
       <use x="95.41015625" xlink:href="#BitstreamVeraSans-Roman-30"/>
      </g>
     </g>
    </g>
    <g id="text_12">
     <!-- Proportion of function+target pairs -->
     <defs>
      <path d="M 19.671875 64.796875 
L 19.671875 37.40625 
L 32.078125 37.40625 
Q 38.96875 37.40625 42.71875 40.96875 
Q 46.484375 44.53125 46.484375 51.125 
Q 46.484375 57.671875 42.71875 61.234375 
Q 38.96875 64.796875 32.078125 64.796875 
z
M 9.8125 72.90625 
L 32.078125 72.90625 
Q 44.34375 72.90625 50.609375 67.359375 
Q 56.890625 61.8125 56.890625 51.125 
Q 56.890625 40.328125 50.609375 34.8125 
Q 44.34375 29.296875 32.078125 29.296875 
L 19.671875 29.296875 
L 19.671875 0 
L 9.8125 0 
z
" id="BitstreamVeraSans-Roman-50"/>
      <path d="M 46 62.703125 
L 46 35.5 
L 73.1875 35.5 
L 73.1875 27.203125 
L 46 27.203125 
L 46 0 
L 37.796875 0 
L 37.796875 27.203125 
L 10.59375 27.203125 
L 10.59375 35.5 
L 37.796875 35.5 
L 37.796875 62.703125 
z
" id="BitstreamVeraSans-Roman-2b"/>
      <path d="M 18.109375 8.203125 
L 18.109375 -20.796875 
L 9.078125 -20.796875 
L 9.078125 54.6875 
L 18.109375 54.6875 
L 18.109375 46.390625 
Q 20.953125 51.265625 25.265625 53.625 
Q 29.59375 56 35.59375 56 
Q 45.5625 56 51.78125 48.09375 
Q 58.015625 40.1875 58.015625 27.296875 
Q 58.015625 14.40625 51.78125 6.484375 
Q 45.5625 -1.421875 35.59375 -1.421875 
Q 29.59375 -1.421875 25.265625 0.953125 
Q 20.953125 3.328125 18.109375 8.203125 
M 48.6875 27.296875 
Q 48.6875 37.203125 44.609375 42.84375 
Q 40.53125 48.484375 33.40625 48.484375 
Q 26.265625 48.484375 22.1875 42.84375 
Q 18.109375 37.203125 18.109375 27.296875 
Q 18.109375 17.390625 22.1875 11.75 
Q 26.265625 6.109375 33.40625 6.109375 
Q 40.53125 6.109375 44.609375 11.75 
Q 48.6875 17.390625 48.6875 27.296875 
" id="BitstreamVeraSans-Roman-70"/>
      <path d="M 18.3125 70.21875 
L 18.3125 54.6875 
L 36.8125 54.6875 
L 36.8125 47.703125 
L 18.3125 47.703125 
L 18.3125 18.015625 
Q 18.3125 11.328125 20.140625 9.421875 
Q 21.96875 7.515625 27.59375 7.515625 
L 36.8125 7.515625 
L 36.8125 0 
L 27.59375 0 
Q 17.1875 0 13.234375 3.875 
Q 9.28125 7.765625 9.28125 18.015625 
L 9.28125 47.703125 
L 2.6875 47.703125 
L 2.6875 54.6875 
L 9.28125 54.6875 
L 9.28125 70.21875 
z
" id="BitstreamVeraSans-Roman-74"/>
      <path d="M 8.5 21.578125 
L 8.5 54.6875 
L 17.484375 54.6875 
L 17.484375 21.921875 
Q 17.484375 14.15625 20.5 10.265625 
Q 23.53125 6.390625 29.59375 6.390625 
Q 36.859375 6.390625 41.078125 11.03125 
Q 45.3125 15.671875 45.3125 23.6875 
L 45.3125 54.6875 
L 54.296875 54.6875 
L 54.296875 0 
L 45.3125 0 
L 45.3125 8.40625 
Q 42.046875 3.421875 37.71875 1 
Q 33.40625 -1.421875 27.6875 -1.421875 
Q 18.265625 -1.421875 13.375 4.4375 
Q 8.5 10.296875 8.5 21.578125 
" id="BitstreamVeraSans-Roman-75"/>
      <path d="M 41.109375 46.296875 
Q 39.59375 47.171875 37.8125 47.578125 
Q 36.03125 48 33.890625 48 
Q 26.265625 48 22.1875 43.046875 
Q 18.109375 38.09375 18.109375 28.8125 
L 18.109375 0 
L 9.078125 0 
L 9.078125 54.6875 
L 18.109375 54.6875 
L 18.109375 46.1875 
Q 20.953125 51.171875 25.484375 53.578125 
Q 30.03125 56 36.53125 56 
Q 37.453125 56 38.578125 55.875 
Q 39.703125 55.765625 41.0625 55.515625 
z
" id="BitstreamVeraSans-Roman-72"/>
      <path d="M 48.78125 52.59375 
L 48.78125 44.1875 
Q 44.96875 46.296875 41.140625 47.34375 
Q 37.3125 48.390625 33.40625 48.390625 
Q 24.65625 48.390625 19.8125 42.84375 
Q 14.984375 37.3125 14.984375 27.296875 
Q 14.984375 17.28125 19.8125 11.734375 
Q 24.65625 6.203125 33.40625 6.203125 
Q 37.3125 6.203125 41.140625 7.25 
Q 44.96875 8.296875 48.78125 10.40625 
L 48.78125 2.09375 
Q 45.015625 0.34375 40.984375 -0.53125 
Q 36.96875 -1.421875 32.421875 -1.421875 
Q 20.0625 -1.421875 12.78125 6.34375 
Q 5.515625 14.109375 5.515625 27.296875 
Q 5.515625 40.671875 12.859375 48.328125 
Q 20.21875 56 33.015625 56 
Q 37.15625 56 41.109375 55.140625 
Q 45.0625 54.296875 48.78125 52.59375 
" id="BitstreamVeraSans-Roman-63"/>
     </defs>
     <g transform="translate(87.5491920837 323.17875)rotate(-90.0)scale(0.18 -0.18)">
      <use xlink:href="#BitstreamVeraSans-Roman-50"/>
      <use x="60.287109375" xlink:href="#BitstreamVeraSans-Roman-72"/>
      <use x="101.369140625" xlink:href="#BitstreamVeraSans-Roman-6f"/>
      <use x="162.55078125" xlink:href="#BitstreamVeraSans-Roman-70"/>
      <use x="226.02734375" xlink:href="#BitstreamVeraSans-Roman-6f"/>
      <use x="287.208984375" xlink:href="#BitstreamVeraSans-Roman-72"/>
      <use x="328.322265625" xlink:href="#BitstreamVeraSans-Roman-74"/>
      <use x="367.53125" xlink:href="#BitstreamVeraSans-Roman-69"/>
      <use x="395.314453125" xlink:href="#BitstreamVeraSans-Roman-6f"/>
      <use x="456.49609375" xlink:href="#BitstreamVeraSans-Roman-6e"/>
      <use x="519.875" xlink:href="#BitstreamVeraSans-Roman-20"/>
      <use x="551.662109375" xlink:href="#BitstreamVeraSans-Roman-6f"/>
      <use x="612.84375" xlink:href="#BitstreamVeraSans-Roman-66"/>
      <use x="648.048828125" xlink:href="#BitstreamVeraSans-Roman-20"/>
      <use x="679.8359375" xlink:href="#BitstreamVeraSans-Roman-66"/>
      <use x="715.041015625" xlink:href="#BitstreamVeraSans-Roman-75"/>
      <use x="778.419921875" xlink:href="#BitstreamVeraSans-Roman-6e"/>
      <use x="841.798828125" xlink:href="#BitstreamVeraSans-Roman-63"/>
      <use x="896.779296875" xlink:href="#BitstreamVeraSans-Roman-74"/>
      <use x="935.98828125" xlink:href="#BitstreamVeraSans-Roman-69"/>
      <use x="963.771484375" xlink:href="#BitstreamVeraSans-Roman-6f"/>
      <use x="1024.953125" xlink:href="#BitstreamVeraSans-Roman-6e"/>
      <use x="1088.33203125" xlink:href="#BitstreamVeraSans-Roman-2b"/>
      <use x="1172.12109375" xlink:href="#BitstreamVeraSans-Roman-74"/>
      <use x="1211.33007812" xlink:href="#BitstreamVeraSans-Roman-61"/>
      <use x="1272.609375" xlink:href="#BitstreamVeraSans-Roman-72"/>
      <use x="1313.70703125" xlink:href="#BitstreamVeraSans-Roman-67"/>
      <use x="1377.18359375" xlink:href="#BitstreamVeraSans-Roman-65"/>
      <use x="1438.70703125" xlink:href="#BitstreamVeraSans-Roman-74"/>
      <use x="1477.91601562" xlink:href="#BitstreamVeraSans-Roman-20"/>
      <use x="1509.703125" xlink:href="#BitstreamVeraSans-Roman-70"/>
      <use x="1573.1796875" xlink:href="#BitstreamVeraSans-Roman-61"/>
      <use x="1634.45898438" xlink:href="#BitstreamVeraSans-Roman-69"/>
      <use x="1662.2421875" xlink:href="#BitstreamVeraSans-Roman-72"/>
      <use x="1703.35546875" xlink:href="#BitstreamVeraSans-Roman-73"/>
     </g>
    </g>
   </g>
   <g id="text_13">
    <!-- diffusion ga -->
    <g transform="translate(457.538879584 302.093586015)scale(0.15 -0.15)">
     <use xlink:href="#BitstreamVeraSans-Roman-64"/>
     <use x="63.4765625" xlink:href="#BitstreamVeraSans-Roman-69"/>
     <use x="91.259765625" xlink:href="#BitstreamVeraSans-Roman-66"/>
     <use x="126.46484375" xlink:href="#BitstreamVeraSans-Roman-66"/>
     <use x="161.669921875" xlink:href="#BitstreamVeraSans-Roman-75"/>
     <use x="225.048828125" xlink:href="#BitstreamVeraSans-Roman-73"/>
     <use x="277.1484375" xlink:href="#BitstreamVeraSans-Roman-69"/>
     <use x="304.931640625" xlink:href="#BitstreamVeraSans-Roman-6f"/>
     <use x="366.11328125" xlink:href="#BitstreamVeraSans-Roman-6e"/>
     <use x="429.4921875" xlink:href="#BitstreamVeraSans-Roman-20"/>
     <use x="461.279296875" xlink:href="#BitstreamVeraSans-Roman-67"/>
     <use x="524.755859375" xlink:href="#BitstreamVeraSans-Roman-61"/>
    </g>
   </g>
   <g id="text_14">
    <!-- standard ga -->
    <g transform="translate(457.538879584 214.495962252)scale(0.15 -0.15)">
     <use xlink:href="#BitstreamVeraSans-Roman-73"/>
     <use x="52.099609375" xlink:href="#BitstreamVeraSans-Roman-74"/>
     <use x="91.30859375" xlink:href="#BitstreamVeraSans-Roman-61"/>
     <use x="152.587890625" xlink:href="#BitstreamVeraSans-Roman-6e"/>
     <use x="215.966796875" xlink:href="#BitstreamVeraSans-Roman-64"/>
     <use x="279.443359375" xlink:href="#BitstreamVeraSans-Roman-61"/>
     <use x="340.72265625" xlink:href="#BitstreamVeraSans-Roman-72"/>
     <use x="381.8203125" xlink:href="#BitstreamVeraSans-Roman-64"/>
     <use x="445.296875" xlink:href="#BitstreamVeraSans-Roman-20"/>
     <use x="477.083984375" xlink:href="#BitstreamVeraSans-Roman-67"/>
     <use x="540.560546875" xlink:href="#BitstreamVeraSans-Roman-61"/>
    </g>
   </g>
   <g id="text_15">
    <!-- migration ga -->
    <g transform="translate(457.538879584 126.89833849)scale(0.15 -0.15)">
     <use xlink:href="#BitstreamVeraSans-Roman-6d"/>
     <use x="97.412109375" xlink:href="#BitstreamVeraSans-Roman-69"/>
     <use x="125.1953125" xlink:href="#BitstreamVeraSans-Roman-67"/>
     <use x="188.671875" xlink:href="#BitstreamVeraSans-Roman-72"/>
     <use x="229.78515625" xlink:href="#BitstreamVeraSans-Roman-61"/>
     <use x="291.064453125" xlink:href="#BitstreamVeraSans-Roman-74"/>
     <use x="330.2734375" xlink:href="#BitstreamVeraSans-Roman-69"/>
     <use x="358.056640625" xlink:href="#BitstreamVeraSans-Roman-6f"/>
     <use x="419.23828125" xlink:href="#BitstreamVeraSans-Roman-6e"/>
     <use x="482.6171875" xlink:href="#BitstreamVeraSans-Roman-20"/>
     <use x="514.404296875" xlink:href="#BitstreamVeraSans-Roman-67"/>
     <use x="577.880859375" xlink:href="#BitstreamVeraSans-Roman-61"/>
    </g>
   </g>
   <g id="text_16">
    <!-- best 2009 -->
    <defs>
     <path d="M 10.984375 1.515625 
L 10.984375 10.5 
Q 14.703125 8.734375 18.5 7.8125 
Q 22.3125 6.890625 25.984375 6.890625 
Q 35.75 6.890625 40.890625 13.453125 
Q 46.046875 20.015625 46.78125 33.40625 
Q 43.953125 29.203125 39.59375 26.953125 
Q 35.25 24.703125 29.984375 24.703125 
Q 19.046875 24.703125 12.671875 31.3125 
Q 6.296875 37.9375 6.296875 49.421875 
Q 6.296875 60.640625 12.9375 67.421875 
Q 19.578125 74.21875 30.609375 74.21875 
Q 43.265625 74.21875 49.921875 64.515625 
Q 56.59375 54.828125 56.59375 36.375 
Q 56.59375 19.140625 48.40625 8.859375 
Q 40.234375 -1.421875 26.421875 -1.421875 
Q 22.703125 -1.421875 18.890625 -0.6875 
Q 15.09375 0.046875 10.984375 1.515625 
M 30.609375 32.421875 
Q 37.25 32.421875 41.125 36.953125 
Q 45.015625 41.5 45.015625 49.421875 
Q 45.015625 57.28125 41.125 61.84375 
Q 37.25 66.40625 30.609375 66.40625 
Q 23.96875 66.40625 20.09375 61.84375 
Q 16.21875 57.28125 16.21875 49.421875 
Q 16.21875 41.5 20.09375 36.953125 
Q 23.96875 32.421875 30.609375 32.421875 
" id="BitstreamVeraSans-Roman-39"/>
     <path d="M 48.6875 27.296875 
Q 48.6875 37.203125 44.609375 42.84375 
Q 40.53125 48.484375 33.40625 48.484375 
Q 26.265625 48.484375 22.1875 42.84375 
Q 18.109375 37.203125 18.109375 27.296875 
Q 18.109375 17.390625 22.1875 11.75 
Q 26.265625 6.109375 33.40625 6.109375 
Q 40.53125 6.109375 44.609375 11.75 
Q 48.6875 17.390625 48.6875 27.296875 
M 18.109375 46.390625 
Q 20.953125 51.265625 25.265625 53.625 
Q 29.59375 56 35.59375 56 
Q 45.5625 56 51.78125 48.09375 
Q 58.015625 40.1875 58.015625 27.296875 
Q 58.015625 14.40625 51.78125 6.484375 
Q 45.5625 -1.421875 35.59375 -1.421875 
Q 29.59375 -1.421875 25.265625 0.953125 
Q 20.953125 3.328125 18.109375 8.203125 
L 18.109375 0 
L 9.078125 0 
L 9.078125 75.984375 
L 18.109375 75.984375 
z
" id="BitstreamVeraSans-Roman-62"/>
    </defs>
    <g transform="translate(457.538879584 39.3007147277)scale(0.15 -0.15)">
     <use xlink:href="#BitstreamVeraSans-Roman-62"/>
     <use x="63.4765625" xlink:href="#BitstreamVeraSans-Roman-65"/>
     <use x="125.0" xlink:href="#BitstreamVeraSans-Roman-73"/>
     <use x="177.099609375" xlink:href="#BitstreamVeraSans-Roman-74"/>
     <use x="216.30859375" xlink:href="#BitstreamVeraSans-Roman-20"/>
     <use x="248.095703125" xlink:href="#BitstreamVeraSans-Roman-32"/>
     <use x="311.71875" xlink:href="#BitstreamVeraSans-Roman-30"/>
     <use x="375.341796875" xlink:href="#BitstreamVeraSans-Roman-30"/>
     <use x="438.96484375" xlink:href="#BitstreamVeraSans-Roman-39"/>
    </g>
   </g>
   <g id="text_17">
    <!-- f10-14,20-D -->
    <defs>
     <path d="M 11.71875 12.40625 
L 22.015625 12.40625 
L 22.015625 4 
L 14.015625 -11.625 
L 7.71875 -11.625 
L 11.71875 4 
z
" id="BitstreamVeraSans-Roman-2c"/>
     <path d="M 19.671875 64.796875 
L 19.671875 8.109375 
L 31.59375 8.109375 
Q 46.6875 8.109375 53.6875 14.9375 
Q 60.6875 21.78125 60.6875 36.53125 
Q 60.6875 51.171875 53.6875 57.984375 
Q 46.6875 64.796875 31.59375 64.796875 
z
M 9.8125 72.90625 
L 30.078125 72.90625 
Q 51.265625 72.90625 61.171875 64.09375 
Q 71.09375 55.28125 71.09375 36.53125 
Q 71.09375 17.671875 61.125 8.828125 
Q 51.171875 0 30.078125 0 
L 9.8125 0 
z
" id="BitstreamVeraSans-Roman-44"/>
    </defs>
    <g transform="translate(135.670079584 47.67585)scale(0.2 -0.2)">
     <use xlink:href="#BitstreamVeraSans-Roman-66"/>
     <use x="35.205078125" xlink:href="#BitstreamVeraSans-Roman-31"/>
     <use x="98.828125" xlink:href="#BitstreamVeraSans-Roman-30"/>
     <use x="162.451171875" xlink:href="#BitstreamVeraSans-Roman-2d"/>
     <use x="198.53515625" xlink:href="#BitstreamVeraSans-Roman-31"/>
     <use x="262.158203125" xlink:href="#BitstreamVeraSans-Roman-34"/>
     <use x="325.78125" xlink:href="#BitstreamVeraSans-Roman-2c"/>
     <use x="357.568359375" xlink:href="#BitstreamVeraSans-Roman-32"/>
     <use x="421.19140625" xlink:href="#BitstreamVeraSans-Roman-30"/>
     <use x="484.814453125" xlink:href="#BitstreamVeraSans-Roman-2d"/>
     <use x="520.8984375" xlink:href="#BitstreamVeraSans-Roman-44"/>
    </g>
   </g>
  </g>
 </g>
 <defs>
  <clipPath id="pff95d5324b">
   <rect height="276.48" width="357.12" x="132.098879584" y="26.949375"/>
  </clipPath>
 </defs>
</svg>
