<?xml version="1.0" encoding="utf-8" standalone="no"?>
<!DOCTYPE svg PUBLIC "-//W3C//DTD SVG 1.1//EN"
  "http://www.w3.org/Graphics/SVG/1.1/DTD/svg11.dtd">
<!-- Created with matplotlib (http://matplotlib.org/) -->
<svg height="356pt" version="1.1" viewBox="0 0 508 356" width="508pt" xmlns="http://www.w3.org/2000/svg" xmlns:xlink="http://www.w3.org/1999/xlink">
 <defs>
  <style type="text/css">
*{stroke-linecap:butt;stroke-linejoin:round;stroke-miterlimit:100000;}
  </style>
 </defs>
 <g id="figure_1">
  <g id="patch_1">
   <path d="M 0 356.40625 
L 508.814558 356.40625 
L 508.814558 0 
L 0 0 
z
" style="fill:#ffffff;"/>
  </g>
  <g id="axes_1">
   <g id="patch_2">
    <path d="M 80.30112 303.429375 
L 437.42112 303.429375 
L 437.42112 26.949375 
L 80.30112 26.949375 
z
" style="fill:#ffffff;"/>
   </g>
   <g id="line2d_1">
    <path d="M 13.2 303.429375 
L 13.2 288.552061 
L 42.09888 288.552061 
L 42.09888 285.576598 
L 59.00364 285.576598 
L 59.00364 281.708497 
L 70.997759 281.708497 
L 70.997759 277.542849 
L 80.30112 277.542849 
L 80.30112 273.079655 
L 87.90252 273.079655 
L 87.90252 271.591923 
L 94.329412 271.591923 
L 94.329412 265.343452 
L 99.896639 265.343452 
L 99.896639 262.070443 
L 104.807281 262.070443 
L 104.807281 260.880257 
L 113.173698 260.880257 
L 113.173698 256.119517 
L 116.8014 256.119517 
L 116.8014 247.490675 
L 120.138562 247.490675 
L 120.138562 244.217666 
L 123.228291 244.217666 
L 123.228291 241.837296 
L 126.104761 241.837296 
L 126.104761 237.374102 
L 128.795518 237.374102 
L 128.795518 235.291278 
L 131.323096 235.291278 
L 131.323096 233.506 
L 133.70616 233.506 
L 133.70616 231.12563 
L 135.960346 231.12563 
L 135.960346 226.067343 
L 138.09888 226.067343 
L 138.09888 224.579612 
L 140.133052 224.579612 
L 140.133052 222.794334 
L 142.072577 222.794334 
L 142.072577 220.71151 
L 143.925872 220.71151 
L 143.925872 218.033594 
L 145.700279 218.033594 
L 145.700279 215.653223 
L 147.402241 215.653223 
L 147.402241 213.5704 
L 149.037441 213.5704 
L 149.037441 212.082668 
L 150.610921 212.082668 
L 150.610921 209.702298 
L 152.127171 209.702298 
L 152.127171 207.619474 
L 153.590208 207.619474 
L 153.590208 203.453826 
L 155.00364 203.453826 
L 155.00364 201.668548 
L 156.370723 201.668548 
L 156.370723 199.288178 
L 157.694398 199.288178 
L 157.694398 196.015169 
L 158.977338 196.015169 
L 158.977338 194.229892 
L 160.221976 194.229892 
L 160.221976 192.147068 
L 161.430532 192.147068 
L 161.430532 189.766697 
L 162.60504 189.766697 
L 162.60504 187.088781 
L 163.747366 187.088781 
L 163.747366 185.60105 
L 164.859225 185.60105 
L 164.859225 183.815772 
L 165.942202 183.815772 
L 165.942202 182.030494 
L 166.997759 182.030494 
L 166.997759 181.137855 
L 168.02725 181.137855 
L 168.02725 179.94767 
L 170.012972 179.94767 
L 170.012972 178.757485 
L 170.971457 178.757485 
L 170.971457 177.5673 
L 171.908401 177.5673 
L 171.908401 176.377115 
L 172.824752 176.377115 
L 172.824752 174.889384 
L 173.721394 174.889384 
L 173.721394 172.211467 
L 174.599159 172.211467 
L 174.599159 171.913921 
L 175.458824 171.913921 
L 175.458824 169.533551 
L 176.30112 169.533551 
L 176.30112 168.343366 
L 177.126737 168.343366 
L 177.126737 167.450727 
L 177.936321 167.450727 
L 177.936321 165.665449 
L 178.730483 165.665449 
L 178.730483 163.582625 
L 179.509801 163.582625 
L 179.509801 162.094894 
L 180.274818 162.094894 
L 180.274818 159.119431 
L 181.026051 159.119431 
L 181.026051 157.334153 
L 181.763986 157.334153 
L 181.763986 155.548876 
L 182.489087 155.548876 
L 182.489087 154.953783 
L 183.201793 154.953783 
L 183.201793 153.466052 
L 183.90252 153.466052 
L 183.90252 153.168505 
L 184.591664 153.168505 
L 184.591664 148.705311 
L 185.269602 148.705311 
L 185.269602 148.110219 
L 185.936693 148.110219 
L 185.936693 147.515126 
L 186.593278 147.515126 
L 186.593278 146.920034 
L 187.239682 146.920034 
L 187.239682 146.324941 
L 187.876218 146.324941 
L 187.876218 145.134756 
L 188.503181 145.134756 
L 188.503181 144.83721 
L 189.120856 144.83721 
L 189.120856 144.539663 
L 189.729513 144.539663 
L 189.729513 144.242117 
L 191.50392 144.242117 
L 191.50392 143.647025 
L 192.078995 143.647025 
L 192.078995 143.051932 
L 192.646245 143.051932 
L 192.646245 142.456839 
L 193.758105 142.456839 
L 193.758105 141.861747 
L 194.30311 141.861747 
L 194.30311 141.564201 
L 194.841082 141.564201 
L 194.841082 139.778923 
L 195.372201 139.778923 
L 195.372201 138.291192 
L 196.414562 138.291192 
L 196.414562 137.993645 
L 196.92613 137.993645 
L 196.92613 136.208368 
L 197.431497 136.208368 
L 197.431497 135.613275 
L 197.930811 135.613275 
L 197.930811 134.42309 
L 198.424217 134.42309 
L 198.424217 133.232905 
L 198.911851 133.232905 
L 198.911851 132.637812 
L 199.393848 132.637812 
L 199.393848 132.340266 
L 200.341441 132.340266 
L 200.341441 131.447627 
L 200.807281 131.447627 
L 200.807281 129.364803 
L 201.267974 129.364803 
L 201.267974 127.877072 
L 201.723631 127.877072 
L 201.723631 127.281979 
L 202.174363 127.281979 
L 202.174363 126.389341 
L 202.620274 126.389341 
L 202.620274 125.496702 
L 203.061466 125.496702 
L 203.061466 124.306517 
L 203.930086 124.306517 
L 203.930086 122.818785 
L 204.357703 122.818785 
L 204.357703 122.223693 
L 205.614852 122.223693 
L 205.614852 121.6286 
L 206.432374 121.6286 
L 206.432374 119.24823 
L 206.835201 119.24823 
L 206.835201 118.950684 
L 208.792944 118.950684 
L 208.792944 116.570313 
L 209.173698 116.570313 
L 209.173698 115.677675 
L 209.551006 115.677675 
L 209.551006 115.380128 
L 209.92493 115.380128 
L 209.92493 114.785036 
L 210.295531 114.785036 
L 210.295531 112.702212 
L 210.662866 112.702212 
L 210.662866 112.404666 
L 211.026993 112.404666 
L 211.026993 110.321842 
L 211.387967 110.321842 
L 211.387967 110.024295 
L 213.147396 110.024295 
L 213.147396 106.751286 
L 213.490544 106.751286 
L 213.490544 105.263555 
L 213.830891 105.263555 
L 213.830891 104.07337 
L 214.503361 104.07337 
L 214.503361 103.180731 
L 214.835572 103.180731 
L 214.835572 102.883185 
L 215.165157 102.883185 
L 215.165157 98.419991 
L 215.492157 98.419991 
L 215.492157 97.824898 
L 217.089758 97.824898 
L 217.089758 95.146982 
L 218.019735 95.146982 
L 218.019735 94.849435 
L 218.325174 94.849435 
L 218.325174 94.551889 
L 218.929421 94.551889 
L 218.929421 90.981334 
L 219.525035 90.981334 
L 219.525035 90.088695 
L 219.819681 90.088695 
L 219.819681 89.493602 
L 220.691328 89.493602 
L 220.691328 83.24513 
L 221.262464 83.24513 
L 221.262464 82.650038 
L 222.104761 82.650038 
L 222.104761 82.352492 
L 222.381787 82.352492 
L 222.381787 78.781936 
L 224.006367 78.781936 
L 224.006367 74.616288 
L 225.57001 74.616288 
L 225.57001 72.831011 
L 226.078459 72.831011 
L 226.078459 71.938372 
L 226.580781 71.938372 
L 226.580781 71.343279 
L 226.829691 71.343279 
L 226.829691 71.045733 
L 227.077124 71.045733 
L 227.077124 70.153094 
L 227.323096 70.153094 
L 227.323096 69.855548 
L 227.810731 69.855548 
L 227.810731 69.260455 
L 228.531653 69.260455 
L 228.531653 67.177632 
L 228.769216 67.177632 
L 228.769216 66.880085 
L 229.70616 66.880085 
L 229.70616 65.6899 
L 229.937143 65.6899 
L 229.937143 64.499715 
L 231.073243 64.499715 
L 231.073243 64.202169 
L 231.296794 64.202169 
L 231.296794 62.714437 
L 232.613502 62.714437 
L 232.613502 59.441428 
L 233.889895 59.441428 
L 233.889895 58.846336 
L 234.924496 58.846336 
L 234.924496 58.54879 
L 235.128371 58.54879 
L 235.128371 57.358604 
L 236.331116 57.358604 
L 236.331116 55.275781 
L 236.528243 55.275781 
L 236.528243 54.085595 
L 237.30756 54.085595 
L 237.30756 53.788049 
L 237.500134 53.788049 
L 237.500134 51.705225 
L 238.637267 51.705225 
L 238.637267 51.407679 
L 239.744206 51.407679 
L 239.744206 49.324855 
L 240.466168 49.324855 
L 240.466168 49.027309 
L 240.644722 49.027309 
L 240.644722 48.432216 
L 240.822515 48.432216 
L 240.822515 46.349392 
L 241.873636 46.349392 
L 241.873636 44.564115 
L 242.898908 44.564115 
L 242.898908 44.266568 
L 243.235137 44.266568 
L 243.235137 43.969022 
L 243.89957 43.969022 
L 243.89957 43.671476 
L 244.064037 43.671476 
L 244.064037 43.373929 
L 244.876777 43.373929 
L 244.876777 41.291106 
L 245.356924 41.291106 
L 245.356924 40.696013 
L 246.145081 40.696013 
L 246.145081 40.398467 
L 246.30094 40.398467 
L 246.30094 40.10092 
L 246.610921 40.10092 
L 246.610921 39.505828 
L 246.765052 39.505828 
L 246.765052 38.910735 
L 247.375939 38.910735 
L 247.375939 38.613189 
L 247.527272 38.613189 
L 247.527272 38.315643 
L 247.678058 38.315643 
L 247.678058 37.125458 
L 249.446193 37.125458 
L 249.446193 36.530365 
L 251.142384 36.530365 
L 251.142384 36.232819 
L 251.965284 36.232819 
L 251.965284 35.34018 
L 252.772256 35.34018 
L 252.772256 34.745087 
L 254.340803 34.745087 
L 254.340803 34.447541 
L 255.103487 34.447541 
L 255.103487 33.852449 
L 256.588236 33.852449 
L 256.588236 33.554902 
L 257.311241 33.554902 
L 257.311241 32.95981 
L 258.720691 32.95981 
L 258.720691 32.364717 
L 262.048969 32.364717 
L 262.048969 32.067171 
L 265.623322 32.067171 
L 265.721076 31.174532 
L 269.275483 31.174532 
L 269.275483 30.876986 
L 270.685927 30.876986 
L 270.685927 30.281893 
L 273.695092 30.281893 
L 273.695092 29.686801 
L 368.30112 29.686801 
L 368.30112 29.686801 
" style="fill:none;stroke:#f5deb3;stroke-linecap:square;stroke-width:6.0;"/>
   </g>
   <g id="line2d_2"/>
   <g id="line2d_3">
    <path d="M 368.30112 29.686801 
L 399.98112 35.161652 
" style="fill:none;stroke:#f5deb3;stroke-linecap:square;stroke-width:6.0;"/>
    <defs>
     <path d="M -0 7.778175 
L 7.778175 0 
L 0 -7.778175 
L -7.778175 -0 
z
" id="md2b9ab79cf" style="stroke:#f5deb3;stroke-linejoin:miter;stroke-width:1.5;"/>
    </defs>
    <g>
     <use style="fill:#f5deb3;stroke:#f5deb3;stroke-linejoin:miter;stroke-width:1.5;" x="368.301120416" xlink:href="#md2b9ab79cf" y="29.6868007426"/>
     <use style="fill:#f5deb3;stroke:#f5deb3;stroke-linejoin:miter;stroke-width:1.5;" x="399.981120416" xlink:href="#md2b9ab79cf" y="35.1616522277"/>
    </g>
   </g>
   <g id="line2d_4">
    <defs>
     <path d="M 0 1.5 
C 0.397805 1.5 0.77937 1.341951 1.06066 1.06066 
C 1.341951 0.77937 1.5 0.397805 1.5 0 
C 1.5 -0.397805 1.341951 -0.77937 1.06066 -1.06066 
C 0.77937 -1.341951 0.397805 -1.5 0 -1.5 
C -0.397805 -1.5 -0.77937 -1.341951 -1.06066 -1.06066 
C -1.341951 -0.77937 -1.5 -0.397805 -1.5 0 
C -1.5 0.397805 -1.341951 0.77937 -1.06066 1.06066 
C -0.77937 1.341951 -0.397805 1.5 0 1.5 
z
" id="m315f915a02" style="stroke:#f5deb3;stroke-width:0.5;"/>
    </defs>
    <g>
     <use style="fill:#f5deb3;stroke:#f5deb3;stroke-width:0.5;" x="273.695092137" xlink:href="#m315f915a02" y="29.6868007426"/>
     <use style="fill:#f5deb3;stroke:#f5deb3;stroke-width:0.5;" x="273.695092137" xlink:href="#m315f915a02" y="29.6868007426"/>
    </g>
   </g>
   <g id="line2d_5">
    <g>
     <use style="fill:#f5deb3;stroke:#f5deb3;stroke-linejoin:miter;stroke-width:1.5;" x="99.8966387512" xlink:href="#md2b9ab79cf" y="265.343451625"/>
     <use style="fill:#f5deb3;stroke:#f5deb3;stroke-linejoin:miter;stroke-width:1.5;" x="147.402240833" xlink:href="#md2b9ab79cf" y="215.653223472"/>
     <use style="fill:#f5deb3;stroke:#f5deb3;stroke-linejoin:miter;stroke-width:1.5;" x="202.620273946" xlink:href="#md2b9ab79cf" y="125.496701733"/>
     <use style="fill:#f5deb3;stroke:#f5deb3;stroke-linejoin:miter;stroke-width:1.5;" x="240.644722311" xlink:href="#md2b9ab79cf" y="48.4322161537"/>
     <use style="fill:#f5deb3;stroke:#f5deb3;stroke-linejoin:miter;stroke-width:1.5;" x="273.695092137" xlink:href="#md2b9ab79cf" y="29.6868007426"/>
     <use style="fill:#f5deb3;stroke:#f5deb3;stroke-linejoin:miter;stroke-width:1.5;" x="368.301120416" xlink:href="#md2b9ab79cf" y="29.6868007426"/>
    </g>
   </g>
   <g id="line2d_6">
    <defs>
     <path d="M 0 1.5 
C 0.397805 1.5 0.77937 1.341951 1.06066 1.06066 
C 1.341951 0.77937 1.5 0.397805 1.5 0 
C 1.5 -0.397805 1.341951 -0.77937 1.06066 -1.06066 
C 0.77937 -1.341951 0.397805 -1.5 0 -1.5 
C -0.397805 -1.5 -0.77937 -1.341951 -1.06066 -1.06066 
C -1.341951 -0.77937 -1.5 -0.397805 -1.5 0 
C -1.5 0.397805 -1.341951 0.77937 -1.06066 1.06066 
C -0.77937 1.341951 -0.397805 1.5 0 1.5 
z
" id="m8a24ad30ba" style="stroke:#000080;stroke-width:0.5;"/>
    </defs>
    <g>
     <use style="fill:#000080;stroke:#000080;stroke-width:0.5;" x="429.793062312" xlink:href="#m8a24ad30ba" y="170.72373574"/>
     <use style="fill:#000080;stroke:#000080;stroke-width:0.5;" x="429.793062312" xlink:href="#m8a24ad30ba" y="170.72373574"/>
    </g>
   </g>
   <g id="line2d_7">
    <path d="M 13.2 303.429375 
L 13.2 300.453912 
L 42.09888 300.453912 
L 42.09888 293.312802 
L 59.00364 293.312802 
L 59.00364 287.361876 
L 70.997759 287.361876 
L 70.997759 283.791321 
L 80.30112 283.791321 
L 80.30112 282.601136 
L 87.90252 282.601136 
L 87.90252 281.113404 
L 94.329412 281.113404 
L 94.329412 279.328127 
L 99.896639 279.328127 
L 99.896639 277.245303 
L 104.807281 277.245303 
L 104.807281 272.187016 
L 109.2 272.187016 
L 109.2 268.318914 
L 113.173698 268.318914 
L 113.173698 266.23609 
L 116.8014 266.23609 
L 116.8014 264.748359 
L 120.138562 264.748359 
L 120.138562 263.85572 
L 126.104761 263.85572 
L 126.104761 261.177804 
L 128.795518 261.177804 
L 128.795518 260.880257 
L 131.323096 260.880257 
L 131.323096 260.285165 
L 133.70616 260.285165 
L 133.70616 259.690072 
L 135.960346 259.690072 
L 135.960346 259.392526 
L 138.09888 259.392526 
L 138.09888 257.607248 
L 142.072577 257.607248 
L 142.072577 255.524425 
L 149.037441 255.524425 
L 149.037441 254.631786 
L 150.610921 254.631786 
L 150.610921 253.739147 
L 152.127171 253.739147 
L 152.127171 252.251415 
L 155.00364 252.251415 
L 155.00364 251.358777 
L 156.370723 251.358777 
L 156.370723 250.466138 
L 157.694398 250.466138 
L 157.694398 249.275953 
L 158.977338 249.275953 
L 158.977338 248.978406 
L 161.430532 248.978406 
L 161.430532 248.085768 
L 164.859225 248.085768 
L 164.859225 247.490675 
L 165.942202 247.490675 
L 165.942202 245.110305 
L 168.02725 245.110305 
L 168.02725 243.622573 
L 170.012972 243.622573 
L 170.012972 243.325027 
L 171.908401 243.325027 
L 171.908401 242.134842 
L 173.721394 242.134842 
L 173.721394 241.53975 
L 174.599159 241.53975 
L 174.599159 240.944657 
L 175.458824 240.944657 
L 175.458824 240.647111 
L 179.509801 240.647111 
L 179.509801 240.052018 
L 180.274818 240.052018 
L 180.274818 239.754472 
L 181.026051 239.754472 
L 181.026051 239.456926 
L 183.201793 239.456926 
L 183.201793 237.076555 
L 184.591664 237.076555 
L 184.591664 236.481463 
L 185.269602 236.481463 
L 185.269602 236.183917 
L 186.593278 236.183917 
L 186.593278 235.588824 
L 187.239682 235.588824 
L 187.239682 234.993731 
L 189.120856 234.993731 
L 189.120856 234.398639 
L 193.205881 234.398639 
L 193.205881 234.101093 
L 193.758105 234.101093 
L 193.758105 233.208454 
L 196.414562 233.208454 
L 196.414562 232.315815 
L 197.431497 232.315815 
L 197.431497 232.018269 
L 198.911851 232.018269 
L 198.911851 231.423176 
L 200.341441 231.423176 
L 200.341441 230.828084 
L 201.267974 230.828084 
L 201.267974 230.232991 
L 206.835201 230.232991 
L 206.835201 229.637898 
L 208.020843 229.637898 
L 208.020843 229.042806 
L 209.551006 229.042806 
L 209.551006 228.74526 
L 209.92493 228.74526 
L 209.92493 228.447713 
L 211.026993 228.447713 
L 211.026993 227.852621 
L 211.745843 227.852621 
L 211.745843 227.555075 
L 212.100673 227.555075 
L 212.100673 226.959982 
L 215.816612 226.959982 
L 215.816612 226.662436 
L 217.712042 226.662436 
L 217.712042 225.769797 
L 220.11226 225.769797 
L 220.11226 225.174704 
L 220.691328 225.174704 
L 220.691328 224.877158 
L 223.739961 224.877158 
L 223.739961 224.579612 
L 226.829691 224.579612 
L 226.829691 223.686973 
L 227.077124 223.686973 
L 227.077124 223.389427 
L 227.323096 223.389427 
L 227.323096 223.09188 
L 229.005434 223.09188 
L 229.005434 222.794334 
L 232.613502 222.794334 
L 232.613502 222.496788 
L 232.828966 222.496788 
L 232.828966 222.199242 
L 233.043323 222.199242 
L 233.043323 221.901695 
L 237.114092 221.901695 
L 237.114092 221.306603 
L 237.500134 221.306603 
L 237.500134 220.71151 
L 242.559944 220.71151 
L 242.559944 220.413964 
L 242.72977 220.413964 
L 242.72977 219.818871 
L 244.064037 219.818871 
L 244.064037 219.521325 
L 245.988637 219.521325 
L 245.988637 218.628686 
L 246.30094 218.628686 
L 246.30094 218.33114 
L 250.444004 218.33114 
L 250.444004 217.736047 
L 250.584619 217.736047 
L 250.584619 217.438501 
L 255.976003 217.438501 
L 255.976003 216.545862 
L 267.066105 216.545862 
L 267.066105 216.248316 
L 268.185427 216.248316 
L 268.185427 215.95077 
L 269.275483 215.95077 
L 269.275483 215.653223 
L 273.126737 215.653223 
L 273.126737 215.355677 
L 274.016421 215.355677 
L 274.016421 215.058131 
L 276.274818 215.058131 
L 276.274818 214.760585 
L 278.489087 214.760585 
L 278.489087 214.463038 
L 280.454744 214.463038 
L 280.454744 214.165492 
L 281.870462 214.165492 
L 281.870462 212.677761 
L 282.723363 212.677761 
L 282.723363 211.785122 
L 283.876218 211.785122 
L 283.876218 211.487576 
L 284.874883 211.487576 
L 284.936512 210.594937 
L 286.030541 210.594937 
L 286.030541 209.999844 
L 286.626155 209.999844 
L 286.626155 209.702298 
L 286.803193 209.702298 
L 286.803193 209.404752 
L 287.096595 209.404752 
L 287.096595 209.107205 
L 288.363585 209.107205 
L 288.42027 207.91702 
L 289.648244 207.91702 
L 289.648244 207.619474 
L 290.248929 207.619474 
L 290.248929 207.321928 
L 291.213574 207.321928 
L 291.213574 206.726835 
L 292.722255 206.726835 
L 292.824317 205.239104 
L 297.904509 205.239104 
L 297.904509 204.941558 
L 300.315138 204.941558 
L 300.315138 204.644011 
L 301.943787 204.644011 
L 301.943787 204.346465 
L 305.475817 204.346465 
L 305.475817 204.048919 
L 307.063231 204.048919 
L 307.063231 203.15628 
L 307.459788 203.15628 
L 307.459788 202.858734 
L 308.13599 202.858734 
L 308.13599 202.263641 
L 309.830891 202.263641 
L 309.932455 201.371002 
L 310.202091 201.371002 
L 310.202091 201.073456 
L 311.361665 201.073456 
L 311.361665 200.77591 
L 312.426206 200.77591 
L 312.426206 200.478363 
L 312.585155 200.478363 
L 312.585155 199.883271 
L 314.779178 199.883271 
L 314.779178 199.585725 
L 315.79031 199.585725 
L 315.79031 198.990632 
L 317.205701 198.990632 
L 317.205701 198.693086 
L 318.793905 198.693086 
L 318.793905 198.097993 
L 320.27108 198.097993 
L 320.27108 197.800447 
L 324.579274 197.800447 
L 324.579274 197.502901 
L 326.758243 197.502901 
L 326.758243 197.205354 
L 328.179203 197.205354 
L 328.179203 196.907808 
L 328.764444 196.907808 
L 328.764444 196.312716 
L 329.489916 196.312716 
L 329.489916 195.12253 
L 330.078028 195.12253 
L 330.078028 194.824984 
L 330.513731 194.824984 
L 330.513731 194.527438 
L 331.513007 194.527438 
L 331.513007 194.229892 
L 332.646073 194.229892 
L 332.646073 193.932345 
L 334.449886 193.932345 
L 334.449886 193.634799 
L 335.009522 193.634799 
L 335.009522 193.337253 
L 336.10675 193.337253 
L 336.10675 193.039706 
L 336.875705 193.039706 
L 336.875705 192.444614 
L 338.252503 192.444614 
L 338.303901 191.849521 
L 339.318773 191.849521 
L 339.318773 191.551975 
L 339.585284 191.551975 
L 339.585284 191.254429 
L 340.586013 191.254429 
L 340.586013 189.469151 
L 344.438696 189.469151 
L 344.438696 189.171605 
L 347.459751 189.171605 
L 347.459751 188.874059 
L 349.341127 188.874059 
L 349.341127 188.576512 
L 354.080602 188.576512 
L 354.080602 187.98142 
L 354.996953 187.98142 
L 355.031357 186.791235 
L 355.122963 186.791235 
L 355.122963 186.493688 
L 355.893595 186.493688 
L 355.893595 186.196142 
L 356.572982 186.196142 
L 356.572982 185.303503 
L 360.592852 185.303503 
L 360.592852 185.005957 
L 361.377928 185.005957 
L 361.377928 184.410864 
L 362.733894 184.410864 
L 362.733894 184.113318 
L 363.470659 184.113318 
L 363.470659 183.815772 
L 366.223983 183.815772 
L 366.32028 183.220679 
L 366.910684 183.220679 
L 366.910684 182.625587 
L 368.100516 182.625587 
L 368.100516 182.328041 
L 368.30112 182.328041 
L 368.30112 182.328041 
" style="fill:none;stroke:#000080;stroke-linecap:square;stroke-width:1.5;"/>
   </g>
   <g id="line2d_8">
    <defs>
     <path d="M 0 6 
C 1.591219 6 3.117479 5.367802 4.242641 4.242641 
C 5.367802 3.117479 6 1.591219 6 0 
C 6 -1.591219 5.367802 -3.117479 4.242641 -4.242641 
C 3.117479 -5.367802 1.591219 -6 0 -6 
C -1.591219 -6 -3.117479 -5.367802 -4.242641 -4.242641 
C -5.367802 -3.117479 -6 -1.591219 -6 0 
C -6 1.591219 -5.367802 3.117479 -4.242641 4.242641 
C -3.117479 5.367802 -1.591219 6 0 6 
z
" id="mbe6169618e" style="stroke:#000080;stroke-width:1.5;"/>
    </defs>
    <g>
     <use style="fill:none;stroke:#000080;stroke-width:1.5;" x="13.2" xlink:href="#mbe6169618e" y="300.453912236"/>
     <use style="fill:none;stroke:#000080;stroke-width:1.5;" x="116.801399621" xlink:href="#mbe6169618e" y="266.236090454"/>
     <use style="fill:none;stroke:#000080;stroke-width:1.5;" x="173.721394362" xlink:href="#mbe6169618e" y="242.134842068"/>
     <use style="fill:none;stroke:#000080;stroke-width:1.5;" x="242.729770282" xlink:href="#mbe6169618e" y="219.818871341"/>
     <use style="fill:none;stroke:#000080;stroke-width:1.5;" x="340.586012568" xlink:href="#mbe6169618e" y="191.25442881"/>
     <use style="fill:none;stroke:#000080;stroke-width:1.5;" x="368.301120416" xlink:href="#mbe6169618e" y="182.328040519"/>
    </g>
   </g>
   <g id="line2d_9"/>
   <g id="line2d_10">
    <path clip-path="url(#p1569024941)" d="M 279.971949 214.463038 
" style="fill:none;stroke:#000080;stroke-linecap:square;"/>
    <defs>
     <path d="M -12 12 
L 12 -12 
M -12 -12 
L 12 12 
" id="mf03b2203e1" style="stroke:#000080;stroke-width:3.0;"/>
    </defs>
    <g clip-path="url(#p1569024941)">
     <use style="fill:#000080;stroke:#000080;stroke-width:3.0;" x="279.971949312" xlink:href="#mf03b2203e1" y="214.463038366"/>
    </g>
   </g>
   <g id="line2d_11">
    <defs>
     <path d="M 0 1.5 
C 0.397805 1.5 0.77937 1.341951 1.06066 1.06066 
C 1.341951 0.77937 1.5 0.397805 1.5 0 
C 1.5 -0.397805 1.341951 -0.77937 1.06066 -1.06066 
C 0.77937 -1.341951 0.397805 -1.5 0 -1.5 
C -0.397805 -1.5 -0.77937 -1.341951 -1.06066 -1.06066 
C -1.341951 -0.77937 -1.5 -0.397805 -1.5 0 
C -1.5 0.397805 -1.341951 0.77937 -1.06066 1.06066 
C -0.77937 1.341951 -0.397805 1.5 0 1.5 
z
" id="m17158df609" style="stroke:#ff00ff;stroke-width:0.5;"/>
    </defs>
    <g>
     <use style="fill:#ff00ff;stroke:#ff00ff;stroke-width:0.5;" x="436.095212268" xlink:href="#m17158df609" y="176.674661268"/>
     <use style="fill:#ff00ff;stroke:#ff00ff;stroke-width:0.5;" x="436.095212268" xlink:href="#m17158df609" y="176.674661268"/>
    </g>
   </g>
   <g id="line2d_12">
    <path d="M 13.2 303.429375 
L 13.2 293.312802 
L 42.09888 293.312802 
L 42.09888 291.527524 
L 59.00364 291.527524 
L 59.00364 288.254515 
L 70.997759 288.254515 
L 70.997759 284.386413 
L 80.30112 284.386413 
L 80.30112 281.410951 
L 87.90252 281.410951 
L 87.90252 279.03058 
L 94.329412 279.03058 
L 94.329412 277.840395 
L 99.896639 277.840395 
L 99.896639 274.567386 
L 104.807281 274.567386 
L 104.807281 273.674747 
L 109.2 273.674747 
L 109.2 272.484562 
L 113.173698 272.484562 
L 113.173698 271.88947 
L 116.8014 271.88947 
L 116.8014 266.23609 
L 120.138562 266.23609 
L 120.138562 265.938544 
L 126.104761 265.938544 
L 126.104761 264.748359 
L 128.795518 264.748359 
L 128.795518 264.450813 
L 131.323096 264.450813 
L 131.323096 262.963081 
L 135.960346 262.963081 
L 135.960346 262.070443 
L 138.09888 262.070443 
L 138.09888 260.285165 
L 140.133052 260.285165 
L 140.133052 257.309702 
L 142.072577 257.309702 
L 142.072577 254.036693 
L 145.700279 254.036693 
L 145.700279 253.441601 
L 147.402241 253.441601 
L 147.402241 253.144054 
L 149.037441 253.144054 
L 149.037441 252.846508 
L 150.610921 252.846508 
L 150.610921 252.548962 
L 152.127171 252.548962 
L 152.127171 252.251415 
L 153.590208 252.251415 
L 153.590208 251.358777 
L 156.370723 251.358777 
L 156.370723 250.168592 
L 161.430532 250.168592 
L 161.430532 248.383314 
L 162.60504 248.383314 
L 162.60504 247.788221 
L 164.859225 247.788221 
L 164.859225 247.490675 
L 165.942202 247.490675 
L 165.942202 245.705397 
L 166.997759 245.705397 
L 166.997759 244.812759 
L 168.02725 244.812759 
L 168.02725 244.515212 
L 170.012972 244.515212 
L 170.012972 243.92012 
L 171.908401 243.92012 
L 171.908401 242.729935 
L 173.721394 242.729935 
L 173.721394 241.837296 
L 174.599159 241.837296 
L 174.599159 240.349564 
L 175.458824 240.349564 
L 175.458824 239.754472 
L 177.126737 239.754472 
L 177.126737 239.159379 
L 177.936321 239.159379 
L 177.936321 238.861833 
L 180.274818 238.861833 
L 180.274818 238.26674 
L 182.489087 238.26674 
L 182.489087 237.969194 
L 183.201793 237.969194 
L 183.201793 237.374102 
L 185.269602 237.374102 
L 185.269602 236.481463 
L 186.593278 236.481463 
L 186.593278 236.183917 
L 187.876218 236.183917 
L 187.876218 235.88637 
L 189.120856 235.88637 
L 189.120856 234.398639 
L 189.729513 234.398639 
L 189.729513 234.101093 
L 194.30311 234.101093 
L 194.30311 233.803546 
L 195.896639 233.803546 
L 195.896639 233.506 
L 196.414562 233.506 
L 196.414562 232.613361 
L 197.431497 232.613361 
L 197.431497 231.720722 
L 202.174363 231.720722 
L 202.174363 231.12563 
L 203.930086 231.12563 
L 203.930086 230.232991 
L 204.357703 230.232991 
L 204.357703 229.935445 
L 205.614852 229.935445 
L 205.614852 229.042806 
L 206.432374 229.042806 
L 206.432374 228.74526 
L 209.92493 228.74526 
L 209.92493 228.150167 
L 210.295531 228.150167 
L 210.295531 227.257528 
L 213.147396 227.257528 
L 213.147396 225.769797 
L 213.490544 225.769797 
L 213.490544 225.472251 
L 215.492157 225.472251 
L 215.492157 225.174704 
L 216.775097 225.174704 
L 216.775097 224.877158 
L 217.712042 224.877158 
L 217.712042 224.579612 
L 220.11226 224.579612 
L 220.11226 224.282065 
L 221.545125 224.282065 
L 221.545125 223.984519 
L 221.825882 223.984519 
L 221.825882 223.686973 
L 225.57001 223.686973 
L 225.57001 223.09188 
L 226.330376 223.09188 
L 226.330376 222.496788 
L 226.829691 222.496788 
L 226.829691 221.901695 
L 227.567627 221.901695 
L 227.567627 221.306603 
L 228.292728 221.306603 
L 228.292728 221.009056 
L 229.473891 221.009056 
L 229.473891 220.71151 
L 230.622511 220.71151 
L 230.622511 220.116418 
L 232.613502 220.116418 
L 232.613502 219.818871 
L 245.037441 219.818871 
L 245.037441 218.926233 
L 252.100869 218.926233 
L 252.100869 218.033594 
L 263.10186 218.033594 
L 263.10186 217.736047 
L 269.095775 217.736047 
L 269.095775 217.140955 
L 271.797787 217.140955 
L 271.797787 215.95077 
L 279.413251 215.95077 
L 279.413251 215.058131 
L 279.90252 215.058131 
L 279.90252 214.760585 
L 280.52326 214.760585 
L 280.52326 213.867946 
L 280.796206 213.867946 
L 280.796206 213.5704 
L 281.470852 213.5704 
L 281.470852 213.272853 
L 281.737684 213.272853 
L 281.737684 212.677761 
L 282.331883 212.677761 
L 282.331883 212.380214 
L 282.788253 212.380214 
L 282.788253 212.082668 
L 282.917733 212.082668 
L 282.917733 211.785122 
L 283.239682 211.785122 
L 283.239682 211.487576 
L 283.495464 211.487576 
L 283.495464 211.190029 
L 283.622769 211.190029 
L 283.622769 210.594937 
L 284.565362 210.594937 
L 284.565362 209.999844 
L 285.487115 209.999844 
L 285.487115 209.702298 
L 285.669045 209.702298 
L 285.669045 209.107205 
L 286.862039 209.107205 
L 286.920801 206.726835 
L 287.50392 206.726835 
L 287.50392 206.131743 
L 287.677277 206.131743 
L 287.677277 205.834196 
L 289.427649 205.834196 
L 289.538092 204.941558 
L 289.70321 204.941558 
L 289.70321 204.346465 
L 304.485817 204.346465 
L 304.485817 204.048919 
L 306.735946 204.048919 
L 306.735946 203.751372 
L 307.20787 203.751372 
L 307.20787 203.453826 
L 308.13599 203.453826 
L 308.13599 203.15628 
L 308.382378 203.15628 
L 308.382378 202.858734 
L 308.697038 202.858734 
L 308.697038 201.966095 
L 309.181838 201.966095 
L 309.181838 201.668548 
L 309.319323 201.668548 
L 309.319323 201.371002 
L 310.168482 201.371002 
L 310.168482 201.073456 
L 310.503361 201.073456 
L 310.503361 200.478363 
L 311.78428 200.478363 
L 311.78428 200.180817 
L 312.234664 200.180817 
L 312.234664 199.883271 
L 312.426206 199.883271 
L 312.426206 199.585725 
L 324.981872 199.585725 
L 324.981872 199.288178 
L 325.77559 199.288178 
L 325.77559 198.693086 
L 325.983187 198.693086 
L 325.983187 198.395539 
L 326.304074 198.395539 
L 326.304074 198.097993 
L 327.005943 198.097993 
L 327.005943 197.502901 
L 327.62989 197.502901 
L 327.62989 196.907808 
L 327.87248 196.907808 
L 327.87248 196.610262 
L 336.484058 196.610262 
L 336.484058 196.312716 
L 337.543639 196.312716 
L 337.543639 195.717623 
L 337.942778 195.717623 
L 337.977305 194.824984 
L 338.474771 194.824984 
L 338.474771 194.527438 
L 338.814425 194.527438 
L 338.814425 194.229892 
L 338.966371 194.229892 
L 338.966371 193.932345 
L 339.134553 193.932345 
L 339.184875 193.337253 
L 346.232189 193.337253 
L 346.33117 192.444614 
L 346.458087 192.444614 
L 346.458087 192.147068 
L 346.710768 192.147068 
L 346.710768 191.849521 
L 346.836537 191.849521 
L 346.836537 191.551975 
L 347.031426 191.551975 
L 347.031426 191.254429 
L 347.459751 191.254429 
L 347.459751 190.956883 
L 355.168691 190.956883 
L 355.180115 190.064244 
L 355.328344 190.064244 
L 355.328344 189.766697 
L 360.40181 189.766697 
L 360.40181 189.469151 
L 360.81297 189.469151 
L 360.832923 188.874059 
L 361.397613 188.874059 
L 361.397613 188.278966 
L 361.535146 188.278966 
L 361.535146 187.386327 
L 365.801154 187.386327 
L 365.801154 187.088781 
L 366.302788 187.088781 
L 366.32028 186.493688 
L 366.573093 186.493688 
L 366.573093 186.196142 
L 366.815742 186.196142 
L 366.815742 185.898596 
L 368.30112 185.898596 
L 368.30112 185.898596 
" style="fill:none;stroke:#ff00ff;stroke-linecap:square;stroke-width:1.5;"/>
   </g>
   <g id="line2d_13">
    <defs>
     <path d="M -0 8.485281 
L 5.091169 0 
L 0 -8.485281 
L -5.091169 -0 
z
" id="mb7e4f11438" style="stroke:#ff00ff;stroke-linejoin:miter;stroke-width:1.5;"/>
    </defs>
    <g>
     <use style="fill:none;stroke:#ff00ff;stroke-linejoin:miter;stroke-width:1.5;" x="59.0036404531" xlink:href="#mb7e4f11438" y="288.254514905"/>
     <use style="fill:none;stroke:#ff00ff;stroke-linejoin:miter;stroke-width:1.5;" x="140.133052294" xlink:href="#mb7e4f11438" y="260.285164927"/>
     <use style="fill:none;stroke:#ff00ff;stroke-linejoin:miter;stroke-width:1.5;" x="205.614851883" xlink:href="#mb7e4f11438" y="229.042805908"/>
     <use style="fill:none;stroke:#ff00ff;stroke-linejoin:miter;stroke-width:1.5;" x="289.703210486" xlink:href="#mb7e4f11438" y="204.34646497"/>
     <use style="fill:none;stroke:#ff00ff;stroke-linejoin:miter;stroke-width:1.5;" x="346.710768309" xlink:href="#mb7e4f11438" y="191.849521362"/>
     <use style="fill:none;stroke:#ff00ff;stroke-linejoin:miter;stroke-width:1.5;" x="368.301120416" xlink:href="#mb7e4f11438" y="185.898595835"/>
    </g>
   </g>
   <g id="line2d_14"/>
   <g id="line2d_15">
    <path clip-path="url(#p1569024941)" d="M 279.060223 215.95077 
" style="fill:none;stroke:#ff00ff;stroke-linecap:square;"/>
    <defs>
     <path d="M -12 12 
L 12 -12 
M -12 -12 
L 12 12 
" id="m6d5b6ac7e1" style="stroke:#ff00ff;stroke-width:3.0;"/>
    </defs>
    <g clip-path="url(#p1569024941)">
     <use style="fill:#ff00ff;stroke:#ff00ff;stroke-width:3.0;" x="279.060223303" xlink:href="#m6d5b6ac7e1" y="215.950769748"/>
    </g>
   </g>
   <g id="line2d_16">
    <defs>
     <path d="M 0 1.5 
C 0.397805 1.5 0.77937 1.341951 1.06066 1.06066 
C 1.341951 0.77937 1.5 0.397805 1.5 0 
C 1.5 -0.397805 1.341951 -0.77937 1.06066 -1.06066 
C 0.77937 -1.341951 0.397805 -1.5 0 -1.5 
C -0.397805 -1.5 -0.77937 -1.341951 -1.06066 -1.06066 
C -1.341951 -0.77937 -1.5 -0.397805 -1.5 0 
C -1.5 0.397805 -1.341951 0.77937 -1.06066 1.06066 
C -0.77937 1.341951 -0.397805 1.5 0 1.5 
z
" id="mfc3d855946" style="stroke:#ffa500;stroke-width:0.5;"/>
    </defs>
    <g>
     <use style="fill:#ffa500;stroke:#ffa500;stroke-width:0.5;" x="409.650229651" xlink:href="#mfc3d855946" y="172.509013399"/>
     <use style="fill:#ffa500;stroke:#ffa500;stroke-width:0.5;" x="409.650229651" xlink:href="#mfc3d855946" y="172.509013399"/>
    </g>
   </g>
   <g id="line2d_17">
    <path d="M 13.2 303.429375 
L 13.2 297.775996 
L 42.09888 297.775996 
L 42.09888 295.098079 
L 59.00364 295.098079 
L 59.00364 290.039793 
L 70.997759 290.039793 
L 70.997759 287.361876 
L 80.30112 287.361876 
L 80.30112 284.088867 
L 87.90252 284.088867 
L 87.90252 282.303589 
L 94.329412 282.303589 
L 94.329412 277.840395 
L 99.896639 277.840395 
L 99.896639 276.947756 
L 104.807281 276.947756 
L 104.807281 274.864932 
L 109.2 274.864932 
L 109.2 273.377201 
L 113.173698 273.377201 
L 113.173698 271.294377 
L 116.8014 271.294377 
L 116.8014 270.699285 
L 120.138562 270.699285 
L 120.138562 269.211553 
L 126.104761 269.211553 
L 126.104761 267.426276 
L 128.795518 267.426276 
L 128.795518 265.343452 
L 131.323096 265.343452 
L 131.323096 261.47535 
L 133.70616 261.47535 
L 133.70616 259.09498 
L 135.960346 259.09498 
L 135.960346 256.417063 
L 138.09888 256.417063 
L 138.09888 255.821971 
L 140.133052 255.821971 
L 140.133052 255.226878 
L 142.072577 255.226878 
L 142.072577 252.548962 
L 145.700279 252.548962 
L 145.700279 251.953869 
L 152.127171 251.953869 
L 152.127171 251.06123 
L 153.590208 251.06123 
L 153.590208 249.573499 
L 156.370723 249.573499 
L 156.370723 248.085768 
L 158.977338 248.085768 
L 158.977338 247.490675 
L 160.221976 247.490675 
L 160.221976 247.193129 
L 162.60504 247.193129 
L 162.60504 246.002944 
L 163.747366 246.002944 
L 163.747366 244.217666 
L 165.942202 244.217666 
L 165.942202 241.837296 
L 168.02725 241.837296 
L 168.02725 241.53975 
L 170.012972 241.53975 
L 170.012972 240.944657 
L 171.908401 240.944657 
L 171.908401 238.861833 
L 172.824752 238.861833 
L 172.824752 238.564287 
L 174.599159 238.564287 
L 174.599159 237.671648 
L 175.458824 237.671648 
L 175.458824 236.779009 
L 178.730483 236.779009 
L 178.730483 236.183917 
L 180.274818 236.183917 
L 180.274818 235.88637 
L 184.591664 235.88637 
L 184.591664 234.993731 
L 186.593278 234.993731 
L 186.593278 233.803546 
L 192.646245 233.803546 
L 192.646245 233.506 
L 193.758105 233.506 
L 193.758105 233.208454 
L 197.431497 233.208454 
L 197.431497 231.423176 
L 198.911851 231.423176 
L 198.911851 230.530537 
L 199.393848 230.530537 
L 199.393848 229.637898 
L 203.930086 229.637898 
L 203.930086 229.042806 
L 204.357703 229.042806 
L 204.357703 228.150167 
L 204.780979 228.150167 
L 204.780979 227.852621 
L 207.629363 227.852621 
L 207.629363 227.555075 
L 209.173698 227.555075 
L 209.173698 227.257528 
L 211.387967 227.257528 
L 211.387967 226.959982 
L 213.147396 226.959982 
L 213.147396 226.662436 
L 218.019735 226.662436 
L 218.019735 226.364889 
L 219.819681 226.364889 
L 219.819681 226.067343 
L 220.11226 226.067343 
L 220.11226 224.877158 
L 220.402799 224.877158 
L 220.402799 224.579612 
L 220.977874 224.579612 
L 220.977874 223.984519 
L 224.534124 223.984519 
L 224.534124 223.686973 
L 229.005434 223.686973 
L 229.005434 223.09188 
L 230.848486 223.09188 
L 230.848486 222.794334 
L 231.519154 222.794334 
L 231.519154 221.901695 
L 231.740333 221.901695 
L 231.740333 221.604149 
L 232.179203 221.604149 
L 232.179203 220.116418 
L 233.256583 220.116418 
L 233.256583 219.521325 
L 233.889895 219.521325 
L 233.889895 219.223779 
L 241.351388 219.223779 
L 241.351388 218.926233 
L 244.715492 218.926233 
L 244.715492 218.628686 
L 247.071614 218.628686 
L 247.071614 218.33114 
L 247.978004 218.33114 
L 247.978004 218.033594 
L 249.446193 218.033594 
L 249.446193 217.736047 
L 252.905246 217.736047 
L 252.905246 217.438501 
L 254.083442 217.438501 
L 254.083442 216.843409 
L 255.85247 216.843409 
L 255.85247 216.545862 
L 257.07163 216.545862 
L 257.07163 216.248316 
L 257.786372 216.248316 
L 257.786372 215.95077 
L 259.634531 215.95077 
L 259.634531 215.653223 
L 260.195674 215.653223 
L 260.195674 214.463038 
L 260.749364 214.463038 
L 260.749364 213.5704 
L 261.512381 213.5704 
L 261.512381 213.272853 
L 261.727846 213.272853 
L 261.727846 212.975307 
L 262.155462 212.975307 
L 262.261685 212.082668 
L 263.925438 212.082668 
L 263.925438 211.785122 
L 264.832923 211.785122 
L 264.832923 210.892483 
L 265.427122 210.892483 
L 265.427122 210.594937 
L 266.012972 210.594937 
L 266.012972 209.702298 
L 266.399014 209.702298 
L 266.399014 209.107205 
L 266.781515 209.107205 
L 266.876594 207.91702 
L 266.971457 207.91702 
L 266.971457 207.321928 
L 267.160538 207.321928 
L 267.254758 206.429289 
L 267.815649 206.429289 
L 267.815649 206.131743 
L 269.095775 206.131743 
L 269.095775 205.834196 
L 269.275483 205.834196 
L 269.275483 205.53665 
L 269.543602 205.53665 
L 269.543602 205.239104 
L 270.250267 205.239104 
L 270.250267 204.644011 
L 270.945155 204.644011 
L 270.945155 204.346465 
L 271.62865 204.346465 
L 271.62865 204.048919 
L 272.962916 204.048919 
L 272.962916 203.751372 
L 273.452459 203.751372 
L 273.452459 203.453826 
L 274.572857 203.453826 
L 274.572857 203.15628 
L 274.809074 203.15628 
L 274.809074 202.858734 
L 275.663932 202.858734 
L 275.663932 202.561187 
L 276.426151 202.561187 
L 276.426151 201.371002 
L 276.72718 201.371002 
L 276.72718 201.073456 
L 277.174686 201.073456 
L 277.174686 200.77591 
L 277.396651 200.77591 
L 277.396651 200.478363 
L 278.200558 200.478363 
L 278.200558 200.180817 
L 278.632607 200.180817 
L 278.632607 199.585725 
L 279.90252 199.585725 
L 279.90252 198.693086 
L 281.537721 198.693086 
L 281.537721 198.395539 
L 282.331883 198.395539 
L 282.331883 197.800447 
L 282.658371 197.800447 
L 282.723363 197.205354 
L 283.813 197.205354 
L 283.813 196.907808 
L 284.62745 196.907808 
L 284.62745 196.610262 
L 285.059498 196.610262 
L 285.059498 196.312716 
L 285.365386 196.312716 
L 285.365386 196.015169 
L 286.862039 196.015169 
L 286.862039 195.717623 
L 287.155028 195.717623 
L 287.155028 195.420077 
L 288.363585 195.420077 
L 288.363585 195.12253 
L 292.208164 195.12253 
L 292.208164 194.824984 
L 292.619943 194.824984 
L 292.619943 194.527438 
L 293.531839 194.527438 
L 293.531839 194.229892 
L 293.881148 194.229892 
L 293.881148 193.932345 
L 294.424217 193.932345 
L 294.424217 193.634799 
L 295.393848 193.634799 
L 295.393848 193.337253 
L 295.585098 193.337253 
L 295.585098 193.039706 
L 295.822932 193.039706 
L 295.917687 192.444614 
L 296.153637 192.444614 
L 296.153637 192.147068 
L 297.038264 192.147068 
L 297.038264 191.849521 
L 297.814168 191.849521 
L 297.814168 191.551975 
L 298.575897 191.551975 
L 298.575897 191.254429 
L 299.757804 191.254429 
L 299.757804 190.956883 
L 300.357703 190.956883 
L 300.357703 190.659336 
L 300.612184 190.659336 
L 300.696667 190.064244 
L 300.823071 190.064244 
L 300.823071 189.766697 
L 302.915301 189.766697 
L 302.915301 189.469151 
L 303.194447 189.469151 
L 303.194447 189.171605 
L 304.253978 189.171605 
L 304.331401 188.278966 
L 305.173698 188.278966 
L 305.173698 187.98142 
L 305.58855 187.98142 
L 305.58855 187.683873 
L 306.772438 187.683873 
L 306.772438 187.386327 
L 307.674513 187.386327 
L 307.674513 187.088781 
L 309.147396 187.088781 
L 309.147396 186.791235 
L 309.59294 186.791235 
L 309.59294 186.493688 
L 310.469994 186.493688 
L 310.469994 186.196142 
L 312.01008 186.196142 
L 312.01008 185.898596 
L 313.742914 185.898596 
L 313.742914 185.60105 
L 314.385995 185.60105 
L 314.385995 185.303503 
L 314.537658 185.303503 
L 314.537658 185.005957 
L 315.966227 185.005957 
L 316.053908 184.410864 
L 317.937657 184.410864 
L 317.993433 183.815772 
L 318.298872 183.815772 
L 318.298872 183.518226 
L 318.903119 183.518226 
L 318.903119 183.220679 
L 319.55246 183.220679 
L 319.55246 182.923133 
L 319.820062 182.923133 
L 319.846728 182.328041 
L 320.191843 182.328041 
L 320.191843 182.030494 
L 324.17275 182.030494 
L 324.17275 181.732948 
L 326.304074 181.732948 
L 326.304074 181.435402 
L 326.599846 181.435402 
L 326.599846 181.137855 
L 327.916436 181.137855 
L 327.916436 180.840309 
L 330.182181 180.840309 
L 330.182181 180.542763 
L 330.493087 180.542763 
L 330.493087 180.245217 
L 331.834182 180.245217 
L 331.834182 179.94767 
L 332.073449 179.94767 
L 332.073449 179.650124 
L 333.557734 179.650124 
L 333.557734 179.352578 
L 336.196896 179.352578 
L 336.196896 179.055031 
L 338.132327 179.055031 
L 338.132327 178.757485 
L 343.163145 178.757485 
L 343.163145 178.459939 
L 346.948014 178.459939 
L 346.948014 178.162393 
L 349.7855 178.162393 
L 349.7855 177.864846 
L 350.057619 177.864846 
L 350.057619 177.5673 
L 351.641621 177.5673 
L 351.641621 177.269754 
L 351.951326 177.269754 
L 351.951326 176.972208 
L 352.123761 176.972208 
L 352.123761 176.674661 
L 354.996953 176.674661 
L 354.996953 176.377115 
L 355.837414 176.377115 
L 355.837414 176.079569 
L 358.841119 176.079569 
L 358.841119 175.782022 
L 360.972329 175.782022 
L 360.972329 175.484476 
L 361.259624 175.484476 
L 361.259624 175.18693 
L 366.807101 175.18693 
L 366.807101 174.889384 
L 367.620175 174.889384 
L 367.620175 174.591837 
L 367.747118 174.591837 
L 367.747118 174.294291 
L 368.30112 174.294291 
L 368.30112 174.294291 
" style="fill:none;stroke:#ffa500;stroke-linecap:square;stroke-width:1.5;"/>
   </g>
   <g id="line2d_18">
    <defs>
     <path d="M 0 -6 
L -1.347084 -1.854102 
L -5.706339 -1.854102 
L -2.179628 0.708204 
L -3.526712 4.854102 
L -0 2.291796 
L 3.526712 4.854102 
L 2.179628 0.708204 
L 5.706339 -1.854102 
L 1.347084 -1.854102 
z
" id="mf0b076cea2" style="stroke:#ffa500;stroke-linejoin:bevel;stroke-width:1.5;"/>
    </defs>
    <g>
     <use style="fill:none;stroke:#ffa500;stroke-linejoin:bevel;stroke-width:1.5;" x="94.3294118414" xlink:href="#mf0b076cea2" y="282.303589378"/>
     <use style="fill:none;stroke:#ffa500;stroke-linejoin:bevel;stroke-width:1.5;" x="170.012971736" xlink:href="#mf0b076cea2" y="241.539749516"/>
     <use style="fill:none;stroke:#ffa500;stroke-linejoin:bevel;stroke-width:1.5;" x="241.351387877" xlink:href="#mf0b076cea2" y="218.926232512"/>
     <use style="fill:none;stroke:#ffa500;stroke-linejoin:bevel;stroke-width:1.5;" x="314.537658265" xlink:href="#mf0b076cea2" y="185.303503282"/>
     <use style="fill:none;stroke:#ffa500;stroke-linejoin:bevel;stroke-width:1.5;" x="367.747117935" xlink:href="#mf0b076cea2" y="174.294291057"/>
     <use style="fill:none;stroke:#ffa500;stroke-linejoin:bevel;stroke-width:1.5;" x="368.301120416" xlink:href="#mf0b076cea2" y="174.294291057"/>
    </g>
   </g>
   <g id="line2d_19"/>
   <g id="line2d_20">
    <path clip-path="url(#p1569024941)" d="M 243.402241 218.926233 
" style="fill:none;stroke:#ffa500;stroke-linecap:square;"/>
    <defs>
     <path d="M -12 12 
L 12 -12 
M -12 -12 
L 12 12 
" id="m45cb6a2917" style="stroke:#ffa500;stroke-width:3.0;"/>
    </defs>
    <g clip-path="url(#p1569024941)">
     <use style="fill:#ffa500;stroke:#ffa500;stroke-width:3.0;" x="243.402240833" xlink:href="#m45cb6a2917" y="218.926232512"/>
    </g>
   </g>
   <g id="line2d_21">
    <path d="M 368.30112 185.898596 
L 399.98112 297.954524 
" style="fill:none;stroke:#ff00ff;stroke-linecap:square;stroke-width:1.5;"/>
    <g>
     <use style="fill:none;stroke:#ff00ff;stroke-linejoin:miter;stroke-width:1.5;" x="368.301120416" xlink:href="#mb7e4f11438" y="185.898595835"/>
     <use style="fill:none;stroke:#ff00ff;stroke-linejoin:miter;stroke-width:1.5;" x="399.981120416" xlink:href="#mb7e4f11438" y="297.954523515"/>
    </g>
   </g>
   <g id="line2d_22">
    <path d="M 368.30112 182.328041 
L 399.98112 210.3569 
" style="fill:none;stroke:#000080;stroke-linecap:square;stroke-width:1.5;"/>
    <g>
     <use style="fill:none;stroke:#000080;stroke-width:1.5;" x="368.301120416" xlink:href="#mbe6169618e" y="182.328040519"/>
     <use style="fill:none;stroke:#000080;stroke-width:1.5;" x="399.981120416" xlink:href="#mbe6169618e" y="210.356899752"/>
    </g>
   </g>
   <g id="line2d_23">
    <path d="M 368.30112 174.294291 
L 399.98112 122.759276 
" style="fill:none;stroke:#ffa500;stroke-linecap:square;stroke-width:1.5;"/>
    <g>
     <use style="fill:none;stroke:#ffa500;stroke-linejoin:bevel;stroke-width:1.5;" x="368.301120416" xlink:href="#mf0b076cea2" y="174.294291057"/>
     <use style="fill:none;stroke:#ffa500;stroke-linejoin:bevel;stroke-width:1.5;" x="399.981120416" xlink:href="#mf0b076cea2" y="122.75927599"/>
    </g>
   </g>
   <g id="line2d_24">
    <path d="M 368.30112 303.429375 
L 368.30112 29.686801 
" style="fill:none;stroke:#000000;stroke-linecap:square;"/>
   </g>
   <g id="patch_3">
    <path d="M 80.30112 26.949375 
L 437.42112 26.949375 
" style="fill:none;stroke:#000000;stroke-linecap:square;stroke-linejoin:miter;"/>
   </g>
   <g id="patch_4">
    <path d="M 437.42112 303.429375 
L 437.42112 26.949375 
" style="fill:none;stroke:#000000;stroke-linecap:square;stroke-linejoin:miter;"/>
   </g>
   <g id="patch_5">
    <path d="M 80.30112 303.429375 
L 437.42112 303.429375 
" style="fill:none;stroke:#000000;stroke-linecap:square;stroke-linejoin:miter;"/>
   </g>
   <g id="patch_6">
    <path d="M 80.30112 303.429375 
L 80.30112 26.949375 
" style="fill:none;stroke:#000000;stroke-linecap:square;stroke-linejoin:miter;"/>
   </g>
   <g id="matplotlib.axis_1">
    <g id="xtick_1">
     <g id="line2d_25">
      <path clip-path="url(#p1569024941)" d="M 80.30112 303.429375 
L 80.30112 26.949375 
" style="fill:none;stroke:#000000;stroke-dasharray:1.000000,3.000000;stroke-dashoffset:0.0;stroke-width:0.5;"/>
     </g>
     <g id="line2d_26">
      <defs>
       <path d="M 0 0 
L 0 -4 
" id="mbeebb9bf31" style="stroke:#000000;stroke-width:0.5;"/>
      </defs>
      <g>
       <use style="stroke:#000000;stroke-width:0.5;" x="80.3011204163" xlink:href="#mbeebb9bf31" y="303.429375"/>
      </g>
     </g>
     <g id="line2d_27">
      <defs>
       <path d="M 0 0 
L 0 4 
" id="md5f1ab173b" style="stroke:#000000;stroke-width:0.5;"/>
      </defs>
      <g>
       <use style="stroke:#000000;stroke-width:0.5;" x="80.3011204163" xlink:href="#md5f1ab173b" y="26.949375"/>
      </g>
     </g>
     <g id="text_1">
      <!-- 0 -->
      <defs>
       <path d="M 31.78125 66.40625 
Q 24.171875 66.40625 20.328125 58.90625 
Q 16.5 51.421875 16.5 36.375 
Q 16.5 21.390625 20.328125 13.890625 
Q 24.171875 6.390625 31.78125 6.390625 
Q 39.453125 6.390625 43.28125 13.890625 
Q 47.125 21.390625 47.125 36.375 
Q 47.125 51.421875 43.28125 58.90625 
Q 39.453125 66.40625 31.78125 66.40625 
M 31.78125 74.21875 
Q 44.046875 74.21875 50.515625 64.515625 
Q 56.984375 54.828125 56.984375 36.375 
Q 56.984375 17.96875 50.515625 8.265625 
Q 44.046875 -1.421875 31.78125 -1.421875 
Q 19.53125 -1.421875 13.0625 8.265625 
Q 6.59375 17.96875 6.59375 36.375 
Q 6.59375 54.828125 13.0625 64.515625 
Q 19.53125 74.21875 31.78125 74.21875 
" id="BitstreamVeraSans-Roman-30"/>
      </defs>
      <g transform="translate(73.9386204163 322.62625)scale(0.2 -0.2)">
       <use xlink:href="#BitstreamVeraSans-Roman-30"/>
      </g>
     </g>
    </g>
    <g id="xtick_2">
     <g id="line2d_28">
      <path clip-path="url(#p1569024941)" d="M 176.30112 303.429375 
L 176.30112 26.949375 
" style="fill:none;stroke:#000000;stroke-dasharray:1.000000,3.000000;stroke-dashoffset:0.0;stroke-width:0.5;"/>
     </g>
     <g id="line2d_29">
      <g>
       <use style="stroke:#000000;stroke-width:0.5;" x="176.301120416" xlink:href="#mbeebb9bf31" y="303.429375"/>
      </g>
     </g>
     <g id="line2d_30">
      <g>
       <use style="stroke:#000000;stroke-width:0.5;" x="176.301120416" xlink:href="#md5f1ab173b" y="26.949375"/>
      </g>
     </g>
     <g id="text_2">
      <!-- 1 -->
      <defs>
       <path d="M 12.40625 8.296875 
L 28.515625 8.296875 
L 28.515625 63.921875 
L 10.984375 60.40625 
L 10.984375 69.390625 
L 28.421875 72.90625 
L 38.28125 72.90625 
L 38.28125 8.296875 
L 54.390625 8.296875 
L 54.390625 0 
L 12.40625 0 
z
" id="BitstreamVeraSans-Roman-31"/>
      </defs>
      <g transform="translate(169.938620416 322.62625)scale(0.2 -0.2)">
       <use xlink:href="#BitstreamVeraSans-Roman-31"/>
      </g>
     </g>
    </g>
    <g id="xtick_3">
     <g id="line2d_31">
      <path clip-path="url(#p1569024941)" d="M 272.30112 303.429375 
L 272.30112 26.949375 
" style="fill:none;stroke:#000000;stroke-dasharray:1.000000,3.000000;stroke-dashoffset:0.0;stroke-width:0.5;"/>
     </g>
     <g id="line2d_32">
      <g>
       <use style="stroke:#000000;stroke-width:0.5;" x="272.301120416" xlink:href="#mbeebb9bf31" y="303.429375"/>
      </g>
     </g>
     <g id="line2d_33">
      <g>
       <use style="stroke:#000000;stroke-width:0.5;" x="272.301120416" xlink:href="#md5f1ab173b" y="26.949375"/>
      </g>
     </g>
     <g id="text_3">
      <!-- 2 -->
      <defs>
       <path d="M 19.1875 8.296875 
L 53.609375 8.296875 
L 53.609375 0 
L 7.328125 0 
L 7.328125 8.296875 
Q 12.9375 14.109375 22.625 23.890625 
Q 32.328125 33.6875 34.8125 36.53125 
Q 39.546875 41.84375 41.421875 45.53125 
Q 43.3125 49.21875 43.3125 52.78125 
Q 43.3125 58.59375 39.234375 62.25 
Q 35.15625 65.921875 28.609375 65.921875 
Q 23.96875 65.921875 18.8125 64.3125 
Q 13.671875 62.703125 7.8125 59.421875 
L 7.8125 69.390625 
Q 13.765625 71.78125 18.9375 73 
Q 24.125 74.21875 28.421875 74.21875 
Q 39.75 74.21875 46.484375 68.546875 
Q 53.21875 62.890625 53.21875 53.421875 
Q 53.21875 48.921875 51.53125 44.890625 
Q 49.859375 40.875 45.40625 35.40625 
Q 44.1875 33.984375 37.640625 27.21875 
Q 31.109375 20.453125 19.1875 8.296875 
" id="BitstreamVeraSans-Roman-32"/>
      </defs>
      <g transform="translate(265.938620416 322.62625)scale(0.2 -0.2)">
       <use xlink:href="#BitstreamVeraSans-Roman-32"/>
      </g>
     </g>
    </g>
    <g id="xtick_4">
     <g id="line2d_34">
      <path clip-path="url(#p1569024941)" d="M 368.30112 303.429375 
L 368.30112 26.949375 
" style="fill:none;stroke:#000000;stroke-dasharray:1.000000,3.000000;stroke-dashoffset:0.0;stroke-width:0.5;"/>
     </g>
     <g id="line2d_35">
      <g>
       <use style="stroke:#000000;stroke-width:0.5;" x="368.301120416" xlink:href="#mbeebb9bf31" y="303.429375"/>
      </g>
     </g>
     <g id="line2d_36">
      <g>
       <use style="stroke:#000000;stroke-width:0.5;" x="368.301120416" xlink:href="#md5f1ab173b" y="26.949375"/>
      </g>
     </g>
     <g id="text_4">
      <!-- 3 -->
      <defs>
       <path d="M 40.578125 39.3125 
Q 47.65625 37.796875 51.625 33 
Q 55.609375 28.21875 55.609375 21.1875 
Q 55.609375 10.40625 48.1875 4.484375 
Q 40.765625 -1.421875 27.09375 -1.421875 
Q 22.515625 -1.421875 17.65625 -0.515625 
Q 12.796875 0.390625 7.625 2.203125 
L 7.625 11.71875 
Q 11.71875 9.328125 16.59375 8.109375 
Q 21.484375 6.890625 26.8125 6.890625 
Q 36.078125 6.890625 40.9375 10.546875 
Q 45.796875 14.203125 45.796875 21.1875 
Q 45.796875 27.640625 41.28125 31.265625 
Q 36.765625 34.90625 28.71875 34.90625 
L 20.21875 34.90625 
L 20.21875 43.015625 
L 29.109375 43.015625 
Q 36.375 43.015625 40.234375 45.921875 
Q 44.09375 48.828125 44.09375 54.296875 
Q 44.09375 59.90625 40.109375 62.90625 
Q 36.140625 65.921875 28.71875 65.921875 
Q 24.65625 65.921875 20.015625 65.03125 
Q 15.375 64.15625 9.8125 62.3125 
L 9.8125 71.09375 
Q 15.4375 72.65625 20.34375 73.4375 
Q 25.25 74.21875 29.59375 74.21875 
Q 40.828125 74.21875 47.359375 69.109375 
Q 53.90625 64.015625 53.90625 55.328125 
Q 53.90625 49.265625 50.4375 45.09375 
Q 46.96875 40.921875 40.578125 39.3125 
" id="BitstreamVeraSans-Roman-33"/>
      </defs>
      <g transform="translate(361.938620416 322.62625)scale(0.2 -0.2)">
       <use xlink:href="#BitstreamVeraSans-Roman-33"/>
      </g>
     </g>
    </g>
    <g id="xtick_5">
     <g id="line2d_37">
      <defs>
       <path d="M 0 0 
L 0 -2 
" id="m3133dfb4b7" style="stroke:#000000;stroke-width:0.5;"/>
      </defs>
      <g>
       <use style="stroke:#000000;stroke-width:0.5;" x="109.2" xlink:href="#m3133dfb4b7" y="303.429375"/>
      </g>
     </g>
     <g id="line2d_38">
      <defs>
       <path d="M 0 0 
L 0 2 
" id="m3a465a5a35" style="stroke:#000000;stroke-width:0.5;"/>
      </defs>
      <g>
       <use style="stroke:#000000;stroke-width:0.5;" x="109.2" xlink:href="#m3a465a5a35" y="26.949375"/>
      </g>
     </g>
    </g>
    <g id="xtick_6">
     <g id="line2d_39">
      <g>
       <use style="stroke:#000000;stroke-width:0.5;" x="126.104760869" xlink:href="#m3133dfb4b7" y="303.429375"/>
      </g>
     </g>
     <g id="line2d_40">
      <g>
       <use style="stroke:#000000;stroke-width:0.5;" x="126.104760869" xlink:href="#m3a465a5a35" y="26.949375"/>
      </g>
     </g>
    </g>
    <g id="xtick_7">
     <g id="line2d_41">
      <g>
       <use style="stroke:#000000;stroke-width:0.5;" x="138.098879584" xlink:href="#m3133dfb4b7" y="303.429375"/>
      </g>
     </g>
     <g id="line2d_42">
      <g>
       <use style="stroke:#000000;stroke-width:0.5;" x="138.098879584" xlink:href="#m3a465a5a35" y="26.949375"/>
      </g>
     </g>
    </g>
    <g id="xtick_8">
     <g id="line2d_43">
      <g>
       <use style="stroke:#000000;stroke-width:0.5;" x="147.402240833" xlink:href="#m3133dfb4b7" y="303.429375"/>
      </g>
     </g>
     <g id="line2d_44">
      <g>
       <use style="stroke:#000000;stroke-width:0.5;" x="147.402240833" xlink:href="#m3a465a5a35" y="26.949375"/>
      </g>
     </g>
    </g>
    <g id="xtick_9">
     <g id="line2d_45">
      <g>
       <use style="stroke:#000000;stroke-width:0.5;" x="155.003640453" xlink:href="#m3133dfb4b7" y="303.429375"/>
      </g>
     </g>
     <g id="line2d_46">
      <g>
       <use style="stroke:#000000;stroke-width:0.5;" x="155.003640453" xlink:href="#m3a465a5a35" y="26.949375"/>
      </g>
     </g>
    </g>
    <g id="xtick_10">
     <g id="line2d_47">
      <g>
       <use style="stroke:#000000;stroke-width:0.5;" x="161.430532258" xlink:href="#m3133dfb4b7" y="303.429375"/>
      </g>
     </g>
     <g id="line2d_48">
      <g>
       <use style="stroke:#000000;stroke-width:0.5;" x="161.430532258" xlink:href="#m3a465a5a35" y="26.949375"/>
      </g>
     </g>
    </g>
    <g id="xtick_11">
     <g id="line2d_49">
      <g>
       <use style="stroke:#000000;stroke-width:0.5;" x="166.997759167" xlink:href="#m3133dfb4b7" y="303.429375"/>
      </g>
     </g>
     <g id="line2d_50">
      <g>
       <use style="stroke:#000000;stroke-width:0.5;" x="166.997759167" xlink:href="#m3a465a5a35" y="26.949375"/>
      </g>
     </g>
    </g>
    <g id="xtick_12">
     <g id="line2d_51">
      <g>
       <use style="stroke:#000000;stroke-width:0.5;" x="171.908401322" xlink:href="#m3133dfb4b7" y="303.429375"/>
      </g>
     </g>
     <g id="line2d_52">
      <g>
       <use style="stroke:#000000;stroke-width:0.5;" x="171.908401322" xlink:href="#m3a465a5a35" y="26.949375"/>
      </g>
     </g>
    </g>
    <g id="xtick_13">
     <g id="line2d_53">
      <g>
       <use style="stroke:#000000;stroke-width:0.5;" x="205.2" xlink:href="#m3133dfb4b7" y="303.429375"/>
      </g>
     </g>
     <g id="line2d_54">
      <g>
       <use style="stroke:#000000;stroke-width:0.5;" x="205.2" xlink:href="#m3a465a5a35" y="26.949375"/>
      </g>
     </g>
    </g>
    <g id="xtick_14">
     <g id="line2d_55">
      <g>
       <use style="stroke:#000000;stroke-width:0.5;" x="222.104760869" xlink:href="#m3133dfb4b7" y="303.429375"/>
      </g>
     </g>
     <g id="line2d_56">
      <g>
       <use style="stroke:#000000;stroke-width:0.5;" x="222.104760869" xlink:href="#m3a465a5a35" y="26.949375"/>
      </g>
     </g>
    </g>
    <g id="xtick_15">
     <g id="line2d_57">
      <g>
       <use style="stroke:#000000;stroke-width:0.5;" x="234.098879584" xlink:href="#m3133dfb4b7" y="303.429375"/>
      </g>
     </g>
     <g id="line2d_58">
      <g>
       <use style="stroke:#000000;stroke-width:0.5;" x="234.098879584" xlink:href="#m3a465a5a35" y="26.949375"/>
      </g>
     </g>
    </g>
    <g id="xtick_16">
     <g id="line2d_59">
      <g>
       <use style="stroke:#000000;stroke-width:0.5;" x="243.402240833" xlink:href="#m3133dfb4b7" y="303.429375"/>
      </g>
     </g>
     <g id="line2d_60">
      <g>
       <use style="stroke:#000000;stroke-width:0.5;" x="243.402240833" xlink:href="#m3a465a5a35" y="26.949375"/>
      </g>
     </g>
    </g>
    <g id="xtick_17">
     <g id="line2d_61">
      <g>
       <use style="stroke:#000000;stroke-width:0.5;" x="251.003640453" xlink:href="#m3133dfb4b7" y="303.429375"/>
      </g>
     </g>
     <g id="line2d_62">
      <g>
       <use style="stroke:#000000;stroke-width:0.5;" x="251.003640453" xlink:href="#m3a465a5a35" y="26.949375"/>
      </g>
     </g>
    </g>
    <g id="xtick_18">
     <g id="line2d_63">
      <g>
       <use style="stroke:#000000;stroke-width:0.5;" x="257.430532258" xlink:href="#m3133dfb4b7" y="303.429375"/>
      </g>
     </g>
     <g id="line2d_64">
      <g>
       <use style="stroke:#000000;stroke-width:0.5;" x="257.430532258" xlink:href="#m3a465a5a35" y="26.949375"/>
      </g>
     </g>
    </g>
    <g id="xtick_19">
     <g id="line2d_65">
      <g>
       <use style="stroke:#000000;stroke-width:0.5;" x="262.997759167" xlink:href="#m3133dfb4b7" y="303.429375"/>
      </g>
     </g>
     <g id="line2d_66">
      <g>
       <use style="stroke:#000000;stroke-width:0.5;" x="262.997759167" xlink:href="#m3a465a5a35" y="26.949375"/>
      </g>
     </g>
    </g>
    <g id="xtick_20">
     <g id="line2d_67">
      <g>
       <use style="stroke:#000000;stroke-width:0.5;" x="267.908401322" xlink:href="#m3133dfb4b7" y="303.429375"/>
      </g>
     </g>
     <g id="line2d_68">
      <g>
       <use style="stroke:#000000;stroke-width:0.5;" x="267.908401322" xlink:href="#m3a465a5a35" y="26.949375"/>
      </g>
     </g>
    </g>
    <g id="xtick_21">
     <g id="line2d_69">
      <g>
       <use style="stroke:#000000;stroke-width:0.5;" x="301.2" xlink:href="#m3133dfb4b7" y="303.429375"/>
      </g>
     </g>
     <g id="line2d_70">
      <g>
       <use style="stroke:#000000;stroke-width:0.5;" x="301.2" xlink:href="#m3a465a5a35" y="26.949375"/>
      </g>
     </g>
    </g>
    <g id="xtick_22">
     <g id="line2d_71">
      <g>
       <use style="stroke:#000000;stroke-width:0.5;" x="318.104760869" xlink:href="#m3133dfb4b7" y="303.429375"/>
      </g>
     </g>
     <g id="line2d_72">
      <g>
       <use style="stroke:#000000;stroke-width:0.5;" x="318.104760869" xlink:href="#m3a465a5a35" y="26.949375"/>
      </g>
     </g>
    </g>
    <g id="xtick_23">
     <g id="line2d_73">
      <g>
       <use style="stroke:#000000;stroke-width:0.5;" x="330.098879584" xlink:href="#m3133dfb4b7" y="303.429375"/>
      </g>
     </g>
     <g id="line2d_74">
      <g>
       <use style="stroke:#000000;stroke-width:0.5;" x="330.098879584" xlink:href="#m3a465a5a35" y="26.949375"/>
      </g>
     </g>
    </g>
    <g id="xtick_24">
     <g id="line2d_75">
      <g>
       <use style="stroke:#000000;stroke-width:0.5;" x="339.402240833" xlink:href="#m3133dfb4b7" y="303.429375"/>
      </g>
     </g>
     <g id="line2d_76">
      <g>
       <use style="stroke:#000000;stroke-width:0.5;" x="339.402240833" xlink:href="#m3a465a5a35" y="26.949375"/>
      </g>
     </g>
    </g>
    <g id="xtick_25">
     <g id="line2d_77">
      <g>
       <use style="stroke:#000000;stroke-width:0.5;" x="347.003640453" xlink:href="#m3133dfb4b7" y="303.429375"/>
      </g>
     </g>
     <g id="line2d_78">
      <g>
       <use style="stroke:#000000;stroke-width:0.5;" x="347.003640453" xlink:href="#m3a465a5a35" y="26.949375"/>
      </g>
     </g>
    </g>
    <g id="xtick_26">
     <g id="line2d_79">
      <g>
       <use style="stroke:#000000;stroke-width:0.5;" x="353.430532258" xlink:href="#m3133dfb4b7" y="303.429375"/>
      </g>
     </g>
     <g id="line2d_80">
      <g>
       <use style="stroke:#000000;stroke-width:0.5;" x="353.430532258" xlink:href="#m3a465a5a35" y="26.949375"/>
      </g>
     </g>
    </g>
    <g id="xtick_27">
     <g id="line2d_81">
      <g>
       <use style="stroke:#000000;stroke-width:0.5;" x="358.997759167" xlink:href="#m3133dfb4b7" y="303.429375"/>
      </g>
     </g>
     <g id="line2d_82">
      <g>
       <use style="stroke:#000000;stroke-width:0.5;" x="358.997759167" xlink:href="#m3a465a5a35" y="26.949375"/>
      </g>
     </g>
    </g>
    <g id="xtick_28">
     <g id="line2d_83">
      <g>
       <use style="stroke:#000000;stroke-width:0.5;" x="363.908401322" xlink:href="#m3133dfb4b7" y="303.429375"/>
      </g>
     </g>
     <g id="line2d_84">
      <g>
       <use style="stroke:#000000;stroke-width:0.5;" x="363.908401322" xlink:href="#m3a465a5a35" y="26.949375"/>
      </g>
     </g>
    </g>
    <g id="xtick_29">
     <g id="line2d_85">
      <g>
       <use style="stroke:#000000;stroke-width:0.5;" x="397.2" xlink:href="#m3133dfb4b7" y="303.429375"/>
      </g>
     </g>
     <g id="line2d_86">
      <g>
       <use style="stroke:#000000;stroke-width:0.5;" x="397.2" xlink:href="#m3a465a5a35" y="26.949375"/>
      </g>
     </g>
    </g>
    <g id="xtick_30">
     <g id="line2d_87">
      <g>
       <use style="stroke:#000000;stroke-width:0.5;" x="414.104760869" xlink:href="#m3133dfb4b7" y="303.429375"/>
      </g>
     </g>
     <g id="line2d_88">
      <g>
       <use style="stroke:#000000;stroke-width:0.5;" x="414.104760869" xlink:href="#m3a465a5a35" y="26.949375"/>
      </g>
     </g>
    </g>
    <g id="xtick_31">
     <g id="line2d_89">
      <g>
       <use style="stroke:#000000;stroke-width:0.5;" x="426.098879584" xlink:href="#m3133dfb4b7" y="303.429375"/>
      </g>
     </g>
     <g id="line2d_90">
      <g>
       <use style="stroke:#000000;stroke-width:0.5;" x="426.098879584" xlink:href="#m3a465a5a35" y="26.949375"/>
      </g>
     </g>
    </g>
    <g id="xtick_32">
     <g id="line2d_91">
      <g>
       <use style="stroke:#000000;stroke-width:0.5;" x="435.402240833" xlink:href="#m3133dfb4b7" y="303.429375"/>
      </g>
     </g>
     <g id="line2d_92">
      <g>
       <use style="stroke:#000000;stroke-width:0.5;" x="435.402240833" xlink:href="#m3a465a5a35" y="26.949375"/>
      </g>
     </g>
    </g>
    <g id="text_5">
     <!-- log10 of (# f-evals / dimension) -->
     <defs>
      <path id="BitstreamVeraSans-Roman-20"/>
      <path d="M 51.125 44 
L 36.921875 44 
L 32.8125 27.6875 
L 47.125 27.6875 
z
M 43.796875 71.78125 
L 38.71875 51.515625 
L 52.984375 51.515625 
L 58.109375 71.78125 
L 65.921875 71.78125 
L 60.890625 51.515625 
L 76.125 51.515625 
L 76.125 44 
L 58.984375 44 
L 54.984375 27.6875 
L 70.515625 27.6875 
L 70.515625 20.21875 
L 53.078125 20.21875 
L 48 0 
L 40.1875 0 
L 45.21875 20.21875 
L 30.90625 20.21875 
L 25.875 0 
L 18.015625 0 
L 23.09375 20.21875 
L 7.71875 20.21875 
L 7.71875 27.6875 
L 24.90625 27.6875 
L 29 44 
L 13.28125 44 
L 13.28125 51.515625 
L 30.90625 51.515625 
L 35.890625 71.78125 
z
" id="BitstreamVeraSans-Roman-23"/>
      <path d="M 52 44.1875 
Q 55.375 50.25 60.0625 53.125 
Q 64.75 56 71.09375 56 
Q 79.640625 56 84.28125 50.015625 
Q 88.921875 44.046875 88.921875 33.015625 
L 88.921875 0 
L 79.890625 0 
L 79.890625 32.71875 
Q 79.890625 40.578125 77.09375 44.375 
Q 74.3125 48.1875 68.609375 48.1875 
Q 61.625 48.1875 57.5625 43.546875 
Q 53.515625 38.921875 53.515625 30.90625 
L 53.515625 0 
L 44.484375 0 
L 44.484375 32.71875 
Q 44.484375 40.625 41.703125 44.40625 
Q 38.921875 48.1875 33.109375 48.1875 
Q 26.21875 48.1875 22.15625 43.53125 
Q 18.109375 38.875 18.109375 30.90625 
L 18.109375 0 
L 9.078125 0 
L 9.078125 54.6875 
L 18.109375 54.6875 
L 18.109375 46.1875 
Q 21.1875 51.21875 25.484375 53.609375 
Q 29.78125 56 35.6875 56 
Q 41.65625 56 45.828125 52.96875 
Q 50 49.953125 52 44.1875 
" id="BitstreamVeraSans-Roman-6d"/>
      <path d="M 54.890625 33.015625 
L 54.890625 0 
L 45.90625 0 
L 45.90625 32.71875 
Q 45.90625 40.484375 42.875 44.328125 
Q 39.84375 48.1875 33.796875 48.1875 
Q 26.515625 48.1875 22.3125 43.546875 
Q 18.109375 38.921875 18.109375 30.90625 
L 18.109375 0 
L 9.078125 0 
L 9.078125 54.6875 
L 18.109375 54.6875 
L 18.109375 46.1875 
Q 21.34375 51.125 25.703125 53.5625 
Q 30.078125 56 35.796875 56 
Q 45.21875 56 50.046875 50.171875 
Q 54.890625 44.34375 54.890625 33.015625 
" id="BitstreamVeraSans-Roman-6e"/>
      <path d="M 31 75.875 
Q 24.46875 64.65625 21.28125 53.65625 
Q 18.109375 42.671875 18.109375 31.390625 
Q 18.109375 20.125 21.3125 9.0625 
Q 24.515625 -2 31 -13.1875 
L 23.1875 -13.1875 
Q 15.875 -1.703125 12.234375 9.375 
Q 8.59375 20.453125 8.59375 31.390625 
Q 8.59375 42.28125 12.203125 53.3125 
Q 15.828125 64.359375 23.1875 75.875 
z
" id="BitstreamVeraSans-Roman-28"/>
      <path d="M 30.609375 48.390625 
Q 23.390625 48.390625 19.1875 42.75 
Q 14.984375 37.109375 14.984375 27.296875 
Q 14.984375 17.484375 19.15625 11.84375 
Q 23.34375 6.203125 30.609375 6.203125 
Q 37.796875 6.203125 41.984375 11.859375 
Q 46.1875 17.53125 46.1875 27.296875 
Q 46.1875 37.015625 41.984375 42.703125 
Q 37.796875 48.390625 30.609375 48.390625 
M 30.609375 56 
Q 42.328125 56 49.015625 48.375 
Q 55.71875 40.765625 55.71875 27.296875 
Q 55.71875 13.875 49.015625 6.21875 
Q 42.328125 -1.421875 30.609375 -1.421875 
Q 18.84375 -1.421875 12.171875 6.21875 
Q 5.515625 13.875 5.515625 27.296875 
Q 5.515625 40.765625 12.171875 48.375 
Q 18.84375 56 30.609375 56 
" id="BitstreamVeraSans-Roman-6f"/>
      <path d="M 9.421875 75.984375 
L 18.40625 75.984375 
L 18.40625 0 
L 9.421875 0 
z
" id="BitstreamVeraSans-Roman-6c"/>
      <path d="M 2.984375 54.6875 
L 12.5 54.6875 
L 29.59375 8.796875 
L 46.6875 54.6875 
L 56.203125 54.6875 
L 35.6875 0 
L 23.484375 0 
z
" id="BitstreamVeraSans-Roman-76"/>
      <path d="M 9.421875 54.6875 
L 18.40625 54.6875 
L 18.40625 0 
L 9.421875 0 
z
M 9.421875 75.984375 
L 18.40625 75.984375 
L 18.40625 64.59375 
L 9.421875 64.59375 
z
" id="BitstreamVeraSans-Roman-69"/>
      <path d="M 4.890625 31.390625 
L 31.203125 31.390625 
L 31.203125 23.390625 
L 4.890625 23.390625 
z
" id="BitstreamVeraSans-Roman-2d"/>
      <path d="M 25.390625 72.90625 
L 33.6875 72.90625 
L 8.296875 -9.28125 
L 0 -9.28125 
z
" id="BitstreamVeraSans-Roman-2f"/>
      <path d="M 56.203125 29.59375 
L 56.203125 25.203125 
L 14.890625 25.203125 
Q 15.484375 15.921875 20.484375 11.0625 
Q 25.484375 6.203125 34.421875 6.203125 
Q 39.59375 6.203125 44.453125 7.46875 
Q 49.3125 8.734375 54.109375 11.28125 
L 54.109375 2.78125 
Q 49.265625 0.734375 44.1875 -0.34375 
Q 39.109375 -1.421875 33.890625 -1.421875 
Q 20.796875 -1.421875 13.15625 6.1875 
Q 5.515625 13.8125 5.515625 26.8125 
Q 5.515625 40.234375 12.765625 48.109375 
Q 20.015625 56 32.328125 56 
Q 43.359375 56 49.78125 48.890625 
Q 56.203125 41.796875 56.203125 29.59375 
M 47.21875 32.234375 
Q 47.125 39.59375 43.09375 43.984375 
Q 39.0625 48.390625 32.421875 48.390625 
Q 24.90625 48.390625 20.390625 44.140625 
Q 15.875 39.890625 15.1875 32.171875 
z
" id="BitstreamVeraSans-Roman-65"/>
      <path d="M 45.40625 46.390625 
L 45.40625 75.984375 
L 54.390625 75.984375 
L 54.390625 0 
L 45.40625 0 
L 45.40625 8.203125 
Q 42.578125 3.328125 38.25 0.953125 
Q 33.9375 -1.421875 27.875 -1.421875 
Q 17.96875 -1.421875 11.734375 6.484375 
Q 5.515625 14.40625 5.515625 27.296875 
Q 5.515625 40.1875 11.734375 48.09375 
Q 17.96875 56 27.875 56 
Q 33.9375 56 38.25 53.625 
Q 42.578125 51.265625 45.40625 46.390625 
M 14.796875 27.296875 
Q 14.796875 17.390625 18.875 11.75 
Q 22.953125 6.109375 30.078125 6.109375 
Q 37.203125 6.109375 41.296875 11.75 
Q 45.40625 17.390625 45.40625 27.296875 
Q 45.40625 37.203125 41.296875 42.84375 
Q 37.203125 48.484375 30.078125 48.484375 
Q 22.953125 48.484375 18.875 42.84375 
Q 14.796875 37.203125 14.796875 27.296875 
" id="BitstreamVeraSans-Roman-64"/>
      <path d="M 45.40625 27.984375 
Q 45.40625 37.75 41.375 43.109375 
Q 37.359375 48.484375 30.078125 48.484375 
Q 22.859375 48.484375 18.828125 43.109375 
Q 14.796875 37.75 14.796875 27.984375 
Q 14.796875 18.265625 18.828125 12.890625 
Q 22.859375 7.515625 30.078125 7.515625 
Q 37.359375 7.515625 41.375 12.890625 
Q 45.40625 18.265625 45.40625 27.984375 
M 54.390625 6.78125 
Q 54.390625 -7.171875 48.1875 -13.984375 
Q 42 -20.796875 29.203125 -20.796875 
Q 24.46875 -20.796875 20.265625 -20.09375 
Q 16.0625 -19.390625 12.109375 -17.921875 
L 12.109375 -9.1875 
Q 16.0625 -11.328125 19.921875 -12.34375 
Q 23.78125 -13.375 27.78125 -13.375 
Q 36.625 -13.375 41.015625 -8.765625 
Q 45.40625 -4.15625 45.40625 5.171875 
L 45.40625 9.625 
Q 42.625 4.78125 38.28125 2.390625 
Q 33.9375 0 27.875 0 
Q 17.828125 0 11.671875 7.65625 
Q 5.515625 15.328125 5.515625 27.984375 
Q 5.515625 40.671875 11.671875 48.328125 
Q 17.828125 56 27.875 56 
Q 33.9375 56 38.28125 53.609375 
Q 42.625 51.21875 45.40625 46.390625 
L 45.40625 54.6875 
L 54.390625 54.6875 
z
" id="BitstreamVeraSans-Roman-67"/>
      <path d="M 37.109375 75.984375 
L 37.109375 68.5 
L 28.515625 68.5 
Q 23.6875 68.5 21.796875 66.546875 
Q 19.921875 64.59375 19.921875 59.515625 
L 19.921875 54.6875 
L 34.71875 54.6875 
L 34.71875 47.703125 
L 19.921875 47.703125 
L 19.921875 0 
L 10.890625 0 
L 10.890625 47.703125 
L 2.296875 47.703125 
L 2.296875 54.6875 
L 10.890625 54.6875 
L 10.890625 58.5 
Q 10.890625 67.625 15.140625 71.796875 
Q 19.390625 75.984375 28.609375 75.984375 
z
" id="BitstreamVeraSans-Roman-66"/>
      <path d="M 34.28125 27.484375 
Q 23.390625 27.484375 19.1875 25 
Q 14.984375 22.515625 14.984375 16.5 
Q 14.984375 11.71875 18.140625 8.90625 
Q 21.296875 6.109375 26.703125 6.109375 
Q 34.1875 6.109375 38.703125 11.40625 
Q 43.21875 16.703125 43.21875 25.484375 
L 43.21875 27.484375 
z
M 52.203125 31.203125 
L 52.203125 0 
L 43.21875 0 
L 43.21875 8.296875 
Q 40.140625 3.328125 35.546875 0.953125 
Q 30.953125 -1.421875 24.3125 -1.421875 
Q 15.921875 -1.421875 10.953125 3.296875 
Q 6 8.015625 6 15.921875 
Q 6 25.140625 12.171875 29.828125 
Q 18.359375 34.515625 30.609375 34.515625 
L 43.21875 34.515625 
L 43.21875 35.40625 
Q 43.21875 41.609375 39.140625 45 
Q 35.0625 48.390625 27.6875 48.390625 
Q 23 48.390625 18.546875 47.265625 
Q 14.109375 46.140625 10.015625 43.890625 
L 10.015625 52.203125 
Q 14.9375 54.109375 19.578125 55.046875 
Q 24.21875 56 28.609375 56 
Q 40.484375 56 46.34375 49.84375 
Q 52.203125 43.703125 52.203125 31.203125 
" id="BitstreamVeraSans-Roman-61"/>
      <path d="M 44.28125 53.078125 
L 44.28125 44.578125 
Q 40.484375 46.53125 36.375 47.5 
Q 32.28125 48.484375 27.875 48.484375 
Q 21.1875 48.484375 17.84375 46.4375 
Q 14.5 44.390625 14.5 40.28125 
Q 14.5 37.15625 16.890625 35.375 
Q 19.28125 33.59375 26.515625 31.984375 
L 29.59375 31.296875 
Q 39.15625 29.25 43.1875 25.515625 
Q 47.21875 21.78125 47.21875 15.09375 
Q 47.21875 7.46875 41.1875 3.015625 
Q 35.15625 -1.421875 24.609375 -1.421875 
Q 20.21875 -1.421875 15.453125 -0.5625 
Q 10.6875 0.296875 5.421875 2 
L 5.421875 11.28125 
Q 10.40625 8.6875 15.234375 7.390625 
Q 20.0625 6.109375 24.8125 6.109375 
Q 31.15625 6.109375 34.5625 8.28125 
Q 37.984375 10.453125 37.984375 14.40625 
Q 37.984375 18.0625 35.515625 20.015625 
Q 33.0625 21.96875 24.703125 23.78125 
L 21.578125 24.515625 
Q 13.234375 26.265625 9.515625 29.90625 
Q 5.8125 33.546875 5.8125 39.890625 
Q 5.8125 47.609375 11.28125 51.796875 
Q 16.75 56 26.8125 56 
Q 31.78125 56 36.171875 55.265625 
Q 40.578125 54.546875 44.28125 53.078125 
" id="BitstreamVeraSans-Roman-73"/>
      <path d="M 8.015625 75.875 
L 15.828125 75.875 
Q 23.140625 64.359375 26.78125 53.3125 
Q 30.421875 42.28125 30.421875 31.390625 
Q 30.421875 20.453125 26.78125 9.375 
Q 23.140625 -1.703125 15.828125 -13.1875 
L 8.015625 -13.1875 
Q 14.5 -2 17.703125 9.0625 
Q 20.90625 20.125 20.90625 31.390625 
Q 20.90625 42.671875 17.703125 53.65625 
Q 14.5 64.65625 8.015625 75.875 
" id="BitstreamVeraSans-Roman-29"/>
     </defs>
     <g transform="translate(116.516276666 345.4628125)scale(0.18 -0.18)">
      <use xlink:href="#BitstreamVeraSans-Roman-6c"/>
      <use x="27.783203125" xlink:href="#BitstreamVeraSans-Roman-6f"/>
      <use x="88.96484375" xlink:href="#BitstreamVeraSans-Roman-67"/>
      <use x="152.44140625" xlink:href="#BitstreamVeraSans-Roman-31"/>
      <use x="216.064453125" xlink:href="#BitstreamVeraSans-Roman-30"/>
      <use x="279.6875" xlink:href="#BitstreamVeraSans-Roman-20"/>
      <use x="311.474609375" xlink:href="#BitstreamVeraSans-Roman-6f"/>
      <use x="372.65625" xlink:href="#BitstreamVeraSans-Roman-66"/>
      <use x="407.861328125" xlink:href="#BitstreamVeraSans-Roman-20"/>
      <use x="439.6484375" xlink:href="#BitstreamVeraSans-Roman-28"/>
      <use x="478.662109375" xlink:href="#BitstreamVeraSans-Roman-23"/>
      <use x="562.451171875" xlink:href="#BitstreamVeraSans-Roman-20"/>
      <use x="594.23828125" xlink:href="#BitstreamVeraSans-Roman-66"/>
      <use x="629.365234375" xlink:href="#BitstreamVeraSans-Roman-2d"/>
      <use x="665.44921875" xlink:href="#BitstreamVeraSans-Roman-65"/>
      <use x="726.97265625" xlink:href="#BitstreamVeraSans-Roman-76"/>
      <use x="786.15234375" xlink:href="#BitstreamVeraSans-Roman-61"/>
      <use x="847.431640625" xlink:href="#BitstreamVeraSans-Roman-6c"/>
      <use x="875.21484375" xlink:href="#BitstreamVeraSans-Roman-73"/>
      <use x="927.314453125" xlink:href="#BitstreamVeraSans-Roman-20"/>
      <use x="959.1015625" xlink:href="#BitstreamVeraSans-Roman-2f"/>
      <use x="992.79296875" xlink:href="#BitstreamVeraSans-Roman-20"/>
      <use x="1024.58007812" xlink:href="#BitstreamVeraSans-Roman-64"/>
      <use x="1088.05664062" xlink:href="#BitstreamVeraSans-Roman-69"/>
      <use x="1115.83984375" xlink:href="#BitstreamVeraSans-Roman-6d"/>
      <use x="1213.25195312" xlink:href="#BitstreamVeraSans-Roman-65"/>
      <use x="1274.77539062" xlink:href="#BitstreamVeraSans-Roman-6e"/>
      <use x="1338.15429688" xlink:href="#BitstreamVeraSans-Roman-73"/>
      <use x="1390.25390625" xlink:href="#BitstreamVeraSans-Roman-69"/>
      <use x="1418.03710938" xlink:href="#BitstreamVeraSans-Roman-6f"/>
      <use x="1479.21875" xlink:href="#BitstreamVeraSans-Roman-6e"/>
      <use x="1542.59765625" xlink:href="#BitstreamVeraSans-Roman-29"/>
     </g>
    </g>
   </g>
   <g id="matplotlib.axis_2">
    <g id="ytick_1">
     <g id="line2d_93">
      <path clip-path="url(#p1569024941)" d="M 80.30112 303.429375 
L 437.42112 303.429375 
" style="fill:none;stroke:#000000;stroke-dasharray:1.000000,3.000000;stroke-dashoffset:0.0;stroke-width:0.5;"/>
     </g>
     <g id="line2d_94">
      <defs>
       <path d="M 0 0 
L 4 0 
" id="m2aab981942" style="stroke:#000000;stroke-width:0.5;"/>
      </defs>
      <g>
       <use style="stroke:#000000;stroke-width:0.5;" x="80.3011204163" xlink:href="#m2aab981942" y="303.429375"/>
      </g>
     </g>
     <g id="line2d_95">
      <defs>
       <path d="M 0 0 
L -4 0 
" id="mf1e3f24be3" style="stroke:#000000;stroke-width:0.5;"/>
      </defs>
      <g>
       <use style="stroke:#000000;stroke-width:0.5;" x="437.421120416" xlink:href="#mf1e3f24be3" y="303.429375"/>
      </g>
     </g>
     <g id="text_6">
      <!-- 0.0 -->
      <defs>
       <path d="M 10.6875 12.40625 
L 21 12.40625 
L 21 0 
L 10.6875 0 
z
" id="BitstreamVeraSans-Roman-2e"/>
      </defs>
      <g transform="translate(44.4948704163 308.948125)scale(0.2 -0.2)">
       <use xlink:href="#BitstreamVeraSans-Roman-30"/>
       <use x="63.623046875" xlink:href="#BitstreamVeraSans-Roman-2e"/>
       <use x="95.41015625" xlink:href="#BitstreamVeraSans-Roman-30"/>
      </g>
     </g>
    </g>
    <g id="ytick_2">
     <g id="line2d_96">
      <path clip-path="url(#p1569024941)" d="M 80.30112 248.68086 
L 437.42112 248.68086 
" style="fill:none;stroke:#000000;stroke-dasharray:1.000000,3.000000;stroke-dashoffset:0.0;stroke-width:0.5;"/>
     </g>
     <g id="line2d_97">
      <g>
       <use style="stroke:#000000;stroke-width:0.5;" x="80.3011204163" xlink:href="#m2aab981942" y="248.680860149"/>
      </g>
     </g>
     <g id="line2d_98">
      <g>
       <use style="stroke:#000000;stroke-width:0.5;" x="437.421120416" xlink:href="#mf1e3f24be3" y="248.680860149"/>
      </g>
     </g>
     <g id="text_7">
      <!-- 0.2 -->
      <g transform="translate(44.4948704163 254.199610149)scale(0.2 -0.2)">
       <use xlink:href="#BitstreamVeraSans-Roman-30"/>
       <use x="63.623046875" xlink:href="#BitstreamVeraSans-Roman-2e"/>
       <use x="95.41015625" xlink:href="#BitstreamVeraSans-Roman-32"/>
      </g>
     </g>
    </g>
    <g id="ytick_3">
     <g id="line2d_99">
      <path clip-path="url(#p1569024941)" d="M 80.30112 193.932345 
L 437.42112 193.932345 
" style="fill:none;stroke:#000000;stroke-dasharray:1.000000,3.000000;stroke-dashoffset:0.0;stroke-width:0.5;"/>
     </g>
     <g id="line2d_100">
      <g>
       <use style="stroke:#000000;stroke-width:0.5;" x="80.3011204163" xlink:href="#m2aab981942" y="193.932345297"/>
      </g>
     </g>
     <g id="line2d_101">
      <g>
       <use style="stroke:#000000;stroke-width:0.5;" x="437.421120416" xlink:href="#mf1e3f24be3" y="193.932345297"/>
      </g>
     </g>
     <g id="text_8">
      <!-- 0.4 -->
      <defs>
       <path d="M 37.796875 64.3125 
L 12.890625 25.390625 
L 37.796875 25.390625 
z
M 35.203125 72.90625 
L 47.609375 72.90625 
L 47.609375 25.390625 
L 58.015625 25.390625 
L 58.015625 17.1875 
L 47.609375 17.1875 
L 47.609375 0 
L 37.796875 0 
L 37.796875 17.1875 
L 4.890625 17.1875 
L 4.890625 26.703125 
z
" id="BitstreamVeraSans-Roman-34"/>
      </defs>
      <g transform="translate(44.4948704163 199.451095297)scale(0.2 -0.2)">
       <use xlink:href="#BitstreamVeraSans-Roman-30"/>
       <use x="63.623046875" xlink:href="#BitstreamVeraSans-Roman-2e"/>
       <use x="95.41015625" xlink:href="#BitstreamVeraSans-Roman-34"/>
      </g>
     </g>
    </g>
    <g id="ytick_4">
     <g id="line2d_102">
      <path clip-path="url(#p1569024941)" d="M 80.30112 139.18383 
L 437.42112 139.18383 
" style="fill:none;stroke:#000000;stroke-dasharray:1.000000,3.000000;stroke-dashoffset:0.0;stroke-width:0.5;"/>
     </g>
     <g id="line2d_103">
      <g>
       <use style="stroke:#000000;stroke-width:0.5;" x="80.3011204163" xlink:href="#m2aab981942" y="139.183830446"/>
      </g>
     </g>
     <g id="line2d_104">
      <g>
       <use style="stroke:#000000;stroke-width:0.5;" x="437.421120416" xlink:href="#mf1e3f24be3" y="139.183830446"/>
      </g>
     </g>
     <g id="text_9">
      <!-- 0.6 -->
      <defs>
       <path d="M 33.015625 40.375 
Q 26.375 40.375 22.484375 35.828125 
Q 18.609375 31.296875 18.609375 23.390625 
Q 18.609375 15.53125 22.484375 10.953125 
Q 26.375 6.390625 33.015625 6.390625 
Q 39.65625 6.390625 43.53125 10.953125 
Q 47.40625 15.53125 47.40625 23.390625 
Q 47.40625 31.296875 43.53125 35.828125 
Q 39.65625 40.375 33.015625 40.375 
M 52.59375 71.296875 
L 52.59375 62.3125 
Q 48.875 64.0625 45.09375 64.984375 
Q 41.3125 65.921875 37.59375 65.921875 
Q 27.828125 65.921875 22.671875 59.328125 
Q 17.53125 52.734375 16.796875 39.40625 
Q 19.671875 43.65625 24.015625 45.921875 
Q 28.375 48.1875 33.59375 48.1875 
Q 44.578125 48.1875 50.953125 41.515625 
Q 57.328125 34.859375 57.328125 23.390625 
Q 57.328125 12.15625 50.6875 5.359375 
Q 44.046875 -1.421875 33.015625 -1.421875 
Q 20.359375 -1.421875 13.671875 8.265625 
Q 6.984375 17.96875 6.984375 36.375 
Q 6.984375 53.65625 15.1875 63.9375 
Q 23.390625 74.21875 37.203125 74.21875 
Q 40.921875 74.21875 44.703125 73.484375 
Q 48.484375 72.75 52.59375 71.296875 
" id="BitstreamVeraSans-Roman-36"/>
      </defs>
      <g transform="translate(44.4948704163 144.702580446)scale(0.2 -0.2)">
       <use xlink:href="#BitstreamVeraSans-Roman-30"/>
       <use x="63.623046875" xlink:href="#BitstreamVeraSans-Roman-2e"/>
       <use x="95.41015625" xlink:href="#BitstreamVeraSans-Roman-36"/>
      </g>
     </g>
    </g>
    <g id="ytick_5">
     <g id="line2d_105">
      <path clip-path="url(#p1569024941)" d="M 80.30112 84.435316 
L 437.42112 84.435316 
" style="fill:none;stroke:#000000;stroke-dasharray:1.000000,3.000000;stroke-dashoffset:0.0;stroke-width:0.5;"/>
     </g>
     <g id="line2d_106">
      <g>
       <use style="stroke:#000000;stroke-width:0.5;" x="80.3011204163" xlink:href="#m2aab981942" y="84.4353155941"/>
      </g>
     </g>
     <g id="line2d_107">
      <g>
       <use style="stroke:#000000;stroke-width:0.5;" x="437.421120416" xlink:href="#mf1e3f24be3" y="84.4353155941"/>
      </g>
     </g>
     <g id="text_10">
      <!-- 0.8 -->
      <defs>
       <path d="M 31.78125 34.625 
Q 24.75 34.625 20.71875 30.859375 
Q 16.703125 27.09375 16.703125 20.515625 
Q 16.703125 13.921875 20.71875 10.15625 
Q 24.75 6.390625 31.78125 6.390625 
Q 38.8125 6.390625 42.859375 10.171875 
Q 46.921875 13.96875 46.921875 20.515625 
Q 46.921875 27.09375 42.890625 30.859375 
Q 38.875 34.625 31.78125 34.625 
M 21.921875 38.8125 
Q 15.578125 40.375 12.03125 44.71875 
Q 8.5 49.078125 8.5 55.328125 
Q 8.5 64.0625 14.71875 69.140625 
Q 20.953125 74.21875 31.78125 74.21875 
Q 42.671875 74.21875 48.875 69.140625 
Q 55.078125 64.0625 55.078125 55.328125 
Q 55.078125 49.078125 51.53125 44.71875 
Q 48 40.375 41.703125 38.8125 
Q 48.828125 37.15625 52.796875 32.3125 
Q 56.78125 27.484375 56.78125 20.515625 
Q 56.78125 9.90625 50.3125 4.234375 
Q 43.84375 -1.421875 31.78125 -1.421875 
Q 19.734375 -1.421875 13.25 4.234375 
Q 6.78125 9.90625 6.78125 20.515625 
Q 6.78125 27.484375 10.78125 32.3125 
Q 14.796875 37.15625 21.921875 38.8125 
M 18.3125 54.390625 
Q 18.3125 48.734375 21.84375 45.5625 
Q 25.390625 42.390625 31.78125 42.390625 
Q 38.140625 42.390625 41.71875 45.5625 
Q 45.3125 48.734375 45.3125 54.390625 
Q 45.3125 60.0625 41.71875 63.234375 
Q 38.140625 66.40625 31.78125 66.40625 
Q 25.390625 66.40625 21.84375 63.234375 
Q 18.3125 60.0625 18.3125 54.390625 
" id="BitstreamVeraSans-Roman-38"/>
      </defs>
      <g transform="translate(44.4948704163 89.9540655941)scale(0.2 -0.2)">
       <use xlink:href="#BitstreamVeraSans-Roman-30"/>
       <use x="63.623046875" xlink:href="#BitstreamVeraSans-Roman-2e"/>
       <use x="95.41015625" xlink:href="#BitstreamVeraSans-Roman-38"/>
      </g>
     </g>
    </g>
    <g id="ytick_6">
     <g id="line2d_108">
      <path clip-path="url(#p1569024941)" d="M 80.30112 29.686801 
L 437.42112 29.686801 
" style="fill:none;stroke:#000000;stroke-dasharray:1.000000,3.000000;stroke-dashoffset:0.0;stroke-width:0.5;"/>
     </g>
     <g id="line2d_109">
      <g>
       <use style="stroke:#000000;stroke-width:0.5;" x="80.3011204163" xlink:href="#m2aab981942" y="29.6868007426"/>
      </g>
     </g>
     <g id="line2d_110">
      <g>
       <use style="stroke:#000000;stroke-width:0.5;" x="437.421120416" xlink:href="#mf1e3f24be3" y="29.6868007426"/>
      </g>
     </g>
     <g id="text_11">
      <!-- 1.0 -->
      <g transform="translate(44.4948704163 35.2055507426)scale(0.2 -0.2)">
       <use xlink:href="#BitstreamVeraSans-Roman-31"/>
       <use x="63.623046875" xlink:href="#BitstreamVeraSans-Roman-2e"/>
       <use x="95.41015625" xlink:href="#BitstreamVeraSans-Roman-30"/>
      </g>
     </g>
    </g>
    <g id="text_12">
     <!-- Proportion of function+target pairs -->
     <defs>
      <path d="M 19.671875 64.796875 
L 19.671875 37.40625 
L 32.078125 37.40625 
Q 38.96875 37.40625 42.71875 40.96875 
Q 46.484375 44.53125 46.484375 51.125 
Q 46.484375 57.671875 42.71875 61.234375 
Q 38.96875 64.796875 32.078125 64.796875 
z
M 9.8125 72.90625 
L 32.078125 72.90625 
Q 44.34375 72.90625 50.609375 67.359375 
Q 56.890625 61.8125 56.890625 51.125 
Q 56.890625 40.328125 50.609375 34.8125 
Q 44.34375 29.296875 32.078125 29.296875 
L 19.671875 29.296875 
L 19.671875 0 
L 9.8125 0 
z
" id="BitstreamVeraSans-Roman-50"/>
      <path d="M 46 62.703125 
L 46 35.5 
L 73.1875 35.5 
L 73.1875 27.203125 
L 46 27.203125 
L 46 0 
L 37.796875 0 
L 37.796875 27.203125 
L 10.59375 27.203125 
L 10.59375 35.5 
L 37.796875 35.5 
L 37.796875 62.703125 
z
" id="BitstreamVeraSans-Roman-2b"/>
      <path d="M 18.109375 8.203125 
L 18.109375 -20.796875 
L 9.078125 -20.796875 
L 9.078125 54.6875 
L 18.109375 54.6875 
L 18.109375 46.390625 
Q 20.953125 51.265625 25.265625 53.625 
Q 29.59375 56 35.59375 56 
Q 45.5625 56 51.78125 48.09375 
Q 58.015625 40.1875 58.015625 27.296875 
Q 58.015625 14.40625 51.78125 6.484375 
Q 45.5625 -1.421875 35.59375 -1.421875 
Q 29.59375 -1.421875 25.265625 0.953125 
Q 20.953125 3.328125 18.109375 8.203125 
M 48.6875 27.296875 
Q 48.6875 37.203125 44.609375 42.84375 
Q 40.53125 48.484375 33.40625 48.484375 
Q 26.265625 48.484375 22.1875 42.84375 
Q 18.109375 37.203125 18.109375 27.296875 
Q 18.109375 17.390625 22.1875 11.75 
Q 26.265625 6.109375 33.40625 6.109375 
Q 40.53125 6.109375 44.609375 11.75 
Q 48.6875 17.390625 48.6875 27.296875 
" id="BitstreamVeraSans-Roman-70"/>
      <path d="M 18.3125 70.21875 
L 18.3125 54.6875 
L 36.8125 54.6875 
L 36.8125 47.703125 
L 18.3125 47.703125 
L 18.3125 18.015625 
Q 18.3125 11.328125 20.140625 9.421875 
Q 21.96875 7.515625 27.59375 7.515625 
L 36.8125 7.515625 
L 36.8125 0 
L 27.59375 0 
Q 17.1875 0 13.234375 3.875 
Q 9.28125 7.765625 9.28125 18.015625 
L 9.28125 47.703125 
L 2.6875 47.703125 
L 2.6875 54.6875 
L 9.28125 54.6875 
L 9.28125 70.21875 
z
" id="BitstreamVeraSans-Roman-74"/>
      <path d="M 8.5 21.578125 
L 8.5 54.6875 
L 17.484375 54.6875 
L 17.484375 21.921875 
Q 17.484375 14.15625 20.5 10.265625 
Q 23.53125 6.390625 29.59375 6.390625 
Q 36.859375 6.390625 41.078125 11.03125 
Q 45.3125 15.671875 45.3125 23.6875 
L 45.3125 54.6875 
L 54.296875 54.6875 
L 54.296875 0 
L 45.3125 0 
L 45.3125 8.40625 
Q 42.046875 3.421875 37.71875 1 
Q 33.40625 -1.421875 27.6875 -1.421875 
Q 18.265625 -1.421875 13.375 4.4375 
Q 8.5 10.296875 8.5 21.578125 
" id="BitstreamVeraSans-Roman-75"/>
      <path d="M 41.109375 46.296875 
Q 39.59375 47.171875 37.8125 47.578125 
Q 36.03125 48 33.890625 48 
Q 26.265625 48 22.1875 43.046875 
Q 18.109375 38.09375 18.109375 28.8125 
L 18.109375 0 
L 9.078125 0 
L 9.078125 54.6875 
L 18.109375 54.6875 
L 18.109375 46.1875 
Q 20.953125 51.171875 25.484375 53.578125 
Q 30.03125 56 36.53125 56 
Q 37.453125 56 38.578125 55.875 
Q 39.703125 55.765625 41.0625 55.515625 
z
" id="BitstreamVeraSans-Roman-72"/>
      <path d="M 48.78125 52.59375 
L 48.78125 44.1875 
Q 44.96875 46.296875 41.140625 47.34375 
Q 37.3125 48.390625 33.40625 48.390625 
Q 24.65625 48.390625 19.8125 42.84375 
Q 14.984375 37.3125 14.984375 27.296875 
Q 14.984375 17.28125 19.8125 11.734375 
Q 24.65625 6.203125 33.40625 6.203125 
Q 37.3125 6.203125 41.140625 7.25 
Q 44.96875 8.296875 48.78125 10.40625 
L 48.78125 2.09375 
Q 45.015625 0.34375 40.984375 -0.53125 
Q 36.96875 -1.421875 32.421875 -1.421875 
Q 20.0625 -1.421875 12.78125 6.34375 
Q 5.515625 14.109375 5.515625 27.296875 
Q 5.515625 40.671875 12.859375 48.328125 
Q 20.21875 56 33.015625 56 
Q 37.15625 56 41.109375 55.140625 
Q 45.0625 54.296875 48.78125 52.59375 
" id="BitstreamVeraSans-Roman-63"/>
     </defs>
     <g transform="translate(35.7514329163 323.17875)rotate(-90.0)scale(0.18 -0.18)">
      <use xlink:href="#BitstreamVeraSans-Roman-50"/>
      <use x="60.287109375" xlink:href="#BitstreamVeraSans-Roman-72"/>
      <use x="101.369140625" xlink:href="#BitstreamVeraSans-Roman-6f"/>
      <use x="162.55078125" xlink:href="#BitstreamVeraSans-Roman-70"/>
      <use x="226.02734375" xlink:href="#BitstreamVeraSans-Roman-6f"/>
      <use x="287.208984375" xlink:href="#BitstreamVeraSans-Roman-72"/>
      <use x="328.322265625" xlink:href="#BitstreamVeraSans-Roman-74"/>
      <use x="367.53125" xlink:href="#BitstreamVeraSans-Roman-69"/>
      <use x="395.314453125" xlink:href="#BitstreamVeraSans-Roman-6f"/>
      <use x="456.49609375" xlink:href="#BitstreamVeraSans-Roman-6e"/>
      <use x="519.875" xlink:href="#BitstreamVeraSans-Roman-20"/>
      <use x="551.662109375" xlink:href="#BitstreamVeraSans-Roman-6f"/>
      <use x="612.84375" xlink:href="#BitstreamVeraSans-Roman-66"/>
      <use x="648.048828125" xlink:href="#BitstreamVeraSans-Roman-20"/>
      <use x="679.8359375" xlink:href="#BitstreamVeraSans-Roman-66"/>
      <use x="715.041015625" xlink:href="#BitstreamVeraSans-Roman-75"/>
      <use x="778.419921875" xlink:href="#BitstreamVeraSans-Roman-6e"/>
      <use x="841.798828125" xlink:href="#BitstreamVeraSans-Roman-63"/>
      <use x="896.779296875" xlink:href="#BitstreamVeraSans-Roman-74"/>
      <use x="935.98828125" xlink:href="#BitstreamVeraSans-Roman-69"/>
      <use x="963.771484375" xlink:href="#BitstreamVeraSans-Roman-6f"/>
      <use x="1024.953125" xlink:href="#BitstreamVeraSans-Roman-6e"/>
      <use x="1088.33203125" xlink:href="#BitstreamVeraSans-Roman-2b"/>
      <use x="1172.12109375" xlink:href="#BitstreamVeraSans-Roman-74"/>
      <use x="1211.33007812" xlink:href="#BitstreamVeraSans-Roman-61"/>
      <use x="1272.609375" xlink:href="#BitstreamVeraSans-Roman-72"/>
      <use x="1313.70703125" xlink:href="#BitstreamVeraSans-Roman-67"/>
      <use x="1377.18359375" xlink:href="#BitstreamVeraSans-Roman-65"/>
      <use x="1438.70703125" xlink:href="#BitstreamVeraSans-Roman-74"/>
      <use x="1477.91601562" xlink:href="#BitstreamVeraSans-Roman-20"/>
      <use x="1509.703125" xlink:href="#BitstreamVeraSans-Roman-70"/>
      <use x="1573.1796875" xlink:href="#BitstreamVeraSans-Roman-61"/>
      <use x="1634.45898438" xlink:href="#BitstreamVeraSans-Roman-69"/>
      <use x="1662.2421875" xlink:href="#BitstreamVeraSans-Roman-72"/>
      <use x="1703.35546875" xlink:href="#BitstreamVeraSans-Roman-73"/>
     </g>
    </g>
   </g>
   <g id="text_13">
    <!-- diffusion ga -->
    <g transform="translate(405.741120416 302.093586015)scale(0.15 -0.15)">
     <use xlink:href="#BitstreamVeraSans-Roman-64"/>
     <use x="63.4765625" xlink:href="#BitstreamVeraSans-Roman-69"/>
     <use x="91.259765625" xlink:href="#BitstreamVeraSans-Roman-66"/>
     <use x="126.46484375" xlink:href="#BitstreamVeraSans-Roman-66"/>
     <use x="161.669921875" xlink:href="#BitstreamVeraSans-Roman-75"/>
     <use x="225.048828125" xlink:href="#BitstreamVeraSans-Roman-73"/>
     <use x="277.1484375" xlink:href="#BitstreamVeraSans-Roman-69"/>
     <use x="304.931640625" xlink:href="#BitstreamVeraSans-Roman-6f"/>
     <use x="366.11328125" xlink:href="#BitstreamVeraSans-Roman-6e"/>
     <use x="429.4921875" xlink:href="#BitstreamVeraSans-Roman-20"/>
     <use x="461.279296875" xlink:href="#BitstreamVeraSans-Roman-67"/>
     <use x="524.755859375" xlink:href="#BitstreamVeraSans-Roman-61"/>
    </g>
   </g>
   <g id="text_14">
    <!-- standard ga -->
    <g transform="translate(405.741120416 214.495962252)scale(0.15 -0.15)">
     <use xlink:href="#BitstreamVeraSans-Roman-73"/>
     <use x="52.099609375" xlink:href="#BitstreamVeraSans-Roman-74"/>
     <use x="91.30859375" xlink:href="#BitstreamVeraSans-Roman-61"/>
     <use x="152.587890625" xlink:href="#BitstreamVeraSans-Roman-6e"/>
     <use x="215.966796875" xlink:href="#BitstreamVeraSans-Roman-64"/>
     <use x="279.443359375" xlink:href="#BitstreamVeraSans-Roman-61"/>
     <use x="340.72265625" xlink:href="#BitstreamVeraSans-Roman-72"/>
     <use x="381.8203125" xlink:href="#BitstreamVeraSans-Roman-64"/>
     <use x="445.296875" xlink:href="#BitstreamVeraSans-Roman-20"/>
     <use x="477.083984375" xlink:href="#BitstreamVeraSans-Roman-67"/>
     <use x="540.560546875" xlink:href="#BitstreamVeraSans-Roman-61"/>
    </g>
   </g>
   <g id="text_15">
    <!-- migration ga -->
    <g transform="translate(405.741120416 126.89833849)scale(0.15 -0.15)">
     <use xlink:href="#BitstreamVeraSans-Roman-6d"/>
     <use x="97.412109375" xlink:href="#BitstreamVeraSans-Roman-69"/>
     <use x="125.1953125" xlink:href="#BitstreamVeraSans-Roman-67"/>
     <use x="188.671875" xlink:href="#BitstreamVeraSans-Roman-72"/>
     <use x="229.78515625" xlink:href="#BitstreamVeraSans-Roman-61"/>
     <use x="291.064453125" xlink:href="#BitstreamVeraSans-Roman-74"/>
     <use x="330.2734375" xlink:href="#BitstreamVeraSans-Roman-69"/>
     <use x="358.056640625" xlink:href="#BitstreamVeraSans-Roman-6f"/>
     <use x="419.23828125" xlink:href="#BitstreamVeraSans-Roman-6e"/>
     <use x="482.6171875" xlink:href="#BitstreamVeraSans-Roman-20"/>
     <use x="514.404296875" xlink:href="#BitstreamVeraSans-Roman-67"/>
     <use x="577.880859375" xlink:href="#BitstreamVeraSans-Roman-61"/>
    </g>
   </g>
   <g id="text_16">
    <!-- best 2009 -->
    <defs>
     <path d="M 10.984375 1.515625 
L 10.984375 10.5 
Q 14.703125 8.734375 18.5 7.8125 
Q 22.3125 6.890625 25.984375 6.890625 
Q 35.75 6.890625 40.890625 13.453125 
Q 46.046875 20.015625 46.78125 33.40625 
Q 43.953125 29.203125 39.59375 26.953125 
Q 35.25 24.703125 29.984375 24.703125 
Q 19.046875 24.703125 12.671875 31.3125 
Q 6.296875 37.9375 6.296875 49.421875 
Q 6.296875 60.640625 12.9375 67.421875 
Q 19.578125 74.21875 30.609375 74.21875 
Q 43.265625 74.21875 49.921875 64.515625 
Q 56.59375 54.828125 56.59375 36.375 
Q 56.59375 19.140625 48.40625 8.859375 
Q 40.234375 -1.421875 26.421875 -1.421875 
Q 22.703125 -1.421875 18.890625 -0.6875 
Q 15.09375 0.046875 10.984375 1.515625 
M 30.609375 32.421875 
Q 37.25 32.421875 41.125 36.953125 
Q 45.015625 41.5 45.015625 49.421875 
Q 45.015625 57.28125 41.125 61.84375 
Q 37.25 66.40625 30.609375 66.40625 
Q 23.96875 66.40625 20.09375 61.84375 
Q 16.21875 57.28125 16.21875 49.421875 
Q 16.21875 41.5 20.09375 36.953125 
Q 23.96875 32.421875 30.609375 32.421875 
" id="BitstreamVeraSans-Roman-39"/>
     <path d="M 48.6875 27.296875 
Q 48.6875 37.203125 44.609375 42.84375 
Q 40.53125 48.484375 33.40625 48.484375 
Q 26.265625 48.484375 22.1875 42.84375 
Q 18.109375 37.203125 18.109375 27.296875 
Q 18.109375 17.390625 22.1875 11.75 
Q 26.265625 6.109375 33.40625 6.109375 
Q 40.53125 6.109375 44.609375 11.75 
Q 48.6875 17.390625 48.6875 27.296875 
M 18.109375 46.390625 
Q 20.953125 51.265625 25.265625 53.625 
Q 29.59375 56 35.59375 56 
Q 45.5625 56 51.78125 48.09375 
Q 58.015625 40.1875 58.015625 27.296875 
Q 58.015625 14.40625 51.78125 6.484375 
Q 45.5625 -1.421875 35.59375 -1.421875 
Q 29.59375 -1.421875 25.265625 0.953125 
Q 20.953125 3.328125 18.109375 8.203125 
L 18.109375 0 
L 9.078125 0 
L 9.078125 75.984375 
L 18.109375 75.984375 
z
" id="BitstreamVeraSans-Roman-62"/>
    </defs>
    <g transform="translate(405.741120416 39.3007147277)scale(0.15 -0.15)">
     <use xlink:href="#BitstreamVeraSans-Roman-62"/>
     <use x="63.4765625" xlink:href="#BitstreamVeraSans-Roman-65"/>
     <use x="125.0" xlink:href="#BitstreamVeraSans-Roman-73"/>
     <use x="177.099609375" xlink:href="#BitstreamVeraSans-Roman-74"/>
     <use x="216.30859375" xlink:href="#BitstreamVeraSans-Roman-20"/>
     <use x="248.095703125" xlink:href="#BitstreamVeraSans-Roman-32"/>
     <use x="311.71875" xlink:href="#BitstreamVeraSans-Roman-30"/>
     <use x="375.341796875" xlink:href="#BitstreamVeraSans-Roman-30"/>
     <use x="438.96484375" xlink:href="#BitstreamVeraSans-Roman-39"/>
    </g>
   </g>
   <g id="text_17">
    <!-- f10-14,5-D -->
    <defs>
     <path d="M 11.71875 12.40625 
L 22.015625 12.40625 
L 22.015625 4 
L 14.015625 -11.625 
L 7.71875 -11.625 
L 11.71875 4 
z
" id="BitstreamVeraSans-Roman-2c"/>
     <path d="M 19.671875 64.796875 
L 19.671875 8.109375 
L 31.59375 8.109375 
Q 46.6875 8.109375 53.6875 14.9375 
Q 60.6875 21.78125 60.6875 36.53125 
Q 60.6875 51.171875 53.6875 57.984375 
Q 46.6875 64.796875 31.59375 64.796875 
z
M 9.8125 72.90625 
L 30.078125 72.90625 
Q 51.265625 72.90625 61.171875 64.09375 
Q 71.09375 55.28125 71.09375 36.53125 
Q 71.09375 17.671875 61.125 8.828125 
Q 51.171875 0 30.078125 0 
L 9.8125 0 
z
" id="BitstreamVeraSans-Roman-44"/>
     <path d="M 10.796875 72.90625 
L 49.515625 72.90625 
L 49.515625 64.59375 
L 19.828125 64.59375 
L 19.828125 46.734375 
Q 21.96875 47.46875 24.109375 47.828125 
Q 26.265625 48.1875 28.421875 48.1875 
Q 40.625 48.1875 47.75 41.5 
Q 54.890625 34.8125 54.890625 23.390625 
Q 54.890625 11.625 47.5625 5.09375 
Q 40.234375 -1.421875 26.90625 -1.421875 
Q 22.3125 -1.421875 17.546875 -0.640625 
Q 12.796875 0.140625 7.71875 1.703125 
L 7.71875 11.625 
Q 12.109375 9.234375 16.796875 8.0625 
Q 21.484375 6.890625 26.703125 6.890625 
Q 35.15625 6.890625 40.078125 11.328125 
Q 45.015625 15.765625 45.015625 23.390625 
Q 45.015625 31 40.078125 35.4375 
Q 35.15625 39.890625 26.703125 39.890625 
Q 22.75 39.890625 18.8125 39.015625 
Q 14.890625 38.140625 10.796875 36.28125 
z
" id="BitstreamVeraSans-Roman-35"/>
    </defs>
    <g transform="translate(83.8723204163 47.67585)scale(0.2 -0.2)">
     <use xlink:href="#BitstreamVeraSans-Roman-66"/>
     <use x="35.205078125" xlink:href="#BitstreamVeraSans-Roman-31"/>
     <use x="98.828125" xlink:href="#BitstreamVeraSans-Roman-30"/>
     <use x="162.451171875" xlink:href="#BitstreamVeraSans-Roman-2d"/>
     <use x="198.53515625" xlink:href="#BitstreamVeraSans-Roman-31"/>
     <use x="262.158203125" xlink:href="#BitstreamVeraSans-Roman-34"/>
     <use x="325.78125" xlink:href="#BitstreamVeraSans-Roman-2c"/>
     <use x="357.568359375" xlink:href="#BitstreamVeraSans-Roman-35"/>
     <use x="421.19140625" xlink:href="#BitstreamVeraSans-Roman-2d"/>
     <use x="457.275390625" xlink:href="#BitstreamVeraSans-Roman-44"/>
    </g>
   </g>
  </g>
 </g>
 <defs>
  <clipPath id="p1569024941">
   <rect height="276.48" width="357.12" x="80.3011204163" y="26.949375"/>
  </clipPath>
 </defs>
</svg>
