<?xml version="1.0" encoding="utf-8" standalone="no"?>
<!DOCTYPE svg PUBLIC "-//W3C//DTD SVG 1.1//EN"
  "http://www.w3.org/Graphics/SVG/1.1/DTD/svg11.dtd">
<!-- Created with matplotlib (http://matplotlib.org/) -->
<svg height="356pt" version="1.1" viewBox="0 0 499 356" width="499pt" xmlns="http://www.w3.org/2000/svg" xmlns:xlink="http://www.w3.org/1999/xlink">
 <defs>
  <style type="text/css">
*{stroke-linecap:butt;stroke-linejoin:round;stroke-miterlimit:100000;}
  </style>
 </defs>
 <g id="figure_1">
  <g id="patch_1">
   <path d="M 0 356.40625 
L 499.313438 356.40625 
L 499.313438 0 
L 0 0 
z
" style="fill:#ffffff;"/>
  </g>
  <g id="axes_1">
   <g id="patch_2">
    <path d="M 70.8 303.429375 
L 427.92 303.429375 
L 427.92 26.949375 
L 70.8 26.949375 
z
" style="fill:#ffffff;"/>
   </g>
   <g id="line2d_1">
    <path d="M 41.90112 303.429375 
L 41.90112 257.977778 
L 70.8 257.977778 
L 70.8 234.735484 
L 87.704761 234.735484 
L 87.704761 217.691135 
L 99.69888 217.691135 
L 99.69888 210.460199 
L 109.002241 210.460199 
L 109.002241 209.943703 
L 116.60364 209.943703 
L 116.60364 205.81174 
L 123.030532 205.81174 
L 123.030532 203.229263 
L 128.597759 203.229263 
L 128.597759 196.514822 
L 133.508401 196.514822 
L 133.508401 194.448841 
L 137.90112 194.448841 
L 137.90112 191.349868 
L 141.874818 191.349868 
L 141.874818 185.151923 
L 145.50252 185.151923 
L 145.50252 178.437483 
L 148.839682 178.437483 
L 148.839682 174.822015 
L 151.929412 174.822015 
L 151.929412 172.756033 
L 154.805881 172.756033 
L 154.805881 168.107574 
L 157.496639 168.107574 
L 157.496639 164.492106 
L 160.024217 164.492106 
L 160.024217 162.94262 
L 162.407281 162.94262 
L 162.407281 159.843647 
L 168.834173 159.843647 
L 168.834173 159.327152 
L 170.773698 159.327152 
L 170.773698 155.195189 
L 174.4014 155.195189 
L 174.4014 148.480748 
L 176.103361 148.480748 
L 176.103361 146.931262 
L 177.738562 146.931262 
L 177.738562 139.700326 
L 180.828291 139.700326 
L 180.828291 137.634344 
L 182.291328 137.634344 
L 182.291328 135.051867 
L 183.704761 135.051867 
L 183.704761 129.886913 
L 185.071843 129.886913 
L 185.071843 123.688968 
L 186.395518 123.688968 
L 186.395518 123.172472 
L 190.131653 123.172472 
L 190.131653 118.524014 
L 191.30616 118.524014 
L 191.30616 108.194105 
L 192.448486 108.194105 
L 192.448486 107.67761 
L 196.728371 107.67761 
L 196.728371 106.644619 
L 198.714092 106.644619 
L 198.714092 105.095133 
L 200.609522 105.095133 
L 200.609522 104.578637 
L 202.422515 104.578637 
L 202.422515 102.512655 
L 203.300279 102.512655 
L 203.300279 101.99616 
L 204.159944 101.99616 
L 204.159944 101.479665 
L 205.002241 101.479665 
L 205.002241 100.963169 
L 206.637441 100.963169 
L 206.637441 98.897187 
L 208.210921 98.897187 
L 208.210921 93.215738 
L 208.975939 93.215738 
L 208.975939 92.699242 
L 210.465107 92.699242 
L 210.465107 91.666252 
L 211.190208 91.666252 
L 211.190208 90.633261 
L 211.902914 90.633261 
L 211.902914 89.60027 
L 212.60364 89.60027 
L 212.60364 88.567279 
L 213.292785 88.567279 
L 213.292785 88.050784 
L 213.970723 88.050784 
L 213.970723 85.468306 
L 214.637813 85.468306 
L 214.637813 84.435316 
L 217.821976 84.435316 
L 217.821976 83.402325 
L 220.780115 83.402325 
L 220.780115 81.852838 
L 221.347366 81.852838 
L 221.347366 79.270361 
L 223.00423 79.270361 
L 223.00423 76.171389 
L 224.073321 76.171389 
L 224.073321 74.621903 
L 225.115682 74.621903 
L 225.115682 74.105407 
L 225.62725 74.105407 
L 225.62725 72.555921 
L 226.132617 72.555921 
L 226.132617 70.489939 
L 226.631932 70.489939 
L 226.631932 63.259003 
L 228.094969 63.259003 
L 228.094969 62.226012 
L 228.571457 62.226012 
L 228.571457 60.676526 
L 229.969094 60.676526 
L 229.969094 54.995076 
L 230.424752 54.995076 
L 230.424752 54.478581 
L 232.631207 54.478581 
L 232.631207 53.962086 
L 233.058824 53.962086 
L 233.058824 52.929095 
L 233.90112 52.929095 
L 233.90112 52.412599 
L 236.721963 52.412599 
L 236.721963 50.346618 
L 237.109801 50.346618 
L 237.109801 49.313627 
L 237.494064 49.313627 
L 237.494064 46.73115 
L 239.728113 46.73115 
L 239.728113 46.214654 
L 243.536693 46.214654 
L 243.536693 45.181663 
L 244.839682 45.181663 
L 244.839682 44.148673 
L 246.720856 44.148673 
L 246.720856 43.115682 
L 250.805881 43.115682 
L 250.805881 42.082691 
L 251.358105 42.082691 
L 251.358105 40.016709 
L 252.972201 40.016709 
L 252.972201 39.500214 
L 256.268747 39.500214 
L 256.268747 38.983718 
L 256.511851 38.983718 
L 256.511851 37.950728 
L 258.638264 37.950728 
L 258.638264 35.884746 
L 259.774363 35.884746 
L 259.774363 35.36825 
L 260.661466 35.36825 
L 260.661466 34.33526 
L 264.435201 34.33526 
L 264.435201 32.269278 
L 264.635164 32.269278 
L 264.635164 31.752782 
L 266.008681 31.752782 
L 266.008681 30.719792 
L 306.611139 30.719792 
L 306.611139 29.686801 
L 358.8 29.686801 
L 358.8 29.686801 
" style="fill:none;stroke:#f5deb3;stroke-linecap:square;stroke-width:6.0;"/>
   </g>
   <g id="line2d_2"/>
   <g id="line2d_3">
    <path d="M 358.8 29.686801 
L 390.48 35.161652 
" style="fill:none;stroke:#f5deb3;stroke-linecap:square;stroke-width:6.0;"/>
    <defs>
     <path d="M -0 7.778175 
L 7.778175 0 
L 0 -7.778175 
L -7.778175 -0 
z
" id="m2d8c4ab734" style="stroke:#f5deb3;stroke-linejoin:miter;stroke-width:1.5;"/>
    </defs>
    <g>
     <use style="fill:#f5deb3;stroke:#f5deb3;stroke-linejoin:miter;stroke-width:1.5;" x="358.8" xlink:href="#m2d8c4ab734" y="29.6868007426"/>
     <use style="fill:#f5deb3;stroke:#f5deb3;stroke-linejoin:miter;stroke-width:1.5;" x="390.48" xlink:href="#m2d8c4ab734" y="35.1616522277"/>
    </g>
   </g>
   <g id="line2d_4">
    <defs>
     <path d="M 0 1.5 
C 0.397805 1.5 0.77937 1.341951 1.06066 1.06066 
C 1.341951 0.77937 1.5 0.397805 1.5 0 
C 1.5 -0.397805 1.341951 -0.77937 1.06066 -1.06066 
C 0.77937 -1.341951 0.397805 -1.5 0 -1.5 
C -0.397805 -1.5 -0.77937 -1.341951 -1.06066 -1.06066 
C -1.341951 -0.77937 -1.5 -0.397805 -1.5 0 
C -1.5 0.397805 -1.341951 0.77937 -1.06066 1.06066 
C -0.77937 1.341951 -0.397805 1.5 0 1.5 
z
" id="m97098bf3d1" style="stroke:#f5deb3;stroke-width:0.5;"/>
    </defs>
    <g>
     <use style="fill:#f5deb3;stroke:#f5deb3;stroke-width:0.5;" x="306.61113918" xlink:href="#m97098bf3d1" y="29.6868007426"/>
     <use style="fill:#f5deb3;stroke:#f5deb3;stroke-width:0.5;" x="306.61113918" xlink:href="#m97098bf3d1" y="29.6868007426"/>
    </g>
   </g>
   <g id="line2d_5">
    <g>
     <use style="fill:#f5deb3;stroke:#f5deb3;stroke-linejoin:miter;stroke-width:1.5;" x="70.8" xlink:href="#m2d8c4ab734" y="257.977777765"/>
     <use style="fill:#f5deb3;stroke:#f5deb3;stroke-linejoin:miter;stroke-width:1.5;" x="137.901120416" xlink:href="#m2d8c4ab734" y="191.349868181"/>
     <use style="fill:#f5deb3;stroke:#f5deb3;stroke-linejoin:miter;stroke-width:1.5;" x="182.291328215" xlink:href="#m2d8c4ab734" y="137.634344176"/>
     <use style="fill:#f5deb3;stroke:#f5deb3;stroke-linejoin:miter;stroke-width:1.5;" x="228.094968668" xlink:href="#m2d8c4ab734" y="63.2590032458"/>
     <use style="fill:#f5deb3;stroke:#f5deb3;stroke-linejoin:miter;stroke-width:1.5;" x="306.61113918" xlink:href="#m2d8c4ab734" y="30.7197915888"/>
     <use style="fill:#f5deb3;stroke:#f5deb3;stroke-linejoin:miter;stroke-width:1.5;" x="358.8" xlink:href="#m2d8c4ab734" y="29.6868007426"/>
    </g>
   </g>
   <g id="line2d_6">
    <defs>
     <path d="M 0 1.5 
C 0.397805 1.5 0.77937 1.341951 1.06066 1.06066 
C 1.341951 0.77937 1.5 0.397805 1.5 0 
C 1.5 -0.397805 1.341951 -0.77937 1.06066 -1.06066 
C 0.77937 -1.341951 0.397805 -1.5 0 -1.5 
C -0.397805 -1.5 -0.77937 -1.341951 -1.06066 -1.06066 
C -1.341951 -0.77937 -1.5 -0.397805 -1.5 0 
C -1.5 0.397805 -1.341951 0.77937 -1.06066 1.06066 
C -0.77937 1.341951 -0.397805 1.5 0 1.5 
z
" id="mcd14a4cfc9" style="stroke:#000080;stroke-width:0.5;"/>
    </defs>
    <g>
     <use style="fill:#000080;stroke:#000080;stroke-width:0.5;" x="423.819600104" xlink:href="#mcd14a4cfc9" y="45.1816634364"/>
     <use style="fill:#000080;stroke:#000080;stroke-width:0.5;" x="423.819600104" xlink:href="#mcd14a4cfc9" y="45.1816634364"/>
    </g>
   </g>
   <g id="line2d_7">
    <path d="M 41.90112 303.429375 
L 41.90112 261.593246 
L 70.8 261.593246 
L 70.8 243.515906 
L 87.704761 243.515906 
L 87.704761 227.504548 
L 99.69888 227.504548 
L 99.69888 222.339594 
L 109.002241 222.339594 
L 109.002241 218.724126 
L 116.60364 218.724126 
L 116.60364 210.460199 
L 123.030532 210.460199 
L 123.030532 203.745758 
L 128.597759 203.745758 
L 128.597759 197.031318 
L 133.508401 197.031318 
L 133.508401 194.965336 
L 137.90112 194.965336 
L 137.90112 192.382859 
L 141.874818 192.382859 
L 141.874818 187.217905 
L 145.50252 187.217905 
L 145.50252 186.701409 
L 148.839682 186.701409 
L 148.839682 183.602437 
L 151.929412 183.602437 
L 151.929412 179.986969 
L 154.805881 179.986969 
L 154.805881 177.920987 
L 157.496639 177.920987 
L 157.496639 177.404492 
L 160.024217 177.404492 
L 160.024217 175.855005 
L 164.661466 175.855005 
L 164.661466 174.822015 
L 166.8 174.822015 
L 166.8 173.272528 
L 168.834173 173.272528 
L 168.834173 171.723042 
L 170.773698 171.723042 
L 170.773698 169.65706 
L 172.626993 169.65706 
L 172.626993 169.140565 
L 174.4014 169.140565 
L 174.4014 167.591079 
L 180.828291 167.591079 
L 180.828291 166.558088 
L 182.291328 166.558088 
L 182.291328 165.008602 
L 183.704761 165.008602 
L 183.704761 162.94262 
L 185.071843 162.94262 
L 185.071843 161.393134 
L 186.395518 161.393134 
L 186.395518 157.26117 
L 187.678459 157.26117 
L 187.678459 156.744675 
L 188.923096 156.744675 
L 188.923096 155.711684 
L 191.30616 155.711684 
L 191.30616 155.195189 
L 192.448486 155.195189 
L 192.448486 153.645702 
L 193.560346 153.645702 
L 193.560346 151.579721 
L 195.69888 151.579721 
L 195.69888 151.063225 
L 196.728371 151.063225 
L 196.728371 150.54673 
L 199.672577 150.54673 
L 199.672577 150.030234 
L 201.525872 150.030234 
L 201.525872 149.513739 
L 203.300279 149.513739 
L 203.300279 146.931262 
L 205.002241 146.931262 
L 205.002241 146.414766 
L 205.827857 146.414766 
L 205.827857 145.898271 
L 206.637441 145.898271 
L 206.637441 144.86528 
L 207.431604 144.86528 
L 207.431604 143.832289 
L 210.465107 143.832289 
L 210.465107 142.799298 
L 211.190208 142.799298 
L 211.190208 141.766308 
L 212.60364 141.766308 
L 212.60364 139.700326 
L 213.292785 139.700326 
L 213.292785 139.18383 
L 213.970723 139.18383 
L 213.970723 137.117849 
L 220.780115 137.117849 
L 220.780115 136.601353 
L 221.347366 136.601353 
L 221.347366 135.568362 
L 221.907002 135.568362 
L 221.907002 134.535372 
L 222.459225 134.535372 
L 222.459225 132.46939 
L 225.62725 132.46939 
L 225.62725 131.436399 
L 226.132617 131.436399 
L 226.132617 130.919904 
L 226.631932 130.919904 
L 226.631932 129.370417 
L 229.969094 129.370417 
L 229.969094 128.337427 
L 233.90112 128.337427 
L 233.90112 127.820931 
L 235.536321 127.820931 
L 235.536321 127.304436 
L 238.996651 127.304436 
L 238.996651 126.78794 
L 246.103181 126.78794 
L 246.103181 125.754949 
L 246.720856 125.754949 
L 246.720856 125.238454 
L 250.805881 125.238454 
L 250.805881 123.688968 
L 252.441082 123.688968 
L 252.441082 123.172472 
L 258.867974 123.172472 
L 258.867974 122.655977 
L 259.096425 122.655977 
L 259.096425 122.139481 
L 263.214852 122.139481 
L 263.214852 121.622986 
L 264.032374 121.622986 
L 264.032374 120.589995 
L 264.435201 120.589995 
L 264.435201 116.974527 
L 264.834173 116.974527 
L 264.834173 116.458032 
L 265.620843 116.458032 
L 265.620843 115.941536 
L 266.201255 115.941536 
L 266.201255 115.425041 
L 266.962779 115.425041 
L 266.962779 114.908546 
L 267.338387 114.908546 
L 267.338387 113.875555 
L 268.626993 113.875555 
L 268.626993 112.842564 
L 270.052508 112.842564 
L 270.052508 112.326068 
L 274.058044 112.326068 
L 274.058044 111.809573 
L 275.772735 111.809573 
L 275.772735 111.293078 
L 275.925174 111.293078 
L 275.925174 110.260087 
L 276.077059 110.260087 
L 276.077059 108.7106 
L 277.272618 108.7106 
L 277.272618 107.67761 
L 278.434847 107.67761 
L 278.434847 106.644619 
L 278.577874 106.644619 
L 278.577874 105.611628 
L 281.473377 105.611628 
L 281.473377 104.578637 
L 286.131653 104.578637 
L 286.131653 103.545646 
L 292.31962 103.545646 
L 292.31962 103.029151 
L 292.524496 103.029151 
L 292.524496 102.512655 
L 293.434182 102.512655 
L 293.434182 101.99616 
L 294.029796 101.99616 
L 294.029796 101.479665 
L 294.714092 101.479665 
L 294.714092 99.930178 
L 294.90756 99.930178 
L 294.90756 99.413683 
L 295.482635 99.413683 
L 295.482635 98.380692 
L 296.702068 98.380692 
L 296.702068 97.864197 
L 298.68779 97.864197 
L 298.68779 96.831206 
L 301.334452 96.831206 
L 301.334452 95.798215 
L 302.072387 95.798215 
L 302.072387 93.215738 
L 303.510194 93.215738 
L 303.510194 92.699242 
L 304.975939 92.699242 
L 304.975939 92.182747 
L 307.333727 92.182747 
L 307.333727 91.666252 
L 309.565284 91.666252 
L 309.565284 91.149756 
L 309.768496 91.149756 
L 309.768496 90.633261 
L 310.037914 90.633261 
L 310.037914 90.116765 
L 310.76996 90.116765 
L 310.76996 89.60027 
L 311.033004 89.60027 
L 311.033004 89.083774 
L 311.163906 89.083774 
L 311.163906 85.984802 
L 313.576003 85.984802 
L 313.576003 85.468306 
L 315.797715 85.468306 
L 315.797715 83.91882 
L 316.837189 83.91882 
L 316.837189 83.402325 
L 317.907002 83.402325 
L 317.907002 82.369334 
L 321.012611 82.369334 
L 321.012611 81.852838 
L 321.321063 81.852838 
L 321.321063 81.336343 
L 325.136146 81.336343 
L 325.136146 80.819848 
L 325.69329 80.819848 
L 325.69329 79.786857 
L 326.106315 79.786857 
L 326.106315 78.237371 
L 327.762587 78.237371 
L 327.762587 77.720875 
L 329.143823 77.720875 
L 329.143823 77.20438 
L 331.133494 77.20438 
L 331.133494 76.687884 
L 333.532296 76.687884 
L 333.532296 75.654893 
L 334.364656 75.654893 
L 334.364656 74.105407 
L 336.872398 74.105407 
L 336.872398 73.588912 
L 338.089016 73.588912 
L 338.089016 73.072416 
L 338.802302 73.072416 
L 338.802302 72.039425 
L 340.775491 72.039425 
L 340.775491 71.52293 
L 341.254534 71.52293 
L 341.254534 71.006435 
L 343.329513 71.006435 
L 343.329513 70.489939 
L 344.81338 70.489939 
L 344.81338 69.973444 
L 344.987947 69.973444 
L 345.045973 68.423957 
L 345.736068 68.423957 
L 345.736068 67.907462 
L 346.105154 67.907462 
L 346.105154 67.390967 
L 347.165658 67.390967 
L 347.165658 66.357976 
L 350.424317 66.357976 
L 350.475255 64.80849 
L 351.802907 64.80849 
L 351.802907 64.291994 
L 355.278289 64.291994 
L 355.278289 63.259003 
L 356.945758 63.259003 
L 356.945758 62.742508 
L 358.8 62.742508 
L 358.8 62.742508 
" style="fill:none;stroke:#000080;stroke-linecap:square;stroke-width:1.5;"/>
   </g>
   <g id="line2d_8">
    <defs>
     <path d="M 0 6 
C 1.591219 6 3.117479 5.367802 4.242641 4.242641 
C 5.367802 3.117479 6 1.591219 6 0 
C 6 -1.591219 5.367802 -3.117479 4.242641 -4.242641 
C 3.117479 -5.367802 1.591219 -6 0 -6 
C -1.591219 -6 -3.117479 -5.367802 -4.242641 -4.242641 
C -5.367802 -3.117479 -6 -1.591219 -6 0 
C -6 1.591219 -5.367802 3.117479 -4.242641 4.242641 
C -3.117479 5.367802 -1.591219 6 0 6 
z
" id="m25cbe5217a" style="stroke:#000080;stroke-width:1.5;"/>
    </defs>
    <g>
     <use style="fill:none;stroke:#000080;stroke-width:1.5;" x="123.030532258" xlink:href="#m25cbe5217a" y="210.460198837"/>
     <use style="fill:none;stroke:#000080;stroke-width:1.5;" x="187.678458645" xlink:href="#m25cbe5217a" y="157.261170255"/>
     <use style="fill:none;stroke:#000080;stroke-width:1.5;" x="250.805881286" xlink:href="#m25cbe5217a" y="125.238454021"/>
     <use style="fill:none;stroke:#000080;stroke-width:1.5;" x="316.837188604" xlink:href="#m25cbe5217a" y="83.4023247478"/>
     <use style="fill:none;stroke:#000080;stroke-width:1.5;" x="356.945757539" xlink:href="#m25cbe5217a" y="62.7425078227"/>
     <use style="fill:none;stroke:#000080;stroke-width:1.5;" x="358.8" xlink:href="#m25cbe5217a" y="62.7425078227"/>
    </g>
   </g>
   <g id="line2d_9"/>
   <g id="line2d_10">
    <path clip-path="url(#p3a1436e9df)" d="M 262.8 122.139481 
" style="fill:none;stroke:#000080;stroke-linecap:square;"/>
    <defs>
     <path d="M -12 12 
L 12 -12 
M -12 -12 
L 12 12 
" id="m9357bf62ce" style="stroke:#000080;stroke-width:3.0;"/>
    </defs>
    <g clip-path="url(#p3a1436e9df)">
     <use style="fill:#000080;stroke:#000080;stroke-width:3.0;" x="262.8" xlink:href="#m9357bf62ce" y="122.139481482"/>
    </g>
   </g>
   <g id="line2d_11">
    <defs>
     <path d="M 0 1.5 
C 0.397805 1.5 0.77937 1.341951 1.06066 1.06066 
C 1.341951 0.77937 1.5 0.397805 1.5 0 
C 1.5 -0.397805 1.341951 -0.77937 1.06066 -1.06066 
C 0.77937 -1.341951 0.397805 -1.5 0 -1.5 
C -0.397805 -1.5 -0.77937 -1.341951 -1.06066 -1.06066 
C -1.341951 -0.77937 -1.5 -0.397805 -1.5 0 
C -1.5 0.397805 -1.341951 0.77937 -1.06066 1.06066 
C -0.77937 1.341951 -0.397805 1.5 0 1.5 
z
" id="m4fe1aa3c9d" style="stroke:#ff00ff;stroke-width:0.5;"/>
    </defs>
    <g>
     <use style="fill:#ff00ff;stroke:#ff00ff;stroke-width:0.5;" x="409.148259285" xlink:href="#m4fe1aa3c9d" y="50.8631130908"/>
     <use style="fill:#ff00ff;stroke:#ff00ff;stroke-width:0.5;" x="409.148259285" xlink:href="#m4fe1aa3c9d" y="50.8631130908"/>
    </g>
   </g>
   <g id="line2d_12">
    <path d="M 41.90112 303.429375 
L 41.90112 268.307686 
L 70.8 268.307686 
L 70.8 247.131374 
L 87.704761 247.131374 
L 87.704761 233.185997 
L 99.69888 233.185997 
L 99.69888 224.405575 
L 109.002241 224.405575 
L 109.002241 219.757116 
L 116.60364 219.757116 
L 116.60364 215.108658 
L 123.030532 215.108658 
L 123.030532 207.877722 
L 128.597759 207.877722 
L 128.597759 200.13029 
L 133.508401 200.13029 
L 133.508401 193.932345 
L 137.90112 193.932345 
L 137.90112 191.866364 
L 141.874818 191.866364 
L 141.874818 189.283886 
L 145.50252 189.283886 
L 145.50252 186.701409 
L 148.839682 186.701409 
L 148.839682 184.635428 
L 151.929412 184.635428 
L 151.929412 183.085941 
L 154.805881 183.085941 
L 154.805881 179.986969 
L 157.496639 179.986969 
L 157.496639 178.953978 
L 162.407281 178.953978 
L 162.407281 176.887996 
L 164.661466 176.887996 
L 164.661466 174.822015 
L 166.8 174.822015 
L 166.8 173.789024 
L 168.834173 173.789024 
L 168.834173 172.756033 
L 174.4014 172.756033 
L 174.4014 170.173556 
L 176.103361 170.173556 
L 176.103361 168.62407 
L 177.738562 168.62407 
L 177.738562 166.558088 
L 179.312042 166.558088 
L 179.312042 165.525097 
L 180.828291 165.525097 
L 180.828291 160.876638 
L 182.291328 160.876638 
L 182.291328 159.843647 
L 186.395518 159.843647 
L 186.395518 158.810657 
L 190.131653 158.810657 
L 190.131653 158.294161 
L 191.30616 158.294161 
L 191.30616 156.744675 
L 196.728371 156.744675 
L 196.728371 155.711684 
L 197.733052 155.711684 
L 197.733052 154.678693 
L 198.714092 154.678693 
L 198.714092 151.063225 
L 199.672577 151.063225 
L 199.672577 150.54673 
L 201.525872 150.54673 
L 201.525872 149.513739 
L 202.422515 149.513739 
L 202.422515 148.480748 
L 205.827857 148.480748 
L 205.827857 147.447757 
L 207.431604 147.447757 
L 207.431604 146.931262 
L 210.465107 146.931262 
L 210.465107 142.799298 
L 211.902914 142.799298 
L 211.902914 142.282803 
L 213.292785 142.282803 
L 213.292785 141.249812 
L 213.970723 141.249812 
L 213.970723 139.700326 
L 216.577338 139.700326 
L 216.577338 138.15084 
L 222.459225 138.15084 
L 222.459225 136.084858 
L 223.542202 136.084858 
L 223.542202 135.568362 
L 225.62725 135.568362 
L 225.62725 135.051867 
L 227.612972 135.051867 
L 227.612972 133.502381 
L 228.571457 133.502381 
L 228.571457 132.985885 
L 230.424752 132.985885 
L 230.424752 131.952895 
L 231.762587 131.952895 
L 231.762587 131.436399 
L 232.631207 131.436399 
L 232.631207 130.919904 
L 237.874818 130.919904 
L 237.874818 130.403408 
L 240.089087 130.403408 
L 240.089087 128.337427 
L 245.790878 128.337427 
L 245.790878 127.304436 
L 247.630541 127.304436 
L 247.630541 125.754949 
L 248.520801 125.754949 
L 248.520801 125.238454 
L 253.235244 125.238454 
L 253.235244 122.139481 
L 260.441454 122.139481 
L 260.441454 121.622986 
L 262.380979 121.622986 
L 262.380979 121.106491 
L 263.42074 121.106491 
L 263.42074 120.589995 
L 264.032374 120.589995 
L 264.032374 120.0735 
L 264.435201 120.0735 
L 264.435201 119.557004 
L 264.635164 119.557004 
L 264.635164 119.040509 
L 266.008681 119.040509 
L 266.008681 118.524014 
L 266.392944 118.524014 
L 266.392944 117.491023 
L 266.962779 117.491023 
L 266.962779 116.974527 
L 267.52493 116.974527 
L 267.52493 115.941536 
L 269.700673 115.941536 
L 269.700673 115.425041 
L 270.919323 115.425041 
L 270.919323 114.39205 
L 271.090544 114.39205 
L 271.090544 113.359059 
L 271.430891 113.359059 
L 271.430891 112.842564 
L 272.269798 112.842564 
L 272.269798 112.326068 
L 273.2547 112.326068 
L 273.2547 110.260087 
L 274.058044 110.260087 
L 274.058044 109.227096 
L 274.689758 109.227096 
L 274.689758 108.7106 
L 276.228392 108.7106 
L 276.228392 108.194105 
L 278.002799 108.194105 
L 278.002799 106.644619 
L 278.434847 106.644619 
L 278.434847 106.128123 
L 278.577874 106.128123 
L 278.577874 105.095133 
L 279.004034 105.095133 
L 279.004034 104.578637 
L 279.704761 104.578637 
L 279.704761 103.029151 
L 281.87108 103.029151 
L 281.87108 101.99616 
L 287.190187 101.99616 
L 287.190187 100.963169 
L 290.213502 100.963169 
L 290.213502 100.446674 
L 290.536282 100.446674 
L 290.536282 99.930178 
L 291.489895 99.930178 
L 291.489895 99.413683 
L 292.31962 99.413683 
L 292.31962 98.897187 
L 292.524496 98.897187 
L 292.524496 98.380692 
L 293.534043 98.380692 
L 293.534043 97.864197 
L 294.128243 97.864197 
L 294.128243 97.347701 
L 295.861658 97.347701 
L 295.861658 96.831206 
L 296.049886 96.831206 
L 296.049886 95.798215 
L 297.253076 95.798215 
L 297.253076 95.281719 
L 297.70675 95.281719 
L 297.70675 94.248729 
L 298.066168 94.248729 
L 298.066168 93.732233 
L 299.989423 93.732233 
L 299.989423 93.215738 
L 300.498908 93.215738 
L 300.498908 92.699242 
L 304.133642 92.699242 
L 304.133642 91.666252 
L 304.365052 91.666252 
L 304.365052 91.149756 
L 305.652654 91.149756 
L 305.652654 90.633261 
L 309.836014 90.633261 
L 309.836014 90.116765 
L 310.238841 90.116765 
L 310.238841 88.567279 
L 311.424483 88.567279 
L 311.424483 88.050784 
L 313.576003 88.050784 
L 313.576003 87.534288 
L 314.491013 87.534288 
L 314.551305 85.984802 
L 320.020513 85.984802 
L 320.020513 85.468306 
L 322.780568 85.468306 
L 322.829995 83.91882 
L 323.174358 83.91882 
L 323.174358 83.402325 
L 323.467279 83.402325 
L 323.467279 82.885829 
L 325.08938 82.885829 
L 325.136146 81.336343 
L 325.508401 81.336343 
L 325.508401 80.819848 
L 328.155707 80.819848 
L 328.155707 80.303352 
L 330.233331 80.303352 
L 330.233331 79.786857 
L 330.644907 79.786857 
L 330.644907 79.270361 
L 331.974981 79.270361 
L 331.974981 78.753866 
L 332.212319 78.753866 
L 332.212319 78.237371 
L 333.532296 78.237371 
L 333.570494 77.20438 
L 333.760957 77.20438 
L 333.760957 76.687884 
L 336.05313 76.687884 
L 336.05313 75.654893 
L 337.606621 75.654893 
L 337.606621 75.138398 
L 337.779546 75.138398 
L 337.779546 74.621903 
L 339.437307 74.621903 
L 339.437307 73.588912 
L 340.839682 73.588912 
L 340.839682 73.072416 
L 345.736068 73.072416 
L 345.736068 72.555921 
L 346.554974 72.555921 
L 346.582927 71.52293 
L 350.117379 71.52293 
L 350.117379 71.006435 
L 353.446641 71.006435 
L 353.446641 70.489939 
L 355.391553 70.489939 
L 355.391553 69.973444 
L 355.796772 69.973444 
L 355.796772 69.456948 
L 356.397311 69.456948 
L 356.397311 68.940453 
L 358.8 68.940453 
L 358.8 68.940453 
" style="fill:none;stroke:#ff00ff;stroke-linecap:square;stroke-width:1.5;"/>
   </g>
   <g id="line2d_13">
    <defs>
     <path d="M -0 8.485281 
L 5.091169 0 
L 0 -8.485281 
L -5.091169 -0 
z
" id="m29313abdeb" style="stroke:#ff00ff;stroke-linejoin:miter;stroke-width:1.5;"/>
    </defs>
    <g>
     <use style="fill:none;stroke:#ff00ff;stroke-linejoin:miter;stroke-width:1.5;" x="70.8" xlink:href="#m29313abdeb" y="247.131373879"/>
     <use style="fill:none;stroke:#ff00ff;stroke-linejoin:miter;stroke-width:1.5;" x="137.901120416" xlink:href="#m29313abdeb" y="191.866363605"/>
     <use style="fill:none;stroke:#ff00ff;stroke-linejoin:miter;stroke-width:1.5;" x="197.733052294" xlink:href="#m29313abdeb" y="155.711683986"/>
     <use style="fill:none;stroke:#ff00ff;stroke-linejoin:miter;stroke-width:1.5;" x="272.269797678" xlink:href="#m29313abdeb" y="112.842563866"/>
     <use style="fill:none;stroke:#ff00ff;stroke-linejoin:miter;stroke-width:1.5;" x="339.437307074" xlink:href="#m29313abdeb" y="73.5889117084"/>
     <use style="fill:none;stroke:#ff00ff;stroke-linejoin:miter;stroke-width:1.5;" x="358.8" xlink:href="#m29313abdeb" y="68.9404529002"/>
    </g>
   </g>
   <g id="line2d_14"/>
   <g id="line2d_15">
    <path clip-path="url(#p3a1436e9df)" d="M 262.8 121.106491 
" style="fill:none;stroke:#ff00ff;stroke-linecap:square;"/>
    <defs>
     <path d="M -12 12 
L 12 -12 
M -12 -12 
L 12 12 
" id="mee337e66d7" style="stroke:#ff00ff;stroke-width:3.0;"/>
    </defs>
    <g clip-path="url(#p3a1436e9df)">
     <use style="fill:#ff00ff;stroke:#ff00ff;stroke-width:3.0;" x="262.8" xlink:href="#mee337e66d7" y="121.106490636"/>
    </g>
   </g>
   <g id="line2d_16">
    <defs>
     <path d="M 0 1.5 
C 0.397805 1.5 0.77937 1.341951 1.06066 1.06066 
C 1.341951 0.77937 1.5 0.397805 1.5 0 
C 1.5 -0.397805 1.341951 -0.77937 1.06066 -1.06066 
C 0.77937 -1.341951 0.397805 -1.5 0 -1.5 
C -0.397805 -1.5 -0.77937 -1.341951 -1.06066 -1.06066 
C -1.341951 -0.77937 -1.5 -0.397805 -1.5 0 
C -1.5 0.397805 -1.341951 0.77937 -1.06066 1.06066 
C -0.77937 1.341951 -0.397805 1.5 0 1.5 
z
" id="m1891907e5e" style="stroke:#ffa500;stroke-width:0.5;"/>
    </defs>
    <g>
     <use style="fill:#ffa500;stroke:#ffa500;stroke-width:0.5;" x="424.484812333" xlink:href="#m1891907e5e" y="35.8847458201"/>
     <use style="fill:#ffa500;stroke:#ffa500;stroke-width:0.5;" x="424.484812333" xlink:href="#m1891907e5e" y="35.8847458201"/>
    </g>
   </g>
   <g id="line2d_17">
    <path d="M 41.90112 303.429375 
L 41.90112 266.241705 
L 70.8 266.241705 
L 70.8 254.878805 
L 87.704761 254.878805 
L 87.704761 237.317961 
L 99.69888 237.317961 
L 99.69888 223.372584 
L 109.002241 223.372584 
L 109.002241 218.724126 
L 116.60364 218.724126 
L 116.60364 213.042676 
L 123.030532 213.042676 
L 123.030532 209.943703 
L 128.597759 209.943703 
L 128.597759 208.394217 
L 133.508401 208.394217 
L 133.508401 205.295245 
L 137.90112 205.295245 
L 137.90112 198.064309 
L 141.874818 198.064309 
L 141.874818 195.998327 
L 145.50252 195.998327 
L 145.50252 193.932345 
L 151.929412 193.932345 
L 151.929412 188.767391 
L 154.805881 188.767391 
L 154.805881 186.701409 
L 157.496639 186.701409 
L 157.496639 186.184914 
L 162.407281 186.184914 
L 162.407281 185.151923 
L 164.661466 185.151923 
L 164.661466 181.01996 
L 166.8 181.01996 
L 166.8 178.953978 
L 170.773698 178.953978 
L 170.773698 175.33851 
L 172.626993 175.33851 
L 172.626993 174.305519 
L 174.4014 174.305519 
L 174.4014 173.789024 
L 177.738562 173.789024 
L 177.738562 170.690051 
L 180.828291 170.690051 
L 180.828291 169.65706 
L 183.704761 169.65706 
L 183.704761 166.041592 
L 185.071843 166.041592 
L 185.071843 164.492106 
L 186.395518 164.492106 
L 186.395518 161.393134 
L 187.678459 161.393134 
L 187.678459 160.876638 
L 192.448486 160.876638 
L 192.448486 159.843647 
L 195.69888 159.843647 
L 195.69888 158.294161 
L 198.714092 158.294161 
L 198.714092 157.777666 
L 199.672577 157.777666 
L 199.672577 157.26117 
L 201.525872 157.26117 
L 201.525872 155.711684 
L 203.300279 155.711684 
L 203.300279 155.195189 
L 204.159944 155.195189 
L 204.159944 154.678693 
L 205.002241 154.678693 
L 205.002241 154.162198 
L 208.975939 154.162198 
L 208.975939 153.129207 
L 209.727171 153.129207 
L 209.727171 152.612711 
L 211.190208 152.612711 
L 211.190208 152.096216 
L 214.637813 152.096216 
L 214.637813 150.54673 
L 215.294398 150.54673 
L 215.294398 150.030234 
L 216.577338 150.030234 
L 216.577338 147.447757 
L 217.204301 147.447757 
L 217.204301 146.931262 
L 217.821976 146.931262 
L 217.821976 145.898271 
L 218.430633 145.898271 
L 218.430633 144.348785 
L 222.459225 144.348785 
L 222.459225 143.832289 
L 223.00423 143.832289 
L 223.00423 143.315794 
L 225.62725 143.315794 
L 225.62725 141.249812 
L 226.132617 141.249812 
L 226.132617 139.18383 
L 226.631932 139.18383 
L 226.631932 138.667335 
L 228.571457 138.667335 
L 228.571457 138.15084 
L 229.969094 138.15084 
L 229.969094 134.018876 
L 231.321394 134.018876 
L 231.321394 133.502381 
L 233.058824 133.502381 
L 233.058824 132.46939 
L 234.726737 132.46939 
L 234.726737 129.886913 
L 240.089087 129.886913 
L 240.089087 128.337427 
L 242.532011 128.337427 
L 242.532011 127.820931 
L 246.103181 127.820931 
L 246.103181 127.304436 
L 248.226155 127.304436 
L 248.226155 126.78794 
L 250.805881 126.78794 
L 250.805881 126.271445 
L 253.756405 126.271445 
L 253.756405 125.754949 
L 255.281902 125.754949 
L 255.281902 124.205463 
L 261.744443 124.205463 
L 261.744443 123.688968 
L 264.834173 123.688968 
L 264.834173 122.139481 
L 265.229363 122.139481 
L 265.229363 121.622986 
L 266.583755 121.622986 
L 266.583755 120.589995 
L 267.151006 120.589995 
L 267.151006 118.524014 
L 267.895531 118.524014 
L 267.895531 117.491023 
L 268.80787 117.491023 
L 268.80787 116.974527 
L 270.574757 116.974527 
L 270.574757 116.458032 
L 270.747396 116.458032 
L 270.747396 115.941536 
L 270.919323 115.941536 
L 270.919323 114.908546 
L 271.430891 114.908546 
L 271.430891 113.359059 
L 271.936258 113.359059 
L 271.936258 112.842564 
L 272.928978 112.842564 
L 272.928978 110.776582 
L 273.416612 110.776582 
L 273.416612 110.260087 
L 273.577898 110.260087 
L 273.577898 109.743591 
L 274.375097 109.743591 
L 274.375097 109.227096 
L 274.689758 109.227096 
L 274.689758 107.67761 
L 275.157339 107.67761 
L 275.157339 107.161114 
L 277.125035 107.161114 
L 277.125035 105.611628 
L 277.272618 105.611628 
L 277.272618 104.578637 
L 278.002799 104.578637 
L 278.002799 103.545646 
L 278.434847 103.545646 
L 278.434847 101.99616 
L 279.425882 101.99616 
L 279.425882 101.479665 
L 279.843504 101.479665 
L 279.843504 100.963169 
L 281.87108 100.963169 
L 281.87108 99.413683 
L 287.421812 99.413683 
L 287.421812 98.380692 
L 288.109063 98.380692 
L 288.109063 97.864197 
L 292.728371 97.864197 
L 292.728371 94.765224 
L 293.633667 94.765224 
L 293.633667 93.732233 
L 297.070214 93.732233 
L 297.070214 93.215738 
L 297.796896 93.215738 
L 297.796896 92.699242 
L 298.066168 92.699242 
L 298.066168 91.149756 
L 299.473636 91.149756 
L 299.560045 90.116765 
L 300.244944 90.116765 
L 300.244944 89.60027 
L 300.835137 89.60027 
L 300.835137 88.567279 
L 302.315492 88.567279 
L 302.315492 87.534288 
L 309.292785 87.534288 
L 309.292785 85.468306 
L 310.372256 85.468306 
L 310.372256 84.435316 
L 310.76996 84.435316 
L 310.76996 83.91882 
L 311.683442 83.91882 
L 311.683442 82.885829 
L 312.829256 82.885829 
L 312.829256 82.369334 
L 312.954646 82.369334 
L 312.954646 81.336343 
L 314.005508 81.336343 
L 314.005508 80.819848 
L 314.911241 80.819848 
L 314.911241 80.303352 
L 315.972771 80.303352 
L 315.972771 79.786857 
L 318.514047 79.786857 
L 318.514047 79.270361 
L 321.115682 79.270361 
L 321.115682 77.20438 
L 321.321063 77.20438 
L 321.321063 76.687884 
L 321.576375 76.687884 
L 321.576375 76.171389 
L 321.931205 76.171389 
L 321.931205 74.621903 
L 322.928675 74.621903 
L 322.928675 73.588912 
L 323.125337 73.588912 
L 323.125337 73.072416 
L 323.5159 73.072416 
L 323.5159 72.555921 
L 323.902838 72.555921 
L 323.902838 72.039425 
L 326.243086 72.039425 
L 326.243086 71.006435 
L 328.242566 71.006435 
L 328.242566 70.489939 
L 330.315972 70.489939 
L 330.315972 69.456948 
L 330.685842 69.456948 
L 330.685842 68.940453 
L 331.776162 68.940453 
L 331.776162 68.423957 
L 332.251745 68.423957 
L 332.251745 67.907462 
L 332.487517 67.907462 
L 332.487517 67.390967 
L 333.532296 67.390967 
L 333.532296 66.874471 
L 333.798945 66.874471 
L 333.798945 66.357976 
L 336.125014 66.357976 
L 336.125014 65.324985 
L 338.157476 65.324985 
L 338.157476 64.80849 
L 339.070852 64.80849 
L 339.070852 63.775499 
L 339.734756 63.775499 
L 339.734756 63.259003 
L 340.290879 63.259003 
L 340.290879 62.742508 
L 340.55004 62.742508 
L 340.55004 62.226012 
L 340.775491 62.226012 
L 340.775491 61.709517 
L 341.349686 61.709517 
L 341.349686 61.193022 
L 342.7515 61.193022 
L 342.7515 60.676526 
L 344.226155 60.676526 
L 344.226155 60.160031 
L 344.49143 60.160031 
L 344.49143 59.643535 
L 345.392449 59.643535 
L 345.392449 59.12704 
L 345.849982 59.12704 
L 345.849982 58.610544 
L 346.554974 58.610544 
L 346.554974 58.094049 
L 347.248244 58.094049 
L 347.248244 57.577554 
L 349.756405 57.577554 
L 349.756405 57.061058 
L 351.18192 57.061058 
L 351.18192 56.544563 
L 352.41478 56.544563 
L 352.41478 55.511572 
L 353.494019 55.511572 
L 353.494019 54.995076 
L 354.84506 54.995076 
L 354.84506 54.478581 
L 357.011089 54.478581 
L 357.011089 53.962086 
L 358.8 53.962086 
L 358.8 53.962086 
" style="fill:none;stroke:#ffa500;stroke-linecap:square;stroke-width:1.5;"/>
   </g>
   <g id="line2d_18">
    <defs>
     <path d="M 0 -6 
L -1.347084 -1.854102 
L -5.706339 -1.854102 
L -2.179628 0.708204 
L -3.526712 4.854102 
L -0 2.291796 
L 3.526712 4.854102 
L 2.179628 0.708204 
L 5.706339 -1.854102 
L 1.347084 -1.854102 
z
" id="m5e93544522" style="stroke:#ffa500;stroke-linejoin:bevel;stroke-width:1.5;"/>
    </defs>
    <g>
     <use style="fill:none;stroke:#ffa500;stroke-linejoin:bevel;stroke-width:1.5;" x="70.8" xlink:href="#m5e93544522" y="254.878805226"/>
     <use style="fill:none;stroke:#ffa500;stroke-linejoin:bevel;stroke-width:1.5;" x="154.805881286" xlink:href="#m5e93544522" y="186.701409373"/>
     <use style="fill:none;stroke:#ffa500;stroke-linejoin:bevel;stroke-width:1.5;" x="223.004230033" xlink:href="#m5e93544522" y="143.315793831"/>
     <use style="fill:none;stroke:#ffa500;stroke-linejoin:bevel;stroke-width:1.5;" x="279.843503993" xlink:href="#m5e93544522" y="100.963169134"/>
     <use style="fill:none;stroke:#ffa500;stroke-linejoin:bevel;stroke-width:1.5;" x="353.494018589" xlink:href="#m5e93544522" y="54.9950764758"/>
     <use style="fill:none;stroke:#ffa500;stroke-linejoin:bevel;stroke-width:1.5;" x="358.8" xlink:href="#m5e93544522" y="53.9620856296"/>
    </g>
   </g>
   <g id="line2d_19"/>
   <g id="line2d_20">
    <path clip-path="url(#p3a1436e9df)" d="M 262.8 123.688968 
" style="fill:none;stroke:#ffa500;stroke-linecap:square;"/>
    <defs>
     <path d="M -12 12 
L 12 -12 
M -12 -12 
L 12 12 
" id="m0f3d7738cf" style="stroke:#ffa500;stroke-width:3.0;"/>
    </defs>
    <g clip-path="url(#p3a1436e9df)">
     <use style="fill:#ffa500;stroke:#ffa500;stroke-width:3.0;" x="262.8" xlink:href="#m0f3d7738cf" y="123.688967752"/>
    </g>
   </g>
   <g id="line2d_21">
    <path d="M 358.8 68.940453 
L 390.48 297.954524 
" style="fill:none;stroke:#ff00ff;stroke-linecap:square;stroke-width:1.5;"/>
    <g>
     <use style="fill:none;stroke:#ff00ff;stroke-linejoin:miter;stroke-width:1.5;" x="358.8" xlink:href="#m29313abdeb" y="68.9404529002"/>
     <use style="fill:none;stroke:#ff00ff;stroke-linejoin:miter;stroke-width:1.5;" x="390.48" xlink:href="#m29313abdeb" y="297.954523515"/>
    </g>
   </g>
   <g id="line2d_22">
    <path d="M 358.8 62.742508 
L 390.48 210.3569 
" style="fill:none;stroke:#000080;stroke-linecap:square;stroke-width:1.5;"/>
    <g>
     <use style="fill:none;stroke:#000080;stroke-width:1.5;" x="358.8" xlink:href="#m25cbe5217a" y="62.7425078227"/>
     <use style="fill:none;stroke:#000080;stroke-width:1.5;" x="390.48" xlink:href="#m25cbe5217a" y="210.356899752"/>
    </g>
   </g>
   <g id="line2d_23">
    <path d="M 358.8 53.962086 
L 390.48 122.759276 
" style="fill:none;stroke:#ffa500;stroke-linecap:square;stroke-width:1.5;"/>
    <g>
     <use style="fill:none;stroke:#ffa500;stroke-linejoin:bevel;stroke-width:1.5;" x="358.8" xlink:href="#m5e93544522" y="53.9620856296"/>
     <use style="fill:none;stroke:#ffa500;stroke-linejoin:bevel;stroke-width:1.5;" x="390.48" xlink:href="#m5e93544522" y="122.75927599"/>
    </g>
   </g>
   <g id="line2d_24">
    <path d="M 358.8 303.429375 
L 358.8 29.686801 
" style="fill:none;stroke:#000000;stroke-linecap:square;"/>
   </g>
   <g id="patch_3">
    <path d="M 70.8 26.949375 
L 427.92 26.949375 
" style="fill:none;stroke:#000000;stroke-linecap:square;stroke-linejoin:miter;"/>
   </g>
   <g id="patch_4">
    <path d="M 427.92 303.429375 
L 427.92 26.949375 
" style="fill:none;stroke:#000000;stroke-linecap:square;stroke-linejoin:miter;"/>
   </g>
   <g id="patch_5">
    <path d="M 70.8 303.429375 
L 427.92 303.429375 
" style="fill:none;stroke:#000000;stroke-linecap:square;stroke-linejoin:miter;"/>
   </g>
   <g id="patch_6">
    <path d="M 70.8 303.429375 
L 70.8 26.949375 
" style="fill:none;stroke:#000000;stroke-linecap:square;stroke-linejoin:miter;"/>
   </g>
   <g id="matplotlib.axis_1">
    <g id="xtick_1">
     <g id="line2d_25">
      <path clip-path="url(#p3a1436e9df)" d="M 70.8 303.429375 
L 70.8 26.949375 
" style="fill:none;stroke:#000000;stroke-dasharray:1.000000,3.000000;stroke-dashoffset:0.0;stroke-width:0.5;"/>
     </g>
     <g id="line2d_26">
      <defs>
       <path d="M 0 0 
L 0 -4 
" id="m8b9ed9744d" style="stroke:#000000;stroke-width:0.5;"/>
      </defs>
      <g>
       <use style="stroke:#000000;stroke-width:0.5;" x="70.8" xlink:href="#m8b9ed9744d" y="303.429375"/>
      </g>
     </g>
     <g id="line2d_27">
      <defs>
       <path d="M 0 0 
L 0 4 
" id="mb05f0eecff" style="stroke:#000000;stroke-width:0.5;"/>
      </defs>
      <g>
       <use style="stroke:#000000;stroke-width:0.5;" x="70.8" xlink:href="#mb05f0eecff" y="26.949375"/>
      </g>
     </g>
     <g id="text_1">
      <!-- 0 -->
      <defs>
       <path d="M 31.78125 66.40625 
Q 24.171875 66.40625 20.328125 58.90625 
Q 16.5 51.421875 16.5 36.375 
Q 16.5 21.390625 20.328125 13.890625 
Q 24.171875 6.390625 31.78125 6.390625 
Q 39.453125 6.390625 43.28125 13.890625 
Q 47.125 21.390625 47.125 36.375 
Q 47.125 51.421875 43.28125 58.90625 
Q 39.453125 66.40625 31.78125 66.40625 
M 31.78125 74.21875 
Q 44.046875 74.21875 50.515625 64.515625 
Q 56.984375 54.828125 56.984375 36.375 
Q 56.984375 17.96875 50.515625 8.265625 
Q 44.046875 -1.421875 31.78125 -1.421875 
Q 19.53125 -1.421875 13.0625 8.265625 
Q 6.59375 17.96875 6.59375 36.375 
Q 6.59375 54.828125 13.0625 64.515625 
Q 19.53125 74.21875 31.78125 74.21875 
" id="BitstreamVeraSans-Roman-30"/>
      </defs>
      <g transform="translate(64.4375 322.62625)scale(0.2 -0.2)">
       <use xlink:href="#BitstreamVeraSans-Roman-30"/>
      </g>
     </g>
    </g>
    <g id="xtick_2">
     <g id="line2d_28">
      <path clip-path="url(#p3a1436e9df)" d="M 166.8 303.429375 
L 166.8 26.949375 
" style="fill:none;stroke:#000000;stroke-dasharray:1.000000,3.000000;stroke-dashoffset:0.0;stroke-width:0.5;"/>
     </g>
     <g id="line2d_29">
      <g>
       <use style="stroke:#000000;stroke-width:0.5;" x="166.8" xlink:href="#m8b9ed9744d" y="303.429375"/>
      </g>
     </g>
     <g id="line2d_30">
      <g>
       <use style="stroke:#000000;stroke-width:0.5;" x="166.8" xlink:href="#mb05f0eecff" y="26.949375"/>
      </g>
     </g>
     <g id="text_2">
      <!-- 1 -->
      <defs>
       <path d="M 12.40625 8.296875 
L 28.515625 8.296875 
L 28.515625 63.921875 
L 10.984375 60.40625 
L 10.984375 69.390625 
L 28.421875 72.90625 
L 38.28125 72.90625 
L 38.28125 8.296875 
L 54.390625 8.296875 
L 54.390625 0 
L 12.40625 0 
z
" id="BitstreamVeraSans-Roman-31"/>
      </defs>
      <g transform="translate(160.4375 322.62625)scale(0.2 -0.2)">
       <use xlink:href="#BitstreamVeraSans-Roman-31"/>
      </g>
     </g>
    </g>
    <g id="xtick_3">
     <g id="line2d_31">
      <path clip-path="url(#p3a1436e9df)" d="M 262.8 303.429375 
L 262.8 26.949375 
" style="fill:none;stroke:#000000;stroke-dasharray:1.000000,3.000000;stroke-dashoffset:0.0;stroke-width:0.5;"/>
     </g>
     <g id="line2d_32">
      <g>
       <use style="stroke:#000000;stroke-width:0.5;" x="262.8" xlink:href="#m8b9ed9744d" y="303.429375"/>
      </g>
     </g>
     <g id="line2d_33">
      <g>
       <use style="stroke:#000000;stroke-width:0.5;" x="262.8" xlink:href="#mb05f0eecff" y="26.949375"/>
      </g>
     </g>
     <g id="text_3">
      <!-- 2 -->
      <defs>
       <path d="M 19.1875 8.296875 
L 53.609375 8.296875 
L 53.609375 0 
L 7.328125 0 
L 7.328125 8.296875 
Q 12.9375 14.109375 22.625 23.890625 
Q 32.328125 33.6875 34.8125 36.53125 
Q 39.546875 41.84375 41.421875 45.53125 
Q 43.3125 49.21875 43.3125 52.78125 
Q 43.3125 58.59375 39.234375 62.25 
Q 35.15625 65.921875 28.609375 65.921875 
Q 23.96875 65.921875 18.8125 64.3125 
Q 13.671875 62.703125 7.8125 59.421875 
L 7.8125 69.390625 
Q 13.765625 71.78125 18.9375 73 
Q 24.125 74.21875 28.421875 74.21875 
Q 39.75 74.21875 46.484375 68.546875 
Q 53.21875 62.890625 53.21875 53.421875 
Q 53.21875 48.921875 51.53125 44.890625 
Q 49.859375 40.875 45.40625 35.40625 
Q 44.1875 33.984375 37.640625 27.21875 
Q 31.109375 20.453125 19.1875 8.296875 
" id="BitstreamVeraSans-Roman-32"/>
      </defs>
      <g transform="translate(256.4375 322.62625)scale(0.2 -0.2)">
       <use xlink:href="#BitstreamVeraSans-Roman-32"/>
      </g>
     </g>
    </g>
    <g id="xtick_4">
     <g id="line2d_34">
      <path clip-path="url(#p3a1436e9df)" d="M 358.8 303.429375 
L 358.8 26.949375 
" style="fill:none;stroke:#000000;stroke-dasharray:1.000000,3.000000;stroke-dashoffset:0.0;stroke-width:0.5;"/>
     </g>
     <g id="line2d_35">
      <g>
       <use style="stroke:#000000;stroke-width:0.5;" x="358.8" xlink:href="#m8b9ed9744d" y="303.429375"/>
      </g>
     </g>
     <g id="line2d_36">
      <g>
       <use style="stroke:#000000;stroke-width:0.5;" x="358.8" xlink:href="#mb05f0eecff" y="26.949375"/>
      </g>
     </g>
     <g id="text_4">
      <!-- 3 -->
      <defs>
       <path d="M 40.578125 39.3125 
Q 47.65625 37.796875 51.625 33 
Q 55.609375 28.21875 55.609375 21.1875 
Q 55.609375 10.40625 48.1875 4.484375 
Q 40.765625 -1.421875 27.09375 -1.421875 
Q 22.515625 -1.421875 17.65625 -0.515625 
Q 12.796875 0.390625 7.625 2.203125 
L 7.625 11.71875 
Q 11.71875 9.328125 16.59375 8.109375 
Q 21.484375 6.890625 26.8125 6.890625 
Q 36.078125 6.890625 40.9375 10.546875 
Q 45.796875 14.203125 45.796875 21.1875 
Q 45.796875 27.640625 41.28125 31.265625 
Q 36.765625 34.90625 28.71875 34.90625 
L 20.21875 34.90625 
L 20.21875 43.015625 
L 29.109375 43.015625 
Q 36.375 43.015625 40.234375 45.921875 
Q 44.09375 48.828125 44.09375 54.296875 
Q 44.09375 59.90625 40.109375 62.90625 
Q 36.140625 65.921875 28.71875 65.921875 
Q 24.65625 65.921875 20.015625 65.03125 
Q 15.375 64.15625 9.8125 62.3125 
L 9.8125 71.09375 
Q 15.4375 72.65625 20.34375 73.4375 
Q 25.25 74.21875 29.59375 74.21875 
Q 40.828125 74.21875 47.359375 69.109375 
Q 53.90625 64.015625 53.90625 55.328125 
Q 53.90625 49.265625 50.4375 45.09375 
Q 46.96875 40.921875 40.578125 39.3125 
" id="BitstreamVeraSans-Roman-33"/>
      </defs>
      <g transform="translate(352.4375 322.62625)scale(0.2 -0.2)">
       <use xlink:href="#BitstreamVeraSans-Roman-33"/>
      </g>
     </g>
    </g>
    <g id="xtick_5">
     <g id="line2d_37">
      <defs>
       <path d="M 0 0 
L 0 -2 
" id="me40fd67591" style="stroke:#000000;stroke-width:0.5;"/>
      </defs>
      <g>
       <use style="stroke:#000000;stroke-width:0.5;" x="99.6988795837" xlink:href="#me40fd67591" y="303.429375"/>
      </g>
     </g>
     <g id="line2d_38">
      <defs>
       <path d="M 0 0 
L 0 2 
" id="m40f46a7383" style="stroke:#000000;stroke-width:0.5;"/>
      </defs>
      <g>
       <use style="stroke:#000000;stroke-width:0.5;" x="99.6988795837" xlink:href="#m40f46a7383" y="26.949375"/>
      </g>
     </g>
    </g>
    <g id="xtick_6">
     <g id="line2d_39">
      <g>
       <use style="stroke:#000000;stroke-width:0.5;" x="116.603640453" xlink:href="#me40fd67591" y="303.429375"/>
      </g>
     </g>
     <g id="line2d_40">
      <g>
       <use style="stroke:#000000;stroke-width:0.5;" x="116.603640453" xlink:href="#m40f46a7383" y="26.949375"/>
      </g>
     </g>
    </g>
    <g id="xtick_7">
     <g id="line2d_41">
      <g>
       <use style="stroke:#000000;stroke-width:0.5;" x="128.597759167" xlink:href="#me40fd67591" y="303.429375"/>
      </g>
     </g>
     <g id="line2d_42">
      <g>
       <use style="stroke:#000000;stroke-width:0.5;" x="128.597759167" xlink:href="#m40f46a7383" y="26.949375"/>
      </g>
     </g>
    </g>
    <g id="xtick_8">
     <g id="line2d_43">
      <g>
       <use style="stroke:#000000;stroke-width:0.5;" x="137.901120416" xlink:href="#me40fd67591" y="303.429375"/>
      </g>
     </g>
     <g id="line2d_44">
      <g>
       <use style="stroke:#000000;stroke-width:0.5;" x="137.901120416" xlink:href="#m40f46a7383" y="26.949375"/>
      </g>
     </g>
    </g>
    <g id="xtick_9">
     <g id="line2d_45">
      <g>
       <use style="stroke:#000000;stroke-width:0.5;" x="145.502520037" xlink:href="#me40fd67591" y="303.429375"/>
      </g>
     </g>
     <g id="line2d_46">
      <g>
       <use style="stroke:#000000;stroke-width:0.5;" x="145.502520037" xlink:href="#m40f46a7383" y="26.949375"/>
      </g>
     </g>
    </g>
    <g id="xtick_10">
     <g id="line2d_47">
      <g>
       <use style="stroke:#000000;stroke-width:0.5;" x="151.929411841" xlink:href="#me40fd67591" y="303.429375"/>
      </g>
     </g>
     <g id="line2d_48">
      <g>
       <use style="stroke:#000000;stroke-width:0.5;" x="151.929411841" xlink:href="#m40f46a7383" y="26.949375"/>
      </g>
     </g>
    </g>
    <g id="xtick_11">
     <g id="line2d_49">
      <g>
       <use style="stroke:#000000;stroke-width:0.5;" x="157.496638751" xlink:href="#me40fd67591" y="303.429375"/>
      </g>
     </g>
     <g id="line2d_50">
      <g>
       <use style="stroke:#000000;stroke-width:0.5;" x="157.496638751" xlink:href="#m40f46a7383" y="26.949375"/>
      </g>
     </g>
    </g>
    <g id="xtick_12">
     <g id="line2d_51">
      <g>
       <use style="stroke:#000000;stroke-width:0.5;" x="162.407280906" xlink:href="#me40fd67591" y="303.429375"/>
      </g>
     </g>
     <g id="line2d_52">
      <g>
       <use style="stroke:#000000;stroke-width:0.5;" x="162.407280906" xlink:href="#m40f46a7383" y="26.949375"/>
      </g>
     </g>
    </g>
    <g id="xtick_13">
     <g id="line2d_53">
      <g>
       <use style="stroke:#000000;stroke-width:0.5;" x="195.698879584" xlink:href="#me40fd67591" y="303.429375"/>
      </g>
     </g>
     <g id="line2d_54">
      <g>
       <use style="stroke:#000000;stroke-width:0.5;" x="195.698879584" xlink:href="#m40f46a7383" y="26.949375"/>
      </g>
     </g>
    </g>
    <g id="xtick_14">
     <g id="line2d_55">
      <g>
       <use style="stroke:#000000;stroke-width:0.5;" x="212.603640453" xlink:href="#me40fd67591" y="303.429375"/>
      </g>
     </g>
     <g id="line2d_56">
      <g>
       <use style="stroke:#000000;stroke-width:0.5;" x="212.603640453" xlink:href="#m40f46a7383" y="26.949375"/>
      </g>
     </g>
    </g>
    <g id="xtick_15">
     <g id="line2d_57">
      <g>
       <use style="stroke:#000000;stroke-width:0.5;" x="224.597759167" xlink:href="#me40fd67591" y="303.429375"/>
      </g>
     </g>
     <g id="line2d_58">
      <g>
       <use style="stroke:#000000;stroke-width:0.5;" x="224.597759167" xlink:href="#m40f46a7383" y="26.949375"/>
      </g>
     </g>
    </g>
    <g id="xtick_16">
     <g id="line2d_59">
      <g>
       <use style="stroke:#000000;stroke-width:0.5;" x="233.901120416" xlink:href="#me40fd67591" y="303.429375"/>
      </g>
     </g>
     <g id="line2d_60">
      <g>
       <use style="stroke:#000000;stroke-width:0.5;" x="233.901120416" xlink:href="#m40f46a7383" y="26.949375"/>
      </g>
     </g>
    </g>
    <g id="xtick_17">
     <g id="line2d_61">
      <g>
       <use style="stroke:#000000;stroke-width:0.5;" x="241.502520037" xlink:href="#me40fd67591" y="303.429375"/>
      </g>
     </g>
     <g id="line2d_62">
      <g>
       <use style="stroke:#000000;stroke-width:0.5;" x="241.502520037" xlink:href="#m40f46a7383" y="26.949375"/>
      </g>
     </g>
    </g>
    <g id="xtick_18">
     <g id="line2d_63">
      <g>
       <use style="stroke:#000000;stroke-width:0.5;" x="247.929411841" xlink:href="#me40fd67591" y="303.429375"/>
      </g>
     </g>
     <g id="line2d_64">
      <g>
       <use style="stroke:#000000;stroke-width:0.5;" x="247.929411841" xlink:href="#m40f46a7383" y="26.949375"/>
      </g>
     </g>
    </g>
    <g id="xtick_19">
     <g id="line2d_65">
      <g>
       <use style="stroke:#000000;stroke-width:0.5;" x="253.496638751" xlink:href="#me40fd67591" y="303.429375"/>
      </g>
     </g>
     <g id="line2d_66">
      <g>
       <use style="stroke:#000000;stroke-width:0.5;" x="253.496638751" xlink:href="#m40f46a7383" y="26.949375"/>
      </g>
     </g>
    </g>
    <g id="xtick_20">
     <g id="line2d_67">
      <g>
       <use style="stroke:#000000;stroke-width:0.5;" x="258.407280906" xlink:href="#me40fd67591" y="303.429375"/>
      </g>
     </g>
     <g id="line2d_68">
      <g>
       <use style="stroke:#000000;stroke-width:0.5;" x="258.407280906" xlink:href="#m40f46a7383" y="26.949375"/>
      </g>
     </g>
    </g>
    <g id="xtick_21">
     <g id="line2d_69">
      <g>
       <use style="stroke:#000000;stroke-width:0.5;" x="291.698879584" xlink:href="#me40fd67591" y="303.429375"/>
      </g>
     </g>
     <g id="line2d_70">
      <g>
       <use style="stroke:#000000;stroke-width:0.5;" x="291.698879584" xlink:href="#m40f46a7383" y="26.949375"/>
      </g>
     </g>
    </g>
    <g id="xtick_22">
     <g id="line2d_71">
      <g>
       <use style="stroke:#000000;stroke-width:0.5;" x="308.603640453" xlink:href="#me40fd67591" y="303.429375"/>
      </g>
     </g>
     <g id="line2d_72">
      <g>
       <use style="stroke:#000000;stroke-width:0.5;" x="308.603640453" xlink:href="#m40f46a7383" y="26.949375"/>
      </g>
     </g>
    </g>
    <g id="xtick_23">
     <g id="line2d_73">
      <g>
       <use style="stroke:#000000;stroke-width:0.5;" x="320.597759167" xlink:href="#me40fd67591" y="303.429375"/>
      </g>
     </g>
     <g id="line2d_74">
      <g>
       <use style="stroke:#000000;stroke-width:0.5;" x="320.597759167" xlink:href="#m40f46a7383" y="26.949375"/>
      </g>
     </g>
    </g>
    <g id="xtick_24">
     <g id="line2d_75">
      <g>
       <use style="stroke:#000000;stroke-width:0.5;" x="329.901120416" xlink:href="#me40fd67591" y="303.429375"/>
      </g>
     </g>
     <g id="line2d_76">
      <g>
       <use style="stroke:#000000;stroke-width:0.5;" x="329.901120416" xlink:href="#m40f46a7383" y="26.949375"/>
      </g>
     </g>
    </g>
    <g id="xtick_25">
     <g id="line2d_77">
      <g>
       <use style="stroke:#000000;stroke-width:0.5;" x="337.502520037" xlink:href="#me40fd67591" y="303.429375"/>
      </g>
     </g>
     <g id="line2d_78">
      <g>
       <use style="stroke:#000000;stroke-width:0.5;" x="337.502520037" xlink:href="#m40f46a7383" y="26.949375"/>
      </g>
     </g>
    </g>
    <g id="xtick_26">
     <g id="line2d_79">
      <g>
       <use style="stroke:#000000;stroke-width:0.5;" x="343.929411841" xlink:href="#me40fd67591" y="303.429375"/>
      </g>
     </g>
     <g id="line2d_80">
      <g>
       <use style="stroke:#000000;stroke-width:0.5;" x="343.929411841" xlink:href="#m40f46a7383" y="26.949375"/>
      </g>
     </g>
    </g>
    <g id="xtick_27">
     <g id="line2d_81">
      <g>
       <use style="stroke:#000000;stroke-width:0.5;" x="349.496638751" xlink:href="#me40fd67591" y="303.429375"/>
      </g>
     </g>
     <g id="line2d_82">
      <g>
       <use style="stroke:#000000;stroke-width:0.5;" x="349.496638751" xlink:href="#m40f46a7383" y="26.949375"/>
      </g>
     </g>
    </g>
    <g id="xtick_28">
     <g id="line2d_83">
      <g>
       <use style="stroke:#000000;stroke-width:0.5;" x="354.407280906" xlink:href="#me40fd67591" y="303.429375"/>
      </g>
     </g>
     <g id="line2d_84">
      <g>
       <use style="stroke:#000000;stroke-width:0.5;" x="354.407280906" xlink:href="#m40f46a7383" y="26.949375"/>
      </g>
     </g>
    </g>
    <g id="xtick_29">
     <g id="line2d_85">
      <g>
       <use style="stroke:#000000;stroke-width:0.5;" x="387.698879584" xlink:href="#me40fd67591" y="303.429375"/>
      </g>
     </g>
     <g id="line2d_86">
      <g>
       <use style="stroke:#000000;stroke-width:0.5;" x="387.698879584" xlink:href="#m40f46a7383" y="26.949375"/>
      </g>
     </g>
    </g>
    <g id="xtick_30">
     <g id="line2d_87">
      <g>
       <use style="stroke:#000000;stroke-width:0.5;" x="404.603640453" xlink:href="#me40fd67591" y="303.429375"/>
      </g>
     </g>
     <g id="line2d_88">
      <g>
       <use style="stroke:#000000;stroke-width:0.5;" x="404.603640453" xlink:href="#m40f46a7383" y="26.949375"/>
      </g>
     </g>
    </g>
    <g id="xtick_31">
     <g id="line2d_89">
      <g>
       <use style="stroke:#000000;stroke-width:0.5;" x="416.597759167" xlink:href="#me40fd67591" y="303.429375"/>
      </g>
     </g>
     <g id="line2d_90">
      <g>
       <use style="stroke:#000000;stroke-width:0.5;" x="416.597759167" xlink:href="#m40f46a7383" y="26.949375"/>
      </g>
     </g>
    </g>
    <g id="xtick_32">
     <g id="line2d_91">
      <g>
       <use style="stroke:#000000;stroke-width:0.5;" x="425.901120416" xlink:href="#me40fd67591" y="303.429375"/>
      </g>
     </g>
     <g id="line2d_92">
      <g>
       <use style="stroke:#000000;stroke-width:0.5;" x="425.901120416" xlink:href="#m40f46a7383" y="26.949375"/>
      </g>
     </g>
    </g>
    <g id="text_5">
     <!-- log10 of (# f-evals / dimension) -->
     <defs>
      <path id="BitstreamVeraSans-Roman-20"/>
      <path d="M 51.125 44 
L 36.921875 44 
L 32.8125 27.6875 
L 47.125 27.6875 
z
M 43.796875 71.78125 
L 38.71875 51.515625 
L 52.984375 51.515625 
L 58.109375 71.78125 
L 65.921875 71.78125 
L 60.890625 51.515625 
L 76.125 51.515625 
L 76.125 44 
L 58.984375 44 
L 54.984375 27.6875 
L 70.515625 27.6875 
L 70.515625 20.21875 
L 53.078125 20.21875 
L 48 0 
L 40.1875 0 
L 45.21875 20.21875 
L 30.90625 20.21875 
L 25.875 0 
L 18.015625 0 
L 23.09375 20.21875 
L 7.71875 20.21875 
L 7.71875 27.6875 
L 24.90625 27.6875 
L 29 44 
L 13.28125 44 
L 13.28125 51.515625 
L 30.90625 51.515625 
L 35.890625 71.78125 
z
" id="BitstreamVeraSans-Roman-23"/>
      <path d="M 52 44.1875 
Q 55.375 50.25 60.0625 53.125 
Q 64.75 56 71.09375 56 
Q 79.640625 56 84.28125 50.015625 
Q 88.921875 44.046875 88.921875 33.015625 
L 88.921875 0 
L 79.890625 0 
L 79.890625 32.71875 
Q 79.890625 40.578125 77.09375 44.375 
Q 74.3125 48.1875 68.609375 48.1875 
Q 61.625 48.1875 57.5625 43.546875 
Q 53.515625 38.921875 53.515625 30.90625 
L 53.515625 0 
L 44.484375 0 
L 44.484375 32.71875 
Q 44.484375 40.625 41.703125 44.40625 
Q 38.921875 48.1875 33.109375 48.1875 
Q 26.21875 48.1875 22.15625 43.53125 
Q 18.109375 38.875 18.109375 30.90625 
L 18.109375 0 
L 9.078125 0 
L 9.078125 54.6875 
L 18.109375 54.6875 
L 18.109375 46.1875 
Q 21.1875 51.21875 25.484375 53.609375 
Q 29.78125 56 35.6875 56 
Q 41.65625 56 45.828125 52.96875 
Q 50 49.953125 52 44.1875 
" id="BitstreamVeraSans-Roman-6d"/>
      <path d="M 54.890625 33.015625 
L 54.890625 0 
L 45.90625 0 
L 45.90625 32.71875 
Q 45.90625 40.484375 42.875 44.328125 
Q 39.84375 48.1875 33.796875 48.1875 
Q 26.515625 48.1875 22.3125 43.546875 
Q 18.109375 38.921875 18.109375 30.90625 
L 18.109375 0 
L 9.078125 0 
L 9.078125 54.6875 
L 18.109375 54.6875 
L 18.109375 46.1875 
Q 21.34375 51.125 25.703125 53.5625 
Q 30.078125 56 35.796875 56 
Q 45.21875 56 50.046875 50.171875 
Q 54.890625 44.34375 54.890625 33.015625 
" id="BitstreamVeraSans-Roman-6e"/>
      <path d="M 31 75.875 
Q 24.46875 64.65625 21.28125 53.65625 
Q 18.109375 42.671875 18.109375 31.390625 
Q 18.109375 20.125 21.3125 9.0625 
Q 24.515625 -2 31 -13.1875 
L 23.1875 -13.1875 
Q 15.875 -1.703125 12.234375 9.375 
Q 8.59375 20.453125 8.59375 31.390625 
Q 8.59375 42.28125 12.203125 53.3125 
Q 15.828125 64.359375 23.1875 75.875 
z
" id="BitstreamVeraSans-Roman-28"/>
      <path d="M 30.609375 48.390625 
Q 23.390625 48.390625 19.1875 42.75 
Q 14.984375 37.109375 14.984375 27.296875 
Q 14.984375 17.484375 19.15625 11.84375 
Q 23.34375 6.203125 30.609375 6.203125 
Q 37.796875 6.203125 41.984375 11.859375 
Q 46.1875 17.53125 46.1875 27.296875 
Q 46.1875 37.015625 41.984375 42.703125 
Q 37.796875 48.390625 30.609375 48.390625 
M 30.609375 56 
Q 42.328125 56 49.015625 48.375 
Q 55.71875 40.765625 55.71875 27.296875 
Q 55.71875 13.875 49.015625 6.21875 
Q 42.328125 -1.421875 30.609375 -1.421875 
Q 18.84375 -1.421875 12.171875 6.21875 
Q 5.515625 13.875 5.515625 27.296875 
Q 5.515625 40.765625 12.171875 48.375 
Q 18.84375 56 30.609375 56 
" id="BitstreamVeraSans-Roman-6f"/>
      <path d="M 9.421875 75.984375 
L 18.40625 75.984375 
L 18.40625 0 
L 9.421875 0 
z
" id="BitstreamVeraSans-Roman-6c"/>
      <path d="M 2.984375 54.6875 
L 12.5 54.6875 
L 29.59375 8.796875 
L 46.6875 54.6875 
L 56.203125 54.6875 
L 35.6875 0 
L 23.484375 0 
z
" id="BitstreamVeraSans-Roman-76"/>
      <path d="M 9.421875 54.6875 
L 18.40625 54.6875 
L 18.40625 0 
L 9.421875 0 
z
M 9.421875 75.984375 
L 18.40625 75.984375 
L 18.40625 64.59375 
L 9.421875 64.59375 
z
" id="BitstreamVeraSans-Roman-69"/>
      <path d="M 4.890625 31.390625 
L 31.203125 31.390625 
L 31.203125 23.390625 
L 4.890625 23.390625 
z
" id="BitstreamVeraSans-Roman-2d"/>
      <path d="M 25.390625 72.90625 
L 33.6875 72.90625 
L 8.296875 -9.28125 
L 0 -9.28125 
z
" id="BitstreamVeraSans-Roman-2f"/>
      <path d="M 56.203125 29.59375 
L 56.203125 25.203125 
L 14.890625 25.203125 
Q 15.484375 15.921875 20.484375 11.0625 
Q 25.484375 6.203125 34.421875 6.203125 
Q 39.59375 6.203125 44.453125 7.46875 
Q 49.3125 8.734375 54.109375 11.28125 
L 54.109375 2.78125 
Q 49.265625 0.734375 44.1875 -0.34375 
Q 39.109375 -1.421875 33.890625 -1.421875 
Q 20.796875 -1.421875 13.15625 6.1875 
Q 5.515625 13.8125 5.515625 26.8125 
Q 5.515625 40.234375 12.765625 48.109375 
Q 20.015625 56 32.328125 56 
Q 43.359375 56 49.78125 48.890625 
Q 56.203125 41.796875 56.203125 29.59375 
M 47.21875 32.234375 
Q 47.125 39.59375 43.09375 43.984375 
Q 39.0625 48.390625 32.421875 48.390625 
Q 24.90625 48.390625 20.390625 44.140625 
Q 15.875 39.890625 15.1875 32.171875 
z
" id="BitstreamVeraSans-Roman-65"/>
      <path d="M 45.40625 46.390625 
L 45.40625 75.984375 
L 54.390625 75.984375 
L 54.390625 0 
L 45.40625 0 
L 45.40625 8.203125 
Q 42.578125 3.328125 38.25 0.953125 
Q 33.9375 -1.421875 27.875 -1.421875 
Q 17.96875 -1.421875 11.734375 6.484375 
Q 5.515625 14.40625 5.515625 27.296875 
Q 5.515625 40.1875 11.734375 48.09375 
Q 17.96875 56 27.875 56 
Q 33.9375 56 38.25 53.625 
Q 42.578125 51.265625 45.40625 46.390625 
M 14.796875 27.296875 
Q 14.796875 17.390625 18.875 11.75 
Q 22.953125 6.109375 30.078125 6.109375 
Q 37.203125 6.109375 41.296875 11.75 
Q 45.40625 17.390625 45.40625 27.296875 
Q 45.40625 37.203125 41.296875 42.84375 
Q 37.203125 48.484375 30.078125 48.484375 
Q 22.953125 48.484375 18.875 42.84375 
Q 14.796875 37.203125 14.796875 27.296875 
" id="BitstreamVeraSans-Roman-64"/>
      <path d="M 45.40625 27.984375 
Q 45.40625 37.75 41.375 43.109375 
Q 37.359375 48.484375 30.078125 48.484375 
Q 22.859375 48.484375 18.828125 43.109375 
Q 14.796875 37.75 14.796875 27.984375 
Q 14.796875 18.265625 18.828125 12.890625 
Q 22.859375 7.515625 30.078125 7.515625 
Q 37.359375 7.515625 41.375 12.890625 
Q 45.40625 18.265625 45.40625 27.984375 
M 54.390625 6.78125 
Q 54.390625 -7.171875 48.1875 -13.984375 
Q 42 -20.796875 29.203125 -20.796875 
Q 24.46875 -20.796875 20.265625 -20.09375 
Q 16.0625 -19.390625 12.109375 -17.921875 
L 12.109375 -9.1875 
Q 16.0625 -11.328125 19.921875 -12.34375 
Q 23.78125 -13.375 27.78125 -13.375 
Q 36.625 -13.375 41.015625 -8.765625 
Q 45.40625 -4.15625 45.40625 5.171875 
L 45.40625 9.625 
Q 42.625 4.78125 38.28125 2.390625 
Q 33.9375 0 27.875 0 
Q 17.828125 0 11.671875 7.65625 
Q 5.515625 15.328125 5.515625 27.984375 
Q 5.515625 40.671875 11.671875 48.328125 
Q 17.828125 56 27.875 56 
Q 33.9375 56 38.28125 53.609375 
Q 42.625 51.21875 45.40625 46.390625 
L 45.40625 54.6875 
L 54.390625 54.6875 
z
" id="BitstreamVeraSans-Roman-67"/>
      <path d="M 37.109375 75.984375 
L 37.109375 68.5 
L 28.515625 68.5 
Q 23.6875 68.5 21.796875 66.546875 
Q 19.921875 64.59375 19.921875 59.515625 
L 19.921875 54.6875 
L 34.71875 54.6875 
L 34.71875 47.703125 
L 19.921875 47.703125 
L 19.921875 0 
L 10.890625 0 
L 10.890625 47.703125 
L 2.296875 47.703125 
L 2.296875 54.6875 
L 10.890625 54.6875 
L 10.890625 58.5 
Q 10.890625 67.625 15.140625 71.796875 
Q 19.390625 75.984375 28.609375 75.984375 
z
" id="BitstreamVeraSans-Roman-66"/>
      <path d="M 34.28125 27.484375 
Q 23.390625 27.484375 19.1875 25 
Q 14.984375 22.515625 14.984375 16.5 
Q 14.984375 11.71875 18.140625 8.90625 
Q 21.296875 6.109375 26.703125 6.109375 
Q 34.1875 6.109375 38.703125 11.40625 
Q 43.21875 16.703125 43.21875 25.484375 
L 43.21875 27.484375 
z
M 52.203125 31.203125 
L 52.203125 0 
L 43.21875 0 
L 43.21875 8.296875 
Q 40.140625 3.328125 35.546875 0.953125 
Q 30.953125 -1.421875 24.3125 -1.421875 
Q 15.921875 -1.421875 10.953125 3.296875 
Q 6 8.015625 6 15.921875 
Q 6 25.140625 12.171875 29.828125 
Q 18.359375 34.515625 30.609375 34.515625 
L 43.21875 34.515625 
L 43.21875 35.40625 
Q 43.21875 41.609375 39.140625 45 
Q 35.0625 48.390625 27.6875 48.390625 
Q 23 48.390625 18.546875 47.265625 
Q 14.109375 46.140625 10.015625 43.890625 
L 10.015625 52.203125 
Q 14.9375 54.109375 19.578125 55.046875 
Q 24.21875 56 28.609375 56 
Q 40.484375 56 46.34375 49.84375 
Q 52.203125 43.703125 52.203125 31.203125 
" id="BitstreamVeraSans-Roman-61"/>
      <path d="M 44.28125 53.078125 
L 44.28125 44.578125 
Q 40.484375 46.53125 36.375 47.5 
Q 32.28125 48.484375 27.875 48.484375 
Q 21.1875 48.484375 17.84375 46.4375 
Q 14.5 44.390625 14.5 40.28125 
Q 14.5 37.15625 16.890625 35.375 
Q 19.28125 33.59375 26.515625 31.984375 
L 29.59375 31.296875 
Q 39.15625 29.25 43.1875 25.515625 
Q 47.21875 21.78125 47.21875 15.09375 
Q 47.21875 7.46875 41.1875 3.015625 
Q 35.15625 -1.421875 24.609375 -1.421875 
Q 20.21875 -1.421875 15.453125 -0.5625 
Q 10.6875 0.296875 5.421875 2 
L 5.421875 11.28125 
Q 10.40625 8.6875 15.234375 7.390625 
Q 20.0625 6.109375 24.8125 6.109375 
Q 31.15625 6.109375 34.5625 8.28125 
Q 37.984375 10.453125 37.984375 14.40625 
Q 37.984375 18.0625 35.515625 20.015625 
Q 33.0625 21.96875 24.703125 23.78125 
L 21.578125 24.515625 
Q 13.234375 26.265625 9.515625 29.90625 
Q 5.8125 33.546875 5.8125 39.890625 
Q 5.8125 47.609375 11.28125 51.796875 
Q 16.75 56 26.8125 56 
Q 31.78125 56 36.171875 55.265625 
Q 40.578125 54.546875 44.28125 53.078125 
" id="BitstreamVeraSans-Roman-73"/>
      <path d="M 8.015625 75.875 
L 15.828125 75.875 
Q 23.140625 64.359375 26.78125 53.3125 
Q 30.421875 42.28125 30.421875 31.390625 
Q 30.421875 20.453125 26.78125 9.375 
Q 23.140625 -1.703125 15.828125 -13.1875 
L 8.015625 -13.1875 
Q 14.5 -2 17.703125 9.0625 
Q 20.90625 20.125 20.90625 31.390625 
Q 20.90625 42.671875 17.703125 53.65625 
Q 14.5 64.65625 8.015625 75.875 
" id="BitstreamVeraSans-Roman-29"/>
     </defs>
     <g transform="translate(107.01515625 345.4628125)scale(0.18 -0.18)">
      <use xlink:href="#BitstreamVeraSans-Roman-6c"/>
      <use x="27.783203125" xlink:href="#BitstreamVeraSans-Roman-6f"/>
      <use x="88.96484375" xlink:href="#BitstreamVeraSans-Roman-67"/>
      <use x="152.44140625" xlink:href="#BitstreamVeraSans-Roman-31"/>
      <use x="216.064453125" xlink:href="#BitstreamVeraSans-Roman-30"/>
      <use x="279.6875" xlink:href="#BitstreamVeraSans-Roman-20"/>
      <use x="311.474609375" xlink:href="#BitstreamVeraSans-Roman-6f"/>
      <use x="372.65625" xlink:href="#BitstreamVeraSans-Roman-66"/>
      <use x="407.861328125" xlink:href="#BitstreamVeraSans-Roman-20"/>
      <use x="439.6484375" xlink:href="#BitstreamVeraSans-Roman-28"/>
      <use x="478.662109375" xlink:href="#BitstreamVeraSans-Roman-23"/>
      <use x="562.451171875" xlink:href="#BitstreamVeraSans-Roman-20"/>
      <use x="594.23828125" xlink:href="#BitstreamVeraSans-Roman-66"/>
      <use x="629.365234375" xlink:href="#BitstreamVeraSans-Roman-2d"/>
      <use x="665.44921875" xlink:href="#BitstreamVeraSans-Roman-65"/>
      <use x="726.97265625" xlink:href="#BitstreamVeraSans-Roman-76"/>
      <use x="786.15234375" xlink:href="#BitstreamVeraSans-Roman-61"/>
      <use x="847.431640625" xlink:href="#BitstreamVeraSans-Roman-6c"/>
      <use x="875.21484375" xlink:href="#BitstreamVeraSans-Roman-73"/>
      <use x="927.314453125" xlink:href="#BitstreamVeraSans-Roman-20"/>
      <use x="959.1015625" xlink:href="#BitstreamVeraSans-Roman-2f"/>
      <use x="992.79296875" xlink:href="#BitstreamVeraSans-Roman-20"/>
      <use x="1024.58007812" xlink:href="#BitstreamVeraSans-Roman-64"/>
      <use x="1088.05664062" xlink:href="#BitstreamVeraSans-Roman-69"/>
      <use x="1115.83984375" xlink:href="#BitstreamVeraSans-Roman-6d"/>
      <use x="1213.25195312" xlink:href="#BitstreamVeraSans-Roman-65"/>
      <use x="1274.77539062" xlink:href="#BitstreamVeraSans-Roman-6e"/>
      <use x="1338.15429688" xlink:href="#BitstreamVeraSans-Roman-73"/>
      <use x="1390.25390625" xlink:href="#BitstreamVeraSans-Roman-69"/>
      <use x="1418.03710938" xlink:href="#BitstreamVeraSans-Roman-6f"/>
      <use x="1479.21875" xlink:href="#BitstreamVeraSans-Roman-6e"/>
      <use x="1542.59765625" xlink:href="#BitstreamVeraSans-Roman-29"/>
     </g>
    </g>
   </g>
   <g id="matplotlib.axis_2">
    <g id="ytick_1">
     <g id="line2d_93">
      <path clip-path="url(#p3a1436e9df)" d="M 70.8 303.429375 
L 427.92 303.429375 
" style="fill:none;stroke:#000000;stroke-dasharray:1.000000,3.000000;stroke-dashoffset:0.0;stroke-width:0.5;"/>
     </g>
     <g id="line2d_94">
      <defs>
       <path d="M 0 0 
L 4 0 
" id="m6bfe0adce2" style="stroke:#000000;stroke-width:0.5;"/>
      </defs>
      <g>
       <use style="stroke:#000000;stroke-width:0.5;" x="70.8" xlink:href="#m6bfe0adce2" y="303.429375"/>
      </g>
     </g>
     <g id="line2d_95">
      <defs>
       <path d="M 0 0 
L -4 0 
" id="m2182058ef0" style="stroke:#000000;stroke-width:0.5;"/>
      </defs>
      <g>
       <use style="stroke:#000000;stroke-width:0.5;" x="427.92" xlink:href="#m2182058ef0" y="303.429375"/>
      </g>
     </g>
     <g id="text_6">
      <!-- 0.0 -->
      <defs>
       <path d="M 10.6875 12.40625 
L 21 12.40625 
L 21 0 
L 10.6875 0 
z
" id="BitstreamVeraSans-Roman-2e"/>
      </defs>
      <g transform="translate(34.99375 308.948125)scale(0.2 -0.2)">
       <use xlink:href="#BitstreamVeraSans-Roman-30"/>
       <use x="63.623046875" xlink:href="#BitstreamVeraSans-Roman-2e"/>
       <use x="95.41015625" xlink:href="#BitstreamVeraSans-Roman-30"/>
      </g>
     </g>
    </g>
    <g id="ytick_2">
     <g id="line2d_96">
      <path clip-path="url(#p3a1436e9df)" d="M 70.8 248.68086 
L 427.92 248.68086 
" style="fill:none;stroke:#000000;stroke-dasharray:1.000000,3.000000;stroke-dashoffset:0.0;stroke-width:0.5;"/>
     </g>
     <g id="line2d_97">
      <g>
       <use style="stroke:#000000;stroke-width:0.5;" x="70.8" xlink:href="#m6bfe0adce2" y="248.680860149"/>
      </g>
     </g>
     <g id="line2d_98">
      <g>
       <use style="stroke:#000000;stroke-width:0.5;" x="427.92" xlink:href="#m2182058ef0" y="248.680860149"/>
      </g>
     </g>
     <g id="text_7">
      <!-- 0.2 -->
      <g transform="translate(34.99375 254.199610149)scale(0.2 -0.2)">
       <use xlink:href="#BitstreamVeraSans-Roman-30"/>
       <use x="63.623046875" xlink:href="#BitstreamVeraSans-Roman-2e"/>
       <use x="95.41015625" xlink:href="#BitstreamVeraSans-Roman-32"/>
      </g>
     </g>
    </g>
    <g id="ytick_3">
     <g id="line2d_99">
      <path clip-path="url(#p3a1436e9df)" d="M 70.8 193.932345 
L 427.92 193.932345 
" style="fill:none;stroke:#000000;stroke-dasharray:1.000000,3.000000;stroke-dashoffset:0.0;stroke-width:0.5;"/>
     </g>
     <g id="line2d_100">
      <g>
       <use style="stroke:#000000;stroke-width:0.5;" x="70.8" xlink:href="#m6bfe0adce2" y="193.932345297"/>
      </g>
     </g>
     <g id="line2d_101">
      <g>
       <use style="stroke:#000000;stroke-width:0.5;" x="427.92" xlink:href="#m2182058ef0" y="193.932345297"/>
      </g>
     </g>
     <g id="text_8">
      <!-- 0.4 -->
      <defs>
       <path d="M 37.796875 64.3125 
L 12.890625 25.390625 
L 37.796875 25.390625 
z
M 35.203125 72.90625 
L 47.609375 72.90625 
L 47.609375 25.390625 
L 58.015625 25.390625 
L 58.015625 17.1875 
L 47.609375 17.1875 
L 47.609375 0 
L 37.796875 0 
L 37.796875 17.1875 
L 4.890625 17.1875 
L 4.890625 26.703125 
z
" id="BitstreamVeraSans-Roman-34"/>
      </defs>
      <g transform="translate(34.99375 199.451095297)scale(0.2 -0.2)">
       <use xlink:href="#BitstreamVeraSans-Roman-30"/>
       <use x="63.623046875" xlink:href="#BitstreamVeraSans-Roman-2e"/>
       <use x="95.41015625" xlink:href="#BitstreamVeraSans-Roman-34"/>
      </g>
     </g>
    </g>
    <g id="ytick_4">
     <g id="line2d_102">
      <path clip-path="url(#p3a1436e9df)" d="M 70.8 139.18383 
L 427.92 139.18383 
" style="fill:none;stroke:#000000;stroke-dasharray:1.000000,3.000000;stroke-dashoffset:0.0;stroke-width:0.5;"/>
     </g>
     <g id="line2d_103">
      <g>
       <use style="stroke:#000000;stroke-width:0.5;" x="70.8" xlink:href="#m6bfe0adce2" y="139.183830446"/>
      </g>
     </g>
     <g id="line2d_104">
      <g>
       <use style="stroke:#000000;stroke-width:0.5;" x="427.92" xlink:href="#m2182058ef0" y="139.183830446"/>
      </g>
     </g>
     <g id="text_9">
      <!-- 0.6 -->
      <defs>
       <path d="M 33.015625 40.375 
Q 26.375 40.375 22.484375 35.828125 
Q 18.609375 31.296875 18.609375 23.390625 
Q 18.609375 15.53125 22.484375 10.953125 
Q 26.375 6.390625 33.015625 6.390625 
Q 39.65625 6.390625 43.53125 10.953125 
Q 47.40625 15.53125 47.40625 23.390625 
Q 47.40625 31.296875 43.53125 35.828125 
Q 39.65625 40.375 33.015625 40.375 
M 52.59375 71.296875 
L 52.59375 62.3125 
Q 48.875 64.0625 45.09375 64.984375 
Q 41.3125 65.921875 37.59375 65.921875 
Q 27.828125 65.921875 22.671875 59.328125 
Q 17.53125 52.734375 16.796875 39.40625 
Q 19.671875 43.65625 24.015625 45.921875 
Q 28.375 48.1875 33.59375 48.1875 
Q 44.578125 48.1875 50.953125 41.515625 
Q 57.328125 34.859375 57.328125 23.390625 
Q 57.328125 12.15625 50.6875 5.359375 
Q 44.046875 -1.421875 33.015625 -1.421875 
Q 20.359375 -1.421875 13.671875 8.265625 
Q 6.984375 17.96875 6.984375 36.375 
Q 6.984375 53.65625 15.1875 63.9375 
Q 23.390625 74.21875 37.203125 74.21875 
Q 40.921875 74.21875 44.703125 73.484375 
Q 48.484375 72.75 52.59375 71.296875 
" id="BitstreamVeraSans-Roman-36"/>
      </defs>
      <g transform="translate(34.99375 144.702580446)scale(0.2 -0.2)">
       <use xlink:href="#BitstreamVeraSans-Roman-30"/>
       <use x="63.623046875" xlink:href="#BitstreamVeraSans-Roman-2e"/>
       <use x="95.41015625" xlink:href="#BitstreamVeraSans-Roman-36"/>
      </g>
     </g>
    </g>
    <g id="ytick_5">
     <g id="line2d_105">
      <path clip-path="url(#p3a1436e9df)" d="M 70.8 84.435316 
L 427.92 84.435316 
" style="fill:none;stroke:#000000;stroke-dasharray:1.000000,3.000000;stroke-dashoffset:0.0;stroke-width:0.5;"/>
     </g>
     <g id="line2d_106">
      <g>
       <use style="stroke:#000000;stroke-width:0.5;" x="70.8" xlink:href="#m6bfe0adce2" y="84.4353155941"/>
      </g>
     </g>
     <g id="line2d_107">
      <g>
       <use style="stroke:#000000;stroke-width:0.5;" x="427.92" xlink:href="#m2182058ef0" y="84.4353155941"/>
      </g>
     </g>
     <g id="text_10">
      <!-- 0.8 -->
      <defs>
       <path d="M 31.78125 34.625 
Q 24.75 34.625 20.71875 30.859375 
Q 16.703125 27.09375 16.703125 20.515625 
Q 16.703125 13.921875 20.71875 10.15625 
Q 24.75 6.390625 31.78125 6.390625 
Q 38.8125 6.390625 42.859375 10.171875 
Q 46.921875 13.96875 46.921875 20.515625 
Q 46.921875 27.09375 42.890625 30.859375 
Q 38.875 34.625 31.78125 34.625 
M 21.921875 38.8125 
Q 15.578125 40.375 12.03125 44.71875 
Q 8.5 49.078125 8.5 55.328125 
Q 8.5 64.0625 14.71875 69.140625 
Q 20.953125 74.21875 31.78125 74.21875 
Q 42.671875 74.21875 48.875 69.140625 
Q 55.078125 64.0625 55.078125 55.328125 
Q 55.078125 49.078125 51.53125 44.71875 
Q 48 40.375 41.703125 38.8125 
Q 48.828125 37.15625 52.796875 32.3125 
Q 56.78125 27.484375 56.78125 20.515625 
Q 56.78125 9.90625 50.3125 4.234375 
Q 43.84375 -1.421875 31.78125 -1.421875 
Q 19.734375 -1.421875 13.25 4.234375 
Q 6.78125 9.90625 6.78125 20.515625 
Q 6.78125 27.484375 10.78125 32.3125 
Q 14.796875 37.15625 21.921875 38.8125 
M 18.3125 54.390625 
Q 18.3125 48.734375 21.84375 45.5625 
Q 25.390625 42.390625 31.78125 42.390625 
Q 38.140625 42.390625 41.71875 45.5625 
Q 45.3125 48.734375 45.3125 54.390625 
Q 45.3125 60.0625 41.71875 63.234375 
Q 38.140625 66.40625 31.78125 66.40625 
Q 25.390625 66.40625 21.84375 63.234375 
Q 18.3125 60.0625 18.3125 54.390625 
" id="BitstreamVeraSans-Roman-38"/>
      </defs>
      <g transform="translate(34.99375 89.9540655941)scale(0.2 -0.2)">
       <use xlink:href="#BitstreamVeraSans-Roman-30"/>
       <use x="63.623046875" xlink:href="#BitstreamVeraSans-Roman-2e"/>
       <use x="95.41015625" xlink:href="#BitstreamVeraSans-Roman-38"/>
      </g>
     </g>
    </g>
    <g id="ytick_6">
     <g id="line2d_108">
      <path clip-path="url(#p3a1436e9df)" d="M 70.8 29.686801 
L 427.92 29.686801 
" style="fill:none;stroke:#000000;stroke-dasharray:1.000000,3.000000;stroke-dashoffset:0.0;stroke-width:0.5;"/>
     </g>
     <g id="line2d_109">
      <g>
       <use style="stroke:#000000;stroke-width:0.5;" x="70.8" xlink:href="#m6bfe0adce2" y="29.6868007426"/>
      </g>
     </g>
     <g id="line2d_110">
      <g>
       <use style="stroke:#000000;stroke-width:0.5;" x="427.92" xlink:href="#m2182058ef0" y="29.6868007426"/>
      </g>
     </g>
     <g id="text_11">
      <!-- 1.0 -->
      <g transform="translate(34.99375 35.2055507426)scale(0.2 -0.2)">
       <use xlink:href="#BitstreamVeraSans-Roman-31"/>
       <use x="63.623046875" xlink:href="#BitstreamVeraSans-Roman-2e"/>
       <use x="95.41015625" xlink:href="#BitstreamVeraSans-Roman-30"/>
      </g>
     </g>
    </g>
    <g id="text_12">
     <!-- Proportion of function+target pairs -->
     <defs>
      <path d="M 19.671875 64.796875 
L 19.671875 37.40625 
L 32.078125 37.40625 
Q 38.96875 37.40625 42.71875 40.96875 
Q 46.484375 44.53125 46.484375 51.125 
Q 46.484375 57.671875 42.71875 61.234375 
Q 38.96875 64.796875 32.078125 64.796875 
z
M 9.8125 72.90625 
L 32.078125 72.90625 
Q 44.34375 72.90625 50.609375 67.359375 
Q 56.890625 61.8125 56.890625 51.125 
Q 56.890625 40.328125 50.609375 34.8125 
Q 44.34375 29.296875 32.078125 29.296875 
L 19.671875 29.296875 
L 19.671875 0 
L 9.8125 0 
z
" id="BitstreamVeraSans-Roman-50"/>
      <path d="M 46 62.703125 
L 46 35.5 
L 73.1875 35.5 
L 73.1875 27.203125 
L 46 27.203125 
L 46 0 
L 37.796875 0 
L 37.796875 27.203125 
L 10.59375 27.203125 
L 10.59375 35.5 
L 37.796875 35.5 
L 37.796875 62.703125 
z
" id="BitstreamVeraSans-Roman-2b"/>
      <path d="M 18.109375 8.203125 
L 18.109375 -20.796875 
L 9.078125 -20.796875 
L 9.078125 54.6875 
L 18.109375 54.6875 
L 18.109375 46.390625 
Q 20.953125 51.265625 25.265625 53.625 
Q 29.59375 56 35.59375 56 
Q 45.5625 56 51.78125 48.09375 
Q 58.015625 40.1875 58.015625 27.296875 
Q 58.015625 14.40625 51.78125 6.484375 
Q 45.5625 -1.421875 35.59375 -1.421875 
Q 29.59375 -1.421875 25.265625 0.953125 
Q 20.953125 3.328125 18.109375 8.203125 
M 48.6875 27.296875 
Q 48.6875 37.203125 44.609375 42.84375 
Q 40.53125 48.484375 33.40625 48.484375 
Q 26.265625 48.484375 22.1875 42.84375 
Q 18.109375 37.203125 18.109375 27.296875 
Q 18.109375 17.390625 22.1875 11.75 
Q 26.265625 6.109375 33.40625 6.109375 
Q 40.53125 6.109375 44.609375 11.75 
Q 48.6875 17.390625 48.6875 27.296875 
" id="BitstreamVeraSans-Roman-70"/>
      <path d="M 18.3125 70.21875 
L 18.3125 54.6875 
L 36.8125 54.6875 
L 36.8125 47.703125 
L 18.3125 47.703125 
L 18.3125 18.015625 
Q 18.3125 11.328125 20.140625 9.421875 
Q 21.96875 7.515625 27.59375 7.515625 
L 36.8125 7.515625 
L 36.8125 0 
L 27.59375 0 
Q 17.1875 0 13.234375 3.875 
Q 9.28125 7.765625 9.28125 18.015625 
L 9.28125 47.703125 
L 2.6875 47.703125 
L 2.6875 54.6875 
L 9.28125 54.6875 
L 9.28125 70.21875 
z
" id="BitstreamVeraSans-Roman-74"/>
      <path d="M 8.5 21.578125 
L 8.5 54.6875 
L 17.484375 54.6875 
L 17.484375 21.921875 
Q 17.484375 14.15625 20.5 10.265625 
Q 23.53125 6.390625 29.59375 6.390625 
Q 36.859375 6.390625 41.078125 11.03125 
Q 45.3125 15.671875 45.3125 23.6875 
L 45.3125 54.6875 
L 54.296875 54.6875 
L 54.296875 0 
L 45.3125 0 
L 45.3125 8.40625 
Q 42.046875 3.421875 37.71875 1 
Q 33.40625 -1.421875 27.6875 -1.421875 
Q 18.265625 -1.421875 13.375 4.4375 
Q 8.5 10.296875 8.5 21.578125 
" id="BitstreamVeraSans-Roman-75"/>
      <path d="M 41.109375 46.296875 
Q 39.59375 47.171875 37.8125 47.578125 
Q 36.03125 48 33.890625 48 
Q 26.265625 48 22.1875 43.046875 
Q 18.109375 38.09375 18.109375 28.8125 
L 18.109375 0 
L 9.078125 0 
L 9.078125 54.6875 
L 18.109375 54.6875 
L 18.109375 46.1875 
Q 20.953125 51.171875 25.484375 53.578125 
Q 30.03125 56 36.53125 56 
Q 37.453125 56 38.578125 55.875 
Q 39.703125 55.765625 41.0625 55.515625 
z
" id="BitstreamVeraSans-Roman-72"/>
      <path d="M 48.78125 52.59375 
L 48.78125 44.1875 
Q 44.96875 46.296875 41.140625 47.34375 
Q 37.3125 48.390625 33.40625 48.390625 
Q 24.65625 48.390625 19.8125 42.84375 
Q 14.984375 37.3125 14.984375 27.296875 
Q 14.984375 17.28125 19.8125 11.734375 
Q 24.65625 6.203125 33.40625 6.203125 
Q 37.3125 6.203125 41.140625 7.25 
Q 44.96875 8.296875 48.78125 10.40625 
L 48.78125 2.09375 
Q 45.015625 0.34375 40.984375 -0.53125 
Q 36.96875 -1.421875 32.421875 -1.421875 
Q 20.0625 -1.421875 12.78125 6.34375 
Q 5.515625 14.109375 5.515625 27.296875 
Q 5.515625 40.671875 12.859375 48.328125 
Q 20.21875 56 33.015625 56 
Q 37.15625 56 41.109375 55.140625 
Q 45.0625 54.296875 48.78125 52.59375 
" id="BitstreamVeraSans-Roman-63"/>
     </defs>
     <g transform="translate(26.2503125 323.17875)rotate(-90.0)scale(0.18 -0.18)">
      <use xlink:href="#BitstreamVeraSans-Roman-50"/>
      <use x="60.287109375" xlink:href="#BitstreamVeraSans-Roman-72"/>
      <use x="101.369140625" xlink:href="#BitstreamVeraSans-Roman-6f"/>
      <use x="162.55078125" xlink:href="#BitstreamVeraSans-Roman-70"/>
      <use x="226.02734375" xlink:href="#BitstreamVeraSans-Roman-6f"/>
      <use x="287.208984375" xlink:href="#BitstreamVeraSans-Roman-72"/>
      <use x="328.322265625" xlink:href="#BitstreamVeraSans-Roman-74"/>
      <use x="367.53125" xlink:href="#BitstreamVeraSans-Roman-69"/>
      <use x="395.314453125" xlink:href="#BitstreamVeraSans-Roman-6f"/>
      <use x="456.49609375" xlink:href="#BitstreamVeraSans-Roman-6e"/>
      <use x="519.875" xlink:href="#BitstreamVeraSans-Roman-20"/>
      <use x="551.662109375" xlink:href="#BitstreamVeraSans-Roman-6f"/>
      <use x="612.84375" xlink:href="#BitstreamVeraSans-Roman-66"/>
      <use x="648.048828125" xlink:href="#BitstreamVeraSans-Roman-20"/>
      <use x="679.8359375" xlink:href="#BitstreamVeraSans-Roman-66"/>
      <use x="715.041015625" xlink:href="#BitstreamVeraSans-Roman-75"/>
      <use x="778.419921875" xlink:href="#BitstreamVeraSans-Roman-6e"/>
      <use x="841.798828125" xlink:href="#BitstreamVeraSans-Roman-63"/>
      <use x="896.779296875" xlink:href="#BitstreamVeraSans-Roman-74"/>
      <use x="935.98828125" xlink:href="#BitstreamVeraSans-Roman-69"/>
      <use x="963.771484375" xlink:href="#BitstreamVeraSans-Roman-6f"/>
      <use x="1024.953125" xlink:href="#BitstreamVeraSans-Roman-6e"/>
      <use x="1088.33203125" xlink:href="#BitstreamVeraSans-Roman-2b"/>
      <use x="1172.12109375" xlink:href="#BitstreamVeraSans-Roman-74"/>
      <use x="1211.33007812" xlink:href="#BitstreamVeraSans-Roman-61"/>
      <use x="1272.609375" xlink:href="#BitstreamVeraSans-Roman-72"/>
      <use x="1313.70703125" xlink:href="#BitstreamVeraSans-Roman-67"/>
      <use x="1377.18359375" xlink:href="#BitstreamVeraSans-Roman-65"/>
      <use x="1438.70703125" xlink:href="#BitstreamVeraSans-Roman-74"/>
      <use x="1477.91601562" xlink:href="#BitstreamVeraSans-Roman-20"/>
      <use x="1509.703125" xlink:href="#BitstreamVeraSans-Roman-70"/>
      <use x="1573.1796875" xlink:href="#BitstreamVeraSans-Roman-61"/>
      <use x="1634.45898438" xlink:href="#BitstreamVeraSans-Roman-69"/>
      <use x="1662.2421875" xlink:href="#BitstreamVeraSans-Roman-72"/>
      <use x="1703.35546875" xlink:href="#BitstreamVeraSans-Roman-73"/>
     </g>
    </g>
   </g>
   <g id="text_13">
    <!-- diffusion ga -->
    <g transform="translate(396.24 302.093586015)scale(0.15 -0.15)">
     <use xlink:href="#BitstreamVeraSans-Roman-64"/>
     <use x="63.4765625" xlink:href="#BitstreamVeraSans-Roman-69"/>
     <use x="91.259765625" xlink:href="#BitstreamVeraSans-Roman-66"/>
     <use x="126.46484375" xlink:href="#BitstreamVeraSans-Roman-66"/>
     <use x="161.669921875" xlink:href="#BitstreamVeraSans-Roman-75"/>
     <use x="225.048828125" xlink:href="#BitstreamVeraSans-Roman-73"/>
     <use x="277.1484375" xlink:href="#BitstreamVeraSans-Roman-69"/>
     <use x="304.931640625" xlink:href="#BitstreamVeraSans-Roman-6f"/>
     <use x="366.11328125" xlink:href="#BitstreamVeraSans-Roman-6e"/>
     <use x="429.4921875" xlink:href="#BitstreamVeraSans-Roman-20"/>
     <use x="461.279296875" xlink:href="#BitstreamVeraSans-Roman-67"/>
     <use x="524.755859375" xlink:href="#BitstreamVeraSans-Roman-61"/>
    </g>
   </g>
   <g id="text_14">
    <!-- standard ga -->
    <g transform="translate(396.24 214.495962252)scale(0.15 -0.15)">
     <use xlink:href="#BitstreamVeraSans-Roman-73"/>
     <use x="52.099609375" xlink:href="#BitstreamVeraSans-Roman-74"/>
     <use x="91.30859375" xlink:href="#BitstreamVeraSans-Roman-61"/>
     <use x="152.587890625" xlink:href="#BitstreamVeraSans-Roman-6e"/>
     <use x="215.966796875" xlink:href="#BitstreamVeraSans-Roman-64"/>
     <use x="279.443359375" xlink:href="#BitstreamVeraSans-Roman-61"/>
     <use x="340.72265625" xlink:href="#BitstreamVeraSans-Roman-72"/>
     <use x="381.8203125" xlink:href="#BitstreamVeraSans-Roman-64"/>
     <use x="445.296875" xlink:href="#BitstreamVeraSans-Roman-20"/>
     <use x="477.083984375" xlink:href="#BitstreamVeraSans-Roman-67"/>
     <use x="540.560546875" xlink:href="#BitstreamVeraSans-Roman-61"/>
    </g>
   </g>
   <g id="text_15">
    <!-- migration ga -->
    <g transform="translate(396.24 126.89833849)scale(0.15 -0.15)">
     <use xlink:href="#BitstreamVeraSans-Roman-6d"/>
     <use x="97.412109375" xlink:href="#BitstreamVeraSans-Roman-69"/>
     <use x="125.1953125" xlink:href="#BitstreamVeraSans-Roman-67"/>
     <use x="188.671875" xlink:href="#BitstreamVeraSans-Roman-72"/>
     <use x="229.78515625" xlink:href="#BitstreamVeraSans-Roman-61"/>
     <use x="291.064453125" xlink:href="#BitstreamVeraSans-Roman-74"/>
     <use x="330.2734375" xlink:href="#BitstreamVeraSans-Roman-69"/>
     <use x="358.056640625" xlink:href="#BitstreamVeraSans-Roman-6f"/>
     <use x="419.23828125" xlink:href="#BitstreamVeraSans-Roman-6e"/>
     <use x="482.6171875" xlink:href="#BitstreamVeraSans-Roman-20"/>
     <use x="514.404296875" xlink:href="#BitstreamVeraSans-Roman-67"/>
     <use x="577.880859375" xlink:href="#BitstreamVeraSans-Roman-61"/>
    </g>
   </g>
   <g id="text_16">
    <!-- best 2009 -->
    <defs>
     <path d="M 10.984375 1.515625 
L 10.984375 10.5 
Q 14.703125 8.734375 18.5 7.8125 
Q 22.3125 6.890625 25.984375 6.890625 
Q 35.75 6.890625 40.890625 13.453125 
Q 46.046875 20.015625 46.78125 33.40625 
Q 43.953125 29.203125 39.59375 26.953125 
Q 35.25 24.703125 29.984375 24.703125 
Q 19.046875 24.703125 12.671875 31.3125 
Q 6.296875 37.9375 6.296875 49.421875 
Q 6.296875 60.640625 12.9375 67.421875 
Q 19.578125 74.21875 30.609375 74.21875 
Q 43.265625 74.21875 49.921875 64.515625 
Q 56.59375 54.828125 56.59375 36.375 
Q 56.59375 19.140625 48.40625 8.859375 
Q 40.234375 -1.421875 26.421875 -1.421875 
Q 22.703125 -1.421875 18.890625 -0.6875 
Q 15.09375 0.046875 10.984375 1.515625 
M 30.609375 32.421875 
Q 37.25 32.421875 41.125 36.953125 
Q 45.015625 41.5 45.015625 49.421875 
Q 45.015625 57.28125 41.125 61.84375 
Q 37.25 66.40625 30.609375 66.40625 
Q 23.96875 66.40625 20.09375 61.84375 
Q 16.21875 57.28125 16.21875 49.421875 
Q 16.21875 41.5 20.09375 36.953125 
Q 23.96875 32.421875 30.609375 32.421875 
" id="BitstreamVeraSans-Roman-39"/>
     <path d="M 48.6875 27.296875 
Q 48.6875 37.203125 44.609375 42.84375 
Q 40.53125 48.484375 33.40625 48.484375 
Q 26.265625 48.484375 22.1875 42.84375 
Q 18.109375 37.203125 18.109375 27.296875 
Q 18.109375 17.390625 22.1875 11.75 
Q 26.265625 6.109375 33.40625 6.109375 
Q 40.53125 6.109375 44.609375 11.75 
Q 48.6875 17.390625 48.6875 27.296875 
M 18.109375 46.390625 
Q 20.953125 51.265625 25.265625 53.625 
Q 29.59375 56 35.59375 56 
Q 45.5625 56 51.78125 48.09375 
Q 58.015625 40.1875 58.015625 27.296875 
Q 58.015625 14.40625 51.78125 6.484375 
Q 45.5625 -1.421875 35.59375 -1.421875 
Q 29.59375 -1.421875 25.265625 0.953125 
Q 20.953125 3.328125 18.109375 8.203125 
L 18.109375 0 
L 9.078125 0 
L 9.078125 75.984375 
L 18.109375 75.984375 
z
" id="BitstreamVeraSans-Roman-62"/>
    </defs>
    <g transform="translate(396.24 39.3007147277)scale(0.15 -0.15)">
     <use xlink:href="#BitstreamVeraSans-Roman-62"/>
     <use x="63.4765625" xlink:href="#BitstreamVeraSans-Roman-65"/>
     <use x="125.0" xlink:href="#BitstreamVeraSans-Roman-73"/>
     <use x="177.099609375" xlink:href="#BitstreamVeraSans-Roman-74"/>
     <use x="216.30859375" xlink:href="#BitstreamVeraSans-Roman-20"/>
     <use x="248.095703125" xlink:href="#BitstreamVeraSans-Roman-32"/>
     <use x="311.71875" xlink:href="#BitstreamVeraSans-Roman-30"/>
     <use x="375.341796875" xlink:href="#BitstreamVeraSans-Roman-30"/>
     <use x="438.96484375" xlink:href="#BitstreamVeraSans-Roman-39"/>
    </g>
   </g>
   <g id="text_17">
    <!-- f15-19,2-D -->
    <defs>
     <path d="M 11.71875 12.40625 
L 22.015625 12.40625 
L 22.015625 4 
L 14.015625 -11.625 
L 7.71875 -11.625 
L 11.71875 4 
z
" id="BitstreamVeraSans-Roman-2c"/>
     <path d="M 19.671875 64.796875 
L 19.671875 8.109375 
L 31.59375 8.109375 
Q 46.6875 8.109375 53.6875 14.9375 
Q 60.6875 21.78125 60.6875 36.53125 
Q 60.6875 51.171875 53.6875 57.984375 
Q 46.6875 64.796875 31.59375 64.796875 
z
M 9.8125 72.90625 
L 30.078125 72.90625 
Q 51.265625 72.90625 61.171875 64.09375 
Q 71.09375 55.28125 71.09375 36.53125 
Q 71.09375 17.671875 61.125 8.828125 
Q 51.171875 0 30.078125 0 
L 9.8125 0 
z
" id="BitstreamVeraSans-Roman-44"/>
     <path d="M 10.796875 72.90625 
L 49.515625 72.90625 
L 49.515625 64.59375 
L 19.828125 64.59375 
L 19.828125 46.734375 
Q 21.96875 47.46875 24.109375 47.828125 
Q 26.265625 48.1875 28.421875 48.1875 
Q 40.625 48.1875 47.75 41.5 
Q 54.890625 34.8125 54.890625 23.390625 
Q 54.890625 11.625 47.5625 5.09375 
Q 40.234375 -1.421875 26.90625 -1.421875 
Q 22.3125 -1.421875 17.546875 -0.640625 
Q 12.796875 0.140625 7.71875 1.703125 
L 7.71875 11.625 
Q 12.109375 9.234375 16.796875 8.0625 
Q 21.484375 6.890625 26.703125 6.890625 
Q 35.15625 6.890625 40.078125 11.328125 
Q 45.015625 15.765625 45.015625 23.390625 
Q 45.015625 31 40.078125 35.4375 
Q 35.15625 39.890625 26.703125 39.890625 
Q 22.75 39.890625 18.8125 39.015625 
Q 14.890625 38.140625 10.796875 36.28125 
z
" id="BitstreamVeraSans-Roman-35"/>
    </defs>
    <g transform="translate(74.3712 47.67585)scale(0.2 -0.2)">
     <use xlink:href="#BitstreamVeraSans-Roman-66"/>
     <use x="35.205078125" xlink:href="#BitstreamVeraSans-Roman-31"/>
     <use x="98.828125" xlink:href="#BitstreamVeraSans-Roman-35"/>
     <use x="162.451171875" xlink:href="#BitstreamVeraSans-Roman-2d"/>
     <use x="198.53515625" xlink:href="#BitstreamVeraSans-Roman-31"/>
     <use x="262.158203125" xlink:href="#BitstreamVeraSans-Roman-39"/>
     <use x="325.78125" xlink:href="#BitstreamVeraSans-Roman-2c"/>
     <use x="357.568359375" xlink:href="#BitstreamVeraSans-Roman-32"/>
     <use x="421.19140625" xlink:href="#BitstreamVeraSans-Roman-2d"/>
     <use x="457.275390625" xlink:href="#BitstreamVeraSans-Roman-44"/>
    </g>
   </g>
  </g>
 </g>
 <defs>
  <clipPath id="p3a1436e9df">
   <rect height="276.48" width="357.12" x="70.8" y="26.949375"/>
  </clipPath>
 </defs>
</svg>
