<?xml version="1.0" encoding="utf-8" standalone="no"?>
<!DOCTYPE svg PUBLIC "-//W3C//DTD SVG 1.1//EN"
  "http://www.w3.org/Graphics/SVG/1.1/DTD/svg11.dtd">
<!-- Created with matplotlib (http://matplotlib.org/) -->
<svg height="338pt" version="1.1" viewBox="0 0 371 338" width="371pt" xmlns="http://www.w3.org/2000/svg" xmlns:xlink="http://www.w3.org/1999/xlink">
 <defs>
  <style type="text/css">
*{stroke-linecap:butt;stroke-linejoin:round;stroke-miterlimit:100000;}
  </style>
 </defs>
 <g id="figure_1">
  <g id="patch_1">
   <path d="M 0 338.5925 
L 371.52 338.5925 
L 371.52 0 
L 0 0 
z
" style="fill:#ffffff;"/>
  </g>
  <g id="axes_1">
   <g id="patch_2">
    <path d="M 7.2 283.68 
L 364.32 283.68 
L 364.32 7.2 
L 7.2 7.2 
z
" style="fill:#ffffff;"/>
   </g>
   <g id="line2d_1">
    <path clip-path="url(#p026ce7c747)" d="M 185.182953 283.68 
L 185.182953 280.030099 
L 185.42084 280.030099 
L 185.42084 276.380198 
L 185.562377 276.380198 
L 185.562377 272.730297 
L 185.832594 272.730297 
L 185.832594 269.080396 
L 186.131354 269.080396 
L 186.131354 265.430495 
L 186.259346 265.430495 
L 186.339567 254.480792 
L 186.490452 254.480792 
L 186.490452 250.830891 
L 187.152877 250.830891 
L 187.194818 236.231287 
L 187.439951 236.231287 
L 187.439951 232.581386 
L 187.838026 232.581386 
L 187.946901 217.981782 
L 188.028672 217.981782 
L 188.028672 214.331881 
L 188.456303 214.331881 
L 188.456303 210.68198 
L 188.625403 210.68198 
L 188.72037 203.382178 
L 188.798603 203.382178 
L 188.798603 199.732277 
L 188.982021 199.732277 
L 188.982021 196.082376 
L 189.398617 196.082376 
L 189.411963 188.782574 
L 189.864613 188.782574 
L 189.898775 181.482772 
L 190.005007 181.482772 
L 190.005007 177.832871 
L 190.813081 177.832871 
L 190.854194 170.533069 
L 193.150098 170.533069 
L 193.150098 166.883168 
L 193.337071 166.883168 
L 193.337071 163.233267 
L 193.733967 163.233267 
L 193.733967 159.583366 
L 194.05687 159.583366 
L 194.141573 152.283564 
L 194.94992 152.283564 
L 194.94992 148.633663 
L 195.080114 148.633663 
L 195.188667 137.68396 
L 195.255661 137.68396 
L 195.278221 130.384158 
L 195.557544 130.384158 
L 195.557544 126.734257 
L 195.738907 126.734257 
L 195.738907 123.084356 
L 196.099699 123.084356 
L 196.099699 119.434455 
L 196.228111 119.434455 
L 196.228111 115.784554 
L 196.836097 115.784554 
L 196.869552 108.484752 
L 197.03112 108.484752 
L 197.061252 101.18495 
L 197.552056 101.18495 
L 197.552056 97.53505 
L 197.715032 97.53505 
L 197.715032 93.885149 
L 198.112626 93.885149 
L 198.140456 79.285545 
L 198.317367 79.285545 
L 198.317367 75.635644 
L 198.883999 75.635644 
L 198.961458 68.335842 
L 201.077887 68.335842 
L 201.077887 64.685941 
L 216.126975 64.685941 
L 216.126975 61.03604 
L 217.803973 61.03604 
L 217.803973 57.386139 
L 219.302767 57.386139 
L 219.302767 53.736238 
L 219.507478 53.736238 
L 219.507478 50.086337 
L 219.828504 50.086337 
L 219.828504 46.436436 
L 220.007036 46.436436 
L 220.007036 42.786535 
L 220.121644 42.786535 
L 220.121644 39.136634 
L 220.393435 39.136634 
L 220.393435 35.486733 
L 221.110182 35.486733 
L 221.110182 31.836832 
L 221.480093 31.836832 
L 221.480093 28.186931 
L 222.020666 28.186931 
L 222.070434 20.887129 
L 222.508062 20.887129 
L 222.508062 17.237228 
L 222.681914 17.237228 
L 222.681914 13.587327 
L 224.092317 13.587327 
L 224.092317 9.937426 
L 364.32 9.937426 
L 364.32 9.937426 
" style="fill:none;stroke:#ff0000;stroke-linecap:square;stroke-width:3.0;"/>
   </g>
   <g id="line2d_2">
    <path clip-path="url(#p026ce7c747)" d="M 188.926875 283.68 
L 188.926875 280.030099 
L 189.618035 280.030099 
L 189.618035 276.380198 
L 190.539485 276.380198 
L 190.539485 272.730297 
L 190.674829 272.730297 
L 190.674829 269.080396 
L 191.240069 269.080396 
L 191.240069 265.430495 
L 191.369349 265.430495 
L 191.369349 261.780594 
L 191.70655 261.780594 
L 191.70655 258.130693 
L 191.933276 258.130693 
L 191.933276 254.480792 
L 192.407991 254.480792 
L 192.407991 250.830891 
L 192.636992 250.830891 
L 192.636992 247.18099 
L 192.856513 247.18099 
L 192.857536 239.881188 
L 193.184882 239.881188 
L 193.184882 236.231287 
L 193.495737 236.231287 
L 193.57255 228.931485 
L 193.829948 228.931485 
L 193.829948 225.281584 
L 194.237626 225.281584 
L 194.237626 221.631683 
L 194.909663 221.631683 
L 195.010262 207.032079 
L 195.07228 207.032079 
L 195.07228 203.382178 
L 195.678908 203.382178 
L 195.678908 199.732277 
L 196.013836 199.732277 
L 196.06429 192.432475 
L 196.791653 192.432475 
L 196.791653 188.782574 
L 197.148465 188.782574 
L 197.148465 185.132673 
L 197.717529 185.132673 
L 197.717529 181.482772 
L 198.004294 181.482772 
L 198.029669 174.18297 
L 198.920889 174.18297 
L 198.920889 170.533069 
L 199.061168 170.533069 
L 199.061168 166.883168 
L 199.290135 166.883168 
L 199.398757 159.583366 
L 199.456398 159.583366 
L 199.528296 152.283564 
L 199.7307 152.283564 
L 199.7307 148.633663 
L 200.427205 148.633663 
L 200.427205 144.983762 
L 200.965879 144.983762 
L 201.066961 130.384158 
L 201.172114 130.384158 
L 201.172114 126.734257 
L 201.348163 126.734257 
L 201.348163 123.084356 
L 201.528305 123.084356 
L 201.528305 119.434455 
L 201.913643 119.434455 
L 201.913643 115.784554 
L 202.245192 115.784554 
L 202.245192 112.134653 
L 202.381085 112.134653 
L 202.381085 108.484752 
L 202.940731 108.484752 
L 202.940731 104.834851 
L 203.126842 104.834851 
L 203.214542 97.53505 
L 203.91362 97.53505 
L 203.91362 93.885149 
L 204.97758 93.885149 
L 205.06887 86.585347 
L 205.137166 86.585347 
L 205.137166 82.935446 
L 205.70217 82.935446 
L 205.70217 79.285545 
L 205.911849 79.285545 
L 205.967414 71.985743 
L 207.424088 71.985743 
L 207.424088 68.335842 
L 208.139446 68.335842 
L 208.139446 64.685941 
L 223.620196 64.685941 
L 223.717418 57.386139 
L 224.173718 57.386139 
L 224.173718 53.736238 
L 224.54333 53.736238 
L 224.54333 50.086337 
L 224.659935 50.086337 
L 224.659935 46.436436 
L 225.271215 46.436436 
L 225.271215 42.786535 
L 225.62611 42.786535 
L 225.643714 35.486733 
L 225.86559 35.486733 
L 225.86559 31.836832 
L 226.160018 31.836832 
L 226.160018 28.186931 
L 226.8134 28.186931 
L 226.8134 24.53703 
L 227.103598 24.53703 
L 227.103598 20.887129 
L 227.72863 20.887129 
L 227.72863 17.237228 
L 228.187921 17.237228 
L 228.187921 13.587327 
L 230.587947 13.587327 
L 230.587947 9.937426 
L 364.32 9.937426 
L 364.32 9.937426 
" style="fill:none;stroke:#00bfbf;stroke-linecap:square;"/>
   </g>
   <g id="line2d_3">
    <path clip-path="url(#p026ce7c747)" d="M 188.421442 283.68 
L 188.421442 280.030099 
L 188.421442 280.030099 
L 188.421442 280.030099 
L 188.471268 280.030099 
L 188.471268 276.380198 
L 188.926875 276.380198 
L 188.926875 272.730297 
L 189.427968 272.730297 
L 189.497999 265.430495 
L 189.618035 265.430495 
L 189.618035 261.780594 
L 189.812204 261.780594 
L 189.814158 254.480792 
L 190.001619 254.480792 
L 190.001619 250.830891 
L 190.674829 250.830891 
L 190.674829 247.18099 
L 190.934208 247.18099 
L 190.934208 243.531089 
L 191.477977 243.531089 
L 191.477977 239.881188 
L 191.933276 239.881188 
L 191.945226 232.581386 
L 192.530527 232.581386 
L 192.636992 225.281584 
L 192.949823 225.281584 
L 192.949823 221.631683 
L 193.184882 221.631683 
L 193.184882 217.981782 
L 193.563479 217.981782 
L 193.57255 210.68198 
L 193.678787 210.68198 
L 193.678787 207.032079 
L 193.829948 207.032079 
L 193.829948 203.382178 
L 194.129412 203.382178 
L 194.237626 196.082376 
L 194.301588 196.082376 
L 194.301588 192.432475 
L 194.773114 192.432475 
L 194.870005 185.132673 
L 195.87419 185.132673 
L 195.87419 181.482772 
L 197.668875 181.482772 
L 197.717529 174.18297 
L 198.004294 174.18297 
L 198.082165 163.233267 
L 198.11992 163.233267 
L 198.11992 159.583366 
L 198.605574 159.583366 
L 198.605574 155.933465 
L 198.920889 155.933465 
L 198.920889 152.283564 
L 199.398757 152.283564 
L 199.398757 148.633663 
L 199.611642 148.633663 
L 199.67346 141.333861 
L 199.7307 141.333861 
L 199.7307 137.68396 
L 200.090002 137.68396 
L 200.090002 134.034059 
L 200.270305 134.034059 
L 200.358021 126.734257 
L 200.427205 126.734257 
L 200.508506 119.434455 
L 200.598956 119.434455 
L 200.598956 115.784554 
L 200.773432 115.784554 
L 200.837589 108.484752 
L 201.159557 108.484752 
L 201.24604 101.18495 
L 201.323436 101.18495 
L 201.348163 90.235248 
L 202.14338 90.235248 
L 202.14338 86.585347 
L 202.907248 86.585347 
L 202.940731 79.285545 
L 203.938334 79.285545 
L 203.938334 75.635644 
L 204.477644 75.635644 
L 204.477644 71.985743 
L 204.599114 71.985743 
L 204.599114 68.335842 
L 208.139446 68.335842 
L 208.139446 64.685941 
L 223.605992 64.685941 
L 223.710665 50.086337 
L 223.717418 50.086337 
L 223.717418 46.436436 
L 224.129492 46.436436 
L 224.173718 39.136634 
L 225.271215 39.136634 
L 225.271215 35.486733 
L 225.643714 35.486733 
L 225.644276 28.186931 
L 225.86559 28.186931 
L 225.86559 24.53703 
L 226.160018 24.53703 
L 226.160018 20.887129 
L 226.351791 20.887129 
L 226.367188 13.587327 
L 227.095172 13.587327 
L 227.095172 9.937426 
L 364.32 9.937426 
L 364.32 9.937426 
" style="fill:none;stroke:#bf00bf;stroke-linecap:square;"/>
   </g>
   <g id="line2d_4">
    <path clip-path="url(#p026ce7c747)" d="M 188.133248 283.68 
L 188.133248 280.030099 
L 188.421442 280.030099 
L 188.531685 269.080396 
L 188.601823 269.080396 
L 188.601823 265.430495 
L 188.926875 265.430495 
L 188.926875 261.780594 
L 189.427968 261.780594 
L 189.497999 254.480792 
L 189.618035 254.480792 
L 189.618035 250.830891 
L 189.814158 250.830891 
L 189.814158 247.18099 
L 190.001619 247.18099 
L 190.001619 243.531089 
L 190.165377 243.531089 
L 190.165377 239.881188 
L 190.570195 239.881188 
L 190.570195 236.231287 
L 190.862449 236.231287 
L 190.862449 232.581386 
L 191.28815 232.581386 
L 191.394048 225.281584 
L 191.759704 225.281584 
L 191.807277 217.981782 
L 191.933276 217.981782 
L 191.933276 214.331881 
L 192.089343 214.331881 
L 192.089343 210.68198 
L 192.261062 210.68198 
L 192.261062 207.032079 
L 192.476956 207.032079 
L 192.530527 199.732277 
L 192.636992 199.732277 
L 192.636992 196.082376 
L 192.949823 196.082376 
L 193.052766 188.782574 
L 193.184882 188.782574 
L 193.184882 185.132673 
L 193.644816 185.132673 
L 193.67172 177.832871 
L 193.829948 177.832871 
L 193.829948 174.18297 
L 194.367345 174.18297 
L 194.367345 170.533069 
L 196.020633 170.533069 
L 196.020633 166.883168 
L 196.635319 166.883168 
L 196.635319 163.233267 
L 197.30003 163.233267 
L 197.30003 159.583366 
L 197.717529 159.583366 
L 197.717529 155.933465 
L 198.025268 155.933465 
L 198.129585 134.034059 
L 198.5475 134.034059 
L 198.5475 130.384158 
L 199.074327 130.384158 
L 199.074327 126.734257 
L 199.252582 126.734257 
L 199.252582 123.084356 
L 199.67346 123.084356 
L 199.67346 119.434455 
L 199.796736 119.434455 
L 199.796736 115.784554 
L 200.144884 115.784554 
L 200.177922 104.834851 
L 200.270305 104.834851 
L 200.270305 101.18495 
L 200.570354 101.18495 
L 200.598956 93.885149 
L 201.120738 93.885149 
L 201.120738 90.235248 
L 201.337429 90.235248 
L 201.337429 86.585347 
L 202.14338 86.585347 
L 202.251191 79.285545 
L 202.538 79.285545 
L 202.538 75.635644 
L 202.940731 75.635644 
L 202.940731 71.985743 
L 203.329074 71.985743 
L 203.329074 68.335842 
L 203.938334 68.335842 
L 203.938334 64.685941 
L 219.849633 64.685941 
L 219.849633 61.03604 
L 220.379401 61.03604 
L 220.379401 57.386139 
L 222.621501 57.386139 
L 222.621501 53.736238 
L 223.427444 53.736238 
L 223.515824 46.436436 
L 223.605992 46.436436 
L 223.710665 35.486733 
L 223.794265 35.486733 
L 223.794265 31.836832 
L 224.129492 31.836832 
L 224.129492 28.186931 
L 224.276079 28.186931 
L 224.276079 24.53703 
L 224.443844 24.53703 
L 224.443844 20.887129 
L 224.904047 20.887129 
L 224.904047 17.237228 
L 225.644276 17.237228 
L 225.644276 13.587327 
L 226.367188 13.587327 
L 226.367188 9.937426 
L 364.32 9.937426 
L 364.32 9.937426 
" style="fill:none;stroke:#000000;stroke-linecap:square;"/>
   </g>
   <g id="line2d_5">
    <path clip-path="url(#p026ce7c747)" d="M 185.459669 283.68 
L 185.459669 280.030099 
L 186.608335 280.030099 
L 186.685485 272.730297 
L 187.823012 272.730297 
L 187.896913 261.780594 
L 187.977253 261.780594 
L 188.085006 250.830891 
L 188.133248 250.830891 
L 188.133248 247.18099 
L 188.418252 247.18099 
L 188.418252 243.531089 
L 188.601823 243.531089 
L 188.601823 239.881188 
L 189.427968 239.881188 
L 189.497999 228.931485 
L 189.618035 228.931485 
L 189.618035 225.281584 
L 190.461632 225.281584 
L 190.461632 221.631683 
L 190.645764 221.631683 
L 190.645764 217.981782 
L 191.140438 217.981782 
L 191.140438 214.331881 
L 191.28815 214.331881 
L 191.394048 203.382178 
L 191.567244 203.382178 
L 191.651155 196.082376 
L 191.731375 196.082376 
L 191.759704 188.782574 
L 191.933276 188.782574 
L 192.014753 177.832871 
L 192.138638 177.832871 
L 192.138638 174.18297 
L 192.354191 174.18297 
L 192.354191 170.533069 
L 193.589702 170.533069 
L 193.589702 166.883168 
L 194.254114 166.883168 
L 194.254114 163.233267 
L 194.411447 163.233267 
L 194.411447 159.583366 
L 195.45797 159.583366 
L 195.517058 152.283564 
L 195.656398 152.283564 
L 195.741867 144.983762 
L 196.312326 144.983762 
L 196.312326 141.333861 
L 196.49027 141.333861 
L 196.49027 137.68396 
L 196.799934 137.68396 
L 196.841714 123.084356 
L 197.151103 123.084356 
L 197.151103 119.434455 
L 197.316483 119.434455 
L 197.316483 115.784554 
L 197.811491 115.784554 
L 197.811491 112.134653 
L 198.039582 112.134653 
L 198.039582 108.484752 
L 199.00459 108.484752 
L 199.088845 101.18495 
L 199.619395 101.18495 
L 199.619395 97.53505 
L 199.796736 97.53505 
L 199.875621 86.585347 
L 199.98556 86.585347 
L 199.98556 82.935446 
L 200.168046 82.935446 
L 200.255157 75.635644 
L 201.490798 75.635644 
L 201.490798 71.985743 
L 202.065116 71.985743 
L 202.14338 64.685941 
L 218.068435 64.685941 
L 218.068435 61.03604 
L 219.350424 61.03604 
L 219.350424 57.386139 
L 219.849633 57.386139 
L 219.849633 53.736238 
L 220.379401 53.736238 
L 220.379401 50.086337 
L 220.538757 50.086337 
L 220.538757 46.436436 
L 221.178768 46.436436 
L 221.178768 42.786535 
L 221.529213 42.786535 
L 221.529213 39.136634 
L 222.005305 39.136634 
L 222.005305 35.486733 
L 222.21451 35.486733 
L 222.325005 28.186931 
L 222.452729 28.186931 
L 222.452729 24.53703 
L 222.621501 24.53703 
L 222.621501 20.887129 
L 222.791742 20.887129 
L 222.791742 17.237228 
L 224.443844 17.237228 
L 224.443844 13.587327 
L 225.644276 13.587327 
L 225.644276 9.937426 
L 364.32 9.937426 
L 364.32 9.937426 
" style="fill:none;stroke:#00bfbf;stroke-linecap:square;"/>
   </g>
   <g id="patch_3">
    <path d="M 7.2 7.2 
L 364.32 7.2 
" style="fill:none;stroke:#000000;stroke-linecap:square;stroke-linejoin:miter;"/>
   </g>
   <g id="patch_4">
    <path d="M 364.32 283.68 
L 364.32 7.2 
" style="fill:none;stroke:#000000;stroke-linecap:square;stroke-linejoin:miter;"/>
   </g>
   <g id="patch_5">
    <path d="M 7.2 283.68 
L 364.32 283.68 
" style="fill:none;stroke:#000000;stroke-linecap:square;stroke-linejoin:miter;"/>
   </g>
   <g id="patch_6">
    <path d="M 7.2 283.68 
L 7.2 7.2 
" style="fill:none;stroke:#000000;stroke-linecap:square;stroke-linejoin:miter;"/>
   </g>
   <g id="matplotlib.axis_1">
    <g id="xtick_1">
     <g id="line2d_6">
      <path clip-path="url(#p026ce7c747)" d="M 46.803772 283.68 
L 46.803772 7.2 
" style="fill:none;stroke:#000000;stroke-dasharray:1.000000,3.000000;stroke-dashoffset:0.0;stroke-width:0.5;"/>
     </g>
     <g id="line2d_7">
      <defs>
       <path d="M 0 0 
L 0 -4 
" id="maf5c0230c9" style="stroke:#000000;stroke-width:0.5;"/>
      </defs>
      <g>
       <use style="stroke:#000000;stroke-width:0.5;" x="46.803771872" xlink:href="#maf5c0230c9" y="283.68"/>
      </g>
     </g>
     <g id="line2d_8">
      <defs>
       <path d="M 0 0 
L 0 4 
" id="m5f70bb6eb7" style="stroke:#000000;stroke-width:0.5;"/>
      </defs>
      <g>
       <use style="stroke:#000000;stroke-width:0.5;" x="46.803771872" xlink:href="#m5f70bb6eb7" y="7.2"/>
      </g>
     </g>
     <g id="text_1">
      <!-- -6 -->
      <defs>
       <path d="M 33.015625 40.375 
Q 26.375 40.375 22.484375 35.828125 
Q 18.609375 31.296875 18.609375 23.390625 
Q 18.609375 15.53125 22.484375 10.953125 
Q 26.375 6.390625 33.015625 6.390625 
Q 39.65625 6.390625 43.53125 10.953125 
Q 47.40625 15.53125 47.40625 23.390625 
Q 47.40625 31.296875 43.53125 35.828125 
Q 39.65625 40.375 33.015625 40.375 
M 52.59375 71.296875 
L 52.59375 62.3125 
Q 48.875 64.0625 45.09375 64.984375 
Q 41.3125 65.921875 37.59375 65.921875 
Q 27.828125 65.921875 22.671875 59.328125 
Q 17.53125 52.734375 16.796875 39.40625 
Q 19.671875 43.65625 24.015625 45.921875 
Q 28.375 48.1875 33.59375 48.1875 
Q 44.578125 48.1875 50.953125 41.515625 
Q 57.328125 34.859375 57.328125 23.390625 
Q 57.328125 12.15625 50.6875 5.359375 
Q 44.046875 -1.421875 33.015625 -1.421875 
Q 20.359375 -1.421875 13.671875 8.265625 
Q 6.984375 17.96875 6.984375 36.375 
Q 6.984375 53.65625 15.1875 63.9375 
Q 23.390625 74.21875 37.203125 74.21875 
Q 40.921875 74.21875 44.703125 73.484375 
Q 48.484375 72.75 52.59375 71.296875 
" id="BitstreamVeraSans-Roman-36"/>
       <path d="M 4.890625 31.390625 
L 31.203125 31.390625 
L 31.203125 23.390625 
L 4.890625 23.390625 
z
" id="BitstreamVeraSans-Roman-2d"/>
      </defs>
      <g transform="translate(36.833459372 302.876875)scale(0.2 -0.2)">
       <use xlink:href="#BitstreamVeraSans-Roman-2d"/>
       <use x="36.083984375" xlink:href="#BitstreamVeraSans-Roman-36"/>
      </g>
     </g>
    </g>
    <g id="xtick_2">
     <g id="line2d_9">
      <path clip-path="url(#p026ce7c747)" d="M 86.4933 283.68 
L 86.4933 7.2 
" style="fill:none;stroke:#000000;stroke-dasharray:1.000000,3.000000;stroke-dashoffset:0.0;stroke-width:0.5;"/>
     </g>
     <g id="line2d_10">
      <g>
       <use style="stroke:#000000;stroke-width:0.5;" x="86.493300388" xlink:href="#maf5c0230c9" y="283.68"/>
      </g>
     </g>
     <g id="line2d_11">
      <g>
       <use style="stroke:#000000;stroke-width:0.5;" x="86.493300388" xlink:href="#m5f70bb6eb7" y="7.2"/>
      </g>
     </g>
     <g id="text_2">
      <!-- -4 -->
      <defs>
       <path d="M 37.796875 64.3125 
L 12.890625 25.390625 
L 37.796875 25.390625 
z
M 35.203125 72.90625 
L 47.609375 72.90625 
L 47.609375 25.390625 
L 58.015625 25.390625 
L 58.015625 17.1875 
L 47.609375 17.1875 
L 47.609375 0 
L 37.796875 0 
L 37.796875 17.1875 
L 4.890625 17.1875 
L 4.890625 26.703125 
z
" id="BitstreamVeraSans-Roman-34"/>
      </defs>
      <g transform="translate(76.522987888 302.876875)scale(0.2 -0.2)">
       <use xlink:href="#BitstreamVeraSans-Roman-2d"/>
       <use x="36.083984375" xlink:href="#BitstreamVeraSans-Roman-34"/>
      </g>
     </g>
    </g>
    <g id="xtick_3">
     <g id="line2d_12">
      <path clip-path="url(#p026ce7c747)" d="M 126.182829 283.68 
L 126.182829 7.2 
" style="fill:none;stroke:#000000;stroke-dasharray:1.000000,3.000000;stroke-dashoffset:0.0;stroke-width:0.5;"/>
     </g>
     <g id="line2d_13">
      <g>
       <use style="stroke:#000000;stroke-width:0.5;" x="126.182828904" xlink:href="#maf5c0230c9" y="283.68"/>
      </g>
     </g>
     <g id="line2d_14">
      <g>
       <use style="stroke:#000000;stroke-width:0.5;" x="126.182828904" xlink:href="#m5f70bb6eb7" y="7.2"/>
      </g>
     </g>
     <g id="text_3">
      <!-- -2 -->
      <defs>
       <path d="M 19.1875 8.296875 
L 53.609375 8.296875 
L 53.609375 0 
L 7.328125 0 
L 7.328125 8.296875 
Q 12.9375 14.109375 22.625 23.890625 
Q 32.328125 33.6875 34.8125 36.53125 
Q 39.546875 41.84375 41.421875 45.53125 
Q 43.3125 49.21875 43.3125 52.78125 
Q 43.3125 58.59375 39.234375 62.25 
Q 35.15625 65.921875 28.609375 65.921875 
Q 23.96875 65.921875 18.8125 64.3125 
Q 13.671875 62.703125 7.8125 59.421875 
L 7.8125 69.390625 
Q 13.765625 71.78125 18.9375 73 
Q 24.125 74.21875 28.421875 74.21875 
Q 39.75 74.21875 46.484375 68.546875 
Q 53.21875 62.890625 53.21875 53.421875 
Q 53.21875 48.921875 51.53125 44.890625 
Q 49.859375 40.875 45.40625 35.40625 
Q 44.1875 33.984375 37.640625 27.21875 
Q 31.109375 20.453125 19.1875 8.296875 
" id="BitstreamVeraSans-Roman-32"/>
      </defs>
      <g transform="translate(116.212516404 302.876875)scale(0.2 -0.2)">
       <use xlink:href="#BitstreamVeraSans-Roman-2d"/>
       <use x="36.083984375" xlink:href="#BitstreamVeraSans-Roman-32"/>
      </g>
     </g>
    </g>
    <g id="xtick_4">
     <g id="line2d_15">
      <path clip-path="url(#p026ce7c747)" d="M 165.872357 283.68 
L 165.872357 7.2 
" style="fill:none;stroke:#000000;stroke-dasharray:1.000000,3.000000;stroke-dashoffset:0.0;stroke-width:0.5;"/>
     </g>
     <g id="line2d_16">
      <g>
       <use style="stroke:#000000;stroke-width:0.5;" x="165.87235742" xlink:href="#maf5c0230c9" y="283.68"/>
      </g>
     </g>
     <g id="line2d_17">
      <g>
       <use style="stroke:#000000;stroke-width:0.5;" x="165.87235742" xlink:href="#m5f70bb6eb7" y="7.2"/>
      </g>
     </g>
     <g id="text_4">
      <!-- 0 -->
      <defs>
       <path d="M 31.78125 66.40625 
Q 24.171875 66.40625 20.328125 58.90625 
Q 16.5 51.421875 16.5 36.375 
Q 16.5 21.390625 20.328125 13.890625 
Q 24.171875 6.390625 31.78125 6.390625 
Q 39.453125 6.390625 43.28125 13.890625 
Q 47.125 21.390625 47.125 36.375 
Q 47.125 51.421875 43.28125 58.90625 
Q 39.453125 66.40625 31.78125 66.40625 
M 31.78125 74.21875 
Q 44.046875 74.21875 50.515625 64.515625 
Q 56.984375 54.828125 56.984375 36.375 
Q 56.984375 17.96875 50.515625 8.265625 
Q 44.046875 -1.421875 31.78125 -1.421875 
Q 19.53125 -1.421875 13.0625 8.265625 
Q 6.59375 17.96875 6.59375 36.375 
Q 6.59375 54.828125 13.0625 64.515625 
Q 19.53125 74.21875 31.78125 74.21875 
" id="BitstreamVeraSans-Roman-30"/>
      </defs>
      <g transform="translate(159.50985742 302.876875)scale(0.2 -0.2)">
       <use xlink:href="#BitstreamVeraSans-Roman-30"/>
      </g>
     </g>
    </g>
    <g id="xtick_5">
     <g id="line2d_18">
      <path clip-path="url(#p026ce7c747)" d="M 205.561886 283.68 
L 205.561886 7.2 
" style="fill:none;stroke:#000000;stroke-dasharray:1.000000,3.000000;stroke-dashoffset:0.0;stroke-width:0.5;"/>
     </g>
     <g id="line2d_19">
      <g>
       <use style="stroke:#000000;stroke-width:0.5;" x="205.561885936" xlink:href="#maf5c0230c9" y="283.68"/>
      </g>
     </g>
     <g id="line2d_20">
      <g>
       <use style="stroke:#000000;stroke-width:0.5;" x="205.561885936" xlink:href="#m5f70bb6eb7" y="7.2"/>
      </g>
     </g>
     <g id="text_5">
      <!-- 2 -->
      <g transform="translate(199.199385936 302.876875)scale(0.2 -0.2)">
       <use xlink:href="#BitstreamVeraSans-Roman-32"/>
      </g>
     </g>
    </g>
    <g id="xtick_6">
     <g id="line2d_21">
      <path clip-path="url(#p026ce7c747)" d="M 245.251414 283.68 
L 245.251414 7.2 
" style="fill:none;stroke:#000000;stroke-dasharray:1.000000,3.000000;stroke-dashoffset:0.0;stroke-width:0.5;"/>
     </g>
     <g id="line2d_22">
      <g>
       <use style="stroke:#000000;stroke-width:0.5;" x="245.251414452" xlink:href="#maf5c0230c9" y="283.68"/>
      </g>
     </g>
     <g id="line2d_23">
      <g>
       <use style="stroke:#000000;stroke-width:0.5;" x="245.251414452" xlink:href="#m5f70bb6eb7" y="7.2"/>
      </g>
     </g>
     <g id="text_6">
      <!-- 4 -->
      <g transform="translate(238.888914452 302.876875)scale(0.2 -0.2)">
       <use xlink:href="#BitstreamVeraSans-Roman-34"/>
      </g>
     </g>
    </g>
    <g id="xtick_7">
     <g id="line2d_24">
      <path clip-path="url(#p026ce7c747)" d="M 284.940943 283.68 
L 284.940943 7.2 
" style="fill:none;stroke:#000000;stroke-dasharray:1.000000,3.000000;stroke-dashoffset:0.0;stroke-width:0.5;"/>
     </g>
     <g id="line2d_25">
      <g>
       <use style="stroke:#000000;stroke-width:0.5;" x="284.940942968" xlink:href="#maf5c0230c9" y="283.68"/>
      </g>
     </g>
     <g id="line2d_26">
      <g>
       <use style="stroke:#000000;stroke-width:0.5;" x="284.940942968" xlink:href="#m5f70bb6eb7" y="7.2"/>
      </g>
     </g>
     <g id="text_7">
      <!-- 6 -->
      <g transform="translate(278.578442968 302.876875)scale(0.2 -0.2)">
       <use xlink:href="#BitstreamVeraSans-Roman-36"/>
      </g>
     </g>
    </g>
    <g id="xtick_8">
     <g id="line2d_27">
      <path clip-path="url(#p026ce7c747)" d="M 324.630471 283.68 
L 324.630471 7.2 
" style="fill:none;stroke:#000000;stroke-dasharray:1.000000,3.000000;stroke-dashoffset:0.0;stroke-width:0.5;"/>
     </g>
     <g id="line2d_28">
      <g>
       <use style="stroke:#000000;stroke-width:0.5;" x="324.630471484" xlink:href="#maf5c0230c9" y="283.68"/>
      </g>
     </g>
     <g id="line2d_29">
      <g>
       <use style="stroke:#000000;stroke-width:0.5;" x="324.630471484" xlink:href="#m5f70bb6eb7" y="7.2"/>
      </g>
     </g>
     <g id="text_8">
      <!-- 8 -->
      <defs>
       <path d="M 31.78125 34.625 
Q 24.75 34.625 20.71875 30.859375 
Q 16.703125 27.09375 16.703125 20.515625 
Q 16.703125 13.921875 20.71875 10.15625 
Q 24.75 6.390625 31.78125 6.390625 
Q 38.8125 6.390625 42.859375 10.171875 
Q 46.921875 13.96875 46.921875 20.515625 
Q 46.921875 27.09375 42.890625 30.859375 
Q 38.875 34.625 31.78125 34.625 
M 21.921875 38.8125 
Q 15.578125 40.375 12.03125 44.71875 
Q 8.5 49.078125 8.5 55.328125 
Q 8.5 64.0625 14.71875 69.140625 
Q 20.953125 74.21875 31.78125 74.21875 
Q 42.671875 74.21875 48.875 69.140625 
Q 55.078125 64.0625 55.078125 55.328125 
Q 55.078125 49.078125 51.53125 44.71875 
Q 48 40.375 41.703125 38.8125 
Q 48.828125 37.15625 52.796875 32.3125 
Q 56.78125 27.484375 56.78125 20.515625 
Q 56.78125 9.90625 50.3125 4.234375 
Q 43.84375 -1.421875 31.78125 -1.421875 
Q 19.734375 -1.421875 13.25 4.234375 
Q 6.78125 9.90625 6.78125 20.515625 
Q 6.78125 27.484375 10.78125 32.3125 
Q 14.796875 37.15625 21.921875 38.8125 
M 18.3125 54.390625 
Q 18.3125 48.734375 21.84375 45.5625 
Q 25.390625 42.390625 31.78125 42.390625 
Q 38.140625 42.390625 41.71875 45.5625 
Q 45.3125 48.734375 45.3125 54.390625 
Q 45.3125 60.0625 41.71875 63.234375 
Q 38.140625 66.40625 31.78125 66.40625 
Q 25.390625 66.40625 21.84375 63.234375 
Q 18.3125 60.0625 18.3125 54.390625 
" id="BitstreamVeraSans-Roman-38"/>
      </defs>
      <g transform="translate(318.267971484 302.876875)scale(0.2 -0.2)">
       <use xlink:href="#BitstreamVeraSans-Roman-38"/>
      </g>
     </g>
    </g>
    <g id="xtick_9">
     <g id="line2d_30">
      <path clip-path="url(#p026ce7c747)" d="M 364.32 283.68 
L 364.32 7.2 
" style="fill:none;stroke:#000000;stroke-dasharray:1.000000,3.000000;stroke-dashoffset:0.0;stroke-width:0.5;"/>
     </g>
     <g id="line2d_31">
      <g>
       <use style="stroke:#000000;stroke-width:0.5;" x="364.32" xlink:href="#maf5c0230c9" y="283.68"/>
      </g>
     </g>
     <g id="line2d_32">
      <g>
       <use style="stroke:#000000;stroke-width:0.5;" x="364.32" xlink:href="#m5f70bb6eb7" y="7.2"/>
      </g>
     </g>
    </g>
    <g id="xtick_10">
     <g id="line2d_33">
      <defs>
       <path d="M 0 0 
L 0 -2 
" id="m39409549b0" style="stroke:#000000;stroke-width:0.5;"/>
      </defs>
      <g>
       <use style="stroke:#000000;stroke-width:0.5;" x="46.803771872" xlink:href="#m39409549b0" y="283.68"/>
      </g>
     </g>
     <g id="line2d_34">
      <defs>
       <path d="M 0 0 
L 0 2 
" id="me41135a6bd" style="stroke:#000000;stroke-width:0.5;"/>
      </defs>
      <g>
       <use style="stroke:#000000;stroke-width:0.5;" x="46.803771872" xlink:href="#me41135a6bd" y="7.2"/>
      </g>
     </g>
    </g>
    <g id="xtick_11">
     <g id="line2d_35">
      <g>
       <use style="stroke:#000000;stroke-width:0.5;" x="86.493300388" xlink:href="#m39409549b0" y="283.68"/>
      </g>
     </g>
     <g id="line2d_36">
      <g>
       <use style="stroke:#000000;stroke-width:0.5;" x="86.493300388" xlink:href="#me41135a6bd" y="7.2"/>
      </g>
     </g>
    </g>
    <g id="xtick_12">
     <g id="line2d_37">
      <g>
       <use style="stroke:#000000;stroke-width:0.5;" x="126.182828904" xlink:href="#m39409549b0" y="283.68"/>
      </g>
     </g>
     <g id="line2d_38">
      <g>
       <use style="stroke:#000000;stroke-width:0.5;" x="126.182828904" xlink:href="#me41135a6bd" y="7.2"/>
      </g>
     </g>
    </g>
    <g id="xtick_13">
     <g id="line2d_39">
      <g>
       <use style="stroke:#000000;stroke-width:0.5;" x="165.87235742" xlink:href="#m39409549b0" y="283.68"/>
      </g>
     </g>
     <g id="line2d_40">
      <g>
       <use style="stroke:#000000;stroke-width:0.5;" x="165.87235742" xlink:href="#me41135a6bd" y="7.2"/>
      </g>
     </g>
    </g>
    <g id="xtick_14">
     <g id="line2d_41">
      <g>
       <use style="stroke:#000000;stroke-width:0.5;" x="205.561885936" xlink:href="#m39409549b0" y="283.68"/>
      </g>
     </g>
     <g id="line2d_42">
      <g>
       <use style="stroke:#000000;stroke-width:0.5;" x="205.561885936" xlink:href="#me41135a6bd" y="7.2"/>
      </g>
     </g>
    </g>
    <g id="xtick_15">
     <g id="line2d_43">
      <g>
       <use style="stroke:#000000;stroke-width:0.5;" x="245.251414452" xlink:href="#m39409549b0" y="283.68"/>
      </g>
     </g>
     <g id="line2d_44">
      <g>
       <use style="stroke:#000000;stroke-width:0.5;" x="245.251414452" xlink:href="#me41135a6bd" y="7.2"/>
      </g>
     </g>
    </g>
    <g id="xtick_16">
     <g id="line2d_45">
      <g>
       <use style="stroke:#000000;stroke-width:0.5;" x="284.940942968" xlink:href="#m39409549b0" y="283.68"/>
      </g>
     </g>
     <g id="line2d_46">
      <g>
       <use style="stroke:#000000;stroke-width:0.5;" x="284.940942968" xlink:href="#me41135a6bd" y="7.2"/>
      </g>
     </g>
    </g>
    <g id="xtick_17">
     <g id="line2d_47">
      <g>
       <use style="stroke:#000000;stroke-width:0.5;" x="324.630471484" xlink:href="#m39409549b0" y="283.68"/>
      </g>
     </g>
     <g id="line2d_48">
      <g>
       <use style="stroke:#000000;stroke-width:0.5;" x="324.630471484" xlink:href="#me41135a6bd" y="7.2"/>
      </g>
     </g>
    </g>
    <g id="xtick_18">
     <g id="line2d_49">
      <g>
       <use style="stroke:#000000;stroke-width:0.5;" x="364.32" xlink:href="#m39409549b0" y="283.68"/>
      </g>
     </g>
     <g id="line2d_50">
      <g>
       <use style="stroke:#000000;stroke-width:0.5;" x="364.32" xlink:href="#me41135a6bd" y="7.2"/>
      </g>
     </g>
    </g>
    <g id="text_9">
     <!-- log10 of Df -->
     <defs>
      <path id="BitstreamVeraSans-Roman-20"/>
      <path d="M 12.40625 8.296875 
L 28.515625 8.296875 
L 28.515625 63.921875 
L 10.984375 60.40625 
L 10.984375 69.390625 
L 28.421875 72.90625 
L 38.28125 72.90625 
L 38.28125 8.296875 
L 54.390625 8.296875 
L 54.390625 0 
L 12.40625 0 
z
" id="BitstreamVeraSans-Roman-31"/>
      <path d="M 30.609375 48.390625 
Q 23.390625 48.390625 19.1875 42.75 
Q 14.984375 37.109375 14.984375 27.296875 
Q 14.984375 17.484375 19.15625 11.84375 
Q 23.34375 6.203125 30.609375 6.203125 
Q 37.796875 6.203125 41.984375 11.859375 
Q 46.1875 17.53125 46.1875 27.296875 
Q 46.1875 37.015625 41.984375 42.703125 
Q 37.796875 48.390625 30.609375 48.390625 
M 30.609375 56 
Q 42.328125 56 49.015625 48.375 
Q 55.71875 40.765625 55.71875 27.296875 
Q 55.71875 13.875 49.015625 6.21875 
Q 42.328125 -1.421875 30.609375 -1.421875 
Q 18.84375 -1.421875 12.171875 6.21875 
Q 5.515625 13.875 5.515625 27.296875 
Q 5.515625 40.765625 12.171875 48.375 
Q 18.84375 56 30.609375 56 
" id="BitstreamVeraSans-Roman-6f"/>
      <path d="M 9.421875 75.984375 
L 18.40625 75.984375 
L 18.40625 0 
L 9.421875 0 
z
" id="BitstreamVeraSans-Roman-6c"/>
      <path d="M 19.671875 64.796875 
L 19.671875 8.109375 
L 31.59375 8.109375 
Q 46.6875 8.109375 53.6875 14.9375 
Q 60.6875 21.78125 60.6875 36.53125 
Q 60.6875 51.171875 53.6875 57.984375 
Q 46.6875 64.796875 31.59375 64.796875 
z
M 9.8125 72.90625 
L 30.078125 72.90625 
Q 51.265625 72.90625 61.171875 64.09375 
Q 71.09375 55.28125 71.09375 36.53125 
Q 71.09375 17.671875 61.125 8.828125 
Q 51.171875 0 30.078125 0 
L 9.8125 0 
z
" id="BitstreamVeraSans-Roman-44"/>
      <path d="M 45.40625 27.984375 
Q 45.40625 37.75 41.375 43.109375 
Q 37.359375 48.484375 30.078125 48.484375 
Q 22.859375 48.484375 18.828125 43.109375 
Q 14.796875 37.75 14.796875 27.984375 
Q 14.796875 18.265625 18.828125 12.890625 
Q 22.859375 7.515625 30.078125 7.515625 
Q 37.359375 7.515625 41.375 12.890625 
Q 45.40625 18.265625 45.40625 27.984375 
M 54.390625 6.78125 
Q 54.390625 -7.171875 48.1875 -13.984375 
Q 42 -20.796875 29.203125 -20.796875 
Q 24.46875 -20.796875 20.265625 -20.09375 
Q 16.0625 -19.390625 12.109375 -17.921875 
L 12.109375 -9.1875 
Q 16.0625 -11.328125 19.921875 -12.34375 
Q 23.78125 -13.375 27.78125 -13.375 
Q 36.625 -13.375 41.015625 -8.765625 
Q 45.40625 -4.15625 45.40625 5.171875 
L 45.40625 9.625 
Q 42.625 4.78125 38.28125 2.390625 
Q 33.9375 0 27.875 0 
Q 17.828125 0 11.671875 7.65625 
Q 5.515625 15.328125 5.515625 27.984375 
Q 5.515625 40.671875 11.671875 48.328125 
Q 17.828125 56 27.875 56 
Q 33.9375 56 38.28125 53.609375 
Q 42.625 51.21875 45.40625 46.390625 
L 45.40625 54.6875 
L 54.390625 54.6875 
z
" id="BitstreamVeraSans-Roman-67"/>
      <path d="M 37.109375 75.984375 
L 37.109375 68.5 
L 28.515625 68.5 
Q 23.6875 68.5 21.796875 66.546875 
Q 19.921875 64.59375 19.921875 59.515625 
L 19.921875 54.6875 
L 34.71875 54.6875 
L 34.71875 47.703125 
L 19.921875 47.703125 
L 19.921875 0 
L 10.890625 0 
L 10.890625 47.703125 
L 2.296875 47.703125 
L 2.296875 54.6875 
L 10.890625 54.6875 
L 10.890625 58.5 
Q 10.890625 67.625 15.140625 71.796875 
Q 19.390625 75.984375 28.609375 75.984375 
z
" id="BitstreamVeraSans-Roman-66"/>
     </defs>
     <g transform="translate(130.5740625 327.233125)scale(0.2 -0.2)">
      <use xlink:href="#BitstreamVeraSans-Roman-6c"/>
      <use x="27.783203125" xlink:href="#BitstreamVeraSans-Roman-6f"/>
      <use x="88.96484375" xlink:href="#BitstreamVeraSans-Roman-67"/>
      <use x="152.44140625" xlink:href="#BitstreamVeraSans-Roman-31"/>
      <use x="216.064453125" xlink:href="#BitstreamVeraSans-Roman-30"/>
      <use x="279.6875" xlink:href="#BitstreamVeraSans-Roman-20"/>
      <use x="311.474609375" xlink:href="#BitstreamVeraSans-Roman-6f"/>
      <use x="372.65625" xlink:href="#BitstreamVeraSans-Roman-66"/>
      <use x="407.861328125" xlink:href="#BitstreamVeraSans-Roman-20"/>
      <use x="439.6484375" xlink:href="#BitstreamVeraSans-Roman-44"/>
      <use x="516.650390625" xlink:href="#BitstreamVeraSans-Roman-66"/>
     </g>
    </g>
   </g>
   <g id="matplotlib.axis_2">
    <g id="ytick_1">
     <g id="line2d_51">
      <path clip-path="url(#p026ce7c747)" d="M 7.2 283.68 
L 364.32 283.68 
" style="fill:none;stroke:#000000;stroke-dasharray:1.000000,3.000000;stroke-dashoffset:0.0;stroke-width:0.5;"/>
     </g>
     <g id="line2d_52">
      <defs>
       <path d="M 0 0 
L 4 0 
" id="mede1f77cc3" style="stroke:#000000;stroke-width:0.5;"/>
      </defs>
      <g>
       <use style="stroke:#000000;stroke-width:0.5;" x="7.2" xlink:href="#mede1f77cc3" y="283.68"/>
      </g>
     </g>
     <g id="line2d_53">
      <defs>
       <path d="M 0 0 
L -4 0 
" id="m6476dc001b" style="stroke:#000000;stroke-width:0.5;"/>
      </defs>
      <g>
       <use style="stroke:#000000;stroke-width:0.5;" x="364.32" xlink:href="#m6476dc001b" y="283.68"/>
      </g>
     </g>
    </g>
    <g id="ytick_2">
     <g id="line2d_54">
      <path clip-path="url(#p026ce7c747)" d="M 7.2 228.931485 
L 364.32 228.931485 
" style="fill:none;stroke:#000000;stroke-dasharray:1.000000,3.000000;stroke-dashoffset:0.0;stroke-width:0.5;"/>
     </g>
     <g id="line2d_55">
      <g>
       <use style="stroke:#000000;stroke-width:0.5;" x="7.2" xlink:href="#mede1f77cc3" y="228.931485149"/>
      </g>
     </g>
     <g id="line2d_56">
      <g>
       <use style="stroke:#000000;stroke-width:0.5;" x="364.32" xlink:href="#m6476dc001b" y="228.931485149"/>
      </g>
     </g>
    </g>
    <g id="ytick_3">
     <g id="line2d_57">
      <path clip-path="url(#p026ce7c747)" d="M 7.2 174.18297 
L 364.32 174.18297 
" style="fill:none;stroke:#000000;stroke-dasharray:1.000000,3.000000;stroke-dashoffset:0.0;stroke-width:0.5;"/>
     </g>
     <g id="line2d_58">
      <g>
       <use style="stroke:#000000;stroke-width:0.5;" x="7.2" xlink:href="#mede1f77cc3" y="174.182970297"/>
      </g>
     </g>
     <g id="line2d_59">
      <g>
       <use style="stroke:#000000;stroke-width:0.5;" x="364.32" xlink:href="#m6476dc001b" y="174.182970297"/>
      </g>
     </g>
    </g>
    <g id="ytick_4">
     <g id="line2d_60">
      <path clip-path="url(#p026ce7c747)" d="M 7.2 119.434455 
L 364.32 119.434455 
" style="fill:none;stroke:#000000;stroke-dasharray:1.000000,3.000000;stroke-dashoffset:0.0;stroke-width:0.5;"/>
     </g>
     <g id="line2d_61">
      <g>
       <use style="stroke:#000000;stroke-width:0.5;" x="7.2" xlink:href="#mede1f77cc3" y="119.434455446"/>
      </g>
     </g>
     <g id="line2d_62">
      <g>
       <use style="stroke:#000000;stroke-width:0.5;" x="364.32" xlink:href="#m6476dc001b" y="119.434455446"/>
      </g>
     </g>
    </g>
    <g id="ytick_5">
     <g id="line2d_63">
      <path clip-path="url(#p026ce7c747)" d="M 7.2 64.685941 
L 364.32 64.685941 
" style="fill:none;stroke:#000000;stroke-dasharray:1.000000,3.000000;stroke-dashoffset:0.0;stroke-width:0.5;"/>
     </g>
     <g id="line2d_64">
      <g>
       <use style="stroke:#000000;stroke-width:0.5;" x="7.2" xlink:href="#mede1f77cc3" y="64.6859405941"/>
      </g>
     </g>
     <g id="line2d_65">
      <g>
       <use style="stroke:#000000;stroke-width:0.5;" x="364.32" xlink:href="#m6476dc001b" y="64.6859405941"/>
      </g>
     </g>
    </g>
    <g id="ytick_6">
     <g id="line2d_66">
      <path clip-path="url(#p026ce7c747)" d="M 7.2 9.937426 
L 364.32 9.937426 
" style="fill:none;stroke:#000000;stroke-dasharray:1.000000,3.000000;stroke-dashoffset:0.0;stroke-width:0.5;"/>
     </g>
     <g id="line2d_67">
      <g>
       <use style="stroke:#000000;stroke-width:0.5;" x="7.2" xlink:href="#mede1f77cc3" y="9.93742574257"/>
      </g>
     </g>
     <g id="line2d_68">
      <g>
       <use style="stroke:#000000;stroke-width:0.5;" x="364.32" xlink:href="#m6476dc001b" y="9.93742574257"/>
      </g>
     </g>
    </g>
   </g>
   <g id="text_10">
    <!-- f15-19,20-D -->
    <defs>
     <path d="M 11.71875 12.40625 
L 22.015625 12.40625 
L 22.015625 4 
L 14.015625 -11.625 
L 7.71875 -11.625 
L 11.71875 4 
z
" id="BitstreamVeraSans-Roman-2c"/>
     <path d="M 10.984375 1.515625 
L 10.984375 10.5 
Q 14.703125 8.734375 18.5 7.8125 
Q 22.3125 6.890625 25.984375 6.890625 
Q 35.75 6.890625 40.890625 13.453125 
Q 46.046875 20.015625 46.78125 33.40625 
Q 43.953125 29.203125 39.59375 26.953125 
Q 35.25 24.703125 29.984375 24.703125 
Q 19.046875 24.703125 12.671875 31.3125 
Q 6.296875 37.9375 6.296875 49.421875 
Q 6.296875 60.640625 12.9375 67.421875 
Q 19.578125 74.21875 30.609375 74.21875 
Q 43.265625 74.21875 49.921875 64.515625 
Q 56.59375 54.828125 56.59375 36.375 
Q 56.59375 19.140625 48.40625 8.859375 
Q 40.234375 -1.421875 26.421875 -1.421875 
Q 22.703125 -1.421875 18.890625 -0.6875 
Q 15.09375 0.046875 10.984375 1.515625 
M 30.609375 32.421875 
Q 37.25 32.421875 41.125 36.953125 
Q 45.015625 41.5 45.015625 49.421875 
Q 45.015625 57.28125 41.125 61.84375 
Q 37.25 66.40625 30.609375 66.40625 
Q 23.96875 66.40625 20.09375 61.84375 
Q 16.21875 57.28125 16.21875 49.421875 
Q 16.21875 41.5 20.09375 36.953125 
Q 23.96875 32.421875 30.609375 32.421875 
" id="BitstreamVeraSans-Roman-39"/>
     <path d="M 10.796875 72.90625 
L 49.515625 72.90625 
L 49.515625 64.59375 
L 19.828125 64.59375 
L 19.828125 46.734375 
Q 21.96875 47.46875 24.109375 47.828125 
Q 26.265625 48.1875 28.421875 48.1875 
Q 40.625 48.1875 47.75 41.5 
Q 54.890625 34.8125 54.890625 23.390625 
Q 54.890625 11.625 47.5625 5.09375 
Q 40.234375 -1.421875 26.90625 -1.421875 
Q 22.3125 -1.421875 17.546875 -0.640625 
Q 12.796875 0.140625 7.71875 1.703125 
L 7.71875 11.625 
Q 12.109375 9.234375 16.796875 8.0625 
Q 21.484375 6.890625 26.703125 6.890625 
Q 35.15625 6.890625 40.078125 11.328125 
Q 45.015625 15.765625 45.015625 23.390625 
Q 45.015625 31 40.078125 35.4375 
Q 35.15625 39.890625 26.703125 39.890625 
Q 22.75 39.890625 18.8125 39.015625 
Q 14.890625 38.140625 10.796875 36.28125 
z
" id="BitstreamVeraSans-Roman-35"/>
    </defs>
    <g transform="translate(237.599475 278.1504)scale(0.2 -0.2)">
     <use xlink:href="#BitstreamVeraSans-Roman-66"/>
     <use x="35.205078125" xlink:href="#BitstreamVeraSans-Roman-31"/>
     <use x="98.828125" xlink:href="#BitstreamVeraSans-Roman-35"/>
     <use x="162.451171875" xlink:href="#BitstreamVeraSans-Roman-2d"/>
     <use x="198.53515625" xlink:href="#BitstreamVeraSans-Roman-31"/>
     <use x="262.158203125" xlink:href="#BitstreamVeraSans-Roman-39"/>
     <use x="325.78125" xlink:href="#BitstreamVeraSans-Roman-2c"/>
     <use x="357.568359375" xlink:href="#BitstreamVeraSans-Roman-32"/>
     <use x="421.19140625" xlink:href="#BitstreamVeraSans-Roman-30"/>
     <use x="484.814453125" xlink:href="#BitstreamVeraSans-Roman-2d"/>
     <use x="520.8984375" xlink:href="#BitstreamVeraSans-Roman-44"/>
    </g>
   </g>
  </g>
 </g>
 <defs>
  <clipPath id="p026ce7c747">
   <rect height="276.48" width="357.12" x="7.2" y="7.2"/>
  </clipPath>
 </defs>
</svg>
