<?xml version="1.0" encoding="utf-8" standalone="no"?>
<!DOCTYPE svg PUBLIC "-//W3C//DTD SVG 1.1//EN"
  "http://www.w3.org/Graphics/SVG/1.1/DTD/svg11.dtd">
<!-- Created with matplotlib (http://matplotlib.org/) -->
<svg height="338pt" version="1.1" viewBox="0 0 371 338" width="371pt" xmlns="http://www.w3.org/2000/svg" xmlns:xlink="http://www.w3.org/1999/xlink">
 <defs>
  <style type="text/css">
*{stroke-linecap:butt;stroke-linejoin:round;stroke-miterlimit:100000;}
  </style>
 </defs>
 <g id="figure_1">
  <g id="patch_1">
   <path d="M 0 338.5925 
L 371.52 338.5925 
L 371.52 0 
L 0 0 
z
" style="fill:#ffffff;"/>
  </g>
  <g id="axes_1">
   <g id="patch_2">
    <path d="M 7.2 283.68 
L 364.32 283.68 
L 364.32 7.2 
L 7.2 7.2 
z
" style="fill:#ffffff;"/>
   </g>
   <g id="line2d_1">
    <path clip-path="url(#pec2b140497)" d="M 175.093023 283.68 
L 175.093023 280.030099 
L 175.571786 280.030099 
L 175.571786 276.380198 
L 175.801633 276.380198 
L 175.801633 272.730297 
L 176.03325 272.730297 
L 176.132837 265.430495 
L 176.689786 265.430495 
L 176.72699 258.130693 
L 177.262829 258.130693 
L 177.262829 254.480792 
L 177.62496 254.480792 
L 177.62496 250.830891 
L 178.019286 250.830891 
L 178.019286 247.18099 
L 178.146873 247.18099 
L 178.146873 243.531089 
L 178.635362 243.531089 
L 178.635362 239.881188 
L 178.859478 239.881188 
L 178.881341 232.581386 
L 179.015525 232.581386 
L 179.015525 228.931485 
L 202.472051 228.931485 
L 202.537235 214.331881 
L 202.606878 214.331881 
L 202.664493 203.382178 
L 202.724834 203.382178 
L 202.828163 185.132673 
L 202.836314 185.132673 
L 202.929917 163.233267 
L 203.033356 163.233267 
L 203.133359 148.633663 
L 203.230286 148.633663 
L 203.316664 134.034059 
L 203.351968 134.034059 
L 203.452153 123.084356 
L 203.735566 123.084356 
L 203.735566 119.434455 
L 216.189101 119.434455 
L 216.189101 115.784554 
L 216.429273 115.784554 
L 216.429273 112.134653 
L 216.622065 112.134653 
L 216.712584 101.18495 
L 216.73851 101.18495 
L 216.73851 97.53505 
L 217.161586 97.53505 
L 217.197435 90.235248 
L 217.33125 90.235248 
L 217.392976 82.935446 
L 217.505269 82.935446 
L 217.505269 79.285545 
L 217.649227 79.285545 
L 217.649227 75.635644 
L 217.818108 75.635644 
L 217.818108 71.985743 
L 218.112159 71.985743 
L 218.15663 64.685941 
L 248.940179 64.685941 
L 248.940179 61.03604 
L 249.456194 61.03604 
L 249.456194 57.386139 
L 249.925412 57.386139 
L 249.925412 53.736238 
L 250.706678 53.736238 
L 250.706678 50.086337 
L 251.682814 50.086337 
L 251.768494 42.786535 
L 252.251677 42.786535 
L 252.251677 39.136634 
L 252.642332 39.136634 
L 252.642332 35.486733 
L 253.079032 35.486733 
L 253.079032 31.836832 
L 253.191133 31.836832 
L 253.191133 28.186931 
L 253.697912 28.186931 
L 253.697912 24.53703 
L 253.904246 24.53703 
L 253.904246 20.887129 
L 254.183003 20.887129 
L 254.183003 17.237228 
L 255.195701 17.237228 
L 255.195701 13.587327 
L 255.700714 13.587327 
L 255.700714 9.937426 
L 364.32 9.937426 
L 364.32 9.937426 
" style="fill:none;stroke:#ff0000;stroke-linecap:square;stroke-width:3.0;"/>
   </g>
   <g id="line2d_2">
    <path clip-path="url(#pec2b140497)" d="M 177.643703 283.68 
L 177.643703 280.030099 
L 179.021887 280.030099 
L 179.021887 276.380198 
L 181.104893 276.380198 
L 181.104893 272.730297 
L 181.45393 272.730297 
L 181.45393 269.080396 
L 182.392052 269.080396 
L 182.392052 265.430495 
L 182.818102 265.430495 
L 182.818102 261.780594 
L 183.233653 261.780594 
L 183.233653 258.130693 
L 184.134653 258.130693 
L 184.134653 254.480792 
L 184.661217 254.480792 
L 184.661217 250.830891 
L 184.963459 250.830891 
L 184.963459 247.18099 
L 186.30082 247.18099 
L 186.30082 243.531089 
L 186.538954 243.531089 
L 186.552589 236.231287 
L 186.785806 236.231287 
L 186.815492 228.931485 
L 203.329475 228.931485 
L 203.373852 221.631683 
L 203.532559 221.631683 
L 203.605365 203.382178 
L 203.670555 203.382178 
L 203.765036 188.782574 
L 203.80023 188.782574 
L 203.862074 177.832871 
L 203.953331 177.832871 
L 204.054581 155.933465 
L 204.08592 155.933465 
L 204.190085 123.084356 
L 204.210677 123.084356 
L 204.210677 119.434455 
L 219.190245 119.434455 
L 219.190245 115.784554 
L 220.549472 115.784554 
L 220.648863 104.834851 
L 220.686028 104.834851 
L 220.686028 101.18495 
L 220.846639 101.18495 
L 220.846639 97.53505 
L 221.224347 97.53505 
L 221.226764 90.235248 
L 221.426717 90.235248 
L 221.426717 86.585347 
L 222.018638 86.585347 
L 222.110316 71.985743 
L 222.185088 71.985743 
L 222.185088 68.335842 
L 222.326725 68.335842 
L 222.326725 64.685941 
L 256.79018 64.685941 
L 256.79018 61.03604 
L 259.287131 61.03604 
L 259.287131 57.386139 
L 259.79646 57.386139 
L 259.79646 53.736238 
L 260.520329 53.736238 
L 260.520329 50.086337 
L 260.947438 50.086337 
L 260.947438 46.436436 
L 261.160501 46.436436 
L 261.160501 42.786535 
L 261.722645 42.786535 
L 261.722645 39.136634 
L 262.051044 39.136634 
L 262.051044 35.486733 
L 262.233045 35.486733 
L 262.233045 31.836832 
L 263.35477 31.836832 
L 263.35477 28.186931 
L 263.467287 28.186931 
L 263.467287 24.53703 
L 264.220292 24.53703 
L 264.261725 17.237228 
L 264.545294 17.237228 
L 264.545294 13.587327 
L 268.066259 13.587327 
L 268.066259 9.937426 
L 364.32 9.937426 
L 364.32 9.937426 
" style="fill:none;stroke:#00bfbf;stroke-linecap:square;"/>
   </g>
   <g id="line2d_3">
    <path clip-path="url(#pec2b140497)" d="M 177.643703 283.68 
L 177.643703 280.030099 
L 179.021887 280.030099 
L 179.021887 276.380198 
L 180.701904 276.380198 
L 180.701904 272.730297 
L 181.104893 272.730297 
L 181.190281 265.430495 
L 181.45393 265.430495 
L 181.45393 261.780594 
L 182.240689 261.780594 
L 182.240689 258.130693 
L 182.392052 258.130693 
L 182.392052 254.480792 
L 182.740319 254.480792 
L 182.740319 250.830891 
L 183.205091 250.830891 
L 183.205091 247.18099 
L 183.669599 247.18099 
L 183.715429 239.881188 
L 184.134653 239.881188 
L 184.134653 236.231287 
L 184.963459 236.231287 
L 184.963459 232.581386 
L 185.642834 232.581386 
L 185.642834 228.931485 
L 203.130812 228.931485 
L 203.130812 225.281584 
L 203.329475 225.281584 
L 203.398452 210.68198 
L 203.495406 210.68198 
L 203.585278 188.782574 
L 203.623346 188.782574 
L 203.670555 177.832871 
L 203.753031 177.832871 
L 203.862074 159.583366 
L 203.900232 159.583366 
L 204.003916 137.68396 
L 204.054581 137.68396 
L 204.098879 119.434455 
L 218.841456 119.434455 
L 218.841456 115.784554 
L 219.190245 115.784554 
L 219.190245 112.134653 
L 219.885419 112.134653 
L 219.885419 108.484752 
L 220.103316 108.484752 
L 220.166785 101.18495 
L 220.220823 101.18495 
L 220.220823 97.53505 
L 220.509263 97.53505 
L 220.549472 90.235248 
L 220.648863 90.235248 
L 220.686028 82.935446 
L 220.819816 82.935446 
L 220.846639 75.635644 
L 221.148436 75.635644 
L 221.148436 71.985743 
L 221.426717 71.985743 
L 221.426717 68.335842 
L 222.162363 68.335842 
L 222.162363 64.685941 
L 253.974038 64.685941 
L 253.974038 61.03604 
L 256.763261 61.03604 
L 256.79018 53.736238 
L 259.105418 53.736238 
L 259.105418 50.086337 
L 259.287131 50.086337 
L 259.287131 46.436436 
L 259.426021 46.436436 
L 259.426021 42.786535 
L 259.79646 42.786535 
L 259.79646 39.136634 
L 260.520329 39.136634 
L 260.520329 35.486733 
L 260.947438 35.486733 
L 260.947438 31.836832 
L 261.160501 31.836832 
L 261.171446 24.53703 
L 261.722645 24.53703 
L 261.722645 20.887129 
L 262.051044 20.887129 
L 262.051044 17.237228 
L 262.540562 17.237228 
L 262.540562 13.587327 
L 263.467287 13.587327 
L 263.467287 9.937426 
L 364.32 9.937426 
L 364.32 9.937426 
" style="fill:none;stroke:#bf00bf;stroke-linecap:square;"/>
   </g>
   <g id="line2d_4">
    <path clip-path="url(#pec2b140497)" d="M 177.643703 283.68 
L 177.643703 280.030099 
L 177.955629 280.030099 
L 177.955629 276.380198 
L 179.021887 276.380198 
L 179.021887 272.730297 
L 179.536194 272.730297 
L 179.536194 269.080396 
L 180.701904 269.080396 
L 180.704319 261.780594 
L 180.871294 261.780594 
L 180.968823 254.480792 
L 181.104893 254.480792 
L 181.190281 247.18099 
L 181.278051 247.18099 
L 181.278051 243.531089 
L 181.45393 243.531089 
L 181.45393 239.881188 
L 182.392052 239.881188 
L 182.392052 236.231287 
L 183.205091 236.231287 
L 183.205091 232.581386 
L 183.669599 232.581386 
L 183.669599 228.931485 
L 202.917439 228.931485 
L 202.917439 225.281584 
L 203.099378 225.281584 
L 203.131064 214.331881 
L 203.280815 214.331881 
L 203.377534 192.432475 
L 203.398452 192.432475 
L 203.495406 181.482772 
L 203.532559 181.482772 
L 203.623346 163.233267 
L 203.661944 163.233267 
L 203.724037 152.283564 
L 203.787228 152.283564 
L 203.85788 141.333861 
L 203.905641 141.333861 
L 204.003916 123.084356 
L 204.098879 123.084356 
L 204.098879 119.434455 
L 218.111785 119.434455 
L 218.111785 115.784554 
L 218.770427 115.784554 
L 218.841456 108.484752 
L 219.190245 108.484752 
L 219.190245 104.834851 
L 219.335823 104.834851 
L 219.39727 97.53505 
L 219.450899 97.53505 
L 219.450899 93.885149 
L 219.655151 93.885149 
L 219.739464 86.585347 
L 219.885419 86.585347 
L 219.885419 82.935446 
L 220.03774 82.935446 
L 220.067657 75.635644 
L 220.299898 75.635644 
L 220.299898 71.985743 
L 220.583315 71.985743 
L 220.686028 64.685941 
L 253.974038 64.685941 
L 253.974038 61.03604 
L 254.834694 61.03604 
L 254.914726 53.736238 
L 256.79018 53.736238 
L 256.79018 50.086337 
L 257.039843 50.086337 
L 257.039843 46.436436 
L 257.218868 46.436436 
L 257.218868 42.786535 
L 258.589992 42.786535 
L 258.589992 39.136634 
L 258.996055 39.136634 
L 259.054599 28.186931 
L 259.287131 28.186931 
L 259.287131 24.53703 
L 259.426021 24.53703 
L 259.426021 20.887129 
L 259.79646 20.887129 
L 259.79646 17.237228 
L 260.111657 17.237228 
L 260.111657 13.587327 
L 262.043671 13.587327 
L 262.043671 9.937426 
L 364.32 9.937426 
L 364.32 9.937426 
" style="fill:none;stroke:#000000;stroke-linecap:square;"/>
   </g>
   <g id="line2d_5">
    <path clip-path="url(#pec2b140497)" d="M 177.643703 283.68 
L 177.643703 280.030099 
L 177.762809 280.030099 
L 177.762809 276.380198 
L 177.955629 276.380198 
L 178.05416 265.430495 
L 178.931106 265.430495 
L 179.021887 258.130693 
L 179.170084 258.130693 
L 179.170084 254.480792 
L 179.549422 254.480792 
L 179.549422 250.830891 
L 179.875893 250.830891 
L 179.974903 243.531089 
L 180.323887 243.531089 
L 180.323887 239.881188 
L 181.104893 239.881188 
L 181.190281 232.581386 
L 182.023713 232.581386 
L 182.023713 228.931485 
L 202.529569 228.931485 
L 202.529569 225.281584 
L 202.796485 225.281584 
L 202.797071 217.981782 
L 202.91081 217.981782 
L 202.976116 207.032079 
L 203.022149 207.032079 
L 203.130812 192.432475 
L 203.13785 192.432475 
L 203.201115 185.132673 
L 203.263757 185.132673 
L 203.373852 163.233267 
L 203.375249 163.233267 
L 203.462595 137.68396 
L 203.5455 137.68396 
L 203.585278 130.384158 
L 203.693708 130.384158 
L 203.740327 119.434455 
L 217.447231 119.434455 
L 217.447231 115.784554 
L 217.71666 115.784554 
L 217.71666 112.134653 
L 217.859566 112.134653 
L 217.859566 108.484752 
L 218.111785 108.484752 
L 218.111785 104.834851 
L 218.264982 104.834851 
L 218.313765 97.53505 
L 218.462528 97.53505 
L 218.462528 93.885149 
L 218.708834 93.885149 
L 218.790428 86.585347 
L 218.841456 86.585347 
L 218.841456 82.935446 
L 219.007726 82.935446 
L 219.007726 79.285545 
L 219.221263 79.285545 
L 219.221263 75.635644 
L 219.376302 75.635644 
L 219.39727 68.335842 
L 219.739464 68.335842 
L 219.739464 64.685941 
L 252.273864 64.685941 
L 252.273864 61.03604 
L 253.627819 61.03604 
L 253.627819 57.386139 
L 253.974038 57.386139 
L 253.974038 53.736238 
L 254.834694 53.736238 
L 254.914726 46.436436 
L 255.243324 46.436436 
L 255.346823 35.486733 
L 255.585615 35.486733 
L 255.585615 31.836832 
L 255.884384 31.836832 
L 255.989771 24.53703 
L 256.681813 24.53703 
L 256.689093 17.237228 
L 257.039843 17.237228 
L 257.039843 13.587327 
L 257.228729 13.587327 
L 257.228729 9.937426 
L 364.32 9.937426 
L 364.32 9.937426 
" style="fill:none;stroke:#00bfbf;stroke-linecap:square;"/>
   </g>
   <g id="patch_3">
    <path d="M 7.2 7.2 
L 364.32 7.2 
" style="fill:none;stroke:#000000;stroke-linecap:square;stroke-linejoin:miter;"/>
   </g>
   <g id="patch_4">
    <path d="M 364.32 283.68 
L 364.32 7.2 
" style="fill:none;stroke:#000000;stroke-linecap:square;stroke-linejoin:miter;"/>
   </g>
   <g id="patch_5">
    <path d="M 7.2 283.68 
L 364.32 283.68 
" style="fill:none;stroke:#000000;stroke-linecap:square;stroke-linejoin:miter;"/>
   </g>
   <g id="patch_6">
    <path d="M 7.2 283.68 
L 7.2 7.2 
" style="fill:none;stroke:#000000;stroke-linecap:square;stroke-linejoin:miter;"/>
   </g>
   <g id="matplotlib.axis_1">
    <g id="xtick_1">
     <g id="line2d_6">
      <path clip-path="url(#pec2b140497)" d="M 46.803772 283.68 
L 46.803772 7.2 
" style="fill:none;stroke:#000000;stroke-dasharray:1.000000,3.000000;stroke-dashoffset:0.0;stroke-width:0.5;"/>
     </g>
     <g id="line2d_7">
      <defs>
       <path d="M 0 0 
L 0 -4 
" id="m59cf38c75f" style="stroke:#000000;stroke-width:0.5;"/>
      </defs>
      <g>
       <use style="stroke:#000000;stroke-width:0.5;" x="46.803771872" xlink:href="#m59cf38c75f" y="283.68"/>
      </g>
     </g>
     <g id="line2d_8">
      <defs>
       <path d="M 0 0 
L 0 4 
" id="m02c209d0fe" style="stroke:#000000;stroke-width:0.5;"/>
      </defs>
      <g>
       <use style="stroke:#000000;stroke-width:0.5;" x="46.803771872" xlink:href="#m02c209d0fe" y="7.2"/>
      </g>
     </g>
     <g id="text_1">
      <!-- -6 -->
      <defs>
       <path d="M 33.015625 40.375 
Q 26.375 40.375 22.484375 35.828125 
Q 18.609375 31.296875 18.609375 23.390625 
Q 18.609375 15.53125 22.484375 10.953125 
Q 26.375 6.390625 33.015625 6.390625 
Q 39.65625 6.390625 43.53125 10.953125 
Q 47.40625 15.53125 47.40625 23.390625 
Q 47.40625 31.296875 43.53125 35.828125 
Q 39.65625 40.375 33.015625 40.375 
M 52.59375 71.296875 
L 52.59375 62.3125 
Q 48.875 64.0625 45.09375 64.984375 
Q 41.3125 65.921875 37.59375 65.921875 
Q 27.828125 65.921875 22.671875 59.328125 
Q 17.53125 52.734375 16.796875 39.40625 
Q 19.671875 43.65625 24.015625 45.921875 
Q 28.375 48.1875 33.59375 48.1875 
Q 44.578125 48.1875 50.953125 41.515625 
Q 57.328125 34.859375 57.328125 23.390625 
Q 57.328125 12.15625 50.6875 5.359375 
Q 44.046875 -1.421875 33.015625 -1.421875 
Q 20.359375 -1.421875 13.671875 8.265625 
Q 6.984375 17.96875 6.984375 36.375 
Q 6.984375 53.65625 15.1875 63.9375 
Q 23.390625 74.21875 37.203125 74.21875 
Q 40.921875 74.21875 44.703125 73.484375 
Q 48.484375 72.75 52.59375 71.296875 
" id="BitstreamVeraSans-Roman-36"/>
       <path d="M 4.890625 31.390625 
L 31.203125 31.390625 
L 31.203125 23.390625 
L 4.890625 23.390625 
z
" id="BitstreamVeraSans-Roman-2d"/>
      </defs>
      <g transform="translate(36.833459372 302.876875)scale(0.2 -0.2)">
       <use xlink:href="#BitstreamVeraSans-Roman-2d"/>
       <use x="36.083984375" xlink:href="#BitstreamVeraSans-Roman-36"/>
      </g>
     </g>
    </g>
    <g id="xtick_2">
     <g id="line2d_9">
      <path clip-path="url(#pec2b140497)" d="M 86.4933 283.68 
L 86.4933 7.2 
" style="fill:none;stroke:#000000;stroke-dasharray:1.000000,3.000000;stroke-dashoffset:0.0;stroke-width:0.5;"/>
     </g>
     <g id="line2d_10">
      <g>
       <use style="stroke:#000000;stroke-width:0.5;" x="86.493300388" xlink:href="#m59cf38c75f" y="283.68"/>
      </g>
     </g>
     <g id="line2d_11">
      <g>
       <use style="stroke:#000000;stroke-width:0.5;" x="86.493300388" xlink:href="#m02c209d0fe" y="7.2"/>
      </g>
     </g>
     <g id="text_2">
      <!-- -4 -->
      <defs>
       <path d="M 37.796875 64.3125 
L 12.890625 25.390625 
L 37.796875 25.390625 
z
M 35.203125 72.90625 
L 47.609375 72.90625 
L 47.609375 25.390625 
L 58.015625 25.390625 
L 58.015625 17.1875 
L 47.609375 17.1875 
L 47.609375 0 
L 37.796875 0 
L 37.796875 17.1875 
L 4.890625 17.1875 
L 4.890625 26.703125 
z
" id="BitstreamVeraSans-Roman-34"/>
      </defs>
      <g transform="translate(76.522987888 302.876875)scale(0.2 -0.2)">
       <use xlink:href="#BitstreamVeraSans-Roman-2d"/>
       <use x="36.083984375" xlink:href="#BitstreamVeraSans-Roman-34"/>
      </g>
     </g>
    </g>
    <g id="xtick_3">
     <g id="line2d_12">
      <path clip-path="url(#pec2b140497)" d="M 126.182829 283.68 
L 126.182829 7.2 
" style="fill:none;stroke:#000000;stroke-dasharray:1.000000,3.000000;stroke-dashoffset:0.0;stroke-width:0.5;"/>
     </g>
     <g id="line2d_13">
      <g>
       <use style="stroke:#000000;stroke-width:0.5;" x="126.182828904" xlink:href="#m59cf38c75f" y="283.68"/>
      </g>
     </g>
     <g id="line2d_14">
      <g>
       <use style="stroke:#000000;stroke-width:0.5;" x="126.182828904" xlink:href="#m02c209d0fe" y="7.2"/>
      </g>
     </g>
     <g id="text_3">
      <!-- -2 -->
      <defs>
       <path d="M 19.1875 8.296875 
L 53.609375 8.296875 
L 53.609375 0 
L 7.328125 0 
L 7.328125 8.296875 
Q 12.9375 14.109375 22.625 23.890625 
Q 32.328125 33.6875 34.8125 36.53125 
Q 39.546875 41.84375 41.421875 45.53125 
Q 43.3125 49.21875 43.3125 52.78125 
Q 43.3125 58.59375 39.234375 62.25 
Q 35.15625 65.921875 28.609375 65.921875 
Q 23.96875 65.921875 18.8125 64.3125 
Q 13.671875 62.703125 7.8125 59.421875 
L 7.8125 69.390625 
Q 13.765625 71.78125 18.9375 73 
Q 24.125 74.21875 28.421875 74.21875 
Q 39.75 74.21875 46.484375 68.546875 
Q 53.21875 62.890625 53.21875 53.421875 
Q 53.21875 48.921875 51.53125 44.890625 
Q 49.859375 40.875 45.40625 35.40625 
Q 44.1875 33.984375 37.640625 27.21875 
Q 31.109375 20.453125 19.1875 8.296875 
" id="BitstreamVeraSans-Roman-32"/>
      </defs>
      <g transform="translate(116.212516404 302.876875)scale(0.2 -0.2)">
       <use xlink:href="#BitstreamVeraSans-Roman-2d"/>
       <use x="36.083984375" xlink:href="#BitstreamVeraSans-Roman-32"/>
      </g>
     </g>
    </g>
    <g id="xtick_4">
     <g id="line2d_15">
      <path clip-path="url(#pec2b140497)" d="M 165.872357 283.68 
L 165.872357 7.2 
" style="fill:none;stroke:#000000;stroke-dasharray:1.000000,3.000000;stroke-dashoffset:0.0;stroke-width:0.5;"/>
     </g>
     <g id="line2d_16">
      <g>
       <use style="stroke:#000000;stroke-width:0.5;" x="165.87235742" xlink:href="#m59cf38c75f" y="283.68"/>
      </g>
     </g>
     <g id="line2d_17">
      <g>
       <use style="stroke:#000000;stroke-width:0.5;" x="165.87235742" xlink:href="#m02c209d0fe" y="7.2"/>
      </g>
     </g>
     <g id="text_4">
      <!-- 0 -->
      <defs>
       <path d="M 31.78125 66.40625 
Q 24.171875 66.40625 20.328125 58.90625 
Q 16.5 51.421875 16.5 36.375 
Q 16.5 21.390625 20.328125 13.890625 
Q 24.171875 6.390625 31.78125 6.390625 
Q 39.453125 6.390625 43.28125 13.890625 
Q 47.125 21.390625 47.125 36.375 
Q 47.125 51.421875 43.28125 58.90625 
Q 39.453125 66.40625 31.78125 66.40625 
M 31.78125 74.21875 
Q 44.046875 74.21875 50.515625 64.515625 
Q 56.984375 54.828125 56.984375 36.375 
Q 56.984375 17.96875 50.515625 8.265625 
Q 44.046875 -1.421875 31.78125 -1.421875 
Q 19.53125 -1.421875 13.0625 8.265625 
Q 6.59375 17.96875 6.59375 36.375 
Q 6.59375 54.828125 13.0625 64.515625 
Q 19.53125 74.21875 31.78125 74.21875 
" id="BitstreamVeraSans-Roman-30"/>
      </defs>
      <g transform="translate(159.50985742 302.876875)scale(0.2 -0.2)">
       <use xlink:href="#BitstreamVeraSans-Roman-30"/>
      </g>
     </g>
    </g>
    <g id="xtick_5">
     <g id="line2d_18">
      <path clip-path="url(#pec2b140497)" d="M 205.561886 283.68 
L 205.561886 7.2 
" style="fill:none;stroke:#000000;stroke-dasharray:1.000000,3.000000;stroke-dashoffset:0.0;stroke-width:0.5;"/>
     </g>
     <g id="line2d_19">
      <g>
       <use style="stroke:#000000;stroke-width:0.5;" x="205.561885936" xlink:href="#m59cf38c75f" y="283.68"/>
      </g>
     </g>
     <g id="line2d_20">
      <g>
       <use style="stroke:#000000;stroke-width:0.5;" x="205.561885936" xlink:href="#m02c209d0fe" y="7.2"/>
      </g>
     </g>
     <g id="text_5">
      <!-- 2 -->
      <g transform="translate(199.199385936 302.876875)scale(0.2 -0.2)">
       <use xlink:href="#BitstreamVeraSans-Roman-32"/>
      </g>
     </g>
    </g>
    <g id="xtick_6">
     <g id="line2d_21">
      <path clip-path="url(#pec2b140497)" d="M 245.251414 283.68 
L 245.251414 7.2 
" style="fill:none;stroke:#000000;stroke-dasharray:1.000000,3.000000;stroke-dashoffset:0.0;stroke-width:0.5;"/>
     </g>
     <g id="line2d_22">
      <g>
       <use style="stroke:#000000;stroke-width:0.5;" x="245.251414452" xlink:href="#m59cf38c75f" y="283.68"/>
      </g>
     </g>
     <g id="line2d_23">
      <g>
       <use style="stroke:#000000;stroke-width:0.5;" x="245.251414452" xlink:href="#m02c209d0fe" y="7.2"/>
      </g>
     </g>
     <g id="text_6">
      <!-- 4 -->
      <g transform="translate(238.888914452 302.876875)scale(0.2 -0.2)">
       <use xlink:href="#BitstreamVeraSans-Roman-34"/>
      </g>
     </g>
    </g>
    <g id="xtick_7">
     <g id="line2d_24">
      <path clip-path="url(#pec2b140497)" d="M 284.940943 283.68 
L 284.940943 7.2 
" style="fill:none;stroke:#000000;stroke-dasharray:1.000000,3.000000;stroke-dashoffset:0.0;stroke-width:0.5;"/>
     </g>
     <g id="line2d_25">
      <g>
       <use style="stroke:#000000;stroke-width:0.5;" x="284.940942968" xlink:href="#m59cf38c75f" y="283.68"/>
      </g>
     </g>
     <g id="line2d_26">
      <g>
       <use style="stroke:#000000;stroke-width:0.5;" x="284.940942968" xlink:href="#m02c209d0fe" y="7.2"/>
      </g>
     </g>
     <g id="text_7">
      <!-- 6 -->
      <g transform="translate(278.578442968 302.876875)scale(0.2 -0.2)">
       <use xlink:href="#BitstreamVeraSans-Roman-36"/>
      </g>
     </g>
    </g>
    <g id="xtick_8">
     <g id="line2d_27">
      <path clip-path="url(#pec2b140497)" d="M 324.630471 283.68 
L 324.630471 7.2 
" style="fill:none;stroke:#000000;stroke-dasharray:1.000000,3.000000;stroke-dashoffset:0.0;stroke-width:0.5;"/>
     </g>
     <g id="line2d_28">
      <g>
       <use style="stroke:#000000;stroke-width:0.5;" x="324.630471484" xlink:href="#m59cf38c75f" y="283.68"/>
      </g>
     </g>
     <g id="line2d_29">
      <g>
       <use style="stroke:#000000;stroke-width:0.5;" x="324.630471484" xlink:href="#m02c209d0fe" y="7.2"/>
      </g>
     </g>
     <g id="text_8">
      <!-- 8 -->
      <defs>
       <path d="M 31.78125 34.625 
Q 24.75 34.625 20.71875 30.859375 
Q 16.703125 27.09375 16.703125 20.515625 
Q 16.703125 13.921875 20.71875 10.15625 
Q 24.75 6.390625 31.78125 6.390625 
Q 38.8125 6.390625 42.859375 10.171875 
Q 46.921875 13.96875 46.921875 20.515625 
Q 46.921875 27.09375 42.890625 30.859375 
Q 38.875 34.625 31.78125 34.625 
M 21.921875 38.8125 
Q 15.578125 40.375 12.03125 44.71875 
Q 8.5 49.078125 8.5 55.328125 
Q 8.5 64.0625 14.71875 69.140625 
Q 20.953125 74.21875 31.78125 74.21875 
Q 42.671875 74.21875 48.875 69.140625 
Q 55.078125 64.0625 55.078125 55.328125 
Q 55.078125 49.078125 51.53125 44.71875 
Q 48 40.375 41.703125 38.8125 
Q 48.828125 37.15625 52.796875 32.3125 
Q 56.78125 27.484375 56.78125 20.515625 
Q 56.78125 9.90625 50.3125 4.234375 
Q 43.84375 -1.421875 31.78125 -1.421875 
Q 19.734375 -1.421875 13.25 4.234375 
Q 6.78125 9.90625 6.78125 20.515625 
Q 6.78125 27.484375 10.78125 32.3125 
Q 14.796875 37.15625 21.921875 38.8125 
M 18.3125 54.390625 
Q 18.3125 48.734375 21.84375 45.5625 
Q 25.390625 42.390625 31.78125 42.390625 
Q 38.140625 42.390625 41.71875 45.5625 
Q 45.3125 48.734375 45.3125 54.390625 
Q 45.3125 60.0625 41.71875 63.234375 
Q 38.140625 66.40625 31.78125 66.40625 
Q 25.390625 66.40625 21.84375 63.234375 
Q 18.3125 60.0625 18.3125 54.390625 
" id="BitstreamVeraSans-Roman-38"/>
      </defs>
      <g transform="translate(318.267971484 302.876875)scale(0.2 -0.2)">
       <use xlink:href="#BitstreamVeraSans-Roman-38"/>
      </g>
     </g>
    </g>
    <g id="xtick_9">
     <g id="line2d_30">
      <path clip-path="url(#pec2b140497)" d="M 364.32 283.68 
L 364.32 7.2 
" style="fill:none;stroke:#000000;stroke-dasharray:1.000000,3.000000;stroke-dashoffset:0.0;stroke-width:0.5;"/>
     </g>
     <g id="line2d_31">
      <g>
       <use style="stroke:#000000;stroke-width:0.5;" x="364.32" xlink:href="#m59cf38c75f" y="283.68"/>
      </g>
     </g>
     <g id="line2d_32">
      <g>
       <use style="stroke:#000000;stroke-width:0.5;" x="364.32" xlink:href="#m02c209d0fe" y="7.2"/>
      </g>
     </g>
    </g>
    <g id="xtick_10">
     <g id="line2d_33">
      <defs>
       <path d="M 0 0 
L 0 -2 
" id="mde3bb3bea3" style="stroke:#000000;stroke-width:0.5;"/>
      </defs>
      <g>
       <use style="stroke:#000000;stroke-width:0.5;" x="46.803771872" xlink:href="#mde3bb3bea3" y="283.68"/>
      </g>
     </g>
     <g id="line2d_34">
      <defs>
       <path d="M 0 0 
L 0 2 
" id="m473a9d769b" style="stroke:#000000;stroke-width:0.5;"/>
      </defs>
      <g>
       <use style="stroke:#000000;stroke-width:0.5;" x="46.803771872" xlink:href="#m473a9d769b" y="7.2"/>
      </g>
     </g>
    </g>
    <g id="xtick_11">
     <g id="line2d_35">
      <g>
       <use style="stroke:#000000;stroke-width:0.5;" x="86.493300388" xlink:href="#mde3bb3bea3" y="283.68"/>
      </g>
     </g>
     <g id="line2d_36">
      <g>
       <use style="stroke:#000000;stroke-width:0.5;" x="86.493300388" xlink:href="#m473a9d769b" y="7.2"/>
      </g>
     </g>
    </g>
    <g id="xtick_12">
     <g id="line2d_37">
      <g>
       <use style="stroke:#000000;stroke-width:0.5;" x="126.182828904" xlink:href="#mde3bb3bea3" y="283.68"/>
      </g>
     </g>
     <g id="line2d_38">
      <g>
       <use style="stroke:#000000;stroke-width:0.5;" x="126.182828904" xlink:href="#m473a9d769b" y="7.2"/>
      </g>
     </g>
    </g>
    <g id="xtick_13">
     <g id="line2d_39">
      <g>
       <use style="stroke:#000000;stroke-width:0.5;" x="165.87235742" xlink:href="#mde3bb3bea3" y="283.68"/>
      </g>
     </g>
     <g id="line2d_40">
      <g>
       <use style="stroke:#000000;stroke-width:0.5;" x="165.87235742" xlink:href="#m473a9d769b" y="7.2"/>
      </g>
     </g>
    </g>
    <g id="xtick_14">
     <g id="line2d_41">
      <g>
       <use style="stroke:#000000;stroke-width:0.5;" x="205.561885936" xlink:href="#mde3bb3bea3" y="283.68"/>
      </g>
     </g>
     <g id="line2d_42">
      <g>
       <use style="stroke:#000000;stroke-width:0.5;" x="205.561885936" xlink:href="#m473a9d769b" y="7.2"/>
      </g>
     </g>
    </g>
    <g id="xtick_15">
     <g id="line2d_43">
      <g>
       <use style="stroke:#000000;stroke-width:0.5;" x="245.251414452" xlink:href="#mde3bb3bea3" y="283.68"/>
      </g>
     </g>
     <g id="line2d_44">
      <g>
       <use style="stroke:#000000;stroke-width:0.5;" x="245.251414452" xlink:href="#m473a9d769b" y="7.2"/>
      </g>
     </g>
    </g>
    <g id="xtick_16">
     <g id="line2d_45">
      <g>
       <use style="stroke:#000000;stroke-width:0.5;" x="284.940942968" xlink:href="#mde3bb3bea3" y="283.68"/>
      </g>
     </g>
     <g id="line2d_46">
      <g>
       <use style="stroke:#000000;stroke-width:0.5;" x="284.940942968" xlink:href="#m473a9d769b" y="7.2"/>
      </g>
     </g>
    </g>
    <g id="xtick_17">
     <g id="line2d_47">
      <g>
       <use style="stroke:#000000;stroke-width:0.5;" x="324.630471484" xlink:href="#mde3bb3bea3" y="283.68"/>
      </g>
     </g>
     <g id="line2d_48">
      <g>
       <use style="stroke:#000000;stroke-width:0.5;" x="324.630471484" xlink:href="#m473a9d769b" y="7.2"/>
      </g>
     </g>
    </g>
    <g id="xtick_18">
     <g id="line2d_49">
      <g>
       <use style="stroke:#000000;stroke-width:0.5;" x="364.32" xlink:href="#mde3bb3bea3" y="283.68"/>
      </g>
     </g>
     <g id="line2d_50">
      <g>
       <use style="stroke:#000000;stroke-width:0.5;" x="364.32" xlink:href="#m473a9d769b" y="7.2"/>
      </g>
     </g>
    </g>
    <g id="text_9">
     <!-- log10 of Df -->
     <defs>
      <path id="BitstreamVeraSans-Roman-20"/>
      <path d="M 12.40625 8.296875 
L 28.515625 8.296875 
L 28.515625 63.921875 
L 10.984375 60.40625 
L 10.984375 69.390625 
L 28.421875 72.90625 
L 38.28125 72.90625 
L 38.28125 8.296875 
L 54.390625 8.296875 
L 54.390625 0 
L 12.40625 0 
z
" id="BitstreamVeraSans-Roman-31"/>
      <path d="M 30.609375 48.390625 
Q 23.390625 48.390625 19.1875 42.75 
Q 14.984375 37.109375 14.984375 27.296875 
Q 14.984375 17.484375 19.15625 11.84375 
Q 23.34375 6.203125 30.609375 6.203125 
Q 37.796875 6.203125 41.984375 11.859375 
Q 46.1875 17.53125 46.1875 27.296875 
Q 46.1875 37.015625 41.984375 42.703125 
Q 37.796875 48.390625 30.609375 48.390625 
M 30.609375 56 
Q 42.328125 56 49.015625 48.375 
Q 55.71875 40.765625 55.71875 27.296875 
Q 55.71875 13.875 49.015625 6.21875 
Q 42.328125 -1.421875 30.609375 -1.421875 
Q 18.84375 -1.421875 12.171875 6.21875 
Q 5.515625 13.875 5.515625 27.296875 
Q 5.515625 40.765625 12.171875 48.375 
Q 18.84375 56 30.609375 56 
" id="BitstreamVeraSans-Roman-6f"/>
      <path d="M 9.421875 75.984375 
L 18.40625 75.984375 
L 18.40625 0 
L 9.421875 0 
z
" id="BitstreamVeraSans-Roman-6c"/>
      <path d="M 19.671875 64.796875 
L 19.671875 8.109375 
L 31.59375 8.109375 
Q 46.6875 8.109375 53.6875 14.9375 
Q 60.6875 21.78125 60.6875 36.53125 
Q 60.6875 51.171875 53.6875 57.984375 
Q 46.6875 64.796875 31.59375 64.796875 
z
M 9.8125 72.90625 
L 30.078125 72.90625 
Q 51.265625 72.90625 61.171875 64.09375 
Q 71.09375 55.28125 71.09375 36.53125 
Q 71.09375 17.671875 61.125 8.828125 
Q 51.171875 0 30.078125 0 
L 9.8125 0 
z
" id="BitstreamVeraSans-Roman-44"/>
      <path d="M 45.40625 27.984375 
Q 45.40625 37.75 41.375 43.109375 
Q 37.359375 48.484375 30.078125 48.484375 
Q 22.859375 48.484375 18.828125 43.109375 
Q 14.796875 37.75 14.796875 27.984375 
Q 14.796875 18.265625 18.828125 12.890625 
Q 22.859375 7.515625 30.078125 7.515625 
Q 37.359375 7.515625 41.375 12.890625 
Q 45.40625 18.265625 45.40625 27.984375 
M 54.390625 6.78125 
Q 54.390625 -7.171875 48.1875 -13.984375 
Q 42 -20.796875 29.203125 -20.796875 
Q 24.46875 -20.796875 20.265625 -20.09375 
Q 16.0625 -19.390625 12.109375 -17.921875 
L 12.109375 -9.1875 
Q 16.0625 -11.328125 19.921875 -12.34375 
Q 23.78125 -13.375 27.78125 -13.375 
Q 36.625 -13.375 41.015625 -8.765625 
Q 45.40625 -4.15625 45.40625 5.171875 
L 45.40625 9.625 
Q 42.625 4.78125 38.28125 2.390625 
Q 33.9375 0 27.875 0 
Q 17.828125 0 11.671875 7.65625 
Q 5.515625 15.328125 5.515625 27.984375 
Q 5.515625 40.671875 11.671875 48.328125 
Q 17.828125 56 27.875 56 
Q 33.9375 56 38.28125 53.609375 
Q 42.625 51.21875 45.40625 46.390625 
L 45.40625 54.6875 
L 54.390625 54.6875 
z
" id="BitstreamVeraSans-Roman-67"/>
      <path d="M 37.109375 75.984375 
L 37.109375 68.5 
L 28.515625 68.5 
Q 23.6875 68.5 21.796875 66.546875 
Q 19.921875 64.59375 19.921875 59.515625 
L 19.921875 54.6875 
L 34.71875 54.6875 
L 34.71875 47.703125 
L 19.921875 47.703125 
L 19.921875 0 
L 10.890625 0 
L 10.890625 47.703125 
L 2.296875 47.703125 
L 2.296875 54.6875 
L 10.890625 54.6875 
L 10.890625 58.5 
Q 10.890625 67.625 15.140625 71.796875 
Q 19.390625 75.984375 28.609375 75.984375 
z
" id="BitstreamVeraSans-Roman-66"/>
     </defs>
     <g transform="translate(130.5740625 327.233125)scale(0.2 -0.2)">
      <use xlink:href="#BitstreamVeraSans-Roman-6c"/>
      <use x="27.783203125" xlink:href="#BitstreamVeraSans-Roman-6f"/>
      <use x="88.96484375" xlink:href="#BitstreamVeraSans-Roman-67"/>
      <use x="152.44140625" xlink:href="#BitstreamVeraSans-Roman-31"/>
      <use x="216.064453125" xlink:href="#BitstreamVeraSans-Roman-30"/>
      <use x="279.6875" xlink:href="#BitstreamVeraSans-Roman-20"/>
      <use x="311.474609375" xlink:href="#BitstreamVeraSans-Roman-6f"/>
      <use x="372.65625" xlink:href="#BitstreamVeraSans-Roman-66"/>
      <use x="407.861328125" xlink:href="#BitstreamVeraSans-Roman-20"/>
      <use x="439.6484375" xlink:href="#BitstreamVeraSans-Roman-44"/>
      <use x="516.650390625" xlink:href="#BitstreamVeraSans-Roman-66"/>
     </g>
    </g>
   </g>
   <g id="matplotlib.axis_2">
    <g id="ytick_1">
     <g id="line2d_51">
      <path clip-path="url(#pec2b140497)" d="M 7.2 283.68 
L 364.32 283.68 
" style="fill:none;stroke:#000000;stroke-dasharray:1.000000,3.000000;stroke-dashoffset:0.0;stroke-width:0.5;"/>
     </g>
     <g id="line2d_52">
      <defs>
       <path d="M 0 0 
L 4 0 
" id="m81b8000cce" style="stroke:#000000;stroke-width:0.5;"/>
      </defs>
      <g>
       <use style="stroke:#000000;stroke-width:0.5;" x="7.2" xlink:href="#m81b8000cce" y="283.68"/>
      </g>
     </g>
     <g id="line2d_53">
      <defs>
       <path d="M 0 0 
L -4 0 
" id="m04df107024" style="stroke:#000000;stroke-width:0.5;"/>
      </defs>
      <g>
       <use style="stroke:#000000;stroke-width:0.5;" x="364.32" xlink:href="#m04df107024" y="283.68"/>
      </g>
     </g>
    </g>
    <g id="ytick_2">
     <g id="line2d_54">
      <path clip-path="url(#pec2b140497)" d="M 7.2 228.931485 
L 364.32 228.931485 
" style="fill:none;stroke:#000000;stroke-dasharray:1.000000,3.000000;stroke-dashoffset:0.0;stroke-width:0.5;"/>
     </g>
     <g id="line2d_55">
      <g>
       <use style="stroke:#000000;stroke-width:0.5;" x="7.2" xlink:href="#m81b8000cce" y="228.931485149"/>
      </g>
     </g>
     <g id="line2d_56">
      <g>
       <use style="stroke:#000000;stroke-width:0.5;" x="364.32" xlink:href="#m04df107024" y="228.931485149"/>
      </g>
     </g>
    </g>
    <g id="ytick_3">
     <g id="line2d_57">
      <path clip-path="url(#pec2b140497)" d="M 7.2 174.18297 
L 364.32 174.18297 
" style="fill:none;stroke:#000000;stroke-dasharray:1.000000,3.000000;stroke-dashoffset:0.0;stroke-width:0.5;"/>
     </g>
     <g id="line2d_58">
      <g>
       <use style="stroke:#000000;stroke-width:0.5;" x="7.2" xlink:href="#m81b8000cce" y="174.182970297"/>
      </g>
     </g>
     <g id="line2d_59">
      <g>
       <use style="stroke:#000000;stroke-width:0.5;" x="364.32" xlink:href="#m04df107024" y="174.182970297"/>
      </g>
     </g>
    </g>
    <g id="ytick_4">
     <g id="line2d_60">
      <path clip-path="url(#pec2b140497)" d="M 7.2 119.434455 
L 364.32 119.434455 
" style="fill:none;stroke:#000000;stroke-dasharray:1.000000,3.000000;stroke-dashoffset:0.0;stroke-width:0.5;"/>
     </g>
     <g id="line2d_61">
      <g>
       <use style="stroke:#000000;stroke-width:0.5;" x="7.2" xlink:href="#m81b8000cce" y="119.434455446"/>
      </g>
     </g>
     <g id="line2d_62">
      <g>
       <use style="stroke:#000000;stroke-width:0.5;" x="364.32" xlink:href="#m04df107024" y="119.434455446"/>
      </g>
     </g>
    </g>
    <g id="ytick_5">
     <g id="line2d_63">
      <path clip-path="url(#pec2b140497)" d="M 7.2 64.685941 
L 364.32 64.685941 
" style="fill:none;stroke:#000000;stroke-dasharray:1.000000,3.000000;stroke-dashoffset:0.0;stroke-width:0.5;"/>
     </g>
     <g id="line2d_64">
      <g>
       <use style="stroke:#000000;stroke-width:0.5;" x="7.2" xlink:href="#m81b8000cce" y="64.6859405941"/>
      </g>
     </g>
     <g id="line2d_65">
      <g>
       <use style="stroke:#000000;stroke-width:0.5;" x="364.32" xlink:href="#m04df107024" y="64.6859405941"/>
      </g>
     </g>
    </g>
    <g id="ytick_6">
     <g id="line2d_66">
      <path clip-path="url(#pec2b140497)" d="M 7.2 9.937426 
L 364.32 9.937426 
" style="fill:none;stroke:#000000;stroke-dasharray:1.000000,3.000000;stroke-dashoffset:0.0;stroke-width:0.5;"/>
     </g>
     <g id="line2d_67">
      <g>
       <use style="stroke:#000000;stroke-width:0.5;" x="7.2" xlink:href="#m81b8000cce" y="9.93742574257"/>
      </g>
     </g>
     <g id="line2d_68">
      <g>
       <use style="stroke:#000000;stroke-width:0.5;" x="364.32" xlink:href="#m04df107024" y="9.93742574257"/>
      </g>
     </g>
    </g>
   </g>
   <g id="text_10">
    <!-- f20-24,20-D -->
    <defs>
     <path d="M 11.71875 12.40625 
L 22.015625 12.40625 
L 22.015625 4 
L 14.015625 -11.625 
L 7.71875 -11.625 
L 11.71875 4 
z
" id="BitstreamVeraSans-Roman-2c"/>
    </defs>
    <g transform="translate(237.599475 278.1504)scale(0.2 -0.2)">
     <use xlink:href="#BitstreamVeraSans-Roman-66"/>
     <use x="35.205078125" xlink:href="#BitstreamVeraSans-Roman-32"/>
     <use x="98.828125" xlink:href="#BitstreamVeraSans-Roman-30"/>
     <use x="162.451171875" xlink:href="#BitstreamVeraSans-Roman-2d"/>
     <use x="198.53515625" xlink:href="#BitstreamVeraSans-Roman-32"/>
     <use x="262.158203125" xlink:href="#BitstreamVeraSans-Roman-34"/>
     <use x="325.78125" xlink:href="#BitstreamVeraSans-Roman-2c"/>
     <use x="357.568359375" xlink:href="#BitstreamVeraSans-Roman-32"/>
     <use x="421.19140625" xlink:href="#BitstreamVeraSans-Roman-30"/>
     <use x="484.814453125" xlink:href="#BitstreamVeraSans-Roman-2d"/>
     <use x="520.8984375" xlink:href="#BitstreamVeraSans-Roman-44"/>
    </g>
   </g>
  </g>
 </g>
 <defs>
  <clipPath id="pec2b140497">
   <rect height="276.48" width="357.12" x="7.2" y="7.2"/>
  </clipPath>
 </defs>
</svg>
