<?xml version="1.0" encoding="utf-8" standalone="no"?>
<!DOCTYPE svg PUBLIC "-//W3C//DTD SVG 1.1//EN"
  "http://www.w3.org/Graphics/SVG/1.1/DTD/svg11.dtd">
<!-- Created with matplotlib (http://matplotlib.org/) -->
<svg height="338pt" version="1.1" viewBox="0 0 371 338" width="371pt" xmlns="http://www.w3.org/2000/svg" xmlns:xlink="http://www.w3.org/1999/xlink">
 <defs>
  <style type="text/css">
*{stroke-linecap:butt;stroke-linejoin:round;stroke-miterlimit:100000;}
  </style>
 </defs>
 <g id="figure_1">
  <g id="patch_1">
   <path d="M 0 338.5925 
L 371.52 338.5925 
L 371.52 0 
L 0 0 
z
" style="fill:#ffffff;"/>
  </g>
  <g id="axes_1">
   <g id="patch_2">
    <path d="M 7.2 283.68 
L 364.32 283.68 
L 364.32 7.2 
L 7.2 7.2 
z
" style="fill:#ffffff;"/>
   </g>
   <g id="line2d_1">
    <path clip-path="url(#p0b835814c6)" d="M 175.093023 283.68 
L 175.093023 282.919604 
L 175.571786 282.919604 
L 175.571786 282.159208 
L 175.801633 282.159208 
L 175.801633 281.398812 
L 176.03325 281.398812 
L 176.132837 279.87802 
L 176.689786 279.87802 
L 176.72699 278.357228 
L 177.262829 278.357228 
L 177.262829 277.596832 
L 177.62496 277.596832 
L 177.62496 276.836436 
L 178.019286 276.836436 
L 178.019286 276.07604 
L 178.146873 276.07604 
L 178.146873 275.315644 
L 178.635362 275.315644 
L 178.635362 274.555248 
L 178.859478 274.555248 
L 178.881341 273.034455 
L 179.015525 273.034455 
L 179.015525 272.274059 
L 185.182953 272.274059 
L 185.182953 271.513663 
L 185.42084 271.513663 
L 185.42084 270.753267 
L 185.562377 270.753267 
L 185.562377 269.992871 
L 185.832594 269.992871 
L 185.832594 269.232475 
L 186.131354 269.232475 
L 186.131354 268.472079 
L 186.259346 268.472079 
L 186.339567 266.190891 
L 186.490452 266.190891 
L 186.490452 265.430495 
L 187.152877 265.430495 
L 187.194818 262.388911 
L 187.439951 262.388911 
L 187.439951 261.628515 
L 187.838026 261.628515 
L 187.946901 258.586931 
L 188.028672 258.586931 
L 188.028672 257.826535 
L 188.456303 257.826535 
L 188.456303 257.066139 
L 188.625403 257.066139 
L 188.72037 255.545347 
L 188.798603 255.545347 
L 188.798603 254.78495 
L 188.982021 254.78495 
L 188.996903 253.264158 
L 189.398617 253.264158 
L 189.411963 251.743366 
L 189.864613 251.743366 
L 189.898775 250.222574 
L 190.005007 250.222574 
L 190.005007 249.462178 
L 190.813081 249.462178 
L 190.854194 247.18099 
L 193.078612 247.18099 
L 193.150098 244.899802 
L 193.337071 244.899802 
L 193.409211 243.37901 
L 193.733967 243.37901 
L 193.733967 242.618614 
L 194.05687 242.618614 
L 194.141573 241.097822 
L 194.2443 241.097822 
L 194.2443 240.337426 
L 194.601343 240.337426 
L 194.601343 239.57703 
L 194.77867 239.57703 
L 194.77867 238.816634 
L 194.94992 238.816634 
L 194.94992 238.056238 
L 195.080114 238.056238 
L 195.188667 235.77505 
L 195.255661 235.77505 
L 195.29969 233.493861 
L 195.557544 233.493861 
L 195.557544 232.733465 
L 195.704813 232.733465 
L 195.787662 229.691881 
L 196.099699 229.691881 
L 196.099699 228.931485 
L 196.228111 228.931485 
L 196.228111 228.171089 
L 196.836097 228.171089 
L 196.873414 225.889901 
L 197.03112 225.889901 
L 197.061252 224.369109 
L 197.404174 224.369109 
L 197.404174 223.608713 
L 197.552056 223.608713 
L 197.552056 222.848317 
L 197.715032 222.848317 
L 197.715032 222.087921 
L 198.112626 222.087921 
L 198.140456 219.046337 
L 198.317367 219.046337 
L 198.317367 218.285941 
L 198.883999 218.285941 
L 198.961458 216.765149 
L 200.836193 216.765149 
L 200.836193 216.004752 
L 201.077887 216.004752 
L 201.077887 215.244356 
L 201.4372 215.244356 
L 201.4372 214.48396 
L 202.351547 214.48396 
L 202.351547 213.723564 
L 202.472051 213.723564 
L 202.537235 210.68198 
L 202.606878 210.68198 
L 202.664493 208.400792 
L 202.724834 208.400792 
L 202.828163 204.598812 
L 202.836314 204.598812 
L 202.929917 200.036436 
L 203.033356 200.036436 
L 203.133359 196.994851 
L 203.230286 196.994851 
L 203.316664 193.953267 
L 203.351968 193.953267 
L 203.452153 191.672079 
L 203.735566 191.672079 
L 203.781 190.151287 
L 204.003513 190.151287 
L 204.003513 189.390891 
L 204.498458 189.390891 
L 204.564822 187.870099 
L 204.756222 187.870099 
L 204.756222 187.109703 
L 205.066881 187.109703 
L 205.066881 186.349307 
L 205.201772 186.349307 
L 205.256796 184.828515 
L 205.313134 184.828515 
L 205.322763 183.307723 
L 206.021699 183.307723 
L 206.021699 182.547327 
L 206.174241 182.547327 
L 206.174241 181.786931 
L 206.446485 181.786931 
L 206.446485 181.026535 
L 208.084356 181.026535 
L 208.084356 180.266139 
L 208.564243 180.266139 
L 208.564243 179.505743 
L 209.023845 179.505743 
L 209.023845 178.745347 
L 210.038889 178.745347 
L 210.038889 177.98495 
L 210.377305 177.98495 
L 210.377305 177.224554 
L 210.624344 177.224554 
L 210.731076 175.703762 
L 210.916407 175.703762 
L 210.916407 174.943366 
L 211.035495 174.943366 
L 211.035495 174.18297 
L 211.182367 174.18297 
L 211.290683 172.662178 
L 211.435678 172.662178 
L 211.521895 171.141386 
L 211.744784 171.141386 
L 211.777087 168.099802 
L 212.083869 168.099802 
L 212.120713 165.818614 
L 212.322867 165.818614 
L 212.322867 165.058218 
L 212.660099 165.058218 
L 212.660099 164.297822 
L 212.871145 164.297822 
L 212.973773 162.016634 
L 213.124953 162.016634 
L 213.215843 159.735446 
L 213.38613 159.735446 
L 213.38613 158.97505 
L 213.751891 158.97505 
L 213.855129 156.693861 
L 214.225769 156.693861 
L 214.225769 155.933465 
L 214.970425 155.933465 
L 214.970425 155.173069 
L 215.587681 155.173069 
L 215.587681 154.412673 
L 216.126975 154.412673 
L 216.189101 152.891881 
L 216.429273 152.891881 
L 216.429273 152.131485 
L 216.622065 152.131485 
L 216.712584 149.850297 
L 216.73851 149.850297 
L 216.73851 149.089901 
L 217.161586 149.089901 
L 217.197435 146.808713 
L 217.33125 146.808713 
L 217.392976 145.287921 
L 217.505269 145.287921 
L 217.505269 144.527525 
L 217.649227 144.527525 
L 217.730208 142.246337 
L 217.803973 142.246337 
L 217.818108 140.725545 
L 217.960251 140.725545 
L 217.960251 139.965149 
L 218.112159 139.965149 
L 218.15663 137.68396 
L 218.289477 137.68396 
L 218.381086 135.402772 
L 218.459324 135.402772 
L 218.53902 133.88198 
L 218.862888 133.88198 
L 218.862888 133.121584 
L 219.216012 133.121584 
L 219.323389 129.319604 
L 219.414694 129.319604 
L 219.507478 127.798812 
L 219.532815 127.798812 
L 219.532815 127.038416 
L 219.733381 127.038416 
L 219.828504 125.517624 
L 219.925236 125.517624 
L 220.007036 123.236436 
L 220.121644 123.236436 
L 220.172812 121.715644 
L 220.393435 121.715644 
L 220.393435 120.955248 
L 220.601755 120.955248 
L 220.693963 119.434455 
L 220.921561 119.434455 
L 220.921561 118.674059 
L 221.110182 118.674059 
L 221.110182 117.913663 
L 221.463748 117.913663 
L 221.487425 114.872079 
L 222.020666 114.872079 
L 222.12679 111.830495 
L 222.142533 111.830495 
L 222.142533 111.070099 
L 222.474306 111.070099 
L 222.542135 108.028515 
L 222.681914 108.028515 
L 222.725367 106.507723 
L 223.010192 106.507723 
L 223.010192 105.747327 
L 223.414782 105.747327 
L 223.414782 104.986931 
L 223.638431 104.986931 
L 223.638431 104.226535 
L 223.809202 104.226535 
L 223.816873 102.705743 
L 224.092317 102.705743 
L 224.092317 101.945347 
L 224.637224 101.945347 
L 224.637224 101.18495 
L 228.173019 101.18495 
L 228.173019 100.424554 
L 228.72288 100.424554 
L 228.72288 99.664158 
L 229.043121 99.664158 
L 229.043121 98.903762 
L 229.761909 98.903762 
L 229.761909 98.143366 
L 229.878131 98.143366 
L 229.878131 97.38297 
L 230.1285 97.38297 
L 230.1285 96.622574 
L 230.357005 96.622574 
L 230.38583 94.341386 
L 230.608311 94.341386 
L 230.608311 93.58099 
L 231.02549 93.58099 
L 231.02549 92.820594 
L 231.210905 92.820594 
L 231.210905 92.060198 
L 231.399639 92.060198 
L 231.399639 91.299802 
L 232.115635 91.299802 
L 232.115635 90.539406 
L 232.501471 90.539406 
L 232.501471 89.77901 
L 246.574904 89.77901 
L 246.574904 89.018614 
L 248.940179 89.018614 
L 248.940179 88.258218 
L 249.456194 88.258218 
L 249.456194 87.497822 
L 249.925412 87.497822 
L 249.925412 86.737426 
L 250.706678 86.737426 
L 250.706678 85.97703 
L 251.682814 85.97703 
L 251.768494 84.456238 
L 252.007157 84.456238 
L 252.007157 83.695842 
L 252.251677 83.695842 
L 252.25481 82.17505 
L 252.642332 82.17505 
L 252.679126 80.654257 
L 253.079032 80.654257 
L 253.079032 79.893861 
L 253.191133 79.893861 
L 253.209422 78.373069 
L 253.697912 78.373069 
L 253.697912 77.612673 
L 253.904246 77.612673 
L 253.904246 76.852277 
L 254.183003 76.852277 
L 254.183003 76.091881 
L 254.389696 76.091881 
L 254.389696 75.331485 
L 255.195701 75.331485 
L 255.195701 74.571089 
L 255.700714 74.571089 
L 255.710361 73.050297 
L 256.20682 73.050297 
L 256.20682 72.289901 
L 256.665598 72.289901 
L 256.666741 70.769109 
L 258.110386 70.769109 
L 258.154675 69.248317 
L 258.483721 69.248317 
L 258.483721 68.487921 
L 259.033386 68.487921 
L 259.033386 67.727525 
L 259.580479 67.727525 
L 259.580479 66.967129 
L 259.739096 66.967129 
L 259.739096 66.206733 
L 259.971181 66.206733 
L 259.971181 65.446337 
L 260.221718 65.446337 
L 260.224983 63.925545 
L 260.652248 63.925545 
L 260.652248 63.165149 
L 260.906158 63.165149 
L 260.97007 61.644356 
L 262.501318 61.644356 
L 262.501318 60.88396 
L 263.24455 60.88396 
L 263.30347 59.363168 
L 264.334673 59.363168 
L 264.334673 58.602772 
L 264.648027 58.602772 
L 264.648027 57.842376 
L 264.788955 57.842376 
L 264.788955 57.08198 
L 265.819348 57.08198 
L 265.819348 56.321584 
L 266.015275 56.321584 
L 266.015275 55.561188 
L 266.19904 55.561188 
L 266.19904 54.800792 
L 266.426771 54.800792 
L 266.426771 54.040396 
L 266.708294 54.040396 
L 266.708294 53.28 
L 267.672849 53.28 
L 267.672849 52.519604 
L 268.442163 52.519604 
L 268.487696 50.998812 
L 269.423361 50.998812 
L 269.423361 50.238416 
L 270.329416 50.238416 
L 270.329416 49.47802 
L 271.453929 49.47802 
L 271.453929 48.717624 
L 271.999631 48.717624 
L 271.999631 47.957228 
L 272.14247 47.957228 
L 272.14247 47.196832 
L 272.887111 47.196832 
L 272.887111 46.436436 
L 273.827961 46.436436 
L 273.827961 45.67604 
L 274.14001 45.67604 
L 274.14001 44.915644 
L 274.258832 44.915644 
L 274.258832 44.155248 
L 277.846595 44.155248 
L 277.846595 43.394851 
L 280.448903 43.394851 
L 280.448903 42.634455 
L 281.808046 42.634455 
L 281.808046 41.874059 
L 282.037195 41.874059 
L 282.037195 41.113663 
L 282.652216 41.113663 
L 282.726172 39.592871 
L 282.866453 39.592871 
L 282.866453 38.832475 
L 284.518787 38.832475 
L 284.518787 38.072079 
L 285.407167 38.072079 
L 285.407167 37.311683 
L 285.71033 37.311683 
L 285.793264 35.790891 
L 285.975974 35.790891 
L 285.975974 35.030495 
L 286.705753 35.030495 
L 286.780212 33.509703 
L 286.918179 33.509703 
L 287.026503 31.988911 
L 287.133443 31.988911 
L 287.133443 31.228515 
L 287.544478 31.228515 
L 287.544478 30.468119 
L 287.804365 30.468119 
L 287.804365 29.707723 
L 288.049351 29.707723 
L 288.049351 28.947327 
L 288.18635 28.947327 
L 288.18635 28.186931 
L 288.596787 28.186931 
L 288.596787 27.426535 
L 288.747187 27.426535 
L 288.747187 26.666139 
L 289.831107 26.666139 
L 289.831107 25.905743 
L 290.679397 25.905743 
L 290.747333 24.38495 
L 291.05546 24.38495 
L 291.05546 23.624554 
L 291.297935 23.624554 
L 291.297935 22.864158 
L 291.668748 22.864158 
L 291.668748 22.103762 
L 292.083143 22.103762 
L 292.083143 21.343366 
L 319.408478 21.343366 
L 319.408478 20.58297 
L 323.568257 20.58297 
L 323.568257 19.822574 
L 324.093664 19.822574 
L 324.093664 19.062178 
L 324.543143 19.062178 
L 324.577174 17.541386 
L 325.242808 17.541386 
L 325.242808 16.78099 
L 326.150984 16.78099 
L 326.150984 16.020594 
L 326.273546 16.020594 
L 326.323085 14.499802 
L 326.531605 14.499802 
L 326.531605 13.739406 
L 326.756094 13.739406 
L 326.756094 12.97901 
L 327.472331 12.97901 
L 327.472331 12.218614 
L 328.326029 12.218614 
L 328.326029 11.458218 
L 328.736204 11.458218 
L 328.810772 9.937426 
L 328.810772 9.937426 
L 364.32 9.937426 
L 364.32 9.937426 
" style="fill:none;stroke:#ff0000;stroke-linecap:square;stroke-width:3.0;"/>
   </g>
   <g id="line2d_2">
    <path clip-path="url(#p0b835814c6)" d="M 177.643703 283.68 
L 177.643703 282.919604 
L 179.021887 282.919604 
L 179.021887 282.159208 
L 181.104893 282.159208 
L 181.104893 281.398812 
L 181.45393 281.398812 
L 181.45393 280.638416 
L 182.392052 280.638416 
L 182.392052 279.87802 
L 182.818102 279.87802 
L 182.818102 279.117624 
L 183.233653 279.117624 
L 183.233653 278.357228 
L 184.134653 278.357228 
L 184.134653 277.596832 
L 184.661217 277.596832 
L 184.661217 276.836436 
L 184.963459 276.836436 
L 184.963459 276.07604 
L 186.30082 276.07604 
L 186.30082 275.315644 
L 186.538954 275.315644 
L 186.552589 273.794851 
L 186.785806 273.794851 
L 186.815492 272.274059 
L 188.926875 272.274059 
L 188.926875 271.513663 
L 189.618035 271.513663 
L 189.618035 270.753267 
L 190.539485 270.753267 
L 190.539485 269.992871 
L 190.674829 269.992871 
L 190.674829 269.232475 
L 191.240069 269.232475 
L 191.240069 268.472079 
L 191.369349 268.472079 
L 191.369349 267.711683 
L 191.70655 267.711683 
L 191.70655 266.951287 
L 191.933276 266.951287 
L 191.933276 266.190891 
L 192.407991 266.190891 
L 192.407991 265.430495 
L 192.636992 265.430495 
L 192.636992 264.670099 
L 192.856513 264.670099 
L 192.857536 263.149307 
L 193.184882 263.149307 
L 193.184882 262.388911 
L 193.495737 262.388911 
L 193.57255 260.868119 
L 193.829948 260.868119 
L 193.829948 260.107723 
L 194.237626 260.107723 
L 194.237626 259.347327 
L 194.909663 259.347327 
L 195.010262 256.305743 
L 195.07228 256.305743 
L 195.07228 255.545347 
L 195.678908 255.545347 
L 195.678908 254.78495 
L 196.013836 254.78495 
L 196.06429 253.264158 
L 196.482782 253.264158 
L 196.482782 252.503762 
L 196.791653 252.503762 
L 196.791653 251.743366 
L 197.148465 251.743366 
L 197.148465 250.98297 
L 197.717529 250.98297 
L 197.717529 250.222574 
L 198.004294 250.222574 
L 198.029669 248.701782 
L 198.319946 248.701782 
L 198.319946 247.941386 
L 198.920889 247.941386 
L 198.920889 247.18099 
L 199.061168 247.18099 
L 199.061168 246.420594 
L 199.290135 246.420594 
L 199.398757 244.899802 
L 199.456398 244.899802 
L 199.528296 243.37901 
L 199.7307 243.37901 
L 199.7307 242.618614 
L 199.996547 242.618614 
L 199.996547 241.858218 
L 200.427205 241.858218 
L 200.458904 240.337426 
L 200.965879 240.337426 
L 201.066961 237.295842 
L 201.172114 237.295842 
L 201.172114 236.535446 
L 201.348163 236.535446 
L 201.348163 235.77505 
L 201.528305 235.77505 
L 201.528305 235.014653 
L 201.913643 235.014653 
L 201.913643 234.254257 
L 202.245192 234.254257 
L 202.245192 233.493861 
L 202.381085 233.493861 
L 202.381085 232.733465 
L 202.651448 232.733465 
L 202.651448 231.973069 
L 202.940731 231.973069 
L 203.015185 230.452277 
L 203.126842 230.452277 
L 203.214542 228.931485 
L 203.329475 228.931485 
L 203.373852 226.650297 
L 203.518327 226.650297 
L 203.605365 222.087921 
L 203.670555 222.087921 
L 203.765036 219.046337 
L 203.80023 219.046337 
L 203.862074 216.765149 
L 203.91362 216.765149 
L 204.003916 212.202772 
L 204.054581 212.202772 
L 204.156945 203.838416 
L 204.18584 203.838416 
L 204.210677 201.557228 
L 204.97758 201.557228 
L 205.06887 200.036436 
L 205.137166 200.036436 
L 205.137166 199.27604 
L 205.70217 199.27604 
L 205.70217 198.515644 
L 205.911849 198.515644 
L 205.967414 196.994851 
L 206.078846 196.994851 
L 206.078846 196.234455 
L 206.657794 196.234455 
L 206.657794 195.474059 
L 207.052728 195.474059 
L 207.052728 194.713663 
L 207.424088 194.713663 
L 207.424088 193.953267 
L 207.546656 193.953267 
L 207.546656 193.192871 
L 208.072473 193.192871 
L 208.139446 190.911683 
L 208.219951 190.911683 
L 208.219951 190.151287 
L 209.071736 190.151287 
L 209.071736 189.390891 
L 209.710905 189.390891 
L 209.710905 188.630495 
L 210.459025 188.630495 
L 210.459025 187.870099 
L 210.592132 187.870099 
L 210.592132 187.109703 
L 210.736641 187.109703 
L 210.81744 185.588911 
L 211.115267 185.588911 
L 211.115267 184.828515 
L 211.353644 184.828515 
L 211.438081 183.307723 
L 212.089306 183.307723 
L 212.114856 181.786931 
L 212.319921 181.786931 
L 212.319921 181.026535 
L 212.879225 181.026535 
L 212.879225 180.266139 
L 213.035483 180.266139 
L 213.035483 179.505743 
L 213.948307 179.505743 
L 213.948307 178.745347 
L 214.165741 178.745347 
L 214.165741 177.98495 
L 214.706695 177.98495 
L 214.783178 176.464158 
L 214.911761 176.464158 
L 214.911761 175.703762 
L 215.095735 175.703762 
L 215.095735 174.943366 
L 215.299369 174.943366 
L 215.299369 174.18297 
L 215.468126 174.18297 
L 215.468126 173.422574 
L 215.735027 173.422574 
L 215.775106 171.141386 
L 216.637154 171.141386 
L 216.637154 170.38099 
L 217.447232 170.38099 
L 217.447232 169.620594 
L 219.190245 169.620594 
L 219.190245 168.860198 
L 219.453442 168.860198 
L 219.453442 168.099802 
L 220.549472 168.099802 
L 220.648863 165.818614 
L 220.686028 165.818614 
L 220.686028 165.058218 
L 220.846639 165.058218 
L 220.846639 164.297822 
L 221.224347 164.297822 
L 221.226764 162.77703 
L 221.426717 162.77703 
L 221.426717 162.016634 
L 221.546497 162.016634 
L 221.546497 161.256238 
L 222.018638 161.256238 
L 222.110316 158.214653 
L 222.185088 158.214653 
L 222.185088 157.454257 
L 222.326725 157.454257 
L 222.326725 156.693861 
L 222.474313 156.693861 
L 222.474313 155.933465 
L 223.140463 155.933465 
L 223.140463 155.173069 
L 223.312365 155.173069 
L 223.312365 154.412673 
L 223.597291 154.412673 
L 223.68856 152.131485 
L 223.717418 152.131485 
L 223.717418 151.371089 
L 223.883833 151.371089 
L 223.883833 150.610693 
L 224.04298 150.610693 
L 224.04298 149.850297 
L 224.173718 149.850297 
L 224.173718 149.089901 
L 224.533603 149.089901 
L 224.54333 147.569109 
L 224.659935 147.569109 
L 224.659935 146.808713 
L 224.941619 146.808713 
L 224.941619 146.048317 
L 225.238794 146.048317 
L 225.271215 143.767129 
L 225.384125 143.767129 
L 225.451152 142.246337 
L 225.62611 142.246337 
L 225.643714 140.725545 
L 225.799212 140.725545 
L 225.86559 138.444356 
L 226.034243 138.444356 
L 226.083924 136.923564 
L 226.160018 136.923564 
L 226.160018 136.163168 
L 226.294209 136.163168 
L 226.401077 133.88198 
L 226.586208 133.88198 
L 226.611243 132.361188 
L 226.739771 132.361188 
L 226.8134 130.840396 
L 226.954982 130.840396 
L 226.97154 129.319604 
L 227.103598 129.319604 
L 227.128232 127.038416 
L 227.452809 127.038416 
L 227.452809 126.27802 
L 227.617237 126.27802 
L 227.617237 125.517624 
L 227.72863 125.517624 
L 227.72863 124.757228 
L 227.955092 124.757228 
L 227.955092 123.996832 
L 228.12071 123.996832 
L 228.187921 122.47604 
L 228.866574 122.47604 
L 228.961037 120.955248 
L 228.992041 120.955248 
L 228.992041 120.194851 
L 229.503576 120.194851 
L 229.578892 118.674059 
L 229.952706 118.674059 
L 230.057408 117.153267 
L 230.09839 117.153267 
L 230.09839 116.392871 
L 230.301421 116.392871 
L 230.301421 115.632475 
L 230.56719 115.632475 
L 230.587947 114.111683 
L 231.161799 114.111683 
L 231.161799 113.351287 
L 231.974858 113.351287 
L 231.974858 112.590891 
L 232.10349 112.590891 
L 232.10349 111.830495 
L 232.627775 111.830495 
L 232.627775 111.070099 
L 232.761554 111.070099 
L 232.761554 110.309703 
L 232.892541 110.309703 
L 232.892541 109.549307 
L 233.029957 109.549307 
L 233.097989 108.028515 
L 233.486851 108.028515 
L 233.580253 106.507723 
L 233.601712 106.507723 
L 233.615263 104.986931 
L 233.742422 104.986931 
L 233.742422 104.226535 
L 233.86437 104.226535 
L 233.86437 103.466139 
L 233.985039 103.466139 
L 233.985039 102.705743 
L 234.439132 102.705743 
L 234.460643 101.18495 
L 235.403552 101.18495 
L 235.403552 100.424554 
L 236.51974 100.424554 
L 236.51974 99.664158 
L 237.735618 99.664158 
L 237.735618 98.903762 
L 248.222203 98.903762 
L 248.222203 98.143366 
L 256.703753 98.143366 
L 256.79018 96.622574 
L 259.087524 96.622574 
L 259.087524 95.862178 
L 259.287131 95.862178 
L 259.287131 95.101782 
L 259.79646 95.101782 
L 259.79646 94.341386 
L 260.520329 94.341386 
L 260.520329 93.58099 
L 260.947438 93.58099 
L 260.967094 92.060198 
L 261.160501 92.060198 
L 261.160501 91.299802 
L 261.722645 91.299802 
L 261.722645 90.539406 
L 262.051044 90.539406 
L 262.051044 89.77901 
L 262.233045 89.77901 
L 262.233045 89.018614 
L 262.822578 89.018614 
L 262.822578 88.258218 
L 262.958743 88.258218 
L 262.958743 87.497822 
L 263.35477 87.497822 
L 263.35477 86.737426 
L 263.467287 86.737426 
L 263.467287 85.97703 
L 264.220292 85.97703 
L 264.261725 83.695842 
L 264.545294 83.695842 
L 264.545294 82.935446 
L 265.710083 82.935446 
L 265.766608 81.414653 
L 267.718539 81.414653 
L 267.718539 80.654257 
L 267.896778 80.654257 
L 267.986355 79.133465 
L 268.066259 79.133465 
L 268.066259 78.373069 
L 268.385157 78.373069 
L 268.429909 76.852277 
L 268.782747 76.852277 
L 268.782747 76.091881 
L 269.023348 76.091881 
L 269.023348 75.331485 
L 269.460769 75.331485 
L 269.460769 74.571089 
L 269.871962 74.571089 
L 269.871962 73.810693 
L 270.35945 73.810693 
L 270.374705 71.529505 
L 271.041326 71.529505 
L 271.041326 70.769109 
L 271.472214 70.769109 
L 271.472214 70.008713 
L 271.637692 70.008713 
L 271.637692 69.248317 
L 271.773805 69.248317 
L 271.82592 67.727525 
L 272.086003 67.727525 
L 272.109811 66.206733 
L 272.579076 66.206733 
L 272.609033 64.685941 
L 272.879649 64.685941 
L 272.979226 63.165149 
L 273.980152 63.165149 
L 273.980152 62.404752 
L 274.319017 62.404752 
L 274.409849 60.88396 
L 274.742379 60.88396 
L 274.779858 59.363168 
L 275.935464 59.363168 
L 275.935464 58.602772 
L 276.819479 58.602772 
L 276.819479 57.842376 
L 277.040653 57.842376 
L 277.094843 56.321584 
L 278.095374 56.321584 
L 278.095374 55.561188 
L 279.369938 55.561188 
L 279.369938 54.800792 
L 279.499131 54.800792 
L 279.499131 54.040396 
L 279.929588 54.040396 
L 280.022791 50.998812 
L 280.04819 50.998812 
L 280.04819 50.238416 
L 280.177863 50.238416 
L 280.227616 48.717624 
L 280.326662 48.717624 
L 280.386325 47.196832 
L 280.48292 47.196832 
L 280.48292 46.436436 
L 282.945431 46.436436 
L 282.945431 45.67604 
L 287.243624 45.67604 
L 287.243624 44.915644 
L 292.391633 44.915644 
L 292.421778 43.394851 
L 293.418122 43.394851 
L 293.507951 41.874059 
L 294.302826 41.874059 
L 294.412706 40.353267 
L 294.879769 40.353267 
L 294.879769 39.592871 
L 296.241835 39.592871 
L 296.241835 38.832475 
L 296.950639 38.832475 
L 297.027028 37.311683 
L 297.554004 37.311683 
L 297.651136 35.790891 
L 297.916923 35.790891 
L 297.916923 35.030495 
L 298.249169 35.030495 
L 298.249169 34.270099 
L 298.415339 34.270099 
L 298.415339 33.509703 
L 298.678845 33.509703 
L 298.678845 32.749307 
L 299.107008 32.749307 
L 299.107008 31.988911 
L 301.503468 31.988911 
L 301.503468 31.228515 
L 302.005428 31.228515 
L 302.09799 29.707723 
L 302.294544 29.707723 
L 302.294544 28.947327 
L 303.096994 28.947327 
L 303.096994 28.186931 
L 303.769331 28.186931 
L 303.769331 27.426535 
L 304.216804 27.426535 
L 304.282952 25.905743 
L 304.931596 25.905743 
L 304.931596 25.145347 
L 305.213481 25.145347 
L 305.213481 24.38495 
L 305.804615 24.38495 
L 305.804615 23.624554 
L 306.567143 23.624554 
L 306.567143 22.864158 
L 307.647293 22.864158 
L 307.71089 21.343366 
L 326.83529 21.343366 
L 326.83529 20.58297 
L 328.502838 20.58297 
L 328.502838 19.822574 
L 329.095739 19.822574 
L 329.095739 19.062178 
L 332.824427 19.062178 
L 332.824427 18.301782 
L 332.973422 18.301782 
L 332.973422 17.541386 
L 334.08115 17.541386 
L 334.08115 16.78099 
L 335.893318 16.78099 
L 335.893318 16.020594 
L 339.955679 16.020594 
L 339.955679 15.260198 
L 340.553879 15.260198 
L 340.569107 13.739406 
L 340.987983 13.739406 
L 340.987983 12.97901 
L 341.407262 12.97901 
L 341.407262 12.218614 
L 342.870531 12.218614 
L 342.870531 11.458218 
L 344.379849 11.458218 
L 344.379849 10.697822 
L 346.084466 10.697822 
L 346.084466 9.937426 
L 346.084466 9.937426 
L 364.32 9.937426 
L 364.32 9.937426 
" style="fill:none;stroke:#00bfbf;stroke-linecap:square;"/>
   </g>
   <g id="line2d_3">
    <path clip-path="url(#p0b835814c6)" d="M 177.643703 283.68 
L 177.643703 282.919604 
L 179.021887 282.919604 
L 179.021887 282.159208 
L 180.701904 282.159208 
L 180.701904 281.398812 
L 181.104893 281.398812 
L 181.190281 279.87802 
L 181.45393 279.87802 
L 181.45393 279.117624 
L 182.240689 279.117624 
L 182.240689 278.357228 
L 182.392052 278.357228 
L 182.392052 277.596832 
L 182.740319 277.596832 
L 182.740319 276.836436 
L 183.205091 276.836436 
L 183.205091 276.07604 
L 183.669599 276.07604 
L 183.715429 274.555248 
L 184.134653 274.555248 
L 184.134653 273.794851 
L 184.963459 273.794851 
L 184.963459 273.034455 
L 185.642834 273.034455 
L 185.642834 272.274059 
L 188.421442 272.274059 
L 188.471268 270.753267 
L 188.926875 270.753267 
L 188.926875 269.992871 
L 189.427968 269.992871 
L 189.497999 268.472079 
L 189.618035 268.472079 
L 189.618035 267.711683 
L 189.812204 267.711683 
L 189.814158 266.190891 
L 190.001619 266.190891 
L 190.001619 265.430495 
L 190.674829 265.430495 
L 190.674829 264.670099 
L 190.934208 264.670099 
L 190.934208 263.909703 
L 191.477977 263.909703 
L 191.477977 263.149307 
L 191.933276 263.149307 
L 191.945226 261.628515 
L 192.530527 261.628515 
L 192.636992 260.107723 
L 192.949823 260.107723 
L 192.949823 259.347327 
L 193.184882 259.347327 
L 193.184882 258.586931 
L 193.563479 258.586931 
L 193.57255 257.066139 
L 193.678787 257.066139 
L 193.678787 256.305743 
L 193.829948 256.305743 
L 193.829948 255.545347 
L 194.129412 255.545347 
L 194.237626 254.024554 
L 194.301588 254.024554 
L 194.301588 253.264158 
L 194.773114 253.264158 
L 194.870005 251.743366 
L 195.87419 251.743366 
L 195.87419 250.98297 
L 196.129044 250.98297 
L 196.129044 250.222574 
L 196.482782 250.222574 
L 196.482782 249.462178 
L 197.572244 249.462178 
L 197.668875 247.941386 
L 197.717529 247.941386 
L 197.717529 247.18099 
L 198.004294 247.18099 
L 198.082165 244.899802 
L 198.11992 244.899802 
L 198.11992 244.139406 
L 198.259315 244.139406 
L 198.319946 242.618614 
L 198.605574 242.618614 
L 198.605574 241.858218 
L 198.920889 241.858218 
L 198.920889 241.097822 
L 199.218252 241.097822 
L 199.218252 240.337426 
L 199.398757 240.337426 
L 199.398757 239.57703 
L 199.540691 239.57703 
L 199.636568 237.295842 
L 199.67346 237.295842 
L 199.7307 235.014653 
L 200.090002 235.014653 
L 200.090002 234.254257 
L 200.270305 234.254257 
L 200.358021 232.733465 
L 200.427205 232.733465 
L 200.508506 231.212673 
L 200.598956 231.212673 
L 200.598956 230.452277 
L 200.773432 230.452277 
L 200.837589 228.931485 
L 201.159557 228.931485 
L 201.24604 227.410693 
L 201.300842 227.410693 
L 201.348163 224.369109 
L 202.14338 224.369109 
L 202.14338 223.608713 
L 202.907248 223.608713 
L 202.940731 222.087921 
L 203.130812 222.087921 
L 203.130812 221.327525 
L 203.329475 221.327525 
L 203.398452 218.285941 
L 203.495406 218.285941 
L 203.585278 212.963168 
L 203.623346 212.963168 
L 203.670555 210.68198 
L 203.753031 210.68198 
L 203.862074 206.88 
L 203.900232 206.88 
L 204.003916 200.036436 
L 204.054581 200.036436 
L 204.098879 196.234455 
L 204.222488 196.234455 
L 204.222488 195.474059 
L 204.477644 195.474059 
L 204.477644 194.713663 
L 204.599114 194.713663 
L 204.599114 193.953267 
L 206.494726 193.953267 
L 206.494726 193.192871 
L 207.546656 193.192871 
L 207.561757 191.672079 
L 207.659601 191.672079 
L 207.659601 190.911683 
L 208.050451 190.911683 
L 208.144761 187.870099 
L 208.219951 187.870099 
L 208.219951 187.109703 
L 208.425285 187.109703 
L 208.425285 186.349307 
L 208.665178 186.349307 
L 208.665178 185.588911 
L 209.523108 185.588911 
L 209.523108 184.828515 
L 210.592132 184.828515 
L 210.645582 183.307723 
L 210.736641 183.307723 
L 210.736641 182.547327 
L 211.115267 182.547327 
L 211.115267 181.786931 
L 211.885725 181.786931 
L 211.885725 181.026535 
L 212.114856 181.026535 
L 212.114856 180.266139 
L 212.289355 180.266139 
L 212.289355 179.505743 
L 213.035483 179.505743 
L 213.035483 178.745347 
L 213.612862 178.745347 
L 213.612862 177.98495 
L 213.814804 177.98495 
L 213.814804 177.224554 
L 213.948307 177.224554 
L 213.948307 176.464158 
L 214.165741 176.464158 
L 214.165741 175.703762 
L 214.502268 175.703762 
L 214.502268 174.943366 
L 214.706695 174.943366 
L 214.783178 172.662178 
L 214.939466 172.662178 
L 214.939466 171.901782 
L 215.450434 171.901782 
L 215.468126 170.38099 
L 215.677812 170.38099 
L 215.677812 169.620594 
L 218.841456 169.620594 
L 218.841456 168.860198 
L 219.190245 168.860198 
L 219.190245 168.099802 
L 219.453442 168.099802 
L 219.453442 167.339406 
L 219.885419 167.339406 
L 219.885419 166.57901 
L 220.103316 166.57901 
L 220.166785 165.058218 
L 220.220823 165.058218 
L 220.220823 164.297822 
L 220.460176 164.297822 
L 220.549472 162.016634 
L 220.648863 162.016634 
L 220.686028 160.495842 
L 220.819816 160.495842 
L 220.846639 158.97505 
L 221.148436 158.97505 
L 221.148436 158.214653 
L 221.426717 158.214653 
L 221.426717 157.454257 
L 221.546497 157.454257 
L 221.546497 156.693861 
L 221.983571 156.693861 
L 221.983571 155.933465 
L 222.162363 155.933465 
L 222.207644 154.412673 
L 222.31013 154.412673 
L 222.31013 153.652277 
L 222.474313 153.652277 
L 222.565142 152.131485 
L 222.795871 152.131485 
L 222.795871 151.371089 
L 223.051971 151.371089 
L 223.140463 149.850297 
L 223.312365 149.850297 
L 223.312365 149.089901 
L 223.597291 149.089901 
L 223.663121 145.287921 
L 223.710665 145.287921 
L 223.717418 143.767129 
L 224.04298 143.767129 
L 224.140504 141.485941 
L 224.173718 141.485941 
L 224.173718 140.725545 
L 224.290389 140.725545 
L 224.303643 139.204752 
L 224.533603 139.204752 
L 224.533603 138.444356 
L 224.80027 138.444356 
L 224.90606 136.923564 
L 224.978071 136.923564 
L 225.065632 135.402772 
L 225.154305 135.402772 
L 225.254943 133.121584 
L 225.271215 133.121584 
L 225.271215 132.361188 
L 225.384125 132.361188 
L 225.384125 131.600792 
L 225.584507 131.600792 
L 225.66097 128.559208 
L 225.86559 128.559208 
L 225.86559 127.798812 
L 226.083924 127.798812 
L 226.160018 126.27802 
L 226.224669 126.27802 
L 226.224669 125.517624 
L 226.351791 125.517624 
L 226.401077 123.236436 
L 226.586208 123.236436 
L 226.611243 121.715644 
L 226.908099 121.715644 
L 226.97154 120.194851 
L 227.078083 120.194851 
L 227.095172 118.674059 
L 227.294394 118.674059 
L 227.294394 117.913663 
L 227.826275 117.913663 
L 227.875379 116.392871 
L 227.960502 116.392871 
L 227.960502 115.632475 
L 228.30068 115.632475 
L 228.30068 114.872079 
L 228.961037 114.872079 
L 228.961037 114.111683 
L 229.130631 114.111683 
L 229.130631 113.351287 
L 229.557644 113.351287 
L 229.578892 111.830495 
L 229.697292 111.830495 
L 229.697292 111.070099 
L 230.301421 111.070099 
L 230.301421 110.309703 
L 230.636572 110.309703 
L 230.636572 109.549307 
L 232.04925 109.549307 
L 232.04925 108.788911 
L 232.205732 108.788911 
L 232.205732 108.028515 
L 232.357744 108.028515 
L 232.389575 106.507723 
L 232.88068 106.507723 
L 232.982643 104.986931 
L 233.097989 104.986931 
L 233.097989 104.226535 
L 233.367628 104.226535 
L 233.367628 103.466139 
L 233.56639 103.466139 
L 233.615263 101.18495 
L 233.85499 101.18495 
L 233.85499 100.424554 
L 234.439132 100.424554 
L 234.439132 99.664158 
L 235.466441 99.664158 
L 235.466441 98.903762 
L 237.735618 98.903762 
L 237.735618 98.143366 
L 244.43737 98.143366 
L 244.43737 97.38297 
L 248.222203 97.38297 
L 248.222203 96.622574 
L 249.084443 96.622574 
L 249.084443 95.862178 
L 250.311772 95.862178 
L 250.311772 95.101782 
L 250.817503 95.101782 
L 250.817503 94.341386 
L 253.974038 94.341386 
L 253.974038 93.58099 
L 256.703753 93.58099 
L 256.79018 91.299802 
L 259.087524 91.299802 
L 259.105418 89.77901 
L 259.287131 89.77901 
L 259.287131 89.018614 
L 259.426021 89.018614 
L 259.426021 88.258218 
L 259.79646 88.258218 
L 259.79646 87.497822 
L 260.520329 87.497822 
L 260.520329 86.737426 
L 260.947438 86.737426 
L 260.967094 85.216634 
L 261.160501 85.216634 
L 261.188284 82.935446 
L 261.563804 82.935446 
L 261.563804 82.17505 
L 261.722645 82.17505 
L 261.722645 81.414653 
L 262.051044 81.414653 
L 262.144067 79.893861 
L 262.540562 79.893861 
L 262.540562 79.133465 
L 262.958743 79.133465 
L 262.958743 78.373069 
L 263.34469 78.373069 
L 263.34469 77.612673 
L 263.467287 77.612673 
L 263.467287 76.852277 
L 264.251535 76.852277 
L 264.251535 76.091881 
L 265.419587 76.091881 
L 265.419587 75.331485 
L 265.710083 75.331485 
L 265.766608 73.050297 
L 267.088191 73.050297 
L 267.143396 71.529505 
L 267.617535 71.529505 
L 267.718539 70.008713 
L 268.171264 70.008713 
L 268.171264 69.248317 
L 268.429909 69.248317 
L 268.429909 68.487921 
L 268.600897 68.487921 
L 268.600897 67.727525 
L 268.782747 67.727525 
L 268.782747 66.967129 
L 269.023265 66.967129 
L 269.023348 65.446337 
L 269.871962 65.446337 
L 269.871962 64.685941 
L 270.329415 64.685941 
L 270.367167 62.404752 
L 270.578517 62.404752 
L 270.578517 61.644356 
L 271.041326 61.644356 
L 271.041326 60.88396 
L 271.637692 60.88396 
L 271.637692 60.123564 
L 272.109811 60.123564 
L 272.177844 58.602772 
L 272.609033 58.602772 
L 272.609033 57.842376 
L 273.847295 57.842376 
L 273.847295 57.08198 
L 274.1747 57.08198 
L 274.1747 56.321584 
L 274.319017 56.321584 
L 274.319017 55.561188 
L 274.645351 55.561188 
L 274.742379 54.040396 
L 275.391439 54.040396 
L 275.391439 53.28 
L 275.935464 53.28 
L 275.935464 52.519604 
L 276.162371 52.519604 
L 276.23952 50.998812 
L 278.022166 50.998812 
L 278.022166 50.238416 
L 278.308348 50.238416 
L 278.324053 48.717624 
L 278.714725 48.717624 
L 278.714725 47.957228 
L 279.344863 47.957228 
L 279.344863 47.196832 
L 279.818215 47.196832 
L 279.818215 46.436436 
L 279.929588 46.436436 
L 279.929588 45.67604 
L 280.386325 45.67604 
L 280.386325 44.915644 
L 282.945431 44.915644 
L 282.945431 44.155248 
L 286.600689 44.155248 
L 286.600689 43.394851 
L 287.243624 43.394851 
L 287.243624 42.634455 
L 292.152521 42.634455 
L 292.152521 41.874059 
L 292.391633 41.874059 
L 292.391633 41.113663 
L 293.283032 41.113663 
L 293.283032 40.353267 
L 293.418122 40.353267 
L 293.507951 38.832475 
L 294.302826 38.832475 
L 294.302826 38.072079 
L 294.80655 38.072079 
L 294.879769 36.551287 
L 296.751551 36.551287 
L 296.751551 35.790891 
L 296.950639 35.790891 
L 297.027028 34.270099 
L 297.554004 34.270099 
L 297.651136 32.749307 
L 297.916923 32.749307 
L 297.916923 31.988911 
L 298.249169 31.988911 
L 298.249169 31.228515 
L 298.415339 31.228515 
L 298.415339 30.468119 
L 298.678845 30.468119 
L 298.737853 28.947327 
L 299.107008 28.947327 
L 299.107008 28.186931 
L 300.681429 28.186931 
L 300.681429 27.426535 
L 301.503468 27.426535 
L 301.503468 26.666139 
L 301.929361 26.666139 
L 301.929361 25.905743 
L 302.09799 25.905743 
L 302.09799 25.145347 
L 302.607683 25.145347 
L 302.607683 24.38495 
L 303.769331 24.38495 
L 303.769331 23.624554 
L 303.893848 23.624554 
L 303.893848 22.864158 
L 305.804615 22.864158 
L 305.8931 21.343366 
L 326.233058 21.343366 
L 326.233058 20.58297 
L 326.83529 20.58297 
L 326.83529 19.822574 
L 327.05345 19.822574 
L 327.05345 19.062178 
L 329.095739 19.062178 
L 329.095739 18.301782 
L 329.485507 18.301782 
L 329.485507 17.541386 
L 330.77035 17.541386 
L 330.77035 16.78099 
L 331.61582 16.78099 
L 331.652868 15.260198 
L 334.08115 15.260198 
L 334.08115 14.499802 
L 334.271602 14.499802 
L 334.271602 13.739406 
L 335.893318 13.739406 
L 335.893318 12.97901 
L 336.39596 12.97901 
L 336.39596 12.218614 
L 338.112231 12.218614 
L 338.112231 11.458218 
L 339.347071 11.458218 
L 339.347071 10.697822 
L 340.553879 10.697822 
L 340.553879 9.937426 
L 340.553879 9.937426 
L 364.32 9.937426 
L 364.32 9.937426 
" style="fill:none;stroke:#bf00bf;stroke-linecap:square;"/>
   </g>
   <g id="line2d_4">
    <path clip-path="url(#p0b835814c6)" d="M 177.643703 283.68 
L 177.643703 282.919604 
L 177.955629 282.919604 
L 177.955629 282.159208 
L 179.021887 282.159208 
L 179.021887 281.398812 
L 179.536194 281.398812 
L 179.536194 280.638416 
L 180.701904 280.638416 
L 180.704319 279.117624 
L 180.871294 279.117624 
L 180.968823 277.596832 
L 181.104893 277.596832 
L 181.190281 276.07604 
L 181.278051 276.07604 
L 181.278051 275.315644 
L 181.45393 275.315644 
L 181.45393 274.555248 
L 182.392052 274.555248 
L 182.392052 273.794851 
L 183.205091 273.794851 
L 183.205091 273.034455 
L 183.669599 273.034455 
L 183.669599 272.274059 
L 188.133248 272.274059 
L 188.133248 271.513663 
L 188.421442 271.513663 
L 188.531685 269.232475 
L 188.601823 269.232475 
L 188.601823 268.472079 
L 188.926875 268.472079 
L 188.926875 267.711683 
L 189.427968 267.711683 
L 189.497999 266.190891 
L 189.618035 266.190891 
L 189.618035 265.430495 
L 189.814158 265.430495 
L 189.814158 264.670099 
L 190.001619 264.670099 
L 190.001619 263.909703 
L 190.165377 263.909703 
L 190.165377 263.149307 
L 190.570195 263.149307 
L 190.570195 262.388911 
L 190.862449 262.388911 
L 190.862449 261.628515 
L 191.28815 261.628515 
L 191.394048 260.107723 
L 191.759704 260.107723 
L 191.807277 258.586931 
L 191.933276 258.586931 
L 191.933276 257.826535 
L 192.089343 257.826535 
L 192.089343 257.066139 
L 192.261062 257.066139 
L 192.261062 256.305743 
L 192.476956 256.305743 
L 192.530527 254.78495 
L 192.636992 254.78495 
L 192.636992 254.024554 
L 192.949823 254.024554 
L 193.052766 252.503762 
L 193.184882 252.503762 
L 193.184882 251.743366 
L 193.644816 251.743366 
L 193.67172 250.222574 
L 193.829948 250.222574 
L 193.829948 249.462178 
L 194.367345 249.462178 
L 194.367345 248.701782 
L 196.020633 248.701782 
L 196.129044 247.18099 
L 196.482782 247.18099 
L 196.482782 246.420594 
L 196.635319 246.420594 
L 196.635319 245.660198 
L 197.30003 245.660198 
L 197.363056 243.37901 
L 197.572244 243.37901 
L 197.572244 242.618614 
L 197.717529 242.618614 
L 197.717529 241.858218 
L 197.892087 241.858218 
L 197.892087 241.097822 
L 198.025268 241.097822 
L 198.129585 236.535446 
L 198.214187 236.535446 
L 198.259315 235.014653 
L 198.508902 235.014653 
L 198.5475 233.493861 
L 199.074327 233.493861 
L 199.160845 231.973069 
L 199.252582 231.973069 
L 199.252582 231.212673 
L 199.540691 231.212673 
L 199.540691 230.452277 
L 199.67346 230.452277 
L 199.723447 228.171089 
L 199.796736 228.171089 
L 199.796736 227.410693 
L 200.144884 227.410693 
L 200.177922 225.129505 
L 200.270305 225.129505 
L 200.270305 224.369109 
L 200.570354 224.369109 
L 200.598956 222.848317 
L 201.120738 222.848317 
L 201.120738 222.087921 
L 201.300842 222.087921 
L 201.337429 220.567129 
L 201.614379 220.567129 
L 201.614379 219.806733 
L 202.14338 219.806733 
L 202.251191 218.285941 
L 202.538 218.285941 
L 202.538 217.525545 
L 202.917439 217.525545 
L 202.940731 216.004752 
L 203.099378 216.004752 
L 203.131064 213.723564 
L 203.23209 213.723564 
L 203.329074 210.68198 
L 203.344326 210.68198 
L 203.398452 206.88 
L 203.461508 206.88 
L 203.56367 203.07802 
L 203.585278 203.07802 
L 203.670555 200.036436 
L 203.724037 200.036436 
L 203.80023 197.755248 
L 203.85788 197.755248 
L 203.938825 194.713663 
L 203.971176 194.713663 
L 204.003916 192.432475 
L 204.098879 192.432475 
L 204.098879 191.672079 
L 205.750588 191.672079 
L 205.750588 190.911683 
L 206.494726 190.911683 
L 206.494726 190.151287 
L 206.779502 190.151287 
L 206.810611 188.630495 
L 207.235432 188.630495 
L 207.235432 187.870099 
L 207.561757 187.870099 
L 207.659601 186.349307 
L 207.812242 186.349307 
L 207.812242 185.588911 
L 208.050451 185.588911 
L 208.144761 184.068119 
L 208.387098 184.068119 
L 208.425285 182.547327 
L 209.071299 182.547327 
L 209.071299 181.786931 
L 209.760152 181.786931 
L 209.760152 181.026535 
L 211.885725 181.026535 
L 211.885725 180.266139 
L 212.114856 180.266139 
L 212.114856 179.505743 
L 213.035483 179.505743 
L 213.035483 178.745347 
L 213.41068 178.745347 
L 213.41068 177.98495 
L 213.612862 177.98495 
L 213.640732 176.464158 
L 213.756212 176.464158 
L 213.814804 174.943366 
L 213.948307 174.943366 
L 213.948307 174.18297 
L 214.165741 174.18297 
L 214.261819 172.662178 
L 214.33374 172.662178 
L 214.33374 171.901782 
L 214.538042 171.901782 
L 214.538042 171.141386 
L 214.774402 171.141386 
L 214.843184 168.860198 
L 215.538644 168.860198 
L 215.538644 168.099802 
L 216.593804 168.099802 
L 216.593804 167.339406 
L 218.111785 167.339406 
L 218.111785 166.57901 
L 218.770427 166.57901 
L 218.841456 165.058218 
L 219.190245 165.058218 
L 219.190245 164.297822 
L 219.335823 164.297822 
L 219.39727 162.77703 
L 219.450899 162.77703 
L 219.453442 161.256238 
L 219.655151 161.256238 
L 219.739464 159.735446 
L 219.849633 159.735446 
L 219.885419 158.214653 
L 220.03774 158.214653 
L 220.067657 156.693861 
L 220.15407 156.693861 
L 220.15407 155.933465 
L 220.299898 155.933465 
L 220.379401 154.412673 
L 220.460176 154.412673 
L 220.460176 153.652277 
L 220.583315 153.652277 
L 220.686028 152.131485 
L 220.714714 152.131485 
L 220.714714 151.371089 
L 220.915879 151.371089 
L 220.915879 150.610693 
L 221.106972 150.610693 
L 221.106972 149.850297 
L 221.316381 149.850297 
L 221.316381 149.089901 
L 221.546497 149.089901 
L 221.546497 148.329505 
L 221.769983 148.329505 
L 221.876261 146.808713 
L 222.166352 146.808713 
L 222.267151 145.287921 
L 222.350549 145.287921 
L 222.350549 144.527525 
L 222.474313 144.527525 
L 222.565142 142.246337 
L 222.621501 142.246337 
L 222.621501 141.485941 
L 222.795871 141.485941 
L 222.898194 139.965149 
L 223.021347 139.965149 
L 223.021347 139.204752 
L 223.140463 139.204752 
L 223.147766 137.68396 
L 223.317137 137.68396 
L 223.427444 136.163168 
L 223.505496 136.163168 
L 223.605992 133.121584 
L 223.640828 133.121584 
L 223.710665 130.840396 
L 223.774805 130.840396 
L 223.794265 129.319604 
L 224.04298 129.319604 
L 224.140504 127.038416 
L 224.222903 127.038416 
L 224.276079 125.517624 
L 224.408081 125.517624 
L 224.443844 123.236436 
L 224.543297 123.236436 
L 224.645019 121.715644 
L 224.6627 121.715644 
L 224.6627 120.955248 
L 224.904047 120.955248 
L 224.978071 118.674059 
L 225.238794 118.674059 
L 225.254943 117.153267 
L 225.384125 117.153267 
L 225.384125 116.392871 
L 225.584507 116.392871 
L 225.66097 114.111683 
L 226.083924 114.111683 
L 226.083924 113.351287 
L 226.367188 113.351287 
L 226.367188 112.590891 
L 227.433496 112.590891 
L 227.433496 111.830495 
L 227.826275 111.830495 
L 227.826275 111.070099 
L 227.960502 111.070099 
L 227.960502 110.309703 
L 228.30068 110.309703 
L 228.388971 108.788911 
L 229.130631 108.788911 
L 229.130631 108.028515 
L 229.697292 108.028515 
L 229.697292 107.268119 
L 230.20978 107.268119 
L 230.301421 105.747327 
L 231.043161 105.747327 
L 231.08212 104.226535 
L 231.166233 104.226535 
L 231.166233 103.466139 
L 231.47185 103.466139 
L 231.47185 102.705743 
L 231.965046 102.705743 
L 231.965046 101.945347 
L 232.113716 101.945347 
L 232.113716 101.18495 
L 232.302229 101.18495 
L 232.357744 99.664158 
L 232.460085 99.664158 
L 232.460085 98.903762 
L 232.988997 98.903762 
L 232.988997 98.143366 
L 233.144682 98.143366 
L 233.144682 97.38297 
L 234.89716 97.38297 
L 234.89716 96.622574 
L 235.466441 96.622574 
L 235.466441 95.862178 
L 237.735618 95.862178 
L 237.735618 95.101782 
L 244.43737 95.101782 
L 244.43737 94.341386 
L 245.215815 94.341386 
L 245.215815 93.58099 
L 246.831945 93.58099 
L 246.831945 92.820594 
L 248.222203 92.820594 
L 248.222203 92.060198 
L 249.084443 92.060198 
L 249.084443 91.299802 
L 249.316028 91.299802 
L 249.316028 90.539406 
L 253.974038 90.539406 
L 253.974038 89.77901 
L 254.834694 89.77901 
L 254.914726 88.258218 
L 256.79018 88.258218 
L 256.79018 87.497822 
L 257.039843 87.497822 
L 257.039843 86.737426 
L 257.218868 86.737426 
L 257.218868 85.97703 
L 258.589992 85.97703 
L 258.589992 85.216634 
L 258.996055 85.216634 
L 259.087524 82.17505 
L 259.287131 82.17505 
L 259.287131 81.414653 
L 259.426021 81.414653 
L 259.426021 80.654257 
L 259.79646 80.654257 
L 259.79646 79.893861 
L 260.111657 79.893861 
L 260.111657 79.133465 
L 260.967094 79.133465 
L 260.967094 78.373069 
L 261.188284 78.373069 
L 261.188284 77.612673 
L 261.563804 77.612673 
L 261.563804 76.852277 
L 262.043671 76.852277 
L 262.043671 76.091881 
L 262.374265 76.091881 
L 262.374265 75.331485 
L 262.533963 75.331485 
L 262.590697 73.810693 
L 262.799308 73.810693 
L 262.799308 73.050297 
L 263.34469 73.050297 
L 263.34469 72.289901 
L 264.396512 72.289901 
L 264.492297 70.769109 
L 265.472006 70.769109 
L 265.472006 70.008713 
L 265.710083 70.008713 
L 265.710083 69.248317 
L 265.84568 69.248317 
L 265.85212 67.727525 
L 266.338123 67.727525 
L 266.338123 66.967129 
L 267.143396 66.967129 
L 267.143396 66.206733 
L 267.617535 66.206733 
L 267.663355 64.685941 
L 268.600897 64.685941 
L 268.600897 63.925545 
L 269.023265 63.925545 
L 269.023348 62.404752 
L 269.22805 62.404752 
L 269.242675 60.88396 
L 270.329415 60.88396 
L 270.367167 58.602772 
L 270.578517 58.602772 
L 270.578517 57.842376 
L 270.699941 57.842376 
L 270.699941 57.08198 
L 271.637692 57.08198 
L 271.637692 56.321584 
L 272.020627 56.321584 
L 272.109811 54.800792 
L 273.562478 54.800792 
L 273.562478 54.040396 
L 274.1747 54.040396 
L 274.1747 53.28 
L 274.319017 53.28 
L 274.319017 52.519604 
L 274.612524 52.519604 
L 274.612524 51.759208 
L 274.742379 51.759208 
L 274.742379 50.998812 
L 275.391439 50.998812 
L 275.391439 50.238416 
L 275.697341 50.238416 
L 275.697341 49.47802 
L 275.935464 49.47802 
L 275.935464 48.717624 
L 276.176875 48.717624 
L 276.176875 47.957228 
L 277.909987 47.957228 
L 277.909987 47.196832 
L 278.022166 47.196832 
L 278.022166 46.436436 
L 278.985141 46.436436 
L 278.985141 45.67604 
L 280.386325 45.67604 
L 280.386325 44.915644 
L 281.353517 44.915644 
L 281.353517 44.155248 
L 286.600689 44.155248 
L 286.600689 43.394851 
L 287.243624 43.394851 
L 287.243624 42.634455 
L 287.604061 42.634455 
L 287.604061 41.874059 
L 289.847627 41.874059 
L 289.847627 41.113663 
L 291.605845 41.113663 
L 291.605845 40.353267 
L 292.152521 40.353267 
L 292.152521 39.592871 
L 292.391633 39.592871 
L 292.391633 38.832475 
L 293.283032 38.832475 
L 293.283032 38.072079 
L 293.418122 38.072079 
L 293.507951 36.551287 
L 293.890411 36.551287 
L 293.890411 35.790891 
L 294.171696 35.790891 
L 294.171696 35.030495 
L 294.302826 35.030495 
L 294.302826 34.270099 
L 294.664533 34.270099 
L 294.664533 33.509703 
L 294.80655 33.509703 
L 294.879769 31.988911 
L 295.008751 31.988911 
L 295.008751 31.228515 
L 295.347316 31.228515 
L 295.446943 29.707723 
L 295.559421 29.707723 
L 295.559421 28.947327 
L 295.727068 28.947327 
L 295.733793 27.426535 
L 296.129462 27.426535 
L 296.129462 26.666139 
L 296.723475 26.666139 
L 296.723475 25.905743 
L 297.027028 25.905743 
L 297.027028 25.145347 
L 297.377305 25.145347 
L 297.377305 24.38495 
L 297.554004 24.38495 
L 297.554004 23.624554 
L 297.877305 23.624554 
L 297.877305 22.864158 
L 298.157935 22.864158 
L 298.157935 22.103762 
L 303.908339 22.103762 
L 303.908339 21.343366 
L 325.711382 21.343366 
L 325.711382 20.58297 
L 326.233058 20.58297 
L 326.233058 19.822574 
L 326.83529 19.822574 
L 326.83529 19.062178 
L 327.05345 19.062178 
L 327.05345 18.301782 
L 327.918104 18.301782 
L 327.918104 17.541386 
L 328.862294 17.541386 
L 328.862294 16.78099 
L 329.095739 16.78099 
L 329.095739 16.020594 
L 330.77035 16.020594 
L 330.77035 15.260198 
L 331.652868 15.260198 
L 331.652868 14.499802 
L 331.899903 14.499802 
L 331.899903 13.739406 
L 332.470134 13.739406 
L 332.470134 12.97901 
L 332.623361 12.97901 
L 332.623361 12.218614 
L 333.51922 12.218614 
L 333.51922 11.458218 
L 334.08115 11.458218 
L 334.08115 10.697822 
L 337.013275 10.697822 
L 337.013275 9.937426 
L 337.013275 9.937426 
L 364.32 9.937426 
L 364.32 9.937426 
" style="fill:none;stroke:#000000;stroke-linecap:square;"/>
   </g>
   <g id="line2d_5">
    <path clip-path="url(#p0b835814c6)" d="M 177.643703 283.68 
L 177.643703 282.919604 
L 177.762809 282.919604 
L 177.762809 282.159208 
L 177.955629 282.159208 
L 178.05416 279.87802 
L 178.931106 279.87802 
L 179.021887 278.357228 
L 179.170084 278.357228 
L 179.170084 277.596832 
L 179.549422 277.596832 
L 179.549422 276.836436 
L 179.875893 276.836436 
L 179.974903 275.315644 
L 180.323887 275.315644 
L 180.323887 274.555248 
L 181.104893 274.555248 
L 181.190281 273.034455 
L 182.023713 273.034455 
L 182.023713 272.274059 
L 185.459669 272.274059 
L 185.459669 271.513663 
L 186.608335 271.513663 
L 186.685485 269.992871 
L 187.823012 269.992871 
L 187.896913 267.711683 
L 187.977253 267.711683 
L 188.085006 265.430495 
L 188.133248 265.430495 
L 188.133248 264.670099 
L 188.418252 264.670099 
L 188.418252 263.909703 
L 188.601823 263.909703 
L 188.601823 263.149307 
L 189.427968 263.149307 
L 189.497999 260.868119 
L 189.618035 260.868119 
L 189.618035 260.107723 
L 190.461632 260.107723 
L 190.461632 259.347327 
L 190.645764 259.347327 
L 190.645764 258.586931 
L 191.140438 258.586931 
L 191.140438 257.826535 
L 191.28815 257.826535 
L 191.394048 255.545347 
L 191.567244 255.545347 
L 191.651155 254.024554 
L 191.731375 254.024554 
L 191.759704 252.503762 
L 191.933276 252.503762 
L 192.014753 250.222574 
L 192.138638 250.222574 
L 192.138638 249.462178 
L 192.354191 249.462178 
L 192.354191 248.701782 
L 193.536342 248.701782 
L 193.589702 247.18099 
L 194.254114 247.18099 
L 194.254114 246.420594 
L 194.411447 246.420594 
L 194.411447 245.660198 
L 194.818441 245.660198 
L 194.818441 244.899802 
L 195.153333 244.899802 
L 195.153333 244.139406 
L 195.45797 244.139406 
L 195.517058 242.618614 
L 195.656398 242.618614 
L 195.741867 241.097822 
L 195.894288 241.097822 
L 195.894288 240.337426 
L 196.129044 240.337426 
L 196.129044 239.57703 
L 196.312326 239.57703 
L 196.312326 238.816634 
L 196.49027 238.816634 
L 196.49027 238.056238 
L 196.799934 238.056238 
L 196.841714 235.014653 
L 197.151103 235.014653 
L 197.151103 234.254257 
L 197.316483 234.254257 
L 197.322951 232.733465 
L 197.530037 232.733465 
L 197.582982 230.452277 
L 197.668086 230.452277 
L 197.737319 228.931485 
L 197.811491 228.931485 
L 197.811491 228.171089 
L 198.039582 228.171089 
L 198.082363 226.650297 
L 198.214187 226.650297 
L 198.214187 225.889901 
L 199.00459 225.889901 
L 199.088845 224.369109 
L 199.160845 224.369109 
L 199.160845 223.608713 
L 199.619395 223.608713 
L 199.619395 222.848317 
L 199.796736 222.848317 
L 199.875621 220.567129 
L 199.98556 220.567129 
L 199.98556 219.806733 
L 200.168046 219.806733 
L 200.255157 218.285941 
L 201.490798 218.285941 
L 201.490798 217.525545 
L 201.614379 217.525545 
L 201.614379 216.765149 
L 202.065116 216.765149 
L 202.14338 215.244356 
L 202.529569 215.244356 
L 202.529569 214.48396 
L 202.796485 214.48396 
L 202.797071 212.963168 
L 202.91081 212.963168 
L 202.976116 209.921584 
L 203.022149 209.921584 
L 203.130812 206.88 
L 203.13785 206.88 
L 203.23209 204.598812 
L 203.263757 204.598812 
L 203.373852 200.036436 
L 203.375249 200.036436 
L 203.462595 194.713663 
L 203.5455 194.713663 
L 203.585278 193.192871 
L 203.693708 193.192871 
L 203.740327 190.911683 
L 204.379371 190.911683 
L 204.379371 190.151287 
L 204.500575 190.151287 
L 204.500575 189.390891 
L 205.404095 189.390891 
L 205.404095 188.630495 
L 205.566869 188.630495 
L 205.566869 187.870099 
L 205.750588 187.870099 
L 205.750588 187.109703 
L 206.066287 187.109703 
L 206.066287 186.349307 
L 206.192625 186.349307 
L 206.192625 185.588911 
L 206.59173 185.588911 
L 206.640105 184.068119 
L 206.779502 184.068119 
L 206.810611 182.547327 
L 207.812242 182.547327 
L 207.812242 181.786931 
L 207.92815 181.786931 
L 207.92815 181.026535 
L 210.616871 181.026535 
L 210.616871 180.266139 
L 211.307793 180.266139 
L 211.307793 179.505743 
L 211.76213 179.505743 
L 211.76213 178.745347 
L 211.885725 178.745347 
L 211.914153 177.224554 
L 212.002041 177.224554 
L 212.086177 175.703762 
L 212.388258 175.703762 
L 212.388258 174.943366 
L 212.548114 174.943366 
L 212.580463 173.422574 
L 212.845564 173.422574 
L 212.93912 171.901782 
L 213.016328 171.901782 
L 213.016328 171.141386 
L 213.151176 171.141386 
L 213.151176 170.38099 
L 213.345455 170.38099 
L 213.345455 169.620594 
L 213.595688 169.620594 
L 213.640732 168.099802 
L 213.720601 168.099802 
L 213.756212 166.57901 
L 214.207057 166.57901 
L 214.208067 165.058218 
L 214.545685 165.058218 
L 214.545685 164.297822 
L 215.066714 164.297822 
L 215.066714 163.537426 
L 215.538644 163.537426 
L 215.538644 162.77703 
L 216.076714 162.77703 
L 216.076714 162.016634 
L 217.447231 162.016634 
L 217.447231 161.256238 
L 217.71666 161.256238 
L 217.71666 160.495842 
L 217.859566 160.495842 
L 217.918013 158.97505 
L 218.068435 158.97505 
L 218.111785 157.454257 
L 218.264982 157.454257 
L 218.313765 155.933465 
L 218.462528 155.933465 
L 218.462528 155.173069 
L 218.698936 155.173069 
L 218.790428 152.891881 
L 218.841456 152.891881 
L 218.841456 152.131485 
L 218.991458 152.131485 
L 219.043316 149.850297 
L 219.221263 149.850297 
L 219.221263 149.089901 
L 219.350424 149.089901 
L 219.453442 145.287921 
L 219.739464 145.287921 
L 219.849633 143.767129 
L 219.877024 143.767129 
L 219.94657 142.246337 
L 220.039747 142.246337 
L 220.039747 141.485941 
L 220.162691 141.485941 
L 220.162691 140.725545 
L 220.379401 140.725545 
L 220.379401 139.965149 
L 220.538757 139.965149 
L 220.642659 136.923564 
L 220.705584 136.923564 
L 220.714714 135.402772 
L 220.915879 135.402772 
L 221.025679 133.88198 
L 221.148959 133.88198 
L 221.178768 131.600792 
L 221.316381 131.600792 
L 221.367339 130.08 
L 221.529213 130.08 
L 221.576164 128.559208 
L 221.860071 128.559208 
L 221.905383 127.038416 
L 222.005305 127.038416 
L 222.005305 126.27802 
L 222.21451 126.27802 
L 222.325005 123.996832 
L 222.452729 123.996832 
L 222.496652 121.715644 
L 222.594684 121.715644 
L 222.621501 120.194851 
L 222.791742 120.194851 
L 222.791742 119.434455 
L 223.063212 119.434455 
L 223.063212 118.674059 
L 223.414961 118.674059 
L 223.414961 117.913663 
L 223.597291 117.913663 
L 223.597291 117.153267 
L 223.774805 117.153267 
L 223.882706 115.632475 
L 223.941718 115.632475 
L 223.948024 114.111683 
L 224.140504 114.111683 
L 224.160304 111.830495 
L 224.253771 111.830495 
L 224.253771 111.070099 
L 224.410723 111.070099 
L 224.443844 109.549307 
L 224.643667 109.549307 
L 224.679523 108.028515 
L 225.273328 108.028515 
L 225.273328 107.268119 
L 225.584507 107.268119 
L 225.644276 105.747327 
L 225.849523 105.747327 
L 225.849523 104.986931 
L 228.388971 104.986931 
L 228.388971 104.226535 
L 229.130631 104.226535 
L 229.130631 103.466139 
L 229.909265 103.466139 
L 229.909265 102.705743 
L 230.20978 102.705743 
L 230.301421 101.18495 
L 230.450218 101.18495 
L 230.450218 100.424554 
L 230.617193 100.424554 
L 230.72044 98.903762 
L 231.028462 98.903762 
L 231.08212 96.622574 
L 231.508569 96.622574 
L 231.510479 95.101782 
L 231.745623 95.101782 
L 231.816211 93.58099 
L 232.460085 93.58099 
L 232.460085 92.820594 
L 232.672289 92.820594 
L 232.672289 92.060198 
L 233.870129 92.060198 
L 233.870129 91.299802 
L 236.312202 91.299802 
L 236.312202 90.539406 
L 236.954142 90.539406 
L 236.954142 89.77901 
L 252.273864 89.77901 
L 252.273864 89.018614 
L 253.627819 89.018614 
L 253.627819 88.258218 
L 253.974038 88.258218 
L 253.974038 87.497822 
L 254.834694 87.497822 
L 254.914726 85.97703 
L 255.243324 85.97703 
L 255.346823 83.695842 
L 255.585615 83.695842 
L 255.585615 82.935446 
L 255.884384 82.935446 
L 255.989771 81.414653 
L 256.681813 81.414653 
L 256.689093 79.893861 
L 257.039843 79.893861 
L 257.039843 79.133465 
L 257.228729 79.133465 
L 257.228729 78.373069 
L 258.844303 78.373069 
L 258.844303 77.612673 
L 259.087524 77.612673 
L 259.087524 76.852277 
L 259.264474 76.852277 
L 259.293179 75.331485 
L 260.967094 75.331485 
L 260.967094 74.571089 
L 261.174763 74.571089 
L 261.279888 73.050297 
L 261.563804 73.050297 
L 261.563804 72.289901 
L 261.970068 72.289901 
L 261.970068 71.529505 
L 262.403253 71.529505 
L 262.403253 70.769109 
L 262.552541 70.769109 
L 262.590697 69.248317 
L 262.786039 69.248317 
L 262.894577 66.967129 
L 263.308039 66.967129 
L 263.308039 66.206733 
L 263.461444 66.206733 
L 263.461444 65.446337 
L 263.634346 65.446337 
L 263.634346 64.685941 
L 264.492297 64.685941 
L 264.492297 63.925545 
L 265.136635 63.925545 
L 265.136635 63.165149 
L 265.710083 63.165149 
L 265.710083 62.404752 
L 266.182942 62.404752 
L 266.182942 61.644356 
L 266.43124 61.644356 
L 266.43124 60.88396 
L 266.588606 60.88396 
L 266.588606 60.123564 
L 267.01172 60.123564 
L 267.01172 59.363168 
L 267.626871 59.363168 
L 267.663355 57.842376 
L 268.214166 57.842376 
L 268.246411 56.321584 
L 269.023348 56.321584 
L 269.023348 55.561188 
L 269.242675 55.561188 
L 269.242675 54.800792 
L 269.67873 54.800792 
L 269.67873 54.040396 
L 271.007853 54.040396 
L 271.007853 53.28 
L 272.020627 53.28 
L 272.109811 51.759208 
L 272.146385 51.759208 
L 272.146385 50.998812 
L 272.765209 50.998812 
L 272.765209 50.238416 
L 273.3614 50.238416 
L 273.3614 49.47802 
L 274.146845 49.47802 
L 274.146845 48.717624 
L 274.480281 48.717624 
L 274.514705 47.196832 
L 274.659295 47.196832 
L 274.659295 46.436436 
L 275.739583 46.436436 
L 275.739583 45.67604 
L 278.022166 45.67604 
L 278.022166 44.915644 
L 278.242996 44.915644 
L 278.242996 44.155248 
L 285.228988 44.155248 
L 285.228988 43.394851 
L 285.641009 43.394851 
L 285.641009 42.634455 
L 285.981024 42.634455 
L 285.981024 41.874059 
L 286.600689 41.874059 
L 286.600689 41.113663 
L 287.135384 41.113663 
L 287.243624 39.592871 
L 287.604061 39.592871 
L 287.604061 38.832475 
L 288.175541 38.832475 
L 288.175541 38.072079 
L 288.430745 38.072079 
L 288.430745 37.311683 
L 289.219236 37.311683 
L 289.237458 35.790891 
L 289.35472 35.790891 
L 289.35472 35.030495 
L 289.678359 35.030495 
L 289.678359 34.270099 
L 289.847627 34.270099 
L 289.847627 33.509703 
L 290.294696 33.509703 
L 290.294696 32.749307 
L 291.353785 32.749307 
L 291.358415 31.228515 
L 291.792185 31.228515 
L 291.792185 30.468119 
L 292.289114 30.468119 
L 292.303543 28.947327 
L 293.192383 28.947327 
L 293.283032 27.426535 
L 293.3359 27.426535 
L 293.405932 25.905743 
L 293.764541 25.905743 
L 293.764541 25.145347 
L 294.631786 25.145347 
L 294.631786 24.38495 
L 295.559421 24.38495 
L 295.559421 23.624554 
L 295.733793 23.624554 
L 295.733793 22.864158 
L 296.129462 22.864158 
L 296.129462 22.103762 
L 296.723475 22.103762 
L 296.723475 21.343366 
L 323.882692 21.343366 
L 323.882692 20.58297 
L 325.711382 20.58297 
L 325.711382 19.822574 
L 326.233058 19.822574 
L 326.343922 18.301782 
L 326.628576 18.301782 
L 326.628576 17.541386 
L 326.823327 17.541386 
L 326.823327 16.78099 
L 327.026804 16.78099 
L 327.026804 16.020594 
L 327.780247 16.020594 
L 327.790445 14.499802 
L 327.9258 14.499802 
L 327.9258 13.739406 
L 329.095739 13.739406 
L 329.095739 12.97901 
L 329.240664 12.97901 
L 329.240664 12.218614 
L 330.717971 12.218614 
L 330.717971 11.458218 
L 332.470134 11.458218 
L 332.470134 10.697822 
L 333.51922 10.697822 
L 333.51922 9.937426 
L 333.51922 9.937426 
L 364.32 9.937426 
L 364.32 9.937426 
" style="fill:none;stroke:#00bfbf;stroke-linecap:square;"/>
   </g>
   <g id="patch_3">
    <path d="M 7.2 7.2 
L 364.32 7.2 
" style="fill:none;stroke:#000000;stroke-linecap:square;stroke-linejoin:miter;"/>
   </g>
   <g id="patch_4">
    <path d="M 364.32 283.68 
L 364.32 7.2 
" style="fill:none;stroke:#000000;stroke-linecap:square;stroke-linejoin:miter;"/>
   </g>
   <g id="patch_5">
    <path d="M 7.2 283.68 
L 364.32 283.68 
" style="fill:none;stroke:#000000;stroke-linecap:square;stroke-linejoin:miter;"/>
   </g>
   <g id="patch_6">
    <path d="M 7.2 283.68 
L 7.2 7.2 
" style="fill:none;stroke:#000000;stroke-linecap:square;stroke-linejoin:miter;"/>
   </g>
   <g id="matplotlib.axis_1">
    <g id="xtick_1">
     <g id="line2d_6">
      <path clip-path="url(#p0b835814c6)" d="M 46.803772 283.68 
L 46.803772 7.2 
" style="fill:none;stroke:#000000;stroke-dasharray:1.000000,3.000000;stroke-dashoffset:0.0;stroke-width:0.5;"/>
     </g>
     <g id="line2d_7">
      <defs>
       <path d="M 0 0 
L 0 -4 
" id="mb066bc814f" style="stroke:#000000;stroke-width:0.5;"/>
      </defs>
      <g>
       <use style="stroke:#000000;stroke-width:0.5;" x="46.803771872" xlink:href="#mb066bc814f" y="283.68"/>
      </g>
     </g>
     <g id="line2d_8">
      <defs>
       <path d="M 0 0 
L 0 4 
" id="m39a4f85519" style="stroke:#000000;stroke-width:0.5;"/>
      </defs>
      <g>
       <use style="stroke:#000000;stroke-width:0.5;" x="46.803771872" xlink:href="#m39a4f85519" y="7.2"/>
      </g>
     </g>
     <g id="text_1">
      <!-- -6 -->
      <defs>
       <path d="M 33.015625 40.375 
Q 26.375 40.375 22.484375 35.828125 
Q 18.609375 31.296875 18.609375 23.390625 
Q 18.609375 15.53125 22.484375 10.953125 
Q 26.375 6.390625 33.015625 6.390625 
Q 39.65625 6.390625 43.53125 10.953125 
Q 47.40625 15.53125 47.40625 23.390625 
Q 47.40625 31.296875 43.53125 35.828125 
Q 39.65625 40.375 33.015625 40.375 
M 52.59375 71.296875 
L 52.59375 62.3125 
Q 48.875 64.0625 45.09375 64.984375 
Q 41.3125 65.921875 37.59375 65.921875 
Q 27.828125 65.921875 22.671875 59.328125 
Q 17.53125 52.734375 16.796875 39.40625 
Q 19.671875 43.65625 24.015625 45.921875 
Q 28.375 48.1875 33.59375 48.1875 
Q 44.578125 48.1875 50.953125 41.515625 
Q 57.328125 34.859375 57.328125 23.390625 
Q 57.328125 12.15625 50.6875 5.359375 
Q 44.046875 -1.421875 33.015625 -1.421875 
Q 20.359375 -1.421875 13.671875 8.265625 
Q 6.984375 17.96875 6.984375 36.375 
Q 6.984375 53.65625 15.1875 63.9375 
Q 23.390625 74.21875 37.203125 74.21875 
Q 40.921875 74.21875 44.703125 73.484375 
Q 48.484375 72.75 52.59375 71.296875 
" id="BitstreamVeraSans-Roman-36"/>
       <path d="M 4.890625 31.390625 
L 31.203125 31.390625 
L 31.203125 23.390625 
L 4.890625 23.390625 
z
" id="BitstreamVeraSans-Roman-2d"/>
      </defs>
      <g transform="translate(36.833459372 302.876875)scale(0.2 -0.2)">
       <use xlink:href="#BitstreamVeraSans-Roman-2d"/>
       <use x="36.083984375" xlink:href="#BitstreamVeraSans-Roman-36"/>
      </g>
     </g>
    </g>
    <g id="xtick_2">
     <g id="line2d_9">
      <path clip-path="url(#p0b835814c6)" d="M 86.4933 283.68 
L 86.4933 7.2 
" style="fill:none;stroke:#000000;stroke-dasharray:1.000000,3.000000;stroke-dashoffset:0.0;stroke-width:0.5;"/>
     </g>
     <g id="line2d_10">
      <g>
       <use style="stroke:#000000;stroke-width:0.5;" x="86.493300388" xlink:href="#mb066bc814f" y="283.68"/>
      </g>
     </g>
     <g id="line2d_11">
      <g>
       <use style="stroke:#000000;stroke-width:0.5;" x="86.493300388" xlink:href="#m39a4f85519" y="7.2"/>
      </g>
     </g>
     <g id="text_2">
      <!-- -4 -->
      <defs>
       <path d="M 37.796875 64.3125 
L 12.890625 25.390625 
L 37.796875 25.390625 
z
M 35.203125 72.90625 
L 47.609375 72.90625 
L 47.609375 25.390625 
L 58.015625 25.390625 
L 58.015625 17.1875 
L 47.609375 17.1875 
L 47.609375 0 
L 37.796875 0 
L 37.796875 17.1875 
L 4.890625 17.1875 
L 4.890625 26.703125 
z
" id="BitstreamVeraSans-Roman-34"/>
      </defs>
      <g transform="translate(76.522987888 302.876875)scale(0.2 -0.2)">
       <use xlink:href="#BitstreamVeraSans-Roman-2d"/>
       <use x="36.083984375" xlink:href="#BitstreamVeraSans-Roman-34"/>
      </g>
     </g>
    </g>
    <g id="xtick_3">
     <g id="line2d_12">
      <path clip-path="url(#p0b835814c6)" d="M 126.182829 283.68 
L 126.182829 7.2 
" style="fill:none;stroke:#000000;stroke-dasharray:1.000000,3.000000;stroke-dashoffset:0.0;stroke-width:0.5;"/>
     </g>
     <g id="line2d_13">
      <g>
       <use style="stroke:#000000;stroke-width:0.5;" x="126.182828904" xlink:href="#mb066bc814f" y="283.68"/>
      </g>
     </g>
     <g id="line2d_14">
      <g>
       <use style="stroke:#000000;stroke-width:0.5;" x="126.182828904" xlink:href="#m39a4f85519" y="7.2"/>
      </g>
     </g>
     <g id="text_3">
      <!-- -2 -->
      <defs>
       <path d="M 19.1875 8.296875 
L 53.609375 8.296875 
L 53.609375 0 
L 7.328125 0 
L 7.328125 8.296875 
Q 12.9375 14.109375 22.625 23.890625 
Q 32.328125 33.6875 34.8125 36.53125 
Q 39.546875 41.84375 41.421875 45.53125 
Q 43.3125 49.21875 43.3125 52.78125 
Q 43.3125 58.59375 39.234375 62.25 
Q 35.15625 65.921875 28.609375 65.921875 
Q 23.96875 65.921875 18.8125 64.3125 
Q 13.671875 62.703125 7.8125 59.421875 
L 7.8125 69.390625 
Q 13.765625 71.78125 18.9375 73 
Q 24.125 74.21875 28.421875 74.21875 
Q 39.75 74.21875 46.484375 68.546875 
Q 53.21875 62.890625 53.21875 53.421875 
Q 53.21875 48.921875 51.53125 44.890625 
Q 49.859375 40.875 45.40625 35.40625 
Q 44.1875 33.984375 37.640625 27.21875 
Q 31.109375 20.453125 19.1875 8.296875 
" id="BitstreamVeraSans-Roman-32"/>
      </defs>
      <g transform="translate(116.212516404 302.876875)scale(0.2 -0.2)">
       <use xlink:href="#BitstreamVeraSans-Roman-2d"/>
       <use x="36.083984375" xlink:href="#BitstreamVeraSans-Roman-32"/>
      </g>
     </g>
    </g>
    <g id="xtick_4">
     <g id="line2d_15">
      <path clip-path="url(#p0b835814c6)" d="M 165.872357 283.68 
L 165.872357 7.2 
" style="fill:none;stroke:#000000;stroke-dasharray:1.000000,3.000000;stroke-dashoffset:0.0;stroke-width:0.5;"/>
     </g>
     <g id="line2d_16">
      <g>
       <use style="stroke:#000000;stroke-width:0.5;" x="165.87235742" xlink:href="#mb066bc814f" y="283.68"/>
      </g>
     </g>
     <g id="line2d_17">
      <g>
       <use style="stroke:#000000;stroke-width:0.5;" x="165.87235742" xlink:href="#m39a4f85519" y="7.2"/>
      </g>
     </g>
     <g id="text_4">
      <!-- 0 -->
      <defs>
       <path d="M 31.78125 66.40625 
Q 24.171875 66.40625 20.328125 58.90625 
Q 16.5 51.421875 16.5 36.375 
Q 16.5 21.390625 20.328125 13.890625 
Q 24.171875 6.390625 31.78125 6.390625 
Q 39.453125 6.390625 43.28125 13.890625 
Q 47.125 21.390625 47.125 36.375 
Q 47.125 51.421875 43.28125 58.90625 
Q 39.453125 66.40625 31.78125 66.40625 
M 31.78125 74.21875 
Q 44.046875 74.21875 50.515625 64.515625 
Q 56.984375 54.828125 56.984375 36.375 
Q 56.984375 17.96875 50.515625 8.265625 
Q 44.046875 -1.421875 31.78125 -1.421875 
Q 19.53125 -1.421875 13.0625 8.265625 
Q 6.59375 17.96875 6.59375 36.375 
Q 6.59375 54.828125 13.0625 64.515625 
Q 19.53125 74.21875 31.78125 74.21875 
" id="BitstreamVeraSans-Roman-30"/>
      </defs>
      <g transform="translate(159.50985742 302.876875)scale(0.2 -0.2)">
       <use xlink:href="#BitstreamVeraSans-Roman-30"/>
      </g>
     </g>
    </g>
    <g id="xtick_5">
     <g id="line2d_18">
      <path clip-path="url(#p0b835814c6)" d="M 205.561886 283.68 
L 205.561886 7.2 
" style="fill:none;stroke:#000000;stroke-dasharray:1.000000,3.000000;stroke-dashoffset:0.0;stroke-width:0.5;"/>
     </g>
     <g id="line2d_19">
      <g>
       <use style="stroke:#000000;stroke-width:0.5;" x="205.561885936" xlink:href="#mb066bc814f" y="283.68"/>
      </g>
     </g>
     <g id="line2d_20">
      <g>
       <use style="stroke:#000000;stroke-width:0.5;" x="205.561885936" xlink:href="#m39a4f85519" y="7.2"/>
      </g>
     </g>
     <g id="text_5">
      <!-- 2 -->
      <g transform="translate(199.199385936 302.876875)scale(0.2 -0.2)">
       <use xlink:href="#BitstreamVeraSans-Roman-32"/>
      </g>
     </g>
    </g>
    <g id="xtick_6">
     <g id="line2d_21">
      <path clip-path="url(#p0b835814c6)" d="M 245.251414 283.68 
L 245.251414 7.2 
" style="fill:none;stroke:#000000;stroke-dasharray:1.000000,3.000000;stroke-dashoffset:0.0;stroke-width:0.5;"/>
     </g>
     <g id="line2d_22">
      <g>
       <use style="stroke:#000000;stroke-width:0.5;" x="245.251414452" xlink:href="#mb066bc814f" y="283.68"/>
      </g>
     </g>
     <g id="line2d_23">
      <g>
       <use style="stroke:#000000;stroke-width:0.5;" x="245.251414452" xlink:href="#m39a4f85519" y="7.2"/>
      </g>
     </g>
     <g id="text_6">
      <!-- 4 -->
      <g transform="translate(238.888914452 302.876875)scale(0.2 -0.2)">
       <use xlink:href="#BitstreamVeraSans-Roman-34"/>
      </g>
     </g>
    </g>
    <g id="xtick_7">
     <g id="line2d_24">
      <path clip-path="url(#p0b835814c6)" d="M 284.940943 283.68 
L 284.940943 7.2 
" style="fill:none;stroke:#000000;stroke-dasharray:1.000000,3.000000;stroke-dashoffset:0.0;stroke-width:0.5;"/>
     </g>
     <g id="line2d_25">
      <g>
       <use style="stroke:#000000;stroke-width:0.5;" x="284.940942968" xlink:href="#mb066bc814f" y="283.68"/>
      </g>
     </g>
     <g id="line2d_26">
      <g>
       <use style="stroke:#000000;stroke-width:0.5;" x="284.940942968" xlink:href="#m39a4f85519" y="7.2"/>
      </g>
     </g>
     <g id="text_7">
      <!-- 6 -->
      <g transform="translate(278.578442968 302.876875)scale(0.2 -0.2)">
       <use xlink:href="#BitstreamVeraSans-Roman-36"/>
      </g>
     </g>
    </g>
    <g id="xtick_8">
     <g id="line2d_27">
      <path clip-path="url(#p0b835814c6)" d="M 324.630471 283.68 
L 324.630471 7.2 
" style="fill:none;stroke:#000000;stroke-dasharray:1.000000,3.000000;stroke-dashoffset:0.0;stroke-width:0.5;"/>
     </g>
     <g id="line2d_28">
      <g>
       <use style="stroke:#000000;stroke-width:0.5;" x="324.630471484" xlink:href="#mb066bc814f" y="283.68"/>
      </g>
     </g>
     <g id="line2d_29">
      <g>
       <use style="stroke:#000000;stroke-width:0.5;" x="324.630471484" xlink:href="#m39a4f85519" y="7.2"/>
      </g>
     </g>
     <g id="text_8">
      <!-- 8 -->
      <defs>
       <path d="M 31.78125 34.625 
Q 24.75 34.625 20.71875 30.859375 
Q 16.703125 27.09375 16.703125 20.515625 
Q 16.703125 13.921875 20.71875 10.15625 
Q 24.75 6.390625 31.78125 6.390625 
Q 38.8125 6.390625 42.859375 10.171875 
Q 46.921875 13.96875 46.921875 20.515625 
Q 46.921875 27.09375 42.890625 30.859375 
Q 38.875 34.625 31.78125 34.625 
M 21.921875 38.8125 
Q 15.578125 40.375 12.03125 44.71875 
Q 8.5 49.078125 8.5 55.328125 
Q 8.5 64.0625 14.71875 69.140625 
Q 20.953125 74.21875 31.78125 74.21875 
Q 42.671875 74.21875 48.875 69.140625 
Q 55.078125 64.0625 55.078125 55.328125 
Q 55.078125 49.078125 51.53125 44.71875 
Q 48 40.375 41.703125 38.8125 
Q 48.828125 37.15625 52.796875 32.3125 
Q 56.78125 27.484375 56.78125 20.515625 
Q 56.78125 9.90625 50.3125 4.234375 
Q 43.84375 -1.421875 31.78125 -1.421875 
Q 19.734375 -1.421875 13.25 4.234375 
Q 6.78125 9.90625 6.78125 20.515625 
Q 6.78125 27.484375 10.78125 32.3125 
Q 14.796875 37.15625 21.921875 38.8125 
M 18.3125 54.390625 
Q 18.3125 48.734375 21.84375 45.5625 
Q 25.390625 42.390625 31.78125 42.390625 
Q 38.140625 42.390625 41.71875 45.5625 
Q 45.3125 48.734375 45.3125 54.390625 
Q 45.3125 60.0625 41.71875 63.234375 
Q 38.140625 66.40625 31.78125 66.40625 
Q 25.390625 66.40625 21.84375 63.234375 
Q 18.3125 60.0625 18.3125 54.390625 
" id="BitstreamVeraSans-Roman-38"/>
      </defs>
      <g transform="translate(318.267971484 302.876875)scale(0.2 -0.2)">
       <use xlink:href="#BitstreamVeraSans-Roman-38"/>
      </g>
     </g>
    </g>
    <g id="xtick_9">
     <g id="line2d_30">
      <path clip-path="url(#p0b835814c6)" d="M 364.32 283.68 
L 364.32 7.2 
" style="fill:none;stroke:#000000;stroke-dasharray:1.000000,3.000000;stroke-dashoffset:0.0;stroke-width:0.5;"/>
     </g>
     <g id="line2d_31">
      <g>
       <use style="stroke:#000000;stroke-width:0.5;" x="364.32" xlink:href="#mb066bc814f" y="283.68"/>
      </g>
     </g>
     <g id="line2d_32">
      <g>
       <use style="stroke:#000000;stroke-width:0.5;" x="364.32" xlink:href="#m39a4f85519" y="7.2"/>
      </g>
     </g>
    </g>
    <g id="xtick_10">
     <g id="line2d_33">
      <defs>
       <path d="M 0 0 
L 0 -2 
" id="m854636dab4" style="stroke:#000000;stroke-width:0.5;"/>
      </defs>
      <g>
       <use style="stroke:#000000;stroke-width:0.5;" x="46.803771872" xlink:href="#m854636dab4" y="283.68"/>
      </g>
     </g>
     <g id="line2d_34">
      <defs>
       <path d="M 0 0 
L 0 2 
" id="mada53628a5" style="stroke:#000000;stroke-width:0.5;"/>
      </defs>
      <g>
       <use style="stroke:#000000;stroke-width:0.5;" x="46.803771872" xlink:href="#mada53628a5" y="7.2"/>
      </g>
     </g>
    </g>
    <g id="xtick_11">
     <g id="line2d_35">
      <g>
       <use style="stroke:#000000;stroke-width:0.5;" x="86.493300388" xlink:href="#m854636dab4" y="283.68"/>
      </g>
     </g>
     <g id="line2d_36">
      <g>
       <use style="stroke:#000000;stroke-width:0.5;" x="86.493300388" xlink:href="#mada53628a5" y="7.2"/>
      </g>
     </g>
    </g>
    <g id="xtick_12">
     <g id="line2d_37">
      <g>
       <use style="stroke:#000000;stroke-width:0.5;" x="126.182828904" xlink:href="#m854636dab4" y="283.68"/>
      </g>
     </g>
     <g id="line2d_38">
      <g>
       <use style="stroke:#000000;stroke-width:0.5;" x="126.182828904" xlink:href="#mada53628a5" y="7.2"/>
      </g>
     </g>
    </g>
    <g id="xtick_13">
     <g id="line2d_39">
      <g>
       <use style="stroke:#000000;stroke-width:0.5;" x="165.87235742" xlink:href="#m854636dab4" y="283.68"/>
      </g>
     </g>
     <g id="line2d_40">
      <g>
       <use style="stroke:#000000;stroke-width:0.5;" x="165.87235742" xlink:href="#mada53628a5" y="7.2"/>
      </g>
     </g>
    </g>
    <g id="xtick_14">
     <g id="line2d_41">
      <g>
       <use style="stroke:#000000;stroke-width:0.5;" x="205.561885936" xlink:href="#m854636dab4" y="283.68"/>
      </g>
     </g>
     <g id="line2d_42">
      <g>
       <use style="stroke:#000000;stroke-width:0.5;" x="205.561885936" xlink:href="#mada53628a5" y="7.2"/>
      </g>
     </g>
    </g>
    <g id="xtick_15">
     <g id="line2d_43">
      <g>
       <use style="stroke:#000000;stroke-width:0.5;" x="245.251414452" xlink:href="#m854636dab4" y="283.68"/>
      </g>
     </g>
     <g id="line2d_44">
      <g>
       <use style="stroke:#000000;stroke-width:0.5;" x="245.251414452" xlink:href="#mada53628a5" y="7.2"/>
      </g>
     </g>
    </g>
    <g id="xtick_16">
     <g id="line2d_45">
      <g>
       <use style="stroke:#000000;stroke-width:0.5;" x="284.940942968" xlink:href="#m854636dab4" y="283.68"/>
      </g>
     </g>
     <g id="line2d_46">
      <g>
       <use style="stroke:#000000;stroke-width:0.5;" x="284.940942968" xlink:href="#mada53628a5" y="7.2"/>
      </g>
     </g>
    </g>
    <g id="xtick_17">
     <g id="line2d_47">
      <g>
       <use style="stroke:#000000;stroke-width:0.5;" x="324.630471484" xlink:href="#m854636dab4" y="283.68"/>
      </g>
     </g>
     <g id="line2d_48">
      <g>
       <use style="stroke:#000000;stroke-width:0.5;" x="324.630471484" xlink:href="#mada53628a5" y="7.2"/>
      </g>
     </g>
    </g>
    <g id="xtick_18">
     <g id="line2d_49">
      <g>
       <use style="stroke:#000000;stroke-width:0.5;" x="364.32" xlink:href="#m854636dab4" y="283.68"/>
      </g>
     </g>
     <g id="line2d_50">
      <g>
       <use style="stroke:#000000;stroke-width:0.5;" x="364.32" xlink:href="#mada53628a5" y="7.2"/>
      </g>
     </g>
    </g>
    <g id="text_9">
     <!-- log10 of Df -->
     <defs>
      <path id="BitstreamVeraSans-Roman-20"/>
      <path d="M 12.40625 8.296875 
L 28.515625 8.296875 
L 28.515625 63.921875 
L 10.984375 60.40625 
L 10.984375 69.390625 
L 28.421875 72.90625 
L 38.28125 72.90625 
L 38.28125 8.296875 
L 54.390625 8.296875 
L 54.390625 0 
L 12.40625 0 
z
" id="BitstreamVeraSans-Roman-31"/>
      <path d="M 30.609375 48.390625 
Q 23.390625 48.390625 19.1875 42.75 
Q 14.984375 37.109375 14.984375 27.296875 
Q 14.984375 17.484375 19.15625 11.84375 
Q 23.34375 6.203125 30.609375 6.203125 
Q 37.796875 6.203125 41.984375 11.859375 
Q 46.1875 17.53125 46.1875 27.296875 
Q 46.1875 37.015625 41.984375 42.703125 
Q 37.796875 48.390625 30.609375 48.390625 
M 30.609375 56 
Q 42.328125 56 49.015625 48.375 
Q 55.71875 40.765625 55.71875 27.296875 
Q 55.71875 13.875 49.015625 6.21875 
Q 42.328125 -1.421875 30.609375 -1.421875 
Q 18.84375 -1.421875 12.171875 6.21875 
Q 5.515625 13.875 5.515625 27.296875 
Q 5.515625 40.765625 12.171875 48.375 
Q 18.84375 56 30.609375 56 
" id="BitstreamVeraSans-Roman-6f"/>
      <path d="M 9.421875 75.984375 
L 18.40625 75.984375 
L 18.40625 0 
L 9.421875 0 
z
" id="BitstreamVeraSans-Roman-6c"/>
      <path d="M 19.671875 64.796875 
L 19.671875 8.109375 
L 31.59375 8.109375 
Q 46.6875 8.109375 53.6875 14.9375 
Q 60.6875 21.78125 60.6875 36.53125 
Q 60.6875 51.171875 53.6875 57.984375 
Q 46.6875 64.796875 31.59375 64.796875 
z
M 9.8125 72.90625 
L 30.078125 72.90625 
Q 51.265625 72.90625 61.171875 64.09375 
Q 71.09375 55.28125 71.09375 36.53125 
Q 71.09375 17.671875 61.125 8.828125 
Q 51.171875 0 30.078125 0 
L 9.8125 0 
z
" id="BitstreamVeraSans-Roman-44"/>
      <path d="M 45.40625 27.984375 
Q 45.40625 37.75 41.375 43.109375 
Q 37.359375 48.484375 30.078125 48.484375 
Q 22.859375 48.484375 18.828125 43.109375 
Q 14.796875 37.75 14.796875 27.984375 
Q 14.796875 18.265625 18.828125 12.890625 
Q 22.859375 7.515625 30.078125 7.515625 
Q 37.359375 7.515625 41.375 12.890625 
Q 45.40625 18.265625 45.40625 27.984375 
M 54.390625 6.78125 
Q 54.390625 -7.171875 48.1875 -13.984375 
Q 42 -20.796875 29.203125 -20.796875 
Q 24.46875 -20.796875 20.265625 -20.09375 
Q 16.0625 -19.390625 12.109375 -17.921875 
L 12.109375 -9.1875 
Q 16.0625 -11.328125 19.921875 -12.34375 
Q 23.78125 -13.375 27.78125 -13.375 
Q 36.625 -13.375 41.015625 -8.765625 
Q 45.40625 -4.15625 45.40625 5.171875 
L 45.40625 9.625 
Q 42.625 4.78125 38.28125 2.390625 
Q 33.9375 0 27.875 0 
Q 17.828125 0 11.671875 7.65625 
Q 5.515625 15.328125 5.515625 27.984375 
Q 5.515625 40.671875 11.671875 48.328125 
Q 17.828125 56 27.875 56 
Q 33.9375 56 38.28125 53.609375 
Q 42.625 51.21875 45.40625 46.390625 
L 45.40625 54.6875 
L 54.390625 54.6875 
z
" id="BitstreamVeraSans-Roman-67"/>
      <path d="M 37.109375 75.984375 
L 37.109375 68.5 
L 28.515625 68.5 
Q 23.6875 68.5 21.796875 66.546875 
Q 19.921875 64.59375 19.921875 59.515625 
L 19.921875 54.6875 
L 34.71875 54.6875 
L 34.71875 47.703125 
L 19.921875 47.703125 
L 19.921875 0 
L 10.890625 0 
L 10.890625 47.703125 
L 2.296875 47.703125 
L 2.296875 54.6875 
L 10.890625 54.6875 
L 10.890625 58.5 
Q 10.890625 67.625 15.140625 71.796875 
Q 19.390625 75.984375 28.609375 75.984375 
z
" id="BitstreamVeraSans-Roman-66"/>
     </defs>
     <g transform="translate(130.5740625 327.233125)scale(0.2 -0.2)">
      <use xlink:href="#BitstreamVeraSans-Roman-6c"/>
      <use x="27.783203125" xlink:href="#BitstreamVeraSans-Roman-6f"/>
      <use x="88.96484375" xlink:href="#BitstreamVeraSans-Roman-67"/>
      <use x="152.44140625" xlink:href="#BitstreamVeraSans-Roman-31"/>
      <use x="216.064453125" xlink:href="#BitstreamVeraSans-Roman-30"/>
      <use x="279.6875" xlink:href="#BitstreamVeraSans-Roman-20"/>
      <use x="311.474609375" xlink:href="#BitstreamVeraSans-Roman-6f"/>
      <use x="372.65625" xlink:href="#BitstreamVeraSans-Roman-66"/>
      <use x="407.861328125" xlink:href="#BitstreamVeraSans-Roman-20"/>
      <use x="439.6484375" xlink:href="#BitstreamVeraSans-Roman-44"/>
      <use x="516.650390625" xlink:href="#BitstreamVeraSans-Roman-66"/>
     </g>
    </g>
   </g>
   <g id="matplotlib.axis_2">
    <g id="ytick_1">
     <g id="line2d_51">
      <path clip-path="url(#p0b835814c6)" d="M 7.2 283.68 
L 364.32 283.68 
" style="fill:none;stroke:#000000;stroke-dasharray:1.000000,3.000000;stroke-dashoffset:0.0;stroke-width:0.5;"/>
     </g>
     <g id="line2d_52">
      <defs>
       <path d="M 0 0 
L 4 0 
" id="m68a42bd10b" style="stroke:#000000;stroke-width:0.5;"/>
      </defs>
      <g>
       <use style="stroke:#000000;stroke-width:0.5;" x="7.2" xlink:href="#m68a42bd10b" y="283.68"/>
      </g>
     </g>
     <g id="line2d_53">
      <defs>
       <path d="M 0 0 
L -4 0 
" id="m8c608427b5" style="stroke:#000000;stroke-width:0.5;"/>
      </defs>
      <g>
       <use style="stroke:#000000;stroke-width:0.5;" x="364.32" xlink:href="#m8c608427b5" y="283.68"/>
      </g>
     </g>
    </g>
    <g id="ytick_2">
     <g id="line2d_54">
      <path clip-path="url(#p0b835814c6)" d="M 7.2 228.931485 
L 364.32 228.931485 
" style="fill:none;stroke:#000000;stroke-dasharray:1.000000,3.000000;stroke-dashoffset:0.0;stroke-width:0.5;"/>
     </g>
     <g id="line2d_55">
      <g>
       <use style="stroke:#000000;stroke-width:0.5;" x="7.2" xlink:href="#m68a42bd10b" y="228.931485149"/>
      </g>
     </g>
     <g id="line2d_56">
      <g>
       <use style="stroke:#000000;stroke-width:0.5;" x="364.32" xlink:href="#m8c608427b5" y="228.931485149"/>
      </g>
     </g>
    </g>
    <g id="ytick_3">
     <g id="line2d_57">
      <path clip-path="url(#p0b835814c6)" d="M 7.2 174.18297 
L 364.32 174.18297 
" style="fill:none;stroke:#000000;stroke-dasharray:1.000000,3.000000;stroke-dashoffset:0.0;stroke-width:0.5;"/>
     </g>
     <g id="line2d_58">
      <g>
       <use style="stroke:#000000;stroke-width:0.5;" x="7.2" xlink:href="#m68a42bd10b" y="174.182970297"/>
      </g>
     </g>
     <g id="line2d_59">
      <g>
       <use style="stroke:#000000;stroke-width:0.5;" x="364.32" xlink:href="#m8c608427b5" y="174.182970297"/>
      </g>
     </g>
    </g>
    <g id="ytick_4">
     <g id="line2d_60">
      <path clip-path="url(#p0b835814c6)" d="M 7.2 119.434455 
L 364.32 119.434455 
" style="fill:none;stroke:#000000;stroke-dasharray:1.000000,3.000000;stroke-dashoffset:0.0;stroke-width:0.5;"/>
     </g>
     <g id="line2d_61">
      <g>
       <use style="stroke:#000000;stroke-width:0.5;" x="7.2" xlink:href="#m68a42bd10b" y="119.434455446"/>
      </g>
     </g>
     <g id="line2d_62">
      <g>
       <use style="stroke:#000000;stroke-width:0.5;" x="364.32" xlink:href="#m8c608427b5" y="119.434455446"/>
      </g>
     </g>
    </g>
    <g id="ytick_5">
     <g id="line2d_63">
      <path clip-path="url(#p0b835814c6)" d="M 7.2 64.685941 
L 364.32 64.685941 
" style="fill:none;stroke:#000000;stroke-dasharray:1.000000,3.000000;stroke-dashoffset:0.0;stroke-width:0.5;"/>
     </g>
     <g id="line2d_64">
      <g>
       <use style="stroke:#000000;stroke-width:0.5;" x="7.2" xlink:href="#m68a42bd10b" y="64.6859405941"/>
      </g>
     </g>
     <g id="line2d_65">
      <g>
       <use style="stroke:#000000;stroke-width:0.5;" x="364.32" xlink:href="#m8c608427b5" y="64.6859405941"/>
      </g>
     </g>
    </g>
    <g id="ytick_6">
     <g id="line2d_66">
      <path clip-path="url(#p0b835814c6)" d="M 7.2 9.937426 
L 364.32 9.937426 
" style="fill:none;stroke:#000000;stroke-dasharray:1.000000,3.000000;stroke-dashoffset:0.0;stroke-width:0.5;"/>
     </g>
     <g id="line2d_67">
      <g>
       <use style="stroke:#000000;stroke-width:0.5;" x="7.2" xlink:href="#m68a42bd10b" y="9.93742574257"/>
      </g>
     </g>
     <g id="line2d_68">
      <g>
       <use style="stroke:#000000;stroke-width:0.5;" x="364.32" xlink:href="#m8c608427b5" y="9.93742574257"/>
      </g>
     </g>
    </g>
   </g>
   <g id="text_10">
    <!-- f1-24,20-D -->
    <defs>
     <path d="M 11.71875 12.40625 
L 22.015625 12.40625 
L 22.015625 4 
L 14.015625 -11.625 
L 7.71875 -11.625 
L 11.71875 4 
z
" id="BitstreamVeraSans-Roman-2c"/>
    </defs>
    <g transform="translate(250.324475 278.1504)scale(0.2 -0.2)">
     <use xlink:href="#BitstreamVeraSans-Roman-66"/>
     <use x="35.205078125" xlink:href="#BitstreamVeraSans-Roman-31"/>
     <use x="98.828125" xlink:href="#BitstreamVeraSans-Roman-2d"/>
     <use x="134.912109375" xlink:href="#BitstreamVeraSans-Roman-32"/>
     <use x="198.53515625" xlink:href="#BitstreamVeraSans-Roman-34"/>
     <use x="262.158203125" xlink:href="#BitstreamVeraSans-Roman-2c"/>
     <use x="293.9453125" xlink:href="#BitstreamVeraSans-Roman-32"/>
     <use x="357.568359375" xlink:href="#BitstreamVeraSans-Roman-30"/>
     <use x="421.19140625" xlink:href="#BitstreamVeraSans-Roman-2d"/>
     <use x="457.275390625" xlink:href="#BitstreamVeraSans-Roman-44"/>
    </g>
   </g>
  </g>
 </g>
 <defs>
  <clipPath id="p0b835814c6">
   <rect height="276.48" width="357.12" x="7.2" y="7.2"/>
  </clipPath>
 </defs>
</svg>
