<?xml version="1.0" encoding="utf-8" standalone="no"?>
<!DOCTYPE svg PUBLIC "-//W3C//DTD SVG 1.1//EN"
  "http://www.w3.org/Graphics/SVG/1.1/DTD/svg11.dtd">
<!-- Created with matplotlib (http://matplotlib.org/) -->
<svg height="338pt" version="1.1" viewBox="0 0 371 338" width="371pt" xmlns="http://www.w3.org/2000/svg" xmlns:xlink="http://www.w3.org/1999/xlink">
 <defs>
  <style type="text/css">
*{stroke-linecap:butt;stroke-linejoin:round;stroke-miterlimit:100000;}
  </style>
 </defs>
 <g id="figure_1">
  <g id="patch_1">
   <path d="M 0 338.5925 
L 371.52 338.5925 
L 371.52 0 
L 0 0 
z
" style="fill:#ffffff;"/>
  </g>
  <g id="axes_1">
   <g id="patch_2">
    <path d="M 7.2 283.68 
L 364.32 283.68 
L 364.32 7.2 
L 7.2 7.2 
z
" style="fill:#ffffff;"/>
   </g>
   <g id="line2d_1">
    <path clip-path="url(#p8ddc9dab80)" d="M 162.555084 283.68 
L 162.555084 282.919604 
L 167.979818 282.919604 
L 167.979818 282.159208 
L 176.697291 282.159208 
L 176.697291 281.398812 
L 176.919365 281.398812 
L 176.919365 280.638416 
L 177.806109 280.638416 
L 177.806109 279.87802 
L 178.944886 279.87802 
L 178.944886 279.117624 
L 179.366056 279.117624 
L 179.366056 278.357228 
L 180.261933 278.357228 
L 180.261933 277.596832 
L 181.302977 277.596832 
L 181.302977 276.836436 
L 181.669531 276.836436 
L 181.669531 276.07604 
L 182.46906 276.07604 
L 182.495146 274.555248 
L 182.770483 274.555248 
L 182.770483 273.794851 
L 183.105909 273.794851 
L 183.120312 271.513663 
L 183.308356 271.513663 
L 183.319558 269.992871 
L 183.687715 269.992871 
L 183.741728 267.711683 
L 184.407018 267.711683 
L 184.445309 265.430495 
L 184.631064 265.430495 
L 184.631064 264.670099 
L 184.823748 264.670099 
L 184.925588 262.388911 
L 185.127752 262.388911 
L 185.127752 261.628515 
L 185.277264 261.628515 
L 185.288458 260.107723 
L 185.507638 260.107723 
L 185.606568 257.066139 
L 185.730954 257.066139 
L 185.808035 255.545347 
L 186.02427 255.545347 
L 186.117588 251.743366 
L 186.324931 251.743366 
L 186.412557 250.222574 
L 186.576472 250.222574 
L 186.648825 248.701782 
L 186.80586 248.701782 
L 186.80586 247.941386 
L 186.954025 247.941386 
L 187.013596 246.420594 
L 187.07147 246.420594 
L 187.140967 244.139406 
L 187.230186 244.139406 
L 187.294219 242.618614 
L 187.464337 242.618614 
L 187.464337 241.858218 
L 187.615102 241.858218 
L 187.633906 240.337426 
L 187.847556 240.337426 
L 187.918793 238.816634 
L 188.099308 238.816634 
L 188.160329 237.295842 
L 188.232505 237.295842 
L 188.232505 236.535446 
L 188.42499 236.535446 
L 188.42499 235.77505 
L 188.538316 235.77505 
L 188.538316 235.014653 
L 188.750559 235.014653 
L 188.750559 234.254257 
L 188.869675 234.254257 
L 188.929812 232.733465 
L 189.070208 232.733465 
L 189.070208 231.973069 
L 189.398494 231.973069 
L 189.470448 230.452277 
L 189.564372 230.452277 
L 189.630997 228.931485 
L 189.872634 228.931485 
L 189.895436 227.410693 
L 189.997538 227.410693 
L 189.997538 226.650297 
L 190.121119 226.650297 
L 190.227065 225.129505 
L 190.300281 225.129505 
L 190.300281 224.369109 
L 190.412001 224.369109 
L 190.505409 222.087921 
L 190.561602 222.087921 
L 190.634201 220.567129 
L 190.678196 220.567129 
L 190.678196 219.806733 
L 190.83677 219.806733 
L 190.83677 219.046337 
L 191.067007 219.046337 
L 191.067007 218.285941 
L 191.540575 218.285941 
L 191.634521 214.48396 
L 191.683401 214.48396 
L 191.683401 213.723564 
L 191.939412 213.723564 
L 192.014572 212.202772 
L 192.065067 212.202772 
L 192.176068 209.921584 
L 192.36995 209.921584 
L 192.371933 208.400792 
L 192.517959 208.400792 
L 192.517959 207.640396 
L 192.74706 207.640396 
L 192.74706 206.88 
L 192.906469 206.88 
L 192.906469 206.119604 
L 193.51121 206.119604 
L 193.51121 205.359208 
L 193.73303 205.359208 
L 193.836358 203.07802 
L 193.974008 203.07802 
L 194.072978 201.557228 
L 194.369902 201.557228 
L 194.439096 200.036436 
L 194.67408 200.036436 
L 194.735176 198.515644 
L 194.91662 198.515644 
L 194.91662 197.755248 
L 195.123379 197.755248 
L 195.182 196.234455 
L 195.629148 196.234455 
L 195.642497 194.713663 
L 195.873577 194.713663 
L 195.935945 193.192871 
L 196.248371 193.192871 
L 196.248371 192.432475 
L 196.426458 192.432475 
L 196.426458 191.672079 
L 196.677365 191.672079 
L 196.677365 190.911683 
L 196.940344 190.911683 
L 196.965368 188.630495 
L 197.09814 188.630495 
L 197.09814 187.870099 
L 197.351105 187.870099 
L 197.351105 187.109703 
L 197.590973 187.109703 
L 197.611802 184.828515 
L 197.743994 184.828515 
L 197.743994 184.068119 
L 198.010812 184.068119 
L 198.010812 183.307723 
L 198.362712 183.307723 
L 198.362712 182.547327 
L 198.477364 182.547327 
L 198.499542 181.026535 
L 198.78699 181.026535 
L 198.78699 180.266139 
L 198.970484 180.266139 
L 198.970484 179.505743 
L 199.083714 179.505743 
L 199.083714 178.745347 
L 199.230048 178.745347 
L 199.258344 177.224554 
L 199.355547 177.224554 
L 199.388164 175.703762 
L 199.519721 175.703762 
L 199.519721 174.943366 
L 199.643829 174.943366 
L 199.692073 171.901782 
L 199.827846 171.901782 
L 199.897785 170.38099 
L 200.00453 170.38099 
L 200.10093 168.860198 
L 200.122512 168.860198 
L 200.122512 168.099802 
L 200.37191 168.099802 
L 200.37191 167.339406 
L 200.723238 167.339406 
L 200.815141 165.818614 
L 201.018184 165.818614 
L 201.127145 164.297822 
L 201.2099 164.297822 
L 201.2099 163.537426 
L 201.350711 163.537426 
L 201.350711 162.77703 
L 202.036973 162.77703 
L 202.122859 160.495842 
L 202.641048 160.495842 
L 202.641048 159.735446 
L 202.794256 159.735446 
L 202.794256 158.97505 
L 203.059716 158.97505 
L 203.059716 158.214653 
L 203.391452 158.214653 
L 203.480082 156.693861 
L 203.854808 156.693861 
L 203.897362 155.173069 
L 203.979634 155.173069 
L 203.979634 154.412673 
L 204.324561 154.412673 
L 204.324561 153.652277 
L 204.648025 153.652277 
L 204.74705 151.371089 
L 204.940385 151.371089 
L 204.940595 149.850297 
L 205.299817 149.850297 
L 205.383026 148.329505 
L 205.750171 148.329505 
L 205.823612 146.808713 
L 206.000371 146.808713 
L 206.098691 145.287921 
L 207.007133 145.287921 
L 207.007133 144.527525 
L 207.80827 144.527525 
L 207.80827 143.767129 
L 208.168981 143.767129 
L 208.213446 142.246337 
L 208.630687 142.246337 
L 208.630687 141.485941 
L 208.859584 141.485941 
L 208.959129 139.965149 
L 209.177359 139.965149 
L 209.248759 138.444356 
L 209.439159 138.444356 
L 209.4501 136.163168 
L 209.648335 136.163168 
L 209.728534 133.88198 
L 210.109693 133.88198 
L 210.109693 133.121584 
L 210.231867 133.121584 
L 210.338741 130.840396 
L 210.374706 130.840396 
L 210.431334 129.319604 
L 210.585768 129.319604 
L 210.666709 127.798812 
L 210.754165 127.798812 
L 210.766322 125.517624 
L 211.028196 125.517624 
L 211.028196 124.757228 
L 211.180705 124.757228 
L 211.226994 123.236436 
L 211.387305 123.236436 
L 211.39496 121.715644 
L 211.552908 121.715644 
L 211.552908 120.955248 
L 211.718728 120.955248 
L 211.718728 120.194851 
L 211.850914 120.194851 
L 211.864711 118.674059 
L 212.045151 118.674059 
L 212.134318 116.392871 
L 212.160223 116.392871 
L 212.24854 114.111683 
L 212.373802 114.111683 
L 212.373802 113.351287 
L 212.493699 113.351287 
L 212.594617 110.309703 
L 212.624568 110.309703 
L 212.683035 107.268119 
L 212.808916 107.268119 
L 212.903734 104.986931 
L 212.962173 104.986931 
L 212.971918 103.466139 
L 213.089075 103.466139 
L 213.092449 101.945347 
L 213.629934 101.945347 
L 213.629934 101.18495 
L 213.759291 101.18495 
L 213.759291 100.424554 
L 213.912651 100.424554 
L 213.912651 99.664158 
L 214.163383 99.664158 
L 214.163383 98.903762 
L 214.379127 98.903762 
L 214.420323 97.38297 
L 214.681063 97.38297 
L 214.681063 96.622574 
L 214.80468 96.622574 
L 214.828373 94.341386 
L 214.962875 94.341386 
L 215.047165 92.060198 
L 216.597654 92.060198 
L 216.597654 91.299802 
L 217.424351 91.299802 
L 217.430936 89.77901 
L 217.596407 89.77901 
L 217.694208 87.497822 
L 217.895139 87.497822 
L 217.895139 86.737426 
L 218.121091 86.737426 
L 218.121091 85.97703 
L 220.638119 85.97703 
L 220.638119 85.216634 
L 220.997221 85.216634 
L 220.997221 84.456238 
L 221.334875 84.456238 
L 221.334875 83.695842 
L 221.896542 83.695842 
L 221.896542 82.935446 
L 222.180321 82.935446 
L 222.180321 82.17505 
L 222.697045 82.17505 
L 222.697045 81.414653 
L 223.23638 81.414653 
L 223.23638 80.654257 
L 223.682039 80.654257 
L 223.68564 79.133465 
L 224.084156 79.133465 
L 224.148555 77.612673 
L 224.245794 77.612673 
L 224.245794 76.852277 
L 224.519467 76.852277 
L 224.56121 75.331485 
L 224.708223 75.331485 
L 224.746037 73.810693 
L 225.772999 73.810693 
L 225.772999 73.050297 
L 226.781414 73.050297 
L 226.87883 71.529505 
L 226.930324 71.529505 
L 226.930324 70.769109 
L 227.327485 70.769109 
L 227.327485 70.008713 
L 227.931715 70.008713 
L 228.030245 68.487921 
L 228.184037 68.487921 
L 228.184037 67.727525 
L 228.360018 67.727525 
L 228.413722 66.206733 
L 228.572089 66.206733 
L 228.572089 65.446337 
L 229.274717 65.446337 
L 229.365093 63.925545 
L 229.539704 63.925545 
L 229.539704 63.165149 
L 230.355078 63.165149 
L 230.355078 62.404752 
L 230.704932 62.404752 
L 230.704932 61.644356 
L 230.9495 61.644356 
L 230.9495 60.88396 
L 231.356909 60.88396 
L 231.356909 60.123564 
L 231.524518 60.123564 
L 231.524518 59.363168 
L 231.712635 59.363168 
L 231.712635 58.602772 
L 232.290093 58.602772 
L 232.290093 57.842376 
L 232.541308 57.842376 
L 232.541308 57.08198 
L 233.159767 57.08198 
L 233.162995 55.561188 
L 233.518213 55.561188 
L 233.518213 54.800792 
L 233.706329 54.800792 
L 233.706329 54.040396 
L 233.82599 54.040396 
L 233.914934 52.519604 
L 234.453239 52.519604 
L 234.453239 51.759208 
L 234.809414 51.759208 
L 234.809414 50.998812 
L 236.02522 50.998812 
L 236.02522 50.238416 
L 236.699381 50.238416 
L 236.699381 49.47802 
L 240.492908 49.47802 
L 240.492908 48.717624 
L 240.647916 48.717624 
L 240.710543 47.196832 
L 241.330573 47.196832 
L 241.380522 45.67604 
L 242.681494 45.67604 
L 242.681494 44.915644 
L 250.081958 44.915644 
L 250.081958 44.155248 
L 250.24485 44.155248 
L 250.24485 43.394851 
L 251.84528 43.394851 
L 251.84528 42.634455 
L 252.966755 42.634455 
L 252.966755 41.874059 
L 256.356529 41.874059 
L 256.356529 41.113663 
L 256.609589 41.113663 
L 256.609589 40.353267 
L 258.095939 40.353267 
L 258.095939 39.592871 
L 259.109396 39.592871 
L 259.109396 38.832475 
L 259.388407 38.832475 
L 259.388407 38.072079 
L 259.749274 38.072079 
L 259.838772 36.551287 
L 262.418983 36.551287 
L 262.460314 34.270099 
L 264.510057 34.270099 
L 264.55486 32.749307 
L 266.476031 32.749307 
L 266.476031 31.988911 
L 266.768767 31.988911 
L 266.768767 31.228515 
L 267.37944 31.228515 
L 267.37944 30.468119 
L 268.087596 30.468119 
L 268.087596 29.707723 
L 268.22231 29.707723 
L 268.22231 28.947327 
L 269.17091 28.947327 
L 269.17091 28.186931 
L 271.234744 28.186931 
L 271.257472 26.666139 
L 271.366433 26.666139 
L 271.366433 25.905743 
L 271.610298 25.905743 
L 271.610298 25.145347 
L 271.982958 25.145347 
L 271.982958 24.38495 
L 272.335215 24.38495 
L 272.335215 23.624554 
L 274.278876 23.624554 
L 274.278876 22.864158 
L 275.655571 22.864158 
L 275.655571 22.103762 
L 278.065092 22.103762 
L 278.065092 21.343366 
L 299.018876 21.343366 
L 299.018876 20.58297 
L 303.230302 20.58297 
L 303.230302 19.822574 
L 303.70298 19.822574 
L 303.70298 19.062178 
L 306.979907 19.062178 
L 306.979907 18.301782 
L 308.315274 18.301782 
L 308.315274 17.541386 
L 308.987049 17.541386 
L 308.987049 16.78099 
L 309.220877 16.78099 
L 309.220877 16.020594 
L 311.570677 16.020594 
L 311.570677 15.260198 
L 311.961286 15.260198 
L 311.961286 14.499802 
L 312.574155 14.499802 
L 312.574155 13.739406 
L 314.947407 13.739406 
L 314.947407 12.97901 
L 315.207277 12.97901 
L 315.207277 12.218614 
L 315.703373 12.218614 
L 315.703373 11.458218 
L 316.836637 11.458218 
L 316.836637 10.697822 
L 319.525566 10.697822 
L 319.525566 9.937426 
L 319.525566 9.937426 
L 364.32 9.937426 
L 364.32 9.937426 
" style="fill:none;stroke:#ff0000;stroke-linecap:square;stroke-width:3.0;"/>
   </g>
   <g id="line2d_2">
    <path clip-path="url(#p8ddc9dab80)" d="M 188.980005 283.68 
L 188.980005 282.919604 
L 190.925163 282.919604 
L 190.925163 282.159208 
L 192.904466 282.159208 
L 192.946442 279.87802 
L 194.379712 279.87802 
L 194.382874 278.357228 
L 195.497417 278.357228 
L 195.497417 277.596832 
L 195.665255 277.596832 
L 195.665255 276.836436 
L 195.972161 276.836436 
L 195.978933 275.315644 
L 196.156648 275.315644 
L 196.156648 274.555248 
L 196.796216 274.555248 
L 196.796216 273.794851 
L 197.659542 273.794851 
L 197.659542 273.034455 
L 198.483481 273.034455 
L 198.483481 272.274059 
L 198.621496 272.274059 
L 198.621496 271.513663 
L 198.740311 271.513663 
L 198.740311 270.753267 
L 199.33436 270.753267 
L 199.339564 269.232475 
L 199.496832 269.232475 
L 199.584025 266.951287 
L 199.673279 266.951287 
L 199.673279 266.190891 
L 200.0618 266.190891 
L 200.0618 265.430495 
L 200.893036 265.430495 
L 200.943115 263.149307 
L 201.233681 263.149307 
L 201.233681 262.388911 
L 201.404094 262.388911 
L 201.404094 261.628515 
L 201.526443 261.628515 
L 201.526443 260.868119 
L 201.649453 260.868119 
L 201.649453 260.107723 
L 201.782215 260.107723 
L 201.782215 259.347327 
L 202.149138 259.347327 
L 202.149138 258.586931 
L 202.260354 258.586931 
L 202.260354 257.826535 
L 202.427445 257.826535 
L 202.427445 257.066139 
L 202.875083 257.066139 
L 202.875083 256.305743 
L 203.439039 256.305743 
L 203.439039 255.545347 
L 204.139714 255.545347 
L 204.139714 254.78495 
L 204.323432 254.78495 
L 204.396771 253.264158 
L 204.547636 253.264158 
L 204.547636 252.503762 
L 204.818609 252.503762 
L 204.818609 251.743366 
L 205.12775 251.743366 
L 205.224194 250.222574 
L 205.663792 250.222574 
L 205.663792 249.462178 
L 205.885457 249.462178 
L 205.912694 247.941386 
L 206.176769 247.941386 
L 206.25472 246.420594 
L 206.532367 246.420594 
L 206.553128 244.899802 
L 206.738808 244.899802 
L 206.738808 244.139406 
L 206.86918 244.139406 
L 206.880543 242.618614 
L 207.029015 242.618614 
L 207.029015 241.858218 
L 207.174424 241.858218 
L 207.174424 241.097822 
L 207.306165 241.097822 
L 207.306165 240.337426 
L 207.459393 240.337426 
L 207.459393 239.57703 
L 207.611889 239.57703 
L 207.660612 238.056238 
L 207.836524 238.056238 
L 207.940371 236.535446 
L 208.242238 236.535446 
L 208.242238 235.77505 
L 208.4153 235.77505 
L 208.4153 235.014653 
L 208.700129 235.014653 
L 208.773365 232.733465 
L 208.949704 232.733465 
L 208.985468 230.452277 
L 209.195745 230.452277 
L 209.195745 229.691881 
L 209.502889 229.691881 
L 209.527914 228.171089 
L 209.74277 228.171089 
L 209.837871 226.650297 
L 209.899146 226.650297 
L 209.899146 225.889901 
L 210.343735 225.889901 
L 210.343735 225.129505 
L 210.51089 225.129505 
L 210.520045 223.608713 
L 210.658719 223.608713 
L 210.658997 222.087921 
L 210.924626 222.087921 
L 210.995669 220.567129 
L 211.097681 220.567129 
L 211.097681 219.806733 
L 211.283875 219.806733 
L 211.332729 217.525545 
L 211.476794 217.525545 
L 211.527215 215.244356 
L 211.819842 215.244356 
L 211.819842 214.48396 
L 211.982884 214.48396 
L 212.056226 212.963168 
L 212.133427 212.963168 
L 212.133427 212.202772 
L 212.47772 212.202772 
L 212.500006 210.68198 
L 212.650379 210.68198 
L 212.650379 209.921584 
L 212.971675 209.921584 
L 213.069822 207.640396 
L 213.255996 207.640396 
L 213.255996 206.88 
L 213.413325 206.88 
L 213.413325 206.119604 
L 213.590746 206.119604 
L 213.676742 203.07802 
L 213.900846 203.07802 
L 213.988373 200.796832 
L 214.06766 200.796832 
L 214.089831 198.515644 
L 214.454252 198.515644 
L 214.550338 195.474059 
L 214.671972 195.474059 
L 214.671972 194.713663 
L 214.823442 194.713663 
L 214.871577 193.192871 
L 214.992977 193.192871 
L 215.066613 190.151287 
L 215.150584 190.151287 
L 215.239728 188.630495 
L 215.384516 188.630495 
L 215.434671 186.349307 
L 215.52275 186.349307 
L 215.62231 184.068119 
L 215.755072 184.068119 
L 215.755072 183.307723 
L 215.957666 183.307723 
L 215.957666 182.547327 
L 216.111685 182.547327 
L 216.179989 179.505743 
L 216.233239 179.505743 
L 216.233239 178.745347 
L 216.597279 178.745347 
L 216.597279 177.98495 
L 216.721479 177.98495 
L 216.797231 175.703762 
L 217.079288 175.703762 
L 217.113748 174.18297 
L 217.263783 174.18297 
L 217.365834 171.901782 
L 217.409267 171.901782 
L 217.409267 171.141386 
L 217.581195 171.141386 
L 217.581195 170.38099 
L 217.731634 170.38099 
L 217.838952 166.57901 
L 217.90294 166.57901 
L 217.923364 165.058218 
L 218.328271 165.058218 
L 218.328271 164.297822 
L 218.89093 164.297822 
L 218.89093 163.537426 
L 219.059271 163.537426 
L 219.059271 162.77703 
L 219.221191 162.77703 
L 219.221191 162.016634 
L 219.421805 162.016634 
L 219.507115 160.495842 
L 219.687743 160.495842 
L 219.773413 158.214653 
L 220.016299 158.214653 
L 220.089912 156.693861 
L 220.326858 156.693861 
L 220.404368 155.173069 
L 220.572001 155.173069 
L 220.593086 153.652277 
L 220.731584 153.652277 
L 220.731584 152.891881 
L 221.077312 152.891881 
L 221.164213 150.610693 
L 222.156086 150.610693 
L 222.238362 149.089901 
L 222.291423 149.089901 
L 222.291423 148.329505 
L 222.950878 148.329505 
L 223.025482 146.048317 
L 223.400861 146.048317 
L 223.400861 145.287921 
L 223.766784 145.287921 
L 223.766784 144.527525 
L 224.101585 144.527525 
L 224.101585 143.767129 
L 224.225206 143.767129 
L 224.324589 141.485941 
L 225.416691 141.485941 
L 225.505939 139.204752 
L 225.597233 139.204752 
L 225.654415 137.68396 
L 226.092664 137.68396 
L 226.092664 136.923564 
L 226.423151 136.923564 
L 226.423151 136.163168 
L 226.704227 136.163168 
L 226.725193 134.642376 
L 227.543809 134.642376 
L 227.600874 132.361188 
L 227.781082 132.361188 
L 227.781082 131.600792 
L 228.035235 131.600792 
L 228.0478 130.08 
L 228.279429 130.08 
L 228.279429 129.319604 
L 228.594659 129.319604 
L 228.594659 128.559208 
L 229.627428 128.559208 
L 229.627428 127.798812 
L 230.167717 127.798812 
L 230.241154 126.27802 
L 230.388314 126.27802 
L 230.388314 125.517624 
L 231.291376 125.517624 
L 231.382076 123.996832 
L 231.546092 123.996832 
L 231.583862 122.47604 
L 231.872563 122.47604 
L 231.872563 121.715644 
L 232.503914 121.715644 
L 232.503914 120.955248 
L 233.140117 120.955248 
L 233.184175 119.434455 
L 234.189551 119.434455 
L 234.203172 117.913663 
L 234.55071 117.913663 
L 234.55071 117.153267 
L 235.198225 117.153267 
L 235.293301 115.632475 
L 235.449985 115.632475 
L 235.449985 114.872079 
L 235.86885 114.872079 
L 235.86885 114.111683 
L 236.352969 114.111683 
L 236.352969 113.351287 
L 237.512552 113.351287 
L 237.512552 112.590891 
L 237.634822 112.590891 
L 237.634822 111.830495 
L 238.006831 111.830495 
L 238.022455 110.309703 
L 238.629586 110.309703 
L 238.687912 108.788911 
L 238.801056 108.788911 
L 238.801056 108.028515 
L 239.015526 108.028515 
L 239.015526 107.268119 
L 239.277897 107.268119 
L 239.353955 104.986931 
L 239.962822 104.986931 
L 239.962822 104.226535 
L 240.090923 104.226535 
L 240.16343 102.705743 
L 241.735125 102.705743 
L 241.735125 101.945347 
L 242.167976 101.945347 
L 242.167976 101.18495 
L 242.623509 101.18495 
L 242.623509 100.424554 
L 243.24086 100.424554 
L 243.24086 99.664158 
L 243.479185 99.664158 
L 243.479185 98.903762 
L 243.70849 98.903762 
L 243.70849 98.143366 
L 247.755183 98.143366 
L 247.857092 96.622574 
L 248.776824 96.622574 
L 248.776824 95.862178 
L 250.225886 95.862178 
L 250.227901 94.341386 
L 251.68577 94.341386 
L 251.68577 93.58099 
L 254.161046 93.58099 
L 254.161046 92.820594 
L 256.333747 92.820594 
L 256.360488 91.299802 
L 257.283167 91.299802 
L 257.283167 90.539406 
L 258.415988 90.539406 
L 258.415988 89.77901 
L 259.056666 89.77901 
L 259.056666 89.018614 
L 259.732682 89.018614 
L 259.791888 87.497822 
L 260.479575 87.497822 
L 260.479575 86.737426 
L 261.79627 86.737426 
L 261.79627 85.97703 
L 262.623401 85.97703 
L 262.623401 85.216634 
L 263.409647 85.216634 
L 263.409647 84.456238 
L 263.535823 84.456238 
L 263.535823 83.695842 
L 264.046225 83.695842 
L 264.046225 82.935446 
L 264.991847 82.935446 
L 264.991847 82.17505 
L 265.188858 82.17505 
L 265.188858 81.414653 
L 265.316081 81.414653 
L 265.316081 80.654257 
L 266.178159 80.654257 
L 266.178159 79.893861 
L 266.474448 79.893861 
L 266.474448 79.133465 
L 266.894198 79.133465 
L 266.894198 78.373069 
L 267.102353 78.373069 
L 267.102353 77.612673 
L 267.491936 77.612673 
L 267.491936 76.852277 
L 267.693622 76.852277 
L 267.693622 76.091881 
L 267.933706 76.091881 
L 267.933706 75.331485 
L 268.151158 75.331485 
L 268.151158 74.571089 
L 268.750543 74.571089 
L 268.750543 73.810693 
L 269.102305 73.810693 
L 269.102305 73.050297 
L 269.602608 73.050297 
L 269.602608 72.289901 
L 270.326143 72.289901 
L 270.326143 71.529505 
L 270.516184 71.529505 
L 270.516184 70.769109 
L 272.268534 70.769109 
L 272.268534 70.008713 
L 272.666004 70.008713 
L 272.666004 69.248317 
L 272.800734 69.248317 
L 272.800734 68.487921 
L 274.024535 68.487921 
L 274.024535 67.727525 
L 275.927796 67.727525 
L 276.019961 66.206733 
L 276.086961 66.206733 
L 276.086961 65.446337 
L 276.433027 65.446337 
L 276.507838 63.925545 
L 277.606519 63.925545 
L 277.606519 63.165149 
L 278.441037 63.165149 
L 278.441037 62.404752 
L 281.020559 62.404752 
L 281.020559 61.644356 
L 281.690412 61.644356 
L 281.690412 60.88396 
L 283.086299 60.88396 
L 283.086299 60.123564 
L 284.422786 60.123564 
L 284.422786 59.363168 
L 286.135841 59.363168 
L 286.135841 58.602772 
L 288.555042 58.602772 
L 288.555042 57.842376 
L 289.097934 57.842376 
L 289.097934 57.08198 
L 289.398059 57.08198 
L 289.398059 56.321584 
L 290.039928 56.321584 
L 290.039928 55.561188 
L 290.537605 55.561188 
L 290.578382 54.040396 
L 290.931533 54.040396 
L 290.931533 53.28 
L 291.96707 53.28 
L 291.96707 52.519604 
L 292.42847 52.519604 
L 292.464298 50.998812 
L 293.629059 50.998812 
L 293.629059 50.238416 
L 294.645667 50.238416 
L 294.744456 48.717624 
L 295.630547 48.717624 
L 295.630547 47.957228 
L 296.046265 47.957228 
L 296.046265 47.196832 
L 296.396194 47.196832 
L 296.396194 46.436436 
L 298.38465 46.436436 
L 298.38465 45.67604 
L 298.746785 45.67604 
L 298.746785 44.915644 
L 299.671471 44.915644 
L 299.745875 43.394851 
L 304.481019 43.394851 
L 304.481019 42.634455 
L 307.604708 42.634455 
L 307.604708 41.874059 
L 307.957728 41.874059 
L 308.018202 40.353267 
L 308.274668 40.353267 
L 308.274668 39.592871 
L 308.386361 39.592871 
L 308.386361 38.832475 
L 310.041434 38.832475 
L 310.041434 38.072079 
L 311.205928 38.072079 
L 311.205928 37.311683 
L 311.816002 37.311683 
L 311.816002 36.551287 
L 312.430348 36.551287 
L 312.430348 35.790891 
L 312.870517 35.790891 
L 312.870517 35.030495 
L 313.159668 35.030495 
L 313.159668 34.270099 
L 314.232886 34.270099 
L 314.274665 32.749307 
L 318.171868 32.749307 
L 318.171868 31.988911 
L 319.041729 31.988911 
L 319.041729 31.228515 
L 319.742616 31.228515 
L 319.742616 30.468119 
L 320.032427 30.468119 
L 320.060446 28.947327 
L 321.683168 28.947327 
L 321.683168 28.186931 
L 322.495449 28.186931 
L 322.495449 27.426535 
L 324.407214 27.426535 
L 324.468665 25.905743 
L 324.804655 25.905743 
L 324.816188 24.38495 
L 326.702716 24.38495 
L 326.739512 22.864158 
L 327.308804 22.864158 
L 327.404878 21.343366 
L 327.966473 21.343366 
L 327.966473 20.58297 
L 330.605186 20.58297 
L 330.605186 19.822574 
L 331.666263 19.822574 
L 331.666263 19.062178 
L 332.427323 19.062178 
L 332.427323 18.301782 
L 335.707493 18.301782 
L 335.707493 17.541386 
L 337.393991 17.541386 
L 337.437574 16.020594 
L 337.544226 16.020594 
L 337.544226 15.260198 
L 339.664736 15.260198 
L 339.664736 14.499802 
L 340.986197 14.499802 
L 340.986197 13.739406 
L 342.79142 13.739406 
L 342.79142 12.97901 
L 343.542125 12.97901 
L 343.542125 12.218614 
L 345.117328 12.218614 
L 345.117328 11.458218 
L 345.905503 11.458218 
L 345.905503 10.697822 
L 346.166961 10.697822 
L 346.166961 9.937426 
L 346.166961 9.937426 
L 364.32 9.937426 
L 364.32 9.937426 
" style="fill:none;stroke:#00bfbf;stroke-linecap:square;"/>
   </g>
   <g id="line2d_3">
    <path clip-path="url(#p8ddc9dab80)" d="M 180.261943 283.68 
L 180.261943 282.919604 
L 185.60657 282.919604 
L 185.60657 282.159208 
L 185.887775 282.159208 
L 185.887775 281.398812 
L 187.235549 281.398812 
L 187.235549 280.638416 
L 187.998286 280.638416 
L 187.998286 279.87802 
L 188.980005 279.87802 
L 188.980005 279.117624 
L 190.537112 279.117624 
L 190.537112 278.357228 
L 190.758259 278.357228 
L 190.758259 277.596832 
L 191.069429 277.596832 
L 191.069429 276.836436 
L 192.136608 276.836436 
L 192.202648 275.315644 
L 192.644637 275.315644 
L 192.644637 274.555248 
L 192.904466 274.555248 
L 192.946442 272.274059 
L 193.536316 272.274059 
L 193.536316 271.513663 
L 193.789896 271.513663 
L 193.856237 269.992871 
L 194.058301 269.992871 
L 194.058301 269.232475 
L 194.379712 269.232475 
L 194.421946 266.951287 
L 194.672782 266.951287 
L 194.672782 266.190891 
L 195.047552 266.190891 
L 195.047552 265.430495 
L 195.568723 265.430495 
L 195.665255 263.909703 
L 195.832273 263.909703 
L 195.832273 263.149307 
L 195.972161 263.149307 
L 196.07585 260.107723 
L 196.156648 260.107723 
L 196.156648 259.347327 
L 197.399194 259.347327 
L 197.501941 257.826535 
L 197.62825 257.826535 
L 197.662922 255.545347 
L 198.323652 255.545347 
L 198.323652 254.78495 
L 198.483481 254.78495 
L 198.483481 254.024554 
L 198.621496 254.024554 
L 198.659668 251.743366 
L 198.806182 251.743366 
L 198.806182 250.98297 
L 199.245389 250.98297 
L 199.339564 248.701782 
L 199.404607 248.701782 
L 199.500552 246.420594 
L 199.561386 246.420594 
L 199.561386 245.660198 
L 199.86346 245.660198 
L 199.912064 244.139406 
L 200.336255 244.139406 
L 200.386711 242.618614 
L 200.459083 242.618614 
L 200.459083 241.858218 
L 200.819011 241.858218 
L 200.893036 240.337426 
L 200.943115 240.337426 
L 201.050592 238.816634 
L 201.092124 238.816634 
L 201.092124 238.056238 
L 201.223353 238.056238 
L 201.262319 236.535446 
L 201.35847 236.535446 
L 201.404094 235.014653 
L 201.614876 235.014653 
L 201.672239 233.493861 
L 202.30139 233.493861 
L 202.30139 232.733465 
L 202.427445 232.733465 
L 202.427445 231.973069 
L 202.856774 231.973069 
L 202.856774 231.212673 
L 203.080867 231.212673 
L 203.080867 230.452277 
L 203.868379 230.452277 
L 203.868379 229.691881 
L 204.139714 229.691881 
L 204.139714 228.931485 
L 204.307705 228.931485 
L 204.307705 228.171089 
L 204.562239 228.171089 
L 204.562239 227.410693 
L 204.818609 227.410693 
L 204.84629 225.889901 
L 205.16851 225.889901 
L 205.16851 225.129505 
L 205.663792 225.129505 
L 205.687669 223.608713 
L 205.798253 223.608713 
L 205.798253 222.848317 
L 206.25472 222.848317 
L 206.25472 222.087921 
L 206.425642 222.087921 
L 206.532367 220.567129 
L 206.715157 220.567129 
L 206.715157 219.806733 
L 206.86918 219.806733 
L 206.91667 217.525545 
L 207.023608 217.525545 
L 207.029015 216.004752 
L 207.174424 216.004752 
L 207.174424 215.244356 
L 207.318249 215.244356 
L 207.318249 214.48396 
L 207.459393 214.48396 
L 207.459393 213.723564 
L 207.660612 213.723564 
L 207.660612 212.963168 
L 207.940371 212.963168 
L 207.940371 212.202772 
L 208.242238 212.202772 
L 208.328328 210.68198 
L 208.4153 210.68198 
L 208.4153 209.921584 
L 208.534022 209.921584 
L 208.56865 208.400792 
L 208.759523 208.400792 
L 208.78783 206.119604 
L 208.963351 206.119604 
L 209.027103 203.838416 
L 209.195745 203.838416 
L 209.195745 203.07802 
L 209.540186 203.07802 
L 209.540186 202.317624 
L 209.704468 202.317624 
L 209.814242 200.036436 
L 210.017796 200.036436 
L 210.017796 199.27604 
L 210.168002 199.27604 
L 210.21404 197.755248 
L 210.52755 197.755248 
L 210.585769 196.234455 
L 210.905353 196.234455 
L 211.000661 193.192871 
L 211.048347 193.192871 
L 211.137324 190.151287 
L 211.283875 190.151287 
L 211.328945 188.630495 
L 211.476794 188.630495 
L 211.479597 187.109703 
L 211.612713 187.109703 
L 211.719043 185.588911 
L 211.822644 185.588911 
L 211.822644 184.828515 
L 211.991998 184.828515 
L 212.074895 182.547327 
L 212.122116 182.547327 
L 212.122116 181.786931 
L 212.321036 181.786931 
L 212.3585 180.266139 
L 212.47772 180.266139 
L 212.500006 178.745347 
L 212.677563 178.745347 
L 212.755567 177.224554 
L 212.971675 177.224554 
L 213.023878 175.703762 
L 213.092449 175.703762 
L 213.092449 174.943366 
L 213.268398 174.943366 
L 213.352113 173.422574 
L 213.413325 173.422574 
L 213.413325 172.662178 
L 213.540712 172.662178 
L 213.590746 171.141386 
L 213.822752 171.141386 
L 213.907009 169.620594 
L 213.985746 169.620594 
L 214.089831 168.099802 
L 214.200182 168.099802 
L 214.283601 166.57901 
L 214.575989 166.57901 
L 214.575989 165.818614 
L 214.741009 165.818614 
L 214.741009 165.058218 
L 214.865128 165.058218 
L 214.871577 163.537426 
L 215.0059 163.537426 
L 215.025373 162.016634 
L 215.384516 162.016634 
L 215.384516 161.256238 
L 215.499227 161.256238 
L 215.499227 160.495842 
L 215.660891 160.495842 
L 215.755072 158.97505 
L 216.111685 158.97505 
L 216.142291 156.693861 
L 216.227423 156.693861 
L 216.245692 154.412673 
L 216.34678 154.412673 
L 216.34678 153.652277 
L 217.042906 153.652277 
L 217.113748 152.131485 
L 217.178825 152.131485 
L 217.263783 149.850297 
L 217.300672 149.850297 
L 217.350675 148.329505 
L 217.512777 148.329505 
L 217.512777 147.569109 
L 217.90294 147.569109 
L 217.938358 146.048317 
L 218.022281 146.048317 
L 218.022281 145.287921 
L 218.325178 145.287921 
L 218.325178 144.527525 
L 218.710557 144.527525 
L 218.710557 143.767129 
L 218.865406 143.767129 
L 218.865406 143.006733 
L 219.221191 143.006733 
L 219.221191 142.246337 
L 219.379359 142.246337 
L 219.379359 141.485941 
L 220.022758 141.485941 
L 220.122191 138.444356 
L 220.326858 138.444356 
L 220.326858 137.68396 
L 220.572001 137.68396 
L 220.572001 136.923564 
L 220.825228 136.923564 
L 220.825228 136.163168 
L 220.974465 136.163168 
L 221.039642 134.642376 
L 221.164213 134.642376 
L 221.164213 133.88198 
L 221.587071 133.88198 
L 221.587071 133.121584 
L 222.156086 133.121584 
L 222.156086 132.361188 
L 222.556086 132.361188 
L 222.556086 131.600792 
L 223.025482 131.600792 
L 223.05708 130.08 
L 223.400861 130.08 
L 223.409503 128.559208 
L 223.619971 128.559208 
L 223.619971 127.798812 
L 224.00601 127.798812 
L 224.00601 127.038416 
L 224.306084 127.038416 
L 224.410871 124.757228 
L 225.287237 124.757228 
L 225.287237 123.996832 
L 225.654415 123.996832 
L 225.654415 123.236436 
L 226.029372 123.236436 
L 226.029372 122.47604 
L 227.026582 122.47604 
L 227.026582 121.715644 
L 227.533672 121.715644 
L 227.600874 120.194851 
L 227.801668 120.194851 
L 227.801668 119.434455 
L 228.274951 119.434455 
L 228.274951 118.674059 
L 228.539797 118.674059 
L 228.632638 117.153267 
L 228.881171 117.153267 
L 228.881171 116.392871 
L 229.350414 116.392871 
L 229.350414 115.632475 
L 229.79429 115.632475 
L 229.79429 114.872079 
L 230.388314 114.872079 
L 230.388314 114.111683 
L 230.969163 114.111683 
L 230.969163 113.351287 
L 231.204937 113.351287 
L 231.204937 112.590891 
L 231.583862 112.590891 
L 231.583862 111.830495 
L 232.086703 111.830495 
L 232.086703 111.070099 
L 232.596738 111.070099 
L 232.596738 110.309703 
L 232.972695 110.309703 
L 232.972695 109.549307 
L 234.568085 109.549307 
L 234.568085 108.788911 
L 235.062327 108.788911 
L 235.062327 108.028515 
L 235.269167 108.028515 
L 235.269167 107.268119 
L 235.449985 107.268119 
L 235.449985 106.507723 
L 235.86885 106.507723 
L 235.86885 105.747327 
L 235.981949 105.747327 
L 235.981949 104.986931 
L 236.793094 104.986931 
L 236.793094 104.226535 
L 237.22891 104.226535 
L 237.22891 103.466139 
L 237.56503 103.466139 
L 237.56503 102.705743 
L 238.022455 102.705743 
L 238.022455 101.945347 
L 238.266067 101.945347 
L 238.266067 101.18495 
L 238.60064 101.18495 
L 238.60064 100.424554 
L 238.801056 100.424554 
L 238.801056 99.664158 
L 239.015526 99.664158 
L 239.015526 98.903762 
L 239.341489 98.903762 
L 239.341489 98.143366 
L 239.797809 98.143366 
L 239.797809 97.38297 
L 240.875272 97.38297 
L 240.875272 96.622574 
L 241.735125 96.622574 
L 241.735125 95.862178 
L 243.401254 95.862178 
L 243.401254 95.101782 
L 243.70849 95.101782 
L 243.70849 94.341386 
L 244.935776 94.341386 
L 244.99824 92.820594 
L 247.755183 92.820594 
L 247.755183 92.060198 
L 248.491433 92.060198 
L 248.491433 91.299802 
L 248.776824 91.299802 
L 248.776824 90.539406 
L 248.908338 90.539406 
L 248.908338 89.77901 
L 250.227901 89.77901 
L 250.318985 88.258218 
L 250.589685 88.258218 
L 250.589685 87.497822 
L 251.020092 87.497822 
L 251.020092 86.737426 
L 251.189615 86.737426 
L 251.189615 85.97703 
L 251.68577 85.97703 
L 251.68577 85.216634 
L 254.161046 85.216634 
L 254.161046 84.456238 
L 254.706871 84.456238 
L 254.706871 83.695842 
L 256.360488 83.695842 
L 256.360488 82.935446 
L 256.58032 82.935446 
L 256.58032 82.17505 
L 256.811669 82.17505 
L 256.811669 81.414653 
L 257.283167 81.414653 
L 257.283167 80.654257 
L 258.147646 80.654257 
L 258.147646 79.893861 
L 258.990419 79.893861 
L 259.056666 78.373069 
L 259.363849 78.373069 
L 259.363849 77.612673 
L 259.732682 77.612673 
L 259.791888 76.091881 
L 260.214116 76.091881 
L 260.214116 75.331485 
L 260.408991 75.331485 
L 260.408991 74.571089 
L 261.360551 74.571089 
L 261.447173 73.050297 
L 261.79627 73.050297 
L 261.79627 72.289901 
L 262.200676 72.289901 
L 262.200676 71.529505 
L 263.409647 71.529505 
L 263.409647 70.769109 
L 263.880118 70.769109 
L 263.880118 70.008713 
L 264.845771 70.008713 
L 264.845771 69.248317 
L 265.316081 69.248317 
L 265.316081 68.487921 
L 266.894198 68.487921 
L 266.894198 67.727525 
L 267.062142 67.727525 
L 267.062142 66.967129 
L 267.37235 66.967129 
L 267.37235 66.206733 
L 267.491936 66.206733 
L 267.491936 65.446337 
L 267.692702 65.446337 
L 267.692702 64.685941 
L 268.151158 64.685941 
L 268.151158 63.925545 
L 268.880582 63.925545 
L 268.880582 63.165149 
L 271.976422 63.165149 
L 271.976422 62.404752 
L 272.268534 62.404752 
L 272.268534 61.644356 
L 272.666004 61.644356 
L 272.666004 60.88396 
L 273.488158 60.88396 
L 273.488158 60.123564 
L 274.024535 60.123564 
L 274.024535 59.363168 
L 275.950461 59.363168 
L 275.950461 58.602772 
L 276.076823 58.602772 
L 276.076823 57.842376 
L 277.532956 57.842376 
L 277.532956 57.08198 
L 278.988289 57.08198 
L 278.988289 56.321584 
L 279.20788 56.321584 
L 279.20788 55.561188 
L 281.453519 55.561188 
L 281.453519 54.800792 
L 282.716874 54.800792 
L 282.716874 54.040396 
L 283.369279 54.040396 
L 283.369279 53.28 
L 283.80485 53.28 
L 283.813893 51.759208 
L 284.137763 51.759208 
L 284.137763 50.998812 
L 288.555042 50.998812 
L 288.555042 50.238416 
L 288.909612 50.238416 
L 288.909612 49.47802 
L 290.039928 49.47802 
L 290.039928 48.717624 
L 290.231177 48.717624 
L 290.231177 47.957228 
L 290.890339 47.957228 
L 290.890339 47.196832 
L 291.96707 47.196832 
L 291.96707 46.436436 
L 292.218869 46.436436 
L 292.218869 45.67604 
L 292.42847 45.67604 
L 292.464298 44.155248 
L 293.629059 44.155248 
L 293.629059 43.394851 
L 294.645667 43.394851 
L 294.645667 42.634455 
L 294.871318 42.634455 
L 294.871318 41.874059 
L 294.993643 41.874059 
L 294.993643 41.113663 
L 295.630547 41.113663 
L 295.630547 40.353267 
L 295.816497 40.353267 
L 295.816497 39.592871 
L 296.396194 39.592871 
L 296.396194 38.832475 
L 296.766696 38.832475 
L 296.766696 38.072079 
L 297.71373 38.072079 
L 297.71373 37.311683 
L 299.331554 37.311683 
L 299.331554 36.551287 
L 301.537047 36.551287 
L 301.537047 35.790891 
L 302.08808 35.790891 
L 302.08808 35.030495 
L 302.753091 35.030495 
L 302.753091 34.270099 
L 303.711656 34.270099 
L 303.711656 33.509703 
L 305.556854 33.509703 
L 305.556854 32.749307 
L 305.693667 32.749307 
L 305.693667 31.988911 
L 305.884789 31.988911 
L 305.884789 31.228515 
L 306.204075 31.228515 
L 306.234434 29.707723 
L 307.957728 29.707723 
L 307.974466 28.186931 
L 308.386361 28.186931 
L 308.386361 27.426535 
L 310.041434 27.426535 
L 310.041434 26.666139 
L 312.226939 26.666139 
L 312.226939 25.905743 
L 312.430348 25.905743 
L 312.430348 25.145347 
L 312.966078 25.145347 
L 312.966078 24.38495 
L 313.159668 24.38495 
L 313.159668 23.624554 
L 313.534392 23.624554 
L 313.534392 22.864158 
L 315.12959 22.864158 
L 315.12959 22.103762 
L 317.560429 22.103762 
L 317.560429 21.343366 
L 319.742616 21.343366 
L 319.742616 20.58297 
L 324.407214 20.58297 
L 324.407214 19.822574 
L 324.804655 19.822574 
L 324.804655 19.062178 
L 326.753529 19.062178 
L 326.753529 18.301782 
L 327.966473 18.301782 
L 327.966473 17.541386 
L 331.666263 17.541386 
L 331.666263 16.78099 
L 333.294414 16.78099 
L 333.294414 16.020594 
L 334.64612 16.020594 
L 334.64612 15.260198 
L 334.859382 15.260198 
L 334.859382 14.499802 
L 335.707493 14.499802 
L 335.707493 13.739406 
L 336.644394 13.739406 
L 336.644394 12.97901 
L 337.437574 12.97901 
L 337.437574 12.218614 
L 339.612422 12.218614 
L 339.612422 11.458218 
L 342.400656 11.458218 
L 342.400656 10.697822 
L 342.761283 10.697822 
L 342.761283 9.937426 
L 342.761283 9.937426 
L 364.32 9.937426 
L 364.32 9.937426 
" style="fill:none;stroke:#bf00bf;stroke-linecap:square;"/>
   </g>
   <g id="line2d_4">
    <path clip-path="url(#p8ddc9dab80)" d="M 180.261943 283.68 
L 180.261943 282.919604 
L 182.497515 282.919604 
L 182.497515 282.159208 
L 185.281974 282.159208 
L 185.281974 281.398812 
L 185.60657 281.398812 
L 185.695092 279.87802 
L 185.887775 279.87802 
L 185.887775 279.117624 
L 186.895659 279.117624 
L 186.895659 278.357228 
L 187.235549 278.357228 
L 187.235549 277.596832 
L 187.615102 277.596832 
L 187.615102 276.836436 
L 187.998286 276.836436 
L 187.998286 276.07604 
L 188.287828 276.07604 
L 188.287828 275.315644 
L 189.19113 275.315644 
L 189.19113 274.555248 
L 189.374847 274.555248 
L 189.374847 273.794851 
L 190.496878 273.794851 
L 190.537112 272.274059 
L 190.758259 272.274059 
L 190.758259 271.513663 
L 190.911069 271.513663 
L 190.981027 269.992871 
L 191.069429 269.992871 
L 191.069429 269.232475 
L 191.281069 269.232475 
L 191.281069 268.472079 
L 191.857298 268.472079 
L 191.918143 266.951287 
L 192.023559 266.951287 
L 192.023747 265.430495 
L 192.136608 265.430495 
L 192.136608 264.670099 
L 192.374828 264.670099 
L 192.374828 263.909703 
L 192.563479 263.909703 
L 192.644637 262.388911 
L 192.903761 262.388911 
L 192.931239 260.868119 
L 193.520863 260.868119 
L 193.536316 259.347327 
L 193.789896 259.347327 
L 193.789896 258.586931 
L 193.939544 258.586931 
L 193.939544 257.826535 
L 194.058301 257.826535 
L 194.058301 257.066139 
L 194.252405 257.066139 
L 194.252405 256.305743 
L 194.379712 256.305743 
L 194.421946 254.024554 
L 194.597608 254.024554 
L 194.672782 252.503762 
L 194.767208 252.503762 
L 194.767208 251.743366 
L 195.047552 251.743366 
L 195.047552 250.98297 
L 195.665255 250.98297 
L 195.665255 250.222574 
L 195.972161 250.222574 
L 196.07585 247.941386 
L 196.156648 247.941386 
L 196.248371 244.899802 
L 196.426458 244.899802 
L 196.426458 244.139406 
L 196.661821 244.139406 
L 196.661821 243.37901 
L 196.964983 243.37901 
L 197.070116 241.858218 
L 197.09164 241.858218 
L 197.09164 241.097822 
L 197.399194 241.097822 
L 197.501941 239.57703 
L 197.62825 239.57703 
L 197.662922 238.056238 
L 198.189808 238.056238 
L 198.189808 237.295842 
L 198.621496 237.295842 
L 198.72201 235.77505 
L 198.806182 235.77505 
L 198.835617 234.254257 
L 199.278521 234.254257 
L 199.339564 231.973069 
L 199.417959 231.973069 
L 199.479266 229.691881 
L 199.561386 229.691881 
L 199.561386 228.931485 
L 199.703355 228.931485 
L 199.759293 226.650297 
L 199.86346 226.650297 
L 199.916282 224.369109 
L 200.033967 224.369109 
L 200.059512 222.848317 
L 200.217183 222.848317 
L 200.217183 222.087921 
L 200.336255 222.087921 
L 200.386711 220.567129 
L 200.459083 220.567129 
L 200.459083 219.806733 
L 200.831325 219.806733 
L 200.831325 219.046337 
L 201.223353 219.046337 
L 201.223353 218.285941 
L 201.35847 218.285941 
L 201.383691 216.765149 
L 201.614876 216.765149 
L 201.672239 215.244356 
L 201.855002 215.244356 
L 201.855002 214.48396 
L 202.52224 214.48396 
L 202.52224 213.723564 
L 202.934527 213.723564 
L 202.934527 212.963168 
L 203.080867 212.963168 
L 203.080867 212.202772 
L 203.454352 212.202772 
L 203.454352 211.442376 
L 204.20201 211.442376 
L 204.20201 210.68198 
L 204.484513 210.68198 
L 204.530466 209.161188 
L 204.66389 209.161188 
L 204.66389 208.400792 
L 204.818609 208.400792 
L 204.891235 206.88 
L 205.663792 206.88 
L 205.687669 204.598812 
L 206.32527 204.598812 
L 206.32527 203.838416 
L 206.437207 203.838416 
L 206.437207 203.07802 
L 206.666898 203.07802 
L 206.715157 201.557228 
L 206.86918 201.557228 
L 206.91667 200.036436 
L 207.023608 200.036436 
L 207.101119 198.515644 
L 207.472521 198.515644 
L 207.472521 197.755248 
L 207.660612 197.755248 
L 207.660612 196.994851 
L 208.03274 196.994851 
L 208.121537 195.474059 
L 208.159384 195.474059 
L 208.159384 194.713663 
L 208.328328 194.713663 
L 208.4153 192.432475 
L 208.759523 192.432475 
L 208.858995 189.390891 
L 208.955412 189.390891 
L 208.99026 187.109703 
L 209.568214 187.109703 
L 209.670894 185.588911 
L 209.704468 185.588911 
L 209.76946 184.068119 
L 209.994372 184.068119 
L 210.003195 182.547327 
L 210.168002 182.547327 
L 210.247931 179.505743 
L 210.376723 179.505743 
L 210.390376 177.98495 
L 210.52755 177.98495 
L 210.585769 176.464158 
L 210.826135 176.464158 
L 210.848994 174.943366 
L 211.048347 174.943366 
L 211.137324 171.901782 
L 211.283875 171.901782 
L 211.345877 170.38099 
L 211.527733 170.38099 
L 211.581164 168.860198 
L 211.686597 168.860198 
L 211.757645 167.339406 
L 211.822644 167.339406 
L 211.822644 166.57901 
L 212.11479 166.57901 
L 212.11479 165.818614 
L 212.321036 165.818614 
L 212.401151 164.297822 
L 212.440107 164.297822 
L 212.500006 162.77703 
L 212.971675 162.77703 
L 213.023878 161.256238 
L 213.092449 161.256238 
L 213.157602 159.735446 
L 213.240165 159.735446 
L 213.286354 157.454257 
L 213.41717 157.454257 
L 213.475699 155.933465 
L 213.540712 155.933465 
L 213.590746 154.412673 
L 213.734058 154.412673 
L 213.822752 152.891881 
L 213.985746 152.891881 
L 213.985746 152.131485 
L 214.602912 152.131485 
L 214.602912 151.371089 
L 215.184956 151.371089 
L 215.184956 150.610693 
L 215.647121 150.610693 
L 215.647121 149.850297 
L 215.761658 149.850297 
L 215.761658 149.089901 
L 215.982258 149.089901 
L 216.086105 147.569109 
L 216.111685 147.569109 
L 216.177719 144.527525 
L 216.227423 144.527525 
L 216.247541 140.725545 
L 216.34678 140.725545 
L 216.457383 139.204752 
L 216.697222 139.204752 
L 216.697222 138.444356 
L 217.042906 138.444356 
L 217.113748 136.923564 
L 217.263783 136.923564 
L 217.263783 136.163168 
L 217.512777 136.163168 
L 217.609382 134.642376 
L 217.675347 134.642376 
L 217.675347 133.88198 
L 217.90294 133.88198 
L 217.991884 131.600792 
L 218.022281 131.600792 
L 218.022281 130.840396 
L 218.283909 130.840396 
L 218.283909 130.08 
L 218.726471 130.08 
L 218.726471 129.319604 
L 218.865406 129.319604 
L 218.865406 128.559208 
L 219.221191 128.559208 
L 219.221191 127.798812 
L 219.715089 127.798812 
L 219.737642 126.27802 
L 220.022758 126.27802 
L 220.076859 124.757228 
L 220.326858 124.757228 
L 220.326858 123.996832 
L 220.764014 123.996832 
L 220.855774 121.715644 
L 220.974465 121.715644 
L 220.974465 120.955248 
L 221.097978 120.955248 
L 221.164213 119.434455 
L 221.253557 119.434455 
L 221.253557 118.674059 
L 221.71509 118.674059 
L 221.71509 117.913663 
L 222.156086 117.913663 
L 222.156086 117.153267 
L 222.556086 117.153267 
L 222.648879 115.632475 
L 222.810815 115.632475 
L 222.810815 114.872079 
L 223.05708 114.872079 
L 223.126989 113.351287 
L 223.208702 113.351287 
L 223.208702 112.590891 
L 223.872587 112.590891 
L 223.872587 111.830495 
L 224.00601 111.830495 
L 224.00601 111.070099 
L 224.410871 111.070099 
L 224.43446 109.549307 
L 224.760312 109.549307 
L 224.760312 108.788911 
L 225.057727 108.788911 
L 225.057727 108.028515 
L 225.668823 108.028515 
L 225.668823 107.268119 
L 226.789997 107.268119 
L 226.789997 106.507723 
L 229.779353 106.507723 
L 229.779353 105.747327 
L 230.109899 105.747327 
L 230.109899 104.986931 
L 230.255808 104.986931 
L 230.255808 104.226535 
L 232.596738 104.226535 
L 232.596738 103.466139 
L 232.71346 103.466139 
L 232.71346 102.705743 
L 233.022548 102.705743 
L 233.022548 101.945347 
L 234.163079 101.945347 
L 234.163079 101.18495 
L 234.562819 101.18495 
L 234.568085 99.664158 
L 235.269167 99.664158 
L 235.269167 98.903762 
L 235.981949 98.903762 
L 235.981949 98.143366 
L 236.564993 98.143366 
L 236.629894 95.101782 
L 237.22891 95.101782 
L 237.22891 94.341386 
L 237.56503 94.341386 
L 237.56503 93.58099 
L 238.588277 93.58099 
L 238.588277 92.820594 
L 238.754211 92.820594 
L 238.754211 92.060198 
L 239.341489 92.060198 
L 239.341489 91.299802 
L 240.875272 91.299802 
L 240.875272 90.539406 
L 242.039552 90.539406 
L 242.039552 89.77901 
L 242.171801 89.77901 
L 242.171801 89.018614 
L 242.612046 89.018614 
L 242.612046 88.258218 
L 243.70849 88.258218 
L 243.70849 87.497822 
L 244.351715 87.497822 
L 244.351715 86.737426 
L 244.491638 86.737426 
L 244.491638 85.97703 
L 244.935776 85.97703 
L 244.99824 84.456238 
L 245.274902 84.456238 
L 245.274902 83.695842 
L 246.46951 83.695842 
L 246.46951 82.935446 
L 247.268811 82.935446 
L 247.314003 81.414653 
L 247.556983 81.414653 
L 247.556983 80.654257 
L 247.861035 80.654257 
L 247.861035 79.893861 
L 248.491433 79.893861 
L 248.491433 79.133465 
L 248.776824 79.133465 
L 248.776824 78.373069 
L 248.908338 78.373069 
L 248.908338 77.612673 
L 249.405868 77.612673 
L 249.405868 76.852277 
L 250.318985 76.852277 
L 250.318985 76.091881 
L 250.565755 76.091881 
L 250.589685 74.571089 
L 250.811909 74.571089 
L 250.811909 73.810693 
L 251.020092 73.810693 
L 251.020092 73.050297 
L 251.15293 73.050297 
L 251.15293 72.289901 
L 251.68577 72.289901 
L 251.68577 71.529505 
L 251.865397 71.529505 
L 251.865397 70.769109 
L 253.362754 70.769109 
L 253.362754 70.008713 
L 253.975413 70.008713 
L 253.975413 69.248317 
L 254.161046 69.248317 
L 254.161046 68.487921 
L 254.706871 68.487921 
L 254.759996 66.967129 
L 255.16404 66.967129 
L 255.16404 66.206733 
L 255.899385 66.206733 
L 255.899385 65.446337 
L 256.483774 65.446337 
L 256.483774 64.685941 
L 256.811669 64.685941 
L 256.811669 63.925545 
L 256.93315 63.925545 
L 256.93315 63.165149 
L 258.147646 63.165149 
L 258.177822 61.644356 
L 259.096374 61.644356 
L 259.096374 60.88396 
L 259.363849 60.88396 
L 259.363849 60.123564 
L 259.732682 60.123564 
L 259.732682 59.363168 
L 261.360551 59.363168 
L 261.360551 58.602772 
L 261.79627 58.602772 
L 261.79627 57.842376 
L 262.667829 57.842376 
L 262.667829 57.08198 
L 264.737271 57.08198 
L 264.737271 56.321584 
L 265.288557 56.321584 
L 265.288557 55.561188 
L 265.778836 55.561188 
L 265.778836 54.800792 
L 266.894198 54.800792 
L 266.894198 54.040396 
L 271.127842 54.040396 
L 271.127842 53.28 
L 272.441326 53.28 
L 272.441326 52.519604 
L 272.666004 52.519604 
L 272.666004 51.759208 
L 273.483324 51.759208 
L 273.483324 50.998812 
L 275.814715 50.998812 
L 275.814715 50.238416 
L 278.192227 50.238416 
L 278.192227 49.47802 
L 278.988289 49.47802 
L 278.988289 48.717624 
L 281.323819 48.717624 
L 281.323819 47.957228 
L 282.014471 47.957228 
L 282.014471 47.196832 
L 282.716874 47.196832 
L 282.716874 46.436436 
L 283.123679 46.436436 
L 283.166568 44.915644 
L 283.369279 44.915644 
L 283.369279 44.155248 
L 283.80485 44.155248 
L 283.80485 43.394851 
L 285.110112 43.394851 
L 285.110112 42.634455 
L 285.654526 42.634455 
L 285.654526 41.874059 
L 286.093092 41.874059 
L 286.204189 40.353267 
L 286.37034 40.353267 
L 286.37034 39.592871 
L 288.514329 39.592871 
L 288.555042 38.072079 
L 288.909612 38.072079 
L 288.909612 37.311683 
L 289.904071 37.311683 
L 289.904071 36.551287 
L 290.890339 36.551287 
L 290.890339 35.790891 
L 292.464298 35.790891 
L 292.464298 35.030495 
L 293.126954 35.030495 
L 293.126954 34.270099 
L 293.441308 34.270099 
L 293.441308 33.509703 
L 294.79832 33.509703 
L 294.79832 32.749307 
L 295.630547 32.749307 
L 295.630547 31.988911 
L 295.816497 31.988911 
L 295.816497 31.228515 
L 296.004894 31.228515 
L 296.004894 30.468119 
L 296.145935 30.468119 
L 296.145935 29.707723 
L 296.396194 29.707723 
L 296.396194 28.947327 
L 296.541842 28.947327 
L 296.541842 28.186931 
L 296.880588 28.186931 
L 296.880588 27.426535 
L 298.096619 27.426535 
L 298.096619 26.666139 
L 301.537047 26.666139 
L 301.537047 25.905743 
L 302.086697 25.905743 
L 302.086697 25.145347 
L 304.494009 25.145347 
L 304.494009 24.38495 
L 305.556854 24.38495 
L 305.556854 23.624554 
L 305.884789 23.624554 
L 305.884789 22.864158 
L 307.159146 22.864158 
L 307.159146 22.103762 
L 310.151308 22.103762 
L 310.151308 21.343366 
L 313.534392 21.343366 
L 313.534392 20.58297 
L 315.12959 20.58297 
L 315.12959 19.822574 
L 316.66334 19.822574 
L 316.66334 19.062178 
L 322.267613 19.062178 
L 322.267613 18.301782 
L 324.407214 18.301782 
L 324.407214 17.541386 
L 324.542622 17.541386 
L 324.542622 16.78099 
L 324.804655 16.78099 
L 324.852794 15.260198 
L 326.753529 15.260198 
L 326.753529 14.499802 
L 327.806587 14.499802 
L 327.806587 13.739406 
L 327.966473 13.739406 
L 327.966473 12.97901 
L 329.310385 12.97901 
L 329.310385 12.218614 
L 330.194309 12.218614 
L 330.194309 11.458218 
L 332.798781 11.458218 
L 332.798781 10.697822 
L 335.260172 10.697822 
L 335.260172 9.937426 
L 335.260172 9.937426 
L 364.32 9.937426 
L 364.32 9.937426 
" style="fill:none;stroke:#000000;stroke-linecap:square;"/>
   </g>
   <g id="line2d_5">
    <path clip-path="url(#p8ddc9dab80)" d="M 180.261943 283.68 
L 180.261943 282.919604 
L 182.497515 282.919604 
L 182.497515 282.159208 
L 183.295142 282.159208 
L 183.295142 281.398812 
L 185.281974 281.398812 
L 185.281974 280.638416 
L 185.60657 280.638416 
L 185.695092 279.117624 
L 185.887775 279.117624 
L 185.948486 277.596832 
L 186.032214 277.596832 
L 186.117599 276.07604 
L 186.217515 276.07604 
L 186.217515 275.315644 
L 186.403046 275.315644 
L 186.403046 274.555248 
L 186.576503 274.555248 
L 186.576503 273.794851 
L 186.895659 273.794851 
L 186.895659 273.034455 
L 187.013596 273.034455 
L 187.030484 271.513663 
L 187.235549 271.513663 
L 187.235549 270.753267 
L 187.615102 270.753267 
L 187.615102 269.992871 
L 188.063352 269.992871 
L 188.063352 269.232475 
L 188.287828 269.232475 
L 188.287828 268.472079 
L 188.538316 268.472079 
L 188.538316 267.711683 
L 188.695313 267.711683 
L 188.695313 266.951287 
L 188.912463 266.951287 
L 188.974807 265.430495 
L 189.19113 265.430495 
L 189.19113 264.670099 
L 189.374847 264.670099 
L 189.451533 262.388911 
L 190.041103 262.388911 
L 190.041103 261.628515 
L 190.397313 261.628515 
L 190.496612 260.107723 
L 190.758259 260.107723 
L 190.758259 259.347327 
L 190.911069 259.347327 
L 190.981027 257.826535 
L 191.069429 257.826535 
L 191.069429 257.066139 
L 191.263312 257.066139 
L 191.263312 256.305743 
L 191.481281 256.305743 
L 191.571588 254.78495 
L 191.918143 254.78495 
L 191.978537 252.503762 
L 192.136608 252.503762 
L 192.136608 251.743366 
L 192.374828 251.743366 
L 192.427757 250.222574 
L 192.79774 250.222574 
L 192.79774 249.462178 
L 192.911624 249.462178 
L 193.004123 247.18099 
L 193.062935 247.18099 
L 193.079562 245.660198 
L 193.520863 245.660198 
L 193.536316 244.139406 
L 193.986653 244.139406 
L 194.058301 241.858218 
L 194.101072 241.858218 
L 194.101072 241.097822 
L 194.252405 241.097822 
L 194.252405 240.337426 
L 194.379712 240.337426 
L 194.439096 238.816634 
L 194.558682 238.816634 
L 194.60786 236.535446 
L 194.701637 236.535446 
L 194.747065 234.254257 
L 194.971136 234.254257 
L 195.047552 232.733465 
L 195.123955 232.733465 
L 195.123955 231.973069 
L 195.665255 231.973069 
L 195.665255 231.212673 
L 195.877807 231.212673 
L 195.877807 230.452277 
L 196.156648 230.452277 
L 196.266854 228.171089 
L 196.426458 228.171089 
L 196.490693 225.889901 
L 196.562396 225.889901 
L 196.661821 224.369109 
L 196.677365 224.369109 
L 196.772656 222.848317 
L 196.901856 222.848317 
L 197.012858 221.327525 
L 197.023481 221.327525 
L 197.070116 219.806733 
L 197.229552 219.806733 
L 197.229552 219.046337 
L 197.501941 219.046337 
L 197.599358 217.525545 
L 197.825481 217.525545 
L 197.825481 216.765149 
L 198.054779 216.765149 
L 198.054779 216.004752 
L 198.189808 216.004752 
L 198.24592 214.48396 
L 198.568889 214.48396 
L 198.568889 213.723564 
L 198.791465 213.723564 
L 198.835617 212.202772 
L 199.008708 212.202772 
L 199.008708 211.442376 
L 199.278521 211.442376 
L 199.278521 210.68198 
L 199.704951 210.68198 
L 199.704951 209.921584 
L 199.864623 209.921584 
L 199.864623 209.161188 
L 200.217183 209.161188 
L 200.217183 208.400792 
L 200.351294 208.400792 
L 200.386711 206.88 
L 200.495622 206.88 
L 200.495622 206.119604 
L 200.613018 206.119604 
L 200.673725 204.598812 
L 200.831325 204.598812 
L 200.831325 203.838416 
L 201.223353 203.838416 
L 201.302706 201.557228 
L 201.410531 201.557228 
L 201.410531 200.796832 
L 201.672239 200.796832 
L 201.672239 200.036436 
L 201.797734 200.036436 
L 201.82557 198.515644 
L 202.119867 198.515644 
L 202.122859 196.994851 
L 202.384779 196.994851 
L 202.384779 196.234455 
L 202.745275 196.234455 
L 202.792844 194.713663 
L 202.886813 194.713663 
L 202.886813 193.953267 
L 203.101094 193.953267 
L 203.101094 193.192871 
L 203.454352 193.192871 
L 203.488318 190.151287 
L 203.796967 190.151287 
L 203.796967 189.390891 
L 204.314799 189.390891 
L 204.35897 187.870099 
L 204.47924 187.870099 
L 204.47924 187.109703 
L 204.598294 187.109703 
L 204.663162 185.588911 
L 204.77112 185.588911 
L 204.77112 184.828515 
L 204.903824 184.828515 
L 204.903824 184.068119 
L 205.176187 184.068119 
L 205.283097 182.547327 
L 205.456844 182.547327 
L 205.517121 181.026535 
L 205.687669 181.026535 
L 205.687669 180.266139 
L 205.823819 180.266139 
L 205.823819 179.505743 
L 206.101977 179.505743 
L 206.101977 178.745347 
L 206.32527 178.745347 
L 206.415722 177.224554 
L 206.86918 177.224554 
L 206.86918 176.464158 
L 207.246302 176.464158 
L 207.246302 175.703762 
L 207.606366 175.703762 
L 207.606366 174.943366 
L 207.815592 174.943366 
L 207.815592 174.18297 
L 207.926726 174.18297 
L 207.997156 171.901782 
L 208.05507 171.901782 
L 208.145059 170.38099 
L 208.213451 170.38099 
L 208.213451 169.620594 
L 208.406352 169.620594 
L 208.406352 168.860198 
L 208.759523 168.860198 
L 208.759523 168.099802 
L 208.985468 168.099802 
L 208.985468 167.339406 
L 209.568214 167.339406 
L 209.605744 164.297822 
L 209.881304 164.297822 
L 209.961069 162.77703 
L 210.15907 162.77703 
L 210.231867 161.256238 
L 210.362661 161.256238 
L 210.376723 159.735446 
L 210.585769 159.735446 
L 210.667116 158.214653 
L 211.032553 158.214653 
L 211.076059 155.933465 
L 211.232032 155.933465 
L 211.283875 153.652277 
L 211.360687 153.652277 
L 211.360687 152.891881 
L 211.527733 152.891881 
L 211.615696 150.610693 
L 211.698304 150.610693 
L 211.698304 149.850297 
L 211.901116 149.850297 
L 211.901116 149.089901 
L 212.167447 149.089901 
L 212.167447 148.329505 
L 212.321036 148.329505 
L 212.321036 147.569109 
L 212.500006 147.569109 
L 212.500006 146.808713 
L 212.739955 146.808713 
L 212.739955 146.048317 
L 212.962173 146.048317 
L 212.962173 145.287921 
L 213.091631 145.287921 
L 213.189421 141.485941 
L 213.236801 141.485941 
L 213.236801 140.725545 
L 213.540712 140.725545 
L 213.590746 138.444356 
L 213.734058 138.444356 
L 213.790876 136.923564 
L 214.060398 136.923564 
L 214.147794 134.642376 
L 214.204258 134.642376 
L 214.204258 133.88198 
L 214.641473 133.88198 
L 214.681063 132.361188 
L 214.830813 132.361188 
L 214.93582 130.840396 
L 214.945291 130.840396 
L 215.048222 129.319604 
L 215.084431 129.319604 
L 215.084431 128.559208 
L 215.271482 128.559208 
L 215.274413 127.038416 
L 215.412828 127.038416 
L 215.412828 126.27802 
L 215.813338 126.27802 
L 215.813338 125.517624 
L 215.982258 125.517624 
L 215.982258 124.757228 
L 216.219323 124.757228 
L 216.291969 121.715644 
L 216.363765 121.715644 
L 216.363765 120.955248 
L 216.477079 120.955248 
L 216.477079 120.194851 
L 216.795243 120.194851 
L 216.795243 119.434455 
L 216.942527 119.434455 
L 216.942527 118.674059 
L 217.277404 118.674059 
L 217.277404 117.913663 
L 217.675347 117.913663 
L 217.689682 116.392871 
L 217.938358 116.392871 
L 217.938358 115.632475 
L 218.165934 115.632475 
L 218.165934 114.872079 
L 218.283909 114.872079 
L 218.322467 113.351287 
L 218.441788 113.351287 
L 218.441788 112.590891 
L 218.726471 112.590891 
L 218.726471 111.830495 
L 219.128692 111.830495 
L 219.19034 110.309703 
L 219.27965 110.309703 
L 219.338674 108.788911 
L 219.475533 108.788911 
L 219.475533 108.028515 
L 219.824321 108.028515 
L 219.824321 107.268119 
L 220.022758 107.268119 
L 220.076859 105.747327 
L 220.326858 105.747327 
L 220.42034 104.226535 
L 220.997221 104.226535 
L 220.997221 103.466139 
L 221.44311 103.466139 
L 221.44311 102.705743 
L 221.726574 102.705743 
L 221.726574 101.945347 
L 221.896542 101.945347 
L 221.896542 101.18495 
L 223.05708 101.18495 
L 223.05708 100.424554 
L 223.685898 100.424554 
L 223.685898 99.664158 
L 224.211223 99.664158 
L 224.211223 98.903762 
L 224.519467 98.903762 
L 224.519467 98.143366 
L 225.003878 98.143366 
L 225.003878 97.38297 
L 226.326519 97.38297 
L 226.326519 96.622574 
L 228.697087 96.622574 
L 228.697087 95.862178 
L 228.892099 95.862178 
L 228.892099 95.101782 
L 229.779353 95.101782 
L 229.779353 94.341386 
L 230.255808 94.341386 
L 230.255808 93.58099 
L 231.181023 93.58099 
L 231.181023 92.820594 
L 232.018058 92.820594 
L 232.018058 92.060198 
L 232.490847 92.060198 
L 232.596738 89.77901 
L 233.022548 89.77901 
L 233.022548 89.018614 
L 233.786964 89.018614 
L 233.786964 88.258218 
L 234.458827 88.258218 
L 234.568085 85.97703 
L 234.574676 85.97703 
L 234.574676 85.216634 
L 235.243311 85.216634 
L 235.243311 84.456238 
L 236.464439 84.456238 
L 236.464439 83.695842 
L 236.812984 83.695842 
L 236.812984 82.935446 
L 236.98209 82.935446 
L 236.98209 82.17505 
L 237.743057 82.17505 
L 237.743057 81.414653 
L 238.588277 81.414653 
L 238.588277 80.654257 
L 238.754211 80.654257 
L 238.754211 79.893861 
L 239.341489 79.893861 
L 239.341489 79.133465 
L 239.749164 79.133465 
L 239.749164 78.373069 
L 240.711204 78.373069 
L 240.711204 77.612673 
L 240.875272 77.612673 
L 240.875272 76.852277 
L 241.640606 76.852277 
L 241.71606 74.571089 
L 241.847625 74.571089 
L 241.887594 73.050297 
L 242.039552 73.050297 
L 242.039552 72.289901 
L 242.171801 72.289901 
L 242.171801 71.529505 
L 242.328611 71.529505 
L 242.328611 70.769109 
L 242.60963 70.769109 
L 242.60963 70.008713 
L 243.971949 70.008713 
L 243.971949 69.248317 
L 244.284079 69.248317 
L 244.379935 67.727525 
L 244.491638 67.727525 
L 244.491638 66.967129 
L 245.192539 66.967129 
L 245.209994 65.446337 
L 246.356358 65.446337 
L 246.356358 64.685941 
L 246.906212 64.685941 
L 246.906212 63.925545 
L 247.268811 63.925545 
L 247.268811 63.165149 
L 247.650611 63.165149 
L 247.650611 62.404752 
L 247.834531 62.404752 
L 247.861035 60.123564 
L 248.589033 60.123564 
L 248.589033 59.363168 
L 248.776824 59.363168 
L 248.776824 58.602772 
L 249.349768 58.602772 
L 249.349768 57.842376 
L 249.967319 57.842376 
L 249.967319 57.08198 
L 250.318985 57.08198 
L 250.318985 56.321584 
L 250.680494 56.321584 
L 250.680494 55.561188 
L 251.865397 55.561188 
L 251.957282 54.040396 
L 252.215048 54.040396 
L 252.215048 53.28 
L 252.658814 53.28 
L 252.658814 52.519604 
L 254.125422 52.519604 
L 254.125422 51.759208 
L 255.394099 51.759208 
L 255.394099 50.998812 
L 257.066646 50.998812 
L 257.066646 50.238416 
L 257.43461 50.238416 
L 257.43461 49.47802 
L 258.177822 49.47802 
L 258.177822 48.717624 
L 258.637115 48.717624 
L 258.637115 47.957228 
L 259.749307 47.957228 
L 259.749307 47.196832 
L 262.667829 47.196832 
L 262.667829 46.436436 
L 263.040413 46.436436 
L 263.040413 45.67604 
L 266.438435 45.67604 
L 266.438435 44.915644 
L 266.584449 44.915644 
L 266.640341 43.394851 
L 269.975308 43.394851 
L 269.975308 42.634455 
L 273.191568 42.634455 
L 273.191568 41.874059 
L 273.483324 41.874059 
L 273.483324 41.113663 
L 274.786742 41.113663 
L 274.786742 40.353267 
L 279.055149 40.353267 
L 279.055149 39.592871 
L 280.10189 39.592871 
L 280.10189 38.832475 
L 280.568314 38.832475 
L 280.658475 37.311683 
L 281.355135 37.311683 
L 281.355135 36.551287 
L 282.014471 36.551287 
L 282.014471 35.790891 
L 283.109426 35.790891 
L 283.166568 34.270099 
L 283.305781 34.270099 
L 283.305781 33.509703 
L 283.80485 33.509703 
L 283.912783 31.988911 
L 284.013491 31.988911 
L 284.013491 31.228515 
L 285.991213 31.228515 
L 285.991213 30.468119 
L 286.77208 30.468119 
L 286.77208 29.707723 
L 287.248943 29.707723 
L 287.248943 28.947327 
L 287.522186 28.947327 
L 287.522186 28.186931 
L 287.945857 28.186931 
L 288.02859 26.666139 
L 288.065498 26.666139 
L 288.065498 25.905743 
L 288.500573 25.905743 
L 288.500573 25.145347 
L 288.972443 25.145347 
L 288.972443 24.38495 
L 290.890339 24.38495 
L 290.890339 23.624554 
L 293.126954 23.624554 
L 293.126954 22.864158 
L 294.79832 22.864158 
L 294.79832 22.103762 
L 296.145935 22.103762 
L 296.145935 21.343366 
L 310.151308 21.343366 
L 310.151308 20.58297 
L 311.523442 20.58297 
L 311.523442 19.822574 
L 316.66334 19.822574 
L 316.66334 19.062178 
L 319.081296 19.062178 
L 319.102849 17.541386 
L 319.423339 17.541386 
L 319.423339 16.78099 
L 320.47722 16.78099 
L 320.47722 16.020594 
L 320.780037 16.020594 
L 320.780037 15.260198 
L 322.261212 15.260198 
L 322.267613 13.739406 
L 324.049672 13.739406 
L 324.049672 12.97901 
L 324.382272 12.97901 
L 324.382272 12.218614 
L 324.542622 12.218614 
L 324.542622 11.458218 
L 324.804655 11.458218 
L 324.804655 10.697822 
L 327.54709 10.697822 
L 327.54709 9.937426 
L 327.54709 9.937426 
L 364.32 9.937426 
L 364.32 9.937426 
" style="fill:none;stroke:#00bfbf;stroke-linecap:square;"/>
   </g>
   <g id="line2d_6">
    <path clip-path="url(#p8ddc9dab80)" d="M 167.979818 283.68 
L 167.979818 282.919604 
L 176.697291 282.919604 
L 176.697291 282.159208 
L 176.919365 282.159208 
L 176.919365 281.398812 
L 177.806109 281.398812 
L 177.806109 280.638416 
L 178.944886 280.638416 
L 178.944886 279.87802 
L 179.366056 279.87802 
L 179.366056 279.117624 
L 180.070914 279.117624 
L 180.070914 278.357228 
L 180.261933 278.357228 
L 180.261933 277.596832 
L 181.30298 277.596832 
L 181.30298 276.836436 
L 181.669531 276.836436 
L 181.669531 276.07604 
L 182.497439 276.07604 
L 182.497439 275.315644 
L 182.770732 275.315644 
L 182.770732 274.555248 
L 183.105909 274.555248 
L 183.120312 272.274059 
L 183.295142 272.274059 
L 183.319558 269.992871 
L 183.687715 269.992871 
L 183.741728 267.711683 
L 184.407018 267.711683 
L 184.445309 265.430495 
L 184.631064 265.430495 
L 184.631064 264.670099 
L 184.823748 264.670099 
L 184.925754 262.388911 
L 185.127752 262.388911 
L 185.127752 261.628515 
L 185.277264 261.628515 
L 185.288458 260.107723 
L 185.518239 260.107723 
L 185.606568 257.826535 
L 185.695092 257.826535 
L 185.695092 257.066139 
L 185.808035 257.066139 
L 185.808035 256.305743 
L 186.046323 256.305743 
L 186.117599 252.503762 
L 186.324931 252.503762 
L 186.412557 250.98297 
L 186.576472 250.98297 
L 186.648825 249.462178 
L 186.80586 249.462178 
L 186.80586 248.701782 
L 187.013596 248.701782 
L 187.071823 247.18099 
L 187.133703 247.18099 
L 187.140967 245.660198 
L 187.294219 245.660198 
L 187.294219 244.899802 
L 187.464337 244.899802 
L 187.46704 243.37901 
L 187.615102 243.37901 
L 187.633906 241.858218 
L 187.918793 241.858218 
L 187.918793 241.097822 
L 188.232505 241.097822 
L 188.232505 240.337426 
L 188.376453 240.337426 
L 188.42499 238.816634 
L 188.538316 238.816634 
L 188.538316 238.056238 
L 188.755748 238.056238 
L 188.755748 237.295842 
L 188.869675 237.295842 
L 188.929812 235.77505 
L 189.398494 235.77505 
L 189.398494 235.014653 
L 189.564372 235.014653 
L 189.673759 232.733465 
L 189.847744 232.733465 
L 189.895436 231.212673 
L 190.057812 231.212673 
L 190.121119 228.931485 
L 190.227065 228.931485 
L 190.227065 228.171089 
L 190.412001 228.171089 
L 190.505409 224.369109 
L 190.561602 224.369109 
L 190.634201 222.848317 
L 190.678196 222.848317 
L 190.678196 222.087921 
L 190.83677 222.087921 
L 190.83677 221.327525 
L 191.067007 221.327525 
L 191.067007 220.567129 
L 191.540575 220.567129 
L 191.634521 217.525545 
L 191.683401 217.525545 
L 191.683401 216.765149 
L 191.939412 216.765149 
L 192.014572 214.48396 
L 192.083082 214.48396 
L 192.083082 213.723564 
L 192.36995 213.723564 
L 192.36995 212.963168 
L 192.517959 212.963168 
L 192.517959 212.202772 
L 192.77973 212.202772 
L 192.77973 211.442376 
L 192.906469 211.442376 
L 192.906469 210.68198 
L 193.062927 210.68198 
L 193.098724 209.161188 
L 193.51121 209.161188 
L 193.51121 208.400792 
L 193.73303 208.400792 
L 193.836358 206.119604 
L 194.187556 206.119604 
L 194.187556 205.359208 
L 194.369902 205.359208 
L 194.439096 203.838416 
L 194.67408 203.838416 
L 194.735176 202.317624 
L 194.91662 202.317624 
L 194.91662 201.557228 
L 195.072605 201.557228 
L 195.182 199.27604 
L 195.296432 199.27604 
L 195.296432 198.515644 
L 195.629148 198.515644 
L 195.642497 196.994851 
L 195.873577 196.994851 
L 195.935945 195.474059 
L 196.156648 195.474059 
L 196.248371 193.953267 
L 196.426458 193.953267 
L 196.426458 193.192871 
L 196.677365 193.192871 
L 196.681569 191.672079 
L 196.956486 191.672079 
L 196.965368 190.151287 
L 197.590973 190.151287 
L 197.599358 188.630495 
L 197.743994 188.630495 
L 197.743994 187.870099 
L 198.106716 187.870099 
L 198.106716 187.109703 
L 198.499542 187.109703 
L 198.499542 186.349307 
L 198.970484 186.349307 
L 199.004886 184.068119 
L 199.083714 184.068119 
L 199.083714 183.307723 
L 199.230048 183.307723 
L 199.258344 181.786931 
L 199.355547 181.786931 
L 199.442296 179.505743 
L 199.519721 179.505743 
L 199.519721 178.745347 
L 199.643829 178.745347 
L 199.692091 176.464158 
L 199.827846 176.464158 
L 199.897785 174.943366 
L 200.02499 174.943366 
L 200.123215 172.662178 
L 200.14947 172.662178 
L 200.14947 171.901782 
L 200.29579 171.901782 
L 200.37191 170.38099 
L 200.723238 170.38099 
L 200.815141 168.860198 
L 200.923776 168.860198 
L 200.923776 168.099802 
L 201.127145 168.099802 
L 201.2099 166.57901 
L 201.355576 166.57901 
L 201.454823 165.058218 
L 201.602332 165.058218 
L 201.602332 164.297822 
L 202.037529 164.297822 
L 202.122859 162.016634 
L 202.641147 162.016634 
L 202.641147 161.256238 
L 202.794256 161.256238 
L 202.794256 160.495842 
L 203.100641 160.495842 
L 203.130495 158.97505 
L 203.613895 158.97505 
L 203.613895 158.214653 
L 203.854808 158.214653 
L 203.854808 157.454257 
L 203.979634 157.454257 
L 203.979634 156.693861 
L 204.499606 156.693861 
L 204.541284 155.173069 
L 204.648025 155.173069 
L 204.74705 152.891881 
L 205.174629 152.891881 
L 205.174629 152.131485 
L 205.299817 152.131485 
L 205.383026 150.610693 
L 205.504624 150.610693 
L 205.504624 149.850297 
L 205.750171 149.850297 
L 205.823612 148.329505 
L 206.000371 148.329505 
L 206.098691 146.808713 
L 207.009678 146.808713 
L 207.009678 146.048317 
L 207.80827 146.048317 
L 207.80827 145.287921 
L 208.168981 145.287921 
L 208.213446 143.767129 
L 208.630687 143.767129 
L 208.630687 143.006733 
L 208.859584 143.006733 
L 208.959129 141.485941 
L 209.177359 141.485941 
L 209.177359 140.725545 
L 209.439159 140.725545 
L 209.4501 139.204752 
L 209.695317 139.204752 
L 209.728534 136.923564 
L 210.109693 136.923564 
L 210.109693 136.163168 
L 210.231867 136.163168 
L 210.338741 133.88198 
L 210.374706 133.88198 
L 210.431334 132.361188 
L 210.585769 132.361188 
L 210.666709 130.840396 
L 210.754165 130.840396 
L 210.761811 129.319604 
L 210.866262 129.319604 
L 210.974252 127.798812 
L 211.028196 127.798812 
L 211.028196 127.038416 
L 211.226994 127.038416 
L 211.226994 126.27802 
L 211.39496 126.27802 
L 211.39496 125.517624 
L 211.552908 125.517624 
L 211.575687 123.996832 
L 211.788216 123.996832 
L 211.864711 121.715644 
L 212.045151 121.715644 
L 212.134318 119.434455 
L 212.160223 119.434455 
L 212.24854 117.153267 
L 212.373802 117.153267 
L 212.451771 115.632475 
L 212.493699 115.632475 
L 212.594617 112.590891 
L 212.624568 112.590891 
L 212.683035 110.309703 
L 212.809056 110.309703 
L 212.809056 109.549307 
L 212.955708 109.549307 
L 212.971918 107.268119 
L 213.089075 107.268119 
L 213.092449 105.747327 
L 213.629934 105.747327 
L 213.629934 104.986931 
L 213.755301 104.986931 
L 213.811807 103.466139 
L 214.006786 103.466139 
L 214.006786 102.705743 
L 214.163383 102.705743 
L 214.163383 101.945347 
L 214.379127 101.945347 
L 214.379127 101.18495 
L 214.533563 101.18495 
L 214.533563 100.424554 
L 214.681063 100.424554 
L 214.681063 99.664158 
L 214.80468 99.664158 
L 214.824163 98.143366 
L 214.982713 98.143366 
L 215.082816 95.862178 
L 215.235427 95.862178 
L 215.322539 94.341386 
L 215.41853 94.341386 
L 215.41853 93.58099 
L 216.597654 93.58099 
L 216.706413 92.060198 
L 217.424351 92.060198 
L 217.430936 90.539406 
L 217.596407 90.539406 
L 217.694208 88.258218 
L 217.895139 88.258218 
L 217.895139 87.497822 
L 218.121091 87.497822 
L 218.121091 86.737426 
L 220.997221 86.737426 
L 220.997221 85.97703 
L 221.334875 85.97703 
L 221.334875 85.216634 
L 221.896542 85.216634 
L 221.896542 84.456238 
L 222.2636 84.456238 
L 222.2636 83.695842 
L 222.697045 83.695842 
L 222.697045 82.935446 
L 223.267627 82.935446 
L 223.267627 82.17505 
L 223.68564 82.17505 
L 223.685898 80.654257 
L 224.084159 80.654257 
L 224.151437 79.133465 
L 224.245794 79.133465 
L 224.245794 78.373069 
L 224.519467 78.373069 
L 224.56121 76.852277 
L 224.708223 76.852277 
L 224.746037 75.331485 
L 225.772999 75.331485 
L 225.772999 74.571089 
L 226.781414 74.571089 
L 226.87883 73.050297 
L 226.930324 73.050297 
L 226.930324 72.289901 
L 227.327485 72.289901 
L 227.327485 71.529505 
L 228.030245 71.529505 
L 228.030245 70.769109 
L 228.184037 70.769109 
L 228.184037 70.008713 
L 228.361624 70.008713 
L 228.413722 68.487921 
L 228.572089 68.487921 
L 228.572089 67.727525 
L 229.274717 67.727525 
L 229.365093 66.206733 
L 229.539704 66.206733 
L 229.539704 65.446337 
L 230.704932 65.446337 
L 230.704932 64.685941 
L 230.9495 64.685941 
L 230.9495 63.925545 
L 231.356909 63.925545 
L 231.400384 62.404752 
L 231.524518 62.404752 
L 231.524518 61.644356 
L 231.712635 61.644356 
L 231.712635 60.88396 
L 232.290093 60.88396 
L 232.290093 60.123564 
L 232.544009 60.123564 
L 232.544009 59.363168 
L 233.159767 59.363168 
L 233.159767 58.602772 
L 233.518213 58.602772 
L 233.579276 56.321584 
L 233.707076 56.321584 
L 233.707076 55.561188 
L 233.826199 55.561188 
L 233.914934 54.040396 
L 234.45324 54.040396 
L 234.45324 53.28 
L 234.809414 53.28 
L 234.809414 52.519604 
L 235.108582 52.519604 
L 235.108582 51.759208 
L 236.240751 51.759208 
L 236.240751 50.998812 
L 236.739126 50.998812 
L 236.739126 50.238416 
L 237.515818 50.238416 
L 237.515818 49.47802 
L 240.492908 49.47802 
L 240.492908 48.717624 
L 240.710543 48.717624 
L 240.710543 47.957228 
L 240.875272 47.957228 
L 240.875272 47.196832 
L 241.330573 47.196832 
L 241.381409 45.67604 
L 242.681494 45.67604 
L 242.681494 44.915644 
L 250.081958 44.915644 
L 250.081958 44.155248 
L 251.84528 44.155248 
L 251.84528 43.394851 
L 256.273403 43.394851 
L 256.356529 41.874059 
L 258.095939 41.874059 
L 258.095939 41.113663 
L 259.109396 41.113663 
L 259.109396 40.353267 
L 259.388407 40.353267 
L 259.388407 39.592871 
L 259.749274 39.592871 
L 259.749274 38.832475 
L 262.418983 38.832475 
L 262.460314 37.311683 
L 264.257684 37.311683 
L 264.257684 36.551287 
L 264.510057 36.551287 
L 264.55486 35.030495 
L 265.71973 35.030495 
L 265.71973 34.270099 
L 266.476031 34.270099 
L 266.476031 33.509703 
L 266.768767 33.509703 
L 266.768767 32.749307 
L 267.37944 32.749307 
L 267.37944 31.988911 
L 268.087596 31.988911 
L 268.087596 31.228515 
L 268.22231 31.228515 
L 268.22231 30.468119 
L 268.609439 30.468119 
L 268.609439 29.707723 
L 269.17091 29.707723 
L 269.17091 28.947327 
L 271.234744 28.947327 
L 271.234744 28.186931 
L 271.366433 28.186931 
L 271.366433 27.426535 
L 271.610298 27.426535 
L 271.610298 26.666139 
L 272.335215 26.666139 
L 272.335215 25.905743 
L 273.361305 25.905743 
L 273.361305 25.145347 
L 274.278876 25.145347 
L 274.278876 24.38495 
L 276.330933 24.38495 
L 276.330933 23.624554 
L 277.127519 23.624554 
L 277.127519 22.864158 
L 278.065092 22.864158 
L 278.065092 22.103762 
L 278.956581 22.103762 
L 278.956581 21.343366 
L 303.230302 21.343366 
L 303.230302 20.58297 
L 305.755425 20.58297 
L 305.755425 19.822574 
L 306.979907 19.822574 
L 306.979907 19.062178 
L 308.518828 19.062178 
L 308.518828 18.301782 
L 308.987049 18.301782 
L 308.987049 17.541386 
L 309.220877 17.541386 
L 309.220877 16.78099 
L 310.151308 16.78099 
L 310.151308 16.020594 
L 311.961286 16.020594 
L 311.961286 15.260198 
L 312.794464 15.260198 
L 312.794464 14.499802 
L 313.838026 14.499802 
L 313.838026 13.739406 
L 315.207277 13.739406 
L 315.207277 12.97901 
L 316.836637 12.97901 
L 316.836637 12.218614 
L 317.036607 12.218614 
L 317.036607 11.458218 
L 317.286509 11.458218 
L 317.286509 10.697822 
L 319.525566 10.697822 
L 319.525566 9.937426 
L 319.525566 9.937426 
L 364.32 9.937426 
L 364.32 9.937426 
" style="fill:none;stroke:#bf00bf;stroke-linecap:square;"/>
   </g>
   <g id="patch_3">
    <path d="M 7.2 7.2 
L 364.32 7.2 
" style="fill:none;stroke:#000000;stroke-linecap:square;stroke-linejoin:miter;"/>
   </g>
   <g id="patch_4">
    <path d="M 364.32 283.68 
L 364.32 7.2 
" style="fill:none;stroke:#000000;stroke-linecap:square;stroke-linejoin:miter;"/>
   </g>
   <g id="patch_5">
    <path d="M 7.2 283.68 
L 364.32 283.68 
" style="fill:none;stroke:#000000;stroke-linecap:square;stroke-linejoin:miter;"/>
   </g>
   <g id="patch_6">
    <path d="M 7.2 283.68 
L 7.2 7.2 
" style="fill:none;stroke:#000000;stroke-linecap:square;stroke-linejoin:miter;"/>
   </g>
   <g id="matplotlib.axis_1">
    <g id="xtick_1">
     <g id="line2d_7">
      <path clip-path="url(#p8ddc9dab80)" d="M 49.133998 283.68 
L 49.133998 7.2 
" style="fill:none;stroke:#000000;stroke-dasharray:1.000000,3.000000;stroke-dashoffset:0.0;stroke-width:0.5;"/>
     </g>
     <g id="line2d_8">
      <defs>
       <path d="M 0 0 
L 0 -4 
" id="m34d2d95ced" style="stroke:#000000;stroke-width:0.5;"/>
      </defs>
      <g>
       <use style="stroke:#000000;stroke-width:0.5;" x="49.1339978514" xlink:href="#m34d2d95ced" y="283.68"/>
      </g>
     </g>
     <g id="line2d_9">
      <defs>
       <path d="M 0 0 
L 0 4 
" id="md3a9468036" style="stroke:#000000;stroke-width:0.5;"/>
      </defs>
      <g>
       <use style="stroke:#000000;stroke-width:0.5;" x="49.1339978514" xlink:href="#md3a9468036" y="7.2"/>
      </g>
     </g>
     <g id="text_1">
      <!-- -6 -->
      <defs>
       <path d="M 33.015625 40.375 
Q 26.375 40.375 22.484375 35.828125 
Q 18.609375 31.296875 18.609375 23.390625 
Q 18.609375 15.53125 22.484375 10.953125 
Q 26.375 6.390625 33.015625 6.390625 
Q 39.65625 6.390625 43.53125 10.953125 
Q 47.40625 15.53125 47.40625 23.390625 
Q 47.40625 31.296875 43.53125 35.828125 
Q 39.65625 40.375 33.015625 40.375 
M 52.59375 71.296875 
L 52.59375 62.3125 
Q 48.875 64.0625 45.09375 64.984375 
Q 41.3125 65.921875 37.59375 65.921875 
Q 27.828125 65.921875 22.671875 59.328125 
Q 17.53125 52.734375 16.796875 39.40625 
Q 19.671875 43.65625 24.015625 45.921875 
Q 28.375 48.1875 33.59375 48.1875 
Q 44.578125 48.1875 50.953125 41.515625 
Q 57.328125 34.859375 57.328125 23.390625 
Q 57.328125 12.15625 50.6875 5.359375 
Q 44.046875 -1.421875 33.015625 -1.421875 
Q 20.359375 -1.421875 13.671875 8.265625 
Q 6.984375 17.96875 6.984375 36.375 
Q 6.984375 53.65625 15.1875 63.9375 
Q 23.390625 74.21875 37.203125 74.21875 
Q 40.921875 74.21875 44.703125 73.484375 
Q 48.484375 72.75 52.59375 71.296875 
" id="BitstreamVeraSans-Roman-36"/>
       <path d="M 4.890625 31.390625 
L 31.203125 31.390625 
L 31.203125 23.390625 
L 4.890625 23.390625 
z
" id="BitstreamVeraSans-Roman-2d"/>
      </defs>
      <g transform="translate(39.1636853514 302.876875)scale(0.2 -0.2)">
       <use xlink:href="#BitstreamVeraSans-Roman-2d"/>
       <use x="36.083984375" xlink:href="#BitstreamVeraSans-Roman-36"/>
      </g>
     </g>
    </g>
    <g id="xtick_2">
     <g id="line2d_10">
      <path clip-path="url(#p8ddc9dab80)" d="M 91.158798 283.68 
L 91.158798 7.2 
" style="fill:none;stroke:#000000;stroke-dasharray:1.000000,3.000000;stroke-dashoffset:0.0;stroke-width:0.5;"/>
     </g>
     <g id="line2d_11">
      <g>
       <use style="stroke:#000000;stroke-width:0.5;" x="91.1587981379" xlink:href="#m34d2d95ced" y="283.68"/>
      </g>
     </g>
     <g id="line2d_12">
      <g>
       <use style="stroke:#000000;stroke-width:0.5;" x="91.1587981379" xlink:href="#md3a9468036" y="7.2"/>
      </g>
     </g>
     <g id="text_2">
      <!-- -4 -->
      <defs>
       <path d="M 37.796875 64.3125 
L 12.890625 25.390625 
L 37.796875 25.390625 
z
M 35.203125 72.90625 
L 47.609375 72.90625 
L 47.609375 25.390625 
L 58.015625 25.390625 
L 58.015625 17.1875 
L 47.609375 17.1875 
L 47.609375 0 
L 37.796875 0 
L 37.796875 17.1875 
L 4.890625 17.1875 
L 4.890625 26.703125 
z
" id="BitstreamVeraSans-Roman-34"/>
      </defs>
      <g transform="translate(81.1884856379 302.876875)scale(0.2 -0.2)">
       <use xlink:href="#BitstreamVeraSans-Roman-2d"/>
       <use x="36.083984375" xlink:href="#BitstreamVeraSans-Roman-34"/>
      </g>
     </g>
    </g>
    <g id="xtick_3">
     <g id="line2d_13">
      <path clip-path="url(#p8ddc9dab80)" d="M 133.183598 283.68 
L 133.183598 7.2 
" style="fill:none;stroke:#000000;stroke-dasharray:1.000000,3.000000;stroke-dashoffset:0.0;stroke-width:0.5;"/>
     </g>
     <g id="line2d_14">
      <g>
       <use style="stroke:#000000;stroke-width:0.5;" x="133.183598424" xlink:href="#m34d2d95ced" y="283.68"/>
      </g>
     </g>
     <g id="line2d_15">
      <g>
       <use style="stroke:#000000;stroke-width:0.5;" x="133.183598424" xlink:href="#md3a9468036" y="7.2"/>
      </g>
     </g>
     <g id="text_3">
      <!-- -2 -->
      <defs>
       <path d="M 19.1875 8.296875 
L 53.609375 8.296875 
L 53.609375 0 
L 7.328125 0 
L 7.328125 8.296875 
Q 12.9375 14.109375 22.625 23.890625 
Q 32.328125 33.6875 34.8125 36.53125 
Q 39.546875 41.84375 41.421875 45.53125 
Q 43.3125 49.21875 43.3125 52.78125 
Q 43.3125 58.59375 39.234375 62.25 
Q 35.15625 65.921875 28.609375 65.921875 
Q 23.96875 65.921875 18.8125 64.3125 
Q 13.671875 62.703125 7.8125 59.421875 
L 7.8125 69.390625 
Q 13.765625 71.78125 18.9375 73 
Q 24.125 74.21875 28.421875 74.21875 
Q 39.75 74.21875 46.484375 68.546875 
Q 53.21875 62.890625 53.21875 53.421875 
Q 53.21875 48.921875 51.53125 44.890625 
Q 49.859375 40.875 45.40625 35.40625 
Q 44.1875 33.984375 37.640625 27.21875 
Q 31.109375 20.453125 19.1875 8.296875 
" id="BitstreamVeraSans-Roman-32"/>
      </defs>
      <g transform="translate(123.213285924 302.876875)scale(0.2 -0.2)">
       <use xlink:href="#BitstreamVeraSans-Roman-2d"/>
       <use x="36.083984375" xlink:href="#BitstreamVeraSans-Roman-32"/>
      </g>
     </g>
    </g>
    <g id="xtick_4">
     <g id="line2d_16">
      <path clip-path="url(#p8ddc9dab80)" d="M 175.208399 283.68 
L 175.208399 7.2 
" style="fill:none;stroke:#000000;stroke-dasharray:1.000000,3.000000;stroke-dashoffset:0.0;stroke-width:0.5;"/>
     </g>
     <g id="line2d_17">
      <g>
       <use style="stroke:#000000;stroke-width:0.5;" x="175.208398711" xlink:href="#m34d2d95ced" y="283.68"/>
      </g>
     </g>
     <g id="line2d_18">
      <g>
       <use style="stroke:#000000;stroke-width:0.5;" x="175.208398711" xlink:href="#md3a9468036" y="7.2"/>
      </g>
     </g>
     <g id="text_4">
      <!-- 0 -->
      <defs>
       <path d="M 31.78125 66.40625 
Q 24.171875 66.40625 20.328125 58.90625 
Q 16.5 51.421875 16.5 36.375 
Q 16.5 21.390625 20.328125 13.890625 
Q 24.171875 6.390625 31.78125 6.390625 
Q 39.453125 6.390625 43.28125 13.890625 
Q 47.125 21.390625 47.125 36.375 
Q 47.125 51.421875 43.28125 58.90625 
Q 39.453125 66.40625 31.78125 66.40625 
M 31.78125 74.21875 
Q 44.046875 74.21875 50.515625 64.515625 
Q 56.984375 54.828125 56.984375 36.375 
Q 56.984375 17.96875 50.515625 8.265625 
Q 44.046875 -1.421875 31.78125 -1.421875 
Q 19.53125 -1.421875 13.0625 8.265625 
Q 6.59375 17.96875 6.59375 36.375 
Q 6.59375 54.828125 13.0625 64.515625 
Q 19.53125 74.21875 31.78125 74.21875 
" id="BitstreamVeraSans-Roman-30"/>
      </defs>
      <g transform="translate(168.845898711 302.876875)scale(0.2 -0.2)">
       <use xlink:href="#BitstreamVeraSans-Roman-30"/>
      </g>
     </g>
    </g>
    <g id="xtick_5">
     <g id="line2d_19">
      <path clip-path="url(#p8ddc9dab80)" d="M 217.233199 283.68 
L 217.233199 7.2 
" style="fill:none;stroke:#000000;stroke-dasharray:1.000000,3.000000;stroke-dashoffset:0.0;stroke-width:0.5;"/>
     </g>
     <g id="line2d_20">
      <g>
       <use style="stroke:#000000;stroke-width:0.5;" x="217.233198997" xlink:href="#m34d2d95ced" y="283.68"/>
      </g>
     </g>
     <g id="line2d_21">
      <g>
       <use style="stroke:#000000;stroke-width:0.5;" x="217.233198997" xlink:href="#md3a9468036" y="7.2"/>
      </g>
     </g>
     <g id="text_5">
      <!-- 2 -->
      <g transform="translate(210.870698997 302.876875)scale(0.2 -0.2)">
       <use xlink:href="#BitstreamVeraSans-Roman-32"/>
      </g>
     </g>
    </g>
    <g id="xtick_6">
     <g id="line2d_22">
      <path clip-path="url(#p8ddc9dab80)" d="M 259.257999 283.68 
L 259.257999 7.2 
" style="fill:none;stroke:#000000;stroke-dasharray:1.000000,3.000000;stroke-dashoffset:0.0;stroke-width:0.5;"/>
     </g>
     <g id="line2d_23">
      <g>
       <use style="stroke:#000000;stroke-width:0.5;" x="259.257999284" xlink:href="#m34d2d95ced" y="283.68"/>
      </g>
     </g>
     <g id="line2d_24">
      <g>
       <use style="stroke:#000000;stroke-width:0.5;" x="259.257999284" xlink:href="#md3a9468036" y="7.2"/>
      </g>
     </g>
     <g id="text_6">
      <!-- 4 -->
      <g transform="translate(252.895499284 302.876875)scale(0.2 -0.2)">
       <use xlink:href="#BitstreamVeraSans-Roman-34"/>
      </g>
     </g>
    </g>
    <g id="xtick_7">
     <g id="line2d_25">
      <path clip-path="url(#p8ddc9dab80)" d="M 301.2828 283.68 
L 301.2828 7.2 
" style="fill:none;stroke:#000000;stroke-dasharray:1.000000,3.000000;stroke-dashoffset:0.0;stroke-width:0.5;"/>
     </g>
     <g id="line2d_26">
      <g>
       <use style="stroke:#000000;stroke-width:0.5;" x="301.28279957" xlink:href="#m34d2d95ced" y="283.68"/>
      </g>
     </g>
     <g id="line2d_27">
      <g>
       <use style="stroke:#000000;stroke-width:0.5;" x="301.28279957" xlink:href="#md3a9468036" y="7.2"/>
      </g>
     </g>
     <g id="text_7">
      <!-- 6 -->
      <g transform="translate(294.92029957 302.876875)scale(0.2 -0.2)">
       <use xlink:href="#BitstreamVeraSans-Roman-36"/>
      </g>
     </g>
    </g>
    <g id="xtick_8">
     <g id="line2d_28">
      <path clip-path="url(#p8ddc9dab80)" d="M 343.3076 283.68 
L 343.3076 7.2 
" style="fill:none;stroke:#000000;stroke-dasharray:1.000000,3.000000;stroke-dashoffset:0.0;stroke-width:0.5;"/>
     </g>
     <g id="line2d_29">
      <g>
       <use style="stroke:#000000;stroke-width:0.5;" x="343.307599857" xlink:href="#m34d2d95ced" y="283.68"/>
      </g>
     </g>
     <g id="line2d_30">
      <g>
       <use style="stroke:#000000;stroke-width:0.5;" x="343.307599857" xlink:href="#md3a9468036" y="7.2"/>
      </g>
     </g>
     <g id="text_8">
      <!-- 8 -->
      <defs>
       <path d="M 31.78125 34.625 
Q 24.75 34.625 20.71875 30.859375 
Q 16.703125 27.09375 16.703125 20.515625 
Q 16.703125 13.921875 20.71875 10.15625 
Q 24.75 6.390625 31.78125 6.390625 
Q 38.8125 6.390625 42.859375 10.171875 
Q 46.921875 13.96875 46.921875 20.515625 
Q 46.921875 27.09375 42.890625 30.859375 
Q 38.875 34.625 31.78125 34.625 
M 21.921875 38.8125 
Q 15.578125 40.375 12.03125 44.71875 
Q 8.5 49.078125 8.5 55.328125 
Q 8.5 64.0625 14.71875 69.140625 
Q 20.953125 74.21875 31.78125 74.21875 
Q 42.671875 74.21875 48.875 69.140625 
Q 55.078125 64.0625 55.078125 55.328125 
Q 55.078125 49.078125 51.53125 44.71875 
Q 48 40.375 41.703125 38.8125 
Q 48.828125 37.15625 52.796875 32.3125 
Q 56.78125 27.484375 56.78125 20.515625 
Q 56.78125 9.90625 50.3125 4.234375 
Q 43.84375 -1.421875 31.78125 -1.421875 
Q 19.734375 -1.421875 13.25 4.234375 
Q 6.78125 9.90625 6.78125 20.515625 
Q 6.78125 27.484375 10.78125 32.3125 
Q 14.796875 37.15625 21.921875 38.8125 
M 18.3125 54.390625 
Q 18.3125 48.734375 21.84375 45.5625 
Q 25.390625 42.390625 31.78125 42.390625 
Q 38.140625 42.390625 41.71875 45.5625 
Q 45.3125 48.734375 45.3125 54.390625 
Q 45.3125 60.0625 41.71875 63.234375 
Q 38.140625 66.40625 31.78125 66.40625 
Q 25.390625 66.40625 21.84375 63.234375 
Q 18.3125 60.0625 18.3125 54.390625 
" id="BitstreamVeraSans-Roman-38"/>
      </defs>
      <g transform="translate(336.945099857 302.876875)scale(0.2 -0.2)">
       <use xlink:href="#BitstreamVeraSans-Roman-38"/>
      </g>
     </g>
    </g>
    <g id="xtick_9">
     <g id="line2d_31">
      <defs>
       <path d="M 0 0 
L 0 -2 
" id="mdb1c4d12a1" style="stroke:#000000;stroke-width:0.5;"/>
      </defs>
      <g>
       <use style="stroke:#000000;stroke-width:0.5;" x="49.1339978514" xlink:href="#mdb1c4d12a1" y="283.68"/>
      </g>
     </g>
     <g id="line2d_32">
      <defs>
       <path d="M 0 0 
L 0 2 
" id="me8b7a25435" style="stroke:#000000;stroke-width:0.5;"/>
      </defs>
      <g>
       <use style="stroke:#000000;stroke-width:0.5;" x="49.1339978514" xlink:href="#me8b7a25435" y="7.2"/>
      </g>
     </g>
    </g>
    <g id="xtick_10">
     <g id="line2d_33">
      <g>
       <use style="stroke:#000000;stroke-width:0.5;" x="91.1587981379" xlink:href="#mdb1c4d12a1" y="283.68"/>
      </g>
     </g>
     <g id="line2d_34">
      <g>
       <use style="stroke:#000000;stroke-width:0.5;" x="91.1587981379" xlink:href="#me8b7a25435" y="7.2"/>
      </g>
     </g>
    </g>
    <g id="xtick_11">
     <g id="line2d_35">
      <g>
       <use style="stroke:#000000;stroke-width:0.5;" x="133.183598424" xlink:href="#mdb1c4d12a1" y="283.68"/>
      </g>
     </g>
     <g id="line2d_36">
      <g>
       <use style="stroke:#000000;stroke-width:0.5;" x="133.183598424" xlink:href="#me8b7a25435" y="7.2"/>
      </g>
     </g>
    </g>
    <g id="xtick_12">
     <g id="line2d_37">
      <g>
       <use style="stroke:#000000;stroke-width:0.5;" x="175.208398711" xlink:href="#mdb1c4d12a1" y="283.68"/>
      </g>
     </g>
     <g id="line2d_38">
      <g>
       <use style="stroke:#000000;stroke-width:0.5;" x="175.208398711" xlink:href="#me8b7a25435" y="7.2"/>
      </g>
     </g>
    </g>
    <g id="xtick_13">
     <g id="line2d_39">
      <g>
       <use style="stroke:#000000;stroke-width:0.5;" x="217.233198997" xlink:href="#mdb1c4d12a1" y="283.68"/>
      </g>
     </g>
     <g id="line2d_40">
      <g>
       <use style="stroke:#000000;stroke-width:0.5;" x="217.233198997" xlink:href="#me8b7a25435" y="7.2"/>
      </g>
     </g>
    </g>
    <g id="xtick_14">
     <g id="line2d_41">
      <g>
       <use style="stroke:#000000;stroke-width:0.5;" x="259.257999284" xlink:href="#mdb1c4d12a1" y="283.68"/>
      </g>
     </g>
     <g id="line2d_42">
      <g>
       <use style="stroke:#000000;stroke-width:0.5;" x="259.257999284" xlink:href="#me8b7a25435" y="7.2"/>
      </g>
     </g>
    </g>
    <g id="xtick_15">
     <g id="line2d_43">
      <g>
       <use style="stroke:#000000;stroke-width:0.5;" x="301.28279957" xlink:href="#mdb1c4d12a1" y="283.68"/>
      </g>
     </g>
     <g id="line2d_44">
      <g>
       <use style="stroke:#000000;stroke-width:0.5;" x="301.28279957" xlink:href="#me8b7a25435" y="7.2"/>
      </g>
     </g>
    </g>
    <g id="xtick_16">
     <g id="line2d_45">
      <g>
       <use style="stroke:#000000;stroke-width:0.5;" x="343.307599857" xlink:href="#mdb1c4d12a1" y="283.68"/>
      </g>
     </g>
     <g id="line2d_46">
      <g>
       <use style="stroke:#000000;stroke-width:0.5;" x="343.307599857" xlink:href="#me8b7a25435" y="7.2"/>
      </g>
     </g>
    </g>
    <g id="text_9">
     <!-- log10 of Df -->
     <defs>
      <path id="BitstreamVeraSans-Roman-20"/>
      <path d="M 12.40625 8.296875 
L 28.515625 8.296875 
L 28.515625 63.921875 
L 10.984375 60.40625 
L 10.984375 69.390625 
L 28.421875 72.90625 
L 38.28125 72.90625 
L 38.28125 8.296875 
L 54.390625 8.296875 
L 54.390625 0 
L 12.40625 0 
z
" id="BitstreamVeraSans-Roman-31"/>
      <path d="M 30.609375 48.390625 
Q 23.390625 48.390625 19.1875 42.75 
Q 14.984375 37.109375 14.984375 27.296875 
Q 14.984375 17.484375 19.15625 11.84375 
Q 23.34375 6.203125 30.609375 6.203125 
Q 37.796875 6.203125 41.984375 11.859375 
Q 46.1875 17.53125 46.1875 27.296875 
Q 46.1875 37.015625 41.984375 42.703125 
Q 37.796875 48.390625 30.609375 48.390625 
M 30.609375 56 
Q 42.328125 56 49.015625 48.375 
Q 55.71875 40.765625 55.71875 27.296875 
Q 55.71875 13.875 49.015625 6.21875 
Q 42.328125 -1.421875 30.609375 -1.421875 
Q 18.84375 -1.421875 12.171875 6.21875 
Q 5.515625 13.875 5.515625 27.296875 
Q 5.515625 40.765625 12.171875 48.375 
Q 18.84375 56 30.609375 56 
" id="BitstreamVeraSans-Roman-6f"/>
      <path d="M 9.421875 75.984375 
L 18.40625 75.984375 
L 18.40625 0 
L 9.421875 0 
z
" id="BitstreamVeraSans-Roman-6c"/>
      <path d="M 19.671875 64.796875 
L 19.671875 8.109375 
L 31.59375 8.109375 
Q 46.6875 8.109375 53.6875 14.9375 
Q 60.6875 21.78125 60.6875 36.53125 
Q 60.6875 51.171875 53.6875 57.984375 
Q 46.6875 64.796875 31.59375 64.796875 
z
M 9.8125 72.90625 
L 30.078125 72.90625 
Q 51.265625 72.90625 61.171875 64.09375 
Q 71.09375 55.28125 71.09375 36.53125 
Q 71.09375 17.671875 61.125 8.828125 
Q 51.171875 0 30.078125 0 
L 9.8125 0 
z
" id="BitstreamVeraSans-Roman-44"/>
      <path d="M 45.40625 27.984375 
Q 45.40625 37.75 41.375 43.109375 
Q 37.359375 48.484375 30.078125 48.484375 
Q 22.859375 48.484375 18.828125 43.109375 
Q 14.796875 37.75 14.796875 27.984375 
Q 14.796875 18.265625 18.828125 12.890625 
Q 22.859375 7.515625 30.078125 7.515625 
Q 37.359375 7.515625 41.375 12.890625 
Q 45.40625 18.265625 45.40625 27.984375 
M 54.390625 6.78125 
Q 54.390625 -7.171875 48.1875 -13.984375 
Q 42 -20.796875 29.203125 -20.796875 
Q 24.46875 -20.796875 20.265625 -20.09375 
Q 16.0625 -19.390625 12.109375 -17.921875 
L 12.109375 -9.1875 
Q 16.0625 -11.328125 19.921875 -12.34375 
Q 23.78125 -13.375 27.78125 -13.375 
Q 36.625 -13.375 41.015625 -8.765625 
Q 45.40625 -4.15625 45.40625 5.171875 
L 45.40625 9.625 
Q 42.625 4.78125 38.28125 2.390625 
Q 33.9375 0 27.875 0 
Q 17.828125 0 11.671875 7.65625 
Q 5.515625 15.328125 5.515625 27.984375 
Q 5.515625 40.671875 11.671875 48.328125 
Q 17.828125 56 27.875 56 
Q 33.9375 56 38.28125 53.609375 
Q 42.625 51.21875 45.40625 46.390625 
L 45.40625 54.6875 
L 54.390625 54.6875 
z
" id="BitstreamVeraSans-Roman-67"/>
      <path d="M 37.109375 75.984375 
L 37.109375 68.5 
L 28.515625 68.5 
Q 23.6875 68.5 21.796875 66.546875 
Q 19.921875 64.59375 19.921875 59.515625 
L 19.921875 54.6875 
L 34.71875 54.6875 
L 34.71875 47.703125 
L 19.921875 47.703125 
L 19.921875 0 
L 10.890625 0 
L 10.890625 47.703125 
L 2.296875 47.703125 
L 2.296875 54.6875 
L 10.890625 54.6875 
L 10.890625 58.5 
Q 10.890625 67.625 15.140625 71.796875 
Q 19.390625 75.984375 28.609375 75.984375 
z
" id="BitstreamVeraSans-Roman-66"/>
     </defs>
     <g transform="translate(130.5740625 327.233125)scale(0.2 -0.2)">
      <use xlink:href="#BitstreamVeraSans-Roman-6c"/>
      <use x="27.783203125" xlink:href="#BitstreamVeraSans-Roman-6f"/>
      <use x="88.96484375" xlink:href="#BitstreamVeraSans-Roman-67"/>
      <use x="152.44140625" xlink:href="#BitstreamVeraSans-Roman-31"/>
      <use x="216.064453125" xlink:href="#BitstreamVeraSans-Roman-30"/>
      <use x="279.6875" xlink:href="#BitstreamVeraSans-Roman-20"/>
      <use x="311.474609375" xlink:href="#BitstreamVeraSans-Roman-6f"/>
      <use x="372.65625" xlink:href="#BitstreamVeraSans-Roman-66"/>
      <use x="407.861328125" xlink:href="#BitstreamVeraSans-Roman-20"/>
      <use x="439.6484375" xlink:href="#BitstreamVeraSans-Roman-44"/>
      <use x="516.650390625" xlink:href="#BitstreamVeraSans-Roman-66"/>
     </g>
    </g>
   </g>
   <g id="matplotlib.axis_2">
    <g id="ytick_1">
     <g id="line2d_47">
      <path clip-path="url(#p8ddc9dab80)" d="M 7.2 283.68 
L 364.32 283.68 
" style="fill:none;stroke:#000000;stroke-dasharray:1.000000,3.000000;stroke-dashoffset:0.0;stroke-width:0.5;"/>
     </g>
     <g id="line2d_48">
      <defs>
       <path d="M 0 0 
L 4 0 
" id="m2799732b3b" style="stroke:#000000;stroke-width:0.5;"/>
      </defs>
      <g>
       <use style="stroke:#000000;stroke-width:0.5;" x="7.2" xlink:href="#m2799732b3b" y="283.68"/>
      </g>
     </g>
     <g id="line2d_49">
      <defs>
       <path d="M 0 0 
L -4 0 
" id="mae397e5b4b" style="stroke:#000000;stroke-width:0.5;"/>
      </defs>
      <g>
       <use style="stroke:#000000;stroke-width:0.5;" x="364.32" xlink:href="#mae397e5b4b" y="283.68"/>
      </g>
     </g>
    </g>
    <g id="ytick_2">
     <g id="line2d_50">
      <path clip-path="url(#p8ddc9dab80)" d="M 7.2 228.931485 
L 364.32 228.931485 
" style="fill:none;stroke:#000000;stroke-dasharray:1.000000,3.000000;stroke-dashoffset:0.0;stroke-width:0.5;"/>
     </g>
     <g id="line2d_51">
      <g>
       <use style="stroke:#000000;stroke-width:0.5;" x="7.2" xlink:href="#m2799732b3b" y="228.931485149"/>
      </g>
     </g>
     <g id="line2d_52">
      <g>
       <use style="stroke:#000000;stroke-width:0.5;" x="364.32" xlink:href="#mae397e5b4b" y="228.931485149"/>
      </g>
     </g>
    </g>
    <g id="ytick_3">
     <g id="line2d_53">
      <path clip-path="url(#p8ddc9dab80)" d="M 7.2 174.18297 
L 364.32 174.18297 
" style="fill:none;stroke:#000000;stroke-dasharray:1.000000,3.000000;stroke-dashoffset:0.0;stroke-width:0.5;"/>
     </g>
     <g id="line2d_54">
      <g>
       <use style="stroke:#000000;stroke-width:0.5;" x="7.2" xlink:href="#m2799732b3b" y="174.182970297"/>
      </g>
     </g>
     <g id="line2d_55">
      <g>
       <use style="stroke:#000000;stroke-width:0.5;" x="364.32" xlink:href="#mae397e5b4b" y="174.182970297"/>
      </g>
     </g>
    </g>
    <g id="ytick_4">
     <g id="line2d_56">
      <path clip-path="url(#p8ddc9dab80)" d="M 7.2 119.434455 
L 364.32 119.434455 
" style="fill:none;stroke:#000000;stroke-dasharray:1.000000,3.000000;stroke-dashoffset:0.0;stroke-width:0.5;"/>
     </g>
     <g id="line2d_57">
      <g>
       <use style="stroke:#000000;stroke-width:0.5;" x="7.2" xlink:href="#m2799732b3b" y="119.434455446"/>
      </g>
     </g>
     <g id="line2d_58">
      <g>
       <use style="stroke:#000000;stroke-width:0.5;" x="364.32" xlink:href="#mae397e5b4b" y="119.434455446"/>
      </g>
     </g>
    </g>
    <g id="ytick_5">
     <g id="line2d_59">
      <path clip-path="url(#p8ddc9dab80)" d="M 7.2 64.685941 
L 364.32 64.685941 
" style="fill:none;stroke:#000000;stroke-dasharray:1.000000,3.000000;stroke-dashoffset:0.0;stroke-width:0.5;"/>
     </g>
     <g id="line2d_60">
      <g>
       <use style="stroke:#000000;stroke-width:0.5;" x="7.2" xlink:href="#m2799732b3b" y="64.6859405941"/>
      </g>
     </g>
     <g id="line2d_61">
      <g>
       <use style="stroke:#000000;stroke-width:0.5;" x="364.32" xlink:href="#mae397e5b4b" y="64.6859405941"/>
      </g>
     </g>
    </g>
    <g id="ytick_6">
     <g id="line2d_62">
      <path clip-path="url(#p8ddc9dab80)" d="M 7.2 9.937426 
L 364.32 9.937426 
" style="fill:none;stroke:#000000;stroke-dasharray:1.000000,3.000000;stroke-dashoffset:0.0;stroke-width:0.5;"/>
     </g>
     <g id="line2d_63">
      <g>
       <use style="stroke:#000000;stroke-width:0.5;" x="7.2" xlink:href="#m2799732b3b" y="9.93742574257"/>
      </g>
     </g>
     <g id="line2d_64">
      <g>
       <use style="stroke:#000000;stroke-width:0.5;" x="364.32" xlink:href="#mae397e5b4b" y="9.93742574257"/>
      </g>
     </g>
    </g>
   </g>
   <g id="text_10">
    <!-- f1-24,5-D -->
    <defs>
     <path d="M 11.71875 12.40625 
L 22.015625 12.40625 
L 22.015625 4 
L 14.015625 -11.625 
L 7.71875 -11.625 
L 11.71875 4 
z
" id="BitstreamVeraSans-Roman-2c"/>
     <path d="M 10.796875 72.90625 
L 49.515625 72.90625 
L 49.515625 64.59375 
L 19.828125 64.59375 
L 19.828125 46.734375 
Q 21.96875 47.46875 24.109375 47.828125 
Q 26.265625 48.1875 28.421875 48.1875 
Q 40.625 48.1875 47.75 41.5 
Q 54.890625 34.8125 54.890625 23.390625 
Q 54.890625 11.625 47.5625 5.09375 
Q 40.234375 -1.421875 26.90625 -1.421875 
Q 22.3125 -1.421875 17.546875 -0.640625 
Q 12.796875 0.140625 7.71875 1.703125 
L 7.71875 11.625 
Q 12.109375 9.234375 16.796875 8.0625 
Q 21.484375 6.890625 26.703125 6.890625 
Q 35.15625 6.890625 40.078125 11.328125 
Q 45.015625 15.765625 45.015625 23.390625 
Q 45.015625 31 40.078125 35.4375 
Q 35.15625 39.890625 26.703125 39.890625 
Q 22.75 39.890625 18.8125 39.015625 
Q 14.890625 38.140625 10.796875 36.28125 
z
" id="BitstreamVeraSans-Roman-35"/>
    </defs>
    <g transform="translate(263.049475 278.1504)scale(0.2 -0.2)">
     <use xlink:href="#BitstreamVeraSans-Roman-66"/>
     <use x="35.205078125" xlink:href="#BitstreamVeraSans-Roman-31"/>
     <use x="98.828125" xlink:href="#BitstreamVeraSans-Roman-2d"/>
     <use x="134.912109375" xlink:href="#BitstreamVeraSans-Roman-32"/>
     <use x="198.53515625" xlink:href="#BitstreamVeraSans-Roman-34"/>
     <use x="262.158203125" xlink:href="#BitstreamVeraSans-Roman-2c"/>
     <use x="293.9453125" xlink:href="#BitstreamVeraSans-Roman-35"/>
     <use x="357.568359375" xlink:href="#BitstreamVeraSans-Roman-2d"/>
     <use x="393.65234375" xlink:href="#BitstreamVeraSans-Roman-44"/>
    </g>
   </g>
  </g>
 </g>
 <defs>
  <clipPath id="p8ddc9dab80">
   <rect height="276.48" width="357.12" x="7.2" y="7.2"/>
  </clipPath>
 </defs>
</svg>
