<?xml version="1.0" encoding="utf-8" standalone="no"?>
<!DOCTYPE svg PUBLIC "-//W3C//DTD SVG 1.1//EN"
  "http://www.w3.org/Graphics/SVG/1.1/DTD/svg11.dtd">
<!-- Created with matplotlib (http://matplotlib.org/) -->
<svg height="338pt" version="1.1" viewBox="0 0 371 338" width="371pt" xmlns="http://www.w3.org/2000/svg" xmlns:xlink="http://www.w3.org/1999/xlink">
 <defs>
  <style type="text/css">
*{stroke-linecap:butt;stroke-linejoin:round;stroke-miterlimit:100000;}
  </style>
 </defs>
 <g id="figure_1">
  <g id="patch_1">
   <path d="M 0 338.5925 
L 371.52 338.5925 
L 371.52 0 
L 0 0 
z
" style="fill:#ffffff;"/>
  </g>
  <g id="axes_1">
   <g id="patch_2">
    <path d="M 7.2 283.68 
L 364.32 283.68 
L 364.32 7.2 
L 7.2 7.2 
z
" style="fill:#ffffff;"/>
   </g>
   <g id="line2d_1">
    <path clip-path="url(#p40e1bf3962)" d="M 180.261933 283.68 
L 180.261933 280.030099 
L 183.120312 280.030099 
L 183.120312 276.380198 
L 185.277264 276.380198 
L 185.277264 272.730297 
L 186.954025 272.730297 
L 186.954025 269.080396 
L 187.918793 269.080396 
L 187.918793 265.430495 
L 189.895436 265.430495 
L 189.997538 258.130693 
L 191.067007 258.130693 
L 191.067007 254.480792 
L 191.634521 254.480792 
L 191.683401 247.18099 
L 192.083082 247.18099 
L 192.083082 243.531089 
L 192.371933 243.531089 
L 192.371933 239.881188 
L 192.517959 239.881188 
L 192.517959 236.231287 
L 192.74706 236.231287 
L 192.74706 232.581386 
L 194.67408 232.581386 
L 194.67408 228.931485 
L 194.91662 228.931485 
L 194.91662 225.281584 
L 195.182 225.281584 
L 195.182 221.631683 
L 195.642497 221.631683 
L 195.642497 217.981782 
L 197.743994 217.981782 
L 197.743994 214.331881 
L 198.010812 214.331881 
L 198.010812 210.68198 
L 199.083714 210.68198 
L 199.083714 207.032079 
L 199.355547 207.032079 
L 199.355547 203.382178 
L 199.897785 203.382178 
L 199.897785 199.732277 
L 200.10093 199.732277 
L 200.10093 196.082376 
L 200.815141 196.082376 
L 200.815141 192.432475 
L 202.122859 192.432475 
L 202.122859 188.782574 
L 203.854808 188.782574 
L 203.854808 185.132673 
L 204.324561 185.132673 
L 204.324561 181.482772 
L 205.750171 181.482772 
L 205.750171 177.832871 
L 206.000371 177.832871 
L 206.000371 174.18297 
L 209.439159 174.18297 
L 209.439159 170.533069 
L 209.712003 170.533069 
L 209.728534 163.233267 
L 210.109693 163.233267 
L 210.109693 159.583366 
L 210.374706 159.583366 
L 210.374706 155.933465 
L 211.387305 155.933465 
L 211.387305 152.283564 
L 211.552908 152.283564 
L 211.552908 148.633663 
L 211.850914 148.633663 
L 211.850914 144.983762 
L 212.160223 144.983762 
L 212.160223 141.333861 
L 212.373802 141.333861 
L 212.373802 137.68396 
L 212.493699 137.68396 
L 212.594617 126.734257 
L 212.624568 126.734257 
L 212.624568 123.084356 
L 212.840608 123.084356 
L 212.903734 115.784554 
L 212.962173 115.784554 
L 212.971918 108.484752 
L 213.629934 108.484752 
L 213.629934 104.834851 
L 214.379127 104.834851 
L 214.379127 101.18495 
L 214.681063 101.18495 
L 214.681063 97.53505 
L 214.824163 97.53505 
L 214.828373 90.235248 
L 214.962875 90.235248 
L 215.047165 79.285545 
L 217.424351 79.285545 
L 217.424351 75.635644 
L 217.655496 75.635644 
L 217.655496 71.985743 
L 217.895139 71.985743 
L 217.895139 68.335842 
L 218.121091 68.335842 
L 218.121091 64.685941 
L 241.330573 64.685941 
L 241.330573 61.03604 
L 250.24485 61.03604 
L 250.24485 57.386139 
L 258.095939 57.386139 
L 258.095939 53.736238 
L 259.388407 53.736238 
L 259.388407 50.086337 
L 259.749274 50.086337 
L 259.838772 42.786535 
L 262.418983 42.786535 
L 262.444251 35.486733 
L 264.510057 35.486733 
L 264.55486 28.186931 
L 267.37944 28.186931 
L 267.37944 24.53703 
L 268.087596 24.53703 
L 268.087596 20.887129 
L 269.17091 20.887129 
L 269.17091 17.237228 
L 271.366433 17.237228 
L 271.366433 13.587327 
L 271.610298 13.587327 
L 271.610298 9.937426 
L 364.32 9.937426 
L 364.32 9.937426 
" style="fill:none;stroke:#ff0000;stroke-linecap:square;stroke-width:3.0;"/>
   </g>
   <g id="line2d_2">
    <path clip-path="url(#p40e1bf3962)" d="M 200.893036 283.68 
L 200.893036 280.030099 
L 206.25472 280.030099 
L 206.25472 276.380198 
L 208.4153 276.380198 
L 208.4153 272.730297 
L 208.963351 272.730297 
L 208.963351 269.080396 
L 209.899146 269.080396 
L 209.899146 265.430495 
L 210.658719 265.430495 
L 210.658719 261.780594 
L 210.924626 261.780594 
L 210.995669 254.480792 
L 211.097681 254.480792 
L 211.097681 250.830891 
L 211.283875 250.830891 
L 211.283875 247.18099 
L 212.056226 247.18099 
L 212.056226 243.531089 
L 213.255996 243.531089 
L 213.255996 239.881188 
L 213.676742 239.881188 
L 213.676742 236.231287 
L 214.06766 236.231287 
L 214.06766 232.581386 
L 215.015602 232.581386 
L 215.015602 228.931485 
L 215.384516 228.931485 
L 215.384516 225.281584 
L 215.52275 225.281584 
L 215.596778 217.981782 
L 215.755072 217.981782 
L 215.755072 214.331881 
L 215.957666 214.331881 
L 215.957666 210.68198 
L 216.233239 210.68198 
L 216.233239 207.032079 
L 216.597279 207.032079 
L 216.597279 203.382178 
L 216.78607 203.382178 
L 216.78607 199.732277 
L 217.079288 199.732277 
L 217.113748 192.432475 
L 217.263783 192.432475 
L 217.263783 188.782574 
L 217.409267 188.782574 
L 217.409267 185.132673 
L 217.581195 185.132673 
L 217.581195 181.482772 
L 217.791972 181.482772 
L 217.791972 177.832871 
L 218.89093 177.832871 
L 218.89093 174.18297 
L 219.507115 174.18297 
L 219.507115 170.533069 
L 219.687743 170.533069 
L 219.754882 163.233267 
L 220.326858 163.233267 
L 220.326858 159.583366 
L 221.164213 159.583366 
L 221.164213 155.933465 
L 222.156086 155.933465 
L 222.156086 152.283564 
L 223.400861 152.283564 
L 223.400861 148.633663 
L 224.101585 148.633663 
L 224.101585 144.983762 
L 224.225206 144.983762 
L 224.324589 137.68396 
L 225.505939 137.68396 
L 225.505939 134.034059 
L 225.654415 134.034059 
L 225.654415 130.384158 
L 226.423151 130.384158 
L 226.423151 126.734257 
L 226.704227 126.734257 
L 226.704227 123.084356 
L 227.600874 123.084356 
L 227.600874 119.434455 
L 228.279429 119.434455 
L 228.279429 115.784554 
L 230.167717 115.784554 
L 230.241154 108.484752 
L 231.291376 108.484752 
L 231.382076 101.18495 
L 232.503914 101.18495 
L 232.503914 97.53505 
L 233.140117 97.53505 
L 233.140117 93.885149 
L 234.55071 93.885149 
L 234.55071 90.235248 
L 235.293301 90.235248 
L 235.293301 86.585347 
L 235.86885 86.585347 
L 235.86885 82.935446 
L 237.512552 82.935446 
L 237.512552 79.285545 
L 237.634822 79.285545 
L 237.634822 75.635644 
L 239.353955 75.635644 
L 239.353955 71.985743 
L 243.479185 71.985743 
L 243.479185 68.335842 
L 250.225886 68.335842 
L 250.225886 64.685941 
L 288.555042 64.685941 
L 288.555042 61.03604 
L 292.42847 61.03604 
L 292.42847 57.386139 
L 293.629059 57.386139 
L 293.629059 53.736238 
L 296.396194 53.736238 
L 296.396194 50.086337 
L 299.671471 50.086337 
L 299.671471 46.436436 
L 307.957728 46.436436 
L 308.018202 39.136634 
L 310.041434 39.136634 
L 310.041434 35.486733 
L 311.205928 35.486733 
L 311.205928 31.836832 
L 314.274665 31.836832 
L 314.274665 28.186931 
L 318.171868 28.186931 
L 318.171868 24.53703 
L 320.060446 24.53703 
L 320.060446 20.887129 
L 322.495449 20.887129 
L 322.495449 17.237228 
L 324.468665 17.237228 
L 324.468665 13.587327 
L 326.702716 13.587327 
L 326.702716 9.937426 
L 364.32 9.937426 
L 364.32 9.937426 
" style="fill:none;stroke:#00bfbf;stroke-linecap:square;"/>
   </g>
   <g id="line2d_3">
    <path clip-path="url(#p40e1bf3962)" d="M 180.261943 283.68 
L 180.261943 280.030099 
L 199.561386 280.030099 
L 199.561386 276.380198 
L 200.386711 276.380198 
L 200.386711 272.730297 
L 200.893036 272.730297 
L 200.893036 269.080396 
L 203.080867 269.080396 
L 203.080867 265.430495 
L 204.562239 265.430495 
L 204.562239 261.780594 
L 205.16851 261.780594 
L 205.16851 258.130693 
L 206.25472 258.130693 
L 206.25472 254.480792 
L 206.425642 254.480792 
L 206.425642 250.830891 
L 208.4153 250.830891 
L 208.4153 247.18099 
L 208.534022 247.18099 
L 208.534022 243.531089 
L 208.963351 243.531089 
L 208.963351 239.881188 
L 209.704468 239.881188 
L 209.814242 232.581386 
L 210.168002 232.581386 
L 210.168002 228.931485 
L 210.52755 228.931485 
L 210.52755 225.281584 
L 210.905353 225.281584 
L 210.924626 217.981782 
L 211.097681 217.981782 
L 211.097681 214.331881 
L 211.283875 214.331881 
L 211.283875 210.68198 
L 211.612713 210.68198 
L 211.719043 203.382178 
L 212.755567 203.382178 
L 212.755567 199.732277 
L 213.822752 199.732277 
L 213.907009 192.432475 
L 214.283601 192.432475 
L 214.283601 188.782574 
L 215.025373 188.782574 
L 215.025373 185.132673 
L 215.384516 185.132673 
L 215.384516 181.482772 
L 215.499227 181.482772 
L 215.499227 177.832871 
L 215.755072 177.832871 
L 215.755072 174.18297 
L 216.233239 174.18297 
L 216.233239 170.533069 
L 217.113748 170.533069 
L 217.113748 166.883168 
L 217.263783 166.883168 
L 217.300672 159.583366 
L 217.938358 159.583366 
L 218.022281 152.283564 
L 220.022758 152.283564 
L 220.122191 144.983762 
L 220.326858 144.983762 
L 220.326858 141.333861 
L 220.974465 141.333861 
L 220.974465 137.68396 
L 221.164213 137.68396 
L 221.164213 134.034059 
L 221.587071 134.034059 
L 221.587071 130.384158 
L 222.156086 130.384158 
L 222.156086 126.734257 
L 223.400861 126.734257 
L 223.400861 123.084356 
L 223.619971 123.084356 
L 223.619971 119.434455 
L 224.00601 119.434455 
L 224.00601 115.784554 
L 224.324589 115.784554 
L 224.324589 112.134653 
L 225.654415 112.134653 
L 225.654415 108.484752 
L 226.029372 108.484752 
L 226.029372 104.834851 
L 227.533672 104.834851 
L 227.600874 97.53505 
L 227.801668 97.53505 
L 227.801668 93.885149 
L 228.539797 93.885149 
L 228.632638 86.585347 
L 229.79429 86.585347 
L 229.79429 82.935446 
L 230.969163 82.935446 
L 230.969163 79.285545 
L 231.204937 79.285545 
L 231.204937 75.635644 
L 232.972695 75.635644 
L 232.972695 71.985743 
L 235.062327 71.985743 
L 235.062327 68.335842 
L 235.86885 68.335842 
L 235.86885 64.685941 
L 288.555042 64.685941 
L 288.555042 61.03604 
L 288.909612 61.03604 
L 288.909612 57.386139 
L 290.231177 57.386139 
L 290.231177 53.736238 
L 290.890339 53.736238 
L 290.890339 50.086337 
L 292.42847 50.086337 
L 292.42847 46.436436 
L 293.629059 46.436436 
L 293.629059 42.786535 
L 296.396194 42.786535 
L 296.396194 39.136634 
L 297.71373 39.136634 
L 297.71373 35.486733 
L 303.711656 35.486733 
L 303.711656 31.836832 
L 305.556854 31.836832 
L 305.556854 28.186931 
L 306.204075 28.186931 
L 306.204075 24.53703 
L 307.957728 24.53703 
L 307.974466 17.237228 
L 310.041434 17.237228 
L 310.041434 13.587327 
L 317.560429 13.587327 
L 317.560429 9.937426 
L 364.32 9.937426 
L 364.32 9.937426 
" style="fill:none;stroke:#bf00bf;stroke-linecap:square;"/>
   </g>
   <g id="line2d_4">
    <path clip-path="url(#p40e1bf3962)" d="M 180.261943 283.68 
L 180.261943 280.030099 
L 185.281974 280.030099 
L 185.281974 276.380198 
L 191.918143 276.380198 
L 191.918143 272.730297 
L 196.661821 272.730297 
L 196.661821 269.080396 
L 197.070116 269.080396 
L 197.070116 265.430495 
L 198.189808 265.430495 
L 198.189808 261.780594 
L 198.72201 261.780594 
L 198.72201 258.130693 
L 199.417959 258.130693 
L 199.417959 254.480792 
L 199.561386 254.480792 
L 199.561386 250.830891 
L 199.704951 250.830891 
L 199.704951 247.18099 
L 200.386711 247.18099 
L 200.386711 243.531089 
L 202.934527 243.531089 
L 202.934527 239.881188 
L 203.080867 239.881188 
L 203.080867 236.231287 
L 204.891235 236.231287 
L 204.891235 232.581386 
L 208.4153 232.581386 
L 208.4153 228.931485 
L 209.568214 228.931485 
L 209.568214 225.281584 
L 209.704468 225.281584 
L 209.704468 221.631683 
L 209.994372 221.631683 
L 210.003195 214.331881 
L 210.168002 214.331881 
L 210.247931 207.032079 
L 210.390376 207.032079 
L 210.390376 203.382178 
L 210.52755 203.382178 
L 210.52755 199.732277 
L 210.848994 199.732277 
L 210.848994 196.082376 
L 211.072238 196.082376 
L 211.072238 192.432475 
L 211.283875 192.432475 
L 211.283875 188.782574 
L 211.686597 188.782574 
L 211.686597 185.132673 
L 212.11479 185.132673 
L 212.11479 181.482772 
L 212.401151 181.482772 
L 212.440107 174.18297 
L 213.286354 174.18297 
L 213.286354 170.533069 
L 213.822752 170.533069 
L 213.822752 166.883168 
L 217.113748 166.883168 
L 217.113748 163.233267 
L 217.263783 163.233267 
L 217.263783 159.583366 
L 217.938358 159.583366 
L 218.022281 152.283564 
L 218.283909 152.283564 
L 218.283909 148.633663 
L 218.726471 148.633663 
L 218.726471 144.983762 
L 219.715089 144.983762 
L 219.715089 141.333861 
L 220.022758 141.333861 
L 220.076859 134.034059 
L 220.326858 134.034059 
L 220.326858 130.384158 
L 220.764014 130.384158 
L 220.764014 126.734257 
L 220.974465 126.734257 
L 220.974465 123.084356 
L 221.097978 123.084356 
L 221.164213 115.784554 
L 221.253557 115.784554 
L 221.253557 112.134653 
L 221.71509 112.134653 
L 221.71509 108.484752 
L 222.156086 108.484752 
L 222.156086 104.834851 
L 222.648879 104.834851 
L 222.648879 101.18495 
L 222.810815 101.18495 
L 222.810815 97.53505 
L 223.126989 97.53505 
L 223.208702 90.235248 
L 223.872587 90.235248 
L 223.872587 86.585347 
L 224.00601 86.585347 
L 224.00601 82.935446 
L 224.43446 82.935446 
L 224.43446 79.285545 
L 224.760312 79.285545 
L 224.760312 75.635644 
L 225.057727 75.635644 
L 225.057727 71.985743 
L 225.668823 71.985743 
L 225.668823 68.335842 
L 226.789997 68.335842 
L 226.789997 64.685941 
L 258.177822 64.685941 
L 258.177822 61.03604 
L 282.014471 61.03604 
L 282.014471 57.386139 
L 283.166568 57.386139 
L 283.166568 53.736238 
L 285.110112 53.736238 
L 285.110112 50.086337 
L 285.654526 50.086337 
L 285.654526 46.436436 
L 286.093092 46.436436 
L 286.204189 39.136634 
L 288.514329 39.136634 
L 288.555042 31.836832 
L 288.909612 31.836832 
L 288.909612 28.186931 
L 290.890339 28.186931 
L 290.890339 24.53703 
L 296.004894 24.53703 
L 296.004894 20.887129 
L 296.396194 20.887129 
L 296.396194 17.237228 
L 296.880588 17.237228 
L 296.880588 13.587327 
L 305.556854 13.587327 
L 305.556854 9.937426 
L 364.32 9.937426 
L 364.32 9.937426 
" style="fill:none;stroke:#000000;stroke-linecap:square;"/>
   </g>
   <g id="line2d_5">
    <path clip-path="url(#p40e1bf3962)" d="M 180.261943 283.68 
L 180.261943 280.030099 
L 185.281974 280.030099 
L 185.281974 276.380198 
L 191.918143 276.380198 
L 191.978537 269.080396 
L 193.004123 269.080396 
L 193.062935 261.780594 
L 196.661821 261.780594 
L 196.661821 258.130693 
L 196.901856 258.130693 
L 196.901856 254.480792 
L 197.070116 254.480792 
L 197.070116 250.830891 
L 198.189808 250.830891 
L 198.24592 243.531089 
L 199.008708 243.531089 
L 199.008708 239.881188 
L 199.704951 239.881188 
L 199.704951 236.231287 
L 200.351294 236.231287 
L 200.386711 228.931485 
L 202.122859 228.931485 
L 202.122859 225.281584 
L 202.886813 225.281584 
L 202.886813 221.631683 
L 204.598294 221.631683 
L 204.598294 217.981782 
L 205.283097 217.981782 
L 205.283097 214.331881 
L 205.517121 214.331881 
L 205.517121 210.68198 
L 206.101977 210.68198 
L 206.101977 207.032079 
L 207.606366 207.032079 
L 207.606366 203.382178 
L 207.815592 203.382178 
L 207.815592 199.732277 
L 208.406352 199.732277 
L 208.406352 196.082376 
L 209.568214 196.082376 
L 209.605744 185.132673 
L 209.961069 185.132673 
L 209.961069 181.482772 
L 210.15907 181.482772 
L 210.15907 177.832871 
L 211.232032 177.832871 
L 211.283875 166.883168 
L 211.615696 166.883168 
L 211.615696 163.233267 
L 212.962173 163.233267 
L 212.962173 159.583366 
L 214.681063 159.583366 
L 214.681063 155.933465 
L 214.93582 155.933465 
L 214.945291 148.633663 
L 215.274413 148.633663 
L 215.274413 144.983762 
L 215.412828 144.983762 
L 215.412828 141.333861 
L 215.813338 141.333861 
L 215.813338 137.68396 
L 216.291969 137.68396 
L 216.291969 134.034059 
L 216.477079 134.034059 
L 216.477079 130.384158 
L 216.795243 130.384158 
L 216.795243 126.734257 
L 217.277404 126.734257 
L 217.277404 123.084356 
L 217.689682 123.084356 
L 217.689682 119.434455 
L 217.938358 119.434455 
L 217.938358 115.784554 
L 218.283909 115.784554 
L 218.322467 108.484752 
L 218.726471 108.484752 
L 218.726471 104.834851 
L 219.128692 104.834851 
L 219.19034 97.53505 
L 219.27965 97.53505 
L 219.27965 93.885149 
L 219.475533 93.885149 
L 219.475533 90.235248 
L 219.824321 90.235248 
L 219.824321 86.585347 
L 220.022758 86.585347 
L 220.076859 79.285545 
L 220.326858 79.285545 
L 220.42034 71.985743 
L 221.44311 71.985743 
L 221.44311 68.335842 
L 221.726574 68.335842 
L 221.726574 64.685941 
L 258.177822 64.685941 
L 258.177822 61.03604 
L 259.749307 61.03604 
L 259.749307 57.386139 
L 269.975308 57.386139 
L 269.975308 53.736238 
L 274.786742 53.736238 
L 274.786742 50.086337 
L 279.055149 50.086337 
L 279.055149 46.436436 
L 281.355135 46.436436 
L 281.355135 42.786535 
L 282.014471 42.786535 
L 282.014471 39.136634 
L 283.166568 39.136634 
L 283.166568 35.486733 
L 283.305781 35.486733 
L 283.305781 31.836832 
L 284.013491 31.836832 
L 284.013491 28.186931 
L 287.945857 28.186931 
L 287.945857 24.53703 
L 288.065498 24.53703 
L 288.065498 20.887129 
L 288.500573 20.887129 
L 288.500573 17.237228 
L 288.972443 17.237228 
L 288.972443 13.587327 
L 290.890339 13.587327 
L 290.890339 9.937426 
L 364.32 9.937426 
L 364.32 9.937426 
" style="fill:none;stroke:#00bfbf;stroke-linecap:square;"/>
   </g>
   <g id="line2d_6">
    <path clip-path="url(#p40e1bf3962)" d="M 180.261933 283.68 
L 180.261933 280.030099 
L 183.120312 280.030099 
L 183.120312 276.380198 
L 185.277264 276.380198 
L 185.277264 272.730297 
L 187.918793 272.730297 
L 187.918793 269.080396 
L 189.895436 269.080396 
L 189.895436 265.430495 
L 190.070481 265.430495 
L 190.070481 261.780594 
L 191.067007 261.780594 
L 191.067007 258.130693 
L 191.634521 258.130693 
L 191.683401 250.830891 
L 192.083082 250.830891 
L 192.083082 247.18099 
L 192.517959 247.18099 
L 192.517959 243.531089 
L 192.77973 243.531089 
L 192.77973 239.881188 
L 193.062927 239.881188 
L 193.062927 236.231287 
L 194.67408 236.231287 
L 194.67408 232.581386 
L 194.91662 232.581386 
L 194.91662 228.931485 
L 195.182 228.931485 
L 195.182 225.281584 
L 195.642497 225.281584 
L 195.642497 221.631683 
L 197.743994 221.631683 
L 197.743994 217.981782 
L 198.106716 217.981782 
L 198.106716 214.331881 
L 199.083714 214.331881 
L 199.083714 210.68198 
L 199.355547 210.68198 
L 199.355547 207.032079 
L 199.897785 207.032079 
L 199.897785 203.382178 
L 200.815141 203.382178 
L 200.815141 199.732277 
L 201.454823 199.732277 
L 201.454823 196.082376 
L 202.122859 196.082376 
L 202.122859 192.432475 
L 203.854808 192.432475 
L 203.854808 188.782574 
L 204.499606 188.782574 
L 204.499606 185.132673 
L 205.174629 185.132673 
L 205.174629 181.482772 
L 205.750171 181.482772 
L 205.750171 177.832871 
L 206.000371 177.832871 
L 206.000371 174.18297 
L 209.439159 174.18297 
L 209.439159 170.533069 
L 209.712003 170.533069 
L 209.728534 163.233267 
L 210.109693 163.233267 
L 210.109693 159.583366 
L 210.374706 159.583366 
L 210.374706 155.933465 
L 211.552908 155.933465 
L 211.552908 152.283564 
L 211.788216 152.283564 
L 211.850914 144.983762 
L 212.160223 144.983762 
L 212.160223 141.333861 
L 212.373802 141.333861 
L 212.373802 137.68396 
L 212.493699 137.68396 
L 212.594617 126.734257 
L 212.624568 126.734257 
L 212.624568 123.084356 
L 212.955708 123.084356 
L 212.971918 112.134653 
L 213.629934 112.134653 
L 213.629934 108.484752 
L 213.755301 108.484752 
L 213.755301 104.834851 
L 214.379127 104.834851 
L 214.379127 101.18495 
L 214.681063 101.18495 
L 214.681063 97.53505 
L 214.824163 97.53505 
L 214.824163 93.885149 
L 214.982713 93.885149 
L 215.082816 82.935446 
L 215.235427 82.935446 
L 215.235427 79.285545 
L 217.424351 79.285545 
L 217.424351 75.635644 
L 217.655496 75.635644 
L 217.655496 71.985743 
L 217.895139 71.985743 
L 217.895139 68.335842 
L 218.121091 68.335842 
L 218.121091 64.685941 
L 241.330573 64.685941 
L 241.330573 61.03604 
L 258.095939 61.03604 
L 258.095939 57.386139 
L 259.388407 57.386139 
L 259.388407 53.736238 
L 259.749274 53.736238 
L 259.749274 50.086337 
L 262.418983 50.086337 
L 262.418983 46.436436 
L 264.257684 46.436436 
L 264.257684 42.786535 
L 264.510057 42.786535 
L 264.55486 35.486733 
L 267.37944 35.486733 
L 267.37944 31.836832 
L 268.087596 31.836832 
L 268.087596 28.186931 
L 268.609439 28.186931 
L 268.609439 24.53703 
L 269.17091 24.53703 
L 269.17091 20.887129 
L 271.366433 20.887129 
L 271.366433 17.237228 
L 271.610298 17.237228 
L 271.610298 13.587327 
L 277.127519 13.587327 
L 277.127519 9.937426 
L 364.32 9.937426 
L 364.32 9.937426 
" style="fill:none;stroke:#bf00bf;stroke-linecap:square;"/>
   </g>
   <g id="patch_3">
    <path d="M 7.2 7.2 
L 364.32 7.2 
" style="fill:none;stroke:#000000;stroke-linecap:square;stroke-linejoin:miter;"/>
   </g>
   <g id="patch_4">
    <path d="M 364.32 283.68 
L 364.32 7.2 
" style="fill:none;stroke:#000000;stroke-linecap:square;stroke-linejoin:miter;"/>
   </g>
   <g id="patch_5">
    <path d="M 7.2 283.68 
L 364.32 283.68 
" style="fill:none;stroke:#000000;stroke-linecap:square;stroke-linejoin:miter;"/>
   </g>
   <g id="patch_6">
    <path d="M 7.2 283.68 
L 7.2 7.2 
" style="fill:none;stroke:#000000;stroke-linecap:square;stroke-linejoin:miter;"/>
   </g>
   <g id="matplotlib.axis_1">
    <g id="xtick_1">
     <g id="line2d_7">
      <path clip-path="url(#p40e1bf3962)" d="M 49.133998 283.68 
L 49.133998 7.2 
" style="fill:none;stroke:#000000;stroke-dasharray:1.000000,3.000000;stroke-dashoffset:0.0;stroke-width:0.5;"/>
     </g>
     <g id="line2d_8">
      <defs>
       <path d="M 0 0 
L 0 -4 
" id="m2a93cb1acc" style="stroke:#000000;stroke-width:0.5;"/>
      </defs>
      <g>
       <use style="stroke:#000000;stroke-width:0.5;" x="49.1339978514" xlink:href="#m2a93cb1acc" y="283.68"/>
      </g>
     </g>
     <g id="line2d_9">
      <defs>
       <path d="M 0 0 
L 0 4 
" id="m5d41666c6d" style="stroke:#000000;stroke-width:0.5;"/>
      </defs>
      <g>
       <use style="stroke:#000000;stroke-width:0.5;" x="49.1339978514" xlink:href="#m5d41666c6d" y="7.2"/>
      </g>
     </g>
     <g id="text_1">
      <!-- -6 -->
      <defs>
       <path d="M 33.015625 40.375 
Q 26.375 40.375 22.484375 35.828125 
Q 18.609375 31.296875 18.609375 23.390625 
Q 18.609375 15.53125 22.484375 10.953125 
Q 26.375 6.390625 33.015625 6.390625 
Q 39.65625 6.390625 43.53125 10.953125 
Q 47.40625 15.53125 47.40625 23.390625 
Q 47.40625 31.296875 43.53125 35.828125 
Q 39.65625 40.375 33.015625 40.375 
M 52.59375 71.296875 
L 52.59375 62.3125 
Q 48.875 64.0625 45.09375 64.984375 
Q 41.3125 65.921875 37.59375 65.921875 
Q 27.828125 65.921875 22.671875 59.328125 
Q 17.53125 52.734375 16.796875 39.40625 
Q 19.671875 43.65625 24.015625 45.921875 
Q 28.375 48.1875 33.59375 48.1875 
Q 44.578125 48.1875 50.953125 41.515625 
Q 57.328125 34.859375 57.328125 23.390625 
Q 57.328125 12.15625 50.6875 5.359375 
Q 44.046875 -1.421875 33.015625 -1.421875 
Q 20.359375 -1.421875 13.671875 8.265625 
Q 6.984375 17.96875 6.984375 36.375 
Q 6.984375 53.65625 15.1875 63.9375 
Q 23.390625 74.21875 37.203125 74.21875 
Q 40.921875 74.21875 44.703125 73.484375 
Q 48.484375 72.75 52.59375 71.296875 
" id="BitstreamVeraSans-Roman-36"/>
       <path d="M 4.890625 31.390625 
L 31.203125 31.390625 
L 31.203125 23.390625 
L 4.890625 23.390625 
z
" id="BitstreamVeraSans-Roman-2d"/>
      </defs>
      <g transform="translate(39.1636853514 302.876875)scale(0.2 -0.2)">
       <use xlink:href="#BitstreamVeraSans-Roman-2d"/>
       <use x="36.083984375" xlink:href="#BitstreamVeraSans-Roman-36"/>
      </g>
     </g>
    </g>
    <g id="xtick_2">
     <g id="line2d_10">
      <path clip-path="url(#p40e1bf3962)" d="M 91.158798 283.68 
L 91.158798 7.2 
" style="fill:none;stroke:#000000;stroke-dasharray:1.000000,3.000000;stroke-dashoffset:0.0;stroke-width:0.5;"/>
     </g>
     <g id="line2d_11">
      <g>
       <use style="stroke:#000000;stroke-width:0.5;" x="91.1587981379" xlink:href="#m2a93cb1acc" y="283.68"/>
      </g>
     </g>
     <g id="line2d_12">
      <g>
       <use style="stroke:#000000;stroke-width:0.5;" x="91.1587981379" xlink:href="#m5d41666c6d" y="7.2"/>
      </g>
     </g>
     <g id="text_2">
      <!-- -4 -->
      <defs>
       <path d="M 37.796875 64.3125 
L 12.890625 25.390625 
L 37.796875 25.390625 
z
M 35.203125 72.90625 
L 47.609375 72.90625 
L 47.609375 25.390625 
L 58.015625 25.390625 
L 58.015625 17.1875 
L 47.609375 17.1875 
L 47.609375 0 
L 37.796875 0 
L 37.796875 17.1875 
L 4.890625 17.1875 
L 4.890625 26.703125 
z
" id="BitstreamVeraSans-Roman-34"/>
      </defs>
      <g transform="translate(81.1884856379 302.876875)scale(0.2 -0.2)">
       <use xlink:href="#BitstreamVeraSans-Roman-2d"/>
       <use x="36.083984375" xlink:href="#BitstreamVeraSans-Roman-34"/>
      </g>
     </g>
    </g>
    <g id="xtick_3">
     <g id="line2d_13">
      <path clip-path="url(#p40e1bf3962)" d="M 133.183598 283.68 
L 133.183598 7.2 
" style="fill:none;stroke:#000000;stroke-dasharray:1.000000,3.000000;stroke-dashoffset:0.0;stroke-width:0.5;"/>
     </g>
     <g id="line2d_14">
      <g>
       <use style="stroke:#000000;stroke-width:0.5;" x="133.183598424" xlink:href="#m2a93cb1acc" y="283.68"/>
      </g>
     </g>
     <g id="line2d_15">
      <g>
       <use style="stroke:#000000;stroke-width:0.5;" x="133.183598424" xlink:href="#m5d41666c6d" y="7.2"/>
      </g>
     </g>
     <g id="text_3">
      <!-- -2 -->
      <defs>
       <path d="M 19.1875 8.296875 
L 53.609375 8.296875 
L 53.609375 0 
L 7.328125 0 
L 7.328125 8.296875 
Q 12.9375 14.109375 22.625 23.890625 
Q 32.328125 33.6875 34.8125 36.53125 
Q 39.546875 41.84375 41.421875 45.53125 
Q 43.3125 49.21875 43.3125 52.78125 
Q 43.3125 58.59375 39.234375 62.25 
Q 35.15625 65.921875 28.609375 65.921875 
Q 23.96875 65.921875 18.8125 64.3125 
Q 13.671875 62.703125 7.8125 59.421875 
L 7.8125 69.390625 
Q 13.765625 71.78125 18.9375 73 
Q 24.125 74.21875 28.421875 74.21875 
Q 39.75 74.21875 46.484375 68.546875 
Q 53.21875 62.890625 53.21875 53.421875 
Q 53.21875 48.921875 51.53125 44.890625 
Q 49.859375 40.875 45.40625 35.40625 
Q 44.1875 33.984375 37.640625 27.21875 
Q 31.109375 20.453125 19.1875 8.296875 
" id="BitstreamVeraSans-Roman-32"/>
      </defs>
      <g transform="translate(123.213285924 302.876875)scale(0.2 -0.2)">
       <use xlink:href="#BitstreamVeraSans-Roman-2d"/>
       <use x="36.083984375" xlink:href="#BitstreamVeraSans-Roman-32"/>
      </g>
     </g>
    </g>
    <g id="xtick_4">
     <g id="line2d_16">
      <path clip-path="url(#p40e1bf3962)" d="M 175.208399 283.68 
L 175.208399 7.2 
" style="fill:none;stroke:#000000;stroke-dasharray:1.000000,3.000000;stroke-dashoffset:0.0;stroke-width:0.5;"/>
     </g>
     <g id="line2d_17">
      <g>
       <use style="stroke:#000000;stroke-width:0.5;" x="175.208398711" xlink:href="#m2a93cb1acc" y="283.68"/>
      </g>
     </g>
     <g id="line2d_18">
      <g>
       <use style="stroke:#000000;stroke-width:0.5;" x="175.208398711" xlink:href="#m5d41666c6d" y="7.2"/>
      </g>
     </g>
     <g id="text_4">
      <!-- 0 -->
      <defs>
       <path d="M 31.78125 66.40625 
Q 24.171875 66.40625 20.328125 58.90625 
Q 16.5 51.421875 16.5 36.375 
Q 16.5 21.390625 20.328125 13.890625 
Q 24.171875 6.390625 31.78125 6.390625 
Q 39.453125 6.390625 43.28125 13.890625 
Q 47.125 21.390625 47.125 36.375 
Q 47.125 51.421875 43.28125 58.90625 
Q 39.453125 66.40625 31.78125 66.40625 
M 31.78125 74.21875 
Q 44.046875 74.21875 50.515625 64.515625 
Q 56.984375 54.828125 56.984375 36.375 
Q 56.984375 17.96875 50.515625 8.265625 
Q 44.046875 -1.421875 31.78125 -1.421875 
Q 19.53125 -1.421875 13.0625 8.265625 
Q 6.59375 17.96875 6.59375 36.375 
Q 6.59375 54.828125 13.0625 64.515625 
Q 19.53125 74.21875 31.78125 74.21875 
" id="BitstreamVeraSans-Roman-30"/>
      </defs>
      <g transform="translate(168.845898711 302.876875)scale(0.2 -0.2)">
       <use xlink:href="#BitstreamVeraSans-Roman-30"/>
      </g>
     </g>
    </g>
    <g id="xtick_5">
     <g id="line2d_19">
      <path clip-path="url(#p40e1bf3962)" d="M 217.233199 283.68 
L 217.233199 7.2 
" style="fill:none;stroke:#000000;stroke-dasharray:1.000000,3.000000;stroke-dashoffset:0.0;stroke-width:0.5;"/>
     </g>
     <g id="line2d_20">
      <g>
       <use style="stroke:#000000;stroke-width:0.5;" x="217.233198997" xlink:href="#m2a93cb1acc" y="283.68"/>
      </g>
     </g>
     <g id="line2d_21">
      <g>
       <use style="stroke:#000000;stroke-width:0.5;" x="217.233198997" xlink:href="#m5d41666c6d" y="7.2"/>
      </g>
     </g>
     <g id="text_5">
      <!-- 2 -->
      <g transform="translate(210.870698997 302.876875)scale(0.2 -0.2)">
       <use xlink:href="#BitstreamVeraSans-Roman-32"/>
      </g>
     </g>
    </g>
    <g id="xtick_6">
     <g id="line2d_22">
      <path clip-path="url(#p40e1bf3962)" d="M 259.257999 283.68 
L 259.257999 7.2 
" style="fill:none;stroke:#000000;stroke-dasharray:1.000000,3.000000;stroke-dashoffset:0.0;stroke-width:0.5;"/>
     </g>
     <g id="line2d_23">
      <g>
       <use style="stroke:#000000;stroke-width:0.5;" x="259.257999284" xlink:href="#m2a93cb1acc" y="283.68"/>
      </g>
     </g>
     <g id="line2d_24">
      <g>
       <use style="stroke:#000000;stroke-width:0.5;" x="259.257999284" xlink:href="#m5d41666c6d" y="7.2"/>
      </g>
     </g>
     <g id="text_6">
      <!-- 4 -->
      <g transform="translate(252.895499284 302.876875)scale(0.2 -0.2)">
       <use xlink:href="#BitstreamVeraSans-Roman-34"/>
      </g>
     </g>
    </g>
    <g id="xtick_7">
     <g id="line2d_25">
      <path clip-path="url(#p40e1bf3962)" d="M 301.2828 283.68 
L 301.2828 7.2 
" style="fill:none;stroke:#000000;stroke-dasharray:1.000000,3.000000;stroke-dashoffset:0.0;stroke-width:0.5;"/>
     </g>
     <g id="line2d_26">
      <g>
       <use style="stroke:#000000;stroke-width:0.5;" x="301.28279957" xlink:href="#m2a93cb1acc" y="283.68"/>
      </g>
     </g>
     <g id="line2d_27">
      <g>
       <use style="stroke:#000000;stroke-width:0.5;" x="301.28279957" xlink:href="#m5d41666c6d" y="7.2"/>
      </g>
     </g>
     <g id="text_7">
      <!-- 6 -->
      <g transform="translate(294.92029957 302.876875)scale(0.2 -0.2)">
       <use xlink:href="#BitstreamVeraSans-Roman-36"/>
      </g>
     </g>
    </g>
    <g id="xtick_8">
     <g id="line2d_28">
      <path clip-path="url(#p40e1bf3962)" d="M 343.3076 283.68 
L 343.3076 7.2 
" style="fill:none;stroke:#000000;stroke-dasharray:1.000000,3.000000;stroke-dashoffset:0.0;stroke-width:0.5;"/>
     </g>
     <g id="line2d_29">
      <g>
       <use style="stroke:#000000;stroke-width:0.5;" x="343.307599857" xlink:href="#m2a93cb1acc" y="283.68"/>
      </g>
     </g>
     <g id="line2d_30">
      <g>
       <use style="stroke:#000000;stroke-width:0.5;" x="343.307599857" xlink:href="#m5d41666c6d" y="7.2"/>
      </g>
     </g>
     <g id="text_8">
      <!-- 8 -->
      <defs>
       <path d="M 31.78125 34.625 
Q 24.75 34.625 20.71875 30.859375 
Q 16.703125 27.09375 16.703125 20.515625 
Q 16.703125 13.921875 20.71875 10.15625 
Q 24.75 6.390625 31.78125 6.390625 
Q 38.8125 6.390625 42.859375 10.171875 
Q 46.921875 13.96875 46.921875 20.515625 
Q 46.921875 27.09375 42.890625 30.859375 
Q 38.875 34.625 31.78125 34.625 
M 21.921875 38.8125 
Q 15.578125 40.375 12.03125 44.71875 
Q 8.5 49.078125 8.5 55.328125 
Q 8.5 64.0625 14.71875 69.140625 
Q 20.953125 74.21875 31.78125 74.21875 
Q 42.671875 74.21875 48.875 69.140625 
Q 55.078125 64.0625 55.078125 55.328125 
Q 55.078125 49.078125 51.53125 44.71875 
Q 48 40.375 41.703125 38.8125 
Q 48.828125 37.15625 52.796875 32.3125 
Q 56.78125 27.484375 56.78125 20.515625 
Q 56.78125 9.90625 50.3125 4.234375 
Q 43.84375 -1.421875 31.78125 -1.421875 
Q 19.734375 -1.421875 13.25 4.234375 
Q 6.78125 9.90625 6.78125 20.515625 
Q 6.78125 27.484375 10.78125 32.3125 
Q 14.796875 37.15625 21.921875 38.8125 
M 18.3125 54.390625 
Q 18.3125 48.734375 21.84375 45.5625 
Q 25.390625 42.390625 31.78125 42.390625 
Q 38.140625 42.390625 41.71875 45.5625 
Q 45.3125 48.734375 45.3125 54.390625 
Q 45.3125 60.0625 41.71875 63.234375 
Q 38.140625 66.40625 31.78125 66.40625 
Q 25.390625 66.40625 21.84375 63.234375 
Q 18.3125 60.0625 18.3125 54.390625 
" id="BitstreamVeraSans-Roman-38"/>
      </defs>
      <g transform="translate(336.945099857 302.876875)scale(0.2 -0.2)">
       <use xlink:href="#BitstreamVeraSans-Roman-38"/>
      </g>
     </g>
    </g>
    <g id="xtick_9">
     <g id="line2d_31">
      <defs>
       <path d="M 0 0 
L 0 -2 
" id="m38a82c8a82" style="stroke:#000000;stroke-width:0.5;"/>
      </defs>
      <g>
       <use style="stroke:#000000;stroke-width:0.5;" x="49.1339978514" xlink:href="#m38a82c8a82" y="283.68"/>
      </g>
     </g>
     <g id="line2d_32">
      <defs>
       <path d="M 0 0 
L 0 2 
" id="m984594990c" style="stroke:#000000;stroke-width:0.5;"/>
      </defs>
      <g>
       <use style="stroke:#000000;stroke-width:0.5;" x="49.1339978514" xlink:href="#m984594990c" y="7.2"/>
      </g>
     </g>
    </g>
    <g id="xtick_10">
     <g id="line2d_33">
      <g>
       <use style="stroke:#000000;stroke-width:0.5;" x="91.1587981379" xlink:href="#m38a82c8a82" y="283.68"/>
      </g>
     </g>
     <g id="line2d_34">
      <g>
       <use style="stroke:#000000;stroke-width:0.5;" x="91.1587981379" xlink:href="#m984594990c" y="7.2"/>
      </g>
     </g>
    </g>
    <g id="xtick_11">
     <g id="line2d_35">
      <g>
       <use style="stroke:#000000;stroke-width:0.5;" x="133.183598424" xlink:href="#m38a82c8a82" y="283.68"/>
      </g>
     </g>
     <g id="line2d_36">
      <g>
       <use style="stroke:#000000;stroke-width:0.5;" x="133.183598424" xlink:href="#m984594990c" y="7.2"/>
      </g>
     </g>
    </g>
    <g id="xtick_12">
     <g id="line2d_37">
      <g>
       <use style="stroke:#000000;stroke-width:0.5;" x="175.208398711" xlink:href="#m38a82c8a82" y="283.68"/>
      </g>
     </g>
     <g id="line2d_38">
      <g>
       <use style="stroke:#000000;stroke-width:0.5;" x="175.208398711" xlink:href="#m984594990c" y="7.2"/>
      </g>
     </g>
    </g>
    <g id="xtick_13">
     <g id="line2d_39">
      <g>
       <use style="stroke:#000000;stroke-width:0.5;" x="217.233198997" xlink:href="#m38a82c8a82" y="283.68"/>
      </g>
     </g>
     <g id="line2d_40">
      <g>
       <use style="stroke:#000000;stroke-width:0.5;" x="217.233198997" xlink:href="#m984594990c" y="7.2"/>
      </g>
     </g>
    </g>
    <g id="xtick_14">
     <g id="line2d_41">
      <g>
       <use style="stroke:#000000;stroke-width:0.5;" x="259.257999284" xlink:href="#m38a82c8a82" y="283.68"/>
      </g>
     </g>
     <g id="line2d_42">
      <g>
       <use style="stroke:#000000;stroke-width:0.5;" x="259.257999284" xlink:href="#m984594990c" y="7.2"/>
      </g>
     </g>
    </g>
    <g id="xtick_15">
     <g id="line2d_43">
      <g>
       <use style="stroke:#000000;stroke-width:0.5;" x="301.28279957" xlink:href="#m38a82c8a82" y="283.68"/>
      </g>
     </g>
     <g id="line2d_44">
      <g>
       <use style="stroke:#000000;stroke-width:0.5;" x="301.28279957" xlink:href="#m984594990c" y="7.2"/>
      </g>
     </g>
    </g>
    <g id="xtick_16">
     <g id="line2d_45">
      <g>
       <use style="stroke:#000000;stroke-width:0.5;" x="343.307599857" xlink:href="#m38a82c8a82" y="283.68"/>
      </g>
     </g>
     <g id="line2d_46">
      <g>
       <use style="stroke:#000000;stroke-width:0.5;" x="343.307599857" xlink:href="#m984594990c" y="7.2"/>
      </g>
     </g>
    </g>
    <g id="text_9">
     <!-- log10 of Df -->
     <defs>
      <path id="BitstreamVeraSans-Roman-20"/>
      <path d="M 12.40625 8.296875 
L 28.515625 8.296875 
L 28.515625 63.921875 
L 10.984375 60.40625 
L 10.984375 69.390625 
L 28.421875 72.90625 
L 38.28125 72.90625 
L 38.28125 8.296875 
L 54.390625 8.296875 
L 54.390625 0 
L 12.40625 0 
z
" id="BitstreamVeraSans-Roman-31"/>
      <path d="M 30.609375 48.390625 
Q 23.390625 48.390625 19.1875 42.75 
Q 14.984375 37.109375 14.984375 27.296875 
Q 14.984375 17.484375 19.15625 11.84375 
Q 23.34375 6.203125 30.609375 6.203125 
Q 37.796875 6.203125 41.984375 11.859375 
Q 46.1875 17.53125 46.1875 27.296875 
Q 46.1875 37.015625 41.984375 42.703125 
Q 37.796875 48.390625 30.609375 48.390625 
M 30.609375 56 
Q 42.328125 56 49.015625 48.375 
Q 55.71875 40.765625 55.71875 27.296875 
Q 55.71875 13.875 49.015625 6.21875 
Q 42.328125 -1.421875 30.609375 -1.421875 
Q 18.84375 -1.421875 12.171875 6.21875 
Q 5.515625 13.875 5.515625 27.296875 
Q 5.515625 40.765625 12.171875 48.375 
Q 18.84375 56 30.609375 56 
" id="BitstreamVeraSans-Roman-6f"/>
      <path d="M 9.421875 75.984375 
L 18.40625 75.984375 
L 18.40625 0 
L 9.421875 0 
z
" id="BitstreamVeraSans-Roman-6c"/>
      <path d="M 19.671875 64.796875 
L 19.671875 8.109375 
L 31.59375 8.109375 
Q 46.6875 8.109375 53.6875 14.9375 
Q 60.6875 21.78125 60.6875 36.53125 
Q 60.6875 51.171875 53.6875 57.984375 
Q 46.6875 64.796875 31.59375 64.796875 
z
M 9.8125 72.90625 
L 30.078125 72.90625 
Q 51.265625 72.90625 61.171875 64.09375 
Q 71.09375 55.28125 71.09375 36.53125 
Q 71.09375 17.671875 61.125 8.828125 
Q 51.171875 0 30.078125 0 
L 9.8125 0 
z
" id="BitstreamVeraSans-Roman-44"/>
      <path d="M 45.40625 27.984375 
Q 45.40625 37.75 41.375 43.109375 
Q 37.359375 48.484375 30.078125 48.484375 
Q 22.859375 48.484375 18.828125 43.109375 
Q 14.796875 37.75 14.796875 27.984375 
Q 14.796875 18.265625 18.828125 12.890625 
Q 22.859375 7.515625 30.078125 7.515625 
Q 37.359375 7.515625 41.375 12.890625 
Q 45.40625 18.265625 45.40625 27.984375 
M 54.390625 6.78125 
Q 54.390625 -7.171875 48.1875 -13.984375 
Q 42 -20.796875 29.203125 -20.796875 
Q 24.46875 -20.796875 20.265625 -20.09375 
Q 16.0625 -19.390625 12.109375 -17.921875 
L 12.109375 -9.1875 
Q 16.0625 -11.328125 19.921875 -12.34375 
Q 23.78125 -13.375 27.78125 -13.375 
Q 36.625 -13.375 41.015625 -8.765625 
Q 45.40625 -4.15625 45.40625 5.171875 
L 45.40625 9.625 
Q 42.625 4.78125 38.28125 2.390625 
Q 33.9375 0 27.875 0 
Q 17.828125 0 11.671875 7.65625 
Q 5.515625 15.328125 5.515625 27.984375 
Q 5.515625 40.671875 11.671875 48.328125 
Q 17.828125 56 27.875 56 
Q 33.9375 56 38.28125 53.609375 
Q 42.625 51.21875 45.40625 46.390625 
L 45.40625 54.6875 
L 54.390625 54.6875 
z
" id="BitstreamVeraSans-Roman-67"/>
      <path d="M 37.109375 75.984375 
L 37.109375 68.5 
L 28.515625 68.5 
Q 23.6875 68.5 21.796875 66.546875 
Q 19.921875 64.59375 19.921875 59.515625 
L 19.921875 54.6875 
L 34.71875 54.6875 
L 34.71875 47.703125 
L 19.921875 47.703125 
L 19.921875 0 
L 10.890625 0 
L 10.890625 47.703125 
L 2.296875 47.703125 
L 2.296875 54.6875 
L 10.890625 54.6875 
L 10.890625 58.5 
Q 10.890625 67.625 15.140625 71.796875 
Q 19.390625 75.984375 28.609375 75.984375 
z
" id="BitstreamVeraSans-Roman-66"/>
     </defs>
     <g transform="translate(130.5740625 327.233125)scale(0.2 -0.2)">
      <use xlink:href="#BitstreamVeraSans-Roman-6c"/>
      <use x="27.783203125" xlink:href="#BitstreamVeraSans-Roman-6f"/>
      <use x="88.96484375" xlink:href="#BitstreamVeraSans-Roman-67"/>
      <use x="152.44140625" xlink:href="#BitstreamVeraSans-Roman-31"/>
      <use x="216.064453125" xlink:href="#BitstreamVeraSans-Roman-30"/>
      <use x="279.6875" xlink:href="#BitstreamVeraSans-Roman-20"/>
      <use x="311.474609375" xlink:href="#BitstreamVeraSans-Roman-6f"/>
      <use x="372.65625" xlink:href="#BitstreamVeraSans-Roman-66"/>
      <use x="407.861328125" xlink:href="#BitstreamVeraSans-Roman-20"/>
      <use x="439.6484375" xlink:href="#BitstreamVeraSans-Roman-44"/>
      <use x="516.650390625" xlink:href="#BitstreamVeraSans-Roman-66"/>
     </g>
    </g>
   </g>
   <g id="matplotlib.axis_2">
    <g id="ytick_1">
     <g id="line2d_47">
      <path clip-path="url(#p40e1bf3962)" d="M 7.2 283.68 
L 364.32 283.68 
" style="fill:none;stroke:#000000;stroke-dasharray:1.000000,3.000000;stroke-dashoffset:0.0;stroke-width:0.5;"/>
     </g>
     <g id="line2d_48">
      <defs>
       <path d="M 0 0 
L 4 0 
" id="md8eb1076d1" style="stroke:#000000;stroke-width:0.5;"/>
      </defs>
      <g>
       <use style="stroke:#000000;stroke-width:0.5;" x="7.2" xlink:href="#md8eb1076d1" y="283.68"/>
      </g>
     </g>
     <g id="line2d_49">
      <defs>
       <path d="M 0 0 
L -4 0 
" id="mba8aba34a4" style="stroke:#000000;stroke-width:0.5;"/>
      </defs>
      <g>
       <use style="stroke:#000000;stroke-width:0.5;" x="364.32" xlink:href="#mba8aba34a4" y="283.68"/>
      </g>
     </g>
    </g>
    <g id="ytick_2">
     <g id="line2d_50">
      <path clip-path="url(#p40e1bf3962)" d="M 7.2 228.931485 
L 364.32 228.931485 
" style="fill:none;stroke:#000000;stroke-dasharray:1.000000,3.000000;stroke-dashoffset:0.0;stroke-width:0.5;"/>
     </g>
     <g id="line2d_51">
      <g>
       <use style="stroke:#000000;stroke-width:0.5;" x="7.2" xlink:href="#md8eb1076d1" y="228.931485149"/>
      </g>
     </g>
     <g id="line2d_52">
      <g>
       <use style="stroke:#000000;stroke-width:0.5;" x="364.32" xlink:href="#mba8aba34a4" y="228.931485149"/>
      </g>
     </g>
    </g>
    <g id="ytick_3">
     <g id="line2d_53">
      <path clip-path="url(#p40e1bf3962)" d="M 7.2 174.18297 
L 364.32 174.18297 
" style="fill:none;stroke:#000000;stroke-dasharray:1.000000,3.000000;stroke-dashoffset:0.0;stroke-width:0.5;"/>
     </g>
     <g id="line2d_54">
      <g>
       <use style="stroke:#000000;stroke-width:0.5;" x="7.2" xlink:href="#md8eb1076d1" y="174.182970297"/>
      </g>
     </g>
     <g id="line2d_55">
      <g>
       <use style="stroke:#000000;stroke-width:0.5;" x="364.32" xlink:href="#mba8aba34a4" y="174.182970297"/>
      </g>
     </g>
    </g>
    <g id="ytick_4">
     <g id="line2d_56">
      <path clip-path="url(#p40e1bf3962)" d="M 7.2 119.434455 
L 364.32 119.434455 
" style="fill:none;stroke:#000000;stroke-dasharray:1.000000,3.000000;stroke-dashoffset:0.0;stroke-width:0.5;"/>
     </g>
     <g id="line2d_57">
      <g>
       <use style="stroke:#000000;stroke-width:0.5;" x="7.2" xlink:href="#md8eb1076d1" y="119.434455446"/>
      </g>
     </g>
     <g id="line2d_58">
      <g>
       <use style="stroke:#000000;stroke-width:0.5;" x="364.32" xlink:href="#mba8aba34a4" y="119.434455446"/>
      </g>
     </g>
    </g>
    <g id="ytick_5">
     <g id="line2d_59">
      <path clip-path="url(#p40e1bf3962)" d="M 7.2 64.685941 
L 364.32 64.685941 
" style="fill:none;stroke:#000000;stroke-dasharray:1.000000,3.000000;stroke-dashoffset:0.0;stroke-width:0.5;"/>
     </g>
     <g id="line2d_60">
      <g>
       <use style="stroke:#000000;stroke-width:0.5;" x="7.2" xlink:href="#md8eb1076d1" y="64.6859405941"/>
      </g>
     </g>
     <g id="line2d_61">
      <g>
       <use style="stroke:#000000;stroke-width:0.5;" x="364.32" xlink:href="#mba8aba34a4" y="64.6859405941"/>
      </g>
     </g>
    </g>
    <g id="ytick_6">
     <g id="line2d_62">
      <path clip-path="url(#p40e1bf3962)" d="M 7.2 9.937426 
L 364.32 9.937426 
" style="fill:none;stroke:#000000;stroke-dasharray:1.000000,3.000000;stroke-dashoffset:0.0;stroke-width:0.5;"/>
     </g>
     <g id="line2d_63">
      <g>
       <use style="stroke:#000000;stroke-width:0.5;" x="7.2" xlink:href="#md8eb1076d1" y="9.93742574257"/>
      </g>
     </g>
     <g id="line2d_64">
      <g>
       <use style="stroke:#000000;stroke-width:0.5;" x="364.32" xlink:href="#mba8aba34a4" y="9.93742574257"/>
      </g>
     </g>
    </g>
   </g>
   <g id="text_10">
    <!-- f1-5,5-D -->
    <defs>
     <path d="M 11.71875 12.40625 
L 22.015625 12.40625 
L 22.015625 4 
L 14.015625 -11.625 
L 7.71875 -11.625 
L 11.71875 4 
z
" id="BitstreamVeraSans-Roman-2c"/>
     <path d="M 10.796875 72.90625 
L 49.515625 72.90625 
L 49.515625 64.59375 
L 19.828125 64.59375 
L 19.828125 46.734375 
Q 21.96875 47.46875 24.109375 47.828125 
Q 26.265625 48.1875 28.421875 48.1875 
Q 40.625 48.1875 47.75 41.5 
Q 54.890625 34.8125 54.890625 23.390625 
Q 54.890625 11.625 47.5625 5.09375 
Q 40.234375 -1.421875 26.90625 -1.421875 
Q 22.3125 -1.421875 17.546875 -0.640625 
Q 12.796875 0.140625 7.71875 1.703125 
L 7.71875 11.625 
Q 12.109375 9.234375 16.796875 8.0625 
Q 21.484375 6.890625 26.703125 6.890625 
Q 35.15625 6.890625 40.078125 11.328125 
Q 45.015625 15.765625 45.015625 23.390625 
Q 45.015625 31 40.078125 35.4375 
Q 35.15625 39.890625 26.703125 39.890625 
Q 22.75 39.890625 18.8125 39.015625 
Q 14.890625 38.140625 10.796875 36.28125 
z
" id="BitstreamVeraSans-Roman-35"/>
    </defs>
    <g transform="translate(275.774475 278.1504)scale(0.2 -0.2)">
     <use xlink:href="#BitstreamVeraSans-Roman-66"/>
     <use x="35.205078125" xlink:href="#BitstreamVeraSans-Roman-31"/>
     <use x="98.828125" xlink:href="#BitstreamVeraSans-Roman-2d"/>
     <use x="134.912109375" xlink:href="#BitstreamVeraSans-Roman-35"/>
     <use x="198.53515625" xlink:href="#BitstreamVeraSans-Roman-2c"/>
     <use x="230.322265625" xlink:href="#BitstreamVeraSans-Roman-35"/>
     <use x="293.9453125" xlink:href="#BitstreamVeraSans-Roman-2d"/>
     <use x="330.029296875" xlink:href="#BitstreamVeraSans-Roman-44"/>
    </g>
   </g>
  </g>
 </g>
 <defs>
  <clipPath id="p40e1bf3962">
   <rect height="276.48" width="357.12" x="7.2" y="7.2"/>
  </clipPath>
 </defs>
</svg>
