<?xml version="1.0" encoding="utf-8" standalone="no"?>
<!DOCTYPE svg PUBLIC "-//W3C//DTD SVG 1.1//EN"
  "http://www.w3.org/Graphics/SVG/1.1/DTD/svg11.dtd">
<!-- Created with matplotlib (http://matplotlib.org/) -->
<svg height="338pt" version="1.1" viewBox="0 0 371 338" width="371pt" xmlns="http://www.w3.org/2000/svg" xmlns:xlink="http://www.w3.org/1999/xlink">
 <defs>
  <style type="text/css">
*{stroke-linecap:butt;stroke-linejoin:round;stroke-miterlimit:100000;}
  </style>
 </defs>
 <g id="figure_1">
  <g id="patch_1">
   <path d="M 0 338.5925 
L 371.52 338.5925 
L 371.52 0 
L 0 0 
z
" style="fill:#ffffff;"/>
  </g>
  <g id="axes_1">
   <g id="patch_2">
    <path d="M 7.2 283.68 
L 364.32 283.68 
L 364.32 7.2 
L 7.2 7.2 
z
" style="fill:#ffffff;"/>
   </g>
   <g id="line2d_1">
    <path clip-path="url(#p94e2e484bf)" d="M 188.996903 283.68 
L 188.996903 280.030099 
L 190.852495 280.030099 
L 190.852495 276.380198 
L 193.078612 276.380198 
L 193.091229 269.080396 
L 193.409211 269.080396 
L 193.409211 265.430495 
L 194.2443 265.430495 
L 194.2443 261.780594 
L 194.601343 261.780594 
L 194.601343 258.130693 
L 194.77867 258.130693 
L 194.77867 254.480792 
L 195.29969 254.480792 
L 195.29969 250.830891 
L 195.704813 250.830891 
L 195.787662 239.881188 
L 196.873414 239.881188 
L 196.873414 236.231287 
L 197.404174 236.231287 
L 197.404174 232.581386 
L 200.836193 232.581386 
L 200.836193 228.931485 
L 211.182367 228.931485 
L 211.182367 225.281584 
L 211.521895 225.281584 
L 211.521895 221.631683 
L 211.765554 221.631683 
L 211.777087 214.331881 
L 212.083869 214.331881 
L 212.120713 203.382178 
L 212.871145 203.382178 
L 212.871145 199.732277 
L 213.215843 199.732277 
L 213.215843 196.082376 
L 213.38613 196.082376 
L 213.38613 192.432475 
L 213.751891 192.432475 
L 213.778255 185.132673 
L 214.225769 185.132673 
L 214.225769 181.482772 
L 215.587681 181.482772 
L 215.587681 177.832871 
L 217.960251 177.832871 
L 217.960251 174.18297 
L 228.173019 174.18297 
L 228.173019 170.533069 
L 228.72288 170.533069 
L 228.72288 166.883168 
L 229.043121 166.883168 
L 229.043121 163.233267 
L 229.761909 163.233267 
L 229.761909 159.583366 
L 229.878131 159.583366 
L 229.878131 155.933465 
L 230.1285 155.933465 
L 230.1285 152.283564 
L 230.357005 152.283564 
L 230.38583 141.333861 
L 230.608311 141.333861 
L 230.608311 137.68396 
L 231.02549 137.68396 
L 231.02549 134.034059 
L 231.210905 134.034059 
L 231.210905 130.384158 
L 231.399639 130.384158 
L 231.399639 126.734257 
L 232.115635 126.734257 
L 232.115635 123.084356 
L 232.501471 123.084356 
L 232.501471 119.434455 
L 277.846595 119.434455 
L 277.846595 115.784554 
L 282.037195 115.784554 
L 282.037195 112.134653 
L 282.726172 112.134653 
L 282.726172 108.484752 
L 285.407167 108.484752 
L 285.407167 104.834851 
L 285.71033 104.834851 
L 285.793264 97.53505 
L 285.975974 97.53505 
L 285.975974 93.885149 
L 286.918179 93.885149 
L 286.918179 90.235248 
L 287.133443 90.235248 
L 287.133443 86.585347 
L 287.544478 86.585347 
L 287.544478 82.935446 
L 287.804365 82.935446 
L 287.804365 79.285545 
L 288.049351 79.285545 
L 288.049351 75.635644 
L 289.831107 75.635644 
L 289.831107 71.985743 
L 290.747333 71.985743 
L 290.747333 68.335842 
L 291.297935 68.335842 
L 291.297935 64.685941 
L 319.408478 64.685941 
L 319.408478 61.03604 
L 323.568257 61.03604 
L 323.568257 57.386139 
L 324.093664 57.386139 
L 324.093664 53.736238 
L 324.543143 53.736238 
L 324.577174 46.436436 
L 325.242808 46.436436 
L 325.242808 42.786535 
L 326.150984 42.786535 
L 326.150984 39.136634 
L 326.273546 39.136634 
L 326.323085 31.836832 
L 326.531605 31.836832 
L 326.531605 28.186931 
L 326.756094 28.186931 
L 326.756094 24.53703 
L 327.472331 24.53703 
L 327.472331 20.887129 
L 328.326029 20.887129 
L 328.326029 17.237228 
L 328.736204 17.237228 
L 328.810772 9.937426 
L 364.32 9.937426 
L 364.32 9.937426 
" style="fill:none;stroke:#ff0000;stroke-linecap:square;stroke-width:3.0;"/>
   </g>
   <g id="line2d_2">
    <path clip-path="url(#p94e2e484bf)" d="M 196.482782 283.68 
L 196.482782 280.030099 
L 198.319946 280.030099 
L 198.319946 276.380198 
L 199.996547 276.380198 
L 199.996547 272.730297 
L 200.458904 272.730297 
L 200.458904 269.080396 
L 202.651448 269.080396 
L 202.651448 265.430495 
L 203.015185 265.430495 
L 203.015185 261.780594 
L 203.339366 261.780594 
L 203.339366 258.130693 
L 203.518327 258.130693 
L 203.518327 254.480792 
L 204.135594 254.480792 
L 204.18584 243.531089 
L 206.078846 243.531089 
L 206.078846 239.881188 
L 206.657794 239.881188 
L 206.657794 236.231287 
L 207.052728 236.231287 
L 207.052728 232.581386 
L 208.219951 232.581386 
L 208.219951 228.931485 
L 225.238794 228.931485 
L 225.238794 225.281584 
L 230.301421 225.281584 
L 230.301421 221.631683 
L 232.627775 221.631683 
L 232.627775 217.981782 
L 232.761554 217.981782 
L 232.761554 214.331881 
L 232.892541 214.331881 
L 232.892541 210.68198 
L 233.097989 210.68198 
L 233.097989 207.032079 
L 233.486851 207.032079 
L 233.580253 199.732277 
L 233.601712 199.732277 
L 233.615263 192.432475 
L 233.742422 192.432475 
L 233.742422 188.782574 
L 233.86437 188.782574 
L 233.86437 185.132673 
L 233.985039 185.132673 
L 233.985039 181.482772 
L 234.439132 181.482772 
L 234.460643 174.18297 
L 235.403552 174.18297 
L 235.403552 170.533069 
L 236.51974 170.533069 
L 236.51974 166.883168 
L 237.735618 166.883168 
L 237.735618 163.233267 
L 248.222203 163.233267 
L 248.222203 159.583366 
L 256.703753 159.583366 
L 256.703753 155.933465 
L 262.822578 155.933465 
L 262.822578 152.283564 
L 262.958743 152.283564 
L 262.958743 148.633663 
L 267.896778 148.633663 
L 267.896778 144.983762 
L 269.460769 144.983762 
L 269.460769 141.333861 
L 272.609033 141.333861 
L 272.609033 137.68396 
L 273.980152 137.68396 
L 273.980152 134.034059 
L 279.932191 134.034059 
L 279.932191 130.384158 
L 280.04819 130.384158 
L 280.04819 126.734257 
L 287.243624 126.734257 
L 287.243624 123.084356 
L 292.421778 123.084356 
L 292.421778 119.434455 
L 294.302826 119.434455 
L 294.412706 112.134653 
L 296.241835 112.134653 
L 296.241835 108.484752 
L 297.554004 108.484752 
L 297.651136 101.18495 
L 297.916923 101.18495 
L 297.916923 97.53505 
L 298.249169 97.53505 
L 298.249169 93.885149 
L 298.678845 93.885149 
L 298.678845 90.235248 
L 299.107008 90.235248 
L 299.107008 86.585347 
L 301.503468 86.585347 
L 301.503468 82.935446 
L 302.294544 82.935446 
L 302.294544 79.285545 
L 303.096994 79.285545 
L 303.096994 75.635644 
L 303.769331 75.635644 
L 303.769331 71.985743 
L 304.282952 71.985743 
L 304.282952 68.335842 
L 304.931596 68.335842 
L 304.931596 64.685941 
L 326.83529 64.685941 
L 326.83529 61.03604 
L 328.502838 61.03604 
L 328.502838 57.386139 
L 329.095739 57.386139 
L 329.095739 53.736238 
L 332.824427 53.736238 
L 332.824427 50.086337 
L 332.973422 50.086337 
L 332.973422 46.436436 
L 334.08115 46.436436 
L 334.08115 42.786535 
L 335.893318 42.786535 
L 335.893318 39.136634 
L 339.955679 39.136634 
L 339.955679 35.486733 
L 340.553879 35.486733 
L 340.569107 28.186931 
L 340.987983 28.186931 
L 340.987983 24.53703 
L 341.407262 24.53703 
L 341.407262 20.887129 
L 342.870531 20.887129 
L 342.870531 17.237228 
L 344.379849 17.237228 
L 344.379849 13.587327 
L 346.084466 13.587327 
L 346.084466 9.937426 
L 364.32 9.937426 
L 364.32 9.937426 
" style="fill:none;stroke:#00bfbf;stroke-linecap:square;"/>
   </g>
   <g id="line2d_3">
    <path clip-path="url(#p94e2e484bf)" d="M 196.129044 283.68 
L 196.129044 280.030099 
L 196.482782 280.030099 
L 196.482782 276.380198 
L 197.572244 276.380198 
L 197.572244 272.730297 
L 198.259315 272.730297 
L 198.319946 265.430495 
L 199.218252 265.430495 
L 199.218252 261.780594 
L 199.540691 261.780594 
L 199.636568 254.480792 
L 199.713856 254.480792 
L 199.713856 250.830891 
L 201.300842 250.830891 
L 201.300842 247.18099 
L 203.518327 247.18099 
L 203.518327 243.531089 
L 203.954211 243.531089 
L 203.99557 236.231287 
L 204.222488 236.231287 
L 204.222488 232.581386 
L 208.219951 232.581386 
L 208.219951 228.931485 
L 225.238794 228.931485 
L 225.238794 225.281584 
L 229.130631 225.281584 
L 229.130631 221.631683 
L 229.697292 221.631683 
L 229.697292 217.981782 
L 230.301421 217.981782 
L 230.301421 214.331881 
L 232.04925 214.331881 
L 232.04925 210.68198 
L 232.205732 210.68198 
L 232.205732 207.032079 
L 232.357744 207.032079 
L 232.389575 199.732277 
L 232.88068 199.732277 
L 232.982643 192.432475 
L 233.097989 192.432475 
L 233.097989 188.782574 
L 233.367628 188.782574 
L 233.367628 185.132673 
L 233.56639 185.132673 
L 233.615263 174.18297 
L 233.85499 174.18297 
L 233.85499 170.533069 
L 234.439132 170.533069 
L 234.439132 166.883168 
L 235.466441 166.883168 
L 235.466441 163.233267 
L 237.735618 163.233267 
L 237.735618 159.583366 
L 244.43737 159.583366 
L 244.43737 155.933465 
L 248.222203 155.933465 
L 248.222203 152.283564 
L 249.084443 152.283564 
L 249.084443 148.633663 
L 250.311772 148.633663 
L 250.311772 144.983762 
L 250.817503 144.983762 
L 250.817503 141.333861 
L 256.703753 141.333861 
L 256.703753 137.68396 
L 262.144067 137.68396 
L 262.144067 134.034059 
L 262.958743 134.034059 
L 262.958743 130.384158 
L 268.600897 130.384158 
L 268.600897 126.734257 
L 272.609033 126.734257 
L 272.609033 123.084356 
L 278.714725 123.084356 
L 278.714725 119.434455 
L 286.600689 119.434455 
L 286.600689 115.784554 
L 287.243624 115.784554 
L 287.243624 112.134653 
L 292.152521 112.134653 
L 292.152521 108.484752 
L 293.283032 108.484752 
L 293.283032 104.834851 
L 294.302826 104.834851 
L 294.302826 101.18495 
L 296.751551 101.18495 
L 296.751551 97.53505 
L 297.554004 97.53505 
L 297.651136 90.235248 
L 297.916923 90.235248 
L 297.916923 86.585347 
L 298.249169 86.585347 
L 298.249169 82.935446 
L 298.678845 82.935446 
L 298.678845 79.285545 
L 299.107008 79.285545 
L 299.107008 75.635644 
L 300.681429 75.635644 
L 300.681429 71.985743 
L 301.503468 71.985743 
L 301.503468 68.335842 
L 303.769331 68.335842 
L 303.769331 64.685941 
L 326.233058 64.685941 
L 326.233058 61.03604 
L 326.83529 61.03604 
L 326.83529 57.386139 
L 327.05345 57.386139 
L 327.05345 53.736238 
L 329.095739 53.736238 
L 329.095739 50.086337 
L 329.485507 50.086337 
L 329.485507 46.436436 
L 330.77035 46.436436 
L 330.77035 42.786535 
L 331.61582 42.786535 
L 331.652868 35.486733 
L 334.08115 35.486733 
L 334.08115 31.836832 
L 334.271602 31.836832 
L 334.271602 28.186931 
L 335.893318 28.186931 
L 335.893318 24.53703 
L 336.39596 24.53703 
L 336.39596 20.887129 
L 338.112231 20.887129 
L 338.112231 17.237228 
L 339.347071 17.237228 
L 339.347071 13.587327 
L 340.553879 13.587327 
L 340.553879 9.937426 
L 364.32 9.937426 
L 364.32 9.937426 
" style="fill:none;stroke:#bf00bf;stroke-linecap:square;"/>
   </g>
   <g id="line2d_4">
    <path clip-path="url(#p94e2e484bf)" d="M 196.129044 283.68 
L 196.129044 280.030099 
L 196.482782 280.030099 
L 196.482782 276.380198 
L 197.322951 276.380198 
L 197.363056 269.080396 
L 197.572244 269.080396 
L 197.572244 265.430495 
L 197.892087 265.430495 
L 197.892087 261.780594 
L 198.214187 261.780594 
L 198.259315 254.480792 
L 198.508902 254.480792 
L 198.508902 250.830891 
L 199.160845 250.830891 
L 199.160845 247.18099 
L 199.540691 247.18099 
L 199.540691 243.531089 
L 199.70229 243.531089 
L 199.723447 236.231287 
L 201.300842 236.231287 
L 201.300842 232.581386 
L 201.614379 232.581386 
L 201.614379 228.931485 
L 213.756212 228.931485 
L 213.756212 225.281584 
L 215.538644 225.281584 
L 215.538644 221.631683 
L 216.593804 221.631683 
L 216.593804 217.981782 
L 225.238794 217.981782 
L 225.238794 214.331881 
L 228.388971 214.331881 
L 228.388971 210.68198 
L 229.130631 210.68198 
L 229.130631 207.032079 
L 229.697292 207.032079 
L 229.697292 203.382178 
L 230.20978 203.382178 
L 230.301421 196.082376 
L 231.043161 196.082376 
L 231.08212 188.782574 
L 231.166233 188.782574 
L 231.166233 185.132673 
L 231.47185 185.132673 
L 231.47185 181.482772 
L 231.965046 181.482772 
L 231.965046 177.832871 
L 232.113716 177.832871 
L 232.113716 174.18297 
L 232.302229 174.18297 
L 232.357744 166.883168 
L 232.460085 166.883168 
L 232.460085 163.233267 
L 232.988997 163.233267 
L 232.988997 159.583366 
L 233.144682 159.583366 
L 233.144682 155.933465 
L 234.89716 155.933465 
L 234.89716 152.283564 
L 235.466441 152.283564 
L 235.466441 148.633663 
L 237.735618 148.633663 
L 237.735618 144.983762 
L 244.43737 144.983762 
L 244.43737 141.333861 
L 245.215815 141.333861 
L 245.215815 137.68396 
L 246.831945 137.68396 
L 246.831945 134.034059 
L 248.222203 134.034059 
L 248.222203 130.384158 
L 249.084443 130.384158 
L 249.084443 126.734257 
L 249.316028 126.734257 
L 249.316028 123.084356 
L 268.600897 123.084356 
L 268.600897 119.434455 
L 286.600689 119.434455 
L 286.600689 115.784554 
L 287.243624 115.784554 
L 287.243624 112.134653 
L 289.847627 112.134653 
L 289.847627 108.484752 
L 291.605845 108.484752 
L 291.605845 104.834851 
L 292.152521 104.834851 
L 292.152521 101.18495 
L 293.283032 101.18495 
L 293.283032 97.53505 
L 294.171696 97.53505 
L 294.171696 93.885149 
L 294.302826 93.885149 
L 294.302826 90.235248 
L 295.347316 90.235248 
L 295.347316 86.585347 
L 295.559421 86.585347 
L 295.559421 82.935446 
L 295.727068 82.935446 
L 295.733793 75.635644 
L 296.129462 75.635644 
L 296.129462 71.985743 
L 297.554004 71.985743 
L 297.554004 68.335842 
L 297.877305 68.335842 
L 297.877305 64.685941 
L 325.711382 64.685941 
L 325.711382 61.03604 
L 326.233058 61.03604 
L 326.233058 57.386139 
L 326.83529 57.386139 
L 326.83529 53.736238 
L 327.05345 53.736238 
L 327.05345 50.086337 
L 327.918104 50.086337 
L 327.918104 46.436436 
L 328.862294 46.436436 
L 328.862294 42.786535 
L 329.095739 42.786535 
L 329.095739 39.136634 
L 330.77035 39.136634 
L 330.77035 35.486733 
L 331.652868 35.486733 
L 331.652868 31.836832 
L 331.899903 31.836832 
L 331.899903 28.186931 
L 332.470134 28.186931 
L 332.470134 24.53703 
L 332.623361 24.53703 
L 332.623361 20.887129 
L 333.51922 20.887129 
L 333.51922 17.237228 
L 334.08115 17.237228 
L 334.08115 13.587327 
L 337.013275 13.587327 
L 337.013275 9.937426 
L 364.32 9.937426 
L 364.32 9.937426 
" style="fill:none;stroke:#000000;stroke-linecap:square;"/>
   </g>
   <g id="line2d_5">
    <path clip-path="url(#p94e2e484bf)" d="M 193.536342 283.68 
L 193.536342 280.030099 
L 194.818441 280.030099 
L 194.818441 276.380198 
L 195.153333 276.380198 
L 195.153333 272.730297 
L 195.894288 272.730297 
L 195.894288 269.080396 
L 196.129044 269.080396 
L 196.129044 265.430495 
L 197.322951 265.430495 
L 197.322951 261.780594 
L 197.530037 261.780594 
L 197.582982 250.830891 
L 197.668086 250.830891 
L 197.737319 243.531089 
L 198.082363 243.531089 
L 198.082363 239.881188 
L 198.214187 239.881188 
L 198.214187 236.231287 
L 199.160845 236.231287 
L 199.160845 232.581386 
L 201.614379 232.581386 
L 201.614379 228.931485 
L 212.086177 228.931485 
L 212.086177 225.281584 
L 212.845564 225.281584 
L 212.845564 221.631683 
L 213.595688 221.631683 
L 213.595688 217.981782 
L 213.720601 217.981782 
L 213.756212 210.68198 
L 214.545685 210.68198 
L 214.545685 207.032079 
L 215.538644 207.032079 
L 215.538644 203.382178 
L 216.076714 203.382178 
L 216.076714 199.732277 
L 223.948024 199.732277 
L 223.948024 196.082376 
L 224.140529 196.082376 
L 224.140529 192.432475 
L 228.388971 192.432475 
L 228.388971 188.782574 
L 229.130631 188.782574 
L 229.130631 185.132673 
L 229.909265 185.132673 
L 229.909265 181.482772 
L 230.20978 181.482772 
L 230.301421 174.18297 
L 230.450218 174.18297 
L 230.450218 170.533069 
L 230.617193 170.533069 
L 230.72044 163.233267 
L 231.028462 163.233267 
L 231.08212 152.283564 
L 231.508569 152.283564 
L 231.510479 144.983762 
L 231.745623 144.983762 
L 231.816211 137.68396 
L 232.460085 137.68396 
L 232.460085 134.034059 
L 232.672289 134.034059 
L 232.672289 130.384158 
L 233.870129 130.384158 
L 233.870129 126.734257 
L 236.312202 126.734257 
L 236.312202 123.084356 
L 236.954142 123.084356 
L 236.954142 119.434455 
L 285.228988 119.434455 
L 285.228988 115.784554 
L 286.600689 115.784554 
L 286.600689 112.134653 
L 287.243624 112.134653 
L 287.243624 108.484752 
L 288.175541 108.484752 
L 288.175541 104.834851 
L 288.430745 104.834851 
L 288.430745 101.18495 
L 289.237458 101.18495 
L 289.237458 97.53505 
L 289.35472 97.53505 
L 289.35472 93.885149 
L 289.847627 93.885149 
L 289.847627 90.235248 
L 290.294696 90.235248 
L 290.294696 86.585347 
L 293.283032 86.585347 
L 293.283032 82.935446 
L 293.405932 82.935446 
L 293.405932 79.285545 
L 293.764541 79.285545 
L 293.764541 75.635644 
L 295.559421 75.635644 
L 295.559421 71.985743 
L 295.733793 71.985743 
L 295.733793 68.335842 
L 296.129462 68.335842 
L 296.129462 64.685941 
L 323.882692 64.685941 
L 323.882692 61.03604 
L 325.711382 61.03604 
L 325.711382 57.386139 
L 326.233058 57.386139 
L 326.343922 50.086337 
L 326.628576 50.086337 
L 326.628576 46.436436 
L 326.823327 46.436436 
L 326.823327 42.786535 
L 327.026804 42.786535 
L 327.026804 39.136634 
L 327.780247 39.136634 
L 327.790445 31.836832 
L 327.9258 31.836832 
L 327.9258 28.186931 
L 329.095739 28.186931 
L 329.095739 24.53703 
L 329.240664 24.53703 
L 329.240664 20.887129 
L 330.717971 20.887129 
L 330.717971 17.237228 
L 332.470134 17.237228 
L 332.470134 13.587327 
L 333.51922 13.587327 
L 333.51922 9.937426 
L 364.32 9.937426 
L 364.32 9.937426 
" style="fill:none;stroke:#00bfbf;stroke-linecap:square;"/>
   </g>
   <g id="patch_3">
    <path d="M 7.2 7.2 
L 364.32 7.2 
" style="fill:none;stroke:#000000;stroke-linecap:square;stroke-linejoin:miter;"/>
   </g>
   <g id="patch_4">
    <path d="M 364.32 283.68 
L 364.32 7.2 
" style="fill:none;stroke:#000000;stroke-linecap:square;stroke-linejoin:miter;"/>
   </g>
   <g id="patch_5">
    <path d="M 7.2 283.68 
L 364.32 283.68 
" style="fill:none;stroke:#000000;stroke-linecap:square;stroke-linejoin:miter;"/>
   </g>
   <g id="patch_6">
    <path d="M 7.2 283.68 
L 7.2 7.2 
" style="fill:none;stroke:#000000;stroke-linecap:square;stroke-linejoin:miter;"/>
   </g>
   <g id="matplotlib.axis_1">
    <g id="xtick_1">
     <g id="line2d_6">
      <path clip-path="url(#p94e2e484bf)" d="M 46.803772 283.68 
L 46.803772 7.2 
" style="fill:none;stroke:#000000;stroke-dasharray:1.000000,3.000000;stroke-dashoffset:0.0;stroke-width:0.5;"/>
     </g>
     <g id="line2d_7">
      <defs>
       <path d="M 0 0 
L 0 -4 
" id="mf77c595843" style="stroke:#000000;stroke-width:0.5;"/>
      </defs>
      <g>
       <use style="stroke:#000000;stroke-width:0.5;" x="46.803771872" xlink:href="#mf77c595843" y="283.68"/>
      </g>
     </g>
     <g id="line2d_8">
      <defs>
       <path d="M 0 0 
L 0 4 
" id="m2f427e7897" style="stroke:#000000;stroke-width:0.5;"/>
      </defs>
      <g>
       <use style="stroke:#000000;stroke-width:0.5;" x="46.803771872" xlink:href="#m2f427e7897" y="7.2"/>
      </g>
     </g>
     <g id="text_1">
      <!-- -6 -->
      <defs>
       <path d="M 33.015625 40.375 
Q 26.375 40.375 22.484375 35.828125 
Q 18.609375 31.296875 18.609375 23.390625 
Q 18.609375 15.53125 22.484375 10.953125 
Q 26.375 6.390625 33.015625 6.390625 
Q 39.65625 6.390625 43.53125 10.953125 
Q 47.40625 15.53125 47.40625 23.390625 
Q 47.40625 31.296875 43.53125 35.828125 
Q 39.65625 40.375 33.015625 40.375 
M 52.59375 71.296875 
L 52.59375 62.3125 
Q 48.875 64.0625 45.09375 64.984375 
Q 41.3125 65.921875 37.59375 65.921875 
Q 27.828125 65.921875 22.671875 59.328125 
Q 17.53125 52.734375 16.796875 39.40625 
Q 19.671875 43.65625 24.015625 45.921875 
Q 28.375 48.1875 33.59375 48.1875 
Q 44.578125 48.1875 50.953125 41.515625 
Q 57.328125 34.859375 57.328125 23.390625 
Q 57.328125 12.15625 50.6875 5.359375 
Q 44.046875 -1.421875 33.015625 -1.421875 
Q 20.359375 -1.421875 13.671875 8.265625 
Q 6.984375 17.96875 6.984375 36.375 
Q 6.984375 53.65625 15.1875 63.9375 
Q 23.390625 74.21875 37.203125 74.21875 
Q 40.921875 74.21875 44.703125 73.484375 
Q 48.484375 72.75 52.59375 71.296875 
" id="BitstreamVeraSans-Roman-36"/>
       <path d="M 4.890625 31.390625 
L 31.203125 31.390625 
L 31.203125 23.390625 
L 4.890625 23.390625 
z
" id="BitstreamVeraSans-Roman-2d"/>
      </defs>
      <g transform="translate(36.833459372 302.876875)scale(0.2 -0.2)">
       <use xlink:href="#BitstreamVeraSans-Roman-2d"/>
       <use x="36.083984375" xlink:href="#BitstreamVeraSans-Roman-36"/>
      </g>
     </g>
    </g>
    <g id="xtick_2">
     <g id="line2d_9">
      <path clip-path="url(#p94e2e484bf)" d="M 86.4933 283.68 
L 86.4933 7.2 
" style="fill:none;stroke:#000000;stroke-dasharray:1.000000,3.000000;stroke-dashoffset:0.0;stroke-width:0.5;"/>
     </g>
     <g id="line2d_10">
      <g>
       <use style="stroke:#000000;stroke-width:0.5;" x="86.493300388" xlink:href="#mf77c595843" y="283.68"/>
      </g>
     </g>
     <g id="line2d_11">
      <g>
       <use style="stroke:#000000;stroke-width:0.5;" x="86.493300388" xlink:href="#m2f427e7897" y="7.2"/>
      </g>
     </g>
     <g id="text_2">
      <!-- -4 -->
      <defs>
       <path d="M 37.796875 64.3125 
L 12.890625 25.390625 
L 37.796875 25.390625 
z
M 35.203125 72.90625 
L 47.609375 72.90625 
L 47.609375 25.390625 
L 58.015625 25.390625 
L 58.015625 17.1875 
L 47.609375 17.1875 
L 47.609375 0 
L 37.796875 0 
L 37.796875 17.1875 
L 4.890625 17.1875 
L 4.890625 26.703125 
z
" id="BitstreamVeraSans-Roman-34"/>
      </defs>
      <g transform="translate(76.522987888 302.876875)scale(0.2 -0.2)">
       <use xlink:href="#BitstreamVeraSans-Roman-2d"/>
       <use x="36.083984375" xlink:href="#BitstreamVeraSans-Roman-34"/>
      </g>
     </g>
    </g>
    <g id="xtick_3">
     <g id="line2d_12">
      <path clip-path="url(#p94e2e484bf)" d="M 126.182829 283.68 
L 126.182829 7.2 
" style="fill:none;stroke:#000000;stroke-dasharray:1.000000,3.000000;stroke-dashoffset:0.0;stroke-width:0.5;"/>
     </g>
     <g id="line2d_13">
      <g>
       <use style="stroke:#000000;stroke-width:0.5;" x="126.182828904" xlink:href="#mf77c595843" y="283.68"/>
      </g>
     </g>
     <g id="line2d_14">
      <g>
       <use style="stroke:#000000;stroke-width:0.5;" x="126.182828904" xlink:href="#m2f427e7897" y="7.2"/>
      </g>
     </g>
     <g id="text_3">
      <!-- -2 -->
      <defs>
       <path d="M 19.1875 8.296875 
L 53.609375 8.296875 
L 53.609375 0 
L 7.328125 0 
L 7.328125 8.296875 
Q 12.9375 14.109375 22.625 23.890625 
Q 32.328125 33.6875 34.8125 36.53125 
Q 39.546875 41.84375 41.421875 45.53125 
Q 43.3125 49.21875 43.3125 52.78125 
Q 43.3125 58.59375 39.234375 62.25 
Q 35.15625 65.921875 28.609375 65.921875 
Q 23.96875 65.921875 18.8125 64.3125 
Q 13.671875 62.703125 7.8125 59.421875 
L 7.8125 69.390625 
Q 13.765625 71.78125 18.9375 73 
Q 24.125 74.21875 28.421875 74.21875 
Q 39.75 74.21875 46.484375 68.546875 
Q 53.21875 62.890625 53.21875 53.421875 
Q 53.21875 48.921875 51.53125 44.890625 
Q 49.859375 40.875 45.40625 35.40625 
Q 44.1875 33.984375 37.640625 27.21875 
Q 31.109375 20.453125 19.1875 8.296875 
" id="BitstreamVeraSans-Roman-32"/>
      </defs>
      <g transform="translate(116.212516404 302.876875)scale(0.2 -0.2)">
       <use xlink:href="#BitstreamVeraSans-Roman-2d"/>
       <use x="36.083984375" xlink:href="#BitstreamVeraSans-Roman-32"/>
      </g>
     </g>
    </g>
    <g id="xtick_4">
     <g id="line2d_15">
      <path clip-path="url(#p94e2e484bf)" d="M 165.872357 283.68 
L 165.872357 7.2 
" style="fill:none;stroke:#000000;stroke-dasharray:1.000000,3.000000;stroke-dashoffset:0.0;stroke-width:0.5;"/>
     </g>
     <g id="line2d_16">
      <g>
       <use style="stroke:#000000;stroke-width:0.5;" x="165.87235742" xlink:href="#mf77c595843" y="283.68"/>
      </g>
     </g>
     <g id="line2d_17">
      <g>
       <use style="stroke:#000000;stroke-width:0.5;" x="165.87235742" xlink:href="#m2f427e7897" y="7.2"/>
      </g>
     </g>
     <g id="text_4">
      <!-- 0 -->
      <defs>
       <path d="M 31.78125 66.40625 
Q 24.171875 66.40625 20.328125 58.90625 
Q 16.5 51.421875 16.5 36.375 
Q 16.5 21.390625 20.328125 13.890625 
Q 24.171875 6.390625 31.78125 6.390625 
Q 39.453125 6.390625 43.28125 13.890625 
Q 47.125 21.390625 47.125 36.375 
Q 47.125 51.421875 43.28125 58.90625 
Q 39.453125 66.40625 31.78125 66.40625 
M 31.78125 74.21875 
Q 44.046875 74.21875 50.515625 64.515625 
Q 56.984375 54.828125 56.984375 36.375 
Q 56.984375 17.96875 50.515625 8.265625 
Q 44.046875 -1.421875 31.78125 -1.421875 
Q 19.53125 -1.421875 13.0625 8.265625 
Q 6.59375 17.96875 6.59375 36.375 
Q 6.59375 54.828125 13.0625 64.515625 
Q 19.53125 74.21875 31.78125 74.21875 
" id="BitstreamVeraSans-Roman-30"/>
      </defs>
      <g transform="translate(159.50985742 302.876875)scale(0.2 -0.2)">
       <use xlink:href="#BitstreamVeraSans-Roman-30"/>
      </g>
     </g>
    </g>
    <g id="xtick_5">
     <g id="line2d_18">
      <path clip-path="url(#p94e2e484bf)" d="M 205.561886 283.68 
L 205.561886 7.2 
" style="fill:none;stroke:#000000;stroke-dasharray:1.000000,3.000000;stroke-dashoffset:0.0;stroke-width:0.5;"/>
     </g>
     <g id="line2d_19">
      <g>
       <use style="stroke:#000000;stroke-width:0.5;" x="205.561885936" xlink:href="#mf77c595843" y="283.68"/>
      </g>
     </g>
     <g id="line2d_20">
      <g>
       <use style="stroke:#000000;stroke-width:0.5;" x="205.561885936" xlink:href="#m2f427e7897" y="7.2"/>
      </g>
     </g>
     <g id="text_5">
      <!-- 2 -->
      <g transform="translate(199.199385936 302.876875)scale(0.2 -0.2)">
       <use xlink:href="#BitstreamVeraSans-Roman-32"/>
      </g>
     </g>
    </g>
    <g id="xtick_6">
     <g id="line2d_21">
      <path clip-path="url(#p94e2e484bf)" d="M 245.251414 283.68 
L 245.251414 7.2 
" style="fill:none;stroke:#000000;stroke-dasharray:1.000000,3.000000;stroke-dashoffset:0.0;stroke-width:0.5;"/>
     </g>
     <g id="line2d_22">
      <g>
       <use style="stroke:#000000;stroke-width:0.5;" x="245.251414452" xlink:href="#mf77c595843" y="283.68"/>
      </g>
     </g>
     <g id="line2d_23">
      <g>
       <use style="stroke:#000000;stroke-width:0.5;" x="245.251414452" xlink:href="#m2f427e7897" y="7.2"/>
      </g>
     </g>
     <g id="text_6">
      <!-- 4 -->
      <g transform="translate(238.888914452 302.876875)scale(0.2 -0.2)">
       <use xlink:href="#BitstreamVeraSans-Roman-34"/>
      </g>
     </g>
    </g>
    <g id="xtick_7">
     <g id="line2d_24">
      <path clip-path="url(#p94e2e484bf)" d="M 284.940943 283.68 
L 284.940943 7.2 
" style="fill:none;stroke:#000000;stroke-dasharray:1.000000,3.000000;stroke-dashoffset:0.0;stroke-width:0.5;"/>
     </g>
     <g id="line2d_25">
      <g>
       <use style="stroke:#000000;stroke-width:0.5;" x="284.940942968" xlink:href="#mf77c595843" y="283.68"/>
      </g>
     </g>
     <g id="line2d_26">
      <g>
       <use style="stroke:#000000;stroke-width:0.5;" x="284.940942968" xlink:href="#m2f427e7897" y="7.2"/>
      </g>
     </g>
     <g id="text_7">
      <!-- 6 -->
      <g transform="translate(278.578442968 302.876875)scale(0.2 -0.2)">
       <use xlink:href="#BitstreamVeraSans-Roman-36"/>
      </g>
     </g>
    </g>
    <g id="xtick_8">
     <g id="line2d_27">
      <path clip-path="url(#p94e2e484bf)" d="M 324.630471 283.68 
L 324.630471 7.2 
" style="fill:none;stroke:#000000;stroke-dasharray:1.000000,3.000000;stroke-dashoffset:0.0;stroke-width:0.5;"/>
     </g>
     <g id="line2d_28">
      <g>
       <use style="stroke:#000000;stroke-width:0.5;" x="324.630471484" xlink:href="#mf77c595843" y="283.68"/>
      </g>
     </g>
     <g id="line2d_29">
      <g>
       <use style="stroke:#000000;stroke-width:0.5;" x="324.630471484" xlink:href="#m2f427e7897" y="7.2"/>
      </g>
     </g>
     <g id="text_8">
      <!-- 8 -->
      <defs>
       <path d="M 31.78125 34.625 
Q 24.75 34.625 20.71875 30.859375 
Q 16.703125 27.09375 16.703125 20.515625 
Q 16.703125 13.921875 20.71875 10.15625 
Q 24.75 6.390625 31.78125 6.390625 
Q 38.8125 6.390625 42.859375 10.171875 
Q 46.921875 13.96875 46.921875 20.515625 
Q 46.921875 27.09375 42.890625 30.859375 
Q 38.875 34.625 31.78125 34.625 
M 21.921875 38.8125 
Q 15.578125 40.375 12.03125 44.71875 
Q 8.5 49.078125 8.5 55.328125 
Q 8.5 64.0625 14.71875 69.140625 
Q 20.953125 74.21875 31.78125 74.21875 
Q 42.671875 74.21875 48.875 69.140625 
Q 55.078125 64.0625 55.078125 55.328125 
Q 55.078125 49.078125 51.53125 44.71875 
Q 48 40.375 41.703125 38.8125 
Q 48.828125 37.15625 52.796875 32.3125 
Q 56.78125 27.484375 56.78125 20.515625 
Q 56.78125 9.90625 50.3125 4.234375 
Q 43.84375 -1.421875 31.78125 -1.421875 
Q 19.734375 -1.421875 13.25 4.234375 
Q 6.78125 9.90625 6.78125 20.515625 
Q 6.78125 27.484375 10.78125 32.3125 
Q 14.796875 37.15625 21.921875 38.8125 
M 18.3125 54.390625 
Q 18.3125 48.734375 21.84375 45.5625 
Q 25.390625 42.390625 31.78125 42.390625 
Q 38.140625 42.390625 41.71875 45.5625 
Q 45.3125 48.734375 45.3125 54.390625 
Q 45.3125 60.0625 41.71875 63.234375 
Q 38.140625 66.40625 31.78125 66.40625 
Q 25.390625 66.40625 21.84375 63.234375 
Q 18.3125 60.0625 18.3125 54.390625 
" id="BitstreamVeraSans-Roman-38"/>
      </defs>
      <g transform="translate(318.267971484 302.876875)scale(0.2 -0.2)">
       <use xlink:href="#BitstreamVeraSans-Roman-38"/>
      </g>
     </g>
    </g>
    <g id="xtick_9">
     <g id="line2d_30">
      <path clip-path="url(#p94e2e484bf)" d="M 364.32 283.68 
L 364.32 7.2 
" style="fill:none;stroke:#000000;stroke-dasharray:1.000000,3.000000;stroke-dashoffset:0.0;stroke-width:0.5;"/>
     </g>
     <g id="line2d_31">
      <g>
       <use style="stroke:#000000;stroke-width:0.5;" x="364.32" xlink:href="#mf77c595843" y="283.68"/>
      </g>
     </g>
     <g id="line2d_32">
      <g>
       <use style="stroke:#000000;stroke-width:0.5;" x="364.32" xlink:href="#m2f427e7897" y="7.2"/>
      </g>
     </g>
    </g>
    <g id="xtick_10">
     <g id="line2d_33">
      <defs>
       <path d="M 0 0 
L 0 -2 
" id="m665a84d3ab" style="stroke:#000000;stroke-width:0.5;"/>
      </defs>
      <g>
       <use style="stroke:#000000;stroke-width:0.5;" x="46.803771872" xlink:href="#m665a84d3ab" y="283.68"/>
      </g>
     </g>
     <g id="line2d_34">
      <defs>
       <path d="M 0 0 
L 0 2 
" id="mf76e5fc2b3" style="stroke:#000000;stroke-width:0.5;"/>
      </defs>
      <g>
       <use style="stroke:#000000;stroke-width:0.5;" x="46.803771872" xlink:href="#mf76e5fc2b3" y="7.2"/>
      </g>
     </g>
    </g>
    <g id="xtick_11">
     <g id="line2d_35">
      <g>
       <use style="stroke:#000000;stroke-width:0.5;" x="86.493300388" xlink:href="#m665a84d3ab" y="283.68"/>
      </g>
     </g>
     <g id="line2d_36">
      <g>
       <use style="stroke:#000000;stroke-width:0.5;" x="86.493300388" xlink:href="#mf76e5fc2b3" y="7.2"/>
      </g>
     </g>
    </g>
    <g id="xtick_12">
     <g id="line2d_37">
      <g>
       <use style="stroke:#000000;stroke-width:0.5;" x="126.182828904" xlink:href="#m665a84d3ab" y="283.68"/>
      </g>
     </g>
     <g id="line2d_38">
      <g>
       <use style="stroke:#000000;stroke-width:0.5;" x="126.182828904" xlink:href="#mf76e5fc2b3" y="7.2"/>
      </g>
     </g>
    </g>
    <g id="xtick_13">
     <g id="line2d_39">
      <g>
       <use style="stroke:#000000;stroke-width:0.5;" x="165.87235742" xlink:href="#m665a84d3ab" y="283.68"/>
      </g>
     </g>
     <g id="line2d_40">
      <g>
       <use style="stroke:#000000;stroke-width:0.5;" x="165.87235742" xlink:href="#mf76e5fc2b3" y="7.2"/>
      </g>
     </g>
    </g>
    <g id="xtick_14">
     <g id="line2d_41">
      <g>
       <use style="stroke:#000000;stroke-width:0.5;" x="205.561885936" xlink:href="#m665a84d3ab" y="283.68"/>
      </g>
     </g>
     <g id="line2d_42">
      <g>
       <use style="stroke:#000000;stroke-width:0.5;" x="205.561885936" xlink:href="#mf76e5fc2b3" y="7.2"/>
      </g>
     </g>
    </g>
    <g id="xtick_15">
     <g id="line2d_43">
      <g>
       <use style="stroke:#000000;stroke-width:0.5;" x="245.251414452" xlink:href="#m665a84d3ab" y="283.68"/>
      </g>
     </g>
     <g id="line2d_44">
      <g>
       <use style="stroke:#000000;stroke-width:0.5;" x="245.251414452" xlink:href="#mf76e5fc2b3" y="7.2"/>
      </g>
     </g>
    </g>
    <g id="xtick_16">
     <g id="line2d_45">
      <g>
       <use style="stroke:#000000;stroke-width:0.5;" x="284.940942968" xlink:href="#m665a84d3ab" y="283.68"/>
      </g>
     </g>
     <g id="line2d_46">
      <g>
       <use style="stroke:#000000;stroke-width:0.5;" x="284.940942968" xlink:href="#mf76e5fc2b3" y="7.2"/>
      </g>
     </g>
    </g>
    <g id="xtick_17">
     <g id="line2d_47">
      <g>
       <use style="stroke:#000000;stroke-width:0.5;" x="324.630471484" xlink:href="#m665a84d3ab" y="283.68"/>
      </g>
     </g>
     <g id="line2d_48">
      <g>
       <use style="stroke:#000000;stroke-width:0.5;" x="324.630471484" xlink:href="#mf76e5fc2b3" y="7.2"/>
      </g>
     </g>
    </g>
    <g id="xtick_18">
     <g id="line2d_49">
      <g>
       <use style="stroke:#000000;stroke-width:0.5;" x="364.32" xlink:href="#m665a84d3ab" y="283.68"/>
      </g>
     </g>
     <g id="line2d_50">
      <g>
       <use style="stroke:#000000;stroke-width:0.5;" x="364.32" xlink:href="#mf76e5fc2b3" y="7.2"/>
      </g>
     </g>
    </g>
    <g id="text_9">
     <!-- log10 of Df -->
     <defs>
      <path id="BitstreamVeraSans-Roman-20"/>
      <path d="M 12.40625 8.296875 
L 28.515625 8.296875 
L 28.515625 63.921875 
L 10.984375 60.40625 
L 10.984375 69.390625 
L 28.421875 72.90625 
L 38.28125 72.90625 
L 38.28125 8.296875 
L 54.390625 8.296875 
L 54.390625 0 
L 12.40625 0 
z
" id="BitstreamVeraSans-Roman-31"/>
      <path d="M 30.609375 48.390625 
Q 23.390625 48.390625 19.1875 42.75 
Q 14.984375 37.109375 14.984375 27.296875 
Q 14.984375 17.484375 19.15625 11.84375 
Q 23.34375 6.203125 30.609375 6.203125 
Q 37.796875 6.203125 41.984375 11.859375 
Q 46.1875 17.53125 46.1875 27.296875 
Q 46.1875 37.015625 41.984375 42.703125 
Q 37.796875 48.390625 30.609375 48.390625 
M 30.609375 56 
Q 42.328125 56 49.015625 48.375 
Q 55.71875 40.765625 55.71875 27.296875 
Q 55.71875 13.875 49.015625 6.21875 
Q 42.328125 -1.421875 30.609375 -1.421875 
Q 18.84375 -1.421875 12.171875 6.21875 
Q 5.515625 13.875 5.515625 27.296875 
Q 5.515625 40.765625 12.171875 48.375 
Q 18.84375 56 30.609375 56 
" id="BitstreamVeraSans-Roman-6f"/>
      <path d="M 9.421875 75.984375 
L 18.40625 75.984375 
L 18.40625 0 
L 9.421875 0 
z
" id="BitstreamVeraSans-Roman-6c"/>
      <path d="M 19.671875 64.796875 
L 19.671875 8.109375 
L 31.59375 8.109375 
Q 46.6875 8.109375 53.6875 14.9375 
Q 60.6875 21.78125 60.6875 36.53125 
Q 60.6875 51.171875 53.6875 57.984375 
Q 46.6875 64.796875 31.59375 64.796875 
z
M 9.8125 72.90625 
L 30.078125 72.90625 
Q 51.265625 72.90625 61.171875 64.09375 
Q 71.09375 55.28125 71.09375 36.53125 
Q 71.09375 17.671875 61.125 8.828125 
Q 51.171875 0 30.078125 0 
L 9.8125 0 
z
" id="BitstreamVeraSans-Roman-44"/>
      <path d="M 45.40625 27.984375 
Q 45.40625 37.75 41.375 43.109375 
Q 37.359375 48.484375 30.078125 48.484375 
Q 22.859375 48.484375 18.828125 43.109375 
Q 14.796875 37.75 14.796875 27.984375 
Q 14.796875 18.265625 18.828125 12.890625 
Q 22.859375 7.515625 30.078125 7.515625 
Q 37.359375 7.515625 41.375 12.890625 
Q 45.40625 18.265625 45.40625 27.984375 
M 54.390625 6.78125 
Q 54.390625 -7.171875 48.1875 -13.984375 
Q 42 -20.796875 29.203125 -20.796875 
Q 24.46875 -20.796875 20.265625 -20.09375 
Q 16.0625 -19.390625 12.109375 -17.921875 
L 12.109375 -9.1875 
Q 16.0625 -11.328125 19.921875 -12.34375 
Q 23.78125 -13.375 27.78125 -13.375 
Q 36.625 -13.375 41.015625 -8.765625 
Q 45.40625 -4.15625 45.40625 5.171875 
L 45.40625 9.625 
Q 42.625 4.78125 38.28125 2.390625 
Q 33.9375 0 27.875 0 
Q 17.828125 0 11.671875 7.65625 
Q 5.515625 15.328125 5.515625 27.984375 
Q 5.515625 40.671875 11.671875 48.328125 
Q 17.828125 56 27.875 56 
Q 33.9375 56 38.28125 53.609375 
Q 42.625 51.21875 45.40625 46.390625 
L 45.40625 54.6875 
L 54.390625 54.6875 
z
" id="BitstreamVeraSans-Roman-67"/>
      <path d="M 37.109375 75.984375 
L 37.109375 68.5 
L 28.515625 68.5 
Q 23.6875 68.5 21.796875 66.546875 
Q 19.921875 64.59375 19.921875 59.515625 
L 19.921875 54.6875 
L 34.71875 54.6875 
L 34.71875 47.703125 
L 19.921875 47.703125 
L 19.921875 0 
L 10.890625 0 
L 10.890625 47.703125 
L 2.296875 47.703125 
L 2.296875 54.6875 
L 10.890625 54.6875 
L 10.890625 58.5 
Q 10.890625 67.625 15.140625 71.796875 
Q 19.390625 75.984375 28.609375 75.984375 
z
" id="BitstreamVeraSans-Roman-66"/>
     </defs>
     <g transform="translate(130.5740625 327.233125)scale(0.2 -0.2)">
      <use xlink:href="#BitstreamVeraSans-Roman-6c"/>
      <use x="27.783203125" xlink:href="#BitstreamVeraSans-Roman-6f"/>
      <use x="88.96484375" xlink:href="#BitstreamVeraSans-Roman-67"/>
      <use x="152.44140625" xlink:href="#BitstreamVeraSans-Roman-31"/>
      <use x="216.064453125" xlink:href="#BitstreamVeraSans-Roman-30"/>
      <use x="279.6875" xlink:href="#BitstreamVeraSans-Roman-20"/>
      <use x="311.474609375" xlink:href="#BitstreamVeraSans-Roman-6f"/>
      <use x="372.65625" xlink:href="#BitstreamVeraSans-Roman-66"/>
      <use x="407.861328125" xlink:href="#BitstreamVeraSans-Roman-20"/>
      <use x="439.6484375" xlink:href="#BitstreamVeraSans-Roman-44"/>
      <use x="516.650390625" xlink:href="#BitstreamVeraSans-Roman-66"/>
     </g>
    </g>
   </g>
   <g id="matplotlib.axis_2">
    <g id="ytick_1">
     <g id="line2d_51">
      <path clip-path="url(#p94e2e484bf)" d="M 7.2 283.68 
L 364.32 283.68 
" style="fill:none;stroke:#000000;stroke-dasharray:1.000000,3.000000;stroke-dashoffset:0.0;stroke-width:0.5;"/>
     </g>
     <g id="line2d_52">
      <defs>
       <path d="M 0 0 
L 4 0 
" id="m901b73c968" style="stroke:#000000;stroke-width:0.5;"/>
      </defs>
      <g>
       <use style="stroke:#000000;stroke-width:0.5;" x="7.2" xlink:href="#m901b73c968" y="283.68"/>
      </g>
     </g>
     <g id="line2d_53">
      <defs>
       <path d="M 0 0 
L -4 0 
" id="m9978616586" style="stroke:#000000;stroke-width:0.5;"/>
      </defs>
      <g>
       <use style="stroke:#000000;stroke-width:0.5;" x="364.32" xlink:href="#m9978616586" y="283.68"/>
      </g>
     </g>
    </g>
    <g id="ytick_2">
     <g id="line2d_54">
      <path clip-path="url(#p94e2e484bf)" d="M 7.2 228.931485 
L 364.32 228.931485 
" style="fill:none;stroke:#000000;stroke-dasharray:1.000000,3.000000;stroke-dashoffset:0.0;stroke-width:0.5;"/>
     </g>
     <g id="line2d_55">
      <g>
       <use style="stroke:#000000;stroke-width:0.5;" x="7.2" xlink:href="#m901b73c968" y="228.931485149"/>
      </g>
     </g>
     <g id="line2d_56">
      <g>
       <use style="stroke:#000000;stroke-width:0.5;" x="364.32" xlink:href="#m9978616586" y="228.931485149"/>
      </g>
     </g>
    </g>
    <g id="ytick_3">
     <g id="line2d_57">
      <path clip-path="url(#p94e2e484bf)" d="M 7.2 174.18297 
L 364.32 174.18297 
" style="fill:none;stroke:#000000;stroke-dasharray:1.000000,3.000000;stroke-dashoffset:0.0;stroke-width:0.5;"/>
     </g>
     <g id="line2d_58">
      <g>
       <use style="stroke:#000000;stroke-width:0.5;" x="7.2" xlink:href="#m901b73c968" y="174.182970297"/>
      </g>
     </g>
     <g id="line2d_59">
      <g>
       <use style="stroke:#000000;stroke-width:0.5;" x="364.32" xlink:href="#m9978616586" y="174.182970297"/>
      </g>
     </g>
    </g>
    <g id="ytick_4">
     <g id="line2d_60">
      <path clip-path="url(#p94e2e484bf)" d="M 7.2 119.434455 
L 364.32 119.434455 
" style="fill:none;stroke:#000000;stroke-dasharray:1.000000,3.000000;stroke-dashoffset:0.0;stroke-width:0.5;"/>
     </g>
     <g id="line2d_61">
      <g>
       <use style="stroke:#000000;stroke-width:0.5;" x="7.2" xlink:href="#m901b73c968" y="119.434455446"/>
      </g>
     </g>
     <g id="line2d_62">
      <g>
       <use style="stroke:#000000;stroke-width:0.5;" x="364.32" xlink:href="#m9978616586" y="119.434455446"/>
      </g>
     </g>
    </g>
    <g id="ytick_5">
     <g id="line2d_63">
      <path clip-path="url(#p94e2e484bf)" d="M 7.2 64.685941 
L 364.32 64.685941 
" style="fill:none;stroke:#000000;stroke-dasharray:1.000000,3.000000;stroke-dashoffset:0.0;stroke-width:0.5;"/>
     </g>
     <g id="line2d_64">
      <g>
       <use style="stroke:#000000;stroke-width:0.5;" x="7.2" xlink:href="#m901b73c968" y="64.6859405941"/>
      </g>
     </g>
     <g id="line2d_65">
      <g>
       <use style="stroke:#000000;stroke-width:0.5;" x="364.32" xlink:href="#m9978616586" y="64.6859405941"/>
      </g>
     </g>
    </g>
    <g id="ytick_6">
     <g id="line2d_66">
      <path clip-path="url(#p94e2e484bf)" d="M 7.2 9.937426 
L 364.32 9.937426 
" style="fill:none;stroke:#000000;stroke-dasharray:1.000000,3.000000;stroke-dashoffset:0.0;stroke-width:0.5;"/>
     </g>
     <g id="line2d_67">
      <g>
       <use style="stroke:#000000;stroke-width:0.5;" x="7.2" xlink:href="#m901b73c968" y="9.93742574257"/>
      </g>
     </g>
     <g id="line2d_68">
      <g>
       <use style="stroke:#000000;stroke-width:0.5;" x="364.32" xlink:href="#m9978616586" y="9.93742574257"/>
      </g>
     </g>
    </g>
   </g>
   <g id="text_10">
    <!-- f10-14,20-D -->
    <defs>
     <path d="M 11.71875 12.40625 
L 22.015625 12.40625 
L 22.015625 4 
L 14.015625 -11.625 
L 7.71875 -11.625 
L 11.71875 4 
z
" id="BitstreamVeraSans-Roman-2c"/>
    </defs>
    <g transform="translate(237.599475 278.1504)scale(0.2 -0.2)">
     <use xlink:href="#BitstreamVeraSans-Roman-66"/>
     <use x="35.205078125" xlink:href="#BitstreamVeraSans-Roman-31"/>
     <use x="98.828125" xlink:href="#BitstreamVeraSans-Roman-30"/>
     <use x="162.451171875" xlink:href="#BitstreamVeraSans-Roman-2d"/>
     <use x="198.53515625" xlink:href="#BitstreamVeraSans-Roman-31"/>
     <use x="262.158203125" xlink:href="#BitstreamVeraSans-Roman-34"/>
     <use x="325.78125" xlink:href="#BitstreamVeraSans-Roman-2c"/>
     <use x="357.568359375" xlink:href="#BitstreamVeraSans-Roman-32"/>
     <use x="421.19140625" xlink:href="#BitstreamVeraSans-Roman-30"/>
     <use x="484.814453125" xlink:href="#BitstreamVeraSans-Roman-2d"/>
     <use x="520.8984375" xlink:href="#BitstreamVeraSans-Roman-44"/>
    </g>
   </g>
  </g>
 </g>
 <defs>
  <clipPath id="p94e2e484bf">
   <rect height="276.48" width="357.12" x="7.2" y="7.2"/>
  </clipPath>
 </defs>
</svg>
