<?xml version="1.0" encoding="utf-8" standalone="no"?>
<!DOCTYPE svg PUBLIC "-//W3C//DTD SVG 1.1//EN"
  "http://www.w3.org/Graphics/SVG/1.1/DTD/svg11.dtd">
<!-- Created with matplotlib (http://matplotlib.org/) -->
<svg height="338pt" version="1.1" viewBox="0 0 371 338" width="371pt" xmlns="http://www.w3.org/2000/svg" xmlns:xlink="http://www.w3.org/1999/xlink">
 <defs>
  <style type="text/css">
*{stroke-linecap:butt;stroke-linejoin:round;stroke-miterlimit:100000;}
  </style>
 </defs>
 <g id="figure_1">
  <g id="patch_1">
   <path d="M 0 338.5925 
L 371.52 338.5925 
L 371.52 0 
L 0 0 
z
" style="fill:#ffffff;"/>
  </g>
  <g id="axes_1">
   <g id="patch_2">
    <path d="M 7.2 283.68 
L 364.32 283.68 
L 364.32 7.2 
L 7.2 7.2 
z
" style="fill:#ffffff;"/>
   </g>
   <g id="line2d_1">
    <path clip-path="url(#p2255af5fa0)" d="M 201.4372 283.68 
L 201.4372 280.030099 
L 202.351547 280.030099 
L 202.351547 276.380198 
L 203.781 276.380198 
L 203.781 272.730297 
L 204.003513 272.730297 
L 204.003513 269.080396 
L 204.498458 269.080396 
L 204.564822 261.780594 
L 204.756222 261.780594 
L 204.756222 258.130693 
L 205.066881 258.130693 
L 205.066881 254.480792 
L 205.201772 254.480792 
L 205.256796 247.18099 
L 205.313134 247.18099 
L 205.322763 239.881188 
L 206.021699 239.881188 
L 206.021699 236.231287 
L 206.174241 236.231287 
L 206.174241 232.581386 
L 206.446485 232.581386 
L 206.446485 228.931485 
L 208.084356 228.931485 
L 208.084356 225.281584 
L 209.023845 225.281584 
L 209.023845 221.631683 
L 210.038889 221.631683 
L 210.038889 217.981782 
L 210.377305 217.981782 
L 210.377305 214.331881 
L 210.624344 214.331881 
L 210.731076 207.032079 
L 210.916407 207.032079 
L 210.916407 203.382178 
L 211.035495 203.382178 
L 211.035495 199.732277 
L 211.290683 199.732277 
L 211.290683 196.082376 
L 211.435678 196.082376 
L 211.435678 192.432475 
L 211.744784 192.432475 
L 211.757886 185.132673 
L 212.322867 185.132673 
L 212.322867 181.482772 
L 212.660099 181.482772 
L 212.660099 177.832871 
L 212.916659 177.832871 
L 212.916659 174.18297 
L 218.124578 174.18297 
L 218.124578 170.533069 
L 218.348506 170.533069 
L 218.348506 166.883168 
L 218.53902 166.883168 
L 218.53902 163.233267 
L 218.862888 163.233267 
L 218.862888 159.583366 
L 219.216012 159.583366 
L 219.323389 152.283564 
L 219.414694 152.283564 
L 219.414694 148.633663 
L 219.532815 148.633663 
L 219.532815 144.983762 
L 219.733381 144.983762 
L 219.733381 141.333861 
L 219.925236 141.333861 
L 219.925236 137.68396 
L 220.172812 137.68396 
L 220.172812 134.034059 
L 220.601755 134.034059 
L 220.693963 126.734257 
L 220.921561 126.734257 
L 220.921561 123.084356 
L 221.463748 123.084356 
L 221.487425 112.134653 
L 222.118657 112.134653 
L 222.142533 101.18495 
L 222.474306 101.18495 
L 222.542135 90.235248 
L 222.725367 90.235248 
L 222.725367 86.585347 
L 223.010192 86.585347 
L 223.010192 82.935446 
L 223.414782 82.935446 
L 223.414782 79.285545 
L 223.638431 79.285545 
L 223.638431 75.635644 
L 223.809202 75.635644 
L 223.816873 68.335842 
L 224.637224 68.335842 
L 224.637224 64.685941 
L 280.448903 64.685941 
L 280.448903 61.03604 
L 281.808046 61.03604 
L 281.808046 57.386139 
L 282.652216 57.386139 
L 282.652216 53.736238 
L 282.866453 53.736238 
L 282.866453 50.086337 
L 284.518787 50.086337 
L 284.518787 46.436436 
L 286.705753 46.436436 
L 286.780212 39.136634 
L 287.026503 39.136634 
L 287.026503 35.486733 
L 288.18635 35.486733 
L 288.18635 31.836832 
L 288.596787 31.836832 
L 288.596787 28.186931 
L 288.747187 28.186931 
L 288.747187 24.53703 
L 290.679397 24.53703 
L 290.679397 20.887129 
L 291.05546 20.887129 
L 291.05546 17.237228 
L 291.668748 17.237228 
L 291.668748 13.587327 
L 292.083143 13.587327 
L 292.083143 9.937426 
L 364.32 9.937426 
L 364.32 9.937426 
" style="fill:none;stroke:#ff0000;stroke-linecap:square;stroke-width:3.0;"/>
   </g>
   <g id="line2d_2">
    <path clip-path="url(#p2255af5fa0)" d="M 207.546656 283.68 
L 207.546656 280.030099 
L 208.072473 280.030099 
L 208.08261 272.730297 
L 209.071736 272.730297 
L 209.071736 269.080396 
L 209.710905 269.080396 
L 209.710905 265.430495 
L 210.459025 265.430495 
L 210.459025 261.780594 
L 210.592132 261.780594 
L 210.592132 258.130693 
L 210.736641 258.130693 
L 210.81744 250.830891 
L 211.115267 250.830891 
L 211.115267 247.18099 
L 211.353644 247.18099 
L 211.438081 239.881188 
L 212.089306 239.881188 
L 212.114856 232.581386 
L 212.319921 232.581386 
L 212.319921 228.931485 
L 212.879225 228.931485 
L 212.879225 225.281584 
L 213.035483 225.281584 
L 213.035483 221.631683 
L 213.948307 221.631683 
L 213.948307 217.981782 
L 214.165741 217.981782 
L 214.165741 214.331881 
L 214.706695 214.331881 
L 214.783178 207.032079 
L 214.911761 207.032079 
L 214.911761 203.382178 
L 215.095735 203.382178 
L 215.095735 199.732277 
L 215.299369 199.732277 
L 215.299369 196.082376 
L 215.468126 196.082376 
L 215.468126 192.432475 
L 215.735027 192.432475 
L 215.775106 181.482772 
L 216.637154 181.482772 
L 216.637154 177.832871 
L 217.447232 177.832871 
L 217.447232 174.18297 
L 222.474313 174.18297 
L 222.474313 170.533069 
L 223.140463 170.533069 
L 223.140463 166.883168 
L 223.312365 166.883168 
L 223.312365 163.233267 
L 223.597291 163.233267 
L 223.68856 155.933465 
L 224.04298 155.933465 
L 224.04298 152.283564 
L 224.533603 152.283564 
L 224.533603 148.633663 
L 224.941619 148.633663 
L 224.941619 144.983762 
L 225.254943 144.983762 
L 225.254943 141.333861 
L 225.384125 141.333861 
L 225.451152 134.034059 
L 226.083924 134.034059 
L 226.083924 130.384158 
L 226.294209 130.384158 
L 226.401077 119.434455 
L 226.586208 119.434455 
L 226.611243 112.134653 
L 226.739771 112.134653 
L 226.739771 108.484752 
L 227.12071 108.484752 
L 227.128232 101.18495 
L 227.955092 101.18495 
L 227.955092 97.53505 
L 228.866574 97.53505 
L 228.866574 93.885149 
L 229.503576 93.885149 
L 229.578892 86.585347 
L 229.952706 86.585347 
L 229.952706 82.935446 
L 230.09839 82.935446 
L 230.09839 79.285545 
L 231.161799 79.285545 
L 231.161799 75.635644 
L 231.974858 75.635644 
L 231.974858 71.985743 
L 232.10349 71.985743 
L 232.10349 68.335842 
L 233.029957 68.335842 
L 233.029957 64.685941 
L 292.391633 64.685941 
L 292.391633 61.03604 
L 293.418122 61.03604 
L 293.507951 53.736238 
L 294.879769 53.736238 
L 294.879769 50.086337 
L 296.950639 50.086337 
L 297.027028 42.786535 
L 298.415339 42.786535 
L 298.415339 39.136634 
L 302.005428 39.136634 
L 302.09799 31.836832 
L 304.216804 31.836832 
L 304.216804 28.186931 
L 305.213481 28.186931 
L 305.213481 24.53703 
L 305.804615 24.53703 
L 305.804615 20.887129 
L 306.567143 20.887129 
L 306.567143 17.237228 
L 307.647293 17.237228 
L 307.71089 9.937426 
L 364.32 9.937426 
L 364.32 9.937426 
" style="fill:none;stroke:#00bfbf;stroke-linecap:square;"/>
   </g>
   <g id="line2d_3">
    <path clip-path="url(#p2255af5fa0)" d="M 206.494726 283.68 
L 206.494726 280.030099 
L 207.546656 280.030099 
L 207.561757 272.730297 
L 207.659601 272.730297 
L 207.659601 269.080396 
L 208.050451 269.080396 
L 208.144761 258.130693 
L 208.425285 258.130693 
L 208.425285 254.480792 
L 208.665178 254.480792 
L 208.665178 250.830891 
L 209.523108 250.830891 
L 209.523108 247.18099 
L 210.592132 247.18099 
L 210.645582 239.881188 
L 210.736641 239.881188 
L 210.736641 236.231287 
L 211.115267 236.231287 
L 211.115267 232.581386 
L 211.885725 232.581386 
L 211.885725 228.931485 
L 212.114856 228.931485 
L 212.114856 225.281584 
L 212.289355 225.281584 
L 212.289355 221.631683 
L 213.035483 221.631683 
L 213.035483 217.981782 
L 213.612862 217.981782 
L 213.612862 214.331881 
L 213.814804 214.331881 
L 213.814804 210.68198 
L 213.948307 210.68198 
L 213.948307 207.032079 
L 214.165741 207.032079 
L 214.165741 203.382178 
L 214.502268 203.382178 
L 214.502268 199.732277 
L 214.706695 199.732277 
L 214.783178 188.782574 
L 214.939466 188.782574 
L 214.939466 185.132673 
L 215.450434 185.132673 
L 215.468126 177.832871 
L 215.677812 177.832871 
L 215.677812 174.18297 
L 222.474313 174.18297 
L 222.565142 166.883168 
L 223.140463 166.883168 
L 223.140463 163.233267 
L 223.312365 163.233267 
L 223.312365 159.583366 
L 223.597291 159.583366 
L 223.640828 152.283564 
L 224.04298 152.283564 
L 224.140504 144.983762 
L 224.290389 144.983762 
L 224.303643 137.68396 
L 224.533603 137.68396 
L 224.533603 134.034059 
L 224.80027 134.034059 
L 224.90606 126.734257 
L 224.978071 126.734257 
L 224.978071 123.084356 
L 225.254943 123.084356 
L 225.254943 119.434455 
L 225.384125 119.434455 
L 225.384125 115.784554 
L 225.584507 115.784554 
L 225.66097 108.484752 
L 226.083924 108.484752 
L 226.083924 104.834851 
L 226.224669 104.834851 
L 226.224669 101.18495 
L 226.401077 101.18495 
L 226.401077 97.53505 
L 226.586208 97.53505 
L 226.611243 90.235248 
L 226.908099 90.235248 
L 226.908099 86.585347 
L 227.078083 86.585347 
L 227.078083 82.935446 
L 227.826275 82.935446 
L 227.826275 79.285545 
L 227.960502 79.285545 
L 227.960502 75.635644 
L 228.30068 75.635644 
L 228.30068 71.985743 
L 229.578892 71.985743 
L 229.578892 68.335842 
L 230.636572 68.335842 
L 230.636572 64.685941 
L 292.391633 64.685941 
L 292.391633 61.03604 
L 293.418122 61.03604 
L 293.507951 53.736238 
L 294.80655 53.736238 
L 294.879769 46.436436 
L 296.950639 46.436436 
L 297.027028 39.136634 
L 298.415339 39.136634 
L 298.415339 35.486733 
L 298.737853 35.486733 
L 298.737853 31.836832 
L 301.929361 31.836832 
L 301.929361 28.186931 
L 302.09799 28.186931 
L 302.09799 24.53703 
L 302.607683 24.53703 
L 302.607683 20.887129 
L 303.893848 20.887129 
L 303.893848 17.237228 
L 305.804615 17.237228 
L 305.8931 9.937426 
L 364.32 9.937426 
L 364.32 9.937426 
" style="fill:none;stroke:#bf00bf;stroke-linecap:square;"/>
   </g>
   <g id="line2d_4">
    <path clip-path="url(#p2255af5fa0)" d="M 203.23209 283.68 
L 203.23209 280.030099 
L 205.750588 280.030099 
L 205.750588 276.380198 
L 206.494726 276.380198 
L 206.494726 272.730297 
L 206.779502 272.730297 
L 206.810611 265.430495 
L 207.235432 265.430495 
L 207.235432 261.780594 
L 207.561757 261.780594 
L 207.659601 254.480792 
L 207.812242 254.480792 
L 207.812242 250.830891 
L 208.050451 250.830891 
L 208.144761 243.531089 
L 208.387098 243.531089 
L 208.425285 236.231287 
L 209.071299 236.231287 
L 209.071299 232.581386 
L 209.760152 232.581386 
L 209.760152 228.931485 
L 211.885725 228.931485 
L 211.885725 225.281584 
L 212.114856 225.281584 
L 212.114856 221.631683 
L 213.035483 221.631683 
L 213.035483 217.981782 
L 213.41068 217.981782 
L 213.41068 214.331881 
L 213.612862 214.331881 
L 213.640732 207.032079 
L 213.814804 207.032079 
L 213.814804 203.382178 
L 213.948307 203.382178 
L 213.948307 199.732277 
L 214.165741 199.732277 
L 214.261819 192.432475 
L 214.33374 192.432475 
L 214.33374 188.782574 
L 214.538042 188.782574 
L 214.538042 185.132673 
L 214.774402 185.132673 
L 214.843184 174.18297 
L 220.915879 174.18297 
L 220.915879 170.533069 
L 221.316381 170.533069 
L 221.316381 166.883168 
L 221.876261 166.883168 
L 221.876261 163.233267 
L 222.474313 163.233267 
L 222.565142 152.283564 
L 223.021347 152.283564 
L 223.021347 148.633663 
L 223.140463 148.633663 
L 223.147766 141.333861 
L 223.317137 141.333861 
L 223.317137 137.68396 
L 223.505496 137.68396 
L 223.597291 130.384158 
L 223.640828 130.384158 
L 223.640828 126.734257 
L 223.774805 126.734257 
L 223.774805 123.084356 
L 224.04298 123.084356 
L 224.140504 115.784554 
L 224.408081 115.784554 
L 224.424363 108.484752 
L 224.645019 108.484752 
L 224.645019 104.834851 
L 224.90606 104.834851 
L 224.978071 97.53505 
L 225.254943 97.53505 
L 225.254943 93.885149 
L 225.384125 93.885149 
L 225.384125 90.235248 
L 225.584507 90.235248 
L 225.66097 82.935446 
L 226.083924 82.935446 
L 226.083924 79.285545 
L 227.433496 79.285545 
L 227.433496 75.635644 
L 227.826275 75.635644 
L 227.826275 71.985743 
L 227.960502 71.985743 
L 227.960502 68.335842 
L 228.30068 68.335842 
L 228.30068 64.685941 
L 287.604061 64.685941 
L 287.604061 61.03604 
L 292.391633 61.03604 
L 292.391633 57.386139 
L 293.418122 57.386139 
L 293.507951 50.086337 
L 293.890411 50.086337 
L 293.890411 46.436436 
L 294.664533 46.436436 
L 294.664533 42.786535 
L 294.80655 42.786535 
L 294.879769 35.486733 
L 295.008751 35.486733 
L 295.008751 31.836832 
L 295.446943 31.836832 
L 295.446943 28.186931 
L 296.723475 28.186931 
L 296.723475 24.53703 
L 297.027028 24.53703 
L 297.027028 20.887129 
L 297.377305 20.887129 
L 297.377305 17.237228 
L 298.157935 17.237228 
L 298.157935 13.587327 
L 303.908339 13.587327 
L 303.908339 9.937426 
L 364.32 9.937426 
L 364.32 9.937426 
" style="fill:none;stroke:#000000;stroke-linecap:square;"/>
   </g>
   <g id="line2d_5">
    <path clip-path="url(#p2255af5fa0)" d="M 202.969142 283.68 
L 202.969142 280.030099 
L 203.23209 280.030099 
L 203.23209 276.380198 
L 204.379371 276.380198 
L 204.379371 272.730297 
L 204.500575 272.730297 
L 204.500575 269.080396 
L 205.404095 269.080396 
L 205.404095 265.430495 
L 205.566869 265.430495 
L 205.566869 261.780594 
L 205.750588 261.780594 
L 205.750588 258.130693 
L 206.066287 258.130693 
L 206.066287 254.480792 
L 206.192625 254.480792 
L 206.192625 250.830891 
L 206.59173 250.830891 
L 206.640105 243.531089 
L 206.779502 243.531089 
L 206.810611 236.231287 
L 207.812242 236.231287 
L 207.812242 232.581386 
L 207.92815 232.581386 
L 207.92815 228.931485 
L 211.307793 228.931485 
L 211.307793 225.281584 
L 211.76213 225.281584 
L 211.76213 221.631683 
L 211.885725 221.631683 
L 211.914153 214.331881 
L 212.002041 214.331881 
L 212.002041 210.68198 
L 212.388258 210.68198 
L 212.388258 207.032079 
L 212.548114 207.032079 
L 212.580463 199.732277 
L 212.93912 199.732277 
L 213.016328 192.432475 
L 213.151176 192.432475 
L 213.151176 188.782574 
L 213.345455 188.782574 
L 213.345455 185.132673 
L 213.640732 185.132673 
L 213.640732 181.482772 
L 214.207057 181.482772 
L 214.208067 174.18297 
L 218.698936 174.18297 
L 218.698936 170.533069 
L 219.364548 170.533069 
L 219.364548 166.883168 
L 219.877024 166.883168 
L 219.94657 159.583366 
L 220.039747 159.583366 
L 220.039747 155.933465 
L 220.61837 155.933465 
L 220.61837 152.283564 
L 220.915879 152.283564 
L 220.915879 148.633663 
L 221.148959 148.633663 
L 221.173222 141.333861 
L 221.316381 141.333861 
L 221.316381 137.68396 
L 221.576164 137.68396 
L 221.576164 134.034059 
L 221.860071 134.034059 
L 221.860071 130.384158 
L 222.474313 130.384158 
L 222.496652 123.084356 
L 222.594684 123.084356 
L 222.594684 119.434455 
L 223.063212 119.434455 
L 223.063212 115.784554 
L 223.414961 115.784554 
L 223.414961 112.134653 
L 223.597291 112.134653 
L 223.597291 108.484752 
L 223.774805 108.484752 
L 223.882706 101.18495 
L 223.941718 101.18495 
L 223.941718 97.53505 
L 224.140504 97.53505 
L 224.160304 90.235248 
L 224.253771 90.235248 
L 224.253771 86.585347 
L 224.410723 86.585347 
L 224.410723 82.935446 
L 224.643667 82.935446 
L 224.679523 75.635644 
L 225.273328 75.635644 
L 225.273328 71.985743 
L 225.584507 71.985743 
L 225.584507 68.335842 
L 225.849523 68.335842 
L 225.849523 64.685941 
L 285.641009 64.685941 
L 285.641009 61.03604 
L 285.981024 61.03604 
L 285.981024 57.386139 
L 287.135384 57.386139 
L 287.135384 53.736238 
L 287.604061 53.736238 
L 287.604061 50.086337 
L 289.219236 50.086337 
L 289.219236 46.436436 
L 289.678359 46.436436 
L 289.678359 42.786535 
L 291.353785 42.786535 
L 291.358415 35.486733 
L 291.792185 35.486733 
L 291.792185 31.836832 
L 292.289114 31.836832 
L 292.303543 24.53703 
L 293.192383 24.53703 
L 293.192383 20.887129 
L 293.3359 20.887129 
L 293.3359 17.237228 
L 294.631786 17.237228 
L 294.631786 13.587327 
L 296.723475 13.587327 
L 296.723475 9.937426 
L 364.32 9.937426 
L 364.32 9.937426 
" style="fill:none;stroke:#00bfbf;stroke-linecap:square;"/>
   </g>
   <g id="patch_3">
    <path d="M 7.2 7.2 
L 364.32 7.2 
" style="fill:none;stroke:#000000;stroke-linecap:square;stroke-linejoin:miter;"/>
   </g>
   <g id="patch_4">
    <path d="M 364.32 283.68 
L 364.32 7.2 
" style="fill:none;stroke:#000000;stroke-linecap:square;stroke-linejoin:miter;"/>
   </g>
   <g id="patch_5">
    <path d="M 7.2 283.68 
L 364.32 283.68 
" style="fill:none;stroke:#000000;stroke-linecap:square;stroke-linejoin:miter;"/>
   </g>
   <g id="patch_6">
    <path d="M 7.2 283.68 
L 7.2 7.2 
" style="fill:none;stroke:#000000;stroke-linecap:square;stroke-linejoin:miter;"/>
   </g>
   <g id="matplotlib.axis_1">
    <g id="xtick_1">
     <g id="line2d_6">
      <path clip-path="url(#p2255af5fa0)" d="M 46.803772 283.68 
L 46.803772 7.2 
" style="fill:none;stroke:#000000;stroke-dasharray:1.000000,3.000000;stroke-dashoffset:0.0;stroke-width:0.5;"/>
     </g>
     <g id="line2d_7">
      <defs>
       <path d="M 0 0 
L 0 -4 
" id="m0d25666e2e" style="stroke:#000000;stroke-width:0.5;"/>
      </defs>
      <g>
       <use style="stroke:#000000;stroke-width:0.5;" x="46.803771872" xlink:href="#m0d25666e2e" y="283.68"/>
      </g>
     </g>
     <g id="line2d_8">
      <defs>
       <path d="M 0 0 
L 0 4 
" id="md38a3346ed" style="stroke:#000000;stroke-width:0.5;"/>
      </defs>
      <g>
       <use style="stroke:#000000;stroke-width:0.5;" x="46.803771872" xlink:href="#md38a3346ed" y="7.2"/>
      </g>
     </g>
     <g id="text_1">
      <!-- -6 -->
      <defs>
       <path d="M 33.015625 40.375 
Q 26.375 40.375 22.484375 35.828125 
Q 18.609375 31.296875 18.609375 23.390625 
Q 18.609375 15.53125 22.484375 10.953125 
Q 26.375 6.390625 33.015625 6.390625 
Q 39.65625 6.390625 43.53125 10.953125 
Q 47.40625 15.53125 47.40625 23.390625 
Q 47.40625 31.296875 43.53125 35.828125 
Q 39.65625 40.375 33.015625 40.375 
M 52.59375 71.296875 
L 52.59375 62.3125 
Q 48.875 64.0625 45.09375 64.984375 
Q 41.3125 65.921875 37.59375 65.921875 
Q 27.828125 65.921875 22.671875 59.328125 
Q 17.53125 52.734375 16.796875 39.40625 
Q 19.671875 43.65625 24.015625 45.921875 
Q 28.375 48.1875 33.59375 48.1875 
Q 44.578125 48.1875 50.953125 41.515625 
Q 57.328125 34.859375 57.328125 23.390625 
Q 57.328125 12.15625 50.6875 5.359375 
Q 44.046875 -1.421875 33.015625 -1.421875 
Q 20.359375 -1.421875 13.671875 8.265625 
Q 6.984375 17.96875 6.984375 36.375 
Q 6.984375 53.65625 15.1875 63.9375 
Q 23.390625 74.21875 37.203125 74.21875 
Q 40.921875 74.21875 44.703125 73.484375 
Q 48.484375 72.75 52.59375 71.296875 
" id="BitstreamVeraSans-Roman-36"/>
       <path d="M 4.890625 31.390625 
L 31.203125 31.390625 
L 31.203125 23.390625 
L 4.890625 23.390625 
z
" id="BitstreamVeraSans-Roman-2d"/>
      </defs>
      <g transform="translate(36.833459372 302.876875)scale(0.2 -0.2)">
       <use xlink:href="#BitstreamVeraSans-Roman-2d"/>
       <use x="36.083984375" xlink:href="#BitstreamVeraSans-Roman-36"/>
      </g>
     </g>
    </g>
    <g id="xtick_2">
     <g id="line2d_9">
      <path clip-path="url(#p2255af5fa0)" d="M 86.4933 283.68 
L 86.4933 7.2 
" style="fill:none;stroke:#000000;stroke-dasharray:1.000000,3.000000;stroke-dashoffset:0.0;stroke-width:0.5;"/>
     </g>
     <g id="line2d_10">
      <g>
       <use style="stroke:#000000;stroke-width:0.5;" x="86.493300388" xlink:href="#m0d25666e2e" y="283.68"/>
      </g>
     </g>
     <g id="line2d_11">
      <g>
       <use style="stroke:#000000;stroke-width:0.5;" x="86.493300388" xlink:href="#md38a3346ed" y="7.2"/>
      </g>
     </g>
     <g id="text_2">
      <!-- -4 -->
      <defs>
       <path d="M 37.796875 64.3125 
L 12.890625 25.390625 
L 37.796875 25.390625 
z
M 35.203125 72.90625 
L 47.609375 72.90625 
L 47.609375 25.390625 
L 58.015625 25.390625 
L 58.015625 17.1875 
L 47.609375 17.1875 
L 47.609375 0 
L 37.796875 0 
L 37.796875 17.1875 
L 4.890625 17.1875 
L 4.890625 26.703125 
z
" id="BitstreamVeraSans-Roman-34"/>
      </defs>
      <g transform="translate(76.522987888 302.876875)scale(0.2 -0.2)">
       <use xlink:href="#BitstreamVeraSans-Roman-2d"/>
       <use x="36.083984375" xlink:href="#BitstreamVeraSans-Roman-34"/>
      </g>
     </g>
    </g>
    <g id="xtick_3">
     <g id="line2d_12">
      <path clip-path="url(#p2255af5fa0)" d="M 126.182829 283.68 
L 126.182829 7.2 
" style="fill:none;stroke:#000000;stroke-dasharray:1.000000,3.000000;stroke-dashoffset:0.0;stroke-width:0.5;"/>
     </g>
     <g id="line2d_13">
      <g>
       <use style="stroke:#000000;stroke-width:0.5;" x="126.182828904" xlink:href="#m0d25666e2e" y="283.68"/>
      </g>
     </g>
     <g id="line2d_14">
      <g>
       <use style="stroke:#000000;stroke-width:0.5;" x="126.182828904" xlink:href="#md38a3346ed" y="7.2"/>
      </g>
     </g>
     <g id="text_3">
      <!-- -2 -->
      <defs>
       <path d="M 19.1875 8.296875 
L 53.609375 8.296875 
L 53.609375 0 
L 7.328125 0 
L 7.328125 8.296875 
Q 12.9375 14.109375 22.625 23.890625 
Q 32.328125 33.6875 34.8125 36.53125 
Q 39.546875 41.84375 41.421875 45.53125 
Q 43.3125 49.21875 43.3125 52.78125 
Q 43.3125 58.59375 39.234375 62.25 
Q 35.15625 65.921875 28.609375 65.921875 
Q 23.96875 65.921875 18.8125 64.3125 
Q 13.671875 62.703125 7.8125 59.421875 
L 7.8125 69.390625 
Q 13.765625 71.78125 18.9375 73 
Q 24.125 74.21875 28.421875 74.21875 
Q 39.75 74.21875 46.484375 68.546875 
Q 53.21875 62.890625 53.21875 53.421875 
Q 53.21875 48.921875 51.53125 44.890625 
Q 49.859375 40.875 45.40625 35.40625 
Q 44.1875 33.984375 37.640625 27.21875 
Q 31.109375 20.453125 19.1875 8.296875 
" id="BitstreamVeraSans-Roman-32"/>
      </defs>
      <g transform="translate(116.212516404 302.876875)scale(0.2 -0.2)">
       <use xlink:href="#BitstreamVeraSans-Roman-2d"/>
       <use x="36.083984375" xlink:href="#BitstreamVeraSans-Roman-32"/>
      </g>
     </g>
    </g>
    <g id="xtick_4">
     <g id="line2d_15">
      <path clip-path="url(#p2255af5fa0)" d="M 165.872357 283.68 
L 165.872357 7.2 
" style="fill:none;stroke:#000000;stroke-dasharray:1.000000,3.000000;stroke-dashoffset:0.0;stroke-width:0.5;"/>
     </g>
     <g id="line2d_16">
      <g>
       <use style="stroke:#000000;stroke-width:0.5;" x="165.87235742" xlink:href="#m0d25666e2e" y="283.68"/>
      </g>
     </g>
     <g id="line2d_17">
      <g>
       <use style="stroke:#000000;stroke-width:0.5;" x="165.87235742" xlink:href="#md38a3346ed" y="7.2"/>
      </g>
     </g>
     <g id="text_4">
      <!-- 0 -->
      <defs>
       <path d="M 31.78125 66.40625 
Q 24.171875 66.40625 20.328125 58.90625 
Q 16.5 51.421875 16.5 36.375 
Q 16.5 21.390625 20.328125 13.890625 
Q 24.171875 6.390625 31.78125 6.390625 
Q 39.453125 6.390625 43.28125 13.890625 
Q 47.125 21.390625 47.125 36.375 
Q 47.125 51.421875 43.28125 58.90625 
Q 39.453125 66.40625 31.78125 66.40625 
M 31.78125 74.21875 
Q 44.046875 74.21875 50.515625 64.515625 
Q 56.984375 54.828125 56.984375 36.375 
Q 56.984375 17.96875 50.515625 8.265625 
Q 44.046875 -1.421875 31.78125 -1.421875 
Q 19.53125 -1.421875 13.0625 8.265625 
Q 6.59375 17.96875 6.59375 36.375 
Q 6.59375 54.828125 13.0625 64.515625 
Q 19.53125 74.21875 31.78125 74.21875 
" id="BitstreamVeraSans-Roman-30"/>
      </defs>
      <g transform="translate(159.50985742 302.876875)scale(0.2 -0.2)">
       <use xlink:href="#BitstreamVeraSans-Roman-30"/>
      </g>
     </g>
    </g>
    <g id="xtick_5">
     <g id="line2d_18">
      <path clip-path="url(#p2255af5fa0)" d="M 205.561886 283.68 
L 205.561886 7.2 
" style="fill:none;stroke:#000000;stroke-dasharray:1.000000,3.000000;stroke-dashoffset:0.0;stroke-width:0.5;"/>
     </g>
     <g id="line2d_19">
      <g>
       <use style="stroke:#000000;stroke-width:0.5;" x="205.561885936" xlink:href="#m0d25666e2e" y="283.68"/>
      </g>
     </g>
     <g id="line2d_20">
      <g>
       <use style="stroke:#000000;stroke-width:0.5;" x="205.561885936" xlink:href="#md38a3346ed" y="7.2"/>
      </g>
     </g>
     <g id="text_5">
      <!-- 2 -->
      <g transform="translate(199.199385936 302.876875)scale(0.2 -0.2)">
       <use xlink:href="#BitstreamVeraSans-Roman-32"/>
      </g>
     </g>
    </g>
    <g id="xtick_6">
     <g id="line2d_21">
      <path clip-path="url(#p2255af5fa0)" d="M 245.251414 283.68 
L 245.251414 7.2 
" style="fill:none;stroke:#000000;stroke-dasharray:1.000000,3.000000;stroke-dashoffset:0.0;stroke-width:0.5;"/>
     </g>
     <g id="line2d_22">
      <g>
       <use style="stroke:#000000;stroke-width:0.5;" x="245.251414452" xlink:href="#m0d25666e2e" y="283.68"/>
      </g>
     </g>
     <g id="line2d_23">
      <g>
       <use style="stroke:#000000;stroke-width:0.5;" x="245.251414452" xlink:href="#md38a3346ed" y="7.2"/>
      </g>
     </g>
     <g id="text_6">
      <!-- 4 -->
      <g transform="translate(238.888914452 302.876875)scale(0.2 -0.2)">
       <use xlink:href="#BitstreamVeraSans-Roman-34"/>
      </g>
     </g>
    </g>
    <g id="xtick_7">
     <g id="line2d_24">
      <path clip-path="url(#p2255af5fa0)" d="M 284.940943 283.68 
L 284.940943 7.2 
" style="fill:none;stroke:#000000;stroke-dasharray:1.000000,3.000000;stroke-dashoffset:0.0;stroke-width:0.5;"/>
     </g>
     <g id="line2d_25">
      <g>
       <use style="stroke:#000000;stroke-width:0.5;" x="284.940942968" xlink:href="#m0d25666e2e" y="283.68"/>
      </g>
     </g>
     <g id="line2d_26">
      <g>
       <use style="stroke:#000000;stroke-width:0.5;" x="284.940942968" xlink:href="#md38a3346ed" y="7.2"/>
      </g>
     </g>
     <g id="text_7">
      <!-- 6 -->
      <g transform="translate(278.578442968 302.876875)scale(0.2 -0.2)">
       <use xlink:href="#BitstreamVeraSans-Roman-36"/>
      </g>
     </g>
    </g>
    <g id="xtick_8">
     <g id="line2d_27">
      <path clip-path="url(#p2255af5fa0)" d="M 324.630471 283.68 
L 324.630471 7.2 
" style="fill:none;stroke:#000000;stroke-dasharray:1.000000,3.000000;stroke-dashoffset:0.0;stroke-width:0.5;"/>
     </g>
     <g id="line2d_28">
      <g>
       <use style="stroke:#000000;stroke-width:0.5;" x="324.630471484" xlink:href="#m0d25666e2e" y="283.68"/>
      </g>
     </g>
     <g id="line2d_29">
      <g>
       <use style="stroke:#000000;stroke-width:0.5;" x="324.630471484" xlink:href="#md38a3346ed" y="7.2"/>
      </g>
     </g>
     <g id="text_8">
      <!-- 8 -->
      <defs>
       <path d="M 31.78125 34.625 
Q 24.75 34.625 20.71875 30.859375 
Q 16.703125 27.09375 16.703125 20.515625 
Q 16.703125 13.921875 20.71875 10.15625 
Q 24.75 6.390625 31.78125 6.390625 
Q 38.8125 6.390625 42.859375 10.171875 
Q 46.921875 13.96875 46.921875 20.515625 
Q 46.921875 27.09375 42.890625 30.859375 
Q 38.875 34.625 31.78125 34.625 
M 21.921875 38.8125 
Q 15.578125 40.375 12.03125 44.71875 
Q 8.5 49.078125 8.5 55.328125 
Q 8.5 64.0625 14.71875 69.140625 
Q 20.953125 74.21875 31.78125 74.21875 
Q 42.671875 74.21875 48.875 69.140625 
Q 55.078125 64.0625 55.078125 55.328125 
Q 55.078125 49.078125 51.53125 44.71875 
Q 48 40.375 41.703125 38.8125 
Q 48.828125 37.15625 52.796875 32.3125 
Q 56.78125 27.484375 56.78125 20.515625 
Q 56.78125 9.90625 50.3125 4.234375 
Q 43.84375 -1.421875 31.78125 -1.421875 
Q 19.734375 -1.421875 13.25 4.234375 
Q 6.78125 9.90625 6.78125 20.515625 
Q 6.78125 27.484375 10.78125 32.3125 
Q 14.796875 37.15625 21.921875 38.8125 
M 18.3125 54.390625 
Q 18.3125 48.734375 21.84375 45.5625 
Q 25.390625 42.390625 31.78125 42.390625 
Q 38.140625 42.390625 41.71875 45.5625 
Q 45.3125 48.734375 45.3125 54.390625 
Q 45.3125 60.0625 41.71875 63.234375 
Q 38.140625 66.40625 31.78125 66.40625 
Q 25.390625 66.40625 21.84375 63.234375 
Q 18.3125 60.0625 18.3125 54.390625 
" id="BitstreamVeraSans-Roman-38"/>
      </defs>
      <g transform="translate(318.267971484 302.876875)scale(0.2 -0.2)">
       <use xlink:href="#BitstreamVeraSans-Roman-38"/>
      </g>
     </g>
    </g>
    <g id="xtick_9">
     <g id="line2d_30">
      <path clip-path="url(#p2255af5fa0)" d="M 364.32 283.68 
L 364.32 7.2 
" style="fill:none;stroke:#000000;stroke-dasharray:1.000000,3.000000;stroke-dashoffset:0.0;stroke-width:0.5;"/>
     </g>
     <g id="line2d_31">
      <g>
       <use style="stroke:#000000;stroke-width:0.5;" x="364.32" xlink:href="#m0d25666e2e" y="283.68"/>
      </g>
     </g>
     <g id="line2d_32">
      <g>
       <use style="stroke:#000000;stroke-width:0.5;" x="364.32" xlink:href="#md38a3346ed" y="7.2"/>
      </g>
     </g>
    </g>
    <g id="xtick_10">
     <g id="line2d_33">
      <defs>
       <path d="M 0 0 
L 0 -2 
" id="me37a326758" style="stroke:#000000;stroke-width:0.5;"/>
      </defs>
      <g>
       <use style="stroke:#000000;stroke-width:0.5;" x="46.803771872" xlink:href="#me37a326758" y="283.68"/>
      </g>
     </g>
     <g id="line2d_34">
      <defs>
       <path d="M 0 0 
L 0 2 
" id="m2a76beb1f4" style="stroke:#000000;stroke-width:0.5;"/>
      </defs>
      <g>
       <use style="stroke:#000000;stroke-width:0.5;" x="46.803771872" xlink:href="#m2a76beb1f4" y="7.2"/>
      </g>
     </g>
    </g>
    <g id="xtick_11">
     <g id="line2d_35">
      <g>
       <use style="stroke:#000000;stroke-width:0.5;" x="86.493300388" xlink:href="#me37a326758" y="283.68"/>
      </g>
     </g>
     <g id="line2d_36">
      <g>
       <use style="stroke:#000000;stroke-width:0.5;" x="86.493300388" xlink:href="#m2a76beb1f4" y="7.2"/>
      </g>
     </g>
    </g>
    <g id="xtick_12">
     <g id="line2d_37">
      <g>
       <use style="stroke:#000000;stroke-width:0.5;" x="126.182828904" xlink:href="#me37a326758" y="283.68"/>
      </g>
     </g>
     <g id="line2d_38">
      <g>
       <use style="stroke:#000000;stroke-width:0.5;" x="126.182828904" xlink:href="#m2a76beb1f4" y="7.2"/>
      </g>
     </g>
    </g>
    <g id="xtick_13">
     <g id="line2d_39">
      <g>
       <use style="stroke:#000000;stroke-width:0.5;" x="165.87235742" xlink:href="#me37a326758" y="283.68"/>
      </g>
     </g>
     <g id="line2d_40">
      <g>
       <use style="stroke:#000000;stroke-width:0.5;" x="165.87235742" xlink:href="#m2a76beb1f4" y="7.2"/>
      </g>
     </g>
    </g>
    <g id="xtick_14">
     <g id="line2d_41">
      <g>
       <use style="stroke:#000000;stroke-width:0.5;" x="205.561885936" xlink:href="#me37a326758" y="283.68"/>
      </g>
     </g>
     <g id="line2d_42">
      <g>
       <use style="stroke:#000000;stroke-width:0.5;" x="205.561885936" xlink:href="#m2a76beb1f4" y="7.2"/>
      </g>
     </g>
    </g>
    <g id="xtick_15">
     <g id="line2d_43">
      <g>
       <use style="stroke:#000000;stroke-width:0.5;" x="245.251414452" xlink:href="#me37a326758" y="283.68"/>
      </g>
     </g>
     <g id="line2d_44">
      <g>
       <use style="stroke:#000000;stroke-width:0.5;" x="245.251414452" xlink:href="#m2a76beb1f4" y="7.2"/>
      </g>
     </g>
    </g>
    <g id="xtick_16">
     <g id="line2d_45">
      <g>
       <use style="stroke:#000000;stroke-width:0.5;" x="284.940942968" xlink:href="#me37a326758" y="283.68"/>
      </g>
     </g>
     <g id="line2d_46">
      <g>
       <use style="stroke:#000000;stroke-width:0.5;" x="284.940942968" xlink:href="#m2a76beb1f4" y="7.2"/>
      </g>
     </g>
    </g>
    <g id="xtick_17">
     <g id="line2d_47">
      <g>
       <use style="stroke:#000000;stroke-width:0.5;" x="324.630471484" xlink:href="#me37a326758" y="283.68"/>
      </g>
     </g>
     <g id="line2d_48">
      <g>
       <use style="stroke:#000000;stroke-width:0.5;" x="324.630471484" xlink:href="#m2a76beb1f4" y="7.2"/>
      </g>
     </g>
    </g>
    <g id="xtick_18">
     <g id="line2d_49">
      <g>
       <use style="stroke:#000000;stroke-width:0.5;" x="364.32" xlink:href="#me37a326758" y="283.68"/>
      </g>
     </g>
     <g id="line2d_50">
      <g>
       <use style="stroke:#000000;stroke-width:0.5;" x="364.32" xlink:href="#m2a76beb1f4" y="7.2"/>
      </g>
     </g>
    </g>
    <g id="text_9">
     <!-- log10 of Df -->
     <defs>
      <path id="BitstreamVeraSans-Roman-20"/>
      <path d="M 12.40625 8.296875 
L 28.515625 8.296875 
L 28.515625 63.921875 
L 10.984375 60.40625 
L 10.984375 69.390625 
L 28.421875 72.90625 
L 38.28125 72.90625 
L 38.28125 8.296875 
L 54.390625 8.296875 
L 54.390625 0 
L 12.40625 0 
z
" id="BitstreamVeraSans-Roman-31"/>
      <path d="M 30.609375 48.390625 
Q 23.390625 48.390625 19.1875 42.75 
Q 14.984375 37.109375 14.984375 27.296875 
Q 14.984375 17.484375 19.15625 11.84375 
Q 23.34375 6.203125 30.609375 6.203125 
Q 37.796875 6.203125 41.984375 11.859375 
Q 46.1875 17.53125 46.1875 27.296875 
Q 46.1875 37.015625 41.984375 42.703125 
Q 37.796875 48.390625 30.609375 48.390625 
M 30.609375 56 
Q 42.328125 56 49.015625 48.375 
Q 55.71875 40.765625 55.71875 27.296875 
Q 55.71875 13.875 49.015625 6.21875 
Q 42.328125 -1.421875 30.609375 -1.421875 
Q 18.84375 -1.421875 12.171875 6.21875 
Q 5.515625 13.875 5.515625 27.296875 
Q 5.515625 40.765625 12.171875 48.375 
Q 18.84375 56 30.609375 56 
" id="BitstreamVeraSans-Roman-6f"/>
      <path d="M 9.421875 75.984375 
L 18.40625 75.984375 
L 18.40625 0 
L 9.421875 0 
z
" id="BitstreamVeraSans-Roman-6c"/>
      <path d="M 19.671875 64.796875 
L 19.671875 8.109375 
L 31.59375 8.109375 
Q 46.6875 8.109375 53.6875 14.9375 
Q 60.6875 21.78125 60.6875 36.53125 
Q 60.6875 51.171875 53.6875 57.984375 
Q 46.6875 64.796875 31.59375 64.796875 
z
M 9.8125 72.90625 
L 30.078125 72.90625 
Q 51.265625 72.90625 61.171875 64.09375 
Q 71.09375 55.28125 71.09375 36.53125 
Q 71.09375 17.671875 61.125 8.828125 
Q 51.171875 0 30.078125 0 
L 9.8125 0 
z
" id="BitstreamVeraSans-Roman-44"/>
      <path d="M 45.40625 27.984375 
Q 45.40625 37.75 41.375 43.109375 
Q 37.359375 48.484375 30.078125 48.484375 
Q 22.859375 48.484375 18.828125 43.109375 
Q 14.796875 37.75 14.796875 27.984375 
Q 14.796875 18.265625 18.828125 12.890625 
Q 22.859375 7.515625 30.078125 7.515625 
Q 37.359375 7.515625 41.375 12.890625 
Q 45.40625 18.265625 45.40625 27.984375 
M 54.390625 6.78125 
Q 54.390625 -7.171875 48.1875 -13.984375 
Q 42 -20.796875 29.203125 -20.796875 
Q 24.46875 -20.796875 20.265625 -20.09375 
Q 16.0625 -19.390625 12.109375 -17.921875 
L 12.109375 -9.1875 
Q 16.0625 -11.328125 19.921875 -12.34375 
Q 23.78125 -13.375 27.78125 -13.375 
Q 36.625 -13.375 41.015625 -8.765625 
Q 45.40625 -4.15625 45.40625 5.171875 
L 45.40625 9.625 
Q 42.625 4.78125 38.28125 2.390625 
Q 33.9375 0 27.875 0 
Q 17.828125 0 11.671875 7.65625 
Q 5.515625 15.328125 5.515625 27.984375 
Q 5.515625 40.671875 11.671875 48.328125 
Q 17.828125 56 27.875 56 
Q 33.9375 56 38.28125 53.609375 
Q 42.625 51.21875 45.40625 46.390625 
L 45.40625 54.6875 
L 54.390625 54.6875 
z
" id="BitstreamVeraSans-Roman-67"/>
      <path d="M 37.109375 75.984375 
L 37.109375 68.5 
L 28.515625 68.5 
Q 23.6875 68.5 21.796875 66.546875 
Q 19.921875 64.59375 19.921875 59.515625 
L 19.921875 54.6875 
L 34.71875 54.6875 
L 34.71875 47.703125 
L 19.921875 47.703125 
L 19.921875 0 
L 10.890625 0 
L 10.890625 47.703125 
L 2.296875 47.703125 
L 2.296875 54.6875 
L 10.890625 54.6875 
L 10.890625 58.5 
Q 10.890625 67.625 15.140625 71.796875 
Q 19.390625 75.984375 28.609375 75.984375 
z
" id="BitstreamVeraSans-Roman-66"/>
     </defs>
     <g transform="translate(130.5740625 327.233125)scale(0.2 -0.2)">
      <use xlink:href="#BitstreamVeraSans-Roman-6c"/>
      <use x="27.783203125" xlink:href="#BitstreamVeraSans-Roman-6f"/>
      <use x="88.96484375" xlink:href="#BitstreamVeraSans-Roman-67"/>
      <use x="152.44140625" xlink:href="#BitstreamVeraSans-Roman-31"/>
      <use x="216.064453125" xlink:href="#BitstreamVeraSans-Roman-30"/>
      <use x="279.6875" xlink:href="#BitstreamVeraSans-Roman-20"/>
      <use x="311.474609375" xlink:href="#BitstreamVeraSans-Roman-6f"/>
      <use x="372.65625" xlink:href="#BitstreamVeraSans-Roman-66"/>
      <use x="407.861328125" xlink:href="#BitstreamVeraSans-Roman-20"/>
      <use x="439.6484375" xlink:href="#BitstreamVeraSans-Roman-44"/>
      <use x="516.650390625" xlink:href="#BitstreamVeraSans-Roman-66"/>
     </g>
    </g>
   </g>
   <g id="matplotlib.axis_2">
    <g id="ytick_1">
     <g id="line2d_51">
      <path clip-path="url(#p2255af5fa0)" d="M 7.2 283.68 
L 364.32 283.68 
" style="fill:none;stroke:#000000;stroke-dasharray:1.000000,3.000000;stroke-dashoffset:0.0;stroke-width:0.5;"/>
     </g>
     <g id="line2d_52">
      <defs>
       <path d="M 0 0 
L 4 0 
" id="m8779558305" style="stroke:#000000;stroke-width:0.5;"/>
      </defs>
      <g>
       <use style="stroke:#000000;stroke-width:0.5;" x="7.2" xlink:href="#m8779558305" y="283.68"/>
      </g>
     </g>
     <g id="line2d_53">
      <defs>
       <path d="M 0 0 
L -4 0 
" id="m16108b1c44" style="stroke:#000000;stroke-width:0.5;"/>
      </defs>
      <g>
       <use style="stroke:#000000;stroke-width:0.5;" x="364.32" xlink:href="#m16108b1c44" y="283.68"/>
      </g>
     </g>
    </g>
    <g id="ytick_2">
     <g id="line2d_54">
      <path clip-path="url(#p2255af5fa0)" d="M 7.2 228.931485 
L 364.32 228.931485 
" style="fill:none;stroke:#000000;stroke-dasharray:1.000000,3.000000;stroke-dashoffset:0.0;stroke-width:0.5;"/>
     </g>
     <g id="line2d_55">
      <g>
       <use style="stroke:#000000;stroke-width:0.5;" x="7.2" xlink:href="#m8779558305" y="228.931485149"/>
      </g>
     </g>
     <g id="line2d_56">
      <g>
       <use style="stroke:#000000;stroke-width:0.5;" x="364.32" xlink:href="#m16108b1c44" y="228.931485149"/>
      </g>
     </g>
    </g>
    <g id="ytick_3">
     <g id="line2d_57">
      <path clip-path="url(#p2255af5fa0)" d="M 7.2 174.18297 
L 364.32 174.18297 
" style="fill:none;stroke:#000000;stroke-dasharray:1.000000,3.000000;stroke-dashoffset:0.0;stroke-width:0.5;"/>
     </g>
     <g id="line2d_58">
      <g>
       <use style="stroke:#000000;stroke-width:0.5;" x="7.2" xlink:href="#m8779558305" y="174.182970297"/>
      </g>
     </g>
     <g id="line2d_59">
      <g>
       <use style="stroke:#000000;stroke-width:0.5;" x="364.32" xlink:href="#m16108b1c44" y="174.182970297"/>
      </g>
     </g>
    </g>
    <g id="ytick_4">
     <g id="line2d_60">
      <path clip-path="url(#p2255af5fa0)" d="M 7.2 119.434455 
L 364.32 119.434455 
" style="fill:none;stroke:#000000;stroke-dasharray:1.000000,3.000000;stroke-dashoffset:0.0;stroke-width:0.5;"/>
     </g>
     <g id="line2d_61">
      <g>
       <use style="stroke:#000000;stroke-width:0.5;" x="7.2" xlink:href="#m8779558305" y="119.434455446"/>
      </g>
     </g>
     <g id="line2d_62">
      <g>
       <use style="stroke:#000000;stroke-width:0.5;" x="364.32" xlink:href="#m16108b1c44" y="119.434455446"/>
      </g>
     </g>
    </g>
    <g id="ytick_5">
     <g id="line2d_63">
      <path clip-path="url(#p2255af5fa0)" d="M 7.2 64.685941 
L 364.32 64.685941 
" style="fill:none;stroke:#000000;stroke-dasharray:1.000000,3.000000;stroke-dashoffset:0.0;stroke-width:0.5;"/>
     </g>
     <g id="line2d_64">
      <g>
       <use style="stroke:#000000;stroke-width:0.5;" x="7.2" xlink:href="#m8779558305" y="64.6859405941"/>
      </g>
     </g>
     <g id="line2d_65">
      <g>
       <use style="stroke:#000000;stroke-width:0.5;" x="364.32" xlink:href="#m16108b1c44" y="64.6859405941"/>
      </g>
     </g>
    </g>
    <g id="ytick_6">
     <g id="line2d_66">
      <path clip-path="url(#p2255af5fa0)" d="M 7.2 9.937426 
L 364.32 9.937426 
" style="fill:none;stroke:#000000;stroke-dasharray:1.000000,3.000000;stroke-dashoffset:0.0;stroke-width:0.5;"/>
     </g>
     <g id="line2d_67">
      <g>
       <use style="stroke:#000000;stroke-width:0.5;" x="7.2" xlink:href="#m8779558305" y="9.93742574257"/>
      </g>
     </g>
     <g id="line2d_68">
      <g>
       <use style="stroke:#000000;stroke-width:0.5;" x="364.32" xlink:href="#m16108b1c44" y="9.93742574257"/>
      </g>
     </g>
    </g>
   </g>
   <g id="text_10">
    <!-- f1-5,20-D -->
    <defs>
     <path d="M 11.71875 12.40625 
L 22.015625 12.40625 
L 22.015625 4 
L 14.015625 -11.625 
L 7.71875 -11.625 
L 11.71875 4 
z
" id="BitstreamVeraSans-Roman-2c"/>
     <path d="M 10.796875 72.90625 
L 49.515625 72.90625 
L 49.515625 64.59375 
L 19.828125 64.59375 
L 19.828125 46.734375 
Q 21.96875 47.46875 24.109375 47.828125 
Q 26.265625 48.1875 28.421875 48.1875 
Q 40.625 48.1875 47.75 41.5 
Q 54.890625 34.8125 54.890625 23.390625 
Q 54.890625 11.625 47.5625 5.09375 
Q 40.234375 -1.421875 26.90625 -1.421875 
Q 22.3125 -1.421875 17.546875 -0.640625 
Q 12.796875 0.140625 7.71875 1.703125 
L 7.71875 11.625 
Q 12.109375 9.234375 16.796875 8.0625 
Q 21.484375 6.890625 26.703125 6.890625 
Q 35.15625 6.890625 40.078125 11.328125 
Q 45.015625 15.765625 45.015625 23.390625 
Q 45.015625 31 40.078125 35.4375 
Q 35.15625 39.890625 26.703125 39.890625 
Q 22.75 39.890625 18.8125 39.015625 
Q 14.890625 38.140625 10.796875 36.28125 
z
" id="BitstreamVeraSans-Roman-35"/>
    </defs>
    <g transform="translate(263.049475 278.1504)scale(0.2 -0.2)">
     <use xlink:href="#BitstreamVeraSans-Roman-66"/>
     <use x="35.205078125" xlink:href="#BitstreamVeraSans-Roman-31"/>
     <use x="98.828125" xlink:href="#BitstreamVeraSans-Roman-2d"/>
     <use x="134.912109375" xlink:href="#BitstreamVeraSans-Roman-35"/>
     <use x="198.53515625" xlink:href="#BitstreamVeraSans-Roman-2c"/>
     <use x="230.322265625" xlink:href="#BitstreamVeraSans-Roman-32"/>
     <use x="293.9453125" xlink:href="#BitstreamVeraSans-Roman-30"/>
     <use x="357.568359375" xlink:href="#BitstreamVeraSans-Roman-2d"/>
     <use x="393.65234375" xlink:href="#BitstreamVeraSans-Roman-44"/>
    </g>
   </g>
  </g>
 </g>
 <defs>
  <clipPath id="p2255af5fa0">
   <rect height="276.48" width="357.12" x="7.2" y="7.2"/>
  </clipPath>
 </defs>
</svg>
