<?xml version="1.0" encoding="utf-8" standalone="no"?>
<!DOCTYPE svg PUBLIC "-//W3C//DTD SVG 1.1//EN"
  "http://www.w3.org/Graphics/SVG/1.1/DTD/svg11.dtd">
<!-- Created with matplotlib (http://matplotlib.org/) -->
<svg height="338pt" version="1.1" viewBox="0 0 371 338" width="371pt" xmlns="http://www.w3.org/2000/svg" xmlns:xlink="http://www.w3.org/1999/xlink">
 <defs>
  <style type="text/css">
*{stroke-linecap:butt;stroke-linejoin:round;stroke-miterlimit:100000;}
  </style>
 </defs>
 <g id="figure_1">
  <g id="patch_1">
   <path d="M 0 338.5925 
L 371.52 338.5925 
L 371.52 0 
L 0 0 
z
" style="fill:#ffffff;"/>
  </g>
  <g id="axes_1">
   <g id="patch_2">
    <path d="M 7.2 283.68 
L 364.32 283.68 
L 364.32 7.2 
L 7.2 7.2 
z
" style="fill:#ffffff;"/>
   </g>
   <g id="line2d_1">
    <path clip-path="url(#p7b73aa394e)" d="M 190.561602 283.68 
L 190.561602 279.117624 
L 190.634201 279.117624 
L 190.634201 274.555248 
L 191.540575 274.555248 
L 191.540575 269.992871 
L 196.426458 269.992871 
L 196.426458 265.430495 
L 196.677365 265.430495 
L 196.677365 260.868119 
L 197.611802 260.868119 
L 197.611802 256.305743 
L 199.230048 256.305743 
L 199.230048 251.743366 
L 199.643829 251.743366 
L 199.643829 247.18099 
L 200.37191 247.18099 
L 200.37191 242.618614 
L 202.049093 242.618614 
L 202.049093 238.056238 
L 202.794256 238.056238 
L 202.794256 233.493861 
L 203.480082 233.493861 
L 203.480082 228.931485 
L 203.897362 228.931485 
L 203.897362 224.369109 
L 203.979634 224.369109 
L 203.979634 219.806733 
L 204.648025 219.806733 
L 204.648025 215.244356 
L 204.691901 215.244356 
L 204.691901 210.68198 
L 204.940385 210.68198 
L 204.940385 206.119604 
L 204.940595 206.119604 
L 204.940595 201.557228 
L 205.299817 201.557228 
L 205.299817 196.994851 
L 205.383026 196.994851 
L 205.383026 192.432475 
L 206.098691 192.432475 
L 206.098691 187.870099 
L 207.007133 187.870099 
L 207.007133 183.307723 
L 208.959129 183.307723 
L 208.959129 178.745347 
L 209.248759 178.745347 
L 209.248759 174.18297 
L 209.4501 174.18297 
L 209.4501 169.620594 
L 210.754165 169.620594 
L 210.754165 165.058218 
L 210.761811 165.058218 
L 210.761811 160.495842 
L 211.226994 160.495842 
L 211.226994 155.933465 
L 212.045151 155.933465 
L 212.045151 151.371089 
L 212.134318 151.371089 
L 212.134318 146.808713 
L 212.510391 146.808713 
L 212.510391 142.246337 
L 213.089075 142.246337 
L 213.089075 137.68396 
L 213.912651 137.68396 
L 213.912651 133.121584 
L 217.596407 133.121584 
L 217.596407 128.559208 
L 220.638119 128.559208 
L 220.638119 123.996832 
L 222.697045 123.996832 
L 222.697045 119.434455 
L 226.781414 119.434455 
L 226.781414 114.872079 
L 226.87883 114.872079 
L 226.87883 110.309703 
L 227.931715 110.309703 
L 227.931715 105.747327 
L 229.274717 105.747327 
L 229.274717 101.18495 
L 229.539704 101.18495 
L 229.539704 96.622574 
L 230.704932 96.622574 
L 230.704932 92.060198 
L 230.9495 92.060198 
L 230.9495 87.497822 
L 231.524518 87.497822 
L 231.524518 82.935446 
L 231.712635 82.935446 
L 231.712635 78.373069 
L 232.290093 78.373069 
L 232.290093 73.810693 
L 232.541308 73.810693 
L 232.541308 69.248317 
L 233.159767 69.248317 
L 233.159767 64.685941 
L 233.162995 64.685941 
L 233.162995 60.123564 
L 233.518213 60.123564 
L 233.518213 55.561188 
L 233.706329 55.561188 
L 233.706329 50.998812 
L 233.914934 50.998812 
L 233.914934 46.436436 
L 234.809414 46.436436 
L 234.809414 41.874059 
L 236.02522 41.874059 
L 236.02522 37.311683 
L 236.699381 37.311683 
L 236.699381 32.749307 
L 240.492908 32.749307 
L 240.492908 28.186931 
L 240.647916 28.186931 
L 240.647916 23.624554 
L 241.380522 23.624554 
L 241.380522 19.062178 
L 242.681494 19.062178 
L 242.681494 14.499802 
L 259.109396 14.499802 
L 259.109396 9.937426 
L 259.109396 9.937426 
L 259.109396 9.937426 
L 364.32 9.937426 
" style="fill:none;stroke:#ff0000;stroke-linecap:square;stroke-width:3.0;"/>
   </g>
   <g id="line2d_2">
    <path clip-path="url(#p7b73aa394e)" d="M 207.660612 283.68 
L 207.660612 279.117624 
L 208.985468 279.117624 
L 208.985468 274.555248 
L 213.590746 274.555248 
L 213.590746 269.992871 
L 217.923364 269.992871 
L 217.923364 265.430495 
L 220.731584 265.430495 
L 220.731584 260.868119 
L 223.025482 260.868119 
L 223.025482 256.305743 
L 225.416691 256.305743 
L 225.416691 251.743366 
L 225.597233 251.743366 
L 225.597233 247.18099 
L 227.595953 247.18099 
L 227.595953 242.618614 
L 229.627428 242.618614 
L 229.627428 238.056238 
L 230.388314 238.056238 
L 230.388314 233.493861 
L 231.546092 233.493861 
L 231.546092 228.931485 
L 231.583862 228.931485 
L 231.583862 224.369109 
L 233.184175 224.369109 
L 233.184175 219.806733 
L 234.189551 219.806733 
L 234.189551 215.244356 
L 234.203172 215.244356 
L 234.203172 210.68198 
L 235.198225 210.68198 
L 235.198225 206.119604 
L 238.629586 206.119604 
L 238.629586 201.557228 
L 239.277897 201.557228 
L 239.277897 196.994851 
L 239.341489 196.994851 
L 239.341489 192.432475 
L 250.227901 192.432475 
L 250.227901 187.870099 
L 256.333747 187.870099 
L 256.333747 183.307723 
L 256.360488 183.307723 
L 256.360488 178.745347 
L 257.283167 178.745347 
L 257.283167 174.18297 
L 259.732682 174.18297 
L 259.732682 169.620594 
L 260.479575 169.620594 
L 260.479575 165.058218 
L 261.79627 165.058218 
L 261.79627 160.495842 
L 262.623401 160.495842 
L 262.623401 155.933465 
L 263.409647 155.933465 
L 263.409647 151.371089 
L 263.535823 151.371089 
L 263.535823 146.808713 
L 264.991847 146.808713 
L 264.991847 142.246337 
L 265.316081 142.246337 
L 265.316081 137.68396 
L 266.178159 137.68396 
L 266.178159 133.121584 
L 266.474448 133.121584 
L 266.474448 128.559208 
L 266.894198 128.559208 
L 266.894198 123.996832 
L 267.102353 123.996832 
L 267.102353 119.434455 
L 267.491936 119.434455 
L 267.491936 114.872079 
L 267.933706 114.872079 
L 267.933706 110.309703 
L 268.151158 110.309703 
L 268.151158 105.747327 
L 268.750543 105.747327 
L 268.750543 101.18495 
L 270.326143 101.18495 
L 270.326143 96.622574 
L 270.516184 96.622574 
L 270.516184 92.060198 
L 272.268534 92.060198 
L 272.268534 87.497822 
L 272.800734 87.497822 
L 272.800734 82.935446 
L 274.024535 82.935446 
L 274.024535 78.373069 
L 276.019961 78.373069 
L 276.019961 73.810693 
L 276.086961 73.810693 
L 276.086961 69.248317 
L 276.433027 69.248317 
L 276.433027 64.685941 
L 276.507838 64.685941 
L 276.507838 60.123564 
L 281.020559 60.123564 
L 281.020559 55.561188 
L 281.690412 55.561188 
L 281.690412 50.998812 
L 283.086299 50.998812 
L 283.086299 46.436436 
L 284.422786 46.436436 
L 284.422786 41.874059 
L 286.135841 41.874059 
L 286.135841 37.311683 
L 289.097934 37.311683 
L 289.097934 32.749307 
L 289.398059 32.749307 
L 289.398059 28.186931 
L 290.039928 28.186931 
L 290.039928 23.624554 
L 290.537605 23.624554 
L 290.537605 19.062178 
L 290.931533 19.062178 
L 290.931533 14.499802 
L 296.046265 14.499802 
L 296.046265 9.937426 
L 296.046265 9.937426 
L 296.046265 9.937426 
L 364.32 9.937426 
" style="fill:none;stroke:#00bfbf;stroke-linecap:square;"/>
   </g>
   <g id="line2d_3">
    <path clip-path="url(#p7b73aa394e)" d="M 207.660612 283.68 
L 207.660612 279.117624 
L 208.985468 279.117624 
L 208.985468 274.555248 
L 211.822644 274.555248 
L 211.822644 269.992871 
L 212.321036 269.992871 
L 212.321036 265.430495 
L 212.3585 265.430495 
L 212.3585 260.868119 
L 213.590746 260.868119 
L 213.590746 256.305743 
L 214.575989 256.305743 
L 214.575989 251.743366 
L 216.245692 251.743366 
L 216.245692 247.18099 
L 217.042906 247.18099 
L 217.042906 242.618614 
L 217.512777 242.618614 
L 217.512777 238.056238 
L 218.710557 238.056238 
L 218.710557 233.493861 
L 223.025482 233.493861 
L 223.025482 228.931485 
L 223.409503 228.931485 
L 223.409503 224.369109 
L 224.410871 224.369109 
L 224.410871 219.806733 
L 228.274951 219.806733 
L 228.274951 215.244356 
L 228.881171 215.244356 
L 228.881171 210.68198 
L 230.388314 210.68198 
L 230.388314 206.119604 
L 231.583862 206.119604 
L 231.583862 201.557228 
L 232.086703 201.557228 
L 232.086703 196.994851 
L 234.568085 196.994851 
L 234.568085 192.432475 
L 239.341489 192.432475 
L 239.341489 187.870099 
L 240.875272 187.870099 
L 240.875272 183.307723 
L 244.935776 183.307723 
L 244.935776 178.745347 
L 248.908338 178.745347 
L 248.908338 174.18297 
L 250.227901 174.18297 
L 250.227901 169.620594 
L 250.318985 169.620594 
L 250.318985 165.058218 
L 250.589685 165.058218 
L 250.589685 160.495842 
L 251.020092 160.495842 
L 251.020092 155.933465 
L 251.189615 155.933465 
L 251.189615 151.371089 
L 254.706871 151.371089 
L 254.706871 146.808713 
L 256.360488 146.808713 
L 256.360488 142.246337 
L 256.58032 142.246337 
L 256.58032 137.68396 
L 256.811669 137.68396 
L 256.811669 133.121584 
L 257.283167 133.121584 
L 257.283167 128.559208 
L 258.147646 128.559208 
L 258.147646 123.996832 
L 258.990419 123.996832 
L 258.990419 119.434455 
L 259.363849 119.434455 
L 259.363849 114.872079 
L 259.732682 114.872079 
L 259.732682 110.309703 
L 260.214116 110.309703 
L 260.214116 105.747327 
L 261.447173 105.747327 
L 261.447173 101.18495 
L 261.79627 101.18495 
L 261.79627 96.622574 
L 262.200676 96.622574 
L 262.200676 92.060198 
L 263.409647 92.060198 
L 263.409647 87.497822 
L 265.316081 87.497822 
L 265.316081 82.935446 
L 266.894198 82.935446 
L 266.894198 78.373069 
L 267.062142 78.373069 
L 267.062142 73.810693 
L 267.491936 73.810693 
L 267.491936 69.248317 
L 268.151158 69.248317 
L 268.151158 64.685941 
L 268.880582 64.685941 
L 268.880582 60.123564 
L 272.268534 60.123564 
L 272.268534 55.561188 
L 273.488158 55.561188 
L 273.488158 50.998812 
L 274.024535 50.998812 
L 274.024535 46.436436 
L 275.950461 46.436436 
L 275.950461 41.874059 
L 276.076823 41.874059 
L 276.076823 37.311683 
L 277.532956 37.311683 
L 277.532956 32.749307 
L 279.20788 32.749307 
L 279.20788 28.186931 
L 281.453519 28.186931 
L 281.453519 23.624554 
L 283.813893 23.624554 
L 283.813893 19.062178 
L 284.137763 19.062178 
L 284.137763 14.499802 
L 290.039928 14.499802 
L 290.039928 9.937426 
L 290.039928 9.937426 
L 290.039928 9.937426 
L 364.32 9.937426 
" style="fill:none;stroke:#bf00bf;stroke-linecap:square;"/>
   </g>
   <g id="line2d_4">
    <path clip-path="url(#p7b73aa394e)" d="M 196.426458 283.68 
L 196.426458 279.117624 
L 206.32527 279.117624 
L 206.32527 274.555248 
L 207.660612 274.555248 
L 207.660612 269.992871 
L 208.400636 269.992871 
L 208.400636 265.430495 
L 208.818275 265.430495 
L 208.818275 260.868119 
L 208.985468 260.868119 
L 208.985468 256.305743 
L 211.527733 256.305743 
L 211.527733 251.743366 
L 211.757645 251.743366 
L 211.757645 247.18099 
L 211.822644 247.18099 
L 211.822644 242.618614 
L 212.321036 242.618614 
L 212.321036 238.056238 
L 213.157602 238.056238 
L 213.157602 233.493861 
L 213.590746 233.493861 
L 213.590746 228.931485 
L 213.734058 228.931485 
L 213.734058 224.369109 
L 215.184956 224.369109 
L 215.184956 219.806733 
L 215.761658 219.806733 
L 215.761658 215.244356 
L 216.137624 215.244356 
L 216.137624 210.68198 
L 216.245692 210.68198 
L 216.245692 206.119604 
L 217.042906 206.119604 
L 217.042906 201.557228 
L 217.512777 201.557228 
L 217.512777 196.994851 
L 217.675347 196.994851 
L 217.675347 192.432475 
L 220.855774 192.432475 
L 220.855774 187.870099 
L 224.410871 187.870099 
L 224.410871 183.307723 
L 230.255808 183.307723 
L 230.255808 178.745347 
L 234.568085 178.745347 
L 234.568085 174.18297 
L 239.341489 174.18297 
L 239.341489 169.620594 
L 240.875272 169.620594 
L 240.875272 165.058218 
L 242.171801 165.058218 
L 242.171801 160.495842 
L 244.351715 160.495842 
L 244.351715 155.933465 
L 244.491638 155.933465 
L 244.491638 151.371089 
L 244.935776 151.371089 
L 244.935776 146.808713 
L 245.274902 146.808713 
L 245.274902 142.246337 
L 247.314003 142.246337 
L 247.314003 137.68396 
L 247.556983 137.68396 
L 247.556983 133.121584 
L 247.861035 133.121584 
L 247.861035 128.559208 
L 248.908338 128.559208 
L 248.908338 123.996832 
L 249.405868 123.996832 
L 249.405868 119.434455 
L 250.318985 119.434455 
L 250.318985 114.872079 
L 250.565755 114.872079 
L 250.565755 110.309703 
L 250.589685 110.309703 
L 250.589685 105.747327 
L 250.811909 105.747327 
L 250.811909 101.18495 
L 251.020092 101.18495 
L 251.020092 96.622574 
L 251.15293 96.622574 
L 251.15293 92.060198 
L 253.362754 92.060198 
L 253.362754 87.497822 
L 253.975413 87.497822 
L 253.975413 82.935446 
L 254.706871 82.935446 
L 254.706871 78.373069 
L 255.16404 78.373069 
L 255.16404 73.810693 
L 256.483774 73.810693 
L 256.483774 69.248317 
L 256.811669 69.248317 
L 256.811669 64.685941 
L 256.93315 64.685941 
L 256.93315 60.123564 
L 258.147646 60.123564 
L 258.147646 55.561188 
L 259.363849 55.561188 
L 259.363849 50.998812 
L 259.732682 50.998812 
L 259.732682 46.436436 
L 261.79627 46.436436 
L 261.79627 41.874059 
L 264.737271 41.874059 
L 264.737271 37.311683 
L 265.288557 37.311683 
L 265.288557 32.749307 
L 265.778836 32.749307 
L 265.778836 28.186931 
L 266.894198 28.186931 
L 266.894198 23.624554 
L 271.127842 23.624554 
L 271.127842 19.062178 
L 275.814715 19.062178 
L 275.814715 14.499802 
L 283.123679 14.499802 
L 283.123679 9.937426 
L 283.123679 9.937426 
L 283.123679 9.937426 
L 364.32 9.937426 
" style="fill:none;stroke:#000000;stroke-linecap:square;"/>
   </g>
   <g id="line2d_5">
    <path clip-path="url(#p7b73aa394e)" d="M 196.426458 283.68 
L 196.426458 279.117624 
L 196.677365 279.117624 
L 196.677365 274.555248 
L 198.791465 274.555248 
L 198.791465 269.992871 
L 205.176187 269.992871 
L 205.176187 265.430495 
L 206.32527 265.430495 
L 206.32527 260.868119 
L 206.415722 260.868119 
L 206.415722 256.305743 
L 207.997156 256.305743 
L 207.997156 251.743366 
L 208.05507 251.743366 
L 208.05507 247.18099 
L 208.985468 247.18099 
L 208.985468 242.618614 
L 209.881304 242.618614 
L 209.881304 238.056238 
L 211.076059 238.056238 
L 211.076059 233.493861 
L 211.527733 233.493861 
L 211.527733 228.931485 
L 211.555064 228.931485 
L 211.555064 224.369109 
L 212.167447 224.369109 
L 212.167447 219.806733 
L 212.321036 219.806733 
L 212.321036 215.244356 
L 212.739955 215.244356 
L 212.739955 210.68198 
L 213.157602 210.68198 
L 213.157602 206.119604 
L 213.236801 206.119604 
L 213.236801 201.557228 
L 213.590746 201.557228 
L 213.590746 196.994851 
L 213.734058 196.994851 
L 213.734058 192.432475 
L 214.830813 192.432475 
L 214.830813 187.870099 
L 215.084431 187.870099 
L 215.084431 183.307723 
L 217.675347 183.307723 
L 217.675347 178.745347 
L 218.165934 178.745347 
L 218.165934 174.18297 
L 218.441788 174.18297 
L 218.441788 169.620594 
L 230.255808 169.620594 
L 230.255808 165.058218 
L 232.544009 165.058218 
L 232.544009 160.495842 
L 234.568085 160.495842 
L 234.568085 155.933465 
L 236.812984 155.933465 
L 236.812984 151.371089 
L 236.98209 151.371089 
L 236.98209 146.808713 
L 237.743057 146.808713 
L 237.743057 142.246337 
L 239.341489 142.246337 
L 239.341489 137.68396 
L 239.749164 137.68396 
L 239.749164 133.121584 
L 240.875272 133.121584 
L 240.875272 128.559208 
L 241.640606 128.559208 
L 241.640606 123.996832 
L 241.71606 123.996832 
L 241.71606 119.434455 
L 241.847625 119.434455 
L 241.847625 114.872079 
L 241.887594 114.872079 
L 241.887594 110.309703 
L 242.171801 110.309703 
L 242.171801 105.747327 
L 242.328611 105.747327 
L 242.328611 101.18495 
L 243.971949 101.18495 
L 243.971949 96.622574 
L 244.379935 96.622574 
L 244.379935 92.060198 
L 244.491638 92.060198 
L 244.491638 87.497822 
L 245.192539 87.497822 
L 245.192539 82.935446 
L 245.209994 82.935446 
L 245.209994 78.373069 
L 246.356358 78.373069 
L 246.356358 73.810693 
L 246.906212 73.810693 
L 246.906212 69.248317 
L 247.650611 69.248317 
L 247.650611 64.685941 
L 247.834531 64.685941 
L 247.834531 60.123564 
L 247.841783 60.123564 
L 247.841783 55.561188 
L 247.861035 55.561188 
L 247.861035 50.998812 
L 248.589033 50.998812 
L 248.589033 46.436436 
L 250.318985 46.436436 
L 250.318985 41.874059 
L 250.680494 41.874059 
L 250.680494 37.311683 
L 251.957282 37.311683 
L 251.957282 32.749307 
L 254.125422 32.749307 
L 254.125422 28.186931 
L 255.394099 28.186931 
L 255.394099 23.624554 
L 257.43461 23.624554 
L 257.43461 19.062178 
L 266.640341 19.062178 
L 266.640341 14.499802 
L 280.10189 14.499802 
L 280.10189 9.937426 
L 280.10189 9.937426 
L 280.10189 9.937426 
L 364.32 9.937426 
" style="fill:none;stroke:#00bfbf;stroke-linecap:square;"/>
   </g>
   <g id="line2d_6">
    <path clip-path="url(#p7b73aa394e)" d="M 190.561602 283.68 
L 190.561602 279.117624 
L 190.634201 279.117624 
L 190.634201 274.555248 
L 191.540575 274.555248 
L 191.540575 269.992871 
L 196.426458 269.992871 
L 196.426458 265.430495 
L 196.677365 265.430495 
L 196.677365 260.868119 
L 199.004886 260.868119 
L 199.004886 256.305743 
L 199.230048 256.305743 
L 199.230048 251.743366 
L 199.643829 251.743366 
L 199.643829 247.18099 
L 200.37191 247.18099 
L 200.37191 242.618614 
L 202.049093 242.618614 
L 202.049093 238.056238 
L 202.794256 238.056238 
L 202.794256 233.493861 
L 203.613895 233.493861 
L 203.613895 228.931485 
L 203.979634 228.931485 
L 203.979634 224.369109 
L 204.541284 224.369109 
L 204.541284 219.806733 
L 204.648025 219.806733 
L 204.648025 215.244356 
L 204.691901 215.244356 
L 204.691901 210.68198 
L 205.299817 210.68198 
L 205.299817 206.119604 
L 205.383026 206.119604 
L 205.383026 201.557228 
L 206.098691 201.557228 
L 206.098691 196.994851 
L 207.009678 196.994851 
L 207.009678 192.432475 
L 208.959129 192.432475 
L 208.959129 187.870099 
L 209.4501 187.870099 
L 209.4501 183.307723 
L 210.754165 183.307723 
L 210.754165 178.745347 
L 210.761811 178.745347 
L 210.761811 174.18297 
L 211.226994 174.18297 
L 211.226994 169.620594 
L 212.045151 169.620594 
L 212.045151 165.058218 
L 212.134318 165.058218 
L 212.134318 160.495842 
L 212.451771 160.495842 
L 212.451771 155.933465 
L 212.510391 155.933465 
L 212.510391 151.371089 
L 213.089075 151.371089 
L 213.089075 146.808713 
L 215.322539 146.808713 
L 215.322539 142.246337 
L 216.706413 142.246337 
L 216.706413 137.68396 
L 217.596407 137.68396 
L 217.596407 133.121584 
L 222.697045 133.121584 
L 222.697045 128.559208 
L 226.781414 128.559208 
L 226.781414 123.996832 
L 226.87883 123.996832 
L 226.87883 119.434455 
L 229.274717 119.434455 
L 229.274717 114.872079 
L 229.539704 114.872079 
L 229.539704 110.309703 
L 230.704932 110.309703 
L 230.704932 105.747327 
L 230.9495 105.747327 
L 230.9495 101.18495 
L 231.524518 101.18495 
L 231.524518 96.622574 
L 231.712635 96.622574 
L 231.712635 92.060198 
L 232.290093 92.060198 
L 232.290093 87.497822 
L 232.544009 87.497822 
L 232.544009 82.935446 
L 233.159767 82.935446 
L 233.159767 78.373069 
L 233.518213 78.373069 
L 233.518213 73.810693 
L 233.539854 73.810693 
L 233.539854 69.248317 
L 233.579276 69.248317 
L 233.579276 64.685941 
L 233.707076 64.685941 
L 233.707076 60.123564 
L 233.914934 60.123564 
L 233.914934 55.561188 
L 234.809414 55.561188 
L 234.809414 50.998812 
L 235.108582 50.998812 
L 235.108582 46.436436 
L 236.240751 46.436436 
L 236.240751 41.874059 
L 236.739126 41.874059 
L 236.739126 37.311683 
L 237.515818 37.311683 
L 237.515818 32.749307 
L 240.492908 32.749307 
L 240.492908 28.186931 
L 240.875272 28.186931 
L 240.875272 23.624554 
L 241.381409 23.624554 
L 241.381409 19.062178 
L 242.681494 19.062178 
L 242.681494 14.499802 
L 259.109396 14.499802 
L 259.109396 9.937426 
L 259.109396 9.937426 
L 259.109396 9.937426 
L 364.32 9.937426 
" style="fill:none;stroke:#bf00bf;stroke-linecap:square;"/>
   </g>
   <g id="patch_3">
    <path d="M 7.2 7.2 
L 364.32 7.2 
" style="fill:none;stroke:#000000;stroke-linecap:square;stroke-linejoin:miter;"/>
   </g>
   <g id="patch_4">
    <path d="M 364.32 283.68 
L 364.32 7.2 
" style="fill:none;stroke:#000000;stroke-linecap:square;stroke-linejoin:miter;"/>
   </g>
   <g id="patch_5">
    <path d="M 7.2 283.68 
L 364.32 283.68 
" style="fill:none;stroke:#000000;stroke-linecap:square;stroke-linejoin:miter;"/>
   </g>
   <g id="patch_6">
    <path d="M 7.2 283.68 
L 7.2 7.2 
" style="fill:none;stroke:#000000;stroke-linecap:square;stroke-linejoin:miter;"/>
   </g>
   <g id="matplotlib.axis_1">
    <g id="xtick_1">
     <g id="line2d_7">
      <path clip-path="url(#p7b73aa394e)" d="M 49.133998 283.68 
L 49.133998 7.2 
" style="fill:none;stroke:#000000;stroke-dasharray:1.000000,3.000000;stroke-dashoffset:0.0;stroke-width:0.5;"/>
     </g>
     <g id="line2d_8">
      <defs>
       <path d="M 0 0 
L 0 -4 
" id="m30fe36dc97" style="stroke:#000000;stroke-width:0.5;"/>
      </defs>
      <g>
       <use style="stroke:#000000;stroke-width:0.5;" x="49.1339978514" xlink:href="#m30fe36dc97" y="283.68"/>
      </g>
     </g>
     <g id="line2d_9">
      <defs>
       <path d="M 0 0 
L 0 4 
" id="m1c89ab0527" style="stroke:#000000;stroke-width:0.5;"/>
      </defs>
      <g>
       <use style="stroke:#000000;stroke-width:0.5;" x="49.1339978514" xlink:href="#m1c89ab0527" y="7.2"/>
      </g>
     </g>
     <g id="text_1">
      <!-- -6 -->
      <defs>
       <path d="M 33.015625 40.375 
Q 26.375 40.375 22.484375 35.828125 
Q 18.609375 31.296875 18.609375 23.390625 
Q 18.609375 15.53125 22.484375 10.953125 
Q 26.375 6.390625 33.015625 6.390625 
Q 39.65625 6.390625 43.53125 10.953125 
Q 47.40625 15.53125 47.40625 23.390625 
Q 47.40625 31.296875 43.53125 35.828125 
Q 39.65625 40.375 33.015625 40.375 
M 52.59375 71.296875 
L 52.59375 62.3125 
Q 48.875 64.0625 45.09375 64.984375 
Q 41.3125 65.921875 37.59375 65.921875 
Q 27.828125 65.921875 22.671875 59.328125 
Q 17.53125 52.734375 16.796875 39.40625 
Q 19.671875 43.65625 24.015625 45.921875 
Q 28.375 48.1875 33.59375 48.1875 
Q 44.578125 48.1875 50.953125 41.515625 
Q 57.328125 34.859375 57.328125 23.390625 
Q 57.328125 12.15625 50.6875 5.359375 
Q 44.046875 -1.421875 33.015625 -1.421875 
Q 20.359375 -1.421875 13.671875 8.265625 
Q 6.984375 17.96875 6.984375 36.375 
Q 6.984375 53.65625 15.1875 63.9375 
Q 23.390625 74.21875 37.203125 74.21875 
Q 40.921875 74.21875 44.703125 73.484375 
Q 48.484375 72.75 52.59375 71.296875 
" id="BitstreamVeraSans-Roman-36"/>
       <path d="M 4.890625 31.390625 
L 31.203125 31.390625 
L 31.203125 23.390625 
L 4.890625 23.390625 
z
" id="BitstreamVeraSans-Roman-2d"/>
      </defs>
      <g transform="translate(39.1636853514 302.876875)scale(0.2 -0.2)">
       <use xlink:href="#BitstreamVeraSans-Roman-2d"/>
       <use x="36.083984375" xlink:href="#BitstreamVeraSans-Roman-36"/>
      </g>
     </g>
    </g>
    <g id="xtick_2">
     <g id="line2d_10">
      <path clip-path="url(#p7b73aa394e)" d="M 91.158798 283.68 
L 91.158798 7.2 
" style="fill:none;stroke:#000000;stroke-dasharray:1.000000,3.000000;stroke-dashoffset:0.0;stroke-width:0.5;"/>
     </g>
     <g id="line2d_11">
      <g>
       <use style="stroke:#000000;stroke-width:0.5;" x="91.1587981379" xlink:href="#m30fe36dc97" y="283.68"/>
      </g>
     </g>
     <g id="line2d_12">
      <g>
       <use style="stroke:#000000;stroke-width:0.5;" x="91.1587981379" xlink:href="#m1c89ab0527" y="7.2"/>
      </g>
     </g>
     <g id="text_2">
      <!-- -4 -->
      <defs>
       <path d="M 37.796875 64.3125 
L 12.890625 25.390625 
L 37.796875 25.390625 
z
M 35.203125 72.90625 
L 47.609375 72.90625 
L 47.609375 25.390625 
L 58.015625 25.390625 
L 58.015625 17.1875 
L 47.609375 17.1875 
L 47.609375 0 
L 37.796875 0 
L 37.796875 17.1875 
L 4.890625 17.1875 
L 4.890625 26.703125 
z
" id="BitstreamVeraSans-Roman-34"/>
      </defs>
      <g transform="translate(81.1884856379 302.876875)scale(0.2 -0.2)">
       <use xlink:href="#BitstreamVeraSans-Roman-2d"/>
       <use x="36.083984375" xlink:href="#BitstreamVeraSans-Roman-34"/>
      </g>
     </g>
    </g>
    <g id="xtick_3">
     <g id="line2d_13">
      <path clip-path="url(#p7b73aa394e)" d="M 133.183598 283.68 
L 133.183598 7.2 
" style="fill:none;stroke:#000000;stroke-dasharray:1.000000,3.000000;stroke-dashoffset:0.0;stroke-width:0.5;"/>
     </g>
     <g id="line2d_14">
      <g>
       <use style="stroke:#000000;stroke-width:0.5;" x="133.183598424" xlink:href="#m30fe36dc97" y="283.68"/>
      </g>
     </g>
     <g id="line2d_15">
      <g>
       <use style="stroke:#000000;stroke-width:0.5;" x="133.183598424" xlink:href="#m1c89ab0527" y="7.2"/>
      </g>
     </g>
     <g id="text_3">
      <!-- -2 -->
      <defs>
       <path d="M 19.1875 8.296875 
L 53.609375 8.296875 
L 53.609375 0 
L 7.328125 0 
L 7.328125 8.296875 
Q 12.9375 14.109375 22.625 23.890625 
Q 32.328125 33.6875 34.8125 36.53125 
Q 39.546875 41.84375 41.421875 45.53125 
Q 43.3125 49.21875 43.3125 52.78125 
Q 43.3125 58.59375 39.234375 62.25 
Q 35.15625 65.921875 28.609375 65.921875 
Q 23.96875 65.921875 18.8125 64.3125 
Q 13.671875 62.703125 7.8125 59.421875 
L 7.8125 69.390625 
Q 13.765625 71.78125 18.9375 73 
Q 24.125 74.21875 28.421875 74.21875 
Q 39.75 74.21875 46.484375 68.546875 
Q 53.21875 62.890625 53.21875 53.421875 
Q 53.21875 48.921875 51.53125 44.890625 
Q 49.859375 40.875 45.40625 35.40625 
Q 44.1875 33.984375 37.640625 27.21875 
Q 31.109375 20.453125 19.1875 8.296875 
" id="BitstreamVeraSans-Roman-32"/>
      </defs>
      <g transform="translate(123.213285924 302.876875)scale(0.2 -0.2)">
       <use xlink:href="#BitstreamVeraSans-Roman-2d"/>
       <use x="36.083984375" xlink:href="#BitstreamVeraSans-Roman-32"/>
      </g>
     </g>
    </g>
    <g id="xtick_4">
     <g id="line2d_16">
      <path clip-path="url(#p7b73aa394e)" d="M 175.208399 283.68 
L 175.208399 7.2 
" style="fill:none;stroke:#000000;stroke-dasharray:1.000000,3.000000;stroke-dashoffset:0.0;stroke-width:0.5;"/>
     </g>
     <g id="line2d_17">
      <g>
       <use style="stroke:#000000;stroke-width:0.5;" x="175.208398711" xlink:href="#m30fe36dc97" y="283.68"/>
      </g>
     </g>
     <g id="line2d_18">
      <g>
       <use style="stroke:#000000;stroke-width:0.5;" x="175.208398711" xlink:href="#m1c89ab0527" y="7.2"/>
      </g>
     </g>
     <g id="text_4">
      <!-- 0 -->
      <defs>
       <path d="M 31.78125 66.40625 
Q 24.171875 66.40625 20.328125 58.90625 
Q 16.5 51.421875 16.5 36.375 
Q 16.5 21.390625 20.328125 13.890625 
Q 24.171875 6.390625 31.78125 6.390625 
Q 39.453125 6.390625 43.28125 13.890625 
Q 47.125 21.390625 47.125 36.375 
Q 47.125 51.421875 43.28125 58.90625 
Q 39.453125 66.40625 31.78125 66.40625 
M 31.78125 74.21875 
Q 44.046875 74.21875 50.515625 64.515625 
Q 56.984375 54.828125 56.984375 36.375 
Q 56.984375 17.96875 50.515625 8.265625 
Q 44.046875 -1.421875 31.78125 -1.421875 
Q 19.53125 -1.421875 13.0625 8.265625 
Q 6.59375 17.96875 6.59375 36.375 
Q 6.59375 54.828125 13.0625 64.515625 
Q 19.53125 74.21875 31.78125 74.21875 
" id="BitstreamVeraSans-Roman-30"/>
      </defs>
      <g transform="translate(168.845898711 302.876875)scale(0.2 -0.2)">
       <use xlink:href="#BitstreamVeraSans-Roman-30"/>
      </g>
     </g>
    </g>
    <g id="xtick_5">
     <g id="line2d_19">
      <path clip-path="url(#p7b73aa394e)" d="M 217.233199 283.68 
L 217.233199 7.2 
" style="fill:none;stroke:#000000;stroke-dasharray:1.000000,3.000000;stroke-dashoffset:0.0;stroke-width:0.5;"/>
     </g>
     <g id="line2d_20">
      <g>
       <use style="stroke:#000000;stroke-width:0.5;" x="217.233198997" xlink:href="#m30fe36dc97" y="283.68"/>
      </g>
     </g>
     <g id="line2d_21">
      <g>
       <use style="stroke:#000000;stroke-width:0.5;" x="217.233198997" xlink:href="#m1c89ab0527" y="7.2"/>
      </g>
     </g>
     <g id="text_5">
      <!-- 2 -->
      <g transform="translate(210.870698997 302.876875)scale(0.2 -0.2)">
       <use xlink:href="#BitstreamVeraSans-Roman-32"/>
      </g>
     </g>
    </g>
    <g id="xtick_6">
     <g id="line2d_22">
      <path clip-path="url(#p7b73aa394e)" d="M 259.257999 283.68 
L 259.257999 7.2 
" style="fill:none;stroke:#000000;stroke-dasharray:1.000000,3.000000;stroke-dashoffset:0.0;stroke-width:0.5;"/>
     </g>
     <g id="line2d_23">
      <g>
       <use style="stroke:#000000;stroke-width:0.5;" x="259.257999284" xlink:href="#m30fe36dc97" y="283.68"/>
      </g>
     </g>
     <g id="line2d_24">
      <g>
       <use style="stroke:#000000;stroke-width:0.5;" x="259.257999284" xlink:href="#m1c89ab0527" y="7.2"/>
      </g>
     </g>
     <g id="text_6">
      <!-- 4 -->
      <g transform="translate(252.895499284 302.876875)scale(0.2 -0.2)">
       <use xlink:href="#BitstreamVeraSans-Roman-34"/>
      </g>
     </g>
    </g>
    <g id="xtick_7">
     <g id="line2d_25">
      <path clip-path="url(#p7b73aa394e)" d="M 301.2828 283.68 
L 301.2828 7.2 
" style="fill:none;stroke:#000000;stroke-dasharray:1.000000,3.000000;stroke-dashoffset:0.0;stroke-width:0.5;"/>
     </g>
     <g id="line2d_26">
      <g>
       <use style="stroke:#000000;stroke-width:0.5;" x="301.28279957" xlink:href="#m30fe36dc97" y="283.68"/>
      </g>
     </g>
     <g id="line2d_27">
      <g>
       <use style="stroke:#000000;stroke-width:0.5;" x="301.28279957" xlink:href="#m1c89ab0527" y="7.2"/>
      </g>
     </g>
     <g id="text_7">
      <!-- 6 -->
      <g transform="translate(294.92029957 302.876875)scale(0.2 -0.2)">
       <use xlink:href="#BitstreamVeraSans-Roman-36"/>
      </g>
     </g>
    </g>
    <g id="xtick_8">
     <g id="line2d_28">
      <path clip-path="url(#p7b73aa394e)" d="M 343.3076 283.68 
L 343.3076 7.2 
" style="fill:none;stroke:#000000;stroke-dasharray:1.000000,3.000000;stroke-dashoffset:0.0;stroke-width:0.5;"/>
     </g>
     <g id="line2d_29">
      <g>
       <use style="stroke:#000000;stroke-width:0.5;" x="343.307599857" xlink:href="#m30fe36dc97" y="283.68"/>
      </g>
     </g>
     <g id="line2d_30">
      <g>
       <use style="stroke:#000000;stroke-width:0.5;" x="343.307599857" xlink:href="#m1c89ab0527" y="7.2"/>
      </g>
     </g>
     <g id="text_8">
      <!-- 8 -->
      <defs>
       <path d="M 31.78125 34.625 
Q 24.75 34.625 20.71875 30.859375 
Q 16.703125 27.09375 16.703125 20.515625 
Q 16.703125 13.921875 20.71875 10.15625 
Q 24.75 6.390625 31.78125 6.390625 
Q 38.8125 6.390625 42.859375 10.171875 
Q 46.921875 13.96875 46.921875 20.515625 
Q 46.921875 27.09375 42.890625 30.859375 
Q 38.875 34.625 31.78125 34.625 
M 21.921875 38.8125 
Q 15.578125 40.375 12.03125 44.71875 
Q 8.5 49.078125 8.5 55.328125 
Q 8.5 64.0625 14.71875 69.140625 
Q 20.953125 74.21875 31.78125 74.21875 
Q 42.671875 74.21875 48.875 69.140625 
Q 55.078125 64.0625 55.078125 55.328125 
Q 55.078125 49.078125 51.53125 44.71875 
Q 48 40.375 41.703125 38.8125 
Q 48.828125 37.15625 52.796875 32.3125 
Q 56.78125 27.484375 56.78125 20.515625 
Q 56.78125 9.90625 50.3125 4.234375 
Q 43.84375 -1.421875 31.78125 -1.421875 
Q 19.734375 -1.421875 13.25 4.234375 
Q 6.78125 9.90625 6.78125 20.515625 
Q 6.78125 27.484375 10.78125 32.3125 
Q 14.796875 37.15625 21.921875 38.8125 
M 18.3125 54.390625 
Q 18.3125 48.734375 21.84375 45.5625 
Q 25.390625 42.390625 31.78125 42.390625 
Q 38.140625 42.390625 41.71875 45.5625 
Q 45.3125 48.734375 45.3125 54.390625 
Q 45.3125 60.0625 41.71875 63.234375 
Q 38.140625 66.40625 31.78125 66.40625 
Q 25.390625 66.40625 21.84375 63.234375 
Q 18.3125 60.0625 18.3125 54.390625 
" id="BitstreamVeraSans-Roman-38"/>
      </defs>
      <g transform="translate(336.945099857 302.876875)scale(0.2 -0.2)">
       <use xlink:href="#BitstreamVeraSans-Roman-38"/>
      </g>
     </g>
    </g>
    <g id="xtick_9">
     <g id="line2d_31">
      <defs>
       <path d="M 0 0 
L 0 -2 
" id="md419fb0bc5" style="stroke:#000000;stroke-width:0.5;"/>
      </defs>
      <g>
       <use style="stroke:#000000;stroke-width:0.5;" x="49.1339978514" xlink:href="#md419fb0bc5" y="283.68"/>
      </g>
     </g>
     <g id="line2d_32">
      <defs>
       <path d="M 0 0 
L 0 2 
" id="m6223532f50" style="stroke:#000000;stroke-width:0.5;"/>
      </defs>
      <g>
       <use style="stroke:#000000;stroke-width:0.5;" x="49.1339978514" xlink:href="#m6223532f50" y="7.2"/>
      </g>
     </g>
    </g>
    <g id="xtick_10">
     <g id="line2d_33">
      <g>
       <use style="stroke:#000000;stroke-width:0.5;" x="91.1587981379" xlink:href="#md419fb0bc5" y="283.68"/>
      </g>
     </g>
     <g id="line2d_34">
      <g>
       <use style="stroke:#000000;stroke-width:0.5;" x="91.1587981379" xlink:href="#m6223532f50" y="7.2"/>
      </g>
     </g>
    </g>
    <g id="xtick_11">
     <g id="line2d_35">
      <g>
       <use style="stroke:#000000;stroke-width:0.5;" x="133.183598424" xlink:href="#md419fb0bc5" y="283.68"/>
      </g>
     </g>
     <g id="line2d_36">
      <g>
       <use style="stroke:#000000;stroke-width:0.5;" x="133.183598424" xlink:href="#m6223532f50" y="7.2"/>
      </g>
     </g>
    </g>
    <g id="xtick_12">
     <g id="line2d_37">
      <g>
       <use style="stroke:#000000;stroke-width:0.5;" x="175.208398711" xlink:href="#md419fb0bc5" y="283.68"/>
      </g>
     </g>
     <g id="line2d_38">
      <g>
       <use style="stroke:#000000;stroke-width:0.5;" x="175.208398711" xlink:href="#m6223532f50" y="7.2"/>
      </g>
     </g>
    </g>
    <g id="xtick_13">
     <g id="line2d_39">
      <g>
       <use style="stroke:#000000;stroke-width:0.5;" x="217.233198997" xlink:href="#md419fb0bc5" y="283.68"/>
      </g>
     </g>
     <g id="line2d_40">
      <g>
       <use style="stroke:#000000;stroke-width:0.5;" x="217.233198997" xlink:href="#m6223532f50" y="7.2"/>
      </g>
     </g>
    </g>
    <g id="xtick_14">
     <g id="line2d_41">
      <g>
       <use style="stroke:#000000;stroke-width:0.5;" x="259.257999284" xlink:href="#md419fb0bc5" y="283.68"/>
      </g>
     </g>
     <g id="line2d_42">
      <g>
       <use style="stroke:#000000;stroke-width:0.5;" x="259.257999284" xlink:href="#m6223532f50" y="7.2"/>
      </g>
     </g>
    </g>
    <g id="xtick_15">
     <g id="line2d_43">
      <g>
       <use style="stroke:#000000;stroke-width:0.5;" x="301.28279957" xlink:href="#md419fb0bc5" y="283.68"/>
      </g>
     </g>
     <g id="line2d_44">
      <g>
       <use style="stroke:#000000;stroke-width:0.5;" x="301.28279957" xlink:href="#m6223532f50" y="7.2"/>
      </g>
     </g>
    </g>
    <g id="xtick_16">
     <g id="line2d_45">
      <g>
       <use style="stroke:#000000;stroke-width:0.5;" x="343.307599857" xlink:href="#md419fb0bc5" y="283.68"/>
      </g>
     </g>
     <g id="line2d_46">
      <g>
       <use style="stroke:#000000;stroke-width:0.5;" x="343.307599857" xlink:href="#m6223532f50" y="7.2"/>
      </g>
     </g>
    </g>
    <g id="text_9">
     <!-- log10 of Df -->
     <defs>
      <path id="BitstreamVeraSans-Roman-20"/>
      <path d="M 12.40625 8.296875 
L 28.515625 8.296875 
L 28.515625 63.921875 
L 10.984375 60.40625 
L 10.984375 69.390625 
L 28.421875 72.90625 
L 38.28125 72.90625 
L 38.28125 8.296875 
L 54.390625 8.296875 
L 54.390625 0 
L 12.40625 0 
z
" id="BitstreamVeraSans-Roman-31"/>
      <path d="M 30.609375 48.390625 
Q 23.390625 48.390625 19.1875 42.75 
Q 14.984375 37.109375 14.984375 27.296875 
Q 14.984375 17.484375 19.15625 11.84375 
Q 23.34375 6.203125 30.609375 6.203125 
Q 37.796875 6.203125 41.984375 11.859375 
Q 46.1875 17.53125 46.1875 27.296875 
Q 46.1875 37.015625 41.984375 42.703125 
Q 37.796875 48.390625 30.609375 48.390625 
M 30.609375 56 
Q 42.328125 56 49.015625 48.375 
Q 55.71875 40.765625 55.71875 27.296875 
Q 55.71875 13.875 49.015625 6.21875 
Q 42.328125 -1.421875 30.609375 -1.421875 
Q 18.84375 -1.421875 12.171875 6.21875 
Q 5.515625 13.875 5.515625 27.296875 
Q 5.515625 40.765625 12.171875 48.375 
Q 18.84375 56 30.609375 56 
" id="BitstreamVeraSans-Roman-6f"/>
      <path d="M 9.421875 75.984375 
L 18.40625 75.984375 
L 18.40625 0 
L 9.421875 0 
z
" id="BitstreamVeraSans-Roman-6c"/>
      <path d="M 19.671875 64.796875 
L 19.671875 8.109375 
L 31.59375 8.109375 
Q 46.6875 8.109375 53.6875 14.9375 
Q 60.6875 21.78125 60.6875 36.53125 
Q 60.6875 51.171875 53.6875 57.984375 
Q 46.6875 64.796875 31.59375 64.796875 
z
M 9.8125 72.90625 
L 30.078125 72.90625 
Q 51.265625 72.90625 61.171875 64.09375 
Q 71.09375 55.28125 71.09375 36.53125 
Q 71.09375 17.671875 61.125 8.828125 
Q 51.171875 0 30.078125 0 
L 9.8125 0 
z
" id="BitstreamVeraSans-Roman-44"/>
      <path d="M 45.40625 27.984375 
Q 45.40625 37.75 41.375 43.109375 
Q 37.359375 48.484375 30.078125 48.484375 
Q 22.859375 48.484375 18.828125 43.109375 
Q 14.796875 37.75 14.796875 27.984375 
Q 14.796875 18.265625 18.828125 12.890625 
Q 22.859375 7.515625 30.078125 7.515625 
Q 37.359375 7.515625 41.375 12.890625 
Q 45.40625 18.265625 45.40625 27.984375 
M 54.390625 6.78125 
Q 54.390625 -7.171875 48.1875 -13.984375 
Q 42 -20.796875 29.203125 -20.796875 
Q 24.46875 -20.796875 20.265625 -20.09375 
Q 16.0625 -19.390625 12.109375 -17.921875 
L 12.109375 -9.1875 
Q 16.0625 -11.328125 19.921875 -12.34375 
Q 23.78125 -13.375 27.78125 -13.375 
Q 36.625 -13.375 41.015625 -8.765625 
Q 45.40625 -4.15625 45.40625 5.171875 
L 45.40625 9.625 
Q 42.625 4.78125 38.28125 2.390625 
Q 33.9375 0 27.875 0 
Q 17.828125 0 11.671875 7.65625 
Q 5.515625 15.328125 5.515625 27.984375 
Q 5.515625 40.671875 11.671875 48.328125 
Q 17.828125 56 27.875 56 
Q 33.9375 56 38.28125 53.609375 
Q 42.625 51.21875 45.40625 46.390625 
L 45.40625 54.6875 
L 54.390625 54.6875 
z
" id="BitstreamVeraSans-Roman-67"/>
      <path d="M 37.109375 75.984375 
L 37.109375 68.5 
L 28.515625 68.5 
Q 23.6875 68.5 21.796875 66.546875 
Q 19.921875 64.59375 19.921875 59.515625 
L 19.921875 54.6875 
L 34.71875 54.6875 
L 34.71875 47.703125 
L 19.921875 47.703125 
L 19.921875 0 
L 10.890625 0 
L 10.890625 47.703125 
L 2.296875 47.703125 
L 2.296875 54.6875 
L 10.890625 54.6875 
L 10.890625 58.5 
Q 10.890625 67.625 15.140625 71.796875 
Q 19.390625 75.984375 28.609375 75.984375 
z
" id="BitstreamVeraSans-Roman-66"/>
     </defs>
     <g transform="translate(130.5740625 327.233125)scale(0.2 -0.2)">
      <use xlink:href="#BitstreamVeraSans-Roman-6c"/>
      <use x="27.783203125" xlink:href="#BitstreamVeraSans-Roman-6f"/>
      <use x="88.96484375" xlink:href="#BitstreamVeraSans-Roman-67"/>
      <use x="152.44140625" xlink:href="#BitstreamVeraSans-Roman-31"/>
      <use x="216.064453125" xlink:href="#BitstreamVeraSans-Roman-30"/>
      <use x="279.6875" xlink:href="#BitstreamVeraSans-Roman-20"/>
      <use x="311.474609375" xlink:href="#BitstreamVeraSans-Roman-6f"/>
      <use x="372.65625" xlink:href="#BitstreamVeraSans-Roman-66"/>
      <use x="407.861328125" xlink:href="#BitstreamVeraSans-Roman-20"/>
      <use x="439.6484375" xlink:href="#BitstreamVeraSans-Roman-44"/>
      <use x="516.650390625" xlink:href="#BitstreamVeraSans-Roman-66"/>
     </g>
    </g>
   </g>
   <g id="matplotlib.axis_2">
    <g id="ytick_1">
     <g id="line2d_47">
      <path clip-path="url(#p7b73aa394e)" d="M 7.2 283.68 
L 364.32 283.68 
" style="fill:none;stroke:#000000;stroke-dasharray:1.000000,3.000000;stroke-dashoffset:0.0;stroke-width:0.5;"/>
     </g>
     <g id="line2d_48">
      <defs>
       <path d="M 0 0 
L 4 0 
" id="mc45516ae62" style="stroke:#000000;stroke-width:0.5;"/>
      </defs>
      <g>
       <use style="stroke:#000000;stroke-width:0.5;" x="7.2" xlink:href="#mc45516ae62" y="283.68"/>
      </g>
     </g>
     <g id="line2d_49">
      <defs>
       <path d="M 0 0 
L -4 0 
" id="m409169093e" style="stroke:#000000;stroke-width:0.5;"/>
      </defs>
      <g>
       <use style="stroke:#000000;stroke-width:0.5;" x="364.32" xlink:href="#m409169093e" y="283.68"/>
      </g>
     </g>
    </g>
    <g id="ytick_2">
     <g id="line2d_50">
      <path clip-path="url(#p7b73aa394e)" d="M 7.2 228.931485 
L 364.32 228.931485 
" style="fill:none;stroke:#000000;stroke-dasharray:1.000000,3.000000;stroke-dashoffset:0.0;stroke-width:0.5;"/>
     </g>
     <g id="line2d_51">
      <g>
       <use style="stroke:#000000;stroke-width:0.5;" x="7.2" xlink:href="#mc45516ae62" y="228.931485149"/>
      </g>
     </g>
     <g id="line2d_52">
      <g>
       <use style="stroke:#000000;stroke-width:0.5;" x="364.32" xlink:href="#m409169093e" y="228.931485149"/>
      </g>
     </g>
    </g>
    <g id="ytick_3">
     <g id="line2d_53">
      <path clip-path="url(#p7b73aa394e)" d="M 7.2 174.18297 
L 364.32 174.18297 
" style="fill:none;stroke:#000000;stroke-dasharray:1.000000,3.000000;stroke-dashoffset:0.0;stroke-width:0.5;"/>
     </g>
     <g id="line2d_54">
      <g>
       <use style="stroke:#000000;stroke-width:0.5;" x="7.2" xlink:href="#mc45516ae62" y="174.182970297"/>
      </g>
     </g>
     <g id="line2d_55">
      <g>
       <use style="stroke:#000000;stroke-width:0.5;" x="364.32" xlink:href="#m409169093e" y="174.182970297"/>
      </g>
     </g>
    </g>
    <g id="ytick_4">
     <g id="line2d_56">
      <path clip-path="url(#p7b73aa394e)" d="M 7.2 119.434455 
L 364.32 119.434455 
" style="fill:none;stroke:#000000;stroke-dasharray:1.000000,3.000000;stroke-dashoffset:0.0;stroke-width:0.5;"/>
     </g>
     <g id="line2d_57">
      <g>
       <use style="stroke:#000000;stroke-width:0.5;" x="7.2" xlink:href="#mc45516ae62" y="119.434455446"/>
      </g>
     </g>
     <g id="line2d_58">
      <g>
       <use style="stroke:#000000;stroke-width:0.5;" x="364.32" xlink:href="#m409169093e" y="119.434455446"/>
      </g>
     </g>
    </g>
    <g id="ytick_5">
     <g id="line2d_59">
      <path clip-path="url(#p7b73aa394e)" d="M 7.2 64.685941 
L 364.32 64.685941 
" style="fill:none;stroke:#000000;stroke-dasharray:1.000000,3.000000;stroke-dashoffset:0.0;stroke-width:0.5;"/>
     </g>
     <g id="line2d_60">
      <g>
       <use style="stroke:#000000;stroke-width:0.5;" x="7.2" xlink:href="#mc45516ae62" y="64.6859405941"/>
      </g>
     </g>
     <g id="line2d_61">
      <g>
       <use style="stroke:#000000;stroke-width:0.5;" x="364.32" xlink:href="#m409169093e" y="64.6859405941"/>
      </g>
     </g>
    </g>
    <g id="ytick_6">
     <g id="line2d_62">
      <path clip-path="url(#p7b73aa394e)" d="M 7.2 9.937426 
L 364.32 9.937426 
" style="fill:none;stroke:#000000;stroke-dasharray:1.000000,3.000000;stroke-dashoffset:0.0;stroke-width:0.5;"/>
     </g>
     <g id="line2d_63">
      <g>
       <use style="stroke:#000000;stroke-width:0.5;" x="7.2" xlink:href="#mc45516ae62" y="9.93742574257"/>
      </g>
     </g>
     <g id="line2d_64">
      <g>
       <use style="stroke:#000000;stroke-width:0.5;" x="364.32" xlink:href="#m409169093e" y="9.93742574257"/>
      </g>
     </g>
    </g>
   </g>
   <g id="text_10">
    <!-- f6-9,5-D -->
    <defs>
     <path d="M 11.71875 12.40625 
L 22.015625 12.40625 
L 22.015625 4 
L 14.015625 -11.625 
L 7.71875 -11.625 
L 11.71875 4 
z
" id="BitstreamVeraSans-Roman-2c"/>
     <path d="M 10.984375 1.515625 
L 10.984375 10.5 
Q 14.703125 8.734375 18.5 7.8125 
Q 22.3125 6.890625 25.984375 6.890625 
Q 35.75 6.890625 40.890625 13.453125 
Q 46.046875 20.015625 46.78125 33.40625 
Q 43.953125 29.203125 39.59375 26.953125 
Q 35.25 24.703125 29.984375 24.703125 
Q 19.046875 24.703125 12.671875 31.3125 
Q 6.296875 37.9375 6.296875 49.421875 
Q 6.296875 60.640625 12.9375 67.421875 
Q 19.578125 74.21875 30.609375 74.21875 
Q 43.265625 74.21875 49.921875 64.515625 
Q 56.59375 54.828125 56.59375 36.375 
Q 56.59375 19.140625 48.40625 8.859375 
Q 40.234375 -1.421875 26.421875 -1.421875 
Q 22.703125 -1.421875 18.890625 -0.6875 
Q 15.09375 0.046875 10.984375 1.515625 
M 30.609375 32.421875 
Q 37.25 32.421875 41.125 36.953125 
Q 45.015625 41.5 45.015625 49.421875 
Q 45.015625 57.28125 41.125 61.84375 
Q 37.25 66.40625 30.609375 66.40625 
Q 23.96875 66.40625 20.09375 61.84375 
Q 16.21875 57.28125 16.21875 49.421875 
Q 16.21875 41.5 20.09375 36.953125 
Q 23.96875 32.421875 30.609375 32.421875 
" id="BitstreamVeraSans-Roman-39"/>
     <path d="M 10.796875 72.90625 
L 49.515625 72.90625 
L 49.515625 64.59375 
L 19.828125 64.59375 
L 19.828125 46.734375 
Q 21.96875 47.46875 24.109375 47.828125 
Q 26.265625 48.1875 28.421875 48.1875 
Q 40.625 48.1875 47.75 41.5 
Q 54.890625 34.8125 54.890625 23.390625 
Q 54.890625 11.625 47.5625 5.09375 
Q 40.234375 -1.421875 26.90625 -1.421875 
Q 22.3125 -1.421875 17.546875 -0.640625 
Q 12.796875 0.140625 7.71875 1.703125 
L 7.71875 11.625 
Q 12.109375 9.234375 16.796875 8.0625 
Q 21.484375 6.890625 26.703125 6.890625 
Q 35.15625 6.890625 40.078125 11.328125 
Q 45.015625 15.765625 45.015625 23.390625 
Q 45.015625 31 40.078125 35.4375 
Q 35.15625 39.890625 26.703125 39.890625 
Q 22.75 39.890625 18.8125 39.015625 
Q 14.890625 38.140625 10.796875 36.28125 
z
" id="BitstreamVeraSans-Roman-35"/>
    </defs>
    <g transform="translate(275.774475 278.1504)scale(0.2 -0.2)">
     <use xlink:href="#BitstreamVeraSans-Roman-66"/>
     <use x="35.205078125" xlink:href="#BitstreamVeraSans-Roman-36"/>
     <use x="98.828125" xlink:href="#BitstreamVeraSans-Roman-2d"/>
     <use x="134.912109375" xlink:href="#BitstreamVeraSans-Roman-39"/>
     <use x="198.53515625" xlink:href="#BitstreamVeraSans-Roman-2c"/>
     <use x="230.322265625" xlink:href="#BitstreamVeraSans-Roman-35"/>
     <use x="293.9453125" xlink:href="#BitstreamVeraSans-Roman-2d"/>
     <use x="330.029296875" xlink:href="#BitstreamVeraSans-Roman-44"/>
    </g>
   </g>
  </g>
 </g>
 <defs>
  <clipPath id="p7b73aa394e">
   <rect height="276.48" width="357.12" x="7.2" y="7.2"/>
  </clipPath>
 </defs>
</svg>
