<?xml version="1.0" encoding="utf-8" standalone="no"?>
<!DOCTYPE svg PUBLIC "-//W3C//DTD SVG 1.1//EN"
  "http://www.w3.org/Graphics/SVG/1.1/DTD/svg11.dtd">
<!-- Created with matplotlib (http://matplotlib.org/) -->
<svg height="338pt" version="1.1" viewBox="0 0 371 338" width="371pt" xmlns="http://www.w3.org/2000/svg" xmlns:xlink="http://www.w3.org/1999/xlink">
 <defs>
  <style type="text/css">
*{stroke-linecap:butt;stroke-linejoin:round;stroke-miterlimit:100000;}
  </style>
 </defs>
 <g id="figure_1">
  <g id="patch_1">
   <path d="M 0 338.5925 
L 371.52 338.5925 
L 371.52 0 
L 0 0 
z
" style="fill:#ffffff;"/>
  </g>
  <g id="axes_1">
   <g id="patch_2">
    <path d="M 7.2 283.68 
L 364.32 283.68 
L 364.32 7.2 
L 7.2 7.2 
z
" style="fill:#ffffff;"/>
   </g>
   <g id="line2d_1">
    <path clip-path="url(#pf8c1c80bd3)" d="M 176.697291 283.68 
L 176.697291 280.030099 
L 181.302977 280.030099 
L 181.302977 276.380198 
L 181.669531 276.380198 
L 181.669531 272.730297 
L 182.46906 272.730297 
L 182.495146 265.430495 
L 182.770483 265.430495 
L 182.770483 261.780594 
L 183.105909 261.780594 
L 183.105909 258.130693 
L 183.319558 258.130693 
L 183.319558 254.480792 
L 183.717006 254.480792 
L 183.741728 247.18099 
L 184.631064 247.18099 
L 184.631064 243.531089 
L 185.127752 243.531089 
L 185.127752 239.881188 
L 185.518239 239.881188 
L 185.606568 232.581386 
L 185.808035 232.581386 
L 185.808035 228.931485 
L 186.056668 228.931485 
L 186.113693 221.631683 
L 186.324931 221.631683 
L 186.324931 217.981782 
L 186.576472 217.981782 
L 186.648825 210.68198 
L 186.80586 210.68198 
L 186.80586 207.032079 
L 187.133703 207.032079 
L 187.133703 203.382178 
L 188.099308 203.382178 
L 188.099308 199.732277 
L 188.42499 199.732277 
L 188.42499 196.082376 
L 188.750559 196.082376 
L 188.750559 192.432475 
L 188.869675 192.432475 
L 188.869675 188.782574 
L 189.872634 188.782574 
L 189.872634 185.132673 
L 190.300281 185.132673 
L 190.300281 181.482772 
L 190.505409 181.482772 
L 190.505409 177.832871 
L 191.602716 177.832871 
L 191.602716 174.18297 
L 191.939412 174.18297 
L 192.014572 166.883168 
L 192.36995 166.883168 
L 192.36995 163.233267 
L 192.906469 163.233267 
L 192.906469 159.583366 
L 193.51121 159.583366 
L 193.51121 155.933465 
L 193.73303 155.933465 
L 193.836358 148.633663 
L 193.974008 148.633663 
L 193.974008 144.983762 
L 194.369902 144.983762 
L 194.439096 137.68396 
L 195.629148 137.68396 
L 195.629148 134.034059 
L 195.873577 134.034059 
L 195.935945 126.734257 
L 196.248371 126.734257 
L 196.248371 123.084356 
L 198.362712 123.084356 
L 198.362712 119.434455 
L 198.970484 119.434455 
L 198.970484 115.784554 
L 199.258344 115.784554 
L 199.258344 112.134653 
L 199.519721 112.134653 
L 199.519721 108.484752 
L 199.827846 108.484752 
L 199.827846 104.834851 
L 200.00453 104.834851 
L 200.00453 101.18495 
L 201.2099 101.18495 
L 201.2099 97.53505 
L 202.641048 97.53505 
L 202.641048 93.885149 
L 203.391452 93.885149 
L 203.391452 90.235248 
L 204.74705 90.235248 
L 204.74705 86.585347 
L 208.168981 86.585347 
L 208.213446 79.285545 
L 208.630687 79.285545 
L 208.630687 75.635644 
L 208.859584 75.635644 
L 208.859584 71.985743 
L 209.448792 71.985743 
L 209.448792 68.335842 
L 209.648335 68.335842 
L 209.648335 64.685941 
L 210.231867 64.685941 
L 210.338741 57.386139 
L 210.585768 57.386139 
L 210.585768 53.736238 
L 210.766322 53.736238 
L 210.766322 50.086337 
L 211.028196 50.086337 
L 211.028196 46.436436 
L 211.180705 46.436436 
L 211.180705 42.786535 
L 211.864711 42.786535 
L 211.864711 39.136634 
L 212.808916 39.136634 
L 212.808916 35.486733 
L 217.694208 35.486733 
L 217.694208 31.836832 
L 221.334875 31.836832 
L 221.334875 28.186931 
L 224.245794 28.186931 
L 224.245794 24.53703 
L 227.327485 24.53703 
L 227.327485 20.887129 
L 228.572089 20.887129 
L 228.572089 17.237228 
L 233.82599 17.237228 
L 233.82599 13.587327 
L 234.453239 13.587327 
L 234.453239 9.937426 
L 364.32 9.937426 
L 364.32 9.937426 
" style="fill:none;stroke:#ff0000;stroke-linecap:square;stroke-width:3.0;"/>
   </g>
   <g id="line2d_2">
    <path clip-path="url(#pf8c1c80bd3)" d="M 190.925163 283.68 
L 190.925163 280.030099 
L 192.904466 280.030099 
L 192.904466 276.380198 
L 194.382874 276.380198 
L 194.382874 272.730297 
L 195.497417 272.730297 
L 195.497417 269.080396 
L 195.665255 269.080396 
L 195.665255 265.430495 
L 195.978933 265.430495 
L 195.978933 261.780594 
L 196.796216 261.780594 
L 196.796216 258.130693 
L 197.659542 258.130693 
L 197.659542 254.480792 
L 198.483481 254.480792 
L 198.483481 250.830891 
L 198.740311 250.830891 
L 198.740311 247.18099 
L 199.584025 247.18099 
L 199.673279 239.881188 
L 201.404094 239.881188 
L 201.404094 236.231287 
L 202.149138 236.231287 
L 202.149138 232.581386 
L 202.260354 232.581386 
L 202.260354 228.931485 
L 203.439039 228.931485 
L 203.439039 225.281584 
L 205.663792 225.281584 
L 205.663792 221.631683 
L 206.86918 221.631683 
L 206.880543 214.331881 
L 207.459393 214.331881 
L 207.459393 210.68198 
L 207.836524 210.68198 
L 207.940371 203.382178 
L 208.242238 203.382178 
L 208.242238 199.732277 
L 208.949704 199.732277 
L 208.949704 196.082376 
L 209.74277 196.082376 
L 209.74277 192.432475 
L 210.520045 192.432475 
L 210.520045 188.782574 
L 210.658997 188.782574 
L 210.658997 185.132673 
L 211.328945 185.132673 
L 211.328945 181.482772 
L 211.476794 181.482772 
L 211.479597 174.18297 
L 212.133427 174.18297 
L 212.133427 170.533069 
L 212.47772 170.533069 
L 212.500006 163.233267 
L 212.971675 163.233267 
L 213.069822 152.283564 
L 213.413325 152.283564 
L 213.413325 148.633663 
L 213.606753 148.633663 
L 213.608786 141.333861 
L 213.988373 141.333861 
L 214.089831 134.034059 
L 214.454252 134.034059 
L 214.548871 126.734257 
L 214.671972 126.734257 
L 214.671972 123.084356 
L 215.034571 123.084356 
L 215.034571 119.434455 
L 215.410707 119.434455 
L 215.410707 115.784554 
L 215.62231 115.784554 
L 215.62231 112.134653 
L 216.111685 112.134653 
L 216.139592 104.834851 
L 217.350675 104.834851 
L 217.350675 101.18495 
L 217.731634 101.18495 
L 217.838952 93.885149 
L 217.90294 93.885149 
L 217.90294 90.235248 
L 218.328271 90.235248 
L 218.328271 86.585347 
L 219.421805 86.585347 
L 219.421805 82.935446 
L 220.089912 82.935446 
L 220.089912 79.285545 
L 220.404368 79.285545 
L 220.404368 75.635644 
L 221.077312 75.635644 
L 221.0865 68.335842 
L 222.291423 68.335842 
L 222.291423 64.685941 
L 247.755183 64.685941 
L 247.755183 61.03604 
L 248.776824 61.03604 
L 248.776824 57.386139 
L 251.68577 57.386139 
L 251.68577 53.736238 
L 254.161046 53.736238 
L 254.161046 50.086337 
L 258.415988 50.086337 
L 258.415988 46.436436 
L 259.056666 46.436436 
L 259.056666 42.786535 
L 259.791888 42.786535 
L 259.791888 39.136634 
L 264.046225 39.136634 
L 264.046225 35.486733 
L 265.188858 35.486733 
L 265.188858 31.836832 
L 267.693622 31.836832 
L 267.693622 28.186931 
L 269.102305 28.186931 
L 269.102305 24.53703 
L 269.602608 24.53703 
L 269.602608 20.887129 
L 275.927796 20.887129 
L 275.927796 17.237228 
L 277.606519 17.237228 
L 277.606519 13.587327 
L 278.441037 13.587327 
L 278.441037 9.937426 
L 364.32 9.937426 
L 364.32 9.937426 
" style="fill:none;stroke:#00bfbf;stroke-linecap:square;"/>
   </g>
   <g id="line2d_3">
    <path clip-path="url(#pf8c1c80bd3)" d="M 185.60657 283.68 
L 185.60657 280.030099 
L 185.887775 280.030099 
L 185.887775 276.380198 
L 187.235549 276.380198 
L 187.235549 272.730297 
L 187.998286 272.730297 
L 187.998286 269.080396 
L 190.537112 269.080396 
L 190.537112 265.430495 
L 192.202648 265.430495 
L 192.202648 261.780594 
L 192.904466 261.780594 
L 192.904466 258.130693 
L 193.856237 258.130693 
L 193.856237 254.480792 
L 194.382874 254.480792 
L 194.382874 250.830891 
L 195.568723 250.830891 
L 195.665255 243.531089 
L 195.978933 243.531089 
L 196.075162 236.231287 
L 197.501941 236.231287 
L 197.501941 232.581386 
L 197.659542 232.581386 
L 197.659542 228.931485 
L 198.483481 228.931485 
L 198.483481 225.281584 
L 198.650937 225.281584 
L 198.650937 221.631683 
L 198.806182 221.631683 
L 198.806182 217.981782 
L 199.404607 217.981782 
L 199.404607 214.331881 
L 201.223353 214.331881 
L 201.223353 210.68198 
L 201.404094 210.68198 
L 201.404094 207.032079 
L 201.614876 207.032079 
L 201.614876 203.382178 
L 204.84629 203.382178 
L 204.84629 199.732277 
L 205.663792 199.732277 
L 205.663792 196.082376 
L 206.715157 196.082376 
L 206.715157 192.432475 
L 206.86918 192.432475 
L 206.91667 181.482772 
L 207.459393 181.482772 
L 207.459393 177.832871 
L 207.940371 177.832871 
L 207.940371 174.18297 
L 208.242238 174.18297 
L 208.242238 170.533069 
L 209.540186 170.533069 
L 209.540186 166.883168 
L 210.585769 166.883168 
L 210.585769 163.233267 
L 211.137324 163.233267 
L 211.137324 159.583366 
L 211.328945 159.583366 
L 211.328945 155.933465 
L 211.476794 155.933465 
L 211.479597 148.633663 
L 211.991998 148.633663 
L 211.991998 144.983762 
L 212.47772 144.983762 
L 212.500006 137.68396 
L 212.971675 137.68396 
L 213.023878 130.384158 
L 213.268398 130.384158 
L 213.352113 123.084356 
L 213.413325 123.084356 
L 213.413325 119.434455 
L 213.540712 119.434455 
L 213.540712 115.784554 
L 214.089831 115.784554 
L 214.200182 108.484752 
L 214.865128 108.484752 
L 214.865128 104.834851 
L 215.0059 104.834851 
L 215.0059 101.18495 
L 216.111685 101.18495 
L 216.142291 90.235248 
L 217.178825 90.235248 
L 217.245376 82.935446 
L 217.350675 82.935446 
L 217.350675 79.285545 
L 217.90294 79.285545 
L 217.90294 75.635644 
L 218.325178 75.635644 
L 218.325178 71.985743 
L 219.379359 71.985743 
L 219.379359 68.335842 
L 220.050293 68.335842 
L 220.050293 64.685941 
L 244.99824 64.685941 
L 244.99824 61.03604 
L 247.755183 61.03604 
L 247.755183 57.386139 
L 248.491433 57.386139 
L 248.491433 53.736238 
L 248.776824 53.736238 
L 248.776824 50.086337 
L 251.68577 50.086337 
L 251.68577 46.436436 
L 254.161046 46.436436 
L 254.161046 42.786535 
L 259.056666 42.786535 
L 259.056666 39.136634 
L 259.791888 39.136634 
L 259.791888 35.486733 
L 260.408991 35.486733 
L 260.408991 31.836832 
L 261.360551 31.836832 
L 261.360551 28.186931 
L 263.880118 28.186931 
L 263.880118 24.53703 
L 264.845771 24.53703 
L 264.845771 20.887129 
L 267.37235 20.887129 
L 267.37235 17.237228 
L 267.692702 17.237228 
L 267.692702 13.587327 
L 271.976422 13.587327 
L 271.976422 9.937426 
L 364.32 9.937426 
L 364.32 9.937426 
" style="fill:none;stroke:#bf00bf;stroke-linecap:square;"/>
   </g>
   <g id="line2d_4">
    <path clip-path="url(#pf8c1c80bd3)" d="M 182.497515 283.68 
L 182.497515 280.030099 
L 185.60657 280.030099 
L 185.60657 276.380198 
L 185.887775 276.380198 
L 185.887775 272.730297 
L 186.895659 272.730297 
L 186.895659 269.080396 
L 187.235549 269.080396 
L 187.235549 265.430495 
L 187.998286 265.430495 
L 187.998286 261.780594 
L 189.374847 261.780594 
L 189.374847 258.130693 
L 190.496878 258.130693 
L 190.537112 250.830891 
L 191.857298 250.830891 
L 191.857298 247.18099 
L 192.023559 247.18099 
L 192.023747 239.881188 
L 192.563479 239.881188 
L 192.563479 236.231287 
L 192.903761 236.231287 
L 192.903761 232.581386 
L 193.520863 232.581386 
L 193.520863 228.931485 
L 193.939544 228.931485 
L 193.939544 225.281584 
L 194.382874 225.281584 
L 194.382874 221.631683 
L 195.665255 221.631683 
L 195.665255 217.981782 
L 196.187857 217.981782 
L 196.248371 210.68198 
L 197.501941 210.68198 
L 197.501941 207.032079 
L 198.806182 207.032079 
L 198.806182 203.382178 
L 199.864623 203.382178 
L 199.864623 199.732277 
L 201.223353 199.732277 
L 201.223353 196.082376 
L 201.614876 196.082376 
L 201.614876 192.432475 
L 202.52224 192.432475 
L 202.52224 188.782574 
L 204.484513 188.782574 
L 204.484513 185.132673 
L 204.66389 185.132673 
L 204.66389 181.482772 
L 205.663792 181.482772 
L 205.663792 177.832871 
L 206.715157 177.832871 
L 206.715157 174.18297 
L 206.86918 174.18297 
L 206.91667 166.883168 
L 208.858995 166.883168 
L 208.955412 159.583366 
L 208.99026 159.583366 
L 208.99026 155.933465 
L 209.670894 155.933465 
L 209.670894 152.283564 
L 210.231867 152.283564 
L 210.231867 148.633663 
L 210.376723 148.633663 
L 210.376723 144.983762 
L 210.585769 144.983762 
L 210.585769 141.333861 
L 210.826135 141.333861 
L 210.826135 137.68396 
L 211.137324 137.68396 
L 211.137324 134.034059 
L 211.345877 134.034059 
L 211.345877 130.384158 
L 211.581164 130.384158 
L 211.581164 126.734257 
L 212.500006 126.734257 
L 212.500006 123.084356 
L 212.971675 123.084356 
L 213.023878 115.784554 
L 213.240165 115.784554 
L 213.268398 108.484752 
L 213.41717 108.484752 
L 213.475699 101.18495 
L 213.540712 101.18495 
L 213.540712 97.53505 
L 214.602912 97.53505 
L 214.602912 93.885149 
L 215.647121 93.885149 
L 215.647121 90.235248 
L 216.086105 90.235248 
L 216.142291 79.285545 
L 216.228048 79.285545 
L 216.241387 71.985743 
L 216.457383 71.985743 
L 216.457383 68.335842 
L 217.90294 68.335842 
L 217.90294 64.685941 
L 238.754211 64.685941 
L 238.754211 61.03604 
L 242.039552 61.03604 
L 242.039552 57.386139 
L 242.612046 57.386139 
L 242.612046 53.736238 
L 244.99824 53.736238 
L 244.99824 50.086337 
L 246.46951 50.086337 
L 246.46951 46.436436 
L 247.268811 46.436436 
L 247.268811 42.786535 
L 248.491433 42.786535 
L 248.491433 39.136634 
L 248.776824 39.136634 
L 248.776824 35.486733 
L 251.68577 35.486733 
L 251.68577 31.836832 
L 251.865397 31.836832 
L 251.865397 28.186931 
L 254.161046 28.186931 
L 254.161046 24.53703 
L 254.759996 24.53703 
L 254.759996 20.887129 
L 255.899385 20.887129 
L 255.899385 17.237228 
L 259.096374 17.237228 
L 259.096374 13.587327 
L 261.360551 13.587327 
L 261.360551 9.937426 
L 364.32 9.937426 
L 364.32 9.937426 
" style="fill:none;stroke:#000000;stroke-linecap:square;"/>
   </g>
   <g id="line2d_5">
    <path clip-path="url(#pf8c1c80bd3)" d="M 182.497515 283.68 
L 182.497515 280.030099 
L 183.295142 280.030099 
L 183.295142 276.380198 
L 185.60657 276.380198 
L 185.60657 272.730297 
L 185.887775 272.730297 
L 185.948486 265.430495 
L 186.032214 265.430495 
L 186.032214 261.780594 
L 186.576503 261.780594 
L 186.576503 258.130693 
L 186.895659 258.130693 
L 186.895659 254.480792 
L 187.235549 254.480792 
L 187.235549 250.830891 
L 188.063352 250.830891 
L 188.063352 247.18099 
L 188.695313 247.18099 
L 188.695313 243.531089 
L 188.912463 243.531089 
L 188.912463 239.881188 
L 189.374847 239.881188 
L 189.451533 232.581386 
L 190.397313 232.581386 
L 190.397313 228.931485 
L 191.481281 228.931485 
L 191.571588 221.631683 
L 191.939412 221.631683 
L 191.939412 217.981782 
L 192.79774 217.981782 
L 192.79774 214.331881 
L 192.911624 214.331881 
L 192.911624 210.68198 
L 193.520863 210.68198 
L 193.520863 207.032079 
L 194.048567 207.032079 
L 194.048567 203.382178 
L 194.439096 203.382178 
L 194.439096 199.732277 
L 194.971136 199.732277 
L 194.971136 196.082376 
L 195.665255 196.082376 
L 195.665255 192.432475 
L 195.877807 192.432475 
L 195.877807 188.782574 
L 196.248371 188.782574 
L 196.248371 185.132673 
L 197.023481 185.132673 
L 197.023481 181.482772 
L 197.501941 181.482772 
L 197.501941 177.832871 
L 199.864623 177.832871 
L 199.864623 174.18297 
L 200.613018 174.18297 
L 200.673725 166.883168 
L 201.223353 166.883168 
L 201.302706 159.583366 
L 202.384779 159.583366 
L 202.384779 155.933465 
L 202.745275 155.933465 
L 202.792844 148.633663 
L 204.35897 148.633663 
L 204.35897 144.983762 
L 204.663162 144.983762 
L 204.663162 141.333861 
L 204.903824 141.333861 
L 204.903824 137.68396 
L 205.456844 137.68396 
L 205.456844 134.034059 
L 206.86918 134.034059 
L 206.86918 130.384158 
L 207.926726 130.384158 
L 207.926726 126.734257 
L 208.213451 126.734257 
L 208.213451 123.084356 
L 209.568599 123.084356 
L 209.568599 119.434455 
L 210.231867 119.434455 
L 210.231867 115.784554 
L 210.362661 115.784554 
L 210.376723 108.484752 
L 210.585769 108.484752 
L 210.585769 104.834851 
L 211.032553 104.834851 
L 211.032553 101.18495 
L 211.360687 101.18495 
L 211.360687 97.53505 
L 211.698304 97.53505 
L 211.698304 93.885149 
L 211.901116 93.885149 
L 211.901116 90.235248 
L 212.500006 90.235248 
L 212.500006 86.585347 
L 213.091631 86.585347 
L 213.189421 75.635644 
L 213.540712 75.635644 
L 213.577969 68.335842 
L 214.147794 68.335842 
L 214.147794 64.685941 
L 215.048222 64.685941 
L 215.048222 61.03604 
L 225.003878 61.03604 
L 225.003878 57.386139 
L 226.326519 57.386139 
L 226.326519 53.736238 
L 234.508512 53.736238 
L 234.508512 50.086337 
L 236.464439 50.086337 
L 236.464439 46.436436 
L 238.754211 46.436436 
L 238.754211 42.786535 
L 241.651798 42.786535 
L 241.651798 39.136634 
L 242.039552 39.136634 
L 242.039552 35.486733 
L 242.60963 35.486733 
L 242.60963 31.836832 
L 244.284079 31.836832 
L 244.284079 28.186931 
L 247.268811 28.186931 
L 247.268811 24.53703 
L 248.776824 24.53703 
L 248.776824 20.887129 
L 249.967319 20.887129 
L 249.967319 17.237228 
L 251.865397 17.237228 
L 251.865397 13.587327 
L 258.637115 13.587327 
L 258.637115 9.937426 
L 364.32 9.937426 
L 364.32 9.937426 
" style="fill:none;stroke:#00bfbf;stroke-linecap:square;"/>
   </g>
   <g id="line2d_6">
    <path clip-path="url(#pf8c1c80bd3)" d="M 176.697291 283.68 
L 176.697291 280.030099 
L 181.30298 280.030099 
L 181.30298 276.380198 
L 181.669531 276.380198 
L 181.669531 272.730297 
L 182.497439 272.730297 
L 182.497439 269.080396 
L 182.770732 269.080396 
L 182.770732 265.430495 
L 183.105909 265.430495 
L 183.105909 261.780594 
L 183.295142 261.780594 
L 183.319558 254.480792 
L 183.717006 254.480792 
L 183.741728 247.18099 
L 184.631064 247.18099 
L 184.631064 243.531089 
L 185.127752 243.531089 
L 185.127752 239.881188 
L 185.518239 239.881188 
L 185.606568 232.581386 
L 185.808035 232.581386 
L 185.808035 228.931485 
L 186.056668 228.931485 
L 186.113693 221.631683 
L 186.324931 221.631683 
L 186.324931 217.981782 
L 186.576472 217.981782 
L 186.648825 210.68198 
L 186.80586 210.68198 
L 186.80586 207.032079 
L 187.133703 207.032079 
L 187.133703 203.382178 
L 188.42499 203.382178 
L 188.42499 199.732277 
L 188.755748 199.732277 
L 188.755748 196.082376 
L 188.869675 196.082376 
L 188.869675 192.432475 
L 190.50363 192.432475 
L 190.505409 185.132673 
L 191.602716 185.132673 
L 191.602716 181.482772 
L 191.939412 181.482772 
L 192.014572 170.533069 
L 192.36995 170.533069 
L 192.36995 166.883168 
L 192.906469 166.883168 
L 192.906469 163.233267 
L 193.51121 163.233267 
L 193.51121 159.583366 
L 193.73303 159.583366 
L 193.836358 152.283564 
L 194.369902 152.283564 
L 194.439096 144.983762 
L 195.072605 144.983762 
L 195.072605 141.333861 
L 195.296432 141.333861 
L 195.296432 137.68396 
L 195.629148 137.68396 
L 195.629148 134.034059 
L 195.873577 134.034059 
L 195.935945 126.734257 
L 196.248371 126.734257 
L 196.248371 123.084356 
L 198.970484 123.084356 
L 198.970484 119.434455 
L 199.258344 119.434455 
L 199.258344 115.784554 
L 199.519721 115.784554 
L 199.519721 112.134653 
L 199.827846 112.134653 
L 199.827846 108.484752 
L 200.02499 108.484752 
L 200.02499 104.834851 
L 200.923776 104.834851 
L 200.923776 101.18495 
L 201.2099 101.18495 
L 201.2099 97.53505 
L 202.641147 97.53505 
L 202.641147 93.885149 
L 204.74705 93.885149 
L 204.74705 90.235248 
L 205.504624 90.235248 
L 205.504624 86.585347 
L 208.168981 86.585347 
L 208.213446 79.285545 
L 208.630687 79.285545 
L 208.630687 75.635644 
L 208.859584 75.635644 
L 208.859584 71.985743 
L 209.695317 71.985743 
L 209.695317 68.335842 
L 210.231867 68.335842 
L 210.338741 61.03604 
L 210.585769 61.03604 
L 210.585769 57.386139 
L 210.866262 57.386139 
L 210.974252 50.086337 
L 211.028196 50.086337 
L 211.028196 46.436436 
L 211.575687 46.436436 
L 211.575687 42.786535 
L 211.864711 42.786535 
L 211.864711 39.136634 
L 212.809056 39.136634 
L 212.809056 35.486733 
L 217.694208 35.486733 
L 217.694208 31.836832 
L 221.334875 31.836832 
L 221.334875 28.186931 
L 224.245794 28.186931 
L 224.245794 24.53703 
L 227.327485 24.53703 
L 227.327485 20.887129 
L 228.572089 20.887129 
L 228.572089 17.237228 
L 233.826199 17.237228 
L 233.826199 13.587327 
L 234.45324 13.587327 
L 234.45324 9.937426 
L 364.32 9.937426 
L 364.32 9.937426 
" style="fill:none;stroke:#bf00bf;stroke-linecap:square;"/>
   </g>
   <g id="patch_3">
    <path d="M 7.2 7.2 
L 364.32 7.2 
" style="fill:none;stroke:#000000;stroke-linecap:square;stroke-linejoin:miter;"/>
   </g>
   <g id="patch_4">
    <path d="M 364.32 283.68 
L 364.32 7.2 
" style="fill:none;stroke:#000000;stroke-linecap:square;stroke-linejoin:miter;"/>
   </g>
   <g id="patch_5">
    <path d="M 7.2 283.68 
L 364.32 283.68 
" style="fill:none;stroke:#000000;stroke-linecap:square;stroke-linejoin:miter;"/>
   </g>
   <g id="patch_6">
    <path d="M 7.2 283.68 
L 7.2 7.2 
" style="fill:none;stroke:#000000;stroke-linecap:square;stroke-linejoin:miter;"/>
   </g>
   <g id="matplotlib.axis_1">
    <g id="xtick_1">
     <g id="line2d_7">
      <path clip-path="url(#pf8c1c80bd3)" d="M 49.133998 283.68 
L 49.133998 7.2 
" style="fill:none;stroke:#000000;stroke-dasharray:1.000000,3.000000;stroke-dashoffset:0.0;stroke-width:0.5;"/>
     </g>
     <g id="line2d_8">
      <defs>
       <path d="M 0 0 
L 0 -4 
" id="me5b1c3efa3" style="stroke:#000000;stroke-width:0.5;"/>
      </defs>
      <g>
       <use style="stroke:#000000;stroke-width:0.5;" x="49.1339978514" xlink:href="#me5b1c3efa3" y="283.68"/>
      </g>
     </g>
     <g id="line2d_9">
      <defs>
       <path d="M 0 0 
L 0 4 
" id="m38184c34bc" style="stroke:#000000;stroke-width:0.5;"/>
      </defs>
      <g>
       <use style="stroke:#000000;stroke-width:0.5;" x="49.1339978514" xlink:href="#m38184c34bc" y="7.2"/>
      </g>
     </g>
     <g id="text_1">
      <!-- -6 -->
      <defs>
       <path d="M 33.015625 40.375 
Q 26.375 40.375 22.484375 35.828125 
Q 18.609375 31.296875 18.609375 23.390625 
Q 18.609375 15.53125 22.484375 10.953125 
Q 26.375 6.390625 33.015625 6.390625 
Q 39.65625 6.390625 43.53125 10.953125 
Q 47.40625 15.53125 47.40625 23.390625 
Q 47.40625 31.296875 43.53125 35.828125 
Q 39.65625 40.375 33.015625 40.375 
M 52.59375 71.296875 
L 52.59375 62.3125 
Q 48.875 64.0625 45.09375 64.984375 
Q 41.3125 65.921875 37.59375 65.921875 
Q 27.828125 65.921875 22.671875 59.328125 
Q 17.53125 52.734375 16.796875 39.40625 
Q 19.671875 43.65625 24.015625 45.921875 
Q 28.375 48.1875 33.59375 48.1875 
Q 44.578125 48.1875 50.953125 41.515625 
Q 57.328125 34.859375 57.328125 23.390625 
Q 57.328125 12.15625 50.6875 5.359375 
Q 44.046875 -1.421875 33.015625 -1.421875 
Q 20.359375 -1.421875 13.671875 8.265625 
Q 6.984375 17.96875 6.984375 36.375 
Q 6.984375 53.65625 15.1875 63.9375 
Q 23.390625 74.21875 37.203125 74.21875 
Q 40.921875 74.21875 44.703125 73.484375 
Q 48.484375 72.75 52.59375 71.296875 
" id="BitstreamVeraSans-Roman-36"/>
       <path d="M 4.890625 31.390625 
L 31.203125 31.390625 
L 31.203125 23.390625 
L 4.890625 23.390625 
z
" id="BitstreamVeraSans-Roman-2d"/>
      </defs>
      <g transform="translate(39.1636853514 302.876875)scale(0.2 -0.2)">
       <use xlink:href="#BitstreamVeraSans-Roman-2d"/>
       <use x="36.083984375" xlink:href="#BitstreamVeraSans-Roman-36"/>
      </g>
     </g>
    </g>
    <g id="xtick_2">
     <g id="line2d_10">
      <path clip-path="url(#pf8c1c80bd3)" d="M 91.158798 283.68 
L 91.158798 7.2 
" style="fill:none;stroke:#000000;stroke-dasharray:1.000000,3.000000;stroke-dashoffset:0.0;stroke-width:0.5;"/>
     </g>
     <g id="line2d_11">
      <g>
       <use style="stroke:#000000;stroke-width:0.5;" x="91.1587981379" xlink:href="#me5b1c3efa3" y="283.68"/>
      </g>
     </g>
     <g id="line2d_12">
      <g>
       <use style="stroke:#000000;stroke-width:0.5;" x="91.1587981379" xlink:href="#m38184c34bc" y="7.2"/>
      </g>
     </g>
     <g id="text_2">
      <!-- -4 -->
      <defs>
       <path d="M 37.796875 64.3125 
L 12.890625 25.390625 
L 37.796875 25.390625 
z
M 35.203125 72.90625 
L 47.609375 72.90625 
L 47.609375 25.390625 
L 58.015625 25.390625 
L 58.015625 17.1875 
L 47.609375 17.1875 
L 47.609375 0 
L 37.796875 0 
L 37.796875 17.1875 
L 4.890625 17.1875 
L 4.890625 26.703125 
z
" id="BitstreamVeraSans-Roman-34"/>
      </defs>
      <g transform="translate(81.1884856379 302.876875)scale(0.2 -0.2)">
       <use xlink:href="#BitstreamVeraSans-Roman-2d"/>
       <use x="36.083984375" xlink:href="#BitstreamVeraSans-Roman-34"/>
      </g>
     </g>
    </g>
    <g id="xtick_3">
     <g id="line2d_13">
      <path clip-path="url(#pf8c1c80bd3)" d="M 133.183598 283.68 
L 133.183598 7.2 
" style="fill:none;stroke:#000000;stroke-dasharray:1.000000,3.000000;stroke-dashoffset:0.0;stroke-width:0.5;"/>
     </g>
     <g id="line2d_14">
      <g>
       <use style="stroke:#000000;stroke-width:0.5;" x="133.183598424" xlink:href="#me5b1c3efa3" y="283.68"/>
      </g>
     </g>
     <g id="line2d_15">
      <g>
       <use style="stroke:#000000;stroke-width:0.5;" x="133.183598424" xlink:href="#m38184c34bc" y="7.2"/>
      </g>
     </g>
     <g id="text_3">
      <!-- -2 -->
      <defs>
       <path d="M 19.1875 8.296875 
L 53.609375 8.296875 
L 53.609375 0 
L 7.328125 0 
L 7.328125 8.296875 
Q 12.9375 14.109375 22.625 23.890625 
Q 32.328125 33.6875 34.8125 36.53125 
Q 39.546875 41.84375 41.421875 45.53125 
Q 43.3125 49.21875 43.3125 52.78125 
Q 43.3125 58.59375 39.234375 62.25 
Q 35.15625 65.921875 28.609375 65.921875 
Q 23.96875 65.921875 18.8125 64.3125 
Q 13.671875 62.703125 7.8125 59.421875 
L 7.8125 69.390625 
Q 13.765625 71.78125 18.9375 73 
Q 24.125 74.21875 28.421875 74.21875 
Q 39.75 74.21875 46.484375 68.546875 
Q 53.21875 62.890625 53.21875 53.421875 
Q 53.21875 48.921875 51.53125 44.890625 
Q 49.859375 40.875 45.40625 35.40625 
Q 44.1875 33.984375 37.640625 27.21875 
Q 31.109375 20.453125 19.1875 8.296875 
" id="BitstreamVeraSans-Roman-32"/>
      </defs>
      <g transform="translate(123.213285924 302.876875)scale(0.2 -0.2)">
       <use xlink:href="#BitstreamVeraSans-Roman-2d"/>
       <use x="36.083984375" xlink:href="#BitstreamVeraSans-Roman-32"/>
      </g>
     </g>
    </g>
    <g id="xtick_4">
     <g id="line2d_16">
      <path clip-path="url(#pf8c1c80bd3)" d="M 175.208399 283.68 
L 175.208399 7.2 
" style="fill:none;stroke:#000000;stroke-dasharray:1.000000,3.000000;stroke-dashoffset:0.0;stroke-width:0.5;"/>
     </g>
     <g id="line2d_17">
      <g>
       <use style="stroke:#000000;stroke-width:0.5;" x="175.208398711" xlink:href="#me5b1c3efa3" y="283.68"/>
      </g>
     </g>
     <g id="line2d_18">
      <g>
       <use style="stroke:#000000;stroke-width:0.5;" x="175.208398711" xlink:href="#m38184c34bc" y="7.2"/>
      </g>
     </g>
     <g id="text_4">
      <!-- 0 -->
      <defs>
       <path d="M 31.78125 66.40625 
Q 24.171875 66.40625 20.328125 58.90625 
Q 16.5 51.421875 16.5 36.375 
Q 16.5 21.390625 20.328125 13.890625 
Q 24.171875 6.390625 31.78125 6.390625 
Q 39.453125 6.390625 43.28125 13.890625 
Q 47.125 21.390625 47.125 36.375 
Q 47.125 51.421875 43.28125 58.90625 
Q 39.453125 66.40625 31.78125 66.40625 
M 31.78125 74.21875 
Q 44.046875 74.21875 50.515625 64.515625 
Q 56.984375 54.828125 56.984375 36.375 
Q 56.984375 17.96875 50.515625 8.265625 
Q 44.046875 -1.421875 31.78125 -1.421875 
Q 19.53125 -1.421875 13.0625 8.265625 
Q 6.59375 17.96875 6.59375 36.375 
Q 6.59375 54.828125 13.0625 64.515625 
Q 19.53125 74.21875 31.78125 74.21875 
" id="BitstreamVeraSans-Roman-30"/>
      </defs>
      <g transform="translate(168.845898711 302.876875)scale(0.2 -0.2)">
       <use xlink:href="#BitstreamVeraSans-Roman-30"/>
      </g>
     </g>
    </g>
    <g id="xtick_5">
     <g id="line2d_19">
      <path clip-path="url(#pf8c1c80bd3)" d="M 217.233199 283.68 
L 217.233199 7.2 
" style="fill:none;stroke:#000000;stroke-dasharray:1.000000,3.000000;stroke-dashoffset:0.0;stroke-width:0.5;"/>
     </g>
     <g id="line2d_20">
      <g>
       <use style="stroke:#000000;stroke-width:0.5;" x="217.233198997" xlink:href="#me5b1c3efa3" y="283.68"/>
      </g>
     </g>
     <g id="line2d_21">
      <g>
       <use style="stroke:#000000;stroke-width:0.5;" x="217.233198997" xlink:href="#m38184c34bc" y="7.2"/>
      </g>
     </g>
     <g id="text_5">
      <!-- 2 -->
      <g transform="translate(210.870698997 302.876875)scale(0.2 -0.2)">
       <use xlink:href="#BitstreamVeraSans-Roman-32"/>
      </g>
     </g>
    </g>
    <g id="xtick_6">
     <g id="line2d_22">
      <path clip-path="url(#pf8c1c80bd3)" d="M 259.257999 283.68 
L 259.257999 7.2 
" style="fill:none;stroke:#000000;stroke-dasharray:1.000000,3.000000;stroke-dashoffset:0.0;stroke-width:0.5;"/>
     </g>
     <g id="line2d_23">
      <g>
       <use style="stroke:#000000;stroke-width:0.5;" x="259.257999284" xlink:href="#me5b1c3efa3" y="283.68"/>
      </g>
     </g>
     <g id="line2d_24">
      <g>
       <use style="stroke:#000000;stroke-width:0.5;" x="259.257999284" xlink:href="#m38184c34bc" y="7.2"/>
      </g>
     </g>
     <g id="text_6">
      <!-- 4 -->
      <g transform="translate(252.895499284 302.876875)scale(0.2 -0.2)">
       <use xlink:href="#BitstreamVeraSans-Roman-34"/>
      </g>
     </g>
    </g>
    <g id="xtick_7">
     <g id="line2d_25">
      <path clip-path="url(#pf8c1c80bd3)" d="M 301.2828 283.68 
L 301.2828 7.2 
" style="fill:none;stroke:#000000;stroke-dasharray:1.000000,3.000000;stroke-dashoffset:0.0;stroke-width:0.5;"/>
     </g>
     <g id="line2d_26">
      <g>
       <use style="stroke:#000000;stroke-width:0.5;" x="301.28279957" xlink:href="#me5b1c3efa3" y="283.68"/>
      </g>
     </g>
     <g id="line2d_27">
      <g>
       <use style="stroke:#000000;stroke-width:0.5;" x="301.28279957" xlink:href="#m38184c34bc" y="7.2"/>
      </g>
     </g>
     <g id="text_7">
      <!-- 6 -->
      <g transform="translate(294.92029957 302.876875)scale(0.2 -0.2)">
       <use xlink:href="#BitstreamVeraSans-Roman-36"/>
      </g>
     </g>
    </g>
    <g id="xtick_8">
     <g id="line2d_28">
      <path clip-path="url(#pf8c1c80bd3)" d="M 343.3076 283.68 
L 343.3076 7.2 
" style="fill:none;stroke:#000000;stroke-dasharray:1.000000,3.000000;stroke-dashoffset:0.0;stroke-width:0.5;"/>
     </g>
     <g id="line2d_29">
      <g>
       <use style="stroke:#000000;stroke-width:0.5;" x="343.307599857" xlink:href="#me5b1c3efa3" y="283.68"/>
      </g>
     </g>
     <g id="line2d_30">
      <g>
       <use style="stroke:#000000;stroke-width:0.5;" x="343.307599857" xlink:href="#m38184c34bc" y="7.2"/>
      </g>
     </g>
     <g id="text_8">
      <!-- 8 -->
      <defs>
       <path d="M 31.78125 34.625 
Q 24.75 34.625 20.71875 30.859375 
Q 16.703125 27.09375 16.703125 20.515625 
Q 16.703125 13.921875 20.71875 10.15625 
Q 24.75 6.390625 31.78125 6.390625 
Q 38.8125 6.390625 42.859375 10.171875 
Q 46.921875 13.96875 46.921875 20.515625 
Q 46.921875 27.09375 42.890625 30.859375 
Q 38.875 34.625 31.78125 34.625 
M 21.921875 38.8125 
Q 15.578125 40.375 12.03125 44.71875 
Q 8.5 49.078125 8.5 55.328125 
Q 8.5 64.0625 14.71875 69.140625 
Q 20.953125 74.21875 31.78125 74.21875 
Q 42.671875 74.21875 48.875 69.140625 
Q 55.078125 64.0625 55.078125 55.328125 
Q 55.078125 49.078125 51.53125 44.71875 
Q 48 40.375 41.703125 38.8125 
Q 48.828125 37.15625 52.796875 32.3125 
Q 56.78125 27.484375 56.78125 20.515625 
Q 56.78125 9.90625 50.3125 4.234375 
Q 43.84375 -1.421875 31.78125 -1.421875 
Q 19.734375 -1.421875 13.25 4.234375 
Q 6.78125 9.90625 6.78125 20.515625 
Q 6.78125 27.484375 10.78125 32.3125 
Q 14.796875 37.15625 21.921875 38.8125 
M 18.3125 54.390625 
Q 18.3125 48.734375 21.84375 45.5625 
Q 25.390625 42.390625 31.78125 42.390625 
Q 38.140625 42.390625 41.71875 45.5625 
Q 45.3125 48.734375 45.3125 54.390625 
Q 45.3125 60.0625 41.71875 63.234375 
Q 38.140625 66.40625 31.78125 66.40625 
Q 25.390625 66.40625 21.84375 63.234375 
Q 18.3125 60.0625 18.3125 54.390625 
" id="BitstreamVeraSans-Roman-38"/>
      </defs>
      <g transform="translate(336.945099857 302.876875)scale(0.2 -0.2)">
       <use xlink:href="#BitstreamVeraSans-Roman-38"/>
      </g>
     </g>
    </g>
    <g id="xtick_9">
     <g id="line2d_31">
      <defs>
       <path d="M 0 0 
L 0 -2 
" id="m2a8515bcc5" style="stroke:#000000;stroke-width:0.5;"/>
      </defs>
      <g>
       <use style="stroke:#000000;stroke-width:0.5;" x="49.1339978514" xlink:href="#m2a8515bcc5" y="283.68"/>
      </g>
     </g>
     <g id="line2d_32">
      <defs>
       <path d="M 0 0 
L 0 2 
" id="m22a0372cbf" style="stroke:#000000;stroke-width:0.5;"/>
      </defs>
      <g>
       <use style="stroke:#000000;stroke-width:0.5;" x="49.1339978514" xlink:href="#m22a0372cbf" y="7.2"/>
      </g>
     </g>
    </g>
    <g id="xtick_10">
     <g id="line2d_33">
      <g>
       <use style="stroke:#000000;stroke-width:0.5;" x="91.1587981379" xlink:href="#m2a8515bcc5" y="283.68"/>
      </g>
     </g>
     <g id="line2d_34">
      <g>
       <use style="stroke:#000000;stroke-width:0.5;" x="91.1587981379" xlink:href="#m22a0372cbf" y="7.2"/>
      </g>
     </g>
    </g>
    <g id="xtick_11">
     <g id="line2d_35">
      <g>
       <use style="stroke:#000000;stroke-width:0.5;" x="133.183598424" xlink:href="#m2a8515bcc5" y="283.68"/>
      </g>
     </g>
     <g id="line2d_36">
      <g>
       <use style="stroke:#000000;stroke-width:0.5;" x="133.183598424" xlink:href="#m22a0372cbf" y="7.2"/>
      </g>
     </g>
    </g>
    <g id="xtick_12">
     <g id="line2d_37">
      <g>
       <use style="stroke:#000000;stroke-width:0.5;" x="175.208398711" xlink:href="#m2a8515bcc5" y="283.68"/>
      </g>
     </g>
     <g id="line2d_38">
      <g>
       <use style="stroke:#000000;stroke-width:0.5;" x="175.208398711" xlink:href="#m22a0372cbf" y="7.2"/>
      </g>
     </g>
    </g>
    <g id="xtick_13">
     <g id="line2d_39">
      <g>
       <use style="stroke:#000000;stroke-width:0.5;" x="217.233198997" xlink:href="#m2a8515bcc5" y="283.68"/>
      </g>
     </g>
     <g id="line2d_40">
      <g>
       <use style="stroke:#000000;stroke-width:0.5;" x="217.233198997" xlink:href="#m22a0372cbf" y="7.2"/>
      </g>
     </g>
    </g>
    <g id="xtick_14">
     <g id="line2d_41">
      <g>
       <use style="stroke:#000000;stroke-width:0.5;" x="259.257999284" xlink:href="#m2a8515bcc5" y="283.68"/>
      </g>
     </g>
     <g id="line2d_42">
      <g>
       <use style="stroke:#000000;stroke-width:0.5;" x="259.257999284" xlink:href="#m22a0372cbf" y="7.2"/>
      </g>
     </g>
    </g>
    <g id="xtick_15">
     <g id="line2d_43">
      <g>
       <use style="stroke:#000000;stroke-width:0.5;" x="301.28279957" xlink:href="#m2a8515bcc5" y="283.68"/>
      </g>
     </g>
     <g id="line2d_44">
      <g>
       <use style="stroke:#000000;stroke-width:0.5;" x="301.28279957" xlink:href="#m22a0372cbf" y="7.2"/>
      </g>
     </g>
    </g>
    <g id="xtick_16">
     <g id="line2d_45">
      <g>
       <use style="stroke:#000000;stroke-width:0.5;" x="343.307599857" xlink:href="#m2a8515bcc5" y="283.68"/>
      </g>
     </g>
     <g id="line2d_46">
      <g>
       <use style="stroke:#000000;stroke-width:0.5;" x="343.307599857" xlink:href="#m22a0372cbf" y="7.2"/>
      </g>
     </g>
    </g>
    <g id="text_9">
     <!-- log10 of Df -->
     <defs>
      <path id="BitstreamVeraSans-Roman-20"/>
      <path d="M 12.40625 8.296875 
L 28.515625 8.296875 
L 28.515625 63.921875 
L 10.984375 60.40625 
L 10.984375 69.390625 
L 28.421875 72.90625 
L 38.28125 72.90625 
L 38.28125 8.296875 
L 54.390625 8.296875 
L 54.390625 0 
L 12.40625 0 
z
" id="BitstreamVeraSans-Roman-31"/>
      <path d="M 30.609375 48.390625 
Q 23.390625 48.390625 19.1875 42.75 
Q 14.984375 37.109375 14.984375 27.296875 
Q 14.984375 17.484375 19.15625 11.84375 
Q 23.34375 6.203125 30.609375 6.203125 
Q 37.796875 6.203125 41.984375 11.859375 
Q 46.1875 17.53125 46.1875 27.296875 
Q 46.1875 37.015625 41.984375 42.703125 
Q 37.796875 48.390625 30.609375 48.390625 
M 30.609375 56 
Q 42.328125 56 49.015625 48.375 
Q 55.71875 40.765625 55.71875 27.296875 
Q 55.71875 13.875 49.015625 6.21875 
Q 42.328125 -1.421875 30.609375 -1.421875 
Q 18.84375 -1.421875 12.171875 6.21875 
Q 5.515625 13.875 5.515625 27.296875 
Q 5.515625 40.765625 12.171875 48.375 
Q 18.84375 56 30.609375 56 
" id="BitstreamVeraSans-Roman-6f"/>
      <path d="M 9.421875 75.984375 
L 18.40625 75.984375 
L 18.40625 0 
L 9.421875 0 
z
" id="BitstreamVeraSans-Roman-6c"/>
      <path d="M 19.671875 64.796875 
L 19.671875 8.109375 
L 31.59375 8.109375 
Q 46.6875 8.109375 53.6875 14.9375 
Q 60.6875 21.78125 60.6875 36.53125 
Q 60.6875 51.171875 53.6875 57.984375 
Q 46.6875 64.796875 31.59375 64.796875 
z
M 9.8125 72.90625 
L 30.078125 72.90625 
Q 51.265625 72.90625 61.171875 64.09375 
Q 71.09375 55.28125 71.09375 36.53125 
Q 71.09375 17.671875 61.125 8.828125 
Q 51.171875 0 30.078125 0 
L 9.8125 0 
z
" id="BitstreamVeraSans-Roman-44"/>
      <path d="M 45.40625 27.984375 
Q 45.40625 37.75 41.375 43.109375 
Q 37.359375 48.484375 30.078125 48.484375 
Q 22.859375 48.484375 18.828125 43.109375 
Q 14.796875 37.75 14.796875 27.984375 
Q 14.796875 18.265625 18.828125 12.890625 
Q 22.859375 7.515625 30.078125 7.515625 
Q 37.359375 7.515625 41.375 12.890625 
Q 45.40625 18.265625 45.40625 27.984375 
M 54.390625 6.78125 
Q 54.390625 -7.171875 48.1875 -13.984375 
Q 42 -20.796875 29.203125 -20.796875 
Q 24.46875 -20.796875 20.265625 -20.09375 
Q 16.0625 -19.390625 12.109375 -17.921875 
L 12.109375 -9.1875 
Q 16.0625 -11.328125 19.921875 -12.34375 
Q 23.78125 -13.375 27.78125 -13.375 
Q 36.625 -13.375 41.015625 -8.765625 
Q 45.40625 -4.15625 45.40625 5.171875 
L 45.40625 9.625 
Q 42.625 4.78125 38.28125 2.390625 
Q 33.9375 0 27.875 0 
Q 17.828125 0 11.671875 7.65625 
Q 5.515625 15.328125 5.515625 27.984375 
Q 5.515625 40.671875 11.671875 48.328125 
Q 17.828125 56 27.875 56 
Q 33.9375 56 38.28125 53.609375 
Q 42.625 51.21875 45.40625 46.390625 
L 45.40625 54.6875 
L 54.390625 54.6875 
z
" id="BitstreamVeraSans-Roman-67"/>
      <path d="M 37.109375 75.984375 
L 37.109375 68.5 
L 28.515625 68.5 
Q 23.6875 68.5 21.796875 66.546875 
Q 19.921875 64.59375 19.921875 59.515625 
L 19.921875 54.6875 
L 34.71875 54.6875 
L 34.71875 47.703125 
L 19.921875 47.703125 
L 19.921875 0 
L 10.890625 0 
L 10.890625 47.703125 
L 2.296875 47.703125 
L 2.296875 54.6875 
L 10.890625 54.6875 
L 10.890625 58.5 
Q 10.890625 67.625 15.140625 71.796875 
Q 19.390625 75.984375 28.609375 75.984375 
z
" id="BitstreamVeraSans-Roman-66"/>
     </defs>
     <g transform="translate(130.5740625 327.233125)scale(0.2 -0.2)">
      <use xlink:href="#BitstreamVeraSans-Roman-6c"/>
      <use x="27.783203125" xlink:href="#BitstreamVeraSans-Roman-6f"/>
      <use x="88.96484375" xlink:href="#BitstreamVeraSans-Roman-67"/>
      <use x="152.44140625" xlink:href="#BitstreamVeraSans-Roman-31"/>
      <use x="216.064453125" xlink:href="#BitstreamVeraSans-Roman-30"/>
      <use x="279.6875" xlink:href="#BitstreamVeraSans-Roman-20"/>
      <use x="311.474609375" xlink:href="#BitstreamVeraSans-Roman-6f"/>
      <use x="372.65625" xlink:href="#BitstreamVeraSans-Roman-66"/>
      <use x="407.861328125" xlink:href="#BitstreamVeraSans-Roman-20"/>
      <use x="439.6484375" xlink:href="#BitstreamVeraSans-Roman-44"/>
      <use x="516.650390625" xlink:href="#BitstreamVeraSans-Roman-66"/>
     </g>
    </g>
   </g>
   <g id="matplotlib.axis_2">
    <g id="ytick_1">
     <g id="line2d_47">
      <path clip-path="url(#pf8c1c80bd3)" d="M 7.2 283.68 
L 364.32 283.68 
" style="fill:none;stroke:#000000;stroke-dasharray:1.000000,3.000000;stroke-dashoffset:0.0;stroke-width:0.5;"/>
     </g>
     <g id="line2d_48">
      <defs>
       <path d="M 0 0 
L 4 0 
" id="m36a42131e9" style="stroke:#000000;stroke-width:0.5;"/>
      </defs>
      <g>
       <use style="stroke:#000000;stroke-width:0.5;" x="7.2" xlink:href="#m36a42131e9" y="283.68"/>
      </g>
     </g>
     <g id="line2d_49">
      <defs>
       <path d="M 0 0 
L -4 0 
" id="m03a4c5e410" style="stroke:#000000;stroke-width:0.5;"/>
      </defs>
      <g>
       <use style="stroke:#000000;stroke-width:0.5;" x="364.32" xlink:href="#m03a4c5e410" y="283.68"/>
      </g>
     </g>
    </g>
    <g id="ytick_2">
     <g id="line2d_50">
      <path clip-path="url(#pf8c1c80bd3)" d="M 7.2 228.931485 
L 364.32 228.931485 
" style="fill:none;stroke:#000000;stroke-dasharray:1.000000,3.000000;stroke-dashoffset:0.0;stroke-width:0.5;"/>
     </g>
     <g id="line2d_51">
      <g>
       <use style="stroke:#000000;stroke-width:0.5;" x="7.2" xlink:href="#m36a42131e9" y="228.931485149"/>
      </g>
     </g>
     <g id="line2d_52">
      <g>
       <use style="stroke:#000000;stroke-width:0.5;" x="364.32" xlink:href="#m03a4c5e410" y="228.931485149"/>
      </g>
     </g>
    </g>
    <g id="ytick_3">
     <g id="line2d_53">
      <path clip-path="url(#pf8c1c80bd3)" d="M 7.2 174.18297 
L 364.32 174.18297 
" style="fill:none;stroke:#000000;stroke-dasharray:1.000000,3.000000;stroke-dashoffset:0.0;stroke-width:0.5;"/>
     </g>
     <g id="line2d_54">
      <g>
       <use style="stroke:#000000;stroke-width:0.5;" x="7.2" xlink:href="#m36a42131e9" y="174.182970297"/>
      </g>
     </g>
     <g id="line2d_55">
      <g>
       <use style="stroke:#000000;stroke-width:0.5;" x="364.32" xlink:href="#m03a4c5e410" y="174.182970297"/>
      </g>
     </g>
    </g>
    <g id="ytick_4">
     <g id="line2d_56">
      <path clip-path="url(#pf8c1c80bd3)" d="M 7.2 119.434455 
L 364.32 119.434455 
" style="fill:none;stroke:#000000;stroke-dasharray:1.000000,3.000000;stroke-dashoffset:0.0;stroke-width:0.5;"/>
     </g>
     <g id="line2d_57">
      <g>
       <use style="stroke:#000000;stroke-width:0.5;" x="7.2" xlink:href="#m36a42131e9" y="119.434455446"/>
      </g>
     </g>
     <g id="line2d_58">
      <g>
       <use style="stroke:#000000;stroke-width:0.5;" x="364.32" xlink:href="#m03a4c5e410" y="119.434455446"/>
      </g>
     </g>
    </g>
    <g id="ytick_5">
     <g id="line2d_59">
      <path clip-path="url(#pf8c1c80bd3)" d="M 7.2 64.685941 
L 364.32 64.685941 
" style="fill:none;stroke:#000000;stroke-dasharray:1.000000,3.000000;stroke-dashoffset:0.0;stroke-width:0.5;"/>
     </g>
     <g id="line2d_60">
      <g>
       <use style="stroke:#000000;stroke-width:0.5;" x="7.2" xlink:href="#m36a42131e9" y="64.6859405941"/>
      </g>
     </g>
     <g id="line2d_61">
      <g>
       <use style="stroke:#000000;stroke-width:0.5;" x="364.32" xlink:href="#m03a4c5e410" y="64.6859405941"/>
      </g>
     </g>
    </g>
    <g id="ytick_6">
     <g id="line2d_62">
      <path clip-path="url(#pf8c1c80bd3)" d="M 7.2 9.937426 
L 364.32 9.937426 
" style="fill:none;stroke:#000000;stroke-dasharray:1.000000,3.000000;stroke-dashoffset:0.0;stroke-width:0.5;"/>
     </g>
     <g id="line2d_63">
      <g>
       <use style="stroke:#000000;stroke-width:0.5;" x="7.2" xlink:href="#m36a42131e9" y="9.93742574257"/>
      </g>
     </g>
     <g id="line2d_64">
      <g>
       <use style="stroke:#000000;stroke-width:0.5;" x="364.32" xlink:href="#m03a4c5e410" y="9.93742574257"/>
      </g>
     </g>
    </g>
   </g>
   <g id="text_10">
    <!-- f20-24,5-D -->
    <defs>
     <path d="M 11.71875 12.40625 
L 22.015625 12.40625 
L 22.015625 4 
L 14.015625 -11.625 
L 7.71875 -11.625 
L 11.71875 4 
z
" id="BitstreamVeraSans-Roman-2c"/>
     <path d="M 10.796875 72.90625 
L 49.515625 72.90625 
L 49.515625 64.59375 
L 19.828125 64.59375 
L 19.828125 46.734375 
Q 21.96875 47.46875 24.109375 47.828125 
Q 26.265625 48.1875 28.421875 48.1875 
Q 40.625 48.1875 47.75 41.5 
Q 54.890625 34.8125 54.890625 23.390625 
Q 54.890625 11.625 47.5625 5.09375 
Q 40.234375 -1.421875 26.90625 -1.421875 
Q 22.3125 -1.421875 17.546875 -0.640625 
Q 12.796875 0.140625 7.71875 1.703125 
L 7.71875 11.625 
Q 12.109375 9.234375 16.796875 8.0625 
Q 21.484375 6.890625 26.703125 6.890625 
Q 35.15625 6.890625 40.078125 11.328125 
Q 45.015625 15.765625 45.015625 23.390625 
Q 45.015625 31 40.078125 35.4375 
Q 35.15625 39.890625 26.703125 39.890625 
Q 22.75 39.890625 18.8125 39.015625 
Q 14.890625 38.140625 10.796875 36.28125 
z
" id="BitstreamVeraSans-Roman-35"/>
    </defs>
    <g transform="translate(250.324475 278.1504)scale(0.2 -0.2)">
     <use xlink:href="#BitstreamVeraSans-Roman-66"/>
     <use x="35.205078125" xlink:href="#BitstreamVeraSans-Roman-32"/>
     <use x="98.828125" xlink:href="#BitstreamVeraSans-Roman-30"/>
     <use x="162.451171875" xlink:href="#BitstreamVeraSans-Roman-2d"/>
     <use x="198.53515625" xlink:href="#BitstreamVeraSans-Roman-32"/>
     <use x="262.158203125" xlink:href="#BitstreamVeraSans-Roman-34"/>
     <use x="325.78125" xlink:href="#BitstreamVeraSans-Roman-2c"/>
     <use x="357.568359375" xlink:href="#BitstreamVeraSans-Roman-35"/>
     <use x="421.19140625" xlink:href="#BitstreamVeraSans-Roman-2d"/>
     <use x="457.275390625" xlink:href="#BitstreamVeraSans-Roman-44"/>
    </g>
   </g>
  </g>
 </g>
 <defs>
  <clipPath id="pf8c1c80bd3">
   <rect height="276.48" width="357.12" x="7.2" y="7.2"/>
  </clipPath>
 </defs>
</svg>
