<?xml version="1.0" encoding="utf-8" standalone="no"?>
<!DOCTYPE svg PUBLIC "-//W3C//DTD SVG 1.1//EN"
  "http://www.w3.org/Graphics/SVG/1.1/DTD/svg11.dtd">
<!-- Created with matplotlib (http://matplotlib.org/) -->
<svg height="338pt" version="1.1" viewBox="0 0 371 338" width="371pt" xmlns="http://www.w3.org/2000/svg" xmlns:xlink="http://www.w3.org/1999/xlink">
 <defs>
  <style type="text/css">
*{stroke-linecap:butt;stroke-linejoin:round;stroke-miterlimit:100000;}
  </style>
 </defs>
 <g id="figure_1">
  <g id="patch_1">
   <path d="M 0 338.5925 
L 371.52 338.5925 
L 371.52 0 
L 0 0 
z
" style="fill:#ffffff;"/>
  </g>
  <g id="axes_1">
   <g id="patch_2">
    <path d="M 7.2 283.68 
L 364.32 283.68 
L 364.32 7.2 
L 7.2 7.2 
z
" style="fill:#ffffff;"/>
   </g>
   <g id="line2d_1">
    <path clip-path="url(#p0b709d7091)" d="M 162.555084 283.68 
L 162.555084 280.030099 
L 179.366056 280.030099 
L 179.366056 276.380198 
L 183.108283 276.380198 
L 183.108283 272.730297 
L 183.687715 272.730297 
L 183.687715 269.080396 
L 184.407018 269.080396 
L 184.407018 265.430495 
L 184.823748 265.430495 
L 184.900627 258.130693 
L 185.288458 258.130693 
L 185.288458 254.480792 
L 185.579236 254.480792 
L 185.579236 250.830891 
L 185.730954 250.830891 
L 185.730954 247.18099 
L 186.02427 247.18099 
L 186.085503 239.881188 
L 186.412557 239.881188 
L 186.412557 236.231287 
L 187.07147 236.231287 
L 187.140967 228.931485 
L 187.230186 228.931485 
L 187.294219 221.631683 
L 187.633906 221.631683 
L 187.633906 217.981782 
L 187.847556 217.981782 
L 187.847556 214.331881 
L 188.160329 214.331881 
L 188.232505 207.032079 
L 188.538316 207.032079 
L 188.538316 203.382178 
L 188.929812 203.382178 
L 188.929812 199.732277 
L 189.070208 199.732277 
L 189.070208 196.082376 
L 189.398494 196.082376 
L 189.398494 192.432475 
L 189.564372 192.432475 
L 189.630997 185.132673 
L 190.227065 185.132673 
L 190.227065 181.482772 
L 190.412001 181.482772 
L 190.496612 174.18297 
L 190.678196 174.18297 
L 190.678196 170.533069 
L 190.83677 170.533069 
L 190.83677 166.883168 
L 191.590632 166.883168 
L 191.625581 159.583366 
L 192.065067 159.583366 
L 192.176068 152.283564 
L 193.774315 152.283564 
L 193.774315 148.633663 
L 194.072978 148.633663 
L 194.072978 144.983762 
L 194.735176 144.983762 
L 194.735176 141.333861 
L 195.123379 141.333861 
L 195.123379 137.68396 
L 196.940344 137.68396 
L 196.965368 126.734257 
L 197.09814 126.734257 
L 197.09814 123.084356 
L 197.351105 123.084356 
L 197.351105 119.434455 
L 197.590973 119.434455 
L 197.599358 112.134653 
L 198.477364 112.134653 
L 198.499542 104.834851 
L 198.78699 104.834851 
L 198.78699 101.18495 
L 199.648402 101.18495 
L 199.692073 90.235248 
L 200.122512 90.235248 
L 200.122512 86.585347 
L 200.723238 86.585347 
L 200.723238 82.935446 
L 201.018184 82.935446 
L 201.127145 75.635644 
L 201.350711 75.635644 
L 201.350711 71.985743 
L 202.036973 71.985743 
L 202.036973 68.335842 
L 203.059716 68.335842 
L 203.059716 64.685941 
L 205.823612 64.685941 
L 205.823612 61.03604 
L 207.80827 61.03604 
L 207.80827 57.386139 
L 209.177359 57.386139 
L 209.177359 53.736238 
L 210.307938 53.736238 
L 210.307938 50.086337 
L 210.431334 50.086337 
L 210.431334 46.436436 
L 211.39496 46.436436 
L 211.39496 42.786535 
L 211.718728 42.786535 
L 211.718728 39.136634 
L 212.123935 39.136634 
L 212.232101 31.836832 
L 212.24854 31.836832 
L 212.24854 28.186931 
L 212.629242 28.186931 
L 212.683035 17.237228 
L 213.092449 17.237228 
L 213.092449 13.587327 
L 213.759291 13.587327 
L 213.759291 9.937426 
L 364.32 9.937426 
L 364.32 9.937426 
" style="fill:none;stroke:#ff0000;stroke-linecap:square;stroke-width:3.0;"/>
   </g>
   <g id="line2d_2">
    <path clip-path="url(#p0b709d7091)" d="M 194.379712 283.68 
L 194.379712 280.030099 
L 196.156648 280.030099 
L 196.156648 276.380198 
L 198.621496 276.380198 
L 198.621496 272.730297 
L 199.33436 272.730297 
L 199.339564 265.430495 
L 199.496832 265.430495 
L 199.500552 258.130693 
L 200.922428 258.130693 
L 200.943115 250.830891 
L 201.233681 250.830891 
L 201.233681 247.18099 
L 201.526443 247.18099 
L 201.526443 243.531089 
L 201.782215 243.531089 
L 201.782215 239.881188 
L 202.427445 239.881188 
L 202.427445 236.231287 
L 202.875083 236.231287 
L 202.875083 232.581386 
L 204.139714 232.581386 
L 204.139714 228.931485 
L 204.323432 228.931485 
L 204.396771 221.631683 
L 204.547636 221.631683 
L 204.547636 217.981782 
L 204.818609 217.981782 
L 204.818609 214.331881 
L 205.12775 214.331881 
L 205.224194 207.032079 
L 205.912694 207.032079 
L 205.912694 203.382178 
L 206.176769 203.382178 
L 206.176769 199.732277 
L 206.532367 199.732277 
L 206.553128 192.432475 
L 207.029015 192.432475 
L 207.029015 188.782574 
L 208.759523 188.782574 
L 208.773365 181.482772 
L 209.195745 181.482772 
L 209.195745 177.832871 
L 209.502889 177.832871 
L 209.527914 170.533069 
L 209.837871 170.533069 
L 209.837871 166.883168 
L 210.343735 166.883168 
L 210.343735 163.233267 
L 210.51089 163.233267 
L 210.51089 159.583366 
L 211.332729 159.583366 
L 211.332729 155.933465 
L 211.527215 155.933465 
L 211.527215 152.283564 
L 211.819842 152.283564 
L 211.819842 148.633663 
L 211.982884 148.633663 
L 211.982884 144.983762 
L 212.650379 144.983762 
L 212.650379 141.333861 
L 213.900846 141.333861 
L 213.985746 134.034059 
L 214.518993 134.034059 
L 214.550338 126.734257 
L 214.823442 126.734257 
L 214.871577 119.434455 
L 214.992977 119.434455 
L 215.066613 112.134653 
L 215.150584 112.134653 
L 215.150584 108.484752 
L 215.434671 108.484752 
L 215.434671 104.834851 
L 216.113133 104.834851 
L 216.179989 97.53505 
L 216.721479 97.53505 
L 216.797231 90.235248 
L 217.365834 90.235248 
L 217.365834 86.585347 
L 217.762918 86.585347 
L 217.781827 79.285545 
L 219.059271 79.285545 
L 219.059271 75.635644 
L 219.221191 75.635644 
L 219.221191 71.985743 
L 219.773413 71.985743 
L 219.773413 68.335842 
L 220.016299 68.335842 
L 220.016299 64.685941 
L 220.572001 64.685941 
L 220.572001 61.03604 
L 222.238362 61.03604 
L 222.238362 57.386139 
L 222.950878 57.386139 
L 222.960768 50.086337 
L 223.766784 50.086337 
L 223.766784 46.436436 
L 224.296336 46.436436 
L 224.296336 42.786535 
L 225.45244 42.786535 
L 225.45244 39.136634 
L 226.092664 39.136634 
L 226.092664 35.486733 
L 226.725193 35.486733 
L 226.725193 31.836832 
L 227.543809 31.836832 
L 227.543809 28.186931 
L 227.781082 28.186931 
L 227.781082 24.53703 
L 228.035235 24.53703 
L 228.0478 17.237228 
L 228.594659 17.237228 
L 228.594659 13.587327 
L 231.872563 13.587327 
L 231.872563 9.937426 
L 364.32 9.937426 
L 364.32 9.937426 
" style="fill:none;stroke:#00bfbf;stroke-linecap:square;"/>
   </g>
   <g id="line2d_3">
    <path clip-path="url(#p0b709d7091)" d="M 191.069429 283.68 
L 191.069429 280.030099 
L 192.136608 280.030099 
L 192.136608 276.380198 
L 193.536316 276.380198 
L 193.536316 272.730297 
L 194.058301 272.730297 
L 194.058301 269.080396 
L 194.379712 269.080396 
L 194.379712 265.430495 
L 195.047552 265.430495 
L 195.047552 261.780594 
L 195.832273 261.780594 
L 195.832273 258.130693 
L 196.07585 258.130693 
L 196.156648 250.830891 
L 197.399194 250.830891 
L 197.399194 247.18099 
L 197.62825 247.18099 
L 197.662922 239.881188 
L 198.323652 239.881188 
L 198.323652 236.231287 
L 198.621496 236.231287 
L 198.621496 232.581386 
L 199.245389 232.581386 
L 199.339564 221.631683 
L 199.440214 221.631683 
L 199.500552 214.331881 
L 199.86346 214.331881 
L 199.86346 210.68198 
L 200.336255 210.68198 
L 200.336255 207.032079 
L 200.459083 207.032079 
L 200.459083 203.382178 
L 200.819011 203.382178 
L 200.819011 199.732277 
L 200.943115 199.732277 
L 201.050592 192.432475 
L 201.092124 192.432475 
L 201.092124 188.782574 
L 201.672239 188.782574 
L 201.672239 185.132673 
L 202.427445 185.132673 
L 202.427445 181.482772 
L 202.856774 181.482772 
L 202.856774 177.832871 
L 203.868379 177.832871 
L 203.868379 174.18297 
L 204.139714 174.18297 
L 204.139714 170.533069 
L 204.307705 170.533069 
L 204.307705 166.883168 
L 204.818609 166.883168 
L 204.818609 163.233267 
L 205.687669 163.233267 
L 205.798253 155.933465 
L 206.532367 155.933465 
L 206.532367 152.283564 
L 207.023608 152.283564 
L 207.029015 144.983762 
L 207.318249 144.983762 
L 207.318249 141.333861 
L 208.328328 141.333861 
L 208.328328 137.68396 
L 208.56865 137.68396 
L 208.56865 134.034059 
L 208.759523 134.034059 
L 208.78783 123.084356 
L 209.027103 123.084356 
L 209.027103 119.434455 
L 209.195745 119.434455 
L 209.195745 115.784554 
L 209.76946 115.784554 
L 209.76946 112.134653 
L 210.017796 112.134653 
L 210.017796 108.484752 
L 210.21404 108.484752 
L 210.21404 104.834851 
L 210.953145 104.834851 
L 211.048347 93.885149 
L 211.077632 93.885149 
L 211.077632 90.235248 
L 212.058022 90.235248 
L 212.122116 79.285545 
L 212.677563 79.285545 
L 212.677563 75.635644 
L 213.092449 75.635644 
L 213.092449 71.985743 
L 213.985746 71.985743 
L 213.985746 68.335842 
L 214.741009 68.335842 
L 214.741009 64.685941 
L 214.871577 64.685941 
L 214.871577 61.03604 
L 215.660891 61.03604 
L 215.660891 57.386139 
L 216.227423 57.386139 
L 216.227423 53.736238 
L 216.34678 53.736238 
L 216.34678 50.086337 
L 218.865406 50.086337 
L 218.865406 46.436436 
L 219.221191 46.436436 
L 219.221191 42.786535 
L 220.024073 42.786535 
L 220.024073 39.136634 
L 220.572001 39.136634 
L 220.572001 35.486733 
L 220.825228 35.486733 
L 220.825228 31.836832 
L 221.039642 31.836832 
L 221.039642 28.186931 
L 222.556086 28.186931 
L 222.556086 24.53703 
L 224.306084 24.53703 
L 224.306084 20.887129 
L 225.287237 20.887129 
L 225.287237 17.237228 
L 227.026582 17.237228 
L 227.026582 13.587327 
L 229.350414 13.587327 
L 229.350414 9.937426 
L 364.32 9.937426 
L 364.32 9.937426 
" style="fill:none;stroke:#bf00bf;stroke-linecap:square;"/>
   </g>
   <g id="line2d_4">
    <path clip-path="url(#p0b709d7091)" d="M 188.287828 283.68 
L 188.287828 280.030099 
L 189.19113 280.030099 
L 189.19113 276.380198 
L 190.981027 276.380198 
L 191.069429 269.080396 
L 191.281069 269.080396 
L 191.281069 265.430495 
L 192.136608 265.430495 
L 192.136608 261.780594 
L 193.536316 261.780594 
L 193.536316 258.130693 
L 194.058301 258.130693 
L 194.058301 254.480792 
L 194.252405 254.480792 
L 194.252405 250.830891 
L 194.379712 250.830891 
L 194.379712 247.18099 
L 194.767208 247.18099 
L 194.767208 243.531089 
L 195.047552 243.531089 
L 195.047552 239.881188 
L 196.07585 239.881188 
L 196.162842 228.931485 
L 196.964983 228.931485 
L 196.964983 225.281584 
L 197.09164 225.281584 
L 197.09164 221.631683 
L 197.399194 221.631683 
L 197.399194 217.981782 
L 197.62825 217.981782 
L 197.662922 210.68198 
L 198.621496 210.68198 
L 198.621496 207.032079 
L 198.835617 207.032079 
L 198.835617 203.382178 
L 199.278521 203.382178 
L 199.339564 192.432475 
L 199.440214 192.432475 
L 199.479266 185.132673 
L 199.703355 185.132673 
L 199.759293 177.832871 
L 199.86346 177.832871 
L 199.86346 174.18297 
L 200.033967 174.18297 
L 200.059512 166.883168 
L 200.217183 166.883168 
L 200.217183 163.233267 
L 200.336255 163.233267 
L 200.336255 159.583366 
L 200.459083 159.583366 
L 200.459083 155.933465 
L 200.831325 155.933465 
L 200.831325 152.283564 
L 201.383691 152.283564 
L 201.383691 148.633663 
L 201.672239 148.633663 
L 201.672239 144.983762 
L 201.855002 144.983762 
L 201.855002 141.333861 
L 203.454352 141.333861 
L 203.454352 137.68396 
L 204.20201 137.68396 
L 204.20201 134.034059 
L 204.530466 134.034059 
L 204.530466 130.384158 
L 204.818609 130.384158 
L 204.818609 126.734257 
L 205.678047 126.734257 
L 205.687669 119.434455 
L 206.437207 119.434455 
L 206.437207 115.784554 
L 206.666898 115.784554 
L 206.666898 112.134653 
L 207.023608 112.134653 
L 207.101119 104.834851 
L 207.472521 104.834851 
L 207.472521 101.18495 
L 208.03274 101.18495 
L 208.121537 93.885149 
L 208.159384 93.885149 
L 208.159384 90.235248 
L 208.328328 90.235248 
L 208.328328 86.585347 
L 208.759523 86.585347 
L 208.773365 79.285545 
L 209.76946 79.285545 
L 209.76946 75.635644 
L 210.21404 75.635644 
L 210.21404 71.985743 
L 211.048347 71.985743 
L 211.077632 64.685941 
L 213.092449 64.685941 
L 213.092449 61.03604 
L 213.985746 61.03604 
L 213.985746 57.386139 
L 215.982258 57.386139 
L 215.982258 53.736238 
L 216.177719 53.736238 
L 216.247541 42.786535 
L 216.34678 42.786535 
L 216.34678 39.136634 
L 216.697222 39.136634 
L 216.697222 35.486733 
L 217.609382 35.486733 
L 217.609382 31.836832 
L 217.991884 31.836832 
L 217.991884 28.186931 
L 218.865406 28.186931 
L 218.865406 24.53703 
L 219.221191 24.53703 
L 219.221191 20.887129 
L 219.737642 20.887129 
L 219.737642 17.237228 
L 220.825228 17.237228 
L 220.825228 13.587327 
L 222.556086 13.587327 
L 222.556086 9.937426 
L 364.32 9.937426 
L 364.32 9.937426 
" style="fill:none;stroke:#000000;stroke-linecap:square;"/>
   </g>
   <g id="line2d_5">
    <path clip-path="url(#p0b709d7091)" d="M 186.217515 283.68 
L 186.217515 280.030099 
L 186.403046 280.030099 
L 186.403046 276.380198 
L 188.287828 276.380198 
L 188.287828 272.730297 
L 188.538316 272.730297 
L 188.538316 269.080396 
L 189.19113 269.080396 
L 189.19113 265.430495 
L 189.409406 265.430495 
L 189.409406 261.780594 
L 190.496612 261.780594 
L 190.496612 258.130693 
L 190.981027 258.130693 
L 191.069429 250.830891 
L 191.263312 250.830891 
L 191.263312 247.18099 
L 192.136608 247.18099 
L 192.136608 243.531089 
L 193.079562 243.531089 
L 193.079562 239.881188 
L 193.536316 239.881188 
L 193.536316 236.231287 
L 194.058301 236.231287 
L 194.101072 228.931485 
L 194.252405 228.931485 
L 194.252405 225.281584 
L 194.379712 225.281584 
L 194.379712 221.631683 
L 194.558682 221.631683 
L 194.60786 214.331881 
L 194.701637 214.331881 
L 194.732648 207.032079 
L 195.047552 207.032079 
L 195.123955 199.732277 
L 196.156648 199.732277 
L 196.266854 192.432475 
L 196.489808 192.432475 
L 196.562396 181.482772 
L 196.772656 181.482772 
L 196.772656 177.832871 
L 197.012858 177.832871 
L 197.012858 174.18297 
L 197.229552 174.18297 
L 197.229552 170.533069 
L 197.599358 170.533069 
L 197.599358 166.883168 
L 197.825481 166.883168 
L 197.825481 163.233267 
L 198.054779 163.233267 
L 198.054779 159.583366 
L 198.568889 159.583366 
L 198.568889 155.933465 
L 198.835617 155.933465 
L 198.835617 152.283564 
L 199.278521 152.283564 
L 199.278521 148.633663 
L 200.217183 148.633663 
L 200.217183 144.983762 
L 200.495622 144.983762 
L 200.495622 141.333861 
L 200.831325 141.333861 
L 200.831325 137.68396 
L 201.268914 137.68396 
L 201.268914 134.034059 
L 201.410531 134.034059 
L 201.410531 130.384158 
L 201.672239 130.384158 
L 201.672239 126.734257 
L 201.797734 126.734257 
L 201.82557 119.434455 
L 202.119867 119.434455 
L 202.119867 115.784554 
L 203.101094 115.784554 
L 203.101094 112.134653 
L 203.454352 112.134653 
L 203.488318 97.53505 
L 203.796967 97.53505 
L 203.796967 93.885149 
L 204.314799 93.885149 
L 204.314799 90.235248 
L 204.47924 90.235248 
L 204.47924 86.585347 
L 204.77112 86.585347 
L 204.77112 82.935446 
L 205.687669 82.935446 
L 205.687669 79.285545 
L 205.823819 79.285545 
L 205.823819 75.635644 
L 207.246302 75.635644 
L 207.246302 71.985743 
L 207.937972 71.985743 
L 207.937972 68.335842 
L 208.145059 68.335842 
L 208.145059 64.685941 
L 208.759523 64.685941 
L 208.759523 61.03604 
L 211.065099 61.03604 
L 211.065099 57.386139 
L 213.092449 57.386139 
L 213.092449 53.736238 
L 213.790876 53.736238 
L 213.790876 50.086337 
L 214.060398 50.086337 
L 214.085536 42.786535 
L 214.204258 42.786535 
L 214.204258 39.136634 
L 214.641473 39.136634 
L 214.641473 35.486733 
L 215.271482 35.486733 
L 215.271482 31.836832 
L 215.982258 31.836832 
L 215.982258 28.186931 
L 216.219323 28.186931 
L 216.289654 17.237228 
L 216.363765 17.237228 
L 216.363765 13.587327 
L 219.338674 13.587327 
L 219.338674 9.937426 
L 364.32 9.937426 
L 364.32 9.937426 
" style="fill:none;stroke:#00bfbf;stroke-linecap:square;"/>
   </g>
   <g id="line2d_6">
    <path clip-path="url(#p0b709d7091)" d="M 179.366056 283.68 
L 179.366056 280.030099 
L 180.070914 280.030099 
L 180.070914 276.380198 
L 183.108283 276.380198 
L 183.108283 272.730297 
L 183.687715 272.730297 
L 183.687715 269.080396 
L 184.407018 269.080396 
L 184.407018 265.430495 
L 184.823748 265.430495 
L 184.900627 258.130693 
L 185.288458 258.130693 
L 185.288458 254.480792 
L 185.579236 254.480792 
L 185.579236 250.830891 
L 186.046323 250.830891 
L 186.085503 243.531089 
L 186.412557 243.531089 
L 186.412557 239.881188 
L 187.071823 239.881188 
L 187.140967 232.581386 
L 187.294219 232.581386 
L 187.294219 228.931485 
L 187.46704 228.931485 
L 187.46704 225.281584 
L 187.633906 225.281584 
L 187.633906 221.631683 
L 188.232505 221.631683 
L 188.232505 217.981782 
L 188.376453 217.981782 
L 188.376453 214.331881 
L 188.538316 214.331881 
L 188.538316 210.68198 
L 188.929812 210.68198 
L 188.929812 207.032079 
L 189.398494 207.032079 
L 189.398494 203.382178 
L 189.564372 203.382178 
L 189.673759 192.432475 
L 190.057812 192.432475 
L 190.057812 188.782574 
L 190.227065 188.782574 
L 190.227065 185.132673 
L 190.412001 185.132673 
L 190.496612 174.18297 
L 190.678196 174.18297 
L 190.678196 170.533069 
L 190.83677 170.533069 
L 190.83677 166.883168 
L 191.593816 166.883168 
L 191.593816 163.233267 
L 193.098724 163.233267 
L 193.098724 159.583366 
L 193.774315 159.583366 
L 193.774315 155.933465 
L 194.187556 155.933465 
L 194.187556 152.283564 
L 194.735176 152.283564 
L 194.735176 148.633663 
L 195.123473 148.633663 
L 195.123473 144.983762 
L 196.156648 144.983762 
L 196.156648 141.333861 
L 196.681569 141.333861 
L 196.681569 137.68396 
L 196.956486 137.68396 
L 196.965368 130.384158 
L 197.590973 130.384158 
L 197.599358 123.084356 
L 198.499542 123.084356 
L 198.499542 119.434455 
L 198.978462 119.434455 
L 198.978462 115.784554 
L 199.442296 115.784554 
L 199.442296 112.134653 
L 199.648402 112.134653 
L 199.692091 104.834851 
L 200.122512 104.834851 
L 200.14947 93.885149 
L 200.29579 93.885149 
L 200.29579 90.235248 
L 200.723238 90.235248 
L 200.723238 86.585347 
L 201.127145 86.585347 
L 201.127145 82.935446 
L 201.355576 82.935446 
L 201.355576 79.285545 
L 201.602332 79.285545 
L 201.602332 75.635644 
L 202.037529 75.635644 
L 202.037529 71.985743 
L 203.100641 71.985743 
L 203.130495 64.685941 
L 205.823612 64.685941 
L 205.823612 61.03604 
L 207.80827 61.03604 
L 207.80827 57.386139 
L 209.177359 57.386139 
L 209.177359 53.736238 
L 210.307938 53.736238 
L 210.307938 50.086337 
L 210.431334 50.086337 
L 210.431334 46.436436 
L 211.39496 46.436436 
L 211.39496 42.786535 
L 212.123935 42.786535 
L 212.232101 35.486733 
L 212.24854 35.486733 
L 212.24854 31.836832 
L 212.629392 31.836832 
L 212.683035 24.53703 
L 213.092449 24.53703 
L 213.092449 20.887129 
L 213.811807 20.887129 
L 213.811807 17.237228 
L 214.006786 17.237228 
L 214.006786 13.587327 
L 214.533563 13.587327 
L 214.533563 9.937426 
L 364.32 9.937426 
L 364.32 9.937426 
" style="fill:none;stroke:#bf00bf;stroke-linecap:square;"/>
   </g>
   <g id="patch_3">
    <path d="M 7.2 7.2 
L 364.32 7.2 
" style="fill:none;stroke:#000000;stroke-linecap:square;stroke-linejoin:miter;"/>
   </g>
   <g id="patch_4">
    <path d="M 364.32 283.68 
L 364.32 7.2 
" style="fill:none;stroke:#000000;stroke-linecap:square;stroke-linejoin:miter;"/>
   </g>
   <g id="patch_5">
    <path d="M 7.2 283.68 
L 364.32 283.68 
" style="fill:none;stroke:#000000;stroke-linecap:square;stroke-linejoin:miter;"/>
   </g>
   <g id="patch_6">
    <path d="M 7.2 283.68 
L 7.2 7.2 
" style="fill:none;stroke:#000000;stroke-linecap:square;stroke-linejoin:miter;"/>
   </g>
   <g id="matplotlib.axis_1">
    <g id="xtick_1">
     <g id="line2d_7">
      <path clip-path="url(#p0b709d7091)" d="M 49.133998 283.68 
L 49.133998 7.2 
" style="fill:none;stroke:#000000;stroke-dasharray:1.000000,3.000000;stroke-dashoffset:0.0;stroke-width:0.5;"/>
     </g>
     <g id="line2d_8">
      <defs>
       <path d="M 0 0 
L 0 -4 
" id="m27985cf5aa" style="stroke:#000000;stroke-width:0.5;"/>
      </defs>
      <g>
       <use style="stroke:#000000;stroke-width:0.5;" x="49.1339978514" xlink:href="#m27985cf5aa" y="283.68"/>
      </g>
     </g>
     <g id="line2d_9">
      <defs>
       <path d="M 0 0 
L 0 4 
" id="m452b3d2dec" style="stroke:#000000;stroke-width:0.5;"/>
      </defs>
      <g>
       <use style="stroke:#000000;stroke-width:0.5;" x="49.1339978514" xlink:href="#m452b3d2dec" y="7.2"/>
      </g>
     </g>
     <g id="text_1">
      <!-- -6 -->
      <defs>
       <path d="M 33.015625 40.375 
Q 26.375 40.375 22.484375 35.828125 
Q 18.609375 31.296875 18.609375 23.390625 
Q 18.609375 15.53125 22.484375 10.953125 
Q 26.375 6.390625 33.015625 6.390625 
Q 39.65625 6.390625 43.53125 10.953125 
Q 47.40625 15.53125 47.40625 23.390625 
Q 47.40625 31.296875 43.53125 35.828125 
Q 39.65625 40.375 33.015625 40.375 
M 52.59375 71.296875 
L 52.59375 62.3125 
Q 48.875 64.0625 45.09375 64.984375 
Q 41.3125 65.921875 37.59375 65.921875 
Q 27.828125 65.921875 22.671875 59.328125 
Q 17.53125 52.734375 16.796875 39.40625 
Q 19.671875 43.65625 24.015625 45.921875 
Q 28.375 48.1875 33.59375 48.1875 
Q 44.578125 48.1875 50.953125 41.515625 
Q 57.328125 34.859375 57.328125 23.390625 
Q 57.328125 12.15625 50.6875 5.359375 
Q 44.046875 -1.421875 33.015625 -1.421875 
Q 20.359375 -1.421875 13.671875 8.265625 
Q 6.984375 17.96875 6.984375 36.375 
Q 6.984375 53.65625 15.1875 63.9375 
Q 23.390625 74.21875 37.203125 74.21875 
Q 40.921875 74.21875 44.703125 73.484375 
Q 48.484375 72.75 52.59375 71.296875 
" id="BitstreamVeraSans-Roman-36"/>
       <path d="M 4.890625 31.390625 
L 31.203125 31.390625 
L 31.203125 23.390625 
L 4.890625 23.390625 
z
" id="BitstreamVeraSans-Roman-2d"/>
      </defs>
      <g transform="translate(39.1636853514 302.876875)scale(0.2 -0.2)">
       <use xlink:href="#BitstreamVeraSans-Roman-2d"/>
       <use x="36.083984375" xlink:href="#BitstreamVeraSans-Roman-36"/>
      </g>
     </g>
    </g>
    <g id="xtick_2">
     <g id="line2d_10">
      <path clip-path="url(#p0b709d7091)" d="M 91.158798 283.68 
L 91.158798 7.2 
" style="fill:none;stroke:#000000;stroke-dasharray:1.000000,3.000000;stroke-dashoffset:0.0;stroke-width:0.5;"/>
     </g>
     <g id="line2d_11">
      <g>
       <use style="stroke:#000000;stroke-width:0.5;" x="91.1587981379" xlink:href="#m27985cf5aa" y="283.68"/>
      </g>
     </g>
     <g id="line2d_12">
      <g>
       <use style="stroke:#000000;stroke-width:0.5;" x="91.1587981379" xlink:href="#m452b3d2dec" y="7.2"/>
      </g>
     </g>
     <g id="text_2">
      <!-- -4 -->
      <defs>
       <path d="M 37.796875 64.3125 
L 12.890625 25.390625 
L 37.796875 25.390625 
z
M 35.203125 72.90625 
L 47.609375 72.90625 
L 47.609375 25.390625 
L 58.015625 25.390625 
L 58.015625 17.1875 
L 47.609375 17.1875 
L 47.609375 0 
L 37.796875 0 
L 37.796875 17.1875 
L 4.890625 17.1875 
L 4.890625 26.703125 
z
" id="BitstreamVeraSans-Roman-34"/>
      </defs>
      <g transform="translate(81.1884856379 302.876875)scale(0.2 -0.2)">
       <use xlink:href="#BitstreamVeraSans-Roman-2d"/>
       <use x="36.083984375" xlink:href="#BitstreamVeraSans-Roman-34"/>
      </g>
     </g>
    </g>
    <g id="xtick_3">
     <g id="line2d_13">
      <path clip-path="url(#p0b709d7091)" d="M 133.183598 283.68 
L 133.183598 7.2 
" style="fill:none;stroke:#000000;stroke-dasharray:1.000000,3.000000;stroke-dashoffset:0.0;stroke-width:0.5;"/>
     </g>
     <g id="line2d_14">
      <g>
       <use style="stroke:#000000;stroke-width:0.5;" x="133.183598424" xlink:href="#m27985cf5aa" y="283.68"/>
      </g>
     </g>
     <g id="line2d_15">
      <g>
       <use style="stroke:#000000;stroke-width:0.5;" x="133.183598424" xlink:href="#m452b3d2dec" y="7.2"/>
      </g>
     </g>
     <g id="text_3">
      <!-- -2 -->
      <defs>
       <path d="M 19.1875 8.296875 
L 53.609375 8.296875 
L 53.609375 0 
L 7.328125 0 
L 7.328125 8.296875 
Q 12.9375 14.109375 22.625 23.890625 
Q 32.328125 33.6875 34.8125 36.53125 
Q 39.546875 41.84375 41.421875 45.53125 
Q 43.3125 49.21875 43.3125 52.78125 
Q 43.3125 58.59375 39.234375 62.25 
Q 35.15625 65.921875 28.609375 65.921875 
Q 23.96875 65.921875 18.8125 64.3125 
Q 13.671875 62.703125 7.8125 59.421875 
L 7.8125 69.390625 
Q 13.765625 71.78125 18.9375 73 
Q 24.125 74.21875 28.421875 74.21875 
Q 39.75 74.21875 46.484375 68.546875 
Q 53.21875 62.890625 53.21875 53.421875 
Q 53.21875 48.921875 51.53125 44.890625 
Q 49.859375 40.875 45.40625 35.40625 
Q 44.1875 33.984375 37.640625 27.21875 
Q 31.109375 20.453125 19.1875 8.296875 
" id="BitstreamVeraSans-Roman-32"/>
      </defs>
      <g transform="translate(123.213285924 302.876875)scale(0.2 -0.2)">
       <use xlink:href="#BitstreamVeraSans-Roman-2d"/>
       <use x="36.083984375" xlink:href="#BitstreamVeraSans-Roman-32"/>
      </g>
     </g>
    </g>
    <g id="xtick_4">
     <g id="line2d_16">
      <path clip-path="url(#p0b709d7091)" d="M 175.208399 283.68 
L 175.208399 7.2 
" style="fill:none;stroke:#000000;stroke-dasharray:1.000000,3.000000;stroke-dashoffset:0.0;stroke-width:0.5;"/>
     </g>
     <g id="line2d_17">
      <g>
       <use style="stroke:#000000;stroke-width:0.5;" x="175.208398711" xlink:href="#m27985cf5aa" y="283.68"/>
      </g>
     </g>
     <g id="line2d_18">
      <g>
       <use style="stroke:#000000;stroke-width:0.5;" x="175.208398711" xlink:href="#m452b3d2dec" y="7.2"/>
      </g>
     </g>
     <g id="text_4">
      <!-- 0 -->
      <defs>
       <path d="M 31.78125 66.40625 
Q 24.171875 66.40625 20.328125 58.90625 
Q 16.5 51.421875 16.5 36.375 
Q 16.5 21.390625 20.328125 13.890625 
Q 24.171875 6.390625 31.78125 6.390625 
Q 39.453125 6.390625 43.28125 13.890625 
Q 47.125 21.390625 47.125 36.375 
Q 47.125 51.421875 43.28125 58.90625 
Q 39.453125 66.40625 31.78125 66.40625 
M 31.78125 74.21875 
Q 44.046875 74.21875 50.515625 64.515625 
Q 56.984375 54.828125 56.984375 36.375 
Q 56.984375 17.96875 50.515625 8.265625 
Q 44.046875 -1.421875 31.78125 -1.421875 
Q 19.53125 -1.421875 13.0625 8.265625 
Q 6.59375 17.96875 6.59375 36.375 
Q 6.59375 54.828125 13.0625 64.515625 
Q 19.53125 74.21875 31.78125 74.21875 
" id="BitstreamVeraSans-Roman-30"/>
      </defs>
      <g transform="translate(168.845898711 302.876875)scale(0.2 -0.2)">
       <use xlink:href="#BitstreamVeraSans-Roman-30"/>
      </g>
     </g>
    </g>
    <g id="xtick_5">
     <g id="line2d_19">
      <path clip-path="url(#p0b709d7091)" d="M 217.233199 283.68 
L 217.233199 7.2 
" style="fill:none;stroke:#000000;stroke-dasharray:1.000000,3.000000;stroke-dashoffset:0.0;stroke-width:0.5;"/>
     </g>
     <g id="line2d_20">
      <g>
       <use style="stroke:#000000;stroke-width:0.5;" x="217.233198997" xlink:href="#m27985cf5aa" y="283.68"/>
      </g>
     </g>
     <g id="line2d_21">
      <g>
       <use style="stroke:#000000;stroke-width:0.5;" x="217.233198997" xlink:href="#m452b3d2dec" y="7.2"/>
      </g>
     </g>
     <g id="text_5">
      <!-- 2 -->
      <g transform="translate(210.870698997 302.876875)scale(0.2 -0.2)">
       <use xlink:href="#BitstreamVeraSans-Roman-32"/>
      </g>
     </g>
    </g>
    <g id="xtick_6">
     <g id="line2d_22">
      <path clip-path="url(#p0b709d7091)" d="M 259.257999 283.68 
L 259.257999 7.2 
" style="fill:none;stroke:#000000;stroke-dasharray:1.000000,3.000000;stroke-dashoffset:0.0;stroke-width:0.5;"/>
     </g>
     <g id="line2d_23">
      <g>
       <use style="stroke:#000000;stroke-width:0.5;" x="259.257999284" xlink:href="#m27985cf5aa" y="283.68"/>
      </g>
     </g>
     <g id="line2d_24">
      <g>
       <use style="stroke:#000000;stroke-width:0.5;" x="259.257999284" xlink:href="#m452b3d2dec" y="7.2"/>
      </g>
     </g>
     <g id="text_6">
      <!-- 4 -->
      <g transform="translate(252.895499284 302.876875)scale(0.2 -0.2)">
       <use xlink:href="#BitstreamVeraSans-Roman-34"/>
      </g>
     </g>
    </g>
    <g id="xtick_7">
     <g id="line2d_25">
      <path clip-path="url(#p0b709d7091)" d="M 301.2828 283.68 
L 301.2828 7.2 
" style="fill:none;stroke:#000000;stroke-dasharray:1.000000,3.000000;stroke-dashoffset:0.0;stroke-width:0.5;"/>
     </g>
     <g id="line2d_26">
      <g>
       <use style="stroke:#000000;stroke-width:0.5;" x="301.28279957" xlink:href="#m27985cf5aa" y="283.68"/>
      </g>
     </g>
     <g id="line2d_27">
      <g>
       <use style="stroke:#000000;stroke-width:0.5;" x="301.28279957" xlink:href="#m452b3d2dec" y="7.2"/>
      </g>
     </g>
     <g id="text_7">
      <!-- 6 -->
      <g transform="translate(294.92029957 302.876875)scale(0.2 -0.2)">
       <use xlink:href="#BitstreamVeraSans-Roman-36"/>
      </g>
     </g>
    </g>
    <g id="xtick_8">
     <g id="line2d_28">
      <path clip-path="url(#p0b709d7091)" d="M 343.3076 283.68 
L 343.3076 7.2 
" style="fill:none;stroke:#000000;stroke-dasharray:1.000000,3.000000;stroke-dashoffset:0.0;stroke-width:0.5;"/>
     </g>
     <g id="line2d_29">
      <g>
       <use style="stroke:#000000;stroke-width:0.5;" x="343.307599857" xlink:href="#m27985cf5aa" y="283.68"/>
      </g>
     </g>
     <g id="line2d_30">
      <g>
       <use style="stroke:#000000;stroke-width:0.5;" x="343.307599857" xlink:href="#m452b3d2dec" y="7.2"/>
      </g>
     </g>
     <g id="text_8">
      <!-- 8 -->
      <defs>
       <path d="M 31.78125 34.625 
Q 24.75 34.625 20.71875 30.859375 
Q 16.703125 27.09375 16.703125 20.515625 
Q 16.703125 13.921875 20.71875 10.15625 
Q 24.75 6.390625 31.78125 6.390625 
Q 38.8125 6.390625 42.859375 10.171875 
Q 46.921875 13.96875 46.921875 20.515625 
Q 46.921875 27.09375 42.890625 30.859375 
Q 38.875 34.625 31.78125 34.625 
M 21.921875 38.8125 
Q 15.578125 40.375 12.03125 44.71875 
Q 8.5 49.078125 8.5 55.328125 
Q 8.5 64.0625 14.71875 69.140625 
Q 20.953125 74.21875 31.78125 74.21875 
Q 42.671875 74.21875 48.875 69.140625 
Q 55.078125 64.0625 55.078125 55.328125 
Q 55.078125 49.078125 51.53125 44.71875 
Q 48 40.375 41.703125 38.8125 
Q 48.828125 37.15625 52.796875 32.3125 
Q 56.78125 27.484375 56.78125 20.515625 
Q 56.78125 9.90625 50.3125 4.234375 
Q 43.84375 -1.421875 31.78125 -1.421875 
Q 19.734375 -1.421875 13.25 4.234375 
Q 6.78125 9.90625 6.78125 20.515625 
Q 6.78125 27.484375 10.78125 32.3125 
Q 14.796875 37.15625 21.921875 38.8125 
M 18.3125 54.390625 
Q 18.3125 48.734375 21.84375 45.5625 
Q 25.390625 42.390625 31.78125 42.390625 
Q 38.140625 42.390625 41.71875 45.5625 
Q 45.3125 48.734375 45.3125 54.390625 
Q 45.3125 60.0625 41.71875 63.234375 
Q 38.140625 66.40625 31.78125 66.40625 
Q 25.390625 66.40625 21.84375 63.234375 
Q 18.3125 60.0625 18.3125 54.390625 
" id="BitstreamVeraSans-Roman-38"/>
      </defs>
      <g transform="translate(336.945099857 302.876875)scale(0.2 -0.2)">
       <use xlink:href="#BitstreamVeraSans-Roman-38"/>
      </g>
     </g>
    </g>
    <g id="xtick_9">
     <g id="line2d_31">
      <defs>
       <path d="M 0 0 
L 0 -2 
" id="ma2fecf2d1d" style="stroke:#000000;stroke-width:0.5;"/>
      </defs>
      <g>
       <use style="stroke:#000000;stroke-width:0.5;" x="49.1339978514" xlink:href="#ma2fecf2d1d" y="283.68"/>
      </g>
     </g>
     <g id="line2d_32">
      <defs>
       <path d="M 0 0 
L 0 2 
" id="m505f30a1ee" style="stroke:#000000;stroke-width:0.5;"/>
      </defs>
      <g>
       <use style="stroke:#000000;stroke-width:0.5;" x="49.1339978514" xlink:href="#m505f30a1ee" y="7.2"/>
      </g>
     </g>
    </g>
    <g id="xtick_10">
     <g id="line2d_33">
      <g>
       <use style="stroke:#000000;stroke-width:0.5;" x="91.1587981379" xlink:href="#ma2fecf2d1d" y="283.68"/>
      </g>
     </g>
     <g id="line2d_34">
      <g>
       <use style="stroke:#000000;stroke-width:0.5;" x="91.1587981379" xlink:href="#m505f30a1ee" y="7.2"/>
      </g>
     </g>
    </g>
    <g id="xtick_11">
     <g id="line2d_35">
      <g>
       <use style="stroke:#000000;stroke-width:0.5;" x="133.183598424" xlink:href="#ma2fecf2d1d" y="283.68"/>
      </g>
     </g>
     <g id="line2d_36">
      <g>
       <use style="stroke:#000000;stroke-width:0.5;" x="133.183598424" xlink:href="#m505f30a1ee" y="7.2"/>
      </g>
     </g>
    </g>
    <g id="xtick_12">
     <g id="line2d_37">
      <g>
       <use style="stroke:#000000;stroke-width:0.5;" x="175.208398711" xlink:href="#ma2fecf2d1d" y="283.68"/>
      </g>
     </g>
     <g id="line2d_38">
      <g>
       <use style="stroke:#000000;stroke-width:0.5;" x="175.208398711" xlink:href="#m505f30a1ee" y="7.2"/>
      </g>
     </g>
    </g>
    <g id="xtick_13">
     <g id="line2d_39">
      <g>
       <use style="stroke:#000000;stroke-width:0.5;" x="217.233198997" xlink:href="#ma2fecf2d1d" y="283.68"/>
      </g>
     </g>
     <g id="line2d_40">
      <g>
       <use style="stroke:#000000;stroke-width:0.5;" x="217.233198997" xlink:href="#m505f30a1ee" y="7.2"/>
      </g>
     </g>
    </g>
    <g id="xtick_14">
     <g id="line2d_41">
      <g>
       <use style="stroke:#000000;stroke-width:0.5;" x="259.257999284" xlink:href="#ma2fecf2d1d" y="283.68"/>
      </g>
     </g>
     <g id="line2d_42">
      <g>
       <use style="stroke:#000000;stroke-width:0.5;" x="259.257999284" xlink:href="#m505f30a1ee" y="7.2"/>
      </g>
     </g>
    </g>
    <g id="xtick_15">
     <g id="line2d_43">
      <g>
       <use style="stroke:#000000;stroke-width:0.5;" x="301.28279957" xlink:href="#ma2fecf2d1d" y="283.68"/>
      </g>
     </g>
     <g id="line2d_44">
      <g>
       <use style="stroke:#000000;stroke-width:0.5;" x="301.28279957" xlink:href="#m505f30a1ee" y="7.2"/>
      </g>
     </g>
    </g>
    <g id="xtick_16">
     <g id="line2d_45">
      <g>
       <use style="stroke:#000000;stroke-width:0.5;" x="343.307599857" xlink:href="#ma2fecf2d1d" y="283.68"/>
      </g>
     </g>
     <g id="line2d_46">
      <g>
       <use style="stroke:#000000;stroke-width:0.5;" x="343.307599857" xlink:href="#m505f30a1ee" y="7.2"/>
      </g>
     </g>
    </g>
    <g id="text_9">
     <!-- log10 of Df -->
     <defs>
      <path id="BitstreamVeraSans-Roman-20"/>
      <path d="M 12.40625 8.296875 
L 28.515625 8.296875 
L 28.515625 63.921875 
L 10.984375 60.40625 
L 10.984375 69.390625 
L 28.421875 72.90625 
L 38.28125 72.90625 
L 38.28125 8.296875 
L 54.390625 8.296875 
L 54.390625 0 
L 12.40625 0 
z
" id="BitstreamVeraSans-Roman-31"/>
      <path d="M 30.609375 48.390625 
Q 23.390625 48.390625 19.1875 42.75 
Q 14.984375 37.109375 14.984375 27.296875 
Q 14.984375 17.484375 19.15625 11.84375 
Q 23.34375 6.203125 30.609375 6.203125 
Q 37.796875 6.203125 41.984375 11.859375 
Q 46.1875 17.53125 46.1875 27.296875 
Q 46.1875 37.015625 41.984375 42.703125 
Q 37.796875 48.390625 30.609375 48.390625 
M 30.609375 56 
Q 42.328125 56 49.015625 48.375 
Q 55.71875 40.765625 55.71875 27.296875 
Q 55.71875 13.875 49.015625 6.21875 
Q 42.328125 -1.421875 30.609375 -1.421875 
Q 18.84375 -1.421875 12.171875 6.21875 
Q 5.515625 13.875 5.515625 27.296875 
Q 5.515625 40.765625 12.171875 48.375 
Q 18.84375 56 30.609375 56 
" id="BitstreamVeraSans-Roman-6f"/>
      <path d="M 9.421875 75.984375 
L 18.40625 75.984375 
L 18.40625 0 
L 9.421875 0 
z
" id="BitstreamVeraSans-Roman-6c"/>
      <path d="M 19.671875 64.796875 
L 19.671875 8.109375 
L 31.59375 8.109375 
Q 46.6875 8.109375 53.6875 14.9375 
Q 60.6875 21.78125 60.6875 36.53125 
Q 60.6875 51.171875 53.6875 57.984375 
Q 46.6875 64.796875 31.59375 64.796875 
z
M 9.8125 72.90625 
L 30.078125 72.90625 
Q 51.265625 72.90625 61.171875 64.09375 
Q 71.09375 55.28125 71.09375 36.53125 
Q 71.09375 17.671875 61.125 8.828125 
Q 51.171875 0 30.078125 0 
L 9.8125 0 
z
" id="BitstreamVeraSans-Roman-44"/>
      <path d="M 45.40625 27.984375 
Q 45.40625 37.75 41.375 43.109375 
Q 37.359375 48.484375 30.078125 48.484375 
Q 22.859375 48.484375 18.828125 43.109375 
Q 14.796875 37.75 14.796875 27.984375 
Q 14.796875 18.265625 18.828125 12.890625 
Q 22.859375 7.515625 30.078125 7.515625 
Q 37.359375 7.515625 41.375 12.890625 
Q 45.40625 18.265625 45.40625 27.984375 
M 54.390625 6.78125 
Q 54.390625 -7.171875 48.1875 -13.984375 
Q 42 -20.796875 29.203125 -20.796875 
Q 24.46875 -20.796875 20.265625 -20.09375 
Q 16.0625 -19.390625 12.109375 -17.921875 
L 12.109375 -9.1875 
Q 16.0625 -11.328125 19.921875 -12.34375 
Q 23.78125 -13.375 27.78125 -13.375 
Q 36.625 -13.375 41.015625 -8.765625 
Q 45.40625 -4.15625 45.40625 5.171875 
L 45.40625 9.625 
Q 42.625 4.78125 38.28125 2.390625 
Q 33.9375 0 27.875 0 
Q 17.828125 0 11.671875 7.65625 
Q 5.515625 15.328125 5.515625 27.984375 
Q 5.515625 40.671875 11.671875 48.328125 
Q 17.828125 56 27.875 56 
Q 33.9375 56 38.28125 53.609375 
Q 42.625 51.21875 45.40625 46.390625 
L 45.40625 54.6875 
L 54.390625 54.6875 
z
" id="BitstreamVeraSans-Roman-67"/>
      <path d="M 37.109375 75.984375 
L 37.109375 68.5 
L 28.515625 68.5 
Q 23.6875 68.5 21.796875 66.546875 
Q 19.921875 64.59375 19.921875 59.515625 
L 19.921875 54.6875 
L 34.71875 54.6875 
L 34.71875 47.703125 
L 19.921875 47.703125 
L 19.921875 0 
L 10.890625 0 
L 10.890625 47.703125 
L 2.296875 47.703125 
L 2.296875 54.6875 
L 10.890625 54.6875 
L 10.890625 58.5 
Q 10.890625 67.625 15.140625 71.796875 
Q 19.390625 75.984375 28.609375 75.984375 
z
" id="BitstreamVeraSans-Roman-66"/>
     </defs>
     <g transform="translate(130.5740625 327.233125)scale(0.2 -0.2)">
      <use xlink:href="#BitstreamVeraSans-Roman-6c"/>
      <use x="27.783203125" xlink:href="#BitstreamVeraSans-Roman-6f"/>
      <use x="88.96484375" xlink:href="#BitstreamVeraSans-Roman-67"/>
      <use x="152.44140625" xlink:href="#BitstreamVeraSans-Roman-31"/>
      <use x="216.064453125" xlink:href="#BitstreamVeraSans-Roman-30"/>
      <use x="279.6875" xlink:href="#BitstreamVeraSans-Roman-20"/>
      <use x="311.474609375" xlink:href="#BitstreamVeraSans-Roman-6f"/>
      <use x="372.65625" xlink:href="#BitstreamVeraSans-Roman-66"/>
      <use x="407.861328125" xlink:href="#BitstreamVeraSans-Roman-20"/>
      <use x="439.6484375" xlink:href="#BitstreamVeraSans-Roman-44"/>
      <use x="516.650390625" xlink:href="#BitstreamVeraSans-Roman-66"/>
     </g>
    </g>
   </g>
   <g id="matplotlib.axis_2">
    <g id="ytick_1">
     <g id="line2d_47">
      <path clip-path="url(#p0b709d7091)" d="M 7.2 283.68 
L 364.32 283.68 
" style="fill:none;stroke:#000000;stroke-dasharray:1.000000,3.000000;stroke-dashoffset:0.0;stroke-width:0.5;"/>
     </g>
     <g id="line2d_48">
      <defs>
       <path d="M 0 0 
L 4 0 
" id="m15760925af" style="stroke:#000000;stroke-width:0.5;"/>
      </defs>
      <g>
       <use style="stroke:#000000;stroke-width:0.5;" x="7.2" xlink:href="#m15760925af" y="283.68"/>
      </g>
     </g>
     <g id="line2d_49">
      <defs>
       <path d="M 0 0 
L -4 0 
" id="maa43d9e85d" style="stroke:#000000;stroke-width:0.5;"/>
      </defs>
      <g>
       <use style="stroke:#000000;stroke-width:0.5;" x="364.32" xlink:href="#maa43d9e85d" y="283.68"/>
      </g>
     </g>
    </g>
    <g id="ytick_2">
     <g id="line2d_50">
      <path clip-path="url(#p0b709d7091)" d="M 7.2 228.931485 
L 364.32 228.931485 
" style="fill:none;stroke:#000000;stroke-dasharray:1.000000,3.000000;stroke-dashoffset:0.0;stroke-width:0.5;"/>
     </g>
     <g id="line2d_51">
      <g>
       <use style="stroke:#000000;stroke-width:0.5;" x="7.2" xlink:href="#m15760925af" y="228.931485149"/>
      </g>
     </g>
     <g id="line2d_52">
      <g>
       <use style="stroke:#000000;stroke-width:0.5;" x="364.32" xlink:href="#maa43d9e85d" y="228.931485149"/>
      </g>
     </g>
    </g>
    <g id="ytick_3">
     <g id="line2d_53">
      <path clip-path="url(#p0b709d7091)" d="M 7.2 174.18297 
L 364.32 174.18297 
" style="fill:none;stroke:#000000;stroke-dasharray:1.000000,3.000000;stroke-dashoffset:0.0;stroke-width:0.5;"/>
     </g>
     <g id="line2d_54">
      <g>
       <use style="stroke:#000000;stroke-width:0.5;" x="7.2" xlink:href="#m15760925af" y="174.182970297"/>
      </g>
     </g>
     <g id="line2d_55">
      <g>
       <use style="stroke:#000000;stroke-width:0.5;" x="364.32" xlink:href="#maa43d9e85d" y="174.182970297"/>
      </g>
     </g>
    </g>
    <g id="ytick_4">
     <g id="line2d_56">
      <path clip-path="url(#p0b709d7091)" d="M 7.2 119.434455 
L 364.32 119.434455 
" style="fill:none;stroke:#000000;stroke-dasharray:1.000000,3.000000;stroke-dashoffset:0.0;stroke-width:0.5;"/>
     </g>
     <g id="line2d_57">
      <g>
       <use style="stroke:#000000;stroke-width:0.5;" x="7.2" xlink:href="#m15760925af" y="119.434455446"/>
      </g>
     </g>
     <g id="line2d_58">
      <g>
       <use style="stroke:#000000;stroke-width:0.5;" x="364.32" xlink:href="#maa43d9e85d" y="119.434455446"/>
      </g>
     </g>
    </g>
    <g id="ytick_5">
     <g id="line2d_59">
      <path clip-path="url(#p0b709d7091)" d="M 7.2 64.685941 
L 364.32 64.685941 
" style="fill:none;stroke:#000000;stroke-dasharray:1.000000,3.000000;stroke-dashoffset:0.0;stroke-width:0.5;"/>
     </g>
     <g id="line2d_60">
      <g>
       <use style="stroke:#000000;stroke-width:0.5;" x="7.2" xlink:href="#m15760925af" y="64.6859405941"/>
      </g>
     </g>
     <g id="line2d_61">
      <g>
       <use style="stroke:#000000;stroke-width:0.5;" x="364.32" xlink:href="#maa43d9e85d" y="64.6859405941"/>
      </g>
     </g>
    </g>
    <g id="ytick_6">
     <g id="line2d_62">
      <path clip-path="url(#p0b709d7091)" d="M 7.2 9.937426 
L 364.32 9.937426 
" style="fill:none;stroke:#000000;stroke-dasharray:1.000000,3.000000;stroke-dashoffset:0.0;stroke-width:0.5;"/>
     </g>
     <g id="line2d_63">
      <g>
       <use style="stroke:#000000;stroke-width:0.5;" x="7.2" xlink:href="#m15760925af" y="9.93742574257"/>
      </g>
     </g>
     <g id="line2d_64">
      <g>
       <use style="stroke:#000000;stroke-width:0.5;" x="364.32" xlink:href="#maa43d9e85d" y="9.93742574257"/>
      </g>
     </g>
    </g>
   </g>
   <g id="text_10">
    <!-- f15-19,5-D -->
    <defs>
     <path d="M 11.71875 12.40625 
L 22.015625 12.40625 
L 22.015625 4 
L 14.015625 -11.625 
L 7.71875 -11.625 
L 11.71875 4 
z
" id="BitstreamVeraSans-Roman-2c"/>
     <path d="M 10.984375 1.515625 
L 10.984375 10.5 
Q 14.703125 8.734375 18.5 7.8125 
Q 22.3125 6.890625 25.984375 6.890625 
Q 35.75 6.890625 40.890625 13.453125 
Q 46.046875 20.015625 46.78125 33.40625 
Q 43.953125 29.203125 39.59375 26.953125 
Q 35.25 24.703125 29.984375 24.703125 
Q 19.046875 24.703125 12.671875 31.3125 
Q 6.296875 37.9375 6.296875 49.421875 
Q 6.296875 60.640625 12.9375 67.421875 
Q 19.578125 74.21875 30.609375 74.21875 
Q 43.265625 74.21875 49.921875 64.515625 
Q 56.59375 54.828125 56.59375 36.375 
Q 56.59375 19.140625 48.40625 8.859375 
Q 40.234375 -1.421875 26.421875 -1.421875 
Q 22.703125 -1.421875 18.890625 -0.6875 
Q 15.09375 0.046875 10.984375 1.515625 
M 30.609375 32.421875 
Q 37.25 32.421875 41.125 36.953125 
Q 45.015625 41.5 45.015625 49.421875 
Q 45.015625 57.28125 41.125 61.84375 
Q 37.25 66.40625 30.609375 66.40625 
Q 23.96875 66.40625 20.09375 61.84375 
Q 16.21875 57.28125 16.21875 49.421875 
Q 16.21875 41.5 20.09375 36.953125 
Q 23.96875 32.421875 30.609375 32.421875 
" id="BitstreamVeraSans-Roman-39"/>
     <path d="M 10.796875 72.90625 
L 49.515625 72.90625 
L 49.515625 64.59375 
L 19.828125 64.59375 
L 19.828125 46.734375 
Q 21.96875 47.46875 24.109375 47.828125 
Q 26.265625 48.1875 28.421875 48.1875 
Q 40.625 48.1875 47.75 41.5 
Q 54.890625 34.8125 54.890625 23.390625 
Q 54.890625 11.625 47.5625 5.09375 
Q 40.234375 -1.421875 26.90625 -1.421875 
Q 22.3125 -1.421875 17.546875 -0.640625 
Q 12.796875 0.140625 7.71875 1.703125 
L 7.71875 11.625 
Q 12.109375 9.234375 16.796875 8.0625 
Q 21.484375 6.890625 26.703125 6.890625 
Q 35.15625 6.890625 40.078125 11.328125 
Q 45.015625 15.765625 45.015625 23.390625 
Q 45.015625 31 40.078125 35.4375 
Q 35.15625 39.890625 26.703125 39.890625 
Q 22.75 39.890625 18.8125 39.015625 
Q 14.890625 38.140625 10.796875 36.28125 
z
" id="BitstreamVeraSans-Roman-35"/>
    </defs>
    <g transform="translate(250.324475 278.1504)scale(0.2 -0.2)">
     <use xlink:href="#BitstreamVeraSans-Roman-66"/>
     <use x="35.205078125" xlink:href="#BitstreamVeraSans-Roman-31"/>
     <use x="98.828125" xlink:href="#BitstreamVeraSans-Roman-35"/>
     <use x="162.451171875" xlink:href="#BitstreamVeraSans-Roman-2d"/>
     <use x="198.53515625" xlink:href="#BitstreamVeraSans-Roman-31"/>
     <use x="262.158203125" xlink:href="#BitstreamVeraSans-Roman-39"/>
     <use x="325.78125" xlink:href="#BitstreamVeraSans-Roman-2c"/>
     <use x="357.568359375" xlink:href="#BitstreamVeraSans-Roman-35"/>
     <use x="421.19140625" xlink:href="#BitstreamVeraSans-Roman-2d"/>
     <use x="457.275390625" xlink:href="#BitstreamVeraSans-Roman-44"/>
    </g>
   </g>
  </g>
 </g>
 <defs>
  <clipPath id="p0b709d7091">
   <rect height="276.48" width="357.12" x="7.2" y="7.2"/>
  </clipPath>
 </defs>
</svg>
