<?xml version="1.0" encoding="utf-8" standalone="no"?>
<!DOCTYPE svg PUBLIC "-//W3C//DTD SVG 1.1//EN"
  "http://www.w3.org/Graphics/SVG/1.1/DTD/svg11.dtd">
<!-- Created with matplotlib (http://matplotlib.org/) -->
<svg height="338pt" version="1.1" viewBox="0 0 371 338" width="371pt" xmlns="http://www.w3.org/2000/svg" xmlns:xlink="http://www.w3.org/1999/xlink">
 <defs>
  <style type="text/css">
*{stroke-linecap:butt;stroke-linejoin:round;stroke-miterlimit:100000;}
  </style>
 </defs>
 <g id="figure_1">
  <g id="patch_1">
   <path d="M 0 338.5925 
L 371.52 338.5925 
L 371.52 0 
L 0 0 
z
" style="fill:#ffffff;"/>
  </g>
  <g id="axes_1">
   <g id="patch_2">
    <path d="M 7.2 283.68 
L 364.32 283.68 
L 364.32 7.2 
L 7.2 7.2 
z
" style="fill:#ffffff;"/>
   </g>
   <g id="line2d_1">
    <path clip-path="url(#p10dd31e59d)" d="M 208.564243 283.68 
L 208.564243 279.117624 
L 212.973773 279.117624 
L 212.973773 274.555248 
L 213.124953 274.555248 
L 213.124953 269.992871 
L 213.194985 269.992871 
L 213.194985 265.430495 
L 213.855129 265.430495 
L 213.855129 260.868119 
L 214.970425 260.868119 
L 214.970425 256.305743 
L 217.165586 256.305743 
L 217.165586 251.743366 
L 217.708789 251.743366 
L 217.708789 247.18099 
L 217.730208 247.18099 
L 217.730208 242.618614 
L 218.289477 242.618614 
L 218.289477 238.056238 
L 218.381086 238.056238 
L 218.381086 233.493861 
L 218.459324 233.493861 
L 218.459324 228.931485 
L 219.263542 228.931485 
L 219.263542 224.369109 
L 219.300796 224.369109 
L 219.300796 219.806733 
L 220.003203 219.806733 
L 220.003203 215.244356 
L 246.574904 215.244356 
L 246.574904 210.68198 
L 252.007157 210.68198 
L 252.007157 206.119604 
L 252.25481 206.119604 
L 252.25481 201.557228 
L 252.679126 201.557228 
L 252.679126 196.994851 
L 253.209422 196.994851 
L 253.209422 192.432475 
L 254.389696 192.432475 
L 254.389696 187.870099 
L 255.710361 187.870099 
L 255.710361 183.307723 
L 256.20682 183.307723 
L 256.20682 178.745347 
L 256.665598 178.745347 
L 256.665598 174.18297 
L 256.666741 174.18297 
L 256.666741 169.620594 
L 258.110386 169.620594 
L 258.110386 165.058218 
L 258.154675 165.058218 
L 258.154675 160.495842 
L 258.483721 160.495842 
L 258.483721 155.933465 
L 259.033386 155.933465 
L 259.033386 151.371089 
L 259.580479 151.371089 
L 259.580479 146.808713 
L 259.739096 146.808713 
L 259.739096 142.246337 
L 259.971181 142.246337 
L 259.971181 137.68396 
L 260.221718 137.68396 
L 260.221718 133.121584 
L 260.224983 133.121584 
L 260.224983 128.559208 
L 260.652248 128.559208 
L 260.652248 123.996832 
L 260.906158 123.996832 
L 260.906158 119.434455 
L 260.97007 119.434455 
L 260.97007 114.872079 
L 262.501318 114.872079 
L 262.501318 110.309703 
L 263.24455 110.309703 
L 263.24455 105.747327 
L 263.30347 105.747327 
L 263.30347 101.18495 
L 264.334673 101.18495 
L 264.334673 96.622574 
L 264.648027 96.622574 
L 264.648027 92.060198 
L 264.788955 92.060198 
L 264.788955 87.497822 
L 265.819348 87.497822 
L 265.819348 82.935446 
L 266.015275 82.935446 
L 266.015275 78.373069 
L 266.19904 78.373069 
L 266.19904 73.810693 
L 266.426771 73.810693 
L 266.426771 69.248317 
L 266.708294 69.248317 
L 266.708294 64.685941 
L 267.672849 64.685941 
L 267.672849 60.123564 
L 268.442163 60.123564 
L 268.442163 55.561188 
L 268.487696 55.561188 
L 268.487696 50.998812 
L 269.423361 50.998812 
L 269.423361 46.436436 
L 270.329416 46.436436 
L 270.329416 41.874059 
L 271.453929 41.874059 
L 271.453929 37.311683 
L 271.999631 37.311683 
L 271.999631 32.749307 
L 272.14247 32.749307 
L 272.14247 28.186931 
L 272.887111 28.186931 
L 272.887111 23.624554 
L 273.827961 23.624554 
L 273.827961 19.062178 
L 274.14001 19.062178 
L 274.14001 14.499802 
L 274.258832 14.499802 
L 274.258832 9.937426 
L 274.258832 9.937426 
L 274.258832 9.937426 
L 364.32 9.937426 
" style="fill:none;stroke:#ff0000;stroke-linecap:square;stroke-width:3.0;"/>
   </g>
   <g id="line2d_2">
    <path clip-path="url(#p10dd31e59d)" d="M 219.453442 283.68 
L 219.453442 279.117624 
L 221.546497 279.117624 
L 221.546497 274.555248 
L 223.883833 274.555248 
L 223.883833 269.992871 
L 225.799212 269.992871 
L 225.799212 265.430495 
L 225.813555 265.430495 
L 225.813555 260.868119 
L 226.034243 260.868119 
L 226.034243 256.305743 
L 226.954982 256.305743 
L 226.954982 251.743366 
L 226.97154 251.743366 
L 226.97154 247.18099 
L 227.452809 247.18099 
L 227.452809 242.618614 
L 227.617237 242.618614 
L 227.617237 238.056238 
L 228.12071 238.056238 
L 228.12071 233.493861 
L 228.961037 233.493861 
L 228.961037 228.931485 
L 228.992041 228.931485 
L 228.992041 224.369109 
L 230.057408 224.369109 
L 230.057408 219.806733 
L 230.56719 219.806733 
L 230.56719 215.244356 
L 259.087524 215.244356 
L 259.087524 210.68198 
L 260.967094 210.68198 
L 260.967094 206.119604 
L 264.251535 206.119604 
L 264.251535 201.557228 
L 265.710083 201.557228 
L 265.710083 196.994851 
L 265.766608 196.994851 
L 265.766608 192.432475 
L 267.718539 192.432475 
L 267.718539 187.870099 
L 267.986355 187.870099 
L 267.986355 183.307723 
L 268.385157 183.307723 
L 268.385157 178.745347 
L 268.429909 178.745347 
L 268.429909 174.18297 
L 268.782747 174.18297 
L 268.782747 169.620594 
L 269.023348 169.620594 
L 269.023348 165.058218 
L 269.871962 165.058218 
L 269.871962 160.495842 
L 270.35945 160.495842 
L 270.35945 155.933465 
L 270.367167 155.933465 
L 270.367167 151.371089 
L 270.374705 151.371089 
L 270.374705 146.808713 
L 271.041326 146.808713 
L 271.041326 142.246337 
L 271.472214 142.246337 
L 271.472214 137.68396 
L 271.637692 137.68396 
L 271.637692 133.121584 
L 271.773805 133.121584 
L 271.773805 128.559208 
L 271.82592 128.559208 
L 271.82592 123.996832 
L 272.086003 123.996832 
L 272.086003 119.434455 
L 272.109811 119.434455 
L 272.109811 114.872079 
L 272.579076 114.872079 
L 272.579076 110.309703 
L 272.879649 110.309703 
L 272.879649 105.747327 
L 272.979226 105.747327 
L 272.979226 101.18495 
L 274.319017 101.18495 
L 274.319017 96.622574 
L 274.409849 96.622574 
L 274.409849 92.060198 
L 274.742379 92.060198 
L 274.742379 87.497822 
L 274.779858 87.497822 
L 274.779858 82.935446 
L 275.935464 82.935446 
L 275.935464 78.373069 
L 276.819479 78.373069 
L 276.819479 73.810693 
L 277.040653 73.810693 
L 277.040653 69.248317 
L 277.094843 69.248317 
L 277.094843 64.685941 
L 278.095374 64.685941 
L 278.095374 60.123564 
L 279.369938 60.123564 
L 279.369938 55.561188 
L 279.499131 55.561188 
L 279.499131 50.998812 
L 279.929588 50.998812 
L 279.929588 46.436436 
L 279.990977 46.436436 
L 279.990977 41.874059 
L 280.022791 41.874059 
L 280.022791 37.311683 
L 280.177863 37.311683 
L 280.177863 32.749307 
L 280.227616 32.749307 
L 280.227616 28.186931 
L 280.326662 28.186931 
L 280.326662 23.624554 
L 280.386325 23.624554 
L 280.386325 19.062178 
L 280.48292 19.062178 
L 280.48292 14.499802 
L 282.945431 14.499802 
L 282.945431 9.937426 
L 282.945431 9.937426 
L 282.945431 9.937426 
L 364.32 9.937426 
" style="fill:none;stroke:#00bfbf;stroke-linecap:square;"/>
   </g>
   <g id="line2d_3">
    <path clip-path="url(#p10dd31e59d)" d="M 219.453442 283.68 
L 219.453442 279.117624 
L 220.460176 279.117624 
L 220.460176 274.555248 
L 221.546497 274.555248 
L 221.546497 269.992871 
L 221.983571 269.992871 
L 221.983571 265.430495 
L 222.207644 265.430495 
L 222.207644 260.868119 
L 222.31013 260.868119 
L 222.31013 256.305743 
L 222.795871 256.305743 
L 222.795871 251.743366 
L 223.051971 251.743366 
L 223.051971 247.18099 
L 225.065632 247.18099 
L 225.065632 242.618614 
L 225.154305 242.618614 
L 225.154305 238.056238 
L 226.97154 238.056238 
L 226.97154 233.493861 
L 227.294394 233.493861 
L 227.294394 228.931485 
L 227.875379 228.931485 
L 227.875379 224.369109 
L 228.961037 224.369109 
L 228.961037 219.806733 
L 229.557644 219.806733 
L 229.557644 215.244356 
L 259.087524 215.244356 
L 259.087524 210.68198 
L 260.967094 210.68198 
L 260.967094 206.119604 
L 261.188284 206.119604 
L 261.188284 201.557228 
L 261.563804 201.557228 
L 261.563804 196.994851 
L 263.34469 196.994851 
L 263.34469 192.432475 
L 264.251535 192.432475 
L 264.251535 187.870099 
L 265.419587 187.870099 
L 265.419587 183.307723 
L 265.710083 183.307723 
L 265.710083 178.745347 
L 265.711398 178.745347 
L 265.711398 174.18297 
L 265.766608 174.18297 
L 265.766608 169.620594 
L 267.088191 169.620594 
L 267.088191 165.058218 
L 267.143396 165.058218 
L 267.143396 160.495842 
L 267.617535 160.495842 
L 267.617535 155.933465 
L 267.718539 155.933465 
L 267.718539 151.371089 
L 268.171264 151.371089 
L 268.171264 146.808713 
L 268.429909 146.808713 
L 268.429909 142.246337 
L 268.782747 142.246337 
L 268.782747 137.68396 
L 269.023265 137.68396 
L 269.023265 133.121584 
L 269.023348 133.121584 
L 269.023348 128.559208 
L 269.871962 128.559208 
L 269.871962 123.996832 
L 270.329415 123.996832 
L 270.329415 119.434455 
L 270.35945 119.434455 
L 270.35945 114.872079 
L 270.367167 114.872079 
L 270.367167 110.309703 
L 270.578517 110.309703 
L 270.578517 105.747327 
L 271.041326 105.747327 
L 271.041326 101.18495 
L 271.637692 101.18495 
L 271.637692 96.622574 
L 272.109811 96.622574 
L 272.109811 92.060198 
L 272.177844 92.060198 
L 272.177844 87.497822 
L 273.847295 87.497822 
L 273.847295 82.935446 
L 274.1747 82.935446 
L 274.1747 78.373069 
L 274.319017 78.373069 
L 274.319017 73.810693 
L 274.645351 73.810693 
L 274.645351 69.248317 
L 274.742379 69.248317 
L 274.742379 64.685941 
L 275.391439 64.685941 
L 275.391439 60.123564 
L 275.935464 60.123564 
L 275.935464 55.561188 
L 276.162371 55.561188 
L 276.162371 50.998812 
L 276.23952 50.998812 
L 276.23952 46.436436 
L 278.022166 46.436436 
L 278.022166 41.874059 
L 278.308348 41.874059 
L 278.308348 37.311683 
L 278.324053 37.311683 
L 278.324053 32.749307 
L 279.344863 32.749307 
L 279.344863 28.186931 
L 279.818215 28.186931 
L 279.818215 23.624554 
L 279.929588 23.624554 
L 279.929588 19.062178 
L 280.386325 19.062178 
L 280.386325 14.499802 
L 282.945431 14.499802 
L 282.945431 9.937426 
L 282.945431 9.937426 
L 282.945431 9.937426 
L 364.32 9.937426 
" style="fill:none;stroke:#bf00bf;stroke-linecap:square;"/>
   </g>
   <g id="line2d_4">
    <path clip-path="url(#p10dd31e59d)" d="M 219.453442 283.68 
L 219.453442 279.117624 
L 220.15407 279.117624 
L 220.15407 274.555248 
L 220.460176 274.555248 
L 220.460176 269.992871 
L 220.714714 269.992871 
L 220.714714 265.430495 
L 221.106972 265.430495 
L 221.106972 260.868119 
L 221.546497 260.868119 
L 221.546497 256.305743 
L 221.769983 256.305743 
L 221.769983 251.743366 
L 222.166352 251.743366 
L 222.166352 247.18099 
L 222.267151 247.18099 
L 222.267151 242.618614 
L 222.350549 242.618614 
L 222.350549 238.056238 
L 222.795871 238.056238 
L 222.795871 233.493861 
L 222.898194 233.493861 
L 222.898194 228.931485 
L 224.222903 228.931485 
L 224.222903 224.369109 
L 224.543297 224.369109 
L 224.543297 219.806733 
L 224.6627 219.806733 
L 224.6627 215.244356 
L 259.087524 215.244356 
L 259.087524 210.68198 
L 260.967094 210.68198 
L 260.967094 206.119604 
L 261.188284 206.119604 
L 261.188284 201.557228 
L 261.563804 201.557228 
L 261.563804 196.994851 
L 262.374265 196.994851 
L 262.374265 192.432475 
L 262.533963 192.432475 
L 262.533963 187.870099 
L 262.590697 187.870099 
L 262.590697 183.307723 
L 262.799308 183.307723 
L 262.799308 178.745347 
L 263.34469 178.745347 
L 263.34469 174.18297 
L 264.396512 174.18297 
L 264.396512 169.620594 
L 264.492297 169.620594 
L 264.492297 165.058218 
L 265.472006 165.058218 
L 265.472006 160.495842 
L 265.710083 160.495842 
L 265.710083 155.933465 
L 265.84568 155.933465 
L 265.84568 151.371089 
L 265.85212 151.371089 
L 265.85212 146.808713 
L 266.338123 146.808713 
L 266.338123 142.246337 
L 267.143396 142.246337 
L 267.143396 137.68396 
L 267.617535 137.68396 
L 267.617535 133.121584 
L 267.663355 133.121584 
L 267.663355 128.559208 
L 269.023265 128.559208 
L 269.023265 123.996832 
L 269.023348 123.996832 
L 269.023348 119.434455 
L 269.22805 119.434455 
L 269.22805 114.872079 
L 269.242675 114.872079 
L 269.242675 110.309703 
L 270.329415 110.309703 
L 270.329415 105.747327 
L 270.35945 105.747327 
L 270.35945 101.18495 
L 270.367167 101.18495 
L 270.367167 96.622574 
L 270.578517 96.622574 
L 270.578517 92.060198 
L 270.699941 92.060198 
L 270.699941 87.497822 
L 271.637692 87.497822 
L 271.637692 82.935446 
L 272.020627 82.935446 
L 272.020627 78.373069 
L 272.109811 78.373069 
L 272.109811 73.810693 
L 273.562478 73.810693 
L 273.562478 69.248317 
L 274.1747 69.248317 
L 274.1747 64.685941 
L 274.319017 64.685941 
L 274.319017 60.123564 
L 274.612524 60.123564 
L 274.612524 55.561188 
L 274.742379 55.561188 
L 274.742379 50.998812 
L 275.391439 50.998812 
L 275.391439 46.436436 
L 275.697341 46.436436 
L 275.697341 41.874059 
L 275.935464 41.874059 
L 275.935464 37.311683 
L 276.176875 37.311683 
L 276.176875 32.749307 
L 277.909987 32.749307 
L 277.909987 28.186931 
L 278.022166 28.186931 
L 278.022166 23.624554 
L 278.985141 23.624554 
L 278.985141 19.062178 
L 280.386325 19.062178 
L 280.386325 14.499802 
L 281.353517 14.499802 
L 281.353517 9.937426 
L 281.353517 9.937426 
L 281.353517 9.937426 
L 364.32 9.937426 
" style="fill:none;stroke:#000000;stroke-linecap:square;"/>
   </g>
   <g id="line2d_5">
    <path clip-path="url(#p10dd31e59d)" d="M 210.616871 283.68 
L 210.616871 279.117624 
L 215.066714 279.117624 
L 215.066714 274.555248 
L 217.918013 274.555248 
L 217.918013 269.992871 
L 218.991458 269.992871 
L 218.991458 265.430495 
L 219.043316 265.430495 
L 219.043316 260.868119 
L 219.453442 260.868119 
L 219.453442 256.305743 
L 220.162691 256.305743 
L 220.162691 251.743366 
L 220.559072 251.743366 
L 220.559072 247.18099 
L 220.642659 247.18099 
L 220.642659 242.618614 
L 220.705584 242.618614 
L 220.705584 238.056238 
L 220.714714 238.056238 
L 220.714714 233.493861 
L 221.025679 233.493861 
L 221.025679 228.931485 
L 221.367339 228.931485 
L 221.367339 224.369109 
L 221.905383 224.369109 
L 221.905383 219.806733 
L 222.267151 219.806733 
L 222.267151 215.244356 
L 258.844303 215.244356 
L 258.844303 210.68198 
L 259.087524 210.68198 
L 259.087524 206.119604 
L 259.264474 206.119604 
L 259.264474 201.557228 
L 259.293179 201.557228 
L 259.293179 196.994851 
L 260.967094 196.994851 
L 260.967094 192.432475 
L 261.174763 192.432475 
L 261.174763 187.870099 
L 261.279888 187.870099 
L 261.279888 183.307723 
L 261.563804 183.307723 
L 261.563804 178.745347 
L 261.970068 178.745347 
L 261.970068 174.18297 
L 262.403253 174.18297 
L 262.403253 169.620594 
L 262.552541 169.620594 
L 262.552541 165.058218 
L 262.590697 165.058218 
L 262.590697 160.495842 
L 262.786039 160.495842 
L 262.786039 155.933465 
L 262.799308 155.933465 
L 262.799308 151.371089 
L 262.894577 151.371089 
L 262.894577 146.808713 
L 263.308039 146.808713 
L 263.308039 142.246337 
L 263.461444 142.246337 
L 263.461444 137.68396 
L 263.634346 137.68396 
L 263.634346 133.121584 
L 264.492297 133.121584 
L 264.492297 128.559208 
L 265.136635 128.559208 
L 265.136635 123.996832 
L 265.710083 123.996832 
L 265.710083 119.434455 
L 266.182942 119.434455 
L 266.182942 114.872079 
L 266.43124 114.872079 
L 266.43124 110.309703 
L 266.588606 110.309703 
L 266.588606 105.747327 
L 267.01172 105.747327 
L 267.01172 101.18495 
L 267.626871 101.18495 
L 267.626871 96.622574 
L 267.663355 96.622574 
L 267.663355 92.060198 
L 268.214166 92.060198 
L 268.214166 87.497822 
L 268.246411 87.497822 
L 268.246411 82.935446 
L 269.023348 82.935446 
L 269.023348 78.373069 
L 269.242675 78.373069 
L 269.242675 73.810693 
L 269.67873 73.810693 
L 269.67873 69.248317 
L 271.007853 69.248317 
L 271.007853 64.685941 
L 272.020627 64.685941 
L 272.020627 60.123564 
L 272.109811 60.123564 
L 272.109811 55.561188 
L 272.146385 55.561188 
L 272.146385 50.998812 
L 272.765209 50.998812 
L 272.765209 46.436436 
L 273.3614 46.436436 
L 273.3614 41.874059 
L 274.146845 41.874059 
L 274.146845 37.311683 
L 274.480281 37.311683 
L 274.480281 32.749307 
L 274.514705 32.749307 
L 274.514705 28.186931 
L 274.659295 28.186931 
L 274.659295 23.624554 
L 275.739583 23.624554 
L 275.739583 19.062178 
L 278.022166 19.062178 
L 278.022166 14.499802 
L 278.242996 14.499802 
L 278.242996 9.937426 
L 278.242996 9.937426 
L 278.242996 9.937426 
L 364.32 9.937426 
" style="fill:none;stroke:#00bfbf;stroke-linecap:square;"/>
   </g>
   <g id="patch_3">
    <path d="M 7.2 7.2 
L 364.32 7.2 
" style="fill:none;stroke:#000000;stroke-linecap:square;stroke-linejoin:miter;"/>
   </g>
   <g id="patch_4">
    <path d="M 364.32 283.68 
L 364.32 7.2 
" style="fill:none;stroke:#000000;stroke-linecap:square;stroke-linejoin:miter;"/>
   </g>
   <g id="patch_5">
    <path d="M 7.2 283.68 
L 364.32 283.68 
" style="fill:none;stroke:#000000;stroke-linecap:square;stroke-linejoin:miter;"/>
   </g>
   <g id="patch_6">
    <path d="M 7.2 283.68 
L 7.2 7.2 
" style="fill:none;stroke:#000000;stroke-linecap:square;stroke-linejoin:miter;"/>
   </g>
   <g id="matplotlib.axis_1">
    <g id="xtick_1">
     <g id="line2d_6">
      <path clip-path="url(#p10dd31e59d)" d="M 46.803772 283.68 
L 46.803772 7.2 
" style="fill:none;stroke:#000000;stroke-dasharray:1.000000,3.000000;stroke-dashoffset:0.0;stroke-width:0.5;"/>
     </g>
     <g id="line2d_7">
      <defs>
       <path d="M 0 0 
L 0 -4 
" id="m3ee6925844" style="stroke:#000000;stroke-width:0.5;"/>
      </defs>
      <g>
       <use style="stroke:#000000;stroke-width:0.5;" x="46.803771872" xlink:href="#m3ee6925844" y="283.68"/>
      </g>
     </g>
     <g id="line2d_8">
      <defs>
       <path d="M 0 0 
L 0 4 
" id="meb44d4e371" style="stroke:#000000;stroke-width:0.5;"/>
      </defs>
      <g>
       <use style="stroke:#000000;stroke-width:0.5;" x="46.803771872" xlink:href="#meb44d4e371" y="7.2"/>
      </g>
     </g>
     <g id="text_1">
      <!-- -6 -->
      <defs>
       <path d="M 33.015625 40.375 
Q 26.375 40.375 22.484375 35.828125 
Q 18.609375 31.296875 18.609375 23.390625 
Q 18.609375 15.53125 22.484375 10.953125 
Q 26.375 6.390625 33.015625 6.390625 
Q 39.65625 6.390625 43.53125 10.953125 
Q 47.40625 15.53125 47.40625 23.390625 
Q 47.40625 31.296875 43.53125 35.828125 
Q 39.65625 40.375 33.015625 40.375 
M 52.59375 71.296875 
L 52.59375 62.3125 
Q 48.875 64.0625 45.09375 64.984375 
Q 41.3125 65.921875 37.59375 65.921875 
Q 27.828125 65.921875 22.671875 59.328125 
Q 17.53125 52.734375 16.796875 39.40625 
Q 19.671875 43.65625 24.015625 45.921875 
Q 28.375 48.1875 33.59375 48.1875 
Q 44.578125 48.1875 50.953125 41.515625 
Q 57.328125 34.859375 57.328125 23.390625 
Q 57.328125 12.15625 50.6875 5.359375 
Q 44.046875 -1.421875 33.015625 -1.421875 
Q 20.359375 -1.421875 13.671875 8.265625 
Q 6.984375 17.96875 6.984375 36.375 
Q 6.984375 53.65625 15.1875 63.9375 
Q 23.390625 74.21875 37.203125 74.21875 
Q 40.921875 74.21875 44.703125 73.484375 
Q 48.484375 72.75 52.59375 71.296875 
" id="BitstreamVeraSans-Roman-36"/>
       <path d="M 4.890625 31.390625 
L 31.203125 31.390625 
L 31.203125 23.390625 
L 4.890625 23.390625 
z
" id="BitstreamVeraSans-Roman-2d"/>
      </defs>
      <g transform="translate(36.833459372 302.876875)scale(0.2 -0.2)">
       <use xlink:href="#BitstreamVeraSans-Roman-2d"/>
       <use x="36.083984375" xlink:href="#BitstreamVeraSans-Roman-36"/>
      </g>
     </g>
    </g>
    <g id="xtick_2">
     <g id="line2d_9">
      <path clip-path="url(#p10dd31e59d)" d="M 86.4933 283.68 
L 86.4933 7.2 
" style="fill:none;stroke:#000000;stroke-dasharray:1.000000,3.000000;stroke-dashoffset:0.0;stroke-width:0.5;"/>
     </g>
     <g id="line2d_10">
      <g>
       <use style="stroke:#000000;stroke-width:0.5;" x="86.493300388" xlink:href="#m3ee6925844" y="283.68"/>
      </g>
     </g>
     <g id="line2d_11">
      <g>
       <use style="stroke:#000000;stroke-width:0.5;" x="86.493300388" xlink:href="#meb44d4e371" y="7.2"/>
      </g>
     </g>
     <g id="text_2">
      <!-- -4 -->
      <defs>
       <path d="M 37.796875 64.3125 
L 12.890625 25.390625 
L 37.796875 25.390625 
z
M 35.203125 72.90625 
L 47.609375 72.90625 
L 47.609375 25.390625 
L 58.015625 25.390625 
L 58.015625 17.1875 
L 47.609375 17.1875 
L 47.609375 0 
L 37.796875 0 
L 37.796875 17.1875 
L 4.890625 17.1875 
L 4.890625 26.703125 
z
" id="BitstreamVeraSans-Roman-34"/>
      </defs>
      <g transform="translate(76.522987888 302.876875)scale(0.2 -0.2)">
       <use xlink:href="#BitstreamVeraSans-Roman-2d"/>
       <use x="36.083984375" xlink:href="#BitstreamVeraSans-Roman-34"/>
      </g>
     </g>
    </g>
    <g id="xtick_3">
     <g id="line2d_12">
      <path clip-path="url(#p10dd31e59d)" d="M 126.182829 283.68 
L 126.182829 7.2 
" style="fill:none;stroke:#000000;stroke-dasharray:1.000000,3.000000;stroke-dashoffset:0.0;stroke-width:0.5;"/>
     </g>
     <g id="line2d_13">
      <g>
       <use style="stroke:#000000;stroke-width:0.5;" x="126.182828904" xlink:href="#m3ee6925844" y="283.68"/>
      </g>
     </g>
     <g id="line2d_14">
      <g>
       <use style="stroke:#000000;stroke-width:0.5;" x="126.182828904" xlink:href="#meb44d4e371" y="7.2"/>
      </g>
     </g>
     <g id="text_3">
      <!-- -2 -->
      <defs>
       <path d="M 19.1875 8.296875 
L 53.609375 8.296875 
L 53.609375 0 
L 7.328125 0 
L 7.328125 8.296875 
Q 12.9375 14.109375 22.625 23.890625 
Q 32.328125 33.6875 34.8125 36.53125 
Q 39.546875 41.84375 41.421875 45.53125 
Q 43.3125 49.21875 43.3125 52.78125 
Q 43.3125 58.59375 39.234375 62.25 
Q 35.15625 65.921875 28.609375 65.921875 
Q 23.96875 65.921875 18.8125 64.3125 
Q 13.671875 62.703125 7.8125 59.421875 
L 7.8125 69.390625 
Q 13.765625 71.78125 18.9375 73 
Q 24.125 74.21875 28.421875 74.21875 
Q 39.75 74.21875 46.484375 68.546875 
Q 53.21875 62.890625 53.21875 53.421875 
Q 53.21875 48.921875 51.53125 44.890625 
Q 49.859375 40.875 45.40625 35.40625 
Q 44.1875 33.984375 37.640625 27.21875 
Q 31.109375 20.453125 19.1875 8.296875 
" id="BitstreamVeraSans-Roman-32"/>
      </defs>
      <g transform="translate(116.212516404 302.876875)scale(0.2 -0.2)">
       <use xlink:href="#BitstreamVeraSans-Roman-2d"/>
       <use x="36.083984375" xlink:href="#BitstreamVeraSans-Roman-32"/>
      </g>
     </g>
    </g>
    <g id="xtick_4">
     <g id="line2d_15">
      <path clip-path="url(#p10dd31e59d)" d="M 165.872357 283.68 
L 165.872357 7.2 
" style="fill:none;stroke:#000000;stroke-dasharray:1.000000,3.000000;stroke-dashoffset:0.0;stroke-width:0.5;"/>
     </g>
     <g id="line2d_16">
      <g>
       <use style="stroke:#000000;stroke-width:0.5;" x="165.87235742" xlink:href="#m3ee6925844" y="283.68"/>
      </g>
     </g>
     <g id="line2d_17">
      <g>
       <use style="stroke:#000000;stroke-width:0.5;" x="165.87235742" xlink:href="#meb44d4e371" y="7.2"/>
      </g>
     </g>
     <g id="text_4">
      <!-- 0 -->
      <defs>
       <path d="M 31.78125 66.40625 
Q 24.171875 66.40625 20.328125 58.90625 
Q 16.5 51.421875 16.5 36.375 
Q 16.5 21.390625 20.328125 13.890625 
Q 24.171875 6.390625 31.78125 6.390625 
Q 39.453125 6.390625 43.28125 13.890625 
Q 47.125 21.390625 47.125 36.375 
Q 47.125 51.421875 43.28125 58.90625 
Q 39.453125 66.40625 31.78125 66.40625 
M 31.78125 74.21875 
Q 44.046875 74.21875 50.515625 64.515625 
Q 56.984375 54.828125 56.984375 36.375 
Q 56.984375 17.96875 50.515625 8.265625 
Q 44.046875 -1.421875 31.78125 -1.421875 
Q 19.53125 -1.421875 13.0625 8.265625 
Q 6.59375 17.96875 6.59375 36.375 
Q 6.59375 54.828125 13.0625 64.515625 
Q 19.53125 74.21875 31.78125 74.21875 
" id="BitstreamVeraSans-Roman-30"/>
      </defs>
      <g transform="translate(159.50985742 302.876875)scale(0.2 -0.2)">
       <use xlink:href="#BitstreamVeraSans-Roman-30"/>
      </g>
     </g>
    </g>
    <g id="xtick_5">
     <g id="line2d_18">
      <path clip-path="url(#p10dd31e59d)" d="M 205.561886 283.68 
L 205.561886 7.2 
" style="fill:none;stroke:#000000;stroke-dasharray:1.000000,3.000000;stroke-dashoffset:0.0;stroke-width:0.5;"/>
     </g>
     <g id="line2d_19">
      <g>
       <use style="stroke:#000000;stroke-width:0.5;" x="205.561885936" xlink:href="#m3ee6925844" y="283.68"/>
      </g>
     </g>
     <g id="line2d_20">
      <g>
       <use style="stroke:#000000;stroke-width:0.5;" x="205.561885936" xlink:href="#meb44d4e371" y="7.2"/>
      </g>
     </g>
     <g id="text_5">
      <!-- 2 -->
      <g transform="translate(199.199385936 302.876875)scale(0.2 -0.2)">
       <use xlink:href="#BitstreamVeraSans-Roman-32"/>
      </g>
     </g>
    </g>
    <g id="xtick_6">
     <g id="line2d_21">
      <path clip-path="url(#p10dd31e59d)" d="M 245.251414 283.68 
L 245.251414 7.2 
" style="fill:none;stroke:#000000;stroke-dasharray:1.000000,3.000000;stroke-dashoffset:0.0;stroke-width:0.5;"/>
     </g>
     <g id="line2d_22">
      <g>
       <use style="stroke:#000000;stroke-width:0.5;" x="245.251414452" xlink:href="#m3ee6925844" y="283.68"/>
      </g>
     </g>
     <g id="line2d_23">
      <g>
       <use style="stroke:#000000;stroke-width:0.5;" x="245.251414452" xlink:href="#meb44d4e371" y="7.2"/>
      </g>
     </g>
     <g id="text_6">
      <!-- 4 -->
      <g transform="translate(238.888914452 302.876875)scale(0.2 -0.2)">
       <use xlink:href="#BitstreamVeraSans-Roman-34"/>
      </g>
     </g>
    </g>
    <g id="xtick_7">
     <g id="line2d_24">
      <path clip-path="url(#p10dd31e59d)" d="M 284.940943 283.68 
L 284.940943 7.2 
" style="fill:none;stroke:#000000;stroke-dasharray:1.000000,3.000000;stroke-dashoffset:0.0;stroke-width:0.5;"/>
     </g>
     <g id="line2d_25">
      <g>
       <use style="stroke:#000000;stroke-width:0.5;" x="284.940942968" xlink:href="#m3ee6925844" y="283.68"/>
      </g>
     </g>
     <g id="line2d_26">
      <g>
       <use style="stroke:#000000;stroke-width:0.5;" x="284.940942968" xlink:href="#meb44d4e371" y="7.2"/>
      </g>
     </g>
     <g id="text_7">
      <!-- 6 -->
      <g transform="translate(278.578442968 302.876875)scale(0.2 -0.2)">
       <use xlink:href="#BitstreamVeraSans-Roman-36"/>
      </g>
     </g>
    </g>
    <g id="xtick_8">
     <g id="line2d_27">
      <path clip-path="url(#p10dd31e59d)" d="M 324.630471 283.68 
L 324.630471 7.2 
" style="fill:none;stroke:#000000;stroke-dasharray:1.000000,3.000000;stroke-dashoffset:0.0;stroke-width:0.5;"/>
     </g>
     <g id="line2d_28">
      <g>
       <use style="stroke:#000000;stroke-width:0.5;" x="324.630471484" xlink:href="#m3ee6925844" y="283.68"/>
      </g>
     </g>
     <g id="line2d_29">
      <g>
       <use style="stroke:#000000;stroke-width:0.5;" x="324.630471484" xlink:href="#meb44d4e371" y="7.2"/>
      </g>
     </g>
     <g id="text_8">
      <!-- 8 -->
      <defs>
       <path d="M 31.78125 34.625 
Q 24.75 34.625 20.71875 30.859375 
Q 16.703125 27.09375 16.703125 20.515625 
Q 16.703125 13.921875 20.71875 10.15625 
Q 24.75 6.390625 31.78125 6.390625 
Q 38.8125 6.390625 42.859375 10.171875 
Q 46.921875 13.96875 46.921875 20.515625 
Q 46.921875 27.09375 42.890625 30.859375 
Q 38.875 34.625 31.78125 34.625 
M 21.921875 38.8125 
Q 15.578125 40.375 12.03125 44.71875 
Q 8.5 49.078125 8.5 55.328125 
Q 8.5 64.0625 14.71875 69.140625 
Q 20.953125 74.21875 31.78125 74.21875 
Q 42.671875 74.21875 48.875 69.140625 
Q 55.078125 64.0625 55.078125 55.328125 
Q 55.078125 49.078125 51.53125 44.71875 
Q 48 40.375 41.703125 38.8125 
Q 48.828125 37.15625 52.796875 32.3125 
Q 56.78125 27.484375 56.78125 20.515625 
Q 56.78125 9.90625 50.3125 4.234375 
Q 43.84375 -1.421875 31.78125 -1.421875 
Q 19.734375 -1.421875 13.25 4.234375 
Q 6.78125 9.90625 6.78125 20.515625 
Q 6.78125 27.484375 10.78125 32.3125 
Q 14.796875 37.15625 21.921875 38.8125 
M 18.3125 54.390625 
Q 18.3125 48.734375 21.84375 45.5625 
Q 25.390625 42.390625 31.78125 42.390625 
Q 38.140625 42.390625 41.71875 45.5625 
Q 45.3125 48.734375 45.3125 54.390625 
Q 45.3125 60.0625 41.71875 63.234375 
Q 38.140625 66.40625 31.78125 66.40625 
Q 25.390625 66.40625 21.84375 63.234375 
Q 18.3125 60.0625 18.3125 54.390625 
" id="BitstreamVeraSans-Roman-38"/>
      </defs>
      <g transform="translate(318.267971484 302.876875)scale(0.2 -0.2)">
       <use xlink:href="#BitstreamVeraSans-Roman-38"/>
      </g>
     </g>
    </g>
    <g id="xtick_9">
     <g id="line2d_30">
      <path clip-path="url(#p10dd31e59d)" d="M 364.32 283.68 
L 364.32 7.2 
" style="fill:none;stroke:#000000;stroke-dasharray:1.000000,3.000000;stroke-dashoffset:0.0;stroke-width:0.5;"/>
     </g>
     <g id="line2d_31">
      <g>
       <use style="stroke:#000000;stroke-width:0.5;" x="364.32" xlink:href="#m3ee6925844" y="283.68"/>
      </g>
     </g>
     <g id="line2d_32">
      <g>
       <use style="stroke:#000000;stroke-width:0.5;" x="364.32" xlink:href="#meb44d4e371" y="7.2"/>
      </g>
     </g>
    </g>
    <g id="xtick_10">
     <g id="line2d_33">
      <defs>
       <path d="M 0 0 
L 0 -2 
" id="me645093d28" style="stroke:#000000;stroke-width:0.5;"/>
      </defs>
      <g>
       <use style="stroke:#000000;stroke-width:0.5;" x="46.803771872" xlink:href="#me645093d28" y="283.68"/>
      </g>
     </g>
     <g id="line2d_34">
      <defs>
       <path d="M 0 0 
L 0 2 
" id="m8461296872" style="stroke:#000000;stroke-width:0.5;"/>
      </defs>
      <g>
       <use style="stroke:#000000;stroke-width:0.5;" x="46.803771872" xlink:href="#m8461296872" y="7.2"/>
      </g>
     </g>
    </g>
    <g id="xtick_11">
     <g id="line2d_35">
      <g>
       <use style="stroke:#000000;stroke-width:0.5;" x="86.493300388" xlink:href="#me645093d28" y="283.68"/>
      </g>
     </g>
     <g id="line2d_36">
      <g>
       <use style="stroke:#000000;stroke-width:0.5;" x="86.493300388" xlink:href="#m8461296872" y="7.2"/>
      </g>
     </g>
    </g>
    <g id="xtick_12">
     <g id="line2d_37">
      <g>
       <use style="stroke:#000000;stroke-width:0.5;" x="126.182828904" xlink:href="#me645093d28" y="283.68"/>
      </g>
     </g>
     <g id="line2d_38">
      <g>
       <use style="stroke:#000000;stroke-width:0.5;" x="126.182828904" xlink:href="#m8461296872" y="7.2"/>
      </g>
     </g>
    </g>
    <g id="xtick_13">
     <g id="line2d_39">
      <g>
       <use style="stroke:#000000;stroke-width:0.5;" x="165.87235742" xlink:href="#me645093d28" y="283.68"/>
      </g>
     </g>
     <g id="line2d_40">
      <g>
       <use style="stroke:#000000;stroke-width:0.5;" x="165.87235742" xlink:href="#m8461296872" y="7.2"/>
      </g>
     </g>
    </g>
    <g id="xtick_14">
     <g id="line2d_41">
      <g>
       <use style="stroke:#000000;stroke-width:0.5;" x="205.561885936" xlink:href="#me645093d28" y="283.68"/>
      </g>
     </g>
     <g id="line2d_42">
      <g>
       <use style="stroke:#000000;stroke-width:0.5;" x="205.561885936" xlink:href="#m8461296872" y="7.2"/>
      </g>
     </g>
    </g>
    <g id="xtick_15">
     <g id="line2d_43">
      <g>
       <use style="stroke:#000000;stroke-width:0.5;" x="245.251414452" xlink:href="#me645093d28" y="283.68"/>
      </g>
     </g>
     <g id="line2d_44">
      <g>
       <use style="stroke:#000000;stroke-width:0.5;" x="245.251414452" xlink:href="#m8461296872" y="7.2"/>
      </g>
     </g>
    </g>
    <g id="xtick_16">
     <g id="line2d_45">
      <g>
       <use style="stroke:#000000;stroke-width:0.5;" x="284.940942968" xlink:href="#me645093d28" y="283.68"/>
      </g>
     </g>
     <g id="line2d_46">
      <g>
       <use style="stroke:#000000;stroke-width:0.5;" x="284.940942968" xlink:href="#m8461296872" y="7.2"/>
      </g>
     </g>
    </g>
    <g id="xtick_17">
     <g id="line2d_47">
      <g>
       <use style="stroke:#000000;stroke-width:0.5;" x="324.630471484" xlink:href="#me645093d28" y="283.68"/>
      </g>
     </g>
     <g id="line2d_48">
      <g>
       <use style="stroke:#000000;stroke-width:0.5;" x="324.630471484" xlink:href="#m8461296872" y="7.2"/>
      </g>
     </g>
    </g>
    <g id="xtick_18">
     <g id="line2d_49">
      <g>
       <use style="stroke:#000000;stroke-width:0.5;" x="364.32" xlink:href="#me645093d28" y="283.68"/>
      </g>
     </g>
     <g id="line2d_50">
      <g>
       <use style="stroke:#000000;stroke-width:0.5;" x="364.32" xlink:href="#m8461296872" y="7.2"/>
      </g>
     </g>
    </g>
    <g id="text_9">
     <!-- log10 of Df -->
     <defs>
      <path id="BitstreamVeraSans-Roman-20"/>
      <path d="M 12.40625 8.296875 
L 28.515625 8.296875 
L 28.515625 63.921875 
L 10.984375 60.40625 
L 10.984375 69.390625 
L 28.421875 72.90625 
L 38.28125 72.90625 
L 38.28125 8.296875 
L 54.390625 8.296875 
L 54.390625 0 
L 12.40625 0 
z
" id="BitstreamVeraSans-Roman-31"/>
      <path d="M 30.609375 48.390625 
Q 23.390625 48.390625 19.1875 42.75 
Q 14.984375 37.109375 14.984375 27.296875 
Q 14.984375 17.484375 19.15625 11.84375 
Q 23.34375 6.203125 30.609375 6.203125 
Q 37.796875 6.203125 41.984375 11.859375 
Q 46.1875 17.53125 46.1875 27.296875 
Q 46.1875 37.015625 41.984375 42.703125 
Q 37.796875 48.390625 30.609375 48.390625 
M 30.609375 56 
Q 42.328125 56 49.015625 48.375 
Q 55.71875 40.765625 55.71875 27.296875 
Q 55.71875 13.875 49.015625 6.21875 
Q 42.328125 -1.421875 30.609375 -1.421875 
Q 18.84375 -1.421875 12.171875 6.21875 
Q 5.515625 13.875 5.515625 27.296875 
Q 5.515625 40.765625 12.171875 48.375 
Q 18.84375 56 30.609375 56 
" id="BitstreamVeraSans-Roman-6f"/>
      <path d="M 9.421875 75.984375 
L 18.40625 75.984375 
L 18.40625 0 
L 9.421875 0 
z
" id="BitstreamVeraSans-Roman-6c"/>
      <path d="M 19.671875 64.796875 
L 19.671875 8.109375 
L 31.59375 8.109375 
Q 46.6875 8.109375 53.6875 14.9375 
Q 60.6875 21.78125 60.6875 36.53125 
Q 60.6875 51.171875 53.6875 57.984375 
Q 46.6875 64.796875 31.59375 64.796875 
z
M 9.8125 72.90625 
L 30.078125 72.90625 
Q 51.265625 72.90625 61.171875 64.09375 
Q 71.09375 55.28125 71.09375 36.53125 
Q 71.09375 17.671875 61.125 8.828125 
Q 51.171875 0 30.078125 0 
L 9.8125 0 
z
" id="BitstreamVeraSans-Roman-44"/>
      <path d="M 45.40625 27.984375 
Q 45.40625 37.75 41.375 43.109375 
Q 37.359375 48.484375 30.078125 48.484375 
Q 22.859375 48.484375 18.828125 43.109375 
Q 14.796875 37.75 14.796875 27.984375 
Q 14.796875 18.265625 18.828125 12.890625 
Q 22.859375 7.515625 30.078125 7.515625 
Q 37.359375 7.515625 41.375 12.890625 
Q 45.40625 18.265625 45.40625 27.984375 
M 54.390625 6.78125 
Q 54.390625 -7.171875 48.1875 -13.984375 
Q 42 -20.796875 29.203125 -20.796875 
Q 24.46875 -20.796875 20.265625 -20.09375 
Q 16.0625 -19.390625 12.109375 -17.921875 
L 12.109375 -9.1875 
Q 16.0625 -11.328125 19.921875 -12.34375 
Q 23.78125 -13.375 27.78125 -13.375 
Q 36.625 -13.375 41.015625 -8.765625 
Q 45.40625 -4.15625 45.40625 5.171875 
L 45.40625 9.625 
Q 42.625 4.78125 38.28125 2.390625 
Q 33.9375 0 27.875 0 
Q 17.828125 0 11.671875 7.65625 
Q 5.515625 15.328125 5.515625 27.984375 
Q 5.515625 40.671875 11.671875 48.328125 
Q 17.828125 56 27.875 56 
Q 33.9375 56 38.28125 53.609375 
Q 42.625 51.21875 45.40625 46.390625 
L 45.40625 54.6875 
L 54.390625 54.6875 
z
" id="BitstreamVeraSans-Roman-67"/>
      <path d="M 37.109375 75.984375 
L 37.109375 68.5 
L 28.515625 68.5 
Q 23.6875 68.5 21.796875 66.546875 
Q 19.921875 64.59375 19.921875 59.515625 
L 19.921875 54.6875 
L 34.71875 54.6875 
L 34.71875 47.703125 
L 19.921875 47.703125 
L 19.921875 0 
L 10.890625 0 
L 10.890625 47.703125 
L 2.296875 47.703125 
L 2.296875 54.6875 
L 10.890625 54.6875 
L 10.890625 58.5 
Q 10.890625 67.625 15.140625 71.796875 
Q 19.390625 75.984375 28.609375 75.984375 
z
" id="BitstreamVeraSans-Roman-66"/>
     </defs>
     <g transform="translate(130.5740625 327.233125)scale(0.2 -0.2)">
      <use xlink:href="#BitstreamVeraSans-Roman-6c"/>
      <use x="27.783203125" xlink:href="#BitstreamVeraSans-Roman-6f"/>
      <use x="88.96484375" xlink:href="#BitstreamVeraSans-Roman-67"/>
      <use x="152.44140625" xlink:href="#BitstreamVeraSans-Roman-31"/>
      <use x="216.064453125" xlink:href="#BitstreamVeraSans-Roman-30"/>
      <use x="279.6875" xlink:href="#BitstreamVeraSans-Roman-20"/>
      <use x="311.474609375" xlink:href="#BitstreamVeraSans-Roman-6f"/>
      <use x="372.65625" xlink:href="#BitstreamVeraSans-Roman-66"/>
      <use x="407.861328125" xlink:href="#BitstreamVeraSans-Roman-20"/>
      <use x="439.6484375" xlink:href="#BitstreamVeraSans-Roman-44"/>
      <use x="516.650390625" xlink:href="#BitstreamVeraSans-Roman-66"/>
     </g>
    </g>
   </g>
   <g id="matplotlib.axis_2">
    <g id="ytick_1">
     <g id="line2d_51">
      <path clip-path="url(#p10dd31e59d)" d="M 7.2 283.68 
L 364.32 283.68 
" style="fill:none;stroke:#000000;stroke-dasharray:1.000000,3.000000;stroke-dashoffset:0.0;stroke-width:0.5;"/>
     </g>
     <g id="line2d_52">
      <defs>
       <path d="M 0 0 
L 4 0 
" id="m49e411299b" style="stroke:#000000;stroke-width:0.5;"/>
      </defs>
      <g>
       <use style="stroke:#000000;stroke-width:0.5;" x="7.2" xlink:href="#m49e411299b" y="283.68"/>
      </g>
     </g>
     <g id="line2d_53">
      <defs>
       <path d="M 0 0 
L -4 0 
" id="m575f73e5aa" style="stroke:#000000;stroke-width:0.5;"/>
      </defs>
      <g>
       <use style="stroke:#000000;stroke-width:0.5;" x="364.32" xlink:href="#m575f73e5aa" y="283.68"/>
      </g>
     </g>
    </g>
    <g id="ytick_2">
     <g id="line2d_54">
      <path clip-path="url(#p10dd31e59d)" d="M 7.2 228.931485 
L 364.32 228.931485 
" style="fill:none;stroke:#000000;stroke-dasharray:1.000000,3.000000;stroke-dashoffset:0.0;stroke-width:0.5;"/>
     </g>
     <g id="line2d_55">
      <g>
       <use style="stroke:#000000;stroke-width:0.5;" x="7.2" xlink:href="#m49e411299b" y="228.931485149"/>
      </g>
     </g>
     <g id="line2d_56">
      <g>
       <use style="stroke:#000000;stroke-width:0.5;" x="364.32" xlink:href="#m575f73e5aa" y="228.931485149"/>
      </g>
     </g>
    </g>
    <g id="ytick_3">
     <g id="line2d_57">
      <path clip-path="url(#p10dd31e59d)" d="M 7.2 174.18297 
L 364.32 174.18297 
" style="fill:none;stroke:#000000;stroke-dasharray:1.000000,3.000000;stroke-dashoffset:0.0;stroke-width:0.5;"/>
     </g>
     <g id="line2d_58">
      <g>
       <use style="stroke:#000000;stroke-width:0.5;" x="7.2" xlink:href="#m49e411299b" y="174.182970297"/>
      </g>
     </g>
     <g id="line2d_59">
      <g>
       <use style="stroke:#000000;stroke-width:0.5;" x="364.32" xlink:href="#m575f73e5aa" y="174.182970297"/>
      </g>
     </g>
    </g>
    <g id="ytick_4">
     <g id="line2d_60">
      <path clip-path="url(#p10dd31e59d)" d="M 7.2 119.434455 
L 364.32 119.434455 
" style="fill:none;stroke:#000000;stroke-dasharray:1.000000,3.000000;stroke-dashoffset:0.0;stroke-width:0.5;"/>
     </g>
     <g id="line2d_61">
      <g>
       <use style="stroke:#000000;stroke-width:0.5;" x="7.2" xlink:href="#m49e411299b" y="119.434455446"/>
      </g>
     </g>
     <g id="line2d_62">
      <g>
       <use style="stroke:#000000;stroke-width:0.5;" x="364.32" xlink:href="#m575f73e5aa" y="119.434455446"/>
      </g>
     </g>
    </g>
    <g id="ytick_5">
     <g id="line2d_63">
      <path clip-path="url(#p10dd31e59d)" d="M 7.2 64.685941 
L 364.32 64.685941 
" style="fill:none;stroke:#000000;stroke-dasharray:1.000000,3.000000;stroke-dashoffset:0.0;stroke-width:0.5;"/>
     </g>
     <g id="line2d_64">
      <g>
       <use style="stroke:#000000;stroke-width:0.5;" x="7.2" xlink:href="#m49e411299b" y="64.6859405941"/>
      </g>
     </g>
     <g id="line2d_65">
      <g>
       <use style="stroke:#000000;stroke-width:0.5;" x="364.32" xlink:href="#m575f73e5aa" y="64.6859405941"/>
      </g>
     </g>
    </g>
    <g id="ytick_6">
     <g id="line2d_66">
      <path clip-path="url(#p10dd31e59d)" d="M 7.2 9.937426 
L 364.32 9.937426 
" style="fill:none;stroke:#000000;stroke-dasharray:1.000000,3.000000;stroke-dashoffset:0.0;stroke-width:0.5;"/>
     </g>
     <g id="line2d_67">
      <g>
       <use style="stroke:#000000;stroke-width:0.5;" x="7.2" xlink:href="#m49e411299b" y="9.93742574257"/>
      </g>
     </g>
     <g id="line2d_68">
      <g>
       <use style="stroke:#000000;stroke-width:0.5;" x="364.32" xlink:href="#m575f73e5aa" y="9.93742574257"/>
      </g>
     </g>
    </g>
   </g>
   <g id="text_10">
    <!-- f6-9,20-D -->
    <defs>
     <path d="M 11.71875 12.40625 
L 22.015625 12.40625 
L 22.015625 4 
L 14.015625 -11.625 
L 7.71875 -11.625 
L 11.71875 4 
z
" id="BitstreamVeraSans-Roman-2c"/>
     <path d="M 10.984375 1.515625 
L 10.984375 10.5 
Q 14.703125 8.734375 18.5 7.8125 
Q 22.3125 6.890625 25.984375 6.890625 
Q 35.75 6.890625 40.890625 13.453125 
Q 46.046875 20.015625 46.78125 33.40625 
Q 43.953125 29.203125 39.59375 26.953125 
Q 35.25 24.703125 29.984375 24.703125 
Q 19.046875 24.703125 12.671875 31.3125 
Q 6.296875 37.9375 6.296875 49.421875 
Q 6.296875 60.640625 12.9375 67.421875 
Q 19.578125 74.21875 30.609375 74.21875 
Q 43.265625 74.21875 49.921875 64.515625 
Q 56.59375 54.828125 56.59375 36.375 
Q 56.59375 19.140625 48.40625 8.859375 
Q 40.234375 -1.421875 26.421875 -1.421875 
Q 22.703125 -1.421875 18.890625 -0.6875 
Q 15.09375 0.046875 10.984375 1.515625 
M 30.609375 32.421875 
Q 37.25 32.421875 41.125 36.953125 
Q 45.015625 41.5 45.015625 49.421875 
Q 45.015625 57.28125 41.125 61.84375 
Q 37.25 66.40625 30.609375 66.40625 
Q 23.96875 66.40625 20.09375 61.84375 
Q 16.21875 57.28125 16.21875 49.421875 
Q 16.21875 41.5 20.09375 36.953125 
Q 23.96875 32.421875 30.609375 32.421875 
" id="BitstreamVeraSans-Roman-39"/>
    </defs>
    <g transform="translate(263.049475 278.1504)scale(0.2 -0.2)">
     <use xlink:href="#BitstreamVeraSans-Roman-66"/>
     <use x="35.205078125" xlink:href="#BitstreamVeraSans-Roman-36"/>
     <use x="98.828125" xlink:href="#BitstreamVeraSans-Roman-2d"/>
     <use x="134.912109375" xlink:href="#BitstreamVeraSans-Roman-39"/>
     <use x="198.53515625" xlink:href="#BitstreamVeraSans-Roman-2c"/>
     <use x="230.322265625" xlink:href="#BitstreamVeraSans-Roman-32"/>
     <use x="293.9453125" xlink:href="#BitstreamVeraSans-Roman-30"/>
     <use x="357.568359375" xlink:href="#BitstreamVeraSans-Roman-2d"/>
     <use x="393.65234375" xlink:href="#BitstreamVeraSans-Roman-44"/>
    </g>
   </g>
  </g>
 </g>
 <defs>
  <clipPath id="p10dd31e59d">
   <rect height="276.48" width="357.12" x="7.2" y="7.2"/>
  </clipPath>
 </defs>
</svg>
