<?xml version="1.0" encoding="utf-8" standalone="no"?>
<!DOCTYPE svg PUBLIC "-//W3C//DTD SVG 1.1//EN"
  "http://www.w3.org/Graphics/SVG/1.1/DTD/svg11.dtd">
<!-- Created with matplotlib (http://matplotlib.org/) -->
<svg height="338pt" version="1.1" viewBox="0 0 371 338" width="371pt" xmlns="http://www.w3.org/2000/svg" xmlns:xlink="http://www.w3.org/1999/xlink">
 <defs>
  <style type="text/css">
*{stroke-linecap:butt;stroke-linejoin:round;stroke-miterlimit:100000;}
  </style>
 </defs>
 <g id="figure_1">
  <g id="patch_1">
   <path d="M 0 338.5925 
L 371.52 338.5925 
L 371.52 0 
L 0 0 
z
" style="fill:#ffffff;"/>
  </g>
  <g id="axes_1">
   <g id="patch_2">
    <path d="M 7.2 283.68 
L 364.32 283.68 
L 364.32 7.2 
L 7.2 7.2 
z
" style="fill:#ffffff;"/>
   </g>
   <g id="line2d_1">
    <path clip-path="url(#p9553e3c422)" d="M 167.979818 283.68 
L 167.979818 280.030099 
L 176.919365 280.030099 
L 176.919365 276.380198 
L 177.806109 276.380198 
L 177.806109 272.730297 
L 178.944886 272.730297 
L 178.944886 269.080396 
L 183.308356 269.080396 
L 183.308356 265.430495 
L 184.435014 265.430495 
L 184.445309 258.130693 
L 184.925588 258.130693 
L 184.925588 254.480792 
L 185.507638 254.480792 
L 185.507638 250.830891 
L 186.117588 250.830891 
L 186.117588 247.18099 
L 187.013596 247.18099 
L 187.013596 243.531089 
L 187.464337 243.531089 
L 187.464337 239.881188 
L 187.615102 239.881188 
L 187.615102 236.231287 
L 189.470448 236.231287 
L 189.470448 232.581386 
L 190.121119 232.581386 
L 190.121119 228.931485 
L 199.388164 228.931485 
L 199.388164 225.281584 
L 210.666709 225.281584 
L 210.666709 221.631683 
L 214.163383 221.631683 
L 214.163383 217.981782 
L 214.420323 217.981782 
L 214.420323 214.331881 
L 214.80468 214.331881 
L 214.80468 210.68198 
L 216.597654 210.68198 
L 216.597654 207.032079 
L 217.430936 207.032079 
L 217.430936 203.382178 
L 220.997221 203.382178 
L 220.997221 199.732277 
L 221.896542 199.732277 
L 221.896542 196.082376 
L 222.180321 196.082376 
L 222.180321 192.432475 
L 223.23638 192.432475 
L 223.23638 188.782574 
L 223.682039 188.782574 
L 223.68564 181.482772 
L 224.084156 181.482772 
L 224.148555 174.18297 
L 224.519467 174.18297 
L 224.56121 166.883168 
L 224.708223 166.883168 
L 224.746037 159.583366 
L 225.772999 159.583366 
L 225.772999 155.933465 
L 226.930324 155.933465 
L 226.930324 152.283564 
L 228.030245 152.283564 
L 228.030245 148.633663 
L 228.184037 148.633663 
L 228.184037 144.983762 
L 228.360018 144.983762 
L 228.413722 137.68396 
L 229.365093 137.68396 
L 229.365093 134.034059 
L 230.355078 134.034059 
L 230.355078 130.384158 
L 231.356909 130.384158 
L 231.356909 126.734257 
L 240.710543 126.734257 
L 240.710543 123.084356 
L 250.081958 123.084356 
L 250.081958 119.434455 
L 251.84528 119.434455 
L 251.84528 115.784554 
L 252.966755 115.784554 
L 252.966755 112.134653 
L 256.356529 112.134653 
L 256.356529 108.484752 
L 256.609589 108.484752 
L 256.609589 104.834851 
L 262.460314 104.834851 
L 262.460314 101.18495 
L 266.476031 101.18495 
L 266.476031 97.53505 
L 266.768767 97.53505 
L 266.768767 93.885149 
L 268.22231 93.885149 
L 268.22231 90.235248 
L 271.234744 90.235248 
L 271.257472 82.935446 
L 271.982958 82.935446 
L 271.982958 79.285545 
L 272.335215 79.285545 
L 272.335215 75.635644 
L 274.278876 75.635644 
L 274.278876 71.985743 
L 275.655571 71.985743 
L 275.655571 68.335842 
L 278.065092 68.335842 
L 278.065092 64.685941 
L 299.018876 64.685941 
L 299.018876 61.03604 
L 303.230302 61.03604 
L 303.230302 57.386139 
L 303.70298 57.386139 
L 303.70298 53.736238 
L 306.979907 53.736238 
L 306.979907 50.086337 
L 308.315274 50.086337 
L 308.315274 46.436436 
L 308.987049 46.436436 
L 308.987049 42.786535 
L 309.220877 42.786535 
L 309.220877 39.136634 
L 311.570677 39.136634 
L 311.570677 35.486733 
L 311.961286 35.486733 
L 311.961286 31.836832 
L 312.574155 31.836832 
L 312.574155 28.186931 
L 314.947407 28.186931 
L 314.947407 24.53703 
L 315.207277 24.53703 
L 315.207277 20.887129 
L 315.703373 20.887129 
L 315.703373 17.237228 
L 316.836637 17.237228 
L 316.836637 13.587327 
L 319.525566 13.587327 
L 319.525566 9.937426 
L 364.32 9.937426 
L 364.32 9.937426 
" style="fill:none;stroke:#ff0000;stroke-linecap:square;stroke-width:3.0;"/>
   </g>
   <g id="line2d_2">
    <path clip-path="url(#p9553e3c422)" d="M 188.980005 283.68 
L 188.980005 280.030099 
L 192.931239 280.030099 
L 192.946442 272.730297 
L 195.972161 272.730297 
L 195.972161 269.080396 
L 200.0618 269.080396 
L 200.0618 265.430495 
L 201.649453 265.430495 
L 201.649453 261.780594 
L 205.885457 261.780594 
L 205.885457 258.130693 
L 206.738808 258.130693 
L 206.738808 254.480792 
L 207.174424 254.480792 
L 207.174424 250.830891 
L 207.306165 250.830891 
L 207.306165 247.18099 
L 207.611889 247.18099 
L 207.611889 243.531089 
L 208.700129 243.531089 
L 208.700129 239.881188 
L 214.08275 239.881188 
L 214.08275 236.231287 
L 215.239728 236.231287 
L 215.239728 232.581386 
L 220.593086 232.581386 
L 220.593086 228.931485 
L 235.449985 228.931485 
L 235.449985 225.281584 
L 236.352969 225.281584 
L 236.352969 221.631683 
L 238.006831 221.631683 
L 238.022455 214.331881 
L 238.687912 214.331881 
L 238.687912 210.68198 
L 238.801056 210.68198 
L 238.801056 207.032079 
L 239.015526 207.032079 
L 239.015526 203.382178 
L 239.962822 203.382178 
L 239.962822 199.732277 
L 240.090923 199.732277 
L 240.16343 192.432475 
L 241.735125 192.432475 
L 241.735125 188.782574 
L 242.167976 188.782574 
L 242.167976 185.132673 
L 242.623509 185.132673 
L 242.623509 181.482772 
L 243.24086 181.482772 
L 243.24086 177.832871 
L 243.70849 177.832871 
L 243.70849 174.18297 
L 247.857092 174.18297 
L 247.857092 170.533069 
L 272.666004 170.533069 
L 272.666004 166.883168 
L 290.578382 166.883168 
L 290.578382 163.233267 
L 291.96707 163.233267 
L 291.96707 159.583366 
L 292.464298 159.583366 
L 292.464298 155.933465 
L 294.645667 155.933465 
L 294.744456 148.633663 
L 295.630547 148.633663 
L 295.630547 144.983762 
L 298.38465 144.983762 
L 298.38465 141.333861 
L 298.746785 141.333861 
L 298.746785 137.68396 
L 299.745875 137.68396 
L 299.745875 134.034059 
L 304.481019 134.034059 
L 304.481019 130.384158 
L 307.604708 130.384158 
L 307.604708 126.734257 
L 308.274668 126.734257 
L 308.274668 123.084356 
L 308.386361 123.084356 
L 308.386361 119.434455 
L 311.816002 119.434455 
L 311.816002 115.784554 
L 312.430348 115.784554 
L 312.430348 112.134653 
L 312.870517 112.134653 
L 312.870517 108.484752 
L 313.159668 108.484752 
L 313.159668 104.834851 
L 314.232886 104.834851 
L 314.232886 101.18495 
L 319.041729 101.18495 
L 319.041729 97.53505 
L 319.742616 97.53505 
L 319.742616 93.885149 
L 320.032427 93.885149 
L 320.032427 90.235248 
L 321.683168 90.235248 
L 321.683168 86.585347 
L 324.407214 86.585347 
L 324.407214 82.935446 
L 324.804655 82.935446 
L 324.816188 75.635644 
L 326.739512 75.635644 
L 326.739512 71.985743 
L 327.308804 71.985743 
L 327.404878 64.685941 
L 327.966473 64.685941 
L 327.966473 61.03604 
L 330.605186 61.03604 
L 330.605186 57.386139 
L 331.666263 57.386139 
L 331.666263 53.736238 
L 332.427323 53.736238 
L 332.427323 50.086337 
L 335.707493 50.086337 
L 335.707493 46.436436 
L 337.393991 46.436436 
L 337.437574 39.136634 
L 337.544226 39.136634 
L 337.544226 35.486733 
L 339.664736 35.486733 
L 339.664736 31.836832 
L 340.986197 31.836832 
L 340.986197 28.186931 
L 342.79142 28.186931 
L 342.79142 24.53703 
L 343.542125 24.53703 
L 343.542125 20.887129 
L 345.117328 20.887129 
L 345.117328 17.237228 
L 345.905503 17.237228 
L 345.905503 13.587327 
L 346.166961 13.587327 
L 346.166961 9.937426 
L 364.32 9.937426 
L 364.32 9.937426 
" style="fill:none;stroke:#00bfbf;stroke-linecap:square;"/>
   </g>
   <g id="line2d_3">
    <path clip-path="url(#p9553e3c422)" d="M 188.980005 283.68 
L 188.980005 280.030099 
L 190.758259 280.030099 
L 190.758259 276.380198 
L 192.644637 276.380198 
L 192.644637 272.730297 
L 192.931239 272.730297 
L 192.946442 265.430495 
L 193.789896 265.430495 
L 193.789896 261.780594 
L 194.421946 261.780594 
L 194.421946 258.130693 
L 194.672782 258.130693 
L 194.672782 254.480792 
L 195.972161 254.480792 
L 195.972161 250.830891 
L 198.659668 250.830891 
L 198.659668 247.18099 
L 199.912064 247.18099 
L 199.912064 243.531089 
L 201.262319 243.531089 
L 201.35847 236.231287 
L 202.30139 236.231287 
L 202.30139 232.581386 
L 207.174424 232.581386 
L 207.174424 228.931485 
L 223.05708 228.931485 
L 223.05708 225.281584 
L 232.596738 225.281584 
L 232.596738 221.631683 
L 235.269167 221.631683 
L 235.269167 217.981782 
L 235.449985 217.981782 
L 235.449985 214.331881 
L 235.981949 214.331881 
L 235.981949 210.68198 
L 236.793094 210.68198 
L 236.793094 207.032079 
L 237.22891 207.032079 
L 237.22891 203.382178 
L 237.56503 203.382178 
L 237.56503 199.732277 
L 238.022455 199.732277 
L 238.022455 196.082376 
L 238.266067 196.082376 
L 238.266067 192.432475 
L 238.60064 192.432475 
L 238.60064 188.782574 
L 238.801056 188.782574 
L 238.801056 185.132673 
L 239.015526 185.132673 
L 239.015526 181.482772 
L 239.797809 181.482772 
L 239.797809 177.832871 
L 241.735125 177.832871 
L 241.735125 174.18297 
L 243.401254 174.18297 
L 243.401254 170.533069 
L 243.70849 170.533069 
L 243.70849 166.883168 
L 272.666004 166.883168 
L 272.666004 163.233267 
L 278.988289 163.233267 
L 278.988289 159.583366 
L 282.716874 159.583366 
L 282.716874 155.933465 
L 283.369279 155.933465 
L 283.369279 152.283564 
L 283.80485 152.283564 
L 283.80485 148.633663 
L 291.96707 148.633663 
L 291.96707 144.983762 
L 292.218869 144.983762 
L 292.218869 141.333861 
L 292.464298 141.333861 
L 292.464298 137.68396 
L 294.645667 137.68396 
L 294.645667 134.034059 
L 294.871318 134.034059 
L 294.871318 130.384158 
L 294.993643 130.384158 
L 294.993643 126.734257 
L 295.630547 126.734257 
L 295.630547 123.084356 
L 295.816497 123.084356 
L 295.816497 119.434455 
L 296.766696 119.434455 
L 296.766696 115.784554 
L 299.331554 115.784554 
L 299.331554 112.134653 
L 301.537047 112.134653 
L 301.537047 108.484752 
L 302.08808 108.484752 
L 302.08808 104.834851 
L 302.753091 104.834851 
L 302.753091 101.18495 
L 305.693667 101.18495 
L 305.693667 97.53505 
L 305.884789 97.53505 
L 305.884789 93.885149 
L 306.234434 93.885149 
L 306.234434 90.235248 
L 308.386361 90.235248 
L 308.386361 86.585347 
L 312.226939 86.585347 
L 312.226939 82.935446 
L 312.430348 82.935446 
L 312.430348 79.285545 
L 312.966078 79.285545 
L 312.966078 75.635644 
L 313.159668 75.635644 
L 313.159668 71.985743 
L 313.534392 71.985743 
L 313.534392 68.335842 
L 315.12959 68.335842 
L 315.12959 64.685941 
L 319.742616 64.685941 
L 319.742616 61.03604 
L 324.407214 61.03604 
L 324.407214 57.386139 
L 324.804655 57.386139 
L 324.804655 53.736238 
L 326.753529 53.736238 
L 326.753529 50.086337 
L 327.966473 50.086337 
L 327.966473 46.436436 
L 331.666263 46.436436 
L 331.666263 42.786535 
L 333.294414 42.786535 
L 333.294414 39.136634 
L 334.64612 39.136634 
L 334.64612 35.486733 
L 334.859382 35.486733 
L 334.859382 31.836832 
L 335.707493 31.836832 
L 335.707493 28.186931 
L 336.644394 28.186931 
L 336.644394 24.53703 
L 337.437574 24.53703 
L 337.437574 20.887129 
L 339.612422 20.887129 
L 339.612422 17.237228 
L 342.400656 17.237228 
L 342.400656 13.587327 
L 342.761283 13.587327 
L 342.761283 9.937426 
L 364.32 9.937426 
L 364.32 9.937426 
" style="fill:none;stroke:#bf00bf;stroke-linecap:square;"/>
   </g>
   <g id="line2d_4">
    <path clip-path="url(#p9553e3c422)" d="M 185.695092 283.68 
L 185.695092 280.030099 
L 187.615102 280.030099 
L 187.615102 276.380198 
L 190.758259 276.380198 
L 190.758259 272.730297 
L 190.911069 272.730297 
L 190.911069 269.080396 
L 192.374828 269.080396 
L 192.374828 265.430495 
L 192.644637 265.430495 
L 192.644637 261.780594 
L 192.931239 261.780594 
L 192.931239 258.130693 
L 193.789896 258.130693 
L 193.789896 254.480792 
L 194.421946 254.480792 
L 194.421946 250.830891 
L 194.597608 250.830891 
L 194.672782 243.531089 
L 195.972161 243.531089 
L 196.056371 236.231287 
L 199.916282 236.231287 
L 199.916282 232.581386 
L 201.35847 232.581386 
L 201.35847 228.931485 
L 223.05708 228.931485 
L 223.05708 225.281584 
L 229.779353 225.281584 
L 229.779353 221.631683 
L 230.109899 221.631683 
L 230.109899 217.981782 
L 232.596738 217.981782 
L 232.596738 214.331881 
L 232.71346 214.331881 
L 232.71346 210.68198 
L 233.022548 210.68198 
L 233.022548 207.032079 
L 234.163079 207.032079 
L 234.163079 203.382178 
L 234.562819 203.382178 
L 234.562819 199.732277 
L 235.269167 199.732277 
L 235.269167 196.082376 
L 235.981949 196.082376 
L 235.981949 192.432475 
L 236.564993 192.432475 
L 236.629894 177.832871 
L 237.22891 177.832871 
L 237.22891 174.18297 
L 237.56503 174.18297 
L 237.56503 170.533069 
L 238.588277 170.533069 
L 238.588277 166.883168 
L 243.70849 166.883168 
L 243.70849 163.233267 
L 262.667829 163.233267 
L 262.667829 159.583366 
L 272.441326 159.583366 
L 272.441326 155.933465 
L 272.666004 155.933465 
L 272.666004 152.283564 
L 273.483324 152.283564 
L 273.483324 148.633663 
L 278.192227 148.633663 
L 278.192227 144.983762 
L 278.988289 144.983762 
L 278.988289 141.333861 
L 281.323819 141.333861 
L 281.323819 137.68396 
L 282.716874 137.68396 
L 282.716874 134.034059 
L 283.369279 134.034059 
L 283.369279 130.384158 
L 283.80485 130.384158 
L 283.80485 126.734257 
L 286.37034 126.734257 
L 286.37034 123.084356 
L 289.904071 123.084356 
L 289.904071 119.434455 
L 292.464298 119.434455 
L 292.464298 115.784554 
L 293.126954 115.784554 
L 293.126954 112.134653 
L 293.441308 112.134653 
L 293.441308 108.484752 
L 294.79832 108.484752 
L 294.79832 104.834851 
L 295.630547 104.834851 
L 295.630547 101.18495 
L 295.816497 101.18495 
L 295.816497 97.53505 
L 296.145935 97.53505 
L 296.145935 93.885149 
L 296.541842 93.885149 
L 296.541842 90.235248 
L 298.096619 90.235248 
L 298.096619 86.585347 
L 301.537047 86.585347 
L 301.537047 82.935446 
L 302.086697 82.935446 
L 302.086697 79.285545 
L 304.494009 79.285545 
L 304.494009 75.635644 
L 305.884789 75.635644 
L 305.884789 71.985743 
L 307.159146 71.985743 
L 307.159146 68.335842 
L 310.151308 68.335842 
L 310.151308 64.685941 
L 313.534392 64.685941 
L 313.534392 61.03604 
L 315.12959 61.03604 
L 315.12959 57.386139 
L 316.66334 57.386139 
L 316.66334 53.736238 
L 322.267613 53.736238 
L 322.267613 50.086337 
L 324.407214 50.086337 
L 324.407214 46.436436 
L 324.542622 46.436436 
L 324.542622 42.786535 
L 324.804655 42.786535 
L 324.852794 35.486733 
L 326.753529 35.486733 
L 326.753529 31.836832 
L 327.806587 31.836832 
L 327.806587 28.186931 
L 327.966473 28.186931 
L 327.966473 24.53703 
L 329.310385 24.53703 
L 329.310385 20.887129 
L 330.194309 20.887129 
L 330.194309 17.237228 
L 332.798781 17.237228 
L 332.798781 13.587327 
L 335.260172 13.587327 
L 335.260172 9.937426 
L 364.32 9.937426 
L 364.32 9.937426 
" style="fill:none;stroke:#000000;stroke-linecap:square;"/>
   </g>
   <g id="line2d_5">
    <path clip-path="url(#p9553e3c422)" d="M 185.695092 283.68 
L 185.695092 280.030099 
L 186.117599 280.030099 
L 186.117599 276.380198 
L 187.013596 276.380198 
L 187.030484 269.080396 
L 187.615102 269.080396 
L 187.615102 265.430495 
L 188.974807 265.430495 
L 188.974807 261.780594 
L 190.041103 261.780594 
L 190.041103 258.130693 
L 190.758259 258.130693 
L 190.758259 254.480792 
L 190.911069 254.480792 
L 190.911069 250.830891 
L 192.374828 250.830891 
L 192.427757 243.531089 
L 192.967549 243.531089 
L 192.967549 239.881188 
L 193.986653 239.881188 
L 193.986653 236.231287 
L 194.597608 236.231287 
L 194.597608 232.581386 
L 194.747065 232.581386 
L 194.747065 228.931485 
L 210.667116 228.931485 
L 210.667116 225.281584 
L 216.942527 225.281584 
L 216.942527 221.631683 
L 220.997221 221.631683 
L 220.997221 217.981782 
L 221.896542 217.981782 
L 221.896542 214.331881 
L 223.05708 214.331881 
L 223.05708 210.68198 
L 223.685898 210.68198 
L 223.685898 207.032079 
L 224.211223 207.032079 
L 224.211223 203.382178 
L 224.519467 203.382178 
L 224.519467 199.732277 
L 228.697087 199.732277 
L 228.697087 196.082376 
L 228.892099 196.082376 
L 228.892099 192.432475 
L 229.779353 192.432475 
L 229.779353 188.782574 
L 231.181023 188.782574 
L 231.181023 185.132673 
L 232.018058 185.132673 
L 232.018058 181.482772 
L 232.490847 181.482772 
L 232.596738 174.18297 
L 233.022548 174.18297 
L 233.022548 170.533069 
L 233.786964 170.533069 
L 233.786964 166.883168 
L 234.458827 166.883168 
L 234.458827 163.233267 
L 234.574676 163.233267 
L 234.574676 159.583366 
L 235.243311 159.583366 
L 235.243311 155.933465 
L 238.588277 155.933465 
L 238.588277 152.283564 
L 240.711204 152.283564 
L 240.711204 148.633663 
L 249.349768 148.633663 
L 249.349768 144.983762 
L 252.215048 144.983762 
L 252.215048 141.333861 
L 252.658814 141.333861 
L 252.658814 137.68396 
L 257.066646 137.68396 
L 257.066646 134.034059 
L 262.667829 134.034059 
L 262.667829 130.384158 
L 263.040413 130.384158 
L 263.040413 126.734257 
L 266.438435 126.734257 
L 266.438435 123.084356 
L 266.584449 123.084356 
L 266.584449 119.434455 
L 273.191568 119.434455 
L 273.191568 115.784554 
L 273.483324 115.784554 
L 273.483324 112.134653 
L 280.568314 112.134653 
L 280.658475 104.834851 
L 283.109426 104.834851 
L 283.109426 101.18495 
L 283.80485 101.18495 
L 283.912783 93.885149 
L 285.991213 93.885149 
L 285.991213 90.235248 
L 286.77208 90.235248 
L 286.77208 86.585347 
L 287.248943 86.585347 
L 287.248943 82.935446 
L 287.522186 82.935446 
L 287.522186 79.285545 
L 288.02859 79.285545 
L 288.02859 75.635644 
L 293.126954 75.635644 
L 293.126954 71.985743 
L 294.79832 71.985743 
L 294.79832 68.335842 
L 296.145935 68.335842 
L 296.145935 64.685941 
L 310.151308 64.685941 
L 310.151308 61.03604 
L 311.523442 61.03604 
L 311.523442 57.386139 
L 316.66334 57.386139 
L 316.66334 53.736238 
L 319.081296 53.736238 
L 319.102849 46.436436 
L 319.423339 46.436436 
L 319.423339 42.786535 
L 320.47722 42.786535 
L 320.47722 39.136634 
L 320.780037 39.136634 
L 320.780037 35.486733 
L 322.261212 35.486733 
L 322.267613 28.186931 
L 324.049672 28.186931 
L 324.049672 24.53703 
L 324.382272 24.53703 
L 324.382272 20.887129 
L 324.542622 20.887129 
L 324.542622 17.237228 
L 324.804655 17.237228 
L 324.804655 13.587327 
L 327.54709 13.587327 
L 327.54709 9.937426 
L 364.32 9.937426 
L 364.32 9.937426 
" style="fill:none;stroke:#00bfbf;stroke-linecap:square;"/>
   </g>
   <g id="line2d_6">
    <path clip-path="url(#p9553e3c422)" d="M 167.979818 283.68 
L 167.979818 280.030099 
L 176.919365 280.030099 
L 176.919365 276.380198 
L 177.806109 276.380198 
L 177.806109 272.730297 
L 178.944886 272.730297 
L 178.944886 269.080396 
L 183.308356 269.080396 
L 183.308356 265.430495 
L 184.435014 265.430495 
L 184.445309 258.130693 
L 184.925754 258.130693 
L 184.925754 254.480792 
L 185.695092 254.480792 
L 185.695092 250.830891 
L 186.117599 250.830891 
L 186.117599 247.18099 
L 187.013596 247.18099 
L 187.013596 243.531089 
L 187.464337 243.531089 
L 187.464337 239.881188 
L 187.615102 239.881188 
L 187.615102 236.231287 
L 189.847744 236.231287 
L 189.847744 232.581386 
L 190.121119 232.581386 
L 190.121119 228.931485 
L 199.388164 228.931485 
L 199.388164 225.281584 
L 210.666709 225.281584 
L 210.666709 221.631683 
L 214.163383 221.631683 
L 214.163383 217.981782 
L 214.80468 217.981782 
L 214.80468 214.331881 
L 215.41853 214.331881 
L 215.41853 210.68198 
L 216.597654 210.68198 
L 216.597654 207.032079 
L 217.430936 207.032079 
L 217.430936 203.382178 
L 220.997221 203.382178 
L 220.997221 199.732277 
L 221.896542 199.732277 
L 221.896542 196.082376 
L 222.2636 196.082376 
L 222.2636 192.432475 
L 223.267627 192.432475 
L 223.267627 188.782574 
L 223.68564 188.782574 
L 223.685898 181.482772 
L 224.084159 181.482772 
L 224.151437 174.18297 
L 224.519467 174.18297 
L 224.56121 166.883168 
L 224.708223 166.883168 
L 224.746037 159.583366 
L 225.772999 159.583366 
L 225.772999 155.933465 
L 226.930324 155.933465 
L 226.930324 152.283564 
L 228.030245 152.283564 
L 228.030245 148.633663 
L 228.184037 148.633663 
L 228.184037 144.983762 
L 228.361624 144.983762 
L 228.413722 137.68396 
L 229.365093 137.68396 
L 229.365093 134.034059 
L 231.356909 134.034059 
L 231.400384 126.734257 
L 240.710543 126.734257 
L 240.710543 123.084356 
L 250.081958 123.084356 
L 250.081958 119.434455 
L 251.84528 119.434455 
L 251.84528 115.784554 
L 256.273403 115.784554 
L 256.356529 108.484752 
L 262.460314 108.484752 
L 262.460314 104.834851 
L 265.71973 104.834851 
L 265.71973 101.18495 
L 266.476031 101.18495 
L 266.476031 97.53505 
L 266.768767 97.53505 
L 266.768767 93.885149 
L 268.22231 93.885149 
L 268.22231 90.235248 
L 271.234744 90.235248 
L 271.234744 86.585347 
L 272.335215 86.585347 
L 272.335215 82.935446 
L 273.361305 82.935446 
L 273.361305 79.285545 
L 274.278876 79.285545 
L 274.278876 75.635644 
L 276.330933 75.635644 
L 276.330933 71.985743 
L 278.065092 71.985743 
L 278.065092 68.335842 
L 278.956581 68.335842 
L 278.956581 64.685941 
L 303.230302 64.685941 
L 303.230302 61.03604 
L 305.755425 61.03604 
L 305.755425 57.386139 
L 306.979907 57.386139 
L 306.979907 53.736238 
L 308.518828 53.736238 
L 308.518828 50.086337 
L 308.987049 50.086337 
L 308.987049 46.436436 
L 309.220877 46.436436 
L 309.220877 42.786535 
L 310.151308 42.786535 
L 310.151308 39.136634 
L 311.961286 39.136634 
L 311.961286 35.486733 
L 312.794464 35.486733 
L 312.794464 31.836832 
L 313.838026 31.836832 
L 313.838026 28.186931 
L 315.207277 28.186931 
L 315.207277 24.53703 
L 316.836637 24.53703 
L 316.836637 20.887129 
L 317.036607 20.887129 
L 317.036607 17.237228 
L 317.286509 17.237228 
L 317.286509 13.587327 
L 319.525566 13.587327 
L 319.525566 9.937426 
L 364.32 9.937426 
L 364.32 9.937426 
" style="fill:none;stroke:#bf00bf;stroke-linecap:square;"/>
   </g>
   <g id="patch_3">
    <path d="M 7.2 7.2 
L 364.32 7.2 
" style="fill:none;stroke:#000000;stroke-linecap:square;stroke-linejoin:miter;"/>
   </g>
   <g id="patch_4">
    <path d="M 364.32 283.68 
L 364.32 7.2 
" style="fill:none;stroke:#000000;stroke-linecap:square;stroke-linejoin:miter;"/>
   </g>
   <g id="patch_5">
    <path d="M 7.2 283.68 
L 364.32 283.68 
" style="fill:none;stroke:#000000;stroke-linecap:square;stroke-linejoin:miter;"/>
   </g>
   <g id="patch_6">
    <path d="M 7.2 283.68 
L 7.2 7.2 
" style="fill:none;stroke:#000000;stroke-linecap:square;stroke-linejoin:miter;"/>
   </g>
   <g id="matplotlib.axis_1">
    <g id="xtick_1">
     <g id="line2d_7">
      <path clip-path="url(#p9553e3c422)" d="M 49.133998 283.68 
L 49.133998 7.2 
" style="fill:none;stroke:#000000;stroke-dasharray:1.000000,3.000000;stroke-dashoffset:0.0;stroke-width:0.5;"/>
     </g>
     <g id="line2d_8">
      <defs>
       <path d="M 0 0 
L 0 -4 
" id="m4607f8bca7" style="stroke:#000000;stroke-width:0.5;"/>
      </defs>
      <g>
       <use style="stroke:#000000;stroke-width:0.5;" x="49.1339978514" xlink:href="#m4607f8bca7" y="283.68"/>
      </g>
     </g>
     <g id="line2d_9">
      <defs>
       <path d="M 0 0 
L 0 4 
" id="m139c5e8fbc" style="stroke:#000000;stroke-width:0.5;"/>
      </defs>
      <g>
       <use style="stroke:#000000;stroke-width:0.5;" x="49.1339978514" xlink:href="#m139c5e8fbc" y="7.2"/>
      </g>
     </g>
     <g id="text_1">
      <!-- -6 -->
      <defs>
       <path d="M 33.015625 40.375 
Q 26.375 40.375 22.484375 35.828125 
Q 18.609375 31.296875 18.609375 23.390625 
Q 18.609375 15.53125 22.484375 10.953125 
Q 26.375 6.390625 33.015625 6.390625 
Q 39.65625 6.390625 43.53125 10.953125 
Q 47.40625 15.53125 47.40625 23.390625 
Q 47.40625 31.296875 43.53125 35.828125 
Q 39.65625 40.375 33.015625 40.375 
M 52.59375 71.296875 
L 52.59375 62.3125 
Q 48.875 64.0625 45.09375 64.984375 
Q 41.3125 65.921875 37.59375 65.921875 
Q 27.828125 65.921875 22.671875 59.328125 
Q 17.53125 52.734375 16.796875 39.40625 
Q 19.671875 43.65625 24.015625 45.921875 
Q 28.375 48.1875 33.59375 48.1875 
Q 44.578125 48.1875 50.953125 41.515625 
Q 57.328125 34.859375 57.328125 23.390625 
Q 57.328125 12.15625 50.6875 5.359375 
Q 44.046875 -1.421875 33.015625 -1.421875 
Q 20.359375 -1.421875 13.671875 8.265625 
Q 6.984375 17.96875 6.984375 36.375 
Q 6.984375 53.65625 15.1875 63.9375 
Q 23.390625 74.21875 37.203125 74.21875 
Q 40.921875 74.21875 44.703125 73.484375 
Q 48.484375 72.75 52.59375 71.296875 
" id="BitstreamVeraSans-Roman-36"/>
       <path d="M 4.890625 31.390625 
L 31.203125 31.390625 
L 31.203125 23.390625 
L 4.890625 23.390625 
z
" id="BitstreamVeraSans-Roman-2d"/>
      </defs>
      <g transform="translate(39.1636853514 302.876875)scale(0.2 -0.2)">
       <use xlink:href="#BitstreamVeraSans-Roman-2d"/>
       <use x="36.083984375" xlink:href="#BitstreamVeraSans-Roman-36"/>
      </g>
     </g>
    </g>
    <g id="xtick_2">
     <g id="line2d_10">
      <path clip-path="url(#p9553e3c422)" d="M 91.158798 283.68 
L 91.158798 7.2 
" style="fill:none;stroke:#000000;stroke-dasharray:1.000000,3.000000;stroke-dashoffset:0.0;stroke-width:0.5;"/>
     </g>
     <g id="line2d_11">
      <g>
       <use style="stroke:#000000;stroke-width:0.5;" x="91.1587981379" xlink:href="#m4607f8bca7" y="283.68"/>
      </g>
     </g>
     <g id="line2d_12">
      <g>
       <use style="stroke:#000000;stroke-width:0.5;" x="91.1587981379" xlink:href="#m139c5e8fbc" y="7.2"/>
      </g>
     </g>
     <g id="text_2">
      <!-- -4 -->
      <defs>
       <path d="M 37.796875 64.3125 
L 12.890625 25.390625 
L 37.796875 25.390625 
z
M 35.203125 72.90625 
L 47.609375 72.90625 
L 47.609375 25.390625 
L 58.015625 25.390625 
L 58.015625 17.1875 
L 47.609375 17.1875 
L 47.609375 0 
L 37.796875 0 
L 37.796875 17.1875 
L 4.890625 17.1875 
L 4.890625 26.703125 
z
" id="BitstreamVeraSans-Roman-34"/>
      </defs>
      <g transform="translate(81.1884856379 302.876875)scale(0.2 -0.2)">
       <use xlink:href="#BitstreamVeraSans-Roman-2d"/>
       <use x="36.083984375" xlink:href="#BitstreamVeraSans-Roman-34"/>
      </g>
     </g>
    </g>
    <g id="xtick_3">
     <g id="line2d_13">
      <path clip-path="url(#p9553e3c422)" d="M 133.183598 283.68 
L 133.183598 7.2 
" style="fill:none;stroke:#000000;stroke-dasharray:1.000000,3.000000;stroke-dashoffset:0.0;stroke-width:0.5;"/>
     </g>
     <g id="line2d_14">
      <g>
       <use style="stroke:#000000;stroke-width:0.5;" x="133.183598424" xlink:href="#m4607f8bca7" y="283.68"/>
      </g>
     </g>
     <g id="line2d_15">
      <g>
       <use style="stroke:#000000;stroke-width:0.5;" x="133.183598424" xlink:href="#m139c5e8fbc" y="7.2"/>
      </g>
     </g>
     <g id="text_3">
      <!-- -2 -->
      <defs>
       <path d="M 19.1875 8.296875 
L 53.609375 8.296875 
L 53.609375 0 
L 7.328125 0 
L 7.328125 8.296875 
Q 12.9375 14.109375 22.625 23.890625 
Q 32.328125 33.6875 34.8125 36.53125 
Q 39.546875 41.84375 41.421875 45.53125 
Q 43.3125 49.21875 43.3125 52.78125 
Q 43.3125 58.59375 39.234375 62.25 
Q 35.15625 65.921875 28.609375 65.921875 
Q 23.96875 65.921875 18.8125 64.3125 
Q 13.671875 62.703125 7.8125 59.421875 
L 7.8125 69.390625 
Q 13.765625 71.78125 18.9375 73 
Q 24.125 74.21875 28.421875 74.21875 
Q 39.75 74.21875 46.484375 68.546875 
Q 53.21875 62.890625 53.21875 53.421875 
Q 53.21875 48.921875 51.53125 44.890625 
Q 49.859375 40.875 45.40625 35.40625 
Q 44.1875 33.984375 37.640625 27.21875 
Q 31.109375 20.453125 19.1875 8.296875 
" id="BitstreamVeraSans-Roman-32"/>
      </defs>
      <g transform="translate(123.213285924 302.876875)scale(0.2 -0.2)">
       <use xlink:href="#BitstreamVeraSans-Roman-2d"/>
       <use x="36.083984375" xlink:href="#BitstreamVeraSans-Roman-32"/>
      </g>
     </g>
    </g>
    <g id="xtick_4">
     <g id="line2d_16">
      <path clip-path="url(#p9553e3c422)" d="M 175.208399 283.68 
L 175.208399 7.2 
" style="fill:none;stroke:#000000;stroke-dasharray:1.000000,3.000000;stroke-dashoffset:0.0;stroke-width:0.5;"/>
     </g>
     <g id="line2d_17">
      <g>
       <use style="stroke:#000000;stroke-width:0.5;" x="175.208398711" xlink:href="#m4607f8bca7" y="283.68"/>
      </g>
     </g>
     <g id="line2d_18">
      <g>
       <use style="stroke:#000000;stroke-width:0.5;" x="175.208398711" xlink:href="#m139c5e8fbc" y="7.2"/>
      </g>
     </g>
     <g id="text_4">
      <!-- 0 -->
      <defs>
       <path d="M 31.78125 66.40625 
Q 24.171875 66.40625 20.328125 58.90625 
Q 16.5 51.421875 16.5 36.375 
Q 16.5 21.390625 20.328125 13.890625 
Q 24.171875 6.390625 31.78125 6.390625 
Q 39.453125 6.390625 43.28125 13.890625 
Q 47.125 21.390625 47.125 36.375 
Q 47.125 51.421875 43.28125 58.90625 
Q 39.453125 66.40625 31.78125 66.40625 
M 31.78125 74.21875 
Q 44.046875 74.21875 50.515625 64.515625 
Q 56.984375 54.828125 56.984375 36.375 
Q 56.984375 17.96875 50.515625 8.265625 
Q 44.046875 -1.421875 31.78125 -1.421875 
Q 19.53125 -1.421875 13.0625 8.265625 
Q 6.59375 17.96875 6.59375 36.375 
Q 6.59375 54.828125 13.0625 64.515625 
Q 19.53125 74.21875 31.78125 74.21875 
" id="BitstreamVeraSans-Roman-30"/>
      </defs>
      <g transform="translate(168.845898711 302.876875)scale(0.2 -0.2)">
       <use xlink:href="#BitstreamVeraSans-Roman-30"/>
      </g>
     </g>
    </g>
    <g id="xtick_5">
     <g id="line2d_19">
      <path clip-path="url(#p9553e3c422)" d="M 217.233199 283.68 
L 217.233199 7.2 
" style="fill:none;stroke:#000000;stroke-dasharray:1.000000,3.000000;stroke-dashoffset:0.0;stroke-width:0.5;"/>
     </g>
     <g id="line2d_20">
      <g>
       <use style="stroke:#000000;stroke-width:0.5;" x="217.233198997" xlink:href="#m4607f8bca7" y="283.68"/>
      </g>
     </g>
     <g id="line2d_21">
      <g>
       <use style="stroke:#000000;stroke-width:0.5;" x="217.233198997" xlink:href="#m139c5e8fbc" y="7.2"/>
      </g>
     </g>
     <g id="text_5">
      <!-- 2 -->
      <g transform="translate(210.870698997 302.876875)scale(0.2 -0.2)">
       <use xlink:href="#BitstreamVeraSans-Roman-32"/>
      </g>
     </g>
    </g>
    <g id="xtick_6">
     <g id="line2d_22">
      <path clip-path="url(#p9553e3c422)" d="M 259.257999 283.68 
L 259.257999 7.2 
" style="fill:none;stroke:#000000;stroke-dasharray:1.000000,3.000000;stroke-dashoffset:0.0;stroke-width:0.5;"/>
     </g>
     <g id="line2d_23">
      <g>
       <use style="stroke:#000000;stroke-width:0.5;" x="259.257999284" xlink:href="#m4607f8bca7" y="283.68"/>
      </g>
     </g>
     <g id="line2d_24">
      <g>
       <use style="stroke:#000000;stroke-width:0.5;" x="259.257999284" xlink:href="#m139c5e8fbc" y="7.2"/>
      </g>
     </g>
     <g id="text_6">
      <!-- 4 -->
      <g transform="translate(252.895499284 302.876875)scale(0.2 -0.2)">
       <use xlink:href="#BitstreamVeraSans-Roman-34"/>
      </g>
     </g>
    </g>
    <g id="xtick_7">
     <g id="line2d_25">
      <path clip-path="url(#p9553e3c422)" d="M 301.2828 283.68 
L 301.2828 7.2 
" style="fill:none;stroke:#000000;stroke-dasharray:1.000000,3.000000;stroke-dashoffset:0.0;stroke-width:0.5;"/>
     </g>
     <g id="line2d_26">
      <g>
       <use style="stroke:#000000;stroke-width:0.5;" x="301.28279957" xlink:href="#m4607f8bca7" y="283.68"/>
      </g>
     </g>
     <g id="line2d_27">
      <g>
       <use style="stroke:#000000;stroke-width:0.5;" x="301.28279957" xlink:href="#m139c5e8fbc" y="7.2"/>
      </g>
     </g>
     <g id="text_7">
      <!-- 6 -->
      <g transform="translate(294.92029957 302.876875)scale(0.2 -0.2)">
       <use xlink:href="#BitstreamVeraSans-Roman-36"/>
      </g>
     </g>
    </g>
    <g id="xtick_8">
     <g id="line2d_28">
      <path clip-path="url(#p9553e3c422)" d="M 343.3076 283.68 
L 343.3076 7.2 
" style="fill:none;stroke:#000000;stroke-dasharray:1.000000,3.000000;stroke-dashoffset:0.0;stroke-width:0.5;"/>
     </g>
     <g id="line2d_29">
      <g>
       <use style="stroke:#000000;stroke-width:0.5;" x="343.307599857" xlink:href="#m4607f8bca7" y="283.68"/>
      </g>
     </g>
     <g id="line2d_30">
      <g>
       <use style="stroke:#000000;stroke-width:0.5;" x="343.307599857" xlink:href="#m139c5e8fbc" y="7.2"/>
      </g>
     </g>
     <g id="text_8">
      <!-- 8 -->
      <defs>
       <path d="M 31.78125 34.625 
Q 24.75 34.625 20.71875 30.859375 
Q 16.703125 27.09375 16.703125 20.515625 
Q 16.703125 13.921875 20.71875 10.15625 
Q 24.75 6.390625 31.78125 6.390625 
Q 38.8125 6.390625 42.859375 10.171875 
Q 46.921875 13.96875 46.921875 20.515625 
Q 46.921875 27.09375 42.890625 30.859375 
Q 38.875 34.625 31.78125 34.625 
M 21.921875 38.8125 
Q 15.578125 40.375 12.03125 44.71875 
Q 8.5 49.078125 8.5 55.328125 
Q 8.5 64.0625 14.71875 69.140625 
Q 20.953125 74.21875 31.78125 74.21875 
Q 42.671875 74.21875 48.875 69.140625 
Q 55.078125 64.0625 55.078125 55.328125 
Q 55.078125 49.078125 51.53125 44.71875 
Q 48 40.375 41.703125 38.8125 
Q 48.828125 37.15625 52.796875 32.3125 
Q 56.78125 27.484375 56.78125 20.515625 
Q 56.78125 9.90625 50.3125 4.234375 
Q 43.84375 -1.421875 31.78125 -1.421875 
Q 19.734375 -1.421875 13.25 4.234375 
Q 6.78125 9.90625 6.78125 20.515625 
Q 6.78125 27.484375 10.78125 32.3125 
Q 14.796875 37.15625 21.921875 38.8125 
M 18.3125 54.390625 
Q 18.3125 48.734375 21.84375 45.5625 
Q 25.390625 42.390625 31.78125 42.390625 
Q 38.140625 42.390625 41.71875 45.5625 
Q 45.3125 48.734375 45.3125 54.390625 
Q 45.3125 60.0625 41.71875 63.234375 
Q 38.140625 66.40625 31.78125 66.40625 
Q 25.390625 66.40625 21.84375 63.234375 
Q 18.3125 60.0625 18.3125 54.390625 
" id="BitstreamVeraSans-Roman-38"/>
      </defs>
      <g transform="translate(336.945099857 302.876875)scale(0.2 -0.2)">
       <use xlink:href="#BitstreamVeraSans-Roman-38"/>
      </g>
     </g>
    </g>
    <g id="xtick_9">
     <g id="line2d_31">
      <defs>
       <path d="M 0 0 
L 0 -2 
" id="m5d7047d766" style="stroke:#000000;stroke-width:0.5;"/>
      </defs>
      <g>
       <use style="stroke:#000000;stroke-width:0.5;" x="49.1339978514" xlink:href="#m5d7047d766" y="283.68"/>
      </g>
     </g>
     <g id="line2d_32">
      <defs>
       <path d="M 0 0 
L 0 2 
" id="mcc001a96d9" style="stroke:#000000;stroke-width:0.5;"/>
      </defs>
      <g>
       <use style="stroke:#000000;stroke-width:0.5;" x="49.1339978514" xlink:href="#mcc001a96d9" y="7.2"/>
      </g>
     </g>
    </g>
    <g id="xtick_10">
     <g id="line2d_33">
      <g>
       <use style="stroke:#000000;stroke-width:0.5;" x="91.1587981379" xlink:href="#m5d7047d766" y="283.68"/>
      </g>
     </g>
     <g id="line2d_34">
      <g>
       <use style="stroke:#000000;stroke-width:0.5;" x="91.1587981379" xlink:href="#mcc001a96d9" y="7.2"/>
      </g>
     </g>
    </g>
    <g id="xtick_11">
     <g id="line2d_35">
      <g>
       <use style="stroke:#000000;stroke-width:0.5;" x="133.183598424" xlink:href="#m5d7047d766" y="283.68"/>
      </g>
     </g>
     <g id="line2d_36">
      <g>
       <use style="stroke:#000000;stroke-width:0.5;" x="133.183598424" xlink:href="#mcc001a96d9" y="7.2"/>
      </g>
     </g>
    </g>
    <g id="xtick_12">
     <g id="line2d_37">
      <g>
       <use style="stroke:#000000;stroke-width:0.5;" x="175.208398711" xlink:href="#m5d7047d766" y="283.68"/>
      </g>
     </g>
     <g id="line2d_38">
      <g>
       <use style="stroke:#000000;stroke-width:0.5;" x="175.208398711" xlink:href="#mcc001a96d9" y="7.2"/>
      </g>
     </g>
    </g>
    <g id="xtick_13">
     <g id="line2d_39">
      <g>
       <use style="stroke:#000000;stroke-width:0.5;" x="217.233198997" xlink:href="#m5d7047d766" y="283.68"/>
      </g>
     </g>
     <g id="line2d_40">
      <g>
       <use style="stroke:#000000;stroke-width:0.5;" x="217.233198997" xlink:href="#mcc001a96d9" y="7.2"/>
      </g>
     </g>
    </g>
    <g id="xtick_14">
     <g id="line2d_41">
      <g>
       <use style="stroke:#000000;stroke-width:0.5;" x="259.257999284" xlink:href="#m5d7047d766" y="283.68"/>
      </g>
     </g>
     <g id="line2d_42">
      <g>
       <use style="stroke:#000000;stroke-width:0.5;" x="259.257999284" xlink:href="#mcc001a96d9" y="7.2"/>
      </g>
     </g>
    </g>
    <g id="xtick_15">
     <g id="line2d_43">
      <g>
       <use style="stroke:#000000;stroke-width:0.5;" x="301.28279957" xlink:href="#m5d7047d766" y="283.68"/>
      </g>
     </g>
     <g id="line2d_44">
      <g>
       <use style="stroke:#000000;stroke-width:0.5;" x="301.28279957" xlink:href="#mcc001a96d9" y="7.2"/>
      </g>
     </g>
    </g>
    <g id="xtick_16">
     <g id="line2d_45">
      <g>
       <use style="stroke:#000000;stroke-width:0.5;" x="343.307599857" xlink:href="#m5d7047d766" y="283.68"/>
      </g>
     </g>
     <g id="line2d_46">
      <g>
       <use style="stroke:#000000;stroke-width:0.5;" x="343.307599857" xlink:href="#mcc001a96d9" y="7.2"/>
      </g>
     </g>
    </g>
    <g id="text_9">
     <!-- log10 of Df -->
     <defs>
      <path id="BitstreamVeraSans-Roman-20"/>
      <path d="M 12.40625 8.296875 
L 28.515625 8.296875 
L 28.515625 63.921875 
L 10.984375 60.40625 
L 10.984375 69.390625 
L 28.421875 72.90625 
L 38.28125 72.90625 
L 38.28125 8.296875 
L 54.390625 8.296875 
L 54.390625 0 
L 12.40625 0 
z
" id="BitstreamVeraSans-Roman-31"/>
      <path d="M 30.609375 48.390625 
Q 23.390625 48.390625 19.1875 42.75 
Q 14.984375 37.109375 14.984375 27.296875 
Q 14.984375 17.484375 19.15625 11.84375 
Q 23.34375 6.203125 30.609375 6.203125 
Q 37.796875 6.203125 41.984375 11.859375 
Q 46.1875 17.53125 46.1875 27.296875 
Q 46.1875 37.015625 41.984375 42.703125 
Q 37.796875 48.390625 30.609375 48.390625 
M 30.609375 56 
Q 42.328125 56 49.015625 48.375 
Q 55.71875 40.765625 55.71875 27.296875 
Q 55.71875 13.875 49.015625 6.21875 
Q 42.328125 -1.421875 30.609375 -1.421875 
Q 18.84375 -1.421875 12.171875 6.21875 
Q 5.515625 13.875 5.515625 27.296875 
Q 5.515625 40.765625 12.171875 48.375 
Q 18.84375 56 30.609375 56 
" id="BitstreamVeraSans-Roman-6f"/>
      <path d="M 9.421875 75.984375 
L 18.40625 75.984375 
L 18.40625 0 
L 9.421875 0 
z
" id="BitstreamVeraSans-Roman-6c"/>
      <path d="M 19.671875 64.796875 
L 19.671875 8.109375 
L 31.59375 8.109375 
Q 46.6875 8.109375 53.6875 14.9375 
Q 60.6875 21.78125 60.6875 36.53125 
Q 60.6875 51.171875 53.6875 57.984375 
Q 46.6875 64.796875 31.59375 64.796875 
z
M 9.8125 72.90625 
L 30.078125 72.90625 
Q 51.265625 72.90625 61.171875 64.09375 
Q 71.09375 55.28125 71.09375 36.53125 
Q 71.09375 17.671875 61.125 8.828125 
Q 51.171875 0 30.078125 0 
L 9.8125 0 
z
" id="BitstreamVeraSans-Roman-44"/>
      <path d="M 45.40625 27.984375 
Q 45.40625 37.75 41.375 43.109375 
Q 37.359375 48.484375 30.078125 48.484375 
Q 22.859375 48.484375 18.828125 43.109375 
Q 14.796875 37.75 14.796875 27.984375 
Q 14.796875 18.265625 18.828125 12.890625 
Q 22.859375 7.515625 30.078125 7.515625 
Q 37.359375 7.515625 41.375 12.890625 
Q 45.40625 18.265625 45.40625 27.984375 
M 54.390625 6.78125 
Q 54.390625 -7.171875 48.1875 -13.984375 
Q 42 -20.796875 29.203125 -20.796875 
Q 24.46875 -20.796875 20.265625 -20.09375 
Q 16.0625 -19.390625 12.109375 -17.921875 
L 12.109375 -9.1875 
Q 16.0625 -11.328125 19.921875 -12.34375 
Q 23.78125 -13.375 27.78125 -13.375 
Q 36.625 -13.375 41.015625 -8.765625 
Q 45.40625 -4.15625 45.40625 5.171875 
L 45.40625 9.625 
Q 42.625 4.78125 38.28125 2.390625 
Q 33.9375 0 27.875 0 
Q 17.828125 0 11.671875 7.65625 
Q 5.515625 15.328125 5.515625 27.984375 
Q 5.515625 40.671875 11.671875 48.328125 
Q 17.828125 56 27.875 56 
Q 33.9375 56 38.28125 53.609375 
Q 42.625 51.21875 45.40625 46.390625 
L 45.40625 54.6875 
L 54.390625 54.6875 
z
" id="BitstreamVeraSans-Roman-67"/>
      <path d="M 37.109375 75.984375 
L 37.109375 68.5 
L 28.515625 68.5 
Q 23.6875 68.5 21.796875 66.546875 
Q 19.921875 64.59375 19.921875 59.515625 
L 19.921875 54.6875 
L 34.71875 54.6875 
L 34.71875 47.703125 
L 19.921875 47.703125 
L 19.921875 0 
L 10.890625 0 
L 10.890625 47.703125 
L 2.296875 47.703125 
L 2.296875 54.6875 
L 10.890625 54.6875 
L 10.890625 58.5 
Q 10.890625 67.625 15.140625 71.796875 
Q 19.390625 75.984375 28.609375 75.984375 
z
" id="BitstreamVeraSans-Roman-66"/>
     </defs>
     <g transform="translate(130.5740625 327.233125)scale(0.2 -0.2)">
      <use xlink:href="#BitstreamVeraSans-Roman-6c"/>
      <use x="27.783203125" xlink:href="#BitstreamVeraSans-Roman-6f"/>
      <use x="88.96484375" xlink:href="#BitstreamVeraSans-Roman-67"/>
      <use x="152.44140625" xlink:href="#BitstreamVeraSans-Roman-31"/>
      <use x="216.064453125" xlink:href="#BitstreamVeraSans-Roman-30"/>
      <use x="279.6875" xlink:href="#BitstreamVeraSans-Roman-20"/>
      <use x="311.474609375" xlink:href="#BitstreamVeraSans-Roman-6f"/>
      <use x="372.65625" xlink:href="#BitstreamVeraSans-Roman-66"/>
      <use x="407.861328125" xlink:href="#BitstreamVeraSans-Roman-20"/>
      <use x="439.6484375" xlink:href="#BitstreamVeraSans-Roman-44"/>
      <use x="516.650390625" xlink:href="#BitstreamVeraSans-Roman-66"/>
     </g>
    </g>
   </g>
   <g id="matplotlib.axis_2">
    <g id="ytick_1">
     <g id="line2d_47">
      <path clip-path="url(#p9553e3c422)" d="M 7.2 283.68 
L 364.32 283.68 
" style="fill:none;stroke:#000000;stroke-dasharray:1.000000,3.000000;stroke-dashoffset:0.0;stroke-width:0.5;"/>
     </g>
     <g id="line2d_48">
      <defs>
       <path d="M 0 0 
L 4 0 
" id="m46c9b7ab19" style="stroke:#000000;stroke-width:0.5;"/>
      </defs>
      <g>
       <use style="stroke:#000000;stroke-width:0.5;" x="7.2" xlink:href="#m46c9b7ab19" y="283.68"/>
      </g>
     </g>
     <g id="line2d_49">
      <defs>
       <path d="M 0 0 
L -4 0 
" id="mee441c1566" style="stroke:#000000;stroke-width:0.5;"/>
      </defs>
      <g>
       <use style="stroke:#000000;stroke-width:0.5;" x="364.32" xlink:href="#mee441c1566" y="283.68"/>
      </g>
     </g>
    </g>
    <g id="ytick_2">
     <g id="line2d_50">
      <path clip-path="url(#p9553e3c422)" d="M 7.2 228.931485 
L 364.32 228.931485 
" style="fill:none;stroke:#000000;stroke-dasharray:1.000000,3.000000;stroke-dashoffset:0.0;stroke-width:0.5;"/>
     </g>
     <g id="line2d_51">
      <g>
       <use style="stroke:#000000;stroke-width:0.5;" x="7.2" xlink:href="#m46c9b7ab19" y="228.931485149"/>
      </g>
     </g>
     <g id="line2d_52">
      <g>
       <use style="stroke:#000000;stroke-width:0.5;" x="364.32" xlink:href="#mee441c1566" y="228.931485149"/>
      </g>
     </g>
    </g>
    <g id="ytick_3">
     <g id="line2d_53">
      <path clip-path="url(#p9553e3c422)" d="M 7.2 174.18297 
L 364.32 174.18297 
" style="fill:none;stroke:#000000;stroke-dasharray:1.000000,3.000000;stroke-dashoffset:0.0;stroke-width:0.5;"/>
     </g>
     <g id="line2d_54">
      <g>
       <use style="stroke:#000000;stroke-width:0.5;" x="7.2" xlink:href="#m46c9b7ab19" y="174.182970297"/>
      </g>
     </g>
     <g id="line2d_55">
      <g>
       <use style="stroke:#000000;stroke-width:0.5;" x="364.32" xlink:href="#mee441c1566" y="174.182970297"/>
      </g>
     </g>
    </g>
    <g id="ytick_4">
     <g id="line2d_56">
      <path clip-path="url(#p9553e3c422)" d="M 7.2 119.434455 
L 364.32 119.434455 
" style="fill:none;stroke:#000000;stroke-dasharray:1.000000,3.000000;stroke-dashoffset:0.0;stroke-width:0.5;"/>
     </g>
     <g id="line2d_57">
      <g>
       <use style="stroke:#000000;stroke-width:0.5;" x="7.2" xlink:href="#m46c9b7ab19" y="119.434455446"/>
      </g>
     </g>
     <g id="line2d_58">
      <g>
       <use style="stroke:#000000;stroke-width:0.5;" x="364.32" xlink:href="#mee441c1566" y="119.434455446"/>
      </g>
     </g>
    </g>
    <g id="ytick_5">
     <g id="line2d_59">
      <path clip-path="url(#p9553e3c422)" d="M 7.2 64.685941 
L 364.32 64.685941 
" style="fill:none;stroke:#000000;stroke-dasharray:1.000000,3.000000;stroke-dashoffset:0.0;stroke-width:0.5;"/>
     </g>
     <g id="line2d_60">
      <g>
       <use style="stroke:#000000;stroke-width:0.5;" x="7.2" xlink:href="#m46c9b7ab19" y="64.6859405941"/>
      </g>
     </g>
     <g id="line2d_61">
      <g>
       <use style="stroke:#000000;stroke-width:0.5;" x="364.32" xlink:href="#mee441c1566" y="64.6859405941"/>
      </g>
     </g>
    </g>
    <g id="ytick_6">
     <g id="line2d_62">
      <path clip-path="url(#p9553e3c422)" d="M 7.2 9.937426 
L 364.32 9.937426 
" style="fill:none;stroke:#000000;stroke-dasharray:1.000000,3.000000;stroke-dashoffset:0.0;stroke-width:0.5;"/>
     </g>
     <g id="line2d_63">
      <g>
       <use style="stroke:#000000;stroke-width:0.5;" x="7.2" xlink:href="#m46c9b7ab19" y="9.93742574257"/>
      </g>
     </g>
     <g id="line2d_64">
      <g>
       <use style="stroke:#000000;stroke-width:0.5;" x="364.32" xlink:href="#mee441c1566" y="9.93742574257"/>
      </g>
     </g>
    </g>
   </g>
   <g id="text_10">
    <!-- f10-14,5-D -->
    <defs>
     <path d="M 11.71875 12.40625 
L 22.015625 12.40625 
L 22.015625 4 
L 14.015625 -11.625 
L 7.71875 -11.625 
L 11.71875 4 
z
" id="BitstreamVeraSans-Roman-2c"/>
     <path d="M 10.796875 72.90625 
L 49.515625 72.90625 
L 49.515625 64.59375 
L 19.828125 64.59375 
L 19.828125 46.734375 
Q 21.96875 47.46875 24.109375 47.828125 
Q 26.265625 48.1875 28.421875 48.1875 
Q 40.625 48.1875 47.75 41.5 
Q 54.890625 34.8125 54.890625 23.390625 
Q 54.890625 11.625 47.5625 5.09375 
Q 40.234375 -1.421875 26.90625 -1.421875 
Q 22.3125 -1.421875 17.546875 -0.640625 
Q 12.796875 0.140625 7.71875 1.703125 
L 7.71875 11.625 
Q 12.109375 9.234375 16.796875 8.0625 
Q 21.484375 6.890625 26.703125 6.890625 
Q 35.15625 6.890625 40.078125 11.328125 
Q 45.015625 15.765625 45.015625 23.390625 
Q 45.015625 31 40.078125 35.4375 
Q 35.15625 39.890625 26.703125 39.890625 
Q 22.75 39.890625 18.8125 39.015625 
Q 14.890625 38.140625 10.796875 36.28125 
z
" id="BitstreamVeraSans-Roman-35"/>
    </defs>
    <g transform="translate(250.324475 278.1504)scale(0.2 -0.2)">
     <use xlink:href="#BitstreamVeraSans-Roman-66"/>
     <use x="35.205078125" xlink:href="#BitstreamVeraSans-Roman-31"/>
     <use x="98.828125" xlink:href="#BitstreamVeraSans-Roman-30"/>
     <use x="162.451171875" xlink:href="#BitstreamVeraSans-Roman-2d"/>
     <use x="198.53515625" xlink:href="#BitstreamVeraSans-Roman-31"/>
     <use x="262.158203125" xlink:href="#BitstreamVeraSans-Roman-34"/>
     <use x="325.78125" xlink:href="#BitstreamVeraSans-Roman-2c"/>
     <use x="357.568359375" xlink:href="#BitstreamVeraSans-Roman-35"/>
     <use x="421.19140625" xlink:href="#BitstreamVeraSans-Roman-2d"/>
     <use x="457.275390625" xlink:href="#BitstreamVeraSans-Roman-44"/>
    </g>
   </g>
  </g>
 </g>
 <defs>
  <clipPath id="p9553e3c422">
   <rect height="276.48" width="357.12" x="7.2" y="7.2"/>
  </clipPath>
 </defs>
</svg>
