<?xml version="1.0" encoding="utf-8" standalone="no"?>
<!DOCTYPE svg PUBLIC "-//W3C//DTD SVG 1.1//EN"
  "http://www.w3.org/Graphics/SVG/1.1/DTD/svg11.dtd">
<!-- Created with matplotlib (http://matplotlib.org/) -->
<svg height="345pt" version="1.1" viewBox="0 0 431 345" width="431pt" xmlns="http://www.w3.org/2000/svg" xmlns:xlink="http://www.w3.org/1999/xlink">
 <defs>
  <style type="text/css">
*{stroke-linecap:butt;stroke-linejoin:round;stroke-miterlimit:100000;}
  </style>
 </defs>
 <g id="figure_1">
  <g id="patch_1">
   <path d="M 0 345.533199 
L 431.6825 345.533199 
L 431.6825 0 
L 0 0 
z
" style="fill:#ffffff;"/>
  </g>
  <g id="axes_1">
   <g id="patch_2">
    <path d="M 67.3625 290.620699 
L 424.4825 290.620699 
L 424.4825 14.140699 
L 67.3625 14.140699 
z
" style="fill:#ffffff;"/>
   </g>
   <g id="line2d_1">
    <path clip-path="url(#pa0ad085d24)" d="M 306.018516 290.620699 
L 306.018516 286.058323 
L 309.668263 286.058323 
L 309.668263 281.495947 
L 320.921876 281.495947 
L 320.921876 276.933571 
L 326.474048 276.933571 
L 326.474048 272.371194 
L 335.395882 272.371194 
L 335.395882 267.808818 
L 338.213364 267.808818 
L 338.213364 263.246442 
L 341.634958 263.246442 
L 341.634958 258.684066 
L 346.271555 258.684066 
L 346.271555 254.121689 
L 347.500466 254.121689 
L 347.500466 249.559313 
L 349.808307 249.559313 
L 349.808307 244.996937 
L 350.02698 244.996937 
L 350.02698 240.434561 
L 354.737384 240.434561 
L 354.737384 235.872184 
L 354.916368 235.872184 
L 354.916368 231.309808 
L 355.272487 231.309808 
L 355.272487 226.747432 
L 356.28771 226.747432 
L 356.28771 222.185056 
L 359.346732 222.185056 
L 359.346732 217.622679 
L 361.819618 217.622679 
L 361.819618 213.060303 
L 364.790107 213.060303 
L 364.790107 208.497927 
L 367.878082 208.497927 
L 367.878082 203.935551 
L 368.216903 203.935551 
L 368.216903 199.373175 
L 369.09966 199.373175 
L 369.09966 194.810798 
L 377.017819 194.810798 
L 377.017819 190.248422 
L 378.787045 190.248422 
L 378.787045 185.686046 
L 386.048174 185.686046 
L 386.048174 181.12367 
L 386.113376 181.12367 
L 386.113376 176.561293 
L 388.032168 176.561293 
L 388.032168 171.998917 
L 388.105368 171.998917 
L 388.105368 167.436541 
L 388.147151 167.436541 
L 388.147151 162.874165 
L 388.261879 162.874165 
L 388.261879 158.311788 
L 402.219967 158.311788 
L 402.219967 153.749412 
L 404.079169 153.749412 
L 404.079169 149.187036 
L 404.590723 149.187036 
L 404.590723 144.62466 
L 407.241516 144.62466 
L 407.241516 140.062283 
L 410.547614 140.062283 
L 410.547614 135.499907 
L 412.73509 135.499907 
L 412.73509 130.937531 
L 413.476161 130.937531 
L 413.476161 126.375155 
L 415.833699 126.375155 
L 415.833699 121.812778 
L 418.566105 121.812778 
L 418.566105 117.250402 
L 421.617062 117.250402 
L 421.617062 112.688026 
L 425.709028 112.688026 
L 425.709028 108.12565 
L 429.94944 108.12565 
L 429.94944 103.563274 
L 432.6825 103.563274 
" style="fill:none;stroke:#f5deb3;stroke-linecap:square;"/>
   </g>
   <g id="line2d_2">
    <path clip-path="url(#pa0ad085d24)" d="M 365.247342 290.620699 
L 365.247342 286.058323 
L 367.552578 286.058323 
L 367.552578 281.495947 
L 369.009036 281.495947 
L 369.009036 276.933571 
L 369.175059 276.933571 
L 369.175059 272.371194 
L 371.488346 272.371194 
L 371.488346 267.808818 
L 373.091527 267.808818 
L 373.091527 263.246442 
L 377.108379 263.246442 
L 377.108379 258.684066 
L 380.8957 258.684066 
L 380.8957 254.121689 
L 387.400448 254.121689 
L 387.400448 249.559313 
L 390.554412 249.559313 
L 390.554412 244.996937 
L 393.092362 244.996937 
L 393.092362 240.434561 
L 398.288174 240.434561 
L 398.288174 235.872184 
L 406.080947 235.872184 
L 406.080947 231.309808 
L 408.489468 231.309808 
L 408.489468 226.747432 
L 413.495352 226.747432 
L 413.495352 222.185056 
L 432.6825 222.185056 
" style="fill:none;stroke:#f5deb3;stroke-linecap:square;"/>
   </g>
   <g id="line2d_3">
    <path clip-path="url(#pa0ad085d24)" style="fill:none;stroke:#f5deb3;stroke-linecap:square;"/>
   </g>
   <g id="line2d_4"/>
   <g id="line2d_5">
    <path clip-path="url(#pa0ad085d24)" d="M 304.724897 290.620699 
L 304.724897 286.058323 
L 308.706968 286.058323 
L 308.706968 281.495947 
L 311.031149 281.495947 
L 311.031149 276.933571 
L 313.388473 276.933571 
L 313.388473 272.371194 
L 321.45543 272.371194 
L 321.45543 267.808818 
L 322.133438 267.808818 
L 322.133438 263.246442 
L 325.325912 263.246442 
L 325.325912 258.684066 
L 329.221278 258.684066 
L 329.221278 254.121689 
L 330.254989 254.121689 
L 330.254989 249.559313 
L 330.85912 249.559313 
L 330.85912 244.996937 
L 334.549254 244.996937 
L 334.549254 240.434561 
L 339.083477 240.434561 
L 339.083477 235.872184 
L 340.230106 235.872184 
L 340.230106 231.309808 
L 340.571815 231.309808 
L 340.571815 226.747432 
L 341.916512 226.747432 
L 341.916512 222.185056 
L 342.449804 222.185056 
L 342.449804 217.622679 
L 344.139862 217.622679 
L 344.139862 213.060303 
L 345.252601 213.060303 
L 345.252601 208.497927 
L 348.611222 208.497927 
L 348.611222 203.935551 
L 349.235391 203.935551 
L 349.235391 199.373175 
L 349.983319 199.373175 
L 349.983319 194.810798 
L 350.806636 194.810798 
L 350.806636 190.248422 
L 356.403579 190.248422 
L 356.403579 185.686046 
L 356.768794 185.686046 
L 356.768794 181.12367 
L 360.357268 181.12367 
L 360.357268 176.561293 
L 364.113206 176.561293 
L 364.113206 171.998917 
L 364.904795 171.998917 
L 364.904795 167.436541 
L 366.101908 167.436541 
L 366.101908 162.874165 
L 366.261575 162.874165 
L 366.261575 158.311788 
L 366.325304 158.311788 
L 366.325304 153.749412 
L 368.354874 153.749412 
L 368.354874 149.187036 
L 369.714711 149.187036 
L 369.714711 144.62466 
L 369.714711 144.62466 
L 369.714711 140.062283 
L 372.628456 140.062283 
L 372.628456 135.499907 
L 373.091527 135.499907 
L 373.091527 130.937531 
L 373.231036 130.937531 
L 373.231036 126.375155 
L 375.971427 126.375155 
L 375.971427 121.812778 
L 376.024253 121.812778 
L 376.024253 117.250402 
L 376.353195 117.250402 
L 376.353195 112.688026 
L 376.510348 112.688026 
L 376.510348 108.12565 
L 380.108897 108.12565 
L 380.108897 103.563274 
L 381.051634 103.563274 
L 381.051634 99.000897 
L 381.906859 99.000897 
L 381.906859 94.438521 
L 387.113637 94.438521 
L 387.113637 89.876145 
L 389.068183 89.876145 
L 389.068183 85.313769 
L 424.80729 85.313769 
L 424.80729 80.751392 
L 425.840172 80.751392 
L 425.840172 76.189016 
L 428.082946 76.189016 
L 428.082946 71.62664 
L 428.448263 71.62664 
L 428.448263 67.064264 
L 430.743597 67.064264 
L 430.743597 62.501887 
L 431.081553 62.501887 
L 431.081553 57.939511 
L 431.485109 57.939511 
L 431.485109 53.377135 
L 431.584381 53.377135 
L 431.584381 48.814759 
L 432.509225 48.814759 
L 432.509225 44.252382 
L 432.6825 44.252382 
" style="fill:none;stroke:#f5deb3;stroke-linecap:square;"/>
   </g>
   <g id="line2d_6">
    <path clip-path="url(#pa0ad085d24)" d="M 250.364705 290.620699 
L 250.364705 286.058323 
L 256.837663 286.058323 
L 256.837663 281.495947 
L 257.232948 281.495947 
L 257.232948 276.933571 
L 261.149841 276.933571 
L 261.149841 272.371194 
L 268.085986 272.371194 
L 268.085986 267.808818 
L 269.451162 267.808818 
L 269.451162 263.246442 
L 284.690449 263.246442 
L 284.690449 258.684066 
L 293.990615 258.684066 
L 293.990615 254.121689 
L 324.259561 254.121689 
L 324.259561 249.559313 
L 331.79887 249.559313 
L 331.79887 244.996937 
L 349.035585 244.996937 
L 349.035585 240.434561 
L 362.612615 240.434561 
L 362.612615 235.872184 
L 368.078562 235.872184 
L 368.078562 231.309808 
L 377.979949 231.309808 
L 377.979949 226.747432 
L 398.638851 226.747432 
L 398.638851 222.185056 
L 403.017134 222.185056 
L 403.017134 217.622679 
L 430.839728 217.622679 
L 430.839728 213.060303 
L 431.458002 213.060303 
L 431.458002 208.497927 
L 432.322909 208.497927 
L 432.322909 203.935551 
L 432.6825 203.935551 
" style="fill:none;stroke:#f5deb3;stroke-linecap:square;"/>
   </g>
   <g id="line2d_7">
    <path clip-path="url(#pa0ad085d24)" d="M 301.089438 290.620699 
L 301.089438 286.058323 
L 302.421259 286.058323 
L 302.421259 281.495947 
L 304.829586 281.495947 
L 304.829586 276.933571 
L 305.401616 276.933571 
L 305.401616 272.371194 
L 306.120621 272.371194 
L 306.120621 267.808818 
L 312.449372 267.808818 
L 312.449372 263.246442 
L 313.07733 263.246442 
L 313.07733 258.684066 
L 313.210906 258.684066 
L 313.210906 254.121689 
L 318.249017 254.121689 
L 318.249017 249.559313 
L 321.379544 249.559313 
L 321.379544 244.996937 
L 325.149707 244.996937 
L 325.149707 240.434561 
L 326.816994 240.434561 
L 326.816994 235.872184 
L 333.808109 235.872184 
L 333.808109 231.309808 
L 334.842763 231.309808 
L 334.842763 226.747432 
L 336.200372 226.747432 
L 336.200372 222.185056 
L 338.459566 222.185056 
L 338.459566 217.622679 
L 341.248534 217.622679 
L 341.248534 213.060303 
L 343.771774 213.060303 
L 343.771774 208.497927 
L 347.270821 208.497927 
L 347.270821 203.935551 
L 349.720578 203.935551 
L 349.720578 199.373175 
L 350.785137 199.373175 
L 350.785137 194.810798 
L 352.28979 194.810798 
L 352.28979 190.248422 
L 354.196688 190.248422 
L 354.196688 185.686046 
L 355.704439 185.686046 
L 355.704439 181.12367 
L 361.10242 181.12367 
L 361.10242 176.561293 
L 361.593289 176.561293 
L 361.593289 171.998917 
L 367.50591 171.998917 
L 367.50591 167.436541 
L 370.204493 167.436541 
L 370.204493 162.874165 
L 370.996083 162.874165 
L 370.996083 158.311788 
L 373.495072 158.311788 
L 373.495072 153.749412 
L 374.510762 153.749412 
L 374.510762 149.187036 
L 381.350193 149.187036 
L 381.350193 144.62466 
L 382.399286 144.62466 
L 382.399286 140.062283 
L 382.736579 140.062283 
L 382.736579 135.499907 
L 384.357121 135.499907 
L 384.357121 130.937531 
L 385.115535 130.937531 
L 385.115535 126.375155 
L 385.57847 126.375155 
L 385.57847 121.812778 
L 389.578511 121.812778 
L 389.578511 117.250402 
L 394.042 117.250402 
L 394.042 112.688026 
L 394.496508 112.688026 
L 394.496508 108.12565 
L 394.772819 108.12565 
L 394.772819 103.563274 
L 397.370368 103.563274 
L 397.370368 99.000897 
L 403.024966 99.000897 
L 403.024966 94.438521 
L 404.946578 94.438521 
L 404.946578 89.876145 
L 414.995573 89.876145 
L 414.995573 85.313769 
L 432.6825 85.313769 
" style="fill:none;stroke:#f5deb3;stroke-linecap:square;"/>
   </g>
   <g id="line2d_8">
    <path clip-path="url(#pa0ad085d24)" d="M 286.136618 290.620699 
L 286.136618 286.058323 
L 312.49448 286.058323 
L 312.49448 281.495947 
L 314.959718 281.495947 
L 314.959718 276.933571 
L 316.900356 276.933571 
L 316.900356 272.371194 
L 320.998436 272.371194 
L 320.998436 267.808818 
L 325.676531 267.808818 
L 325.676531 263.246442 
L 327.394835 263.246442 
L 327.394835 258.684066 
L 329.96634 258.684066 
L 329.96634 254.121689 
L 331.581118 254.121689 
L 331.581118 249.559313 
L 346.295015 249.559313 
L 346.295015 244.996937 
L 346.295015 244.996937 
L 346.295015 240.434561 
L 354.797114 240.434561 
L 354.797114 235.872184 
L 359.546795 235.872184 
L 359.546795 231.309808 
L 360.321516 231.309808 
L 360.321516 226.747432 
L 368.903107 226.747432 
L 368.903107 222.185056 
L 369.024151 222.185056 
L 369.024151 217.622679 
L 374.442759 217.622679 
L 374.442759 213.060303 
L 386.782361 213.060303 
L 386.782361 208.497927 
L 388.738911 208.497927 
L 388.738911 203.935551 
L 388.872931 203.935551 
L 388.872931 199.373175 
L 402.545053 199.373175 
L 402.545053 194.810798 
L 402.592455 194.810798 
L 402.592455 190.248422 
L 403.856171 190.248422 
L 403.856171 185.686046 
L 408.411906 185.686046 
L 408.411906 181.12367 
L 410.160225 181.12367 
L 410.160225 176.561293 
L 410.770572 176.561293 
L 410.770572 171.998917 
L 414.067791 171.998917 
L 414.067791 167.436541 
L 430.33419 167.436541 
L 430.33419 162.874165 
L 432.6825 162.874165 
" style="fill:none;stroke:#f5deb3;stroke-linecap:square;"/>
   </g>
   <g id="line2d_9">
    <path clip-path="url(#pa0ad085d24)" style="fill:none;stroke:#f5deb3;stroke-linecap:square;"/>
   </g>
   <g id="line2d_10">
    <path clip-path="url(#pa0ad085d24)" d="M 326.816994 290.620699 
L 326.816994 286.058323 
L 331.612281 286.058323 
L 331.612281 281.495947 
L 335.395882 281.495947 
L 335.395882 276.933571 
L 342.221923 276.933571 
L 342.221923 272.371194 
L 342.752091 272.371194 
L 342.752091 267.808818 
L 348.723235 267.808818 
L 348.723235 263.246442 
L 349.191056 263.246442 
L 349.191056 258.684066 
L 350.114191 258.684066 
L 350.114191 254.121689 
L 350.569652 254.121689 
L 350.569652 249.559313 
L 351.021137 249.559313 
L 351.021137 244.996937 
L 352.352413 244.996937 
L 352.352413 240.434561 
L 353.650278 240.434561 
L 353.650278 235.872184 
L 356.152201 235.872184 
L 356.152201 231.309808 
L 356.959982 231.309808 
L 356.959982 226.747432 
L 360.446542 226.747432 
L 360.446542 222.185056 
L 360.819817 222.185056 
L 360.819817 217.622679 
L 363.712821 217.622679 
L 363.712821 213.060303 
L 364.063327 213.060303 
L 364.063327 208.497927 
L 364.757292 208.497927 
L 364.757292 203.935551 
L 366.117896 203.935551 
L 366.117896 199.373175 
L 366.452527 199.373175 
L 366.452527 194.810798 
L 367.769808 194.810798 
L 367.769808 190.248422 
L 368.736207 190.248422 
L 368.736207 185.686046 
L 369.370584 185.686046 
L 369.370584 181.12367 
L 370.616459 181.12367 
L 370.616459 176.561293 
L 371.22832 176.561293 
L 371.22832 171.998917 
L 371.833026 171.998917 
L 371.833026 167.436541 
L 372.430743 167.436541 
L 372.430743 162.874165 
L 372.430743 162.874165 
L 372.430743 158.311788 
L 373.314562 158.311788 
L 373.314562 153.749412 
L 374.754835 153.749412 
L 374.754835 149.187036 
L 375.319897 149.187036 
L 375.319897 144.62466 
L 376.156081 144.62466 
L 376.156081 140.062283 
L 378.849572 140.062283 
L 378.849572 135.499907 
L 379.371837 135.499907 
L 379.371837 130.937531 
L 379.371837 130.937531 
L 379.371837 126.375155 
L 379.88888 126.375155 
L 379.88888 121.812778 
L 382.153659 121.812778 
L 382.153659 117.250402 
L 382.153659 117.250402 
L 382.153659 112.688026 
L 383.610223 112.688026 
L 383.610223 108.12565 
L 383.610223 108.12565 
L 383.610223 103.563274 
L 387.527411 103.563274 
L 387.527411 99.000897 
L 390.961432 99.000897 
L 390.961432 94.438521 
L 393.196638 94.438521 
L 393.196638 89.876145 
L 407.97255 89.876145 
L 407.97255 85.313769 
L 407.97255 85.313769 
L 407.97255 85.313769 
L 424.4825 85.313769 
" style="fill:none;stroke:#f5deb3;stroke-linecap:square;"/>
   </g>
   <g id="line2d_11">
    <path clip-path="url(#pa0ad085d24)" d="M 313.609577 290.620699 
L 313.609577 286.058323 
L 318.369896 286.058323 
L 318.369896 281.495947 
L 330.922304 281.495947 
L 330.922304 276.933571 
L 333.47861 276.933571 
L 333.47861 272.371194 
L 335.279926 272.371194 
L 335.279926 267.808818 
L 347.500466 267.808818 
L 347.500466 263.246442 
L 349.257544 263.246442 
L 349.257544 258.684066 
L 353.180221 258.684066 
L 353.180221 254.121689 
L 354.697526 254.121689 
L 354.697526 249.559313 
L 355.213303 249.559313 
L 355.213303 244.996937 
L 361.401003 244.996937 
L 361.401003 240.434561 
L 361.871708 240.434561 
L 361.871708 235.872184 
L 364.030048 235.872184 
L 364.030048 231.309808 
L 365.247342 231.309808 
L 365.247342 226.747432 
L 367.84717 226.747432 
L 367.84717 222.185056 
L 368.20155 222.185056 
L 368.20155 217.622679 
L 368.978793 217.622679 
L 368.978793 213.060303 
L 373.203164 213.060303 
L 373.203164 208.497927 
L 373.244966 208.497927 
L 373.244966 203.935551 
L 373.384063 203.935551 
L 373.384063 199.373175 
L 374.115095 199.373175 
L 374.115095 194.810798 
L 375.759584 194.810798 
L 375.759584 190.248422 
L 377.404822 190.248422 
L 377.404822 185.686046 
L 380.425056 185.686046 
L 380.425056 181.12367 
L 380.91972 181.12367 
L 380.91972 176.561293 
L 381.682545 176.561293 
L 381.682545 171.998917 
L 384.368355 171.998917 
L 384.368355 167.436541 
L 385.358541 167.436541 
L 385.358541 162.874165 
L 389.608971 162.874165 
L 389.608971 158.311788 
L 390.023471 158.311788 
L 390.023471 153.749412 
L 390.334682 153.749412 
L 390.334682 149.187036 
L 395.89051 149.187036 
L 395.89051 144.62466 
L 396.993356 144.62466 
L 396.993356 140.062283 
L 398.860006 140.062283 
L 398.860006 135.499907 
L 398.893946 135.499907 
L 398.893946 130.937531 
L 399.99335 130.937531 
L 399.99335 126.375155 
L 401.587762 126.375155 
L 401.587762 121.812778 
L 402.946596 121.812778 
L 402.946596 117.250402 
L 403.290538 117.250402 
L 403.290538 112.688026 
L 403.585749 112.688026 
L 403.585749 108.12565 
L 408.072086 108.12565 
L 408.072086 103.563274 
L 416.211324 103.563274 
L 416.211324 99.000897 
L 418.333646 99.000897 
L 418.333646 94.438521 
L 418.542906 94.438521 
L 418.542906 89.876145 
L 427.344478 89.876145 
L 427.344478 85.313769 
L 432.6825 85.313769 
" style="fill:none;stroke:#f5deb3;stroke-linecap:square;"/>
   </g>
   <g id="line2d_12">
    <path clip-path="url(#pa0ad085d24)" d="M 291.817623 290.620699 
L 291.817623 286.058323 
L 295.827635 286.058323 
L 295.827635 281.495947 
L 298.258925 281.495947 
L 298.258925 276.933571 
L 303.932904 276.933571 
L 303.932904 272.371194 
L 307.924856 272.371194 
L 307.924856 267.808818 
L 309.045458 267.808818 
L 309.045458 263.246442 
L 310.189457 263.246442 
L 310.189457 258.684066 
L 311.996116 258.684066 
L 311.996116 254.121689 
L 312.313812 254.121689 
L 312.313812 249.559313 
L 312.49448 249.559313 
L 312.49448 244.996937 
L 314.441255 244.996937 
L 314.441255 240.434561 
L 318.046922 240.434561 
L 318.046922 235.872184 
L 318.369896 235.872184 
L 318.369896 231.309808 
L 319.524057 231.309808 
L 319.524057 226.747432 
L 325.008309 226.747432 
L 325.008309 222.185056 
L 327.259452 222.185056 
L 327.259452 217.622679 
L 328.432204 217.622679 
L 328.432204 213.060303 
L 328.663597 213.060303 
L 328.663597 208.497927 
L 328.861113 208.497927 
L 328.861113 203.935551 
L 330.605609 203.935551 
L 330.605609 199.373175 
L 333.056189 199.373175 
L 333.056189 194.810798 
L 335.250897 194.810798 
L 335.250897 190.248422 
L 336.569673 190.248422 
L 336.569673 185.686046 
L 336.711013 185.686046 
L 336.711013 181.12367 
L 338.894387 181.12367 
L 338.894387 176.561293 
L 344.115405 176.561293 
L 344.115405 171.998917 
L 344.33511 171.998917 
L 344.33511 167.436541 
L 350.785137 167.436541 
L 350.785137 162.874165 
L 351.807144 162.874165 
L 351.807144 158.311788 
L 353.262277 158.311788 
L 353.262277 153.749412 
L 353.954551 153.749412 
L 353.954551 149.187036 
L 355.410318 149.187036 
L 355.410318 144.62466 
L 358.353221 144.62466 
L 358.353221 140.062283 
L 358.631116 140.062283 
L 358.631116 135.499907 
L 361.540918 135.499907 
L 361.540918 130.937531 
L 361.85435 130.937531 
L 361.85435 126.375155 
L 365.361022 126.375155 
L 365.361022 121.812778 
L 377.890904 121.812778 
L 377.890904 117.250402 
L 380.91972 117.250402 
L 380.91972 112.688026 
L 384.54777 112.688026 
L 384.54777 108.12565 
L 389.232037 108.12565 
L 389.232037 103.563274 
L 394.367055 103.563274 
L 394.367055 99.000897 
L 395.538728 99.000897 
L 395.538728 94.438521 
L 396.453765 94.438521 
L 396.453765 89.876145 
L 398.724023 89.876145 
L 398.724023 85.313769 
L 399.291083 85.313769 
L 399.291083 80.751392 
L 400.784435 80.751392 
L 400.784435 76.189016 
L 400.898797 76.189016 
L 400.898797 71.62664 
L 402.702893 71.62664 
L 402.702893 67.064264 
L 405.10479 67.064264 
L 405.10479 62.501887 
L 407.082479 62.501887 
L 407.082479 57.939511 
L 410.76383 57.939511 
L 410.76383 53.377135 
L 410.999286 53.377135 
L 410.999286 48.814759 
L 413.039247 48.814759 
L 413.039247 44.252382 
L 413.788723 44.252382 
L 413.788723 39.690006 
L 414.914742 39.690006 
L 414.914742 35.12763 
L 417.493956 35.12763 
L 417.493956 30.565254 
L 426.371421 30.565254 
L 426.371421 26.002877 
L 431.620433 26.002877 
L 431.620433 21.440501 
L 432.6825 21.440501 
" style="fill:none;stroke:#f5deb3;stroke-linecap:square;"/>
   </g>
   <g id="line2d_13">
    <path clip-path="url(#pa0ad085d24)" d="M 366.00587 290.620699 
L 366.00587 286.058323 
L 369.655027 286.058323 
L 369.655027 281.495947 
L 374.87644 281.495947 
L 374.87644 276.933571 
L 380.703133 276.933571 
L 380.703133 272.371194 
L 380.727243 272.371194 
L 380.727243 267.808818 
L 384.368355 267.808818 
L 384.368355 263.246442 
L 384.626068 263.246442 
L 384.626068 258.684066 
L 387.90644 258.684066 
L 387.90644 254.121689 
L 388.157591 254.121689 
L 388.157591 249.559313 
L 390.404698 249.559313 
L 390.404698 244.996937 
L 397.169052 244.996937 
L 397.169052 240.434561 
L 398.339641 240.434561 
L 398.339641 235.872184 
L 399.147789 235.872184 
L 399.147789 231.309808 
L 401.14301 231.309808 
L 401.14301 226.747432 
L 412.546523 226.747432 
L 412.546523 222.185056 
L 432.6825 222.185056 
" style="fill:none;stroke:#f5deb3;stroke-linecap:square;"/>
   </g>
   <g id="line2d_14">
    <path clip-path="url(#pa0ad085d24)" d="M 368.933395 290.620699 
L 368.933395 286.058323 
L 373.536639 286.058323 
L 373.536639 281.495947 
L 374.306485 281.495947 
L 374.306485 276.933571 
L 374.727772 276.933571 
L 374.727772 272.371194 
L 378.862069 272.371194 
L 378.862069 267.808818 
L 383.450393 267.808818 
L 383.450393 263.246442 
L 384.289665 263.246442 
L 384.289665 258.684066 
L 396.230985 258.684066 
L 396.230985 254.121689 
L 399.951814 254.121689 
L 399.951814 249.559313 
L 400.340939 249.559313 
L 400.340939 244.996937 
L 400.857982 244.996937 
L 400.857982 240.434561 
L 400.988476 240.434561 
L 400.988476 235.872184 
L 401.539429 235.872184 
L 401.539429 231.309808 
L 401.892825 231.309808 
L 401.892825 226.747432 
L 402.820957 226.747432 
L 402.820957 222.185056 
L 405.277515 222.185056 
L 405.277515 217.622679 
L 409.934614 217.622679 
L 409.934614 213.060303 
L 410.016768 213.060303 
L 410.016768 208.497927 
L 411.513547 208.497927 
L 411.513547 203.935551 
L 414.15627 203.935551 
L 414.15627 199.373175 
L 414.61519 199.373175 
L 414.61519 194.810798 
L 415.980203 194.810798 
L 415.980203 190.248422 
L 416.350713 190.248422 
L 416.350713 185.686046 
L 416.52593 185.686046 
L 416.52593 181.12367 
L 417.012207 181.12367 
L 417.012207 176.561293 
L 417.41694 176.561293 
L 417.41694 171.998917 
L 417.982987 171.998917 
L 417.982987 167.436541 
L 420.618084 167.436541 
L 420.618084 162.874165 
L 420.734982 162.874165 
L 420.734982 158.311788 
L 422.752419 158.311788 
L 422.752419 153.749412 
L 423.527327 153.749412 
L 423.527327 149.187036 
L 428.672898 149.187036 
L 428.672898 144.62466 
L 432.6825 144.62466 
" style="fill:none;stroke:#f5deb3;stroke-linecap:square;"/>
   </g>
   <g id="line2d_15">
    <path clip-path="url(#pa0ad085d24)" d="M 384.915858 290.620699 
L 384.915858 286.058323 
L 390.34469 286.058323 
L 390.34469 281.495947 
L 401.224159 281.495947 
L 401.224159 276.933571 
L 402.426356 276.933571 
L 402.426356 272.371194 
L 407.241516 272.371194 
L 407.241516 267.808818 
L 410.391648 267.808818 
L 410.391648 263.246442 
L 412.474817 263.246442 
L 412.474817 258.684066 
L 412.702628 258.684066 
L 412.702628 254.121689 
L 417.197111 254.121689 
L 417.197111 249.559313 
L 417.671248 249.559313 
L 417.671248 244.996937 
L 418.583497 244.996937 
L 418.583497 240.434561 
L 419.53118 240.434561 
L 419.53118 235.872184 
L 422.01999 235.872184 
L 422.01999 231.309808 
L 424.087956 231.309808 
L 424.087956 226.747432 
L 426.78857 226.747432 
L 426.78857 222.185056 
L 428.30917 222.185056 
L 428.30917 217.622679 
L 432.411715 217.622679 
L 432.411715 213.060303 
L 432.6825 213.060303 
" style="fill:none;stroke:#f5deb3;stroke-linecap:square;"/>
   </g>
   <g id="line2d_16">
    <path clip-path="url(#pa0ad085d24)" d="M 253.420557 290.620699 
L 253.420557 286.058323 
L 260.290952 286.058323 
L 260.290952 281.495947 
L 271.183688 281.495947 
L 271.183688 276.933571 
L 287.907387 276.933571 
L 287.907387 272.371194 
L 300.524229 272.371194 
L 300.524229 267.808818 
L 310.984746 267.808818 
L 310.984746 263.246442 
L 313.697754 263.246442 
L 313.697754 258.684066 
L 317.681148 258.684066 
L 317.681148 254.121689 
L 318.490494 254.121689 
L 318.490494 249.559313 
L 319.009857 249.559313 
L 319.009857 244.996937 
L 319.168618 244.996937 
L 319.168618 240.434561 
L 321.379544 240.434561 
L 321.379544 235.872184 
L 323.609035 235.872184 
L 323.609035 231.309808 
L 324.079679 231.309808 
L 324.079679 226.747432 
L 328.5315 226.747432 
L 328.5315 222.185056 
L 330.73252 222.185056 
L 330.73252 217.622679 
L 331.111395 217.622679 
L 331.111395 213.060303 
L 331.549935 213.060303 
L 331.549935 208.497927 
L 331.643426 208.497927 
L 331.643426 203.935551 
L 332.813247 203.935551 
L 332.813247 199.373175 
L 333.95719 199.373175 
L 333.95719 194.810798 
L 335.105504 194.810798 
L 335.105504 190.248422 
L 335.337937 190.248422 
L 335.337937 185.686046 
L 335.857122 185.686046 
L 335.857122 181.12367 
L 338.048575 181.12367 
L 338.048575 176.561293 
L 339.19122 176.561293 
L 339.19122 171.998917 
L 340.676504 171.998917 
L 340.676504 167.436541 
L 342.424533 167.436541 
L 342.424533 162.874165 
L 343.845602 162.874165 
L 343.845602 158.311788 
L 351.042538 158.311788 
L 351.042538 153.749412 
L 351.21343 153.749412 
L 351.21343 149.187036 
L 353.241775 149.187036 
L 353.241775 144.62466 
L 354.437695 144.62466 
L 354.437695 140.062283 
L 354.517782 140.062283 
L 354.517782 135.499907 
L 355.704439 135.499907 
L 355.704439 130.937531 
L 356.442144 130.937531 
L 356.442144 126.375155 
L 358.427472 126.375155 
L 358.427472 121.812778 
L 358.833961 121.812778 
L 358.833961 117.250402 
L 358.870757 117.250402 
L 358.870757 112.688026 
L 359.998625 112.688026 
L 359.998625 108.12565 
L 361.941079 108.12565 
L 361.941079 103.563274 
L 362.54414 103.563274 
L 362.54414 99.000897 
L 363.10637 99.000897 
L 363.10637 94.438521 
L 366.674417 94.438521 
L 366.674417 89.876145 
L 367.707835 89.876145 
L 367.707835 85.313769 
L 369.565372 85.313769 
L 369.565372 80.751392 
L 369.997273 80.751392 
L 369.997273 76.189016 
L 370.115786 76.189016 
L 370.115786 71.62664 
L 371.574732 71.62664 
L 371.574732 67.064264 
L 386.351749 67.064264 
L 386.351749 62.501887 
L 386.599789 62.501887 
L 386.599789 57.939511 
L 386.610547 57.939511 
L 386.610547 53.377135 
L 390.673871 53.377135 
L 390.673871 48.814759 
L 390.812894 48.814759 
L 390.812894 44.252382 
L 391.736772 44.252382 
L 391.736772 39.690006 
L 407.183741 39.690006 
L 407.183741 35.12763 
L 424.899714 35.12763 
L 424.899714 30.565254 
L 425.562358 30.565254 
L 425.562358 26.002877 
L 432.6825 26.002877 
" style="fill:none;stroke:#f5deb3;stroke-linecap:square;"/>
   </g>
   <g id="line2d_17">
    <path clip-path="url(#pa0ad085d24)" style="fill:none;stroke:#f5deb3;stroke-linecap:square;"/>
   </g>
   <g id="line2d_18">
    <path clip-path="url(#pa0ad085d24)" d="M 282.402099 290.620699 
L 282.402099 286.058323 
L 285.304298 286.058323 
L 285.304298 281.495947 
L 294.440044 281.495947 
L 294.440044 276.933571 
L 318.570736 276.933571 
L 318.570736 272.371194 
L 322.765718 272.371194 
L 322.765718 267.808818 
L 327.157682 267.808818 
L 327.157682 263.246442 
L 328.399064 263.246442 
L 328.399064 258.684066 
L 339.21812 258.684066 
L 339.21812 254.121689 
L 339.806418 254.121689 
L 339.806418 249.559313 
L 339.886124 249.559313 
L 339.886124 244.996937 
L 342.550762 244.996937 
L 342.550762 240.434561 
L 343.002654 240.434561 
L 343.002654 235.872184 
L 353.036308 235.872184 
L 353.036308 231.309808 
L 359.255538 231.309808 
L 359.255538 226.747432 
L 361.85435 226.747432 
L 361.85435 222.185056 
L 365.684451 222.185056 
L 365.684451 217.622679 
L 369.774326 217.622679 
L 369.774326 213.060303 
L 375.480216 213.060303 
L 375.480216 208.497927 
L 376.914128 208.497927 
L 376.914128 203.935551 
L 378.106891 203.935551 
L 378.106891 199.373175 
L 378.119568 199.373175 
L 378.119568 194.810798 
L 378.874562 194.810798 
L 378.874562 190.248422 
L 378.936983 190.248422 
L 378.936983 185.686046 
L 382.29416 185.686046 
L 382.29416 181.12367 
L 382.410953 181.12367 
L 382.410953 176.561293 
L 384.737718 176.561293 
L 384.737718 171.998917 
L 385.950216 171.998917 
L 385.950216 167.436541 
L 387.347454 167.436541 
L 387.347454 162.874165 
L 389.831799 162.874165 
L 389.831799 158.311788 
L 390.144162 158.311788 
L 390.144162 153.749412 
L 393.310155 153.749412 
L 393.310155 149.187036 
L 399.885287 149.187036 
L 399.885287 144.62466 
L 400.274912 144.62466 
L 400.274912 140.062283 
L 400.74353 140.062283 
L 400.74353 135.499907 
L 403.313906 135.499907 
L 403.313906 130.937531 
L 404.109852 130.937531 
L 404.109852 126.375155 
L 404.163503 126.375155 
L 404.163503 121.812778 
L 405.561629 121.812778 
L 405.561629 117.250402 
L 409.397405 117.250402 
L 409.397405 112.688026 
L 414.914742 112.688026 
L 414.914742 108.12565 
L 432.6825 108.12565 
" style="fill:none;stroke:#f5deb3;stroke-linecap:square;"/>
   </g>
   <g id="line2d_19">
    <path clip-path="url(#pa0ad085d24)" style="fill:none;stroke:#f5deb3;stroke-linecap:square;"/>
   </g>
   <g id="line2d_20">
    <path clip-path="url(#pa0ad085d24)" d="M 359.546795 290.620699 
L 359.546795 286.058323 
L 374.292837 286.058323 
L 374.292837 281.495947 
L 419.142721 281.495947 
L 419.142721 276.933571 
L 419.502716 276.933571 
L 419.502716 272.371194 
L 431.979575 272.371194 
L 431.979575 267.808818 
L 432.6825 267.808818 
" style="fill:none;stroke:#f5deb3;stroke-linecap:square;"/>
   </g>
   <g id="line2d_21">
    <path clip-path="url(#pa0ad085d24)" d="M 326.405185 290.620699 
L 326.405185 286.058323 
L 326.577171 286.058323 
L 326.577171 281.495947 
L 329.740716 281.495947 
L 329.740716 276.933571 
L 329.934169 276.933571 
L 329.934169 272.371194 
L 336.029032 272.371194 
L 336.029032 267.808818 
L 336.314284 267.808818 
L 336.314284 263.246442 
L 336.399554 263.246442 
L 336.399554 258.684066 
L 337.356246 258.684066 
L 337.356246 254.121689 
L 337.384118 254.121689 
L 337.384118 249.559313 
L 343.177329 249.559313 
L 343.177329 244.996937 
L 344.964622 244.996937 
L 344.964622 240.434561 
L 349.852116 240.434561 
L 349.852116 235.872184 
L 391.950636 235.872184 
L 391.950636 231.309808 
L 432.6825 231.309808 
" style="fill:none;stroke:#f5deb3;stroke-linecap:square;"/>
   </g>
   <g id="line2d_22"/>
   <g id="line2d_23">
    <path clip-path="url(#pa0ad085d24)" style="fill:none;stroke:#f5deb3;stroke-linecap:square;"/>
   </g>
   <g id="line2d_24">
    <path clip-path="url(#pa0ad085d24)" style="fill:none;stroke:#f5deb3;stroke-linecap:square;"/>
   </g>
   <g id="line2d_25">
    <path clip-path="url(#pa0ad085d24)" d="M 307.030606 290.620699 
L 307.030606 286.058323 
L 312.132511 286.058323 
L 312.132511 281.495947 
L 315.345182 281.495947 
L 315.345182 276.933571 
L 324.187683 276.933571 
L 324.187683 272.371194 
L 325.079056 272.371194 
L 325.079056 267.808818 
L 326.405185 267.808818 
L 326.405185 263.246442 
L 328.696569 263.246442 
L 328.696569 258.684066 
L 329.901977 258.684066 
L 329.901977 254.121689 
L 333.418475 254.121689 
L 333.418475 249.559313 
L 334.076146 249.559313 
L 334.076146 244.996937 
L 338.459566 244.996937 
L 338.459566 240.434561 
L 339.619957 240.434561 
L 339.619957 235.872184 
L 340.54561 235.872184 
L 340.54561 231.309808 
L 341.763127 231.309808 
L 341.763127 226.747432 
L 342.323327 226.747432 
L 342.323327 222.185056 
L 343.002654 222.185056 
L 343.002654 217.622679 
L 343.102541 217.622679 
L 343.102541 213.060303 
L 343.326582 213.060303 
L 343.326582 208.497927 
L 343.722497 208.497927 
L 343.722497 203.935551 
L 346.177611 203.935551 
L 346.177611 199.373175 
L 346.645634 199.373175 
L 346.645634 194.810798 
L 346.831664 194.810798 
L 346.831664 190.248422 
L 348.251143 190.248422 
L 348.251143 185.686046 
L 349.301821 185.686046 
L 349.301821 181.12367 
L 355.134287 181.12367 
L 355.134287 176.561293 
L 362.079543 176.561293 
L 362.079543 171.998917 
L 365.344797 171.998917 
L 365.344797 167.436541 
L 371.315141 167.436541 
L 371.315141 162.874165 
L 375.984639 162.874165 
L 375.984639 158.311788 
L 384.893624 158.311788 
L 384.893624 153.749412 
L 386.135092 153.749412 
L 386.135092 149.187036 
L 389.9731 149.187036 
L 389.9731 144.62466 
L 392.854586 144.62466 
L 392.854586 140.062283 
L 395.375557 140.062283 
L 395.375557 135.499907 
L 396.052067 135.499907 
L 396.052067 130.937531 
L 398.493737 130.937531 
L 398.493737 126.375155 
L 398.927864 126.375155 
L 398.927864 121.812778 
L 400.554949 121.812778 
L 400.554949 117.250402 
L 400.849816 117.250402 
L 400.849816 112.688026 
L 403.438354 112.688026 
L 403.438354 108.12565 
L 404.855954 108.12565 
L 404.855954 103.563274 
L 411.672796 103.563274 
L 411.672796 99.000897 
L 419.48563 99.000897 
L 419.48563 94.438521 
L 422.875267 94.438521 
L 422.875267 89.876145 
L 424.771303 89.876145 
L 424.771303 85.313769 
L 427.113985 85.313769 
L 427.113985 80.751392 
L 428.256312 80.751392 
L 428.256312 76.189016 
L 428.342778 76.189016 
L 428.342778 71.62664 
L 430.940246 71.62664 
L 430.940246 67.064264 
L 431.992994 67.064264 
L 431.992994 62.501887 
L 432.6825 62.501887 
" style="fill:none;stroke:#f5deb3;stroke-linecap:square;"/>
   </g>
   <g id="line2d_26">
    <path clip-path="url(#pa0ad085d24)" style="fill:none;stroke:#f5deb3;stroke-linecap:square;"/>
   </g>
   <g id="line2d_27">
    <path clip-path="url(#pa0ad085d24)" d="M 343.152412 290.620699 
L 343.152412 286.058323 
L 344.33511 286.058323 
L 344.33511 281.495947 
L 344.67503 281.495947 
L 344.67503 276.933571 
L 345.348239 276.933571 
L 345.348239 272.371194 
L 345.467538 272.371194 
L 345.467538 267.808818 
L 347.500466 267.808818 
L 347.500466 263.246442 
L 347.660614 263.246442 
L 347.660614 258.684066 
L 349.698622 258.684066 
L 349.698622 254.121689 
L 350.048797 254.121689 
L 350.048797 249.559313 
L 350.655954 249.559313 
L 350.655954 244.996937 
L 351.085314 244.996937 
L 351.085314 240.434561 
L 351.319952 240.434561 
L 351.319952 235.872184 
L 352.788664 235.872184 
L 352.788664 231.309808 
L 355.134287 231.309808 
L 355.134287 226.747432 
L 355.91907 226.747432 
L 355.91907 222.185056 
L 386.29767 222.185056 
L 386.29767 217.622679 
L 389.679975 217.622679 
L 389.679975 213.060303 
L 391.129262 213.060303 
L 391.129262 208.497927 
L 391.296549 208.497927 
L 391.296549 203.935551 
L 391.590447 203.935551 
L 391.590447 199.373175 
L 392.452645 199.373175 
L 392.452645 194.810798 
L 396.016209 194.810798 
L 396.016209 190.248422 
L 396.418185 190.248422 
L 396.418185 185.686046 
L 397.186589 185.686046 
L 397.186589 181.12367 
L 399.341562 181.12367 
L 399.341562 176.561293 
L 401.069867 176.561293 
L 401.069867 171.998917 
L 401.708397 171.998917 
L 401.708397 167.436541 
L 401.868807 167.436541 
L 401.868807 162.874165 
L 404.247701 162.874165 
L 404.247701 158.311788 
L 404.354663 158.311788 
L 404.354663 153.749412 
L 405.680791 153.749412 
L 405.680791 149.187036 
L 405.703103 149.187036 
L 405.703103 144.62466 
L 405.844191 144.62466 
L 405.844191 140.062283 
L 407.082479 140.062283 
L 407.082479 135.499907 
L 408.079189 135.499907 
L 408.079189 130.937531 
L 408.728472 130.937531 
L 408.728472 126.375155 
L 414.583887 126.375155 
L 414.583887 121.812778 
L 418.263704 121.812778 
L 418.263704 117.250402 
L 419.010667 117.250402 
L 419.010667 112.688026 
L 419.056637 112.688026 
L 419.056637 108.12565 
L 424.889452 108.12565 
L 424.889452 103.563274 
L 425.262671 103.563274 
L 425.262671 99.000897 
L 428.682435 99.000897 
L 428.682435 94.438521 
L 429.627394 94.438521 
L 429.627394 89.876145 
L 429.632076 89.876145 
L 429.632076 85.313769 
L 432.6825 85.313769 
" style="fill:none;stroke:#f5deb3;stroke-linecap:square;"/>
   </g>
   <g id="line2d_28">
    <path clip-path="url(#pa0ad085d24)" style="fill:none;stroke:#f5deb3;stroke-linecap:square;"/>
   </g>
   <g id="line2d_29">
    <path clip-path="url(#pa0ad085d24)" d="M 311.584762 290.620699 
L 311.584762 286.058323 
L 311.584762 286.058323 
L 311.584762 281.495947 
L 311.584762 281.495947 
L 311.584762 276.933571 
L 311.904987 276.933571 
L 311.904987 272.371194 
L 311.904987 272.371194 
L 311.904987 267.808818 
L 311.904987 267.808818 
L 311.904987 263.246442 
L 323.134068 263.246442 
L 323.134068 258.684066 
L 323.134068 258.684066 
L 323.134068 254.121689 
L 323.134068 254.121689 
L 323.134068 249.559313 
L 324.581782 249.559313 
L 324.581782 244.996937 
L 324.581782 244.996937 
L 324.581782 240.434561 
L 324.581782 240.434561 
L 324.581782 235.872184 
L 333.83796 235.872184 
L 333.83796 231.309808 
L 333.83796 231.309808 
L 333.83796 226.747432 
L 333.83796 226.747432 
L 333.83796 222.185056 
L 334.19483 222.185056 
L 334.19483 217.622679 
L 334.19483 217.622679 
L 334.19483 213.060303 
L 334.19483 213.060303 
L 334.19483 208.497927 
L 336.682776 208.497927 
L 336.682776 203.935551 
L 336.682776 203.935551 
L 336.682776 199.373175 
L 336.682776 199.373175 
L 336.682776 194.810798 
L 340.54561 194.810798 
L 340.54561 190.248422 
L 340.54561 190.248422 
L 340.54561 185.686046 
L 340.54561 185.686046 
L 340.54561 181.12367 
L 347.316831 181.12367 
L 347.316831 176.561293 
L 347.316831 176.561293 
L 347.316831 171.998917 
L 347.316831 171.998917 
L 347.316831 167.436541 
L 357.942921 167.436541 
L 357.942921 162.874165 
L 357.942921 162.874165 
L 357.942921 158.311788 
L 357.942921 158.311788 
L 357.942921 153.749412 
L 432.6825 153.749412 
" style="fill:none;stroke:#f5deb3;stroke-linecap:square;"/>
   </g>
   <g id="line2d_30">
    <path clip-path="url(#pa0ad085d24)" d="M -1 281.495947 
L 19.852799 281.495947 
L 19.852799 276.933571 
L 31.392929 276.933571 
L 31.392929 272.371194 
L 40.821902 272.371194 
L 40.821902 267.808818 
L 76.66882 267.808818 
L 76.66882 263.246442 
L 76.66882 263.246442 
L 76.66882 258.684066 
L 84.640903 258.684066 
L 84.640903 254.121689 
L 88.20895 254.121689 
L 88.20895 249.559313 
L 94.681909 249.559313 
L 94.681909 244.996937 
L 97.637923 244.996937 
L 97.637923 240.434561 
L 108.015843 240.434561 
L 108.015843 235.872184 
L 112.515738 235.872184 
L 112.515738 231.309808 
L 114.626895 231.309808 
L 114.626895 226.747432 
L 125.751632 226.747432 
L 125.751632 222.185056 
L 141.456924 222.185056 
L 141.456924 217.622679 
L 145.024971 217.622679 
L 145.024971 213.060303 
L 146.161636 213.060303 
L 146.161636 208.497927 
L 179.118631 208.497927 
L 179.118631 203.935551 
L 180.871889 203.935551 
L 180.871889 199.373175 
L 204.455362 199.373175 
L 204.455362 194.810798 
L 218.414571 194.810798 
L 218.414571 190.248422 
L 251.696525 190.248422 
L 251.696525 185.686046 
L 261.513614 185.686046 
L 261.513614 181.12367 
L 269.76115 181.12367 
L 269.76115 176.561293 
L 291.480269 176.561293 
L 291.480269 171.998917 
L 299.722411 171.998917 
L 299.722411 167.436541 
L 304.619996 167.436541 
L 304.619996 162.874165 
L 309.715862 162.874165 
L 309.715862 158.311788 
L 312.89869 158.311788 
L 312.89869 153.749412 
L 312.89869 153.749412 
L 312.89869 153.749412 
L 424.4825 153.749412 
" style="fill:none;stroke:#000000;stroke-linecap:square;"/>
   </g>
   <g id="line2d_31"/>
   <g id="line2d_32">
    <path clip-path="url(#pa0ad085d24)" d="M 204.455362 290.620699 
L 204.455362 286.058323 
L 241.025595 286.058323 
L 241.025595 281.495947 
L 270.47731 281.495947 
L 270.47731 276.933571 
L 299.141977 276.933571 
L 299.141977 272.371194 
L 305.762368 272.371194 
L 305.762368 267.808818 
L 305.762368 267.808818 
L 305.762368 267.808818 
L 424.4825 267.808818 
" style="fill:none;stroke:#00bfbf;stroke-linecap:square;"/>
   </g>
   <g id="line2d_33"/>
   <g id="line2d_34"/>
   <g id="line2d_35"/>
   <g id="line2d_36">
    <path clip-path="url(#pa0ad085d24)" d="M 315.259771 290.620699 
L 315.259771 14.140699 
" style="fill:none;stroke:#000000;stroke-linecap:square;"/>
   </g>
   <g id="patch_3">
    <path d="M 67.3625 14.140699 
L 424.4825 14.140699 
" style="fill:none;stroke:#000000;stroke-linecap:square;stroke-linejoin:miter;"/>
   </g>
   <g id="patch_4">
    <path d="M 424.4825 290.620699 
L 424.4825 14.140699 
" style="fill:none;stroke:#000000;stroke-linecap:square;stroke-linejoin:miter;"/>
   </g>
   <g id="patch_5">
    <path d="M 67.3625 290.620699 
L 424.4825 290.620699 
" style="fill:none;stroke:#000000;stroke-linecap:square;stroke-linejoin:miter;"/>
   </g>
   <g id="patch_6">
    <path d="M 67.3625 290.620699 
L 67.3625 14.140699 
" style="fill:none;stroke:#000000;stroke-linecap:square;stroke-linejoin:miter;"/>
   </g>
   <g id="matplotlib.axis_1">
    <g id="xtick_1">
     <g id="line2d_37">
      <path clip-path="url(#pa0ad085d24)" d="M 103.086765 290.620699 
L 103.086765 14.140699 
" style="fill:none;stroke:#000000;stroke-dasharray:1.000000,3.000000;stroke-dashoffset:0.0;stroke-width:0.5;"/>
     </g>
     <g id="line2d_38">
      <defs>
       <path d="M 0 0 
L 0 -4 
" id="m975422fad0" style="stroke:#000000;stroke-width:0.5;"/>
      </defs>
      <g>
       <use style="stroke:#000000;stroke-width:0.5;" x="103.086765279" xlink:href="#m975422fad0" y="290.620699257"/>
      </g>
     </g>
     <g id="line2d_39">
      <defs>
       <path d="M 0 0 
L 0 4 
" id="me29730f3fc" style="stroke:#000000;stroke-width:0.5;"/>
      </defs>
      <g>
       <use style="stroke:#000000;stroke-width:0.5;" x="103.086765279" xlink:href="#me29730f3fc" y="14.1406992574"/>
      </g>
     </g>
     <g id="text_1">
      <!-- 0 -->
      <defs>
       <path d="M 31.78125 66.40625 
Q 24.171875 66.40625 20.328125 58.90625 
Q 16.5 51.421875 16.5 36.375 
Q 16.5 21.390625 20.328125 13.890625 
Q 24.171875 6.390625 31.78125 6.390625 
Q 39.453125 6.390625 43.28125 13.890625 
Q 47.125 21.390625 47.125 36.375 
Q 47.125 51.421875 43.28125 58.90625 
Q 39.453125 66.40625 31.78125 66.40625 
M 31.78125 74.21875 
Q 44.046875 74.21875 50.515625 64.515625 
Q 56.984375 54.828125 56.984375 36.375 
Q 56.984375 17.96875 50.515625 8.265625 
Q 44.046875 -1.421875 31.78125 -1.421875 
Q 19.53125 -1.421875 13.0625 8.265625 
Q 6.59375 17.96875 6.59375 36.375 
Q 6.59375 54.828125 13.0625 64.515625 
Q 19.53125 74.21875 31.78125 74.21875 
" id="BitstreamVeraSans-Roman-30"/>
      </defs>
      <g transform="translate(96.7242652794 309.817574257)scale(0.2 -0.2)">
       <use xlink:href="#BitstreamVeraSans-Roman-30"/>
      </g>
     </g>
    </g>
    <g id="xtick_2">
     <g id="line2d_40">
      <path clip-path="url(#pa0ad085d24)" d="M 222.16765 290.620699 
L 222.16765 14.140699 
" style="fill:none;stroke:#000000;stroke-dasharray:1.000000,3.000000;stroke-dashoffset:0.0;stroke-width:0.5;"/>
     </g>
     <g id="line2d_41">
      <g>
       <use style="stroke:#000000;stroke-width:0.5;" x="222.167649544" xlink:href="#m975422fad0" y="290.620699257"/>
      </g>
     </g>
     <g id="line2d_42">
      <g>
       <use style="stroke:#000000;stroke-width:0.5;" x="222.167649544" xlink:href="#me29730f3fc" y="14.1406992574"/>
      </g>
     </g>
     <g id="text_2">
      <!-- 1 -->
      <defs>
       <path d="M 12.40625 8.296875 
L 28.515625 8.296875 
L 28.515625 63.921875 
L 10.984375 60.40625 
L 10.984375 69.390625 
L 28.421875 72.90625 
L 38.28125 72.90625 
L 38.28125 8.296875 
L 54.390625 8.296875 
L 54.390625 0 
L 12.40625 0 
z
" id="BitstreamVeraSans-Roman-31"/>
      </defs>
      <g transform="translate(215.805149544 309.817574257)scale(0.2 -0.2)">
       <use xlink:href="#BitstreamVeraSans-Roman-31"/>
      </g>
     </g>
    </g>
    <g id="xtick_3">
     <g id="line2d_43">
      <path clip-path="url(#pa0ad085d24)" d="M 341.248534 290.620699 
L 341.248534 14.140699 
" style="fill:none;stroke:#000000;stroke-dasharray:1.000000,3.000000;stroke-dashoffset:0.0;stroke-width:0.5;"/>
     </g>
     <g id="line2d_44">
      <g>
       <use style="stroke:#000000;stroke-width:0.5;" x="341.248533809" xlink:href="#m975422fad0" y="290.620699257"/>
      </g>
     </g>
     <g id="line2d_45">
      <g>
       <use style="stroke:#000000;stroke-width:0.5;" x="341.248533809" xlink:href="#me29730f3fc" y="14.1406992574"/>
      </g>
     </g>
     <g id="text_3">
      <!-- 2 -->
      <defs>
       <path d="M 19.1875 8.296875 
L 53.609375 8.296875 
L 53.609375 0 
L 7.328125 0 
L 7.328125 8.296875 
Q 12.9375 14.109375 22.625 23.890625 
Q 32.328125 33.6875 34.8125 36.53125 
Q 39.546875 41.84375 41.421875 45.53125 
Q 43.3125 49.21875 43.3125 52.78125 
Q 43.3125 58.59375 39.234375 62.25 
Q 35.15625 65.921875 28.609375 65.921875 
Q 23.96875 65.921875 18.8125 64.3125 
Q 13.671875 62.703125 7.8125 59.421875 
L 7.8125 69.390625 
Q 13.765625 71.78125 18.9375 73 
Q 24.125 74.21875 28.421875 74.21875 
Q 39.75 74.21875 46.484375 68.546875 
Q 53.21875 62.890625 53.21875 53.421875 
Q 53.21875 48.921875 51.53125 44.890625 
Q 49.859375 40.875 45.40625 35.40625 
Q 44.1875 33.984375 37.640625 27.21875 
Q 31.109375 20.453125 19.1875 8.296875 
" id="BitstreamVeraSans-Roman-32"/>
      </defs>
      <g transform="translate(334.886033809 309.817574257)scale(0.2 -0.2)">
       <use xlink:href="#BitstreamVeraSans-Roman-32"/>
      </g>
     </g>
    </g>
    <g id="xtick_4">
     <g id="line2d_46">
      <defs>
       <path d="M 0 0 
L 0 -2 
" id="ma777e7c516" style="stroke:#000000;stroke-width:0.5;"/>
      </defs>
      <g>
       <use style="stroke:#000000;stroke-width:0.5;" x="76.6688200021" xlink:href="#ma777e7c516" y="290.620699257"/>
      </g>
     </g>
     <g id="line2d_47">
      <defs>
       <path d="M 0 0 
L 0 2 
" id="m4fb824e421" style="stroke:#000000;stroke-width:0.5;"/>
      </defs>
      <g>
       <use style="stroke:#000000;stroke-width:0.5;" x="76.6688200021" xlink:href="#m4fb824e421" y="14.1406992574"/>
      </g>
     </g>
    </g>
    <g id="xtick_5">
     <g id="line2d_48">
      <g>
       <use style="stroke:#000000;stroke-width:0.5;" x="84.64090291" xlink:href="#ma777e7c516" y="290.620699257"/>
      </g>
     </g>
     <g id="line2d_49">
      <g>
       <use style="stroke:#000000;stroke-width:0.5;" x="84.64090291" xlink:href="#m4fb824e421" y="14.1406992574"/>
      </g>
     </g>
    </g>
    <g id="xtick_6">
     <g id="line2d_50">
      <g>
       <use style="stroke:#000000;stroke-width:0.5;" x="91.5466352363" xlink:href="#ma777e7c516" y="290.620699257"/>
      </g>
     </g>
     <g id="line2d_51">
      <g>
       <use style="stroke:#000000;stroke-width:0.5;" x="91.5466352363" xlink:href="#m4fb824e421" y="14.1406992574"/>
      </g>
     </g>
    </g>
    <g id="xtick_7">
     <g id="line2d_52">
      <g>
       <use style="stroke:#000000;stroke-width:0.5;" x="97.6379228417" xlink:href="#ma777e7c516" y="290.620699257"/>
      </g>
     </g>
     <g id="line2d_53">
      <g>
       <use style="stroke:#000000;stroke-width:0.5;" x="97.6379228417" xlink:href="#m4fb824e421" y="14.1406992574"/>
      </g>
     </g>
    </g>
    <g id="xtick_8">
     <g id="line2d_54">
      <g>
       <use style="stroke:#000000;stroke-width:0.5;" x="138.933683353" xlink:href="#ma777e7c516" y="290.620699257"/>
      </g>
     </g>
     <g id="line2d_55">
      <g>
       <use style="stroke:#000000;stroke-width:0.5;" x="138.933683353" xlink:href="#m4fb824e421" y="14.1406992574"/>
      </g>
     </g>
    </g>
    <g id="xtick_9">
     <g id="line2d_56">
      <g>
       <use style="stroke:#000000;stroke-width:0.5;" x="159.902786193" xlink:href="#ma777e7c516" y="290.620699257"/>
      </g>
     </g>
     <g id="line2d_57">
      <g>
       <use style="stroke:#000000;stroke-width:0.5;" x="159.902786193" xlink:href="#m4fb824e421" y="14.1406992574"/>
      </g>
     </g>
    </g>
    <g id="xtick_10">
     <g id="line2d_58">
      <g>
       <use style="stroke:#000000;stroke-width:0.5;" x="174.780601427" xlink:href="#ma777e7c516" y="290.620699257"/>
      </g>
     </g>
     <g id="line2d_59">
      <g>
       <use style="stroke:#000000;stroke-width:0.5;" x="174.780601427" xlink:href="#m4fb824e421" y="14.1406992574"/>
      </g>
     </g>
    </g>
    <g id="xtick_11">
     <g id="line2d_60">
      <g>
       <use style="stroke:#000000;stroke-width:0.5;" x="186.32073147" xlink:href="#ma777e7c516" y="290.620699257"/>
      </g>
     </g>
     <g id="line2d_61">
      <g>
       <use style="stroke:#000000;stroke-width:0.5;" x="186.32073147" xlink:href="#m4fb824e421" y="14.1406992574"/>
      </g>
     </g>
    </g>
    <g id="xtick_12">
     <g id="line2d_62">
      <g>
       <use style="stroke:#000000;stroke-width:0.5;" x="195.749704267" xlink:href="#ma777e7c516" y="290.620699257"/>
      </g>
     </g>
     <g id="line2d_63">
      <g>
       <use style="stroke:#000000;stroke-width:0.5;" x="195.749704267" xlink:href="#m4fb824e421" y="14.1406992574"/>
      </g>
     </g>
    </g>
    <g id="xtick_13">
     <g id="line2d_64">
      <g>
       <use style="stroke:#000000;stroke-width:0.5;" x="203.721787175" xlink:href="#ma777e7c516" y="290.620699257"/>
      </g>
     </g>
     <g id="line2d_65">
      <g>
       <use style="stroke:#000000;stroke-width:0.5;" x="203.721787175" xlink:href="#m4fb824e421" y="14.1406992574"/>
      </g>
     </g>
    </g>
    <g id="xtick_14">
     <g id="line2d_66">
      <g>
       <use style="stroke:#000000;stroke-width:0.5;" x="210.627519501" xlink:href="#ma777e7c516" y="290.620699257"/>
      </g>
     </g>
     <g id="line2d_67">
      <g>
       <use style="stroke:#000000;stroke-width:0.5;" x="210.627519501" xlink:href="#m4fb824e421" y="14.1406992574"/>
      </g>
     </g>
    </g>
    <g id="xtick_15">
     <g id="line2d_68">
      <g>
       <use style="stroke:#000000;stroke-width:0.5;" x="216.718807107" xlink:href="#ma777e7c516" y="290.620699257"/>
      </g>
     </g>
     <g id="line2d_69">
      <g>
       <use style="stroke:#000000;stroke-width:0.5;" x="216.718807107" xlink:href="#m4fb824e421" y="14.1406992574"/>
      </g>
     </g>
    </g>
    <g id="xtick_16">
     <g id="line2d_70">
      <g>
       <use style="stroke:#000000;stroke-width:0.5;" x="258.014567618" xlink:href="#ma777e7c516" y="290.620699257"/>
      </g>
     </g>
     <g id="line2d_71">
      <g>
       <use style="stroke:#000000;stroke-width:0.5;" x="258.014567618" xlink:href="#m4fb824e421" y="14.1406992574"/>
      </g>
     </g>
    </g>
    <g id="xtick_17">
     <g id="line2d_72">
      <g>
       <use style="stroke:#000000;stroke-width:0.5;" x="278.983670458" xlink:href="#ma777e7c516" y="290.620699257"/>
      </g>
     </g>
     <g id="line2d_73">
      <g>
       <use style="stroke:#000000;stroke-width:0.5;" x="278.983670458" xlink:href="#m4fb824e421" y="14.1406992574"/>
      </g>
     </g>
    </g>
    <g id="xtick_18">
     <g id="line2d_74">
      <g>
       <use style="stroke:#000000;stroke-width:0.5;" x="293.861485692" xlink:href="#ma777e7c516" y="290.620699257"/>
      </g>
     </g>
     <g id="line2d_75">
      <g>
       <use style="stroke:#000000;stroke-width:0.5;" x="293.861485692" xlink:href="#m4fb824e421" y="14.1406992574"/>
      </g>
     </g>
    </g>
    <g id="xtick_19">
     <g id="line2d_76">
      <g>
       <use style="stroke:#000000;stroke-width:0.5;" x="305.401615735" xlink:href="#ma777e7c516" y="290.620699257"/>
      </g>
     </g>
     <g id="line2d_77">
      <g>
       <use style="stroke:#000000;stroke-width:0.5;" x="305.401615735" xlink:href="#m4fb824e421" y="14.1406992574"/>
      </g>
     </g>
    </g>
    <g id="xtick_20">
     <g id="line2d_78">
      <g>
       <use style="stroke:#000000;stroke-width:0.5;" x="314.830588532" xlink:href="#ma777e7c516" y="290.620699257"/>
      </g>
     </g>
     <g id="line2d_79">
      <g>
       <use style="stroke:#000000;stroke-width:0.5;" x="314.830588532" xlink:href="#m4fb824e421" y="14.1406992574"/>
      </g>
     </g>
    </g>
    <g id="xtick_21">
     <g id="line2d_80">
      <g>
       <use style="stroke:#000000;stroke-width:0.5;" x="322.80267144" xlink:href="#ma777e7c516" y="290.620699257"/>
      </g>
     </g>
     <g id="line2d_81">
      <g>
       <use style="stroke:#000000;stroke-width:0.5;" x="322.80267144" xlink:href="#m4fb824e421" y="14.1406992574"/>
      </g>
     </g>
    </g>
    <g id="xtick_22">
     <g id="line2d_82">
      <g>
       <use style="stroke:#000000;stroke-width:0.5;" x="329.708403766" xlink:href="#ma777e7c516" y="290.620699257"/>
      </g>
     </g>
     <g id="line2d_83">
      <g>
       <use style="stroke:#000000;stroke-width:0.5;" x="329.708403766" xlink:href="#m4fb824e421" y="14.1406992574"/>
      </g>
     </g>
    </g>
    <g id="xtick_23">
     <g id="line2d_84">
      <g>
       <use style="stroke:#000000;stroke-width:0.5;" x="335.799691371" xlink:href="#ma777e7c516" y="290.620699257"/>
      </g>
     </g>
     <g id="line2d_85">
      <g>
       <use style="stroke:#000000;stroke-width:0.5;" x="335.799691371" xlink:href="#m4fb824e421" y="14.1406992574"/>
      </g>
     </g>
    </g>
    <g id="xtick_24">
     <g id="line2d_86">
      <g>
       <use style="stroke:#000000;stroke-width:0.5;" x="377.095451883" xlink:href="#ma777e7c516" y="290.620699257"/>
      </g>
     </g>
     <g id="line2d_87">
      <g>
       <use style="stroke:#000000;stroke-width:0.5;" x="377.095451883" xlink:href="#m4fb824e421" y="14.1406992574"/>
      </g>
     </g>
    </g>
    <g id="xtick_25">
     <g id="line2d_88">
      <g>
       <use style="stroke:#000000;stroke-width:0.5;" x="398.064554723" xlink:href="#ma777e7c516" y="290.620699257"/>
      </g>
     </g>
     <g id="line2d_89">
      <g>
       <use style="stroke:#000000;stroke-width:0.5;" x="398.064554723" xlink:href="#m4fb824e421" y="14.1406992574"/>
      </g>
     </g>
    </g>
    <g id="xtick_26">
     <g id="line2d_90">
      <g>
       <use style="stroke:#000000;stroke-width:0.5;" x="412.942369957" xlink:href="#ma777e7c516" y="290.620699257"/>
      </g>
     </g>
     <g id="line2d_91">
      <g>
       <use style="stroke:#000000;stroke-width:0.5;" x="412.942369957" xlink:href="#m4fb824e421" y="14.1406992574"/>
      </g>
     </g>
    </g>
    <g id="xtick_27">
     <g id="line2d_92">
      <g>
       <use style="stroke:#000000;stroke-width:0.5;" x="424.4825" xlink:href="#ma777e7c516" y="290.620699257"/>
      </g>
     </g>
     <g id="line2d_93">
      <g>
       <use style="stroke:#000000;stroke-width:0.5;" x="424.4825" xlink:href="#m4fb824e421" y="14.1406992574"/>
      </g>
     </g>
    </g>
    <g id="text_4">
     <!-- log10 of FEvals / DIM -->
     <defs>
      <path id="BitstreamVeraSans-Roman-20"/>
      <path d="M 9.8125 72.90625 
L 24.515625 72.90625 
L 43.109375 23.296875 
L 61.8125 72.90625 
L 76.515625 72.90625 
L 76.515625 0 
L 66.890625 0 
L 66.890625 64.015625 
L 48.09375 14.015625 
L 38.1875 14.015625 
L 19.390625 64.015625 
L 19.390625 0 
L 9.8125 0 
z
" id="BitstreamVeraSans-Roman-4d"/>
      <path d="M 30.609375 48.390625 
Q 23.390625 48.390625 19.1875 42.75 
Q 14.984375 37.109375 14.984375 27.296875 
Q 14.984375 17.484375 19.15625 11.84375 
Q 23.34375 6.203125 30.609375 6.203125 
Q 37.796875 6.203125 41.984375 11.859375 
Q 46.1875 17.53125 46.1875 27.296875 
Q 46.1875 37.015625 41.984375 42.703125 
Q 37.796875 48.390625 30.609375 48.390625 
M 30.609375 56 
Q 42.328125 56 49.015625 48.375 
Q 55.71875 40.765625 55.71875 27.296875 
Q 55.71875 13.875 49.015625 6.21875 
Q 42.328125 -1.421875 30.609375 -1.421875 
Q 18.84375 -1.421875 12.171875 6.21875 
Q 5.515625 13.875 5.515625 27.296875 
Q 5.515625 40.765625 12.171875 48.375 
Q 18.84375 56 30.609375 56 
" id="BitstreamVeraSans-Roman-6f"/>
      <path d="M 9.421875 75.984375 
L 18.40625 75.984375 
L 18.40625 0 
L 9.421875 0 
z
" id="BitstreamVeraSans-Roman-6c"/>
      <path d="M 9.8125 72.90625 
L 51.703125 72.90625 
L 51.703125 64.59375 
L 19.671875 64.59375 
L 19.671875 43.109375 
L 48.578125 43.109375 
L 48.578125 34.8125 
L 19.671875 34.8125 
L 19.671875 0 
L 9.8125 0 
z
" id="BitstreamVeraSans-Roman-46"/>
      <path d="M 9.8125 72.90625 
L 55.90625 72.90625 
L 55.90625 64.59375 
L 19.671875 64.59375 
L 19.671875 43.015625 
L 54.390625 43.015625 
L 54.390625 34.71875 
L 19.671875 34.71875 
L 19.671875 8.296875 
L 56.78125 8.296875 
L 56.78125 0 
L 9.8125 0 
z
" id="BitstreamVeraSans-Roman-45"/>
      <path d="M 19.671875 64.796875 
L 19.671875 8.109375 
L 31.59375 8.109375 
Q 46.6875 8.109375 53.6875 14.9375 
Q 60.6875 21.78125 60.6875 36.53125 
Q 60.6875 51.171875 53.6875 57.984375 
Q 46.6875 64.796875 31.59375 64.796875 
z
M 9.8125 72.90625 
L 30.078125 72.90625 
Q 51.265625 72.90625 61.171875 64.09375 
Q 71.09375 55.28125 71.09375 36.53125 
Q 71.09375 17.671875 61.125 8.828125 
Q 51.171875 0 30.078125 0 
L 9.8125 0 
z
" id="BitstreamVeraSans-Roman-44"/>
      <path d="M 25.390625 72.90625 
L 33.6875 72.90625 
L 8.296875 -9.28125 
L 0 -9.28125 
z
" id="BitstreamVeraSans-Roman-2f"/>
      <path d="M 2.984375 54.6875 
L 12.5 54.6875 
L 29.59375 8.796875 
L 46.6875 54.6875 
L 56.203125 54.6875 
L 35.6875 0 
L 23.484375 0 
z
" id="BitstreamVeraSans-Roman-76"/>
      <path d="M 45.40625 27.984375 
Q 45.40625 37.75 41.375 43.109375 
Q 37.359375 48.484375 30.078125 48.484375 
Q 22.859375 48.484375 18.828125 43.109375 
Q 14.796875 37.75 14.796875 27.984375 
Q 14.796875 18.265625 18.828125 12.890625 
Q 22.859375 7.515625 30.078125 7.515625 
Q 37.359375 7.515625 41.375 12.890625 
Q 45.40625 18.265625 45.40625 27.984375 
M 54.390625 6.78125 
Q 54.390625 -7.171875 48.1875 -13.984375 
Q 42 -20.796875 29.203125 -20.796875 
Q 24.46875 -20.796875 20.265625 -20.09375 
Q 16.0625 -19.390625 12.109375 -17.921875 
L 12.109375 -9.1875 
Q 16.0625 -11.328125 19.921875 -12.34375 
Q 23.78125 -13.375 27.78125 -13.375 
Q 36.625 -13.375 41.015625 -8.765625 
Q 45.40625 -4.15625 45.40625 5.171875 
L 45.40625 9.625 
Q 42.625 4.78125 38.28125 2.390625 
Q 33.9375 0 27.875 0 
Q 17.828125 0 11.671875 7.65625 
Q 5.515625 15.328125 5.515625 27.984375 
Q 5.515625 40.671875 11.671875 48.328125 
Q 17.828125 56 27.875 56 
Q 33.9375 56 38.28125 53.609375 
Q 42.625 51.21875 45.40625 46.390625 
L 45.40625 54.6875 
L 54.390625 54.6875 
z
" id="BitstreamVeraSans-Roman-67"/>
      <path d="M 37.109375 75.984375 
L 37.109375 68.5 
L 28.515625 68.5 
Q 23.6875 68.5 21.796875 66.546875 
Q 19.921875 64.59375 19.921875 59.515625 
L 19.921875 54.6875 
L 34.71875 54.6875 
L 34.71875 47.703125 
L 19.921875 47.703125 
L 19.921875 0 
L 10.890625 0 
L 10.890625 47.703125 
L 2.296875 47.703125 
L 2.296875 54.6875 
L 10.890625 54.6875 
L 10.890625 58.5 
Q 10.890625 67.625 15.140625 71.796875 
Q 19.390625 75.984375 28.609375 75.984375 
z
" id="BitstreamVeraSans-Roman-66"/>
      <path d="M 34.28125 27.484375 
Q 23.390625 27.484375 19.1875 25 
Q 14.984375 22.515625 14.984375 16.5 
Q 14.984375 11.71875 18.140625 8.90625 
Q 21.296875 6.109375 26.703125 6.109375 
Q 34.1875 6.109375 38.703125 11.40625 
Q 43.21875 16.703125 43.21875 25.484375 
L 43.21875 27.484375 
z
M 52.203125 31.203125 
L 52.203125 0 
L 43.21875 0 
L 43.21875 8.296875 
Q 40.140625 3.328125 35.546875 0.953125 
Q 30.953125 -1.421875 24.3125 -1.421875 
Q 15.921875 -1.421875 10.953125 3.296875 
Q 6 8.015625 6 15.921875 
Q 6 25.140625 12.171875 29.828125 
Q 18.359375 34.515625 30.609375 34.515625 
L 43.21875 34.515625 
L 43.21875 35.40625 
Q 43.21875 41.609375 39.140625 45 
Q 35.0625 48.390625 27.6875 48.390625 
Q 23 48.390625 18.546875 47.265625 
Q 14.109375 46.140625 10.015625 43.890625 
L 10.015625 52.203125 
Q 14.9375 54.109375 19.578125 55.046875 
Q 24.21875 56 28.609375 56 
Q 40.484375 56 46.34375 49.84375 
Q 52.203125 43.703125 52.203125 31.203125 
" id="BitstreamVeraSans-Roman-61"/>
      <path d="M 44.28125 53.078125 
L 44.28125 44.578125 
Q 40.484375 46.53125 36.375 47.5 
Q 32.28125 48.484375 27.875 48.484375 
Q 21.1875 48.484375 17.84375 46.4375 
Q 14.5 44.390625 14.5 40.28125 
Q 14.5 37.15625 16.890625 35.375 
Q 19.28125 33.59375 26.515625 31.984375 
L 29.59375 31.296875 
Q 39.15625 29.25 43.1875 25.515625 
Q 47.21875 21.78125 47.21875 15.09375 
Q 47.21875 7.46875 41.1875 3.015625 
Q 35.15625 -1.421875 24.609375 -1.421875 
Q 20.21875 -1.421875 15.453125 -0.5625 
Q 10.6875 0.296875 5.421875 2 
L 5.421875 11.28125 
Q 10.40625 8.6875 15.234375 7.390625 
Q 20.0625 6.109375 24.8125 6.109375 
Q 31.15625 6.109375 34.5625 8.28125 
Q 37.984375 10.453125 37.984375 14.40625 
Q 37.984375 18.0625 35.515625 20.015625 
Q 33.0625 21.96875 24.703125 23.78125 
L 21.578125 24.515625 
Q 13.234375 26.265625 9.515625 29.90625 
Q 5.8125 33.546875 5.8125 39.890625 
Q 5.8125 47.609375 11.28125 51.796875 
Q 16.75 56 26.8125 56 
Q 31.78125 56 36.171875 55.265625 
Q 40.578125 54.546875 44.28125 53.078125 
" id="BitstreamVeraSans-Roman-73"/>
      <path d="M 9.8125 72.90625 
L 19.671875 72.90625 
L 19.671875 0 
L 9.8125 0 
z
" id="BitstreamVeraSans-Roman-49"/>
     </defs>
     <g transform="translate(140.8490625 334.173824257)scale(0.2 -0.2)">
      <use xlink:href="#BitstreamVeraSans-Roman-6c"/>
      <use x="27.783203125" xlink:href="#BitstreamVeraSans-Roman-6f"/>
      <use x="88.96484375" xlink:href="#BitstreamVeraSans-Roman-67"/>
      <use x="152.44140625" xlink:href="#BitstreamVeraSans-Roman-31"/>
      <use x="216.064453125" xlink:href="#BitstreamVeraSans-Roman-30"/>
      <use x="279.6875" xlink:href="#BitstreamVeraSans-Roman-20"/>
      <use x="311.474609375" xlink:href="#BitstreamVeraSans-Roman-6f"/>
      <use x="372.65625" xlink:href="#BitstreamVeraSans-Roman-66"/>
      <use x="407.861328125" xlink:href="#BitstreamVeraSans-Roman-20"/>
      <use x="439.6484375" xlink:href="#BitstreamVeraSans-Roman-46"/>
      <use x="497.16796875" xlink:href="#BitstreamVeraSans-Roman-45"/>
      <use x="560.3515625" xlink:href="#BitstreamVeraSans-Roman-76"/>
      <use x="619.53125" xlink:href="#BitstreamVeraSans-Roman-61"/>
      <use x="680.810546875" xlink:href="#BitstreamVeraSans-Roman-6c"/>
      <use x="708.59375" xlink:href="#BitstreamVeraSans-Roman-73"/>
      <use x="760.693359375" xlink:href="#BitstreamVeraSans-Roman-20"/>
      <use x="792.48046875" xlink:href="#BitstreamVeraSans-Roman-2f"/>
      <use x="826.171875" xlink:href="#BitstreamVeraSans-Roman-20"/>
      <use x="857.958984375" xlink:href="#BitstreamVeraSans-Roman-44"/>
      <use x="934.9609375" xlink:href="#BitstreamVeraSans-Roman-49"/>
      <use x="964.453125" xlink:href="#BitstreamVeraSans-Roman-4d"/>
     </g>
    </g>
   </g>
   <g id="matplotlib.axis_2">
    <g id="ytick_1">
     <g id="line2d_94">
      <path clip-path="url(#pa0ad085d24)" d="M 67.3625 290.620699 
L 424.4825 290.620699 
" style="fill:none;stroke:#000000;stroke-dasharray:1.000000,3.000000;stroke-dashoffset:0.0;stroke-width:0.5;"/>
     </g>
     <g id="line2d_95">
      <defs>
       <path d="M 0 0 
L 4 0 
" id="md679840c5f" style="stroke:#000000;stroke-width:0.5;"/>
      </defs>
      <g>
       <use style="stroke:#000000;stroke-width:0.5;" x="67.3625" xlink:href="#md679840c5f" y="290.620699257"/>
      </g>
     </g>
     <g id="line2d_96">
      <defs>
       <path d="M 0 0 
L -4 0 
" id="m821ccd6b60" style="stroke:#000000;stroke-width:0.5;"/>
      </defs>
      <g>
       <use style="stroke:#000000;stroke-width:0.5;" x="424.4825" xlink:href="#m821ccd6b60" y="290.620699257"/>
      </g>
     </g>
     <g id="text_5">
      <!-- 0.0 -->
      <defs>
       <path d="M 10.6875 12.40625 
L 21 12.40625 
L 21 0 
L 10.6875 0 
z
" id="BitstreamVeraSans-Roman-2e"/>
      </defs>
      <g transform="translate(31.55625 296.139449257)scale(0.2 -0.2)">
       <use xlink:href="#BitstreamVeraSans-Roman-30"/>
       <use x="63.623046875" xlink:href="#BitstreamVeraSans-Roman-2e"/>
       <use x="95.41015625" xlink:href="#BitstreamVeraSans-Roman-30"/>
      </g>
     </g>
    </g>
    <g id="ytick_2">
     <g id="line2d_97">
      <path clip-path="url(#pa0ad085d24)" d="M 67.3625 235.872184 
L 424.4825 235.872184 
" style="fill:none;stroke:#000000;stroke-dasharray:1.000000,3.000000;stroke-dashoffset:0.0;stroke-width:0.5;"/>
     </g>
     <g id="line2d_98">
      <g>
       <use style="stroke:#000000;stroke-width:0.5;" x="67.3625" xlink:href="#md679840c5f" y="235.872184406"/>
      </g>
     </g>
     <g id="line2d_99">
      <g>
       <use style="stroke:#000000;stroke-width:0.5;" x="424.4825" xlink:href="#m821ccd6b60" y="235.872184406"/>
      </g>
     </g>
     <g id="text_6">
      <!-- 0.2 -->
      <g transform="translate(31.55625 241.390934406)scale(0.2 -0.2)">
       <use xlink:href="#BitstreamVeraSans-Roman-30"/>
       <use x="63.623046875" xlink:href="#BitstreamVeraSans-Roman-2e"/>
       <use x="95.41015625" xlink:href="#BitstreamVeraSans-Roman-32"/>
      </g>
     </g>
    </g>
    <g id="ytick_3">
     <g id="line2d_100">
      <path clip-path="url(#pa0ad085d24)" d="M 67.3625 181.12367 
L 424.4825 181.12367 
" style="fill:none;stroke:#000000;stroke-dasharray:1.000000,3.000000;stroke-dashoffset:0.0;stroke-width:0.5;"/>
     </g>
     <g id="line2d_101">
      <g>
       <use style="stroke:#000000;stroke-width:0.5;" x="67.3625" xlink:href="#md679840c5f" y="181.123669554"/>
      </g>
     </g>
     <g id="line2d_102">
      <g>
       <use style="stroke:#000000;stroke-width:0.5;" x="424.4825" xlink:href="#m821ccd6b60" y="181.123669554"/>
      </g>
     </g>
     <g id="text_7">
      <!-- 0.4 -->
      <defs>
       <path d="M 37.796875 64.3125 
L 12.890625 25.390625 
L 37.796875 25.390625 
z
M 35.203125 72.90625 
L 47.609375 72.90625 
L 47.609375 25.390625 
L 58.015625 25.390625 
L 58.015625 17.1875 
L 47.609375 17.1875 
L 47.609375 0 
L 37.796875 0 
L 37.796875 17.1875 
L 4.890625 17.1875 
L 4.890625 26.703125 
z
" id="BitstreamVeraSans-Roman-34"/>
      </defs>
      <g transform="translate(31.55625 186.642419554)scale(0.2 -0.2)">
       <use xlink:href="#BitstreamVeraSans-Roman-30"/>
       <use x="63.623046875" xlink:href="#BitstreamVeraSans-Roman-2e"/>
       <use x="95.41015625" xlink:href="#BitstreamVeraSans-Roman-34"/>
      </g>
     </g>
    </g>
    <g id="ytick_4">
     <g id="line2d_103">
      <path clip-path="url(#pa0ad085d24)" d="M 67.3625 126.375155 
L 424.4825 126.375155 
" style="fill:none;stroke:#000000;stroke-dasharray:1.000000,3.000000;stroke-dashoffset:0.0;stroke-width:0.5;"/>
     </g>
     <g id="line2d_104">
      <g>
       <use style="stroke:#000000;stroke-width:0.5;" x="67.3625" xlink:href="#md679840c5f" y="126.375154703"/>
      </g>
     </g>
     <g id="line2d_105">
      <g>
       <use style="stroke:#000000;stroke-width:0.5;" x="424.4825" xlink:href="#m821ccd6b60" y="126.375154703"/>
      </g>
     </g>
     <g id="text_8">
      <!-- 0.6 -->
      <defs>
       <path d="M 33.015625 40.375 
Q 26.375 40.375 22.484375 35.828125 
Q 18.609375 31.296875 18.609375 23.390625 
Q 18.609375 15.53125 22.484375 10.953125 
Q 26.375 6.390625 33.015625 6.390625 
Q 39.65625 6.390625 43.53125 10.953125 
Q 47.40625 15.53125 47.40625 23.390625 
Q 47.40625 31.296875 43.53125 35.828125 
Q 39.65625 40.375 33.015625 40.375 
M 52.59375 71.296875 
L 52.59375 62.3125 
Q 48.875 64.0625 45.09375 64.984375 
Q 41.3125 65.921875 37.59375 65.921875 
Q 27.828125 65.921875 22.671875 59.328125 
Q 17.53125 52.734375 16.796875 39.40625 
Q 19.671875 43.65625 24.015625 45.921875 
Q 28.375 48.1875 33.59375 48.1875 
Q 44.578125 48.1875 50.953125 41.515625 
Q 57.328125 34.859375 57.328125 23.390625 
Q 57.328125 12.15625 50.6875 5.359375 
Q 44.046875 -1.421875 33.015625 -1.421875 
Q 20.359375 -1.421875 13.671875 8.265625 
Q 6.984375 17.96875 6.984375 36.375 
Q 6.984375 53.65625 15.1875 63.9375 
Q 23.390625 74.21875 37.203125 74.21875 
Q 40.921875 74.21875 44.703125 73.484375 
Q 48.484375 72.75 52.59375 71.296875 
" id="BitstreamVeraSans-Roman-36"/>
      </defs>
      <g transform="translate(31.55625 131.893904703)scale(0.2 -0.2)">
       <use xlink:href="#BitstreamVeraSans-Roman-30"/>
       <use x="63.623046875" xlink:href="#BitstreamVeraSans-Roman-2e"/>
       <use x="95.41015625" xlink:href="#BitstreamVeraSans-Roman-36"/>
      </g>
     </g>
    </g>
    <g id="ytick_5">
     <g id="line2d_106">
      <path clip-path="url(#pa0ad085d24)" d="M 67.3625 71.62664 
L 424.4825 71.62664 
" style="fill:none;stroke:#000000;stroke-dasharray:1.000000,3.000000;stroke-dashoffset:0.0;stroke-width:0.5;"/>
     </g>
     <g id="line2d_107">
      <g>
       <use style="stroke:#000000;stroke-width:0.5;" x="67.3625" xlink:href="#md679840c5f" y="71.6266398515"/>
      </g>
     </g>
     <g id="line2d_108">
      <g>
       <use style="stroke:#000000;stroke-width:0.5;" x="424.4825" xlink:href="#m821ccd6b60" y="71.6266398515"/>
      </g>
     </g>
     <g id="text_9">
      <!-- 0.8 -->
      <defs>
       <path d="M 31.78125 34.625 
Q 24.75 34.625 20.71875 30.859375 
Q 16.703125 27.09375 16.703125 20.515625 
Q 16.703125 13.921875 20.71875 10.15625 
Q 24.75 6.390625 31.78125 6.390625 
Q 38.8125 6.390625 42.859375 10.171875 
Q 46.921875 13.96875 46.921875 20.515625 
Q 46.921875 27.09375 42.890625 30.859375 
Q 38.875 34.625 31.78125 34.625 
M 21.921875 38.8125 
Q 15.578125 40.375 12.03125 44.71875 
Q 8.5 49.078125 8.5 55.328125 
Q 8.5 64.0625 14.71875 69.140625 
Q 20.953125 74.21875 31.78125 74.21875 
Q 42.671875 74.21875 48.875 69.140625 
Q 55.078125 64.0625 55.078125 55.328125 
Q 55.078125 49.078125 51.53125 44.71875 
Q 48 40.375 41.703125 38.8125 
Q 48.828125 37.15625 52.796875 32.3125 
Q 56.78125 27.484375 56.78125 20.515625 
Q 56.78125 9.90625 50.3125 4.234375 
Q 43.84375 -1.421875 31.78125 -1.421875 
Q 19.734375 -1.421875 13.25 4.234375 
Q 6.78125 9.90625 6.78125 20.515625 
Q 6.78125 27.484375 10.78125 32.3125 
Q 14.796875 37.15625 21.921875 38.8125 
M 18.3125 54.390625 
Q 18.3125 48.734375 21.84375 45.5625 
Q 25.390625 42.390625 31.78125 42.390625 
Q 38.140625 42.390625 41.71875 45.5625 
Q 45.3125 48.734375 45.3125 54.390625 
Q 45.3125 60.0625 41.71875 63.234375 
Q 38.140625 66.40625 31.78125 66.40625 
Q 25.390625 66.40625 21.84375 63.234375 
Q 18.3125 60.0625 18.3125 54.390625 
" id="BitstreamVeraSans-Roman-38"/>
      </defs>
      <g transform="translate(31.55625 77.1453898515)scale(0.2 -0.2)">
       <use xlink:href="#BitstreamVeraSans-Roman-30"/>
       <use x="63.623046875" xlink:href="#BitstreamVeraSans-Roman-2e"/>
       <use x="95.41015625" xlink:href="#BitstreamVeraSans-Roman-38"/>
      </g>
     </g>
    </g>
    <g id="ytick_6">
     <g id="line2d_109">
      <path clip-path="url(#pa0ad085d24)" d="M 67.3625 16.878125 
L 424.4825 16.878125 
" style="fill:none;stroke:#000000;stroke-dasharray:1.000000,3.000000;stroke-dashoffset:0.0;stroke-width:0.5;"/>
     </g>
     <g id="line2d_110">
      <g>
       <use style="stroke:#000000;stroke-width:0.5;" x="67.3625" xlink:href="#md679840c5f" y="16.878125"/>
      </g>
     </g>
     <g id="line2d_111">
      <g>
       <use style="stroke:#000000;stroke-width:0.5;" x="424.4825" xlink:href="#m821ccd6b60" y="16.878125"/>
      </g>
     </g>
     <g id="text_10">
      <!-- 1.0 -->
      <g transform="translate(31.55625 22.396875)scale(0.2 -0.2)">
       <use xlink:href="#BitstreamVeraSans-Roman-31"/>
       <use x="63.623046875" xlink:href="#BitstreamVeraSans-Roman-2e"/>
       <use x="95.41015625" xlink:href="#BitstreamVeraSans-Roman-30"/>
      </g>
     </g>
    </g>
    <g id="text_11">
     <!-- proportion of trials -->
     <defs>
      <path d="M 54.890625 33.015625 
L 54.890625 0 
L 45.90625 0 
L 45.90625 32.71875 
Q 45.90625 40.484375 42.875 44.328125 
Q 39.84375 48.1875 33.796875 48.1875 
Q 26.515625 48.1875 22.3125 43.546875 
Q 18.109375 38.921875 18.109375 30.90625 
L 18.109375 0 
L 9.078125 0 
L 9.078125 54.6875 
L 18.109375 54.6875 
L 18.109375 46.1875 
Q 21.34375 51.125 25.703125 53.5625 
Q 30.078125 56 35.796875 56 
Q 45.21875 56 50.046875 50.171875 
Q 54.890625 44.34375 54.890625 33.015625 
" id="BitstreamVeraSans-Roman-6e"/>
      <path d="M 9.421875 54.6875 
L 18.40625 54.6875 
L 18.40625 0 
L 9.421875 0 
z
M 9.421875 75.984375 
L 18.40625 75.984375 
L 18.40625 64.59375 
L 9.421875 64.59375 
z
" id="BitstreamVeraSans-Roman-69"/>
      <path d="M 18.3125 70.21875 
L 18.3125 54.6875 
L 36.8125 54.6875 
L 36.8125 47.703125 
L 18.3125 47.703125 
L 18.3125 18.015625 
Q 18.3125 11.328125 20.140625 9.421875 
Q 21.96875 7.515625 27.59375 7.515625 
L 36.8125 7.515625 
L 36.8125 0 
L 27.59375 0 
Q 17.1875 0 13.234375 3.875 
Q 9.28125 7.765625 9.28125 18.015625 
L 9.28125 47.703125 
L 2.6875 47.703125 
L 2.6875 54.6875 
L 9.28125 54.6875 
L 9.28125 70.21875 
z
" id="BitstreamVeraSans-Roman-74"/>
      <path d="M 41.109375 46.296875 
Q 39.59375 47.171875 37.8125 47.578125 
Q 36.03125 48 33.890625 48 
Q 26.265625 48 22.1875 43.046875 
Q 18.109375 38.09375 18.109375 28.8125 
L 18.109375 0 
L 9.078125 0 
L 9.078125 54.6875 
L 18.109375 54.6875 
L 18.109375 46.1875 
Q 20.953125 51.171875 25.484375 53.578125 
Q 30.03125 56 36.53125 56 
Q 37.453125 56 38.578125 55.875 
Q 39.703125 55.765625 41.0625 55.515625 
z
" id="BitstreamVeraSans-Roman-72"/>
      <path d="M 18.109375 8.203125 
L 18.109375 -20.796875 
L 9.078125 -20.796875 
L 9.078125 54.6875 
L 18.109375 54.6875 
L 18.109375 46.390625 
Q 20.953125 51.265625 25.265625 53.625 
Q 29.59375 56 35.59375 56 
Q 45.5625 56 51.78125 48.09375 
Q 58.015625 40.1875 58.015625 27.296875 
Q 58.015625 14.40625 51.78125 6.484375 
Q 45.5625 -1.421875 35.59375 -1.421875 
Q 29.59375 -1.421875 25.265625 0.953125 
Q 20.953125 3.328125 18.109375 8.203125 
M 48.6875 27.296875 
Q 48.6875 37.203125 44.609375 42.84375 
Q 40.53125 48.484375 33.40625 48.484375 
Q 26.265625 48.484375 22.1875 42.84375 
Q 18.109375 37.203125 18.109375 27.296875 
Q 18.109375 17.390625 22.1875 11.75 
Q 26.265625 6.109375 33.40625 6.109375 
Q 40.53125 6.109375 44.609375 11.75 
Q 48.6875 17.390625 48.6875 27.296875 
" id="BitstreamVeraSans-Roman-70"/>
     </defs>
     <g transform="translate(22.396875 245.608824257)rotate(-90.0)scale(0.2 -0.2)">
      <use xlink:href="#BitstreamVeraSans-Roman-70"/>
      <use x="63.4765625" xlink:href="#BitstreamVeraSans-Roman-72"/>
      <use x="104.55859375" xlink:href="#BitstreamVeraSans-Roman-6f"/>
      <use x="165.740234375" xlink:href="#BitstreamVeraSans-Roman-70"/>
      <use x="229.216796875" xlink:href="#BitstreamVeraSans-Roman-6f"/>
      <use x="290.3984375" xlink:href="#BitstreamVeraSans-Roman-72"/>
      <use x="331.51171875" xlink:href="#BitstreamVeraSans-Roman-74"/>
      <use x="370.720703125" xlink:href="#BitstreamVeraSans-Roman-69"/>
      <use x="398.50390625" xlink:href="#BitstreamVeraSans-Roman-6f"/>
      <use x="459.685546875" xlink:href="#BitstreamVeraSans-Roman-6e"/>
      <use x="523.064453125" xlink:href="#BitstreamVeraSans-Roman-20"/>
      <use x="554.8515625" xlink:href="#BitstreamVeraSans-Roman-6f"/>
      <use x="616.033203125" xlink:href="#BitstreamVeraSans-Roman-66"/>
      <use x="651.23828125" xlink:href="#BitstreamVeraSans-Roman-20"/>
      <use x="683.025390625" xlink:href="#BitstreamVeraSans-Roman-74"/>
      <use x="722.234375" xlink:href="#BitstreamVeraSans-Roman-72"/>
      <use x="763.34765625" xlink:href="#BitstreamVeraSans-Roman-69"/>
      <use x="791.130859375" xlink:href="#BitstreamVeraSans-Roman-61"/>
      <use x="852.41015625" xlink:href="#BitstreamVeraSans-Roman-6c"/>
      <use x="880.193359375" xlink:href="#BitstreamVeraSans-Roman-73"/>
     </g>
    </g>
   </g>
   <g id="text_12">
    <!-- f6-9,20-D -->
    <defs>
     <path d="M 11.71875 12.40625 
L 22.015625 12.40625 
L 22.015625 4 
L 14.015625 -11.625 
L 7.71875 -11.625 
L 11.71875 4 
z
" id="BitstreamVeraSans-Roman-2c"/>
     <path d="M 10.984375 1.515625 
L 10.984375 10.5 
Q 14.703125 8.734375 18.5 7.8125 
Q 22.3125 6.890625 25.984375 6.890625 
Q 35.75 6.890625 40.890625 13.453125 
Q 46.046875 20.015625 46.78125 33.40625 
Q 43.953125 29.203125 39.59375 26.953125 
Q 35.25 24.703125 29.984375 24.703125 
Q 19.046875 24.703125 12.671875 31.3125 
Q 6.296875 37.9375 6.296875 49.421875 
Q 6.296875 60.640625 12.9375 67.421875 
Q 19.578125 74.21875 30.609375 74.21875 
Q 43.265625 74.21875 49.921875 64.515625 
Q 56.59375 54.828125 56.59375 36.375 
Q 56.59375 19.140625 48.40625 8.859375 
Q 40.234375 -1.421875 26.421875 -1.421875 
Q 22.703125 -1.421875 18.890625 -0.6875 
Q 15.09375 0.046875 10.984375 1.515625 
M 30.609375 32.421875 
Q 37.25 32.421875 41.125 36.953125 
Q 45.015625 41.5 45.015625 49.421875 
Q 45.015625 57.28125 41.125 61.84375 
Q 37.25 66.40625 30.609375 66.40625 
Q 23.96875 66.40625 20.09375 61.84375 
Q 16.21875 57.28125 16.21875 49.421875 
Q 16.21875 41.5 20.09375 36.953125 
Q 23.96875 32.421875 30.609375 32.421875 
" id="BitstreamVeraSans-Roman-39"/>
     <path d="M 4.890625 31.390625 
L 31.203125 31.390625 
L 31.203125 23.390625 
L 4.890625 23.390625 
z
" id="BitstreamVeraSans-Roman-2d"/>
    </defs>
    <g transform="translate(198.8584375 34.8671742574)scale(0.2 -0.2)">
     <use xlink:href="#BitstreamVeraSans-Roman-66"/>
     <use x="35.205078125" xlink:href="#BitstreamVeraSans-Roman-36"/>
     <use x="98.828125" xlink:href="#BitstreamVeraSans-Roman-2d"/>
     <use x="134.912109375" xlink:href="#BitstreamVeraSans-Roman-39"/>
     <use x="198.53515625" xlink:href="#BitstreamVeraSans-Roman-2c"/>
     <use x="230.322265625" xlink:href="#BitstreamVeraSans-Roman-32"/>
     <use x="293.9453125" xlink:href="#BitstreamVeraSans-Roman-30"/>
     <use x="357.568359375" xlink:href="#BitstreamVeraSans-Roman-2d"/>
     <use x="393.65234375" xlink:href="#BitstreamVeraSans-Roman-44"/>
    </g>
   </g>
   <g id="text_13">
    <!-- reference budgets from bestGECCO2009 -->
    <defs>
     <path d="M 39.40625 66.21875 
Q 28.65625 66.21875 22.328125 58.203125 
Q 16.015625 50.203125 16.015625 36.375 
Q 16.015625 22.609375 22.328125 14.59375 
Q 28.65625 6.59375 39.40625 6.59375 
Q 50.140625 6.59375 56.421875 14.59375 
Q 62.703125 22.609375 62.703125 36.375 
Q 62.703125 50.203125 56.421875 58.203125 
Q 50.140625 66.21875 39.40625 66.21875 
M 39.40625 74.21875 
Q 54.734375 74.21875 63.90625 63.9375 
Q 73.09375 53.65625 73.09375 36.375 
Q 73.09375 19.140625 63.90625 8.859375 
Q 54.734375 -1.421875 39.40625 -1.421875 
Q 24.03125 -1.421875 14.8125 8.828125 
Q 5.609375 19.09375 5.609375 36.375 
Q 5.609375 53.65625 14.8125 63.9375 
Q 24.03125 74.21875 39.40625 74.21875 
" id="BitstreamVeraSans-Roman-4f"/>
     <path d="M 52 44.1875 
Q 55.375 50.25 60.0625 53.125 
Q 64.75 56 71.09375 56 
Q 79.640625 56 84.28125 50.015625 
Q 88.921875 44.046875 88.921875 33.015625 
L 88.921875 0 
L 79.890625 0 
L 79.890625 32.71875 
Q 79.890625 40.578125 77.09375 44.375 
Q 74.3125 48.1875 68.609375 48.1875 
Q 61.625 48.1875 57.5625 43.546875 
Q 53.515625 38.921875 53.515625 30.90625 
L 53.515625 0 
L 44.484375 0 
L 44.484375 32.71875 
Q 44.484375 40.625 41.703125 44.40625 
Q 38.921875 48.1875 33.109375 48.1875 
Q 26.21875 48.1875 22.15625 43.53125 
Q 18.109375 38.875 18.109375 30.90625 
L 18.109375 0 
L 9.078125 0 
L 9.078125 54.6875 
L 18.109375 54.6875 
L 18.109375 46.1875 
Q 21.1875 51.21875 25.484375 53.609375 
Q 29.78125 56 35.6875 56 
Q 41.65625 56 45.828125 52.96875 
Q 50 49.953125 52 44.1875 
" id="BitstreamVeraSans-Roman-6d"/>
     <path d="M 59.515625 10.40625 
L 59.515625 29.984375 
L 43.40625 29.984375 
L 43.40625 38.09375 
L 69.28125 38.09375 
L 69.28125 6.78125 
Q 63.578125 2.734375 56.6875 0.65625 
Q 49.8125 -1.421875 42 -1.421875 
Q 24.90625 -1.421875 15.25 8.5625 
Q 5.609375 18.5625 5.609375 36.375 
Q 5.609375 54.25 15.25 64.234375 
Q 24.90625 74.21875 42 74.21875 
Q 49.125 74.21875 55.546875 72.453125 
Q 61.96875 70.703125 67.390625 67.28125 
L 67.390625 56.78125 
Q 61.921875 61.421875 55.765625 63.765625 
Q 49.609375 66.109375 42.828125 66.109375 
Q 29.4375 66.109375 22.71875 58.640625 
Q 16.015625 51.171875 16.015625 36.375 
Q 16.015625 21.625 22.71875 14.15625 
Q 29.4375 6.6875 42.828125 6.6875 
Q 48.046875 6.6875 52.140625 7.59375 
Q 56.25 8.5 59.515625 10.40625 
" id="BitstreamVeraSans-Roman-47"/>
     <path d="M 64.40625 67.28125 
L 64.40625 56.890625 
Q 59.421875 61.53125 53.78125 63.8125 
Q 48.140625 66.109375 41.796875 66.109375 
Q 29.296875 66.109375 22.65625 58.46875 
Q 16.015625 50.828125 16.015625 36.375 
Q 16.015625 21.96875 22.65625 14.328125 
Q 29.296875 6.6875 41.796875 6.6875 
Q 48.140625 6.6875 53.78125 8.984375 
Q 59.421875 11.28125 64.40625 15.921875 
L 64.40625 5.609375 
Q 59.234375 2.09375 53.4375 0.328125 
Q 47.65625 -1.421875 41.21875 -1.421875 
Q 24.65625 -1.421875 15.125 8.703125 
Q 5.609375 18.84375 5.609375 36.375 
Q 5.609375 53.953125 15.125 64.078125 
Q 24.65625 74.21875 41.21875 74.21875 
Q 47.75 74.21875 53.53125 72.484375 
Q 59.328125 70.75 64.40625 67.28125 
" id="BitstreamVeraSans-Roman-43"/>
     <path d="M 56.203125 29.59375 
L 56.203125 25.203125 
L 14.890625 25.203125 
Q 15.484375 15.921875 20.484375 11.0625 
Q 25.484375 6.203125 34.421875 6.203125 
Q 39.59375 6.203125 44.453125 7.46875 
Q 49.3125 8.734375 54.109375 11.28125 
L 54.109375 2.78125 
Q 49.265625 0.734375 44.1875 -0.34375 
Q 39.109375 -1.421875 33.890625 -1.421875 
Q 20.796875 -1.421875 13.15625 6.1875 
Q 5.515625 13.8125 5.515625 26.8125 
Q 5.515625 40.234375 12.765625 48.109375 
Q 20.015625 56 32.328125 56 
Q 43.359375 56 49.78125 48.890625 
Q 56.203125 41.796875 56.203125 29.59375 
M 47.21875 32.234375 
Q 47.125 39.59375 43.09375 43.984375 
Q 39.0625 48.390625 32.421875 48.390625 
Q 24.90625 48.390625 20.390625 44.140625 
Q 15.875 39.890625 15.1875 32.171875 
z
" id="BitstreamVeraSans-Roman-65"/>
     <path d="M 45.40625 46.390625 
L 45.40625 75.984375 
L 54.390625 75.984375 
L 54.390625 0 
L 45.40625 0 
L 45.40625 8.203125 
Q 42.578125 3.328125 38.25 0.953125 
Q 33.9375 -1.421875 27.875 -1.421875 
Q 17.96875 -1.421875 11.734375 6.484375 
Q 5.515625 14.40625 5.515625 27.296875 
Q 5.515625 40.1875 11.734375 48.09375 
Q 17.96875 56 27.875 56 
Q 33.9375 56 38.25 53.625 
Q 42.578125 51.265625 45.40625 46.390625 
M 14.796875 27.296875 
Q 14.796875 17.390625 18.875 11.75 
Q 22.953125 6.109375 30.078125 6.109375 
Q 37.203125 6.109375 41.296875 11.75 
Q 45.40625 17.390625 45.40625 27.296875 
Q 45.40625 37.203125 41.296875 42.84375 
Q 37.203125 48.484375 30.078125 48.484375 
Q 22.953125 48.484375 18.875 42.84375 
Q 14.796875 37.203125 14.796875 27.296875 
" id="BitstreamVeraSans-Roman-64"/>
     <path d="M 8.5 21.578125 
L 8.5 54.6875 
L 17.484375 54.6875 
L 17.484375 21.921875 
Q 17.484375 14.15625 20.5 10.265625 
Q 23.53125 6.390625 29.59375 6.390625 
Q 36.859375 6.390625 41.078125 11.03125 
Q 45.3125 15.671875 45.3125 23.6875 
L 45.3125 54.6875 
L 54.296875 54.6875 
L 54.296875 0 
L 45.3125 0 
L 45.3125 8.40625 
Q 42.046875 3.421875 37.71875 1 
Q 33.40625 -1.421875 27.6875 -1.421875 
Q 18.265625 -1.421875 13.375 4.4375 
Q 8.5 10.296875 8.5 21.578125 
" id="BitstreamVeraSans-Roman-75"/>
     <path d="M 48.78125 52.59375 
L 48.78125 44.1875 
Q 44.96875 46.296875 41.140625 47.34375 
Q 37.3125 48.390625 33.40625 48.390625 
Q 24.65625 48.390625 19.8125 42.84375 
Q 14.984375 37.3125 14.984375 27.296875 
Q 14.984375 17.28125 19.8125 11.734375 
Q 24.65625 6.203125 33.40625 6.203125 
Q 37.3125 6.203125 41.140625 7.25 
Q 44.96875 8.296875 48.78125 10.40625 
L 48.78125 2.09375 
Q 45.015625 0.34375 40.984375 -0.53125 
Q 36.96875 -1.421875 32.421875 -1.421875 
Q 20.0625 -1.421875 12.78125 6.34375 
Q 5.515625 14.109375 5.515625 27.296875 
Q 5.515625 40.671875 12.859375 48.328125 
Q 20.21875 56 33.015625 56 
Q 37.15625 56 41.109375 55.140625 
Q 45.0625 54.296875 48.78125 52.59375 
" id="BitstreamVeraSans-Roman-63"/>
     <path d="M 48.6875 27.296875 
Q 48.6875 37.203125 44.609375 42.84375 
Q 40.53125 48.484375 33.40625 48.484375 
Q 26.265625 48.484375 22.1875 42.84375 
Q 18.109375 37.203125 18.109375 27.296875 
Q 18.109375 17.390625 22.1875 11.75 
Q 26.265625 6.109375 33.40625 6.109375 
Q 40.53125 6.109375 44.609375 11.75 
Q 48.6875 17.390625 48.6875 27.296875 
M 18.109375 46.390625 
Q 20.953125 51.265625 25.265625 53.625 
Q 29.59375 56 35.59375 56 
Q 45.5625 56 51.78125 48.09375 
Q 58.015625 40.1875 58.015625 27.296875 
Q 58.015625 14.40625 51.78125 6.484375 
Q 45.5625 -1.421875 35.59375 -1.421875 
Q 29.59375 -1.421875 25.265625 0.953125 
Q 20.953125 3.328125 18.109375 8.203125 
L 18.109375 0 
L 9.078125 0 
L 9.078125 75.984375 
L 18.109375 75.984375 
z
" id="BitstreamVeraSans-Roman-62"/>
    </defs>
    <g transform="translate(67.3625 290.620699257)scale(0.14 -0.14)">
     <use xlink:href="#BitstreamVeraSans-Roman-72"/>
     <use x="41.08203125" xlink:href="#BitstreamVeraSans-Roman-65"/>
     <use x="102.60546875" xlink:href="#BitstreamVeraSans-Roman-66"/>
     <use x="137.810546875" xlink:href="#BitstreamVeraSans-Roman-65"/>
     <use x="199.333984375" xlink:href="#BitstreamVeraSans-Roman-72"/>
     <use x="240.416015625" xlink:href="#BitstreamVeraSans-Roman-65"/>
     <use x="301.939453125" xlink:href="#BitstreamVeraSans-Roman-6e"/>
     <use x="365.318359375" xlink:href="#BitstreamVeraSans-Roman-63"/>
     <use x="420.298828125" xlink:href="#BitstreamVeraSans-Roman-65"/>
     <use x="481.822265625" xlink:href="#BitstreamVeraSans-Roman-20"/>
     <use x="513.609375" xlink:href="#BitstreamVeraSans-Roman-62"/>
     <use x="577.0859375" xlink:href="#BitstreamVeraSans-Roman-75"/>
     <use x="640.46484375" xlink:href="#BitstreamVeraSans-Roman-64"/>
     <use x="703.94140625" xlink:href="#BitstreamVeraSans-Roman-67"/>
     <use x="767.41796875" xlink:href="#BitstreamVeraSans-Roman-65"/>
     <use x="828.94140625" xlink:href="#BitstreamVeraSans-Roman-74"/>
     <use x="868.150390625" xlink:href="#BitstreamVeraSans-Roman-73"/>
     <use x="920.25" xlink:href="#BitstreamVeraSans-Roman-20"/>
     <use x="952.037109375" xlink:href="#BitstreamVeraSans-Roman-66"/>
     <use x="987.2421875" xlink:href="#BitstreamVeraSans-Roman-72"/>
     <use x="1028.32421875" xlink:href="#BitstreamVeraSans-Roman-6f"/>
     <use x="1089.50585938" xlink:href="#BitstreamVeraSans-Roman-6d"/>
     <use x="1186.91796875" xlink:href="#BitstreamVeraSans-Roman-20"/>
     <use x="1218.70507812" xlink:href="#BitstreamVeraSans-Roman-62"/>
     <use x="1282.18164062" xlink:href="#BitstreamVeraSans-Roman-65"/>
     <use x="1343.70507812" xlink:href="#BitstreamVeraSans-Roman-73"/>
     <use x="1395.8046875" xlink:href="#BitstreamVeraSans-Roman-74"/>
     <use x="1435.01367188" xlink:href="#BitstreamVeraSans-Roman-47"/>
     <use x="1512.50390625" xlink:href="#BitstreamVeraSans-Roman-45"/>
     <use x="1575.6875" xlink:href="#BitstreamVeraSans-Roman-43"/>
     <use x="1645.51171875" xlink:href="#BitstreamVeraSans-Roman-43"/>
     <use x="1715.3359375" xlink:href="#BitstreamVeraSans-Roman-4f"/>
     <use x="1794.046875" xlink:href="#BitstreamVeraSans-Roman-32"/>
     <use x="1857.66992188" xlink:href="#BitstreamVeraSans-Roman-30"/>
     <use x="1921.29296875" xlink:href="#BitstreamVeraSans-Roman-30"/>
     <use x="1984.91601562" xlink:href="#BitstreamVeraSans-Roman-39"/>
    </g>
   </g>
   <g id="legend_1">
    <g id="patch_7">
     <path d="M 77.3625 147.565699 
L 226.45 147.565699 
L 226.45 24.140699 
L 77.3625 24.140699 
z
" style="fill:#ffffff;stroke:#000000;stroke-linejoin:miter;"/>
    </g>
    <g id="line2d_112">
     <path d="M 91.3625 40.337574 
L 119.3625 40.337574 
" style="fill:none;stroke:#000000;stroke-linecap:square;"/>
    </g>
    <g id="line2d_113"/>
    <g id="text_14">
     <!-- 0.5: 3/4 -->
     <defs>
      <path d="M 40.578125 39.3125 
Q 47.65625 37.796875 51.625 33 
Q 55.609375 28.21875 55.609375 21.1875 
Q 55.609375 10.40625 48.1875 4.484375 
Q 40.765625 -1.421875 27.09375 -1.421875 
Q 22.515625 -1.421875 17.65625 -0.515625 
Q 12.796875 0.390625 7.625 2.203125 
L 7.625 11.71875 
Q 11.71875 9.328125 16.59375 8.109375 
Q 21.484375 6.890625 26.8125 6.890625 
Q 36.078125 6.890625 40.9375 10.546875 
Q 45.796875 14.203125 45.796875 21.1875 
Q 45.796875 27.640625 41.28125 31.265625 
Q 36.765625 34.90625 28.71875 34.90625 
L 20.21875 34.90625 
L 20.21875 43.015625 
L 29.109375 43.015625 
Q 36.375 43.015625 40.234375 45.921875 
Q 44.09375 48.828125 44.09375 54.296875 
Q 44.09375 59.90625 40.109375 62.90625 
Q 36.140625 65.921875 28.71875 65.921875 
Q 24.65625 65.921875 20.015625 65.03125 
Q 15.375 64.15625 9.8125 62.3125 
L 9.8125 71.09375 
Q 15.4375 72.65625 20.34375 73.4375 
Q 25.25 74.21875 29.59375 74.21875 
Q 40.828125 74.21875 47.359375 69.109375 
Q 53.90625 64.015625 53.90625 55.328125 
Q 53.90625 49.265625 50.4375 45.09375 
Q 46.96875 40.921875 40.578125 39.3125 
" id="BitstreamVeraSans-Roman-33"/>
      <path d="M 11.71875 12.40625 
L 22.015625 12.40625 
L 22.015625 0 
L 11.71875 0 
z
M 11.71875 51.703125 
L 22.015625 51.703125 
L 22.015625 39.3125 
L 11.71875 39.3125 
z
" id="BitstreamVeraSans-Roman-3a"/>
      <path d="M 10.796875 72.90625 
L 49.515625 72.90625 
L 49.515625 64.59375 
L 19.828125 64.59375 
L 19.828125 46.734375 
Q 21.96875 47.46875 24.109375 47.828125 
Q 26.265625 48.1875 28.421875 48.1875 
Q 40.625 48.1875 47.75 41.5 
Q 54.890625 34.8125 54.890625 23.390625 
Q 54.890625 11.625 47.5625 5.09375 
Q 40.234375 -1.421875 26.90625 -1.421875 
Q 22.3125 -1.421875 17.546875 -0.640625 
Q 12.796875 0.140625 7.71875 1.703125 
L 7.71875 11.625 
Q 12.109375 9.234375 16.796875 8.0625 
Q 21.484375 6.890625 26.703125 6.890625 
Q 35.15625 6.890625 40.078125 11.328125 
Q 45.015625 15.765625 45.015625 23.390625 
Q 45.015625 31 40.078125 35.4375 
Q 35.15625 39.890625 26.703125 39.890625 
Q 22.75 39.890625 18.8125 39.015625 
Q 14.890625 38.140625 10.796875 36.28125 
z
" id="BitstreamVeraSans-Roman-35"/>
     </defs>
     <g transform="translate(141.3625 47.3375742574)scale(0.2 -0.2)">
      <use xlink:href="#BitstreamVeraSans-Roman-30"/>
      <use x="63.623046875" xlink:href="#BitstreamVeraSans-Roman-2e"/>
      <use x="95.41015625" xlink:href="#BitstreamVeraSans-Roman-35"/>
      <use x="159.033203125" xlink:href="#BitstreamVeraSans-Roman-3a"/>
      <use x="192.724609375" xlink:href="#BitstreamVeraSans-Roman-20"/>
      <use x="224.51171875" xlink:href="#BitstreamVeraSans-Roman-33"/>
      <use x="288.134765625" xlink:href="#BitstreamVeraSans-Roman-2f"/>
      <use x="321.826171875" xlink:href="#BitstreamVeraSans-Roman-34"/>
     </g>
    </g>
    <g id="line2d_114">
     <path d="M 91.3625 69.693824 
L 119.3625 69.693824 
" style="fill:none;stroke:#00bfbf;stroke-linecap:square;"/>
    </g>
    <g id="line2d_115"/>
    <g id="text_15">
     <!-- 2: 2/4 -->
     <g transform="translate(141.3625 76.6938242574)scale(0.2 -0.2)">
      <use xlink:href="#BitstreamVeraSans-Roman-32"/>
      <use x="63.623046875" xlink:href="#BitstreamVeraSans-Roman-3a"/>
      <use x="97.314453125" xlink:href="#BitstreamVeraSans-Roman-20"/>
      <use x="129.1015625" xlink:href="#BitstreamVeraSans-Roman-32"/>
      <use x="192.724609375" xlink:href="#BitstreamVeraSans-Roman-2f"/>
      <use x="226.416015625" xlink:href="#BitstreamVeraSans-Roman-34"/>
     </g>
    </g>
    <g id="line2d_116">
     <path d="M 91.3625 99.050074 
L 119.3625 99.050074 
" style="fill:none;stroke:#bf00bf;stroke-linecap:square;"/>
    </g>
    <g id="line2d_117"/>
    <g id="text_16">
     <!-- 10: 0/4 -->
     <g transform="translate(141.3625 106.050074257)scale(0.2 -0.2)">
      <use xlink:href="#BitstreamVeraSans-Roman-31"/>
      <use x="63.623046875" xlink:href="#BitstreamVeraSans-Roman-30"/>
      <use x="127.24609375" xlink:href="#BitstreamVeraSans-Roman-3a"/>
      <use x="160.9375" xlink:href="#BitstreamVeraSans-Roman-20"/>
      <use x="192.724609375" xlink:href="#BitstreamVeraSans-Roman-30"/>
      <use x="256.34765625" xlink:href="#BitstreamVeraSans-Roman-2f"/>
      <use x="290.0390625" xlink:href="#BitstreamVeraSans-Roman-34"/>
     </g>
    </g>
    <g id="line2d_118">
     <path d="M 91.3625 128.406324 
L 119.3625 128.406324 
" style="fill:none;stroke:#ff0000;stroke-linecap:square;stroke-width:3.0;"/>
    </g>
    <g id="line2d_119"/>
    <g id="text_17">
     <!-- 50: 0/4 -->
     <g transform="translate(141.3625 135.406324257)scale(0.2 -0.2)">
      <use xlink:href="#BitstreamVeraSans-Roman-35"/>
      <use x="63.623046875" xlink:href="#BitstreamVeraSans-Roman-30"/>
      <use x="127.24609375" xlink:href="#BitstreamVeraSans-Roman-3a"/>
      <use x="160.9375" xlink:href="#BitstreamVeraSans-Roman-20"/>
      <use x="192.724609375" xlink:href="#BitstreamVeraSans-Roman-30"/>
      <use x="256.34765625" xlink:href="#BitstreamVeraSans-Roman-2f"/>
      <use x="290.0390625" xlink:href="#BitstreamVeraSans-Roman-34"/>
     </g>
    </g>
   </g>
  </g>
 </g>
 <defs>
  <clipPath id="pa0ad085d24">
   <rect height="276.48" width="357.12" x="67.3625" y="14.1406992574"/>
  </clipPath>
 </defs>
</svg>
