<?xml version="1.0" encoding="utf-8" standalone="no"?>
<!DOCTYPE svg PUBLIC "-//W3C//DTD SVG 1.1//EN"
  "http://www.w3.org/Graphics/SVG/1.1/DTD/svg11.dtd">
<!-- Created with matplotlib (http://matplotlib.org/) -->
<svg height="345pt" version="1.1" viewBox="0 0 431 345" width="431pt" xmlns="http://www.w3.org/2000/svg" xmlns:xlink="http://www.w3.org/1999/xlink">
 <defs>
  <style type="text/css">
*{stroke-linecap:butt;stroke-linejoin:round;stroke-miterlimit:100000;}
  </style>
 </defs>
 <g id="figure_1">
  <g id="patch_1">
   <path d="M 0 345.533199 
L 431.6825 345.533199 
L 431.6825 0 
L 0 0 
z
" style="fill:#ffffff;"/>
  </g>
  <g id="axes_1">
   <g id="patch_2">
    <path d="M 67.3625 290.620699 
L 424.4825 290.620699 
L 424.4825 14.140699 
L 67.3625 14.140699 
z
" style="fill:#ffffff;"/>
   </g>
   <g id="line2d_1">
    <path clip-path="url(#p5762b7153e)" d="M 305.194336 290.620699 
L 305.194336 286.970798 
L 309.525203 286.970798 
L 309.525203 283.320897 
L 309.858396 283.320897 
L 309.858396 279.670996 
L 312.719431 279.670996 
L 312.719431 276.021095 
L 313.121894 276.021095 
L 313.121894 272.371194 
L 313.565431 272.371194 
L 313.565431 268.721293 
L 313.697754 268.721293 
L 313.697754 265.071392 
L 315.643013 265.071392 
L 315.643013 261.421491 
L 318.650854 261.421491 
L 318.650854 257.77159 
L 319.247816 257.77159 
L 319.247816 254.121689 
L 320.072151 254.121689 
L 320.072151 250.471788 
L 320.768416 250.471788 
L 320.768416 246.821887 
L 320.883554 246.821887 
L 320.883554 243.171986 
L 326.885312 243.171986 
L 326.885312 239.522085 
L 338.921442 239.522085 
L 338.921442 235.872184 
L 342.752091 235.872184 
L 342.752091 232.222283 
L 343.252009 232.222283 
L 343.252009 228.572382 
L 343.771774 228.572382 
L 343.771774 224.922481 
L 346.201113 224.922481 
L 346.201113 221.27258 
L 346.341902 221.27258 
L 346.341902 217.622679 
L 346.901253 217.622679 
L 346.901253 213.972778 
L 350.266458 213.972778 
L 350.266458 210.322877 
L 352.41496 210.322877 
L 352.477432 203.023075 
L 353.159686 203.023075 
L 353.159686 199.373175 
L 353.426001 199.373175 
L 353.426001 195.723274 
L 353.568835 195.723274 
L 353.568835 192.073373 
L 354.397605 192.073373 
L 354.397605 188.423472 
L 354.936216 188.423472 
L 354.936216 184.773571 
L 355.17381 184.773571 
L 355.17381 181.12367 
L 356.190954 181.12367 
L 356.190954 177.473769 
L 356.883592 177.473769 
L 356.883592 173.823868 
L 357.961642 173.823868 
L 357.961642 170.173967 
L 358.520137 170.173967 
L 358.520137 166.524066 
L 358.741857 166.524066 
L 358.741857 162.874165 
L 361.941079 162.874165 
L 361.941079 159.224264 
L 363.072469 159.224264 
L 363.072469 155.574363 
L 363.913401 155.574363 
L 363.913401 151.924462 
L 368.109337 151.924462 
L 368.109337 148.274561 
L 368.629717 148.274561 
L 368.675382 140.974759 
L 373.895493 140.974759 
L 373.895493 137.324858 
L 383.598823 137.324858 
L 383.598823 133.674957 
L 384.637244 133.674957 
L 384.737718 126.375155 
L 389.262702 126.375155 
L 389.262702 122.725254 
L 390.812894 122.725254 
L 390.812894 119.075353 
L 395.302871 119.075353 
L 395.302871 115.425452 
L 395.593005 115.425452 
L 395.593005 111.775551 
L 396.489321 111.775551 
L 396.489321 108.12565 
L 397.221645 108.12565 
L 397.221645 104.475749 
L 401.029188 104.475749 
L 401.029188 100.825848 
L 401.764597 100.825848 
L 401.764597 97.175947 
L 403.189157 97.175947 
L 403.189157 93.526046 
L 403.717274 93.526046 
L 403.717274 89.876145 
L 404.476635 89.876145 
L 404.476635 86.226244 
L 407.443223 86.226244 
L 407.443223 82.576343 
L 409.077954 82.576343 
L 409.077954 78.926442 
L 409.445845 78.926442 
L 409.445845 75.276541 
L 411.917349 75.276541 
L 411.917349 71.62664 
L 412.55955 71.62664 
L 412.55955 67.976739 
L 413.705983 67.976739 
L 413.705983 64.326838 
L 415.434818 64.326838 
L 415.434818 60.676937 
L 418.31617 60.676937 
L 418.31617 57.027036 
L 419.763995 57.027036 
L 419.763995 53.377135 
L 422.317444 53.377135 
L 422.317444 49.727234 
L 423.716629 49.727234 
L 423.716629 46.077333 
L 424.441111 46.077333 
L 424.441111 42.427432 
L 432.6825 42.427432 
L 432.6825 42.427432 
" style="fill:none;stroke:#f5deb3;stroke-linecap:square;"/>
   </g>
   <g id="line2d_2">
    <path clip-path="url(#p5762b7153e)" d="M 373.702573 290.620699 
L 373.702573 286.970798 
L 374.279186 286.970798 
L 374.279186 283.320897 
L 374.510762 283.320897 
L 374.510762 279.670996 
L 378.018064 279.670996 
L 378.018064 276.021095 
L 378.132242 276.021095 
L 378.157581 268.721293 
L 380.133285 268.721293 
L 380.133285 265.071392 
L 380.703133 265.071392 
L 380.703133 261.421491 
L 382.504199 261.421491 
L 382.504199 257.77159 
L 382.875508 257.77159 
L 382.875508 254.121689 
L 383.301537 254.121689 
L 383.301537 250.471788 
L 383.780922 250.471788 
L 383.780922 246.821887 
L 383.996336 246.821887 
L 383.996336 243.171986 
L 385.226134 243.171986 
L 385.226134 239.522085 
L 387.07101 239.522085 
L 387.07101 235.872184 
L 387.230678 235.872184 
L 387.230678 232.222283 
L 387.527411 232.222283 
L 387.527411 228.572382 
L 388.872931 228.572382 
L 388.872931 224.922481 
L 390.134115 224.922481 
L 390.134115 221.27258 
L 392.692272 221.27258 
L 392.692272 217.622679 
L 393.272344 217.622679 
L 393.272344 213.972778 
L 394.901261 213.972778 
L 394.901261 210.322877 
L 395.25739 210.322877 
L 395.25739 206.672976 
L 398.348214 206.672976 
L 398.348214 203.023075 
L 399.265824 203.023075 
L 399.265824 199.373175 
L 399.901927 199.373175 
L 399.901927 195.723274 
L 405.157419 195.723274 
L 405.157419 192.073373 
L 409.070988 192.073373 
L 409.070988 188.423472 
L 409.34199 188.423472 
L 409.34199 184.773571 
L 418.444194 184.773571 
L 418.444194 181.12367 
L 426.131532 181.12367 
L 426.131532 177.473769 
L 431.854159 177.473769 
L 431.854159 173.823868 
L 432.429458 173.823868 
L 432.540213 166.524066 
L 432.6825 166.524066 
L 432.6825 166.524066 
" style="fill:none;stroke:#f5deb3;stroke-linecap:square;"/>
   </g>
   <g id="line2d_3">
    <path clip-path="url(#p5762b7153e)" d="M 412.513942 290.620699 
L 412.513942 286.970798 
L 413.18744 286.970798 
L 413.18744 283.320897 
L 413.245313 283.320897 
L 413.245313 279.670996 
L 413.642246 279.670996 
L 413.642246 276.021095 
L 421.111706 276.021095 
L 421.111706 272.371194 
L 422.843248 272.371194 
L 422.843248 268.721293 
L 425.247387 268.721293 
L 425.247387 265.071392 
L 432.6825 265.071392 
" style="fill:none;stroke:#f5deb3;stroke-linecap:square;"/>
   </g>
   <g id="line2d_4">
    <path clip-path="url(#p5762b7153e)" style="fill:none;stroke:#f5deb3;stroke-linecap:square;"/>
   </g>
   <g id="line2d_5">
    <path clip-path="url(#p5762b7153e)" d="M 332.262419 290.620699 
L 332.262419 286.970798 
L 333.448551 286.970798 
L 333.448551 283.320897 
L 335.885813 283.320897 
L 335.885813 279.670996 
L 336.626256 279.670996 
L 336.626256 276.021095 
L 337.689721 276.021095 
L 337.689721 272.371194 
L 338.295562 272.371194 
L 338.295562 268.721293 
L 338.894387 268.721293 
L 338.894387 261.421491 
L 339.859569 261.421491 
L 339.912666 254.121689 
L 340.780981 254.121689 
L 340.780981 250.471788 
L 341.839876 250.471788 
L 341.839876 246.821887 
L 341.993034 246.821887 
L 341.993034 243.171986 
L 342.196541 243.171986 
L 342.196541 239.522085 
L 345.800119 239.522085 
L 345.800119 235.872184 
L 347.774702 235.872184 
L 347.774702 232.222283 
L 349.874006 232.222283 
L 349.874006 228.572382 
L 370.145372 228.572382 
L 370.145372 224.922481 
L 394.772819 224.922481 
L 394.772819 221.27258 
L 408.291808 221.27258 
L 408.291808 217.622679 
L 409.597789 217.622679 
L 409.597789 213.972778 
L 409.790529 213.972778 
L 409.804268 206.672976 
L 410.064631 206.672976 
L 410.064631 203.023075 
L 411.327134 203.023075 
L 411.327134 199.373175 
L 412.10822 199.373175 
L 412.206671 192.073373 
L 412.631138 192.073373 
L 412.631138 188.423472 
L 412.935905 188.423472 
L 412.935905 184.773571 
L 413.68687 184.773571 
L 413.68687 181.12367 
L 415.428657 181.12367 
L 415.428657 177.473769 
L 416.30833 177.473769 
L 416.30833 173.823868 
L 417.440649 173.823868 
L 417.440649 170.173967 
L 417.629934 170.173967 
L 417.629934 166.524066 
L 418.455817 166.524066 
L 418.455817 162.874165 
L 420.984592 162.874165 
L 420.984592 159.224264 
L 421.100665 159.224264 
L 421.100665 155.574363 
L 421.216478 155.574363 
L 421.244015 148.274561 
L 421.381477 148.274561 
L 421.485705 140.974759 
L 422.139177 140.974759 
L 422.139177 137.324858 
L 422.85926 137.324858 
L 422.85926 133.674957 
L 425.471112 133.674957 
L 425.471112 130.025056 
L 425.693875 130.025056 
L 425.693875 126.375155 
L 426.52079 126.375155 
L 426.52079 122.725254 
L 426.97618 122.725254 
L 426.97618 119.075353 
L 428.361973 119.075353 
L 428.361973 115.425452 
L 428.634731 115.425452 
L 428.634731 111.775551 
L 429.907548 111.775551 
L 429.907548 108.12565 
L 432.349566 108.12565 
L 432.349566 104.475749 
L 432.6825 104.475749 
L 432.6825 104.475749 
" style="fill:none;stroke:#f5deb3;stroke-linecap:square;"/>
   </g>
   <g id="line2d_6">
    <path clip-path="url(#p5762b7153e)" d="M 281.094828 290.620699 
L 281.094828 286.970798 
L 281.506911 286.970798 
L 281.506911 283.320897 
L 282.078366 283.320897 
L 282.078366 279.670996 
L 282.563209 279.670996 
L 282.563209 276.021095 
L 283.043548 276.021095 
L 283.043548 272.371194 
L 283.202675 272.371194 
L 283.202675 268.721293 
L 283.361314 268.721293 
L 283.361314 265.071392 
L 284.690449 265.071392 
L 284.690449 261.421491 
L 284.844596 261.421491 
L 284.844596 257.77159 
L 285.608512 257.77159 
L 285.608512 254.121689 
L 285.684287 254.121689 
L 285.684287 250.471788 
L 286.28652 250.471788 
L 286.28652 246.821887 
L 286.435988 246.821887 
L 286.435988 243.171986 
L 287.470346 243.171986 
L 287.470346 239.522085 
L 287.834803 239.522085 
L 287.834803 235.872184 
L 288.268787 235.872184 
L 288.268787 232.222283 
L 293.014195 232.222283 
L 293.014195 228.572382 
L 293.472153 228.572382 
L 293.472153 224.922481 
L 293.990615 224.922481 
L 293.990615 221.27258 
L 294.948941 221.27258 
L 294.948941 217.622679 
L 360.642403 217.622679 
L 360.642403 213.972778 
L 367.878082 213.972778 
L 367.878082 210.322877 
L 370.041748 210.322877 
L 370.041748 206.672976 
L 379.371837 206.672976 
L 379.371837 203.023075 
L 384.086768 203.023075 
L 384.086768 199.373175 
L 387.42163 199.373175 
L 387.42163 195.723274 
L 389.841904 195.723274 
L 389.841904 192.073373 
L 391.482878 192.073373 
L 391.482878 188.423472 
L 396.177374 188.423472 
L 396.177374 184.773571 
L 398.792059 184.773571 
L 398.792059 181.12367 
L 411.473658 181.12367 
L 411.473658 177.473769 
L 416.314387 177.473769 
L 416.314387 173.823868 
L 417.86557 173.823868 
L 417.86557 170.173967 
L 418.228698 170.173967 
L 418.228698 166.524066 
L 419.016416 166.524066 
L 419.016416 162.874165 
L 422.736374 162.874165 
L 422.736374 159.224264 
L 422.853923 159.224264 
L 422.853923 155.574363 
L 422.880602 155.574363 
L 422.880602 151.924462 
L 423.136017 151.924462 
L 423.136017 148.274561 
L 425.709028 148.274561 
L 425.709028 144.62466 
L 427.608038 144.62466 
L 427.608038 140.974759 
L 429.837651 140.974759 
L 429.837651 137.324858 
L 431.952725 137.324858 
L 431.952725 133.674957 
L 432.6825 133.674957 
" style="fill:none;stroke:#f5deb3;stroke-linecap:square;"/>
   </g>
   <g id="line2d_7">
    <path clip-path="url(#p5762b7153e)" d="M 326.370719 290.620699 
L 326.370719 286.970798 
L 326.370719 286.970798 
L 326.370719 286.970798 
L 326.474048 286.970798 
L 326.474048 283.320897 
L 329.351627 283.320897 
L 329.449174 276.021095 
L 330.573832 276.021095 
L 330.573832 272.371194 
L 331.048441 272.371194 
L 331.048441 268.721293 
L 331.487514 268.721293 
L 331.487514 265.071392 
L 332.691347 265.071392 
L 332.752333 257.77159 
L 333.328141 257.77159 
L 333.328141 254.121689 
L 334.901265 254.121689 
L 334.901265 250.471788 
L 335.395882 250.471788 
L 335.395882 246.821887 
L 335.742197 246.821887 
L 335.742197 243.171986 
L 336.25736 243.171986 
L 336.25736 235.872184 
L 336.371147 235.872184 
L 336.371147 232.222283 
L 339.912666 232.222283 
L 339.912666 228.572382 
L 340.04517 228.572382 
L 340.04517 224.922481 
L 340.309163 224.922481 
L 340.309163 221.27258 
L 345.634096 221.27258 
L 345.634096 217.622679 
L 350.048797 217.622679 
L 350.135971 210.322877 
L 352.080497 210.322877 
L 352.080497 206.672976 
L 353.282771 206.672976 
L 353.282771 203.023075 
L 354.757302 203.023075 
L 354.757302 199.373175 
L 355.272487 199.373175 
L 355.272487 195.723274 
L 357.112425 195.723274 
L 357.112425 192.073373 
L 358.316055 192.073373 
L 358.316055 188.423472 
L 358.483091 188.423472 
L 358.483091 184.773571 
L 359.017678 184.773571 
L 359.017678 181.12367 
L 360.410851 181.12367 
L 360.410851 177.473769 
L 361.084802 177.473769 
L 361.084802 173.823868 
L 361.767476 173.823868 
L 361.767476 170.173967 
L 362.715159 170.173967 
L 362.715159 166.524066 
L 364.625824 166.524066 
L 364.642276 159.224264 
L 364.970217 159.224264 
L 364.970217 155.574363 
L 365.636065 155.574363 
L 365.636065 151.924462 
L 366.547739 151.924462 
L 366.547739 148.274561 
L 367.878082 148.274561 
L 367.878082 144.62466 
L 368.507745 144.62466 
L 368.507745 140.974759 
L 369.114749 140.974759 
L 369.114749 137.324858 
L 370.762798 137.324858 
L 370.762798 133.674957 
L 371.155858 133.674957 
L 371.155858 130.025056 
L 377.04371 130.025056 
L 377.04371 126.375155 
L 406.375375 126.375155 
L 406.375375 122.725254 
L 409.879771 122.725254 
L 409.879771 119.075353 
L 413.18744 119.075353 
L 413.18744 115.425452 
L 415.125879 115.425452 
L 415.125879 111.775551 
L 416.856616 111.775551 
L 416.856616 108.12565 
L 432.6825 108.12565 
L 432.6825 108.12565 
" style="fill:none;stroke:#f5deb3;stroke-linecap:square;"/>
   </g>
   <g id="line2d_8">
    <path clip-path="url(#p5762b7153e)" d="M 308.366249 290.620699 
L 308.366249 286.970798 
L 309.715862 286.970798 
L 309.715862 283.320897 
L 311.538853 283.320897 
L 311.538853 279.670996 
L 313.432769 279.670996 
L 313.432769 276.021095 
L 315.088525 276.021095 
L 315.088525 272.371194 
L 315.259771 272.371194 
L 315.259771 268.721293 
L 397.995554 268.721293 
L 397.995554 265.071392 
L 401.426476 265.071392 
L 401.426476 261.421491 
L 402.370871 261.421491 
L 402.418433 250.471788 
L 402.68713 250.471788 
L 402.68713 246.821887 
L 403.243771 246.821887 
L 403.243771 239.522085 
L 403.40727 239.522085 
L 403.40727 235.872184 
L 404.818147 235.872184 
L 404.818147 232.222283 
L 404.96921 232.222283 
L 404.96921 228.572382 
L 406.500001 228.572382 
L 406.500001 224.922481 
L 407.125901 224.922481 
L 407.125901 221.27258 
L 408.221032 221.27258 
L 408.256432 213.972778 
L 409.091885 213.972778 
L 409.091885 210.322877 
L 409.459676 210.322877 
L 409.459676 206.672976 
L 410.682855 206.672976 
L 410.682855 203.023075 
L 426.23662 203.023075 
L 426.23662 199.373175 
L 428.739622 199.373175 
L 428.739622 195.723274 
L 432.6825 195.723274 
L 432.6825 195.723274 
" style="fill:none;stroke:#f5deb3;stroke-linecap:square;"/>
   </g>
   <g id="line2d_9">
    <path clip-path="url(#p5762b7153e)" style="fill:none;stroke:#f5deb3;stroke-linecap:square;"/>
   </g>
   <g id="line2d_10">
    <path clip-path="url(#p5762b7153e)" d="M 270.069291 290.620699 
L 270.069291 286.970798 
L 274.200915 286.970798 
L 274.200915 279.670996 
L 288.05225 279.670996 
L 288.05225 272.371194 
L 289.549308 272.371194 
L 289.549308 265.071392 
L 293.7968 265.071392 
L 293.7968 261.421491 
L 296.446256 261.421491 
L 296.446256 257.77159 
L 298.966569 257.77159 
L 298.966569 254.121689 
L 300.182114 254.121689 
L 300.182114 243.171986 
L 301.369743 243.171986 
L 301.369743 232.222283 
L 302.530711 232.222283 
L 302.530711 221.27258 
L 305.864979 221.27258 
L 305.864979 210.322877 
L 306.930284 210.322877 
L 306.930284 206.672976 
L 307.974086 206.672976 
L 307.974086 199.373175 
L 310.000539 199.373175 
L 310.000539 192.073373 
L 311.950572 192.073373 
L 311.950572 188.423472 
L 313.82974 188.423472 
L 313.82974 184.773571 
L 314.744323 184.773571 
L 314.744323 181.12367 
L 315.643013 181.12367 
L 315.643013 177.473769 
L 316.526353 177.473769 
L 316.526353 173.823868 
L 317.394857 173.823868 
L 317.394857 170.173967 
L 318.249017 170.173967 
L 318.249017 162.874165 
L 319.089298 162.874165 
L 319.089298 155.574363 
L 319.916145 155.574363 
L 319.916145 151.924462 
L 321.531205 151.924462 
L 321.531205 144.62466 
L 323.862991 144.62466 
L 323.862991 140.974759 
L 324.61746 140.974759 
L 324.61746 137.324858 
L 325.361081 137.324858 
L 325.361081 133.674957 
L 326.094161 133.674957 
L 326.094161 126.375155 
L 326.816994 126.375155 
L 326.816994 122.725254 
L 328.233041 122.725254 
L 328.233041 119.075353 
L 328.926784 119.075353 
L 328.926784 111.775551 
L 330.286962 111.775551 
L 330.286962 108.12565 
L 330.953867 108.12565 
L 330.953867 104.475749 
L 331.612281 104.475749 
L 331.612281 100.825848 
L 332.262419 100.825848 
L 332.262419 89.876145 
L 332.904484 89.876145 
L 332.904484 86.226244 
L 333.538676 86.226244 
L 333.538676 82.576343 
L 334.165184 82.576343 
L 334.165184 78.926442 
L 334.784194 78.926442 
L 334.784194 71.62664 
L 335.395882 71.62664 
L 335.395882 67.976739 
L 336.00042 67.976739 
L 336.00042 64.326838 
L 336.597972 64.326838 
L 336.597972 60.676937 
L 337.188699 60.676937 
L 337.188699 57.027036 
L 338.921442 57.027036 
L 338.921442 53.377135 
L 340.04517 53.377135 
L 340.04517 49.727234 
L 345.823794 49.727234 
L 345.823794 46.077333 
L 346.318463 46.077333 
L 346.318463 42.427432 
L 348.723235 42.427432 
L 348.723235 38.777531 
L 349.654683 38.777531 
L 349.654683 35.12763 
L 352.352413 35.12763 
L 352.352413 31.477729 
L 354.497772 31.477729 
L 354.497772 24.177927 
L 358.53865 24.177927 
L 358.53865 20.528026 
L 410.023608 20.528026 
L 410.023608 16.878125 
L 424.4825 16.878125 
L 424.4825 16.878125 
" style="fill:none;stroke:#f5deb3;stroke-linecap:square;"/>
   </g>
   <g id="line2d_11">
    <path clip-path="url(#p5762b7153e)" d="M 306.527037 290.620699 
L 306.527037 286.970798 
L 313.07733 286.970798 
L 313.07733 283.320897 
L 313.210906 283.320897 
L 313.210906 279.670996 
L 328.13317 279.670996 
L 328.13317 276.021095 
L 329.319071 276.021095 
L 329.319071 272.371194 
L 330.446531 272.371194 
L 330.446531 268.721293 
L 330.605609 268.721293 
L 330.605609 265.071392 
L 330.953867 265.071392 
L 330.953867 261.421491 
L 331.92289 261.421491 
L 331.92289 257.77159 
L 332.569158 257.77159 
L 332.569158 254.121689 
L 333.388381 254.121689 
L 333.388381 250.471788 
L 334.490351 250.471788 
L 334.490351 246.821887 
L 335.799691 246.821887 
L 335.799691 243.171986 
L 336.28583 243.171986 
L 336.28583 239.522085 
L 336.626256 239.522085 
L 336.626256 235.872184 
L 337.048661 235.872184 
L 337.048661 232.222283 
L 337.634291 232.222283 
L 337.634291 228.572382 
L 339.486358 228.572382 
L 339.486358 224.922481 
L 346.248085 224.922481 
L 346.248085 221.27258 
L 348.588791 221.27258 
L 348.588791 217.622679 
L 357.283387 217.622679 
L 357.283387 213.972778 
L 358.612636 213.972778 
L 358.612636 210.322877 
L 359.017678 210.322877 
L 359.017678 206.672976 
L 359.673706 206.672976 
L 359.673706 203.023075 
L 360.26784 203.023075 
L 360.26784 199.373175 
L 360.446542 199.373175 
L 360.446542 195.723274 
L 361.889059 195.723274 
L 361.923745 188.423472 
L 362.303759 188.423472 
L 362.406916 181.12367 
L 362.663912 181.12367 
L 362.663912 177.473769 
L 365.668327 177.473769 
L 365.716683 170.173967 
L 366.053911 170.173967 
L 366.053911 166.524066 
L 367.271935 166.524066 
L 367.271935 162.874165 
L 369.175059 162.874165 
L 369.175059 159.224264 
L 369.744527 159.224264 
L 369.744527 155.574363 
L 370.704313 155.574363 
L 370.704313 151.924462 
L 375.239551 151.924462 
L 375.239551 148.274561 
L 376.719144 148.274561 
L 376.719144 144.62466 
L 389.507367 144.62466 
L 389.507367 140.974759 
L 412.016163 140.974759 
L 412.016163 137.324858 
L 414.72148 137.324858 
L 414.72148 133.674957 
L 415.833699 133.674957 
L 415.833699 130.025056 
L 416.120216 130.025056 
L 416.120216 126.375155 
L 432.6825 126.375155 
L 432.6825 126.375155 
" style="fill:none;stroke:#f5deb3;stroke-linecap:square;"/>
   </g>
   <g id="line2d_12">
    <path clip-path="url(#p5762b7153e)" d="M 329.384163 290.620699 
L 329.384163 286.970798 
L 336.029032 286.970798 
L 336.029032 283.320897 
L 337.662013 283.320897 
L 337.662013 279.670996 
L 337.965983 279.670996 
L 337.965983 276.021095 
L 338.623053 276.021095 
L 338.623053 272.371194 
L 339.110434 272.371194 
L 339.19122 261.421491 
L 339.593265 261.421491 
L 339.593265 257.77159 
L 339.779822 257.77159 
L 339.779822 254.121689 
L 340.07163 254.121689 
L 340.07163 250.471788 
L 340.309163 250.471788 
L 340.309163 246.821887 
L 340.807067 246.821887 
L 340.807067 243.171986 
L 341.119081 243.171986 
L 341.119081 239.522085 
L 341.429224 239.522085 
L 341.429224 235.872184 
L 344.041961 235.872184 
L 344.115405 224.922481 
L 344.164309 224.922481 
L 344.164309 221.27258 
L 344.383807 221.27258 
L 344.383807 217.622679 
L 345.98921 217.622679 
L 345.98921 213.972778 
L 346.529025 213.972778 
L 346.529025 210.322877 
L 347.178676 210.322877 
L 347.178676 206.672976 
L 354.836896 206.672976 
L 354.836896 203.023075 
L 355.684883 203.023075 
L 355.684883 199.373175 
L 367.754322 199.373175 
L 367.754322 195.723274 
L 369.475561 195.723274 
L 369.475561 192.073373 
L 370.160159 192.073373 
L 370.160159 188.423472 
L 373.578172 188.423472 
L 373.578172 184.773571 
L 374.524352 184.773571 
L 374.524352 181.12367 
L 377.699575 181.12367 
L 377.699575 177.473769 
L 377.827206 177.473769 
L 377.827206 173.823868 
L 378.372459 173.823868 
L 378.372459 170.173967 
L 379.40894 170.173967 
L 379.40894 166.524066 
L 379.680223 166.524066 
L 379.680223 162.874165 
L 380.60658 162.874165 
L 380.60658 159.224264 
L 381.099519 159.224264 
L 381.195157 151.924462 
L 381.302539 151.924462 
L 381.302539 144.62466 
L 381.445368 144.62466 
L 381.445368 140.974759 
L 381.753486 140.974759 
L 381.753486 137.324858 
L 381.930414 137.324858 
L 381.930414 133.674957 
L 382.852379 133.674957 
L 382.956378 126.375155 
L 383.129245 126.375155 
L 383.129245 122.725254 
L 384.188316 122.725254 
L 384.188316 119.075353 
L 384.882504 119.075353 
L 384.882504 115.425452 
L 385.181923 115.425452 
L 385.181923 111.775551 
L 385.873898 111.775551 
L 385.873898 108.12565 
L 386.739461 108.12565 
L 386.739461 104.475749 
L 387.948383 104.475749 
L 387.948383 100.825848 
L 388.759552 100.825848 
L 388.759552 97.175947 
L 395.065933 97.175947 
L 395.065933 93.526046 
L 396.533732 93.526046 
L 396.533732 89.876145 
L 399.517853 89.876145 
L 399.517853 86.226244 
L 419.291594 86.226244 
L 419.291594 82.576343 
L 420.712736 82.576343 
L 420.712736 78.926442 
L 422.864596 78.926442 
L 422.864596 75.276541 
L 423.215576 75.276541 
L 423.215576 71.62664 
L 424.181673 71.62664 
L 424.181673 67.976739 
L 424.663191 67.976739 
L 424.663191 64.326838 
L 425.890524 64.326838 
L 425.986057 57.027036 
L 426.585382 57.027036 
L 426.585382 53.377135 
L 426.753936 53.377135 
L 426.753936 49.727234 
L 427.320006 49.727234 
L 427.320006 46.077333 
L 427.447133 46.077333 
L 427.554458 38.777531 
L 427.734459 38.777531 
L 427.753881 31.477729 
L 428.649047 31.477729 
L 428.649047 27.827828 
L 430.587577 27.827828 
L 430.587577 24.177927 
L 432.6825 24.177927 
L 432.6825 24.177927 
" style="fill:none;stroke:#f5deb3;stroke-linecap:square;"/>
   </g>
   <g id="line2d_13">
    <path clip-path="url(#p5762b7153e)" d="M 415.51484 290.620699 
L 415.51484 286.970798 
L 419.593745 286.970798 
L 419.593745 283.320897 
L 420.125332 283.320897 
L 420.125332 279.670996 
L 420.389091 279.670996 
L 420.389091 276.021095 
L 421.266033 276.021095 
L 421.266033 272.371194 
L 422.77915 272.371194 
L 422.77915 268.721293 
L 432.473788 268.721293 
L 432.473788 265.071392 
L 432.6825 265.071392 
L 432.6825 265.071392 
" style="fill:none;stroke:#f5deb3;stroke-linecap:square;"/>
   </g>
   <g id="line2d_14">
    <path clip-path="url(#p5762b7153e)" d="M 402.647703 290.620699 
L 402.647703 286.970798 
L 404.59832 286.970798 
L 404.59832 283.320897 
L 404.74245 283.320897 
L 404.74245 279.670996 
L 405.352433 279.670996 
L 405.352433 276.021095 
L 405.591445 276.021095 
L 405.673351 268.721293 
L 410.044124 268.721293 
L 410.153403 257.77159 
L 410.743598 257.77159 
L 410.817743 250.471788 
L 411.333803 250.471788 
L 411.333803 246.821887 
L 411.553405 246.821887 
L 411.553405 243.171986 
L 412.009582 243.171986 
L 412.009582 239.522085 
L 412.127925 239.522085 
L 412.141058 232.222283 
L 412.579084 232.222283 
L 412.579084 224.922481 
L 416.095893 224.922481 
L 416.095893 221.27258 
L 416.350713 221.27258 
L 416.350713 217.622679 
L 416.52593 217.622679 
L 416.52593 213.972778 
L 416.688531 213.972778 
L 416.688531 210.322877 
L 416.958402 210.322877 
L 416.958402 206.672976 
L 417.191156 206.672976 
L 417.280399 199.373175 
L 417.842055 199.373175 
L 417.842055 195.723274 
L 418.111838 195.723274 
L 418.111838 192.073373 
L 418.257872 192.073373 
L 418.257872 188.423472 
L 423.432416 188.423472 
L 423.44297 181.12367 
L 423.86862 181.12367 
L 423.86862 177.473769 
L 424.119214 177.473769 
L 424.119214 173.823868 
L 428.844301 173.823868 
L 428.844301 170.173967 
L 431.444443 170.173967 
L 431.444443 166.524066 
L 431.854159 166.524066 
L 431.854159 162.874165 
L 432.31402 162.874165 
L 432.322909 155.574363 
L 432.6825 155.574363 
L 432.6825 155.574363 
" style="fill:none;stroke:#f5deb3;stroke-linecap:square;"/>
   </g>
   <g id="line2d_15">
    <path clip-path="url(#p5762b7153e)" style="fill:none;stroke:#f5deb3;stroke-linecap:square;"/>
   </g>
   <g id="line2d_16">
    <path clip-path="url(#p5762b7153e)" d="M 297.481223 290.620699 
L 297.481223 286.970798 
L 304.251158 286.970798 
L 304.251158 283.320897 
L 310.189457 283.320897 
L 310.189457 279.670996 
L 310.330693 279.670996 
L 310.330693 276.021095 
L 312.087086 276.021095 
L 312.087086 272.371194 
L 312.359038 272.371194 
L 312.359038 268.721293 
L 315.430451 268.721293 
L 315.430451 265.071392 
L 315.727794 265.071392 
L 315.727794 261.421491 
L 319.524057 261.421491 
L 319.524057 257.77159 
L 319.641996 257.77159 
L 319.641996 254.121689 
L 321.720157 254.121689 
L 321.720157 250.471788 
L 325.431348 250.471788 
L 325.431348 246.821887 
L 331.79887 246.821887 
L 331.79887 243.171986 
L 338.97551 243.171986 
L 338.97551 239.522085 
L 348.115464 239.522085 
L 348.115464 235.872184 
L 353.118593 235.872184 
L 353.118593 232.222283 
L 353.731593 232.222283 
L 353.731593 228.572382 
L 355.547782 228.572382 
L 355.547782 224.922481 
L 357.378123 224.922481 
L 357.378123 221.27258 
L 358.925901 221.27258 
L 358.925901 217.622679 
L 359.182466 217.622679 
L 359.273789 210.322877 
L 360.500032 210.322877 
L 360.553467 203.023075 
L 361.155236 203.023075 
L 361.155236 199.373175 
L 361.871708 199.373175 
L 361.923745 192.073373 
L 362.73223 192.073373 
L 362.73223 188.423472 
L 363.258651 188.423472 
L 363.258651 184.773571 
L 366.563591 184.773571 
L 366.563591 181.12367 
L 366.73764 181.12367 
L 366.73764 177.473769 
L 374.943876 177.473769 
L 374.943876 173.823868 
L 384.715408 173.823868 
L 384.715408 170.173967 
L 386.878757 170.173967 
L 386.878757 166.524066 
L 387.601329 166.524066 
L 387.601329 162.874165 
L 394.928743 162.874165 
L 394.928743 159.224264 
L 396.834717 159.224264 
L 396.834717 155.574363 
L 407.92271 155.574363 
L 407.92271 151.924462 
L 410.858141 151.924462 
L 410.858141 148.274561 
L 411.619768 148.274561 
L 411.619768 144.62466 
L 412.141058 144.62466 
L 412.141058 140.974759 
L 414.646475 140.974759 
L 414.646475 137.324858 
L 416.332553 137.324858 
L 416.332553 133.674957 
L 417.03013 133.674957 
L 417.03013 130.025056 
L 417.470271 130.025056 
L 417.470271 126.375155 
L 420.119706 126.375155 
L 420.119706 122.725254 
L 420.394688 122.725254 
L 420.472987 115.425452 
L 425.965959 115.425452 
L 425.965959 111.775551 
L 432.6825 111.775551 
L 432.6825 111.775551 
" style="fill:none;stroke:#f5deb3;stroke-linecap:square;"/>
   </g>
   <g id="line2d_17">
    <path clip-path="url(#p5762b7153e)" d="M 0 0 
" style="fill:none;stroke:#f5deb3;stroke-linecap:square;"/>
   </g>
   <g id="line2d_18">
    <path clip-path="url(#p5762b7153e)" d="M 297.541463 290.620699 
L 297.541463 286.970798 
L 310.752104 286.970798 
L 310.752104 283.320897 
L 311.446913 283.320897 
L 311.446913 279.670996 
L 315.045625 279.670996 
L 315.045625 276.021095 
L 315.387834 276.021095 
L 315.387834 272.371194 
L 319.641996 272.371194 
L 319.641996 268.721293 
L 320.149979 268.721293 
L 320.149979 265.071392 
L 321.036673 265.071392 
L 321.036673 261.421491 
L 324.223635 261.421491 
L 324.223635 257.77159 
L 325.184996 257.77159 
L 325.184996 254.121689 
L 325.641576 254.121689 
L 325.641576 250.471788 
L 325.955325 250.471788 
L 325.955325 246.821887 
L 326.714349 246.821887 
L 326.714349 243.171986 
L 327.327188 243.171986 
L 327.327188 239.522085 
L 328.066483 239.522085 
L 328.066483 235.872184 
L 328.199772 235.872184 
L 328.199772 232.222283 
L 329.286494 232.222283 
L 329.286494 228.572382 
L 329.676071 228.572382 
L 329.676071 224.922481 
L 329.869765 224.922481 
L 329.869765 221.27258 
L 332.01571 221.27258 
L 332.01571 217.622679 
L 333.086476 217.622679 
L 333.086476 213.972778 
L 335.221851 213.972778 
L 335.221851 210.322877 
L 335.453763 210.322877 
L 335.453763 206.672976 
L 336.200372 206.672976 
L 336.200372 203.023075 
L 336.823807 203.023075 
L 336.823807 199.373175 
L 337.662013 199.373175 
L 337.662013 195.723274 
L 339.726588 195.723274 
L 339.726588 192.073373 
L 341.274385 192.073373 
L 341.274385 188.423472 
L 345.586563 188.423472 
L 345.586563 184.773571 
L 346.738733 184.773571 
L 346.738733 181.12367 
L 349.412349 181.12367 
L 349.412349 177.473769 
L 349.610707 177.473769 
L 349.610707 173.823868 
L 351.680492 173.823868 
L 351.680492 170.173967 
L 355.645748 170.173967 
L 355.645748 166.524066 
L 357.226462 166.524066 
L 357.226462 162.874165 
L 357.980356 162.874165 
L 357.980356 159.224264 
L 358.64959 159.224264 
L 358.64959 155.574363 
L 361.17283 155.574363 
L 361.17283 151.924462 
L 361.348437 151.924462 
L 361.348437 148.274561 
L 364.113206 148.274561 
L 364.113206 144.62466 
L 366.021889 144.62466 
L 366.021889 140.974759 
L 367.381255 140.974759 
L 367.381255 137.324858 
L 369.505515 137.324858 
L 369.505515 133.674957 
L 371.660973 133.674957 
L 371.660973 130.025056 
L 379.098927 130.025056 
L 379.098927 126.375155 
L 380.473525 126.375155 
L 380.473525 122.725254 
L 380.94373 122.725254 
L 380.94373 119.075353 
L 381.492891 119.075353 
L 381.492891 115.425452 
L 386.167648 115.425452 
L 386.167648 111.775551 
L 417.988851 111.775551 
L 417.988851 108.12565 
L 427.452016 108.12565 
L 427.452016 104.475749 
L 432.6825 104.475749 
L 432.6825 104.475749 
" style="fill:none;stroke:#f5deb3;stroke-linecap:square;"/>
   </g>
   <g id="line2d_19">
    <path clip-path="url(#p5762b7153e)" style="fill:none;stroke:#f5deb3;stroke-linecap:square;"/>
   </g>
   <g id="line2d_20">
    <path clip-path="url(#p5762b7153e)" style="fill:none;stroke:#f5deb3;stroke-linecap:square;"/>
   </g>
   <g id="line2d_21">
    <path clip-path="url(#p5762b7153e)" d="M 314.223686 290.620699 
L 314.223686 286.970798 
L 315.387834 286.970798 
L 315.387834 283.320897 
L 316.484629 283.320897 
L 316.484629 279.670996 
L 318.970091 279.670996 
L 318.970091 276.021095 
L 324.295463 276.021095 
L 324.295463 272.371194 
L 326.851164 272.371194 
L 326.851164 268.721293 
L 327.49614 268.721293 
L 327.49614 265.071392 
L 331.205681 265.071392 
L 331.205681 261.421491 
L 333.177233 261.421491 
L 333.177233 257.77159 
L 342.500308 257.77159 
L 342.500308 254.121689 
L 356.364985 254.121689 
L 356.364985 250.471788 
L 361.958407 250.471788 
L 361.958407 246.821887 
L 362.096825 246.821887 
L 362.096825 243.171986 
L 367.365652 243.171986 
L 367.365652 239.522085 
L 368.44665 239.522085 
L 368.44665 235.872184 
L 372.473174 235.872184 
L 372.473174 232.222283 
L 373.231036 232.222283 
L 373.231036 228.572382 
L 432.6825 228.572382 
" style="fill:none;stroke:#f5deb3;stroke-linecap:square;"/>
   </g>
   <g id="line2d_22"/>
   <g id="line2d_23">
    <path clip-path="url(#p5762b7153e)" d="M 0 0 
" style="fill:none;stroke:#f5deb3;stroke-linecap:square;"/>
   </g>
   <g id="line2d_24">
    <path clip-path="url(#p5762b7153e)" d="M 0 0 
" style="fill:none;stroke:#f5deb3;stroke-linecap:square;"/>
   </g>
   <g id="line2d_25">
    <path clip-path="url(#p5762b7153e)" d="M 341.32605 290.620699 
L 341.32605 286.970798 
L 341.890979 286.970798 
L 341.890979 283.320897 
L 343.376238 283.320897 
L 343.475406 276.021095 
L 343.549657 276.021095 
L 343.549657 272.371194 
L 345.276527 272.371194 
L 345.324346 265.071392 
L 345.634096 265.071392 
L 345.634096 261.421491 
L 346.505672 261.421491 
L 346.505672 257.77159 
L 346.761981 257.77159 
L 346.761981 254.121689 
L 347.04015 254.121689 
L 347.04015 250.471788 
L 347.224769 250.471788 
L 347.224769 246.821887 
L 347.569162 246.821887 
L 347.569162 243.171986 
L 347.934004 243.171986 
L 348.002126 235.872184 
L 348.29629 235.872184 
L 348.29629 232.222283 
L 348.968812 232.222283 
L 348.968812 228.572382 
L 349.257544 228.572382 
L 349.323946 221.27258 
L 350.913998 221.27258 
L 350.913998 217.622679 
L 352.60215 217.622679 
L 352.60215 213.972778 
L 352.995116 213.972778 
L 352.995116 210.322877 
L 355.074946 210.322877 
L 355.074946 206.672976 
L 379.384207 206.672976 
L 379.384207 203.023075 
L 380.799506 203.023075 
L 380.799506 199.373175 
L 383.826347 199.373175 
L 383.826347 195.723274 
L 384.165767 195.723274 
L 384.165767 192.073373 
L 387.58022 192.073373 
L 387.58022 188.423472 
L 387.759369 188.423472 
L 387.759369 184.773571 
L 388.251459 184.773571 
L 388.251459 181.12367 
L 389.385179 181.12367 
L 389.385179 177.473769 
L 389.761003 177.473769 
L 389.761003 173.823868 
L 391.040479 173.823868 
L 391.040479 170.173967 
L 392.10562 170.173967 
L 392.134628 162.874165 
L 392.663575 162.874165 
L 392.663575 159.224264 
L 392.8069 159.224264 
L 392.8069 155.574363 
L 394.965362 155.574363 
L 394.965362 151.924462 
L 395.88152 151.924462 
L 395.88152 148.274561 
L 397.352893 148.274561 
L 397.352893 144.62466 
L 397.553496 144.62466 
L 397.553496 140.974759 
L 397.787997 140.974759 
L 397.787997 137.324858 
L 400.167437 137.324858 
L 400.167437 133.674957 
L 400.645226 133.674957 
L 400.645226 130.025056 
L 401.756572 130.025056 
L 401.756572 126.375155 
L 403.126669 126.375155 
L 403.228173 119.075353 
L 404.301209 119.075353 
L 404.301209 115.425452 
L 407.227079 115.425452 
L 407.227079 111.775551 
L 408.559878 111.775551 
L 408.559878 108.12565 
L 411.500254 108.12565 
L 411.500254 104.475749 
L 415.292935 104.475749 
L 415.292935 100.825848 
L 417.694841 100.825848 
L 417.694841 97.175947 
L 427.792704 97.175947 
L 427.792704 93.526046 
L 428.720567 93.526046 
L 428.720567 89.876145 
L 428.920299 89.876145 
L 428.920299 86.226244 
L 431.249706 86.226244 
L 431.249706 82.576343 
L 431.462521 82.576343 
L 431.462521 78.926442 
L 431.997466 78.926442 
L 432.0377 71.62664 
L 432.535787 71.62664 
L 432.61981 64.326838 
L 432.6825 64.326838 
L 432.6825 64.326838 
" style="fill:none;stroke:#f5deb3;stroke-linecap:square;"/>
   </g>
   <g id="line2d_26">
    <path clip-path="url(#p5762b7153e)" style="fill:none;stroke:#f5deb3;stroke-linecap:square;"/>
   </g>
   <g id="line2d_27">
    <path clip-path="url(#p5762b7153e)" d="M 352.664396 290.620699 
L 352.664396 286.970798 
L 358.40892 286.970798 
L 358.40892 283.320897 
L 362.527006 283.320897 
L 362.54414 276.021095 
L 363.174106 276.021095 
L 363.174106 272.371194 
L 365.361022 272.371194 
L 365.361022 268.721293 
L 366.848094 268.721293 
L 366.848094 265.071392 
L 367.893531 265.071392 
L 367.893531 261.421491 
L 369.640095 261.421491 
L 369.640095 257.77159 
L 369.967603 257.77159 
L 370.056564 250.471788 
L 370.24879 250.471788 
L 370.24879 246.821887 
L 370.455007 246.821887 
L 370.499089 239.522085 
L 370.601803 239.522085 
L 370.601803 235.872184 
L 373.258893 235.872184 
L 373.258893 232.222283 
L 374.483572 232.222283 
L 374.483572 228.572382 
L 374.619381 228.572382 
L 374.619381 224.922481 
L 375.466875 224.922481 
L 375.466875 221.27258 
L 376.300705 221.27258 
L 376.300705 217.622679 
L 377.533182 217.622679 
L 377.533182 213.972778 
L 378.170245 213.972778 
L 378.170245 210.322877 
L 378.837073 210.322877 
L 378.837073 206.672976 
L 379.852119 206.672976 
L 379.852119 203.023075 
L 383.860389 203.023075 
L 383.860389 199.373175 
L 385.36956 199.373175 
L 385.380576 192.073373 
L 388.094917 192.073373 
L 388.094917 188.423472 
L 396.542609 188.423472 
L 396.542609 184.773571 
L 399.868642 184.773571 
L 399.868642 181.12367 
L 405.307495 181.12367 
L 405.307495 177.473769 
L 406.198919 177.473769 
L 406.198919 173.823868 
L 406.675434 173.823868 
L 406.675434 170.173967 
L 406.828452 170.173967 
L 406.828452 166.524066 
L 407.002776 166.524066 
L 407.002776 162.874165 
L 407.292017 162.874165 
L 407.292017 159.224264 
L 407.464788 159.224264 
L 407.464788 155.574363 
L 407.665628 155.574363 
L 407.758611 148.274561 
L 408.242275 148.274561 
L 408.305952 140.974759 
L 408.623165 140.974759 
L 408.728472 133.674957 
L 408.749508 133.674957 
L 408.819565 119.075353 
L 409.043112 119.075353 
L 409.091885 108.12565 
L 409.279577 108.12565 
L 409.279577 104.475749 
L 409.721775 104.475749 
L 409.721775 100.825848 
L 409.845466 100.825848 
L 409.845466 97.175947 
L 410.126105 97.175947 
L 410.126105 93.526046 
L 411.824951 93.526046 
L 411.824951 89.876145 
L 412.200113 89.876145 
L 412.200113 86.226244 
L 412.376876 86.226244 
L 412.376876 82.576343 
L 413.31596 82.576343 
L 413.31596 78.926442 
L 414.345361 78.926442 
L 414.345361 75.276541 
L 414.908519 75.276541 
L 414.908519 71.62664 
L 417.054018 71.62664 
L 417.054018 67.976739 
L 417.262563 67.976739 
L 417.262563 64.326838 
L 417.422868 64.326838 
L 417.428796 57.027036 
L 417.777333 57.027036 
L 417.777333 53.377135 
L 417.988851 53.377135 
L 417.988851 49.727234 
L 418.292858 49.727234 
L 418.292858 46.077333 
L 418.40931 46.077333 
L 418.444194 38.777531 
L 419.114042 38.777531 
L 419.114042 35.12763 
L 419.752663 35.12763 
L 419.752663 31.477729 
L 420.147832 31.477729 
L 420.147832 27.827828 
L 420.428259 27.827828 
L 420.428259 24.177927 
L 422.848586 24.177927 
L 422.848586 20.528026 
L 425.970985 20.528026 
L 425.970985 16.878125 
L 425.970985 16.878125 
" style="fill:none;stroke:#f5deb3;stroke-linecap:square;"/>
   </g>
   <g id="line2d_28">
    <path clip-path="url(#p5762b7153e)" style="fill:none;stroke:#f5deb3;stroke-linecap:square;"/>
   </g>
   <g id="line2d_29">
    <path clip-path="url(#p5762b7153e)" d="M 286.88182 290.620699 
L 286.88182 286.970798 
L 286.88182 286.970798 
L 286.88182 283.320897 
L 286.88182 283.320897 
L 286.88182 279.670996 
L 288.770542 279.670996 
L 288.770542 276.021095 
L 288.770542 276.021095 
L 288.770542 272.371194 
L 288.770542 272.371194 
L 288.770542 268.721293 
L 301.257804 268.721293 
L 301.257804 265.071392 
L 301.257804 265.071392 
L 301.257804 261.421491 
L 301.257804 261.421491 
L 301.257804 257.77159 
L 303.128592 257.77159 
L 303.128592 254.121689 
L 303.128592 254.121689 
L 303.128592 250.471788 
L 303.128592 250.471788 
L 303.128592 246.821887 
L 345.515181 246.821887 
L 345.515181 243.171986 
L 345.515181 243.171986 
L 345.515181 239.522085 
L 345.515181 239.522085 
L 345.515181 235.872184 
L 348.924248 235.872184 
L 348.924248 232.222283 
L 348.924248 232.222283 
L 348.924248 228.572382 
L 348.924248 228.572382 
L 348.924248 224.922481 
L 363.595455 224.922481 
L 363.595455 221.27258 
L 363.595455 221.27258 
L 363.595455 217.622679 
L 363.595455 217.622679 
L 363.595455 213.972778 
L 380.242892 213.972778 
L 380.242892 210.322877 
L 380.242892 210.322877 
L 380.242892 206.672976 
L 380.242892 206.672976 
L 380.242892 203.023075 
L 381.015691 203.023075 
L 381.015691 199.373175 
L 381.015691 199.373175 
L 381.015691 195.723274 
L 381.015691 195.723274 
L 381.015691 192.073373 
L 384.469353 192.073373 
L 384.469353 188.423472 
L 384.469353 188.423472 
L 384.469353 184.773571 
L 384.469353 184.773571 
L 384.469353 181.12367 
L 432.6825 181.12367 
" style="fill:none;stroke:#f5deb3;stroke-linecap:square;"/>
   </g>
   <g id="line2d_30">
    <path clip-path="url(#p5762b7153e)" d="M -1 286.970798 
L 4.974984 286.970798 
L 4.974984 283.320897 
L 48.793985 283.320897 
L 48.793985 279.670996 
L 48.793985 279.670996 
L 48.793985 276.021095 
L 55.699717 276.021095 
L 55.699717 272.371194 
L 61.791005 272.371194 
L 61.791005 268.721293 
L 72.168925 268.721293 
L 72.168925 265.071392 
L 72.168925 265.071392 
L 72.168925 261.421491 
L 76.66882 261.421491 
L 76.66882 257.77159 
L 76.66882 257.77159 
L 76.66882 254.121689 
L 80.808322 254.121689 
L 80.808322 250.471788 
L 88.20895 250.471788 
L 88.20895 246.821887 
L 100.434072 246.821887 
L 100.434072 243.171986 
L 110.314718 243.171986 
L 110.314718 239.522085 
L 122.30261 239.522085 
L 122.30261 235.872184 
L 125.751632 235.872184 
L 125.751632 232.222283 
L 155.402891 232.222283 
L 155.402891 228.572382 
L 156.334739 228.572382 
L 156.334739 224.922481 
L 158.149528 224.922481 
L 158.149528 221.27258 
L 167.130739 221.27258 
L 167.130739 217.622679 
L 185.800967 217.622679 
L 185.800967 213.972778 
L 190.777512 213.972778 
L 190.777512 210.322877 
L 197.026712 210.322877 
L 197.026712 206.672976 
L 212.531397 206.672976 
L 212.531397 203.023075 
L 226.62443 203.023075 
L 226.62443 199.373175 
L 248.843531 199.373175 
L 248.843531 195.723274 
L 275.415623 195.723274 
L 275.415623 192.073373 
L 280.260678 192.073373 
L 280.260678 188.423472 
L 285.98628 188.423472 
L 285.98628 184.773571 
L 286.136618 184.773571 
L 286.136618 181.12367 
L 287.250433 181.12367 
L 287.250433 177.473769 
L 295.138493 177.473769 
L 295.138493 173.823868 
L 299.548964 173.823868 
L 299.548964 170.173967 
L 301.425623 170.173967 
L 301.425623 166.524066 
L 302.530711 166.524066 
L 302.530711 162.874165 
L 305.03833 162.874165 
L 305.03833 159.224264 
L 305.453306 159.224264 
L 305.453306 155.574363 
L 306.980469 155.574363 
L 306.980469 151.924462 
L 307.130734 151.924462 
L 307.130734 148.274561 
L 307.52932 148.274561 
L 307.52932 144.62466 
L 307.52932 144.62466 
L 307.52932 144.62466 
L 424.4825 144.62466 
" style="fill:none;stroke:#000000;stroke-linecap:square;"/>
   </g>
   <g id="line2d_31"/>
   <g id="line2d_32">
    <path clip-path="url(#p5762b7153e)" d="M 226.62443 290.620699 
L 226.62443 286.970798 
L 226.62443 286.970798 
L 226.62443 286.970798 
L 424.4825 286.970798 
" style="fill:none;stroke:#00bfbf;stroke-linecap:square;"/>
   </g>
   <g id="line2d_33"/>
   <g id="line2d_34"/>
   <g id="line2d_35"/>
   <g id="line2d_36">
    <path clip-path="url(#p5762b7153e)" d="M 315.259771 290.620699 
L 315.259771 14.140699 
" style="fill:none;stroke:#000000;stroke-linecap:square;"/>
   </g>
   <g id="patch_3">
    <path d="M 67.3625 14.140699 
L 424.4825 14.140699 
" style="fill:none;stroke:#000000;stroke-linecap:square;stroke-linejoin:miter;"/>
   </g>
   <g id="patch_4">
    <path d="M 424.4825 290.620699 
L 424.4825 14.140699 
" style="fill:none;stroke:#000000;stroke-linecap:square;stroke-linejoin:miter;"/>
   </g>
   <g id="patch_5">
    <path d="M 67.3625 290.620699 
L 424.4825 290.620699 
" style="fill:none;stroke:#000000;stroke-linecap:square;stroke-linejoin:miter;"/>
   </g>
   <g id="patch_6">
    <path d="M 67.3625 290.620699 
L 67.3625 14.140699 
" style="fill:none;stroke:#000000;stroke-linecap:square;stroke-linejoin:miter;"/>
   </g>
   <g id="matplotlib.axis_1">
    <g id="xtick_1">
     <g id="line2d_37">
      <path clip-path="url(#p5762b7153e)" d="M 103.086765 290.620699 
L 103.086765 14.140699 
" style="fill:none;stroke:#000000;stroke-dasharray:1.000000,3.000000;stroke-dashoffset:0.0;stroke-width:0.5;"/>
     </g>
     <g id="line2d_38">
      <defs>
       <path d="M 0 0 
L 0 -4 
" id="m56d0e4b00c" style="stroke:#000000;stroke-width:0.5;"/>
      </defs>
      <g>
       <use style="stroke:#000000;stroke-width:0.5;" x="103.086765279" xlink:href="#m56d0e4b00c" y="290.620699257"/>
      </g>
     </g>
     <g id="line2d_39">
      <defs>
       <path d="M 0 0 
L 0 4 
" id="m1865a5f249" style="stroke:#000000;stroke-width:0.5;"/>
      </defs>
      <g>
       <use style="stroke:#000000;stroke-width:0.5;" x="103.086765279" xlink:href="#m1865a5f249" y="14.1406992574"/>
      </g>
     </g>
     <g id="text_1">
      <!-- 0 -->
      <defs>
       <path d="M 31.78125 66.40625 
Q 24.171875 66.40625 20.328125 58.90625 
Q 16.5 51.421875 16.5 36.375 
Q 16.5 21.390625 20.328125 13.890625 
Q 24.171875 6.390625 31.78125 6.390625 
Q 39.453125 6.390625 43.28125 13.890625 
Q 47.125 21.390625 47.125 36.375 
Q 47.125 51.421875 43.28125 58.90625 
Q 39.453125 66.40625 31.78125 66.40625 
M 31.78125 74.21875 
Q 44.046875 74.21875 50.515625 64.515625 
Q 56.984375 54.828125 56.984375 36.375 
Q 56.984375 17.96875 50.515625 8.265625 
Q 44.046875 -1.421875 31.78125 -1.421875 
Q 19.53125 -1.421875 13.0625 8.265625 
Q 6.59375 17.96875 6.59375 36.375 
Q 6.59375 54.828125 13.0625 64.515625 
Q 19.53125 74.21875 31.78125 74.21875 
" id="BitstreamVeraSans-Roman-30"/>
      </defs>
      <g transform="translate(96.7242652794 309.817574257)scale(0.2 -0.2)">
       <use xlink:href="#BitstreamVeraSans-Roman-30"/>
      </g>
     </g>
    </g>
    <g id="xtick_2">
     <g id="line2d_40">
      <path clip-path="url(#p5762b7153e)" d="M 222.16765 290.620699 
L 222.16765 14.140699 
" style="fill:none;stroke:#000000;stroke-dasharray:1.000000,3.000000;stroke-dashoffset:0.0;stroke-width:0.5;"/>
     </g>
     <g id="line2d_41">
      <g>
       <use style="stroke:#000000;stroke-width:0.5;" x="222.167649544" xlink:href="#m56d0e4b00c" y="290.620699257"/>
      </g>
     </g>
     <g id="line2d_42">
      <g>
       <use style="stroke:#000000;stroke-width:0.5;" x="222.167649544" xlink:href="#m1865a5f249" y="14.1406992574"/>
      </g>
     </g>
     <g id="text_2">
      <!-- 1 -->
      <defs>
       <path d="M 12.40625 8.296875 
L 28.515625 8.296875 
L 28.515625 63.921875 
L 10.984375 60.40625 
L 10.984375 69.390625 
L 28.421875 72.90625 
L 38.28125 72.90625 
L 38.28125 8.296875 
L 54.390625 8.296875 
L 54.390625 0 
L 12.40625 0 
z
" id="BitstreamVeraSans-Roman-31"/>
      </defs>
      <g transform="translate(215.805149544 309.817574257)scale(0.2 -0.2)">
       <use xlink:href="#BitstreamVeraSans-Roman-31"/>
      </g>
     </g>
    </g>
    <g id="xtick_3">
     <g id="line2d_43">
      <path clip-path="url(#p5762b7153e)" d="M 341.248534 290.620699 
L 341.248534 14.140699 
" style="fill:none;stroke:#000000;stroke-dasharray:1.000000,3.000000;stroke-dashoffset:0.0;stroke-width:0.5;"/>
     </g>
     <g id="line2d_44">
      <g>
       <use style="stroke:#000000;stroke-width:0.5;" x="341.248533809" xlink:href="#m56d0e4b00c" y="290.620699257"/>
      </g>
     </g>
     <g id="line2d_45">
      <g>
       <use style="stroke:#000000;stroke-width:0.5;" x="341.248533809" xlink:href="#m1865a5f249" y="14.1406992574"/>
      </g>
     </g>
     <g id="text_3">
      <!-- 2 -->
      <defs>
       <path d="M 19.1875 8.296875 
L 53.609375 8.296875 
L 53.609375 0 
L 7.328125 0 
L 7.328125 8.296875 
Q 12.9375 14.109375 22.625 23.890625 
Q 32.328125 33.6875 34.8125 36.53125 
Q 39.546875 41.84375 41.421875 45.53125 
Q 43.3125 49.21875 43.3125 52.78125 
Q 43.3125 58.59375 39.234375 62.25 
Q 35.15625 65.921875 28.609375 65.921875 
Q 23.96875 65.921875 18.8125 64.3125 
Q 13.671875 62.703125 7.8125 59.421875 
L 7.8125 69.390625 
Q 13.765625 71.78125 18.9375 73 
Q 24.125 74.21875 28.421875 74.21875 
Q 39.75 74.21875 46.484375 68.546875 
Q 53.21875 62.890625 53.21875 53.421875 
Q 53.21875 48.921875 51.53125 44.890625 
Q 49.859375 40.875 45.40625 35.40625 
Q 44.1875 33.984375 37.640625 27.21875 
Q 31.109375 20.453125 19.1875 8.296875 
" id="BitstreamVeraSans-Roman-32"/>
      </defs>
      <g transform="translate(334.886033809 309.817574257)scale(0.2 -0.2)">
       <use xlink:href="#BitstreamVeraSans-Roman-32"/>
      </g>
     </g>
    </g>
    <g id="xtick_4">
     <g id="line2d_46">
      <defs>
       <path d="M 0 0 
L 0 -2 
" id="m3886e3e5f3" style="stroke:#000000;stroke-width:0.5;"/>
      </defs>
      <g>
       <use style="stroke:#000000;stroke-width:0.5;" x="76.6688200021" xlink:href="#m3886e3e5f3" y="290.620699257"/>
      </g>
     </g>
     <g id="line2d_47">
      <defs>
       <path d="M 0 0 
L 0 2 
" id="madbbbedef9" style="stroke:#000000;stroke-width:0.5;"/>
      </defs>
      <g>
       <use style="stroke:#000000;stroke-width:0.5;" x="76.6688200021" xlink:href="#madbbbedef9" y="14.1406992574"/>
      </g>
     </g>
    </g>
    <g id="xtick_5">
     <g id="line2d_48">
      <g>
       <use style="stroke:#000000;stroke-width:0.5;" x="84.64090291" xlink:href="#m3886e3e5f3" y="290.620699257"/>
      </g>
     </g>
     <g id="line2d_49">
      <g>
       <use style="stroke:#000000;stroke-width:0.5;" x="84.64090291" xlink:href="#madbbbedef9" y="14.1406992574"/>
      </g>
     </g>
    </g>
    <g id="xtick_6">
     <g id="line2d_50">
      <g>
       <use style="stroke:#000000;stroke-width:0.5;" x="91.5466352363" xlink:href="#m3886e3e5f3" y="290.620699257"/>
      </g>
     </g>
     <g id="line2d_51">
      <g>
       <use style="stroke:#000000;stroke-width:0.5;" x="91.5466352363" xlink:href="#madbbbedef9" y="14.1406992574"/>
      </g>
     </g>
    </g>
    <g id="xtick_7">
     <g id="line2d_52">
      <g>
       <use style="stroke:#000000;stroke-width:0.5;" x="97.6379228417" xlink:href="#m3886e3e5f3" y="290.620699257"/>
      </g>
     </g>
     <g id="line2d_53">
      <g>
       <use style="stroke:#000000;stroke-width:0.5;" x="97.6379228417" xlink:href="#madbbbedef9" y="14.1406992574"/>
      </g>
     </g>
    </g>
    <g id="xtick_8">
     <g id="line2d_54">
      <g>
       <use style="stroke:#000000;stroke-width:0.5;" x="138.933683353" xlink:href="#m3886e3e5f3" y="290.620699257"/>
      </g>
     </g>
     <g id="line2d_55">
      <g>
       <use style="stroke:#000000;stroke-width:0.5;" x="138.933683353" xlink:href="#madbbbedef9" y="14.1406992574"/>
      </g>
     </g>
    </g>
    <g id="xtick_9">
     <g id="line2d_56">
      <g>
       <use style="stroke:#000000;stroke-width:0.5;" x="159.902786193" xlink:href="#m3886e3e5f3" y="290.620699257"/>
      </g>
     </g>
     <g id="line2d_57">
      <g>
       <use style="stroke:#000000;stroke-width:0.5;" x="159.902786193" xlink:href="#madbbbedef9" y="14.1406992574"/>
      </g>
     </g>
    </g>
    <g id="xtick_10">
     <g id="line2d_58">
      <g>
       <use style="stroke:#000000;stroke-width:0.5;" x="174.780601427" xlink:href="#m3886e3e5f3" y="290.620699257"/>
      </g>
     </g>
     <g id="line2d_59">
      <g>
       <use style="stroke:#000000;stroke-width:0.5;" x="174.780601427" xlink:href="#madbbbedef9" y="14.1406992574"/>
      </g>
     </g>
    </g>
    <g id="xtick_11">
     <g id="line2d_60">
      <g>
       <use style="stroke:#000000;stroke-width:0.5;" x="186.32073147" xlink:href="#m3886e3e5f3" y="290.620699257"/>
      </g>
     </g>
     <g id="line2d_61">
      <g>
       <use style="stroke:#000000;stroke-width:0.5;" x="186.32073147" xlink:href="#madbbbedef9" y="14.1406992574"/>
      </g>
     </g>
    </g>
    <g id="xtick_12">
     <g id="line2d_62">
      <g>
       <use style="stroke:#000000;stroke-width:0.5;" x="195.749704267" xlink:href="#m3886e3e5f3" y="290.620699257"/>
      </g>
     </g>
     <g id="line2d_63">
      <g>
       <use style="stroke:#000000;stroke-width:0.5;" x="195.749704267" xlink:href="#madbbbedef9" y="14.1406992574"/>
      </g>
     </g>
    </g>
    <g id="xtick_13">
     <g id="line2d_64">
      <g>
       <use style="stroke:#000000;stroke-width:0.5;" x="203.721787175" xlink:href="#m3886e3e5f3" y="290.620699257"/>
      </g>
     </g>
     <g id="line2d_65">
      <g>
       <use style="stroke:#000000;stroke-width:0.5;" x="203.721787175" xlink:href="#madbbbedef9" y="14.1406992574"/>
      </g>
     </g>
    </g>
    <g id="xtick_14">
     <g id="line2d_66">
      <g>
       <use style="stroke:#000000;stroke-width:0.5;" x="210.627519501" xlink:href="#m3886e3e5f3" y="290.620699257"/>
      </g>
     </g>
     <g id="line2d_67">
      <g>
       <use style="stroke:#000000;stroke-width:0.5;" x="210.627519501" xlink:href="#madbbbedef9" y="14.1406992574"/>
      </g>
     </g>
    </g>
    <g id="xtick_15">
     <g id="line2d_68">
      <g>
       <use style="stroke:#000000;stroke-width:0.5;" x="216.718807107" xlink:href="#m3886e3e5f3" y="290.620699257"/>
      </g>
     </g>
     <g id="line2d_69">
      <g>
       <use style="stroke:#000000;stroke-width:0.5;" x="216.718807107" xlink:href="#madbbbedef9" y="14.1406992574"/>
      </g>
     </g>
    </g>
    <g id="xtick_16">
     <g id="line2d_70">
      <g>
       <use style="stroke:#000000;stroke-width:0.5;" x="258.014567618" xlink:href="#m3886e3e5f3" y="290.620699257"/>
      </g>
     </g>
     <g id="line2d_71">
      <g>
       <use style="stroke:#000000;stroke-width:0.5;" x="258.014567618" xlink:href="#madbbbedef9" y="14.1406992574"/>
      </g>
     </g>
    </g>
    <g id="xtick_17">
     <g id="line2d_72">
      <g>
       <use style="stroke:#000000;stroke-width:0.5;" x="278.983670458" xlink:href="#m3886e3e5f3" y="290.620699257"/>
      </g>
     </g>
     <g id="line2d_73">
      <g>
       <use style="stroke:#000000;stroke-width:0.5;" x="278.983670458" xlink:href="#madbbbedef9" y="14.1406992574"/>
      </g>
     </g>
    </g>
    <g id="xtick_18">
     <g id="line2d_74">
      <g>
       <use style="stroke:#000000;stroke-width:0.5;" x="293.861485692" xlink:href="#m3886e3e5f3" y="290.620699257"/>
      </g>
     </g>
     <g id="line2d_75">
      <g>
       <use style="stroke:#000000;stroke-width:0.5;" x="293.861485692" xlink:href="#madbbbedef9" y="14.1406992574"/>
      </g>
     </g>
    </g>
    <g id="xtick_19">
     <g id="line2d_76">
      <g>
       <use style="stroke:#000000;stroke-width:0.5;" x="305.401615735" xlink:href="#m3886e3e5f3" y="290.620699257"/>
      </g>
     </g>
     <g id="line2d_77">
      <g>
       <use style="stroke:#000000;stroke-width:0.5;" x="305.401615735" xlink:href="#madbbbedef9" y="14.1406992574"/>
      </g>
     </g>
    </g>
    <g id="xtick_20">
     <g id="line2d_78">
      <g>
       <use style="stroke:#000000;stroke-width:0.5;" x="314.830588532" xlink:href="#m3886e3e5f3" y="290.620699257"/>
      </g>
     </g>
     <g id="line2d_79">
      <g>
       <use style="stroke:#000000;stroke-width:0.5;" x="314.830588532" xlink:href="#madbbbedef9" y="14.1406992574"/>
      </g>
     </g>
    </g>
    <g id="xtick_21">
     <g id="line2d_80">
      <g>
       <use style="stroke:#000000;stroke-width:0.5;" x="322.80267144" xlink:href="#m3886e3e5f3" y="290.620699257"/>
      </g>
     </g>
     <g id="line2d_81">
      <g>
       <use style="stroke:#000000;stroke-width:0.5;" x="322.80267144" xlink:href="#madbbbedef9" y="14.1406992574"/>
      </g>
     </g>
    </g>
    <g id="xtick_22">
     <g id="line2d_82">
      <g>
       <use style="stroke:#000000;stroke-width:0.5;" x="329.708403766" xlink:href="#m3886e3e5f3" y="290.620699257"/>
      </g>
     </g>
     <g id="line2d_83">
      <g>
       <use style="stroke:#000000;stroke-width:0.5;" x="329.708403766" xlink:href="#madbbbedef9" y="14.1406992574"/>
      </g>
     </g>
    </g>
    <g id="xtick_23">
     <g id="line2d_84">
      <g>
       <use style="stroke:#000000;stroke-width:0.5;" x="335.799691371" xlink:href="#m3886e3e5f3" y="290.620699257"/>
      </g>
     </g>
     <g id="line2d_85">
      <g>
       <use style="stroke:#000000;stroke-width:0.5;" x="335.799691371" xlink:href="#madbbbedef9" y="14.1406992574"/>
      </g>
     </g>
    </g>
    <g id="xtick_24">
     <g id="line2d_86">
      <g>
       <use style="stroke:#000000;stroke-width:0.5;" x="377.095451883" xlink:href="#m3886e3e5f3" y="290.620699257"/>
      </g>
     </g>
     <g id="line2d_87">
      <g>
       <use style="stroke:#000000;stroke-width:0.5;" x="377.095451883" xlink:href="#madbbbedef9" y="14.1406992574"/>
      </g>
     </g>
    </g>
    <g id="xtick_25">
     <g id="line2d_88">
      <g>
       <use style="stroke:#000000;stroke-width:0.5;" x="398.064554723" xlink:href="#m3886e3e5f3" y="290.620699257"/>
      </g>
     </g>
     <g id="line2d_89">
      <g>
       <use style="stroke:#000000;stroke-width:0.5;" x="398.064554723" xlink:href="#madbbbedef9" y="14.1406992574"/>
      </g>
     </g>
    </g>
    <g id="xtick_26">
     <g id="line2d_90">
      <g>
       <use style="stroke:#000000;stroke-width:0.5;" x="412.942369957" xlink:href="#m3886e3e5f3" y="290.620699257"/>
      </g>
     </g>
     <g id="line2d_91">
      <g>
       <use style="stroke:#000000;stroke-width:0.5;" x="412.942369957" xlink:href="#madbbbedef9" y="14.1406992574"/>
      </g>
     </g>
    </g>
    <g id="xtick_27">
     <g id="line2d_92">
      <g>
       <use style="stroke:#000000;stroke-width:0.5;" x="424.4825" xlink:href="#m3886e3e5f3" y="290.620699257"/>
      </g>
     </g>
     <g id="line2d_93">
      <g>
       <use style="stroke:#000000;stroke-width:0.5;" x="424.4825" xlink:href="#madbbbedef9" y="14.1406992574"/>
      </g>
     </g>
    </g>
    <g id="text_4">
     <!-- log10 of FEvals / DIM -->
     <defs>
      <path id="BitstreamVeraSans-Roman-20"/>
      <path d="M 9.8125 72.90625 
L 24.515625 72.90625 
L 43.109375 23.296875 
L 61.8125 72.90625 
L 76.515625 72.90625 
L 76.515625 0 
L 66.890625 0 
L 66.890625 64.015625 
L 48.09375 14.015625 
L 38.1875 14.015625 
L 19.390625 64.015625 
L 19.390625 0 
L 9.8125 0 
z
" id="BitstreamVeraSans-Roman-4d"/>
      <path d="M 30.609375 48.390625 
Q 23.390625 48.390625 19.1875 42.75 
Q 14.984375 37.109375 14.984375 27.296875 
Q 14.984375 17.484375 19.15625 11.84375 
Q 23.34375 6.203125 30.609375 6.203125 
Q 37.796875 6.203125 41.984375 11.859375 
Q 46.1875 17.53125 46.1875 27.296875 
Q 46.1875 37.015625 41.984375 42.703125 
Q 37.796875 48.390625 30.609375 48.390625 
M 30.609375 56 
Q 42.328125 56 49.015625 48.375 
Q 55.71875 40.765625 55.71875 27.296875 
Q 55.71875 13.875 49.015625 6.21875 
Q 42.328125 -1.421875 30.609375 -1.421875 
Q 18.84375 -1.421875 12.171875 6.21875 
Q 5.515625 13.875 5.515625 27.296875 
Q 5.515625 40.765625 12.171875 48.375 
Q 18.84375 56 30.609375 56 
" id="BitstreamVeraSans-Roman-6f"/>
      <path d="M 9.421875 75.984375 
L 18.40625 75.984375 
L 18.40625 0 
L 9.421875 0 
z
" id="BitstreamVeraSans-Roman-6c"/>
      <path d="M 9.8125 72.90625 
L 51.703125 72.90625 
L 51.703125 64.59375 
L 19.671875 64.59375 
L 19.671875 43.109375 
L 48.578125 43.109375 
L 48.578125 34.8125 
L 19.671875 34.8125 
L 19.671875 0 
L 9.8125 0 
z
" id="BitstreamVeraSans-Roman-46"/>
      <path d="M 9.8125 72.90625 
L 55.90625 72.90625 
L 55.90625 64.59375 
L 19.671875 64.59375 
L 19.671875 43.015625 
L 54.390625 43.015625 
L 54.390625 34.71875 
L 19.671875 34.71875 
L 19.671875 8.296875 
L 56.78125 8.296875 
L 56.78125 0 
L 9.8125 0 
z
" id="BitstreamVeraSans-Roman-45"/>
      <path d="M 19.671875 64.796875 
L 19.671875 8.109375 
L 31.59375 8.109375 
Q 46.6875 8.109375 53.6875 14.9375 
Q 60.6875 21.78125 60.6875 36.53125 
Q 60.6875 51.171875 53.6875 57.984375 
Q 46.6875 64.796875 31.59375 64.796875 
z
M 9.8125 72.90625 
L 30.078125 72.90625 
Q 51.265625 72.90625 61.171875 64.09375 
Q 71.09375 55.28125 71.09375 36.53125 
Q 71.09375 17.671875 61.125 8.828125 
Q 51.171875 0 30.078125 0 
L 9.8125 0 
z
" id="BitstreamVeraSans-Roman-44"/>
      <path d="M 25.390625 72.90625 
L 33.6875 72.90625 
L 8.296875 -9.28125 
L 0 -9.28125 
z
" id="BitstreamVeraSans-Roman-2f"/>
      <path d="M 2.984375 54.6875 
L 12.5 54.6875 
L 29.59375 8.796875 
L 46.6875 54.6875 
L 56.203125 54.6875 
L 35.6875 0 
L 23.484375 0 
z
" id="BitstreamVeraSans-Roman-76"/>
      <path d="M 45.40625 27.984375 
Q 45.40625 37.75 41.375 43.109375 
Q 37.359375 48.484375 30.078125 48.484375 
Q 22.859375 48.484375 18.828125 43.109375 
Q 14.796875 37.75 14.796875 27.984375 
Q 14.796875 18.265625 18.828125 12.890625 
Q 22.859375 7.515625 30.078125 7.515625 
Q 37.359375 7.515625 41.375 12.890625 
Q 45.40625 18.265625 45.40625 27.984375 
M 54.390625 6.78125 
Q 54.390625 -7.171875 48.1875 -13.984375 
Q 42 -20.796875 29.203125 -20.796875 
Q 24.46875 -20.796875 20.265625 -20.09375 
Q 16.0625 -19.390625 12.109375 -17.921875 
L 12.109375 -9.1875 
Q 16.0625 -11.328125 19.921875 -12.34375 
Q 23.78125 -13.375 27.78125 -13.375 
Q 36.625 -13.375 41.015625 -8.765625 
Q 45.40625 -4.15625 45.40625 5.171875 
L 45.40625 9.625 
Q 42.625 4.78125 38.28125 2.390625 
Q 33.9375 0 27.875 0 
Q 17.828125 0 11.671875 7.65625 
Q 5.515625 15.328125 5.515625 27.984375 
Q 5.515625 40.671875 11.671875 48.328125 
Q 17.828125 56 27.875 56 
Q 33.9375 56 38.28125 53.609375 
Q 42.625 51.21875 45.40625 46.390625 
L 45.40625 54.6875 
L 54.390625 54.6875 
z
" id="BitstreamVeraSans-Roman-67"/>
      <path d="M 37.109375 75.984375 
L 37.109375 68.5 
L 28.515625 68.5 
Q 23.6875 68.5 21.796875 66.546875 
Q 19.921875 64.59375 19.921875 59.515625 
L 19.921875 54.6875 
L 34.71875 54.6875 
L 34.71875 47.703125 
L 19.921875 47.703125 
L 19.921875 0 
L 10.890625 0 
L 10.890625 47.703125 
L 2.296875 47.703125 
L 2.296875 54.6875 
L 10.890625 54.6875 
L 10.890625 58.5 
Q 10.890625 67.625 15.140625 71.796875 
Q 19.390625 75.984375 28.609375 75.984375 
z
" id="BitstreamVeraSans-Roman-66"/>
      <path d="M 34.28125 27.484375 
Q 23.390625 27.484375 19.1875 25 
Q 14.984375 22.515625 14.984375 16.5 
Q 14.984375 11.71875 18.140625 8.90625 
Q 21.296875 6.109375 26.703125 6.109375 
Q 34.1875 6.109375 38.703125 11.40625 
Q 43.21875 16.703125 43.21875 25.484375 
L 43.21875 27.484375 
z
M 52.203125 31.203125 
L 52.203125 0 
L 43.21875 0 
L 43.21875 8.296875 
Q 40.140625 3.328125 35.546875 0.953125 
Q 30.953125 -1.421875 24.3125 -1.421875 
Q 15.921875 -1.421875 10.953125 3.296875 
Q 6 8.015625 6 15.921875 
Q 6 25.140625 12.171875 29.828125 
Q 18.359375 34.515625 30.609375 34.515625 
L 43.21875 34.515625 
L 43.21875 35.40625 
Q 43.21875 41.609375 39.140625 45 
Q 35.0625 48.390625 27.6875 48.390625 
Q 23 48.390625 18.546875 47.265625 
Q 14.109375 46.140625 10.015625 43.890625 
L 10.015625 52.203125 
Q 14.9375 54.109375 19.578125 55.046875 
Q 24.21875 56 28.609375 56 
Q 40.484375 56 46.34375 49.84375 
Q 52.203125 43.703125 52.203125 31.203125 
" id="BitstreamVeraSans-Roman-61"/>
      <path d="M 44.28125 53.078125 
L 44.28125 44.578125 
Q 40.484375 46.53125 36.375 47.5 
Q 32.28125 48.484375 27.875 48.484375 
Q 21.1875 48.484375 17.84375 46.4375 
Q 14.5 44.390625 14.5 40.28125 
Q 14.5 37.15625 16.890625 35.375 
Q 19.28125 33.59375 26.515625 31.984375 
L 29.59375 31.296875 
Q 39.15625 29.25 43.1875 25.515625 
Q 47.21875 21.78125 47.21875 15.09375 
Q 47.21875 7.46875 41.1875 3.015625 
Q 35.15625 -1.421875 24.609375 -1.421875 
Q 20.21875 -1.421875 15.453125 -0.5625 
Q 10.6875 0.296875 5.421875 2 
L 5.421875 11.28125 
Q 10.40625 8.6875 15.234375 7.390625 
Q 20.0625 6.109375 24.8125 6.109375 
Q 31.15625 6.109375 34.5625 8.28125 
Q 37.984375 10.453125 37.984375 14.40625 
Q 37.984375 18.0625 35.515625 20.015625 
Q 33.0625 21.96875 24.703125 23.78125 
L 21.578125 24.515625 
Q 13.234375 26.265625 9.515625 29.90625 
Q 5.8125 33.546875 5.8125 39.890625 
Q 5.8125 47.609375 11.28125 51.796875 
Q 16.75 56 26.8125 56 
Q 31.78125 56 36.171875 55.265625 
Q 40.578125 54.546875 44.28125 53.078125 
" id="BitstreamVeraSans-Roman-73"/>
      <path d="M 9.8125 72.90625 
L 19.671875 72.90625 
L 19.671875 0 
L 9.8125 0 
z
" id="BitstreamVeraSans-Roman-49"/>
     </defs>
     <g transform="translate(140.8490625 334.173824257)scale(0.2 -0.2)">
      <use xlink:href="#BitstreamVeraSans-Roman-6c"/>
      <use x="27.783203125" xlink:href="#BitstreamVeraSans-Roman-6f"/>
      <use x="88.96484375" xlink:href="#BitstreamVeraSans-Roman-67"/>
      <use x="152.44140625" xlink:href="#BitstreamVeraSans-Roman-31"/>
      <use x="216.064453125" xlink:href="#BitstreamVeraSans-Roman-30"/>
      <use x="279.6875" xlink:href="#BitstreamVeraSans-Roman-20"/>
      <use x="311.474609375" xlink:href="#BitstreamVeraSans-Roman-6f"/>
      <use x="372.65625" xlink:href="#BitstreamVeraSans-Roman-66"/>
      <use x="407.861328125" xlink:href="#BitstreamVeraSans-Roman-20"/>
      <use x="439.6484375" xlink:href="#BitstreamVeraSans-Roman-46"/>
      <use x="497.16796875" xlink:href="#BitstreamVeraSans-Roman-45"/>
      <use x="560.3515625" xlink:href="#BitstreamVeraSans-Roman-76"/>
      <use x="619.53125" xlink:href="#BitstreamVeraSans-Roman-61"/>
      <use x="680.810546875" xlink:href="#BitstreamVeraSans-Roman-6c"/>
      <use x="708.59375" xlink:href="#BitstreamVeraSans-Roman-73"/>
      <use x="760.693359375" xlink:href="#BitstreamVeraSans-Roman-20"/>
      <use x="792.48046875" xlink:href="#BitstreamVeraSans-Roman-2f"/>
      <use x="826.171875" xlink:href="#BitstreamVeraSans-Roman-20"/>
      <use x="857.958984375" xlink:href="#BitstreamVeraSans-Roman-44"/>
      <use x="934.9609375" xlink:href="#BitstreamVeraSans-Roman-49"/>
      <use x="964.453125" xlink:href="#BitstreamVeraSans-Roman-4d"/>
     </g>
    </g>
   </g>
   <g id="matplotlib.axis_2">
    <g id="ytick_1">
     <g id="line2d_94">
      <path clip-path="url(#p5762b7153e)" d="M 67.3625 290.620699 
L 424.4825 290.620699 
" style="fill:none;stroke:#000000;stroke-dasharray:1.000000,3.000000;stroke-dashoffset:0.0;stroke-width:0.5;"/>
     </g>
     <g id="line2d_95">
      <defs>
       <path d="M 0 0 
L 4 0 
" id="me16dc439ce" style="stroke:#000000;stroke-width:0.5;"/>
      </defs>
      <g>
       <use style="stroke:#000000;stroke-width:0.5;" x="67.3625" xlink:href="#me16dc439ce" y="290.620699257"/>
      </g>
     </g>
     <g id="line2d_96">
      <defs>
       <path d="M 0 0 
L -4 0 
" id="m958733a32d" style="stroke:#000000;stroke-width:0.5;"/>
      </defs>
      <g>
       <use style="stroke:#000000;stroke-width:0.5;" x="424.4825" xlink:href="#m958733a32d" y="290.620699257"/>
      </g>
     </g>
     <g id="text_5">
      <!-- 0.0 -->
      <defs>
       <path d="M 10.6875 12.40625 
L 21 12.40625 
L 21 0 
L 10.6875 0 
z
" id="BitstreamVeraSans-Roman-2e"/>
      </defs>
      <g transform="translate(31.55625 296.139449257)scale(0.2 -0.2)">
       <use xlink:href="#BitstreamVeraSans-Roman-30"/>
       <use x="63.623046875" xlink:href="#BitstreamVeraSans-Roman-2e"/>
       <use x="95.41015625" xlink:href="#BitstreamVeraSans-Roman-30"/>
      </g>
     </g>
    </g>
    <g id="ytick_2">
     <g id="line2d_97">
      <path clip-path="url(#p5762b7153e)" d="M 67.3625 235.872184 
L 424.4825 235.872184 
" style="fill:none;stroke:#000000;stroke-dasharray:1.000000,3.000000;stroke-dashoffset:0.0;stroke-width:0.5;"/>
     </g>
     <g id="line2d_98">
      <g>
       <use style="stroke:#000000;stroke-width:0.5;" x="67.3625" xlink:href="#me16dc439ce" y="235.872184406"/>
      </g>
     </g>
     <g id="line2d_99">
      <g>
       <use style="stroke:#000000;stroke-width:0.5;" x="424.4825" xlink:href="#m958733a32d" y="235.872184406"/>
      </g>
     </g>
     <g id="text_6">
      <!-- 0.2 -->
      <g transform="translate(31.55625 241.390934406)scale(0.2 -0.2)">
       <use xlink:href="#BitstreamVeraSans-Roman-30"/>
       <use x="63.623046875" xlink:href="#BitstreamVeraSans-Roman-2e"/>
       <use x="95.41015625" xlink:href="#BitstreamVeraSans-Roman-32"/>
      </g>
     </g>
    </g>
    <g id="ytick_3">
     <g id="line2d_100">
      <path clip-path="url(#p5762b7153e)" d="M 67.3625 181.12367 
L 424.4825 181.12367 
" style="fill:none;stroke:#000000;stroke-dasharray:1.000000,3.000000;stroke-dashoffset:0.0;stroke-width:0.5;"/>
     </g>
     <g id="line2d_101">
      <g>
       <use style="stroke:#000000;stroke-width:0.5;" x="67.3625" xlink:href="#me16dc439ce" y="181.123669554"/>
      </g>
     </g>
     <g id="line2d_102">
      <g>
       <use style="stroke:#000000;stroke-width:0.5;" x="424.4825" xlink:href="#m958733a32d" y="181.123669554"/>
      </g>
     </g>
     <g id="text_7">
      <!-- 0.4 -->
      <defs>
       <path d="M 37.796875 64.3125 
L 12.890625 25.390625 
L 37.796875 25.390625 
z
M 35.203125 72.90625 
L 47.609375 72.90625 
L 47.609375 25.390625 
L 58.015625 25.390625 
L 58.015625 17.1875 
L 47.609375 17.1875 
L 47.609375 0 
L 37.796875 0 
L 37.796875 17.1875 
L 4.890625 17.1875 
L 4.890625 26.703125 
z
" id="BitstreamVeraSans-Roman-34"/>
      </defs>
      <g transform="translate(31.55625 186.642419554)scale(0.2 -0.2)">
       <use xlink:href="#BitstreamVeraSans-Roman-30"/>
       <use x="63.623046875" xlink:href="#BitstreamVeraSans-Roman-2e"/>
       <use x="95.41015625" xlink:href="#BitstreamVeraSans-Roman-34"/>
      </g>
     </g>
    </g>
    <g id="ytick_4">
     <g id="line2d_103">
      <path clip-path="url(#p5762b7153e)" d="M 67.3625 126.375155 
L 424.4825 126.375155 
" style="fill:none;stroke:#000000;stroke-dasharray:1.000000,3.000000;stroke-dashoffset:0.0;stroke-width:0.5;"/>
     </g>
     <g id="line2d_104">
      <g>
       <use style="stroke:#000000;stroke-width:0.5;" x="67.3625" xlink:href="#me16dc439ce" y="126.375154703"/>
      </g>
     </g>
     <g id="line2d_105">
      <g>
       <use style="stroke:#000000;stroke-width:0.5;" x="424.4825" xlink:href="#m958733a32d" y="126.375154703"/>
      </g>
     </g>
     <g id="text_8">
      <!-- 0.6 -->
      <defs>
       <path d="M 33.015625 40.375 
Q 26.375 40.375 22.484375 35.828125 
Q 18.609375 31.296875 18.609375 23.390625 
Q 18.609375 15.53125 22.484375 10.953125 
Q 26.375 6.390625 33.015625 6.390625 
Q 39.65625 6.390625 43.53125 10.953125 
Q 47.40625 15.53125 47.40625 23.390625 
Q 47.40625 31.296875 43.53125 35.828125 
Q 39.65625 40.375 33.015625 40.375 
M 52.59375 71.296875 
L 52.59375 62.3125 
Q 48.875 64.0625 45.09375 64.984375 
Q 41.3125 65.921875 37.59375 65.921875 
Q 27.828125 65.921875 22.671875 59.328125 
Q 17.53125 52.734375 16.796875 39.40625 
Q 19.671875 43.65625 24.015625 45.921875 
Q 28.375 48.1875 33.59375 48.1875 
Q 44.578125 48.1875 50.953125 41.515625 
Q 57.328125 34.859375 57.328125 23.390625 
Q 57.328125 12.15625 50.6875 5.359375 
Q 44.046875 -1.421875 33.015625 -1.421875 
Q 20.359375 -1.421875 13.671875 8.265625 
Q 6.984375 17.96875 6.984375 36.375 
Q 6.984375 53.65625 15.1875 63.9375 
Q 23.390625 74.21875 37.203125 74.21875 
Q 40.921875 74.21875 44.703125 73.484375 
Q 48.484375 72.75 52.59375 71.296875 
" id="BitstreamVeraSans-Roman-36"/>
      </defs>
      <g transform="translate(31.55625 131.893904703)scale(0.2 -0.2)">
       <use xlink:href="#BitstreamVeraSans-Roman-30"/>
       <use x="63.623046875" xlink:href="#BitstreamVeraSans-Roman-2e"/>
       <use x="95.41015625" xlink:href="#BitstreamVeraSans-Roman-36"/>
      </g>
     </g>
    </g>
    <g id="ytick_5">
     <g id="line2d_106">
      <path clip-path="url(#p5762b7153e)" d="M 67.3625 71.62664 
L 424.4825 71.62664 
" style="fill:none;stroke:#000000;stroke-dasharray:1.000000,3.000000;stroke-dashoffset:0.0;stroke-width:0.5;"/>
     </g>
     <g id="line2d_107">
      <g>
       <use style="stroke:#000000;stroke-width:0.5;" x="67.3625" xlink:href="#me16dc439ce" y="71.6266398515"/>
      </g>
     </g>
     <g id="line2d_108">
      <g>
       <use style="stroke:#000000;stroke-width:0.5;" x="424.4825" xlink:href="#m958733a32d" y="71.6266398515"/>
      </g>
     </g>
     <g id="text_9">
      <!-- 0.8 -->
      <defs>
       <path d="M 31.78125 34.625 
Q 24.75 34.625 20.71875 30.859375 
Q 16.703125 27.09375 16.703125 20.515625 
Q 16.703125 13.921875 20.71875 10.15625 
Q 24.75 6.390625 31.78125 6.390625 
Q 38.8125 6.390625 42.859375 10.171875 
Q 46.921875 13.96875 46.921875 20.515625 
Q 46.921875 27.09375 42.890625 30.859375 
Q 38.875 34.625 31.78125 34.625 
M 21.921875 38.8125 
Q 15.578125 40.375 12.03125 44.71875 
Q 8.5 49.078125 8.5 55.328125 
Q 8.5 64.0625 14.71875 69.140625 
Q 20.953125 74.21875 31.78125 74.21875 
Q 42.671875 74.21875 48.875 69.140625 
Q 55.078125 64.0625 55.078125 55.328125 
Q 55.078125 49.078125 51.53125 44.71875 
Q 48 40.375 41.703125 38.8125 
Q 48.828125 37.15625 52.796875 32.3125 
Q 56.78125 27.484375 56.78125 20.515625 
Q 56.78125 9.90625 50.3125 4.234375 
Q 43.84375 -1.421875 31.78125 -1.421875 
Q 19.734375 -1.421875 13.25 4.234375 
Q 6.78125 9.90625 6.78125 20.515625 
Q 6.78125 27.484375 10.78125 32.3125 
Q 14.796875 37.15625 21.921875 38.8125 
M 18.3125 54.390625 
Q 18.3125 48.734375 21.84375 45.5625 
Q 25.390625 42.390625 31.78125 42.390625 
Q 38.140625 42.390625 41.71875 45.5625 
Q 45.3125 48.734375 45.3125 54.390625 
Q 45.3125 60.0625 41.71875 63.234375 
Q 38.140625 66.40625 31.78125 66.40625 
Q 25.390625 66.40625 21.84375 63.234375 
Q 18.3125 60.0625 18.3125 54.390625 
" id="BitstreamVeraSans-Roman-38"/>
      </defs>
      <g transform="translate(31.55625 77.1453898515)scale(0.2 -0.2)">
       <use xlink:href="#BitstreamVeraSans-Roman-30"/>
       <use x="63.623046875" xlink:href="#BitstreamVeraSans-Roman-2e"/>
       <use x="95.41015625" xlink:href="#BitstreamVeraSans-Roman-38"/>
      </g>
     </g>
    </g>
    <g id="ytick_6">
     <g id="line2d_109">
      <path clip-path="url(#p5762b7153e)" d="M 67.3625 16.878125 
L 424.4825 16.878125 
" style="fill:none;stroke:#000000;stroke-dasharray:1.000000,3.000000;stroke-dashoffset:0.0;stroke-width:0.5;"/>
     </g>
     <g id="line2d_110">
      <g>
       <use style="stroke:#000000;stroke-width:0.5;" x="67.3625" xlink:href="#me16dc439ce" y="16.878125"/>
      </g>
     </g>
     <g id="line2d_111">
      <g>
       <use style="stroke:#000000;stroke-width:0.5;" x="424.4825" xlink:href="#m958733a32d" y="16.878125"/>
      </g>
     </g>
     <g id="text_10">
      <!-- 1.0 -->
      <g transform="translate(31.55625 22.396875)scale(0.2 -0.2)">
       <use xlink:href="#BitstreamVeraSans-Roman-31"/>
       <use x="63.623046875" xlink:href="#BitstreamVeraSans-Roman-2e"/>
       <use x="95.41015625" xlink:href="#BitstreamVeraSans-Roman-30"/>
      </g>
     </g>
    </g>
    <g id="text_11">
     <!-- proportion of trials -->
     <defs>
      <path d="M 54.890625 33.015625 
L 54.890625 0 
L 45.90625 0 
L 45.90625 32.71875 
Q 45.90625 40.484375 42.875 44.328125 
Q 39.84375 48.1875 33.796875 48.1875 
Q 26.515625 48.1875 22.3125 43.546875 
Q 18.109375 38.921875 18.109375 30.90625 
L 18.109375 0 
L 9.078125 0 
L 9.078125 54.6875 
L 18.109375 54.6875 
L 18.109375 46.1875 
Q 21.34375 51.125 25.703125 53.5625 
Q 30.078125 56 35.796875 56 
Q 45.21875 56 50.046875 50.171875 
Q 54.890625 44.34375 54.890625 33.015625 
" id="BitstreamVeraSans-Roman-6e"/>
      <path d="M 9.421875 54.6875 
L 18.40625 54.6875 
L 18.40625 0 
L 9.421875 0 
z
M 9.421875 75.984375 
L 18.40625 75.984375 
L 18.40625 64.59375 
L 9.421875 64.59375 
z
" id="BitstreamVeraSans-Roman-69"/>
      <path d="M 18.3125 70.21875 
L 18.3125 54.6875 
L 36.8125 54.6875 
L 36.8125 47.703125 
L 18.3125 47.703125 
L 18.3125 18.015625 
Q 18.3125 11.328125 20.140625 9.421875 
Q 21.96875 7.515625 27.59375 7.515625 
L 36.8125 7.515625 
L 36.8125 0 
L 27.59375 0 
Q 17.1875 0 13.234375 3.875 
Q 9.28125 7.765625 9.28125 18.015625 
L 9.28125 47.703125 
L 2.6875 47.703125 
L 2.6875 54.6875 
L 9.28125 54.6875 
L 9.28125 70.21875 
z
" id="BitstreamVeraSans-Roman-74"/>
      <path d="M 41.109375 46.296875 
Q 39.59375 47.171875 37.8125 47.578125 
Q 36.03125 48 33.890625 48 
Q 26.265625 48 22.1875 43.046875 
Q 18.109375 38.09375 18.109375 28.8125 
L 18.109375 0 
L 9.078125 0 
L 9.078125 54.6875 
L 18.109375 54.6875 
L 18.109375 46.1875 
Q 20.953125 51.171875 25.484375 53.578125 
Q 30.03125 56 36.53125 56 
Q 37.453125 56 38.578125 55.875 
Q 39.703125 55.765625 41.0625 55.515625 
z
" id="BitstreamVeraSans-Roman-72"/>
      <path d="M 18.109375 8.203125 
L 18.109375 -20.796875 
L 9.078125 -20.796875 
L 9.078125 54.6875 
L 18.109375 54.6875 
L 18.109375 46.390625 
Q 20.953125 51.265625 25.265625 53.625 
Q 29.59375 56 35.59375 56 
Q 45.5625 56 51.78125 48.09375 
Q 58.015625 40.1875 58.015625 27.296875 
Q 58.015625 14.40625 51.78125 6.484375 
Q 45.5625 -1.421875 35.59375 -1.421875 
Q 29.59375 -1.421875 25.265625 0.953125 
Q 20.953125 3.328125 18.109375 8.203125 
M 48.6875 27.296875 
Q 48.6875 37.203125 44.609375 42.84375 
Q 40.53125 48.484375 33.40625 48.484375 
Q 26.265625 48.484375 22.1875 42.84375 
Q 18.109375 37.203125 18.109375 27.296875 
Q 18.109375 17.390625 22.1875 11.75 
Q 26.265625 6.109375 33.40625 6.109375 
Q 40.53125 6.109375 44.609375 11.75 
Q 48.6875 17.390625 48.6875 27.296875 
" id="BitstreamVeraSans-Roman-70"/>
     </defs>
     <g transform="translate(22.396875 245.608824257)rotate(-90.0)scale(0.2 -0.2)">
      <use xlink:href="#BitstreamVeraSans-Roman-70"/>
      <use x="63.4765625" xlink:href="#BitstreamVeraSans-Roman-72"/>
      <use x="104.55859375" xlink:href="#BitstreamVeraSans-Roman-6f"/>
      <use x="165.740234375" xlink:href="#BitstreamVeraSans-Roman-70"/>
      <use x="229.216796875" xlink:href="#BitstreamVeraSans-Roman-6f"/>
      <use x="290.3984375" xlink:href="#BitstreamVeraSans-Roman-72"/>
      <use x="331.51171875" xlink:href="#BitstreamVeraSans-Roman-74"/>
      <use x="370.720703125" xlink:href="#BitstreamVeraSans-Roman-69"/>
      <use x="398.50390625" xlink:href="#BitstreamVeraSans-Roman-6f"/>
      <use x="459.685546875" xlink:href="#BitstreamVeraSans-Roman-6e"/>
      <use x="523.064453125" xlink:href="#BitstreamVeraSans-Roman-20"/>
      <use x="554.8515625" xlink:href="#BitstreamVeraSans-Roman-6f"/>
      <use x="616.033203125" xlink:href="#BitstreamVeraSans-Roman-66"/>
      <use x="651.23828125" xlink:href="#BitstreamVeraSans-Roman-20"/>
      <use x="683.025390625" xlink:href="#BitstreamVeraSans-Roman-74"/>
      <use x="722.234375" xlink:href="#BitstreamVeraSans-Roman-72"/>
      <use x="763.34765625" xlink:href="#BitstreamVeraSans-Roman-69"/>
      <use x="791.130859375" xlink:href="#BitstreamVeraSans-Roman-61"/>
      <use x="852.41015625" xlink:href="#BitstreamVeraSans-Roman-6c"/>
      <use x="880.193359375" xlink:href="#BitstreamVeraSans-Roman-73"/>
     </g>
    </g>
   </g>
   <g id="text_12">
    <!-- f10-14,20-D -->
    <defs>
     <path d="M 11.71875 12.40625 
L 22.015625 12.40625 
L 22.015625 4 
L 14.015625 -11.625 
L 7.71875 -11.625 
L 11.71875 4 
z
" id="BitstreamVeraSans-Roman-2c"/>
     <path d="M 4.890625 31.390625 
L 31.203125 31.390625 
L 31.203125 23.390625 
L 4.890625 23.390625 
z
" id="BitstreamVeraSans-Roman-2d"/>
    </defs>
    <g transform="translate(186.1334375 34.8671742574)scale(0.2 -0.2)">
     <use xlink:href="#BitstreamVeraSans-Roman-66"/>
     <use x="35.205078125" xlink:href="#BitstreamVeraSans-Roman-31"/>
     <use x="98.828125" xlink:href="#BitstreamVeraSans-Roman-30"/>
     <use x="162.451171875" xlink:href="#BitstreamVeraSans-Roman-2d"/>
     <use x="198.53515625" xlink:href="#BitstreamVeraSans-Roman-31"/>
     <use x="262.158203125" xlink:href="#BitstreamVeraSans-Roman-34"/>
     <use x="325.78125" xlink:href="#BitstreamVeraSans-Roman-2c"/>
     <use x="357.568359375" xlink:href="#BitstreamVeraSans-Roman-32"/>
     <use x="421.19140625" xlink:href="#BitstreamVeraSans-Roman-30"/>
     <use x="484.814453125" xlink:href="#BitstreamVeraSans-Roman-2d"/>
     <use x="520.8984375" xlink:href="#BitstreamVeraSans-Roman-44"/>
    </g>
   </g>
   <g id="text_13">
    <!-- reference budgets from bestGECCO2009 -->
    <defs>
     <path d="M 39.40625 66.21875 
Q 28.65625 66.21875 22.328125 58.203125 
Q 16.015625 50.203125 16.015625 36.375 
Q 16.015625 22.609375 22.328125 14.59375 
Q 28.65625 6.59375 39.40625 6.59375 
Q 50.140625 6.59375 56.421875 14.59375 
Q 62.703125 22.609375 62.703125 36.375 
Q 62.703125 50.203125 56.421875 58.203125 
Q 50.140625 66.21875 39.40625 66.21875 
M 39.40625 74.21875 
Q 54.734375 74.21875 63.90625 63.9375 
Q 73.09375 53.65625 73.09375 36.375 
Q 73.09375 19.140625 63.90625 8.859375 
Q 54.734375 -1.421875 39.40625 -1.421875 
Q 24.03125 -1.421875 14.8125 8.828125 
Q 5.609375 19.09375 5.609375 36.375 
Q 5.609375 53.65625 14.8125 63.9375 
Q 24.03125 74.21875 39.40625 74.21875 
" id="BitstreamVeraSans-Roman-4f"/>
     <path d="M 52 44.1875 
Q 55.375 50.25 60.0625 53.125 
Q 64.75 56 71.09375 56 
Q 79.640625 56 84.28125 50.015625 
Q 88.921875 44.046875 88.921875 33.015625 
L 88.921875 0 
L 79.890625 0 
L 79.890625 32.71875 
Q 79.890625 40.578125 77.09375 44.375 
Q 74.3125 48.1875 68.609375 48.1875 
Q 61.625 48.1875 57.5625 43.546875 
Q 53.515625 38.921875 53.515625 30.90625 
L 53.515625 0 
L 44.484375 0 
L 44.484375 32.71875 
Q 44.484375 40.625 41.703125 44.40625 
Q 38.921875 48.1875 33.109375 48.1875 
Q 26.21875 48.1875 22.15625 43.53125 
Q 18.109375 38.875 18.109375 30.90625 
L 18.109375 0 
L 9.078125 0 
L 9.078125 54.6875 
L 18.109375 54.6875 
L 18.109375 46.1875 
Q 21.1875 51.21875 25.484375 53.609375 
Q 29.78125 56 35.6875 56 
Q 41.65625 56 45.828125 52.96875 
Q 50 49.953125 52 44.1875 
" id="BitstreamVeraSans-Roman-6d"/>
     <path d="M 10.984375 1.515625 
L 10.984375 10.5 
Q 14.703125 8.734375 18.5 7.8125 
Q 22.3125 6.890625 25.984375 6.890625 
Q 35.75 6.890625 40.890625 13.453125 
Q 46.046875 20.015625 46.78125 33.40625 
Q 43.953125 29.203125 39.59375 26.953125 
Q 35.25 24.703125 29.984375 24.703125 
Q 19.046875 24.703125 12.671875 31.3125 
Q 6.296875 37.9375 6.296875 49.421875 
Q 6.296875 60.640625 12.9375 67.421875 
Q 19.578125 74.21875 30.609375 74.21875 
Q 43.265625 74.21875 49.921875 64.515625 
Q 56.59375 54.828125 56.59375 36.375 
Q 56.59375 19.140625 48.40625 8.859375 
Q 40.234375 -1.421875 26.421875 -1.421875 
Q 22.703125 -1.421875 18.890625 -0.6875 
Q 15.09375 0.046875 10.984375 1.515625 
M 30.609375 32.421875 
Q 37.25 32.421875 41.125 36.953125 
Q 45.015625 41.5 45.015625 49.421875 
Q 45.015625 57.28125 41.125 61.84375 
Q 37.25 66.40625 30.609375 66.40625 
Q 23.96875 66.40625 20.09375 61.84375 
Q 16.21875 57.28125 16.21875 49.421875 
Q 16.21875 41.5 20.09375 36.953125 
Q 23.96875 32.421875 30.609375 32.421875 
" id="BitstreamVeraSans-Roman-39"/>
     <path d="M 59.515625 10.40625 
L 59.515625 29.984375 
L 43.40625 29.984375 
L 43.40625 38.09375 
L 69.28125 38.09375 
L 69.28125 6.78125 
Q 63.578125 2.734375 56.6875 0.65625 
Q 49.8125 -1.421875 42 -1.421875 
Q 24.90625 -1.421875 15.25 8.5625 
Q 5.609375 18.5625 5.609375 36.375 
Q 5.609375 54.25 15.25 64.234375 
Q 24.90625 74.21875 42 74.21875 
Q 49.125 74.21875 55.546875 72.453125 
Q 61.96875 70.703125 67.390625 67.28125 
L 67.390625 56.78125 
Q 61.921875 61.421875 55.765625 63.765625 
Q 49.609375 66.109375 42.828125 66.109375 
Q 29.4375 66.109375 22.71875 58.640625 
Q 16.015625 51.171875 16.015625 36.375 
Q 16.015625 21.625 22.71875 14.15625 
Q 29.4375 6.6875 42.828125 6.6875 
Q 48.046875 6.6875 52.140625 7.59375 
Q 56.25 8.5 59.515625 10.40625 
" id="BitstreamVeraSans-Roman-47"/>
     <path d="M 64.40625 67.28125 
L 64.40625 56.890625 
Q 59.421875 61.53125 53.78125 63.8125 
Q 48.140625 66.109375 41.796875 66.109375 
Q 29.296875 66.109375 22.65625 58.46875 
Q 16.015625 50.828125 16.015625 36.375 
Q 16.015625 21.96875 22.65625 14.328125 
Q 29.296875 6.6875 41.796875 6.6875 
Q 48.140625 6.6875 53.78125 8.984375 
Q 59.421875 11.28125 64.40625 15.921875 
L 64.40625 5.609375 
Q 59.234375 2.09375 53.4375 0.328125 
Q 47.65625 -1.421875 41.21875 -1.421875 
Q 24.65625 -1.421875 15.125 8.703125 
Q 5.609375 18.84375 5.609375 36.375 
Q 5.609375 53.953125 15.125 64.078125 
Q 24.65625 74.21875 41.21875 74.21875 
Q 47.75 74.21875 53.53125 72.484375 
Q 59.328125 70.75 64.40625 67.28125 
" id="BitstreamVeraSans-Roman-43"/>
     <path d="M 56.203125 29.59375 
L 56.203125 25.203125 
L 14.890625 25.203125 
Q 15.484375 15.921875 20.484375 11.0625 
Q 25.484375 6.203125 34.421875 6.203125 
Q 39.59375 6.203125 44.453125 7.46875 
Q 49.3125 8.734375 54.109375 11.28125 
L 54.109375 2.78125 
Q 49.265625 0.734375 44.1875 -0.34375 
Q 39.109375 -1.421875 33.890625 -1.421875 
Q 20.796875 -1.421875 13.15625 6.1875 
Q 5.515625 13.8125 5.515625 26.8125 
Q 5.515625 40.234375 12.765625 48.109375 
Q 20.015625 56 32.328125 56 
Q 43.359375 56 49.78125 48.890625 
Q 56.203125 41.796875 56.203125 29.59375 
M 47.21875 32.234375 
Q 47.125 39.59375 43.09375 43.984375 
Q 39.0625 48.390625 32.421875 48.390625 
Q 24.90625 48.390625 20.390625 44.140625 
Q 15.875 39.890625 15.1875 32.171875 
z
" id="BitstreamVeraSans-Roman-65"/>
     <path d="M 45.40625 46.390625 
L 45.40625 75.984375 
L 54.390625 75.984375 
L 54.390625 0 
L 45.40625 0 
L 45.40625 8.203125 
Q 42.578125 3.328125 38.25 0.953125 
Q 33.9375 -1.421875 27.875 -1.421875 
Q 17.96875 -1.421875 11.734375 6.484375 
Q 5.515625 14.40625 5.515625 27.296875 
Q 5.515625 40.1875 11.734375 48.09375 
Q 17.96875 56 27.875 56 
Q 33.9375 56 38.25 53.625 
Q 42.578125 51.265625 45.40625 46.390625 
M 14.796875 27.296875 
Q 14.796875 17.390625 18.875 11.75 
Q 22.953125 6.109375 30.078125 6.109375 
Q 37.203125 6.109375 41.296875 11.75 
Q 45.40625 17.390625 45.40625 27.296875 
Q 45.40625 37.203125 41.296875 42.84375 
Q 37.203125 48.484375 30.078125 48.484375 
Q 22.953125 48.484375 18.875 42.84375 
Q 14.796875 37.203125 14.796875 27.296875 
" id="BitstreamVeraSans-Roman-64"/>
     <path d="M 8.5 21.578125 
L 8.5 54.6875 
L 17.484375 54.6875 
L 17.484375 21.921875 
Q 17.484375 14.15625 20.5 10.265625 
Q 23.53125 6.390625 29.59375 6.390625 
Q 36.859375 6.390625 41.078125 11.03125 
Q 45.3125 15.671875 45.3125 23.6875 
L 45.3125 54.6875 
L 54.296875 54.6875 
L 54.296875 0 
L 45.3125 0 
L 45.3125 8.40625 
Q 42.046875 3.421875 37.71875 1 
Q 33.40625 -1.421875 27.6875 -1.421875 
Q 18.265625 -1.421875 13.375 4.4375 
Q 8.5 10.296875 8.5 21.578125 
" id="BitstreamVeraSans-Roman-75"/>
     <path d="M 48.78125 52.59375 
L 48.78125 44.1875 
Q 44.96875 46.296875 41.140625 47.34375 
Q 37.3125 48.390625 33.40625 48.390625 
Q 24.65625 48.390625 19.8125 42.84375 
Q 14.984375 37.3125 14.984375 27.296875 
Q 14.984375 17.28125 19.8125 11.734375 
Q 24.65625 6.203125 33.40625 6.203125 
Q 37.3125 6.203125 41.140625 7.25 
Q 44.96875 8.296875 48.78125 10.40625 
L 48.78125 2.09375 
Q 45.015625 0.34375 40.984375 -0.53125 
Q 36.96875 -1.421875 32.421875 -1.421875 
Q 20.0625 -1.421875 12.78125 6.34375 
Q 5.515625 14.109375 5.515625 27.296875 
Q 5.515625 40.671875 12.859375 48.328125 
Q 20.21875 56 33.015625 56 
Q 37.15625 56 41.109375 55.140625 
Q 45.0625 54.296875 48.78125 52.59375 
" id="BitstreamVeraSans-Roman-63"/>
     <path d="M 48.6875 27.296875 
Q 48.6875 37.203125 44.609375 42.84375 
Q 40.53125 48.484375 33.40625 48.484375 
Q 26.265625 48.484375 22.1875 42.84375 
Q 18.109375 37.203125 18.109375 27.296875 
Q 18.109375 17.390625 22.1875 11.75 
Q 26.265625 6.109375 33.40625 6.109375 
Q 40.53125 6.109375 44.609375 11.75 
Q 48.6875 17.390625 48.6875 27.296875 
M 18.109375 46.390625 
Q 20.953125 51.265625 25.265625 53.625 
Q 29.59375 56 35.59375 56 
Q 45.5625 56 51.78125 48.09375 
Q 58.015625 40.1875 58.015625 27.296875 
Q 58.015625 14.40625 51.78125 6.484375 
Q 45.5625 -1.421875 35.59375 -1.421875 
Q 29.59375 -1.421875 25.265625 0.953125 
Q 20.953125 3.328125 18.109375 8.203125 
L 18.109375 0 
L 9.078125 0 
L 9.078125 75.984375 
L 18.109375 75.984375 
z
" id="BitstreamVeraSans-Roman-62"/>
    </defs>
    <g transform="translate(67.3625 290.620699257)scale(0.14 -0.14)">
     <use xlink:href="#BitstreamVeraSans-Roman-72"/>
     <use x="41.08203125" xlink:href="#BitstreamVeraSans-Roman-65"/>
     <use x="102.60546875" xlink:href="#BitstreamVeraSans-Roman-66"/>
     <use x="137.810546875" xlink:href="#BitstreamVeraSans-Roman-65"/>
     <use x="199.333984375" xlink:href="#BitstreamVeraSans-Roman-72"/>
     <use x="240.416015625" xlink:href="#BitstreamVeraSans-Roman-65"/>
     <use x="301.939453125" xlink:href="#BitstreamVeraSans-Roman-6e"/>
     <use x="365.318359375" xlink:href="#BitstreamVeraSans-Roman-63"/>
     <use x="420.298828125" xlink:href="#BitstreamVeraSans-Roman-65"/>
     <use x="481.822265625" xlink:href="#BitstreamVeraSans-Roman-20"/>
     <use x="513.609375" xlink:href="#BitstreamVeraSans-Roman-62"/>
     <use x="577.0859375" xlink:href="#BitstreamVeraSans-Roman-75"/>
     <use x="640.46484375" xlink:href="#BitstreamVeraSans-Roman-64"/>
     <use x="703.94140625" xlink:href="#BitstreamVeraSans-Roman-67"/>
     <use x="767.41796875" xlink:href="#BitstreamVeraSans-Roman-65"/>
     <use x="828.94140625" xlink:href="#BitstreamVeraSans-Roman-74"/>
     <use x="868.150390625" xlink:href="#BitstreamVeraSans-Roman-73"/>
     <use x="920.25" xlink:href="#BitstreamVeraSans-Roman-20"/>
     <use x="952.037109375" xlink:href="#BitstreamVeraSans-Roman-66"/>
     <use x="987.2421875" xlink:href="#BitstreamVeraSans-Roman-72"/>
     <use x="1028.32421875" xlink:href="#BitstreamVeraSans-Roman-6f"/>
     <use x="1089.50585938" xlink:href="#BitstreamVeraSans-Roman-6d"/>
     <use x="1186.91796875" xlink:href="#BitstreamVeraSans-Roman-20"/>
     <use x="1218.70507812" xlink:href="#BitstreamVeraSans-Roman-62"/>
     <use x="1282.18164062" xlink:href="#BitstreamVeraSans-Roman-65"/>
     <use x="1343.70507812" xlink:href="#BitstreamVeraSans-Roman-73"/>
     <use x="1395.8046875" xlink:href="#BitstreamVeraSans-Roman-74"/>
     <use x="1435.01367188" xlink:href="#BitstreamVeraSans-Roman-47"/>
     <use x="1512.50390625" xlink:href="#BitstreamVeraSans-Roman-45"/>
     <use x="1575.6875" xlink:href="#BitstreamVeraSans-Roman-43"/>
     <use x="1645.51171875" xlink:href="#BitstreamVeraSans-Roman-43"/>
     <use x="1715.3359375" xlink:href="#BitstreamVeraSans-Roman-4f"/>
     <use x="1794.046875" xlink:href="#BitstreamVeraSans-Roman-32"/>
     <use x="1857.66992188" xlink:href="#BitstreamVeraSans-Roman-30"/>
     <use x="1921.29296875" xlink:href="#BitstreamVeraSans-Roman-30"/>
     <use x="1984.91601562" xlink:href="#BitstreamVeraSans-Roman-39"/>
    </g>
   </g>
   <g id="legend_1">
    <g id="patch_7">
     <path d="M 77.3625 147.565699 
L 226.45 147.565699 
L 226.45 24.140699 
L 77.3625 24.140699 
z
" style="fill:#ffffff;stroke:#000000;stroke-linejoin:miter;"/>
    </g>
    <g id="line2d_112">
     <path d="M 91.3625 40.337574 
L 119.3625 40.337574 
" style="fill:none;stroke:#000000;stroke-linecap:square;"/>
    </g>
    <g id="line2d_113"/>
    <g id="text_14">
     <!-- 0.5: 5/5 -->
     <defs>
      <path d="M 11.71875 12.40625 
L 22.015625 12.40625 
L 22.015625 0 
L 11.71875 0 
z
M 11.71875 51.703125 
L 22.015625 51.703125 
L 22.015625 39.3125 
L 11.71875 39.3125 
z
" id="BitstreamVeraSans-Roman-3a"/>
      <path d="M 10.796875 72.90625 
L 49.515625 72.90625 
L 49.515625 64.59375 
L 19.828125 64.59375 
L 19.828125 46.734375 
Q 21.96875 47.46875 24.109375 47.828125 
Q 26.265625 48.1875 28.421875 48.1875 
Q 40.625 48.1875 47.75 41.5 
Q 54.890625 34.8125 54.890625 23.390625 
Q 54.890625 11.625 47.5625 5.09375 
Q 40.234375 -1.421875 26.90625 -1.421875 
Q 22.3125 -1.421875 17.546875 -0.640625 
Q 12.796875 0.140625 7.71875 1.703125 
L 7.71875 11.625 
Q 12.109375 9.234375 16.796875 8.0625 
Q 21.484375 6.890625 26.703125 6.890625 
Q 35.15625 6.890625 40.078125 11.328125 
Q 45.015625 15.765625 45.015625 23.390625 
Q 45.015625 31 40.078125 35.4375 
Q 35.15625 39.890625 26.703125 39.890625 
Q 22.75 39.890625 18.8125 39.015625 
Q 14.890625 38.140625 10.796875 36.28125 
z
" id="BitstreamVeraSans-Roman-35"/>
     </defs>
     <g transform="translate(141.3625 47.3375742574)scale(0.2 -0.2)">
      <use xlink:href="#BitstreamVeraSans-Roman-30"/>
      <use x="63.623046875" xlink:href="#BitstreamVeraSans-Roman-2e"/>
      <use x="95.41015625" xlink:href="#BitstreamVeraSans-Roman-35"/>
      <use x="159.033203125" xlink:href="#BitstreamVeraSans-Roman-3a"/>
      <use x="192.724609375" xlink:href="#BitstreamVeraSans-Roman-20"/>
      <use x="224.51171875" xlink:href="#BitstreamVeraSans-Roman-35"/>
      <use x="288.134765625" xlink:href="#BitstreamVeraSans-Roman-2f"/>
      <use x="321.826171875" xlink:href="#BitstreamVeraSans-Roman-35"/>
     </g>
    </g>
    <g id="line2d_114">
     <path d="M 91.3625 69.693824 
L 119.3625 69.693824 
" style="fill:none;stroke:#00bfbf;stroke-linecap:square;"/>
    </g>
    <g id="line2d_115"/>
    <g id="text_15">
     <!-- 2: 1/5 -->
     <g transform="translate(141.3625 76.6938242574)scale(0.2 -0.2)">
      <use xlink:href="#BitstreamVeraSans-Roman-32"/>
      <use x="63.623046875" xlink:href="#BitstreamVeraSans-Roman-3a"/>
      <use x="97.314453125" xlink:href="#BitstreamVeraSans-Roman-20"/>
      <use x="129.1015625" xlink:href="#BitstreamVeraSans-Roman-31"/>
      <use x="192.724609375" xlink:href="#BitstreamVeraSans-Roman-2f"/>
      <use x="226.416015625" xlink:href="#BitstreamVeraSans-Roman-35"/>
     </g>
    </g>
    <g id="line2d_116">
     <path d="M 91.3625 99.050074 
L 119.3625 99.050074 
" style="fill:none;stroke:#bf00bf;stroke-linecap:square;"/>
    </g>
    <g id="line2d_117"/>
    <g id="text_16">
     <!-- 10: 0/5 -->
     <g transform="translate(141.3625 106.050074257)scale(0.2 -0.2)">
      <use xlink:href="#BitstreamVeraSans-Roman-31"/>
      <use x="63.623046875" xlink:href="#BitstreamVeraSans-Roman-30"/>
      <use x="127.24609375" xlink:href="#BitstreamVeraSans-Roman-3a"/>
      <use x="160.9375" xlink:href="#BitstreamVeraSans-Roman-20"/>
      <use x="192.724609375" xlink:href="#BitstreamVeraSans-Roman-30"/>
      <use x="256.34765625" xlink:href="#BitstreamVeraSans-Roman-2f"/>
      <use x="290.0390625" xlink:href="#BitstreamVeraSans-Roman-35"/>
     </g>
    </g>
    <g id="line2d_118">
     <path d="M 91.3625 128.406324 
L 119.3625 128.406324 
" style="fill:none;stroke:#ff0000;stroke-linecap:square;stroke-width:3.0;"/>
    </g>
    <g id="line2d_119"/>
    <g id="text_17">
     <!-- 50: 0/5 -->
     <g transform="translate(141.3625 135.406324257)scale(0.2 -0.2)">
      <use xlink:href="#BitstreamVeraSans-Roman-35"/>
      <use x="63.623046875" xlink:href="#BitstreamVeraSans-Roman-30"/>
      <use x="127.24609375" xlink:href="#BitstreamVeraSans-Roman-3a"/>
      <use x="160.9375" xlink:href="#BitstreamVeraSans-Roman-20"/>
      <use x="192.724609375" xlink:href="#BitstreamVeraSans-Roman-30"/>
      <use x="256.34765625" xlink:href="#BitstreamVeraSans-Roman-2f"/>
      <use x="290.0390625" xlink:href="#BitstreamVeraSans-Roman-35"/>
     </g>
    </g>
   </g>
  </g>
 </g>
 <defs>
  <clipPath id="p5762b7153e">
   <rect height="276.48" width="357.12" x="67.3625" y="14.1406992574"/>
  </clipPath>
 </defs>
</svg>
