<?xml version="1.0" encoding="utf-8" standalone="no"?>
<!DOCTYPE svg PUBLIC "-//W3C//DTD SVG 1.1//EN"
  "http://www.w3.org/Graphics/SVG/1.1/DTD/svg11.dtd">
<!-- Created with matplotlib (http://matplotlib.org/) -->
<svg height="345pt" version="1.1" viewBox="0 0 431 345" width="431pt" xmlns="http://www.w3.org/2000/svg" xmlns:xlink="http://www.w3.org/1999/xlink">
 <defs>
  <style type="text/css">
*{stroke-linecap:butt;stroke-linejoin:round;stroke-miterlimit:100000;}
  </style>
 </defs>
 <g id="figure_1">
  <g id="patch_1">
   <path d="M 0 345.533199 
L 431.6825 345.533199 
L 431.6825 0 
L 0 0 
z
" style="fill:#ffffff;"/>
  </g>
  <g id="axes_1">
   <g id="patch_2">
    <path d="M 67.3625 290.620699 
L 424.4825 290.620699 
L 424.4825 14.140699 
L 67.3625 14.140699 
z
" style="fill:#ffffff;"/>
   </g>
   <g id="line2d_1">
    <path clip-path="url(#p101aee3d5c)" d="M 192.641359 290.620699 
L 192.641359 286.970798 
L 193.548684 286.970798 
L 193.548684 283.320897 
L 194.880504 283.320897 
L 194.880504 279.670996 
L 196.604536 279.670996 
L 196.604536 276.021095 
L 198.272945 276.021095 
L 198.272945 272.371194 
L 204.089875 272.371194 
L 204.089875 268.721293 
L 204.089875 268.721293 
L 204.089875 265.071392 
L 204.455362 265.071392 
L 204.455362 261.421491 
L 206.943905 261.421491 
L 206.943905 257.77159 
L 206.943905 257.77159 
L 206.943905 254.121689 
L 209.976993 254.121689 
L 209.976993 250.471788 
L 213.457682 250.471788 
L 213.457682 246.821887 
L 214.066114 246.821887 
L 214.066114 243.171986 
L 215.261917 243.171986 
L 215.261917 239.522085 
L 235.934652 239.522085 
L 235.934652 235.872184 
L 329.901977 235.872184 
L 329.901977 232.222283 
L 332.231644 232.222283 
L 332.231644 228.572382 
L 332.569158 228.572382 
L 332.569158 224.922481 
L 332.965219 224.922481 
L 332.965219 221.27258 
L 333.538676 221.27258 
L 333.538676 217.622679 
L 334.872022 217.622679 
L 334.872022 213.972778 
L 335.047232 213.972778 
L 335.047232 210.322877 
L 335.134615 210.322877 
L 335.134615 206.672976 
L 335.221851 206.672976 
L 335.221851 203.023075 
L 335.540462 203.023075 
L 335.540462 199.373175 
L 335.713426 199.373175 
L 335.713426 195.723274 
L 335.770952 195.723274 
L 335.770952 192.073373 
L 337.076699 192.073373 
L 337.076699 188.423472 
L 337.300458 188.423472 
L 337.300458 184.773571 
L 337.551034 184.773571 
L 337.551034 181.12367 
L 432.6825 181.12367 
" style="fill:none;stroke:#f5deb3;stroke-linecap:square;"/>
   </g>
   <g id="line2d_2">
    <path clip-path="url(#p101aee3d5c)" d="M 342.018516 290.620699 
L 342.018516 286.970798 
L 348.700852 286.970798 
L 348.700852 283.320897 
L 359.419572 283.320897 
L 359.492309 272.371194 
L 362.492723 272.371194 
L 362.492723 268.721293 
L 364.394948 268.721293 
L 364.494021 261.421491 
L 368.842478 261.421491 
L 368.842478 257.77159 
L 369.09966 257.77159 
L 369.09966 254.121689 
L 372.979647 254.121689 
L 373.077555 246.821887 
L 376.823227 246.821887 
L 376.823227 243.171986 
L 380.388674 243.171986 
L 380.437177 235.872184 
L 432.6825 235.872184 
L 432.6825 235.872184 
" style="fill:none;stroke:#f5deb3;stroke-linecap:square;"/>
   </g>
   <g id="line2d_3">
    <path clip-path="url(#p101aee3d5c)" d="M 398.142071 290.620699 
L 398.142071 286.970798 
L 402.695012 286.970798 
L 402.7895 257.77159 
L 402.813094 257.77159 
L 402.852395 250.471788 
L 403.26716 250.471788 
L 403.26716 246.821887 
L 404.02543 246.821887 
L 404.02543 243.171986 
L 404.560324 243.171986 
L 404.605916 232.222283 
L 407.515071 232.222283 
L 407.615491 199.373175 
L 407.837158 199.373175 
L 407.837158 195.723274 
L 408.742497 195.723274 
L 408.742497 192.073373 
L 410.296481 192.073373 
L 410.405229 49.727234 
L 410.412018 49.727234 
L 410.412018 24.177927 
L 414.301301 24.177927 
L 414.301301 20.528026 
L 419.84891 20.528026 
L 419.84891 16.878125 
L 424.4825 16.878125 
L 424.4825 16.878125 
" style="fill:none;stroke:#f5deb3;stroke-linecap:square;"/>
   </g>
   <g id="line2d_4">
    <path clip-path="url(#p101aee3d5c)" d="M 407.929833 290.620699 
L 407.929833 279.670996 
L 419.978843 279.670996 
L 419.978843 268.721293 
L 419.978843 268.721293 
L 419.978843 257.77159 
L 419.984485 257.77159 
L 419.984485 246.821887 
L 419.984485 246.821887 
L 419.984485 235.872184 
L 419.984485 235.872184 
L 419.984485 224.922481 
L 432.6825 224.922481 
" style="fill:none;stroke:#f5deb3;stroke-linecap:square;"/>
   </g>
   <g id="line2d_5">
    <path clip-path="url(#p101aee3d5c)" d="M 221.122843 290.620699 
L 221.122843 286.970798 
L 230.507821 286.970798 
L 230.507821 279.670996 
L 233.292386 279.670996 
L 233.292386 276.021095 
L 242.442565 276.021095 
L 242.442565 272.371194 
L 242.790824 272.371194 
L 242.790824 268.721293 
L 244.3296 268.721293 
L 244.3296 265.071392 
L 245.495553 265.071392 
L 245.495553 261.421491 
L 248.378315 261.421491 
L 248.378315 257.77159 
L 250.663643 257.77159 
L 250.663643 254.121689 
L 251.108835 254.121689 
L 251.108835 250.471788 
L 251.550228 250.471788 
L 251.550228 246.821887 
L 253.13718 246.821887 
L 253.13718 243.171986 
L 258.400992 243.171986 
L 258.400992 239.522085 
L 258.529161 239.522085 
L 258.529161 235.872184 
L 315.558093 235.872184 
L 315.558093 232.222283 
L 321.795545 232.222283 
L 321.795545 228.572382 
L 322.133438 228.572382 
L 322.133438 224.922481 
L 323.572653 224.922481 
L 323.572653 221.27258 
L 326.267183 221.27258 
L 326.267183 217.622679 
L 329.286494 217.622679 
L 329.286494 213.972778 
L 335.279926 213.972778 
L 335.279926 210.322877 
L 337.828036 210.322877 
L 337.828036 206.672976 
L 338.840234 206.672976 
L 338.840234 203.023075 
L 339.699951 203.023075 
L 339.699951 199.373175 
L 340.230106 199.373175 
L 340.230106 195.723274 
L 341.634958 195.723274 
L 341.634958 192.073373 
L 347.385771 192.073373 
L 347.385771 188.423472 
L 347.820267 188.423472 
L 347.820267 184.773571 
L 348.070159 184.773571 
L 348.070159 181.12367 
L 348.611222 181.12367 
L 348.611222 173.823868 
L 348.946535 173.823868 
L 348.946535 170.173967 
L 349.588705 170.173967 
L 349.610707 162.874165 
L 349.808307 162.874165 
L 349.808307 159.224264 
L 349.983319 159.224264 
L 349.983319 155.574363 
L 351.447489 155.574363 
L 351.447489 151.924462 
L 352.560611 151.924462 
L 352.560611 148.274561 
L 352.953891 148.274561 
L 352.953891 144.62466 
L 353.221265 144.62466 
L 353.221265 140.974759 
L 353.81278 140.974759 
L 353.81278 137.324858 
L 354.457729 137.324858 
L 354.457729 133.674957 
L 386.026421 133.674957 
L 386.026421 130.025056 
L 386.760916 130.025056 
L 386.760916 126.375155 
L 387.559103 126.375155 
L 387.559103 122.725254 
L 388.355558 122.725254 
L 388.355558 119.075353 
L 389.170653 119.075353 
L 389.170653 115.425452 
L 389.679975 115.425452 
L 389.679975 111.775551 
L 390.103963 111.775551 
L 390.103963 108.12565 
L 390.951543 108.12565 
L 390.951543 104.475749 
L 391.079957 104.475749 
L 391.089821 97.175947 
L 391.87297 97.175947 
L 391.87297 93.526046 
L 393.101851 93.526046 
L 393.101851 89.876145 
L 393.442277 89.876145 
L 393.442277 86.226244 
L 393.592861 86.226244 
L 393.592861 82.576343 
L 395.764504 82.576343 
L 395.764504 78.926442 
L 413.328794 78.926442 
L 413.328794 75.276541 
L 414.313894 75.276541 
L 414.383096 67.976739 
L 414.852478 67.976739 
L 414.852478 64.326838 
L 415.001785 64.326838 
L 415.001785 60.676937 
L 417.131576 60.676937 
L 417.131576 57.027036 
L 417.694841 57.027036 
L 417.694841 53.377135 
L 417.847935 53.377135 
L 417.847935 49.727234 
L 420.012685 49.727234 
L 420.012685 46.077333 
L 420.445036 46.077333 
L 420.445036 42.427432 
L 420.57906 42.427432 
L 420.57906 38.777531 
L 421.199949 38.777531 
L 421.199949 35.12763 
L 427.143467 35.12763 
L 427.143467 31.477729 
L 430.204714 31.477729 
L 430.204714 27.827828 
L 432.6825 27.827828 
L 432.6825 27.827828 
" style="fill:none;stroke:#f5deb3;stroke-linecap:square;"/>
   </g>
   <g id="line2d_6">
    <path clip-path="url(#p101aee3d5c)" d="M 210.94974 290.620699 
L 210.94974 286.970798 
L 212.531397 286.970798 
L 212.531397 283.320897 
L 213.457682 283.320897 
L 213.457682 279.670996 
L 214.667472 279.670996 
L 214.667472 276.021095 
L 214.965549 276.021095 
L 214.965549 272.371194 
L 214.965549 272.371194 
L 214.965549 268.721293 
L 215.261917 268.721293 
L 215.261917 265.071392 
L 215.556597 265.071392 
L 215.556597 261.421491 
L 216.140967 261.421491 
L 216.140967 257.77159 
L 216.140967 257.77159 
L 216.140967 254.121689 
L 216.140967 254.121689 
L 216.140967 250.471788 
L 216.140967 250.471788 
L 216.140967 246.821887 
L 216.430694 246.821887 
L 216.430694 243.171986 
L 216.718807 243.171986 
L 216.718807 239.522085 
L 216.718807 239.522085 
L 216.718807 235.872184 
L 289.478994 235.872184 
L 289.478994 232.222283 
L 290.523801 232.222283 
L 290.523801 228.572382 
L 292.018984 228.572382 
L 292.018984 224.922481 
L 292.552146 224.922481 
L 292.552146 221.27258 
L 293.014195 221.27258 
L 293.014195 217.622679 
L 295.452878 217.622679 
L 295.452878 213.972778 
L 295.640596 213.972778 
L 295.640596 210.322877 
L 295.765363 210.322877 
L 295.765363 206.672976 
L 296.261446 206.672976 
L 296.261446 203.023075 
L 296.996759 203.023075 
L 296.996759 199.373175 
L 297.178965 199.373175 
L 297.178965 195.723274 
L 297.300081 195.723274 
L 297.300081 192.073373 
L 298.554954 192.073373 
L 298.554954 188.423472 
L 298.907967 188.423472 
L 298.907967 184.773571 
L 299.141977 184.773571 
L 299.141977 181.12367 
L 308.170539 181.12367 
L 308.170539 177.473769 
L 311.262541 177.473769 
L 311.262541 173.823868 
L 311.63063 173.823868 
L 311.63063 170.173967 
L 313.121894 170.173967 
L 313.121894 166.524066 
L 313.521248 166.524066 
L 313.521248 162.874165 
L 314.005197 162.874165 
L 314.005197 159.224264 
L 314.830589 159.224264 
L 314.830589 155.574363 
L 315.727794 155.574363 
L 315.727794 151.924462 
L 316.107596 151.924462 
L 316.107596 148.274561 
L 318.168274 148.274561 
L 318.168274 144.62466 
L 324.581782 144.62466 
L 324.581782 140.974759 
L 327.021676 140.974759 
L 327.021676 137.324858 
L 330.669103 137.324858 
L 330.669103 133.674957 
L 432.6825 133.674957 
" style="fill:none;stroke:#f5deb3;stroke-linecap:square;"/>
   </g>
   <g id="line2d_7">
    <path clip-path="url(#p101aee3d5c)" d="M 287.397146 290.620699 
L 287.397146 286.970798 
L 287.397146 286.970798 
L 287.397146 283.320897 
L 291.004246 283.320897 
L 291.004246 279.670996 
L 292.4858 279.670996 
L 292.4858 276.021095 
L 294.440044 276.021095 
L 294.440044 272.371194 
L 304.514882 272.371194 
L 304.514882 268.721293 
L 309.668263 268.721293 
L 309.668263 265.071392 
L 309.715862 265.071392 
L 309.715862 261.421491 
L 310.000539 261.421491 
L 310.000539 257.77159 
L 312.177896 257.77159 
L 312.177896 254.121689 
L 315.812436 254.121689 
L 315.812436 250.471788 
L 320.883554 250.471788 
L 320.883554 246.821887 
L 324.759929 246.821887 
L 324.759929 243.171986 
L 325.149707 243.171986 
L 325.149707 239.522085 
L 329.253896 239.522085 
L 329.253896 235.872184 
L 342.475062 235.872184 
L 342.475062 232.222283 
L 346.529025 232.222283 
L 346.529025 228.572382 
L 346.738733 228.572382 
L 346.738733 224.922481 
L 346.970748 224.922481 
L 346.970748 221.27258 
L 347.109459 221.27258 
L 347.109459 217.622679 
L 347.2478 217.622679 
L 347.2478 213.972778 
L 347.2478 213.972778 
L 347.2478 210.322877 
L 347.40873 210.322877 
L 347.40873 206.672976 
L 347.751905 206.672976 
L 347.751905 203.023075 
L 347.911277 203.023075 
L 347.911277 199.373175 
L 348.138102 199.373175 
L 348.138102 195.723274 
L 349.279687 195.723274 
L 349.279687 192.073373 
L 349.323946 192.073373 
L 349.323946 188.423472 
L 349.764461 188.423472 
L 349.764461 184.773571 
L 350.699051 184.773571 
L 350.699051 181.12367 
L 432.6825 181.12367 
" style="fill:none;stroke:#f5deb3;stroke-linecap:square;"/>
   </g>
   <g id="line2d_8">
    <path clip-path="url(#p101aee3d5c)" d="M 184.209574 290.620699 
L 184.209574 286.970798 
L 192.181657 286.970798 
L 192.181657 283.320897 
L 193.548684 283.320897 
L 193.548684 279.670996 
L 194.440364 279.670996 
L 194.440364 276.021095 
L 195.749704 276.021095 
L 195.749704 272.371194 
L 197.026712 272.371194 
L 197.026712 268.721293 
L 200.285501 268.721293 
L 200.285501 265.071392 
L 203.721787 265.071392 
L 203.721787 261.421491 
L 204.089875 261.421491 
L 204.089875 257.77159 
L 206.245028 257.77159 
L 206.245028 254.121689 
L 210.62752 254.121689 
L 210.62752 250.471788 
L 215.261917 250.471788 
L 215.261917 246.821887 
L 215.556597 246.821887 
L 215.556597 243.171986 
L 224.444034 243.171986 
L 224.444034 239.522085 
L 232.025805 239.522085 
L 232.025805 235.872184 
L 320.806823 235.872184 
L 320.806823 232.222283 
L 321.531205 232.222283 
L 321.531205 228.572382 
L 322.728738 228.572382 
L 322.728738 224.922481 
L 322.839598 224.922481 
L 322.839598 221.27258 
L 324.151707 221.27258 
L 324.151707 217.622679 
L 324.43882 217.622679 
L 324.43882 213.972778 
L 325.501519 213.972778 
L 325.501519 210.322877 
L 325.990069 210.322877 
L 325.990069 206.672976 
L 326.094161 206.672976 
L 326.094161 203.023075 
L 327.123714 203.023075 
L 327.123714 199.373175 
L 327.49614 199.373175 
L 327.49614 195.723274 
L 327.76532 195.723274 
L 327.76532 192.073373 
L 328.498422 192.073373 
L 328.498422 188.423472 
L 329.384163 188.423472 
L 329.384163 184.773571 
L 330.286962 184.773571 
L 330.286962 181.12367 
L 330.286962 181.12367 
L 330.286962 181.12367 
L 424.4825 181.12367 
" style="fill:none;stroke:#f5deb3;stroke-linecap:square;"/>
   </g>
   <g id="line2d_9">
    <path clip-path="url(#p101aee3d5c)" d="M 0 0 
" style="fill:none;stroke:#f5deb3;stroke-linecap:square;"/>
   </g>
   <g id="line2d_10">
    <path clip-path="url(#p101aee3d5c)" d="M 142.673831 290.620699 
L 142.673831 286.970798 
L 142.673831 286.970798 
L 142.673831 283.320897 
L 142.673831 283.320897 
L 142.673831 279.670996 
L 142.673831 279.670996 
L 142.673831 276.021095 
L 142.673831 276.021095 
L 142.673831 272.371194 
L 142.673831 272.371194 
L 142.673831 268.721293 
L 142.673831 268.721293 
L 142.673831 265.071392 
L 142.673831 265.071392 
L 142.673831 261.421491 
L 142.673831 261.421491 
L 142.673831 257.77159 
L 142.673831 257.77159 
L 142.673831 254.121689 
L 142.673831 254.121689 
L 142.673831 250.471788 
L 142.673831 250.471788 
L 142.673831 246.821887 
L 142.673831 246.821887 
L 142.673831 243.171986 
L 142.673831 243.171986 
L 142.673831 239.522085 
L 142.673831 239.522085 
L 142.673831 235.872184 
L 177.915875 235.872184 
L 177.915875 232.222283 
L 189.334176 232.222283 
L 189.334176 228.572382 
L 189.334176 228.572382 
L 189.334176 224.922481 
L 189.334176 224.922481 
L 189.334176 221.27258 
L 189.334176 221.27258 
L 189.334176 217.622679 
L 189.334176 217.622679 
L 189.334176 213.972778 
L 189.334176 213.972778 
L 189.334176 210.322877 
L 189.334176 210.322877 
L 189.334176 206.672976 
L 189.334176 206.672976 
L 189.334176 203.023075 
L 189.334176 203.023075 
L 189.334176 199.373175 
L 198.68177 199.373175 
L 198.68177 195.723274 
L 198.68177 195.723274 
L 198.68177 192.073373 
L 198.68177 192.073373 
L 198.68177 188.423472 
L 198.68177 188.423472 
L 198.68177 184.773571 
L 213.457682 184.773571 
L 213.457682 181.12367 
L 417.994714 181.12367 
L 417.994714 177.473769 
L 419.809301 177.473769 
L 419.809301 173.823868 
L 422.698916 173.823868 
L 422.698916 170.173967 
L 429.505522 170.173967 
L 429.505522 166.524066 
L 429.627394 166.524066 
L 429.627394 162.874165 
L 430.412642 162.874165 
L 430.412642 159.224264 
L 431.448963 159.224264 
L 431.448963 155.574363 
L 431.65646 155.574363 
L 431.65646 151.924462 
L 431.939295 151.924462 
L 431.939295 148.274561 
L 432.202778 148.274561 
L 432.202778 144.62466 
L 432.407278 144.62466 
L 432.407278 140.974759 
L 432.500368 140.974759 
L 432.500368 137.324858 
L 432.593292 137.324858 
L 432.593292 133.674957 
L 432.6825 133.674957 
" style="fill:none;stroke:#f5deb3;stroke-linecap:square;"/>
   </g>
   <g id="line2d_11">
    <path clip-path="url(#p101aee3d5c)" d="M 233.083432 290.620699 
L 233.083432 286.970798 
L 236.916012 286.970798 
L 236.916012 283.320897 
L 242.091946 283.320897 
L 242.091946 279.670996 
L 245.165097 279.670996 
L 245.165097 276.021095 
L 248.843531 276.021095 
L 248.843531 272.371194 
L 252.277612 272.371194 
L 252.277612 268.721293 
L 252.421869 268.721293 
L 252.421869 265.071392 
L 253.13718 265.071392 
L 253.13718 261.421491 
L 254.400325 261.421491 
L 254.400325 257.77159 
L 254.814609 257.77159 
L 254.814609 254.121689 
L 258.529161 254.121689 
L 258.529161 250.471788 
L 258.78455 250.471788 
L 258.78455 246.821887 
L 259.668608 246.821887 
L 259.668608 243.171986 
L 264.105855 243.171986 
L 264.105855 239.522085 
L 281.342471 239.522085 
L 281.342471 235.872184 
L 333.388381 235.872184 
L 333.388381 232.222283 
L 342.626352 232.222283 
L 342.626352 228.572382 
L 342.626352 228.572382 
L 342.626352 224.922481 
L 343.450632 224.922481 
L 343.450632 221.27258 
L 344.237578 221.27258 
L 344.237578 217.622679 
L 345.036767 217.622679 
L 345.036767 213.972778 
L 348.16073 213.972778 
L 348.16073 210.322877 
L 348.431496 210.322877 
L 348.431496 206.672976 
L 348.723235 206.672976 
L 348.723235 203.023075 
L 349.478553 203.023075 
L 349.478553 199.373175 
L 351.149412 199.373175 
L 351.149412 195.723274 
L 355.17381 195.723274 
L 355.17381 192.073373 
L 355.547782 192.073373 
L 355.547782 188.423472 
L 357.886718 188.423472 
L 357.886718 184.773571 
L 361.014272 184.773571 
L 361.014272 181.12367 
L 377.584436 181.12367 
L 377.584436 177.473769 
L 379.876629 177.473769 
L 379.876629 173.823868 
L 384.715408 173.823868 
L 384.715408 170.173967 
L 385.093386 170.173967 
L 385.093386 166.524066 
L 385.490611 166.524066 
L 385.490611 162.874165 
L 387.958863 162.874165 
L 387.958863 159.224264 
L 388.293124 159.224264 
L 388.293124 155.574363 
L 388.965511 155.574363 
L 388.965511 151.924462 
L 389.129689 151.924462 
L 389.129689 148.274561 
L 389.232037 148.274561 
L 389.232037 144.62466 
L 389.425941 144.62466 
L 389.425941 140.974759 
L 390.013401 140.974759 
L 390.013401 137.324858 
L 392.50066 137.324858 
L 392.50066 133.674957 
L 395.321052 133.674957 
L 395.321052 130.025056 
L 398.919387 130.025056 
L 398.919387 126.375155 
L 398.919387 126.375155 
L 398.919387 126.375155 
L 424.4825 126.375155 
" style="fill:none;stroke:#f5deb3;stroke-linecap:square;"/>
   </g>
   <g id="line2d_12">
    <path clip-path="url(#p101aee3d5c)" d="M 223.696318 290.620699 
L 223.696318 286.970798 
L 225.424465 286.970798 
L 225.424465 283.320897 
L 228.716605 283.320897 
L 228.716605 279.670996 
L 229.619968 279.670996 
L 229.619968 276.021095 
L 229.843364 276.021095 
L 229.843364 272.371194 
L 230.507821 272.371194 
L 230.507821 268.721293 
L 231.811659 268.721293 
L 231.811659 265.071392 
L 232.025805 265.071392 
L 232.025805 261.421491 
L 233.292386 261.421491 
L 233.292386 257.77159 
L 237.303401 257.77159 
L 237.303401 254.121689 
L 238.259365 254.121689 
L 238.259365 250.471788 
L 241.915741 250.471788 
L 241.915741 246.821887 
L 243.136752 246.821887 
L 243.136752 243.171986 
L 245.330589 243.171986 
L 245.330589 239.522085 
L 247.116883 239.522085 
L 247.116883 235.872184 
L 328.762449 235.872184 
L 328.762449 232.222283 
L 333.897609 232.222283 
L 333.897609 228.572382 
L 334.842763 228.572382 
L 334.842763 224.922481 
L 336.964455 224.922481 
L 336.964455 221.27258 
L 339.406033 221.27258 
L 339.406033 217.622679 
L 339.726588 217.622679 
L 339.726588 213.972778 
L 342.043986 213.972778 
L 342.043986 210.322877 
L 343.697841 210.322877 
L 343.697841 206.672976 
L 344.844156 206.672976 
L 344.844156 203.023075 
L 345.156786 203.023075 
L 345.156786 199.373175 
L 350.935443 199.373175 
L 350.935443 195.723274 
L 351.063931 195.723274 
L 351.063931 192.073373 
L 351.532339 192.073373 
L 351.532339 188.423472 
L 352.539829 188.423472 
L 352.539829 184.773571 
L 355.252766 184.773571 
L 355.252766 181.12367 
L 355.586991 181.12367 
L 355.586991 177.473769 
L 356.074607 177.473769 
L 356.074607 173.823868 
L 356.28771 173.823868 
L 356.28771 170.173967 
L 357.150465 170.173967 
L 357.207474 162.874165 
L 357.698932 162.874165 
L 357.698932 159.224264 
L 358.092498 159.224264 
L 358.092498 155.574363 
L 358.612636 155.574363 
L 358.612636 151.924462 
L 358.870757 151.924462 
L 358.870757 148.274561 
L 359.310274 148.274561 
L 359.310274 144.62466 
L 359.980627 144.62466 
L 360.05258 137.324858 
L 363.241753 137.324858 
L 363.241753 133.674957 
L 423.669369 133.674957 
L 423.669369 130.025056 
L 423.884318 130.025056 
L 423.884318 126.375155 
L 424.129629 126.375155 
L 424.129629 122.725254 
L 424.909973 122.725254 
L 424.909973 119.075353 
L 426.171591 119.075353 
L 426.171591 115.425452 
L 427.816953 115.425452 
L 427.816953 111.775551 
L 428.107059 111.775551 
L 428.107059 108.12565 
L 428.371568 108.12565 
L 428.371568 104.475749 
L 428.844301 104.475749 
L 428.844301 100.825848 
L 429.486746 100.825848 
L 429.514907 93.526046 
L 431.372068 93.526046 
L 431.372068 89.876145 
L 431.534769 89.876145 
L 431.534769 86.226244 
L 432.6825 86.226244 
L 432.6825 86.226244 
" style="fill:none;stroke:#f5deb3;stroke-linecap:square;"/>
   </g>
   <g id="line2d_13">
    <path clip-path="url(#p101aee3d5c)" d="M 324.367191 290.620699 
L 324.367191 286.970798 
L 328.564556 286.970798 
L 328.564556 283.320897 
L 331.767819 283.320897 
L 331.767819 279.670996 
L 333.297995 279.670996 
L 333.297995 276.021095 
L 334.076146 276.021095 
L 334.076146 272.371194 
L 335.279926 272.371194 
L 335.337937 265.071392 
L 336.029032 265.071392 
L 336.029032 261.421491 
L 339.513105 261.421491 
L 339.513105 257.77159 
L 339.912666 257.77159 
L 339.912666 254.121689 
L 345.586563 254.121689 
L 345.586563 250.471788 
L 347.79749 250.471788 
L 347.79749 246.821887 
L 348.16073 246.821887 
L 348.16073 243.171986 
L 348.318849 243.171986 
L 348.318849 239.522085 
L 348.745608 239.522085 
L 348.745608 235.872184 
L 349.654683 235.872184 
L 349.720578 228.572382 
L 350.157742 228.572382 
L 350.157742 224.922481 
L 351.447489 224.922481 
L 351.447489 221.27258 
L 354.015192 221.27258 
L 354.015192 217.622679 
L 356.28771 217.622679 
L 356.28771 213.972778 
L 357.283387 213.972778 
L 357.283387 210.322877 
L 357.585932 210.322877 
L 357.585932 206.672976 
L 358.446019 206.672976 
L 358.446019 203.023075 
L 359.364951 203.023075 
L 359.364951 199.373175 
L 359.890545 199.373175 
L 359.890545 195.723274 
L 360.961312 195.723274 
L 360.961312 192.073373 
L 361.732686 192.073373 
L 361.732686 184.773571 
L 361.871708 184.773571 
L 361.871708 181.12367 
L 361.993046 181.12367 
L 361.993046 177.473769 
L 362.970632 177.473769 
L 362.970632 173.823868 
L 363.343058 173.823868 
L 363.343058 170.173967 
L 364.642276 170.173967 
L 364.642276 166.524066 
L 365.732791 166.524066 
L 365.732791 162.874165 
L 366.516021 162.874165 
L 366.516021 159.224264 
L 366.69023 159.224264 
L 366.69023 155.574363 
L 367.052599 155.574363 
L 367.052599 151.924462 
L 367.707835 151.924462 
L 367.707835 148.274561 
L 370.381452 148.274561 
L 370.381452 144.62466 
L 374.984295 144.62466 
L 375.011223 137.324858 
L 376.732166 137.324858 
L 376.732166 133.674957 
L 377.67401 133.674957 
L 377.67401 130.025056 
L 377.916361 130.025056 
L 377.916361 126.375155 
L 432.6825 126.375155 
L 432.6825 126.375155 
" style="fill:none;stroke:#f5deb3;stroke-linecap:square;"/>
   </g>
   <g id="line2d_14">
    <path clip-path="url(#p101aee3d5c)" d="M 330.414657 290.620699 
L 330.414657 286.970798 
L 331.237072 286.970798 
L 331.237072 283.320897 
L 334.165184 283.320897 
L 334.165184 279.670996 
L 334.872022 279.670996 
L 334.872022 276.021095 
L 334.988895 276.021095 
L 334.988895 272.371194 
L 335.250897 272.371194 
L 335.279926 265.071392 
L 336.057628 265.071392 
L 336.057628 257.77159 
L 337.048661 257.77159 
L 337.048661 254.121689 
L 338.048575 254.121689 
L 338.048575 250.471788 
L 338.568615 250.471788 
L 338.568615 246.821887 
L 339.753212 246.821887 
L 339.753212 243.171986 
L 339.992209 243.171986 
L 339.992209 239.522085 
L 352.912634 239.522085 
L 352.912634 235.872184 
L 375.812626 235.872184 
L 375.812626 232.222283 
L 383.507532 232.222283 
L 383.507532 228.572382 
L 385.36956 228.572382 
L 385.36956 224.922481 
L 385.556519 224.922481 
L 385.556519 221.27258 
L 385.961109 221.27258 
L 385.961109 217.622679 
L 396.29346 217.622679 
L 396.29346 213.972778 
L 401.876814 213.972778 
L 401.876814 210.322877 
L 402.283559 210.322877 
L 402.283559 206.672976 
L 404.999369 206.672976 
L 405.021977 199.373175 
L 405.247517 199.373175 
L 405.247517 195.723274 
L 409.404328 195.723274 
L 409.404328 192.073373 
L 410.493418 192.073373 
L 410.493418 188.423472 
L 415.416333 188.423472 
L 415.416333 184.773571 
L 416.035036 184.773571 
L 416.035036 181.12367 
L 416.1749 181.12367 
L 416.1749 177.473769 
L 416.356764 177.473769 
L 416.356764 173.823868 
L 416.712576 173.823868 
L 416.712576 170.173967 
L 417.101759 170.173967 
L 417.101759 166.524066 
L 417.280399 166.524066 
L 417.321993 159.224264 
L 417.564945 159.224264 
L 417.564945 155.574363 
L 417.918441 155.574363 
L 417.918441 151.924462 
L 418.333646 151.924462 
L 418.333646 148.274561 
L 418.670371 148.274561 
L 418.670371 144.62466 
L 421.100665 144.62466 
L 421.100665 140.974759 
L 421.76444 140.974759 
L 421.824363 133.674957 
L 422.21488 133.674957 
L 422.21488 130.025056 
L 423.69563 130.025056 
L 423.73762 122.725254 
L 426.66477 122.725254 
L 426.66477 119.075353 
L 427.05005 119.075353 
L 427.05005 115.425452 
L 427.236715 115.425452 
L 427.236715 111.775551 
L 427.491066 111.775551 
L 427.491066 108.12565 
L 427.816953 108.12565 
L 427.816953 104.475749 
L 432.6825 104.475749 
L 432.6825 104.475749 
" style="fill:none;stroke:#f5deb3;stroke-linecap:square;"/>
   </g>
   <g id="line2d_15">
    <path clip-path="url(#p101aee3d5c)" d="M 337.439817 290.620699 
L 337.439817 286.970798 
L 337.439817 286.970798 
L 337.439817 283.320897 
L 338.268177 283.320897 
L 338.268177 279.670996 
L 338.268177 279.670996 
L 338.268177 276.021095 
L 339.513105 276.021095 
L 339.513105 272.371194 
L 339.646636 272.371194 
L 339.646636 268.721293 
L 339.646636 268.721293 
L 339.646636 265.071392 
L 339.646636 265.071392 
L 339.646636 261.421491 
L 340.3618 261.421491 
L 340.3618 257.77159 
L 342.475062 257.77159 
L 342.475062 254.121689 
L 342.475062 254.121689 
L 342.475062 250.471788 
L 342.475062 250.471788 
L 342.475062 246.821887 
L 342.575971 246.821887 
L 342.575971 243.171986 
L 342.575971 243.171986 
L 342.575971 239.522085 
L 342.575971 239.522085 
L 342.575971 235.872184 
L 342.575971 235.872184 
L 342.575971 235.872184 
L 424.4825 235.872184 
" style="fill:none;stroke:#f5deb3;stroke-linecap:square;"/>
   </g>
   <g id="line2d_16">
    <path clip-path="url(#p101aee3d5c)" d="M 230.065799 290.620699 
L 230.065799 286.970798 
L 230.065799 286.970798 
L 230.065799 283.320897 
L 230.065799 283.320897 
L 230.065799 279.670996 
L 230.065799 279.670996 
L 230.065799 276.021095 
L 230.287282 276.021095 
L 230.287282 272.371194 
L 230.507821 272.371194 
L 230.507821 268.721293 
L 230.507821 268.721293 
L 230.507821 265.071392 
L 230.507821 265.071392 
L 230.507821 261.421491 
L 230.507821 261.421491 
L 230.507821 257.77159 
L 230.507821 257.77159 
L 230.507821 254.121689 
L 230.507821 254.121689 
L 230.507821 250.471788 
L 230.507821 250.471788 
L 230.507821 246.821887 
L 230.507821 246.821887 
L 230.507821 243.171986 
L 230.507821 243.171986 
L 230.507821 239.522085 
L 230.727423 239.522085 
L 230.727423 235.872184 
L 230.946096 235.872184 
L 230.946096 232.222283 
L 231.380688 232.222283 
L 231.380688 228.572382 
L 233.5005 228.572382 
L 233.5005 224.922481 
L 234.32468 224.922481 
L 234.32468 221.27258 
L 235.934652 221.27258 
L 235.934652 217.622679 
L 235.934652 217.622679 
L 235.934652 213.972778 
L 236.5257 213.972778 
L 236.5257 210.322877 
L 236.721224 210.322877 
L 236.721224 206.672976 
L 236.916012 206.672976 
L 236.916012 203.023075 
L 237.879097 203.023075 
L 237.879097 199.373175 
L 238.069581 199.373175 
L 238.069581 195.723274 
L 238.636857 195.723274 
L 238.636857 192.073373 
L 240.30228 192.073373 
L 240.30228 188.423472 
L 243.136752 188.423472 
L 243.136752 184.773571 
L 245.330589 184.773571 
L 245.330589 181.12367 
L 245.330589 181.12367 
L 245.330589 181.12367 
L 424.4825 181.12367 
" style="fill:none;stroke:#f5deb3;stroke-linecap:square;"/>
   </g>
   <g id="line2d_17">
    <path clip-path="url(#p101aee3d5c)" d="M 421.266033 290.620699 
L 421.266033 286.970798 
L 427.807255 286.970798 
L 427.807255 283.320897 
L 430.963063 283.320897 
L 430.963063 279.670996 
L 432.420587 279.670996 
L 432.420587 276.021095 
L 432.6825 276.021095 
L 432.6825 276.021095 
" style="fill:none;stroke:#f5deb3;stroke-linecap:square;"/>
   </g>
   <g id="line2d_18">
    <path clip-path="url(#p101aee3d5c)" d="M 208.650865 290.620699 
L 208.650865 286.970798 
L 215.261917 286.970798 
L 215.261917 283.320897 
L 215.849607 283.320897 
L 215.849607 279.670996 
L 219.786433 279.670996 
L 219.786433 276.021095 
L 227.331268 276.021095 
L 227.331268 272.371194 
L 230.287282 272.371194 
L 230.287282 268.721293 
L 231.596622 268.721293 
L 231.596622 265.071392 
L 232.239068 265.071392 
L 232.239068 261.421491 
L 238.069581 261.421491 
L 238.069581 257.77159 
L 240.48406 257.77159 
L 240.48406 254.121689 
L 242.091946 254.121689 
L 242.091946 250.471788 
L 244.497783 250.471788 
L 244.497783 246.821887 
L 246.796658 246.821887 
L 246.796658 243.171986 
L 250.364705 243.171986 
L 250.364705 239.522085 
L 259.165284 239.522085 
L 259.165284 235.872184 
L 329.090599 235.872184 
L 329.090599 232.222283 
L 330.286962 232.222283 
L 330.286962 228.572382 
L 332.538566 228.572382 
L 332.538566 224.922481 
L 333.056189 224.922481 
L 333.056189 221.27258 
L 336.513029 221.27258 
L 336.513029 217.622679 
L 338.65025 217.622679 
L 338.65025 213.972778 
L 338.65025 213.972778 
L 338.65025 210.322877 
L 338.921442 210.322877 
L 338.921442 206.672976 
L 338.921442 206.672976 
L 338.921442 203.023075 
L 339.056507 203.023075 
L 339.056507 199.373175 
L 339.459597 199.373175 
L 339.459597 195.723274 
L 342.221923 195.723274 
L 342.221923 192.073373 
L 342.802301 192.073373 
L 342.802301 188.423472 
L 344.33511 188.423472 
L 344.33511 184.773571 
L 351.786057 184.773571 
L 351.786057 181.12367 
L 431.575364 181.12367 
L 431.575364 177.473769 
L 431.925862 177.473769 
L 431.925862 173.823868 
L 432.6825 173.823868 
" style="fill:none;stroke:#f5deb3;stroke-linecap:square;"/>
   </g>
   <g id="line2d_19">
    <path clip-path="url(#p101aee3d5c)" style="fill:none;stroke:#f5deb3;stroke-linecap:square;"/>
   </g>
   <g id="line2d_20">
    <path clip-path="url(#p101aee3d5c)" d="M 285.75995 290.620699 
L 285.75995 286.970798 
L 294.567739 286.970798 
L 294.567739 283.320897 
L 296.446256 283.320897 
L 296.446256 279.670996 
L 297.360532 279.670996 
L 297.360532 276.021095 
L 298.907967 276.021095 
L 298.907967 272.371194 
L 301.369743 272.371194 
L 301.369743 268.721293 
L 303.344301 268.721293 
L 303.344301 265.071392 
L 314.873667 265.071392 
L 314.873667 261.421491 
L 404.415685 261.421491 
L 404.415685 257.77159 
L 406.872088 257.77159 
L 406.872088 254.121689 
L 407.219858 254.121689 
L 407.219858 250.471788 
L 409.590892 250.471788 
L 409.590892 246.821887 
L 414.276108 246.821887 
L 414.276108 243.171986 
L 414.952064 243.171986 
L 414.952064 239.522085 
L 415.181625 239.522085 
L 415.181625 235.872184 
L 419.039403 235.872184 
L 419.039403 232.222283 
L 428.515277 232.222283 
L 428.515277 228.572382 
L 428.815773 228.572382 
L 428.815773 224.922481 
L 432.354008 224.922481 
L 432.354008 221.27258 
L 432.478219 221.27258 
L 432.478219 217.622679 
L 432.6825 217.622679 
" style="fill:none;stroke:#f5deb3;stroke-linecap:square;"/>
   </g>
   <g id="line2d_21">
    <path clip-path="url(#p101aee3d5c)" d="M 250.214585 290.620699 
L 250.214585 286.970798 
L 251.256385 286.970798 
L 251.256385 283.320897 
L 251.696525 283.320897 
L 251.696525 279.670996 
L 252.709182 279.670996 
L 252.709182 272.371194 
L 252.994907 272.371194 
L 252.994907 268.721293 
L 253.13718 268.721293 
L 253.13718 265.071392 
L 253.279063 265.071392 
L 253.279063 261.421491 
L 253.420557 261.421491 
L 253.420557 257.77159 
L 253.842733 257.77159 
L 253.842733 254.121689 
L 254.676882 254.121689 
L 254.676882 250.471788 
L 255.2256 250.471788 
L 255.2256 243.171986 
L 255.633351 243.171986 
L 255.633351 239.522085 
L 256.037913 239.522085 
L 256.037913 232.222283 
L 256.305873 232.222283 
L 256.305873 228.572382 
L 256.439334 228.572382 
L 256.439334 224.922481 
L 256.572452 224.922481 
L 256.572452 221.27258 
L 256.969761 221.27258 
L 256.969761 217.622679 
L 257.755338 217.622679 
L 257.755338 213.972778 
L 258.272504 213.972778 
L 258.272504 210.322877 
L 258.400992 210.322877 
L 258.400992 206.672976 
L 258.529161 206.672976 
L 258.529161 203.023075 
L 258.657013 203.023075 
L 258.657013 199.373175 
L 258.911773 199.373175 
L 258.911773 195.723274 
L 259.668608 195.723274 
L 259.668608 192.073373 
L 259.793678 192.073373 
L 259.793678 188.423472 
L 259.918445 188.423472 
L 259.918445 184.773571 
L 260.290952 184.773571 
L 260.290952 181.12367 
L 261.149841 181.12367 
L 261.149841 173.823868 
L 261.513614 173.823868 
L 261.513614 170.173967 
L 261.994698 170.173967 
L 261.994698 166.524066 
L 262.825975 166.524066 
L 262.825975 162.874165 
L 263.178186 162.874165 
L 263.178186 159.224264 
L 264.335196 159.224264 
L 264.335196 155.574363 
L 265.578704 155.574363 
L 265.578704 151.924462 
L 265.912717 151.924462 
L 265.912717 148.274561 
L 266.1342 148.274561 
L 266.1342 144.62466 
L 267.010767 144.62466 
L 267.010767 140.974759 
L 267.658577 140.974759 
L 267.658577 137.324858 
L 267.872723 137.324858 
L 267.872723 133.674957 
L 279.327301 133.674957 
L 279.327301 130.025056 
L 283.282055 130.025056 
L 283.282055 75.276541 
L 325.955325 75.276541 
L 325.955325 71.62664 
L 343.376238 71.62664 
L 343.376238 67.976739 
L 399.383591 67.976739 
L 399.383591 64.326838 
L 432.6825 64.326838 
L 432.6825 64.326838 
" style="fill:none;stroke:#f5deb3;stroke-linecap:square;"/>
   </g>
   <g id="line2d_22"/>
   <g id="line2d_23">
    <path clip-path="url(#p101aee3d5c)" d="M 291.480269 290.620699 
L 291.480269 286.970798 
L 294.631468 286.970798 
L 294.631468 283.320897 
L 295.264476 283.320897 
L 295.264476 279.670996 
L 296.261446 279.670996 
L 296.261446 276.021095 
L 307.974086 276.021095 
L 307.974086 272.371194 
L 309.285887 272.371194 
L 309.285887 268.721293 
L 309.572934 268.721293 
L 309.572934 265.071392 
L 313.255355 265.071392 
L 313.255355 261.421491 
L 320.305283 261.421491 
L 320.305283 257.77159 
L 325.079056 257.77159 
L 325.079056 254.121689 
L 326.163439 254.121689 
L 326.163439 250.471788 
L 331.174271 250.471788 
L 331.174271 246.821887 
L 331.984789 246.821887 
L 331.984789 243.171986 
L 335.250897 243.171986 
L 335.250897 239.522085 
L 405.569085 239.522085 
L 405.569085 235.872184 
L 432.6825 235.872184 
L 432.6825 235.872184 
" style="fill:none;stroke:#f5deb3;stroke-linecap:square;"/>
   </g>
   <g id="line2d_24">
    <path clip-path="url(#p101aee3d5c)" d="M 373.439597 290.620699 
L 373.439597 286.970798 
L 379.421302 286.970798 
L 379.421302 283.320897 
L 379.421302 283.320897 
L 379.421302 279.670996 
L 379.544759 279.670996 
L 379.544759 276.021095 
L 382.095003 276.021095 
L 382.095003 272.371194 
L 394.625637 272.371194 
L 394.625637 268.721293 
L 400.316189 268.721293 
L 400.316189 265.071392 
L 404.201792 265.071392 
L 404.201792 261.421491 
L 405.762556 261.421491 
L 405.762556 257.77159 
L 406.073565 257.77159 
L 406.073565 254.121689 
L 412.767533 254.121689 
L 412.767533 250.471788 
L 415.212568 250.471788 
L 415.212568 246.821887 
L 418.450006 246.821887 
L 418.450006 243.171986 
L 428.337978 243.171986 
L 428.337978 239.522085 
L 432.6825 239.522085 
" style="fill:none;stroke:#f5deb3;stroke-linecap:square;"/>
   </g>
   <g id="line2d_25">
    <path clip-path="url(#p101aee3d5c)" d="M 228.94393 290.620699 
L 228.94393 286.970798 
L 239.568705 286.970798 
L 239.568705 283.320897 
L 240.48406 283.320897 
L 240.48406 279.670996 
L 241.204854 279.670996 
L 241.204854 276.021095 
L 241.383494 276.021095 
L 241.383494 272.371194 
L 241.915741 272.371194 
L 241.915741 268.721293 
L 242.790824 268.721293 
L 242.790824 261.421491 
L 243.136752 261.421491 
L 243.136752 257.77159 
L 247.751445 257.77159 
L 247.751445 254.121689 
L 249.3046 254.121689 
L 249.3046 250.471788 
L 250.663643 250.471788 
L 250.663643 246.821887 
L 251.987885 246.821887 
L 251.987885 243.171986 
L 259.291575 243.171986 
L 259.291575 235.872184 
L 333.718454 235.872184 
L 333.718454 232.222283 
L 336.456323 232.222283 
L 336.456323 228.572382 
L 338.704603 228.572382 
L 338.704603 224.922481 
L 341.041254 224.922481 
L 341.041254 221.27258 
L 341.711897 221.27258 
L 341.711897 217.622679 
L 344.964622 217.622679 
L 344.964622 213.972778 
L 346.295015 213.972778 
L 346.295015 210.322877 
L 348.431496 210.322877 
L 348.431496 203.023075 
L 354.457729 203.023075 
L 354.517782 195.723274 
L 355.802109 195.723274 
L 355.802109 192.073373 
L 356.442144 192.073373 
L 356.442144 188.423472 
L 357.736544 188.423472 
L 357.736544 184.773571 
L 357.849215 184.773571 
L 357.849215 181.12367 
L 358.055144 181.12367 
L 358.055144 177.473769 
L 358.204397 177.473769 
L 358.204397 173.823868 
L 358.446019 173.823868 
L 358.446019 170.173967 
L 358.575656 170.173967 
L 358.575656 166.524066 
L 358.907526 166.524066 
L 358.925901 159.224264 
L 359.69181 159.224264 
L 359.69181 155.574363 
L 360.196187 155.574363 
L 360.196187 148.274561 
L 360.677935 148.274561 
L 360.677935 144.62466 
L 361.941079 144.62466 
L 361.941079 140.974759 
L 362.234872 140.974759 
L 362.234872 137.324858 
L 362.406916 137.324858 
L 362.406916 133.674957 
L 362.646819 133.674957 
L 362.646819 130.025056 
L 363.846627 130.025056 
L 363.846627 126.375155 
L 411.672796 126.375155 
L 411.672796 122.725254 
L 414.439647 122.725254 
L 414.439647 119.075353 
L 416.616327 119.075353 
L 416.616327 115.425452 
L 427.671287 115.425452 
L 427.671287 111.775551 
L 432.6825 111.775551 
L 432.6825 111.775551 
" style="fill:none;stroke:#f5deb3;stroke-linecap:square;"/>
   </g>
   <g id="line2d_26">
    <path clip-path="url(#p101aee3d5c)" d="M 409.96886 290.620699 
L 409.96886 286.970798 
L 410.126105 286.970798 
L 410.126105 283.320897 
L 410.594988 283.320897 
L 410.594988 279.670996 
L 411.052955 279.670996 
L 411.052955 276.021095 
L 411.093169 276.021095 
L 411.093169 272.371194 
L 411.460355 272.371194 
L 411.460355 268.721293 
L 411.851368 268.721293 
L 411.851368 265.071392 
L 413.097286 265.071392 
L 413.097286 261.421491 
L 413.795083 261.421491 
L 413.795083 257.77159 
L 414.439647 257.77159 
L 414.439647 254.121689 
L 414.933406 254.121689 
L 414.933406 250.471788 
L 417.012207 250.471788 
L 417.012207 246.821887 
L 417.677147 246.821887 
L 417.677147 243.171986 
L 418.924364 243.171986 
L 418.924364 239.522085 
L 432.6825 239.522085 
" style="fill:none;stroke:#f5deb3;stroke-linecap:square;"/>
   </g>
   <g id="line2d_27">
    <path clip-path="url(#p101aee3d5c)" d="M 256.572452 290.620699 
L 256.572452 286.970798 
L 256.705228 286.970798 
L 256.705228 283.320897 
L 256.837663 283.320897 
L 256.837663 279.670996 
L 256.969761 279.670996 
L 256.969761 276.021095 
L 261.994698 276.021095 
L 261.994698 261.421491 
L 262.114273 261.421491 
L 262.114273 257.77159 
L 266.902005 257.77159 
L 266.902005 250.471788 
L 267.227606 250.471788 
L 267.227606 246.821887 
L 271.880548 246.821887 
L 271.880548 243.171986 
L 275.599995 243.171986 
L 275.599995 239.522085 
L 283.202675 239.522085 
L 283.202675 235.872184 
L 394.588776 235.872184 
L 394.588776 232.222283 
L 395.375557 232.222283 
L 395.475334 224.922481 
L 396.34695 224.922481 
L 396.435978 217.622679 
L 396.719841 217.622679 
L 396.719841 213.972778 
L 397.177821 213.972778 
L 397.247921 206.672976 
L 398.502284 206.672976 
L 398.502284 203.023075 
L 400.915114 203.023075 
L 400.915114 199.373175 
L 404.010066 199.373175 
L 404.010066 195.723274 
L 404.194136 195.723274 
L 404.194136 192.073373 
L 404.369925 192.073373 
L 404.400436 184.773571 
L 404.499473 184.773571 
L 404.499473 181.12367 
L 404.833273 181.12367 
L 404.833273 177.473769 
L 405.352433 177.473769 
L 405.352433 173.823868 
L 405.9775 173.823868 
L 405.9775 170.173967 
L 406.507323 170.173967 
L 406.507323 166.524066 
L 406.828452 166.524066 
L 406.828452 162.874165 
L 407.558132 162.874165 
L 407.558132 159.224264 
L 408.889527 159.224264 
L 408.889527 155.574363 
L 409.105811 155.574363 
L 409.175388 148.274561 
L 409.804268 148.274561 
L 409.804268 144.62466 
L 415.125879 144.62466 
L 415.125879 140.974759 
L 417.988851 140.974759 
L 417.988851 137.324858 
L 424.067107 137.324858 
L 424.067107 133.674957 
L 432.6825 133.674957 
L 432.6825 133.674957 
" style="fill:none;stroke:#f5deb3;stroke-linecap:square;"/>
   </g>
   <g id="line2d_28">
    <path clip-path="url(#p101aee3d5c)" d="M 262.943645 290.620699 
L 262.943645 286.970798 
L 264.563523 286.970798 
L 264.563523 283.320897 
L 271.682401 283.320897 
L 271.682401 276.021095 
L 275.507891 276.021095 
L 275.507891 272.371194 
L 281.506911 272.371194 
L 281.506911 268.721293 
L 285.608512 268.721293 
L 285.608512 265.071392 
L 426.016189 265.071392 
L 426.016189 261.421491 
L 426.141549 261.421491 
L 426.141549 257.77159 
L 426.326527 257.77159 
L 426.326527 254.121689 
L 426.52079 254.121689 
L 426.535703 246.821887 
L 427.222003 246.821887 
L 427.222003 243.171986 
L 427.797554 243.171986 
L 427.797554 239.522085 
L 432.6825 239.522085 
L 432.6825 239.522085 
" style="fill:none;stroke:#f5deb3;stroke-linecap:square;"/>
   </g>
   <g id="line2d_29">
    <path clip-path="url(#p101aee3d5c)" d="M 138.933683 290.620699 
L 138.933683 286.970798 
L 138.933683 286.970798 
L 138.933683 283.320897 
L 138.933683 283.320897 
L 138.933683 279.670996 
L 138.933683 279.670996 
L 138.933683 276.021095 
L 138.933683 276.021095 
L 138.933683 272.371194 
L 138.933683 272.371194 
L 138.933683 268.721293 
L 140.210691 268.721293 
L 140.210691 265.071392 
L 140.210691 265.071392 
L 140.210691 261.421491 
L 140.210691 261.421491 
L 140.210691 257.77159 
L 140.210691 257.77159 
L 140.210691 254.121689 
L 140.210691 254.121689 
L 140.210691 250.471788 
L 140.210691 250.471788 
L 140.210691 246.821887 
L 140.210691 246.821887 
L 140.210691 243.171986 
L 140.210691 243.171986 
L 140.210691 239.522085 
L 140.210691 239.522085 
L 140.210691 235.872184 
L 164.831864 235.872184 
L 164.831864 232.222283 
L 164.831864 232.222283 
L 164.831864 228.572382 
L 164.831864 228.572382 
L 164.831864 224.922481 
L 251.256385 224.922481 
L 251.256385 221.27258 
L 251.256385 221.27258 
L 251.256385 217.622679 
L 251.256385 217.622679 
L 251.256385 213.972778 
L 251.987885 213.972778 
L 251.987885 210.322877 
L 251.987885 210.322877 
L 251.987885 206.672976 
L 251.987885 206.672976 
L 251.987885 203.023075 
L 252.565725 203.023075 
L 252.565725 199.373175 
L 252.565725 199.373175 
L 252.565725 195.723274 
L 252.565725 195.723274 
L 252.565725 192.073373 
L 252.852242 192.073373 
L 252.852242 188.423472 
L 252.852242 188.423472 
L 252.852242 184.773571 
L 252.852242 184.773571 
L 252.852242 181.12367 
L 280.929071 181.12367 
L 280.929071 177.473769 
L 280.929071 177.473769 
L 280.929071 173.823868 
L 280.929071 173.823868 
L 280.929071 170.173967 
L 282.803936 170.173967 
L 282.803936 166.524066 
L 282.803936 166.524066 
L 282.803936 162.874165 
L 282.803936 162.874165 
L 282.803936 159.224264 
L 295.264476 159.224264 
L 295.264476 155.574363 
L 295.264476 155.574363 
L 295.264476 151.924462 
L 295.264476 151.924462 
L 295.264476 148.274561 
L 338.623053 148.274561 
L 338.623053 144.62466 
L 338.623053 144.62466 
L 338.623053 140.974759 
L 338.623053 140.974759 
L 338.623053 137.324858 
L 406.206284 137.324858 
L 406.206284 133.674957 
L 406.206284 133.674957 
L 406.206284 130.025056 
L 406.206284 130.025056 
L 406.206284 126.375155 
L 432.6825 126.375155 
" style="fill:none;stroke:#f5deb3;stroke-linecap:square;"/>
   </g>
   <g id="line2d_30">
    <path clip-path="url(#p101aee3d5c)" d="M -1 283.320897 
L 4.974984 283.320897 
L 4.974984 279.670996 
L 19.852799 279.670996 
L 19.852799 276.021095 
L 40.821902 276.021095 
L 40.821902 272.371194 
L 61.791005 272.371194 
L 61.791005 268.721293 
L 80.808322 268.721293 
L 80.808322 265.071392 
L 108.015843 265.071392 
L 108.015843 261.421491 
L 116.65524 261.421491 
L 116.65524 257.77159 
L 136.280991 257.77159 
L 136.280991 254.121689 
L 140.210691 254.121689 
L 140.210691 250.471788 
L 143.862761 250.471788 
L 143.862761 246.821887 
L 145.024971 246.821887 
L 145.024971 243.171986 
L 150.473813 243.171986 
L 150.473813 239.522085 
L 151.497929 239.522085 
L 151.497929 235.872184 
L 153.487258 235.872184 
L 153.487258 232.222283 
L 155.402891 232.222283 
L 155.402891 228.572382 
L 168.608444 228.572382 
L 168.608444 224.922481 
L 172.127909 224.922481 
L 172.127909 221.27258 
L 174.780601 221.27258 
L 174.780601 217.622679 
L 176.057609 217.622679 
L 176.057609 213.972778 
L 186.320731 213.972778 
L 186.320731 210.322877 
L 187.8494 210.322877 
L 187.8494 206.672976 
L 188.349077 206.672976 
L 188.349077 203.023075 
L 190.777512 203.023075 
L 190.777512 199.373175 
L 193.996446 199.373175 
L 193.996446 195.723274 
L 194.440364 195.723274 
L 194.440364 192.073373 
L 202.601538 192.073373 
L 202.601538 188.423472 
L 203.721787 188.423472 
L 203.721787 184.773571 
L 203.721787 184.773571 
L 203.721787 181.12367 
L 204.455362 181.12367 
L 204.455362 177.473769 
L 205.178677 177.473769 
L 205.178677 173.823868 
L 206.595647 173.823868 
L 206.595647 170.173967 
L 209.318179 170.173967 
L 209.318179 166.524066 
L 212.218912 166.524066 
L 212.218912 162.874165 
L 212.531397 162.874165 
L 212.531397 159.224264 
L 221.38603 159.224264 
L 221.38603 155.574363 
L 223.696318 155.574363 
L 223.696318 151.924462 
L 231.380688 151.924462 
L 231.380688 148.274561 
L 250.214585 148.274561 
L 250.214585 144.62466 
L 262.352597 144.62466 
L 262.352597 140.974759 
L 291.682946 140.974759 
L 291.682946 137.324858 
L 294.119422 137.324858 
L 294.119422 133.674957 
L 299.200314 133.674957 
L 299.200314 130.025056 
L 310.565234 130.025056 
L 310.565234 126.375155 
L 310.565234 126.375155 
L 310.565234 126.375155 
L 424.4825 126.375155 
" style="fill:none;stroke:#000000;stroke-linecap:square;"/>
   </g>
   <g id="line2d_31"/>
   <g id="line2d_32">
    <path clip-path="url(#p101aee3d5c)" d="M 19.852799 290.620699 
L 19.852799 286.970798 
L 151.497929 286.970798 
L 151.497929 283.320897 
L 159.033586 283.320897 
L 159.033586 279.670996 
L 168.608444 279.670996 
L 168.608444 276.021095 
L 172.127909 276.021095 
L 172.127909 272.371194 
L 190.777512 272.371194 
L 190.777512 268.721293 
L 208.985598 268.721293 
L 208.985598 265.071392 
L 210.62752 265.071392 
L 210.62752 261.421491 
L 211.904527 261.421491 
L 211.904527 257.77159 
L 217.855472 257.77159 
L 217.855472 254.121689 
L 222.16765 254.121689 
L 222.16765 250.471788 
L 240.48406 250.471788 
L 240.48406 246.821887 
L 270.375606 246.821887 
L 270.375606 243.171986 
L 276.602454 243.171986 
L 276.602454 239.522085 
L 281.752594 239.522085 
L 281.752594 235.872184 
L 281.752594 235.872184 
L 281.752594 235.872184 
L 424.4825 235.872184 
" style="fill:none;stroke:#00bfbf;stroke-linecap:square;"/>
   </g>
   <g id="line2d_33"/>
   <g id="line2d_34"/>
   <g id="line2d_35"/>
   <g id="line2d_36">
    <path clip-path="url(#p101aee3d5c)" d="M 315.259771 290.620699 
L 315.259771 14.140699 
" style="fill:none;stroke:#000000;stroke-linecap:square;"/>
   </g>
   <g id="patch_3">
    <path d="M 67.3625 14.140699 
L 424.4825 14.140699 
" style="fill:none;stroke:#000000;stroke-linecap:square;stroke-linejoin:miter;"/>
   </g>
   <g id="patch_4">
    <path d="M 424.4825 290.620699 
L 424.4825 14.140699 
" style="fill:none;stroke:#000000;stroke-linecap:square;stroke-linejoin:miter;"/>
   </g>
   <g id="patch_5">
    <path d="M 67.3625 290.620699 
L 424.4825 290.620699 
" style="fill:none;stroke:#000000;stroke-linecap:square;stroke-linejoin:miter;"/>
   </g>
   <g id="patch_6">
    <path d="M 67.3625 290.620699 
L 67.3625 14.140699 
" style="fill:none;stroke:#000000;stroke-linecap:square;stroke-linejoin:miter;"/>
   </g>
   <g id="matplotlib.axis_1">
    <g id="xtick_1">
     <g id="line2d_37">
      <path clip-path="url(#p101aee3d5c)" d="M 103.086765 290.620699 
L 103.086765 14.140699 
" style="fill:none;stroke:#000000;stroke-dasharray:1.000000,3.000000;stroke-dashoffset:0.0;stroke-width:0.5;"/>
     </g>
     <g id="line2d_38">
      <defs>
       <path d="M 0 0 
L 0 -4 
" id="m1b713f1760" style="stroke:#000000;stroke-width:0.5;"/>
      </defs>
      <g>
       <use style="stroke:#000000;stroke-width:0.5;" x="103.086765279" xlink:href="#m1b713f1760" y="290.620699257"/>
      </g>
     </g>
     <g id="line2d_39">
      <defs>
       <path d="M 0 0 
L 0 4 
" id="m0c1aa5654f" style="stroke:#000000;stroke-width:0.5;"/>
      </defs>
      <g>
       <use style="stroke:#000000;stroke-width:0.5;" x="103.086765279" xlink:href="#m0c1aa5654f" y="14.1406992574"/>
      </g>
     </g>
     <g id="text_1">
      <!-- 0 -->
      <defs>
       <path d="M 31.78125 66.40625 
Q 24.171875 66.40625 20.328125 58.90625 
Q 16.5 51.421875 16.5 36.375 
Q 16.5 21.390625 20.328125 13.890625 
Q 24.171875 6.390625 31.78125 6.390625 
Q 39.453125 6.390625 43.28125 13.890625 
Q 47.125 21.390625 47.125 36.375 
Q 47.125 51.421875 43.28125 58.90625 
Q 39.453125 66.40625 31.78125 66.40625 
M 31.78125 74.21875 
Q 44.046875 74.21875 50.515625 64.515625 
Q 56.984375 54.828125 56.984375 36.375 
Q 56.984375 17.96875 50.515625 8.265625 
Q 44.046875 -1.421875 31.78125 -1.421875 
Q 19.53125 -1.421875 13.0625 8.265625 
Q 6.59375 17.96875 6.59375 36.375 
Q 6.59375 54.828125 13.0625 64.515625 
Q 19.53125 74.21875 31.78125 74.21875 
" id="BitstreamVeraSans-Roman-30"/>
      </defs>
      <g transform="translate(96.7242652794 309.817574257)scale(0.2 -0.2)">
       <use xlink:href="#BitstreamVeraSans-Roman-30"/>
      </g>
     </g>
    </g>
    <g id="xtick_2">
     <g id="line2d_40">
      <path clip-path="url(#p101aee3d5c)" d="M 222.16765 290.620699 
L 222.16765 14.140699 
" style="fill:none;stroke:#000000;stroke-dasharray:1.000000,3.000000;stroke-dashoffset:0.0;stroke-width:0.5;"/>
     </g>
     <g id="line2d_41">
      <g>
       <use style="stroke:#000000;stroke-width:0.5;" x="222.167649544" xlink:href="#m1b713f1760" y="290.620699257"/>
      </g>
     </g>
     <g id="line2d_42">
      <g>
       <use style="stroke:#000000;stroke-width:0.5;" x="222.167649544" xlink:href="#m0c1aa5654f" y="14.1406992574"/>
      </g>
     </g>
     <g id="text_2">
      <!-- 1 -->
      <defs>
       <path d="M 12.40625 8.296875 
L 28.515625 8.296875 
L 28.515625 63.921875 
L 10.984375 60.40625 
L 10.984375 69.390625 
L 28.421875 72.90625 
L 38.28125 72.90625 
L 38.28125 8.296875 
L 54.390625 8.296875 
L 54.390625 0 
L 12.40625 0 
z
" id="BitstreamVeraSans-Roman-31"/>
      </defs>
      <g transform="translate(215.805149544 309.817574257)scale(0.2 -0.2)">
       <use xlink:href="#BitstreamVeraSans-Roman-31"/>
      </g>
     </g>
    </g>
    <g id="xtick_3">
     <g id="line2d_43">
      <path clip-path="url(#p101aee3d5c)" d="M 341.248534 290.620699 
L 341.248534 14.140699 
" style="fill:none;stroke:#000000;stroke-dasharray:1.000000,3.000000;stroke-dashoffset:0.0;stroke-width:0.5;"/>
     </g>
     <g id="line2d_44">
      <g>
       <use style="stroke:#000000;stroke-width:0.5;" x="341.248533809" xlink:href="#m1b713f1760" y="290.620699257"/>
      </g>
     </g>
     <g id="line2d_45">
      <g>
       <use style="stroke:#000000;stroke-width:0.5;" x="341.248533809" xlink:href="#m0c1aa5654f" y="14.1406992574"/>
      </g>
     </g>
     <g id="text_3">
      <!-- 2 -->
      <defs>
       <path d="M 19.1875 8.296875 
L 53.609375 8.296875 
L 53.609375 0 
L 7.328125 0 
L 7.328125 8.296875 
Q 12.9375 14.109375 22.625 23.890625 
Q 32.328125 33.6875 34.8125 36.53125 
Q 39.546875 41.84375 41.421875 45.53125 
Q 43.3125 49.21875 43.3125 52.78125 
Q 43.3125 58.59375 39.234375 62.25 
Q 35.15625 65.921875 28.609375 65.921875 
Q 23.96875 65.921875 18.8125 64.3125 
Q 13.671875 62.703125 7.8125 59.421875 
L 7.8125 69.390625 
Q 13.765625 71.78125 18.9375 73 
Q 24.125 74.21875 28.421875 74.21875 
Q 39.75 74.21875 46.484375 68.546875 
Q 53.21875 62.890625 53.21875 53.421875 
Q 53.21875 48.921875 51.53125 44.890625 
Q 49.859375 40.875 45.40625 35.40625 
Q 44.1875 33.984375 37.640625 27.21875 
Q 31.109375 20.453125 19.1875 8.296875 
" id="BitstreamVeraSans-Roman-32"/>
      </defs>
      <g transform="translate(334.886033809 309.817574257)scale(0.2 -0.2)">
       <use xlink:href="#BitstreamVeraSans-Roman-32"/>
      </g>
     </g>
    </g>
    <g id="xtick_4">
     <g id="line2d_46">
      <defs>
       <path d="M 0 0 
L 0 -2 
" id="m4c525d90a9" style="stroke:#000000;stroke-width:0.5;"/>
      </defs>
      <g>
       <use style="stroke:#000000;stroke-width:0.5;" x="76.6688200021" xlink:href="#m4c525d90a9" y="290.620699257"/>
      </g>
     </g>
     <g id="line2d_47">
      <defs>
       <path d="M 0 0 
L 0 2 
" id="mb36cb92d1c" style="stroke:#000000;stroke-width:0.5;"/>
      </defs>
      <g>
       <use style="stroke:#000000;stroke-width:0.5;" x="76.6688200021" xlink:href="#mb36cb92d1c" y="14.1406992574"/>
      </g>
     </g>
    </g>
    <g id="xtick_5">
     <g id="line2d_48">
      <g>
       <use style="stroke:#000000;stroke-width:0.5;" x="84.64090291" xlink:href="#m4c525d90a9" y="290.620699257"/>
      </g>
     </g>
     <g id="line2d_49">
      <g>
       <use style="stroke:#000000;stroke-width:0.5;" x="84.64090291" xlink:href="#mb36cb92d1c" y="14.1406992574"/>
      </g>
     </g>
    </g>
    <g id="xtick_6">
     <g id="line2d_50">
      <g>
       <use style="stroke:#000000;stroke-width:0.5;" x="91.5466352363" xlink:href="#m4c525d90a9" y="290.620699257"/>
      </g>
     </g>
     <g id="line2d_51">
      <g>
       <use style="stroke:#000000;stroke-width:0.5;" x="91.5466352363" xlink:href="#mb36cb92d1c" y="14.1406992574"/>
      </g>
     </g>
    </g>
    <g id="xtick_7">
     <g id="line2d_52">
      <g>
       <use style="stroke:#000000;stroke-width:0.5;" x="97.6379228417" xlink:href="#m4c525d90a9" y="290.620699257"/>
      </g>
     </g>
     <g id="line2d_53">
      <g>
       <use style="stroke:#000000;stroke-width:0.5;" x="97.6379228417" xlink:href="#mb36cb92d1c" y="14.1406992574"/>
      </g>
     </g>
    </g>
    <g id="xtick_8">
     <g id="line2d_54">
      <g>
       <use style="stroke:#000000;stroke-width:0.5;" x="138.933683353" xlink:href="#m4c525d90a9" y="290.620699257"/>
      </g>
     </g>
     <g id="line2d_55">
      <g>
       <use style="stroke:#000000;stroke-width:0.5;" x="138.933683353" xlink:href="#mb36cb92d1c" y="14.1406992574"/>
      </g>
     </g>
    </g>
    <g id="xtick_9">
     <g id="line2d_56">
      <g>
       <use style="stroke:#000000;stroke-width:0.5;" x="159.902786193" xlink:href="#m4c525d90a9" y="290.620699257"/>
      </g>
     </g>
     <g id="line2d_57">
      <g>
       <use style="stroke:#000000;stroke-width:0.5;" x="159.902786193" xlink:href="#mb36cb92d1c" y="14.1406992574"/>
      </g>
     </g>
    </g>
    <g id="xtick_10">
     <g id="line2d_58">
      <g>
       <use style="stroke:#000000;stroke-width:0.5;" x="174.780601427" xlink:href="#m4c525d90a9" y="290.620699257"/>
      </g>
     </g>
     <g id="line2d_59">
      <g>
       <use style="stroke:#000000;stroke-width:0.5;" x="174.780601427" xlink:href="#mb36cb92d1c" y="14.1406992574"/>
      </g>
     </g>
    </g>
    <g id="xtick_11">
     <g id="line2d_60">
      <g>
       <use style="stroke:#000000;stroke-width:0.5;" x="186.32073147" xlink:href="#m4c525d90a9" y="290.620699257"/>
      </g>
     </g>
     <g id="line2d_61">
      <g>
       <use style="stroke:#000000;stroke-width:0.5;" x="186.32073147" xlink:href="#mb36cb92d1c" y="14.1406992574"/>
      </g>
     </g>
    </g>
    <g id="xtick_12">
     <g id="line2d_62">
      <g>
       <use style="stroke:#000000;stroke-width:0.5;" x="195.749704267" xlink:href="#m4c525d90a9" y="290.620699257"/>
      </g>
     </g>
     <g id="line2d_63">
      <g>
       <use style="stroke:#000000;stroke-width:0.5;" x="195.749704267" xlink:href="#mb36cb92d1c" y="14.1406992574"/>
      </g>
     </g>
    </g>
    <g id="xtick_13">
     <g id="line2d_64">
      <g>
       <use style="stroke:#000000;stroke-width:0.5;" x="203.721787175" xlink:href="#m4c525d90a9" y="290.620699257"/>
      </g>
     </g>
     <g id="line2d_65">
      <g>
       <use style="stroke:#000000;stroke-width:0.5;" x="203.721787175" xlink:href="#mb36cb92d1c" y="14.1406992574"/>
      </g>
     </g>
    </g>
    <g id="xtick_14">
     <g id="line2d_66">
      <g>
       <use style="stroke:#000000;stroke-width:0.5;" x="210.627519501" xlink:href="#m4c525d90a9" y="290.620699257"/>
      </g>
     </g>
     <g id="line2d_67">
      <g>
       <use style="stroke:#000000;stroke-width:0.5;" x="210.627519501" xlink:href="#mb36cb92d1c" y="14.1406992574"/>
      </g>
     </g>
    </g>
    <g id="xtick_15">
     <g id="line2d_68">
      <g>
       <use style="stroke:#000000;stroke-width:0.5;" x="216.718807107" xlink:href="#m4c525d90a9" y="290.620699257"/>
      </g>
     </g>
     <g id="line2d_69">
      <g>
       <use style="stroke:#000000;stroke-width:0.5;" x="216.718807107" xlink:href="#mb36cb92d1c" y="14.1406992574"/>
      </g>
     </g>
    </g>
    <g id="xtick_16">
     <g id="line2d_70">
      <g>
       <use style="stroke:#000000;stroke-width:0.5;" x="258.014567618" xlink:href="#m4c525d90a9" y="290.620699257"/>
      </g>
     </g>
     <g id="line2d_71">
      <g>
       <use style="stroke:#000000;stroke-width:0.5;" x="258.014567618" xlink:href="#mb36cb92d1c" y="14.1406992574"/>
      </g>
     </g>
    </g>
    <g id="xtick_17">
     <g id="line2d_72">
      <g>
       <use style="stroke:#000000;stroke-width:0.5;" x="278.983670458" xlink:href="#m4c525d90a9" y="290.620699257"/>
      </g>
     </g>
     <g id="line2d_73">
      <g>
       <use style="stroke:#000000;stroke-width:0.5;" x="278.983670458" xlink:href="#mb36cb92d1c" y="14.1406992574"/>
      </g>
     </g>
    </g>
    <g id="xtick_18">
     <g id="line2d_74">
      <g>
       <use style="stroke:#000000;stroke-width:0.5;" x="293.861485692" xlink:href="#m4c525d90a9" y="290.620699257"/>
      </g>
     </g>
     <g id="line2d_75">
      <g>
       <use style="stroke:#000000;stroke-width:0.5;" x="293.861485692" xlink:href="#mb36cb92d1c" y="14.1406992574"/>
      </g>
     </g>
    </g>
    <g id="xtick_19">
     <g id="line2d_76">
      <g>
       <use style="stroke:#000000;stroke-width:0.5;" x="305.401615735" xlink:href="#m4c525d90a9" y="290.620699257"/>
      </g>
     </g>
     <g id="line2d_77">
      <g>
       <use style="stroke:#000000;stroke-width:0.5;" x="305.401615735" xlink:href="#mb36cb92d1c" y="14.1406992574"/>
      </g>
     </g>
    </g>
    <g id="xtick_20">
     <g id="line2d_78">
      <g>
       <use style="stroke:#000000;stroke-width:0.5;" x="314.830588532" xlink:href="#m4c525d90a9" y="290.620699257"/>
      </g>
     </g>
     <g id="line2d_79">
      <g>
       <use style="stroke:#000000;stroke-width:0.5;" x="314.830588532" xlink:href="#mb36cb92d1c" y="14.1406992574"/>
      </g>
     </g>
    </g>
    <g id="xtick_21">
     <g id="line2d_80">
      <g>
       <use style="stroke:#000000;stroke-width:0.5;" x="322.80267144" xlink:href="#m4c525d90a9" y="290.620699257"/>
      </g>
     </g>
     <g id="line2d_81">
      <g>
       <use style="stroke:#000000;stroke-width:0.5;" x="322.80267144" xlink:href="#mb36cb92d1c" y="14.1406992574"/>
      </g>
     </g>
    </g>
    <g id="xtick_22">
     <g id="line2d_82">
      <g>
       <use style="stroke:#000000;stroke-width:0.5;" x="329.708403766" xlink:href="#m4c525d90a9" y="290.620699257"/>
      </g>
     </g>
     <g id="line2d_83">
      <g>
       <use style="stroke:#000000;stroke-width:0.5;" x="329.708403766" xlink:href="#mb36cb92d1c" y="14.1406992574"/>
      </g>
     </g>
    </g>
    <g id="xtick_23">
     <g id="line2d_84">
      <g>
       <use style="stroke:#000000;stroke-width:0.5;" x="335.799691371" xlink:href="#m4c525d90a9" y="290.620699257"/>
      </g>
     </g>
     <g id="line2d_85">
      <g>
       <use style="stroke:#000000;stroke-width:0.5;" x="335.799691371" xlink:href="#mb36cb92d1c" y="14.1406992574"/>
      </g>
     </g>
    </g>
    <g id="xtick_24">
     <g id="line2d_86">
      <g>
       <use style="stroke:#000000;stroke-width:0.5;" x="377.095451883" xlink:href="#m4c525d90a9" y="290.620699257"/>
      </g>
     </g>
     <g id="line2d_87">
      <g>
       <use style="stroke:#000000;stroke-width:0.5;" x="377.095451883" xlink:href="#mb36cb92d1c" y="14.1406992574"/>
      </g>
     </g>
    </g>
    <g id="xtick_25">
     <g id="line2d_88">
      <g>
       <use style="stroke:#000000;stroke-width:0.5;" x="398.064554723" xlink:href="#m4c525d90a9" y="290.620699257"/>
      </g>
     </g>
     <g id="line2d_89">
      <g>
       <use style="stroke:#000000;stroke-width:0.5;" x="398.064554723" xlink:href="#mb36cb92d1c" y="14.1406992574"/>
      </g>
     </g>
    </g>
    <g id="xtick_26">
     <g id="line2d_90">
      <g>
       <use style="stroke:#000000;stroke-width:0.5;" x="412.942369957" xlink:href="#m4c525d90a9" y="290.620699257"/>
      </g>
     </g>
     <g id="line2d_91">
      <g>
       <use style="stroke:#000000;stroke-width:0.5;" x="412.942369957" xlink:href="#mb36cb92d1c" y="14.1406992574"/>
      </g>
     </g>
    </g>
    <g id="xtick_27">
     <g id="line2d_92">
      <g>
       <use style="stroke:#000000;stroke-width:0.5;" x="424.4825" xlink:href="#m4c525d90a9" y="290.620699257"/>
      </g>
     </g>
     <g id="line2d_93">
      <g>
       <use style="stroke:#000000;stroke-width:0.5;" x="424.4825" xlink:href="#mb36cb92d1c" y="14.1406992574"/>
      </g>
     </g>
    </g>
    <g id="text_4">
     <!-- log10 of FEvals / DIM -->
     <defs>
      <path id="BitstreamVeraSans-Roman-20"/>
      <path d="M 9.8125 72.90625 
L 24.515625 72.90625 
L 43.109375 23.296875 
L 61.8125 72.90625 
L 76.515625 72.90625 
L 76.515625 0 
L 66.890625 0 
L 66.890625 64.015625 
L 48.09375 14.015625 
L 38.1875 14.015625 
L 19.390625 64.015625 
L 19.390625 0 
L 9.8125 0 
z
" id="BitstreamVeraSans-Roman-4d"/>
      <path d="M 30.609375 48.390625 
Q 23.390625 48.390625 19.1875 42.75 
Q 14.984375 37.109375 14.984375 27.296875 
Q 14.984375 17.484375 19.15625 11.84375 
Q 23.34375 6.203125 30.609375 6.203125 
Q 37.796875 6.203125 41.984375 11.859375 
Q 46.1875 17.53125 46.1875 27.296875 
Q 46.1875 37.015625 41.984375 42.703125 
Q 37.796875 48.390625 30.609375 48.390625 
M 30.609375 56 
Q 42.328125 56 49.015625 48.375 
Q 55.71875 40.765625 55.71875 27.296875 
Q 55.71875 13.875 49.015625 6.21875 
Q 42.328125 -1.421875 30.609375 -1.421875 
Q 18.84375 -1.421875 12.171875 6.21875 
Q 5.515625 13.875 5.515625 27.296875 
Q 5.515625 40.765625 12.171875 48.375 
Q 18.84375 56 30.609375 56 
" id="BitstreamVeraSans-Roman-6f"/>
      <path d="M 9.421875 75.984375 
L 18.40625 75.984375 
L 18.40625 0 
L 9.421875 0 
z
" id="BitstreamVeraSans-Roman-6c"/>
      <path d="M 9.8125 72.90625 
L 51.703125 72.90625 
L 51.703125 64.59375 
L 19.671875 64.59375 
L 19.671875 43.109375 
L 48.578125 43.109375 
L 48.578125 34.8125 
L 19.671875 34.8125 
L 19.671875 0 
L 9.8125 0 
z
" id="BitstreamVeraSans-Roman-46"/>
      <path d="M 9.8125 72.90625 
L 55.90625 72.90625 
L 55.90625 64.59375 
L 19.671875 64.59375 
L 19.671875 43.015625 
L 54.390625 43.015625 
L 54.390625 34.71875 
L 19.671875 34.71875 
L 19.671875 8.296875 
L 56.78125 8.296875 
L 56.78125 0 
L 9.8125 0 
z
" id="BitstreamVeraSans-Roman-45"/>
      <path d="M 19.671875 64.796875 
L 19.671875 8.109375 
L 31.59375 8.109375 
Q 46.6875 8.109375 53.6875 14.9375 
Q 60.6875 21.78125 60.6875 36.53125 
Q 60.6875 51.171875 53.6875 57.984375 
Q 46.6875 64.796875 31.59375 64.796875 
z
M 9.8125 72.90625 
L 30.078125 72.90625 
Q 51.265625 72.90625 61.171875 64.09375 
Q 71.09375 55.28125 71.09375 36.53125 
Q 71.09375 17.671875 61.125 8.828125 
Q 51.171875 0 30.078125 0 
L 9.8125 0 
z
" id="BitstreamVeraSans-Roman-44"/>
      <path d="M 25.390625 72.90625 
L 33.6875 72.90625 
L 8.296875 -9.28125 
L 0 -9.28125 
z
" id="BitstreamVeraSans-Roman-2f"/>
      <path d="M 2.984375 54.6875 
L 12.5 54.6875 
L 29.59375 8.796875 
L 46.6875 54.6875 
L 56.203125 54.6875 
L 35.6875 0 
L 23.484375 0 
z
" id="BitstreamVeraSans-Roman-76"/>
      <path d="M 45.40625 27.984375 
Q 45.40625 37.75 41.375 43.109375 
Q 37.359375 48.484375 30.078125 48.484375 
Q 22.859375 48.484375 18.828125 43.109375 
Q 14.796875 37.75 14.796875 27.984375 
Q 14.796875 18.265625 18.828125 12.890625 
Q 22.859375 7.515625 30.078125 7.515625 
Q 37.359375 7.515625 41.375 12.890625 
Q 45.40625 18.265625 45.40625 27.984375 
M 54.390625 6.78125 
Q 54.390625 -7.171875 48.1875 -13.984375 
Q 42 -20.796875 29.203125 -20.796875 
Q 24.46875 -20.796875 20.265625 -20.09375 
Q 16.0625 -19.390625 12.109375 -17.921875 
L 12.109375 -9.1875 
Q 16.0625 -11.328125 19.921875 -12.34375 
Q 23.78125 -13.375 27.78125 -13.375 
Q 36.625 -13.375 41.015625 -8.765625 
Q 45.40625 -4.15625 45.40625 5.171875 
L 45.40625 9.625 
Q 42.625 4.78125 38.28125 2.390625 
Q 33.9375 0 27.875 0 
Q 17.828125 0 11.671875 7.65625 
Q 5.515625 15.328125 5.515625 27.984375 
Q 5.515625 40.671875 11.671875 48.328125 
Q 17.828125 56 27.875 56 
Q 33.9375 56 38.28125 53.609375 
Q 42.625 51.21875 45.40625 46.390625 
L 45.40625 54.6875 
L 54.390625 54.6875 
z
" id="BitstreamVeraSans-Roman-67"/>
      <path d="M 37.109375 75.984375 
L 37.109375 68.5 
L 28.515625 68.5 
Q 23.6875 68.5 21.796875 66.546875 
Q 19.921875 64.59375 19.921875 59.515625 
L 19.921875 54.6875 
L 34.71875 54.6875 
L 34.71875 47.703125 
L 19.921875 47.703125 
L 19.921875 0 
L 10.890625 0 
L 10.890625 47.703125 
L 2.296875 47.703125 
L 2.296875 54.6875 
L 10.890625 54.6875 
L 10.890625 58.5 
Q 10.890625 67.625 15.140625 71.796875 
Q 19.390625 75.984375 28.609375 75.984375 
z
" id="BitstreamVeraSans-Roman-66"/>
      <path d="M 34.28125 27.484375 
Q 23.390625 27.484375 19.1875 25 
Q 14.984375 22.515625 14.984375 16.5 
Q 14.984375 11.71875 18.140625 8.90625 
Q 21.296875 6.109375 26.703125 6.109375 
Q 34.1875 6.109375 38.703125 11.40625 
Q 43.21875 16.703125 43.21875 25.484375 
L 43.21875 27.484375 
z
M 52.203125 31.203125 
L 52.203125 0 
L 43.21875 0 
L 43.21875 8.296875 
Q 40.140625 3.328125 35.546875 0.953125 
Q 30.953125 -1.421875 24.3125 -1.421875 
Q 15.921875 -1.421875 10.953125 3.296875 
Q 6 8.015625 6 15.921875 
Q 6 25.140625 12.171875 29.828125 
Q 18.359375 34.515625 30.609375 34.515625 
L 43.21875 34.515625 
L 43.21875 35.40625 
Q 43.21875 41.609375 39.140625 45 
Q 35.0625 48.390625 27.6875 48.390625 
Q 23 48.390625 18.546875 47.265625 
Q 14.109375 46.140625 10.015625 43.890625 
L 10.015625 52.203125 
Q 14.9375 54.109375 19.578125 55.046875 
Q 24.21875 56 28.609375 56 
Q 40.484375 56 46.34375 49.84375 
Q 52.203125 43.703125 52.203125 31.203125 
" id="BitstreamVeraSans-Roman-61"/>
      <path d="M 44.28125 53.078125 
L 44.28125 44.578125 
Q 40.484375 46.53125 36.375 47.5 
Q 32.28125 48.484375 27.875 48.484375 
Q 21.1875 48.484375 17.84375 46.4375 
Q 14.5 44.390625 14.5 40.28125 
Q 14.5 37.15625 16.890625 35.375 
Q 19.28125 33.59375 26.515625 31.984375 
L 29.59375 31.296875 
Q 39.15625 29.25 43.1875 25.515625 
Q 47.21875 21.78125 47.21875 15.09375 
Q 47.21875 7.46875 41.1875 3.015625 
Q 35.15625 -1.421875 24.609375 -1.421875 
Q 20.21875 -1.421875 15.453125 -0.5625 
Q 10.6875 0.296875 5.421875 2 
L 5.421875 11.28125 
Q 10.40625 8.6875 15.234375 7.390625 
Q 20.0625 6.109375 24.8125 6.109375 
Q 31.15625 6.109375 34.5625 8.28125 
Q 37.984375 10.453125 37.984375 14.40625 
Q 37.984375 18.0625 35.515625 20.015625 
Q 33.0625 21.96875 24.703125 23.78125 
L 21.578125 24.515625 
Q 13.234375 26.265625 9.515625 29.90625 
Q 5.8125 33.546875 5.8125 39.890625 
Q 5.8125 47.609375 11.28125 51.796875 
Q 16.75 56 26.8125 56 
Q 31.78125 56 36.171875 55.265625 
Q 40.578125 54.546875 44.28125 53.078125 
" id="BitstreamVeraSans-Roman-73"/>
      <path d="M 9.8125 72.90625 
L 19.671875 72.90625 
L 19.671875 0 
L 9.8125 0 
z
" id="BitstreamVeraSans-Roman-49"/>
     </defs>
     <g transform="translate(140.8490625 334.173824257)scale(0.2 -0.2)">
      <use xlink:href="#BitstreamVeraSans-Roman-6c"/>
      <use x="27.783203125" xlink:href="#BitstreamVeraSans-Roman-6f"/>
      <use x="88.96484375" xlink:href="#BitstreamVeraSans-Roman-67"/>
      <use x="152.44140625" xlink:href="#BitstreamVeraSans-Roman-31"/>
      <use x="216.064453125" xlink:href="#BitstreamVeraSans-Roman-30"/>
      <use x="279.6875" xlink:href="#BitstreamVeraSans-Roman-20"/>
      <use x="311.474609375" xlink:href="#BitstreamVeraSans-Roman-6f"/>
      <use x="372.65625" xlink:href="#BitstreamVeraSans-Roman-66"/>
      <use x="407.861328125" xlink:href="#BitstreamVeraSans-Roman-20"/>
      <use x="439.6484375" xlink:href="#BitstreamVeraSans-Roman-46"/>
      <use x="497.16796875" xlink:href="#BitstreamVeraSans-Roman-45"/>
      <use x="560.3515625" xlink:href="#BitstreamVeraSans-Roman-76"/>
      <use x="619.53125" xlink:href="#BitstreamVeraSans-Roman-61"/>
      <use x="680.810546875" xlink:href="#BitstreamVeraSans-Roman-6c"/>
      <use x="708.59375" xlink:href="#BitstreamVeraSans-Roman-73"/>
      <use x="760.693359375" xlink:href="#BitstreamVeraSans-Roman-20"/>
      <use x="792.48046875" xlink:href="#BitstreamVeraSans-Roman-2f"/>
      <use x="826.171875" xlink:href="#BitstreamVeraSans-Roman-20"/>
      <use x="857.958984375" xlink:href="#BitstreamVeraSans-Roman-44"/>
      <use x="934.9609375" xlink:href="#BitstreamVeraSans-Roman-49"/>
      <use x="964.453125" xlink:href="#BitstreamVeraSans-Roman-4d"/>
     </g>
    </g>
   </g>
   <g id="matplotlib.axis_2">
    <g id="ytick_1">
     <g id="line2d_94">
      <path clip-path="url(#p101aee3d5c)" d="M 67.3625 290.620699 
L 424.4825 290.620699 
" style="fill:none;stroke:#000000;stroke-dasharray:1.000000,3.000000;stroke-dashoffset:0.0;stroke-width:0.5;"/>
     </g>
     <g id="line2d_95">
      <defs>
       <path d="M 0 0 
L 4 0 
" id="mf353877ae3" style="stroke:#000000;stroke-width:0.5;"/>
      </defs>
      <g>
       <use style="stroke:#000000;stroke-width:0.5;" x="67.3625" xlink:href="#mf353877ae3" y="290.620699257"/>
      </g>
     </g>
     <g id="line2d_96">
      <defs>
       <path d="M 0 0 
L -4 0 
" id="m8259d3ed9a" style="stroke:#000000;stroke-width:0.5;"/>
      </defs>
      <g>
       <use style="stroke:#000000;stroke-width:0.5;" x="424.4825" xlink:href="#m8259d3ed9a" y="290.620699257"/>
      </g>
     </g>
     <g id="text_5">
      <!-- 0.0 -->
      <defs>
       <path d="M 10.6875 12.40625 
L 21 12.40625 
L 21 0 
L 10.6875 0 
z
" id="BitstreamVeraSans-Roman-2e"/>
      </defs>
      <g transform="translate(31.55625 296.139449257)scale(0.2 -0.2)">
       <use xlink:href="#BitstreamVeraSans-Roman-30"/>
       <use x="63.623046875" xlink:href="#BitstreamVeraSans-Roman-2e"/>
       <use x="95.41015625" xlink:href="#BitstreamVeraSans-Roman-30"/>
      </g>
     </g>
    </g>
    <g id="ytick_2">
     <g id="line2d_97">
      <path clip-path="url(#p101aee3d5c)" d="M 67.3625 235.872184 
L 424.4825 235.872184 
" style="fill:none;stroke:#000000;stroke-dasharray:1.000000,3.000000;stroke-dashoffset:0.0;stroke-width:0.5;"/>
     </g>
     <g id="line2d_98">
      <g>
       <use style="stroke:#000000;stroke-width:0.5;" x="67.3625" xlink:href="#mf353877ae3" y="235.872184406"/>
      </g>
     </g>
     <g id="line2d_99">
      <g>
       <use style="stroke:#000000;stroke-width:0.5;" x="424.4825" xlink:href="#m8259d3ed9a" y="235.872184406"/>
      </g>
     </g>
     <g id="text_6">
      <!-- 0.2 -->
      <g transform="translate(31.55625 241.390934406)scale(0.2 -0.2)">
       <use xlink:href="#BitstreamVeraSans-Roman-30"/>
       <use x="63.623046875" xlink:href="#BitstreamVeraSans-Roman-2e"/>
       <use x="95.41015625" xlink:href="#BitstreamVeraSans-Roman-32"/>
      </g>
     </g>
    </g>
    <g id="ytick_3">
     <g id="line2d_100">
      <path clip-path="url(#p101aee3d5c)" d="M 67.3625 181.12367 
L 424.4825 181.12367 
" style="fill:none;stroke:#000000;stroke-dasharray:1.000000,3.000000;stroke-dashoffset:0.0;stroke-width:0.5;"/>
     </g>
     <g id="line2d_101">
      <g>
       <use style="stroke:#000000;stroke-width:0.5;" x="67.3625" xlink:href="#mf353877ae3" y="181.123669554"/>
      </g>
     </g>
     <g id="line2d_102">
      <g>
       <use style="stroke:#000000;stroke-width:0.5;" x="424.4825" xlink:href="#m8259d3ed9a" y="181.123669554"/>
      </g>
     </g>
     <g id="text_7">
      <!-- 0.4 -->
      <defs>
       <path d="M 37.796875 64.3125 
L 12.890625 25.390625 
L 37.796875 25.390625 
z
M 35.203125 72.90625 
L 47.609375 72.90625 
L 47.609375 25.390625 
L 58.015625 25.390625 
L 58.015625 17.1875 
L 47.609375 17.1875 
L 47.609375 0 
L 37.796875 0 
L 37.796875 17.1875 
L 4.890625 17.1875 
L 4.890625 26.703125 
z
" id="BitstreamVeraSans-Roman-34"/>
      </defs>
      <g transform="translate(31.55625 186.642419554)scale(0.2 -0.2)">
       <use xlink:href="#BitstreamVeraSans-Roman-30"/>
       <use x="63.623046875" xlink:href="#BitstreamVeraSans-Roman-2e"/>
       <use x="95.41015625" xlink:href="#BitstreamVeraSans-Roman-34"/>
      </g>
     </g>
    </g>
    <g id="ytick_4">
     <g id="line2d_103">
      <path clip-path="url(#p101aee3d5c)" d="M 67.3625 126.375155 
L 424.4825 126.375155 
" style="fill:none;stroke:#000000;stroke-dasharray:1.000000,3.000000;stroke-dashoffset:0.0;stroke-width:0.5;"/>
     </g>
     <g id="line2d_104">
      <g>
       <use style="stroke:#000000;stroke-width:0.5;" x="67.3625" xlink:href="#mf353877ae3" y="126.375154703"/>
      </g>
     </g>
     <g id="line2d_105">
      <g>
       <use style="stroke:#000000;stroke-width:0.5;" x="424.4825" xlink:href="#m8259d3ed9a" y="126.375154703"/>
      </g>
     </g>
     <g id="text_8">
      <!-- 0.6 -->
      <defs>
       <path d="M 33.015625 40.375 
Q 26.375 40.375 22.484375 35.828125 
Q 18.609375 31.296875 18.609375 23.390625 
Q 18.609375 15.53125 22.484375 10.953125 
Q 26.375 6.390625 33.015625 6.390625 
Q 39.65625 6.390625 43.53125 10.953125 
Q 47.40625 15.53125 47.40625 23.390625 
Q 47.40625 31.296875 43.53125 35.828125 
Q 39.65625 40.375 33.015625 40.375 
M 52.59375 71.296875 
L 52.59375 62.3125 
Q 48.875 64.0625 45.09375 64.984375 
Q 41.3125 65.921875 37.59375 65.921875 
Q 27.828125 65.921875 22.671875 59.328125 
Q 17.53125 52.734375 16.796875 39.40625 
Q 19.671875 43.65625 24.015625 45.921875 
Q 28.375 48.1875 33.59375 48.1875 
Q 44.578125 48.1875 50.953125 41.515625 
Q 57.328125 34.859375 57.328125 23.390625 
Q 57.328125 12.15625 50.6875 5.359375 
Q 44.046875 -1.421875 33.015625 -1.421875 
Q 20.359375 -1.421875 13.671875 8.265625 
Q 6.984375 17.96875 6.984375 36.375 
Q 6.984375 53.65625 15.1875 63.9375 
Q 23.390625 74.21875 37.203125 74.21875 
Q 40.921875 74.21875 44.703125 73.484375 
Q 48.484375 72.75 52.59375 71.296875 
" id="BitstreamVeraSans-Roman-36"/>
      </defs>
      <g transform="translate(31.55625 131.893904703)scale(0.2 -0.2)">
       <use xlink:href="#BitstreamVeraSans-Roman-30"/>
       <use x="63.623046875" xlink:href="#BitstreamVeraSans-Roman-2e"/>
       <use x="95.41015625" xlink:href="#BitstreamVeraSans-Roman-36"/>
      </g>
     </g>
    </g>
    <g id="ytick_5">
     <g id="line2d_106">
      <path clip-path="url(#p101aee3d5c)" d="M 67.3625 71.62664 
L 424.4825 71.62664 
" style="fill:none;stroke:#000000;stroke-dasharray:1.000000,3.000000;stroke-dashoffset:0.0;stroke-width:0.5;"/>
     </g>
     <g id="line2d_107">
      <g>
       <use style="stroke:#000000;stroke-width:0.5;" x="67.3625" xlink:href="#mf353877ae3" y="71.6266398515"/>
      </g>
     </g>
     <g id="line2d_108">
      <g>
       <use style="stroke:#000000;stroke-width:0.5;" x="424.4825" xlink:href="#m8259d3ed9a" y="71.6266398515"/>
      </g>
     </g>
     <g id="text_9">
      <!-- 0.8 -->
      <defs>
       <path d="M 31.78125 34.625 
Q 24.75 34.625 20.71875 30.859375 
Q 16.703125 27.09375 16.703125 20.515625 
Q 16.703125 13.921875 20.71875 10.15625 
Q 24.75 6.390625 31.78125 6.390625 
Q 38.8125 6.390625 42.859375 10.171875 
Q 46.921875 13.96875 46.921875 20.515625 
Q 46.921875 27.09375 42.890625 30.859375 
Q 38.875 34.625 31.78125 34.625 
M 21.921875 38.8125 
Q 15.578125 40.375 12.03125 44.71875 
Q 8.5 49.078125 8.5 55.328125 
Q 8.5 64.0625 14.71875 69.140625 
Q 20.953125 74.21875 31.78125 74.21875 
Q 42.671875 74.21875 48.875 69.140625 
Q 55.078125 64.0625 55.078125 55.328125 
Q 55.078125 49.078125 51.53125 44.71875 
Q 48 40.375 41.703125 38.8125 
Q 48.828125 37.15625 52.796875 32.3125 
Q 56.78125 27.484375 56.78125 20.515625 
Q 56.78125 9.90625 50.3125 4.234375 
Q 43.84375 -1.421875 31.78125 -1.421875 
Q 19.734375 -1.421875 13.25 4.234375 
Q 6.78125 9.90625 6.78125 20.515625 
Q 6.78125 27.484375 10.78125 32.3125 
Q 14.796875 37.15625 21.921875 38.8125 
M 18.3125 54.390625 
Q 18.3125 48.734375 21.84375 45.5625 
Q 25.390625 42.390625 31.78125 42.390625 
Q 38.140625 42.390625 41.71875 45.5625 
Q 45.3125 48.734375 45.3125 54.390625 
Q 45.3125 60.0625 41.71875 63.234375 
Q 38.140625 66.40625 31.78125 66.40625 
Q 25.390625 66.40625 21.84375 63.234375 
Q 18.3125 60.0625 18.3125 54.390625 
" id="BitstreamVeraSans-Roman-38"/>
      </defs>
      <g transform="translate(31.55625 77.1453898515)scale(0.2 -0.2)">
       <use xlink:href="#BitstreamVeraSans-Roman-30"/>
       <use x="63.623046875" xlink:href="#BitstreamVeraSans-Roman-2e"/>
       <use x="95.41015625" xlink:href="#BitstreamVeraSans-Roman-38"/>
      </g>
     </g>
    </g>
    <g id="ytick_6">
     <g id="line2d_109">
      <path clip-path="url(#p101aee3d5c)" d="M 67.3625 16.878125 
L 424.4825 16.878125 
" style="fill:none;stroke:#000000;stroke-dasharray:1.000000,3.000000;stroke-dashoffset:0.0;stroke-width:0.5;"/>
     </g>
     <g id="line2d_110">
      <g>
       <use style="stroke:#000000;stroke-width:0.5;" x="67.3625" xlink:href="#mf353877ae3" y="16.878125"/>
      </g>
     </g>
     <g id="line2d_111">
      <g>
       <use style="stroke:#000000;stroke-width:0.5;" x="424.4825" xlink:href="#m8259d3ed9a" y="16.878125"/>
      </g>
     </g>
     <g id="text_10">
      <!-- 1.0 -->
      <g transform="translate(31.55625 22.396875)scale(0.2 -0.2)">
       <use xlink:href="#BitstreamVeraSans-Roman-31"/>
       <use x="63.623046875" xlink:href="#BitstreamVeraSans-Roman-2e"/>
       <use x="95.41015625" xlink:href="#BitstreamVeraSans-Roman-30"/>
      </g>
     </g>
    </g>
    <g id="text_11">
     <!-- proportion of trials -->
     <defs>
      <path d="M 54.890625 33.015625 
L 54.890625 0 
L 45.90625 0 
L 45.90625 32.71875 
Q 45.90625 40.484375 42.875 44.328125 
Q 39.84375 48.1875 33.796875 48.1875 
Q 26.515625 48.1875 22.3125 43.546875 
Q 18.109375 38.921875 18.109375 30.90625 
L 18.109375 0 
L 9.078125 0 
L 9.078125 54.6875 
L 18.109375 54.6875 
L 18.109375 46.1875 
Q 21.34375 51.125 25.703125 53.5625 
Q 30.078125 56 35.796875 56 
Q 45.21875 56 50.046875 50.171875 
Q 54.890625 44.34375 54.890625 33.015625 
" id="BitstreamVeraSans-Roman-6e"/>
      <path d="M 9.421875 54.6875 
L 18.40625 54.6875 
L 18.40625 0 
L 9.421875 0 
z
M 9.421875 75.984375 
L 18.40625 75.984375 
L 18.40625 64.59375 
L 9.421875 64.59375 
z
" id="BitstreamVeraSans-Roman-69"/>
      <path d="M 18.3125 70.21875 
L 18.3125 54.6875 
L 36.8125 54.6875 
L 36.8125 47.703125 
L 18.3125 47.703125 
L 18.3125 18.015625 
Q 18.3125 11.328125 20.140625 9.421875 
Q 21.96875 7.515625 27.59375 7.515625 
L 36.8125 7.515625 
L 36.8125 0 
L 27.59375 0 
Q 17.1875 0 13.234375 3.875 
Q 9.28125 7.765625 9.28125 18.015625 
L 9.28125 47.703125 
L 2.6875 47.703125 
L 2.6875 54.6875 
L 9.28125 54.6875 
L 9.28125 70.21875 
z
" id="BitstreamVeraSans-Roman-74"/>
      <path d="M 41.109375 46.296875 
Q 39.59375 47.171875 37.8125 47.578125 
Q 36.03125 48 33.890625 48 
Q 26.265625 48 22.1875 43.046875 
Q 18.109375 38.09375 18.109375 28.8125 
L 18.109375 0 
L 9.078125 0 
L 9.078125 54.6875 
L 18.109375 54.6875 
L 18.109375 46.1875 
Q 20.953125 51.171875 25.484375 53.578125 
Q 30.03125 56 36.53125 56 
Q 37.453125 56 38.578125 55.875 
Q 39.703125 55.765625 41.0625 55.515625 
z
" id="BitstreamVeraSans-Roman-72"/>
      <path d="M 18.109375 8.203125 
L 18.109375 -20.796875 
L 9.078125 -20.796875 
L 9.078125 54.6875 
L 18.109375 54.6875 
L 18.109375 46.390625 
Q 20.953125 51.265625 25.265625 53.625 
Q 29.59375 56 35.59375 56 
Q 45.5625 56 51.78125 48.09375 
Q 58.015625 40.1875 58.015625 27.296875 
Q 58.015625 14.40625 51.78125 6.484375 
Q 45.5625 -1.421875 35.59375 -1.421875 
Q 29.59375 -1.421875 25.265625 0.953125 
Q 20.953125 3.328125 18.109375 8.203125 
M 48.6875 27.296875 
Q 48.6875 37.203125 44.609375 42.84375 
Q 40.53125 48.484375 33.40625 48.484375 
Q 26.265625 48.484375 22.1875 42.84375 
Q 18.109375 37.203125 18.109375 27.296875 
Q 18.109375 17.390625 22.1875 11.75 
Q 26.265625 6.109375 33.40625 6.109375 
Q 40.53125 6.109375 44.609375 11.75 
Q 48.6875 17.390625 48.6875 27.296875 
" id="BitstreamVeraSans-Roman-70"/>
     </defs>
     <g transform="translate(22.396875 245.608824257)rotate(-90.0)scale(0.2 -0.2)">
      <use xlink:href="#BitstreamVeraSans-Roman-70"/>
      <use x="63.4765625" xlink:href="#BitstreamVeraSans-Roman-72"/>
      <use x="104.55859375" xlink:href="#BitstreamVeraSans-Roman-6f"/>
      <use x="165.740234375" xlink:href="#BitstreamVeraSans-Roman-70"/>
      <use x="229.216796875" xlink:href="#BitstreamVeraSans-Roman-6f"/>
      <use x="290.3984375" xlink:href="#BitstreamVeraSans-Roman-72"/>
      <use x="331.51171875" xlink:href="#BitstreamVeraSans-Roman-74"/>
      <use x="370.720703125" xlink:href="#BitstreamVeraSans-Roman-69"/>
      <use x="398.50390625" xlink:href="#BitstreamVeraSans-Roman-6f"/>
      <use x="459.685546875" xlink:href="#BitstreamVeraSans-Roman-6e"/>
      <use x="523.064453125" xlink:href="#BitstreamVeraSans-Roman-20"/>
      <use x="554.8515625" xlink:href="#BitstreamVeraSans-Roman-6f"/>
      <use x="616.033203125" xlink:href="#BitstreamVeraSans-Roman-66"/>
      <use x="651.23828125" xlink:href="#BitstreamVeraSans-Roman-20"/>
      <use x="683.025390625" xlink:href="#BitstreamVeraSans-Roman-74"/>
      <use x="722.234375" xlink:href="#BitstreamVeraSans-Roman-72"/>
      <use x="763.34765625" xlink:href="#BitstreamVeraSans-Roman-69"/>
      <use x="791.130859375" xlink:href="#BitstreamVeraSans-Roman-61"/>
      <use x="852.41015625" xlink:href="#BitstreamVeraSans-Roman-6c"/>
      <use x="880.193359375" xlink:href="#BitstreamVeraSans-Roman-73"/>
     </g>
    </g>
   </g>
   <g id="text_12">
    <!-- f1-5,20-D -->
    <defs>
     <path d="M 11.71875 12.40625 
L 22.015625 12.40625 
L 22.015625 4 
L 14.015625 -11.625 
L 7.71875 -11.625 
L 11.71875 4 
z
" id="BitstreamVeraSans-Roman-2c"/>
     <path d="M 4.890625 31.390625 
L 31.203125 31.390625 
L 31.203125 23.390625 
L 4.890625 23.390625 
z
" id="BitstreamVeraSans-Roman-2d"/>
     <path d="M 10.796875 72.90625 
L 49.515625 72.90625 
L 49.515625 64.59375 
L 19.828125 64.59375 
L 19.828125 46.734375 
Q 21.96875 47.46875 24.109375 47.828125 
Q 26.265625 48.1875 28.421875 48.1875 
Q 40.625 48.1875 47.75 41.5 
Q 54.890625 34.8125 54.890625 23.390625 
Q 54.890625 11.625 47.5625 5.09375 
Q 40.234375 -1.421875 26.90625 -1.421875 
Q 22.3125 -1.421875 17.546875 -0.640625 
Q 12.796875 0.140625 7.71875 1.703125 
L 7.71875 11.625 
Q 12.109375 9.234375 16.796875 8.0625 
Q 21.484375 6.890625 26.703125 6.890625 
Q 35.15625 6.890625 40.078125 11.328125 
Q 45.015625 15.765625 45.015625 23.390625 
Q 45.015625 31 40.078125 35.4375 
Q 35.15625 39.890625 26.703125 39.890625 
Q 22.75 39.890625 18.8125 39.015625 
Q 14.890625 38.140625 10.796875 36.28125 
z
" id="BitstreamVeraSans-Roman-35"/>
    </defs>
    <g transform="translate(198.8584375 34.8671742574)scale(0.2 -0.2)">
     <use xlink:href="#BitstreamVeraSans-Roman-66"/>
     <use x="35.205078125" xlink:href="#BitstreamVeraSans-Roman-31"/>
     <use x="98.828125" xlink:href="#BitstreamVeraSans-Roman-2d"/>
     <use x="134.912109375" xlink:href="#BitstreamVeraSans-Roman-35"/>
     <use x="198.53515625" xlink:href="#BitstreamVeraSans-Roman-2c"/>
     <use x="230.322265625" xlink:href="#BitstreamVeraSans-Roman-32"/>
     <use x="293.9453125" xlink:href="#BitstreamVeraSans-Roman-30"/>
     <use x="357.568359375" xlink:href="#BitstreamVeraSans-Roman-2d"/>
     <use x="393.65234375" xlink:href="#BitstreamVeraSans-Roman-44"/>
    </g>
   </g>
   <g id="text_13">
    <!-- reference budgets from bestGECCO2009 -->
    <defs>
     <path d="M 39.40625 66.21875 
Q 28.65625 66.21875 22.328125 58.203125 
Q 16.015625 50.203125 16.015625 36.375 
Q 16.015625 22.609375 22.328125 14.59375 
Q 28.65625 6.59375 39.40625 6.59375 
Q 50.140625 6.59375 56.421875 14.59375 
Q 62.703125 22.609375 62.703125 36.375 
Q 62.703125 50.203125 56.421875 58.203125 
Q 50.140625 66.21875 39.40625 66.21875 
M 39.40625 74.21875 
Q 54.734375 74.21875 63.90625 63.9375 
Q 73.09375 53.65625 73.09375 36.375 
Q 73.09375 19.140625 63.90625 8.859375 
Q 54.734375 -1.421875 39.40625 -1.421875 
Q 24.03125 -1.421875 14.8125 8.828125 
Q 5.609375 19.09375 5.609375 36.375 
Q 5.609375 53.65625 14.8125 63.9375 
Q 24.03125 74.21875 39.40625 74.21875 
" id="BitstreamVeraSans-Roman-4f"/>
     <path d="M 52 44.1875 
Q 55.375 50.25 60.0625 53.125 
Q 64.75 56 71.09375 56 
Q 79.640625 56 84.28125 50.015625 
Q 88.921875 44.046875 88.921875 33.015625 
L 88.921875 0 
L 79.890625 0 
L 79.890625 32.71875 
Q 79.890625 40.578125 77.09375 44.375 
Q 74.3125 48.1875 68.609375 48.1875 
Q 61.625 48.1875 57.5625 43.546875 
Q 53.515625 38.921875 53.515625 30.90625 
L 53.515625 0 
L 44.484375 0 
L 44.484375 32.71875 
Q 44.484375 40.625 41.703125 44.40625 
Q 38.921875 48.1875 33.109375 48.1875 
Q 26.21875 48.1875 22.15625 43.53125 
Q 18.109375 38.875 18.109375 30.90625 
L 18.109375 0 
L 9.078125 0 
L 9.078125 54.6875 
L 18.109375 54.6875 
L 18.109375 46.1875 
Q 21.1875 51.21875 25.484375 53.609375 
Q 29.78125 56 35.6875 56 
Q 41.65625 56 45.828125 52.96875 
Q 50 49.953125 52 44.1875 
" id="BitstreamVeraSans-Roman-6d"/>
     <path d="M 10.984375 1.515625 
L 10.984375 10.5 
Q 14.703125 8.734375 18.5 7.8125 
Q 22.3125 6.890625 25.984375 6.890625 
Q 35.75 6.890625 40.890625 13.453125 
Q 46.046875 20.015625 46.78125 33.40625 
Q 43.953125 29.203125 39.59375 26.953125 
Q 35.25 24.703125 29.984375 24.703125 
Q 19.046875 24.703125 12.671875 31.3125 
Q 6.296875 37.9375 6.296875 49.421875 
Q 6.296875 60.640625 12.9375 67.421875 
Q 19.578125 74.21875 30.609375 74.21875 
Q 43.265625 74.21875 49.921875 64.515625 
Q 56.59375 54.828125 56.59375 36.375 
Q 56.59375 19.140625 48.40625 8.859375 
Q 40.234375 -1.421875 26.421875 -1.421875 
Q 22.703125 -1.421875 18.890625 -0.6875 
Q 15.09375 0.046875 10.984375 1.515625 
M 30.609375 32.421875 
Q 37.25 32.421875 41.125 36.953125 
Q 45.015625 41.5 45.015625 49.421875 
Q 45.015625 57.28125 41.125 61.84375 
Q 37.25 66.40625 30.609375 66.40625 
Q 23.96875 66.40625 20.09375 61.84375 
Q 16.21875 57.28125 16.21875 49.421875 
Q 16.21875 41.5 20.09375 36.953125 
Q 23.96875 32.421875 30.609375 32.421875 
" id="BitstreamVeraSans-Roman-39"/>
     <path d="M 59.515625 10.40625 
L 59.515625 29.984375 
L 43.40625 29.984375 
L 43.40625 38.09375 
L 69.28125 38.09375 
L 69.28125 6.78125 
Q 63.578125 2.734375 56.6875 0.65625 
Q 49.8125 -1.421875 42 -1.421875 
Q 24.90625 -1.421875 15.25 8.5625 
Q 5.609375 18.5625 5.609375 36.375 
Q 5.609375 54.25 15.25 64.234375 
Q 24.90625 74.21875 42 74.21875 
Q 49.125 74.21875 55.546875 72.453125 
Q 61.96875 70.703125 67.390625 67.28125 
L 67.390625 56.78125 
Q 61.921875 61.421875 55.765625 63.765625 
Q 49.609375 66.109375 42.828125 66.109375 
Q 29.4375 66.109375 22.71875 58.640625 
Q 16.015625 51.171875 16.015625 36.375 
Q 16.015625 21.625 22.71875 14.15625 
Q 29.4375 6.6875 42.828125 6.6875 
Q 48.046875 6.6875 52.140625 7.59375 
Q 56.25 8.5 59.515625 10.40625 
" id="BitstreamVeraSans-Roman-47"/>
     <path d="M 64.40625 67.28125 
L 64.40625 56.890625 
Q 59.421875 61.53125 53.78125 63.8125 
Q 48.140625 66.109375 41.796875 66.109375 
Q 29.296875 66.109375 22.65625 58.46875 
Q 16.015625 50.828125 16.015625 36.375 
Q 16.015625 21.96875 22.65625 14.328125 
Q 29.296875 6.6875 41.796875 6.6875 
Q 48.140625 6.6875 53.78125 8.984375 
Q 59.421875 11.28125 64.40625 15.921875 
L 64.40625 5.609375 
Q 59.234375 2.09375 53.4375 0.328125 
Q 47.65625 -1.421875 41.21875 -1.421875 
Q 24.65625 -1.421875 15.125 8.703125 
Q 5.609375 18.84375 5.609375 36.375 
Q 5.609375 53.953125 15.125 64.078125 
Q 24.65625 74.21875 41.21875 74.21875 
Q 47.75 74.21875 53.53125 72.484375 
Q 59.328125 70.75 64.40625 67.28125 
" id="BitstreamVeraSans-Roman-43"/>
     <path d="M 56.203125 29.59375 
L 56.203125 25.203125 
L 14.890625 25.203125 
Q 15.484375 15.921875 20.484375 11.0625 
Q 25.484375 6.203125 34.421875 6.203125 
Q 39.59375 6.203125 44.453125 7.46875 
Q 49.3125 8.734375 54.109375 11.28125 
L 54.109375 2.78125 
Q 49.265625 0.734375 44.1875 -0.34375 
Q 39.109375 -1.421875 33.890625 -1.421875 
Q 20.796875 -1.421875 13.15625 6.1875 
Q 5.515625 13.8125 5.515625 26.8125 
Q 5.515625 40.234375 12.765625 48.109375 
Q 20.015625 56 32.328125 56 
Q 43.359375 56 49.78125 48.890625 
Q 56.203125 41.796875 56.203125 29.59375 
M 47.21875 32.234375 
Q 47.125 39.59375 43.09375 43.984375 
Q 39.0625 48.390625 32.421875 48.390625 
Q 24.90625 48.390625 20.390625 44.140625 
Q 15.875 39.890625 15.1875 32.171875 
z
" id="BitstreamVeraSans-Roman-65"/>
     <path d="M 45.40625 46.390625 
L 45.40625 75.984375 
L 54.390625 75.984375 
L 54.390625 0 
L 45.40625 0 
L 45.40625 8.203125 
Q 42.578125 3.328125 38.25 0.953125 
Q 33.9375 -1.421875 27.875 -1.421875 
Q 17.96875 -1.421875 11.734375 6.484375 
Q 5.515625 14.40625 5.515625 27.296875 
Q 5.515625 40.1875 11.734375 48.09375 
Q 17.96875 56 27.875 56 
Q 33.9375 56 38.25 53.625 
Q 42.578125 51.265625 45.40625 46.390625 
M 14.796875 27.296875 
Q 14.796875 17.390625 18.875 11.75 
Q 22.953125 6.109375 30.078125 6.109375 
Q 37.203125 6.109375 41.296875 11.75 
Q 45.40625 17.390625 45.40625 27.296875 
Q 45.40625 37.203125 41.296875 42.84375 
Q 37.203125 48.484375 30.078125 48.484375 
Q 22.953125 48.484375 18.875 42.84375 
Q 14.796875 37.203125 14.796875 27.296875 
" id="BitstreamVeraSans-Roman-64"/>
     <path d="M 8.5 21.578125 
L 8.5 54.6875 
L 17.484375 54.6875 
L 17.484375 21.921875 
Q 17.484375 14.15625 20.5 10.265625 
Q 23.53125 6.390625 29.59375 6.390625 
Q 36.859375 6.390625 41.078125 11.03125 
Q 45.3125 15.671875 45.3125 23.6875 
L 45.3125 54.6875 
L 54.296875 54.6875 
L 54.296875 0 
L 45.3125 0 
L 45.3125 8.40625 
Q 42.046875 3.421875 37.71875 1 
Q 33.40625 -1.421875 27.6875 -1.421875 
Q 18.265625 -1.421875 13.375 4.4375 
Q 8.5 10.296875 8.5 21.578125 
" id="BitstreamVeraSans-Roman-75"/>
     <path d="M 48.78125 52.59375 
L 48.78125 44.1875 
Q 44.96875 46.296875 41.140625 47.34375 
Q 37.3125 48.390625 33.40625 48.390625 
Q 24.65625 48.390625 19.8125 42.84375 
Q 14.984375 37.3125 14.984375 27.296875 
Q 14.984375 17.28125 19.8125 11.734375 
Q 24.65625 6.203125 33.40625 6.203125 
Q 37.3125 6.203125 41.140625 7.25 
Q 44.96875 8.296875 48.78125 10.40625 
L 48.78125 2.09375 
Q 45.015625 0.34375 40.984375 -0.53125 
Q 36.96875 -1.421875 32.421875 -1.421875 
Q 20.0625 -1.421875 12.78125 6.34375 
Q 5.515625 14.109375 5.515625 27.296875 
Q 5.515625 40.671875 12.859375 48.328125 
Q 20.21875 56 33.015625 56 
Q 37.15625 56 41.109375 55.140625 
Q 45.0625 54.296875 48.78125 52.59375 
" id="BitstreamVeraSans-Roman-63"/>
     <path d="M 48.6875 27.296875 
Q 48.6875 37.203125 44.609375 42.84375 
Q 40.53125 48.484375 33.40625 48.484375 
Q 26.265625 48.484375 22.1875 42.84375 
Q 18.109375 37.203125 18.109375 27.296875 
Q 18.109375 17.390625 22.1875 11.75 
Q 26.265625 6.109375 33.40625 6.109375 
Q 40.53125 6.109375 44.609375 11.75 
Q 48.6875 17.390625 48.6875 27.296875 
M 18.109375 46.390625 
Q 20.953125 51.265625 25.265625 53.625 
Q 29.59375 56 35.59375 56 
Q 45.5625 56 51.78125 48.09375 
Q 58.015625 40.1875 58.015625 27.296875 
Q 58.015625 14.40625 51.78125 6.484375 
Q 45.5625 -1.421875 35.59375 -1.421875 
Q 29.59375 -1.421875 25.265625 0.953125 
Q 20.953125 3.328125 18.109375 8.203125 
L 18.109375 0 
L 9.078125 0 
L 9.078125 75.984375 
L 18.109375 75.984375 
z
" id="BitstreamVeraSans-Roman-62"/>
    </defs>
    <g transform="translate(67.3625 290.620699257)scale(0.14 -0.14)">
     <use xlink:href="#BitstreamVeraSans-Roman-72"/>
     <use x="41.08203125" xlink:href="#BitstreamVeraSans-Roman-65"/>
     <use x="102.60546875" xlink:href="#BitstreamVeraSans-Roman-66"/>
     <use x="137.810546875" xlink:href="#BitstreamVeraSans-Roman-65"/>
     <use x="199.333984375" xlink:href="#BitstreamVeraSans-Roman-72"/>
     <use x="240.416015625" xlink:href="#BitstreamVeraSans-Roman-65"/>
     <use x="301.939453125" xlink:href="#BitstreamVeraSans-Roman-6e"/>
     <use x="365.318359375" xlink:href="#BitstreamVeraSans-Roman-63"/>
     <use x="420.298828125" xlink:href="#BitstreamVeraSans-Roman-65"/>
     <use x="481.822265625" xlink:href="#BitstreamVeraSans-Roman-20"/>
     <use x="513.609375" xlink:href="#BitstreamVeraSans-Roman-62"/>
     <use x="577.0859375" xlink:href="#BitstreamVeraSans-Roman-75"/>
     <use x="640.46484375" xlink:href="#BitstreamVeraSans-Roman-64"/>
     <use x="703.94140625" xlink:href="#BitstreamVeraSans-Roman-67"/>
     <use x="767.41796875" xlink:href="#BitstreamVeraSans-Roman-65"/>
     <use x="828.94140625" xlink:href="#BitstreamVeraSans-Roman-74"/>
     <use x="868.150390625" xlink:href="#BitstreamVeraSans-Roman-73"/>
     <use x="920.25" xlink:href="#BitstreamVeraSans-Roman-20"/>
     <use x="952.037109375" xlink:href="#BitstreamVeraSans-Roman-66"/>
     <use x="987.2421875" xlink:href="#BitstreamVeraSans-Roman-72"/>
     <use x="1028.32421875" xlink:href="#BitstreamVeraSans-Roman-6f"/>
     <use x="1089.50585938" xlink:href="#BitstreamVeraSans-Roman-6d"/>
     <use x="1186.91796875" xlink:href="#BitstreamVeraSans-Roman-20"/>
     <use x="1218.70507812" xlink:href="#BitstreamVeraSans-Roman-62"/>
     <use x="1282.18164062" xlink:href="#BitstreamVeraSans-Roman-65"/>
     <use x="1343.70507812" xlink:href="#BitstreamVeraSans-Roman-73"/>
     <use x="1395.8046875" xlink:href="#BitstreamVeraSans-Roman-74"/>
     <use x="1435.01367188" xlink:href="#BitstreamVeraSans-Roman-47"/>
     <use x="1512.50390625" xlink:href="#BitstreamVeraSans-Roman-45"/>
     <use x="1575.6875" xlink:href="#BitstreamVeraSans-Roman-43"/>
     <use x="1645.51171875" xlink:href="#BitstreamVeraSans-Roman-43"/>
     <use x="1715.3359375" xlink:href="#BitstreamVeraSans-Roman-4f"/>
     <use x="1794.046875" xlink:href="#BitstreamVeraSans-Roman-32"/>
     <use x="1857.66992188" xlink:href="#BitstreamVeraSans-Roman-30"/>
     <use x="1921.29296875" xlink:href="#BitstreamVeraSans-Roman-30"/>
     <use x="1984.91601562" xlink:href="#BitstreamVeraSans-Roman-39"/>
    </g>
   </g>
   <g id="legend_1">
    <g id="patch_7">
     <path d="M 77.3625 147.565699 
L 226.45 147.565699 
L 226.45 24.140699 
L 77.3625 24.140699 
z
" style="fill:#ffffff;stroke:#000000;stroke-linejoin:miter;"/>
    </g>
    <g id="line2d_112">
     <path d="M 91.3625 40.337574 
L 119.3625 40.337574 
" style="fill:none;stroke:#000000;stroke-linecap:square;"/>
    </g>
    <g id="line2d_113"/>
    <g id="text_14">
     <!-- 0.5: 5/5 -->
     <defs>
      <path d="M 11.71875 12.40625 
L 22.015625 12.40625 
L 22.015625 0 
L 11.71875 0 
z
M 11.71875 51.703125 
L 22.015625 51.703125 
L 22.015625 39.3125 
L 11.71875 39.3125 
z
" id="BitstreamVeraSans-Roman-3a"/>
     </defs>
     <g transform="translate(141.3625 47.3375742574)scale(0.2 -0.2)">
      <use xlink:href="#BitstreamVeraSans-Roman-30"/>
      <use x="63.623046875" xlink:href="#BitstreamVeraSans-Roman-2e"/>
      <use x="95.41015625" xlink:href="#BitstreamVeraSans-Roman-35"/>
      <use x="159.033203125" xlink:href="#BitstreamVeraSans-Roman-3a"/>
      <use x="192.724609375" xlink:href="#BitstreamVeraSans-Roman-20"/>
      <use x="224.51171875" xlink:href="#BitstreamVeraSans-Roman-35"/>
      <use x="288.134765625" xlink:href="#BitstreamVeraSans-Roman-2f"/>
      <use x="321.826171875" xlink:href="#BitstreamVeraSans-Roman-35"/>
     </g>
    </g>
    <g id="line2d_114">
     <path d="M 91.3625 69.693824 
L 119.3625 69.693824 
" style="fill:none;stroke:#00bfbf;stroke-linecap:square;"/>
    </g>
    <g id="line2d_115"/>
    <g id="text_15">
     <!-- 2: 1/5 -->
     <g transform="translate(141.3625 76.6938242574)scale(0.2 -0.2)">
      <use xlink:href="#BitstreamVeraSans-Roman-32"/>
      <use x="63.623046875" xlink:href="#BitstreamVeraSans-Roman-3a"/>
      <use x="97.314453125" xlink:href="#BitstreamVeraSans-Roman-20"/>
      <use x="129.1015625" xlink:href="#BitstreamVeraSans-Roman-31"/>
      <use x="192.724609375" xlink:href="#BitstreamVeraSans-Roman-2f"/>
      <use x="226.416015625" xlink:href="#BitstreamVeraSans-Roman-35"/>
     </g>
    </g>
    <g id="line2d_116">
     <path d="M 91.3625 99.050074 
L 119.3625 99.050074 
" style="fill:none;stroke:#bf00bf;stroke-linecap:square;"/>
    </g>
    <g id="line2d_117"/>
    <g id="text_16">
     <!-- 10: 0/5 -->
     <g transform="translate(141.3625 106.050074257)scale(0.2 -0.2)">
      <use xlink:href="#BitstreamVeraSans-Roman-31"/>
      <use x="63.623046875" xlink:href="#BitstreamVeraSans-Roman-30"/>
      <use x="127.24609375" xlink:href="#BitstreamVeraSans-Roman-3a"/>
      <use x="160.9375" xlink:href="#BitstreamVeraSans-Roman-20"/>
      <use x="192.724609375" xlink:href="#BitstreamVeraSans-Roman-30"/>
      <use x="256.34765625" xlink:href="#BitstreamVeraSans-Roman-2f"/>
      <use x="290.0390625" xlink:href="#BitstreamVeraSans-Roman-35"/>
     </g>
    </g>
    <g id="line2d_118">
     <path d="M 91.3625 128.406324 
L 119.3625 128.406324 
" style="fill:none;stroke:#ff0000;stroke-linecap:square;stroke-width:3.0;"/>
    </g>
    <g id="line2d_119"/>
    <g id="text_17">
     <!-- 50: 0/5 -->
     <g transform="translate(141.3625 135.406324257)scale(0.2 -0.2)">
      <use xlink:href="#BitstreamVeraSans-Roman-35"/>
      <use x="63.623046875" xlink:href="#BitstreamVeraSans-Roman-30"/>
      <use x="127.24609375" xlink:href="#BitstreamVeraSans-Roman-3a"/>
      <use x="160.9375" xlink:href="#BitstreamVeraSans-Roman-20"/>
      <use x="192.724609375" xlink:href="#BitstreamVeraSans-Roman-30"/>
      <use x="256.34765625" xlink:href="#BitstreamVeraSans-Roman-2f"/>
      <use x="290.0390625" xlink:href="#BitstreamVeraSans-Roman-35"/>
     </g>
    </g>
   </g>
  </g>
 </g>
 <defs>
  <clipPath id="p101aee3d5c">
   <rect height="276.48" width="357.12" x="67.3625" y="14.1406992574"/>
  </clipPath>
 </defs>
</svg>
